M48
; DRILL file {KiCad 9.0.2} date 2025-06-13T11:02:27+1000
; FORMAT={-:-/ absolute / inch / decimal}
; #@! TF.CreationDate,2025-06-13T11:02:27+10:00
; #@! TF.GenerationSoftware,Kicad,Pcbnew,9.0.2
; #@! TF.FileFunction,Plated,1,2,PTH
FMAT,2
INCH
; #@! TA.AperFunction,Plated,PTH,ViaDrill
T1C0.0150
; #@! TA.AperFunction,Plated,PTH,ComponentDrill
T2C0.0197
; #@! TA.AperFunction,Plated,PTH,ComponentDrill
T3C0.0315
; #@! TA.AperFunction,Plated,PTH,ComponentDrill
T4C0.0394
; #@! TA.AperFunction,Plated,PTH,ComponentDrill
T5C0.0402
; #@! TA.AperFunction,Plated,PTH,ComponentDrill
T6C0.0472
%
G90
G05
T1
X0.383Y-1.842
X0.518Y-2.551
X0.526Y-1.234
X0.526Y-1.862
X0.589Y-3.141
X0.624Y-0.894
X0.626Y-0.418
X0.756Y-0.986
X0.846Y-0.168
X0.868Y-0.792
X0.869Y-0.985
X0.949Y-1.663
X0.995Y-0.985
X0.9951Y-1.3831
X1.032Y-0.307
X1.118Y-1.199
X1.171Y-1.76
X1.171Y-1.861
X1.171Y-2.061
X1.172Y-2.161
X1.173Y-2.261
X1.173Y-2.361
X1.27Y-0.092
X1.307Y-1.035
X1.307Y-1.658
X1.382Y-0.863
X1.449Y-0.581
X1.486Y-1.143
X1.55Y-0.338
X1.696Y-0.64
X1.778Y-0.705
X1.8278Y-0.804
X1.835Y-0.89
X1.95Y-0.311
X2.056Y-0.617
X2.129Y-3.397
X2.206Y-0.365
X2.278Y-0.68
X2.279Y-0.83
T2
X2.278Y-1.237
T3
X0.0953Y-0.6299
X0.0953Y-0.8931
X0.0953Y-1.147
X0.1953Y-0.6299
X0.1953Y-0.8931
X0.1953Y-1.147
X0.2953Y-0.6299
X0.2953Y-0.8931
X0.2953Y-1.147
X2.034Y-1.034
X2.034Y-1.434
T4
X0.754Y-0.416
X0.795Y-1.29
X1.738Y-1.287
X1.898Y-3.338
X1.898Y-3.438
X1.898Y-3.538
X1.898Y-3.638
X2.165Y-1.475
X2.165Y-1.575
X2.165Y-1.675
X2.165Y-1.775
X2.165Y-1.875
X2.165Y-1.975
X2.165Y-2.075
X2.165Y-2.175
X2.165Y-2.275
X2.165Y-2.375
X2.165Y-2.475
X2.165Y-2.575
X2.165Y-2.675
X2.165Y-2.775
X2.165Y-2.875
X2.265Y-1.475
X2.265Y-1.575
X2.265Y-1.675
X2.265Y-1.775
X2.265Y-1.875
X2.265Y-1.975
X2.265Y-2.075
X2.265Y-2.175
X2.265Y-2.275
X2.265Y-2.375
X2.265Y-2.475
X2.265Y-2.575
X2.265Y-2.675
X2.265Y-2.775
X2.265Y-2.875
T5
X0.822Y-1.76
X0.822Y-1.86
X0.822Y-1.96
X0.822Y-2.06
X0.822Y-2.16
X0.822Y-2.26
X0.822Y-2.36
X0.822Y-2.46
X0.822Y-2.56
X0.822Y-2.66
X0.822Y-2.76
X0.822Y-2.86
X0.822Y-2.96
X0.822Y-3.06
X0.822Y-3.16
X0.822Y-3.26
X0.822Y-3.36
X0.822Y-3.46
X0.822Y-3.56
X0.822Y-3.66
X1.522Y-1.76
X1.522Y-1.86
X1.522Y-1.96
X1.522Y-2.06
X1.522Y-2.16
X1.522Y-2.26
X1.522Y-2.36
X1.522Y-2.46
X1.522Y-2.56
X1.522Y-2.66
X1.522Y-2.76
X1.522Y-2.86
X1.522Y-2.96
X1.522Y-3.06
X1.522Y-3.16
X1.522Y-3.26
X1.522Y-3.36
X1.522Y-3.46
X1.522Y-3.56
X1.522Y-3.66
T6
X0.1181Y-0.2043
X0.1181Y-0.3543
X0.1181Y-1.4717
X0.1181Y-1.6217
X0.1181Y-1.7717
X0.1181Y-2.0622
X0.1181Y-2.2122
X0.1181Y-2.3622
X0.1181Y-2.6528
X0.1181Y-2.8028
X0.1181Y-2.9528
X0.1181Y-3.3539
X0.1181Y-3.5039
M30
