%TF.GenerationSoftware,KiCad,Pcbnew,9.0.2*%
%TF.CreationDate,2025-06-13T11:02:27+10:00*%
%TF.ProjectId,v8_equip_monitor,76385f65-7175-4697-905f-6d6f6e69746f,rev?*%
%TF.SameCoordinates,Original*%
%TF.FileFunction,Soldermask,Top*%
%TF.FilePolarity,Negative*%
%FSLAX46Y46*%
G04 Gerber Fmt 4.6, Leading zero omitted, Abs format (unit mm)*
G04 Created by KiCad (PCBNEW 9.0.2) date 2025-06-13 11:02:27*
%MOMM*%
%LPD*%
G01*
G04 APERTURE LIST*
G04 Aperture macros list*
%AMRoundRect*
0 Rectangle with rounded corners*
0 $1 Rounding radius*
0 $2 $3 $4 $5 $6 $7 $8 $9 X,Y pos of 4 corners*
0 Add a 4 corners polygon primitive as box body*
4,1,4,$2,$3,$4,$5,$6,$7,$8,$9,$2,$3,0*
0 Add four circle primitives for the rounded corners*
1,1,$1+$1,$2,$3*
1,1,$1+$1,$4,$5*
1,1,$1+$1,$6,$7*
1,1,$1+$1,$8,$9*
0 Add four rect primitives between the rounded corners*
20,1,$1+$1,$2,$3,$4,$5,0*
20,1,$1+$1,$4,$5,$6,$7,0*
20,1,$1+$1,$6,$7,$8,$9,0*
20,1,$1+$1,$8,$9,$2,$3,0*%
G04 Aperture macros list end*
%ADD10RoundRect,0.250000X-0.475000X0.337500X-0.475000X-0.337500X0.475000X-0.337500X0.475000X0.337500X0*%
%ADD11O,1.700000X1.700000*%
%ADD12R,1.700000X1.700000*%
%ADD13RoundRect,0.250000X-0.350000X-0.450000X0.350000X-0.450000X0.350000X0.450000X-0.350000X0.450000X0*%
%ADD14RoundRect,0.250000X0.475000X-0.337500X0.475000X0.337500X-0.475000X0.337500X-0.475000X-0.337500X0*%
%ADD15RoundRect,0.250000X0.450000X-0.350000X0.450000X0.350000X-0.450000X0.350000X-0.450000X-0.350000X0*%
%ADD16RoundRect,0.250000X0.350000X0.450000X-0.350000X0.450000X-0.350000X-0.450000X0.350000X-0.450000X0*%
%ADD17C,2.100000*%
%ADD18RoundRect,0.250000X-0.450000X0.350000X-0.450000X-0.350000X0.450000X-0.350000X0.450000X0.350000X0*%
%ADD19C,1.440000*%
%ADD20RoundRect,0.150000X0.625000X-0.150000X0.625000X0.150000X-0.625000X0.150000X-0.625000X-0.150000X0*%
%ADD21RoundRect,0.416666X0.970834X-0.583334X0.970834X0.583334X-0.970834X0.583334X-0.970834X-0.583334X0*%
%ADD22RoundRect,0.150000X-0.150000X0.587500X-0.150000X-0.587500X0.150000X-0.587500X0.150000X0.587500X0*%
%ADD23RoundRect,0.250000X-0.450000X0.325000X-0.450000X-0.325000X0.450000X-0.325000X0.450000X0.325000X0*%
%ADD24RoundRect,0.250000X0.337500X0.475000X-0.337500X0.475000X-0.337500X-0.475000X0.337500X-0.475000X0*%
%ADD25R,2.025000X2.025000*%
%ADD26C,2.025000*%
%ADD27C,1.600000*%
%ADD28O,1.600000X1.600000*%
%ADD29R,1.000000X1.000000*%
%ADD30RoundRect,0.250000X-0.337500X-0.475000X0.337500X-0.475000X0.337500X0.475000X-0.337500X0.475000X0*%
%ADD31RoundRect,0.150000X0.587500X0.150000X-0.587500X0.150000X-0.587500X-0.150000X0.587500X-0.150000X0*%
%ADD32RoundRect,0.150000X-0.587500X-0.150000X0.587500X-0.150000X0.587500X0.150000X-0.587500X0.150000X0*%
%ADD33RoundRect,0.150000X-0.825000X-0.150000X0.825000X-0.150000X0.825000X0.150000X-0.825000X0.150000X0*%
G04 APERTURE END LIST*
D10*
%TO.C,C1*%
X9677400Y-67364700D03*
X9677400Y-69439700D03*
%TD*%
D11*
%TO.C,U2*%
X38658800Y-92964000D03*
X38658800Y-90424000D03*
D12*
X38658800Y-87884000D03*
D11*
X38658800Y-85344000D03*
X38658800Y-82804000D03*
X38658800Y-80264000D03*
X38658800Y-77724000D03*
D12*
X38658800Y-75184000D03*
D11*
X38658800Y-72644000D03*
X38658800Y-70104000D03*
X38658800Y-67564000D03*
X38658800Y-65024000D03*
D12*
X38658800Y-62484000D03*
D11*
X38658800Y-59944000D03*
X38658800Y-57404000D03*
X38658800Y-54864000D03*
X38658800Y-52324000D03*
D12*
X38658800Y-49784000D03*
D11*
X38658800Y-47244000D03*
X38658800Y-44704000D03*
X20878800Y-44704000D03*
X20878800Y-47244000D03*
D12*
X20878800Y-49784000D03*
D11*
X20878800Y-52324000D03*
X20878800Y-54864000D03*
X20878800Y-57404000D03*
X20878800Y-59944000D03*
D12*
X20878800Y-62484000D03*
D11*
X20878800Y-65024000D03*
X20878800Y-67564000D03*
X20878800Y-70104000D03*
X20878800Y-72644000D03*
D12*
X20878800Y-75184000D03*
D11*
X20878800Y-77724000D03*
X20878800Y-80264000D03*
X20878800Y-82804000D03*
X20878800Y-85344000D03*
D12*
X20878800Y-87884000D03*
D11*
X20878800Y-90424000D03*
X20878800Y-92964000D03*
%TD*%
D13*
%TO.C,R9*%
X26482800Y-22352000D03*
X28482800Y-22352000D03*
%TD*%
D12*
%TO.C,J4*%
X20193000Y-32766000D03*
%TD*%
D14*
%TO.C,C22*%
X49530000Y-12950100D03*
X49530000Y-10875100D03*
%TD*%
D10*
%TO.C,C3*%
X54152800Y-10875100D03*
X54152800Y-12950100D03*
%TD*%
D15*
%TO.C,R6*%
X13360400Y-52435000D03*
X13360400Y-50435000D03*
%TD*%
D16*
%TO.C,R25*%
X48167800Y-6070600D03*
X46167800Y-6070600D03*
%TD*%
D14*
%TO.C,C20*%
X57912000Y-27072500D03*
X57912000Y-24997500D03*
%TD*%
D16*
%TO.C,R23*%
X38693600Y-2286000D03*
X36693600Y-2286000D03*
%TD*%
D17*
%TO.C,J9*%
X3000000Y-9000000D03*
X3000000Y-5190000D03*
%TD*%
D18*
%TO.C,R10*%
X37846000Y-31715200D03*
X37846000Y-33715200D03*
%TD*%
D15*
%TO.C,R13*%
X23876000Y-11541000D03*
X23876000Y-9541000D03*
%TD*%
%TO.C,R1*%
X13157200Y-69453000D03*
X13157200Y-67453000D03*
%TD*%
D12*
%TO.C,J6*%
X19151600Y-10566400D03*
%TD*%
D19*
%TO.C,RV3*%
X7500000Y-16000000D03*
X4960000Y-16000000D03*
X2420000Y-16000000D03*
%TD*%
D20*
%TO.C,CON2*%
X54616600Y-83008600D03*
X54616600Y-82008600D03*
X54616600Y-81008600D03*
X54616600Y-80008600D03*
D21*
X58039000Y-84709000D03*
X58039000Y-78257400D03*
%TD*%
D22*
%TO.C,D3*%
X24775200Y-4345700D03*
X22875200Y-4345700D03*
X23825200Y-6220700D03*
%TD*%
D23*
%TO.C,LED1*%
X8636000Y-76495800D03*
X8636000Y-78545800D03*
%TD*%
D12*
%TO.C,J2*%
X44145200Y-32689800D03*
%TD*%
D13*
%TO.C,R18*%
X27930600Y-66471800D03*
X29930600Y-66471800D03*
%TD*%
D24*
%TO.C,C14*%
X21255900Y-22352000D03*
X19180900Y-22352000D03*
%TD*%
D16*
%TO.C,R5*%
X44662600Y-24130000D03*
X42662600Y-24130000D03*
%TD*%
D10*
%TO.C,C5*%
X13157200Y-74883100D03*
X13157200Y-76958100D03*
%TD*%
D16*
%TO.C,R7*%
X28482800Y-27254200D03*
X26482800Y-27254200D03*
%TD*%
%TO.C,R8*%
X28457400Y-17399000D03*
X26457400Y-17399000D03*
%TD*%
D25*
%TO.C,J3*%
X3000000Y-60000000D03*
D26*
X3000000Y-56190000D03*
X3000000Y-52380000D03*
%TD*%
D16*
%TO.C,R24*%
X48117000Y-2362200D03*
X46117000Y-2362200D03*
%TD*%
D18*
%TO.C,R4*%
X57912000Y-10887200D03*
X57912000Y-12887200D03*
%TD*%
D10*
%TO.C,C8*%
X34518600Y-31703100D03*
X34518600Y-33778100D03*
%TD*%
D12*
%TO.C,CON1*%
X48209200Y-92405200D03*
D11*
X48209200Y-89865200D03*
X48209200Y-87325200D03*
X48209200Y-84785200D03*
%TD*%
D27*
%TO.C,R20*%
X51663600Y-26263600D03*
D28*
X51663600Y-36423600D03*
%TD*%
D10*
%TO.C,C6*%
X9779000Y-50346700D03*
X9779000Y-52421700D03*
%TD*%
D13*
%TO.C,R16*%
X27956000Y-75692000D03*
X29956000Y-75692000D03*
%TD*%
D10*
%TO.C,C15*%
X9804400Y-41384400D03*
X9804400Y-43459400D03*
%TD*%
%TO.C,C10*%
X9779000Y-58855700D03*
X9779000Y-60930700D03*
%TD*%
%TO.C,C2*%
X13208000Y-58881100D03*
X13208000Y-60956100D03*
%TD*%
D13*
%TO.C,R19*%
X27930600Y-70789800D03*
X29930600Y-70789800D03*
%TD*%
D29*
%TO.C,TP1*%
X57861200Y-31419800D03*
%TD*%
D15*
%TO.C,R11*%
X13360400Y-36153600D03*
X13360400Y-34153600D03*
%TD*%
D10*
%TO.C,C11*%
X9753600Y-34116100D03*
X9753600Y-36191100D03*
%TD*%
%TO.C,C18*%
X34569400Y-24235500D03*
X34569400Y-26310500D03*
%TD*%
D14*
%TO.C,C16*%
X13157200Y-84298700D03*
X13157200Y-82223700D03*
%TD*%
D16*
%TO.C,R14*%
X21193000Y-17399000D03*
X19193000Y-17399000D03*
%TD*%
D30*
%TO.C,C17*%
X27893100Y-85547200D03*
X29968100Y-85547200D03*
%TD*%
D31*
%TO.C,D1*%
X56106300Y-19161800D03*
X56106300Y-17261800D03*
X54231300Y-18211800D03*
%TD*%
D16*
%TO.C,R12*%
X30540200Y-4343400D03*
X28540200Y-4343400D03*
%TD*%
D32*
%TO.C,D2*%
X25275300Y-31816000D03*
X25275300Y-33716000D03*
X27150300Y-32766000D03*
%TD*%
D15*
%TO.C,R21*%
X8636000Y-84312000D03*
X8636000Y-82312000D03*
%TD*%
D17*
%TO.C,J7*%
X3000000Y-89000000D03*
X3000000Y-85190000D03*
%TD*%
D13*
%TO.C,R17*%
X27981400Y-80314800D03*
X29981400Y-80314800D03*
%TD*%
D24*
%TO.C,C12*%
X14093100Y-10642600D03*
X12018100Y-10642600D03*
%TD*%
D19*
%TO.C,RV1*%
X7500000Y-29133800D03*
X4960000Y-29133800D03*
X2420000Y-29133800D03*
%TD*%
D13*
%TO.C,R2*%
X48555400Y-22707600D03*
X50555400Y-22707600D03*
%TD*%
D25*
%TO.C,J5*%
X3000000Y-45000000D03*
D26*
X3000000Y-41190000D03*
X3000000Y-37380000D03*
%TD*%
D10*
%TO.C,C21*%
X44246800Y-89970700D03*
X44246800Y-92045700D03*
%TD*%
D13*
%TO.C,R3*%
X42637200Y-20421600D03*
X44637200Y-20421600D03*
%TD*%
D18*
%TO.C,R15*%
X28422600Y-9490200D03*
X28422600Y-11490200D03*
%TD*%
D10*
%TO.C,C9*%
X31165800Y-31728500D03*
X31165800Y-33803500D03*
%TD*%
D19*
%TO.C,RV2*%
X7500000Y-22683800D03*
X4960000Y-22683800D03*
X2420000Y-22683800D03*
%TD*%
D30*
%TO.C,C19*%
X36808500Y-5943600D03*
X38883500Y-5943600D03*
%TD*%
D25*
%TO.C,J1*%
X3000000Y-75000000D03*
D26*
X3000000Y-71190000D03*
X3000000Y-67380000D03*
%TD*%
D33*
%TO.C,U1*%
X34228000Y-11049000D03*
X34228000Y-12319000D03*
X34228000Y-13589000D03*
X34228000Y-14859000D03*
X34228000Y-16129000D03*
X34228000Y-17399000D03*
X34228000Y-18669000D03*
X39178000Y-18669000D03*
X39178000Y-17399000D03*
X39178000Y-16129000D03*
X39178000Y-14859000D03*
X39178000Y-13589000D03*
X39178000Y-12319000D03*
X39178000Y-11049000D03*
%TD*%
D24*
%TO.C,C13*%
X21230500Y-27228800D03*
X19155500Y-27228800D03*
%TD*%
D10*
%TO.C,C7*%
X13335000Y-41380500D03*
X13335000Y-43455500D03*
%TD*%
D15*
%TO.C,R22*%
X45161200Y-15528800D03*
X45161200Y-13528800D03*
%TD*%
D12*
%TO.C,J8*%
X54991000Y-37465000D03*
D11*
X57531000Y-37465000D03*
X54991000Y-40005000D03*
X57531000Y-40005000D03*
X54991000Y-42545000D03*
X57531000Y-42545000D03*
X54991000Y-45085000D03*
X57531000Y-45085000D03*
X54991000Y-47625000D03*
X57531000Y-47625000D03*
X54991000Y-50165000D03*
X57531000Y-50165000D03*
X54991000Y-52705000D03*
X57531000Y-52705000D03*
X54991000Y-55245000D03*
X57531000Y-55245000D03*
X54991000Y-57785000D03*
X57531000Y-57785000D03*
X54991000Y-60325000D03*
X57531000Y-60325000D03*
X54991000Y-62865000D03*
X57531000Y-62865000D03*
X54991000Y-65405000D03*
X57531000Y-65405000D03*
X54991000Y-67945000D03*
X57531000Y-67945000D03*
X54991000Y-70485000D03*
X57531000Y-70485000D03*
X54991000Y-73025000D03*
X57531000Y-73025000D03*
%TD*%
D10*
%TO.C,C4*%
X49555400Y-16869500D03*
X49555400Y-18944500D03*
%TD*%
M02*
