%TF.GenerationSoftware,KiCad,Pcbnew,9.0.2*%
%TF.CreationDate,2025-06-13T11:02:27+10:00*%
%TF.ProjectId,v8_equip_monitor,76385f65-7175-4697-905f-6d6f6e69746f,rev?*%
%TF.SameCoordinates,Original*%
%TF.FileFunction,Soldermask,Bot*%
%TF.FilePolarity,Negative*%
%FSLAX46Y46*%
G04 Gerber Fmt 4.6, Leading zero omitted, Abs format (unit mm)*
G04 Created by KiCad (PCBNEW 9.0.2) date 2025-06-13 11:02:27*
%MOMM*%
%LPD*%
G01*
G04 APERTURE LIST*
%ADD10O,1.700000X1.700000*%
%ADD11R,1.700000X1.700000*%
%ADD12C,2.100000*%
%ADD13C,1.440000*%
%ADD14C,3.500000*%
%ADD15R,2.025000X2.025000*%
%ADD16C,2.025000*%
%ADD17C,1.600000*%
%ADD18O,1.600000X1.600000*%
%ADD19R,1.000000X1.000000*%
G04 APERTURE END LIST*
D10*
%TO.C,U2*%
X38658800Y-92964000D03*
X38658800Y-90424000D03*
D11*
X38658800Y-87884000D03*
D10*
X38658800Y-85344000D03*
X38658800Y-82804000D03*
X38658800Y-80264000D03*
X38658800Y-77724000D03*
D11*
X38658800Y-75184000D03*
D10*
X38658800Y-72644000D03*
X38658800Y-70104000D03*
X38658800Y-67564000D03*
X38658800Y-65024000D03*
D11*
X38658800Y-62484000D03*
D10*
X38658800Y-59944000D03*
X38658800Y-57404000D03*
X38658800Y-54864000D03*
X38658800Y-52324000D03*
D11*
X38658800Y-49784000D03*
D10*
X38658800Y-47244000D03*
X38658800Y-44704000D03*
X20878800Y-44704000D03*
X20878800Y-47244000D03*
D11*
X20878800Y-49784000D03*
D10*
X20878800Y-52324000D03*
X20878800Y-54864000D03*
X20878800Y-57404000D03*
X20878800Y-59944000D03*
D11*
X20878800Y-62484000D03*
D10*
X20878800Y-65024000D03*
X20878800Y-67564000D03*
X20878800Y-70104000D03*
X20878800Y-72644000D03*
D11*
X20878800Y-75184000D03*
D10*
X20878800Y-77724000D03*
X20878800Y-80264000D03*
X20878800Y-82804000D03*
X20878800Y-85344000D03*
D11*
X20878800Y-87884000D03*
D10*
X20878800Y-90424000D03*
X20878800Y-92964000D03*
%TD*%
D11*
%TO.C,J4*%
X20193000Y-32766000D03*
%TD*%
D12*
%TO.C,J9*%
X3000000Y-9000000D03*
X3000000Y-5190000D03*
%TD*%
D11*
%TO.C,J6*%
X19151600Y-10566400D03*
%TD*%
D13*
%TO.C,RV3*%
X7500000Y-16000000D03*
X4960000Y-16000000D03*
X2420000Y-16000000D03*
%TD*%
D14*
%TO.C,H1*%
X12000000Y-4007600D03*
%TD*%
D11*
%TO.C,J2*%
X44145200Y-32689800D03*
%TD*%
D15*
%TO.C,J3*%
X3000000Y-60000000D03*
D16*
X3000000Y-56190000D03*
X3000000Y-52380000D03*
%TD*%
D14*
%TO.C,H3*%
X56210200Y-4007600D03*
%TD*%
D11*
%TO.C,CON1*%
X48209200Y-92405200D03*
D10*
X48209200Y-89865200D03*
X48209200Y-87325200D03*
X48209200Y-84785200D03*
%TD*%
D17*
%TO.C,R20*%
X51663600Y-26263600D03*
D18*
X51663600Y-36423600D03*
%TD*%
D19*
%TO.C,TP1*%
X57861200Y-31419800D03*
%TD*%
D14*
%TO.C,H2*%
X56184800Y-91287600D03*
%TD*%
D12*
%TO.C,J7*%
X3000000Y-89000000D03*
X3000000Y-85190000D03*
%TD*%
D13*
%TO.C,RV1*%
X7500000Y-29133800D03*
X4960000Y-29133800D03*
X2420000Y-29133800D03*
%TD*%
D15*
%TO.C,J5*%
X3000000Y-45000000D03*
D16*
X3000000Y-41190000D03*
X3000000Y-37380000D03*
%TD*%
D14*
%TO.C,H4*%
X12000000Y-91236800D03*
%TD*%
D13*
%TO.C,RV2*%
X7500000Y-22683800D03*
X4960000Y-22683800D03*
X2420000Y-22683800D03*
%TD*%
D15*
%TO.C,J1*%
X3000000Y-75000000D03*
D16*
X3000000Y-71190000D03*
X3000000Y-67380000D03*
%TD*%
D11*
%TO.C,J8*%
X54991000Y-37465000D03*
D10*
X57531000Y-37465000D03*
X54991000Y-40005000D03*
X57531000Y-40005000D03*
X54991000Y-42545000D03*
X57531000Y-42545000D03*
X54991000Y-45085000D03*
X57531000Y-45085000D03*
X54991000Y-47625000D03*
X57531000Y-47625000D03*
X54991000Y-50165000D03*
X57531000Y-50165000D03*
X54991000Y-52705000D03*
X57531000Y-52705000D03*
X54991000Y-55245000D03*
X57531000Y-55245000D03*
X54991000Y-57785000D03*
X57531000Y-57785000D03*
X54991000Y-60325000D03*
X57531000Y-60325000D03*
X54991000Y-62865000D03*
X57531000Y-62865000D03*
X54991000Y-65405000D03*
X57531000Y-65405000D03*
X54991000Y-67945000D03*
X57531000Y-67945000D03*
X54991000Y-70485000D03*
X57531000Y-70485000D03*
X54991000Y-73025000D03*
X57531000Y-73025000D03*
%TD*%
M02*
