M48
; DRILL file {KiCad 9.0.2} date 2025-07-04T16:32:19+1000
; FORMAT={-:-/ absolute / inch / decimal}
; #@! TF.CreationDate,2025-07-04T16:32:19+10:00
; #@! TF.GenerationSoftware,Kicad,Pcbnew,9.0.2
; #@! TF.FileFunction,Plated,1,2,PTH
FMAT,2
INCH
; #@! TA.AperFunction,Plated,PTH,ViaDrill
T1C0.0150
; #@! TA.AperFunction,Plated,PTH,ComponentDrill
T2C0.0315
; #@! TA.AperFunction,Plated,PTH,ComponentDrill
T3C0.0394
; #@! TA.AperFunction,Plated,PTH,ComponentDrill
T4C0.0433
%
G90
G05
T1
X0.498Y-0.824
X0.501Y-0.539
X0.5195Y-1.8745
X0.5965Y-1.8055
X1.073Y-2.466
X1.073Y-2.855
X1.074Y-2.088
X1.074Y-3.231
X1.15Y-1.318
X1.151Y-0.967
X1.153Y-1.658
X1.156Y-0.61
X1.555Y-0.75
X1.602Y-3.097
X1.678Y-2.501
X1.685Y-2.209
X1.69Y-2.7
X1.69Y-2.865
X1.81Y-2.211
X1.8337Y-3.0978
X1.868Y-2.285
X1.933Y-2.685
X1.934Y-2.78
X1.963Y-3.1309
X1.963Y-3.223
X2.022Y-2.365
X2.029Y-0.747
X2.088Y-3.382
T2
X0.13Y-0.45
X0.13Y-0.7333
X0.13Y-1.0167
X0.13Y-1.3
X0.13Y-2.4
X0.13Y-2.7
X0.13Y-3.0
X0.13Y-3.3
X0.23Y-0.45
X0.23Y-0.7333
X0.23Y-1.0167
X0.23Y-1.3
X0.23Y-2.4
X0.23Y-2.7
X0.23Y-3.0
X0.23Y-3.3
X0.33Y-0.45
X0.33Y-0.7333
X0.33Y-1.0167
X0.33Y-1.3
X0.33Y-2.4
X0.33Y-2.7
X0.33Y-3.0
X0.33Y-3.3
T3
X0.905Y-0.517
X0.905Y-0.875
X0.905Y-1.585
X0.905Y-1.94
X0.905Y-2.295
X0.906Y-1.231
X0.906Y-2.7
X0.906Y-3.046
X1.634Y-3.632
X1.734Y-3.632
X1.782Y-1.804
X1.782Y-1.904
X1.782Y-2.004
X1.782Y-2.104
X1.834Y-3.632
X1.882Y-1.804
X1.882Y-1.904
X1.882Y-2.004
X1.882Y-2.104
X1.934Y-3.632
X2.165Y-1.474
X2.165Y-1.574
X2.165Y-1.674
X2.165Y-1.774
X2.165Y-1.874
X2.165Y-1.974
X2.165Y-2.074
X2.165Y-2.174
X2.165Y-2.274
X2.165Y-2.374
X2.165Y-2.474
X2.165Y-2.574
X2.165Y-2.674
X2.165Y-2.774
X2.165Y-2.874
X2.265Y-1.474
X2.265Y-1.574
X2.265Y-1.674
X2.265Y-1.774
X2.265Y-1.874
X2.265Y-1.974
X2.265Y-2.074
X2.265Y-2.174
X2.265Y-2.274
X2.265Y-2.374
X2.265Y-2.474
X2.265Y-2.574
X2.265Y-2.674
X2.265Y-2.774
X2.265Y-2.874
T4
X0.214Y-1.625
X0.214Y-1.725
X0.214Y-1.825
X0.214Y-1.925
X0.214Y-2.025
X0.214Y-2.125
X0.314Y-1.625
X0.314Y-1.725
X0.314Y-1.825
X0.314Y-1.925
X0.314Y-2.025
X0.314Y-2.125
M30
