%TF.GenerationSoftware,KiCad,Pcbnew,9.0.2*%
%TF.CreationDate,2025-07-04T16:32:19+10:00*%
%TF.ProjectId,v9_equip_analog_IDC,76395f65-7175-4697-905f-616e616c6f67,rev?*%
%TF.SameCoordinates,Original*%
%TF.FileFunction,Legend,Top*%
%TF.FilePolarity,Positive*%
%FSLAX46Y46*%
G04 Gerber Fmt 4.6, Leading zero omitted, Abs format (unit mm)*
G04 Created by KiCad (PCBNEW 9.0.2) date 2025-07-04 16:32:19*
%MOMM*%
%LPD*%
G01*
G04 APERTURE LIST*
G04 Aperture macros list*
%AMRoundRect*
0 Rectangle with rounded corners*
0 $1 Rounding radius*
0 $2 $3 $4 $5 $6 $7 $8 $9 X,Y pos of 4 corners*
0 Add a 4 corners polygon primitive as box body*
4,1,4,$2,$3,$4,$5,$6,$7,$8,$9,$2,$3,0*
0 Add four circle primitives for the rounded corners*
1,1,$1+$1,$2,$3*
1,1,$1+$1,$4,$5*
1,1,$1+$1,$6,$7*
1,1,$1+$1,$8,$9*
0 Add four rect primitives between the rounded corners*
20,1,$1+$1,$2,$3,$4,$5,0*
20,1,$1+$1,$4,$5,$6,$7,0*
20,1,$1+$1,$6,$7,$8,$9,0*
20,1,$1+$1,$8,$9,$2,$3,0*%
G04 Aperture macros list end*
%ADD10C,0.152400*%
%ADD11C,0.127000*%
%ADD12C,0.203200*%
%ADD13C,0.101600*%
%ADD14C,0.254000*%
%ADD15C,0.150000*%
%ADD16C,0.177800*%
%ADD17C,0.120000*%
%ADD18C,0.200000*%
%ADD19R,2.000000X2.000000*%
%ADD20RoundRect,0.250000X-0.337500X-0.475000X0.337500X-0.475000X0.337500X0.475000X-0.337500X0.475000X0*%
%ADD21C,3.500000*%
%ADD22RoundRect,0.250000X0.450000X-0.350000X0.450000X0.350000X-0.450000X0.350000X-0.450000X-0.350000X0*%
%ADD23RoundRect,0.250000X0.337500X0.475000X-0.337500X0.475000X-0.337500X-0.475000X0.337500X-0.475000X0*%
%ADD24RoundRect,0.250000X-0.475000X0.337500X-0.475000X-0.337500X0.475000X-0.337500X0.475000X0.337500X0*%
%ADD25RoundRect,0.250000X-0.450000X0.350000X-0.450000X-0.350000X0.450000X-0.350000X0.450000X0.350000X0*%
%ADD26R,1.650000X1.650000*%
%ADD27C,1.650000*%
%ADD28C,1.440000*%
%ADD29R,1.700000X1.700000*%
%ADD30C,1.700000*%
%ADD31RoundRect,0.150000X0.625000X-0.150000X0.625000X0.150000X-0.625000X0.150000X-0.625000X-0.150000X0*%
%ADD32RoundRect,0.416666X0.970834X-0.583334X0.970834X0.583334X-0.970834X0.583334X-0.970834X-0.583334X0*%
%ADD33R,0.600000X1.250000*%
%ADD34R,1.525000X0.650000*%
G04 APERTURE END LIST*
D10*
X11904377Y-75730577D02*
X11904377Y-76274863D01*
X11577806Y-75621720D02*
X12720806Y-76002720D01*
X12720806Y-76002720D02*
X11577806Y-76383720D01*
X12720806Y-77254577D02*
X12720806Y-77036862D01*
X12720806Y-77036862D02*
X12666377Y-76928005D01*
X12666377Y-76928005D02*
X12611949Y-76873577D01*
X12611949Y-76873577D02*
X12448663Y-76764719D01*
X12448663Y-76764719D02*
X12230949Y-76710291D01*
X12230949Y-76710291D02*
X11795520Y-76710291D01*
X11795520Y-76710291D02*
X11686663Y-76764719D01*
X11686663Y-76764719D02*
X11632235Y-76819148D01*
X11632235Y-76819148D02*
X11577806Y-76928005D01*
X11577806Y-76928005D02*
X11577806Y-77145719D01*
X11577806Y-77145719D02*
X11632235Y-77254577D01*
X11632235Y-77254577D02*
X11686663Y-77309005D01*
X11686663Y-77309005D02*
X11795520Y-77363434D01*
X11795520Y-77363434D02*
X12067663Y-77363434D01*
X12067663Y-77363434D02*
X12176520Y-77309005D01*
X12176520Y-77309005D02*
X12230949Y-77254577D01*
X12230949Y-77254577D02*
X12285377Y-77145719D01*
X12285377Y-77145719D02*
X12285377Y-76928005D01*
X12285377Y-76928005D02*
X12230949Y-76819148D01*
X12230949Y-76819148D02*
X12176520Y-76764719D01*
X12176520Y-76764719D02*
X12067663Y-76710291D01*
D11*
X41889448Y-90287228D02*
X41928152Y-90171114D01*
X41928152Y-90171114D02*
X41928152Y-89977590D01*
X41928152Y-89977590D02*
X41889448Y-89900181D01*
X41889448Y-89900181D02*
X41850743Y-89861476D01*
X41850743Y-89861476D02*
X41773333Y-89822771D01*
X41773333Y-89822771D02*
X41695924Y-89822771D01*
X41695924Y-89822771D02*
X41618514Y-89861476D01*
X41618514Y-89861476D02*
X41579809Y-89900181D01*
X41579809Y-89900181D02*
X41541105Y-89977590D01*
X41541105Y-89977590D02*
X41502400Y-90132409D01*
X41502400Y-90132409D02*
X41463695Y-90209819D01*
X41463695Y-90209819D02*
X41424990Y-90248524D01*
X41424990Y-90248524D02*
X41347581Y-90287228D01*
X41347581Y-90287228D02*
X41270171Y-90287228D01*
X41270171Y-90287228D02*
X41192762Y-90248524D01*
X41192762Y-90248524D02*
X41154057Y-90209819D01*
X41154057Y-90209819D02*
X41115352Y-90132409D01*
X41115352Y-90132409D02*
X41115352Y-89938886D01*
X41115352Y-89938886D02*
X41154057Y-89822771D01*
X41850743Y-89009972D02*
X41889448Y-89048676D01*
X41889448Y-89048676D02*
X41928152Y-89164791D01*
X41928152Y-89164791D02*
X41928152Y-89242200D01*
X41928152Y-89242200D02*
X41889448Y-89358314D01*
X41889448Y-89358314D02*
X41812038Y-89435724D01*
X41812038Y-89435724D02*
X41734628Y-89474429D01*
X41734628Y-89474429D02*
X41579809Y-89513133D01*
X41579809Y-89513133D02*
X41463695Y-89513133D01*
X41463695Y-89513133D02*
X41308876Y-89474429D01*
X41308876Y-89474429D02*
X41231467Y-89435724D01*
X41231467Y-89435724D02*
X41154057Y-89358314D01*
X41154057Y-89358314D02*
X41115352Y-89242200D01*
X41115352Y-89242200D02*
X41115352Y-89164791D01*
X41115352Y-89164791D02*
X41154057Y-89048676D01*
X41154057Y-89048676D02*
X41192762Y-89009972D01*
X41928152Y-88274581D02*
X41928152Y-88661629D01*
X41928152Y-88661629D02*
X41115352Y-88661629D01*
X44506572Y-90287228D02*
X44545276Y-90171114D01*
X44545276Y-90171114D02*
X44545276Y-89977590D01*
X44545276Y-89977590D02*
X44506572Y-89900181D01*
X44506572Y-89900181D02*
X44467867Y-89861476D01*
X44467867Y-89861476D02*
X44390457Y-89822771D01*
X44390457Y-89822771D02*
X44313048Y-89822771D01*
X44313048Y-89822771D02*
X44235638Y-89861476D01*
X44235638Y-89861476D02*
X44196933Y-89900181D01*
X44196933Y-89900181D02*
X44158229Y-89977590D01*
X44158229Y-89977590D02*
X44119524Y-90132409D01*
X44119524Y-90132409D02*
X44080819Y-90209819D01*
X44080819Y-90209819D02*
X44042114Y-90248524D01*
X44042114Y-90248524D02*
X43964705Y-90287228D01*
X43964705Y-90287228D02*
X43887295Y-90287228D01*
X43887295Y-90287228D02*
X43809886Y-90248524D01*
X43809886Y-90248524D02*
X43771181Y-90209819D01*
X43771181Y-90209819D02*
X43732476Y-90132409D01*
X43732476Y-90132409D02*
X43732476Y-89938886D01*
X43732476Y-89938886D02*
X43771181Y-89822771D01*
X44545276Y-89474429D02*
X43732476Y-89474429D01*
X43732476Y-89474429D02*
X43732476Y-89280905D01*
X43732476Y-89280905D02*
X43771181Y-89164791D01*
X43771181Y-89164791D02*
X43848591Y-89087381D01*
X43848591Y-89087381D02*
X43926000Y-89048676D01*
X43926000Y-89048676D02*
X44080819Y-89009972D01*
X44080819Y-89009972D02*
X44196933Y-89009972D01*
X44196933Y-89009972D02*
X44351752Y-89048676D01*
X44351752Y-89048676D02*
X44429162Y-89087381D01*
X44429162Y-89087381D02*
X44506572Y-89164791D01*
X44506572Y-89164791D02*
X44545276Y-89280905D01*
X44545276Y-89280905D02*
X44545276Y-89474429D01*
X44313048Y-88700333D02*
X44313048Y-88313286D01*
X44545276Y-88777743D02*
X43732476Y-88506810D01*
X43732476Y-88506810D02*
X44545276Y-88235876D01*
X46349600Y-90325933D02*
X46349600Y-89822771D01*
X46349600Y-89822771D02*
X46659238Y-90093705D01*
X46659238Y-90093705D02*
X46659238Y-89977590D01*
X46659238Y-89977590D02*
X46697943Y-89900181D01*
X46697943Y-89900181D02*
X46736648Y-89861476D01*
X46736648Y-89861476D02*
X46814057Y-89822771D01*
X46814057Y-89822771D02*
X47007581Y-89822771D01*
X47007581Y-89822771D02*
X47084991Y-89861476D01*
X47084991Y-89861476D02*
X47123696Y-89900181D01*
X47123696Y-89900181D02*
X47162400Y-89977590D01*
X47162400Y-89977590D02*
X47162400Y-90209819D01*
X47162400Y-90209819D02*
X47123696Y-90287228D01*
X47123696Y-90287228D02*
X47084991Y-90325933D01*
X46349600Y-89590543D02*
X47162400Y-89319610D01*
X47162400Y-89319610D02*
X46349600Y-89048676D01*
X46349600Y-88855152D02*
X46349600Y-88351990D01*
X46349600Y-88351990D02*
X46659238Y-88622924D01*
X46659238Y-88622924D02*
X46659238Y-88506809D01*
X46659238Y-88506809D02*
X46697943Y-88429400D01*
X46697943Y-88429400D02*
X46736648Y-88390695D01*
X46736648Y-88390695D02*
X46814057Y-88351990D01*
X46814057Y-88351990D02*
X47007581Y-88351990D01*
X47007581Y-88351990D02*
X47084991Y-88390695D01*
X47084991Y-88390695D02*
X47123696Y-88429400D01*
X47123696Y-88429400D02*
X47162400Y-88506809D01*
X47162400Y-88506809D02*
X47162400Y-88739038D01*
X47162400Y-88739038D02*
X47123696Y-88816447D01*
X47123696Y-88816447D02*
X47084991Y-88855152D01*
X49005429Y-89822771D02*
X48966724Y-89900181D01*
X48966724Y-89900181D02*
X48966724Y-90016295D01*
X48966724Y-90016295D02*
X49005429Y-90132409D01*
X49005429Y-90132409D02*
X49082839Y-90209819D01*
X49082839Y-90209819D02*
X49160248Y-90248524D01*
X49160248Y-90248524D02*
X49315067Y-90287228D01*
X49315067Y-90287228D02*
X49431181Y-90287228D01*
X49431181Y-90287228D02*
X49586000Y-90248524D01*
X49586000Y-90248524D02*
X49663410Y-90209819D01*
X49663410Y-90209819D02*
X49740820Y-90132409D01*
X49740820Y-90132409D02*
X49779524Y-90016295D01*
X49779524Y-90016295D02*
X49779524Y-89938886D01*
X49779524Y-89938886D02*
X49740820Y-89822771D01*
X49740820Y-89822771D02*
X49702115Y-89784067D01*
X49702115Y-89784067D02*
X49431181Y-89784067D01*
X49431181Y-89784067D02*
X49431181Y-89938886D01*
X49779524Y-89435724D02*
X48966724Y-89435724D01*
X48966724Y-89435724D02*
X49779524Y-88971267D01*
X49779524Y-88971267D02*
X48966724Y-88971267D01*
X49779524Y-88584219D02*
X48966724Y-88584219D01*
X48966724Y-88584219D02*
X48966724Y-88390695D01*
X48966724Y-88390695D02*
X49005429Y-88274581D01*
X49005429Y-88274581D02*
X49082839Y-88197171D01*
X49082839Y-88197171D02*
X49160248Y-88158466D01*
X49160248Y-88158466D02*
X49315067Y-88119762D01*
X49315067Y-88119762D02*
X49431181Y-88119762D01*
X49431181Y-88119762D02*
X49586000Y-88158466D01*
X49586000Y-88158466D02*
X49663410Y-88197171D01*
X49663410Y-88197171D02*
X49740820Y-88274581D01*
X49740820Y-88274581D02*
X49779524Y-88390695D01*
X49779524Y-88390695D02*
X49779524Y-88584219D01*
D10*
X12031377Y-25463977D02*
X12031377Y-26008263D01*
X11704806Y-25355120D02*
X12847806Y-25736120D01*
X12847806Y-25736120D02*
X11704806Y-26117120D01*
X12738949Y-26443691D02*
X12793377Y-26498119D01*
X12793377Y-26498119D02*
X12847806Y-26606977D01*
X12847806Y-26606977D02*
X12847806Y-26879119D01*
X12847806Y-26879119D02*
X12793377Y-26987977D01*
X12793377Y-26987977D02*
X12738949Y-27042405D01*
X12738949Y-27042405D02*
X12630092Y-27096834D01*
X12630092Y-27096834D02*
X12521235Y-27096834D01*
X12521235Y-27096834D02*
X12357949Y-27042405D01*
X12357949Y-27042405D02*
X11704806Y-26389262D01*
X11704806Y-26389262D02*
X11704806Y-27096834D01*
D12*
X43218131Y-46673687D02*
X42318245Y-46673687D01*
X42768188Y-46673687D02*
X42768188Y-45098887D01*
X42768188Y-45098887D02*
X42618207Y-45323858D01*
X42618207Y-45323858D02*
X42468226Y-45473839D01*
X42468226Y-45473839D02*
X42318245Y-45548830D01*
X42318245Y-47784208D02*
X42393236Y-47709217D01*
X42393236Y-47709217D02*
X42543217Y-47634227D01*
X42543217Y-47634227D02*
X42918169Y-47634227D01*
X42918169Y-47634227D02*
X43068150Y-47709217D01*
X43068150Y-47709217D02*
X43143141Y-47784208D01*
X43143141Y-47784208D02*
X43218131Y-47934189D01*
X43218131Y-47934189D02*
X43218131Y-48084170D01*
X43218131Y-48084170D02*
X43143141Y-48309141D01*
X43143141Y-48309141D02*
X42243255Y-49209027D01*
X42243255Y-49209027D02*
X43218131Y-49209027D01*
X42243255Y-50169567D02*
X43218131Y-50169567D01*
X43218131Y-50169567D02*
X42693198Y-50769491D01*
X42693198Y-50769491D02*
X42918169Y-50769491D01*
X42918169Y-50769491D02*
X43068150Y-50844481D01*
X43068150Y-50844481D02*
X43143141Y-50919472D01*
X43143141Y-50919472D02*
X43218131Y-51069453D01*
X43218131Y-51069453D02*
X43218131Y-51444405D01*
X43218131Y-51444405D02*
X43143141Y-51594386D01*
X43143141Y-51594386D02*
X43068150Y-51669377D01*
X43068150Y-51669377D02*
X42918169Y-51744367D01*
X42918169Y-51744367D02*
X42468226Y-51744367D01*
X42468226Y-51744367D02*
X42318245Y-51669377D01*
X42318245Y-51669377D02*
X42243255Y-51594386D01*
X43068150Y-53229840D02*
X43068150Y-54279707D01*
X42693198Y-52629917D02*
X42318245Y-53754774D01*
X42318245Y-53754774D02*
X43293122Y-53754774D01*
D10*
X12107577Y-10630377D02*
X12107577Y-11174663D01*
X11781006Y-10521520D02*
X12924006Y-10902520D01*
X12924006Y-10902520D02*
X11781006Y-11283520D01*
X12924006Y-11882234D02*
X12924006Y-11991091D01*
X12924006Y-11991091D02*
X12869577Y-12099948D01*
X12869577Y-12099948D02*
X12815149Y-12154377D01*
X12815149Y-12154377D02*
X12706292Y-12208805D01*
X12706292Y-12208805D02*
X12488577Y-12263234D01*
X12488577Y-12263234D02*
X12216435Y-12263234D01*
X12216435Y-12263234D02*
X11998720Y-12208805D01*
X11998720Y-12208805D02*
X11889863Y-12154377D01*
X11889863Y-12154377D02*
X11835435Y-12099948D01*
X11835435Y-12099948D02*
X11781006Y-11991091D01*
X11781006Y-11991091D02*
X11781006Y-11882234D01*
X11781006Y-11882234D02*
X11835435Y-11773377D01*
X11835435Y-11773377D02*
X11889863Y-11718948D01*
X11889863Y-11718948D02*
X11998720Y-11664519D01*
X11998720Y-11664519D02*
X12216435Y-11610091D01*
X12216435Y-11610091D02*
X12488577Y-11610091D01*
X12488577Y-11610091D02*
X12706292Y-11664519D01*
X12706292Y-11664519D02*
X12815149Y-11718948D01*
X12815149Y-11718948D02*
X12869577Y-11773377D01*
X12869577Y-11773377D02*
X12924006Y-11882234D01*
D13*
X51487900Y-80106424D02*
X51578614Y-80136662D01*
X51578614Y-80136662D02*
X51729805Y-80136662D01*
X51729805Y-80136662D02*
X51790281Y-80106424D01*
X51790281Y-80106424D02*
X51820519Y-80076185D01*
X51820519Y-80076185D02*
X51850757Y-80015709D01*
X51850757Y-80015709D02*
X51850757Y-79955233D01*
X51850757Y-79955233D02*
X51820519Y-79894757D01*
X51820519Y-79894757D02*
X51790281Y-79864519D01*
X51790281Y-79864519D02*
X51729805Y-79834281D01*
X51729805Y-79834281D02*
X51608852Y-79804043D01*
X51608852Y-79804043D02*
X51548376Y-79773804D01*
X51548376Y-79773804D02*
X51518138Y-79743566D01*
X51518138Y-79743566D02*
X51487900Y-79683090D01*
X51487900Y-79683090D02*
X51487900Y-79622614D01*
X51487900Y-79622614D02*
X51518138Y-79562138D01*
X51518138Y-79562138D02*
X51548376Y-79531900D01*
X51548376Y-79531900D02*
X51608852Y-79501662D01*
X51608852Y-79501662D02*
X51760043Y-79501662D01*
X51760043Y-79501662D02*
X51850757Y-79531900D01*
X52485757Y-80076185D02*
X52455519Y-80106424D01*
X52455519Y-80106424D02*
X52364805Y-80136662D01*
X52364805Y-80136662D02*
X52304329Y-80136662D01*
X52304329Y-80136662D02*
X52213614Y-80106424D01*
X52213614Y-80106424D02*
X52153138Y-80045947D01*
X52153138Y-80045947D02*
X52122900Y-79985471D01*
X52122900Y-79985471D02*
X52092662Y-79864519D01*
X52092662Y-79864519D02*
X52092662Y-79773804D01*
X52092662Y-79773804D02*
X52122900Y-79652852D01*
X52122900Y-79652852D02*
X52153138Y-79592376D01*
X52153138Y-79592376D02*
X52213614Y-79531900D01*
X52213614Y-79531900D02*
X52304329Y-79501662D01*
X52304329Y-79501662D02*
X52364805Y-79501662D01*
X52364805Y-79501662D02*
X52455519Y-79531900D01*
X52455519Y-79531900D02*
X52485757Y-79562138D01*
X53060281Y-80136662D02*
X52757900Y-80136662D01*
X52757900Y-80136662D02*
X52757900Y-79501662D01*
X51457662Y-81128738D02*
X51548376Y-81158976D01*
X51548376Y-81158976D02*
X51699567Y-81158976D01*
X51699567Y-81158976D02*
X51760043Y-81128738D01*
X51760043Y-81128738D02*
X51790281Y-81098499D01*
X51790281Y-81098499D02*
X51820519Y-81038023D01*
X51820519Y-81038023D02*
X51820519Y-80977547D01*
X51820519Y-80977547D02*
X51790281Y-80917071D01*
X51790281Y-80917071D02*
X51760043Y-80886833D01*
X51760043Y-80886833D02*
X51699567Y-80856595D01*
X51699567Y-80856595D02*
X51578614Y-80826357D01*
X51578614Y-80826357D02*
X51518138Y-80796118D01*
X51518138Y-80796118D02*
X51487900Y-80765880D01*
X51487900Y-80765880D02*
X51457662Y-80705404D01*
X51457662Y-80705404D02*
X51457662Y-80644928D01*
X51457662Y-80644928D02*
X51487900Y-80584452D01*
X51487900Y-80584452D02*
X51518138Y-80554214D01*
X51518138Y-80554214D02*
X51578614Y-80523976D01*
X51578614Y-80523976D02*
X51729805Y-80523976D01*
X51729805Y-80523976D02*
X51820519Y-80554214D01*
X52092662Y-81158976D02*
X52092662Y-80523976D01*
X52092662Y-80523976D02*
X52243852Y-80523976D01*
X52243852Y-80523976D02*
X52334567Y-80554214D01*
X52334567Y-80554214D02*
X52395043Y-80614690D01*
X52395043Y-80614690D02*
X52425281Y-80675166D01*
X52425281Y-80675166D02*
X52455519Y-80796118D01*
X52455519Y-80796118D02*
X52455519Y-80886833D01*
X52455519Y-80886833D02*
X52425281Y-81007785D01*
X52425281Y-81007785D02*
X52395043Y-81068261D01*
X52395043Y-81068261D02*
X52334567Y-81128738D01*
X52334567Y-81128738D02*
X52243852Y-81158976D01*
X52243852Y-81158976D02*
X52092662Y-81158976D01*
X52697424Y-80977547D02*
X52999805Y-80977547D01*
X52636948Y-81158976D02*
X52848614Y-80523976D01*
X52848614Y-80523976D02*
X53060281Y-81158976D01*
X51457662Y-81546290D02*
X51850757Y-81546290D01*
X51850757Y-81546290D02*
X51639090Y-81788194D01*
X51639090Y-81788194D02*
X51729805Y-81788194D01*
X51729805Y-81788194D02*
X51790281Y-81818432D01*
X51790281Y-81818432D02*
X51820519Y-81848671D01*
X51820519Y-81848671D02*
X51850757Y-81909147D01*
X51850757Y-81909147D02*
X51850757Y-82060337D01*
X51850757Y-82060337D02*
X51820519Y-82120813D01*
X51820519Y-82120813D02*
X51790281Y-82151052D01*
X51790281Y-82151052D02*
X51729805Y-82181290D01*
X51729805Y-82181290D02*
X51548376Y-82181290D01*
X51548376Y-82181290D02*
X51487900Y-82151052D01*
X51487900Y-82151052D02*
X51457662Y-82120813D01*
X52032186Y-81546290D02*
X52243852Y-82181290D01*
X52243852Y-82181290D02*
X52455519Y-81546290D01*
X52606710Y-81546290D02*
X52999805Y-81546290D01*
X52999805Y-81546290D02*
X52788138Y-81788194D01*
X52788138Y-81788194D02*
X52878853Y-81788194D01*
X52878853Y-81788194D02*
X52939329Y-81818432D01*
X52939329Y-81818432D02*
X52969567Y-81848671D01*
X52969567Y-81848671D02*
X52999805Y-81909147D01*
X52999805Y-81909147D02*
X52999805Y-82060337D01*
X52999805Y-82060337D02*
X52969567Y-82120813D01*
X52969567Y-82120813D02*
X52939329Y-82151052D01*
X52939329Y-82151052D02*
X52878853Y-82181290D01*
X52878853Y-82181290D02*
X52697424Y-82181290D01*
X52697424Y-82181290D02*
X52636948Y-82151052D01*
X52636948Y-82151052D02*
X52606710Y-82120813D01*
X51669329Y-82598842D02*
X51608853Y-82568604D01*
X51608853Y-82568604D02*
X51518139Y-82568604D01*
X51518139Y-82568604D02*
X51427424Y-82598842D01*
X51427424Y-82598842D02*
X51366948Y-82659318D01*
X51366948Y-82659318D02*
X51336710Y-82719794D01*
X51336710Y-82719794D02*
X51306472Y-82840746D01*
X51306472Y-82840746D02*
X51306472Y-82931461D01*
X51306472Y-82931461D02*
X51336710Y-83052413D01*
X51336710Y-83052413D02*
X51366948Y-83112889D01*
X51366948Y-83112889D02*
X51427424Y-83173366D01*
X51427424Y-83173366D02*
X51518139Y-83203604D01*
X51518139Y-83203604D02*
X51578615Y-83203604D01*
X51578615Y-83203604D02*
X51669329Y-83173366D01*
X51669329Y-83173366D02*
X51699567Y-83143127D01*
X51699567Y-83143127D02*
X51699567Y-82931461D01*
X51699567Y-82931461D02*
X51578615Y-82931461D01*
X51971710Y-83203604D02*
X51971710Y-82568604D01*
X51971710Y-82568604D02*
X52334567Y-83203604D01*
X52334567Y-83203604D02*
X52334567Y-82568604D01*
X52636948Y-83203604D02*
X52636948Y-82568604D01*
X52636948Y-82568604D02*
X52788138Y-82568604D01*
X52788138Y-82568604D02*
X52878853Y-82598842D01*
X52878853Y-82598842D02*
X52939329Y-82659318D01*
X52939329Y-82659318D02*
X52969567Y-82719794D01*
X52969567Y-82719794D02*
X52999805Y-82840746D01*
X52999805Y-82840746D02*
X52999805Y-82931461D01*
X52999805Y-82931461D02*
X52969567Y-83052413D01*
X52969567Y-83052413D02*
X52939329Y-83112889D01*
X52939329Y-83112889D02*
X52878853Y-83173366D01*
X52878853Y-83173366D02*
X52788138Y-83203604D01*
X52788138Y-83203604D02*
X52636948Y-83203604D01*
D10*
X43149634Y-43201345D02*
X43294777Y-43249726D01*
X43294777Y-43249726D02*
X43343158Y-43298107D01*
X43343158Y-43298107D02*
X43391539Y-43394869D01*
X43391539Y-43394869D02*
X43391539Y-43540012D01*
X43391539Y-43540012D02*
X43343158Y-43636774D01*
X43343158Y-43636774D02*
X43294777Y-43685155D01*
X43294777Y-43685155D02*
X43198015Y-43733535D01*
X43198015Y-43733535D02*
X42810967Y-43733535D01*
X42810967Y-43733535D02*
X42810967Y-42717535D01*
X42810967Y-42717535D02*
X43149634Y-42717535D01*
X43149634Y-42717535D02*
X43246396Y-42765916D01*
X43246396Y-42765916D02*
X43294777Y-42814297D01*
X43294777Y-42814297D02*
X43343158Y-42911059D01*
X43343158Y-42911059D02*
X43343158Y-43007821D01*
X43343158Y-43007821D02*
X43294777Y-43104583D01*
X43294777Y-43104583D02*
X43246396Y-43152964D01*
X43246396Y-43152964D02*
X43149634Y-43201345D01*
X43149634Y-43201345D02*
X42810967Y-43201345D01*
X44020491Y-42717535D02*
X44214015Y-42717535D01*
X44214015Y-42717535D02*
X44310777Y-42765916D01*
X44310777Y-42765916D02*
X44407539Y-42862678D01*
X44407539Y-42862678D02*
X44455920Y-43056202D01*
X44455920Y-43056202D02*
X44455920Y-43394869D01*
X44455920Y-43394869D02*
X44407539Y-43588393D01*
X44407539Y-43588393D02*
X44310777Y-43685155D01*
X44310777Y-43685155D02*
X44214015Y-43733535D01*
X44214015Y-43733535D02*
X44020491Y-43733535D01*
X44020491Y-43733535D02*
X43923729Y-43685155D01*
X43923729Y-43685155D02*
X43826967Y-43588393D01*
X43826967Y-43588393D02*
X43778586Y-43394869D01*
X43778586Y-43394869D02*
X43778586Y-43056202D01*
X43778586Y-43056202D02*
X43826967Y-42862678D01*
X43826967Y-42862678D02*
X43923729Y-42765916D01*
X43923729Y-42765916D02*
X44020491Y-42717535D01*
X44842967Y-43443250D02*
X45326777Y-43443250D01*
X44746205Y-43733535D02*
X45084872Y-42717535D01*
X45084872Y-42717535D02*
X45423539Y-43733535D01*
X46342777Y-43733535D02*
X46004110Y-43249726D01*
X45762205Y-43733535D02*
X45762205Y-42717535D01*
X45762205Y-42717535D02*
X46149253Y-42717535D01*
X46149253Y-42717535D02*
X46246015Y-42765916D01*
X46246015Y-42765916D02*
X46294396Y-42814297D01*
X46294396Y-42814297D02*
X46342777Y-42911059D01*
X46342777Y-42911059D02*
X46342777Y-43056202D01*
X46342777Y-43056202D02*
X46294396Y-43152964D01*
X46294396Y-43152964D02*
X46246015Y-43201345D01*
X46246015Y-43201345D02*
X46149253Y-43249726D01*
X46149253Y-43249726D02*
X45762205Y-43249726D01*
X46778205Y-43733535D02*
X46778205Y-42717535D01*
X46778205Y-42717535D02*
X47020110Y-42717535D01*
X47020110Y-42717535D02*
X47165253Y-42765916D01*
X47165253Y-42765916D02*
X47262015Y-42862678D01*
X47262015Y-42862678D02*
X47310396Y-42959440D01*
X47310396Y-42959440D02*
X47358777Y-43152964D01*
X47358777Y-43152964D02*
X47358777Y-43298107D01*
X47358777Y-43298107D02*
X47310396Y-43491631D01*
X47310396Y-43491631D02*
X47262015Y-43588393D01*
X47262015Y-43588393D02*
X47165253Y-43685155D01*
X47165253Y-43685155D02*
X47020110Y-43733535D01*
X47020110Y-43733535D02*
X46778205Y-43733535D01*
X48519919Y-43685155D02*
X48665062Y-43733535D01*
X48665062Y-43733535D02*
X48906967Y-43733535D01*
X48906967Y-43733535D02*
X49003729Y-43685155D01*
X49003729Y-43685155D02*
X49052110Y-43636774D01*
X49052110Y-43636774D02*
X49100491Y-43540012D01*
X49100491Y-43540012D02*
X49100491Y-43443250D01*
X49100491Y-43443250D02*
X49052110Y-43346488D01*
X49052110Y-43346488D02*
X49003729Y-43298107D01*
X49003729Y-43298107D02*
X48906967Y-43249726D01*
X48906967Y-43249726D02*
X48713443Y-43201345D01*
X48713443Y-43201345D02*
X48616681Y-43152964D01*
X48616681Y-43152964D02*
X48568300Y-43104583D01*
X48568300Y-43104583D02*
X48519919Y-43007821D01*
X48519919Y-43007821D02*
X48519919Y-42911059D01*
X48519919Y-42911059D02*
X48568300Y-42814297D01*
X48568300Y-42814297D02*
X48616681Y-42765916D01*
X48616681Y-42765916D02*
X48713443Y-42717535D01*
X48713443Y-42717535D02*
X48955348Y-42717535D01*
X48955348Y-42717535D02*
X49100491Y-42765916D01*
X49535919Y-43201345D02*
X49874586Y-43201345D01*
X50019729Y-43733535D02*
X49535919Y-43733535D01*
X49535919Y-43733535D02*
X49535919Y-42717535D01*
X49535919Y-42717535D02*
X50019729Y-42717535D01*
X50938967Y-43733535D02*
X50455157Y-43733535D01*
X50455157Y-43733535D02*
X50455157Y-42717535D01*
X12082177Y-32855377D02*
X12082177Y-33399663D01*
X11755606Y-32746520D02*
X12898606Y-33127520D01*
X12898606Y-33127520D02*
X11755606Y-33508520D01*
X12898606Y-33780662D02*
X12898606Y-34488234D01*
X12898606Y-34488234D02*
X12463177Y-34107234D01*
X12463177Y-34107234D02*
X12463177Y-34270519D01*
X12463177Y-34270519D02*
X12408749Y-34379377D01*
X12408749Y-34379377D02*
X12354320Y-34433805D01*
X12354320Y-34433805D02*
X12245463Y-34488234D01*
X12245463Y-34488234D02*
X11973320Y-34488234D01*
X11973320Y-34488234D02*
X11864463Y-34433805D01*
X11864463Y-34433805D02*
X11810035Y-34379377D01*
X11810035Y-34379377D02*
X11755606Y-34270519D01*
X11755606Y-34270519D02*
X11755606Y-33943948D01*
X11755606Y-33943948D02*
X11810035Y-33835091D01*
X11810035Y-33835091D02*
X11864463Y-33780662D01*
D14*
X33886209Y-10492949D02*
X33420543Y-9827711D01*
X33087924Y-10492949D02*
X33087924Y-9095949D01*
X33087924Y-9095949D02*
X33620114Y-9095949D01*
X33620114Y-9095949D02*
X33753162Y-9162473D01*
X33753162Y-9162473D02*
X33819685Y-9228997D01*
X33819685Y-9228997D02*
X33886209Y-9362045D01*
X33886209Y-9362045D02*
X33886209Y-9561616D01*
X33886209Y-9561616D02*
X33819685Y-9694664D01*
X33819685Y-9694664D02*
X33753162Y-9761187D01*
X33753162Y-9761187D02*
X33620114Y-9827711D01*
X33620114Y-9827711D02*
X33087924Y-9827711D01*
X35017114Y-10426426D02*
X34884066Y-10492949D01*
X34884066Y-10492949D02*
X34617971Y-10492949D01*
X34617971Y-10492949D02*
X34484924Y-10426426D01*
X34484924Y-10426426D02*
X34418400Y-10293378D01*
X34418400Y-10293378D02*
X34418400Y-9761187D01*
X34418400Y-9761187D02*
X34484924Y-9628140D01*
X34484924Y-9628140D02*
X34617971Y-9561616D01*
X34617971Y-9561616D02*
X34884066Y-9561616D01*
X34884066Y-9561616D02*
X35017114Y-9628140D01*
X35017114Y-9628140D02*
X35083638Y-9761187D01*
X35083638Y-9761187D02*
X35083638Y-9894235D01*
X35083638Y-9894235D02*
X34418400Y-10027283D01*
X35682353Y-10492949D02*
X35682353Y-9561616D01*
X35682353Y-9694664D02*
X35748876Y-9628140D01*
X35748876Y-9628140D02*
X35881924Y-9561616D01*
X35881924Y-9561616D02*
X36081495Y-9561616D01*
X36081495Y-9561616D02*
X36214543Y-9628140D01*
X36214543Y-9628140D02*
X36281067Y-9761187D01*
X36281067Y-9761187D02*
X36281067Y-10492949D01*
X36281067Y-9761187D02*
X36347591Y-9628140D01*
X36347591Y-9628140D02*
X36480638Y-9561616D01*
X36480638Y-9561616D02*
X36680210Y-9561616D01*
X36680210Y-9561616D02*
X36813257Y-9628140D01*
X36813257Y-9628140D02*
X36879781Y-9761187D01*
X36879781Y-9761187D02*
X36879781Y-10492949D01*
X37744591Y-10492949D02*
X37611543Y-10426426D01*
X37611543Y-10426426D02*
X37545020Y-10359902D01*
X37545020Y-10359902D02*
X37478496Y-10226854D01*
X37478496Y-10226854D02*
X37478496Y-9827711D01*
X37478496Y-9827711D02*
X37545020Y-9694664D01*
X37545020Y-9694664D02*
X37611543Y-9628140D01*
X37611543Y-9628140D02*
X37744591Y-9561616D01*
X37744591Y-9561616D02*
X37944162Y-9561616D01*
X37944162Y-9561616D02*
X38077210Y-9628140D01*
X38077210Y-9628140D02*
X38143734Y-9694664D01*
X38143734Y-9694664D02*
X38210258Y-9827711D01*
X38210258Y-9827711D02*
X38210258Y-10226854D01*
X38210258Y-10226854D02*
X38143734Y-10359902D01*
X38143734Y-10359902D02*
X38077210Y-10426426D01*
X38077210Y-10426426D02*
X37944162Y-10492949D01*
X37944162Y-10492949D02*
X37744591Y-10492949D01*
X38609400Y-9561616D02*
X39141591Y-9561616D01*
X38808972Y-9095949D02*
X38808972Y-10293378D01*
X38808972Y-10293378D02*
X38875495Y-10426426D01*
X38875495Y-10426426D02*
X39008543Y-10492949D01*
X39008543Y-10492949D02*
X39141591Y-10492949D01*
X40139448Y-10426426D02*
X40006400Y-10492949D01*
X40006400Y-10492949D02*
X39740305Y-10492949D01*
X39740305Y-10492949D02*
X39607258Y-10426426D01*
X39607258Y-10426426D02*
X39540734Y-10293378D01*
X39540734Y-10293378D02*
X39540734Y-9761187D01*
X39540734Y-9761187D02*
X39607258Y-9628140D01*
X39607258Y-9628140D02*
X39740305Y-9561616D01*
X39740305Y-9561616D02*
X40006400Y-9561616D01*
X40006400Y-9561616D02*
X40139448Y-9628140D01*
X40139448Y-9628140D02*
X40205972Y-9761187D01*
X40205972Y-9761187D02*
X40205972Y-9894235D01*
X40205972Y-9894235D02*
X39540734Y-10027283D01*
X41869068Y-10492949D02*
X41869068Y-9095949D01*
X41869068Y-9095949D02*
X42334734Y-10093806D01*
X42334734Y-10093806D02*
X42800401Y-9095949D01*
X42800401Y-9095949D02*
X42800401Y-10492949D01*
X43665210Y-10492949D02*
X43532162Y-10426426D01*
X43532162Y-10426426D02*
X43465639Y-10359902D01*
X43465639Y-10359902D02*
X43399115Y-10226854D01*
X43399115Y-10226854D02*
X43399115Y-9827711D01*
X43399115Y-9827711D02*
X43465639Y-9694664D01*
X43465639Y-9694664D02*
X43532162Y-9628140D01*
X43532162Y-9628140D02*
X43665210Y-9561616D01*
X43665210Y-9561616D02*
X43864781Y-9561616D01*
X43864781Y-9561616D02*
X43997829Y-9628140D01*
X43997829Y-9628140D02*
X44064353Y-9694664D01*
X44064353Y-9694664D02*
X44130877Y-9827711D01*
X44130877Y-9827711D02*
X44130877Y-10226854D01*
X44130877Y-10226854D02*
X44064353Y-10359902D01*
X44064353Y-10359902D02*
X43997829Y-10426426D01*
X43997829Y-10426426D02*
X43864781Y-10492949D01*
X43864781Y-10492949D02*
X43665210Y-10492949D01*
X44729591Y-9561616D02*
X44729591Y-10492949D01*
X44729591Y-9694664D02*
X44796114Y-9628140D01*
X44796114Y-9628140D02*
X44929162Y-9561616D01*
X44929162Y-9561616D02*
X45128733Y-9561616D01*
X45128733Y-9561616D02*
X45261781Y-9628140D01*
X45261781Y-9628140D02*
X45328305Y-9761187D01*
X45328305Y-9761187D02*
X45328305Y-10492949D01*
X45993543Y-10492949D02*
X45993543Y-9561616D01*
X45993543Y-9095949D02*
X45927019Y-9162473D01*
X45927019Y-9162473D02*
X45993543Y-9228997D01*
X45993543Y-9228997D02*
X46060066Y-9162473D01*
X46060066Y-9162473D02*
X45993543Y-9095949D01*
X45993543Y-9095949D02*
X45993543Y-9228997D01*
X46459209Y-9561616D02*
X46991400Y-9561616D01*
X46658781Y-9095949D02*
X46658781Y-10293378D01*
X46658781Y-10293378D02*
X46725304Y-10426426D01*
X46725304Y-10426426D02*
X46858352Y-10492949D01*
X46858352Y-10492949D02*
X46991400Y-10492949D01*
X47656638Y-10492949D02*
X47523590Y-10426426D01*
X47523590Y-10426426D02*
X47457067Y-10359902D01*
X47457067Y-10359902D02*
X47390543Y-10226854D01*
X47390543Y-10226854D02*
X47390543Y-9827711D01*
X47390543Y-9827711D02*
X47457067Y-9694664D01*
X47457067Y-9694664D02*
X47523590Y-9628140D01*
X47523590Y-9628140D02*
X47656638Y-9561616D01*
X47656638Y-9561616D02*
X47856209Y-9561616D01*
X47856209Y-9561616D02*
X47989257Y-9628140D01*
X47989257Y-9628140D02*
X48055781Y-9694664D01*
X48055781Y-9694664D02*
X48122305Y-9827711D01*
X48122305Y-9827711D02*
X48122305Y-10226854D01*
X48122305Y-10226854D02*
X48055781Y-10359902D01*
X48055781Y-10359902D02*
X47989257Y-10426426D01*
X47989257Y-10426426D02*
X47856209Y-10492949D01*
X47856209Y-10492949D02*
X47656638Y-10492949D01*
X48721019Y-10492949D02*
X48721019Y-9561616D01*
X48721019Y-9827711D02*
X48787542Y-9694664D01*
X48787542Y-9694664D02*
X48854066Y-9628140D01*
X48854066Y-9628140D02*
X48987114Y-9561616D01*
X48987114Y-9561616D02*
X49120161Y-9561616D01*
X49585829Y-10492949D02*
X49585829Y-9561616D01*
X49585829Y-9095949D02*
X49519305Y-9162473D01*
X49519305Y-9162473D02*
X49585829Y-9228997D01*
X49585829Y-9228997D02*
X49652352Y-9162473D01*
X49652352Y-9162473D02*
X49585829Y-9095949D01*
X49585829Y-9095949D02*
X49585829Y-9228997D01*
X50251067Y-9561616D02*
X50251067Y-10492949D01*
X50251067Y-9694664D02*
X50317590Y-9628140D01*
X50317590Y-9628140D02*
X50450638Y-9561616D01*
X50450638Y-9561616D02*
X50650209Y-9561616D01*
X50650209Y-9561616D02*
X50783257Y-9628140D01*
X50783257Y-9628140D02*
X50849781Y-9761187D01*
X50849781Y-9761187D02*
X50849781Y-10492949D01*
X52113733Y-9561616D02*
X52113733Y-10692521D01*
X52113733Y-10692521D02*
X52047209Y-10825568D01*
X52047209Y-10825568D02*
X51980685Y-10892092D01*
X51980685Y-10892092D02*
X51847638Y-10958616D01*
X51847638Y-10958616D02*
X51648066Y-10958616D01*
X51648066Y-10958616D02*
X51515019Y-10892092D01*
X52113733Y-10426426D02*
X51980685Y-10492949D01*
X51980685Y-10492949D02*
X51714590Y-10492949D01*
X51714590Y-10492949D02*
X51581542Y-10426426D01*
X51581542Y-10426426D02*
X51515019Y-10359902D01*
X51515019Y-10359902D02*
X51448495Y-10226854D01*
X51448495Y-10226854D02*
X51448495Y-9827711D01*
X51448495Y-9827711D02*
X51515019Y-9694664D01*
X51515019Y-9694664D02*
X51581542Y-9628140D01*
X51581542Y-9628140D02*
X51714590Y-9561616D01*
X51714590Y-9561616D02*
X51980685Y-9561616D01*
X51980685Y-9561616D02*
X52113733Y-9628140D01*
X33021400Y-12342898D02*
X33686638Y-12342898D01*
X32888352Y-12742041D02*
X33354019Y-11345041D01*
X33354019Y-11345041D02*
X33819685Y-12742041D01*
X34285353Y-11810708D02*
X34285353Y-12742041D01*
X34285353Y-11943756D02*
X34351876Y-11877232D01*
X34351876Y-11877232D02*
X34484924Y-11810708D01*
X34484924Y-11810708D02*
X34684495Y-11810708D01*
X34684495Y-11810708D02*
X34817543Y-11877232D01*
X34817543Y-11877232D02*
X34884067Y-12010279D01*
X34884067Y-12010279D02*
X34884067Y-12742041D01*
X36148019Y-12742041D02*
X36148019Y-12010279D01*
X36148019Y-12010279D02*
X36081495Y-11877232D01*
X36081495Y-11877232D02*
X35948447Y-11810708D01*
X35948447Y-11810708D02*
X35682352Y-11810708D01*
X35682352Y-11810708D02*
X35549305Y-11877232D01*
X36148019Y-12675518D02*
X36014971Y-12742041D01*
X36014971Y-12742041D02*
X35682352Y-12742041D01*
X35682352Y-12742041D02*
X35549305Y-12675518D01*
X35549305Y-12675518D02*
X35482781Y-12542470D01*
X35482781Y-12542470D02*
X35482781Y-12409422D01*
X35482781Y-12409422D02*
X35549305Y-12276375D01*
X35549305Y-12276375D02*
X35682352Y-12209851D01*
X35682352Y-12209851D02*
X36014971Y-12209851D01*
X36014971Y-12209851D02*
X36148019Y-12143327D01*
X37012828Y-12742041D02*
X36879780Y-12675518D01*
X36879780Y-12675518D02*
X36813257Y-12542470D01*
X36813257Y-12542470D02*
X36813257Y-11345041D01*
X37744590Y-12742041D02*
X37611542Y-12675518D01*
X37611542Y-12675518D02*
X37545019Y-12608994D01*
X37545019Y-12608994D02*
X37478495Y-12475946D01*
X37478495Y-12475946D02*
X37478495Y-12076803D01*
X37478495Y-12076803D02*
X37545019Y-11943756D01*
X37545019Y-11943756D02*
X37611542Y-11877232D01*
X37611542Y-11877232D02*
X37744590Y-11810708D01*
X37744590Y-11810708D02*
X37944161Y-11810708D01*
X37944161Y-11810708D02*
X38077209Y-11877232D01*
X38077209Y-11877232D02*
X38143733Y-11943756D01*
X38143733Y-11943756D02*
X38210257Y-12076803D01*
X38210257Y-12076803D02*
X38210257Y-12475946D01*
X38210257Y-12475946D02*
X38143733Y-12608994D01*
X38143733Y-12608994D02*
X38077209Y-12675518D01*
X38077209Y-12675518D02*
X37944161Y-12742041D01*
X37944161Y-12742041D02*
X37744590Y-12742041D01*
X39407685Y-11810708D02*
X39407685Y-12941613D01*
X39407685Y-12941613D02*
X39341161Y-13074660D01*
X39341161Y-13074660D02*
X39274637Y-13141184D01*
X39274637Y-13141184D02*
X39141590Y-13207708D01*
X39141590Y-13207708D02*
X38942018Y-13207708D01*
X38942018Y-13207708D02*
X38808971Y-13141184D01*
X39407685Y-12675518D02*
X39274637Y-12742041D01*
X39274637Y-12742041D02*
X39008542Y-12742041D01*
X39008542Y-12742041D02*
X38875494Y-12675518D01*
X38875494Y-12675518D02*
X38808971Y-12608994D01*
X38808971Y-12608994D02*
X38742447Y-12475946D01*
X38742447Y-12475946D02*
X38742447Y-12076803D01*
X38742447Y-12076803D02*
X38808971Y-11943756D01*
X38808971Y-11943756D02*
X38875494Y-11877232D01*
X38875494Y-11877232D02*
X39008542Y-11810708D01*
X39008542Y-11810708D02*
X39274637Y-11810708D01*
X39274637Y-11810708D02*
X39407685Y-11877232D01*
X40671637Y-11810708D02*
X40671637Y-12742041D01*
X40072923Y-11810708D02*
X40072923Y-12542470D01*
X40072923Y-12542470D02*
X40139446Y-12675518D01*
X40139446Y-12675518D02*
X40272494Y-12742041D01*
X40272494Y-12742041D02*
X40472065Y-12742041D01*
X40472065Y-12742041D02*
X40605113Y-12675518D01*
X40605113Y-12675518D02*
X40671637Y-12608994D01*
X41869065Y-12675518D02*
X41736017Y-12742041D01*
X41736017Y-12742041D02*
X41469922Y-12742041D01*
X41469922Y-12742041D02*
X41336875Y-12675518D01*
X41336875Y-12675518D02*
X41270351Y-12542470D01*
X41270351Y-12542470D02*
X41270351Y-12010279D01*
X41270351Y-12010279D02*
X41336875Y-11877232D01*
X41336875Y-11877232D02*
X41469922Y-11810708D01*
X41469922Y-11810708D02*
X41736017Y-11810708D01*
X41736017Y-11810708D02*
X41869065Y-11877232D01*
X41869065Y-11877232D02*
X41935589Y-12010279D01*
X41935589Y-12010279D02*
X41935589Y-12143327D01*
X41935589Y-12143327D02*
X41270351Y-12276375D01*
X44064351Y-12010279D02*
X44263923Y-12076803D01*
X44263923Y-12076803D02*
X44330446Y-12143327D01*
X44330446Y-12143327D02*
X44396970Y-12276375D01*
X44396970Y-12276375D02*
X44396970Y-12475946D01*
X44396970Y-12475946D02*
X44330446Y-12608994D01*
X44330446Y-12608994D02*
X44263923Y-12675518D01*
X44263923Y-12675518D02*
X44130875Y-12742041D01*
X44130875Y-12742041D02*
X43598685Y-12742041D01*
X43598685Y-12742041D02*
X43598685Y-11345041D01*
X43598685Y-11345041D02*
X44064351Y-11345041D01*
X44064351Y-11345041D02*
X44197399Y-11411565D01*
X44197399Y-11411565D02*
X44263923Y-11478089D01*
X44263923Y-11478089D02*
X44330446Y-11611137D01*
X44330446Y-11611137D02*
X44330446Y-11744184D01*
X44330446Y-11744184D02*
X44263923Y-11877232D01*
X44263923Y-11877232D02*
X44197399Y-11943756D01*
X44197399Y-11943756D02*
X44064351Y-12010279D01*
X44064351Y-12010279D02*
X43598685Y-12010279D01*
X45195256Y-12742041D02*
X45062208Y-12675518D01*
X45062208Y-12675518D02*
X44995685Y-12608994D01*
X44995685Y-12608994D02*
X44929161Y-12475946D01*
X44929161Y-12475946D02*
X44929161Y-12076803D01*
X44929161Y-12076803D02*
X44995685Y-11943756D01*
X44995685Y-11943756D02*
X45062208Y-11877232D01*
X45062208Y-11877232D02*
X45195256Y-11810708D01*
X45195256Y-11810708D02*
X45394827Y-11810708D01*
X45394827Y-11810708D02*
X45527875Y-11877232D01*
X45527875Y-11877232D02*
X45594399Y-11943756D01*
X45594399Y-11943756D02*
X45660923Y-12076803D01*
X45660923Y-12076803D02*
X45660923Y-12475946D01*
X45660923Y-12475946D02*
X45594399Y-12608994D01*
X45594399Y-12608994D02*
X45527875Y-12675518D01*
X45527875Y-12675518D02*
X45394827Y-12742041D01*
X45394827Y-12742041D02*
X45195256Y-12742041D01*
X46858351Y-12742041D02*
X46858351Y-12010279D01*
X46858351Y-12010279D02*
X46791827Y-11877232D01*
X46791827Y-11877232D02*
X46658779Y-11810708D01*
X46658779Y-11810708D02*
X46392684Y-11810708D01*
X46392684Y-11810708D02*
X46259637Y-11877232D01*
X46858351Y-12675518D02*
X46725303Y-12742041D01*
X46725303Y-12742041D02*
X46392684Y-12742041D01*
X46392684Y-12742041D02*
X46259637Y-12675518D01*
X46259637Y-12675518D02*
X46193113Y-12542470D01*
X46193113Y-12542470D02*
X46193113Y-12409422D01*
X46193113Y-12409422D02*
X46259637Y-12276375D01*
X46259637Y-12276375D02*
X46392684Y-12209851D01*
X46392684Y-12209851D02*
X46725303Y-12209851D01*
X46725303Y-12209851D02*
X46858351Y-12143327D01*
X47523589Y-12742041D02*
X47523589Y-11810708D01*
X47523589Y-12076803D02*
X47590112Y-11943756D01*
X47590112Y-11943756D02*
X47656636Y-11877232D01*
X47656636Y-11877232D02*
X47789684Y-11810708D01*
X47789684Y-11810708D02*
X47922731Y-11810708D01*
X48987113Y-12742041D02*
X48987113Y-11345041D01*
X48987113Y-12675518D02*
X48854065Y-12742041D01*
X48854065Y-12742041D02*
X48587970Y-12742041D01*
X48587970Y-12742041D02*
X48454922Y-12675518D01*
X48454922Y-12675518D02*
X48388399Y-12608994D01*
X48388399Y-12608994D02*
X48321875Y-12475946D01*
X48321875Y-12475946D02*
X48321875Y-12076803D01*
X48321875Y-12076803D02*
X48388399Y-11943756D01*
X48388399Y-11943756D02*
X48454922Y-11877232D01*
X48454922Y-11877232D02*
X48587970Y-11810708D01*
X48587970Y-11810708D02*
X48854065Y-11810708D01*
X48854065Y-11810708D02*
X48987113Y-11877232D01*
X33087924Y-14991133D02*
X33087924Y-13594133D01*
X33087924Y-13594133D02*
X33553590Y-14591990D01*
X33553590Y-14591990D02*
X34019257Y-13594133D01*
X34019257Y-13594133D02*
X34019257Y-14991133D01*
X34950590Y-13594133D02*
X35216685Y-13594133D01*
X35216685Y-13594133D02*
X35349733Y-13660657D01*
X35349733Y-13660657D02*
X35482780Y-13793705D01*
X35482780Y-13793705D02*
X35549304Y-14059800D01*
X35549304Y-14059800D02*
X35549304Y-14525467D01*
X35549304Y-14525467D02*
X35482780Y-14791562D01*
X35482780Y-14791562D02*
X35349733Y-14924610D01*
X35349733Y-14924610D02*
X35216685Y-14991133D01*
X35216685Y-14991133D02*
X34950590Y-14991133D01*
X34950590Y-14991133D02*
X34817542Y-14924610D01*
X34817542Y-14924610D02*
X34684495Y-14791562D01*
X34684495Y-14791562D02*
X34617971Y-14525467D01*
X34617971Y-14525467D02*
X34617971Y-14059800D01*
X34617971Y-14059800D02*
X34684495Y-13793705D01*
X34684495Y-13793705D02*
X34817542Y-13660657D01*
X34817542Y-13660657D02*
X34950590Y-13594133D01*
X36148019Y-14991133D02*
X36148019Y-13594133D01*
X36148019Y-13594133D02*
X36946304Y-14991133D01*
X36946304Y-14991133D02*
X36946304Y-13594133D01*
X37611543Y-14458943D02*
X38675924Y-14458943D01*
X39274638Y-14591990D02*
X39939876Y-14591990D01*
X39141590Y-14991133D02*
X39607257Y-13594133D01*
X39607257Y-13594133D02*
X40072923Y-14991133D01*
X40538591Y-14991133D02*
X40538591Y-13594133D01*
X40538591Y-13594133D02*
X41336876Y-14991133D01*
X41336876Y-14991133D02*
X41336876Y-13594133D01*
X41869067Y-13594133D02*
X42800400Y-14991133D01*
X42800400Y-13594133D02*
X41869067Y-14991133D01*
X43332591Y-14458943D02*
X44396972Y-14458943D01*
X45328305Y-13594133D02*
X45461352Y-13594133D01*
X45461352Y-13594133D02*
X45594400Y-13660657D01*
X45594400Y-13660657D02*
X45660924Y-13727181D01*
X45660924Y-13727181D02*
X45727448Y-13860229D01*
X45727448Y-13860229D02*
X45793971Y-14126324D01*
X45793971Y-14126324D02*
X45793971Y-14458943D01*
X45793971Y-14458943D02*
X45727448Y-14725038D01*
X45727448Y-14725038D02*
X45660924Y-14858086D01*
X45660924Y-14858086D02*
X45594400Y-14924610D01*
X45594400Y-14924610D02*
X45461352Y-14991133D01*
X45461352Y-14991133D02*
X45328305Y-14991133D01*
X45328305Y-14991133D02*
X45195257Y-14924610D01*
X45195257Y-14924610D02*
X45128733Y-14858086D01*
X45128733Y-14858086D02*
X45062210Y-14725038D01*
X45062210Y-14725038D02*
X44995686Y-14458943D01*
X44995686Y-14458943D02*
X44995686Y-14126324D01*
X44995686Y-14126324D02*
X45062210Y-13860229D01*
X45062210Y-13860229D02*
X45128733Y-13727181D01*
X45128733Y-13727181D02*
X45195257Y-13660657D01*
X45195257Y-13660657D02*
X45328305Y-13594133D01*
X46459209Y-14991133D02*
X46725305Y-14991133D01*
X46725305Y-14991133D02*
X46858352Y-14924610D01*
X46858352Y-14924610D02*
X46924876Y-14858086D01*
X46924876Y-14858086D02*
X47057924Y-14658514D01*
X47057924Y-14658514D02*
X47124447Y-14392419D01*
X47124447Y-14392419D02*
X47124447Y-13860229D01*
X47124447Y-13860229D02*
X47057924Y-13727181D01*
X47057924Y-13727181D02*
X46991400Y-13660657D01*
X46991400Y-13660657D02*
X46858352Y-13594133D01*
X46858352Y-13594133D02*
X46592257Y-13594133D01*
X46592257Y-13594133D02*
X46459209Y-13660657D01*
X46459209Y-13660657D02*
X46392686Y-13727181D01*
X46392686Y-13727181D02*
X46326162Y-13860229D01*
X46326162Y-13860229D02*
X46326162Y-14192848D01*
X46326162Y-14192848D02*
X46392686Y-14325895D01*
X46392686Y-14325895D02*
X46459209Y-14392419D01*
X46459209Y-14392419D02*
X46592257Y-14458943D01*
X46592257Y-14458943D02*
X46858352Y-14458943D01*
X46858352Y-14458943D02*
X46991400Y-14392419D01*
X46991400Y-14392419D02*
X47057924Y-14325895D01*
X47057924Y-14325895D02*
X47124447Y-14192848D01*
X32954876Y-15843225D02*
X33819685Y-15843225D01*
X33819685Y-15843225D02*
X33354019Y-16375416D01*
X33354019Y-16375416D02*
X33553590Y-16375416D01*
X33553590Y-16375416D02*
X33686638Y-16441940D01*
X33686638Y-16441940D02*
X33753162Y-16508463D01*
X33753162Y-16508463D02*
X33819685Y-16641511D01*
X33819685Y-16641511D02*
X33819685Y-16974130D01*
X33819685Y-16974130D02*
X33753162Y-17107178D01*
X33753162Y-17107178D02*
X33686638Y-17173702D01*
X33686638Y-17173702D02*
X33553590Y-17240225D01*
X33553590Y-17240225D02*
X33154447Y-17240225D01*
X33154447Y-17240225D02*
X33021400Y-17173702D01*
X33021400Y-17173702D02*
X32954876Y-17107178D01*
X35150161Y-15909749D02*
X35017114Y-15843225D01*
X35017114Y-15843225D02*
X34817542Y-15843225D01*
X34817542Y-15843225D02*
X34617971Y-15909749D01*
X34617971Y-15909749D02*
X34484923Y-16042797D01*
X34484923Y-16042797D02*
X34418400Y-16175844D01*
X34418400Y-16175844D02*
X34351876Y-16441940D01*
X34351876Y-16441940D02*
X34351876Y-16641511D01*
X34351876Y-16641511D02*
X34418400Y-16907606D01*
X34418400Y-16907606D02*
X34484923Y-17040654D01*
X34484923Y-17040654D02*
X34617971Y-17173702D01*
X34617971Y-17173702D02*
X34817542Y-17240225D01*
X34817542Y-17240225D02*
X34950590Y-17240225D01*
X34950590Y-17240225D02*
X35150161Y-17173702D01*
X35150161Y-17173702D02*
X35216685Y-17107178D01*
X35216685Y-17107178D02*
X35216685Y-16641511D01*
X35216685Y-16641511D02*
X34950590Y-16641511D01*
X35815400Y-17240225D02*
X35815400Y-15843225D01*
X35815400Y-15843225D02*
X36148019Y-15843225D01*
X36148019Y-15843225D02*
X36347590Y-15909749D01*
X36347590Y-15909749D02*
X36480638Y-16042797D01*
X36480638Y-16042797D02*
X36547161Y-16175844D01*
X36547161Y-16175844D02*
X36613685Y-16441940D01*
X36613685Y-16441940D02*
X36613685Y-16641511D01*
X36613685Y-16641511D02*
X36547161Y-16907606D01*
X36547161Y-16907606D02*
X36480638Y-17040654D01*
X36480638Y-17040654D02*
X36347590Y-17173702D01*
X36347590Y-17173702D02*
X36148019Y-17240225D01*
X36148019Y-17240225D02*
X35815400Y-17240225D01*
X38010685Y-17240225D02*
X37545019Y-16574987D01*
X37212400Y-17240225D02*
X37212400Y-15843225D01*
X37212400Y-15843225D02*
X37744590Y-15843225D01*
X37744590Y-15843225D02*
X37877638Y-15909749D01*
X37877638Y-15909749D02*
X37944161Y-15976273D01*
X37944161Y-15976273D02*
X38010685Y-16109321D01*
X38010685Y-16109321D02*
X38010685Y-16308892D01*
X38010685Y-16308892D02*
X37944161Y-16441940D01*
X37944161Y-16441940D02*
X37877638Y-16508463D01*
X37877638Y-16508463D02*
X37744590Y-16574987D01*
X37744590Y-16574987D02*
X37212400Y-16574987D01*
X38609400Y-16708035D02*
X39673781Y-16708035D01*
X40804685Y-16508463D02*
X40339019Y-16508463D01*
X40339019Y-17240225D02*
X40339019Y-15843225D01*
X40339019Y-15843225D02*
X41004257Y-15843225D01*
X41536448Y-17240225D02*
X41536448Y-15843225D01*
X41536448Y-15843225D02*
X42002114Y-16841082D01*
X42002114Y-16841082D02*
X42467781Y-15843225D01*
X42467781Y-15843225D02*
X42467781Y-17240225D01*
D10*
X12005977Y-67831177D02*
X12005977Y-68375463D01*
X11679406Y-67722320D02*
X12822406Y-68103320D01*
X12822406Y-68103320D02*
X11679406Y-68484320D01*
X12822406Y-69409605D02*
X12822406Y-68865319D01*
X12822406Y-68865319D02*
X12278120Y-68810891D01*
X12278120Y-68810891D02*
X12332549Y-68865319D01*
X12332549Y-68865319D02*
X12386977Y-68974177D01*
X12386977Y-68974177D02*
X12386977Y-69246319D01*
X12386977Y-69246319D02*
X12332549Y-69355177D01*
X12332549Y-69355177D02*
X12278120Y-69409605D01*
X12278120Y-69409605D02*
X12169263Y-69464034D01*
X12169263Y-69464034D02*
X11897120Y-69464034D01*
X11897120Y-69464034D02*
X11788263Y-69409605D01*
X11788263Y-69409605D02*
X11733835Y-69355177D01*
X11733835Y-69355177D02*
X11679406Y-69246319D01*
X11679406Y-69246319D02*
X11679406Y-68974177D01*
X11679406Y-68974177D02*
X11733835Y-68865319D01*
X11733835Y-68865319D02*
X11788263Y-68810891D01*
X12005977Y-83147377D02*
X12005977Y-83691663D01*
X11679406Y-83038520D02*
X12822406Y-83419520D01*
X12822406Y-83419520D02*
X11679406Y-83800520D01*
X12822406Y-84072662D02*
X12822406Y-84834662D01*
X12822406Y-84834662D02*
X11679406Y-84344805D01*
X12107577Y-60058777D02*
X12107577Y-60603063D01*
X11781006Y-59949920D02*
X12924006Y-60330920D01*
X12924006Y-60330920D02*
X11781006Y-60711920D01*
X12543006Y-61582777D02*
X11781006Y-61582777D01*
X12978435Y-61310634D02*
X12162006Y-61038491D01*
X12162006Y-61038491D02*
X12162006Y-61746062D01*
X12107577Y-17691577D02*
X12107577Y-18235863D01*
X11781006Y-17582720D02*
X12924006Y-17963720D01*
X12924006Y-17963720D02*
X11781006Y-18344720D01*
X11781006Y-19324434D02*
X11781006Y-18671291D01*
X11781006Y-18997862D02*
X12924006Y-18997862D01*
X12924006Y-18997862D02*
X12760720Y-18889005D01*
X12760720Y-18889005D02*
X12651863Y-18780148D01*
X12651863Y-18780148D02*
X12597435Y-18671291D01*
D15*
X21725095Y-46732819D02*
X22296523Y-46732819D01*
X22010809Y-47732819D02*
X22010809Y-46732819D01*
X22629857Y-47732819D02*
X22629857Y-46732819D01*
X22629857Y-46732819D02*
X23010809Y-46732819D01*
X23010809Y-46732819D02*
X23106047Y-46780438D01*
X23106047Y-46780438D02*
X23153666Y-46828057D01*
X23153666Y-46828057D02*
X23201285Y-46923295D01*
X23201285Y-46923295D02*
X23201285Y-47066152D01*
X23201285Y-47066152D02*
X23153666Y-47161390D01*
X23153666Y-47161390D02*
X23106047Y-47209009D01*
X23106047Y-47209009D02*
X23010809Y-47256628D01*
X23010809Y-47256628D02*
X22629857Y-47256628D01*
X24106047Y-46732819D02*
X23629857Y-46732819D01*
X23629857Y-46732819D02*
X23582238Y-47209009D01*
X23582238Y-47209009D02*
X23629857Y-47161390D01*
X23629857Y-47161390D02*
X23725095Y-47113771D01*
X23725095Y-47113771D02*
X23963190Y-47113771D01*
X23963190Y-47113771D02*
X24058428Y-47161390D01*
X24058428Y-47161390D02*
X24106047Y-47209009D01*
X24106047Y-47209009D02*
X24153666Y-47304247D01*
X24153666Y-47304247D02*
X24153666Y-47542342D01*
X24153666Y-47542342D02*
X24106047Y-47637580D01*
X24106047Y-47637580D02*
X24058428Y-47685200D01*
X24058428Y-47685200D02*
X23963190Y-47732819D01*
X23963190Y-47732819D02*
X23725095Y-47732819D01*
X23725095Y-47732819D02*
X23629857Y-47685200D01*
X23629857Y-47685200D02*
X23582238Y-47637580D01*
X50023733Y-64392980D02*
X49976114Y-64440600D01*
X49976114Y-64440600D02*
X49833257Y-64488219D01*
X49833257Y-64488219D02*
X49738019Y-64488219D01*
X49738019Y-64488219D02*
X49595162Y-64440600D01*
X49595162Y-64440600D02*
X49499924Y-64345361D01*
X49499924Y-64345361D02*
X49452305Y-64250123D01*
X49452305Y-64250123D02*
X49404686Y-64059647D01*
X49404686Y-64059647D02*
X49404686Y-63916790D01*
X49404686Y-63916790D02*
X49452305Y-63726314D01*
X49452305Y-63726314D02*
X49499924Y-63631076D01*
X49499924Y-63631076D02*
X49595162Y-63535838D01*
X49595162Y-63535838D02*
X49738019Y-63488219D01*
X49738019Y-63488219D02*
X49833257Y-63488219D01*
X49833257Y-63488219D02*
X49976114Y-63535838D01*
X49976114Y-63535838D02*
X50023733Y-63583457D01*
X50880876Y-63488219D02*
X50690400Y-63488219D01*
X50690400Y-63488219D02*
X50595162Y-63535838D01*
X50595162Y-63535838D02*
X50547543Y-63583457D01*
X50547543Y-63583457D02*
X50452305Y-63726314D01*
X50452305Y-63726314D02*
X50404686Y-63916790D01*
X50404686Y-63916790D02*
X50404686Y-64297742D01*
X50404686Y-64297742D02*
X50452305Y-64392980D01*
X50452305Y-64392980D02*
X50499924Y-64440600D01*
X50499924Y-64440600D02*
X50595162Y-64488219D01*
X50595162Y-64488219D02*
X50785638Y-64488219D01*
X50785638Y-64488219D02*
X50880876Y-64440600D01*
X50880876Y-64440600D02*
X50928495Y-64392980D01*
X50928495Y-64392980D02*
X50976114Y-64297742D01*
X50976114Y-64297742D02*
X50976114Y-64059647D01*
X50976114Y-64059647D02*
X50928495Y-63964409D01*
X50928495Y-63964409D02*
X50880876Y-63916790D01*
X50880876Y-63916790D02*
X50785638Y-63869171D01*
X50785638Y-63869171D02*
X50595162Y-63869171D01*
X50595162Y-63869171D02*
X50499924Y-63916790D01*
X50499924Y-63916790D02*
X50452305Y-63964409D01*
X50452305Y-63964409D02*
X50404686Y-64059647D01*
D11*
X49940633Y-60628065D02*
X49432633Y-60628065D01*
X49686633Y-60628065D02*
X49686633Y-59739065D01*
X49686633Y-59739065D02*
X49601966Y-59866065D01*
X49601966Y-59866065D02*
X49517300Y-59950732D01*
X49517300Y-59950732D02*
X49432633Y-59993065D01*
X50702633Y-60035398D02*
X50702633Y-60628065D01*
X50321633Y-60035398D02*
X50321633Y-60501065D01*
X50321633Y-60501065D02*
X50363967Y-60585732D01*
X50363967Y-60585732D02*
X50448633Y-60628065D01*
X50448633Y-60628065D02*
X50575633Y-60628065D01*
X50575633Y-60628065D02*
X50660300Y-60585732D01*
X50660300Y-60585732D02*
X50702633Y-60543398D01*
D15*
X48906133Y-19851019D02*
X48572800Y-19374828D01*
X48334705Y-19851019D02*
X48334705Y-18851019D01*
X48334705Y-18851019D02*
X48715657Y-18851019D01*
X48715657Y-18851019D02*
X48810895Y-18898638D01*
X48810895Y-18898638D02*
X48858514Y-18946257D01*
X48858514Y-18946257D02*
X48906133Y-19041495D01*
X48906133Y-19041495D02*
X48906133Y-19184352D01*
X48906133Y-19184352D02*
X48858514Y-19279590D01*
X48858514Y-19279590D02*
X48810895Y-19327209D01*
X48810895Y-19327209D02*
X48715657Y-19374828D01*
X48715657Y-19374828D02*
X48334705Y-19374828D01*
X49239467Y-18851019D02*
X49906133Y-18851019D01*
X49906133Y-18851019D02*
X49477562Y-19851019D01*
D11*
X48755300Y-24220465D02*
X48331966Y-24220465D01*
X48331966Y-24220465D02*
X48289633Y-24643798D01*
X48289633Y-24643798D02*
X48331966Y-24601465D01*
X48331966Y-24601465D02*
X48416633Y-24559132D01*
X48416633Y-24559132D02*
X48628300Y-24559132D01*
X48628300Y-24559132D02*
X48712966Y-24601465D01*
X48712966Y-24601465D02*
X48755300Y-24643798D01*
X48755300Y-24643798D02*
X48797633Y-24728465D01*
X48797633Y-24728465D02*
X48797633Y-24940132D01*
X48797633Y-24940132D02*
X48755300Y-25024798D01*
X48755300Y-25024798D02*
X48712966Y-25067132D01*
X48712966Y-25067132D02*
X48628300Y-25109465D01*
X48628300Y-25109465D02*
X48416633Y-25109465D01*
X48416633Y-25109465D02*
X48331966Y-25067132D01*
X48331966Y-25067132D02*
X48289633Y-25024798D01*
X49559633Y-24220465D02*
X49390300Y-24220465D01*
X49390300Y-24220465D02*
X49305633Y-24262798D01*
X49305633Y-24262798D02*
X49263300Y-24305132D01*
X49263300Y-24305132D02*
X49178633Y-24432132D01*
X49178633Y-24432132D02*
X49136300Y-24601465D01*
X49136300Y-24601465D02*
X49136300Y-24940132D01*
X49136300Y-24940132D02*
X49178633Y-25024798D01*
X49178633Y-25024798D02*
X49220967Y-25067132D01*
X49220967Y-25067132D02*
X49305633Y-25109465D01*
X49305633Y-25109465D02*
X49474967Y-25109465D01*
X49474967Y-25109465D02*
X49559633Y-25067132D01*
X49559633Y-25067132D02*
X49601967Y-25024798D01*
X49601967Y-25024798D02*
X49644300Y-24940132D01*
X49644300Y-24940132D02*
X49644300Y-24728465D01*
X49644300Y-24728465D02*
X49601967Y-24643798D01*
X49601967Y-24643798D02*
X49559633Y-24601465D01*
X49559633Y-24601465D02*
X49474967Y-24559132D01*
X49474967Y-24559132D02*
X49305633Y-24559132D01*
X49305633Y-24559132D02*
X49220967Y-24601465D01*
X49220967Y-24601465D02*
X49178633Y-24643798D01*
X49178633Y-24643798D02*
X49136300Y-24728465D01*
X50025300Y-25109465D02*
X50025300Y-24220465D01*
X50109967Y-24770798D02*
X50363967Y-25109465D01*
X50363967Y-24516798D02*
X50025300Y-24855465D01*
D15*
X43365033Y-77423180D02*
X43317414Y-77470800D01*
X43317414Y-77470800D02*
X43174557Y-77518419D01*
X43174557Y-77518419D02*
X43079319Y-77518419D01*
X43079319Y-77518419D02*
X42936462Y-77470800D01*
X42936462Y-77470800D02*
X42841224Y-77375561D01*
X42841224Y-77375561D02*
X42793605Y-77280323D01*
X42793605Y-77280323D02*
X42745986Y-77089847D01*
X42745986Y-77089847D02*
X42745986Y-76946990D01*
X42745986Y-76946990D02*
X42793605Y-76756514D01*
X42793605Y-76756514D02*
X42841224Y-76661276D01*
X42841224Y-76661276D02*
X42936462Y-76566038D01*
X42936462Y-76566038D02*
X43079319Y-76518419D01*
X43079319Y-76518419D02*
X43174557Y-76518419D01*
X43174557Y-76518419D02*
X43317414Y-76566038D01*
X43317414Y-76566038D02*
X43365033Y-76613657D01*
X44317414Y-77518419D02*
X43745986Y-77518419D01*
X44031700Y-77518419D02*
X44031700Y-76518419D01*
X44031700Y-76518419D02*
X43936462Y-76661276D01*
X43936462Y-76661276D02*
X43841224Y-76756514D01*
X43841224Y-76756514D02*
X43745986Y-76804133D01*
D11*
X43434333Y-80922665D02*
X42926333Y-80922665D01*
X43180333Y-80922665D02*
X43180333Y-80033665D01*
X43180333Y-80033665D02*
X43095666Y-80160665D01*
X43095666Y-80160665D02*
X43011000Y-80245332D01*
X43011000Y-80245332D02*
X42926333Y-80287665D01*
X44196333Y-80329998D02*
X44196333Y-80922665D01*
X43815333Y-80329998D02*
X43815333Y-80795665D01*
X43815333Y-80795665D02*
X43857667Y-80880332D01*
X43857667Y-80880332D02*
X43942333Y-80922665D01*
X43942333Y-80922665D02*
X44069333Y-80922665D01*
X44069333Y-80922665D02*
X44154000Y-80880332D01*
X44154000Y-80880332D02*
X44196333Y-80837998D01*
D15*
X27112933Y-67339380D02*
X27065314Y-67387000D01*
X27065314Y-67387000D02*
X26922457Y-67434619D01*
X26922457Y-67434619D02*
X26827219Y-67434619D01*
X26827219Y-67434619D02*
X26684362Y-67387000D01*
X26684362Y-67387000D02*
X26589124Y-67291761D01*
X26589124Y-67291761D02*
X26541505Y-67196523D01*
X26541505Y-67196523D02*
X26493886Y-67006047D01*
X26493886Y-67006047D02*
X26493886Y-66863190D01*
X26493886Y-66863190D02*
X26541505Y-66672714D01*
X26541505Y-66672714D02*
X26589124Y-66577476D01*
X26589124Y-66577476D02*
X26684362Y-66482238D01*
X26684362Y-66482238D02*
X26827219Y-66434619D01*
X26827219Y-66434619D02*
X26922457Y-66434619D01*
X26922457Y-66434619D02*
X27065314Y-66482238D01*
X27065314Y-66482238D02*
X27112933Y-66529857D01*
X28017695Y-66434619D02*
X27541505Y-66434619D01*
X27541505Y-66434619D02*
X27493886Y-66910809D01*
X27493886Y-66910809D02*
X27541505Y-66863190D01*
X27541505Y-66863190D02*
X27636743Y-66815571D01*
X27636743Y-66815571D02*
X27874838Y-66815571D01*
X27874838Y-66815571D02*
X27970076Y-66863190D01*
X27970076Y-66863190D02*
X28017695Y-66910809D01*
X28017695Y-66910809D02*
X28065314Y-67006047D01*
X28065314Y-67006047D02*
X28065314Y-67244142D01*
X28065314Y-67244142D02*
X28017695Y-67339380D01*
X28017695Y-67339380D02*
X27970076Y-67387000D01*
X27970076Y-67387000D02*
X27874838Y-67434619D01*
X27874838Y-67434619D02*
X27636743Y-67434619D01*
X27636743Y-67434619D02*
X27541505Y-67387000D01*
X27541505Y-67387000D02*
X27493886Y-67339380D01*
X16952933Y-72362219D02*
X16619600Y-71886028D01*
X16381505Y-72362219D02*
X16381505Y-71362219D01*
X16381505Y-71362219D02*
X16762457Y-71362219D01*
X16762457Y-71362219D02*
X16857695Y-71409838D01*
X16857695Y-71409838D02*
X16905314Y-71457457D01*
X16905314Y-71457457D02*
X16952933Y-71552695D01*
X16952933Y-71552695D02*
X16952933Y-71695552D01*
X16952933Y-71695552D02*
X16905314Y-71790790D01*
X16905314Y-71790790D02*
X16857695Y-71838409D01*
X16857695Y-71838409D02*
X16762457Y-71886028D01*
X16762457Y-71886028D02*
X16381505Y-71886028D01*
X17810076Y-71695552D02*
X17810076Y-72362219D01*
X17571981Y-71314600D02*
X17333886Y-72028885D01*
X17333886Y-72028885D02*
X17952933Y-72028885D01*
X26958233Y-47842380D02*
X26910614Y-47890000D01*
X26910614Y-47890000D02*
X26767757Y-47937619D01*
X26767757Y-47937619D02*
X26672519Y-47937619D01*
X26672519Y-47937619D02*
X26529662Y-47890000D01*
X26529662Y-47890000D02*
X26434424Y-47794761D01*
X26434424Y-47794761D02*
X26386805Y-47699523D01*
X26386805Y-47699523D02*
X26339186Y-47509047D01*
X26339186Y-47509047D02*
X26339186Y-47366190D01*
X26339186Y-47366190D02*
X26386805Y-47175714D01*
X26386805Y-47175714D02*
X26434424Y-47080476D01*
X26434424Y-47080476D02*
X26529662Y-46985238D01*
X26529662Y-46985238D02*
X26672519Y-46937619D01*
X26672519Y-46937619D02*
X26767757Y-46937619D01*
X26767757Y-46937619D02*
X26910614Y-46985238D01*
X26910614Y-46985238D02*
X26958233Y-47032857D01*
X27815376Y-47270952D02*
X27815376Y-47937619D01*
X27577281Y-46890000D02*
X27339186Y-47604285D01*
X27339186Y-47604285D02*
X27958233Y-47604285D01*
X17003733Y-21079619D02*
X16670400Y-20603428D01*
X16432305Y-21079619D02*
X16432305Y-20079619D01*
X16432305Y-20079619D02*
X16813257Y-20079619D01*
X16813257Y-20079619D02*
X16908495Y-20127238D01*
X16908495Y-20127238D02*
X16956114Y-20174857D01*
X16956114Y-20174857D02*
X17003733Y-20270095D01*
X17003733Y-20270095D02*
X17003733Y-20412952D01*
X17003733Y-20412952D02*
X16956114Y-20508190D01*
X16956114Y-20508190D02*
X16908495Y-20555809D01*
X16908495Y-20555809D02*
X16813257Y-20603428D01*
X16813257Y-20603428D02*
X16432305Y-20603428D01*
X17575162Y-20508190D02*
X17479924Y-20460571D01*
X17479924Y-20460571D02*
X17432305Y-20412952D01*
X17432305Y-20412952D02*
X17384686Y-20317714D01*
X17384686Y-20317714D02*
X17384686Y-20270095D01*
X17384686Y-20270095D02*
X17432305Y-20174857D01*
X17432305Y-20174857D02*
X17479924Y-20127238D01*
X17479924Y-20127238D02*
X17575162Y-20079619D01*
X17575162Y-20079619D02*
X17765638Y-20079619D01*
X17765638Y-20079619D02*
X17860876Y-20127238D01*
X17860876Y-20127238D02*
X17908495Y-20174857D01*
X17908495Y-20174857D02*
X17956114Y-20270095D01*
X17956114Y-20270095D02*
X17956114Y-20317714D01*
X17956114Y-20317714D02*
X17908495Y-20412952D01*
X17908495Y-20412952D02*
X17860876Y-20460571D01*
X17860876Y-20460571D02*
X17765638Y-20508190D01*
X17765638Y-20508190D02*
X17575162Y-20508190D01*
X17575162Y-20508190D02*
X17479924Y-20555809D01*
X17479924Y-20555809D02*
X17432305Y-20603428D01*
X17432305Y-20603428D02*
X17384686Y-20698666D01*
X17384686Y-20698666D02*
X17384686Y-20889142D01*
X17384686Y-20889142D02*
X17432305Y-20984380D01*
X17432305Y-20984380D02*
X17479924Y-21032000D01*
X17479924Y-21032000D02*
X17575162Y-21079619D01*
X17575162Y-21079619D02*
X17765638Y-21079619D01*
X17765638Y-21079619D02*
X17860876Y-21032000D01*
X17860876Y-21032000D02*
X17908495Y-20984380D01*
X17908495Y-20984380D02*
X17956114Y-20889142D01*
X17956114Y-20889142D02*
X17956114Y-20698666D01*
X17956114Y-20698666D02*
X17908495Y-20603428D01*
X17908495Y-20603428D02*
X17860876Y-20555809D01*
X17860876Y-20555809D02*
X17765638Y-20508190D01*
X21750495Y-66036819D02*
X22321923Y-66036819D01*
X22036209Y-67036819D02*
X22036209Y-66036819D01*
X22655257Y-67036819D02*
X22655257Y-66036819D01*
X22655257Y-66036819D02*
X23036209Y-66036819D01*
X23036209Y-66036819D02*
X23131447Y-66084438D01*
X23131447Y-66084438D02*
X23179066Y-66132057D01*
X23179066Y-66132057D02*
X23226685Y-66227295D01*
X23226685Y-66227295D02*
X23226685Y-66370152D01*
X23226685Y-66370152D02*
X23179066Y-66465390D01*
X23179066Y-66465390D02*
X23131447Y-66513009D01*
X23131447Y-66513009D02*
X23036209Y-66560628D01*
X23036209Y-66560628D02*
X22655257Y-66560628D01*
X23560019Y-66036819D02*
X24226685Y-66036819D01*
X24226685Y-66036819D02*
X23798114Y-67036819D01*
X16349742Y-66012219D02*
X16016409Y-65536028D01*
X15778314Y-66012219D02*
X15778314Y-65012219D01*
X15778314Y-65012219D02*
X16159266Y-65012219D01*
X16159266Y-65012219D02*
X16254504Y-65059838D01*
X16254504Y-65059838D02*
X16302123Y-65107457D01*
X16302123Y-65107457D02*
X16349742Y-65202695D01*
X16349742Y-65202695D02*
X16349742Y-65345552D01*
X16349742Y-65345552D02*
X16302123Y-65440790D01*
X16302123Y-65440790D02*
X16254504Y-65488409D01*
X16254504Y-65488409D02*
X16159266Y-65536028D01*
X16159266Y-65536028D02*
X15778314Y-65536028D01*
X17302123Y-66012219D02*
X16730695Y-66012219D01*
X17016409Y-66012219D02*
X17016409Y-65012219D01*
X17016409Y-65012219D02*
X16921171Y-65155076D01*
X16921171Y-65155076D02*
X16825933Y-65250314D01*
X16825933Y-65250314D02*
X16730695Y-65297933D01*
X17921171Y-65012219D02*
X18016409Y-65012219D01*
X18016409Y-65012219D02*
X18111647Y-65059838D01*
X18111647Y-65059838D02*
X18159266Y-65107457D01*
X18159266Y-65107457D02*
X18206885Y-65202695D01*
X18206885Y-65202695D02*
X18254504Y-65393171D01*
X18254504Y-65393171D02*
X18254504Y-65631266D01*
X18254504Y-65631266D02*
X18206885Y-65821742D01*
X18206885Y-65821742D02*
X18159266Y-65916980D01*
X18159266Y-65916980D02*
X18111647Y-65964600D01*
X18111647Y-65964600D02*
X18016409Y-66012219D01*
X18016409Y-66012219D02*
X17921171Y-66012219D01*
X17921171Y-66012219D02*
X17825933Y-65964600D01*
X17825933Y-65964600D02*
X17778314Y-65916980D01*
X17778314Y-65916980D02*
X17730695Y-65821742D01*
X17730695Y-65821742D02*
X17683076Y-65631266D01*
X17683076Y-65631266D02*
X17683076Y-65393171D01*
X17683076Y-65393171D02*
X17730695Y-65202695D01*
X17730695Y-65202695D02*
X17778314Y-65107457D01*
X17778314Y-65107457D02*
X17825933Y-65059838D01*
X17825933Y-65059838D02*
X17921171Y-65012219D01*
X3439143Y-87040057D02*
X3486762Y-86992438D01*
X3486762Y-86992438D02*
X3582000Y-86944819D01*
X3582000Y-86944819D02*
X3820095Y-86944819D01*
X3820095Y-86944819D02*
X3915333Y-86992438D01*
X3915333Y-86992438D02*
X3962952Y-87040057D01*
X3962952Y-87040057D02*
X4010571Y-87135295D01*
X4010571Y-87135295D02*
X4010571Y-87230533D01*
X4010571Y-87230533D02*
X3962952Y-87373390D01*
X3962952Y-87373390D02*
X3391524Y-87944819D01*
X3391524Y-87944819D02*
X4010571Y-87944819D01*
X4629619Y-86944819D02*
X4724857Y-86944819D01*
X4724857Y-86944819D02*
X4820095Y-86992438D01*
X4820095Y-86992438D02*
X4867714Y-87040057D01*
X4867714Y-87040057D02*
X4915333Y-87135295D01*
X4915333Y-87135295D02*
X4962952Y-87325771D01*
X4962952Y-87325771D02*
X4962952Y-87563866D01*
X4962952Y-87563866D02*
X4915333Y-87754342D01*
X4915333Y-87754342D02*
X4867714Y-87849580D01*
X4867714Y-87849580D02*
X4820095Y-87897200D01*
X4820095Y-87897200D02*
X4724857Y-87944819D01*
X4724857Y-87944819D02*
X4629619Y-87944819D01*
X4629619Y-87944819D02*
X4534381Y-87897200D01*
X4534381Y-87897200D02*
X4486762Y-87849580D01*
X4486762Y-87849580D02*
X4439143Y-87754342D01*
X4439143Y-87754342D02*
X4391524Y-87563866D01*
X4391524Y-87563866D02*
X4391524Y-87325771D01*
X4391524Y-87325771D02*
X4439143Y-87135295D01*
X4439143Y-87135295D02*
X4486762Y-87040057D01*
X4486762Y-87040057D02*
X4534381Y-86992438D01*
X4534381Y-86992438D02*
X4629619Y-86944819D01*
X5582000Y-86944819D02*
X5677238Y-86944819D01*
X5677238Y-86944819D02*
X5772476Y-86992438D01*
X5772476Y-86992438D02*
X5820095Y-87040057D01*
X5820095Y-87040057D02*
X5867714Y-87135295D01*
X5867714Y-87135295D02*
X5915333Y-87325771D01*
X5915333Y-87325771D02*
X5915333Y-87563866D01*
X5915333Y-87563866D02*
X5867714Y-87754342D01*
X5867714Y-87754342D02*
X5820095Y-87849580D01*
X5820095Y-87849580D02*
X5772476Y-87897200D01*
X5772476Y-87897200D02*
X5677238Y-87944819D01*
X5677238Y-87944819D02*
X5582000Y-87944819D01*
X5582000Y-87944819D02*
X5486762Y-87897200D01*
X5486762Y-87897200D02*
X5439143Y-87849580D01*
X5439143Y-87849580D02*
X5391524Y-87754342D01*
X5391524Y-87754342D02*
X5343905Y-87563866D01*
X5343905Y-87563866D02*
X5343905Y-87325771D01*
X5343905Y-87325771D02*
X5391524Y-87135295D01*
X5391524Y-87135295D02*
X5439143Y-87040057D01*
X5439143Y-87040057D02*
X5486762Y-86992438D01*
X5486762Y-86992438D02*
X5582000Y-86944819D01*
X6343905Y-87944819D02*
X6343905Y-86944819D01*
X6439143Y-87563866D02*
X6724857Y-87944819D01*
X6724857Y-87278152D02*
X6343905Y-87659104D01*
X21750495Y-74825219D02*
X22321923Y-74825219D01*
X22036209Y-75825219D02*
X22036209Y-74825219D01*
X22655257Y-75825219D02*
X22655257Y-74825219D01*
X22655257Y-74825219D02*
X23036209Y-74825219D01*
X23036209Y-74825219D02*
X23131447Y-74872838D01*
X23131447Y-74872838D02*
X23179066Y-74920457D01*
X23179066Y-74920457D02*
X23226685Y-75015695D01*
X23226685Y-75015695D02*
X23226685Y-75158552D01*
X23226685Y-75158552D02*
X23179066Y-75253790D01*
X23179066Y-75253790D02*
X23131447Y-75301409D01*
X23131447Y-75301409D02*
X23036209Y-75349028D01*
X23036209Y-75349028D02*
X22655257Y-75349028D01*
X23798114Y-75253790D02*
X23702876Y-75206171D01*
X23702876Y-75206171D02*
X23655257Y-75158552D01*
X23655257Y-75158552D02*
X23607638Y-75063314D01*
X23607638Y-75063314D02*
X23607638Y-75015695D01*
X23607638Y-75015695D02*
X23655257Y-74920457D01*
X23655257Y-74920457D02*
X23702876Y-74872838D01*
X23702876Y-74872838D02*
X23798114Y-74825219D01*
X23798114Y-74825219D02*
X23988590Y-74825219D01*
X23988590Y-74825219D02*
X24083828Y-74872838D01*
X24083828Y-74872838D02*
X24131447Y-74920457D01*
X24131447Y-74920457D02*
X24179066Y-75015695D01*
X24179066Y-75015695D02*
X24179066Y-75063314D01*
X24179066Y-75063314D02*
X24131447Y-75158552D01*
X24131447Y-75158552D02*
X24083828Y-75206171D01*
X24083828Y-75206171D02*
X23988590Y-75253790D01*
X23988590Y-75253790D02*
X23798114Y-75253790D01*
X23798114Y-75253790D02*
X23702876Y-75301409D01*
X23702876Y-75301409D02*
X23655257Y-75349028D01*
X23655257Y-75349028D02*
X23607638Y-75444266D01*
X23607638Y-75444266D02*
X23607638Y-75634742D01*
X23607638Y-75634742D02*
X23655257Y-75729980D01*
X23655257Y-75729980D02*
X23702876Y-75777600D01*
X23702876Y-75777600D02*
X23798114Y-75825219D01*
X23798114Y-75825219D02*
X23988590Y-75825219D01*
X23988590Y-75825219D02*
X24083828Y-75777600D01*
X24083828Y-75777600D02*
X24131447Y-75729980D01*
X24131447Y-75729980D02*
X24179066Y-75634742D01*
X24179066Y-75634742D02*
X24179066Y-75444266D01*
X24179066Y-75444266D02*
X24131447Y-75349028D01*
X24131447Y-75349028D02*
X24083828Y-75301409D01*
X24083828Y-75301409D02*
X23988590Y-75253790D01*
D11*
X53987700Y-34965598D02*
X54284034Y-34965598D01*
X54411034Y-35431265D02*
X53987700Y-35431265D01*
X53987700Y-35431265D02*
X53987700Y-34542265D01*
X53987700Y-34542265D02*
X54411034Y-34542265D01*
X54707367Y-34542265D02*
X55300033Y-35431265D01*
X55300033Y-34542265D02*
X54707367Y-35431265D01*
X55638700Y-35431265D02*
X55638700Y-34542265D01*
X55638700Y-34542265D02*
X55977367Y-34542265D01*
X55977367Y-34542265D02*
X56062034Y-34584598D01*
X56062034Y-34584598D02*
X56104367Y-34626932D01*
X56104367Y-34626932D02*
X56146700Y-34711598D01*
X56146700Y-34711598D02*
X56146700Y-34838598D01*
X56146700Y-34838598D02*
X56104367Y-34923265D01*
X56104367Y-34923265D02*
X56062034Y-34965598D01*
X56062034Y-34965598D02*
X55977367Y-35007932D01*
X55977367Y-35007932D02*
X55638700Y-35007932D01*
X56485367Y-35177265D02*
X56908700Y-35177265D01*
X56400700Y-35431265D02*
X56697034Y-34542265D01*
X56697034Y-34542265D02*
X56993367Y-35431265D01*
X57289700Y-35431265D02*
X57289700Y-34542265D01*
X57289700Y-34542265D02*
X57797700Y-35431265D01*
X57797700Y-35431265D02*
X57797700Y-34542265D01*
X58221033Y-35431265D02*
X58221033Y-34542265D01*
X58221033Y-34542265D02*
X58432700Y-34542265D01*
X58432700Y-34542265D02*
X58559700Y-34584598D01*
X58559700Y-34584598D02*
X58644367Y-34669265D01*
X58644367Y-34669265D02*
X58686700Y-34753932D01*
X58686700Y-34753932D02*
X58729033Y-34923265D01*
X58729033Y-34923265D02*
X58729033Y-35050265D01*
X58729033Y-35050265D02*
X58686700Y-35219598D01*
X58686700Y-35219598D02*
X58644367Y-35304265D01*
X58644367Y-35304265D02*
X58559700Y-35388932D01*
X58559700Y-35388932D02*
X58432700Y-35431265D01*
X58432700Y-35431265D02*
X58221033Y-35431265D01*
D15*
X54849733Y-27572619D02*
X54516400Y-27096428D01*
X54278305Y-27572619D02*
X54278305Y-26572619D01*
X54278305Y-26572619D02*
X54659257Y-26572619D01*
X54659257Y-26572619D02*
X54754495Y-26620238D01*
X54754495Y-26620238D02*
X54802114Y-26667857D01*
X54802114Y-26667857D02*
X54849733Y-26763095D01*
X54849733Y-26763095D02*
X54849733Y-26905952D01*
X54849733Y-26905952D02*
X54802114Y-27001190D01*
X54802114Y-27001190D02*
X54754495Y-27048809D01*
X54754495Y-27048809D02*
X54659257Y-27096428D01*
X54659257Y-27096428D02*
X54278305Y-27096428D01*
X55754495Y-26572619D02*
X55278305Y-26572619D01*
X55278305Y-26572619D02*
X55230686Y-27048809D01*
X55230686Y-27048809D02*
X55278305Y-27001190D01*
X55278305Y-27001190D02*
X55373543Y-26953571D01*
X55373543Y-26953571D02*
X55611638Y-26953571D01*
X55611638Y-26953571D02*
X55706876Y-27001190D01*
X55706876Y-27001190D02*
X55754495Y-27048809D01*
X55754495Y-27048809D02*
X55802114Y-27144047D01*
X55802114Y-27144047D02*
X55802114Y-27382142D01*
X55802114Y-27382142D02*
X55754495Y-27477380D01*
X55754495Y-27477380D02*
X55706876Y-27525000D01*
X55706876Y-27525000D02*
X55611638Y-27572619D01*
X55611638Y-27572619D02*
X55373543Y-27572619D01*
X55373543Y-27572619D02*
X55278305Y-27525000D01*
X55278305Y-27525000D02*
X55230686Y-27477380D01*
D11*
X54563433Y-32627865D02*
X54055433Y-32627865D01*
X54309433Y-32627865D02*
X54309433Y-31738865D01*
X54309433Y-31738865D02*
X54224766Y-31865865D01*
X54224766Y-31865865D02*
X54140100Y-31950532D01*
X54140100Y-31950532D02*
X54055433Y-31992865D01*
X54944433Y-32627865D02*
X54944433Y-31738865D01*
X55029100Y-32289198D02*
X55283100Y-32627865D01*
X55283100Y-32035198D02*
X54944433Y-32373865D01*
X55791100Y-32119865D02*
X55706434Y-32077532D01*
X55706434Y-32077532D02*
X55664100Y-32035198D01*
X55664100Y-32035198D02*
X55621767Y-31950532D01*
X55621767Y-31950532D02*
X55621767Y-31908198D01*
X55621767Y-31908198D02*
X55664100Y-31823532D01*
X55664100Y-31823532D02*
X55706434Y-31781198D01*
X55706434Y-31781198D02*
X55791100Y-31738865D01*
X55791100Y-31738865D02*
X55960434Y-31738865D01*
X55960434Y-31738865D02*
X56045100Y-31781198D01*
X56045100Y-31781198D02*
X56087434Y-31823532D01*
X56087434Y-31823532D02*
X56129767Y-31908198D01*
X56129767Y-31908198D02*
X56129767Y-31950532D01*
X56129767Y-31950532D02*
X56087434Y-32035198D01*
X56087434Y-32035198D02*
X56045100Y-32077532D01*
X56045100Y-32077532D02*
X55960434Y-32119865D01*
X55960434Y-32119865D02*
X55791100Y-32119865D01*
X55791100Y-32119865D02*
X55706434Y-32162198D01*
X55706434Y-32162198D02*
X55664100Y-32204532D01*
X55664100Y-32204532D02*
X55621767Y-32289198D01*
X55621767Y-32289198D02*
X55621767Y-32458532D01*
X55621767Y-32458532D02*
X55664100Y-32543198D01*
X55664100Y-32543198D02*
X55706434Y-32585532D01*
X55706434Y-32585532D02*
X55791100Y-32627865D01*
X55791100Y-32627865D02*
X55960434Y-32627865D01*
X55960434Y-32627865D02*
X56045100Y-32585532D01*
X56045100Y-32585532D02*
X56087434Y-32543198D01*
X56087434Y-32543198D02*
X56129767Y-32458532D01*
X56129767Y-32458532D02*
X56129767Y-32289198D01*
X56129767Y-32289198D02*
X56087434Y-32204532D01*
X56087434Y-32204532D02*
X56045100Y-32162198D01*
X56045100Y-32162198D02*
X55960434Y-32119865D01*
D15*
X26960533Y-20592495D02*
X26912914Y-20640115D01*
X26912914Y-20640115D02*
X26770057Y-20687734D01*
X26770057Y-20687734D02*
X26674819Y-20687734D01*
X26674819Y-20687734D02*
X26531962Y-20640115D01*
X26531962Y-20640115D02*
X26436724Y-20544876D01*
X26436724Y-20544876D02*
X26389105Y-20449638D01*
X26389105Y-20449638D02*
X26341486Y-20259162D01*
X26341486Y-20259162D02*
X26341486Y-20116305D01*
X26341486Y-20116305D02*
X26389105Y-19925829D01*
X26389105Y-19925829D02*
X26436724Y-19830591D01*
X26436724Y-19830591D02*
X26531962Y-19735353D01*
X26531962Y-19735353D02*
X26674819Y-19687734D01*
X26674819Y-19687734D02*
X26770057Y-19687734D01*
X26770057Y-19687734D02*
X26912914Y-19735353D01*
X26912914Y-19735353D02*
X26960533Y-19782972D01*
X27531962Y-20116305D02*
X27436724Y-20068686D01*
X27436724Y-20068686D02*
X27389105Y-20021067D01*
X27389105Y-20021067D02*
X27341486Y-19925829D01*
X27341486Y-19925829D02*
X27341486Y-19878210D01*
X27341486Y-19878210D02*
X27389105Y-19782972D01*
X27389105Y-19782972D02*
X27436724Y-19735353D01*
X27436724Y-19735353D02*
X27531962Y-19687734D01*
X27531962Y-19687734D02*
X27722438Y-19687734D01*
X27722438Y-19687734D02*
X27817676Y-19735353D01*
X27817676Y-19735353D02*
X27865295Y-19782972D01*
X27865295Y-19782972D02*
X27912914Y-19878210D01*
X27912914Y-19878210D02*
X27912914Y-19925829D01*
X27912914Y-19925829D02*
X27865295Y-20021067D01*
X27865295Y-20021067D02*
X27817676Y-20068686D01*
X27817676Y-20068686D02*
X27722438Y-20116305D01*
X27722438Y-20116305D02*
X27531962Y-20116305D01*
X27531962Y-20116305D02*
X27436724Y-20163924D01*
X27436724Y-20163924D02*
X27389105Y-20211543D01*
X27389105Y-20211543D02*
X27341486Y-20306781D01*
X27341486Y-20306781D02*
X27341486Y-20497257D01*
X27341486Y-20497257D02*
X27389105Y-20592495D01*
X27389105Y-20592495D02*
X27436724Y-20640115D01*
X27436724Y-20640115D02*
X27531962Y-20687734D01*
X27531962Y-20687734D02*
X27722438Y-20687734D01*
X27722438Y-20687734D02*
X27817676Y-20640115D01*
X27817676Y-20640115D02*
X27865295Y-20592495D01*
X27865295Y-20592495D02*
X27912914Y-20497257D01*
X27912914Y-20497257D02*
X27912914Y-20306781D01*
X27912914Y-20306781D02*
X27865295Y-20211543D01*
X27865295Y-20211543D02*
X27817676Y-20163924D01*
X27817676Y-20163924D02*
X27722438Y-20116305D01*
X16876733Y-36548219D02*
X16543400Y-36072028D01*
X16305305Y-36548219D02*
X16305305Y-35548219D01*
X16305305Y-35548219D02*
X16686257Y-35548219D01*
X16686257Y-35548219D02*
X16781495Y-35595838D01*
X16781495Y-35595838D02*
X16829114Y-35643457D01*
X16829114Y-35643457D02*
X16876733Y-35738695D01*
X16876733Y-35738695D02*
X16876733Y-35881552D01*
X16876733Y-35881552D02*
X16829114Y-35976790D01*
X16829114Y-35976790D02*
X16781495Y-36024409D01*
X16781495Y-36024409D02*
X16686257Y-36072028D01*
X16686257Y-36072028D02*
X16305305Y-36072028D01*
X17352924Y-36548219D02*
X17543400Y-36548219D01*
X17543400Y-36548219D02*
X17638638Y-36500600D01*
X17638638Y-36500600D02*
X17686257Y-36452980D01*
X17686257Y-36452980D02*
X17781495Y-36310123D01*
X17781495Y-36310123D02*
X17829114Y-36119647D01*
X17829114Y-36119647D02*
X17829114Y-35738695D01*
X17829114Y-35738695D02*
X17781495Y-35643457D01*
X17781495Y-35643457D02*
X17733876Y-35595838D01*
X17733876Y-35595838D02*
X17638638Y-35548219D01*
X17638638Y-35548219D02*
X17448162Y-35548219D01*
X17448162Y-35548219D02*
X17352924Y-35595838D01*
X17352924Y-35595838D02*
X17305305Y-35643457D01*
X17305305Y-35643457D02*
X17257686Y-35738695D01*
X17257686Y-35738695D02*
X17257686Y-35976790D01*
X17257686Y-35976790D02*
X17305305Y-36072028D01*
X17305305Y-36072028D02*
X17352924Y-36119647D01*
X17352924Y-36119647D02*
X17448162Y-36167266D01*
X17448162Y-36167266D02*
X17638638Y-36167266D01*
X17638638Y-36167266D02*
X17733876Y-36119647D01*
X17733876Y-36119647D02*
X17781495Y-36072028D01*
X17781495Y-36072028D02*
X17829114Y-35976790D01*
X21725095Y-19681819D02*
X22296523Y-19681819D01*
X22010809Y-20681819D02*
X22010809Y-19681819D01*
X22629857Y-20681819D02*
X22629857Y-19681819D01*
X22629857Y-19681819D02*
X23010809Y-19681819D01*
X23010809Y-19681819D02*
X23106047Y-19729438D01*
X23106047Y-19729438D02*
X23153666Y-19777057D01*
X23153666Y-19777057D02*
X23201285Y-19872295D01*
X23201285Y-19872295D02*
X23201285Y-20015152D01*
X23201285Y-20015152D02*
X23153666Y-20110390D01*
X23153666Y-20110390D02*
X23106047Y-20158009D01*
X23106047Y-20158009D02*
X23010809Y-20205628D01*
X23010809Y-20205628D02*
X22629857Y-20205628D01*
X23582238Y-19777057D02*
X23629857Y-19729438D01*
X23629857Y-19729438D02*
X23725095Y-19681819D01*
X23725095Y-19681819D02*
X23963190Y-19681819D01*
X23963190Y-19681819D02*
X24058428Y-19729438D01*
X24058428Y-19729438D02*
X24106047Y-19777057D01*
X24106047Y-19777057D02*
X24153666Y-19872295D01*
X24153666Y-19872295D02*
X24153666Y-19967533D01*
X24153666Y-19967533D02*
X24106047Y-20110390D01*
X24106047Y-20110390D02*
X23534619Y-20681819D01*
X23534619Y-20681819D02*
X24153666Y-20681819D01*
X48880733Y-27521819D02*
X48547400Y-27045628D01*
X48309305Y-27521819D02*
X48309305Y-26521819D01*
X48309305Y-26521819D02*
X48690257Y-26521819D01*
X48690257Y-26521819D02*
X48785495Y-26569438D01*
X48785495Y-26569438D02*
X48833114Y-26617057D01*
X48833114Y-26617057D02*
X48880733Y-26712295D01*
X48880733Y-26712295D02*
X48880733Y-26855152D01*
X48880733Y-26855152D02*
X48833114Y-26950390D01*
X48833114Y-26950390D02*
X48785495Y-26998009D01*
X48785495Y-26998009D02*
X48690257Y-27045628D01*
X48690257Y-27045628D02*
X48309305Y-27045628D01*
X49737876Y-26521819D02*
X49547400Y-26521819D01*
X49547400Y-26521819D02*
X49452162Y-26569438D01*
X49452162Y-26569438D02*
X49404543Y-26617057D01*
X49404543Y-26617057D02*
X49309305Y-26759914D01*
X49309305Y-26759914D02*
X49261686Y-26950390D01*
X49261686Y-26950390D02*
X49261686Y-27331342D01*
X49261686Y-27331342D02*
X49309305Y-27426580D01*
X49309305Y-27426580D02*
X49356924Y-27474200D01*
X49356924Y-27474200D02*
X49452162Y-27521819D01*
X49452162Y-27521819D02*
X49642638Y-27521819D01*
X49642638Y-27521819D02*
X49737876Y-27474200D01*
X49737876Y-27474200D02*
X49785495Y-27426580D01*
X49785495Y-27426580D02*
X49833114Y-27331342D01*
X49833114Y-27331342D02*
X49833114Y-27093247D01*
X49833114Y-27093247D02*
X49785495Y-26998009D01*
X49785495Y-26998009D02*
X49737876Y-26950390D01*
X49737876Y-26950390D02*
X49642638Y-26902771D01*
X49642638Y-26902771D02*
X49452162Y-26902771D01*
X49452162Y-26902771D02*
X49356924Y-26950390D01*
X49356924Y-26950390D02*
X49309305Y-26998009D01*
X49309305Y-26998009D02*
X49261686Y-27093247D01*
D11*
X48044100Y-31789665D02*
X48594433Y-31789665D01*
X48594433Y-31789665D02*
X48298100Y-32128332D01*
X48298100Y-32128332D02*
X48425100Y-32128332D01*
X48425100Y-32128332D02*
X48509766Y-32170665D01*
X48509766Y-32170665D02*
X48552100Y-32212998D01*
X48552100Y-32212998D02*
X48594433Y-32297665D01*
X48594433Y-32297665D02*
X48594433Y-32509332D01*
X48594433Y-32509332D02*
X48552100Y-32593998D01*
X48552100Y-32593998D02*
X48509766Y-32636332D01*
X48509766Y-32636332D02*
X48425100Y-32678665D01*
X48425100Y-32678665D02*
X48171100Y-32678665D01*
X48171100Y-32678665D02*
X48086433Y-32636332D01*
X48086433Y-32636332D02*
X48044100Y-32593998D01*
X48890767Y-31789665D02*
X49441100Y-31789665D01*
X49441100Y-31789665D02*
X49144767Y-32128332D01*
X49144767Y-32128332D02*
X49271767Y-32128332D01*
X49271767Y-32128332D02*
X49356433Y-32170665D01*
X49356433Y-32170665D02*
X49398767Y-32212998D01*
X49398767Y-32212998D02*
X49441100Y-32297665D01*
X49441100Y-32297665D02*
X49441100Y-32509332D01*
X49441100Y-32509332D02*
X49398767Y-32593998D01*
X49398767Y-32593998D02*
X49356433Y-32636332D01*
X49356433Y-32636332D02*
X49271767Y-32678665D01*
X49271767Y-32678665D02*
X49017767Y-32678665D01*
X49017767Y-32678665D02*
X48933100Y-32636332D01*
X48933100Y-32636332D02*
X48890767Y-32593998D01*
X49822100Y-32678665D02*
X49822100Y-31789665D01*
X49906767Y-32339998D02*
X50160767Y-32678665D01*
X50160767Y-32085998D02*
X49822100Y-32424665D01*
D15*
X21725095Y-55749819D02*
X22296523Y-55749819D01*
X22010809Y-56749819D02*
X22010809Y-55749819D01*
X22629857Y-56749819D02*
X22629857Y-55749819D01*
X22629857Y-55749819D02*
X23010809Y-55749819D01*
X23010809Y-55749819D02*
X23106047Y-55797438D01*
X23106047Y-55797438D02*
X23153666Y-55845057D01*
X23153666Y-55845057D02*
X23201285Y-55940295D01*
X23201285Y-55940295D02*
X23201285Y-56083152D01*
X23201285Y-56083152D02*
X23153666Y-56178390D01*
X23153666Y-56178390D02*
X23106047Y-56226009D01*
X23106047Y-56226009D02*
X23010809Y-56273628D01*
X23010809Y-56273628D02*
X22629857Y-56273628D01*
X24058428Y-55749819D02*
X23867952Y-55749819D01*
X23867952Y-55749819D02*
X23772714Y-55797438D01*
X23772714Y-55797438D02*
X23725095Y-55845057D01*
X23725095Y-55845057D02*
X23629857Y-55987914D01*
X23629857Y-55987914D02*
X23582238Y-56178390D01*
X23582238Y-56178390D02*
X23582238Y-56559342D01*
X23582238Y-56559342D02*
X23629857Y-56654580D01*
X23629857Y-56654580D02*
X23677476Y-56702200D01*
X23677476Y-56702200D02*
X23772714Y-56749819D01*
X23772714Y-56749819D02*
X23963190Y-56749819D01*
X23963190Y-56749819D02*
X24058428Y-56702200D01*
X24058428Y-56702200D02*
X24106047Y-56654580D01*
X24106047Y-56654580D02*
X24153666Y-56559342D01*
X24153666Y-56559342D02*
X24153666Y-56321247D01*
X24153666Y-56321247D02*
X24106047Y-56226009D01*
X24106047Y-56226009D02*
X24058428Y-56178390D01*
X24058428Y-56178390D02*
X23963190Y-56130771D01*
X23963190Y-56130771D02*
X23772714Y-56130771D01*
X23772714Y-56130771D02*
X23677476Y-56178390D01*
X23677476Y-56178390D02*
X23629857Y-56226009D01*
X23629857Y-56226009D02*
X23582238Y-56321247D01*
X16902133Y-59713019D02*
X16568800Y-59236828D01*
X16330705Y-59713019D02*
X16330705Y-58713019D01*
X16330705Y-58713019D02*
X16711657Y-58713019D01*
X16711657Y-58713019D02*
X16806895Y-58760638D01*
X16806895Y-58760638D02*
X16854514Y-58808257D01*
X16854514Y-58808257D02*
X16902133Y-58903495D01*
X16902133Y-58903495D02*
X16902133Y-59046352D01*
X16902133Y-59046352D02*
X16854514Y-59141590D01*
X16854514Y-59141590D02*
X16806895Y-59189209D01*
X16806895Y-59189209D02*
X16711657Y-59236828D01*
X16711657Y-59236828D02*
X16330705Y-59236828D01*
X17235467Y-58713019D02*
X17854514Y-58713019D01*
X17854514Y-58713019D02*
X17521181Y-59093971D01*
X17521181Y-59093971D02*
X17664038Y-59093971D01*
X17664038Y-59093971D02*
X17759276Y-59141590D01*
X17759276Y-59141590D02*
X17806895Y-59189209D01*
X17806895Y-59189209D02*
X17854514Y-59284447D01*
X17854514Y-59284447D02*
X17854514Y-59522542D01*
X17854514Y-59522542D02*
X17806895Y-59617780D01*
X17806895Y-59617780D02*
X17759276Y-59665400D01*
X17759276Y-59665400D02*
X17664038Y-59713019D01*
X17664038Y-59713019D02*
X17378324Y-59713019D01*
X17378324Y-59713019D02*
X17283086Y-59665400D01*
X17283086Y-59665400D02*
X17235467Y-59617780D01*
X21750495Y-28724219D02*
X22321923Y-28724219D01*
X22036209Y-29724219D02*
X22036209Y-28724219D01*
X22655257Y-29724219D02*
X22655257Y-28724219D01*
X22655257Y-28724219D02*
X23036209Y-28724219D01*
X23036209Y-28724219D02*
X23131447Y-28771838D01*
X23131447Y-28771838D02*
X23179066Y-28819457D01*
X23179066Y-28819457D02*
X23226685Y-28914695D01*
X23226685Y-28914695D02*
X23226685Y-29057552D01*
X23226685Y-29057552D02*
X23179066Y-29152790D01*
X23179066Y-29152790D02*
X23131447Y-29200409D01*
X23131447Y-29200409D02*
X23036209Y-29248028D01*
X23036209Y-29248028D02*
X22655257Y-29248028D01*
X23560019Y-28724219D02*
X24179066Y-28724219D01*
X24179066Y-28724219D02*
X23845733Y-29105171D01*
X23845733Y-29105171D02*
X23988590Y-29105171D01*
X23988590Y-29105171D02*
X24083828Y-29152790D01*
X24083828Y-29152790D02*
X24131447Y-29200409D01*
X24131447Y-29200409D02*
X24179066Y-29295647D01*
X24179066Y-29295647D02*
X24179066Y-29533742D01*
X24179066Y-29533742D02*
X24131447Y-29628980D01*
X24131447Y-29628980D02*
X24083828Y-29676600D01*
X24083828Y-29676600D02*
X23988590Y-29724219D01*
X23988590Y-29724219D02*
X23702876Y-29724219D01*
X23702876Y-29724219D02*
X23607638Y-29676600D01*
X23607638Y-29676600D02*
X23560019Y-29628980D01*
X26535142Y-56950780D02*
X26487523Y-56998400D01*
X26487523Y-56998400D02*
X26344666Y-57046019D01*
X26344666Y-57046019D02*
X26249428Y-57046019D01*
X26249428Y-57046019D02*
X26106571Y-56998400D01*
X26106571Y-56998400D02*
X26011333Y-56903161D01*
X26011333Y-56903161D02*
X25963714Y-56807923D01*
X25963714Y-56807923D02*
X25916095Y-56617447D01*
X25916095Y-56617447D02*
X25916095Y-56474590D01*
X25916095Y-56474590D02*
X25963714Y-56284114D01*
X25963714Y-56284114D02*
X26011333Y-56188876D01*
X26011333Y-56188876D02*
X26106571Y-56093638D01*
X26106571Y-56093638D02*
X26249428Y-56046019D01*
X26249428Y-56046019D02*
X26344666Y-56046019D01*
X26344666Y-56046019D02*
X26487523Y-56093638D01*
X26487523Y-56093638D02*
X26535142Y-56141257D01*
X27487523Y-57046019D02*
X26916095Y-57046019D01*
X27201809Y-57046019D02*
X27201809Y-56046019D01*
X27201809Y-56046019D02*
X27106571Y-56188876D01*
X27106571Y-56188876D02*
X27011333Y-56284114D01*
X27011333Y-56284114D02*
X26916095Y-56331733D01*
X28106571Y-56046019D02*
X28201809Y-56046019D01*
X28201809Y-56046019D02*
X28297047Y-56093638D01*
X28297047Y-56093638D02*
X28344666Y-56141257D01*
X28344666Y-56141257D02*
X28392285Y-56236495D01*
X28392285Y-56236495D02*
X28439904Y-56426971D01*
X28439904Y-56426971D02*
X28439904Y-56665066D01*
X28439904Y-56665066D02*
X28392285Y-56855542D01*
X28392285Y-56855542D02*
X28344666Y-56950780D01*
X28344666Y-56950780D02*
X28297047Y-56998400D01*
X28297047Y-56998400D02*
X28201809Y-57046019D01*
X28201809Y-57046019D02*
X28106571Y-57046019D01*
X28106571Y-57046019D02*
X28011333Y-56998400D01*
X28011333Y-56998400D02*
X27963714Y-56950780D01*
X27963714Y-56950780D02*
X27916095Y-56855542D01*
X27916095Y-56855542D02*
X27868476Y-56665066D01*
X27868476Y-56665066D02*
X27868476Y-56426971D01*
X27868476Y-56426971D02*
X27916095Y-56236495D01*
X27916095Y-56236495D02*
X27963714Y-56141257D01*
X27963714Y-56141257D02*
X28011333Y-56093638D01*
X28011333Y-56093638D02*
X28106571Y-56046019D01*
D11*
X46909566Y-81252865D02*
X46909566Y-80363865D01*
X47290566Y-80448532D02*
X47332899Y-80406198D01*
X47332899Y-80406198D02*
X47417566Y-80363865D01*
X47417566Y-80363865D02*
X47629233Y-80363865D01*
X47629233Y-80363865D02*
X47713899Y-80406198D01*
X47713899Y-80406198D02*
X47756233Y-80448532D01*
X47756233Y-80448532D02*
X47798566Y-80533198D01*
X47798566Y-80533198D02*
X47798566Y-80617865D01*
X47798566Y-80617865D02*
X47756233Y-80744865D01*
X47756233Y-80744865D02*
X47248233Y-81252865D01*
X47248233Y-81252865D02*
X47798566Y-81252865D01*
X48687566Y-81168198D02*
X48645233Y-81210532D01*
X48645233Y-81210532D02*
X48518233Y-81252865D01*
X48518233Y-81252865D02*
X48433566Y-81252865D01*
X48433566Y-81252865D02*
X48306566Y-81210532D01*
X48306566Y-81210532D02*
X48221900Y-81125865D01*
X48221900Y-81125865D02*
X48179566Y-81041198D01*
X48179566Y-81041198D02*
X48137233Y-80871865D01*
X48137233Y-80871865D02*
X48137233Y-80744865D01*
X48137233Y-80744865D02*
X48179566Y-80575532D01*
X48179566Y-80575532D02*
X48221900Y-80490865D01*
X48221900Y-80490865D02*
X48306566Y-80406198D01*
X48306566Y-80406198D02*
X48433566Y-80363865D01*
X48433566Y-80363865D02*
X48518233Y-80363865D01*
X48518233Y-80363865D02*
X48645233Y-80406198D01*
X48645233Y-80406198D02*
X48687566Y-80448532D01*
X50211566Y-81252865D02*
X49703566Y-81252865D01*
X49957566Y-81252865D02*
X49957566Y-80363865D01*
X49957566Y-80363865D02*
X49872899Y-80490865D01*
X49872899Y-80490865D02*
X49788233Y-80575532D01*
X49788233Y-80575532D02*
X49703566Y-80617865D01*
D10*
X53237190Y-19807495D02*
X53237190Y-18791495D01*
X54301572Y-19710734D02*
X54253191Y-19759115D01*
X54253191Y-19759115D02*
X54108048Y-19807495D01*
X54108048Y-19807495D02*
X54011286Y-19807495D01*
X54011286Y-19807495D02*
X53866143Y-19759115D01*
X53866143Y-19759115D02*
X53769381Y-19662353D01*
X53769381Y-19662353D02*
X53721000Y-19565591D01*
X53721000Y-19565591D02*
X53672619Y-19372067D01*
X53672619Y-19372067D02*
X53672619Y-19226924D01*
X53672619Y-19226924D02*
X53721000Y-19033400D01*
X53721000Y-19033400D02*
X53769381Y-18936638D01*
X53769381Y-18936638D02*
X53866143Y-18839876D01*
X53866143Y-18839876D02*
X54011286Y-18791495D01*
X54011286Y-18791495D02*
X54108048Y-18791495D01*
X54108048Y-18791495D02*
X54253191Y-18839876D01*
X54253191Y-18839876D02*
X54301572Y-18888257D01*
X55269191Y-19807495D02*
X54688619Y-19807495D01*
X54978905Y-19807495D02*
X54978905Y-18791495D01*
X54978905Y-18791495D02*
X54882143Y-18936638D01*
X54882143Y-18936638D02*
X54785381Y-19033400D01*
X54785381Y-19033400D02*
X54688619Y-19081781D01*
D11*
X50664533Y-17879865D02*
X50241199Y-17879865D01*
X50241199Y-17879865D02*
X50241199Y-16990865D01*
X50960866Y-17879865D02*
X50960866Y-16990865D01*
X50960866Y-16990865D02*
X51257200Y-17625865D01*
X51257200Y-17625865D02*
X51553533Y-16990865D01*
X51553533Y-16990865D02*
X51553533Y-17879865D01*
X52357866Y-17287198D02*
X52357866Y-17879865D01*
X52146200Y-16948532D02*
X51934533Y-17583532D01*
X51934533Y-17583532D02*
X52484866Y-17583532D01*
X52992867Y-16990865D02*
X53077533Y-16990865D01*
X53077533Y-16990865D02*
X53162200Y-17033198D01*
X53162200Y-17033198D02*
X53204533Y-17075532D01*
X53204533Y-17075532D02*
X53246867Y-17160198D01*
X53246867Y-17160198D02*
X53289200Y-17329532D01*
X53289200Y-17329532D02*
X53289200Y-17541198D01*
X53289200Y-17541198D02*
X53246867Y-17710532D01*
X53246867Y-17710532D02*
X53204533Y-17795198D01*
X53204533Y-17795198D02*
X53162200Y-17837532D01*
X53162200Y-17837532D02*
X53077533Y-17879865D01*
X53077533Y-17879865D02*
X52992867Y-17879865D01*
X52992867Y-17879865D02*
X52908200Y-17837532D01*
X52908200Y-17837532D02*
X52865867Y-17795198D01*
X52865867Y-17795198D02*
X52823533Y-17710532D01*
X52823533Y-17710532D02*
X52781200Y-17541198D01*
X52781200Y-17541198D02*
X52781200Y-17329532D01*
X52781200Y-17329532D02*
X52823533Y-17160198D01*
X52823533Y-17160198D02*
X52865867Y-17075532D01*
X52865867Y-17075532D02*
X52908200Y-17033198D01*
X52908200Y-17033198D02*
X52992867Y-16990865D01*
X54051200Y-17287198D02*
X54051200Y-17879865D01*
X53839534Y-16948532D02*
X53627867Y-17583532D01*
X53627867Y-17583532D02*
X54178200Y-17583532D01*
X54982534Y-17879865D02*
X54474534Y-17879865D01*
X54728534Y-17879865D02*
X54728534Y-16990865D01*
X54728534Y-16990865D02*
X54643867Y-17117865D01*
X54643867Y-17117865D02*
X54559201Y-17202532D01*
X54559201Y-17202532D02*
X54474534Y-17244865D01*
X55363534Y-17541198D02*
X56040868Y-17541198D01*
X56421868Y-17625865D02*
X56845201Y-17625865D01*
X56337201Y-17879865D02*
X56633535Y-16990865D01*
X56633535Y-16990865D02*
X56929868Y-17879865D01*
X57226201Y-17879865D02*
X57226201Y-16990865D01*
X57226201Y-16990865D02*
X57437868Y-16990865D01*
X57437868Y-16990865D02*
X57564868Y-17033198D01*
X57564868Y-17033198D02*
X57649535Y-17117865D01*
X57649535Y-17117865D02*
X57691868Y-17202532D01*
X57691868Y-17202532D02*
X57734201Y-17371865D01*
X57734201Y-17371865D02*
X57734201Y-17498865D01*
X57734201Y-17498865D02*
X57691868Y-17668198D01*
X57691868Y-17668198D02*
X57649535Y-17752865D01*
X57649535Y-17752865D02*
X57564868Y-17837532D01*
X57564868Y-17837532D02*
X57437868Y-17879865D01*
X57437868Y-17879865D02*
X57226201Y-17879865D01*
X58369201Y-16990865D02*
X58369201Y-17625865D01*
X58369201Y-17625865D02*
X58326868Y-17752865D01*
X58326868Y-17752865D02*
X58242201Y-17837532D01*
X58242201Y-17837532D02*
X58115201Y-17879865D01*
X58115201Y-17879865D02*
X58030535Y-17879865D01*
D15*
X26960533Y-11967380D02*
X26912914Y-12015000D01*
X26912914Y-12015000D02*
X26770057Y-12062619D01*
X26770057Y-12062619D02*
X26674819Y-12062619D01*
X26674819Y-12062619D02*
X26531962Y-12015000D01*
X26531962Y-12015000D02*
X26436724Y-11919761D01*
X26436724Y-11919761D02*
X26389105Y-11824523D01*
X26389105Y-11824523D02*
X26341486Y-11634047D01*
X26341486Y-11634047D02*
X26341486Y-11491190D01*
X26341486Y-11491190D02*
X26389105Y-11300714D01*
X26389105Y-11300714D02*
X26436724Y-11205476D01*
X26436724Y-11205476D02*
X26531962Y-11110238D01*
X26531962Y-11110238D02*
X26674819Y-11062619D01*
X26674819Y-11062619D02*
X26770057Y-11062619D01*
X26770057Y-11062619D02*
X26912914Y-11110238D01*
X26912914Y-11110238D02*
X26960533Y-11157857D01*
X27341486Y-11157857D02*
X27389105Y-11110238D01*
X27389105Y-11110238D02*
X27484343Y-11062619D01*
X27484343Y-11062619D02*
X27722438Y-11062619D01*
X27722438Y-11062619D02*
X27817676Y-11110238D01*
X27817676Y-11110238D02*
X27865295Y-11157857D01*
X27865295Y-11157857D02*
X27912914Y-11253095D01*
X27912914Y-11253095D02*
X27912914Y-11348333D01*
X27912914Y-11348333D02*
X27865295Y-11491190D01*
X27865295Y-11491190D02*
X27293867Y-12062619D01*
X27293867Y-12062619D02*
X27912914Y-12062619D01*
D11*
X26208566Y-17473465D02*
X25700566Y-17473465D01*
X25954566Y-17473465D02*
X25954566Y-16584465D01*
X25954566Y-16584465D02*
X25869899Y-16711465D01*
X25869899Y-16711465D02*
X25785233Y-16796132D01*
X25785233Y-16796132D02*
X25700566Y-16838465D01*
X26758900Y-16584465D02*
X26843566Y-16584465D01*
X26843566Y-16584465D02*
X26928233Y-16626798D01*
X26928233Y-16626798D02*
X26970566Y-16669132D01*
X26970566Y-16669132D02*
X27012900Y-16753798D01*
X27012900Y-16753798D02*
X27055233Y-16923132D01*
X27055233Y-16923132D02*
X27055233Y-17134798D01*
X27055233Y-17134798D02*
X27012900Y-17304132D01*
X27012900Y-17304132D02*
X26970566Y-17388798D01*
X26970566Y-17388798D02*
X26928233Y-17431132D01*
X26928233Y-17431132D02*
X26843566Y-17473465D01*
X26843566Y-17473465D02*
X26758900Y-17473465D01*
X26758900Y-17473465D02*
X26674233Y-17431132D01*
X26674233Y-17431132D02*
X26631900Y-17388798D01*
X26631900Y-17388798D02*
X26589566Y-17304132D01*
X26589566Y-17304132D02*
X26547233Y-17134798D01*
X26547233Y-17134798D02*
X26547233Y-16923132D01*
X26547233Y-16923132D02*
X26589566Y-16753798D01*
X26589566Y-16753798D02*
X26631900Y-16669132D01*
X26631900Y-16669132D02*
X26674233Y-16626798D01*
X26674233Y-16626798D02*
X26758900Y-16584465D01*
X27605567Y-16584465D02*
X27690233Y-16584465D01*
X27690233Y-16584465D02*
X27774900Y-16626798D01*
X27774900Y-16626798D02*
X27817233Y-16669132D01*
X27817233Y-16669132D02*
X27859567Y-16753798D01*
X27859567Y-16753798D02*
X27901900Y-16923132D01*
X27901900Y-16923132D02*
X27901900Y-17134798D01*
X27901900Y-17134798D02*
X27859567Y-17304132D01*
X27859567Y-17304132D02*
X27817233Y-17388798D01*
X27817233Y-17388798D02*
X27774900Y-17431132D01*
X27774900Y-17431132D02*
X27690233Y-17473465D01*
X27690233Y-17473465D02*
X27605567Y-17473465D01*
X27605567Y-17473465D02*
X27520900Y-17431132D01*
X27520900Y-17431132D02*
X27478567Y-17388798D01*
X27478567Y-17388798D02*
X27436233Y-17304132D01*
X27436233Y-17304132D02*
X27393900Y-17134798D01*
X27393900Y-17134798D02*
X27393900Y-16923132D01*
X27393900Y-16923132D02*
X27436233Y-16753798D01*
X27436233Y-16753798D02*
X27478567Y-16669132D01*
X27478567Y-16669132D02*
X27520900Y-16626798D01*
X27520900Y-16626798D02*
X27605567Y-16584465D01*
X28282900Y-16880798D02*
X28282900Y-17473465D01*
X28282900Y-16965465D02*
X28325234Y-16923132D01*
X28325234Y-16923132D02*
X28409900Y-16880798D01*
X28409900Y-16880798D02*
X28536900Y-16880798D01*
X28536900Y-16880798D02*
X28621567Y-16923132D01*
X28621567Y-16923132D02*
X28663900Y-17007798D01*
X28663900Y-17007798D02*
X28663900Y-17473465D01*
D15*
X26960533Y-38764380D02*
X26912914Y-38812000D01*
X26912914Y-38812000D02*
X26770057Y-38859619D01*
X26770057Y-38859619D02*
X26674819Y-38859619D01*
X26674819Y-38859619D02*
X26531962Y-38812000D01*
X26531962Y-38812000D02*
X26436724Y-38716761D01*
X26436724Y-38716761D02*
X26389105Y-38621523D01*
X26389105Y-38621523D02*
X26341486Y-38431047D01*
X26341486Y-38431047D02*
X26341486Y-38288190D01*
X26341486Y-38288190D02*
X26389105Y-38097714D01*
X26389105Y-38097714D02*
X26436724Y-38002476D01*
X26436724Y-38002476D02*
X26531962Y-37907238D01*
X26531962Y-37907238D02*
X26674819Y-37859619D01*
X26674819Y-37859619D02*
X26770057Y-37859619D01*
X26770057Y-37859619D02*
X26912914Y-37907238D01*
X26912914Y-37907238D02*
X26960533Y-37954857D01*
X27436724Y-38859619D02*
X27627200Y-38859619D01*
X27627200Y-38859619D02*
X27722438Y-38812000D01*
X27722438Y-38812000D02*
X27770057Y-38764380D01*
X27770057Y-38764380D02*
X27865295Y-38621523D01*
X27865295Y-38621523D02*
X27912914Y-38431047D01*
X27912914Y-38431047D02*
X27912914Y-38050095D01*
X27912914Y-38050095D02*
X27865295Y-37954857D01*
X27865295Y-37954857D02*
X27817676Y-37907238D01*
X27817676Y-37907238D02*
X27722438Y-37859619D01*
X27722438Y-37859619D02*
X27531962Y-37859619D01*
X27531962Y-37859619D02*
X27436724Y-37907238D01*
X27436724Y-37907238D02*
X27389105Y-37954857D01*
X27389105Y-37954857D02*
X27341486Y-38050095D01*
X27341486Y-38050095D02*
X27341486Y-38288190D01*
X27341486Y-38288190D02*
X27389105Y-38383428D01*
X27389105Y-38383428D02*
X27436724Y-38431047D01*
X27436724Y-38431047D02*
X27531962Y-38478666D01*
X27531962Y-38478666D02*
X27722438Y-38478666D01*
X27722438Y-38478666D02*
X27817676Y-38431047D01*
X27817676Y-38431047D02*
X27865295Y-38383428D01*
X27865295Y-38383428D02*
X27912914Y-38288190D01*
X16298942Y-79956819D02*
X15965609Y-79480628D01*
X15727514Y-79956819D02*
X15727514Y-78956819D01*
X15727514Y-78956819D02*
X16108466Y-78956819D01*
X16108466Y-78956819D02*
X16203704Y-79004438D01*
X16203704Y-79004438D02*
X16251323Y-79052057D01*
X16251323Y-79052057D02*
X16298942Y-79147295D01*
X16298942Y-79147295D02*
X16298942Y-79290152D01*
X16298942Y-79290152D02*
X16251323Y-79385390D01*
X16251323Y-79385390D02*
X16203704Y-79433009D01*
X16203704Y-79433009D02*
X16108466Y-79480628D01*
X16108466Y-79480628D02*
X15727514Y-79480628D01*
X17251323Y-79956819D02*
X16679895Y-79956819D01*
X16965609Y-79956819D02*
X16965609Y-78956819D01*
X16965609Y-78956819D02*
X16870371Y-79099676D01*
X16870371Y-79099676D02*
X16775133Y-79194914D01*
X16775133Y-79194914D02*
X16679895Y-79242533D01*
X18203704Y-79956819D02*
X17632276Y-79956819D01*
X17917990Y-79956819D02*
X17917990Y-78956819D01*
X17917990Y-78956819D02*
X17822752Y-79099676D01*
X17822752Y-79099676D02*
X17727514Y-79194914D01*
X17727514Y-79194914D02*
X17632276Y-79242533D01*
D11*
X16565033Y-85748665D02*
X16057033Y-85748665D01*
X16311033Y-85748665D02*
X16311033Y-84859665D01*
X16311033Y-84859665D02*
X16226366Y-84986665D01*
X16226366Y-84986665D02*
X16141700Y-85071332D01*
X16141700Y-85071332D02*
X16057033Y-85113665D01*
X17115367Y-84859665D02*
X17200033Y-84859665D01*
X17200033Y-84859665D02*
X17284700Y-84901998D01*
X17284700Y-84901998D02*
X17327033Y-84944332D01*
X17327033Y-84944332D02*
X17369367Y-85028998D01*
X17369367Y-85028998D02*
X17411700Y-85198332D01*
X17411700Y-85198332D02*
X17411700Y-85409998D01*
X17411700Y-85409998D02*
X17369367Y-85579332D01*
X17369367Y-85579332D02*
X17327033Y-85663998D01*
X17327033Y-85663998D02*
X17284700Y-85706332D01*
X17284700Y-85706332D02*
X17200033Y-85748665D01*
X17200033Y-85748665D02*
X17115367Y-85748665D01*
X17115367Y-85748665D02*
X17030700Y-85706332D01*
X17030700Y-85706332D02*
X16988367Y-85663998D01*
X16988367Y-85663998D02*
X16946033Y-85579332D01*
X16946033Y-85579332D02*
X16903700Y-85409998D01*
X16903700Y-85409998D02*
X16903700Y-85198332D01*
X16903700Y-85198332D02*
X16946033Y-85028998D01*
X16946033Y-85028998D02*
X16988367Y-84944332D01*
X16988367Y-84944332D02*
X17030700Y-84901998D01*
X17030700Y-84901998D02*
X17115367Y-84859665D01*
X17792700Y-85748665D02*
X17792700Y-84859665D01*
X17877367Y-85409998D02*
X18131367Y-85748665D01*
X18131367Y-85155998D02*
X17792700Y-85494665D01*
D15*
X17054533Y-13434219D02*
X16721200Y-12958028D01*
X16483105Y-13434219D02*
X16483105Y-12434219D01*
X16483105Y-12434219D02*
X16864057Y-12434219D01*
X16864057Y-12434219D02*
X16959295Y-12481838D01*
X16959295Y-12481838D02*
X17006914Y-12529457D01*
X17006914Y-12529457D02*
X17054533Y-12624695D01*
X17054533Y-12624695D02*
X17054533Y-12767552D01*
X17054533Y-12767552D02*
X17006914Y-12862790D01*
X17006914Y-12862790D02*
X16959295Y-12910409D01*
X16959295Y-12910409D02*
X16864057Y-12958028D01*
X16864057Y-12958028D02*
X16483105Y-12958028D01*
X18006914Y-13434219D02*
X17435486Y-13434219D01*
X17721200Y-13434219D02*
X17721200Y-12434219D01*
X17721200Y-12434219D02*
X17625962Y-12577076D01*
X17625962Y-12577076D02*
X17530724Y-12672314D01*
X17530724Y-12672314D02*
X17435486Y-12719933D01*
X16575161Y-15237619D02*
X16003733Y-15237619D01*
X16289447Y-15237619D02*
X16289447Y-14237619D01*
X16289447Y-14237619D02*
X16194209Y-14380476D01*
X16194209Y-14380476D02*
X16098971Y-14475714D01*
X16098971Y-14475714D02*
X16003733Y-14523333D01*
X17194209Y-14237619D02*
X17289447Y-14237619D01*
X17289447Y-14237619D02*
X17384685Y-14285238D01*
X17384685Y-14285238D02*
X17432304Y-14332857D01*
X17432304Y-14332857D02*
X17479923Y-14428095D01*
X17479923Y-14428095D02*
X17527542Y-14618571D01*
X17527542Y-14618571D02*
X17527542Y-14856666D01*
X17527542Y-14856666D02*
X17479923Y-15047142D01*
X17479923Y-15047142D02*
X17432304Y-15142380D01*
X17432304Y-15142380D02*
X17384685Y-15190000D01*
X17384685Y-15190000D02*
X17289447Y-15237619D01*
X17289447Y-15237619D02*
X17194209Y-15237619D01*
X17194209Y-15237619D02*
X17098971Y-15190000D01*
X17098971Y-15190000D02*
X17051352Y-15142380D01*
X17051352Y-15142380D02*
X17003733Y-15047142D01*
X17003733Y-15047142D02*
X16956114Y-14856666D01*
X16956114Y-14856666D02*
X16956114Y-14618571D01*
X16956114Y-14618571D02*
X17003733Y-14428095D01*
X17003733Y-14428095D02*
X17051352Y-14332857D01*
X17051352Y-14332857D02*
X17098971Y-14285238D01*
X17098971Y-14285238D02*
X17194209Y-14237619D01*
X17956114Y-15237619D02*
X17956114Y-14237619D01*
X18051352Y-14856666D02*
X18337066Y-15237619D01*
X18337066Y-14570952D02*
X17956114Y-14951904D01*
X49395142Y-56772980D02*
X49347523Y-56820600D01*
X49347523Y-56820600D02*
X49204666Y-56868219D01*
X49204666Y-56868219D02*
X49109428Y-56868219D01*
X49109428Y-56868219D02*
X48966571Y-56820600D01*
X48966571Y-56820600D02*
X48871333Y-56725361D01*
X48871333Y-56725361D02*
X48823714Y-56630123D01*
X48823714Y-56630123D02*
X48776095Y-56439647D01*
X48776095Y-56439647D02*
X48776095Y-56296790D01*
X48776095Y-56296790D02*
X48823714Y-56106314D01*
X48823714Y-56106314D02*
X48871333Y-56011076D01*
X48871333Y-56011076D02*
X48966571Y-55915838D01*
X48966571Y-55915838D02*
X49109428Y-55868219D01*
X49109428Y-55868219D02*
X49204666Y-55868219D01*
X49204666Y-55868219D02*
X49347523Y-55915838D01*
X49347523Y-55915838D02*
X49395142Y-55963457D01*
X50347523Y-56868219D02*
X49776095Y-56868219D01*
X50061809Y-56868219D02*
X50061809Y-55868219D01*
X50061809Y-55868219D02*
X49966571Y-56011076D01*
X49966571Y-56011076D02*
X49871333Y-56106314D01*
X49871333Y-56106314D02*
X49776095Y-56153933D01*
X51299904Y-56868219D02*
X50728476Y-56868219D01*
X51014190Y-56868219D02*
X51014190Y-55868219D01*
X51014190Y-55868219D02*
X50918952Y-56011076D01*
X50918952Y-56011076D02*
X50823714Y-56106314D01*
X50823714Y-56106314D02*
X50728476Y-56153933D01*
X21725095Y-10588619D02*
X22296523Y-10588619D01*
X22010809Y-11588619D02*
X22010809Y-10588619D01*
X22629857Y-11588619D02*
X22629857Y-10588619D01*
X22629857Y-10588619D02*
X23010809Y-10588619D01*
X23010809Y-10588619D02*
X23106047Y-10636238D01*
X23106047Y-10636238D02*
X23153666Y-10683857D01*
X23153666Y-10683857D02*
X23201285Y-10779095D01*
X23201285Y-10779095D02*
X23201285Y-10921952D01*
X23201285Y-10921952D02*
X23153666Y-11017190D01*
X23153666Y-11017190D02*
X23106047Y-11064809D01*
X23106047Y-11064809D02*
X23010809Y-11112428D01*
X23010809Y-11112428D02*
X22629857Y-11112428D01*
X24153666Y-11588619D02*
X23582238Y-11588619D01*
X23867952Y-11588619D02*
X23867952Y-10588619D01*
X23867952Y-10588619D02*
X23772714Y-10731476D01*
X23772714Y-10731476D02*
X23677476Y-10826714D01*
X23677476Y-10826714D02*
X23582238Y-10874333D01*
X27087533Y-29838096D02*
X27039914Y-29885716D01*
X27039914Y-29885716D02*
X26897057Y-29933335D01*
X26897057Y-29933335D02*
X26801819Y-29933335D01*
X26801819Y-29933335D02*
X26658962Y-29885716D01*
X26658962Y-29885716D02*
X26563724Y-29790477D01*
X26563724Y-29790477D02*
X26516105Y-29695239D01*
X26516105Y-29695239D02*
X26468486Y-29504763D01*
X26468486Y-29504763D02*
X26468486Y-29361906D01*
X26468486Y-29361906D02*
X26516105Y-29171430D01*
X26516105Y-29171430D02*
X26563724Y-29076192D01*
X26563724Y-29076192D02*
X26658962Y-28980954D01*
X26658962Y-28980954D02*
X26801819Y-28933335D01*
X26801819Y-28933335D02*
X26897057Y-28933335D01*
X26897057Y-28933335D02*
X27039914Y-28980954D01*
X27039914Y-28980954D02*
X27087533Y-29028573D01*
X27420867Y-28933335D02*
X28039914Y-28933335D01*
X28039914Y-28933335D02*
X27706581Y-29314287D01*
X27706581Y-29314287D02*
X27849438Y-29314287D01*
X27849438Y-29314287D02*
X27944676Y-29361906D01*
X27944676Y-29361906D02*
X27992295Y-29409525D01*
X27992295Y-29409525D02*
X28039914Y-29504763D01*
X28039914Y-29504763D02*
X28039914Y-29742858D01*
X28039914Y-29742858D02*
X27992295Y-29838096D01*
X27992295Y-29838096D02*
X27944676Y-29885716D01*
X27944676Y-29885716D02*
X27849438Y-29933335D01*
X27849438Y-29933335D02*
X27563724Y-29933335D01*
X27563724Y-29933335D02*
X27468486Y-29885716D01*
X27468486Y-29885716D02*
X27420867Y-29838096D01*
D11*
X26081566Y-35471181D02*
X25573566Y-35471181D01*
X25827566Y-35471181D02*
X25827566Y-34582181D01*
X25827566Y-34582181D02*
X25742899Y-34709181D01*
X25742899Y-34709181D02*
X25658233Y-34793848D01*
X25658233Y-34793848D02*
X25573566Y-34836181D01*
X26631900Y-34582181D02*
X26716566Y-34582181D01*
X26716566Y-34582181D02*
X26801233Y-34624514D01*
X26801233Y-34624514D02*
X26843566Y-34666848D01*
X26843566Y-34666848D02*
X26885900Y-34751514D01*
X26885900Y-34751514D02*
X26928233Y-34920848D01*
X26928233Y-34920848D02*
X26928233Y-35132514D01*
X26928233Y-35132514D02*
X26885900Y-35301848D01*
X26885900Y-35301848D02*
X26843566Y-35386514D01*
X26843566Y-35386514D02*
X26801233Y-35428848D01*
X26801233Y-35428848D02*
X26716566Y-35471181D01*
X26716566Y-35471181D02*
X26631900Y-35471181D01*
X26631900Y-35471181D02*
X26547233Y-35428848D01*
X26547233Y-35428848D02*
X26504900Y-35386514D01*
X26504900Y-35386514D02*
X26462566Y-35301848D01*
X26462566Y-35301848D02*
X26420233Y-35132514D01*
X26420233Y-35132514D02*
X26420233Y-34920848D01*
X26420233Y-34920848D02*
X26462566Y-34751514D01*
X26462566Y-34751514D02*
X26504900Y-34666848D01*
X26504900Y-34666848D02*
X26547233Y-34624514D01*
X26547233Y-34624514D02*
X26631900Y-34582181D01*
X27478567Y-34582181D02*
X27563233Y-34582181D01*
X27563233Y-34582181D02*
X27647900Y-34624514D01*
X27647900Y-34624514D02*
X27690233Y-34666848D01*
X27690233Y-34666848D02*
X27732567Y-34751514D01*
X27732567Y-34751514D02*
X27774900Y-34920848D01*
X27774900Y-34920848D02*
X27774900Y-35132514D01*
X27774900Y-35132514D02*
X27732567Y-35301848D01*
X27732567Y-35301848D02*
X27690233Y-35386514D01*
X27690233Y-35386514D02*
X27647900Y-35428848D01*
X27647900Y-35428848D02*
X27563233Y-35471181D01*
X27563233Y-35471181D02*
X27478567Y-35471181D01*
X27478567Y-35471181D02*
X27393900Y-35428848D01*
X27393900Y-35428848D02*
X27351567Y-35386514D01*
X27351567Y-35386514D02*
X27309233Y-35301848D01*
X27309233Y-35301848D02*
X27266900Y-35132514D01*
X27266900Y-35132514D02*
X27266900Y-34920848D01*
X27266900Y-34920848D02*
X27309233Y-34751514D01*
X27309233Y-34751514D02*
X27351567Y-34666848D01*
X27351567Y-34666848D02*
X27393900Y-34624514D01*
X27393900Y-34624514D02*
X27478567Y-34582181D01*
X28155900Y-34878514D02*
X28155900Y-35471181D01*
X28155900Y-34963181D02*
X28198234Y-34920848D01*
X28198234Y-34920848D02*
X28282900Y-34878514D01*
X28282900Y-34878514D02*
X28409900Y-34878514D01*
X28409900Y-34878514D02*
X28494567Y-34920848D01*
X28494567Y-34920848D02*
X28536900Y-35005514D01*
X28536900Y-35005514D02*
X28536900Y-35471181D01*
D15*
X27011333Y-76178580D02*
X26963714Y-76226200D01*
X26963714Y-76226200D02*
X26820857Y-76273819D01*
X26820857Y-76273819D02*
X26725619Y-76273819D01*
X26725619Y-76273819D02*
X26582762Y-76226200D01*
X26582762Y-76226200D02*
X26487524Y-76130961D01*
X26487524Y-76130961D02*
X26439905Y-76035723D01*
X26439905Y-76035723D02*
X26392286Y-75845247D01*
X26392286Y-75845247D02*
X26392286Y-75702390D01*
X26392286Y-75702390D02*
X26439905Y-75511914D01*
X26439905Y-75511914D02*
X26487524Y-75416676D01*
X26487524Y-75416676D02*
X26582762Y-75321438D01*
X26582762Y-75321438D02*
X26725619Y-75273819D01*
X26725619Y-75273819D02*
X26820857Y-75273819D01*
X26820857Y-75273819D02*
X26963714Y-75321438D01*
X26963714Y-75321438D02*
X27011333Y-75369057D01*
X27344667Y-75273819D02*
X28011333Y-75273819D01*
X28011333Y-75273819D02*
X27582762Y-76273819D01*
D11*
X26232366Y-81420465D02*
X25724366Y-81420465D01*
X25978366Y-81420465D02*
X25978366Y-80531465D01*
X25978366Y-80531465D02*
X25893699Y-80658465D01*
X25893699Y-80658465D02*
X25809033Y-80743132D01*
X25809033Y-80743132D02*
X25724366Y-80785465D01*
X26782700Y-80531465D02*
X26867366Y-80531465D01*
X26867366Y-80531465D02*
X26952033Y-80573798D01*
X26952033Y-80573798D02*
X26994366Y-80616132D01*
X26994366Y-80616132D02*
X27036700Y-80700798D01*
X27036700Y-80700798D02*
X27079033Y-80870132D01*
X27079033Y-80870132D02*
X27079033Y-81081798D01*
X27079033Y-81081798D02*
X27036700Y-81251132D01*
X27036700Y-81251132D02*
X26994366Y-81335798D01*
X26994366Y-81335798D02*
X26952033Y-81378132D01*
X26952033Y-81378132D02*
X26867366Y-81420465D01*
X26867366Y-81420465D02*
X26782700Y-81420465D01*
X26782700Y-81420465D02*
X26698033Y-81378132D01*
X26698033Y-81378132D02*
X26655700Y-81335798D01*
X26655700Y-81335798D02*
X26613366Y-81251132D01*
X26613366Y-81251132D02*
X26571033Y-81081798D01*
X26571033Y-81081798D02*
X26571033Y-80870132D01*
X26571033Y-80870132D02*
X26613366Y-80700798D01*
X26613366Y-80700798D02*
X26655700Y-80616132D01*
X26655700Y-80616132D02*
X26698033Y-80573798D01*
X26698033Y-80573798D02*
X26782700Y-80531465D01*
X27629367Y-80531465D02*
X27714033Y-80531465D01*
X27714033Y-80531465D02*
X27798700Y-80573798D01*
X27798700Y-80573798D02*
X27841033Y-80616132D01*
X27841033Y-80616132D02*
X27883367Y-80700798D01*
X27883367Y-80700798D02*
X27925700Y-80870132D01*
X27925700Y-80870132D02*
X27925700Y-81081798D01*
X27925700Y-81081798D02*
X27883367Y-81251132D01*
X27883367Y-81251132D02*
X27841033Y-81335798D01*
X27841033Y-81335798D02*
X27798700Y-81378132D01*
X27798700Y-81378132D02*
X27714033Y-81420465D01*
X27714033Y-81420465D02*
X27629367Y-81420465D01*
X27629367Y-81420465D02*
X27544700Y-81378132D01*
X27544700Y-81378132D02*
X27502367Y-81335798D01*
X27502367Y-81335798D02*
X27460033Y-81251132D01*
X27460033Y-81251132D02*
X27417700Y-81081798D01*
X27417700Y-81081798D02*
X27417700Y-80870132D01*
X27417700Y-80870132D02*
X27460033Y-80700798D01*
X27460033Y-80700798D02*
X27502367Y-80616132D01*
X27502367Y-80616132D02*
X27544700Y-80573798D01*
X27544700Y-80573798D02*
X27629367Y-80531465D01*
X28306700Y-80827798D02*
X28306700Y-81420465D01*
X28306700Y-80912465D02*
X28349034Y-80870132D01*
X28349034Y-80870132D02*
X28433700Y-80827798D01*
X28433700Y-80827798D02*
X28560700Y-80827798D01*
X28560700Y-80827798D02*
X28645367Y-80870132D01*
X28645367Y-80870132D02*
X28687700Y-80954798D01*
X28687700Y-80954798D02*
X28687700Y-81420465D01*
X42947166Y-87602865D02*
X42947166Y-86713865D01*
X43328166Y-86798532D02*
X43370499Y-86756198D01*
X43370499Y-86756198D02*
X43455166Y-86713865D01*
X43455166Y-86713865D02*
X43666833Y-86713865D01*
X43666833Y-86713865D02*
X43751499Y-86756198D01*
X43751499Y-86756198D02*
X43793833Y-86798532D01*
X43793833Y-86798532D02*
X43836166Y-86883198D01*
X43836166Y-86883198D02*
X43836166Y-86967865D01*
X43836166Y-86967865D02*
X43793833Y-87094865D01*
X43793833Y-87094865D02*
X43285833Y-87602865D01*
X43285833Y-87602865D02*
X43836166Y-87602865D01*
X44725166Y-87518198D02*
X44682833Y-87560532D01*
X44682833Y-87560532D02*
X44555833Y-87602865D01*
X44555833Y-87602865D02*
X44471166Y-87602865D01*
X44471166Y-87602865D02*
X44344166Y-87560532D01*
X44344166Y-87560532D02*
X44259500Y-87475865D01*
X44259500Y-87475865D02*
X44217166Y-87391198D01*
X44217166Y-87391198D02*
X44174833Y-87221865D01*
X44174833Y-87221865D02*
X44174833Y-87094865D01*
X44174833Y-87094865D02*
X44217166Y-86925532D01*
X44217166Y-86925532D02*
X44259500Y-86840865D01*
X44259500Y-86840865D02*
X44344166Y-86756198D01*
X44344166Y-86756198D02*
X44471166Y-86713865D01*
X44471166Y-86713865D02*
X44555833Y-86713865D01*
X44555833Y-86713865D02*
X44682833Y-86756198D01*
X44682833Y-86756198D02*
X44725166Y-86798532D01*
X46249166Y-87602865D02*
X45741166Y-87602865D01*
X45995166Y-87602865D02*
X45995166Y-86713865D01*
X45995166Y-86713865D02*
X45910499Y-86840865D01*
X45910499Y-86840865D02*
X45825833Y-86925532D01*
X45825833Y-86925532D02*
X45741166Y-86967865D01*
D15*
X2827543Y-7195457D02*
X2875162Y-7147838D01*
X2875162Y-7147838D02*
X2970400Y-7100219D01*
X2970400Y-7100219D02*
X3208495Y-7100219D01*
X3208495Y-7100219D02*
X3303733Y-7147838D01*
X3303733Y-7147838D02*
X3351352Y-7195457D01*
X3351352Y-7195457D02*
X3398971Y-7290695D01*
X3398971Y-7290695D02*
X3398971Y-7385933D01*
X3398971Y-7385933D02*
X3351352Y-7528790D01*
X3351352Y-7528790D02*
X2779924Y-8100219D01*
X2779924Y-8100219D02*
X3398971Y-8100219D01*
X4018019Y-7100219D02*
X4113257Y-7100219D01*
X4113257Y-7100219D02*
X4208495Y-7147838D01*
X4208495Y-7147838D02*
X4256114Y-7195457D01*
X4256114Y-7195457D02*
X4303733Y-7290695D01*
X4303733Y-7290695D02*
X4351352Y-7481171D01*
X4351352Y-7481171D02*
X4351352Y-7719266D01*
X4351352Y-7719266D02*
X4303733Y-7909742D01*
X4303733Y-7909742D02*
X4256114Y-8004980D01*
X4256114Y-8004980D02*
X4208495Y-8052600D01*
X4208495Y-8052600D02*
X4113257Y-8100219D01*
X4113257Y-8100219D02*
X4018019Y-8100219D01*
X4018019Y-8100219D02*
X3922781Y-8052600D01*
X3922781Y-8052600D02*
X3875162Y-8004980D01*
X3875162Y-8004980D02*
X3827543Y-7909742D01*
X3827543Y-7909742D02*
X3779924Y-7719266D01*
X3779924Y-7719266D02*
X3779924Y-7481171D01*
X3779924Y-7481171D02*
X3827543Y-7290695D01*
X3827543Y-7290695D02*
X3875162Y-7195457D01*
X3875162Y-7195457D02*
X3922781Y-7147838D01*
X3922781Y-7147838D02*
X4018019Y-7100219D01*
X4970400Y-7100219D02*
X5065638Y-7100219D01*
X5065638Y-7100219D02*
X5160876Y-7147838D01*
X5160876Y-7147838D02*
X5208495Y-7195457D01*
X5208495Y-7195457D02*
X5256114Y-7290695D01*
X5256114Y-7290695D02*
X5303733Y-7481171D01*
X5303733Y-7481171D02*
X5303733Y-7719266D01*
X5303733Y-7719266D02*
X5256114Y-7909742D01*
X5256114Y-7909742D02*
X5208495Y-8004980D01*
X5208495Y-8004980D02*
X5160876Y-8052600D01*
X5160876Y-8052600D02*
X5065638Y-8100219D01*
X5065638Y-8100219D02*
X4970400Y-8100219D01*
X4970400Y-8100219D02*
X4875162Y-8052600D01*
X4875162Y-8052600D02*
X4827543Y-8004980D01*
X4827543Y-8004980D02*
X4779924Y-7909742D01*
X4779924Y-7909742D02*
X4732305Y-7719266D01*
X4732305Y-7719266D02*
X4732305Y-7481171D01*
X4732305Y-7481171D02*
X4779924Y-7290695D01*
X4779924Y-7290695D02*
X4827543Y-7195457D01*
X4827543Y-7195457D02*
X4875162Y-7147838D01*
X4875162Y-7147838D02*
X4970400Y-7100219D01*
X5732305Y-8100219D02*
X5732305Y-7100219D01*
X5827543Y-7719266D02*
X6113257Y-8100219D01*
X6113257Y-7433552D02*
X5732305Y-7814504D01*
X16952933Y-28699619D02*
X16619600Y-28223428D01*
X16381505Y-28699619D02*
X16381505Y-27699619D01*
X16381505Y-27699619D02*
X16762457Y-27699619D01*
X16762457Y-27699619D02*
X16857695Y-27747238D01*
X16857695Y-27747238D02*
X16905314Y-27794857D01*
X16905314Y-27794857D02*
X16952933Y-27890095D01*
X16952933Y-27890095D02*
X16952933Y-28032952D01*
X16952933Y-28032952D02*
X16905314Y-28128190D01*
X16905314Y-28128190D02*
X16857695Y-28175809D01*
X16857695Y-28175809D02*
X16762457Y-28223428D01*
X16762457Y-28223428D02*
X16381505Y-28223428D01*
X17333886Y-27794857D02*
X17381505Y-27747238D01*
X17381505Y-27747238D02*
X17476743Y-27699619D01*
X17476743Y-27699619D02*
X17714838Y-27699619D01*
X17714838Y-27699619D02*
X17810076Y-27747238D01*
X17810076Y-27747238D02*
X17857695Y-27794857D01*
X17857695Y-27794857D02*
X17905314Y-27890095D01*
X17905314Y-27890095D02*
X17905314Y-27985333D01*
X17905314Y-27985333D02*
X17857695Y-28128190D01*
X17857695Y-28128190D02*
X17286267Y-28699619D01*
X17286267Y-28699619D02*
X17905314Y-28699619D01*
X21725095Y-37715819D02*
X22296523Y-37715819D01*
X22010809Y-38715819D02*
X22010809Y-37715819D01*
X22629857Y-38715819D02*
X22629857Y-37715819D01*
X22629857Y-37715819D02*
X23010809Y-37715819D01*
X23010809Y-37715819D02*
X23106047Y-37763438D01*
X23106047Y-37763438D02*
X23153666Y-37811057D01*
X23153666Y-37811057D02*
X23201285Y-37906295D01*
X23201285Y-37906295D02*
X23201285Y-38049152D01*
X23201285Y-38049152D02*
X23153666Y-38144390D01*
X23153666Y-38144390D02*
X23106047Y-38192009D01*
X23106047Y-38192009D02*
X23010809Y-38239628D01*
X23010809Y-38239628D02*
X22629857Y-38239628D01*
X24058428Y-38049152D02*
X24058428Y-38715819D01*
X23820333Y-37668200D02*
X23582238Y-38382485D01*
X23582238Y-38382485D02*
X24201285Y-38382485D01*
D16*
X39216390Y-59642774D02*
X39216390Y-58626774D01*
X40280772Y-59546013D02*
X40232391Y-59594394D01*
X40232391Y-59594394D02*
X40087248Y-59642774D01*
X40087248Y-59642774D02*
X39990486Y-59642774D01*
X39990486Y-59642774D02*
X39845343Y-59594394D01*
X39845343Y-59594394D02*
X39748581Y-59497632D01*
X39748581Y-59497632D02*
X39700200Y-59400870D01*
X39700200Y-59400870D02*
X39651819Y-59207346D01*
X39651819Y-59207346D02*
X39651819Y-59062203D01*
X39651819Y-59062203D02*
X39700200Y-58868679D01*
X39700200Y-58868679D02*
X39748581Y-58771917D01*
X39748581Y-58771917D02*
X39845343Y-58675155D01*
X39845343Y-58675155D02*
X39990486Y-58626774D01*
X39990486Y-58626774D02*
X40087248Y-58626774D01*
X40087248Y-58626774D02*
X40232391Y-58675155D01*
X40232391Y-58675155D02*
X40280772Y-58723536D01*
X40667819Y-58723536D02*
X40716200Y-58675155D01*
X40716200Y-58675155D02*
X40812962Y-58626774D01*
X40812962Y-58626774D02*
X41054867Y-58626774D01*
X41054867Y-58626774D02*
X41151629Y-58675155D01*
X41151629Y-58675155D02*
X41200010Y-58723536D01*
X41200010Y-58723536D02*
X41248391Y-58820298D01*
X41248391Y-58820298D02*
X41248391Y-58917060D01*
X41248391Y-58917060D02*
X41200010Y-59062203D01*
X41200010Y-59062203D02*
X40619438Y-59642774D01*
X40619438Y-59642774D02*
X41248391Y-59642774D01*
D11*
X39945732Y-71905665D02*
X39945732Y-71016665D01*
X39945732Y-71016665D02*
X40242066Y-71651665D01*
X40242066Y-71651665D02*
X40538399Y-71016665D01*
X40538399Y-71016665D02*
X40538399Y-71905665D01*
X41469732Y-71820998D02*
X41427399Y-71863332D01*
X41427399Y-71863332D02*
X41300399Y-71905665D01*
X41300399Y-71905665D02*
X41215732Y-71905665D01*
X41215732Y-71905665D02*
X41088732Y-71863332D01*
X41088732Y-71863332D02*
X41004066Y-71778665D01*
X41004066Y-71778665D02*
X40961732Y-71693998D01*
X40961732Y-71693998D02*
X40919399Y-71524665D01*
X40919399Y-71524665D02*
X40919399Y-71397665D01*
X40919399Y-71397665D02*
X40961732Y-71228332D01*
X40961732Y-71228332D02*
X41004066Y-71143665D01*
X41004066Y-71143665D02*
X41088732Y-71058998D01*
X41088732Y-71058998D02*
X41215732Y-71016665D01*
X41215732Y-71016665D02*
X41300399Y-71016665D01*
X41300399Y-71016665D02*
X41427399Y-71058998D01*
X41427399Y-71058998D02*
X41469732Y-71101332D01*
X41850732Y-71905665D02*
X41850732Y-71016665D01*
X41850732Y-71016665D02*
X42189399Y-71016665D01*
X42189399Y-71016665D02*
X42274066Y-71058998D01*
X42274066Y-71058998D02*
X42316399Y-71101332D01*
X42316399Y-71101332D02*
X42358732Y-71185998D01*
X42358732Y-71185998D02*
X42358732Y-71312998D01*
X42358732Y-71312998D02*
X42316399Y-71397665D01*
X42316399Y-71397665D02*
X42274066Y-71439998D01*
X42274066Y-71439998D02*
X42189399Y-71482332D01*
X42189399Y-71482332D02*
X41850732Y-71482332D01*
X42655066Y-71016665D02*
X43205399Y-71016665D01*
X43205399Y-71016665D02*
X42909066Y-71355332D01*
X42909066Y-71355332D02*
X43036066Y-71355332D01*
X43036066Y-71355332D02*
X43120732Y-71397665D01*
X43120732Y-71397665D02*
X43163066Y-71439998D01*
X43163066Y-71439998D02*
X43205399Y-71524665D01*
X43205399Y-71524665D02*
X43205399Y-71736332D01*
X43205399Y-71736332D02*
X43163066Y-71820998D01*
X43163066Y-71820998D02*
X43120732Y-71863332D01*
X43120732Y-71863332D02*
X43036066Y-71905665D01*
X43036066Y-71905665D02*
X42782066Y-71905665D01*
X42782066Y-71905665D02*
X42697399Y-71863332D01*
X42697399Y-71863332D02*
X42655066Y-71820998D01*
X43755733Y-71016665D02*
X43840399Y-71016665D01*
X43840399Y-71016665D02*
X43925066Y-71058998D01*
X43925066Y-71058998D02*
X43967399Y-71101332D01*
X43967399Y-71101332D02*
X44009733Y-71185998D01*
X44009733Y-71185998D02*
X44052066Y-71355332D01*
X44052066Y-71355332D02*
X44052066Y-71566998D01*
X44052066Y-71566998D02*
X44009733Y-71736332D01*
X44009733Y-71736332D02*
X43967399Y-71820998D01*
X43967399Y-71820998D02*
X43925066Y-71863332D01*
X43925066Y-71863332D02*
X43840399Y-71905665D01*
X43840399Y-71905665D02*
X43755733Y-71905665D01*
X43755733Y-71905665D02*
X43671066Y-71863332D01*
X43671066Y-71863332D02*
X43628733Y-71820998D01*
X43628733Y-71820998D02*
X43586399Y-71736332D01*
X43586399Y-71736332D02*
X43544066Y-71566998D01*
X43544066Y-71566998D02*
X43544066Y-71355332D01*
X43544066Y-71355332D02*
X43586399Y-71185998D01*
X43586399Y-71185998D02*
X43628733Y-71101332D01*
X43628733Y-71101332D02*
X43671066Y-71058998D01*
X43671066Y-71058998D02*
X43755733Y-71016665D01*
X44602400Y-71016665D02*
X44687066Y-71016665D01*
X44687066Y-71016665D02*
X44771733Y-71058998D01*
X44771733Y-71058998D02*
X44814066Y-71101332D01*
X44814066Y-71101332D02*
X44856400Y-71185998D01*
X44856400Y-71185998D02*
X44898733Y-71355332D01*
X44898733Y-71355332D02*
X44898733Y-71566998D01*
X44898733Y-71566998D02*
X44856400Y-71736332D01*
X44856400Y-71736332D02*
X44814066Y-71820998D01*
X44814066Y-71820998D02*
X44771733Y-71863332D01*
X44771733Y-71863332D02*
X44687066Y-71905665D01*
X44687066Y-71905665D02*
X44602400Y-71905665D01*
X44602400Y-71905665D02*
X44517733Y-71863332D01*
X44517733Y-71863332D02*
X44475400Y-71820998D01*
X44475400Y-71820998D02*
X44433066Y-71736332D01*
X44433066Y-71736332D02*
X44390733Y-71566998D01*
X44390733Y-71566998D02*
X44390733Y-71355332D01*
X44390733Y-71355332D02*
X44433066Y-71185998D01*
X44433066Y-71185998D02*
X44475400Y-71101332D01*
X44475400Y-71101332D02*
X44517733Y-71058998D01*
X44517733Y-71058998D02*
X44602400Y-71016665D01*
X45406733Y-71397665D02*
X45322067Y-71355332D01*
X45322067Y-71355332D02*
X45279733Y-71312998D01*
X45279733Y-71312998D02*
X45237400Y-71228332D01*
X45237400Y-71228332D02*
X45237400Y-71185998D01*
X45237400Y-71185998D02*
X45279733Y-71101332D01*
X45279733Y-71101332D02*
X45322067Y-71058998D01*
X45322067Y-71058998D02*
X45406733Y-71016665D01*
X45406733Y-71016665D02*
X45576067Y-71016665D01*
X45576067Y-71016665D02*
X45660733Y-71058998D01*
X45660733Y-71058998D02*
X45703067Y-71101332D01*
X45703067Y-71101332D02*
X45745400Y-71185998D01*
X45745400Y-71185998D02*
X45745400Y-71228332D01*
X45745400Y-71228332D02*
X45703067Y-71312998D01*
X45703067Y-71312998D02*
X45660733Y-71355332D01*
X45660733Y-71355332D02*
X45576067Y-71397665D01*
X45576067Y-71397665D02*
X45406733Y-71397665D01*
X45406733Y-71397665D02*
X45322067Y-71439998D01*
X45322067Y-71439998D02*
X45279733Y-71482332D01*
X45279733Y-71482332D02*
X45237400Y-71566998D01*
X45237400Y-71566998D02*
X45237400Y-71736332D01*
X45237400Y-71736332D02*
X45279733Y-71820998D01*
X45279733Y-71820998D02*
X45322067Y-71863332D01*
X45322067Y-71863332D02*
X45406733Y-71905665D01*
X45406733Y-71905665D02*
X45576067Y-71905665D01*
X45576067Y-71905665D02*
X45660733Y-71863332D01*
X45660733Y-71863332D02*
X45703067Y-71820998D01*
X45703067Y-71820998D02*
X45745400Y-71736332D01*
X45745400Y-71736332D02*
X45745400Y-71566998D01*
X45745400Y-71566998D02*
X45703067Y-71482332D01*
X45703067Y-71482332D02*
X45660733Y-71439998D01*
X45660733Y-71439998D02*
X45576067Y-71397665D01*
D17*
%TO.C,TP5*%
X21787000Y-48076000D02*
X24187000Y-48076000D01*
X21787000Y-50476000D02*
X21787000Y-48076000D01*
X24187000Y-48076000D02*
X24187000Y-50476000D01*
X24187000Y-50476000D02*
X21787000Y-50476000D01*
%TO.C,C6*%
X49878348Y-61520400D02*
X50400852Y-61520400D01*
X49878348Y-62990400D02*
X50400852Y-62990400D01*
%TO.C,H4*%
X56184801Y-91262200D02*
X56184801Y-91262200D01*
X56184801Y-91262200D01*
X56184801Y-91262200D01*
X56184801Y-91262200D01*
X56184801Y-91262200D01*
X56184801Y-91262201D01*
X56184801Y-91262201D01*
X56184801Y-91262201D01*
X56184801Y-91262201D01*
X56184801Y-91262201D01*
X56184801Y-91262201D01*
X56184801Y-91262201D01*
X56184800Y-91262201D01*
X56184800Y-91262201D01*
X56184800Y-91262201D01*
X56184800Y-91262201D01*
X56184800Y-91262201D01*
X56184800Y-91262201D01*
X56184800Y-91262201D01*
X56184800Y-91262201D01*
X56184800Y-91262201D01*
X56184800Y-91262201D01*
X56184800Y-91262201D01*
X56184800Y-91262201D01*
X56184799Y-91262201D01*
X56184799Y-91262201D01*
X56184799Y-91262201D01*
X56184799Y-91262201D01*
X56184799Y-91262201D01*
X56184799Y-91262201D01*
X56184799Y-91262200D01*
X56184799Y-91262200D01*
X56184799Y-91262200D01*
X56184799Y-91262200D01*
X56184799Y-91262200D01*
X56184799Y-91262200D01*
X56184799Y-91262200D02*
X56184799Y-91262200D01*
X56184799Y-91262200D01*
X56184799Y-91262200D01*
X56184799Y-91262200D01*
X56184799Y-91262200D01*
X56184799Y-91262200D01*
X56184799Y-91262199D01*
X56184799Y-91262199D01*
X56184799Y-91262199D01*
X56184799Y-91262199D01*
X56184799Y-91262199D01*
X56184800Y-91262199D01*
X56184800Y-91262199D01*
X56184800Y-91262199D01*
X56184800Y-91262199D01*
X56184800Y-91262199D01*
X56184800Y-91262199D01*
X56184800Y-91262199D01*
X56184800Y-91262199D01*
X56184800Y-91262199D01*
X56184800Y-91262199D01*
X56184800Y-91262199D01*
X56184800Y-91262199D01*
X56184801Y-91262199D01*
X56184801Y-91262199D01*
X56184801Y-91262199D01*
X56184801Y-91262199D01*
X56184801Y-91262199D01*
X56184801Y-91262199D01*
X56184801Y-91262200D01*
X56184801Y-91262200D01*
X56184801Y-91262200D01*
X56184801Y-91262200D01*
X56184801Y-91262200D01*
X56184801Y-91262200D01*
X56184801Y-91262200D01*
%TO.C,R7*%
X48337800Y-22188664D02*
X48337800Y-21734536D01*
X49807800Y-22188664D02*
X49807800Y-21734536D01*
%TO.C,C1*%
X43826152Y-77928800D02*
X43303648Y-77928800D01*
X43826152Y-79398800D02*
X43303648Y-79398800D01*
%TO.C,C5*%
X26493800Y-69385548D02*
X26493800Y-69908052D01*
X27963800Y-69385548D02*
X27963800Y-69908052D01*
%TO.C,R4*%
X16206800Y-74626736D02*
X16206800Y-75080864D01*
X17676800Y-74626736D02*
X17676800Y-75080864D01*
%TO.C,C4*%
X26443000Y-49979948D02*
X26443000Y-50502452D01*
X27913000Y-49979948D02*
X27913000Y-50502452D01*
%TO.C,R8*%
X16384600Y-18083264D02*
X16384600Y-17629136D01*
X17854600Y-18083264D02*
X17854600Y-17629136D01*
%TO.C,TP7*%
X21812400Y-67380000D02*
X24212400Y-67380000D01*
X21812400Y-69780000D02*
X21812400Y-67380000D01*
X24212400Y-67380000D02*
X24212400Y-69780000D01*
X24212400Y-69780000D02*
X21812400Y-69780000D01*
D18*
%TO.C,J1*%
X-5302400Y-38635000D02*
X5797600Y-38635000D01*
X-5302400Y-56415000D02*
X-5302400Y-38635000D01*
X7975600Y-56415000D02*
X-5302400Y-56415000D01*
D17*
%TO.C,R10*%
X16308400Y-68124336D02*
X16308400Y-68578464D01*
X17778400Y-68124336D02*
X17778400Y-68578464D01*
%TO.C,RV8*%
X-553000Y-83765000D02*
X-553000Y-86175000D01*
X-553000Y-83765000D02*
X967000Y-83765000D01*
X-553000Y-84970000D02*
X207000Y-84970000D01*
X-553000Y-86175000D02*
X967000Y-86175000D01*
X967000Y-81300000D02*
X967000Y-86350000D01*
X967000Y-81300000D02*
X10717000Y-81300000D01*
X967000Y-83765000D02*
X967000Y-86175000D01*
X967000Y-86350000D02*
X10717000Y-86350000D01*
X10717000Y-81300000D02*
X10717000Y-86350000D01*
%TO.C,RV5*%
X-553000Y-18571667D02*
X-553000Y-20981667D01*
X-553000Y-18571667D02*
X967000Y-18571667D01*
X-553000Y-19776667D02*
X207000Y-19776667D01*
X-553000Y-20981667D02*
X967000Y-20981667D01*
X967000Y-16106667D02*
X967000Y-21156667D01*
X967000Y-16106667D02*
X10717000Y-16106667D01*
X967000Y-18571667D02*
X967000Y-20981667D01*
X967000Y-21156667D02*
X10717000Y-21156667D01*
X10717000Y-16106667D02*
X10717000Y-21156667D01*
%TO.C,TP8*%
X21812400Y-76168400D02*
X24212400Y-76168400D01*
X21812400Y-78568400D02*
X21812400Y-76168400D01*
X24212400Y-76168400D02*
X24212400Y-78568400D01*
X24212400Y-78568400D02*
X21812400Y-78568400D01*
%TO.C,J3*%
X53611000Y-36059600D02*
X54991000Y-36059600D01*
X53611000Y-37439600D02*
X53611000Y-36059600D01*
X53611000Y-38709600D02*
X53611000Y-74379600D01*
X53611000Y-38709600D02*
X56261000Y-38709600D01*
X53611000Y-74379600D02*
X58911000Y-74379600D01*
X56261000Y-36059600D02*
X58911000Y-36059600D01*
X56261000Y-38709600D02*
X56261000Y-36059600D01*
X58911000Y-36059600D02*
X58911000Y-74379600D01*
%TO.C,R5*%
X54281400Y-29808664D02*
X54281400Y-29354536D01*
X55751400Y-29808664D02*
X55751400Y-29354536D01*
%TO.C,RV7*%
X-553000Y-68525000D02*
X-553000Y-70935000D01*
X-553000Y-68525000D02*
X967000Y-68525000D01*
X-553000Y-69730000D02*
X207000Y-69730000D01*
X-553000Y-70935000D02*
X967000Y-70935000D01*
X967000Y-66060000D02*
X967000Y-71110000D01*
X967000Y-66060000D02*
X10717000Y-66060000D01*
X967000Y-68525000D02*
X967000Y-70935000D01*
X967000Y-71110000D02*
X10717000Y-71110000D01*
X10717000Y-66060000D02*
X10717000Y-71110000D01*
%TO.C,C8*%
X26468400Y-22878148D02*
X26468400Y-23400652D01*
X27938400Y-22878148D02*
X27938400Y-23400652D01*
%TO.C,R9*%
X16308400Y-33450264D02*
X16308400Y-32996136D01*
X17778400Y-33450264D02*
X17778400Y-32996136D01*
%TO.C,TP2*%
X21787000Y-21025000D02*
X24187000Y-21025000D01*
X21787000Y-23425000D02*
X21787000Y-21025000D01*
X24187000Y-21025000D02*
X24187000Y-23425000D01*
X24187000Y-23425000D02*
X21787000Y-23425000D01*
%TO.C,R6*%
X48337800Y-29783264D02*
X48337800Y-29329136D01*
X49807800Y-29783264D02*
X49807800Y-29329136D01*
%TO.C,TP6*%
X21787000Y-57093000D02*
X24187000Y-57093000D01*
X21787000Y-59493000D02*
X21787000Y-57093000D01*
X24187000Y-57093000D02*
X24187000Y-59493000D01*
X24187000Y-59493000D02*
X21787000Y-59493000D01*
%TO.C,R3*%
X16308400Y-61850536D02*
X16308400Y-62304664D01*
X17778400Y-61850536D02*
X17778400Y-62304664D01*
%TO.C,TP3*%
X21812400Y-30067400D02*
X24212400Y-30067400D01*
X21812400Y-32467400D02*
X21812400Y-30067400D01*
X24212400Y-30067400D02*
X24212400Y-32467400D01*
X24212400Y-32467400D02*
X21812400Y-32467400D01*
%TO.C,C10*%
X26443000Y-58996948D02*
X26443000Y-59519452D01*
X27913000Y-58996948D02*
X27913000Y-59519452D01*
%TO.C,RV3*%
X-553000Y-25768333D02*
X-553000Y-28178333D01*
X-553000Y-25768333D02*
X967000Y-25768333D01*
X-553000Y-26973333D02*
X207000Y-26973333D01*
X-553000Y-28178333D02*
X967000Y-28178333D01*
X967000Y-23303333D02*
X967000Y-28353333D01*
X967000Y-23303333D02*
X10717000Y-23303333D01*
X967000Y-25768333D02*
X967000Y-28178333D01*
X967000Y-28353333D02*
X10717000Y-28353333D01*
X10717000Y-23303333D02*
X10717000Y-28353333D01*
%TO.C,J2*%
X43882800Y-54821600D02*
X43882800Y-44441600D01*
X46532800Y-52171600D02*
X46532800Y-54821600D01*
X46532800Y-54821600D02*
X43882800Y-54821600D01*
X49182800Y-44441600D02*
X43882800Y-44441600D01*
X49182800Y-52171600D02*
X46532800Y-52171600D01*
X49182800Y-52171600D02*
X49182800Y-44441600D01*
X49182800Y-53441600D02*
X49182800Y-54821600D01*
X49182800Y-54821600D02*
X47802800Y-54821600D01*
%TO.C,CON2*%
X54603000Y-79287600D02*
X54603000Y-80337600D01*
X54603000Y-84457600D02*
X53613000Y-84457600D01*
X54603000Y-85507600D02*
X54603000Y-84457600D01*
X56235600Y-79287600D02*
X54603000Y-79287600D01*
X56235600Y-85507600D02*
X54603000Y-85507600D01*
X59073000Y-84337600D02*
X59073000Y-80457600D01*
D18*
%TO.C,IC1*%
X52754400Y-23636600D02*
X52754400Y-22386600D01*
X52794400Y-21886600D02*
X55714400Y-21886600D01*
X52794400Y-22036600D02*
X52794400Y-21886600D01*
X55714400Y-21886600D02*
X55714400Y-22036600D01*
X55714400Y-22036600D02*
X52794400Y-22036600D01*
D17*
%TO.C,C2*%
X26443000Y-13988148D02*
X26443000Y-14510652D01*
X27913000Y-13988148D02*
X27913000Y-14510652D01*
%TO.C,H2*%
X56235601Y-3982200D02*
X56235601Y-3982200D01*
X56235601Y-3982200D01*
X56235601Y-3982200D01*
X56235601Y-3982200D01*
X56235601Y-3982200D01*
X56235601Y-3982201D01*
X56235601Y-3982201D01*
X56235601Y-3982201D01*
X56235601Y-3982201D01*
X56235601Y-3982201D01*
X56235601Y-3982201D01*
X56235601Y-3982201D01*
X56235600Y-3982201D01*
X56235600Y-3982201D01*
X56235600Y-3982201D01*
X56235600Y-3982201D01*
X56235600Y-3982201D01*
X56235600Y-3982201D01*
X56235600Y-3982201D01*
X56235600Y-3982201D01*
X56235600Y-3982201D01*
X56235600Y-3982201D01*
X56235600Y-3982201D01*
X56235600Y-3982201D01*
X56235599Y-3982201D01*
X56235599Y-3982201D01*
X56235599Y-3982201D01*
X56235599Y-3982201D01*
X56235599Y-3982201D01*
X56235599Y-3982201D01*
X56235599Y-3982200D01*
X56235599Y-3982200D01*
X56235599Y-3982200D01*
X56235599Y-3982200D01*
X56235599Y-3982200D01*
X56235599Y-3982200D01*
X56235599Y-3982200D02*
X56235599Y-3982200D01*
X56235599Y-3982200D01*
X56235599Y-3982200D01*
X56235599Y-3982200D01*
X56235599Y-3982200D01*
X56235599Y-3982200D01*
X56235599Y-3982199D01*
X56235599Y-3982199D01*
X56235599Y-3982199D01*
X56235599Y-3982199D01*
X56235599Y-3982199D01*
X56235600Y-3982199D01*
X56235600Y-3982199D01*
X56235600Y-3982199D01*
X56235600Y-3982199D01*
X56235600Y-3982199D01*
X56235600Y-3982199D01*
X56235600Y-3982199D01*
X56235600Y-3982199D01*
X56235600Y-3982199D01*
X56235600Y-3982199D01*
X56235600Y-3982199D01*
X56235600Y-3982199D01*
X56235601Y-3982199D01*
X56235601Y-3982199D01*
X56235601Y-3982199D01*
X56235601Y-3982199D01*
X56235601Y-3982199D01*
X56235601Y-3982199D01*
X56235601Y-3982200D01*
X56235601Y-3982200D01*
X56235601Y-3982200D01*
X56235601Y-3982200D01*
X56235601Y-3982200D01*
X56235601Y-3982200D01*
X56235601Y-3982200D01*
%TO.C,C9*%
X26443000Y-40886748D02*
X26443000Y-41409252D01*
X27913000Y-40886748D02*
X27913000Y-41409252D01*
%TO.C,R11*%
X16257600Y-82195936D02*
X16257600Y-82650064D01*
X17727600Y-82195936D02*
X17727600Y-82650064D01*
%TO.C,R1*%
X16384600Y-10615664D02*
X16384600Y-10161536D01*
X17854600Y-10615664D02*
X17854600Y-10161536D01*
%TO.C,C11*%
X49776748Y-57278600D02*
X50299252Y-57278600D01*
X49776748Y-58748600D02*
X50299252Y-58748600D01*
%TO.C,TP1*%
X21787000Y-11931800D02*
X24187000Y-11931800D01*
X21787000Y-14331800D02*
X21787000Y-11931800D01*
X24187000Y-11931800D02*
X24187000Y-14331800D01*
X24187000Y-14331800D02*
X21787000Y-14331800D01*
%TO.C,RV4*%
X-553000Y-60905000D02*
X-553000Y-63315000D01*
X-553000Y-60905000D02*
X967000Y-60905000D01*
X-553000Y-62110000D02*
X207000Y-62110000D01*
X-553000Y-63315000D02*
X967000Y-63315000D01*
X967000Y-58440000D02*
X967000Y-63490000D01*
X967000Y-58440000D02*
X10717000Y-58440000D01*
X967000Y-60905000D02*
X967000Y-63315000D01*
X967000Y-63490000D02*
X10717000Y-63490000D01*
X10717000Y-58440000D02*
X10717000Y-63490000D01*
%TO.C,C3*%
X26417600Y-32011264D02*
X26417600Y-32533768D01*
X27887600Y-32011264D02*
X27887600Y-32533768D01*
%TO.C,RV2*%
X-553000Y-76145000D02*
X-553000Y-78555000D01*
X-553000Y-76145000D02*
X967000Y-76145000D01*
X-553000Y-77350000D02*
X207000Y-77350000D01*
X-553000Y-78555000D02*
X967000Y-78555000D01*
X967000Y-73680000D02*
X967000Y-78730000D01*
X967000Y-73680000D02*
X10717000Y-73680000D01*
X967000Y-76145000D02*
X967000Y-78555000D01*
X967000Y-78730000D02*
X10717000Y-78730000D01*
X10717000Y-73680000D02*
X10717000Y-78730000D01*
%TO.C,H1*%
X12000001Y-3982200D02*
X12000001Y-3982200D01*
X12000001Y-3982200D01*
X12000001Y-3982200D01*
X12000001Y-3982200D01*
X12000001Y-3982200D01*
X12000001Y-3982201D01*
X12000001Y-3982201D01*
X12000001Y-3982201D01*
X12000001Y-3982201D01*
X12000001Y-3982201D01*
X12000001Y-3982201D01*
X12000001Y-3982201D01*
X12000000Y-3982201D01*
X12000000Y-3982201D01*
X12000000Y-3982201D01*
X12000000Y-3982201D01*
X12000000Y-3982201D01*
X12000000Y-3982201D01*
X12000000Y-3982201D01*
X12000000Y-3982201D01*
X12000000Y-3982201D01*
X12000000Y-3982201D01*
X12000000Y-3982201D01*
X12000000Y-3982201D01*
X11999999Y-3982201D01*
X11999999Y-3982201D01*
X11999999Y-3982201D01*
X11999999Y-3982201D01*
X11999999Y-3982201D01*
X11999999Y-3982201D01*
X11999999Y-3982200D01*
X11999999Y-3982200D01*
X11999999Y-3982200D01*
X11999999Y-3982200D01*
X11999999Y-3982200D01*
X11999999Y-3982200D01*
X11999999Y-3982200D02*
X11999999Y-3982200D01*
X11999999Y-3982200D01*
X11999999Y-3982200D01*
X11999999Y-3982200D01*
X11999999Y-3982200D01*
X11999999Y-3982200D01*
X11999999Y-3982199D01*
X11999999Y-3982199D01*
X11999999Y-3982199D01*
X11999999Y-3982199D01*
X11999999Y-3982199D01*
X12000000Y-3982199D01*
X12000000Y-3982199D01*
X12000000Y-3982199D01*
X12000000Y-3982199D01*
X12000000Y-3982199D01*
X12000000Y-3982199D01*
X12000000Y-3982199D01*
X12000000Y-3982199D01*
X12000000Y-3982199D01*
X12000000Y-3982199D01*
X12000000Y-3982199D01*
X12000000Y-3982199D01*
X12000001Y-3982199D01*
X12000001Y-3982199D01*
X12000001Y-3982199D01*
X12000001Y-3982199D01*
X12000001Y-3982199D01*
X12000001Y-3982199D01*
X12000001Y-3982200D01*
X12000001Y-3982200D01*
X12000001Y-3982200D01*
X12000001Y-3982200D01*
X12000001Y-3982200D01*
X12000001Y-3982200D01*
X12000001Y-3982200D01*
%TO.C,H3*%
X12000001Y-91262200D02*
X12000001Y-91262200D01*
X12000001Y-91262200D01*
X12000001Y-91262200D01*
X12000001Y-91262200D01*
X12000001Y-91262200D01*
X12000001Y-91262201D01*
X12000001Y-91262201D01*
X12000001Y-91262201D01*
X12000001Y-91262201D01*
X12000001Y-91262201D01*
X12000001Y-91262201D01*
X12000001Y-91262201D01*
X12000000Y-91262201D01*
X12000000Y-91262201D01*
X12000000Y-91262201D01*
X12000000Y-91262201D01*
X12000000Y-91262201D01*
X12000000Y-91262201D01*
X12000000Y-91262201D01*
X12000000Y-91262201D01*
X12000000Y-91262201D01*
X12000000Y-91262201D01*
X12000000Y-91262201D01*
X12000000Y-91262201D01*
X11999999Y-91262201D01*
X11999999Y-91262201D01*
X11999999Y-91262201D01*
X11999999Y-91262201D01*
X11999999Y-91262201D01*
X11999999Y-91262201D01*
X11999999Y-91262200D01*
X11999999Y-91262200D01*
X11999999Y-91262200D01*
X11999999Y-91262200D01*
X11999999Y-91262200D01*
X11999999Y-91262200D01*
X11999999Y-91262200D02*
X11999999Y-91262200D01*
X11999999Y-91262200D01*
X11999999Y-91262200D01*
X11999999Y-91262200D01*
X11999999Y-91262200D01*
X11999999Y-91262200D01*
X11999999Y-91262199D01*
X11999999Y-91262199D01*
X11999999Y-91262199D01*
X11999999Y-91262199D01*
X11999999Y-91262199D01*
X12000000Y-91262199D01*
X12000000Y-91262199D01*
X12000000Y-91262199D01*
X12000000Y-91262199D01*
X12000000Y-91262199D01*
X12000000Y-91262199D01*
X12000000Y-91262199D01*
X12000000Y-91262199D01*
X12000000Y-91262199D01*
X12000000Y-91262199D01*
X12000000Y-91262199D01*
X12000000Y-91262199D01*
X12000001Y-91262199D01*
X12000001Y-91262199D01*
X12000001Y-91262199D01*
X12000001Y-91262199D01*
X12000001Y-91262199D01*
X12000001Y-91262199D01*
X12000001Y-91262200D01*
X12000001Y-91262200D01*
X12000001Y-91262200D01*
X12000001Y-91262200D01*
X12000001Y-91262200D01*
X12000001Y-91262200D01*
X12000001Y-91262200D01*
%TO.C,RV6*%
X-553000Y-32965000D02*
X-553000Y-35375000D01*
X-553000Y-32965000D02*
X967000Y-32965000D01*
X-553000Y-34170000D02*
X207000Y-34170000D01*
X-553000Y-35375000D02*
X967000Y-35375000D01*
X967000Y-30500000D02*
X967000Y-35550000D01*
X967000Y-30500000D02*
X10717000Y-30500000D01*
X967000Y-32965000D02*
X967000Y-35375000D01*
X967000Y-35550000D02*
X10717000Y-35550000D01*
X10717000Y-30500000D02*
X10717000Y-35550000D01*
%TO.C,C7*%
X26493800Y-78148548D02*
X26493800Y-78671052D01*
X27963800Y-78148548D02*
X27963800Y-78671052D01*
%TO.C,CON1*%
X40173600Y-90922800D02*
X40173600Y-93582800D01*
X47853600Y-90922800D02*
X40173600Y-90922800D01*
X47853600Y-90922800D02*
X47853600Y-93582800D01*
X47853600Y-93582800D02*
X40173600Y-93582800D01*
X50453600Y-92252800D02*
X50453600Y-93582800D01*
X50453600Y-93582800D02*
X49123600Y-93582800D01*
%TO.C,RV1*%
X-553000Y-11375000D02*
X-553000Y-13785000D01*
X-553000Y-11375000D02*
X967000Y-11375000D01*
X-553000Y-12580000D02*
X207000Y-12580000D01*
X-553000Y-13785000D02*
X967000Y-13785000D01*
X967000Y-8910000D02*
X967000Y-13960000D01*
X967000Y-8910000D02*
X10717000Y-8910000D01*
X967000Y-11375000D02*
X967000Y-13785000D01*
X967000Y-13960000D02*
X10717000Y-13960000D01*
X10717000Y-8910000D02*
X10717000Y-13960000D01*
%TO.C,R2*%
X16359200Y-25677864D02*
X16359200Y-25223736D01*
X17829200Y-25677864D02*
X17829200Y-25223736D01*
%TO.C,TP4*%
X21787000Y-39059000D02*
X24187000Y-39059000D01*
X21787000Y-41459000D02*
X21787000Y-39059000D01*
X24187000Y-39059000D02*
X24187000Y-41459000D01*
X24187000Y-41459000D02*
X21787000Y-41459000D01*
D18*
%TO.C,IC2*%
X39374800Y-60310400D02*
X40899800Y-60310400D01*
X41249800Y-60480400D02*
X44449800Y-60480400D01*
X41249800Y-70380400D02*
X41249800Y-60480400D01*
X44449800Y-60480400D02*
X44449800Y-70380400D01*
X44449800Y-70380400D02*
X41249800Y-70380400D01*
%TD*%
%LPC*%
D19*
%TO.C,TP5*%
X22987000Y-49276000D03*
%TD*%
D20*
%TO.C,C6*%
X49102100Y-62255400D03*
X51177100Y-62255400D03*
%TD*%
D21*
%TO.C,H4*%
X56184800Y-91262200D03*
%TD*%
D22*
%TO.C,R7*%
X49072800Y-22961600D03*
X49072800Y-20961600D03*
%TD*%
D23*
%TO.C,C1*%
X44602400Y-78663800D03*
X42527400Y-78663800D03*
%TD*%
D24*
%TO.C,C5*%
X27228800Y-68609300D03*
X27228800Y-70684300D03*
%TD*%
D25*
%TO.C,R4*%
X16941800Y-73853800D03*
X16941800Y-75853800D03*
%TD*%
D24*
%TO.C,C4*%
X27178000Y-49203700D03*
X27178000Y-51278700D03*
%TD*%
D22*
%TO.C,R8*%
X17119600Y-18856200D03*
X17119600Y-16856200D03*
%TD*%
D19*
%TO.C,TP7*%
X23012400Y-68580000D03*
%TD*%
D26*
%TO.C,J1*%
X7975600Y-53975000D03*
D27*
X5435600Y-53975000D03*
X7975600Y-51435000D03*
X5435600Y-51435000D03*
X7975600Y-48895000D03*
X5435600Y-48895000D03*
X7975600Y-46355000D03*
X5435600Y-46355000D03*
X7975600Y-43815000D03*
X5435600Y-43815000D03*
X7975600Y-41275000D03*
X5435600Y-41275000D03*
%TD*%
D25*
%TO.C,R10*%
X17043400Y-67351400D03*
X17043400Y-69351400D03*
%TD*%
D28*
%TO.C,RV8*%
X8382000Y-83820000D03*
X5842000Y-83820000D03*
X3302000Y-83820000D03*
%TD*%
%TO.C,RV5*%
X8382000Y-18626667D03*
X5842000Y-18626667D03*
X3302000Y-18626667D03*
%TD*%
D19*
%TO.C,TP8*%
X23012400Y-77368400D03*
%TD*%
D29*
%TO.C,J3*%
X54991000Y-37439600D03*
D30*
X57531000Y-37439600D03*
X54991000Y-39979600D03*
X57531000Y-39979600D03*
X54991000Y-42519600D03*
X57531000Y-42519600D03*
X54991000Y-45059600D03*
X57531000Y-45059600D03*
X54991000Y-47599600D03*
X57531000Y-47599600D03*
X54991000Y-50139600D03*
X57531000Y-50139600D03*
X54991000Y-52679600D03*
X57531000Y-52679600D03*
X54991000Y-55219600D03*
X57531000Y-55219600D03*
X54991000Y-57759600D03*
X57531000Y-57759600D03*
X54991000Y-60299600D03*
X57531000Y-60299600D03*
X54991000Y-62839600D03*
X57531000Y-62839600D03*
X54991000Y-65379600D03*
X57531000Y-65379600D03*
X54991000Y-67919600D03*
X57531000Y-67919600D03*
X54991000Y-70459600D03*
X57531000Y-70459600D03*
X54991000Y-72999600D03*
X57531000Y-72999600D03*
%TD*%
D22*
%TO.C,R5*%
X55016400Y-30581600D03*
X55016400Y-28581600D03*
%TD*%
D28*
%TO.C,RV7*%
X8382000Y-68580000D03*
X5842000Y-68580000D03*
X3302000Y-68580000D03*
%TD*%
D24*
%TO.C,C8*%
X27203400Y-22101900D03*
X27203400Y-24176900D03*
%TD*%
D22*
%TO.C,R9*%
X17043400Y-34223200D03*
X17043400Y-32223200D03*
%TD*%
D19*
%TO.C,TP2*%
X22987000Y-22225000D03*
%TD*%
D22*
%TO.C,R6*%
X49072800Y-30556200D03*
X49072800Y-28556200D03*
%TD*%
D19*
%TO.C,TP6*%
X22987000Y-58293000D03*
%TD*%
D25*
%TO.C,R3*%
X17043400Y-61077600D03*
X17043400Y-63077600D03*
%TD*%
D19*
%TO.C,TP3*%
X23012400Y-31267400D03*
%TD*%
D24*
%TO.C,C10*%
X27178000Y-58220700D03*
X27178000Y-60295700D03*
%TD*%
D28*
%TO.C,RV3*%
X8382000Y-25823333D03*
X5842000Y-25823333D03*
X3302000Y-25823333D03*
%TD*%
D29*
%TO.C,J2*%
X47802800Y-53441600D03*
D30*
X45262800Y-53441600D03*
X47802800Y-50901600D03*
X45262800Y-50901600D03*
X47802800Y-48361600D03*
X45262800Y-48361600D03*
X47802800Y-45821600D03*
X45262800Y-45821600D03*
%TD*%
D31*
%TO.C,CON2*%
X54388000Y-83897600D03*
X54388000Y-82897600D03*
X54388000Y-81897600D03*
X54388000Y-80897600D03*
D32*
X57810400Y-85598000D03*
X57810400Y-79146400D03*
%TD*%
D33*
%TO.C,IC1*%
X53304400Y-23011600D03*
X55204400Y-23011600D03*
X54254400Y-20911600D03*
%TD*%
D24*
%TO.C,C2*%
X27178000Y-13211900D03*
X27178000Y-15286900D03*
%TD*%
D21*
%TO.C,H2*%
X56235600Y-3982200D03*
%TD*%
D24*
%TO.C,C9*%
X27178000Y-40110500D03*
X27178000Y-42185500D03*
%TD*%
D25*
%TO.C,R11*%
X16992600Y-81423000D03*
X16992600Y-83423000D03*
%TD*%
D22*
%TO.C,R1*%
X17119600Y-11388600D03*
X17119600Y-9388600D03*
%TD*%
D20*
%TO.C,C11*%
X49000500Y-58013600D03*
X51075500Y-58013600D03*
%TD*%
D19*
%TO.C,TP1*%
X22987000Y-13131800D03*
%TD*%
D28*
%TO.C,RV4*%
X8382000Y-60960000D03*
X5842000Y-60960000D03*
X3302000Y-60960000D03*
%TD*%
D24*
%TO.C,C3*%
X27152600Y-31235016D03*
X27152600Y-33310016D03*
%TD*%
D28*
%TO.C,RV2*%
X8382000Y-76200000D03*
X5842000Y-76200000D03*
X3302000Y-76200000D03*
%TD*%
D21*
%TO.C,H1*%
X12000000Y-3982200D03*
%TD*%
%TO.C,H3*%
X12000000Y-91262200D03*
%TD*%
D28*
%TO.C,RV6*%
X8382000Y-33020000D03*
X5842000Y-33020000D03*
X3302000Y-33020000D03*
%TD*%
D24*
%TO.C,C7*%
X27228800Y-77372300D03*
X27228800Y-79447300D03*
%TD*%
D29*
%TO.C,CON1*%
X49123600Y-92252800D03*
D30*
X46583600Y-92252800D03*
X44043600Y-92252800D03*
X41503600Y-92252800D03*
%TD*%
D28*
%TO.C,RV1*%
X8382000Y-11430000D03*
X5842000Y-11430000D03*
X3302000Y-11430000D03*
%TD*%
D22*
%TO.C,R2*%
X17094200Y-26450800D03*
X17094200Y-24450800D03*
%TD*%
D19*
%TO.C,TP4*%
X22987000Y-40259000D03*
%TD*%
D34*
%TO.C,IC2*%
X40137800Y-60985400D03*
X40137800Y-62255400D03*
X40137800Y-63525400D03*
X40137800Y-64795400D03*
X40137800Y-66065400D03*
X40137800Y-67335400D03*
X40137800Y-68605400D03*
X40137800Y-69875400D03*
X45561800Y-69875400D03*
X45561800Y-68605400D03*
X45561800Y-67335400D03*
X45561800Y-66065400D03*
X45561800Y-64795400D03*
X45561800Y-63525400D03*
X45561800Y-62255400D03*
X45561800Y-60985400D03*
%TD*%
%LPD*%
M02*
