%TF.GenerationSoftware,KiCad,Pcbnew,9.0.2*%
%TF.CreationDate,2025-07-04T16:32:19+10:00*%
%TF.ProjectId,v9_equip_analog_IDC,76395f65-7175-4697-905f-616e616c6f67,rev?*%
%TF.SameCoordinates,Original*%
%TF.FileFunction,Legend,Bot*%
%TF.FilePolarity,Positive*%
%FSLAX46Y46*%
G04 Gerber Fmt 4.6, Leading zero omitted, Abs format (unit mm)*
G04 Created by KiCad (PCBNEW 9.0.2) date 2025-07-04 16:32:19*
%MOMM*%
%LPD*%
G01*
G04 APERTURE LIST*
%ADD10C,0.066145*%
%ADD11C,0.053477*%
%ADD12C,0.100000*%
%ADD13C,0.254000*%
%ADD14R,2.000000X2.000000*%
%ADD15C,3.500000*%
%ADD16R,1.650000X1.650000*%
%ADD17C,1.650000*%
%ADD18C,1.440000*%
%ADD19R,1.700000X1.700000*%
%ADD20C,1.700000*%
G04 APERTURE END LIST*
D10*
X35381052Y-19820879D02*
X35466161Y-19826914D01*
X35544611Y-19837683D01*
X35562589Y-19841080D01*
X35579485Y-19844715D01*
X35595333Y-19848590D01*
X35610167Y-19852709D01*
X35624018Y-19857076D01*
X35636919Y-19861693D01*
X35648905Y-19866563D01*
X35660007Y-19871690D01*
X35670259Y-19877077D01*
X35679694Y-19882727D01*
X35688345Y-19888644D01*
X35696244Y-19894830D01*
X35703425Y-19901289D01*
X35709920Y-19908023D01*
X35715764Y-19915037D01*
X35720988Y-19922334D01*
X35725625Y-19929915D01*
X35729709Y-19937786D01*
X35733273Y-19945948D01*
X35736350Y-19954406D01*
X35738972Y-19963162D01*
X35741172Y-19972219D01*
X35744441Y-19991252D01*
X35746420Y-20011529D01*
X35747372Y-20033076D01*
X35747563Y-20055919D01*
X35747255Y-20080084D01*
X35747694Y-20114520D01*
X35751819Y-20152804D01*
X35759624Y-20194389D01*
X35771100Y-20238732D01*
X35786242Y-20285285D01*
X35805041Y-20333503D01*
X35827490Y-20382842D01*
X35853582Y-20432755D01*
X35883309Y-20482698D01*
X35916664Y-20532124D01*
X35953640Y-20580489D01*
X35994229Y-20627247D01*
X36038424Y-20671852D01*
X36061872Y-20693177D01*
X36086218Y-20713759D01*
X36111463Y-20733531D01*
X36137604Y-20752423D01*
X36164641Y-20770368D01*
X36192573Y-20787298D01*
X36192574Y-20787298D01*
X36192575Y-20787299D01*
X36192575Y-20787300D01*
X36192576Y-20787300D01*
X36192577Y-20787302D01*
X36192577Y-20787303D01*
X36192578Y-20787304D01*
X36192579Y-20787304D01*
X36192579Y-20787305D01*
X36192580Y-20787305D01*
X36192580Y-20787306D01*
X36192581Y-20787306D01*
X36227895Y-20809209D01*
X36258407Y-20830840D01*
X36284255Y-20852145D01*
X36305576Y-20873071D01*
X36322509Y-20893565D01*
X36335192Y-20913574D01*
X36343761Y-20933045D01*
X36348356Y-20951925D01*
X36349114Y-20970161D01*
X36346173Y-20987699D01*
X36339670Y-21004487D01*
X36329744Y-21020472D01*
X36316533Y-21035600D01*
X36300174Y-21049818D01*
X36280806Y-21063074D01*
X36258566Y-21075313D01*
X36233592Y-21086484D01*
X36206022Y-21096533D01*
X36143645Y-21113052D01*
X36072539Y-21124447D01*
X35993807Y-21130291D01*
X35908551Y-21130162D01*
X35817875Y-21123634D01*
X35722883Y-21110282D01*
X35624676Y-21089681D01*
X35593265Y-21082485D01*
X35562814Y-21076324D01*
X35533299Y-21071151D01*
X35504698Y-21066920D01*
X35476987Y-21063581D01*
X35450143Y-21061088D01*
X35424145Y-21059393D01*
X35398968Y-21058448D01*
X35374590Y-21058206D01*
X35350988Y-21058620D01*
X35306021Y-21061221D01*
X35263883Y-21065873D01*
X35224391Y-21072194D01*
X35187361Y-21079803D01*
X35152611Y-21088320D01*
X35119957Y-21097364D01*
X35089216Y-21106555D01*
X35032741Y-21123852D01*
X35006639Y-21131198D01*
X34981718Y-21137167D01*
X34948195Y-21143404D01*
X34914306Y-21148879D01*
X34880154Y-21153418D01*
X34845839Y-21156844D01*
X34811467Y-21158982D01*
X34777138Y-21159656D01*
X34742956Y-21158689D01*
X34709023Y-21155907D01*
X34675442Y-21151134D01*
X34642315Y-21144194D01*
X34609746Y-21134911D01*
X34577835Y-21123109D01*
X34562160Y-21116208D01*
X34546688Y-21108613D01*
X34531432Y-21100299D01*
X34516404Y-21091246D01*
X34501619Y-21081432D01*
X34487089Y-21070834D01*
X34472826Y-21059431D01*
X34458843Y-21047201D01*
X34438458Y-21028145D01*
X34419952Y-21009374D01*
X34403273Y-20990851D01*
X34388366Y-20972538D01*
X34375175Y-20954400D01*
X34363647Y-20936399D01*
X34353727Y-20918497D01*
X34345360Y-20900658D01*
X34338492Y-20882845D01*
X34333069Y-20865020D01*
X34329035Y-20847147D01*
X34326337Y-20829188D01*
X34324919Y-20811106D01*
X34324728Y-20792865D01*
X34325709Y-20774427D01*
X34327807Y-20755755D01*
X34330968Y-20736813D01*
X34335137Y-20717562D01*
X34346282Y-20677989D01*
X34360805Y-20636739D01*
X34378272Y-20593516D01*
X34420289Y-20499965D01*
X34468843Y-20394964D01*
X34470602Y-20390094D01*
X34471683Y-20385321D01*
X34472128Y-20380640D01*
X34471976Y-20376045D01*
X34471269Y-20371530D01*
X34470048Y-20367090D01*
X34468353Y-20362720D01*
X34466225Y-20358414D01*
X34463705Y-20354166D01*
X34460834Y-20349972D01*
X34457652Y-20345825D01*
X34454200Y-20341720D01*
X34446650Y-20333615D01*
X34438510Y-20325613D01*
X34421765Y-20309740D01*
X34413812Y-20301782D01*
X34406573Y-20293750D01*
X34403324Y-20289693D01*
X34400375Y-20285602D01*
X34397769Y-20281470D01*
X34395545Y-20277293D01*
X34393744Y-20273064D01*
X34392407Y-20268778D01*
X34391575Y-20264431D01*
X34391289Y-20260015D01*
X34393909Y-20226724D01*
X34400696Y-20194789D01*
X34411449Y-20164203D01*
X34425967Y-20134962D01*
X34444049Y-20107058D01*
X34465494Y-20080487D01*
X34490101Y-20055242D01*
X34517669Y-20031317D01*
X34547995Y-20008706D01*
X34580881Y-19987403D01*
X34653522Y-19948698D01*
X34733984Y-19915155D01*
X34820658Y-19886726D01*
X34911935Y-19863364D01*
X35006205Y-19845020D01*
X35101861Y-19831647D01*
X35197294Y-19823197D01*
X35290894Y-19819624D01*
X35381052Y-19820879D01*
D11*
X29826924Y-17186865D02*
X29826916Y-17186865D01*
X29826924Y-17186858D01*
X29826924Y-17186865D01*
G36*
X29826924Y-17186865D02*
G01*
X29826916Y-17186865D01*
X29826924Y-17186858D01*
X29826924Y-17186865D01*
G37*
D10*
X30977188Y-20401356D02*
X30986248Y-20414951D01*
X31006391Y-20441302D01*
X31029027Y-20466658D01*
X31053906Y-20491164D01*
X31080778Y-20514968D01*
X31109395Y-20538215D01*
X31139507Y-20561052D01*
X31170865Y-20583626D01*
X31303772Y-20674213D01*
X31371223Y-20721733D01*
X31404326Y-20746562D01*
X31436680Y-20772299D01*
X31452210Y-20785748D01*
X31467362Y-20800265D01*
X31482128Y-20815763D01*
X31496498Y-20832152D01*
X31524006Y-20867254D01*
X31549806Y-20904862D01*
X31573818Y-20944272D01*
X31595961Y-20984777D01*
X31616154Y-21025670D01*
X31634317Y-21066244D01*
X31650370Y-21105793D01*
X31664231Y-21143611D01*
X31675820Y-21178991D01*
X31685056Y-21211226D01*
X31691860Y-21239610D01*
X31696150Y-21263437D01*
X31697845Y-21282000D01*
X31697695Y-21289086D01*
X31696866Y-21294592D01*
X31694693Y-21298860D01*
X31691945Y-21302327D01*
X31688647Y-21305037D01*
X31684826Y-21307038D01*
X31680506Y-21308376D01*
X31675713Y-21309098D01*
X31670473Y-21309251D01*
X31664811Y-21308882D01*
X31652327Y-21306762D01*
X31638464Y-21303111D01*
X31623429Y-21298304D01*
X31607427Y-21292714D01*
X31573340Y-21280677D01*
X31555666Y-21274977D01*
X31537846Y-21269987D01*
X31520084Y-21266081D01*
X31502587Y-21263633D01*
X31494001Y-21263072D01*
X31485558Y-21263015D01*
X31477284Y-21263509D01*
X31469204Y-21264601D01*
X31461583Y-21266678D01*
X31454650Y-21269596D01*
X31448372Y-21273299D01*
X31442720Y-21277735D01*
X31437661Y-21282850D01*
X31433164Y-21288591D01*
X31429199Y-21294903D01*
X31425734Y-21301734D01*
X31422738Y-21309030D01*
X31420180Y-21316738D01*
X31418029Y-21324803D01*
X31416254Y-21333172D01*
X31413705Y-21350609D01*
X31412285Y-21368622D01*
X31411744Y-21386780D01*
X31411834Y-21404657D01*
X31412909Y-21437852D01*
X31413516Y-21464780D01*
X31413021Y-21474824D01*
X31411661Y-21482015D01*
X31409184Y-21483665D01*
X31406448Y-21484433D01*
X31403458Y-21484375D01*
X31400217Y-21483548D01*
X31396731Y-21482007D01*
X31393004Y-21479808D01*
X31384845Y-21473660D01*
X31375777Y-21465549D01*
X31365837Y-21455923D01*
X31343487Y-21433911D01*
X31331151Y-21422418D01*
X31318089Y-21411196D01*
X31304338Y-21400692D01*
X31297215Y-21395848D01*
X31289934Y-21391351D01*
X31282499Y-21387257D01*
X31274915Y-21383622D01*
X31267186Y-21380500D01*
X31259317Y-21377949D01*
X31251312Y-21376024D01*
X31243177Y-21374781D01*
X31234915Y-21374275D01*
X31226531Y-21374563D01*
X31218106Y-21375938D01*
X31210174Y-21378152D01*
X31202714Y-21381150D01*
X31195708Y-21384878D01*
X31189133Y-21389281D01*
X31182971Y-21394305D01*
X31177201Y-21399895D01*
X31171804Y-21405997D01*
X31166758Y-21412557D01*
X31162043Y-21419520D01*
X31157640Y-21426832D01*
X31153529Y-21434438D01*
X31146099Y-21450314D01*
X31139593Y-21466714D01*
X31133849Y-21483201D01*
X31128707Y-21499341D01*
X31119579Y-21528836D01*
X31115272Y-21541320D01*
X31110921Y-21551714D01*
X31108678Y-21555991D01*
X31106364Y-21559582D01*
X31103958Y-21562433D01*
X31101441Y-21564489D01*
X31097827Y-21566307D01*
X31094019Y-21566672D01*
X31090013Y-21565685D01*
X31085805Y-21563445D01*
X31081392Y-21560051D01*
X31076770Y-21555605D01*
X31066885Y-21543950D01*
X31018256Y-21475150D01*
X31003681Y-21456394D01*
X30988079Y-21438612D01*
X30979884Y-21430335D01*
X30971421Y-21422601D01*
X30962688Y-21415510D01*
X30953679Y-21409160D01*
X30944392Y-21403653D01*
X30934823Y-21399087D01*
X30924968Y-21395563D01*
X30914823Y-21393180D01*
X30904386Y-21392038D01*
X30893651Y-21392236D01*
X30882616Y-21393875D01*
X30871277Y-21397054D01*
X30860308Y-21401437D01*
X30849904Y-21406577D01*
X30840042Y-21412414D01*
X30830701Y-21418886D01*
X30821858Y-21425931D01*
X30813492Y-21433486D01*
X30805580Y-21441492D01*
X30798100Y-21449884D01*
X30791031Y-21458603D01*
X30784350Y-21467586D01*
X30772066Y-21486096D01*
X30761071Y-21504921D01*
X30751191Y-21523567D01*
X30734070Y-21558344D01*
X30726476Y-21573486D01*
X30719294Y-21586472D01*
X30715801Y-21592002D01*
X30712345Y-21596808D01*
X30708904Y-21600827D01*
X30705456Y-21603999D01*
X30701978Y-21606260D01*
X30698449Y-21607551D01*
X30694847Y-21607808D01*
X30691149Y-21606970D01*
X30670976Y-21596174D01*
X30652172Y-21581285D01*
X30634682Y-21562544D01*
X30618453Y-21540193D01*
X30603432Y-21514472D01*
X30589565Y-21485623D01*
X30565079Y-21419503D01*
X30544566Y-21343764D01*
X30527596Y-21260334D01*
X30513742Y-21171142D01*
X30502574Y-21078117D01*
X30486582Y-20888287D01*
X30476189Y-20706275D01*
X30467966Y-20547516D01*
X30458482Y-20427442D01*
X30495765Y-20429903D01*
X30532537Y-20431669D01*
X30568752Y-20432746D01*
X30604366Y-20433142D01*
X30639334Y-20432865D01*
X30673614Y-20431922D01*
X30707161Y-20430320D01*
X30739931Y-20428066D01*
X30771881Y-20425168D01*
X30802965Y-20421633D01*
X30833140Y-20417469D01*
X30862363Y-20412682D01*
X30890589Y-20407280D01*
X30917774Y-20401270D01*
X30943874Y-20394660D01*
X30968845Y-20387457D01*
X30977188Y-20401356D01*
D11*
X29750953Y-17258928D02*
X29679979Y-17333131D01*
X29613820Y-17409212D01*
X29552292Y-17486920D01*
X29495213Y-17566001D01*
X29442399Y-17646202D01*
X29393668Y-17727271D01*
X29348837Y-17808955D01*
X29307722Y-17891001D01*
X29270142Y-17973157D01*
X29235912Y-18055168D01*
X29204849Y-18136783D01*
X29176772Y-18217749D01*
X29151496Y-18297813D01*
X29128840Y-18376721D01*
X29108619Y-18454222D01*
X29101142Y-18486803D01*
X29094805Y-18519303D01*
X29089560Y-18551714D01*
X29085358Y-18584024D01*
X29082150Y-18616227D01*
X29079887Y-18648311D01*
X29078520Y-18680267D01*
X29078000Y-18712088D01*
X29065529Y-18747334D01*
X29052070Y-18782346D01*
X29037666Y-18817169D01*
X29022362Y-18851855D01*
X29006200Y-18886451D01*
X28989225Y-18921005D01*
X28953009Y-18990184D01*
X28914064Y-19059781D01*
X28872740Y-19130185D01*
X28784351Y-19274969D01*
X27783635Y-17190215D01*
X29826916Y-17186865D01*
X29750953Y-17258928D01*
G36*
X29750953Y-17258928D02*
G01*
X29679979Y-17333131D01*
X29613820Y-17409212D01*
X29552292Y-17486920D01*
X29495213Y-17566001D01*
X29442399Y-17646202D01*
X29393668Y-17727271D01*
X29348837Y-17808955D01*
X29307722Y-17891001D01*
X29270142Y-17973157D01*
X29235912Y-18055168D01*
X29204849Y-18136783D01*
X29176772Y-18217749D01*
X29151496Y-18297813D01*
X29128840Y-18376721D01*
X29108619Y-18454222D01*
X29101142Y-18486803D01*
X29094805Y-18519303D01*
X29089560Y-18551714D01*
X29085358Y-18584024D01*
X29082150Y-18616227D01*
X29079887Y-18648311D01*
X29078520Y-18680267D01*
X29078000Y-18712088D01*
X29065529Y-18747334D01*
X29052070Y-18782346D01*
X29037666Y-18817169D01*
X29022362Y-18851855D01*
X29006200Y-18886451D01*
X28989225Y-18921005D01*
X28953009Y-18990184D01*
X28914064Y-19059781D01*
X28872740Y-19130185D01*
X28784351Y-19274969D01*
X27783635Y-17190215D01*
X29826916Y-17186865D01*
X29750953Y-17258928D01*
G37*
D10*
X31554889Y-16585746D02*
X31680794Y-16592045D01*
X31812533Y-16603488D01*
X31949139Y-16620223D01*
X32089645Y-16642402D01*
X32233082Y-16670175D01*
X32378484Y-16703690D01*
X32524882Y-16743100D01*
X32671310Y-16788553D01*
X32816800Y-16840200D01*
X32960384Y-16898191D01*
X33101095Y-16962675D01*
X33237965Y-17033804D01*
X33294125Y-17066077D01*
X33347332Y-17098674D01*
X33397771Y-17131553D01*
X33445627Y-17164674D01*
X33534329Y-17231473D01*
X33614913Y-17298737D01*
X33688857Y-17366132D01*
X33757637Y-17433326D01*
X33885614Y-17565778D01*
X33947765Y-17630370D01*
X34010660Y-17693427D01*
X34075775Y-17754618D01*
X34144588Y-17813609D01*
X34218576Y-17870067D01*
X34257972Y-17897242D01*
X34299215Y-17923659D01*
X34342490Y-17949275D01*
X34387982Y-17974051D01*
X34435876Y-17997943D01*
X34486355Y-18020911D01*
X34430834Y-18013770D01*
X34376848Y-18010060D01*
X34324394Y-18009635D01*
X34273469Y-18012354D01*
X34224068Y-18018073D01*
X34176188Y-18026648D01*
X34129825Y-18037937D01*
X34084975Y-18051796D01*
X34041636Y-18068082D01*
X33999803Y-18086652D01*
X33959472Y-18107362D01*
X33920640Y-18130070D01*
X33883303Y-18154632D01*
X33847458Y-18180904D01*
X33813100Y-18208745D01*
X33780227Y-18238010D01*
X33718919Y-18300240D01*
X33663503Y-18366449D01*
X33613951Y-18435492D01*
X33570234Y-18506222D01*
X33532321Y-18577494D01*
X33500183Y-18648162D01*
X33473792Y-18717080D01*
X33453118Y-18783102D01*
X33434774Y-18852673D01*
X33419300Y-18922650D01*
X33406926Y-18992972D01*
X33397883Y-19063575D01*
X33392402Y-19134398D01*
X33390715Y-19205379D01*
X33393051Y-19276454D01*
X33399642Y-19347563D01*
X33410719Y-19418642D01*
X33426512Y-19489630D01*
X33447252Y-19560464D01*
X33473171Y-19631081D01*
X33504500Y-19701421D01*
X33541468Y-19771420D01*
X33584307Y-19841016D01*
X33633248Y-19910147D01*
X33615580Y-19949686D01*
X33597450Y-19986209D01*
X33579101Y-20020272D01*
X33560773Y-20052432D01*
X33525152Y-20113267D01*
X33508342Y-20143055D01*
X33492521Y-20173165D01*
X33477932Y-20204154D01*
X33464816Y-20236578D01*
X33458886Y-20253501D01*
X33453415Y-20270993D01*
X33448433Y-20289121D01*
X33443971Y-20307956D01*
X33440059Y-20327566D01*
X33436726Y-20348023D01*
X33434004Y-20369394D01*
X33431922Y-20391751D01*
X33430510Y-20415161D01*
X33429800Y-20439696D01*
X33429820Y-20465424D01*
X33430602Y-20492414D01*
X33369865Y-20498333D01*
X33315285Y-20502727D01*
X33264106Y-20505247D01*
X33238930Y-20505694D01*
X33213571Y-20505540D01*
X33187685Y-20504741D01*
X33160926Y-20503254D01*
X33132951Y-20501035D01*
X33103414Y-20498039D01*
X33071972Y-20494223D01*
X33038280Y-20489543D01*
X32962767Y-20477415D01*
X32953228Y-20450141D01*
X32942948Y-20423573D01*
X32920432Y-20372329D01*
X32895746Y-20323239D01*
X32869419Y-20275854D01*
X32841977Y-20229729D01*
X32813949Y-20184416D01*
X32758246Y-20094443D01*
X32731625Y-20048889D01*
X32706529Y-20002362D01*
X32683486Y-19954414D01*
X32663022Y-19904599D01*
X32653923Y-19878852D01*
X32645666Y-19852471D01*
X32638318Y-19825400D01*
X32631946Y-19797583D01*
X32626613Y-19768964D01*
X32622388Y-19739488D01*
X32619336Y-19709099D01*
X32617522Y-19677740D01*
X32574908Y-19658963D01*
X32521120Y-19639517D01*
X32457474Y-19619902D01*
X32385285Y-19600620D01*
X32305870Y-19582174D01*
X32220543Y-19565063D01*
X32130621Y-19549790D01*
X32037419Y-19536857D01*
X31942253Y-19526764D01*
X31846438Y-19520013D01*
X31751290Y-19517106D01*
X31658125Y-19518545D01*
X31568258Y-19524830D01*
X31483004Y-19536463D01*
X31403680Y-19553946D01*
X31366653Y-19565038D01*
X31331602Y-19577780D01*
X31331604Y-19577787D01*
X31309033Y-19649916D01*
X31283088Y-19718352D01*
X31254496Y-19783265D01*
X31223988Y-19844829D01*
X31192293Y-19903216D01*
X31160140Y-19958597D01*
X31097375Y-20061031D01*
X31041530Y-20153508D01*
X31018025Y-20196443D01*
X30998438Y-20237405D01*
X30983497Y-20276565D01*
X30977997Y-20295524D01*
X30973933Y-20314097D01*
X30971394Y-20332306D01*
X30970474Y-20350172D01*
X30971261Y-20367717D01*
X30973849Y-20384962D01*
X30871902Y-20412920D01*
X30818172Y-20426430D01*
X30789952Y-20432555D01*
X30760573Y-20438065D01*
X30729845Y-20442814D01*
X30697578Y-20446655D01*
X30663582Y-20449441D01*
X30627665Y-20451027D01*
X30589638Y-20451265D01*
X30549309Y-20450010D01*
X30506488Y-20447115D01*
X30460984Y-20442434D01*
X30459700Y-20430438D01*
X30457307Y-20417891D01*
X30453882Y-20404812D01*
X30449503Y-20391220D01*
X30438195Y-20362580D01*
X30424007Y-20332128D01*
X30407561Y-20300022D01*
X30389480Y-20266418D01*
X30350907Y-20195348D01*
X30331661Y-20158196D01*
X30313272Y-20120177D01*
X30296364Y-20081448D01*
X30281559Y-20042166D01*
X30275141Y-20022367D01*
X30269481Y-20002488D01*
X30264659Y-19982551D01*
X30260753Y-19962573D01*
X30257839Y-19942575D01*
X30255997Y-19922577D01*
X30255303Y-19902598D01*
X30255836Y-19882658D01*
X30218459Y-19887278D01*
X30183036Y-19890804D01*
X30149232Y-19893195D01*
X30116714Y-19894412D01*
X30085150Y-19894413D01*
X30054204Y-19893158D01*
X30023544Y-19890608D01*
X29992837Y-19886721D01*
X29961748Y-19881459D01*
X29929945Y-19874779D01*
X29897094Y-19866642D01*
X29862861Y-19857008D01*
X29826913Y-19845837D01*
X29788917Y-19833088D01*
X29748538Y-19818720D01*
X29705444Y-19802694D01*
X29675121Y-19789632D01*
X29644280Y-19773927D01*
X29613048Y-19755657D01*
X29581552Y-19734905D01*
X29549918Y-19711749D01*
X29518274Y-19686271D01*
X29486746Y-19658549D01*
X29455461Y-19628664D01*
X29424547Y-19596696D01*
X29394129Y-19562725D01*
X29364336Y-19526832D01*
X29335293Y-19489096D01*
X29307128Y-19449597D01*
X29279967Y-19408416D01*
X29253938Y-19365632D01*
X29229167Y-19321326D01*
X29205782Y-19275578D01*
X29183909Y-19228467D01*
X29163674Y-19180075D01*
X29145206Y-19130480D01*
X29128631Y-19079763D01*
X29114075Y-19028005D01*
X29101666Y-18975284D01*
X29091530Y-18921682D01*
X29083795Y-18867278D01*
X29078587Y-18812153D01*
X29076033Y-18756386D01*
X29076261Y-18700058D01*
X29079396Y-18643248D01*
X29085566Y-18586037D01*
X29094898Y-18528505D01*
X29107519Y-18470732D01*
X29143798Y-18336325D01*
X29187605Y-18198243D01*
X29239900Y-18057789D01*
X29301642Y-17916266D01*
X29373792Y-17774977D01*
X29457309Y-17635226D01*
X29553155Y-17498316D01*
X29606001Y-17431333D01*
X29662289Y-17365549D01*
X29722140Y-17301127D01*
X29785672Y-17238230D01*
X29853007Y-17177020D01*
X29924263Y-17117661D01*
X29999562Y-17060315D01*
X30079023Y-17005145D01*
X30162767Y-16952314D01*
X30250912Y-16901985D01*
X30343580Y-16854322D01*
X30440890Y-16809486D01*
X30542963Y-16767641D01*
X30649917Y-16728949D01*
X30761875Y-16693574D01*
X30878954Y-16661678D01*
X31001276Y-16633425D01*
X31128960Y-16608977D01*
X31221853Y-16596205D01*
X31324451Y-16587976D01*
X31435785Y-16584439D01*
X31554889Y-16585746D01*
D11*
X33681719Y-19943721D02*
X33716661Y-19980944D01*
X33753947Y-20017315D01*
X33793625Y-20052786D01*
X33835742Y-20087305D01*
X33880348Y-20120824D01*
X33927489Y-20153292D01*
X33977215Y-20184658D01*
X34029574Y-20214873D01*
X34084614Y-20243886D01*
X34142383Y-20271648D01*
X34202929Y-20298108D01*
X34266301Y-20323216D01*
X34332547Y-20346922D01*
X34401715Y-20369177D01*
X34473853Y-20389929D01*
X34473403Y-20395287D01*
X34473323Y-20395960D01*
X34473225Y-20396635D01*
X34473105Y-20397313D01*
X34472960Y-20397996D01*
X34472787Y-20398683D01*
X34472580Y-20399375D01*
X34472337Y-20400073D01*
X34472053Y-20400778D01*
X34420202Y-20513484D01*
X34397133Y-20564707D01*
X34376638Y-20613018D01*
X34367514Y-20636200D01*
X34359221Y-20658796D01*
X34351824Y-20680854D01*
X34345384Y-20702421D01*
X34339965Y-20723545D01*
X34335630Y-20744274D01*
X34332441Y-20764654D01*
X34330461Y-20784735D01*
X34170395Y-21114431D01*
X34144551Y-21168173D01*
X34115776Y-21134123D01*
X34081244Y-21097050D01*
X34041733Y-21057379D01*
X33998021Y-21015536D01*
X33901106Y-20927032D01*
X33796722Y-20834939D01*
X33590440Y-20653591D01*
X33500989Y-20571138D01*
X33462409Y-20533455D01*
X33429076Y-20498819D01*
X33429594Y-20498739D01*
X33430195Y-20498660D01*
X33430770Y-20498596D01*
X33431334Y-20498544D01*
X33432479Y-20498449D01*
X33433087Y-20498397D01*
X33433737Y-20498335D01*
X33432992Y-20471316D01*
X33433079Y-20445505D01*
X33433963Y-20420838D01*
X33435609Y-20397247D01*
X33437982Y-20374668D01*
X33441047Y-20353033D01*
X33444769Y-20332277D01*
X33449114Y-20312335D01*
X33454046Y-20293139D01*
X33459530Y-20274625D01*
X33465532Y-20256726D01*
X33472017Y-20239377D01*
X33486293Y-20206062D01*
X33502080Y-20174153D01*
X33519099Y-20143123D01*
X33537069Y-20112444D01*
X33574748Y-20050029D01*
X33593896Y-20017238D01*
X33612879Y-19982689D01*
X33631416Y-19945852D01*
X33649228Y-19906202D01*
X33649071Y-19905699D01*
X33681719Y-19943721D01*
G36*
X33681719Y-19943721D02*
G01*
X33716661Y-19980944D01*
X33753947Y-20017315D01*
X33793625Y-20052786D01*
X33835742Y-20087305D01*
X33880348Y-20120824D01*
X33927489Y-20153292D01*
X33977215Y-20184658D01*
X34029574Y-20214873D01*
X34084614Y-20243886D01*
X34142383Y-20271648D01*
X34202929Y-20298108D01*
X34266301Y-20323216D01*
X34332547Y-20346922D01*
X34401715Y-20369177D01*
X34473853Y-20389929D01*
X34473403Y-20395287D01*
X34473323Y-20395960D01*
X34473225Y-20396635D01*
X34473105Y-20397313D01*
X34472960Y-20397996D01*
X34472787Y-20398683D01*
X34472580Y-20399375D01*
X34472337Y-20400073D01*
X34472053Y-20400778D01*
X34420202Y-20513484D01*
X34397133Y-20564707D01*
X34376638Y-20613018D01*
X34367514Y-20636200D01*
X34359221Y-20658796D01*
X34351824Y-20680854D01*
X34345384Y-20702421D01*
X34339965Y-20723545D01*
X34335630Y-20744274D01*
X34332441Y-20764654D01*
X34330461Y-20784735D01*
X34170395Y-21114431D01*
X34144551Y-21168173D01*
X34115776Y-21134123D01*
X34081244Y-21097050D01*
X34041733Y-21057379D01*
X33998021Y-21015536D01*
X33901106Y-20927032D01*
X33796722Y-20834939D01*
X33590440Y-20653591D01*
X33500989Y-20571138D01*
X33462409Y-20533455D01*
X33429076Y-20498819D01*
X33429594Y-20498739D01*
X33430195Y-20498660D01*
X33430770Y-20498596D01*
X33431334Y-20498544D01*
X33432479Y-20498449D01*
X33433087Y-20498397D01*
X33433737Y-20498335D01*
X33432992Y-20471316D01*
X33433079Y-20445505D01*
X33433963Y-20420838D01*
X33435609Y-20397247D01*
X33437982Y-20374668D01*
X33441047Y-20353033D01*
X33444769Y-20332277D01*
X33449114Y-20312335D01*
X33454046Y-20293139D01*
X33459530Y-20274625D01*
X33465532Y-20256726D01*
X33472017Y-20239377D01*
X33486293Y-20206062D01*
X33502080Y-20174153D01*
X33519099Y-20143123D01*
X33537069Y-20112444D01*
X33574748Y-20050029D01*
X33593896Y-20017238D01*
X33612879Y-19982689D01*
X33631416Y-19945852D01*
X33649228Y-19906202D01*
X33649071Y-19905699D01*
X33681719Y-19943721D01*
G37*
D10*
X35950846Y-19430661D02*
X36001891Y-19449698D01*
X36057063Y-19467894D01*
X36115434Y-19485676D01*
X36238066Y-19521712D01*
X36300472Y-19540822D01*
X36362368Y-19561233D01*
X36422828Y-19583371D01*
X36480925Y-19607665D01*
X36535730Y-19634543D01*
X36561609Y-19649085D01*
X36586317Y-19664434D01*
X36609739Y-19680643D01*
X36631759Y-19697766D01*
X36652261Y-19715856D01*
X36671129Y-19734967D01*
X36688246Y-19755153D01*
X36703498Y-19776466D01*
X36716769Y-19798961D01*
X36727941Y-19822691D01*
X36729229Y-19826024D01*
X36729830Y-19828563D01*
X36729776Y-19830366D01*
X36729099Y-19831489D01*
X36727830Y-19831988D01*
X36726000Y-19831919D01*
X36720787Y-19830302D01*
X36683847Y-19812378D01*
X36671854Y-19807284D01*
X36659264Y-19802846D01*
X36652824Y-19801013D01*
X36646329Y-19799513D01*
X36639812Y-19798402D01*
X36633303Y-19797736D01*
X36626834Y-19797571D01*
X36620438Y-19797965D01*
X36614145Y-19798972D01*
X36607987Y-19800650D01*
X36601996Y-19803055D01*
X36596203Y-19806242D01*
X36590640Y-19810269D01*
X36585338Y-19815191D01*
X36580468Y-19820741D01*
X36576157Y-19826148D01*
X36572379Y-19831417D01*
X36569108Y-19836549D01*
X36566317Y-19841550D01*
X36563980Y-19846423D01*
X36562069Y-19851171D01*
X36560559Y-19855798D01*
X36559423Y-19860309D01*
X36558633Y-19864705D01*
X36558165Y-19868992D01*
X36557990Y-19873173D01*
X36558083Y-19877252D01*
X36558417Y-19881231D01*
X36558965Y-19885115D01*
X36559701Y-19888908D01*
X36560598Y-19892613D01*
X36561630Y-19896234D01*
X36563992Y-19903238D01*
X36569162Y-19916396D01*
X36571545Y-19922610D01*
X36573511Y-19928618D01*
X36574270Y-19931555D01*
X36574846Y-19934451D01*
X36575211Y-19937311D01*
X36575338Y-19940138D01*
X36575312Y-19942606D01*
X36574780Y-19944420D01*
X36573762Y-19945628D01*
X36572279Y-19946279D01*
X36570353Y-19946421D01*
X36568005Y-19946102D01*
X36562125Y-19944278D01*
X36525927Y-19928269D01*
X36514550Y-19924029D01*
X36502580Y-19920469D01*
X36496425Y-19919066D01*
X36490185Y-19917979D01*
X36483881Y-19917256D01*
X36477533Y-19916945D01*
X36471164Y-19917096D01*
X36464793Y-19917756D01*
X36458443Y-19918975D01*
X36452134Y-19920801D01*
X36445888Y-19923281D01*
X36439724Y-19926466D01*
X36433666Y-19930403D01*
X36427732Y-19935140D01*
X36422003Y-19940528D01*
X36416984Y-19945911D01*
X36412640Y-19951284D01*
X36408933Y-19956641D01*
X36405827Y-19961979D01*
X36403285Y-19967291D01*
X36401271Y-19972573D01*
X36399748Y-19977820D01*
X36398680Y-19983026D01*
X36398029Y-19988187D01*
X36397759Y-19993298D01*
X36397834Y-19998353D01*
X36398216Y-20003348D01*
X36398870Y-20008278D01*
X36399758Y-20013137D01*
X36400844Y-20017920D01*
X36403463Y-20027241D01*
X36406434Y-20036199D01*
X36412259Y-20052867D01*
X36414527Y-20060496D01*
X36415372Y-20064117D01*
X36415974Y-20067602D01*
X36416298Y-20070947D01*
X36416307Y-20074145D01*
X36415965Y-20077192D01*
X36415233Y-20080084D01*
X36413751Y-20083196D01*
X36411675Y-20085539D01*
X36409039Y-20087163D01*
X36405881Y-20088117D01*
X36402235Y-20088453D01*
X36398137Y-20088221D01*
X36393623Y-20087470D01*
X36388730Y-20086253D01*
X36377944Y-20082615D01*
X36366067Y-20077711D01*
X36340179Y-20065715D01*
X36313354Y-20053484D01*
X36300304Y-20048287D01*
X36287877Y-20044240D01*
X36281986Y-20042773D01*
X36276359Y-20041744D01*
X36271030Y-20041205D01*
X36266035Y-20041204D01*
X36261411Y-20041793D01*
X36257193Y-20043021D01*
X36253416Y-20044939D01*
X36250116Y-20047598D01*
X36246996Y-20050715D01*
X36244192Y-20053966D01*
X36241683Y-20057342D01*
X36239446Y-20060829D01*
X36237460Y-20064417D01*
X36235703Y-20068095D01*
X36234155Y-20071850D01*
X36232793Y-20075671D01*
X36230544Y-20083467D01*
X36228781Y-20091392D01*
X36226031Y-20107259D01*
X36224698Y-20115018D01*
X36223164Y-20122540D01*
X36221256Y-20129733D01*
X36220108Y-20133177D01*
X36218802Y-20136504D01*
X36217316Y-20139704D01*
X36215629Y-20142764D01*
X36213720Y-20145673D01*
X36211566Y-20148419D01*
X36209147Y-20150992D01*
X36206440Y-20153379D01*
X36203425Y-20155570D01*
X36200079Y-20157553D01*
X36194792Y-20159053D01*
X36188360Y-20158927D01*
X36180857Y-20157262D01*
X36172354Y-20154145D01*
X36162924Y-20149662D01*
X36152639Y-20143901D01*
X36129795Y-20128891D01*
X36104399Y-20109810D01*
X36077033Y-20087355D01*
X36048273Y-20062220D01*
X36018700Y-20035101D01*
X35959430Y-19977693D01*
X35903853Y-19920694D01*
X35856603Y-19869670D01*
X35822311Y-19830183D01*
X35822296Y-19830183D01*
X35830122Y-19809271D01*
X35837644Y-19786930D01*
X35844851Y-19763316D01*
X35851732Y-19738581D01*
X35864471Y-19686366D01*
X35875774Y-19631515D01*
X35885551Y-19575257D01*
X35893716Y-19518825D01*
X35900180Y-19463446D01*
X35904854Y-19410353D01*
X35950846Y-19430661D01*
X34469468Y-18008614D02*
X34528566Y-18011786D01*
X34587919Y-18017520D01*
X34647401Y-18025814D01*
X34706884Y-18036665D01*
X34766242Y-18050069D01*
X34825350Y-18066023D01*
X34884080Y-18084524D01*
X34942306Y-18105568D01*
X34999902Y-18129153D01*
X35056740Y-18155275D01*
X35112696Y-18183932D01*
X35167642Y-18215119D01*
X35221452Y-18248833D01*
X35274000Y-18285073D01*
X35325159Y-18323833D01*
X35374802Y-18365112D01*
X35422803Y-18408905D01*
X35469037Y-18455210D01*
X35513375Y-18504023D01*
X35555693Y-18555342D01*
X35595863Y-18609162D01*
X35633758Y-18665482D01*
X35669254Y-18724297D01*
X35702223Y-18785605D01*
X35736563Y-18854477D01*
X35768081Y-18921791D01*
X35796477Y-18988035D01*
X35821449Y-19053701D01*
X35842699Y-19119278D01*
X35859924Y-19185259D01*
X35872826Y-19252132D01*
X35881102Y-19320390D01*
X35884453Y-19390521D01*
X35882577Y-19463018D01*
X35875176Y-19538369D01*
X35861947Y-19617067D01*
X35842592Y-19699601D01*
X35816808Y-19786461D01*
X35784296Y-19878140D01*
X35744755Y-19975126D01*
X35739019Y-19961021D01*
X35732615Y-19947743D01*
X35725561Y-19935268D01*
X35717880Y-19923574D01*
X35709590Y-19912638D01*
X35700712Y-19902436D01*
X35691265Y-19892947D01*
X35681271Y-19884146D01*
X35670750Y-19876012D01*
X35659720Y-19868521D01*
X35648204Y-19861651D01*
X35636220Y-19855378D01*
X35610931Y-19844533D01*
X35584014Y-19835805D01*
X35555632Y-19829009D01*
X35525946Y-19823964D01*
X35495115Y-19820485D01*
X35463303Y-19818390D01*
X35430670Y-19817496D01*
X35397377Y-19817619D01*
X35329458Y-19820189D01*
X35233417Y-19827414D01*
X35143148Y-19836052D01*
X35058501Y-19846228D01*
X34979325Y-19858065D01*
X34905470Y-19871689D01*
X34836787Y-19887224D01*
X34804337Y-19895747D01*
X34773124Y-19904794D01*
X34743128Y-19914381D01*
X34714331Y-19924524D01*
X34686714Y-19935238D01*
X34660259Y-19946538D01*
X34634946Y-19958441D01*
X34610756Y-19970961D01*
X34587672Y-19984114D01*
X34565674Y-19997916D01*
X34544743Y-20012383D01*
X34524860Y-20027530D01*
X34506008Y-20043372D01*
X34488166Y-20059925D01*
X34471317Y-20077204D01*
X34455441Y-20095226D01*
X34440519Y-20114006D01*
X34426534Y-20133559D01*
X34413466Y-20153901D01*
X34401296Y-20175047D01*
X34396306Y-20181344D01*
X34392106Y-20187590D01*
X34388662Y-20193791D01*
X34385943Y-20199954D01*
X34383917Y-20206086D01*
X34382551Y-20212193D01*
X34381814Y-20218283D01*
X34381673Y-20224363D01*
X34382096Y-20230439D01*
X34383052Y-20236518D01*
X34384508Y-20242607D01*
X34386432Y-20248713D01*
X34388792Y-20254843D01*
X34391557Y-20261004D01*
X34398169Y-20273444D01*
X34406013Y-20286089D01*
X34414831Y-20298995D01*
X34434367Y-20325805D01*
X34444570Y-20339820D01*
X34454723Y-20354314D01*
X34464568Y-20369343D01*
X34473848Y-20384962D01*
X34397429Y-20363015D01*
X34324339Y-20339385D01*
X34254521Y-20314131D01*
X34187917Y-20287314D01*
X34124470Y-20258992D01*
X34064124Y-20229225D01*
X34006819Y-20198073D01*
X33952501Y-20165595D01*
X33901110Y-20131850D01*
X33852590Y-20096898D01*
X33806884Y-20060798D01*
X33763934Y-20023611D01*
X33723684Y-19985394D01*
X33686075Y-19946209D01*
X33651050Y-19906114D01*
X33618553Y-19865168D01*
X33588526Y-19823433D01*
X33560912Y-19780965D01*
X33535653Y-19737826D01*
X33512692Y-19694075D01*
X33491972Y-19649771D01*
X33473436Y-19604974D01*
X33457026Y-19559743D01*
X33442686Y-19514138D01*
X33419983Y-19422042D01*
X33404870Y-19329163D01*
X33396888Y-19235976D01*
X33395579Y-19142958D01*
X33395578Y-19142958D01*
X33397599Y-19097122D01*
X33401282Y-19051493D01*
X33406574Y-19006130D01*
X33413422Y-18961094D01*
X33421773Y-18916443D01*
X33431572Y-18872239D01*
X33442768Y-18828540D01*
X33455307Y-18785408D01*
X33469137Y-18742902D01*
X33484203Y-18701081D01*
X33500452Y-18660007D01*
X33517833Y-18619738D01*
X33536290Y-18580335D01*
X33555772Y-18541858D01*
X33576226Y-18504366D01*
X33597597Y-18467919D01*
X33619833Y-18432579D01*
X33642881Y-18398403D01*
X33666687Y-18365453D01*
X33691199Y-18333789D01*
X33716363Y-18303469D01*
X33742126Y-18274555D01*
X33768436Y-18247106D01*
X33795238Y-18221182D01*
X33822480Y-18196844D01*
X33850109Y-18174150D01*
X33878071Y-18153161D01*
X33906313Y-18133937D01*
X33934783Y-18116537D01*
X33963426Y-18101023D01*
X33992191Y-18087453D01*
X34021023Y-18075888D01*
X34073532Y-18058441D01*
X34127307Y-18043583D01*
X34182222Y-18031311D01*
X34238151Y-18021620D01*
X34294966Y-18014508D01*
X34352541Y-18009972D01*
X34410751Y-18008008D01*
X34469468Y-18008614D01*
D11*
X31853428Y-19517963D02*
X31949236Y-19524716D01*
X32044394Y-19534812D01*
X32137589Y-19547748D01*
X32227504Y-19563024D01*
X32312823Y-19580137D01*
X32392232Y-19598586D01*
X32464416Y-19617870D01*
X32528058Y-19637486D01*
X32581843Y-19656934D01*
X32624456Y-19675711D01*
X32626270Y-19707070D01*
X32629323Y-19737459D01*
X32633550Y-19766934D01*
X32638883Y-19795551D01*
X32645258Y-19823366D01*
X32652608Y-19850435D01*
X32660867Y-19876813D01*
X32669969Y-19902556D01*
X32690439Y-19952363D01*
X32713489Y-20000302D01*
X32738592Y-20046820D01*
X32765220Y-20092363D01*
X32820939Y-20182316D01*
X32848973Y-20227619D01*
X32876420Y-20273736D01*
X32902752Y-20321113D01*
X32927441Y-20370198D01*
X32949959Y-20421438D01*
X32960239Y-20448005D01*
X32969778Y-20475279D01*
X32970584Y-20475443D01*
X32971326Y-20475573D01*
X32972023Y-20475680D01*
X32972698Y-20475776D01*
X32973372Y-20475871D01*
X32974065Y-20475979D01*
X32974800Y-20476111D01*
X32975596Y-20476278D01*
X32982864Y-20520811D01*
X32987820Y-20566486D01*
X32990710Y-20613042D01*
X32991779Y-20660220D01*
X32991275Y-20707759D01*
X32989442Y-20755399D01*
X32982777Y-20849942D01*
X32964339Y-21028791D01*
X32956503Y-21108933D01*
X32953792Y-21145773D01*
X32952214Y-21180113D01*
X32952261Y-21214216D01*
X32953292Y-21250525D01*
X32955233Y-21288431D01*
X32958012Y-21327326D01*
X32961554Y-21366603D01*
X32965785Y-21405653D01*
X32970633Y-21443868D01*
X32976023Y-21480642D01*
X32981883Y-21515366D01*
X32988138Y-21547432D01*
X32994715Y-21576232D01*
X33001540Y-21601159D01*
X33008540Y-21621605D01*
X33015641Y-21636962D01*
X33019206Y-21642542D01*
X33022770Y-21646622D01*
X33026321Y-21649125D01*
X33029852Y-21649977D01*
X33034253Y-21650783D01*
X33038553Y-21650891D01*
X33042769Y-21650348D01*
X33046918Y-21649203D01*
X33051018Y-21647503D01*
X33055085Y-21645297D01*
X33059135Y-21642632D01*
X33063187Y-21639557D01*
X33071363Y-21632369D01*
X33079746Y-21624115D01*
X33097680Y-21605950D01*
X33107503Y-21596807D01*
X33112688Y-21592389D01*
X33118077Y-21588137D01*
X33123689Y-21584099D01*
X33129539Y-21580323D01*
X33135645Y-21576857D01*
X33142023Y-21573749D01*
X33148692Y-21571048D01*
X33155667Y-21568801D01*
X33162965Y-21567056D01*
X33170605Y-21565862D01*
X33178602Y-21565266D01*
X33186973Y-21565316D01*
X33195736Y-21566061D01*
X33204908Y-21567549D01*
X33214401Y-21569689D01*
X33223657Y-21572338D01*
X33232684Y-21575464D01*
X33241494Y-21579035D01*
X33250097Y-21583017D01*
X33258504Y-21587379D01*
X33266725Y-21592087D01*
X33274770Y-21597110D01*
X33282651Y-21602415D01*
X33290378Y-21607969D01*
X33305410Y-21619695D01*
X33319951Y-21632029D01*
X33334086Y-21644710D01*
X33361472Y-21670077D01*
X33374891Y-21682242D01*
X33388240Y-21693715D01*
X33401604Y-21704237D01*
X33408317Y-21709059D01*
X33415065Y-21713547D01*
X33421859Y-21717666D01*
X33428709Y-21721385D01*
X33435626Y-21724671D01*
X33442620Y-21727491D01*
X33448881Y-21726321D01*
X33454562Y-21724255D01*
X33459714Y-21721348D01*
X33464389Y-21717656D01*
X33468637Y-21713235D01*
X33472508Y-21708141D01*
X33476054Y-21702430D01*
X33479326Y-21696158D01*
X33485249Y-21682152D01*
X33490685Y-21666572D01*
X33501721Y-21632475D01*
X33508135Y-21614851D01*
X33515689Y-21597440D01*
X33520020Y-21588954D01*
X33524789Y-21580689D01*
X33530047Y-21572700D01*
X33535843Y-21565044D01*
X33542230Y-21557776D01*
X33549257Y-21550952D01*
X33556976Y-21544628D01*
X33565438Y-21538861D01*
X33574694Y-21533705D01*
X33584793Y-21529217D01*
X33595788Y-21525452D01*
X33607729Y-21522466D01*
X33614385Y-21521667D01*
X33621660Y-21521580D01*
X33629511Y-21522154D01*
X33637898Y-21523340D01*
X33656116Y-21527348D01*
X33675983Y-21533204D01*
X33697169Y-21540511D01*
X33719344Y-21548868D01*
X33765344Y-21567138D01*
X33811343Y-21584821D01*
X33833518Y-21592445D01*
X33854703Y-21598726D01*
X33874569Y-21603264D01*
X33883904Y-21604754D01*
X33892785Y-21605660D01*
X33901172Y-21605930D01*
X33909023Y-21605515D01*
X33916297Y-21604365D01*
X33922952Y-21602430D01*
X33926305Y-21600684D01*
X33928900Y-21598272D01*
X33930800Y-21595215D01*
X33932068Y-21591534D01*
X33932768Y-21587252D01*
X33932963Y-21582389D01*
X33932090Y-21571007D01*
X33921041Y-21506560D01*
X33918920Y-21486578D01*
X33918067Y-21465390D01*
X33918988Y-21443171D01*
X33920272Y-21431727D01*
X33922189Y-21420090D01*
X33924803Y-21408281D01*
X33928176Y-21396321D01*
X33932373Y-21384232D01*
X33937456Y-21372035D01*
X33943488Y-21359752D01*
X33950533Y-21347404D01*
X33958655Y-21335012D01*
X33967915Y-21322599D01*
X33971303Y-21318642D01*
X33974756Y-21314901D01*
X33978271Y-21311371D01*
X33981845Y-21308045D01*
X33985474Y-21304919D01*
X33989156Y-21301985D01*
X33996666Y-21296674D01*
X34004350Y-21292065D01*
X34012184Y-21288111D01*
X34020142Y-21284766D01*
X34028202Y-21281981D01*
X34036337Y-21279711D01*
X34044524Y-21277908D01*
X34052738Y-21276526D01*
X34060955Y-21275518D01*
X34069150Y-21274836D01*
X34077299Y-21274434D01*
X34085378Y-21274265D01*
X34093361Y-21274282D01*
X33996852Y-21474523D01*
X33706042Y-22071646D01*
X30175172Y-22072782D01*
X30071991Y-21877053D01*
X30020118Y-21770369D01*
X29994741Y-21713258D01*
X29969977Y-21653037D01*
X29946006Y-21589260D01*
X29923008Y-21521480D01*
X29901163Y-21449249D01*
X29880651Y-21372122D01*
X29861651Y-21289650D01*
X29844345Y-21201386D01*
X29828911Y-21106884D01*
X29815530Y-21005697D01*
X29810337Y-20953369D01*
X29806982Y-20901133D01*
X29805355Y-20849092D01*
X29805345Y-20797348D01*
X29806843Y-20746005D01*
X29809739Y-20695165D01*
X29813924Y-20644932D01*
X29819289Y-20595408D01*
X29833116Y-20498900D01*
X29850344Y-20406465D01*
X29870095Y-20318925D01*
X29891491Y-20237104D01*
X29913656Y-20161826D01*
X29935713Y-20093913D01*
X29956782Y-20034190D01*
X29975989Y-19983479D01*
X30005301Y-19912388D01*
X30016632Y-19887228D01*
X30046172Y-19890748D01*
X30074890Y-19892864D01*
X30103374Y-19893658D01*
X30132212Y-19893209D01*
X30161990Y-19891599D01*
X30193297Y-19888908D01*
X30226719Y-19885217D01*
X30262845Y-19880605D01*
X30262305Y-19900046D01*
X30262926Y-19919520D01*
X30264636Y-19939011D01*
X30267364Y-19958498D01*
X30271037Y-19977966D01*
X30275584Y-19997395D01*
X30280933Y-20016768D01*
X30287013Y-20036067D01*
X30301078Y-20074370D01*
X30317204Y-20112160D01*
X30334818Y-20149293D01*
X30353347Y-20185626D01*
X30425138Y-20320068D01*
X30439636Y-20350237D01*
X30451607Y-20378742D01*
X30460478Y-20405438D01*
X30463571Y-20418063D01*
X30465674Y-20430181D01*
X30475028Y-20551157D01*
X30483242Y-20709925D01*
X30493701Y-20891285D01*
X30509789Y-21080036D01*
X30521000Y-21172432D01*
X30534887Y-21260975D01*
X30551873Y-21343765D01*
X30572380Y-21418901D01*
X30584087Y-21453006D01*
X30596833Y-21484484D01*
X30610670Y-21513099D01*
X30625652Y-21538613D01*
X30641832Y-21560789D01*
X30659263Y-21579389D01*
X30677996Y-21594175D01*
X30698086Y-21604910D01*
X30701784Y-21605748D01*
X30705387Y-21605491D01*
X30708917Y-21604200D01*
X30712396Y-21601938D01*
X30715847Y-21598766D01*
X30719290Y-21594746D01*
X30726245Y-21584409D01*
X30733434Y-21571421D01*
X30741036Y-21556276D01*
X30758175Y-21521496D01*
X30768064Y-21502848D01*
X30779066Y-21484020D01*
X30791358Y-21465508D01*
X30798043Y-21456525D01*
X30805115Y-21447805D01*
X30812598Y-21439412D01*
X30820513Y-21431406D01*
X30828882Y-21423849D01*
X30837727Y-21416804D01*
X30847070Y-21410332D01*
X30856933Y-21404495D01*
X30867338Y-21399354D01*
X30878306Y-21394972D01*
X30889645Y-21391792D01*
X30900680Y-21390153D01*
X30911413Y-21389955D01*
X30921850Y-21391097D01*
X30931993Y-21393480D01*
X30941846Y-21397004D01*
X30951413Y-21401570D01*
X30960697Y-21407077D01*
X30969703Y-21413427D01*
X30978434Y-21420518D01*
X30986893Y-21428252D01*
X30995085Y-21436529D01*
X31010680Y-21454311D01*
X31025249Y-21473067D01*
X31073853Y-21541868D01*
X31083733Y-21553522D01*
X31088353Y-21557969D01*
X31092765Y-21561362D01*
X31096971Y-21563602D01*
X31100976Y-21564589D01*
X31104784Y-21564224D01*
X31108398Y-21562406D01*
X31110915Y-21560351D01*
X31113320Y-21557501D01*
X31115634Y-21553910D01*
X31117876Y-21549634D01*
X31122225Y-21539242D01*
X31126530Y-21526760D01*
X31135653Y-21497269D01*
X31140793Y-21481131D01*
X31146533Y-21464645D01*
X31153036Y-21448247D01*
X31160463Y-21432372D01*
X31164573Y-21424767D01*
X31168975Y-21417457D01*
X31173688Y-21410494D01*
X31178733Y-21403935D01*
X31184129Y-21397833D01*
X31189898Y-21392243D01*
X31196059Y-21387220D01*
X31202632Y-21382817D01*
X31209638Y-21379090D01*
X31217097Y-21376092D01*
X31225029Y-21373878D01*
X31233453Y-21372503D01*
X31241837Y-21372215D01*
X31250099Y-21372721D01*
X31258235Y-21373965D01*
X31266239Y-21375891D01*
X31274108Y-21378443D01*
X31281837Y-21381565D01*
X31289422Y-21385202D01*
X31296856Y-21389297D01*
X31304137Y-21393795D01*
X31311260Y-21398640D01*
X31318219Y-21403777D01*
X31325011Y-21409148D01*
X31338074Y-21420373D01*
X31350410Y-21431869D01*
X31372760Y-21453888D01*
X31382700Y-21463516D01*
X31391768Y-21471629D01*
X31395963Y-21474977D01*
X31399927Y-21477779D01*
X31403654Y-21479978D01*
X31407140Y-21481520D01*
X31410380Y-21482347D01*
X31413371Y-21482404D01*
X31416106Y-21481636D01*
X31418583Y-21479986D01*
X31419387Y-21476773D01*
X31419944Y-21472794D01*
X31420442Y-21462750D01*
X31419844Y-21435821D01*
X31418782Y-21402625D01*
X31418699Y-21384747D01*
X31419246Y-21366587D01*
X31420673Y-21348574D01*
X31423229Y-21331136D01*
X31425007Y-21322766D01*
X31427162Y-21314700D01*
X31429722Y-21306992D01*
X31432721Y-21299695D01*
X31436188Y-21292864D01*
X31440156Y-21286550D01*
X31444654Y-21280809D01*
X31449715Y-21275693D01*
X31455369Y-21271257D01*
X31461647Y-21267552D01*
X31468581Y-21264634D01*
X31476202Y-21262556D01*
X31484282Y-21261465D01*
X31492556Y-21260971D01*
X31500998Y-21261028D01*
X31509583Y-21261590D01*
X31518286Y-21262608D01*
X31527080Y-21264038D01*
X31535940Y-21265832D01*
X31544840Y-21267943D01*
X31562658Y-21272932D01*
X31580330Y-21278631D01*
X31614413Y-21290664D01*
X31630413Y-21296253D01*
X31645446Y-21301058D01*
X31659306Y-21304707D01*
X31665733Y-21305981D01*
X31671789Y-21306825D01*
X31677450Y-21307194D01*
X31682689Y-21307040D01*
X31687481Y-21306317D01*
X31691801Y-21304979D01*
X31695622Y-21302977D01*
X31698919Y-21300267D01*
X31701667Y-21296801D01*
X31703839Y-21292532D01*
X31704818Y-21279939D01*
X31703123Y-21261376D01*
X31698833Y-21237548D01*
X31692029Y-21209162D01*
X31682792Y-21176925D01*
X31671202Y-21141543D01*
X31657341Y-21103723D01*
X31641288Y-21064172D01*
X31623124Y-21023595D01*
X31602930Y-20982700D01*
X31580786Y-20942192D01*
X31556774Y-20902780D01*
X31530973Y-20865169D01*
X31503464Y-20830065D01*
X31474329Y-20798176D01*
X31459176Y-20783658D01*
X31443646Y-20770208D01*
X31411293Y-20744472D01*
X31378192Y-20719643D01*
X31344593Y-20695575D01*
X31310746Y-20672122D01*
X31177850Y-20581527D01*
X31146495Y-20558952D01*
X31116386Y-20536113D01*
X31087772Y-20512864D01*
X31060902Y-20489059D01*
X31036025Y-20464552D01*
X31013390Y-20439195D01*
X31002991Y-20426153D01*
X30993246Y-20412844D01*
X30984187Y-20399249D01*
X30975843Y-20385351D01*
X30972397Y-20386336D01*
X30968806Y-20387244D01*
X30965112Y-20388098D01*
X30961355Y-20388921D01*
X30953818Y-20390556D01*
X30950120Y-20391412D01*
X30946523Y-20392324D01*
X30963692Y-20387550D01*
X30972312Y-20385181D01*
X30980887Y-20382902D01*
X30978299Y-20365657D01*
X30977511Y-20348113D01*
X30978431Y-20330247D01*
X30980969Y-20312039D01*
X30985032Y-20293466D01*
X30990531Y-20274507D01*
X31005470Y-20235347D01*
X31025055Y-20194385D01*
X31048558Y-20151449D01*
X31104398Y-20058970D01*
X31167158Y-19956534D01*
X31199310Y-19901152D01*
X31231004Y-19842764D01*
X31261511Y-19781199D01*
X31290101Y-19716285D01*
X31316046Y-19647849D01*
X31338617Y-19575720D01*
X31373668Y-19562978D01*
X31410695Y-19551886D01*
X31490016Y-19534404D01*
X31575265Y-19522772D01*
X31665127Y-19516489D01*
X31758287Y-19515053D01*
X31853428Y-19517963D01*
G36*
X31853428Y-19517963D02*
G01*
X31949236Y-19524716D01*
X32044394Y-19534812D01*
X32137589Y-19547748D01*
X32227504Y-19563024D01*
X32312823Y-19580137D01*
X32392232Y-19598586D01*
X32464416Y-19617870D01*
X32528058Y-19637486D01*
X32581843Y-19656934D01*
X32624456Y-19675711D01*
X32626270Y-19707070D01*
X32629323Y-19737459D01*
X32633550Y-19766934D01*
X32638883Y-19795551D01*
X32645258Y-19823366D01*
X32652608Y-19850435D01*
X32660867Y-19876813D01*
X32669969Y-19902556D01*
X32690439Y-19952363D01*
X32713489Y-20000302D01*
X32738592Y-20046820D01*
X32765220Y-20092363D01*
X32820939Y-20182316D01*
X32848973Y-20227619D01*
X32876420Y-20273736D01*
X32902752Y-20321113D01*
X32927441Y-20370198D01*
X32949959Y-20421438D01*
X32960239Y-20448005D01*
X32969778Y-20475279D01*
X32970584Y-20475443D01*
X32971326Y-20475573D01*
X32972023Y-20475680D01*
X32972698Y-20475776D01*
X32973372Y-20475871D01*
X32974065Y-20475979D01*
X32974800Y-20476111D01*
X32975596Y-20476278D01*
X32982864Y-20520811D01*
X32987820Y-20566486D01*
X32990710Y-20613042D01*
X32991779Y-20660220D01*
X32991275Y-20707759D01*
X32989442Y-20755399D01*
X32982777Y-20849942D01*
X32964339Y-21028791D01*
X32956503Y-21108933D01*
X32953792Y-21145773D01*
X32952214Y-21180113D01*
X32952261Y-21214216D01*
X32953292Y-21250525D01*
X32955233Y-21288431D01*
X32958012Y-21327326D01*
X32961554Y-21366603D01*
X32965785Y-21405653D01*
X32970633Y-21443868D01*
X32976023Y-21480642D01*
X32981883Y-21515366D01*
X32988138Y-21547432D01*
X32994715Y-21576232D01*
X33001540Y-21601159D01*
X33008540Y-21621605D01*
X33015641Y-21636962D01*
X33019206Y-21642542D01*
X33022770Y-21646622D01*
X33026321Y-21649125D01*
X33029852Y-21649977D01*
X33034253Y-21650783D01*
X33038553Y-21650891D01*
X33042769Y-21650348D01*
X33046918Y-21649203D01*
X33051018Y-21647503D01*
X33055085Y-21645297D01*
X33059135Y-21642632D01*
X33063187Y-21639557D01*
X33071363Y-21632369D01*
X33079746Y-21624115D01*
X33097680Y-21605950D01*
X33107503Y-21596807D01*
X33112688Y-21592389D01*
X33118077Y-21588137D01*
X33123689Y-21584099D01*
X33129539Y-21580323D01*
X33135645Y-21576857D01*
X33142023Y-21573749D01*
X33148692Y-21571048D01*
X33155667Y-21568801D01*
X33162965Y-21567056D01*
X33170605Y-21565862D01*
X33178602Y-21565266D01*
X33186973Y-21565316D01*
X33195736Y-21566061D01*
X33204908Y-21567549D01*
X33214401Y-21569689D01*
X33223657Y-21572338D01*
X33232684Y-21575464D01*
X33241494Y-21579035D01*
X33250097Y-21583017D01*
X33258504Y-21587379D01*
X33266725Y-21592087D01*
X33274770Y-21597110D01*
X33282651Y-21602415D01*
X33290378Y-21607969D01*
X33305410Y-21619695D01*
X33319951Y-21632029D01*
X33334086Y-21644710D01*
X33361472Y-21670077D01*
X33374891Y-21682242D01*
X33388240Y-21693715D01*
X33401604Y-21704237D01*
X33408317Y-21709059D01*
X33415065Y-21713547D01*
X33421859Y-21717666D01*
X33428709Y-21721385D01*
X33435626Y-21724671D01*
X33442620Y-21727491D01*
X33448881Y-21726321D01*
X33454562Y-21724255D01*
X33459714Y-21721348D01*
X33464389Y-21717656D01*
X33468637Y-21713235D01*
X33472508Y-21708141D01*
X33476054Y-21702430D01*
X33479326Y-21696158D01*
X33485249Y-21682152D01*
X33490685Y-21666572D01*
X33501721Y-21632475D01*
X33508135Y-21614851D01*
X33515689Y-21597440D01*
X33520020Y-21588954D01*
X33524789Y-21580689D01*
X33530047Y-21572700D01*
X33535843Y-21565044D01*
X33542230Y-21557776D01*
X33549257Y-21550952D01*
X33556976Y-21544628D01*
X33565438Y-21538861D01*
X33574694Y-21533705D01*
X33584793Y-21529217D01*
X33595788Y-21525452D01*
X33607729Y-21522466D01*
X33614385Y-21521667D01*
X33621660Y-21521580D01*
X33629511Y-21522154D01*
X33637898Y-21523340D01*
X33656116Y-21527348D01*
X33675983Y-21533204D01*
X33697169Y-21540511D01*
X33719344Y-21548868D01*
X33765344Y-21567138D01*
X33811343Y-21584821D01*
X33833518Y-21592445D01*
X33854703Y-21598726D01*
X33874569Y-21603264D01*
X33883904Y-21604754D01*
X33892785Y-21605660D01*
X33901172Y-21605930D01*
X33909023Y-21605515D01*
X33916297Y-21604365D01*
X33922952Y-21602430D01*
X33926305Y-21600684D01*
X33928900Y-21598272D01*
X33930800Y-21595215D01*
X33932068Y-21591534D01*
X33932768Y-21587252D01*
X33932963Y-21582389D01*
X33932090Y-21571007D01*
X33921041Y-21506560D01*
X33918920Y-21486578D01*
X33918067Y-21465390D01*
X33918988Y-21443171D01*
X33920272Y-21431727D01*
X33922189Y-21420090D01*
X33924803Y-21408281D01*
X33928176Y-21396321D01*
X33932373Y-21384232D01*
X33937456Y-21372035D01*
X33943488Y-21359752D01*
X33950533Y-21347404D01*
X33958655Y-21335012D01*
X33967915Y-21322599D01*
X33971303Y-21318642D01*
X33974756Y-21314901D01*
X33978271Y-21311371D01*
X33981845Y-21308045D01*
X33985474Y-21304919D01*
X33989156Y-21301985D01*
X33996666Y-21296674D01*
X34004350Y-21292065D01*
X34012184Y-21288111D01*
X34020142Y-21284766D01*
X34028202Y-21281981D01*
X34036337Y-21279711D01*
X34044524Y-21277908D01*
X34052738Y-21276526D01*
X34060955Y-21275518D01*
X34069150Y-21274836D01*
X34077299Y-21274434D01*
X34085378Y-21274265D01*
X34093361Y-21274282D01*
X33996852Y-21474523D01*
X33706042Y-22071646D01*
X30175172Y-22072782D01*
X30071991Y-21877053D01*
X30020118Y-21770369D01*
X29994741Y-21713258D01*
X29969977Y-21653037D01*
X29946006Y-21589260D01*
X29923008Y-21521480D01*
X29901163Y-21449249D01*
X29880651Y-21372122D01*
X29861651Y-21289650D01*
X29844345Y-21201386D01*
X29828911Y-21106884D01*
X29815530Y-21005697D01*
X29810337Y-20953369D01*
X29806982Y-20901133D01*
X29805355Y-20849092D01*
X29805345Y-20797348D01*
X29806843Y-20746005D01*
X29809739Y-20695165D01*
X29813924Y-20644932D01*
X29819289Y-20595408D01*
X29833116Y-20498900D01*
X29850344Y-20406465D01*
X29870095Y-20318925D01*
X29891491Y-20237104D01*
X29913656Y-20161826D01*
X29935713Y-20093913D01*
X29956782Y-20034190D01*
X29975989Y-19983479D01*
X30005301Y-19912388D01*
X30016632Y-19887228D01*
X30046172Y-19890748D01*
X30074890Y-19892864D01*
X30103374Y-19893658D01*
X30132212Y-19893209D01*
X30161990Y-19891599D01*
X30193297Y-19888908D01*
X30226719Y-19885217D01*
X30262845Y-19880605D01*
X30262305Y-19900046D01*
X30262926Y-19919520D01*
X30264636Y-19939011D01*
X30267364Y-19958498D01*
X30271037Y-19977966D01*
X30275584Y-19997395D01*
X30280933Y-20016768D01*
X30287013Y-20036067D01*
X30301078Y-20074370D01*
X30317204Y-20112160D01*
X30334818Y-20149293D01*
X30353347Y-20185626D01*
X30425138Y-20320068D01*
X30439636Y-20350237D01*
X30451607Y-20378742D01*
X30460478Y-20405438D01*
X30463571Y-20418063D01*
X30465674Y-20430181D01*
X30475028Y-20551157D01*
X30483242Y-20709925D01*
X30493701Y-20891285D01*
X30509789Y-21080036D01*
X30521000Y-21172432D01*
X30534887Y-21260975D01*
X30551873Y-21343765D01*
X30572380Y-21418901D01*
X30584087Y-21453006D01*
X30596833Y-21484484D01*
X30610670Y-21513099D01*
X30625652Y-21538613D01*
X30641832Y-21560789D01*
X30659263Y-21579389D01*
X30677996Y-21594175D01*
X30698086Y-21604910D01*
X30701784Y-21605748D01*
X30705387Y-21605491D01*
X30708917Y-21604200D01*
X30712396Y-21601938D01*
X30715847Y-21598766D01*
X30719290Y-21594746D01*
X30726245Y-21584409D01*
X30733434Y-21571421D01*
X30741036Y-21556276D01*
X30758175Y-21521496D01*
X30768064Y-21502848D01*
X30779066Y-21484020D01*
X30791358Y-21465508D01*
X30798043Y-21456525D01*
X30805115Y-21447805D01*
X30812598Y-21439412D01*
X30820513Y-21431406D01*
X30828882Y-21423849D01*
X30837727Y-21416804D01*
X30847070Y-21410332D01*
X30856933Y-21404495D01*
X30867338Y-21399354D01*
X30878306Y-21394972D01*
X30889645Y-21391792D01*
X30900680Y-21390153D01*
X30911413Y-21389955D01*
X30921850Y-21391097D01*
X30931993Y-21393480D01*
X30941846Y-21397004D01*
X30951413Y-21401570D01*
X30960697Y-21407077D01*
X30969703Y-21413427D01*
X30978434Y-21420518D01*
X30986893Y-21428252D01*
X30995085Y-21436529D01*
X31010680Y-21454311D01*
X31025249Y-21473067D01*
X31073853Y-21541868D01*
X31083733Y-21553522D01*
X31088353Y-21557969D01*
X31092765Y-21561362D01*
X31096971Y-21563602D01*
X31100976Y-21564589D01*
X31104784Y-21564224D01*
X31108398Y-21562406D01*
X31110915Y-21560351D01*
X31113320Y-21557501D01*
X31115634Y-21553910D01*
X31117876Y-21549634D01*
X31122225Y-21539242D01*
X31126530Y-21526760D01*
X31135653Y-21497269D01*
X31140793Y-21481131D01*
X31146533Y-21464645D01*
X31153036Y-21448247D01*
X31160463Y-21432372D01*
X31164573Y-21424767D01*
X31168975Y-21417457D01*
X31173688Y-21410494D01*
X31178733Y-21403935D01*
X31184129Y-21397833D01*
X31189898Y-21392243D01*
X31196059Y-21387220D01*
X31202632Y-21382817D01*
X31209638Y-21379090D01*
X31217097Y-21376092D01*
X31225029Y-21373878D01*
X31233453Y-21372503D01*
X31241837Y-21372215D01*
X31250099Y-21372721D01*
X31258235Y-21373965D01*
X31266239Y-21375891D01*
X31274108Y-21378443D01*
X31281837Y-21381565D01*
X31289422Y-21385202D01*
X31296856Y-21389297D01*
X31304137Y-21393795D01*
X31311260Y-21398640D01*
X31318219Y-21403777D01*
X31325011Y-21409148D01*
X31338074Y-21420373D01*
X31350410Y-21431869D01*
X31372760Y-21453888D01*
X31382700Y-21463516D01*
X31391768Y-21471629D01*
X31395963Y-21474977D01*
X31399927Y-21477779D01*
X31403654Y-21479978D01*
X31407140Y-21481520D01*
X31410380Y-21482347D01*
X31413371Y-21482404D01*
X31416106Y-21481636D01*
X31418583Y-21479986D01*
X31419387Y-21476773D01*
X31419944Y-21472794D01*
X31420442Y-21462750D01*
X31419844Y-21435821D01*
X31418782Y-21402625D01*
X31418699Y-21384747D01*
X31419246Y-21366587D01*
X31420673Y-21348574D01*
X31423229Y-21331136D01*
X31425007Y-21322766D01*
X31427162Y-21314700D01*
X31429722Y-21306992D01*
X31432721Y-21299695D01*
X31436188Y-21292864D01*
X31440156Y-21286550D01*
X31444654Y-21280809D01*
X31449715Y-21275693D01*
X31455369Y-21271257D01*
X31461647Y-21267552D01*
X31468581Y-21264634D01*
X31476202Y-21262556D01*
X31484282Y-21261465D01*
X31492556Y-21260971D01*
X31500998Y-21261028D01*
X31509583Y-21261590D01*
X31518286Y-21262608D01*
X31527080Y-21264038D01*
X31535940Y-21265832D01*
X31544840Y-21267943D01*
X31562658Y-21272932D01*
X31580330Y-21278631D01*
X31614413Y-21290664D01*
X31630413Y-21296253D01*
X31645446Y-21301058D01*
X31659306Y-21304707D01*
X31665733Y-21305981D01*
X31671789Y-21306825D01*
X31677450Y-21307194D01*
X31682689Y-21307040D01*
X31687481Y-21306317D01*
X31691801Y-21304979D01*
X31695622Y-21302977D01*
X31698919Y-21300267D01*
X31701667Y-21296801D01*
X31703839Y-21292532D01*
X31704818Y-21279939D01*
X31703123Y-21261376D01*
X31698833Y-21237548D01*
X31692029Y-21209162D01*
X31682792Y-21176925D01*
X31671202Y-21141543D01*
X31657341Y-21103723D01*
X31641288Y-21064172D01*
X31623124Y-21023595D01*
X31602930Y-20982700D01*
X31580786Y-20942192D01*
X31556774Y-20902780D01*
X31530973Y-20865169D01*
X31503464Y-20830065D01*
X31474329Y-20798176D01*
X31459176Y-20783658D01*
X31443646Y-20770208D01*
X31411293Y-20744472D01*
X31378192Y-20719643D01*
X31344593Y-20695575D01*
X31310746Y-20672122D01*
X31177850Y-20581527D01*
X31146495Y-20558952D01*
X31116386Y-20536113D01*
X31087772Y-20512864D01*
X31060902Y-20489059D01*
X31036025Y-20464552D01*
X31013390Y-20439195D01*
X31002991Y-20426153D01*
X30993246Y-20412844D01*
X30984187Y-20399249D01*
X30975843Y-20385351D01*
X30972397Y-20386336D01*
X30968806Y-20387244D01*
X30965112Y-20388098D01*
X30961355Y-20388921D01*
X30953818Y-20390556D01*
X30950120Y-20391412D01*
X30946523Y-20392324D01*
X30963692Y-20387550D01*
X30972312Y-20385181D01*
X30980887Y-20382902D01*
X30978299Y-20365657D01*
X30977511Y-20348113D01*
X30978431Y-20330247D01*
X30980969Y-20312039D01*
X30985032Y-20293466D01*
X30990531Y-20274507D01*
X31005470Y-20235347D01*
X31025055Y-20194385D01*
X31048558Y-20151449D01*
X31104398Y-20058970D01*
X31167158Y-19956534D01*
X31199310Y-19901152D01*
X31231004Y-19842764D01*
X31261511Y-19781199D01*
X31290101Y-19716285D01*
X31316046Y-19647849D01*
X31338617Y-19575720D01*
X31373668Y-19562978D01*
X31410695Y-19551886D01*
X31490016Y-19534404D01*
X31575265Y-19522772D01*
X31665127Y-19516489D01*
X31758287Y-19515053D01*
X31853428Y-19517963D01*
G37*
X35460945Y-18446470D02*
X35408552Y-18395233D01*
X35353992Y-18347157D01*
X35297441Y-18302248D01*
X35239077Y-18260510D01*
X35179078Y-18221949D01*
X35117620Y-18186569D01*
X35054883Y-18154375D01*
X34991042Y-18125371D01*
X34926276Y-18099563D01*
X34860762Y-18076955D01*
X34794677Y-18057551D01*
X34728199Y-18041357D01*
X34661506Y-18028378D01*
X34594775Y-18018617D01*
X34528184Y-18012080D01*
X34461909Y-18008772D01*
X34461909Y-18008780D01*
X34421043Y-17989421D01*
X34381895Y-17969439D01*
X34344361Y-17948858D01*
X34308337Y-17927701D01*
X34240403Y-17883756D01*
X34177260Y-17837791D01*
X34118075Y-17789994D01*
X34062014Y-17740554D01*
X34008245Y-17689660D01*
X33955934Y-17637498D01*
X33744619Y-17419952D01*
X33687107Y-17364282D01*
X33626055Y-17308475D01*
X33560631Y-17252719D01*
X33490002Y-17197203D01*
X36069689Y-17192931D01*
X35460945Y-18446470D01*
G36*
X35460945Y-18446470D02*
G01*
X35408552Y-18395233D01*
X35353992Y-18347157D01*
X35297441Y-18302248D01*
X35239077Y-18260510D01*
X35179078Y-18221949D01*
X35117620Y-18186569D01*
X35054883Y-18154375D01*
X34991042Y-18125371D01*
X34926276Y-18099563D01*
X34860762Y-18076955D01*
X34794677Y-18057551D01*
X34728199Y-18041357D01*
X34661506Y-18028378D01*
X34594775Y-18018617D01*
X34528184Y-18012080D01*
X34461909Y-18008772D01*
X34461909Y-18008780D01*
X34421043Y-17989421D01*
X34381895Y-17969439D01*
X34344361Y-17948858D01*
X34308337Y-17927701D01*
X34240403Y-17883756D01*
X34177260Y-17837791D01*
X34118075Y-17789994D01*
X34062014Y-17740554D01*
X34008245Y-17689660D01*
X33955934Y-17637498D01*
X33744619Y-17419952D01*
X33687107Y-17364282D01*
X33626055Y-17308475D01*
X33560631Y-17252719D01*
X33490002Y-17197203D01*
X36069689Y-17192931D01*
X35460945Y-18446470D01*
G37*
D10*
X33028874Y-20481247D02*
X33085482Y-20490038D01*
X33138982Y-20497598D01*
X33164997Y-20500542D01*
X33190752Y-20502727D01*
X33216419Y-20504005D01*
X33242171Y-20504225D01*
X33268178Y-20503237D01*
X33294615Y-20500891D01*
X33321653Y-20497037D01*
X33349463Y-20491525D01*
X33378220Y-20484206D01*
X33408094Y-20474928D01*
X33449455Y-20519131D01*
X33500103Y-20568620D01*
X33622075Y-20679532D01*
X33898444Y-20921622D01*
X34024110Y-21037103D01*
X34077528Y-21090019D01*
X34122275Y-21138411D01*
X34156556Y-21181297D01*
X34169211Y-21200368D01*
X34178575Y-21217696D01*
X34184425Y-21233157D01*
X34186536Y-21246628D01*
X34184684Y-21257987D01*
X34178644Y-21267111D01*
X34175357Y-21269893D01*
X34171609Y-21272176D01*
X34167425Y-21274005D01*
X34162827Y-21275422D01*
X34157839Y-21276472D01*
X34152483Y-21277197D01*
X34140765Y-21277848D01*
X34083889Y-21276170D01*
X34068103Y-21276418D01*
X34052064Y-21277629D01*
X34044009Y-21278705D01*
X34035960Y-21280151D01*
X34027941Y-21282012D01*
X34019976Y-21284331D01*
X34012088Y-21287152D01*
X34004300Y-21290518D01*
X33996636Y-21294472D01*
X33989119Y-21299058D01*
X33981772Y-21304319D01*
X33974619Y-21310299D01*
X33967684Y-21317042D01*
X33960988Y-21324590D01*
X33951728Y-21337004D01*
X33943607Y-21349395D01*
X33936561Y-21361744D01*
X33930527Y-21374028D01*
X33925443Y-21386227D01*
X33921245Y-21398317D01*
X33917869Y-21410279D01*
X33915253Y-21422090D01*
X33913333Y-21433729D01*
X33912047Y-21445174D01*
X33911120Y-21467399D01*
X33911967Y-21488591D01*
X33914081Y-21508578D01*
X33925105Y-21573043D01*
X33925973Y-21584428D01*
X33925776Y-21589293D01*
X33925075Y-21593577D01*
X33923805Y-21597258D01*
X33921904Y-21600316D01*
X33919309Y-21602729D01*
X33915956Y-21604475D01*
X33909300Y-21606410D01*
X33902026Y-21607560D01*
X33894175Y-21607975D01*
X33885788Y-21607704D01*
X33876906Y-21606799D01*
X33867571Y-21605308D01*
X33847705Y-21600771D01*
X33826519Y-21594490D01*
X33804344Y-21586866D01*
X33758344Y-21569182D01*
X33712345Y-21550913D01*
X33690170Y-21542556D01*
X33668984Y-21535249D01*
X33649117Y-21529392D01*
X33630900Y-21525385D01*
X33622512Y-21524199D01*
X33614661Y-21523624D01*
X33607387Y-21523712D01*
X33600731Y-21524511D01*
X33588790Y-21527496D01*
X33577796Y-21531260D01*
X33567696Y-21535747D01*
X33558440Y-21540901D01*
X33549978Y-21546666D01*
X33542259Y-21552987D01*
X33535231Y-21559807D01*
X33528844Y-21567072D01*
X33523047Y-21574724D01*
X33517789Y-21582709D01*
X33513020Y-21590969D01*
X33508688Y-21599451D01*
X33501133Y-21616852D01*
X33494718Y-21634466D01*
X33483680Y-21668544D01*
X33478243Y-21684115D01*
X33472319Y-21698112D01*
X33469048Y-21704381D01*
X33465501Y-21710089D01*
X33461630Y-21715180D01*
X33457382Y-21719598D01*
X33452708Y-21723288D01*
X33447555Y-21726194D01*
X33441874Y-21728259D01*
X33435614Y-21729429D01*
X33428620Y-21726608D01*
X33421704Y-21723322D01*
X33414854Y-21719604D01*
X33408061Y-21715484D01*
X33401313Y-21710997D01*
X33394601Y-21706175D01*
X33381240Y-21695653D01*
X33367894Y-21684180D01*
X33354478Y-21672015D01*
X33327100Y-21646649D01*
X33312970Y-21633968D01*
X33298432Y-21621635D01*
X33283404Y-21609909D01*
X33275679Y-21604355D01*
X33267800Y-21599051D01*
X33259756Y-21594029D01*
X33251536Y-21589321D01*
X33243131Y-21584960D01*
X33234528Y-21580978D01*
X33225719Y-21577408D01*
X33216693Y-21574282D01*
X33207438Y-21571633D01*
X33197944Y-21569494D01*
X33188772Y-21568007D01*
X33180009Y-21567262D01*
X33171636Y-21567212D01*
X33163638Y-21567809D01*
X33155997Y-21569004D01*
X33148696Y-21570750D01*
X33141719Y-21572998D01*
X33135048Y-21575701D01*
X33128667Y-21578810D01*
X33122558Y-21582277D01*
X33116705Y-21586055D01*
X33111091Y-21590094D01*
X33105698Y-21594348D01*
X33100510Y-21598768D01*
X33090681Y-21607915D01*
X33072733Y-21626087D01*
X33064344Y-21634343D01*
X33056164Y-21641535D01*
X33052109Y-21644611D01*
X33048057Y-21647277D01*
X33043988Y-21649484D01*
X33039887Y-21651185D01*
X33035737Y-21652330D01*
X33031520Y-21652874D01*
X33027220Y-21652766D01*
X33022819Y-21651960D01*
X33022811Y-21651953D01*
X33019280Y-21651101D01*
X33015729Y-21648598D01*
X33012167Y-21644519D01*
X33008602Y-21638940D01*
X33001505Y-21623586D01*
X32994511Y-21603144D01*
X32987692Y-21578221D01*
X32981123Y-21549425D01*
X32974876Y-21517364D01*
X32969024Y-21482645D01*
X32963642Y-21445876D01*
X32958802Y-21407665D01*
X32954578Y-21368620D01*
X32951043Y-21329347D01*
X32948270Y-21290456D01*
X32946332Y-21252552D01*
X32945303Y-21216245D01*
X32945257Y-21182142D01*
X32946856Y-21147513D01*
X32949609Y-21110340D01*
X32957569Y-21029430D01*
X32976216Y-20848839D01*
X32982858Y-20753433D01*
X32984623Y-20705387D01*
X32985015Y-20657470D01*
X32983779Y-20609948D01*
X32980664Y-20563088D01*
X32975415Y-20517158D01*
X32967781Y-20472425D01*
X33028874Y-20481247D01*
D11*
X33429076Y-20498819D02*
X33428954Y-20498838D01*
X33428962Y-20498701D01*
X33429076Y-20498819D01*
G36*
X33429076Y-20498819D02*
G01*
X33428954Y-20498838D01*
X33428962Y-20498701D01*
X33429076Y-20498819D01*
G37*
D10*
X34462103Y-19334376D02*
X34467096Y-19334889D01*
X34472239Y-19335668D01*
X34477525Y-19336713D01*
X34482945Y-19338026D01*
X34488490Y-19339606D01*
X34494151Y-19341456D01*
X34499920Y-19343575D01*
X34505788Y-19345966D01*
X34511746Y-19348628D01*
X34517785Y-19351563D01*
X34523897Y-19354771D01*
X34530074Y-19358254D01*
X34536306Y-19362013D01*
X34542584Y-19366047D01*
X34548900Y-19370359D01*
X34548900Y-19370367D01*
X34561294Y-19379109D01*
X34573112Y-19388412D01*
X34584307Y-19398190D01*
X34594832Y-19408360D01*
X34604638Y-19418838D01*
X34613678Y-19429538D01*
X34621905Y-19440378D01*
X34629270Y-19451273D01*
X34635727Y-19462138D01*
X34641227Y-19472890D01*
X34645723Y-19483444D01*
X34649167Y-19493717D01*
X34650480Y-19498721D01*
X34651512Y-19503623D01*
X34652257Y-19508412D01*
X34652709Y-19513078D01*
X34652863Y-19517611D01*
X34652712Y-19522000D01*
X34652251Y-19526233D01*
X34651473Y-19530302D01*
X34650383Y-19534387D01*
X34648994Y-19538209D01*
X34647314Y-19541765D01*
X34645352Y-19545057D01*
X34643118Y-19548084D01*
X34640619Y-19550844D01*
X34637864Y-19553338D01*
X34634863Y-19555566D01*
X34631623Y-19557526D01*
X34628153Y-19559219D01*
X34624463Y-19560643D01*
X34620561Y-19561799D01*
X34616455Y-19562685D01*
X34612155Y-19563303D01*
X34607668Y-19563650D01*
X34603004Y-19563726D01*
X34598172Y-19563532D01*
X34593179Y-19563067D01*
X34588036Y-19562329D01*
X34582750Y-19561320D01*
X34577330Y-19560037D01*
X34571785Y-19558482D01*
X34566124Y-19556653D01*
X34560355Y-19554549D01*
X34554487Y-19552171D01*
X34548529Y-19549518D01*
X34542490Y-19546590D01*
X34536377Y-19543386D01*
X34530201Y-19539905D01*
X34523969Y-19536147D01*
X34517690Y-19532112D01*
X34511373Y-19527800D01*
X34498980Y-19519057D01*
X34487162Y-19509750D01*
X34475967Y-19499960D01*
X34465442Y-19489767D01*
X34455636Y-19479253D01*
X34446596Y-19468496D01*
X34438369Y-19457579D01*
X34431004Y-19446581D01*
X34424547Y-19435583D01*
X34419047Y-19424666D01*
X34414551Y-19413909D01*
X34411107Y-19403394D01*
X34409794Y-19398253D01*
X34408762Y-19393202D01*
X34408017Y-19388252D01*
X34407565Y-19383412D01*
X34407411Y-19378693D01*
X34407562Y-19374105D01*
X34408023Y-19369658D01*
X34408801Y-19365362D01*
X34409891Y-19361504D01*
X34411280Y-19357896D01*
X34412960Y-19354539D01*
X34414922Y-19351433D01*
X34417156Y-19348580D01*
X34419655Y-19345980D01*
X34422410Y-19343635D01*
X34425412Y-19341545D01*
X34428652Y-19339711D01*
X34432121Y-19338135D01*
X34435811Y-19336816D01*
X34439714Y-19335757D01*
X34443820Y-19334957D01*
X34448120Y-19334418D01*
X34452607Y-19334141D01*
X34457271Y-19334126D01*
X34462103Y-19334376D01*
X29087734Y-18841275D02*
X29105440Y-18950187D01*
X29129904Y-19054876D01*
X29161010Y-19155048D01*
X29198641Y-19250407D01*
X29242683Y-19340658D01*
X29293020Y-19425504D01*
X29349535Y-19504651D01*
X29380074Y-19541995D01*
X29412114Y-19577803D01*
X29445642Y-19612038D01*
X29480641Y-19644664D01*
X29517099Y-19675644D01*
X29555001Y-19704940D01*
X29594331Y-19732515D01*
X29635076Y-19758334D01*
X29677222Y-19782358D01*
X29720753Y-19804551D01*
X29765656Y-19824875D01*
X29811916Y-19843295D01*
X29859518Y-19859773D01*
X29908448Y-19874271D01*
X29958691Y-19886754D01*
X30010234Y-19897184D01*
X30010233Y-19897192D01*
X29973304Y-19982366D01*
X29940493Y-20066655D01*
X29886644Y-20232440D01*
X29847520Y-20394275D01*
X29821952Y-20551890D01*
X29808775Y-20705014D01*
X29806819Y-20853375D01*
X29814918Y-20996702D01*
X29831903Y-21134725D01*
X29856609Y-21267173D01*
X29887866Y-21393774D01*
X29924508Y-21514258D01*
X29965368Y-21628354D01*
X30009277Y-21735790D01*
X30055068Y-21836296D01*
X30147627Y-22015432D01*
X30179394Y-22076057D01*
X30211924Y-22144307D01*
X30243756Y-22219219D01*
X30273426Y-22299833D01*
X30299471Y-22385187D01*
X30320430Y-22474318D01*
X30334839Y-22566266D01*
X30339130Y-22612996D01*
X30341235Y-22660069D01*
X30340971Y-22707366D01*
X30338156Y-22754765D01*
X30332606Y-22802148D01*
X30324139Y-22849393D01*
X30312572Y-22896381D01*
X30297722Y-22942991D01*
X30279405Y-22989103D01*
X30257440Y-23034597D01*
X30231644Y-23079353D01*
X30201833Y-23123250D01*
X30167825Y-23166169D01*
X30129437Y-23207989D01*
X30086486Y-23248589D01*
X30038789Y-23287851D01*
X29986163Y-23325653D01*
X29928426Y-23361875D01*
X29893564Y-23380810D01*
X29857432Y-23397440D01*
X29820119Y-23411809D01*
X29781714Y-23423962D01*
X29742307Y-23433942D01*
X29701989Y-23441792D01*
X29660847Y-23447558D01*
X29618972Y-23451281D01*
X29576452Y-23453007D01*
X29533379Y-23452780D01*
X29445927Y-23446638D01*
X29357332Y-23433207D01*
X29268309Y-23412837D01*
X29179575Y-23385880D01*
X29091845Y-23352685D01*
X29005836Y-23313603D01*
X28922264Y-23268985D01*
X28841844Y-23219181D01*
X28765294Y-23164543D01*
X28693328Y-23105421D01*
X28626662Y-23042166D01*
X28577092Y-22988927D01*
X28530111Y-22933654D01*
X28485674Y-22876482D01*
X28443731Y-22817544D01*
X28367144Y-22694912D01*
X28299971Y-22566840D01*
X28241836Y-22434405D01*
X28192361Y-22298688D01*
X28151166Y-22160767D01*
X28117876Y-22021722D01*
X28092111Y-21882631D01*
X28073494Y-21744575D01*
X28061648Y-21608632D01*
X28056194Y-21475881D01*
X28056754Y-21347402D01*
X28062951Y-21224274D01*
X28074407Y-21107576D01*
X28090743Y-20998388D01*
X28138015Y-20769307D01*
X28192042Y-20558399D01*
X28251786Y-20364261D01*
X28316211Y-20185491D01*
X28384280Y-20020686D01*
X28454956Y-19868444D01*
X28527200Y-19727362D01*
X28599977Y-19596039D01*
X28875666Y-19140274D01*
X28935547Y-19036703D01*
X28989738Y-18934475D01*
X29037201Y-18832187D01*
X29076900Y-18728437D01*
X29087734Y-18841275D01*
D12*
G36*
X36389644Y-15248101D02*
G01*
X36394995Y-15258375D01*
X36385869Y-15269400D01*
X36337765Y-15283422D01*
X36304785Y-15293592D01*
X36281817Y-15309174D01*
X36266577Y-15330106D01*
X36254363Y-15379150D01*
X36248353Y-15500709D01*
X36250990Y-15752117D01*
X36248353Y-15985146D01*
X36253549Y-16197703D01*
X36265029Y-16280935D01*
X36281776Y-16317668D01*
X36310865Y-16340497D01*
X36362890Y-16358690D01*
X36389906Y-16367794D01*
X36395848Y-16377147D01*
X36389334Y-16387538D01*
X36282164Y-16390175D01*
X36043629Y-16390175D01*
X35951658Y-16388313D01*
X35942369Y-16384157D01*
X35939483Y-16376061D01*
X35946374Y-16366843D01*
X35979420Y-16360396D01*
X36013459Y-16353475D01*
X36045800Y-16335814D01*
X36072158Y-16311329D01*
X36085737Y-16288355D01*
X36092285Y-16254607D01*
X36097834Y-16164823D01*
X36100859Y-16036017D01*
X36098300Y-15957772D01*
X36093104Y-15839125D01*
X35954295Y-15844243D01*
X35826416Y-15838360D01*
X35724983Y-15822393D01*
X35645453Y-15798466D01*
X35583852Y-15768092D01*
X35529580Y-15724937D01*
X35491811Y-15673807D01*
X35468735Y-15613221D01*
X35460630Y-15540491D01*
X35463033Y-15515908D01*
X35631544Y-15515908D01*
X35640296Y-15591833D01*
X35667603Y-15670925D01*
X35696621Y-15718226D01*
X35734270Y-15753935D01*
X35781675Y-15779414D01*
X35861743Y-15801874D01*
X35948246Y-15809502D01*
X36093104Y-15805159D01*
X36093957Y-15750023D01*
X36090467Y-15539095D01*
X36093957Y-15341117D01*
X36093104Y-15302344D01*
X36023253Y-15288471D01*
X35936924Y-15283422D01*
X35847760Y-15288834D01*
X35781321Y-15303189D01*
X35732702Y-15324312D01*
X35697924Y-15351043D01*
X35661018Y-15399430D01*
X35639072Y-15453737D01*
X35631544Y-15515908D01*
X35463033Y-15515908D01*
X35466654Y-15478863D01*
X35484190Y-15423864D01*
X35513221Y-15374078D01*
X35554772Y-15328555D01*
X35603135Y-15296177D01*
X35674975Y-15269549D01*
X35777976Y-15250892D01*
X35921337Y-15243718D01*
X36197172Y-15244649D01*
X36368939Y-15243718D01*
X36389644Y-15248101D01*
G37*
G36*
X34367914Y-16397231D02*
G01*
X34416458Y-16400101D01*
X34532779Y-16395138D01*
X34882361Y-16390175D01*
X35102750Y-16390175D01*
X35191231Y-16395138D01*
X35284055Y-16400101D01*
X35339801Y-16394153D01*
X35349970Y-16383971D01*
X35344846Y-16374933D01*
X35323914Y-16370322D01*
X35268385Y-16362844D01*
X35230980Y-16350257D01*
X35206818Y-16334108D01*
X35179863Y-16297877D01*
X35161763Y-16245084D01*
X35153773Y-16163202D01*
X35149588Y-15931328D01*
X35148658Y-15618813D01*
X35152822Y-15478401D01*
X35162151Y-15406800D01*
X35183357Y-15352723D01*
X35217752Y-15314674D01*
X35262462Y-15289698D01*
X35312670Y-15278459D01*
X35334591Y-15271476D01*
X35340432Y-15259228D01*
X35335000Y-15247549D01*
X35315307Y-15242865D01*
X35292740Y-15243718D01*
X35148889Y-15250980D01*
X34969989Y-15253644D01*
X34817299Y-15248681D01*
X34799279Y-15253648D01*
X34793880Y-15267060D01*
X34799338Y-15278924D01*
X34819005Y-15283655D01*
X34877198Y-15290143D01*
X34921833Y-15308005D01*
X34957239Y-15335332D01*
X34976503Y-15363994D01*
X34985669Y-15403267D01*
X34989919Y-15487836D01*
X34996898Y-15898759D01*
X34995192Y-16128065D01*
X34992235Y-16225737D01*
X34986119Y-16267107D01*
X34972435Y-16297092D01*
X34948354Y-16324880D01*
X34912621Y-16342853D01*
X34844208Y-16350470D01*
X34688881Y-16345352D01*
X34613667Y-16325944D01*
X34543031Y-16288524D01*
X34475549Y-16230970D01*
X34415270Y-16162420D01*
X34374654Y-16104337D01*
X34349690Y-16055016D01*
X34338111Y-16037540D01*
X34326193Y-16032837D01*
X34315565Y-16037453D01*
X34311459Y-16053543D01*
X34336662Y-16226705D01*
X34367914Y-16397231D01*
G37*
G36*
X33840533Y-15502133D02*
G01*
X33948384Y-15786160D01*
X34054372Y-16078669D01*
X34113249Y-16228256D01*
X34145206Y-16287658D01*
X34181054Y-16328288D01*
X34220897Y-16353985D01*
X34265939Y-16366755D01*
X34285149Y-16373722D01*
X34290211Y-16384358D01*
X34284494Y-16395404D01*
X34262450Y-16400101D01*
X34200287Y-16393323D01*
X34066410Y-16390175D01*
X33898909Y-16400101D01*
X33888517Y-16388313D01*
X33894821Y-16377050D01*
X33920622Y-16370322D01*
X33963319Y-16361967D01*
X34008715Y-16341010D01*
X34033527Y-16320068D01*
X34048210Y-16293428D01*
X34053383Y-16259197D01*
X34047314Y-16213665D01*
X34021736Y-16120651D01*
X33963118Y-15953662D01*
X33559718Y-15948466D01*
X33508537Y-16097744D01*
X33464663Y-16234569D01*
X33455572Y-16285408D01*
X33462962Y-16320970D01*
X33483799Y-16344422D01*
X33518196Y-16358904D01*
X33585774Y-16370322D01*
X33601563Y-16375787D01*
X33605703Y-16384358D01*
X33600100Y-16395447D01*
X33578794Y-16400101D01*
X33508461Y-16393446D01*
X33335917Y-16390175D01*
X33218132Y-16392930D01*
X33132898Y-16400101D01*
X33120724Y-16400954D01*
X33109424Y-16397759D01*
X33105990Y-16389011D01*
X33111899Y-16377154D01*
X33134604Y-16370322D01*
X33190564Y-16357428D01*
X33233283Y-16331168D01*
X33265659Y-16290837D01*
X33311900Y-16189635D01*
X33416566Y-15911864D01*
X33421443Y-15898836D01*
X33575305Y-15898836D01*
X33819113Y-15894493D01*
X33947531Y-15898836D01*
X33839846Y-15605536D01*
X33759246Y-15421146D01*
X33665569Y-15659991D01*
X33575305Y-15898836D01*
X33421443Y-15898836D01*
X33582395Y-15468923D01*
X33684646Y-15233792D01*
X33724583Y-15233792D01*
X33840533Y-15502133D01*
G37*
G36*
X32598754Y-15303274D02*
G01*
X32694214Y-15298311D01*
X32790019Y-15304287D01*
X32864581Y-15320457D01*
X32922041Y-15344817D01*
X32965784Y-15376324D01*
X33018527Y-15431750D01*
X33049277Y-15477195D01*
X33063804Y-15514900D01*
X33072092Y-15531365D01*
X33087223Y-15536536D01*
X33103741Y-15530177D01*
X33094207Y-15418992D01*
X33069853Y-15253644D01*
X33016965Y-15253644D01*
X32835583Y-15258607D01*
X32460875Y-15263570D01*
X32124243Y-15258917D01*
X31929057Y-15253644D01*
X31915176Y-15383225D01*
X31904707Y-15491171D01*
X31903854Y-15505905D01*
X31908603Y-15521648D01*
X31922078Y-15526610D01*
X31940767Y-15519243D01*
X31974190Y-15470156D01*
X32022117Y-15406097D01*
X32067866Y-15363683D01*
X32119210Y-15334055D01*
X32176277Y-15317233D01*
X32251313Y-15309458D01*
X32418302Y-15303274D01*
X32425986Y-15439050D01*
X32428771Y-15602916D01*
X32424548Y-15991481D01*
X32415224Y-16183811D01*
X32404964Y-16260516D01*
X32386635Y-16302410D01*
X32354885Y-16332670D01*
X32306365Y-16352706D01*
X32234438Y-16360396D01*
X32205233Y-16364930D01*
X32198844Y-16374045D01*
X32205396Y-16385120D01*
X32232654Y-16390175D01*
X32766256Y-16390175D01*
X32782353Y-16385960D01*
X32787038Y-16374898D01*
X32779763Y-16364667D01*
X32746249Y-16359543D01*
X32702039Y-16354932D01*
X32665745Y-16341926D01*
X32635666Y-16320925D01*
X32611960Y-16292741D01*
X32595716Y-16258343D01*
X32587044Y-16216236D01*
X32582808Y-16120598D01*
X32580530Y-15834860D01*
X32585112Y-15566581D01*
X32598754Y-15303274D01*
G37*
G36*
X31261919Y-15798257D02*
G01*
X31208216Y-15732272D01*
X31113960Y-15602606D01*
X30996863Y-15426574D01*
X30982801Y-15393307D01*
X30979105Y-15371981D01*
X30987734Y-15340381D01*
X31015165Y-15314751D01*
X31052003Y-15298546D01*
X31088447Y-15293348D01*
X31112141Y-15288843D01*
X31117914Y-15278847D01*
X31109670Y-15268920D01*
X31068439Y-15263570D01*
X30741346Y-15263570D01*
X30704262Y-15269238D01*
X30696213Y-15280553D01*
X30700606Y-15290416D01*
X30716143Y-15294279D01*
X30766228Y-15300128D01*
X30814705Y-15317853D01*
X30861780Y-15351287D01*
X30929630Y-15423472D01*
X31080537Y-15628739D01*
X31184953Y-15775538D01*
X31208955Y-15817412D01*
X31218088Y-15874827D01*
X31222836Y-16034931D01*
X31215924Y-16246319D01*
X31203371Y-16312705D01*
X31185009Y-16334935D01*
X31146703Y-16353425D01*
X31077125Y-16365980D01*
X31054948Y-16372434D01*
X31049363Y-16383040D01*
X31055601Y-16394996D01*
X31079761Y-16400101D01*
X31313101Y-16390175D01*
X31451057Y-16395138D01*
X31506581Y-16400101D01*
X31533093Y-16395082D01*
X31539538Y-16383971D01*
X31534644Y-16374849D01*
X31515266Y-16370322D01*
X31463446Y-16360930D01*
X31427817Y-16339919D01*
X31404141Y-16307432D01*
X31389975Y-16266652D01*
X31380133Y-16209627D01*
X31376379Y-16131865D01*
X31380779Y-16010450D01*
X31392043Y-15925745D01*
X31404911Y-15894779D01*
X31466721Y-15782981D01*
X31543079Y-15657885D01*
X31640659Y-15511333D01*
X31739305Y-15378826D01*
X31787689Y-15330106D01*
X31832739Y-15304368D01*
X31873533Y-15294279D01*
X31898866Y-15287952D01*
X31904785Y-15278149D01*
X31896565Y-15266439D01*
X31847555Y-15263570D01*
X31468350Y-15263570D01*
X31421511Y-15265974D01*
X31415782Y-15270164D01*
X31413679Y-15278847D01*
X31418239Y-15288284D01*
X31435392Y-15293348D01*
X31490667Y-15302854D01*
X31522679Y-15317829D01*
X31539313Y-15336492D01*
X31544734Y-15359729D01*
X31537063Y-15392354D01*
X31504875Y-15453250D01*
X31261919Y-15798257D01*
G37*
G36*
X30585398Y-15248101D02*
G01*
X30590749Y-15258375D01*
X30581623Y-15269400D01*
X30533519Y-15283422D01*
X30500540Y-15293592D01*
X30477572Y-15309174D01*
X30462331Y-15330106D01*
X30450118Y-15379150D01*
X30444108Y-15500709D01*
X30446744Y-15752117D01*
X30444108Y-15985146D01*
X30449303Y-16197703D01*
X30460783Y-16280935D01*
X30477530Y-16317668D01*
X30506620Y-16340497D01*
X30558645Y-16358690D01*
X30585660Y-16367794D01*
X30591602Y-16377147D01*
X30585088Y-16387538D01*
X30477918Y-16390175D01*
X30239383Y-16390175D01*
X30147412Y-16388313D01*
X30138123Y-16384157D01*
X30135238Y-16376061D01*
X30142128Y-16366843D01*
X30175174Y-16360396D01*
X30209213Y-16353475D01*
X30241555Y-16335814D01*
X30267912Y-16311329D01*
X30281491Y-16288355D01*
X30288039Y-16254607D01*
X30293589Y-16164823D01*
X30296613Y-16036017D01*
X30294054Y-15957772D01*
X30288858Y-15839125D01*
X30150049Y-15844243D01*
X30022170Y-15838360D01*
X29920737Y-15822393D01*
X29841208Y-15798466D01*
X29779607Y-15768092D01*
X29725334Y-15724937D01*
X29687565Y-15673807D01*
X29664489Y-15613221D01*
X29656384Y-15540491D01*
X29658787Y-15515908D01*
X29827298Y-15515908D01*
X29836050Y-15591833D01*
X29863357Y-15670925D01*
X29892375Y-15718226D01*
X29930025Y-15753935D01*
X29977429Y-15779414D01*
X30057497Y-15801874D01*
X30144000Y-15809502D01*
X30288858Y-15805159D01*
X30289711Y-15750023D01*
X30286222Y-15539095D01*
X30289711Y-15341117D01*
X30288858Y-15302344D01*
X30219008Y-15288471D01*
X30132679Y-15283422D01*
X30043515Y-15288834D01*
X29977075Y-15303189D01*
X29928457Y-15324312D01*
X29893678Y-15351043D01*
X29856773Y-15399430D01*
X29834826Y-15453737D01*
X29827298Y-15515908D01*
X29658787Y-15515908D01*
X29662408Y-15478863D01*
X29679944Y-15423864D01*
X29708975Y-15374078D01*
X29750526Y-15328555D01*
X29798889Y-15296177D01*
X29870730Y-15269549D01*
X29973730Y-15250892D01*
X30117092Y-15243718D01*
X30392927Y-15244649D01*
X30564693Y-15243718D01*
X30585398Y-15248101D01*
G37*
G36*
X29491054Y-15253644D02*
G01*
X29056402Y-15253644D01*
X29025703Y-15258251D01*
X29019102Y-15267370D01*
X29024581Y-15277316D01*
X29046864Y-15283422D01*
X29102996Y-15295945D01*
X29137982Y-15317388D01*
X29162142Y-15352167D01*
X29182649Y-15415718D01*
X29192905Y-15506033D01*
X29197848Y-15717686D01*
X29192870Y-15974008D01*
X29181796Y-16102397D01*
X29163219Y-16169475D01*
X29129984Y-16225503D01*
X29081140Y-16272536D01*
X29021559Y-16306089D01*
X28946152Y-16327713D01*
X28850825Y-16335581D01*
X28750305Y-16328009D01*
X28674652Y-16307715D01*
X28618339Y-16277188D01*
X28572318Y-16233215D01*
X28537746Y-16176346D01*
X28514658Y-16103715D01*
X28498567Y-15955505D01*
X28490774Y-15604235D01*
X28497043Y-15470039D01*
X28512117Y-15389342D01*
X28531563Y-15344917D01*
X28562923Y-15310882D01*
X28602246Y-15290579D01*
X28652149Y-15283422D01*
X28678038Y-15278632D01*
X28684254Y-15268145D01*
X28676927Y-15258603D01*
X28641758Y-15253644D01*
X28294657Y-15253644D01*
X28276175Y-15257796D01*
X28271238Y-15267835D01*
X28275084Y-15275224D01*
X28290314Y-15279933D01*
X28349993Y-15296329D01*
X28387093Y-15321808D01*
X28403467Y-15345511D01*
X28417337Y-15382806D01*
X28427418Y-15438672D01*
X28434175Y-15533301D01*
X28436956Y-15687210D01*
X28441103Y-15884502D01*
X28452155Y-16035319D01*
X28467890Y-16129846D01*
X28490314Y-16199099D01*
X28517683Y-16248573D01*
X28555130Y-16290797D01*
X28604838Y-16328618D01*
X28669054Y-16361947D01*
X28737767Y-16384946D01*
X28819819Y-16399757D01*
X28917593Y-16405064D01*
X29017415Y-16399195D01*
X29102442Y-16382679D01*
X29174894Y-16356752D01*
X29241059Y-16318972D01*
X29287875Y-16276414D01*
X29318899Y-16228877D01*
X29338086Y-16174139D01*
X29351467Y-16096928D01*
X29356587Y-15990884D01*
X29353097Y-15749868D01*
X29357714Y-15528176D01*
X29368228Y-15410187D01*
X29380472Y-15356937D01*
X29397833Y-15325695D01*
X29422155Y-15303516D01*
X29454686Y-15289230D01*
X29498033Y-15283422D01*
X29521895Y-15279182D01*
X29527501Y-15270084D01*
X29520576Y-15258876D01*
X29491054Y-15253644D01*
G37*
G36*
X27542140Y-15317155D02*
G01*
X27522155Y-15292905D01*
X27510888Y-15269231D01*
X27501651Y-15253068D01*
X27490959Y-15248681D01*
X27475294Y-15257366D01*
X27457924Y-15382915D01*
X27437141Y-15545764D01*
X27441600Y-15557192D01*
X27456218Y-15561351D01*
X27465186Y-15557768D01*
X27474441Y-15544213D01*
X27510343Y-15472958D01*
X27555619Y-15410929D01*
X27610692Y-15357170D01*
X27673874Y-15315574D01*
X27738990Y-15291446D01*
X27807584Y-15283422D01*
X27874753Y-15291116D01*
X27926292Y-15312340D01*
X27965935Y-15346235D01*
X27996305Y-15390327D01*
X28013615Y-15434420D01*
X28019287Y-15479616D01*
X28012370Y-15534130D01*
X27992946Y-15577071D01*
X27961127Y-15611214D01*
X27918898Y-15637755D01*
X27843641Y-15671827D01*
X27721739Y-15714972D01*
X27597376Y-15759061D01*
X27521745Y-15795698D01*
X27461255Y-15841990D01*
X27410310Y-15905040D01*
X27385065Y-15953462D01*
X27370166Y-16003505D01*
X27365177Y-16056024D01*
X27372056Y-16121742D01*
X27392597Y-16183789D01*
X27427564Y-16243451D01*
X27478862Y-16301616D01*
X27538854Y-16349040D01*
X27604402Y-16382587D01*
X27676670Y-16403001D01*
X27757256Y-16410027D01*
X27829453Y-16404523D01*
X27902761Y-16387739D01*
X27977952Y-16358908D01*
X28055734Y-16316815D01*
X28080308Y-16343180D01*
X28093888Y-16372881D01*
X28104035Y-16394448D01*
X28116454Y-16400101D01*
X28126907Y-16393606D01*
X28136461Y-16364584D01*
X28161586Y-16028340D01*
X28155675Y-16020776D01*
X28143363Y-16017948D01*
X28132343Y-16022130D01*
X28122502Y-16037180D01*
X28068245Y-16152859D01*
X28010933Y-16238877D01*
X27951059Y-16300683D01*
X27888352Y-16342491D01*
X27821754Y-16367025D01*
X27749501Y-16375285D01*
X27673324Y-16366675D01*
X27612448Y-16342547D01*
X27563388Y-16303554D01*
X27525596Y-16252596D01*
X27503562Y-16198226D01*
X27496155Y-16138844D01*
X27505135Y-16077147D01*
X27532136Y-16020585D01*
X27573708Y-15972164D01*
X27627597Y-15933655D01*
X27696324Y-15901833D01*
X27815416Y-15859830D01*
X27925717Y-15820347D01*
X27996993Y-15787200D01*
X28039682Y-15759639D01*
X28091967Y-15708336D01*
X28126845Y-15652934D01*
X28147954Y-15593242D01*
X28154607Y-15537932D01*
X28148363Y-15483050D01*
X28129666Y-15431364D01*
X28097607Y-15381652D01*
X28050073Y-15333130D01*
X27995488Y-15294380D01*
X27935325Y-15266637D01*
X27868524Y-15249607D01*
X27793703Y-15243718D01*
X27736063Y-15248104D01*
X27673582Y-15261864D01*
X27610760Y-15284138D01*
X27542140Y-15317155D01*
G37*
D13*
X41531418Y-26647349D02*
X41997084Y-25982111D01*
X42329703Y-26647349D02*
X42329703Y-25250349D01*
X42329703Y-25250349D02*
X41797513Y-25250349D01*
X41797513Y-25250349D02*
X41664465Y-25316873D01*
X41664465Y-25316873D02*
X41597942Y-25383397D01*
X41597942Y-25383397D02*
X41531418Y-25516445D01*
X41531418Y-25516445D02*
X41531418Y-25716016D01*
X41531418Y-25716016D02*
X41597942Y-25849064D01*
X41597942Y-25849064D02*
X41664465Y-25915587D01*
X41664465Y-25915587D02*
X41797513Y-25982111D01*
X41797513Y-25982111D02*
X42329703Y-25982111D01*
X40400513Y-26580826D02*
X40533561Y-26647349D01*
X40533561Y-26647349D02*
X40799656Y-26647349D01*
X40799656Y-26647349D02*
X40932703Y-26580826D01*
X40932703Y-26580826D02*
X40999227Y-26447778D01*
X40999227Y-26447778D02*
X40999227Y-25915587D01*
X40999227Y-25915587D02*
X40932703Y-25782540D01*
X40932703Y-25782540D02*
X40799656Y-25716016D01*
X40799656Y-25716016D02*
X40533561Y-25716016D01*
X40533561Y-25716016D02*
X40400513Y-25782540D01*
X40400513Y-25782540D02*
X40333989Y-25915587D01*
X40333989Y-25915587D02*
X40333989Y-26048635D01*
X40333989Y-26048635D02*
X40999227Y-26181683D01*
X39735274Y-26647349D02*
X39735274Y-25716016D01*
X39735274Y-25849064D02*
X39668751Y-25782540D01*
X39668751Y-25782540D02*
X39535703Y-25716016D01*
X39535703Y-25716016D02*
X39336132Y-25716016D01*
X39336132Y-25716016D02*
X39203084Y-25782540D01*
X39203084Y-25782540D02*
X39136560Y-25915587D01*
X39136560Y-25915587D02*
X39136560Y-26647349D01*
X39136560Y-25915587D02*
X39070036Y-25782540D01*
X39070036Y-25782540D02*
X38936989Y-25716016D01*
X38936989Y-25716016D02*
X38737417Y-25716016D01*
X38737417Y-25716016D02*
X38604370Y-25782540D01*
X38604370Y-25782540D02*
X38537846Y-25915587D01*
X38537846Y-25915587D02*
X38537846Y-26647349D01*
X37673036Y-26647349D02*
X37806084Y-26580826D01*
X37806084Y-26580826D02*
X37872607Y-26514302D01*
X37872607Y-26514302D02*
X37939131Y-26381254D01*
X37939131Y-26381254D02*
X37939131Y-25982111D01*
X37939131Y-25982111D02*
X37872607Y-25849064D01*
X37872607Y-25849064D02*
X37806084Y-25782540D01*
X37806084Y-25782540D02*
X37673036Y-25716016D01*
X37673036Y-25716016D02*
X37473465Y-25716016D01*
X37473465Y-25716016D02*
X37340417Y-25782540D01*
X37340417Y-25782540D02*
X37273893Y-25849064D01*
X37273893Y-25849064D02*
X37207369Y-25982111D01*
X37207369Y-25982111D02*
X37207369Y-26381254D01*
X37207369Y-26381254D02*
X37273893Y-26514302D01*
X37273893Y-26514302D02*
X37340417Y-26580826D01*
X37340417Y-26580826D02*
X37473465Y-26647349D01*
X37473465Y-26647349D02*
X37673036Y-26647349D01*
X36808227Y-25716016D02*
X36276036Y-25716016D01*
X36608655Y-25250349D02*
X36608655Y-26447778D01*
X36608655Y-26447778D02*
X36542132Y-26580826D01*
X36542132Y-26580826D02*
X36409084Y-26647349D01*
X36409084Y-26647349D02*
X36276036Y-26647349D01*
X35278179Y-26580826D02*
X35411227Y-26647349D01*
X35411227Y-26647349D02*
X35677322Y-26647349D01*
X35677322Y-26647349D02*
X35810369Y-26580826D01*
X35810369Y-26580826D02*
X35876893Y-26447778D01*
X35876893Y-26447778D02*
X35876893Y-25915587D01*
X35876893Y-25915587D02*
X35810369Y-25782540D01*
X35810369Y-25782540D02*
X35677322Y-25716016D01*
X35677322Y-25716016D02*
X35411227Y-25716016D01*
X35411227Y-25716016D02*
X35278179Y-25782540D01*
X35278179Y-25782540D02*
X35211655Y-25915587D01*
X35211655Y-25915587D02*
X35211655Y-26048635D01*
X35211655Y-26048635D02*
X35876893Y-26181683D01*
X33548559Y-26647349D02*
X33548559Y-25250349D01*
X33548559Y-25250349D02*
X33082893Y-26248206D01*
X33082893Y-26248206D02*
X32617226Y-25250349D01*
X32617226Y-25250349D02*
X32617226Y-26647349D01*
X31752417Y-26647349D02*
X31885465Y-26580826D01*
X31885465Y-26580826D02*
X31951988Y-26514302D01*
X31951988Y-26514302D02*
X32018512Y-26381254D01*
X32018512Y-26381254D02*
X32018512Y-25982111D01*
X32018512Y-25982111D02*
X31951988Y-25849064D01*
X31951988Y-25849064D02*
X31885465Y-25782540D01*
X31885465Y-25782540D02*
X31752417Y-25716016D01*
X31752417Y-25716016D02*
X31552846Y-25716016D01*
X31552846Y-25716016D02*
X31419798Y-25782540D01*
X31419798Y-25782540D02*
X31353274Y-25849064D01*
X31353274Y-25849064D02*
X31286750Y-25982111D01*
X31286750Y-25982111D02*
X31286750Y-26381254D01*
X31286750Y-26381254D02*
X31353274Y-26514302D01*
X31353274Y-26514302D02*
X31419798Y-26580826D01*
X31419798Y-26580826D02*
X31552846Y-26647349D01*
X31552846Y-26647349D02*
X31752417Y-26647349D01*
X30688036Y-25716016D02*
X30688036Y-26647349D01*
X30688036Y-25849064D02*
X30621513Y-25782540D01*
X30621513Y-25782540D02*
X30488465Y-25716016D01*
X30488465Y-25716016D02*
X30288894Y-25716016D01*
X30288894Y-25716016D02*
X30155846Y-25782540D01*
X30155846Y-25782540D02*
X30089322Y-25915587D01*
X30089322Y-25915587D02*
X30089322Y-26647349D01*
X29424084Y-26647349D02*
X29424084Y-25716016D01*
X29424084Y-25250349D02*
X29490608Y-25316873D01*
X29490608Y-25316873D02*
X29424084Y-25383397D01*
X29424084Y-25383397D02*
X29357561Y-25316873D01*
X29357561Y-25316873D02*
X29424084Y-25250349D01*
X29424084Y-25250349D02*
X29424084Y-25383397D01*
X28958418Y-25716016D02*
X28426227Y-25716016D01*
X28758846Y-25250349D02*
X28758846Y-26447778D01*
X28758846Y-26447778D02*
X28692323Y-26580826D01*
X28692323Y-26580826D02*
X28559275Y-26647349D01*
X28559275Y-26647349D02*
X28426227Y-26647349D01*
X27760989Y-26647349D02*
X27894037Y-26580826D01*
X27894037Y-26580826D02*
X27960560Y-26514302D01*
X27960560Y-26514302D02*
X28027084Y-26381254D01*
X28027084Y-26381254D02*
X28027084Y-25982111D01*
X28027084Y-25982111D02*
X27960560Y-25849064D01*
X27960560Y-25849064D02*
X27894037Y-25782540D01*
X27894037Y-25782540D02*
X27760989Y-25716016D01*
X27760989Y-25716016D02*
X27561418Y-25716016D01*
X27561418Y-25716016D02*
X27428370Y-25782540D01*
X27428370Y-25782540D02*
X27361846Y-25849064D01*
X27361846Y-25849064D02*
X27295322Y-25982111D01*
X27295322Y-25982111D02*
X27295322Y-26381254D01*
X27295322Y-26381254D02*
X27361846Y-26514302D01*
X27361846Y-26514302D02*
X27428370Y-26580826D01*
X27428370Y-26580826D02*
X27561418Y-26647349D01*
X27561418Y-26647349D02*
X27760989Y-26647349D01*
X26696608Y-26647349D02*
X26696608Y-25716016D01*
X26696608Y-25982111D02*
X26630085Y-25849064D01*
X26630085Y-25849064D02*
X26563561Y-25782540D01*
X26563561Y-25782540D02*
X26430513Y-25716016D01*
X26430513Y-25716016D02*
X26297466Y-25716016D01*
X25831798Y-26647349D02*
X25831798Y-25716016D01*
X25831798Y-25250349D02*
X25898322Y-25316873D01*
X25898322Y-25316873D02*
X25831798Y-25383397D01*
X25831798Y-25383397D02*
X25765275Y-25316873D01*
X25765275Y-25316873D02*
X25831798Y-25250349D01*
X25831798Y-25250349D02*
X25831798Y-25383397D01*
X25166560Y-25716016D02*
X25166560Y-26647349D01*
X25166560Y-25849064D02*
X25100037Y-25782540D01*
X25100037Y-25782540D02*
X24966989Y-25716016D01*
X24966989Y-25716016D02*
X24767418Y-25716016D01*
X24767418Y-25716016D02*
X24634370Y-25782540D01*
X24634370Y-25782540D02*
X24567846Y-25915587D01*
X24567846Y-25915587D02*
X24567846Y-26647349D01*
X23303894Y-25716016D02*
X23303894Y-26846921D01*
X23303894Y-26846921D02*
X23370418Y-26979968D01*
X23370418Y-26979968D02*
X23436942Y-27046492D01*
X23436942Y-27046492D02*
X23569989Y-27113016D01*
X23569989Y-27113016D02*
X23769561Y-27113016D01*
X23769561Y-27113016D02*
X23902608Y-27046492D01*
X23303894Y-26580826D02*
X23436942Y-26647349D01*
X23436942Y-26647349D02*
X23703037Y-26647349D01*
X23703037Y-26647349D02*
X23836085Y-26580826D01*
X23836085Y-26580826D02*
X23902608Y-26514302D01*
X23902608Y-26514302D02*
X23969132Y-26381254D01*
X23969132Y-26381254D02*
X23969132Y-25982111D01*
X23969132Y-25982111D02*
X23902608Y-25849064D01*
X23902608Y-25849064D02*
X23836085Y-25782540D01*
X23836085Y-25782540D02*
X23703037Y-25716016D01*
X23703037Y-25716016D02*
X23436942Y-25716016D01*
X23436942Y-25716016D02*
X23303894Y-25782540D01*
X41365108Y-28497298D02*
X40699870Y-28497298D01*
X41498156Y-28896441D02*
X41032489Y-27499441D01*
X41032489Y-27499441D02*
X40566823Y-28896441D01*
X40101155Y-27965108D02*
X40101155Y-28896441D01*
X40101155Y-28098156D02*
X40034632Y-28031632D01*
X40034632Y-28031632D02*
X39901584Y-27965108D01*
X39901584Y-27965108D02*
X39702013Y-27965108D01*
X39702013Y-27965108D02*
X39568965Y-28031632D01*
X39568965Y-28031632D02*
X39502441Y-28164679D01*
X39502441Y-28164679D02*
X39502441Y-28896441D01*
X38238489Y-28896441D02*
X38238489Y-28164679D01*
X38238489Y-28164679D02*
X38305013Y-28031632D01*
X38305013Y-28031632D02*
X38438061Y-27965108D01*
X38438061Y-27965108D02*
X38704156Y-27965108D01*
X38704156Y-27965108D02*
X38837203Y-28031632D01*
X38238489Y-28829918D02*
X38371537Y-28896441D01*
X38371537Y-28896441D02*
X38704156Y-28896441D01*
X38704156Y-28896441D02*
X38837203Y-28829918D01*
X38837203Y-28829918D02*
X38903727Y-28696870D01*
X38903727Y-28696870D02*
X38903727Y-28563822D01*
X38903727Y-28563822D02*
X38837203Y-28430775D01*
X38837203Y-28430775D02*
X38704156Y-28364251D01*
X38704156Y-28364251D02*
X38371537Y-28364251D01*
X38371537Y-28364251D02*
X38238489Y-28297727D01*
X37373680Y-28896441D02*
X37506728Y-28829918D01*
X37506728Y-28829918D02*
X37573251Y-28696870D01*
X37573251Y-28696870D02*
X37573251Y-27499441D01*
X36641918Y-28896441D02*
X36774966Y-28829918D01*
X36774966Y-28829918D02*
X36841489Y-28763394D01*
X36841489Y-28763394D02*
X36908013Y-28630346D01*
X36908013Y-28630346D02*
X36908013Y-28231203D01*
X36908013Y-28231203D02*
X36841489Y-28098156D01*
X36841489Y-28098156D02*
X36774966Y-28031632D01*
X36774966Y-28031632D02*
X36641918Y-27965108D01*
X36641918Y-27965108D02*
X36442347Y-27965108D01*
X36442347Y-27965108D02*
X36309299Y-28031632D01*
X36309299Y-28031632D02*
X36242775Y-28098156D01*
X36242775Y-28098156D02*
X36176251Y-28231203D01*
X36176251Y-28231203D02*
X36176251Y-28630346D01*
X36176251Y-28630346D02*
X36242775Y-28763394D01*
X36242775Y-28763394D02*
X36309299Y-28829918D01*
X36309299Y-28829918D02*
X36442347Y-28896441D01*
X36442347Y-28896441D02*
X36641918Y-28896441D01*
X34978823Y-27965108D02*
X34978823Y-29096013D01*
X34978823Y-29096013D02*
X35045347Y-29229060D01*
X35045347Y-29229060D02*
X35111871Y-29295584D01*
X35111871Y-29295584D02*
X35244918Y-29362108D01*
X35244918Y-29362108D02*
X35444490Y-29362108D01*
X35444490Y-29362108D02*
X35577537Y-29295584D01*
X34978823Y-28829918D02*
X35111871Y-28896441D01*
X35111871Y-28896441D02*
X35377966Y-28896441D01*
X35377966Y-28896441D02*
X35511014Y-28829918D01*
X35511014Y-28829918D02*
X35577537Y-28763394D01*
X35577537Y-28763394D02*
X35644061Y-28630346D01*
X35644061Y-28630346D02*
X35644061Y-28231203D01*
X35644061Y-28231203D02*
X35577537Y-28098156D01*
X35577537Y-28098156D02*
X35511014Y-28031632D01*
X35511014Y-28031632D02*
X35377966Y-27965108D01*
X35377966Y-27965108D02*
X35111871Y-27965108D01*
X35111871Y-27965108D02*
X34978823Y-28031632D01*
X33714871Y-27965108D02*
X33714871Y-28896441D01*
X34313585Y-27965108D02*
X34313585Y-28696870D01*
X34313585Y-28696870D02*
X34247062Y-28829918D01*
X34247062Y-28829918D02*
X34114014Y-28896441D01*
X34114014Y-28896441D02*
X33914443Y-28896441D01*
X33914443Y-28896441D02*
X33781395Y-28829918D01*
X33781395Y-28829918D02*
X33714871Y-28763394D01*
X32517443Y-28829918D02*
X32650491Y-28896441D01*
X32650491Y-28896441D02*
X32916586Y-28896441D01*
X32916586Y-28896441D02*
X33049633Y-28829918D01*
X33049633Y-28829918D02*
X33116157Y-28696870D01*
X33116157Y-28696870D02*
X33116157Y-28164679D01*
X33116157Y-28164679D02*
X33049633Y-28031632D01*
X33049633Y-28031632D02*
X32916586Y-27965108D01*
X32916586Y-27965108D02*
X32650491Y-27965108D01*
X32650491Y-27965108D02*
X32517443Y-28031632D01*
X32517443Y-28031632D02*
X32450919Y-28164679D01*
X32450919Y-28164679D02*
X32450919Y-28297727D01*
X32450919Y-28297727D02*
X33116157Y-28430775D01*
X30322157Y-28164679D02*
X30122585Y-28231203D01*
X30122585Y-28231203D02*
X30056062Y-28297727D01*
X30056062Y-28297727D02*
X29989538Y-28430775D01*
X29989538Y-28430775D02*
X29989538Y-28630346D01*
X29989538Y-28630346D02*
X30056062Y-28763394D01*
X30056062Y-28763394D02*
X30122585Y-28829918D01*
X30122585Y-28829918D02*
X30255633Y-28896441D01*
X30255633Y-28896441D02*
X30787823Y-28896441D01*
X30787823Y-28896441D02*
X30787823Y-27499441D01*
X30787823Y-27499441D02*
X30322157Y-27499441D01*
X30322157Y-27499441D02*
X30189109Y-27565965D01*
X30189109Y-27565965D02*
X30122585Y-27632489D01*
X30122585Y-27632489D02*
X30056062Y-27765537D01*
X30056062Y-27765537D02*
X30056062Y-27898584D01*
X30056062Y-27898584D02*
X30122585Y-28031632D01*
X30122585Y-28031632D02*
X30189109Y-28098156D01*
X30189109Y-28098156D02*
X30322157Y-28164679D01*
X30322157Y-28164679D02*
X30787823Y-28164679D01*
X29191252Y-28896441D02*
X29324300Y-28829918D01*
X29324300Y-28829918D02*
X29390823Y-28763394D01*
X29390823Y-28763394D02*
X29457347Y-28630346D01*
X29457347Y-28630346D02*
X29457347Y-28231203D01*
X29457347Y-28231203D02*
X29390823Y-28098156D01*
X29390823Y-28098156D02*
X29324300Y-28031632D01*
X29324300Y-28031632D02*
X29191252Y-27965108D01*
X29191252Y-27965108D02*
X28991681Y-27965108D01*
X28991681Y-27965108D02*
X28858633Y-28031632D01*
X28858633Y-28031632D02*
X28792109Y-28098156D01*
X28792109Y-28098156D02*
X28725585Y-28231203D01*
X28725585Y-28231203D02*
X28725585Y-28630346D01*
X28725585Y-28630346D02*
X28792109Y-28763394D01*
X28792109Y-28763394D02*
X28858633Y-28829918D01*
X28858633Y-28829918D02*
X28991681Y-28896441D01*
X28991681Y-28896441D02*
X29191252Y-28896441D01*
X27528157Y-28896441D02*
X27528157Y-28164679D01*
X27528157Y-28164679D02*
X27594681Y-28031632D01*
X27594681Y-28031632D02*
X27727729Y-27965108D01*
X27727729Y-27965108D02*
X27993824Y-27965108D01*
X27993824Y-27965108D02*
X28126871Y-28031632D01*
X27528157Y-28829918D02*
X27661205Y-28896441D01*
X27661205Y-28896441D02*
X27993824Y-28896441D01*
X27993824Y-28896441D02*
X28126871Y-28829918D01*
X28126871Y-28829918D02*
X28193395Y-28696870D01*
X28193395Y-28696870D02*
X28193395Y-28563822D01*
X28193395Y-28563822D02*
X28126871Y-28430775D01*
X28126871Y-28430775D02*
X27993824Y-28364251D01*
X27993824Y-28364251D02*
X27661205Y-28364251D01*
X27661205Y-28364251D02*
X27528157Y-28297727D01*
X26862919Y-28896441D02*
X26862919Y-27965108D01*
X26862919Y-28231203D02*
X26796396Y-28098156D01*
X26796396Y-28098156D02*
X26729872Y-28031632D01*
X26729872Y-28031632D02*
X26596824Y-27965108D01*
X26596824Y-27965108D02*
X26463777Y-27965108D01*
X25399395Y-28896441D02*
X25399395Y-27499441D01*
X25399395Y-28829918D02*
X25532443Y-28896441D01*
X25532443Y-28896441D02*
X25798538Y-28896441D01*
X25798538Y-28896441D02*
X25931586Y-28829918D01*
X25931586Y-28829918D02*
X25998109Y-28763394D01*
X25998109Y-28763394D02*
X26064633Y-28630346D01*
X26064633Y-28630346D02*
X26064633Y-28231203D01*
X26064633Y-28231203D02*
X25998109Y-28098156D01*
X25998109Y-28098156D02*
X25931586Y-28031632D01*
X25931586Y-28031632D02*
X25798538Y-27965108D01*
X25798538Y-27965108D02*
X25532443Y-27965108D01*
X25532443Y-27965108D02*
X25399395Y-28031632D01*
X39801799Y-31145533D02*
X39801799Y-29748533D01*
X39801799Y-29748533D02*
X39336133Y-30746390D01*
X39336133Y-30746390D02*
X38870466Y-29748533D01*
X38870466Y-29748533D02*
X38870466Y-31145533D01*
X37939133Y-29748533D02*
X37673038Y-29748533D01*
X37673038Y-29748533D02*
X37539990Y-29815057D01*
X37539990Y-29815057D02*
X37406943Y-29948105D01*
X37406943Y-29948105D02*
X37340419Y-30214200D01*
X37340419Y-30214200D02*
X37340419Y-30679867D01*
X37340419Y-30679867D02*
X37406943Y-30945962D01*
X37406943Y-30945962D02*
X37539990Y-31079010D01*
X37539990Y-31079010D02*
X37673038Y-31145533D01*
X37673038Y-31145533D02*
X37939133Y-31145533D01*
X37939133Y-31145533D02*
X38072181Y-31079010D01*
X38072181Y-31079010D02*
X38205228Y-30945962D01*
X38205228Y-30945962D02*
X38271752Y-30679867D01*
X38271752Y-30679867D02*
X38271752Y-30214200D01*
X38271752Y-30214200D02*
X38205228Y-29948105D01*
X38205228Y-29948105D02*
X38072181Y-29815057D01*
X38072181Y-29815057D02*
X37939133Y-29748533D01*
X36741704Y-31145533D02*
X36741704Y-29748533D01*
X36741704Y-29748533D02*
X35943419Y-31145533D01*
X35943419Y-31145533D02*
X35943419Y-29748533D01*
X35278180Y-30613343D02*
X34213800Y-30613343D01*
X33615085Y-30746390D02*
X32949847Y-30746390D01*
X33748133Y-31145533D02*
X33282466Y-29748533D01*
X33282466Y-29748533D02*
X32816800Y-31145533D01*
X32351132Y-31145533D02*
X32351132Y-29748533D01*
X32351132Y-29748533D02*
X31552847Y-31145533D01*
X31552847Y-31145533D02*
X31552847Y-29748533D01*
X31020656Y-29748533D02*
X30089323Y-31145533D01*
X30089323Y-29748533D02*
X31020656Y-31145533D01*
X29557132Y-30613343D02*
X28492752Y-30613343D01*
X27561418Y-29748533D02*
X27428371Y-29748533D01*
X27428371Y-29748533D02*
X27295323Y-29815057D01*
X27295323Y-29815057D02*
X27228799Y-29881581D01*
X27228799Y-29881581D02*
X27162275Y-30014629D01*
X27162275Y-30014629D02*
X27095752Y-30280724D01*
X27095752Y-30280724D02*
X27095752Y-30613343D01*
X27095752Y-30613343D02*
X27162275Y-30879438D01*
X27162275Y-30879438D02*
X27228799Y-31012486D01*
X27228799Y-31012486D02*
X27295323Y-31079010D01*
X27295323Y-31079010D02*
X27428371Y-31145533D01*
X27428371Y-31145533D02*
X27561418Y-31145533D01*
X27561418Y-31145533D02*
X27694466Y-31079010D01*
X27694466Y-31079010D02*
X27760990Y-31012486D01*
X27760990Y-31012486D02*
X27827513Y-30879438D01*
X27827513Y-30879438D02*
X27894037Y-30613343D01*
X27894037Y-30613343D02*
X27894037Y-30280724D01*
X27894037Y-30280724D02*
X27827513Y-30014629D01*
X27827513Y-30014629D02*
X27760990Y-29881581D01*
X27760990Y-29881581D02*
X27694466Y-29815057D01*
X27694466Y-29815057D02*
X27561418Y-29748533D01*
X26430514Y-31145533D02*
X26164418Y-31145533D01*
X26164418Y-31145533D02*
X26031371Y-31079010D01*
X26031371Y-31079010D02*
X25964847Y-31012486D01*
X25964847Y-31012486D02*
X25831799Y-30812914D01*
X25831799Y-30812914D02*
X25765276Y-30546819D01*
X25765276Y-30546819D02*
X25765276Y-30014629D01*
X25765276Y-30014629D02*
X25831799Y-29881581D01*
X25831799Y-29881581D02*
X25898323Y-29815057D01*
X25898323Y-29815057D02*
X26031371Y-29748533D01*
X26031371Y-29748533D02*
X26297466Y-29748533D01*
X26297466Y-29748533D02*
X26430514Y-29815057D01*
X26430514Y-29815057D02*
X26497037Y-29881581D01*
X26497037Y-29881581D02*
X26563561Y-30014629D01*
X26563561Y-30014629D02*
X26563561Y-30347248D01*
X26563561Y-30347248D02*
X26497037Y-30480295D01*
X26497037Y-30480295D02*
X26430514Y-30546819D01*
X26430514Y-30546819D02*
X26297466Y-30613343D01*
X26297466Y-30613343D02*
X26031371Y-30613343D01*
X26031371Y-30613343D02*
X25898323Y-30546819D01*
X25898323Y-30546819D02*
X25831799Y-30480295D01*
X25831799Y-30480295D02*
X25765276Y-30347248D01*
X38171966Y-31997625D02*
X37307157Y-31997625D01*
X37307157Y-31997625D02*
X37772823Y-32529816D01*
X37772823Y-32529816D02*
X37573252Y-32529816D01*
X37573252Y-32529816D02*
X37440204Y-32596340D01*
X37440204Y-32596340D02*
X37373680Y-32662863D01*
X37373680Y-32662863D02*
X37307157Y-32795911D01*
X37307157Y-32795911D02*
X37307157Y-33128530D01*
X37307157Y-33128530D02*
X37373680Y-33261578D01*
X37373680Y-33261578D02*
X37440204Y-33328102D01*
X37440204Y-33328102D02*
X37573252Y-33394625D01*
X37573252Y-33394625D02*
X37972395Y-33394625D01*
X37972395Y-33394625D02*
X38105442Y-33328102D01*
X38105442Y-33328102D02*
X38171966Y-33261578D01*
X35976681Y-32064149D02*
X36109728Y-31997625D01*
X36109728Y-31997625D02*
X36309300Y-31997625D01*
X36309300Y-31997625D02*
X36508871Y-32064149D01*
X36508871Y-32064149D02*
X36641919Y-32197197D01*
X36641919Y-32197197D02*
X36708442Y-32330244D01*
X36708442Y-32330244D02*
X36774966Y-32596340D01*
X36774966Y-32596340D02*
X36774966Y-32795911D01*
X36774966Y-32795911D02*
X36708442Y-33062006D01*
X36708442Y-33062006D02*
X36641919Y-33195054D01*
X36641919Y-33195054D02*
X36508871Y-33328102D01*
X36508871Y-33328102D02*
X36309300Y-33394625D01*
X36309300Y-33394625D02*
X36176252Y-33394625D01*
X36176252Y-33394625D02*
X35976681Y-33328102D01*
X35976681Y-33328102D02*
X35910157Y-33261578D01*
X35910157Y-33261578D02*
X35910157Y-32795911D01*
X35910157Y-32795911D02*
X36176252Y-32795911D01*
X35311442Y-33394625D02*
X35311442Y-31997625D01*
X35311442Y-31997625D02*
X34978823Y-31997625D01*
X34978823Y-31997625D02*
X34779252Y-32064149D01*
X34779252Y-32064149D02*
X34646204Y-32197197D01*
X34646204Y-32197197D02*
X34579681Y-32330244D01*
X34579681Y-32330244D02*
X34513157Y-32596340D01*
X34513157Y-32596340D02*
X34513157Y-32795911D01*
X34513157Y-32795911D02*
X34579681Y-33062006D01*
X34579681Y-33062006D02*
X34646204Y-33195054D01*
X34646204Y-33195054D02*
X34779252Y-33328102D01*
X34779252Y-33328102D02*
X34978823Y-33394625D01*
X34978823Y-33394625D02*
X35311442Y-33394625D01*
X33116157Y-33394625D02*
X33581823Y-32729387D01*
X33914442Y-33394625D02*
X33914442Y-31997625D01*
X33914442Y-31997625D02*
X33382252Y-31997625D01*
X33382252Y-31997625D02*
X33249204Y-32064149D01*
X33249204Y-32064149D02*
X33182681Y-32130673D01*
X33182681Y-32130673D02*
X33116157Y-32263721D01*
X33116157Y-32263721D02*
X33116157Y-32463292D01*
X33116157Y-32463292D02*
X33182681Y-32596340D01*
X33182681Y-32596340D02*
X33249204Y-32662863D01*
X33249204Y-32662863D02*
X33382252Y-32729387D01*
X33382252Y-32729387D02*
X33914442Y-32729387D01*
X32517442Y-32862435D02*
X31453062Y-32862435D01*
X30322157Y-32662863D02*
X30787823Y-32662863D01*
X30787823Y-33394625D02*
X30787823Y-31997625D01*
X30787823Y-31997625D02*
X30122585Y-31997625D01*
X29590394Y-33394625D02*
X29590394Y-31997625D01*
X29590394Y-31997625D02*
X29124728Y-32995482D01*
X29124728Y-32995482D02*
X28659061Y-31997625D01*
X28659061Y-31997625D02*
X28659061Y-33394625D01*
%LPC*%
D14*
%TO.C,TP5*%
X22987000Y-49276000D03*
%TD*%
D15*
%TO.C,H4*%
X56184800Y-91262200D03*
%TD*%
D14*
%TO.C,TP7*%
X23012400Y-68580000D03*
%TD*%
D16*
%TO.C,J1*%
X7975600Y-53975000D03*
D17*
X5435600Y-53975000D03*
X7975600Y-51435000D03*
X5435600Y-51435000D03*
X7975600Y-48895000D03*
X5435600Y-48895000D03*
X7975600Y-46355000D03*
X5435600Y-46355000D03*
X7975600Y-43815000D03*
X5435600Y-43815000D03*
X7975600Y-41275000D03*
X5435600Y-41275000D03*
%TD*%
D18*
%TO.C,RV8*%
X8382000Y-83820000D03*
X5842000Y-83820000D03*
X3302000Y-83820000D03*
%TD*%
%TO.C,RV5*%
X8382000Y-18626667D03*
X5842000Y-18626667D03*
X3302000Y-18626667D03*
%TD*%
D14*
%TO.C,TP8*%
X23012400Y-77368400D03*
%TD*%
D19*
%TO.C,J3*%
X54991000Y-37439600D03*
D20*
X57531000Y-37439600D03*
X54991000Y-39979600D03*
X57531000Y-39979600D03*
X54991000Y-42519600D03*
X57531000Y-42519600D03*
X54991000Y-45059600D03*
X57531000Y-45059600D03*
X54991000Y-47599600D03*
X57531000Y-47599600D03*
X54991000Y-50139600D03*
X57531000Y-50139600D03*
X54991000Y-52679600D03*
X57531000Y-52679600D03*
X54991000Y-55219600D03*
X57531000Y-55219600D03*
X54991000Y-57759600D03*
X57531000Y-57759600D03*
X54991000Y-60299600D03*
X57531000Y-60299600D03*
X54991000Y-62839600D03*
X57531000Y-62839600D03*
X54991000Y-65379600D03*
X57531000Y-65379600D03*
X54991000Y-67919600D03*
X57531000Y-67919600D03*
X54991000Y-70459600D03*
X57531000Y-70459600D03*
X54991000Y-72999600D03*
X57531000Y-72999600D03*
%TD*%
D18*
%TO.C,RV7*%
X8382000Y-68580000D03*
X5842000Y-68580000D03*
X3302000Y-68580000D03*
%TD*%
D14*
%TO.C,TP2*%
X22987000Y-22225000D03*
%TD*%
%TO.C,TP6*%
X22987000Y-58293000D03*
%TD*%
%TO.C,TP3*%
X23012400Y-31267400D03*
%TD*%
D18*
%TO.C,RV3*%
X8382000Y-25823333D03*
X5842000Y-25823333D03*
X3302000Y-25823333D03*
%TD*%
D19*
%TO.C,J2*%
X47802800Y-53441600D03*
D20*
X45262800Y-53441600D03*
X47802800Y-50901600D03*
X45262800Y-50901600D03*
X47802800Y-48361600D03*
X45262800Y-48361600D03*
X47802800Y-45821600D03*
X45262800Y-45821600D03*
%TD*%
D15*
%TO.C,H2*%
X56235600Y-3982200D03*
%TD*%
D14*
%TO.C,TP1*%
X22987000Y-13131800D03*
%TD*%
D18*
%TO.C,RV4*%
X8382000Y-60960000D03*
X5842000Y-60960000D03*
X3302000Y-60960000D03*
%TD*%
%TO.C,RV2*%
X8382000Y-76200000D03*
X5842000Y-76200000D03*
X3302000Y-76200000D03*
%TD*%
D15*
%TO.C,H1*%
X12000000Y-3982200D03*
%TD*%
%TO.C,H3*%
X12000000Y-91262200D03*
%TD*%
D18*
%TO.C,RV6*%
X8382000Y-33020000D03*
X5842000Y-33020000D03*
X3302000Y-33020000D03*
%TD*%
D19*
%TO.C,CON1*%
X49123600Y-92252800D03*
D20*
X46583600Y-92252800D03*
X44043600Y-92252800D03*
X41503600Y-92252800D03*
%TD*%
D18*
%TO.C,RV1*%
X8382000Y-11430000D03*
X5842000Y-11430000D03*
X3302000Y-11430000D03*
%TD*%
D14*
%TO.C,TP4*%
X22987000Y-40259000D03*
%TD*%
%LPD*%
M02*
