%TF.GenerationSoftware,KiCad,Pcbnew,9.0.2*%
%TF.CreationDate,2025-07-04T16:32:19+10:00*%
%TF.ProjectId,v9_equip_analog_IDC,76395f65-7175-4697-905f-616e616c6f67,rev?*%
%TF.SameCoordinates,Original*%
%TF.FileFunction,Soldermask,Top*%
%TF.FilePolarity,Negative*%
%FSLAX46Y46*%
G04 Gerber Fmt 4.6, Leading zero omitted, Abs format (unit mm)*
G04 Created by KiCad (PCBNEW 9.0.2) date 2025-07-04 16:32:19*
%MOMM*%
%LPD*%
G01*
G04 APERTURE LIST*
G04 Aperture macros list*
%AMRoundRect*
0 Rectangle with rounded corners*
0 $1 Rounding radius*
0 $2 $3 $4 $5 $6 $7 $8 $9 X,Y pos of 4 corners*
0 Add a 4 corners polygon primitive as box body*
4,1,4,$2,$3,$4,$5,$6,$7,$8,$9,$2,$3,0*
0 Add four circle primitives for the rounded corners*
1,1,$1+$1,$2,$3*
1,1,$1+$1,$4,$5*
1,1,$1+$1,$6,$7*
1,1,$1+$1,$8,$9*
0 Add four rect primitives between the rounded corners*
20,1,$1+$1,$2,$3,$4,$5,0*
20,1,$1+$1,$4,$5,$6,$7,0*
20,1,$1+$1,$6,$7,$8,$9,0*
20,1,$1+$1,$8,$9,$2,$3,0*%
G04 Aperture macros list end*
%ADD10R,2.000000X2.000000*%
%ADD11RoundRect,0.250000X-0.337500X-0.475000X0.337500X-0.475000X0.337500X0.475000X-0.337500X0.475000X0*%
%ADD12RoundRect,0.250000X0.450000X-0.350000X0.450000X0.350000X-0.450000X0.350000X-0.450000X-0.350000X0*%
%ADD13RoundRect,0.250000X0.337500X0.475000X-0.337500X0.475000X-0.337500X-0.475000X0.337500X-0.475000X0*%
%ADD14RoundRect,0.250000X-0.475000X0.337500X-0.475000X-0.337500X0.475000X-0.337500X0.475000X0.337500X0*%
%ADD15RoundRect,0.250000X-0.450000X0.350000X-0.450000X-0.350000X0.450000X-0.350000X0.450000X0.350000X0*%
%ADD16R,1.650000X1.650000*%
%ADD17C,1.650000*%
%ADD18C,1.440000*%
%ADD19R,1.700000X1.700000*%
%ADD20C,1.700000*%
%ADD21RoundRect,0.150000X0.625000X-0.150000X0.625000X0.150000X-0.625000X0.150000X-0.625000X-0.150000X0*%
%ADD22RoundRect,0.416666X0.970834X-0.583334X0.970834X0.583334X-0.970834X0.583334X-0.970834X-0.583334X0*%
%ADD23R,0.600000X1.250000*%
%ADD24R,1.525000X0.650000*%
G04 APERTURE END LIST*
D10*
%TO.C,TP5*%
X22987000Y-49276000D03*
%TD*%
D11*
%TO.C,C6*%
X49102100Y-62255400D03*
X51177100Y-62255400D03*
%TD*%
D12*
%TO.C,R7*%
X49072800Y-22961600D03*
X49072800Y-20961600D03*
%TD*%
D13*
%TO.C,C1*%
X44602400Y-78663800D03*
X42527400Y-78663800D03*
%TD*%
D14*
%TO.C,C5*%
X27228800Y-68609300D03*
X27228800Y-70684300D03*
%TD*%
D15*
%TO.C,R4*%
X16941800Y-73853800D03*
X16941800Y-75853800D03*
%TD*%
D14*
%TO.C,C4*%
X27178000Y-49203700D03*
X27178000Y-51278700D03*
%TD*%
D12*
%TO.C,R8*%
X17119600Y-18856200D03*
X17119600Y-16856200D03*
%TD*%
D10*
%TO.C,TP7*%
X23012400Y-68580000D03*
%TD*%
D16*
%TO.C,J1*%
X7975600Y-53975000D03*
D17*
X5435600Y-53975000D03*
X7975600Y-51435000D03*
X5435600Y-51435000D03*
X7975600Y-48895000D03*
X5435600Y-48895000D03*
X7975600Y-46355000D03*
X5435600Y-46355000D03*
X7975600Y-43815000D03*
X5435600Y-43815000D03*
X7975600Y-41275000D03*
X5435600Y-41275000D03*
%TD*%
D15*
%TO.C,R10*%
X17043400Y-67351400D03*
X17043400Y-69351400D03*
%TD*%
D18*
%TO.C,RV8*%
X8382000Y-83820000D03*
X5842000Y-83820000D03*
X3302000Y-83820000D03*
%TD*%
%TO.C,RV5*%
X8382000Y-18626667D03*
X5842000Y-18626667D03*
X3302000Y-18626667D03*
%TD*%
D10*
%TO.C,TP8*%
X23012400Y-77368400D03*
%TD*%
D19*
%TO.C,J3*%
X54991000Y-37439600D03*
D20*
X57531000Y-37439600D03*
X54991000Y-39979600D03*
X57531000Y-39979600D03*
X54991000Y-42519600D03*
X57531000Y-42519600D03*
X54991000Y-45059600D03*
X57531000Y-45059600D03*
X54991000Y-47599600D03*
X57531000Y-47599600D03*
X54991000Y-50139600D03*
X57531000Y-50139600D03*
X54991000Y-52679600D03*
X57531000Y-52679600D03*
X54991000Y-55219600D03*
X57531000Y-55219600D03*
X54991000Y-57759600D03*
X57531000Y-57759600D03*
X54991000Y-60299600D03*
X57531000Y-60299600D03*
X54991000Y-62839600D03*
X57531000Y-62839600D03*
X54991000Y-65379600D03*
X57531000Y-65379600D03*
X54991000Y-67919600D03*
X57531000Y-67919600D03*
X54991000Y-70459600D03*
X57531000Y-70459600D03*
X54991000Y-72999600D03*
X57531000Y-72999600D03*
%TD*%
D12*
%TO.C,R5*%
X55016400Y-30581600D03*
X55016400Y-28581600D03*
%TD*%
D18*
%TO.C,RV7*%
X8382000Y-68580000D03*
X5842000Y-68580000D03*
X3302000Y-68580000D03*
%TD*%
D14*
%TO.C,C8*%
X27203400Y-22101900D03*
X27203400Y-24176900D03*
%TD*%
D12*
%TO.C,R9*%
X17043400Y-34223200D03*
X17043400Y-32223200D03*
%TD*%
D10*
%TO.C,TP2*%
X22987000Y-22225000D03*
%TD*%
D12*
%TO.C,R6*%
X49072800Y-30556200D03*
X49072800Y-28556200D03*
%TD*%
D10*
%TO.C,TP6*%
X22987000Y-58293000D03*
%TD*%
D15*
%TO.C,R3*%
X17043400Y-61077600D03*
X17043400Y-63077600D03*
%TD*%
D10*
%TO.C,TP3*%
X23012400Y-31267400D03*
%TD*%
D14*
%TO.C,C10*%
X27178000Y-58220700D03*
X27178000Y-60295700D03*
%TD*%
D18*
%TO.C,RV3*%
X8382000Y-25823333D03*
X5842000Y-25823333D03*
X3302000Y-25823333D03*
%TD*%
D19*
%TO.C,J2*%
X47802800Y-53441600D03*
D20*
X45262800Y-53441600D03*
X47802800Y-50901600D03*
X45262800Y-50901600D03*
X47802800Y-48361600D03*
X45262800Y-48361600D03*
X47802800Y-45821600D03*
X45262800Y-45821600D03*
%TD*%
D21*
%TO.C,CON2*%
X54388000Y-83897600D03*
X54388000Y-82897600D03*
X54388000Y-81897600D03*
X54388000Y-80897600D03*
D22*
X57810400Y-85598000D03*
X57810400Y-79146400D03*
%TD*%
D23*
%TO.C,IC1*%
X53304400Y-23011600D03*
X55204400Y-23011600D03*
X54254400Y-20911600D03*
%TD*%
D14*
%TO.C,C2*%
X27178000Y-13211900D03*
X27178000Y-15286900D03*
%TD*%
%TO.C,C9*%
X27178000Y-40110500D03*
X27178000Y-42185500D03*
%TD*%
D15*
%TO.C,R11*%
X16992600Y-81423000D03*
X16992600Y-83423000D03*
%TD*%
D12*
%TO.C,R1*%
X17119600Y-11388600D03*
X17119600Y-9388600D03*
%TD*%
D11*
%TO.C,C11*%
X49000500Y-58013600D03*
X51075500Y-58013600D03*
%TD*%
D10*
%TO.C,TP1*%
X22987000Y-13131800D03*
%TD*%
D18*
%TO.C,RV4*%
X8382000Y-60960000D03*
X5842000Y-60960000D03*
X3302000Y-60960000D03*
%TD*%
D14*
%TO.C,C3*%
X27152600Y-31235016D03*
X27152600Y-33310016D03*
%TD*%
D18*
%TO.C,RV2*%
X8382000Y-76200000D03*
X5842000Y-76200000D03*
X3302000Y-76200000D03*
%TD*%
%TO.C,RV6*%
X8382000Y-33020000D03*
X5842000Y-33020000D03*
X3302000Y-33020000D03*
%TD*%
D14*
%TO.C,C7*%
X27228800Y-77372300D03*
X27228800Y-79447300D03*
%TD*%
D19*
%TO.C,CON1*%
X49123600Y-92252800D03*
D20*
X46583600Y-92252800D03*
X44043600Y-92252800D03*
X41503600Y-92252800D03*
%TD*%
D18*
%TO.C,RV1*%
X8382000Y-11430000D03*
X5842000Y-11430000D03*
X3302000Y-11430000D03*
%TD*%
D12*
%TO.C,R2*%
X17094200Y-26450800D03*
X17094200Y-24450800D03*
%TD*%
D10*
%TO.C,TP4*%
X22987000Y-40259000D03*
%TD*%
D24*
%TO.C,IC2*%
X40137800Y-60985400D03*
X40137800Y-62255400D03*
X40137800Y-63525400D03*
X40137800Y-64795400D03*
X40137800Y-66065400D03*
X40137800Y-67335400D03*
X40137800Y-68605400D03*
X40137800Y-69875400D03*
X45561800Y-69875400D03*
X45561800Y-68605400D03*
X45561800Y-67335400D03*
X45561800Y-66065400D03*
X45561800Y-64795400D03*
X45561800Y-63525400D03*
X45561800Y-62255400D03*
X45561800Y-60985400D03*
%TD*%
M02*
