%TF.GenerationSoftware,KiCad,Pcbnew,9.0.2*%
%TF.CreationDate,2025-07-04T16:32:19+10:00*%
%TF.ProjectId,v9_equip_analog_IDC,76395f65-7175-4697-905f-616e616c6f67,rev?*%
%TF.SameCoordinates,Original*%
%TF.FileFunction,Soldermask,Bot*%
%TF.FilePolarity,Negative*%
%FSLAX46Y46*%
G04 Gerber Fmt 4.6, Leading zero omitted, Abs format (unit mm)*
G04 Created by KiCad (PCBNEW 9.0.2) date 2025-07-04 16:32:19*
%MOMM*%
%LPD*%
G01*
G04 APERTURE LIST*
%ADD10R,2.000000X2.000000*%
%ADD11C,3.500000*%
%ADD12R,1.650000X1.650000*%
%ADD13C,1.650000*%
%ADD14C,1.440000*%
%ADD15R,1.700000X1.700000*%
%ADD16C,1.700000*%
G04 APERTURE END LIST*
D10*
%TO.C,TP5*%
X22987000Y-49276000D03*
%TD*%
D11*
%TO.C,H4*%
X56184800Y-91262200D03*
%TD*%
D10*
%TO.C,TP7*%
X23012400Y-68580000D03*
%TD*%
D12*
%TO.C,J1*%
X7975600Y-53975000D03*
D13*
X5435600Y-53975000D03*
X7975600Y-51435000D03*
X5435600Y-51435000D03*
X7975600Y-48895000D03*
X5435600Y-48895000D03*
X7975600Y-46355000D03*
X5435600Y-46355000D03*
X7975600Y-43815000D03*
X5435600Y-43815000D03*
X7975600Y-41275000D03*
X5435600Y-41275000D03*
%TD*%
D14*
%TO.C,RV8*%
X8382000Y-83820000D03*
X5842000Y-83820000D03*
X3302000Y-83820000D03*
%TD*%
%TO.C,RV5*%
X8382000Y-18626667D03*
X5842000Y-18626667D03*
X3302000Y-18626667D03*
%TD*%
D10*
%TO.C,TP8*%
X23012400Y-77368400D03*
%TD*%
D15*
%TO.C,J3*%
X54991000Y-37439600D03*
D16*
X57531000Y-37439600D03*
X54991000Y-39979600D03*
X57531000Y-39979600D03*
X54991000Y-42519600D03*
X57531000Y-42519600D03*
X54991000Y-45059600D03*
X57531000Y-45059600D03*
X54991000Y-47599600D03*
X57531000Y-47599600D03*
X54991000Y-50139600D03*
X57531000Y-50139600D03*
X54991000Y-52679600D03*
X57531000Y-52679600D03*
X54991000Y-55219600D03*
X57531000Y-55219600D03*
X54991000Y-57759600D03*
X57531000Y-57759600D03*
X54991000Y-60299600D03*
X57531000Y-60299600D03*
X54991000Y-62839600D03*
X57531000Y-62839600D03*
X54991000Y-65379600D03*
X57531000Y-65379600D03*
X54991000Y-67919600D03*
X57531000Y-67919600D03*
X54991000Y-70459600D03*
X57531000Y-70459600D03*
X54991000Y-72999600D03*
X57531000Y-72999600D03*
%TD*%
D14*
%TO.C,RV7*%
X8382000Y-68580000D03*
X5842000Y-68580000D03*
X3302000Y-68580000D03*
%TD*%
D10*
%TO.C,TP2*%
X22987000Y-22225000D03*
%TD*%
%TO.C,TP6*%
X22987000Y-58293000D03*
%TD*%
%TO.C,TP3*%
X23012400Y-31267400D03*
%TD*%
D14*
%TO.C,RV3*%
X8382000Y-25823333D03*
X5842000Y-25823333D03*
X3302000Y-25823333D03*
%TD*%
D15*
%TO.C,J2*%
X47802800Y-53441600D03*
D16*
X45262800Y-53441600D03*
X47802800Y-50901600D03*
X45262800Y-50901600D03*
X47802800Y-48361600D03*
X45262800Y-48361600D03*
X47802800Y-45821600D03*
X45262800Y-45821600D03*
%TD*%
D11*
%TO.C,H2*%
X56235600Y-3982200D03*
%TD*%
D10*
%TO.C,TP1*%
X22987000Y-13131800D03*
%TD*%
D14*
%TO.C,RV4*%
X8382000Y-60960000D03*
X5842000Y-60960000D03*
X3302000Y-60960000D03*
%TD*%
%TO.C,RV2*%
X8382000Y-76200000D03*
X5842000Y-76200000D03*
X3302000Y-76200000D03*
%TD*%
D11*
%TO.C,H1*%
X12000000Y-3982200D03*
%TD*%
%TO.C,H3*%
X12000000Y-91262200D03*
%TD*%
D14*
%TO.C,RV6*%
X8382000Y-33020000D03*
X5842000Y-33020000D03*
X3302000Y-33020000D03*
%TD*%
D15*
%TO.C,CON1*%
X49123600Y-92252800D03*
D16*
X46583600Y-92252800D03*
X44043600Y-92252800D03*
X41503600Y-92252800D03*
%TD*%
D14*
%TO.C,RV1*%
X8382000Y-11430000D03*
X5842000Y-11430000D03*
X3302000Y-11430000D03*
%TD*%
D10*
%TO.C,TP4*%
X22987000Y-40259000D03*
%TD*%
M02*
