%TF.GenerationSoftware,KiCad,Pcbnew,9.0.2*%
%TF.CreationDate,2025-07-04T16:32:19+10:00*%
%TF.ProjectId,v9_equip_analog_IDC,76395f65-7175-4697-905f-616e616c6f67,rev?*%
%TF.SameCoordinates,Original*%
%TF.FileFunction,Copper,L2,Bot*%
%TF.FilePolarity,Positive*%
%FSLAX46Y46*%
G04 Gerber Fmt 4.6, Leading zero omitted, Abs format (unit mm)*
G04 Created by KiCad (PCBNEW 9.0.2) date 2025-07-04 16:32:19*
%MOMM*%
%LPD*%
G01*
G04 APERTURE LIST*
%TA.AperFunction,ComponentPad*%
%ADD10R,2.000000X2.000000*%
%TD*%
%TA.AperFunction,ComponentPad*%
%ADD11R,1.650000X1.650000*%
%TD*%
%TA.AperFunction,ComponentPad*%
%ADD12C,1.650000*%
%TD*%
%TA.AperFunction,ComponentPad*%
%ADD13C,1.440000*%
%TD*%
%TA.AperFunction,ComponentPad*%
%ADD14R,1.700000X1.700000*%
%TD*%
%TA.AperFunction,ComponentPad*%
%ADD15C,1.700000*%
%TD*%
%TA.AperFunction,ViaPad*%
%ADD16C,0.889000*%
%TD*%
%TA.AperFunction,Conductor*%
%ADD17C,0.406400*%
%TD*%
%TA.AperFunction,Conductor*%
%ADD18C,1.016000*%
%TD*%
%TA.AperFunction,Conductor*%
%ADD19C,0.508000*%
%TD*%
G04 APERTURE END LIST*
D10*
%TO.P,TP5,1,1*%
%TO.N,/IN4*%
X22987000Y-49276000D03*
%TD*%
%TO.P,TP7,1,1*%
%TO.N,/IN6*%
X23012400Y-68580000D03*
%TD*%
D11*
%TO.P,J1,1,1*%
%TO.N,+5V*%
X7975600Y-53975000D03*
D12*
%TO.P,J1,2,2*%
%TO.N,+3V3*%
X5435600Y-53975000D03*
%TO.P,J1,3,3*%
%TO.N,/A0*%
X7975600Y-51435000D03*
%TO.P,J1,4,4*%
%TO.N,/A1*%
X5435600Y-51435000D03*
%TO.P,J1,5,5*%
%TO.N,/A2*%
X7975600Y-48895000D03*
%TO.P,J1,6,6*%
%TO.N,/A3*%
X5435600Y-48895000D03*
%TO.P,J1,7,7*%
%TO.N,/A4*%
X7975600Y-46355000D03*
%TO.P,J1,8,8*%
%TO.N,/A5*%
X5435600Y-46355000D03*
%TO.P,J1,9,9*%
%TO.N,/A6*%
X7975600Y-43815000D03*
%TO.P,J1,10,10*%
%TO.N,/A7*%
X5435600Y-43815000D03*
%TO.P,J1,11,11*%
%TO.N,GND*%
X7975600Y-41275000D03*
%TO.P,J1,12,12*%
X5435600Y-41275000D03*
%TD*%
D13*
%TO.P,RV8,1,1*%
%TO.N,GND*%
X8382000Y-83820000D03*
%TO.P,RV8,2,2*%
%TO.N,/IN7*%
X5842000Y-83820000D03*
%TO.P,RV8,3,3*%
%TO.N,Net-(R11-Pad2)*%
X3302000Y-83820000D03*
%TD*%
%TO.P,RV5,1,1*%
%TO.N,GND*%
X8382000Y-18626667D03*
%TO.P,RV5,2,2*%
%TO.N,/IN1*%
X5842000Y-18626667D03*
%TO.P,RV5,3,3*%
%TO.N,Net-(R8-Pad2)*%
X3302000Y-18626667D03*
%TD*%
D10*
%TO.P,TP8,1,1*%
%TO.N,/IN7*%
X23012400Y-77368400D03*
%TD*%
D14*
%TO.P,J3,1,Pin_1*%
%TO.N,+5V*%
X54991000Y-37439600D03*
D15*
%TO.P,J3,2,Pin_2*%
X57531000Y-37439600D03*
%TO.P,J3,3,Pin_3*%
X54991000Y-39979600D03*
%TO.P,J3,4,Pin_4*%
%TO.N,GND*%
X57531000Y-39979600D03*
%TO.P,J3,5,Pin_5*%
%TO.N,+3V3*%
X54991000Y-42519600D03*
%TO.P,J3,6,Pin_6*%
%TO.N,/GP15*%
X57531000Y-42519600D03*
%TO.P,J3,7,Pin_7*%
%TO.N,/GP16*%
X54991000Y-45059600D03*
%TO.P,J3,8,Pin_8*%
%TO.N,/GP14*%
X57531000Y-45059600D03*
%TO.P,J3,9,Pin_9*%
%TO.N,/GP17*%
X54991000Y-47599600D03*
%TO.P,J3,10,Pin_10*%
%TO.N,/GP13*%
X57531000Y-47599600D03*
%TO.P,J3,11,Pin_11*%
%TO.N,/GP18*%
X54991000Y-50139600D03*
%TO.P,J3,12,Pin_12*%
%TO.N,/GP12*%
X57531000Y-50139600D03*
%TO.P,J3,13,Pin_13*%
%TO.N,/GP19*%
X54991000Y-52679600D03*
%TO.P,J3,14,Pin_14*%
%TO.N,/GP11*%
X57531000Y-52679600D03*
%TO.P,J3,15,Pin_15*%
%TO.N,/GP20*%
X54991000Y-55219600D03*
%TO.P,J3,16,Pin_16*%
%TO.N,/GP10*%
X57531000Y-55219600D03*
%TO.P,J3,17,Pin_17*%
%TO.N,/GP21*%
X54991000Y-57759600D03*
%TO.P,J3,18,Pin_18*%
%TO.N,/GP9*%
X57531000Y-57759600D03*
%TO.P,J3,19,Pin_19*%
%TO.N,/MOSI*%
X54991000Y-60299600D03*
%TO.P,J3,20,Pin_20*%
%TO.N,/GP8*%
X57531000Y-60299600D03*
%TO.P,J3,21,Pin_21*%
%TO.N,/SCK*%
X54991000Y-62839600D03*
%TO.P,J3,22,Pin_22*%
%TO.N,/GP7*%
X57531000Y-62839600D03*
%TO.P,J3,23,Pin_23*%
%TO.N,/GP1*%
X54991000Y-65379600D03*
%TO.P,J3,24,Pin_24*%
%TO.N,/GP6*%
X57531000Y-65379600D03*
%TO.P,J3,25,Pin_25*%
%TO.N,/MISO*%
X54991000Y-67919600D03*
%TO.P,J3,26,Pin_26*%
%TO.N,/GP5*%
X57531000Y-67919600D03*
%TO.P,J3,27,Pin_27*%
%TO.N,GND*%
X54991000Y-70459600D03*
%TO.P,J3,28,Pin_28*%
%TO.N,/GP4*%
X57531000Y-70459600D03*
%TO.P,J3,29,Pin_29*%
%TO.N,GND*%
X54991000Y-72999600D03*
%TO.P,J3,30,Pin_30*%
X57531000Y-72999600D03*
%TD*%
D13*
%TO.P,RV7,1,1*%
%TO.N,GND*%
X8382000Y-68580000D03*
%TO.P,RV7,2,2*%
%TO.N,/IN5*%
X5842000Y-68580000D03*
%TO.P,RV7,3,3*%
%TO.N,Net-(R10-Pad2)*%
X3302000Y-68580000D03*
%TD*%
D10*
%TO.P,TP2,1,1*%
%TO.N,/IN1*%
X22987000Y-22225000D03*
%TD*%
%TO.P,TP6,1,1*%
%TO.N,/IN5*%
X22987000Y-58293000D03*
%TD*%
%TO.P,TP3,1,1*%
%TO.N,/IN2*%
X23012400Y-31267400D03*
%TD*%
D13*
%TO.P,RV3,1,1*%
%TO.N,GND*%
X8382000Y-25823333D03*
%TO.P,RV3,2,2*%
%TO.N,/IN2*%
X5842000Y-25823333D03*
%TO.P,RV3,3,3*%
%TO.N,Net-(R2-Pad2)*%
X3302000Y-25823333D03*
%TD*%
D14*
%TO.P,J2,1,Pin_1*%
%TO.N,/GP21*%
X47802800Y-53441600D03*
D15*
%TO.P,J2,2,Pin_2*%
%TO.N,/CS!*%
X45262800Y-53441600D03*
%TO.P,J2,3,Pin_3*%
%TO.N,/GP20*%
X47802800Y-50901600D03*
%TO.P,J2,4,Pin_4*%
%TO.N,/CS!*%
X45262800Y-50901600D03*
%TO.P,J2,5,Pin_5*%
%TO.N,/GP19*%
X47802800Y-48361600D03*
%TO.P,J2,6,Pin_6*%
%TO.N,/CS!*%
X45262800Y-48361600D03*
%TO.P,J2,7,Pin_7*%
%TO.N,/GP18*%
X47802800Y-45821600D03*
%TO.P,J2,8,Pin_8*%
%TO.N,/CS!*%
X45262800Y-45821600D03*
%TD*%
D10*
%TO.P,TP1,1,1*%
%TO.N,/IN0*%
X22987000Y-13131800D03*
%TD*%
D13*
%TO.P,RV4,1,1*%
%TO.N,GND*%
X8382000Y-60960000D03*
%TO.P,RV4,2,2*%
%TO.N,/IN4*%
X5842000Y-60960000D03*
%TO.P,RV4,3,3*%
%TO.N,Net-(R3-Pad2)*%
X3302000Y-60960000D03*
%TD*%
%TO.P,RV2,1,1*%
%TO.N,GND*%
X8382000Y-76200000D03*
%TO.P,RV2,2,2*%
%TO.N,/IN6*%
X5842000Y-76200000D03*
%TO.P,RV2,3,3*%
%TO.N,Net-(R4-Pad2)*%
X3302000Y-76200000D03*
%TD*%
%TO.P,RV6,1,1*%
%TO.N,GND*%
X8382000Y-33020000D03*
%TO.P,RV6,2,2*%
%TO.N,/IN3*%
X5842000Y-33020000D03*
%TO.P,RV6,3,3*%
%TO.N,Net-(R9-Pad2)*%
X3302000Y-33020000D03*
%TD*%
D14*
%TO.P,CON1,1,Pin_1*%
%TO.N,GND*%
X49123600Y-92252800D03*
D15*
%TO.P,CON1,2,Pin_2*%
%TO.N,+3V3*%
X46583600Y-92252800D03*
%TO.P,CON1,3,Pin_3*%
%TO.N,/GP6*%
X44043600Y-92252800D03*
%TO.P,CON1,4,Pin_4*%
%TO.N,/GP7*%
X41503600Y-92252800D03*
%TD*%
D13*
%TO.P,RV1,1,1*%
%TO.N,GND*%
X8382000Y-11430000D03*
%TO.P,RV1,2,2*%
%TO.N,/IN0*%
X5842000Y-11430000D03*
%TO.P,RV1,3,3*%
%TO.N,Net-(R1-Pad2)*%
X3302000Y-11430000D03*
%TD*%
D10*
%TO.P,TP4,1,1*%
%TO.N,/IN3*%
X22987000Y-40259000D03*
%TD*%
D16*
%TO.N,GND*%
X29362400Y-15494000D03*
X29210000Y-33477200D03*
X27254200Y-72517000D03*
X42926000Y-72771000D03*
X51536600Y-18973800D03*
X27254200Y-62636400D03*
X29286200Y-42113200D03*
X49123600Y-70612000D03*
X27279600Y-82067400D03*
X51358800Y-60071000D03*
X53035200Y-85902800D03*
X45974000Y-56159400D03*
X42799000Y-56108600D03*
X29235400Y-24561800D03*
X27279600Y-53035200D03*
X40690800Y-78663800D03*
X42621200Y-63525400D03*
X39497000Y-19050000D03*
%TO.N,+3V3*%
X47447200Y-58039000D03*
X46575000Y-78684000D03*
%TO.N,/A0*%
X12725400Y-13690600D03*
%TO.N,/A1*%
X12649200Y-20929600D03*
%TO.N,/MOSI*%
X49098200Y-68199000D03*
%TO.N,/GP7*%
X49860200Y-79526000D03*
%TO.N,/GP6*%
X49860200Y-81864200D03*
%TO.N,/A4*%
X13195300Y-47612300D03*
%TO.N,/CS!*%
X42926000Y-68580000D03*
%TO.N,/A5*%
X15151100Y-45859700D03*
%TD*%
D17*
%TO.N,/IN0*%
X6832600Y-9296400D02*
X5842000Y-10287000D01*
X22987000Y-13131800D02*
X20320000Y-13131800D01*
X16484600Y-9296400D02*
X6832600Y-9296400D01*
X5842000Y-10287000D02*
X5842000Y-11430000D01*
X20320000Y-13131800D02*
X16484600Y-9296400D01*
%TO.N,/IN4*%
X22987000Y-49276000D02*
X20624800Y-49276000D01*
X11760200Y-58140600D02*
X6781800Y-58140600D01*
X20624800Y-49276000D02*
X11760200Y-58140600D01*
X23095860Y-49268740D02*
X23088600Y-49276000D01*
X23088600Y-49276000D02*
X22987000Y-49276000D01*
X5842000Y-59080400D02*
X5842000Y-60960000D01*
X6781800Y-58140600D02*
X5842000Y-59080400D01*
D18*
%TO.N,+3V3*%
X46575000Y-78684000D02*
X46575000Y-92244200D01*
X47447200Y-58039000D02*
X47472600Y-58039000D01*
X51460400Y-42570400D02*
X51485800Y-42545000D01*
X51460400Y-54051200D02*
X51460400Y-42570400D01*
X47472600Y-58039000D02*
X51460400Y-54051200D01*
X6375400Y-56210200D02*
X5435600Y-55270400D01*
X37058600Y-42519600D02*
X33782000Y-45796200D01*
X10490200Y-56210200D02*
X6375400Y-56210200D01*
X46575000Y-78616000D02*
X46575000Y-58911200D01*
X20904200Y-45796200D02*
X10490200Y-56210200D01*
X46575000Y-58911200D02*
X47447200Y-58039000D01*
X5435600Y-55270400D02*
X5435600Y-53975000D01*
X33782000Y-45796200D02*
X20904200Y-45796200D01*
X46575000Y-92244200D02*
X46583600Y-92252800D01*
X54997400Y-42519600D02*
X37058600Y-42519600D01*
D17*
%TO.N,/IN5*%
X22987000Y-58293000D02*
X20548600Y-58293000D01*
X5842000Y-66294000D02*
X5842000Y-68580000D01*
X7112000Y-65024000D02*
X5842000Y-66294000D01*
X13817600Y-65024000D02*
X7112000Y-65024000D01*
X20548600Y-58293000D02*
X13817600Y-65024000D01*
%TO.N,/IN1*%
X22990630Y-22225000D02*
X22987000Y-22225000D01*
X20167600Y-22225000D02*
X13614400Y-15671800D01*
X5842000Y-17017830D02*
X5842000Y-17780000D01*
X22987000Y-22225000D02*
X20167600Y-22225000D01*
X23026915Y-22261285D02*
X22990630Y-22225000D01*
X13614400Y-15671800D02*
X7188030Y-15671800D01*
X7188030Y-15671800D02*
X5842000Y-17017830D01*
%TO.N,/IN2*%
X23114000Y-31267400D02*
X23012400Y-31267400D01*
X18135600Y-29210000D02*
X7061200Y-29210000D01*
X23117630Y-31263770D02*
X23114000Y-31267400D01*
X20193000Y-31267400D02*
X18135600Y-29210000D01*
X23012400Y-31267400D02*
X20193000Y-31267400D01*
X5842000Y-27990800D02*
X5842000Y-26670000D01*
X7061200Y-29210000D02*
X5842000Y-27990800D01*
%TO.N,/IN6*%
X23012400Y-68580000D02*
X20716389Y-68580000D01*
X5842000Y-73964800D02*
X5842000Y-76200000D01*
X7213600Y-72593200D02*
X5842000Y-73964800D01*
X20716389Y-68580000D02*
X16703189Y-72593200D01*
X16703189Y-72593200D02*
X7213600Y-72593200D01*
%TO.N,/IN3*%
X23012400Y-40233600D02*
X22987000Y-40259000D01*
X5867400Y-35229800D02*
X5867400Y-33045400D01*
X22987000Y-40259000D02*
X20218400Y-40259000D01*
X7162800Y-36525200D02*
X5867400Y-35229800D01*
X5867400Y-33045400D02*
X5842000Y-33020000D01*
X16484600Y-36525200D02*
X7162800Y-36525200D01*
X20218400Y-40259000D02*
X16484600Y-36525200D01*
%TO.N,/IN7*%
X17754600Y-80137000D02*
X7442200Y-80137000D01*
X22987000Y-77317600D02*
X20574000Y-77317600D01*
X5842000Y-81737200D02*
X5842000Y-83820000D01*
X7442200Y-80137000D02*
X5842000Y-81737200D01*
X20574000Y-77317600D02*
X17754600Y-80137000D01*
D18*
%TO.N,+5V*%
X20116800Y-44145200D02*
X10261600Y-54000400D01*
X37185600Y-39979600D02*
X33020000Y-44145200D01*
X57531000Y-37439600D02*
X54991000Y-37439600D01*
X8001000Y-54000400D02*
X7975600Y-53975000D01*
X54991000Y-39979600D02*
X37185600Y-39979600D01*
X10261600Y-54000400D02*
X8001000Y-54000400D01*
X33020000Y-44145200D02*
X20116800Y-44145200D01*
D17*
%TO.N,/A0*%
X6705600Y-52705000D02*
X7975600Y-51435000D01*
X965200Y-16306800D02*
X965200Y-50647600D01*
X965200Y-50647600D02*
X3022600Y-52705000D01*
X12725400Y-13690600D02*
X3581400Y-13690600D01*
X3022600Y-52705000D02*
X6705600Y-52705000D01*
X3581400Y-13690600D02*
X965200Y-16306800D01*
%TO.N,/A1*%
X2921000Y-51435000D02*
X5435600Y-51435000D01*
X1803400Y-50317400D02*
X2921000Y-51435000D01*
X1803400Y-23622000D02*
X1803400Y-50317400D01*
X4419600Y-21005800D02*
X1803400Y-23622000D01*
X12649200Y-20929600D02*
X12573000Y-21005800D01*
X12573000Y-21005800D02*
X4419600Y-21005800D01*
D19*
%TO.N,/MOSI*%
X49123600Y-68173600D02*
X49123600Y-64566800D01*
X53388200Y-60302200D02*
X55000000Y-60302200D01*
X49098200Y-68199000D02*
X49123600Y-68173600D01*
X49123600Y-64566800D02*
X53388200Y-60302200D01*
D17*
%TO.N,/GP7*%
X53568600Y-64109600D02*
X56261000Y-64109600D01*
X50901600Y-78484600D02*
X50901600Y-66776600D01*
X49860200Y-79526000D02*
X50901600Y-78484600D01*
X50901600Y-66776600D02*
X53568600Y-64109600D01*
X56261000Y-64109600D02*
X57531000Y-62839600D01*
%TO.N,/GP6*%
X49860200Y-81864200D02*
X52400200Y-79324200D01*
X52400200Y-79324200D02*
X52400200Y-67868800D01*
X52400200Y-67868800D02*
X53619400Y-66649600D01*
X56261000Y-66649600D02*
X57531000Y-65379600D01*
X53619400Y-66649600D02*
X56261000Y-66649600D01*
%TO.N,/A4*%
X11938000Y-46355000D02*
X7975600Y-46355000D01*
X13195300Y-47612300D02*
X11938000Y-46355000D01*
D19*
%TO.N,/CS!*%
X42926000Y-68580000D02*
X44069000Y-67437000D01*
X45262800Y-55029100D02*
X45262800Y-53441600D01*
X44069000Y-67437000D02*
X44069000Y-56222900D01*
X44069000Y-56222900D02*
X45262800Y-55029100D01*
D17*
%TO.N,/A5*%
X6705600Y-45085000D02*
X5435600Y-46355000D01*
X14376400Y-45085000D02*
X6705600Y-45085000D01*
X15151100Y-45859700D02*
X14376400Y-45085000D01*
%TD*%
%TA.AperFunction,Conductor*%
%TO.N,GND*%
G36*
X9196398Y-638265D02*
G01*
X9226462Y-690336D01*
X9216021Y-749550D01*
X9196398Y-772935D01*
X9118871Y-837988D01*
X9118866Y-837992D01*
X8855792Y-1101066D01*
X8855788Y-1101071D01*
X8616654Y-1386058D01*
X8616649Y-1386065D01*
X8403261Y-1690813D01*
X8217237Y-2013016D01*
X8217232Y-2013027D01*
X8060010Y-2350190D01*
X8060007Y-2350198D01*
X7932762Y-2699801D01*
X7836468Y-3059171D01*
X7771866Y-3425547D01*
X7739440Y-3796179D01*
X7739440Y-4168220D01*
X7771866Y-4538852D01*
X7836468Y-4905228D01*
X7932762Y-5264598D01*
X8060007Y-5614201D01*
X8060010Y-5614209D01*
X8217232Y-5951372D01*
X8217237Y-5951383D01*
X8403261Y-6273586D01*
X8573971Y-6517384D01*
X8616650Y-6578336D01*
X8855793Y-6863335D01*
X9118865Y-7126407D01*
X9403864Y-7365550D01*
X9510448Y-7440181D01*
X9708613Y-7578938D01*
X9708622Y-7578943D01*
X10030818Y-7764963D01*
X10368001Y-7922194D01*
X10717604Y-8049439D01*
X11076968Y-8145731D01*
X11443356Y-8210335D01*
X11813980Y-8242760D01*
X11813984Y-8242760D01*
X12186016Y-8242760D01*
X12186020Y-8242760D01*
X12556644Y-8210335D01*
X12923032Y-8145731D01*
X13282396Y-8049439D01*
X13631999Y-7922194D01*
X13969182Y-7764963D01*
X14291378Y-7578943D01*
X14291381Y-7578940D01*
X14291386Y-7578938D01*
X14382966Y-7514812D01*
X14596136Y-7365550D01*
X14881135Y-7126407D01*
X15144207Y-6863335D01*
X15383350Y-6578336D01*
X15532612Y-6365166D01*
X15596738Y-6273586D01*
X15782762Y-5951383D01*
X15782763Y-5951382D01*
X15939994Y-5614199D01*
X16067239Y-5264596D01*
X16163531Y-4905232D01*
X16228135Y-4538844D01*
X16260560Y-4168220D01*
X16260560Y-3796180D01*
X16228135Y-3425556D01*
X16163531Y-3059168D01*
X16067239Y-2699804D01*
X15939994Y-2350201D01*
X15782763Y-2013018D01*
X15596743Y-1690822D01*
X15596738Y-1690813D01*
X15457981Y-1492648D01*
X15383350Y-1386064D01*
X15144207Y-1101065D01*
X14881135Y-837993D01*
X14803601Y-772934D01*
X14773538Y-720863D01*
X14783980Y-661650D01*
X14830040Y-623001D01*
X14860103Y-617700D01*
X53375497Y-617700D01*
X53431998Y-638265D01*
X53462062Y-690336D01*
X53451621Y-749550D01*
X53431998Y-772935D01*
X53354471Y-837988D01*
X53354466Y-837992D01*
X53091392Y-1101066D01*
X53091388Y-1101071D01*
X52852254Y-1386058D01*
X52852249Y-1386065D01*
X52638861Y-1690813D01*
X52452837Y-2013016D01*
X52452832Y-2013027D01*
X52295610Y-2350190D01*
X52295607Y-2350198D01*
X52168362Y-2699801D01*
X52072068Y-3059171D01*
X52007466Y-3425547D01*
X51975040Y-3796179D01*
X51975040Y-4168220D01*
X52007466Y-4538852D01*
X52072068Y-4905228D01*
X52168362Y-5264598D01*
X52295607Y-5614201D01*
X52295610Y-5614209D01*
X52452832Y-5951372D01*
X52452837Y-5951383D01*
X52638861Y-6273586D01*
X52809571Y-6517384D01*
X52852250Y-6578336D01*
X53091393Y-6863335D01*
X53354465Y-7126407D01*
X53639464Y-7365550D01*
X53746048Y-7440181D01*
X53944213Y-7578938D01*
X53944222Y-7578943D01*
X54266418Y-7764963D01*
X54603601Y-7922194D01*
X54953204Y-8049439D01*
X55312568Y-8145731D01*
X55678956Y-8210335D01*
X56049580Y-8242760D01*
X56049584Y-8242760D01*
X56421616Y-8242760D01*
X56421620Y-8242760D01*
X56792244Y-8210335D01*
X57158632Y-8145731D01*
X57517996Y-8049439D01*
X57867599Y-7922194D01*
X58204782Y-7764963D01*
X58526978Y-7578943D01*
X58526981Y-7578940D01*
X58526986Y-7578938D01*
X58618566Y-7514812D01*
X58831736Y-7365550D01*
X59116735Y-7126407D01*
X59214446Y-7028695D01*
X59268939Y-7003285D01*
X59327017Y-7018848D01*
X59361505Y-7068101D01*
X59364500Y-7090851D01*
X59364500Y-88204348D01*
X59343935Y-88260849D01*
X59291864Y-88290913D01*
X59232650Y-88280472D01*
X59214446Y-88266503D01*
X59065945Y-88118003D01*
X59065935Y-88117993D01*
X58780936Y-87878850D01*
X58719984Y-87836171D01*
X58476186Y-87665461D01*
X58153983Y-87479437D01*
X58153972Y-87479432D01*
X57816809Y-87322210D01*
X57816801Y-87322207D01*
X57816799Y-87322206D01*
X57467196Y-87194961D01*
X57107832Y-87098669D01*
X57107831Y-87098668D01*
X57107828Y-87098668D01*
X56741452Y-87034066D01*
X56741447Y-87034065D01*
X56741444Y-87034065D01*
X56370820Y-87001640D01*
X55998780Y-87001640D01*
X55998779Y-87001640D01*
X55890729Y-87011093D01*
X55628156Y-87034065D01*
X55628153Y-87034065D01*
X55628147Y-87034066D01*
X55261771Y-87098668D01*
X55082086Y-87146815D01*
X54902404Y-87194961D01*
X54902401Y-87194961D01*
X54902401Y-87194962D01*
X54552798Y-87322207D01*
X54552790Y-87322210D01*
X54215627Y-87479432D01*
X54215616Y-87479437D01*
X53893413Y-87665461D01*
X53588665Y-87878849D01*
X53588658Y-87878854D01*
X53303671Y-88117988D01*
X53303666Y-88117992D01*
X53040592Y-88381066D01*
X53040588Y-88381071D01*
X52801454Y-88666058D01*
X52801449Y-88666065D01*
X52588061Y-88970813D01*
X52402037Y-89293016D01*
X52402032Y-89293027D01*
X52244810Y-89630190D01*
X52244807Y-89630198D01*
X52117562Y-89979801D01*
X52021268Y-90339171D01*
X51956666Y-90705547D01*
X51956665Y-90705553D01*
X51956665Y-90705556D01*
X51924240Y-91076180D01*
X51924240Y-91448220D01*
X51929151Y-91504359D01*
X51956666Y-91818852D01*
X52021268Y-92185226D01*
X52021269Y-92185232D01*
X52117561Y-92544596D01*
X52123098Y-92559807D01*
X52244807Y-92894201D01*
X52244810Y-92894209D01*
X52402032Y-93231372D01*
X52402037Y-93231383D01*
X52588061Y-93553586D01*
X52758771Y-93797384D01*
X52801450Y-93858336D01*
X53040593Y-94143335D01*
X53093904Y-94196646D01*
X53119315Y-94251139D01*
X53103752Y-94309217D01*
X53054499Y-94343705D01*
X53031749Y-94346700D01*
X15153051Y-94346700D01*
X15096550Y-94326135D01*
X15066486Y-94274064D01*
X15076927Y-94214850D01*
X15090892Y-94196649D01*
X15144207Y-94143335D01*
X15383350Y-93858336D01*
X15532612Y-93645166D01*
X15596738Y-93553586D01*
X15741241Y-93303300D01*
X15782763Y-93231382D01*
X15939994Y-92894199D01*
X16067239Y-92544596D01*
X16163531Y-92185232D01*
X16169860Y-92149336D01*
X40453100Y-92149336D01*
X40453100Y-92356263D01*
X40493467Y-92559211D01*
X40493469Y-92559216D01*
X40493470Y-92559220D01*
X40572659Y-92750398D01*
X40572660Y-92750400D01*
X40572661Y-92750401D01*
X40687619Y-92922450D01*
X40687620Y-92922451D01*
X40687623Y-92922455D01*
X40833945Y-93068777D01*
X41006002Y-93183741D01*
X41197180Y-93262930D01*
X41197185Y-93262931D01*
X41197188Y-93262932D01*
X41300032Y-93283388D01*
X41400135Y-93303300D01*
X41400137Y-93303300D01*
X41607063Y-93303300D01*
X41607065Y-93303300D01*
X41773054Y-93270283D01*
X41810011Y-93262932D01*
X41810012Y-93262931D01*
X41810020Y-93262930D01*
X42001198Y-93183741D01*
X42173255Y-93068777D01*
X42319577Y-92922455D01*
X42434541Y-92750398D01*
X42513730Y-92559220D01*
X42516639Y-92544598D01*
X42554100Y-92356263D01*
X42554100Y-92149336D01*
X42993100Y-92149336D01*
X42993100Y-92356263D01*
X43033467Y-92559211D01*
X43033469Y-92559216D01*
X43033470Y-92559220D01*
X43112659Y-92750398D01*
X43112660Y-92750400D01*
X43112661Y-92750401D01*
X43227619Y-92922450D01*
X43227620Y-92922451D01*
X43227623Y-92922455D01*
X43373945Y-93068777D01*
X43546002Y-93183741D01*
X43737180Y-93262930D01*
X43737185Y-93262931D01*
X43737188Y-93262932D01*
X43840032Y-93283388D01*
X43940135Y-93303300D01*
X43940137Y-93303300D01*
X44147063Y-93303300D01*
X44147065Y-93303300D01*
X44313054Y-93270283D01*
X44350011Y-93262932D01*
X44350012Y-93262931D01*
X44350020Y-93262930D01*
X44541198Y-93183741D01*
X44713255Y-93068777D01*
X44859577Y-92922455D01*
X44974541Y-92750398D01*
X45053730Y-92559220D01*
X45056639Y-92544598D01*
X45094100Y-92356263D01*
X45094100Y-92149336D01*
X45053732Y-91946388D01*
X45053731Y-91946385D01*
X45053730Y-91946380D01*
X44974541Y-91755202D01*
X44859577Y-91583145D01*
X44713255Y-91436823D01*
X44713251Y-91436820D01*
X44713250Y-91436819D01*
X44541201Y-91321861D01*
X44541200Y-91321860D01*
X44541198Y-91321859D01*
X44350020Y-91242670D01*
X44350016Y-91242669D01*
X44350011Y-91242667D01*
X44197284Y-91212289D01*
X44147065Y-91202300D01*
X43940135Y-91202300D01*
X43895444Y-91211189D01*
X43737188Y-91242667D01*
X43737183Y-91242669D01*
X43737181Y-91242669D01*
X43737180Y-91242670D01*
X43546002Y-91321859D01*
X43546000Y-91321859D01*
X43545998Y-91321861D01*
X43373949Y-91436819D01*
X43227619Y-91583149D01*
X43112661Y-91755198D01*
X43112659Y-91755200D01*
X43112659Y-91755202D01*
X43033713Y-91945793D01*
X43033469Y-91946383D01*
X43033467Y-91946388D01*
X42993100Y-92149336D01*
X42554100Y-92149336D01*
X42513732Y-91946388D01*
X42513731Y-91946385D01*
X42513730Y-91946380D01*
X42434541Y-91755202D01*
X42319577Y-91583145D01*
X42173255Y-91436823D01*
X42173251Y-91436820D01*
X42173250Y-91436819D01*
X42001201Y-91321861D01*
X42001200Y-91321860D01*
X42001198Y-91321859D01*
X41810020Y-91242670D01*
X41810016Y-91242669D01*
X41810011Y-91242667D01*
X41657284Y-91212289D01*
X41607065Y-91202300D01*
X41400135Y-91202300D01*
X41355444Y-91211189D01*
X41197188Y-91242667D01*
X41197183Y-91242669D01*
X41197181Y-91242669D01*
X41197180Y-91242670D01*
X41006002Y-91321859D01*
X41006000Y-91321859D01*
X41005998Y-91321861D01*
X40833949Y-91436819D01*
X40687619Y-91583149D01*
X40572661Y-91755198D01*
X40572659Y-91755200D01*
X40572659Y-91755202D01*
X40493713Y-91945793D01*
X40493469Y-91946383D01*
X40493467Y-91946388D01*
X40453100Y-92149336D01*
X16169860Y-92149336D01*
X16228135Y-91818844D01*
X16260560Y-91448220D01*
X16260560Y-91076180D01*
X16228135Y-90705556D01*
X16163531Y-90339168D01*
X16067239Y-89979804D01*
X15939994Y-89630201D01*
X15782763Y-89293018D01*
X15596743Y-88970822D01*
X15596738Y-88970813D01*
X15457981Y-88772648D01*
X15383350Y-88666064D01*
X15144207Y-88381065D01*
X14881135Y-88117993D01*
X14596136Y-87878850D01*
X14535184Y-87836171D01*
X14291386Y-87665461D01*
X13969183Y-87479437D01*
X13969172Y-87479432D01*
X13632009Y-87322210D01*
X13632001Y-87322207D01*
X13631999Y-87322206D01*
X13282396Y-87194961D01*
X12923032Y-87098669D01*
X12923031Y-87098668D01*
X12923028Y-87098668D01*
X12556652Y-87034066D01*
X12556647Y-87034065D01*
X12556644Y-87034065D01*
X12186020Y-87001640D01*
X11813980Y-87001640D01*
X11813979Y-87001640D01*
X11705929Y-87011093D01*
X11443356Y-87034065D01*
X11443353Y-87034065D01*
X11443347Y-87034066D01*
X11076971Y-87098668D01*
X10897286Y-87146815D01*
X10717604Y-87194961D01*
X10717601Y-87194961D01*
X10717601Y-87194962D01*
X10367998Y-87322207D01*
X10367990Y-87322210D01*
X10030827Y-87479432D01*
X10030816Y-87479437D01*
X9708613Y-87665461D01*
X9403865Y-87878849D01*
X9403858Y-87878854D01*
X9118871Y-88117988D01*
X9118866Y-88117992D01*
X8855792Y-88381066D01*
X8855788Y-88381071D01*
X8616654Y-88666058D01*
X8616649Y-88666065D01*
X8403261Y-88970813D01*
X8217237Y-89293016D01*
X8217232Y-89293027D01*
X8060010Y-89630190D01*
X8060007Y-89630198D01*
X7932762Y-89979801D01*
X7836468Y-90339171D01*
X7771866Y-90705547D01*
X7771865Y-90705553D01*
X7771865Y-90705556D01*
X7739440Y-91076180D01*
X7739440Y-91448220D01*
X7744351Y-91504359D01*
X7771866Y-91818852D01*
X7836468Y-92185226D01*
X7836469Y-92185232D01*
X7932761Y-92544596D01*
X7938298Y-92559807D01*
X8060007Y-92894201D01*
X8060010Y-92894209D01*
X8217232Y-93231372D01*
X8217237Y-93231383D01*
X8403261Y-93553586D01*
X8573971Y-93797384D01*
X8616650Y-93858336D01*
X8855793Y-94143335D01*
X8909104Y-94196646D01*
X8934515Y-94251139D01*
X8918952Y-94309217D01*
X8869699Y-94343705D01*
X8846949Y-94346700D01*
X723400Y-94346700D01*
X666899Y-94326135D01*
X636835Y-94274064D01*
X635500Y-94258800D01*
X635500Y-83729340D01*
X2381500Y-83729340D01*
X2381500Y-83910659D01*
X2416872Y-84088496D01*
X2416873Y-84088500D01*
X2438239Y-84140080D01*
X2486263Y-84256020D01*
X2587001Y-84406785D01*
X2715215Y-84534999D01*
X2865980Y-84635737D01*
X2980800Y-84683297D01*
X3033499Y-84705126D01*
X3033503Y-84705127D01*
X3097217Y-84717800D01*
X3211339Y-84740500D01*
X3211341Y-84740500D01*
X3392659Y-84740500D01*
X3392661Y-84740500D01*
X3510144Y-84717131D01*
X3570496Y-84705127D01*
X3570500Y-84705126D01*
X3738020Y-84635737D01*
X3888785Y-84534999D01*
X4016999Y-84406785D01*
X4117737Y-84256020D01*
X4187126Y-84088500D01*
X4222500Y-83910661D01*
X4222500Y-83729340D01*
X4921500Y-83729340D01*
X4921500Y-83910659D01*
X4956872Y-84088496D01*
X4956873Y-84088500D01*
X4978239Y-84140080D01*
X5026263Y-84256020D01*
X5127001Y-84406785D01*
X5255215Y-84534999D01*
X5405980Y-84635737D01*
X5520800Y-84683297D01*
X5573499Y-84705126D01*
X5573503Y-84705127D01*
X5637217Y-84717800D01*
X5751339Y-84740500D01*
X5751341Y-84740500D01*
X5932659Y-84740500D01*
X5932661Y-84740500D01*
X6050144Y-84717131D01*
X6110496Y-84705127D01*
X6110500Y-84705126D01*
X6278020Y-84635737D01*
X6428785Y-84534999D01*
X6556999Y-84406785D01*
X6657737Y-84256020D01*
X6727126Y-84088500D01*
X6762500Y-83910661D01*
X6762500Y-83731575D01*
X7484200Y-83731575D01*
X7484200Y-83908424D01*
X7518700Y-84081875D01*
X7518702Y-84081879D01*
X7586379Y-84245268D01*
X7593107Y-84255337D01*
X7982000Y-83866444D01*
X7982000Y-83872661D01*
X8009259Y-83974394D01*
X8061920Y-84065606D01*
X8136394Y-84140080D01*
X8227606Y-84192741D01*
X8329339Y-84220000D01*
X8335552Y-84220000D01*
X7946661Y-84608891D01*
X7956734Y-84615621D01*
X8120120Y-84683297D01*
X8120124Y-84683299D01*
X8293576Y-84717800D01*
X8470424Y-84717800D01*
X8643875Y-84683299D01*
X8643879Y-84683297D01*
X8807269Y-84615619D01*
X8817337Y-84608891D01*
X8428446Y-84220000D01*
X8434661Y-84220000D01*
X8536394Y-84192741D01*
X8627606Y-84140080D01*
X8702080Y-84065606D01*
X8754741Y-83974394D01*
X8782000Y-83872661D01*
X8782000Y-83866446D01*
X9170891Y-84255337D01*
X9177619Y-84245269D01*
X9245297Y-84081879D01*
X9245299Y-84081875D01*
X9279800Y-83908424D01*
X9279800Y-83731575D01*
X9245299Y-83558124D01*
X9245297Y-83558120D01*
X9177621Y-83394734D01*
X9170890Y-83384661D01*
X8782000Y-83773551D01*
X8782000Y-83767339D01*
X8754741Y-83665606D01*
X8702080Y-83574394D01*
X8627606Y-83499920D01*
X8536394Y-83447259D01*
X8434661Y-83420000D01*
X8428444Y-83420000D01*
X8817337Y-83031107D01*
X8807268Y-83024379D01*
X8643879Y-82956702D01*
X8643875Y-82956700D01*
X8470424Y-82922200D01*
X8293576Y-82922200D01*
X8120124Y-82956700D01*
X8120120Y-82956702D01*
X7956733Y-83024379D01*
X7946661Y-83031107D01*
X8335554Y-83420000D01*
X8329339Y-83420000D01*
X8227606Y-83447259D01*
X8136394Y-83499920D01*
X8061920Y-83574394D01*
X8009259Y-83665606D01*
X7982000Y-83767339D01*
X7982000Y-83773554D01*
X7593107Y-83384661D01*
X7586379Y-83394733D01*
X7518702Y-83558120D01*
X7518700Y-83558124D01*
X7484200Y-83731575D01*
X6762500Y-83731575D01*
X6762500Y-83729339D01*
X6727126Y-83551500D01*
X6657737Y-83383980D01*
X6556999Y-83233215D01*
X6428785Y-83105001D01*
X6284764Y-83008769D01*
X6249212Y-82960281D01*
X6245700Y-82935684D01*
X6245700Y-81940828D01*
X6266265Y-81884327D01*
X6271445Y-81878673D01*
X7583673Y-80566445D01*
X7638167Y-80541034D01*
X7645828Y-80540700D01*
X17696054Y-80540700D01*
X17696070Y-80540701D01*
X17701452Y-80540701D01*
X17807748Y-80540701D01*
X17888720Y-80519003D01*
X17888725Y-80519003D01*
X17888725Y-80519002D01*
X17896665Y-80516874D01*
X17910423Y-80513189D01*
X18002478Y-80460041D01*
X18077641Y-80384878D01*
X18077641Y-80384876D01*
X18084873Y-80377645D01*
X18084876Y-80377640D01*
X20715473Y-77747045D01*
X20769967Y-77721634D01*
X20777628Y-77721300D01*
X21724000Y-77721300D01*
X21780501Y-77741865D01*
X21810565Y-77793936D01*
X21811900Y-77809200D01*
X21811900Y-78388146D01*
X21823533Y-78446632D01*
X21867845Y-78512948D01*
X21867848Y-78512952D01*
X21867851Y-78512954D01*
X21934167Y-78557266D01*
X21934169Y-78557267D01*
X21992652Y-78568900D01*
X21992654Y-78568900D01*
X24032146Y-78568900D01*
X24032148Y-78568900D01*
X24090631Y-78557267D01*
X24156952Y-78512952D01*
X24201267Y-78446631D01*
X24212900Y-78388148D01*
X24212900Y-76348652D01*
X24201267Y-76290169D01*
X24156952Y-76223848D01*
X24156948Y-76223845D01*
X24090632Y-76179533D01*
X24071136Y-76175655D01*
X24032148Y-76167900D01*
X21992652Y-76167900D01*
X21963410Y-76173716D01*
X21934167Y-76179533D01*
X21867851Y-76223845D01*
X21867845Y-76223851D01*
X21823533Y-76290167D01*
X21811900Y-76348653D01*
X21811900Y-76826000D01*
X21791335Y-76882501D01*
X21739264Y-76912565D01*
X21724000Y-76913900D01*
X20632546Y-76913900D01*
X20632530Y-76913899D01*
X20627148Y-76913899D01*
X20520852Y-76913899D01*
X20439875Y-76935597D01*
X20418178Y-76941410D01*
X20326120Y-76994560D01*
X20250957Y-77069724D01*
X17613127Y-79707555D01*
X17558633Y-79732966D01*
X17550972Y-79733300D01*
X7500747Y-79733300D01*
X7500731Y-79733299D01*
X7495349Y-79733299D01*
X7389052Y-79733299D01*
X7286379Y-79760809D01*
X7263744Y-79773878D01*
X7194322Y-79813958D01*
X7194320Y-79813959D01*
X7119158Y-79889121D01*
X7119159Y-79889122D01*
X5518960Y-81489320D01*
X5465811Y-81581377D01*
X5465811Y-81581378D01*
X5438299Y-81684052D01*
X5438299Y-81797427D01*
X5438300Y-81797440D01*
X5438300Y-82935684D01*
X5417735Y-82992185D01*
X5399235Y-83008770D01*
X5255217Y-83104999D01*
X5126999Y-83233217D01*
X5026264Y-83383978D01*
X4956873Y-83551499D01*
X4956872Y-83551503D01*
X4921500Y-83729340D01*
X4222500Y-83729340D01*
X4222500Y-83729339D01*
X4187126Y-83551500D01*
X4117737Y-83383980D01*
X4016999Y-83233215D01*
X3888785Y-83105001D01*
X3738020Y-83004263D01*
X3676139Y-82978631D01*
X3570500Y-82934873D01*
X3570496Y-82934872D01*
X3436815Y-82908282D01*
X3392661Y-82899500D01*
X3211339Y-82899500D01*
X3172060Y-82907312D01*
X3033503Y-82934872D01*
X3033499Y-82934873D01*
X2865978Y-83004264D01*
X2715217Y-83104999D01*
X2586999Y-83233217D01*
X2486264Y-83383978D01*
X2416873Y-83551499D01*
X2416872Y-83551503D01*
X2381500Y-83729340D01*
X635500Y-83729340D01*
X635500Y-76109340D01*
X2381500Y-76109340D01*
X2381500Y-76290659D01*
X2416872Y-76468496D01*
X2416873Y-76468500D01*
X2438239Y-76520080D01*
X2486263Y-76636020D01*
X2587001Y-76786785D01*
X2715215Y-76914999D01*
X2865980Y-77015737D01*
X2980800Y-77063297D01*
X3033499Y-77085126D01*
X3033503Y-77085127D01*
X3097217Y-77097800D01*
X3211339Y-77120500D01*
X3211341Y-77120500D01*
X3392659Y-77120500D01*
X3392661Y-77120500D01*
X3510144Y-77097131D01*
X3570496Y-77085127D01*
X3570500Y-77085126D01*
X3738020Y-77015737D01*
X3888785Y-76914999D01*
X4016999Y-76786785D01*
X4117737Y-76636020D01*
X4187126Y-76468500D01*
X4222500Y-76290661D01*
X4222500Y-76109340D01*
X4921500Y-76109340D01*
X4921500Y-76290659D01*
X4956872Y-76468496D01*
X4956873Y-76468500D01*
X4978239Y-76520080D01*
X5026263Y-76636020D01*
X5127001Y-76786785D01*
X5255215Y-76914999D01*
X5405980Y-77015737D01*
X5520800Y-77063297D01*
X5573499Y-77085126D01*
X5573503Y-77085127D01*
X5637217Y-77097800D01*
X5751339Y-77120500D01*
X5751341Y-77120500D01*
X5932659Y-77120500D01*
X5932661Y-77120500D01*
X6050144Y-77097131D01*
X6110496Y-77085127D01*
X6110500Y-77085126D01*
X6278020Y-77015737D01*
X6428785Y-76914999D01*
X6556999Y-76786785D01*
X6657737Y-76636020D01*
X6727126Y-76468500D01*
X6762500Y-76290661D01*
X6762500Y-76111575D01*
X7484200Y-76111575D01*
X7484200Y-76288424D01*
X7518700Y-76461875D01*
X7518702Y-76461879D01*
X7586379Y-76625268D01*
X7593107Y-76635337D01*
X7982000Y-76246444D01*
X7982000Y-76252661D01*
X8009259Y-76354394D01*
X8061920Y-76445606D01*
X8136394Y-76520080D01*
X8227606Y-76572741D01*
X8329339Y-76600000D01*
X8335552Y-76600000D01*
X7946661Y-76988891D01*
X7956734Y-76995621D01*
X8120120Y-77063297D01*
X8120124Y-77063299D01*
X8293576Y-77097800D01*
X8470424Y-77097800D01*
X8643875Y-77063299D01*
X8643879Y-77063297D01*
X8807269Y-76995619D01*
X8817337Y-76988891D01*
X8428446Y-76600000D01*
X8434661Y-76600000D01*
X8536394Y-76572741D01*
X8627606Y-76520080D01*
X8702080Y-76445606D01*
X8754741Y-76354394D01*
X8782000Y-76252661D01*
X8782000Y-76246446D01*
X9170891Y-76635337D01*
X9177619Y-76625269D01*
X9245297Y-76461879D01*
X9245299Y-76461875D01*
X9279800Y-76288424D01*
X9279800Y-76111575D01*
X9245299Y-75938124D01*
X9245297Y-75938120D01*
X9177621Y-75774734D01*
X9170890Y-75764661D01*
X8782000Y-76153551D01*
X8782000Y-76147339D01*
X8754741Y-76045606D01*
X8702080Y-75954394D01*
X8627606Y-75879920D01*
X8536394Y-75827259D01*
X8434661Y-75800000D01*
X8428444Y-75800000D01*
X8817337Y-75411107D01*
X8807268Y-75404379D01*
X8643879Y-75336702D01*
X8643875Y-75336700D01*
X8470424Y-75302200D01*
X8293576Y-75302200D01*
X8120124Y-75336700D01*
X8120120Y-75336702D01*
X7956733Y-75404379D01*
X7946661Y-75411107D01*
X8335554Y-75800000D01*
X8329339Y-75800000D01*
X8227606Y-75827259D01*
X8136394Y-75879920D01*
X8061920Y-75954394D01*
X8009259Y-76045606D01*
X7982000Y-76147339D01*
X7982000Y-76153554D01*
X7593107Y-75764661D01*
X7586379Y-75774733D01*
X7518702Y-75938120D01*
X7518700Y-75938124D01*
X7484200Y-76111575D01*
X6762500Y-76111575D01*
X6762500Y-76109339D01*
X6727126Y-75931500D01*
X6657737Y-75763980D01*
X6556999Y-75613215D01*
X6428785Y-75485001D01*
X6284764Y-75388769D01*
X6249212Y-75340281D01*
X6245700Y-75315684D01*
X6245700Y-74168428D01*
X6266265Y-74111927D01*
X6271445Y-74106273D01*
X7355073Y-73022645D01*
X7409567Y-72997234D01*
X7417228Y-72996900D01*
X16644643Y-72996900D01*
X16644659Y-72996901D01*
X16650041Y-72996901D01*
X16756337Y-72996901D01*
X16837309Y-72975203D01*
X16837314Y-72975203D01*
X16837314Y-72975202D01*
X16845254Y-72973074D01*
X16859012Y-72969389D01*
X16951067Y-72916241D01*
X17026230Y-72841078D01*
X17026230Y-72841076D01*
X17033462Y-72833845D01*
X17033465Y-72833840D01*
X20857862Y-69009445D01*
X20912356Y-68984034D01*
X20920017Y-68983700D01*
X21724000Y-68983700D01*
X21780501Y-69004265D01*
X21810565Y-69056336D01*
X21811900Y-69071600D01*
X21811900Y-69599746D01*
X21823533Y-69658232D01*
X21867845Y-69724548D01*
X21867848Y-69724552D01*
X21867851Y-69724554D01*
X21934167Y-69768866D01*
X21934169Y-69768867D01*
X21992652Y-69780500D01*
X21992654Y-69780500D01*
X24032146Y-69780500D01*
X24032148Y-69780500D01*
X24090631Y-69768867D01*
X24156952Y-69724552D01*
X24201267Y-69658231D01*
X24212900Y-69599748D01*
X24212900Y-68516474D01*
X42281000Y-68516474D01*
X42281000Y-68643525D01*
X42305785Y-68768136D01*
X42305787Y-68768140D01*
X42354406Y-68885519D01*
X42354407Y-68885521D01*
X42354408Y-68885522D01*
X42424996Y-68991164D01*
X42514836Y-69081004D01*
X42620478Y-69151592D01*
X42737860Y-69200213D01*
X42737861Y-69200213D01*
X42737863Y-69200214D01*
X42800592Y-69212691D01*
X42862473Y-69225000D01*
X42862475Y-69225000D01*
X42989525Y-69225000D01*
X42989527Y-69225000D01*
X43071848Y-69208625D01*
X43114136Y-69200214D01*
X43114136Y-69200213D01*
X43114140Y-69200213D01*
X43231522Y-69151592D01*
X43337164Y-69081004D01*
X43427004Y-68991164D01*
X43497592Y-68885522D01*
X43546213Y-68768140D01*
X43552926Y-68734394D01*
X43559766Y-68700004D01*
X43571000Y-68643527D01*
X43571000Y-68614169D01*
X43591565Y-68557668D01*
X43596734Y-68552025D01*
X44340832Y-67807926D01*
X44340837Y-67807923D01*
X44348068Y-67800691D01*
X44348070Y-67800691D01*
X44432691Y-67716070D01*
X44492527Y-67612431D01*
X44506508Y-67560252D01*
X44523501Y-67496836D01*
X44523501Y-67377164D01*
X44523501Y-67371783D01*
X44523500Y-67371765D01*
X44523500Y-56447569D01*
X44544065Y-56391068D01*
X44549234Y-56385425D01*
X45534632Y-55400026D01*
X45534637Y-55400023D01*
X45541868Y-55392791D01*
X45541870Y-55392791D01*
X45626491Y-55308170D01*
X45686327Y-55204531D01*
X45692872Y-55180102D01*
X45717301Y-55088936D01*
X45717301Y-54969264D01*
X45717301Y-54963883D01*
X45717300Y-54963865D01*
X45717300Y-54448263D01*
X45737865Y-54391762D01*
X45757437Y-54375884D01*
X45756807Y-54374941D01*
X45851983Y-54311346D01*
X45932455Y-54257577D01*
X46078777Y-54111255D01*
X46193741Y-53939198D01*
X46272930Y-53748020D01*
X46276495Y-53730100D01*
X46300276Y-53610541D01*
X46313300Y-53545065D01*
X46313300Y-53338135D01*
X46282111Y-53181336D01*
X46272932Y-53135188D01*
X46272931Y-53135185D01*
X46272930Y-53135180D01*
X46193741Y-52944002D01*
X46078777Y-52771945D01*
X45932455Y-52625623D01*
X45932451Y-52625620D01*
X45932450Y-52625619D01*
X45851982Y-52571853D01*
X46752300Y-52571853D01*
X46752300Y-54311346D01*
X46763933Y-54369832D01*
X46786512Y-54403623D01*
X46808248Y-54436152D01*
X46808251Y-54436154D01*
X46874567Y-54480466D01*
X46874569Y-54480467D01*
X46933052Y-54492100D01*
X46933054Y-54492100D01*
X48672546Y-54492100D01*
X48672548Y-54492100D01*
X48731031Y-54480467D01*
X48797352Y-54436152D01*
X48841667Y-54369831D01*
X48853300Y-54311348D01*
X48853300Y-52571852D01*
X48841667Y-52513369D01*
X48839856Y-52510659D01*
X48797354Y-52447051D01*
X48797352Y-52447048D01*
X48797348Y-52447045D01*
X48731032Y-52402733D01*
X48711536Y-52398855D01*
X48672548Y-52391100D01*
X46933052Y-52391100D01*
X46903810Y-52396916D01*
X46874567Y-52402733D01*
X46808251Y-52447045D01*
X46808245Y-52447051D01*
X46763933Y-52513367D01*
X46752300Y-52571853D01*
X45851982Y-52571853D01*
X45760401Y-52510661D01*
X45760400Y-52510660D01*
X45760398Y-52510659D01*
X45569220Y-52431470D01*
X45569216Y-52431469D01*
X45569211Y-52431467D01*
X45416484Y-52401089D01*
X45366265Y-52391100D01*
X45159335Y-52391100D01*
X45114644Y-52399989D01*
X44956388Y-52431467D01*
X44956383Y-52431469D01*
X44956381Y-52431469D01*
X44956380Y-52431470D01*
X44765202Y-52510659D01*
X44765200Y-52510659D01*
X44765198Y-52510661D01*
X44593149Y-52625619D01*
X44446819Y-52771949D01*
X44331861Y-52943998D01*
X44331859Y-52944000D01*
X44331859Y-52944002D01*
X44254711Y-53130253D01*
X44252669Y-53135183D01*
X44252667Y-53135188D01*
X44217294Y-53313025D01*
X44215652Y-53321286D01*
X44212300Y-53338136D01*
X44212300Y-53545063D01*
X44252667Y-53748011D01*
X44252669Y-53748016D01*
X44252670Y-53748020D01*
X44331859Y-53939198D01*
X44331860Y-53939200D01*
X44331861Y-53939201D01*
X44446819Y-54111250D01*
X44446820Y-54111251D01*
X44446823Y-54111255D01*
X44593145Y-54257577D01*
X44617901Y-54274118D01*
X44768793Y-54374941D01*
X44767423Y-54376990D01*
X44801956Y-54415477D01*
X44808300Y-54448263D01*
X44808300Y-54804429D01*
X44787735Y-54860930D01*
X44782555Y-54866584D01*
X43705310Y-55943828D01*
X43645473Y-56047469D01*
X43645473Y-56047470D01*
X43614499Y-56163064D01*
X43614499Y-56289815D01*
X43614500Y-56289828D01*
X43614500Y-67212330D01*
X43593935Y-67268831D01*
X43588755Y-67274485D01*
X42953985Y-67909255D01*
X42899491Y-67934666D01*
X42891830Y-67935000D01*
X42862473Y-67935000D01*
X42834950Y-67940474D01*
X42737863Y-67959785D01*
X42737859Y-67959787D01*
X42620480Y-68008406D01*
X42514838Y-68078994D01*
X42424994Y-68168838D01*
X42354406Y-68274480D01*
X42305787Y-68391859D01*
X42305785Y-68391863D01*
X42281000Y-68516474D01*
X24212900Y-68516474D01*
X24212900Y-67560252D01*
X24201267Y-67501769D01*
X24156952Y-67435448D01*
X24156948Y-67435445D01*
X24090632Y-67391133D01*
X24071136Y-67387255D01*
X24032148Y-67379500D01*
X21992652Y-67379500D01*
X21963410Y-67385316D01*
X21934167Y-67391133D01*
X21867851Y-67435445D01*
X21867845Y-67435451D01*
X21823533Y-67501767D01*
X21811900Y-67560252D01*
X21811900Y-68088400D01*
X21791335Y-68144901D01*
X21739264Y-68174965D01*
X21724000Y-68176300D01*
X20774935Y-68176300D01*
X20774919Y-68176299D01*
X20769537Y-68176299D01*
X20663241Y-68176299D01*
X20582264Y-68197997D01*
X20560567Y-68203810D01*
X20468509Y-68256960D01*
X20393346Y-68332124D01*
X16561716Y-72163755D01*
X16507222Y-72189166D01*
X16499561Y-72189500D01*
X7160452Y-72189500D01*
X7057780Y-72217009D01*
X6965720Y-72270160D01*
X5518960Y-73716920D01*
X5465811Y-73808977D01*
X5465811Y-73808978D01*
X5438299Y-73911652D01*
X5438299Y-74025027D01*
X5438300Y-74025040D01*
X5438300Y-75315684D01*
X5417735Y-75372185D01*
X5399235Y-75388770D01*
X5255217Y-75484999D01*
X5126999Y-75613217D01*
X5026264Y-75763978D01*
X4956873Y-75931499D01*
X4956872Y-75931503D01*
X4921500Y-76109340D01*
X4222500Y-76109340D01*
X4222500Y-76109339D01*
X4187126Y-75931500D01*
X4117737Y-75763980D01*
X4016999Y-75613215D01*
X3888785Y-75485001D01*
X3738020Y-75384263D01*
X3676139Y-75358631D01*
X3570500Y-75314873D01*
X3570496Y-75314872D01*
X3436815Y-75288282D01*
X3392661Y-75279500D01*
X3211339Y-75279500D01*
X3172060Y-75287312D01*
X3033503Y-75314872D01*
X3033499Y-75314873D01*
X2865978Y-75384264D01*
X2715217Y-75484999D01*
X2586999Y-75613217D01*
X2486264Y-75763978D01*
X2416873Y-75931499D01*
X2416872Y-75931503D01*
X2381500Y-76109340D01*
X635500Y-76109340D01*
X635500Y-68489340D01*
X2381500Y-68489340D01*
X2381500Y-68670659D01*
X2416872Y-68848496D01*
X2416873Y-68848500D01*
X2450521Y-68929732D01*
X2486263Y-69016020D01*
X2587001Y-69166785D01*
X2715215Y-69294999D01*
X2865980Y-69395737D01*
X2980800Y-69443297D01*
X3033499Y-69465126D01*
X3033503Y-69465127D01*
X3097217Y-69477800D01*
X3211339Y-69500500D01*
X3211341Y-69500500D01*
X3392659Y-69500500D01*
X3392661Y-69500500D01*
X3539481Y-69471296D01*
X3570496Y-69465127D01*
X3570500Y-69465126D01*
X3738020Y-69395737D01*
X3888785Y-69294999D01*
X4016999Y-69166785D01*
X4117737Y-69016020D01*
X4187126Y-68848500D01*
X4192952Y-68819213D01*
X4199131Y-68788144D01*
X4222500Y-68670661D01*
X4222500Y-68489340D01*
X4921500Y-68489340D01*
X4921500Y-68670659D01*
X4956872Y-68848496D01*
X4956873Y-68848500D01*
X4990521Y-68929732D01*
X5026263Y-69016020D01*
X5127001Y-69166785D01*
X5255215Y-69294999D01*
X5405980Y-69395737D01*
X5520800Y-69443297D01*
X5573499Y-69465126D01*
X5573503Y-69465127D01*
X5637217Y-69477800D01*
X5751339Y-69500500D01*
X5751341Y-69500500D01*
X5932659Y-69500500D01*
X5932661Y-69500500D01*
X6079481Y-69471296D01*
X6110496Y-69465127D01*
X6110500Y-69465126D01*
X6278020Y-69395737D01*
X6428785Y-69294999D01*
X6556999Y-69166785D01*
X6657737Y-69016020D01*
X6727126Y-68848500D01*
X6732952Y-68819213D01*
X6739131Y-68788144D01*
X6762500Y-68670661D01*
X6762500Y-68491575D01*
X7484200Y-68491575D01*
X7484200Y-68668424D01*
X7518700Y-68841875D01*
X7518702Y-68841879D01*
X7586379Y-69005268D01*
X7593107Y-69015337D01*
X7982000Y-68626444D01*
X7982000Y-68632661D01*
X8009259Y-68734394D01*
X8061920Y-68825606D01*
X8136394Y-68900080D01*
X8227606Y-68952741D01*
X8329339Y-68980000D01*
X8335552Y-68980000D01*
X7946661Y-69368891D01*
X7956734Y-69375621D01*
X8120120Y-69443297D01*
X8120124Y-69443299D01*
X8293576Y-69477800D01*
X8470424Y-69477800D01*
X8643875Y-69443299D01*
X8643879Y-69443297D01*
X8807269Y-69375619D01*
X8817337Y-69368891D01*
X8428446Y-68980000D01*
X8434661Y-68980000D01*
X8536394Y-68952741D01*
X8627606Y-68900080D01*
X8702080Y-68825606D01*
X8754741Y-68734394D01*
X8782000Y-68632661D01*
X8782000Y-68626446D01*
X9170891Y-69015337D01*
X9177619Y-69005269D01*
X9245297Y-68841879D01*
X9245299Y-68841875D01*
X9279800Y-68668424D01*
X9279800Y-68491575D01*
X9245299Y-68318124D01*
X9245297Y-68318120D01*
X9177621Y-68154734D01*
X9170890Y-68144661D01*
X8782000Y-68533551D01*
X8782000Y-68527339D01*
X8754741Y-68425606D01*
X8702080Y-68334394D01*
X8627606Y-68259920D01*
X8536394Y-68207259D01*
X8434661Y-68180000D01*
X8428444Y-68180000D01*
X8817337Y-67791107D01*
X8807268Y-67784379D01*
X8643879Y-67716702D01*
X8643875Y-67716700D01*
X8470424Y-67682200D01*
X8293576Y-67682200D01*
X8120124Y-67716700D01*
X8120120Y-67716702D01*
X7956733Y-67784379D01*
X7946661Y-67791107D01*
X8335554Y-68180000D01*
X8329339Y-68180000D01*
X8227606Y-68207259D01*
X8136394Y-68259920D01*
X8061920Y-68334394D01*
X8009259Y-68425606D01*
X7982000Y-68527339D01*
X7982000Y-68533554D01*
X7593107Y-68144661D01*
X7586379Y-68154733D01*
X7518702Y-68318120D01*
X7518700Y-68318124D01*
X7484200Y-68491575D01*
X6762500Y-68491575D01*
X6762500Y-68489339D01*
X6743111Y-68391863D01*
X6727127Y-68311503D01*
X6727126Y-68311499D01*
X6691715Y-68226011D01*
X6657737Y-68143980D01*
X6556999Y-67993215D01*
X6428785Y-67865001D01*
X6284764Y-67768769D01*
X6249212Y-67720281D01*
X6245700Y-67695684D01*
X6245700Y-66497628D01*
X6266265Y-66441127D01*
X6271445Y-66435473D01*
X7253473Y-65453445D01*
X7307967Y-65428034D01*
X7315628Y-65427700D01*
X13759054Y-65427700D01*
X13759070Y-65427701D01*
X13764452Y-65427701D01*
X13870748Y-65427701D01*
X13951720Y-65406003D01*
X13951725Y-65406003D01*
X13951725Y-65406002D01*
X13959665Y-65403874D01*
X13973423Y-65400189D01*
X14065478Y-65347041D01*
X14140641Y-65271878D01*
X14140641Y-65271876D01*
X14147873Y-65264645D01*
X14147876Y-65264640D01*
X20690073Y-58722445D01*
X20744567Y-58697034D01*
X20752228Y-58696700D01*
X21698600Y-58696700D01*
X21755101Y-58717265D01*
X21785165Y-58769336D01*
X21786500Y-58784600D01*
X21786500Y-59312746D01*
X21798133Y-59371232D01*
X21842445Y-59437548D01*
X21842448Y-59437552D01*
X21842451Y-59437554D01*
X21908767Y-59481866D01*
X21908769Y-59481867D01*
X21967252Y-59493500D01*
X21967254Y-59493500D01*
X24006746Y-59493500D01*
X24006748Y-59493500D01*
X24065231Y-59481867D01*
X24131552Y-59437552D01*
X24175867Y-59371231D01*
X24187500Y-59312748D01*
X24187500Y-57273252D01*
X24175867Y-57214769D01*
X24131552Y-57148448D01*
X24131548Y-57148445D01*
X24065232Y-57104133D01*
X24045736Y-57100255D01*
X24006748Y-57092500D01*
X21967252Y-57092500D01*
X21938010Y-57098316D01*
X21908767Y-57104133D01*
X21842451Y-57148445D01*
X21842445Y-57148451D01*
X21798133Y-57214767D01*
X21786500Y-57273253D01*
X21786500Y-57801400D01*
X21765935Y-57857901D01*
X21713864Y-57887965D01*
X21698600Y-57889300D01*
X20495451Y-57889300D01*
X20392778Y-57916810D01*
X20300720Y-57969960D01*
X20225557Y-58045124D01*
X13676127Y-64594555D01*
X13621633Y-64619966D01*
X13613972Y-64620300D01*
X7170546Y-64620300D01*
X7170530Y-64620299D01*
X7165148Y-64620299D01*
X7058852Y-64620299D01*
X7008735Y-64633728D01*
X6977875Y-64641997D01*
X6956178Y-64647810D01*
X6864120Y-64700960D01*
X5518960Y-66046120D01*
X5465811Y-66138177D01*
X5465811Y-66138178D01*
X5438299Y-66240852D01*
X5438299Y-66354227D01*
X5438300Y-66354240D01*
X5438300Y-67695684D01*
X5417735Y-67752185D01*
X5399235Y-67768769D01*
X5376073Y-67784246D01*
X5255217Y-67864999D01*
X5126999Y-67993217D01*
X5026264Y-68143978D01*
X4956873Y-68311499D01*
X4956872Y-68311503D01*
X4921500Y-68489340D01*
X4222500Y-68489340D01*
X4222500Y-68489339D01*
X4203111Y-68391863D01*
X4187127Y-68311503D01*
X4187126Y-68311499D01*
X4151715Y-68226011D01*
X4117737Y-68143980D01*
X4016999Y-67993215D01*
X3888785Y-67865001D01*
X3738020Y-67764263D01*
X3656917Y-67730669D01*
X3570500Y-67694873D01*
X3570496Y-67694872D01*
X3436815Y-67668282D01*
X3392661Y-67659500D01*
X3211339Y-67659500D01*
X3172060Y-67667312D01*
X3033503Y-67694872D01*
X3033499Y-67694873D01*
X2865978Y-67764264D01*
X2715217Y-67864999D01*
X2586999Y-67993217D01*
X2486264Y-68143978D01*
X2416873Y-68311499D01*
X2416872Y-68311503D01*
X2381500Y-68489340D01*
X635500Y-68489340D01*
X635500Y-60869340D01*
X2381500Y-60869340D01*
X2381500Y-61050659D01*
X2416872Y-61228496D01*
X2416873Y-61228500D01*
X2450521Y-61309732D01*
X2486263Y-61396020D01*
X2587001Y-61546785D01*
X2715215Y-61674999D01*
X2865980Y-61775737D01*
X2980800Y-61823297D01*
X3033499Y-61845126D01*
X3033503Y-61845127D01*
X3097217Y-61857800D01*
X3211339Y-61880500D01*
X3211341Y-61880500D01*
X3392659Y-61880500D01*
X3392661Y-61880500D01*
X3510144Y-61857131D01*
X3570496Y-61845127D01*
X3570500Y-61845126D01*
X3738020Y-61775737D01*
X3888785Y-61674999D01*
X4016999Y-61546785D01*
X4117737Y-61396020D01*
X4187126Y-61228500D01*
X4222500Y-61050661D01*
X4222500Y-60869340D01*
X4921500Y-60869340D01*
X4921500Y-61050659D01*
X4956872Y-61228496D01*
X4956873Y-61228500D01*
X4990521Y-61309732D01*
X5026263Y-61396020D01*
X5127001Y-61546785D01*
X5255215Y-61674999D01*
X5405980Y-61775737D01*
X5520800Y-61823297D01*
X5573499Y-61845126D01*
X5573503Y-61845127D01*
X5637217Y-61857800D01*
X5751339Y-61880500D01*
X5751341Y-61880500D01*
X5932659Y-61880500D01*
X5932661Y-61880500D01*
X6050144Y-61857131D01*
X6110496Y-61845127D01*
X6110500Y-61845126D01*
X6278020Y-61775737D01*
X6428785Y-61674999D01*
X6556999Y-61546785D01*
X6657737Y-61396020D01*
X6727126Y-61228500D01*
X6762500Y-61050661D01*
X6762500Y-60871575D01*
X7484200Y-60871575D01*
X7484200Y-61048424D01*
X7518700Y-61221875D01*
X7518702Y-61221879D01*
X7586379Y-61385268D01*
X7593107Y-61395337D01*
X7982000Y-61006444D01*
X7982000Y-61012661D01*
X8009259Y-61114394D01*
X8061920Y-61205606D01*
X8136394Y-61280080D01*
X8227606Y-61332741D01*
X8329339Y-61360000D01*
X8335552Y-61360000D01*
X7946661Y-61748891D01*
X7956734Y-61755621D01*
X8120120Y-61823297D01*
X8120124Y-61823299D01*
X8293576Y-61857800D01*
X8470424Y-61857800D01*
X8643875Y-61823299D01*
X8643879Y-61823297D01*
X8807269Y-61755619D01*
X8817337Y-61748891D01*
X8428446Y-61360000D01*
X8434661Y-61360000D01*
X8536394Y-61332741D01*
X8627606Y-61280080D01*
X8702080Y-61205606D01*
X8754741Y-61114394D01*
X8782000Y-61012661D01*
X8782000Y-61006446D01*
X9170891Y-61395337D01*
X9177619Y-61385269D01*
X9245297Y-61221879D01*
X9245299Y-61221875D01*
X9279800Y-61048424D01*
X9279800Y-60871575D01*
X9245299Y-60698124D01*
X9245297Y-60698120D01*
X9177621Y-60534734D01*
X9170890Y-60524661D01*
X8782000Y-60913551D01*
X8782000Y-60907339D01*
X8754741Y-60805606D01*
X8702080Y-60714394D01*
X8627606Y-60639920D01*
X8536394Y-60587259D01*
X8434661Y-60560000D01*
X8428444Y-60560000D01*
X8817337Y-60171107D01*
X8807268Y-60164379D01*
X8643879Y-60096702D01*
X8643875Y-60096700D01*
X8470424Y-60062200D01*
X8293576Y-60062200D01*
X8120124Y-60096700D01*
X8120120Y-60096702D01*
X7956733Y-60164379D01*
X7946661Y-60171107D01*
X8335554Y-60560000D01*
X8329339Y-60560000D01*
X8227606Y-60587259D01*
X8136394Y-60639920D01*
X8061920Y-60714394D01*
X8009259Y-60805606D01*
X7982000Y-60907339D01*
X7982000Y-60913554D01*
X7593107Y-60524661D01*
X7586379Y-60534733D01*
X7518702Y-60698120D01*
X7518700Y-60698124D01*
X7484200Y-60871575D01*
X6762500Y-60871575D01*
X6762500Y-60869339D01*
X6744186Y-60777265D01*
X6727127Y-60691503D01*
X6727126Y-60691499D01*
X6691715Y-60606011D01*
X6657737Y-60523980D01*
X6556999Y-60373215D01*
X6428785Y-60245001D01*
X6284764Y-60148769D01*
X6249212Y-60100281D01*
X6245700Y-60075684D01*
X6245700Y-59284028D01*
X6266265Y-59227527D01*
X6271445Y-59221873D01*
X6923273Y-58570045D01*
X6977767Y-58544634D01*
X6985428Y-58544300D01*
X11701654Y-58544300D01*
X11701670Y-58544301D01*
X11707052Y-58544301D01*
X11813348Y-58544301D01*
X11894320Y-58522603D01*
X11894325Y-58522603D01*
X11894325Y-58522602D01*
X11902265Y-58520474D01*
X11916023Y-58516789D01*
X12008078Y-58463641D01*
X12083241Y-58388478D01*
X12083241Y-58388476D01*
X12090473Y-58381245D01*
X12090476Y-58381240D01*
X19673583Y-50798135D01*
X44212300Y-50798135D01*
X44212300Y-51005065D01*
X44222289Y-51055284D01*
X44252667Y-51208011D01*
X44252669Y-51208016D01*
X44252670Y-51208020D01*
X44331859Y-51399198D01*
X44331860Y-51399200D01*
X44331861Y-51399201D01*
X44446819Y-51571250D01*
X44446820Y-51571251D01*
X44446823Y-51571255D01*
X44593145Y-51717577D01*
X44593148Y-51717579D01*
X44593149Y-51717580D01*
X44617914Y-51734127D01*
X44765202Y-51832541D01*
X44956380Y-51911730D01*
X44956385Y-51911731D01*
X44956388Y-51911732D01*
X45059232Y-51932188D01*
X45159335Y-51952100D01*
X45159337Y-51952100D01*
X45366263Y-51952100D01*
X45366265Y-51952100D01*
X45523863Y-51920752D01*
X45569211Y-51911732D01*
X45569212Y-51911731D01*
X45569220Y-51911730D01*
X45760398Y-51832541D01*
X45932455Y-51717577D01*
X46078777Y-51571255D01*
X46193741Y-51399198D01*
X46272930Y-51208020D01*
X46276495Y-51190100D01*
X46300276Y-51070541D01*
X46313300Y-51005065D01*
X46313300Y-50798135D01*
X46752300Y-50798135D01*
X46752300Y-51005065D01*
X46762289Y-51055284D01*
X46792667Y-51208011D01*
X46792669Y-51208016D01*
X46792670Y-51208020D01*
X46871859Y-51399198D01*
X46871860Y-51399200D01*
X46871861Y-51399201D01*
X46986819Y-51571250D01*
X46986820Y-51571251D01*
X46986823Y-51571255D01*
X47133145Y-51717577D01*
X47133148Y-51717579D01*
X47133149Y-51717580D01*
X47157914Y-51734127D01*
X47305202Y-51832541D01*
X47496380Y-51911730D01*
X47496385Y-51911731D01*
X47496388Y-51911732D01*
X47599232Y-51932188D01*
X47699335Y-51952100D01*
X47699337Y-51952100D01*
X47906263Y-51952100D01*
X47906265Y-51952100D01*
X48063863Y-51920752D01*
X48109211Y-51911732D01*
X48109212Y-51911731D01*
X48109220Y-51911730D01*
X48300398Y-51832541D01*
X48472455Y-51717577D01*
X48618777Y-51571255D01*
X48733741Y-51399198D01*
X48812930Y-51208020D01*
X48816495Y-51190100D01*
X48840276Y-51070541D01*
X48853300Y-51005065D01*
X48853300Y-50798135D01*
X48821933Y-50640441D01*
X48812932Y-50595188D01*
X48812931Y-50595185D01*
X48812930Y-50595180D01*
X48733741Y-50404002D01*
X48618777Y-50231945D01*
X48472455Y-50085623D01*
X48472451Y-50085620D01*
X48472450Y-50085619D01*
X48300401Y-49970661D01*
X48300400Y-49970660D01*
X48300398Y-49970659D01*
X48109220Y-49891470D01*
X48109216Y-49891469D01*
X48109211Y-49891467D01*
X47956484Y-49861089D01*
X47906265Y-49851100D01*
X47699335Y-49851100D01*
X47654644Y-49859989D01*
X47496388Y-49891467D01*
X47496383Y-49891469D01*
X47496381Y-49891469D01*
X47496380Y-49891470D01*
X47305202Y-49970659D01*
X47305200Y-49970659D01*
X47305198Y-49970661D01*
X47133149Y-50085619D01*
X46986819Y-50231949D01*
X46871861Y-50403998D01*
X46871859Y-50404000D01*
X46871859Y-50404002D01*
X46805056Y-50565278D01*
X46792669Y-50595183D01*
X46792667Y-50595188D01*
X46765522Y-50731662D01*
X46752300Y-50798135D01*
X46313300Y-50798135D01*
X46281933Y-50640441D01*
X46272932Y-50595188D01*
X46272931Y-50595185D01*
X46272930Y-50595180D01*
X46193741Y-50404002D01*
X46078777Y-50231945D01*
X45932455Y-50085623D01*
X45932451Y-50085620D01*
X45932450Y-50085619D01*
X45760401Y-49970661D01*
X45760400Y-49970660D01*
X45760398Y-49970659D01*
X45569220Y-49891470D01*
X45569216Y-49891469D01*
X45569211Y-49891467D01*
X45416484Y-49861089D01*
X45366265Y-49851100D01*
X45159335Y-49851100D01*
X45114644Y-49859989D01*
X44956388Y-49891467D01*
X44956383Y-49891469D01*
X44956381Y-49891469D01*
X44956380Y-49891470D01*
X44765202Y-49970659D01*
X44765200Y-49970659D01*
X44765198Y-49970661D01*
X44593149Y-50085619D01*
X44446819Y-50231949D01*
X44331861Y-50403998D01*
X44331859Y-50404000D01*
X44331859Y-50404002D01*
X44265056Y-50565278D01*
X44252669Y-50595183D01*
X44252667Y-50595188D01*
X44225522Y-50731662D01*
X44212300Y-50798135D01*
X19673583Y-50798135D01*
X20766273Y-49705445D01*
X20820767Y-49680034D01*
X20828428Y-49679700D01*
X21698600Y-49679700D01*
X21755101Y-49700265D01*
X21785165Y-49752336D01*
X21786500Y-49767600D01*
X21786500Y-50295746D01*
X21798133Y-50354232D01*
X21831389Y-50404002D01*
X21842448Y-50420552D01*
X21842451Y-50420554D01*
X21908767Y-50464866D01*
X21908769Y-50464867D01*
X21967252Y-50476500D01*
X21967254Y-50476500D01*
X24006746Y-50476500D01*
X24006748Y-50476500D01*
X24065231Y-50464867D01*
X24131552Y-50420552D01*
X24175867Y-50354231D01*
X24187500Y-50295748D01*
X24187500Y-48258136D01*
X44212300Y-48258136D01*
X44212300Y-48465063D01*
X44252667Y-48668011D01*
X44252669Y-48668016D01*
X44252670Y-48668020D01*
X44331859Y-48859198D01*
X44331860Y-48859200D01*
X44331861Y-48859201D01*
X44446819Y-49031250D01*
X44446820Y-49031251D01*
X44446823Y-49031255D01*
X44593145Y-49177577D01*
X44593148Y-49177579D01*
X44593149Y-49177580D01*
X44617914Y-49194127D01*
X44765202Y-49292541D01*
X44956380Y-49371730D01*
X44956385Y-49371731D01*
X44956388Y-49371732D01*
X45059232Y-49392188D01*
X45159335Y-49412100D01*
X45159337Y-49412100D01*
X45366263Y-49412100D01*
X45366265Y-49412100D01*
X45523843Y-49380756D01*
X45569211Y-49371732D01*
X45569212Y-49371731D01*
X45569220Y-49371730D01*
X45760398Y-49292541D01*
X45932455Y-49177577D01*
X46078777Y-49031255D01*
X46193741Y-48859198D01*
X46272930Y-48668020D01*
X46276495Y-48650100D01*
X46300276Y-48530541D01*
X46313300Y-48465065D01*
X46313300Y-48258136D01*
X46752300Y-48258136D01*
X46752300Y-48465063D01*
X46792667Y-48668011D01*
X46792669Y-48668016D01*
X46792670Y-48668020D01*
X46871859Y-48859198D01*
X46871860Y-48859200D01*
X46871861Y-48859201D01*
X46986819Y-49031250D01*
X46986820Y-49031251D01*
X46986823Y-49031255D01*
X47133145Y-49177577D01*
X47133148Y-49177579D01*
X47133149Y-49177580D01*
X47157914Y-49194127D01*
X47305202Y-49292541D01*
X47496380Y-49371730D01*
X47496385Y-49371731D01*
X47496388Y-49371732D01*
X47599232Y-49392188D01*
X47699335Y-49412100D01*
X47699337Y-49412100D01*
X47906263Y-49412100D01*
X47906265Y-49412100D01*
X48063843Y-49380756D01*
X48109211Y-49371732D01*
X48109212Y-49371731D01*
X48109220Y-49371730D01*
X48300398Y-49292541D01*
X48472455Y-49177577D01*
X48618777Y-49031255D01*
X48733741Y-48859198D01*
X48812930Y-48668020D01*
X48816495Y-48650100D01*
X48840276Y-48530541D01*
X48853300Y-48465065D01*
X48853300Y-48258135D01*
X48824492Y-48113304D01*
X48812932Y-48055188D01*
X48812931Y-48055185D01*
X48812930Y-48055180D01*
X48733741Y-47864002D01*
X48618777Y-47691945D01*
X48472455Y-47545623D01*
X48472451Y-47545620D01*
X48472450Y-47545619D01*
X48300401Y-47430661D01*
X48300400Y-47430660D01*
X48300398Y-47430659D01*
X48109220Y-47351470D01*
X48109216Y-47351469D01*
X48109211Y-47351467D01*
X47956484Y-47321089D01*
X47906265Y-47311100D01*
X47699335Y-47311100D01*
X47654644Y-47319989D01*
X47496388Y-47351467D01*
X47496383Y-47351469D01*
X47496381Y-47351469D01*
X47496380Y-47351470D01*
X47305202Y-47430659D01*
X47305200Y-47430659D01*
X47305198Y-47430661D01*
X47133149Y-47545619D01*
X46986819Y-47691949D01*
X46871861Y-47863998D01*
X46871859Y-47864000D01*
X46871859Y-47864002D01*
X46792670Y-48055180D01*
X46792669Y-48055183D01*
X46792667Y-48055188D01*
X46764308Y-48197767D01*
X46752675Y-48256253D01*
X46752300Y-48258136D01*
X46313300Y-48258136D01*
X46313300Y-48258135D01*
X46284492Y-48113304D01*
X46272932Y-48055188D01*
X46272931Y-48055185D01*
X46272930Y-48055180D01*
X46193741Y-47864002D01*
X46078777Y-47691945D01*
X45932455Y-47545623D01*
X45932451Y-47545620D01*
X45932450Y-47545619D01*
X45760401Y-47430661D01*
X45760400Y-47430660D01*
X45760398Y-47430659D01*
X45569220Y-47351470D01*
X45569216Y-47351469D01*
X45569211Y-47351467D01*
X45416484Y-47321089D01*
X45366265Y-47311100D01*
X45159335Y-47311100D01*
X45114644Y-47319989D01*
X44956388Y-47351467D01*
X44956383Y-47351469D01*
X44956381Y-47351469D01*
X44956380Y-47351470D01*
X44765202Y-47430659D01*
X44765200Y-47430659D01*
X44765198Y-47430661D01*
X44593149Y-47545619D01*
X44446819Y-47691949D01*
X44331861Y-47863998D01*
X44331859Y-47864000D01*
X44331859Y-47864002D01*
X44252670Y-48055180D01*
X44252669Y-48055183D01*
X44252667Y-48055188D01*
X44224308Y-48197767D01*
X44212675Y-48256253D01*
X44212300Y-48258136D01*
X24187500Y-48258136D01*
X24187500Y-48256252D01*
X24175867Y-48197769D01*
X24131552Y-48131448D01*
X24104400Y-48113305D01*
X24065232Y-48087133D01*
X24045736Y-48083255D01*
X24006748Y-48075500D01*
X21967252Y-48075500D01*
X21938010Y-48081316D01*
X21908767Y-48087133D01*
X21842451Y-48131445D01*
X21842445Y-48131451D01*
X21798133Y-48197767D01*
X21786500Y-48256253D01*
X21786500Y-48784400D01*
X21765935Y-48840901D01*
X21713864Y-48870965D01*
X21698600Y-48872300D01*
X20683347Y-48872300D01*
X20683331Y-48872299D01*
X20677949Y-48872299D01*
X20571652Y-48872299D01*
X20468979Y-48899809D01*
X20433134Y-48920505D01*
X20433133Y-48920504D01*
X20376921Y-48952959D01*
X20301757Y-49028124D01*
X11618727Y-57711155D01*
X11564233Y-57736566D01*
X11556572Y-57736900D01*
X6840346Y-57736900D01*
X6840330Y-57736899D01*
X6834948Y-57736899D01*
X6728652Y-57736899D01*
X6647675Y-57758597D01*
X6625978Y-57764410D01*
X6533920Y-57817560D01*
X5518960Y-58832520D01*
X5465811Y-58924577D01*
X5465811Y-58924578D01*
X5438299Y-59027252D01*
X5438299Y-59140627D01*
X5438300Y-59140640D01*
X5438300Y-60075684D01*
X5417735Y-60132185D01*
X5399235Y-60148770D01*
X5255217Y-60244999D01*
X5126999Y-60373217D01*
X5026264Y-60523978D01*
X4956873Y-60691499D01*
X4956872Y-60691503D01*
X4921500Y-60869340D01*
X4222500Y-60869340D01*
X4222500Y-60869339D01*
X4204186Y-60777265D01*
X4187127Y-60691503D01*
X4187126Y-60691499D01*
X4151715Y-60606011D01*
X4117737Y-60523980D01*
X4016999Y-60373215D01*
X3888785Y-60245001D01*
X3738020Y-60144263D01*
X3676139Y-60118631D01*
X3570500Y-60074873D01*
X3570496Y-60074872D01*
X3436815Y-60048282D01*
X3392661Y-60039500D01*
X3211339Y-60039500D01*
X3172060Y-60047312D01*
X3033503Y-60074872D01*
X3033499Y-60074873D01*
X2865978Y-60144264D01*
X2715217Y-60244999D01*
X2586999Y-60373217D01*
X2486264Y-60523978D01*
X2416873Y-60691499D01*
X2416872Y-60691503D01*
X2381500Y-60869340D01*
X635500Y-60869340D01*
X635500Y-51101028D01*
X656065Y-51044527D01*
X708136Y-51014463D01*
X767350Y-51024904D01*
X785555Y-51038873D01*
X2699557Y-52952875D01*
X2699557Y-52952876D01*
X2774718Y-53028038D01*
X2774720Y-53028039D01*
X2774722Y-53028041D01*
X2866777Y-53081189D01*
X2885122Y-53086104D01*
X2885123Y-53086105D01*
X2969452Y-53108701D01*
X3081130Y-53108701D01*
X3081146Y-53108700D01*
X4639415Y-53108700D01*
X4695916Y-53129265D01*
X4725980Y-53181336D01*
X4715539Y-53240550D01*
X4701573Y-53258750D01*
X4668758Y-53291566D01*
X4639039Y-53321285D01*
X4639038Y-53321286D01*
X4526815Y-53489241D01*
X4526815Y-53489242D01*
X4449509Y-53675873D01*
X4449506Y-53675881D01*
X4410100Y-53873998D01*
X4410100Y-54076001D01*
X4449506Y-54274118D01*
X4449508Y-54274124D01*
X4449509Y-54274127D01*
X4526814Y-54460756D01*
X4526815Y-54460757D01*
X4526815Y-54460758D01*
X4639038Y-54628713D01*
X4639039Y-54628714D01*
X4639042Y-54628718D01*
X4701355Y-54691031D01*
X4726766Y-54745524D01*
X4727100Y-54753185D01*
X4727100Y-55340179D01*
X4754324Y-55477054D01*
X4754328Y-55477065D01*
X4764533Y-55501700D01*
X4764534Y-55501703D01*
X4807732Y-55605995D01*
X4807732Y-55605997D01*
X4807735Y-55606001D01*
X4885272Y-55722043D01*
X5923758Y-56760528D01*
X6039799Y-56838065D01*
X6130972Y-56875830D01*
X6168738Y-56891473D01*
X6305619Y-56918700D01*
X6305621Y-56918700D01*
X10559980Y-56918700D01*
X10559982Y-56918700D01*
X10628421Y-56905086D01*
X10696862Y-56891473D01*
X10734627Y-56875830D01*
X10825801Y-56838065D01*
X10941843Y-56760528D01*
X21171926Y-46530445D01*
X21226420Y-46505034D01*
X21234081Y-46504700D01*
X33851780Y-46504700D01*
X33851782Y-46504700D01*
X33920221Y-46491086D01*
X33988662Y-46477473D01*
X34026427Y-46461830D01*
X34117601Y-46424065D01*
X34233643Y-46346528D01*
X34862036Y-45718135D01*
X44212300Y-45718135D01*
X44212300Y-45925065D01*
X44220842Y-45968009D01*
X44252667Y-46128011D01*
X44252669Y-46128016D01*
X44252670Y-46128020D01*
X44331859Y-46319198D01*
X44331860Y-46319200D01*
X44331861Y-46319201D01*
X44446819Y-46491250D01*
X44446820Y-46491251D01*
X44446823Y-46491255D01*
X44593145Y-46637577D01*
X44593148Y-46637579D01*
X44593149Y-46637580D01*
X44617914Y-46654127D01*
X44765202Y-46752541D01*
X44956380Y-46831730D01*
X44956385Y-46831731D01*
X44956388Y-46831732D01*
X45059232Y-46852188D01*
X45159335Y-46872100D01*
X45159337Y-46872100D01*
X45366263Y-46872100D01*
X45366265Y-46872100D01*
X45523863Y-46840752D01*
X45569211Y-46831732D01*
X45569212Y-46831731D01*
X45569220Y-46831730D01*
X45760398Y-46752541D01*
X45932455Y-46637577D01*
X46078777Y-46491255D01*
X46193741Y-46319198D01*
X46272930Y-46128020D01*
X46276495Y-46110100D01*
X46300276Y-45990541D01*
X46313300Y-45925065D01*
X46313300Y-45718135D01*
X46752300Y-45718135D01*
X46752300Y-45925065D01*
X46760842Y-45968009D01*
X46792667Y-46128011D01*
X46792669Y-46128016D01*
X46792670Y-46128020D01*
X46871859Y-46319198D01*
X46871860Y-46319200D01*
X46871861Y-46319201D01*
X46986819Y-46491250D01*
X46986820Y-46491251D01*
X46986823Y-46491255D01*
X47133145Y-46637577D01*
X47133148Y-46637579D01*
X47133149Y-46637580D01*
X47157914Y-46654127D01*
X47305202Y-46752541D01*
X47496380Y-46831730D01*
X47496385Y-46831731D01*
X47496388Y-46831732D01*
X47599232Y-46852188D01*
X47699335Y-46872100D01*
X47699337Y-46872100D01*
X47906263Y-46872100D01*
X47906265Y-46872100D01*
X48063863Y-46840752D01*
X48109211Y-46831732D01*
X48109212Y-46831731D01*
X48109220Y-46831730D01*
X48300398Y-46752541D01*
X48472455Y-46637577D01*
X48618777Y-46491255D01*
X48733741Y-46319198D01*
X48812930Y-46128020D01*
X48816495Y-46110100D01*
X48840276Y-45990541D01*
X48853300Y-45925065D01*
X48853300Y-45718135D01*
X48822111Y-45561336D01*
X48812932Y-45515188D01*
X48812931Y-45515185D01*
X48812930Y-45515180D01*
X48733741Y-45324002D01*
X48643506Y-45188955D01*
X48618780Y-45151949D01*
X48618779Y-45151948D01*
X48618777Y-45151945D01*
X48472455Y-45005623D01*
X48472451Y-45005620D01*
X48472450Y-45005619D01*
X48300401Y-44890661D01*
X48300400Y-44890660D01*
X48300398Y-44890659D01*
X48109220Y-44811470D01*
X48109216Y-44811469D01*
X48109211Y-44811467D01*
X47956484Y-44781089D01*
X47906265Y-44771100D01*
X47699335Y-44771100D01*
X47654644Y-44779989D01*
X47496388Y-44811467D01*
X47496383Y-44811469D01*
X47496381Y-44811469D01*
X47496380Y-44811470D01*
X47305202Y-44890659D01*
X47305200Y-44890659D01*
X47305198Y-44890661D01*
X47133149Y-45005619D01*
X46986819Y-45151949D01*
X46871861Y-45323998D01*
X46871859Y-45324000D01*
X46871859Y-45324002D01*
X46792670Y-45515180D01*
X46792669Y-45515183D01*
X46792667Y-45515188D01*
X46765522Y-45651662D01*
X46752300Y-45718135D01*
X46313300Y-45718135D01*
X46282111Y-45561336D01*
X46272932Y-45515188D01*
X46272931Y-45515185D01*
X46272930Y-45515180D01*
X46193741Y-45324002D01*
X46103506Y-45188955D01*
X46078780Y-45151949D01*
X46078779Y-45151948D01*
X46078777Y-45151945D01*
X45932455Y-45005623D01*
X45932451Y-45005620D01*
X45932450Y-45005619D01*
X45760401Y-44890661D01*
X45760400Y-44890660D01*
X45760398Y-44890659D01*
X45569220Y-44811470D01*
X45569216Y-44811469D01*
X45569211Y-44811467D01*
X45416484Y-44781089D01*
X45366265Y-44771100D01*
X45159335Y-44771100D01*
X45114644Y-44779989D01*
X44956388Y-44811467D01*
X44956383Y-44811469D01*
X44956381Y-44811469D01*
X44956380Y-44811470D01*
X44765202Y-44890659D01*
X44765200Y-44890659D01*
X44765198Y-44890661D01*
X44593149Y-45005619D01*
X44446819Y-45151949D01*
X44331861Y-45323998D01*
X44331859Y-45324000D01*
X44331859Y-45324002D01*
X44252670Y-45515180D01*
X44252669Y-45515183D01*
X44252667Y-45515188D01*
X44225522Y-45651662D01*
X44212300Y-45718135D01*
X34862036Y-45718135D01*
X37326326Y-43253845D01*
X37380820Y-43228434D01*
X37388481Y-43228100D01*
X50664000Y-43228100D01*
X50720501Y-43248665D01*
X50750565Y-43300736D01*
X50751900Y-43316000D01*
X50751900Y-53721318D01*
X50731335Y-53777819D01*
X50726155Y-53783473D01*
X47078224Y-57431403D01*
X47064905Y-57442334D01*
X46995559Y-57488670D01*
X46024670Y-58459559D01*
X45947134Y-58575600D01*
X45941448Y-58589328D01*
X45932641Y-58610592D01*
X45896836Y-58697034D01*
X45893726Y-58704541D01*
X45893724Y-58704546D01*
X45866500Y-58841420D01*
X45866500Y-91447858D01*
X45845935Y-91504359D01*
X45840755Y-91510012D01*
X45767624Y-91583142D01*
X45767619Y-91583149D01*
X45652661Y-91755198D01*
X45652659Y-91755200D01*
X45652659Y-91755202D01*
X45573713Y-91945793D01*
X45573469Y-91946383D01*
X45573467Y-91946388D01*
X45533100Y-92149336D01*
X45533100Y-92356263D01*
X45573467Y-92559211D01*
X45573469Y-92559216D01*
X45573470Y-92559220D01*
X45652659Y-92750398D01*
X45652660Y-92750400D01*
X45652661Y-92750401D01*
X45767619Y-92922450D01*
X45767620Y-92922451D01*
X45767623Y-92922455D01*
X45913945Y-93068777D01*
X46086002Y-93183741D01*
X46277180Y-93262930D01*
X46277185Y-93262931D01*
X46277188Y-93262932D01*
X46380032Y-93283388D01*
X46480135Y-93303300D01*
X46480137Y-93303300D01*
X46687063Y-93303300D01*
X46687065Y-93303300D01*
X46853054Y-93270283D01*
X46890011Y-93262932D01*
X46890012Y-93262931D01*
X46890020Y-93262930D01*
X47081198Y-93183741D01*
X47253255Y-93068777D01*
X47399577Y-92922455D01*
X47514541Y-92750398D01*
X47593730Y-92559220D01*
X47593732Y-92559211D01*
X47615606Y-92449243D01*
X47634100Y-92356263D01*
X47634100Y-92149336D01*
X47593732Y-91946388D01*
X47593731Y-91946385D01*
X47593730Y-91946380D01*
X47514541Y-91755202D01*
X47399577Y-91583145D01*
X47399574Y-91583142D01*
X47309245Y-91492812D01*
X47301135Y-91475421D01*
X47288801Y-91460722D01*
X47285469Y-91441825D01*
X47283834Y-91438319D01*
X47283500Y-91430658D01*
X47283500Y-91385287D01*
X48095800Y-91385287D01*
X48095800Y-92002799D01*
X48095801Y-92002800D01*
X48690588Y-92002800D01*
X48657675Y-92059807D01*
X48623600Y-92186974D01*
X48623600Y-92318626D01*
X48657675Y-92445793D01*
X48690588Y-92502800D01*
X48095802Y-92502800D01*
X48095801Y-92502801D01*
X48095801Y-93120308D01*
X48106116Y-93172175D01*
X48145411Y-93230982D01*
X48145417Y-93230988D01*
X48204224Y-93270283D01*
X48256087Y-93280599D01*
X48873598Y-93280599D01*
X48873600Y-93280598D01*
X48873600Y-92685812D01*
X48930607Y-92718725D01*
X49057774Y-92752800D01*
X49189426Y-92752800D01*
X49316593Y-92718725D01*
X49373600Y-92685812D01*
X49373600Y-93280598D01*
X49373601Y-93280599D01*
X49991109Y-93280599D01*
X50042975Y-93270283D01*
X50101782Y-93230988D01*
X50101788Y-93230982D01*
X50141083Y-93172175D01*
X50151400Y-93120312D01*
X50151400Y-92502801D01*
X50151399Y-92502800D01*
X49556612Y-92502800D01*
X49589525Y-92445793D01*
X49623600Y-92318626D01*
X49623600Y-92186974D01*
X49589525Y-92059807D01*
X49556612Y-92002800D01*
X50151398Y-92002800D01*
X50151399Y-92002799D01*
X50151399Y-91385291D01*
X50141083Y-91333424D01*
X50101788Y-91274617D01*
X50101782Y-91274611D01*
X50042975Y-91235316D01*
X49991113Y-91225000D01*
X49373601Y-91225000D01*
X49373600Y-91225001D01*
X49373600Y-91819788D01*
X49316593Y-91786875D01*
X49189426Y-91752800D01*
X49057774Y-91752800D01*
X48930607Y-91786875D01*
X48873600Y-91819788D01*
X48873600Y-91225001D01*
X48873599Y-91225000D01*
X48256086Y-91225000D01*
X48256084Y-91225001D01*
X48204228Y-91235314D01*
X48204224Y-91235316D01*
X48145417Y-91274611D01*
X48145411Y-91274617D01*
X48106116Y-91333424D01*
X48095800Y-91385287D01*
X47283500Y-91385287D01*
X47283500Y-79462474D01*
X49215200Y-79462474D01*
X49215200Y-79589525D01*
X49239985Y-79714136D01*
X49239987Y-79714140D01*
X49288606Y-79831519D01*
X49288607Y-79831521D01*
X49288608Y-79831522D01*
X49359196Y-79937164D01*
X49449036Y-80027004D01*
X49554678Y-80097592D01*
X49672060Y-80146213D01*
X49672061Y-80146213D01*
X49672063Y-80146214D01*
X49734792Y-80158691D01*
X49796673Y-80171000D01*
X49796675Y-80171000D01*
X49923725Y-80171000D01*
X49923727Y-80171000D01*
X50006048Y-80154625D01*
X50048336Y-80146214D01*
X50048336Y-80146213D01*
X50048340Y-80146213D01*
X50165722Y-80097592D01*
X50271364Y-80027004D01*
X50361204Y-79937164D01*
X50431792Y-79831522D01*
X50480413Y-79714140D01*
X50505200Y-79589527D01*
X50505200Y-79488327D01*
X50525765Y-79431826D01*
X50530945Y-79426172D01*
X50836546Y-79120571D01*
X51142240Y-78814877D01*
X51142245Y-78814873D01*
X51149476Y-78807641D01*
X51149478Y-78807641D01*
X51224641Y-78732478D01*
X51277789Y-78640423D01*
X51284810Y-78614219D01*
X51305301Y-78537748D01*
X51305301Y-78431452D01*
X51305301Y-78426071D01*
X51305300Y-78426053D01*
X51305300Y-66980228D01*
X51325865Y-66923727D01*
X51331045Y-66918073D01*
X53710073Y-64539045D01*
X53764567Y-64513634D01*
X53772228Y-64513300D01*
X54159459Y-64513300D01*
X54215960Y-64533865D01*
X54246024Y-64585936D01*
X54235583Y-64645150D01*
X54221617Y-64663350D01*
X54184009Y-64700959D01*
X54175020Y-64709948D01*
X54175019Y-64709949D01*
X54060061Y-64881998D01*
X53980869Y-65073183D01*
X53980867Y-65073188D01*
X53945494Y-65251025D01*
X53941348Y-65271875D01*
X53940500Y-65276136D01*
X53940500Y-65483063D01*
X53980867Y-65686011D01*
X53980869Y-65686016D01*
X53980870Y-65686020D01*
X54060059Y-65877198D01*
X54060060Y-65877200D01*
X54060061Y-65877201D01*
X54175019Y-66049250D01*
X54175020Y-66049251D01*
X54175023Y-66049255D01*
X54221614Y-66095846D01*
X54247025Y-66150339D01*
X54231462Y-66208417D01*
X54182209Y-66242905D01*
X54159459Y-66245900D01*
X53677946Y-66245900D01*
X53677930Y-66245899D01*
X53672548Y-66245899D01*
X53566252Y-66245899D01*
X53485275Y-66267597D01*
X53463578Y-66273410D01*
X53371520Y-66326560D01*
X52077160Y-67620920D01*
X52024011Y-67712977D01*
X52024011Y-67712978D01*
X51996499Y-67815652D01*
X51996499Y-67929027D01*
X51996500Y-67929040D01*
X51996500Y-79120571D01*
X51975935Y-79177072D01*
X51970755Y-79182726D01*
X49960026Y-81193455D01*
X49905532Y-81218866D01*
X49897871Y-81219200D01*
X49796673Y-81219200D01*
X49769150Y-81224674D01*
X49672063Y-81243985D01*
X49672059Y-81243987D01*
X49554680Y-81292606D01*
X49449038Y-81363194D01*
X49359194Y-81453038D01*
X49288606Y-81558680D01*
X49239987Y-81676059D01*
X49239985Y-81676063D01*
X49215200Y-81800674D01*
X49215200Y-81927725D01*
X49239985Y-82052336D01*
X49239987Y-82052340D01*
X49288606Y-82169719D01*
X49288607Y-82169721D01*
X49288608Y-82169722D01*
X49359196Y-82275364D01*
X49449036Y-82365204D01*
X49554678Y-82435792D01*
X49672060Y-82484413D01*
X49672061Y-82484413D01*
X49672063Y-82484414D01*
X49734792Y-82496891D01*
X49796673Y-82509200D01*
X49796675Y-82509200D01*
X49923725Y-82509200D01*
X49923727Y-82509200D01*
X50006048Y-82492825D01*
X50048336Y-82484414D01*
X50048336Y-82484413D01*
X50048340Y-82484413D01*
X50165722Y-82435792D01*
X50271364Y-82365204D01*
X50361204Y-82275364D01*
X50431792Y-82169722D01*
X50480413Y-82052340D01*
X50505200Y-81927727D01*
X50505200Y-81826527D01*
X50525765Y-81770026D01*
X50530945Y-81764372D01*
X51101862Y-81193455D01*
X52640840Y-79654477D01*
X52640845Y-79654473D01*
X52648076Y-79647241D01*
X52648078Y-79647241D01*
X52723241Y-79572078D01*
X52776389Y-79480023D01*
X52803900Y-79377348D01*
X52803900Y-72898372D01*
X53963200Y-72898372D01*
X53963200Y-73100827D01*
X54002696Y-73299394D01*
X54002698Y-73299398D01*
X54080176Y-73486445D01*
X54108383Y-73528660D01*
X54508036Y-73129006D01*
X54525075Y-73192593D01*
X54590901Y-73306607D01*
X54683993Y-73399699D01*
X54798007Y-73465525D01*
X54861589Y-73482562D01*
X54461937Y-73882215D01*
X54504152Y-73910422D01*
X54691201Y-73987901D01*
X54691205Y-73987903D01*
X54889773Y-74027400D01*
X55092227Y-74027400D01*
X55290794Y-73987903D01*
X55290798Y-73987901D01*
X55477848Y-73910422D01*
X55520061Y-73882215D01*
X55120408Y-73482562D01*
X55183993Y-73465525D01*
X55298007Y-73399699D01*
X55391099Y-73306607D01*
X55456925Y-73192593D01*
X55473962Y-73129008D01*
X55873615Y-73528661D01*
X55901822Y-73486448D01*
X55979301Y-73299398D01*
X55979303Y-73299394D01*
X56018800Y-73100827D01*
X56018800Y-72898372D01*
X56503200Y-72898372D01*
X56503200Y-73100827D01*
X56542696Y-73299394D01*
X56542698Y-73299398D01*
X56620176Y-73486445D01*
X56648383Y-73528660D01*
X57048036Y-73129006D01*
X57065075Y-73192593D01*
X57130901Y-73306607D01*
X57223993Y-73399699D01*
X57338007Y-73465525D01*
X57401589Y-73482562D01*
X57001937Y-73882215D01*
X57044152Y-73910422D01*
X57231201Y-73987901D01*
X57231205Y-73987903D01*
X57429773Y-74027400D01*
X57632227Y-74027400D01*
X57830794Y-73987903D01*
X57830798Y-73987901D01*
X58017848Y-73910422D01*
X58060061Y-73882215D01*
X57660408Y-73482562D01*
X57723993Y-73465525D01*
X57838007Y-73399699D01*
X57931099Y-73306607D01*
X57996925Y-73192593D01*
X58013962Y-73129008D01*
X58413615Y-73528661D01*
X58441822Y-73486448D01*
X58519301Y-73299398D01*
X58519303Y-73299394D01*
X58558800Y-73100827D01*
X58558800Y-72898372D01*
X58519303Y-72699805D01*
X58519301Y-72699801D01*
X58441822Y-72512752D01*
X58413615Y-72470537D01*
X58013962Y-72870189D01*
X57996925Y-72806607D01*
X57931099Y-72692593D01*
X57838007Y-72599501D01*
X57723993Y-72533675D01*
X57660407Y-72516636D01*
X58060061Y-72116984D01*
X58017845Y-72088776D01*
X57830798Y-72011298D01*
X57830794Y-72011296D01*
X57632227Y-71971800D01*
X57429773Y-71971800D01*
X57231205Y-72011296D01*
X57231201Y-72011298D01*
X57044154Y-72088775D01*
X57001937Y-72116983D01*
X57401591Y-72516637D01*
X57338007Y-72533675D01*
X57223993Y-72599501D01*
X57130901Y-72692593D01*
X57065075Y-72806607D01*
X57048037Y-72870191D01*
X56648383Y-72470537D01*
X56620175Y-72512754D01*
X56542698Y-72699801D01*
X56542696Y-72699805D01*
X56503200Y-72898372D01*
X56018800Y-72898372D01*
X55979303Y-72699805D01*
X55979301Y-72699801D01*
X55901822Y-72512752D01*
X55873615Y-72470537D01*
X55473962Y-72870189D01*
X55456925Y-72806607D01*
X55391099Y-72692593D01*
X55298007Y-72599501D01*
X55183993Y-72533675D01*
X55120407Y-72516636D01*
X55520061Y-72116984D01*
X55477845Y-72088776D01*
X55290798Y-72011298D01*
X55290794Y-72011296D01*
X55092227Y-71971800D01*
X54889773Y-71971800D01*
X54691205Y-72011296D01*
X54691201Y-72011298D01*
X54504154Y-72088775D01*
X54461937Y-72116983D01*
X54861591Y-72516637D01*
X54798007Y-72533675D01*
X54683993Y-72599501D01*
X54590901Y-72692593D01*
X54525075Y-72806607D01*
X54508037Y-72870191D01*
X54108383Y-72470537D01*
X54080175Y-72512754D01*
X54002698Y-72699801D01*
X54002696Y-72699805D01*
X53963200Y-72898372D01*
X52803900Y-72898372D01*
X52803900Y-70358372D01*
X53963200Y-70358372D01*
X53963200Y-70560827D01*
X54002696Y-70759394D01*
X54002698Y-70759398D01*
X54080176Y-70946445D01*
X54108383Y-70988660D01*
X54508036Y-70589006D01*
X54525075Y-70652593D01*
X54590901Y-70766607D01*
X54683993Y-70859699D01*
X54798007Y-70925525D01*
X54861589Y-70942562D01*
X54461937Y-71342215D01*
X54504152Y-71370422D01*
X54691201Y-71447901D01*
X54691205Y-71447903D01*
X54889773Y-71487400D01*
X55092227Y-71487400D01*
X55290794Y-71447903D01*
X55290798Y-71447901D01*
X55477848Y-71370422D01*
X55520061Y-71342215D01*
X55120408Y-70942562D01*
X55183993Y-70925525D01*
X55298007Y-70859699D01*
X55391099Y-70766607D01*
X55456925Y-70652593D01*
X55473962Y-70589008D01*
X55873615Y-70988661D01*
X55901822Y-70946448D01*
X55979301Y-70759398D01*
X55979303Y-70759394D01*
X56018800Y-70560827D01*
X56018800Y-70358373D01*
X56018799Y-70358372D01*
X56018354Y-70356136D01*
X56480500Y-70356136D01*
X56480500Y-70563063D01*
X56520867Y-70766011D01*
X56520869Y-70766016D01*
X56520870Y-70766020D01*
X56600059Y-70957198D01*
X56600060Y-70957200D01*
X56600061Y-70957201D01*
X56715019Y-71129250D01*
X56715020Y-71129251D01*
X56715023Y-71129255D01*
X56861345Y-71275577D01*
X57033402Y-71390541D01*
X57224580Y-71469730D01*
X57224585Y-71469731D01*
X57224588Y-71469732D01*
X57327432Y-71490188D01*
X57427535Y-71510100D01*
X57427537Y-71510100D01*
X57634463Y-71510100D01*
X57634465Y-71510100D01*
X57767336Y-71483670D01*
X57837411Y-71469732D01*
X57837412Y-71469731D01*
X57837420Y-71469730D01*
X58028598Y-71390541D01*
X58200655Y-71275577D01*
X58346977Y-71129255D01*
X58461941Y-70957198D01*
X58541130Y-70766020D01*
X58581500Y-70563065D01*
X58581500Y-70356135D01*
X58541130Y-70153180D01*
X58461941Y-69962002D01*
X58346977Y-69789945D01*
X58200655Y-69643623D01*
X58200651Y-69643620D01*
X58200650Y-69643619D01*
X58028601Y-69528661D01*
X58028600Y-69528660D01*
X58028598Y-69528659D01*
X57837420Y-69449470D01*
X57837416Y-69449469D01*
X57837411Y-69449467D01*
X57684684Y-69419089D01*
X57634465Y-69409100D01*
X57427535Y-69409100D01*
X57382844Y-69417989D01*
X57224588Y-69449467D01*
X57224583Y-69449469D01*
X57224581Y-69449469D01*
X57224580Y-69449470D01*
X57033402Y-69528659D01*
X57033400Y-69528659D01*
X57033398Y-69528661D01*
X56861349Y-69643619D01*
X56715019Y-69789949D01*
X56600061Y-69961998D01*
X56600059Y-69962000D01*
X56600059Y-69962002D01*
X56540394Y-70106045D01*
X56520869Y-70153183D01*
X56520867Y-70153188D01*
X56480500Y-70356136D01*
X56018354Y-70356136D01*
X55979303Y-70159805D01*
X55979301Y-70159801D01*
X55901822Y-69972752D01*
X55873615Y-69930537D01*
X55473962Y-70330189D01*
X55456925Y-70266607D01*
X55391099Y-70152593D01*
X55298007Y-70059501D01*
X55183993Y-69993675D01*
X55120407Y-69976636D01*
X55520061Y-69576984D01*
X55477845Y-69548776D01*
X55290798Y-69471298D01*
X55290794Y-69471296D01*
X55092227Y-69431800D01*
X54889773Y-69431800D01*
X54691205Y-69471296D01*
X54691201Y-69471298D01*
X54504154Y-69548775D01*
X54461937Y-69576983D01*
X54861591Y-69976637D01*
X54798007Y-69993675D01*
X54683993Y-70059501D01*
X54590901Y-70152593D01*
X54525075Y-70266607D01*
X54508037Y-70330191D01*
X54108383Y-69930537D01*
X54080175Y-69972754D01*
X54002698Y-70159801D01*
X54002696Y-70159805D01*
X53963200Y-70358372D01*
X52803900Y-70358372D01*
X52803900Y-68072428D01*
X52824465Y-68015927D01*
X52829645Y-68010273D01*
X53760873Y-67079045D01*
X53815367Y-67053634D01*
X53823028Y-67053300D01*
X54159459Y-67053300D01*
X54215960Y-67073865D01*
X54246024Y-67125936D01*
X54235583Y-67185150D01*
X54221617Y-67203350D01*
X54176228Y-67248740D01*
X54175020Y-67249948D01*
X54175019Y-67249949D01*
X54060061Y-67421998D01*
X54060059Y-67422000D01*
X54060059Y-67422002D01*
X54008798Y-67545757D01*
X53980869Y-67613183D01*
X53980867Y-67613188D01*
X53953481Y-67750875D01*
X53940500Y-67816135D01*
X53940500Y-68023065D01*
X53950319Y-68072428D01*
X53980867Y-68226011D01*
X53980869Y-68226016D01*
X53980870Y-68226020D01*
X54060059Y-68417198D01*
X54060060Y-68417200D01*
X54060061Y-68417201D01*
X54175019Y-68589250D01*
X54175020Y-68589251D01*
X54175023Y-68589255D01*
X54321345Y-68735577D01*
X54321348Y-68735579D01*
X54321349Y-68735580D01*
X54407373Y-68793059D01*
X54493402Y-68850541D01*
X54684580Y-68929730D01*
X54684585Y-68929731D01*
X54684588Y-68929732D01*
X54787432Y-68950188D01*
X54887535Y-68970100D01*
X54887537Y-68970100D01*
X55094463Y-68970100D01*
X55094465Y-68970100D01*
X55227336Y-68943670D01*
X55297411Y-68929732D01*
X55297412Y-68929731D01*
X55297420Y-68929730D01*
X55488598Y-68850541D01*
X55660655Y-68735577D01*
X55806977Y-68589255D01*
X55921941Y-68417198D01*
X56001130Y-68226020D01*
X56041500Y-68023065D01*
X56041500Y-67816135D01*
X56480500Y-67816135D01*
X56480500Y-68023065D01*
X56490319Y-68072428D01*
X56520867Y-68226011D01*
X56520869Y-68226016D01*
X56520870Y-68226020D01*
X56600059Y-68417198D01*
X56600060Y-68417200D01*
X56600061Y-68417201D01*
X56715019Y-68589250D01*
X56715020Y-68589251D01*
X56715023Y-68589255D01*
X56861345Y-68735577D01*
X56861348Y-68735579D01*
X56861349Y-68735580D01*
X56947373Y-68793059D01*
X57033402Y-68850541D01*
X57224580Y-68929730D01*
X57224585Y-68929731D01*
X57224588Y-68929732D01*
X57327432Y-68950188D01*
X57427535Y-68970100D01*
X57427537Y-68970100D01*
X57634463Y-68970100D01*
X57634465Y-68970100D01*
X57767336Y-68943670D01*
X57837411Y-68929732D01*
X57837412Y-68929731D01*
X57837420Y-68929730D01*
X58028598Y-68850541D01*
X58200655Y-68735577D01*
X58346977Y-68589255D01*
X58461941Y-68417198D01*
X58541130Y-68226020D01*
X58581500Y-68023065D01*
X58581500Y-67816135D01*
X58557380Y-67694873D01*
X58541132Y-67613188D01*
X58541131Y-67613185D01*
X58541130Y-67613180D01*
X58461941Y-67422002D01*
X58346977Y-67249945D01*
X58200655Y-67103623D01*
X58200651Y-67103620D01*
X58200650Y-67103619D01*
X58028601Y-66988661D01*
X58028600Y-66988660D01*
X58028598Y-66988659D01*
X57837420Y-66909470D01*
X57837416Y-66909469D01*
X57837411Y-66909467D01*
X57684684Y-66879089D01*
X57634465Y-66869100D01*
X57427535Y-66869100D01*
X57382844Y-66877989D01*
X57224588Y-66909467D01*
X57224583Y-66909469D01*
X57224581Y-66909469D01*
X57224580Y-66909470D01*
X57033402Y-66988659D01*
X57033400Y-66988659D01*
X57033398Y-66988661D01*
X56861349Y-67103619D01*
X56715019Y-67249949D01*
X56600061Y-67421998D01*
X56600059Y-67422000D01*
X56600059Y-67422002D01*
X56548798Y-67545757D01*
X56520869Y-67613183D01*
X56520867Y-67613188D01*
X56493481Y-67750875D01*
X56480500Y-67816135D01*
X56041500Y-67816135D01*
X56017380Y-67694873D01*
X56001132Y-67613188D01*
X56001131Y-67613185D01*
X56001130Y-67613180D01*
X55921941Y-67422002D01*
X55806977Y-67249945D01*
X55760385Y-67203353D01*
X55734975Y-67148861D01*
X55750538Y-67090783D01*
X55799791Y-67056295D01*
X55822541Y-67053300D01*
X56202454Y-67053300D01*
X56202470Y-67053301D01*
X56207852Y-67053301D01*
X56314148Y-67053301D01*
X56395120Y-67031603D01*
X56395125Y-67031603D01*
X56395125Y-67031602D01*
X56403065Y-67029474D01*
X56416823Y-67025789D01*
X56508878Y-66972641D01*
X56584041Y-66897478D01*
X56584041Y-66897476D01*
X56591273Y-66890245D01*
X56591277Y-66890240D01*
X57089152Y-66392364D01*
X57143645Y-66366954D01*
X57184944Y-66373311D01*
X57224580Y-66389730D01*
X57224584Y-66389730D01*
X57224588Y-66389732D01*
X57327432Y-66410188D01*
X57427535Y-66430100D01*
X57427537Y-66430100D01*
X57634463Y-66430100D01*
X57634465Y-66430100D01*
X57777132Y-66401722D01*
X57837411Y-66389732D01*
X57837412Y-66389731D01*
X57837420Y-66389730D01*
X58028598Y-66310541D01*
X58200655Y-66195577D01*
X58346977Y-66049255D01*
X58461941Y-65877198D01*
X58541130Y-65686020D01*
X58581500Y-65483065D01*
X58581500Y-65276135D01*
X58541130Y-65073180D01*
X58461941Y-64882002D01*
X58377122Y-64755060D01*
X58346980Y-64709949D01*
X58346979Y-64709948D01*
X58346977Y-64709945D01*
X58200655Y-64563623D01*
X58200651Y-64563620D01*
X58200650Y-64563619D01*
X58028601Y-64448661D01*
X58028600Y-64448660D01*
X58028598Y-64448659D01*
X57837420Y-64369470D01*
X57837416Y-64369469D01*
X57837411Y-64369467D01*
X57684684Y-64339089D01*
X57634465Y-64329100D01*
X57427535Y-64329100D01*
X57382844Y-64337989D01*
X57224588Y-64369467D01*
X57224583Y-64369469D01*
X57224581Y-64369469D01*
X57224580Y-64369470D01*
X57033402Y-64448659D01*
X57033400Y-64448659D01*
X57033398Y-64448661D01*
X56861349Y-64563619D01*
X56715019Y-64709949D01*
X56600061Y-64881998D01*
X56520869Y-65073183D01*
X56520867Y-65073188D01*
X56485494Y-65251025D01*
X56481348Y-65271875D01*
X56480500Y-65276136D01*
X56480500Y-65483063D01*
X56520867Y-65686011D01*
X56520871Y-65686023D01*
X56537287Y-65725655D01*
X56539910Y-65785724D01*
X56518233Y-65821447D01*
X56119527Y-66220155D01*
X56065033Y-66245565D01*
X56057372Y-66245900D01*
X55822541Y-66245900D01*
X55766040Y-66225335D01*
X55735976Y-66173264D01*
X55746417Y-66114050D01*
X55760382Y-66095849D01*
X55806977Y-66049255D01*
X55921941Y-65877198D01*
X56001130Y-65686020D01*
X56041500Y-65483065D01*
X56041500Y-65276135D01*
X56001130Y-65073180D01*
X55921941Y-64882002D01*
X55837122Y-64755060D01*
X55806980Y-64709949D01*
X55806979Y-64709948D01*
X55806977Y-64709945D01*
X55760385Y-64663353D01*
X55734975Y-64608861D01*
X55750538Y-64550783D01*
X55799791Y-64516295D01*
X55822541Y-64513300D01*
X56202454Y-64513300D01*
X56202470Y-64513301D01*
X56207852Y-64513301D01*
X56314148Y-64513301D01*
X56395120Y-64491603D01*
X56395125Y-64491603D01*
X56395125Y-64491602D01*
X56403065Y-64489474D01*
X56416823Y-64485789D01*
X56508878Y-64432641D01*
X56584041Y-64357478D01*
X56584041Y-64357476D01*
X56591273Y-64350245D01*
X56591277Y-64350240D01*
X57089152Y-63852364D01*
X57143645Y-63826954D01*
X57184944Y-63833311D01*
X57224580Y-63849730D01*
X57224584Y-63849730D01*
X57224588Y-63849732D01*
X57327432Y-63870188D01*
X57427535Y-63890100D01*
X57427537Y-63890100D01*
X57634463Y-63890100D01*
X57634465Y-63890100D01*
X57777137Y-63861721D01*
X57837411Y-63849732D01*
X57837412Y-63849731D01*
X57837420Y-63849730D01*
X58028598Y-63770541D01*
X58200655Y-63655577D01*
X58346977Y-63509255D01*
X58461941Y-63337198D01*
X58541130Y-63146020D01*
X58581500Y-62943065D01*
X58581500Y-62736135D01*
X58541130Y-62533180D01*
X58461941Y-62342002D01*
X58346977Y-62169945D01*
X58200655Y-62023623D01*
X58200651Y-62023620D01*
X58200650Y-62023619D01*
X58028601Y-61908661D01*
X58028600Y-61908660D01*
X58028598Y-61908659D01*
X57837420Y-61829470D01*
X57837416Y-61829469D01*
X57837411Y-61829467D01*
X57684684Y-61799089D01*
X57634465Y-61789100D01*
X57427535Y-61789100D01*
X57382844Y-61797989D01*
X57224588Y-61829467D01*
X57224583Y-61829469D01*
X57224581Y-61829469D01*
X57224580Y-61829470D01*
X57033402Y-61908659D01*
X57033400Y-61908659D01*
X57033398Y-61908661D01*
X56861349Y-62023619D01*
X56715019Y-62169949D01*
X56600061Y-62341998D01*
X56520869Y-62533183D01*
X56520867Y-62533188D01*
X56480500Y-62736136D01*
X56480500Y-62943063D01*
X56520867Y-63146011D01*
X56520871Y-63146023D01*
X56537287Y-63185655D01*
X56539910Y-63245724D01*
X56518233Y-63281447D01*
X56119527Y-63680155D01*
X56065033Y-63705565D01*
X56057372Y-63705900D01*
X55822541Y-63705900D01*
X55766040Y-63685335D01*
X55735976Y-63633264D01*
X55746417Y-63574050D01*
X55760382Y-63555849D01*
X55806977Y-63509255D01*
X55921941Y-63337198D01*
X56001130Y-63146020D01*
X56041500Y-62943065D01*
X56041500Y-62736135D01*
X56001130Y-62533180D01*
X55921941Y-62342002D01*
X55806977Y-62169945D01*
X55660655Y-62023623D01*
X55660651Y-62023620D01*
X55660650Y-62023619D01*
X55488601Y-61908661D01*
X55488600Y-61908660D01*
X55488598Y-61908659D01*
X55297420Y-61829470D01*
X55297416Y-61829469D01*
X55297411Y-61829467D01*
X55144684Y-61799089D01*
X55094465Y-61789100D01*
X54887535Y-61789100D01*
X54842844Y-61797989D01*
X54684588Y-61829467D01*
X54684583Y-61829469D01*
X54684581Y-61829469D01*
X54684580Y-61829470D01*
X54493402Y-61908659D01*
X54493400Y-61908659D01*
X54493398Y-61908661D01*
X54321349Y-62023619D01*
X54175019Y-62169949D01*
X54060061Y-62341998D01*
X53980869Y-62533183D01*
X53980867Y-62533188D01*
X53940500Y-62736136D01*
X53940500Y-62943063D01*
X53980867Y-63146011D01*
X53980869Y-63146016D01*
X53980870Y-63146020D01*
X54060059Y-63337198D01*
X54060060Y-63337200D01*
X54060061Y-63337201D01*
X54175019Y-63509250D01*
X54175020Y-63509251D01*
X54175023Y-63509255D01*
X54221614Y-63555846D01*
X54247025Y-63610339D01*
X54231462Y-63668417D01*
X54182209Y-63702905D01*
X54159459Y-63705900D01*
X53627147Y-63705900D01*
X53627131Y-63705899D01*
X53621749Y-63705899D01*
X53515452Y-63705899D01*
X53412778Y-63733409D01*
X53388112Y-63747650D01*
X53373871Y-63755873D01*
X53360583Y-63763544D01*
X53320725Y-63786556D01*
X53320720Y-63786559D01*
X53245558Y-63861721D01*
X53245559Y-63861722D01*
X50578560Y-66528720D01*
X50525411Y-66620777D01*
X50525411Y-66620778D01*
X50497899Y-66723452D01*
X50497899Y-66836827D01*
X50497900Y-66836840D01*
X50497900Y-78280971D01*
X50477335Y-78337472D01*
X50472155Y-78343126D01*
X49960026Y-78855255D01*
X49905532Y-78880666D01*
X49897871Y-78881000D01*
X49796673Y-78881000D01*
X49769150Y-78886474D01*
X49672063Y-78905785D01*
X49672059Y-78905787D01*
X49554680Y-78954406D01*
X49449038Y-79024994D01*
X49359194Y-79114838D01*
X49288606Y-79220480D01*
X49239987Y-79337859D01*
X49239985Y-79337863D01*
X49215200Y-79462474D01*
X47283500Y-79462474D01*
X47283500Y-68135474D01*
X48453200Y-68135474D01*
X48453200Y-68262525D01*
X48477985Y-68387136D01*
X48477987Y-68387140D01*
X48526606Y-68504519D01*
X48526607Y-68504521D01*
X48526608Y-68504522D01*
X48597196Y-68610164D01*
X48687036Y-68700004D01*
X48792678Y-68770592D01*
X48910060Y-68819213D01*
X48910061Y-68819213D01*
X48910063Y-68819214D01*
X48972792Y-68831691D01*
X49034673Y-68844000D01*
X49034675Y-68844000D01*
X49161725Y-68844000D01*
X49161727Y-68844000D01*
X49254200Y-68825606D01*
X49286336Y-68819214D01*
X49286336Y-68819213D01*
X49286340Y-68819213D01*
X49403722Y-68770592D01*
X49509364Y-68700004D01*
X49599204Y-68610164D01*
X49669792Y-68504522D01*
X49718413Y-68387140D01*
X49743200Y-68262527D01*
X49743200Y-68135473D01*
X49730660Y-68072428D01*
X49718414Y-68010863D01*
X49718413Y-68010861D01*
X49718413Y-68010860D01*
X49669792Y-67893478D01*
X49599204Y-67787836D01*
X49599202Y-67787833D01*
X49598048Y-67786427D01*
X49597801Y-67785736D01*
X49596805Y-67784246D01*
X49597178Y-67783996D01*
X49578100Y-67730669D01*
X49578100Y-64791470D01*
X49598665Y-64734969D01*
X49603845Y-64729315D01*
X53550715Y-60782445D01*
X53605209Y-60757034D01*
X53612870Y-60756700D01*
X53986016Y-60756700D01*
X54042517Y-60777265D01*
X54059102Y-60795766D01*
X54175019Y-60969250D01*
X54175020Y-60969251D01*
X54175023Y-60969255D01*
X54321345Y-61115577D01*
X54493402Y-61230541D01*
X54684580Y-61309730D01*
X54684585Y-61309731D01*
X54684588Y-61309732D01*
X54787432Y-61330188D01*
X54887535Y-61350100D01*
X54887537Y-61350100D01*
X55094463Y-61350100D01*
X55094465Y-61350100D01*
X55227336Y-61323670D01*
X55297411Y-61309732D01*
X55297412Y-61309731D01*
X55297420Y-61309730D01*
X55488598Y-61230541D01*
X55660655Y-61115577D01*
X55806977Y-60969255D01*
X55921941Y-60797198D01*
X56001130Y-60606020D01*
X56041500Y-60403065D01*
X56041500Y-60196136D01*
X56480500Y-60196136D01*
X56480500Y-60403063D01*
X56520867Y-60606011D01*
X56520869Y-60606016D01*
X56520870Y-60606020D01*
X56600059Y-60797198D01*
X56600060Y-60797200D01*
X56600061Y-60797201D01*
X56715019Y-60969250D01*
X56715020Y-60969251D01*
X56715023Y-60969255D01*
X56861345Y-61115577D01*
X57033402Y-61230541D01*
X57224580Y-61309730D01*
X57224585Y-61309731D01*
X57224588Y-61309732D01*
X57327432Y-61330188D01*
X57427535Y-61350100D01*
X57427537Y-61350100D01*
X57634463Y-61350100D01*
X57634465Y-61350100D01*
X57767336Y-61323670D01*
X57837411Y-61309732D01*
X57837412Y-61309731D01*
X57837420Y-61309730D01*
X58028598Y-61230541D01*
X58200655Y-61115577D01*
X58346977Y-60969255D01*
X58461941Y-60797198D01*
X58541130Y-60606020D01*
X58581500Y-60403065D01*
X58581500Y-60196135D01*
X58557380Y-60074873D01*
X58541132Y-59993188D01*
X58541131Y-59993185D01*
X58541130Y-59993180D01*
X58461941Y-59802002D01*
X58346977Y-59629945D01*
X58200655Y-59483623D01*
X58200651Y-59483620D01*
X58200650Y-59483619D01*
X58028601Y-59368661D01*
X58028600Y-59368660D01*
X58028598Y-59368659D01*
X57837420Y-59289470D01*
X57837416Y-59289469D01*
X57837411Y-59289467D01*
X57684684Y-59259089D01*
X57634465Y-59249100D01*
X57427535Y-59249100D01*
X57382844Y-59257989D01*
X57224588Y-59289467D01*
X57224583Y-59289469D01*
X57224581Y-59289469D01*
X57224580Y-59289470D01*
X57033402Y-59368659D01*
X57033400Y-59368659D01*
X57033398Y-59368661D01*
X56861349Y-59483619D01*
X56715019Y-59629949D01*
X56600061Y-59801998D01*
X56520869Y-59993183D01*
X56520867Y-59993188D01*
X56480500Y-60196136D01*
X56041500Y-60196136D01*
X56041500Y-60196135D01*
X56017380Y-60074873D01*
X56001132Y-59993188D01*
X56001131Y-59993185D01*
X56001130Y-59993180D01*
X55921941Y-59802002D01*
X55806977Y-59629945D01*
X55660655Y-59483623D01*
X55660651Y-59483620D01*
X55660650Y-59483619D01*
X55488601Y-59368661D01*
X55488600Y-59368660D01*
X55488598Y-59368659D01*
X55297420Y-59289470D01*
X55297416Y-59289469D01*
X55297411Y-59289467D01*
X55144684Y-59259089D01*
X55094465Y-59249100D01*
X54887535Y-59249100D01*
X54842844Y-59257989D01*
X54684588Y-59289467D01*
X54684583Y-59289469D01*
X54684581Y-59289469D01*
X54684580Y-59289470D01*
X54493402Y-59368659D01*
X54493400Y-59368659D01*
X54493398Y-59368661D01*
X54321349Y-59483619D01*
X54175019Y-59629949D01*
X54057660Y-59805592D01*
X54056485Y-59804807D01*
X54015698Y-59841371D01*
X53982948Y-59847700D01*
X53453434Y-59847700D01*
X53453418Y-59847699D01*
X53448036Y-59847699D01*
X53328364Y-59847699D01*
X53237199Y-59872125D01*
X53237200Y-59872126D01*
X53212769Y-59878673D01*
X53212768Y-59878673D01*
X53109128Y-59938510D01*
X48759910Y-64287728D01*
X48700073Y-64391369D01*
X48700073Y-64391370D01*
X48669099Y-64506964D01*
X48669099Y-64633715D01*
X48669100Y-64633728D01*
X48669100Y-67679522D01*
X48648535Y-67736023D01*
X48643355Y-67741676D01*
X48597195Y-67787836D01*
X48526606Y-67893480D01*
X48477987Y-68010859D01*
X48477985Y-68010863D01*
X48453200Y-68135474D01*
X47283500Y-68135474D01*
X47283500Y-59241080D01*
X47304065Y-59184579D01*
X47309234Y-59178936D01*
X47841578Y-58646591D01*
X47854888Y-58635668D01*
X47924243Y-58589328D01*
X48857436Y-57656135D01*
X53940500Y-57656135D01*
X53940500Y-57863065D01*
X53946399Y-57892722D01*
X53980867Y-58066011D01*
X53980869Y-58066016D01*
X53980870Y-58066020D01*
X54060059Y-58257198D01*
X54060060Y-58257200D01*
X54060061Y-58257201D01*
X54175019Y-58429250D01*
X54175020Y-58429251D01*
X54175023Y-58429255D01*
X54321345Y-58575577D01*
X54321348Y-58575579D01*
X54321349Y-58575580D01*
X54321379Y-58575600D01*
X54493402Y-58690541D01*
X54684580Y-58769730D01*
X54684585Y-58769731D01*
X54684588Y-58769732D01*
X54787432Y-58790188D01*
X54887535Y-58810100D01*
X54887537Y-58810100D01*
X55094463Y-58810100D01*
X55094465Y-58810100D01*
X55227336Y-58783670D01*
X55297411Y-58769732D01*
X55297412Y-58769731D01*
X55297420Y-58769730D01*
X55488598Y-58690541D01*
X55660655Y-58575577D01*
X55806977Y-58429255D01*
X55921941Y-58257198D01*
X56001130Y-58066020D01*
X56005287Y-58045124D01*
X56030809Y-57916811D01*
X56041500Y-57863065D01*
X56041500Y-57656135D01*
X56480500Y-57656135D01*
X56480500Y-57863065D01*
X56486399Y-57892722D01*
X56520867Y-58066011D01*
X56520869Y-58066016D01*
X56520870Y-58066020D01*
X56600059Y-58257198D01*
X56600060Y-58257200D01*
X56600061Y-58257201D01*
X56715019Y-58429250D01*
X56715020Y-58429251D01*
X56715023Y-58429255D01*
X56861345Y-58575577D01*
X56861348Y-58575579D01*
X56861349Y-58575580D01*
X56861379Y-58575600D01*
X57033402Y-58690541D01*
X57224580Y-58769730D01*
X57224585Y-58769731D01*
X57224588Y-58769732D01*
X57327432Y-58790188D01*
X57427535Y-58810100D01*
X57427537Y-58810100D01*
X57634463Y-58810100D01*
X57634465Y-58810100D01*
X57767336Y-58783670D01*
X57837411Y-58769732D01*
X57837412Y-58769731D01*
X57837420Y-58769730D01*
X58028598Y-58690541D01*
X58200655Y-58575577D01*
X58346977Y-58429255D01*
X58461941Y-58257198D01*
X58541130Y-58066020D01*
X58545287Y-58045124D01*
X58570809Y-57916811D01*
X58581500Y-57863065D01*
X58581500Y-57656135D01*
X58548190Y-57488672D01*
X58541132Y-57453188D01*
X58541131Y-57453185D01*
X58541130Y-57453180D01*
X58461941Y-57262002D01*
X58356457Y-57104133D01*
X58346980Y-57089949D01*
X58346979Y-57089948D01*
X58346977Y-57089945D01*
X58200655Y-56943623D01*
X58200651Y-56943620D01*
X58200650Y-56943619D01*
X58028601Y-56828661D01*
X58028600Y-56828660D01*
X58028598Y-56828659D01*
X57837420Y-56749470D01*
X57837416Y-56749469D01*
X57837411Y-56749467D01*
X57684684Y-56719089D01*
X57634465Y-56709100D01*
X57427535Y-56709100D01*
X57382844Y-56717989D01*
X57224588Y-56749467D01*
X57224583Y-56749469D01*
X57224581Y-56749469D01*
X57224580Y-56749470D01*
X57033402Y-56828659D01*
X57033400Y-56828659D01*
X57033398Y-56828661D01*
X56861349Y-56943619D01*
X56715019Y-57089949D01*
X56600061Y-57261998D01*
X56600059Y-57262000D01*
X56600059Y-57262002D01*
X56527355Y-57437524D01*
X56520869Y-57453183D01*
X56520867Y-57453188D01*
X56493722Y-57589662D01*
X56480500Y-57656135D01*
X56041500Y-57656135D01*
X56008190Y-57488672D01*
X56001132Y-57453188D01*
X56001131Y-57453185D01*
X56001130Y-57453180D01*
X55921941Y-57262002D01*
X55816457Y-57104133D01*
X55806980Y-57089949D01*
X55806979Y-57089948D01*
X55806977Y-57089945D01*
X55660655Y-56943623D01*
X55660651Y-56943620D01*
X55660650Y-56943619D01*
X55488601Y-56828661D01*
X55488600Y-56828660D01*
X55488598Y-56828659D01*
X55297420Y-56749470D01*
X55297416Y-56749469D01*
X55297411Y-56749467D01*
X55144684Y-56719089D01*
X55094465Y-56709100D01*
X54887535Y-56709100D01*
X54842844Y-56717989D01*
X54684588Y-56749467D01*
X54684583Y-56749469D01*
X54684581Y-56749469D01*
X54684580Y-56749470D01*
X54493402Y-56828659D01*
X54493400Y-56828659D01*
X54493398Y-56828661D01*
X54321349Y-56943619D01*
X54175019Y-57089949D01*
X54060061Y-57261998D01*
X54060059Y-57262000D01*
X54060059Y-57262002D01*
X53987355Y-57437524D01*
X53980869Y-57453183D01*
X53980867Y-57453188D01*
X53953722Y-57589662D01*
X53940500Y-57656135D01*
X48857436Y-57656135D01*
X51397434Y-55116136D01*
X53940500Y-55116136D01*
X53940500Y-55323063D01*
X53980867Y-55526011D01*
X53980869Y-55526016D01*
X53980870Y-55526020D01*
X54060059Y-55717198D01*
X54060060Y-55717200D01*
X54060061Y-55717201D01*
X54175019Y-55889250D01*
X54175020Y-55889251D01*
X54175023Y-55889255D01*
X54321345Y-56035577D01*
X54321348Y-56035579D01*
X54321349Y-56035580D01*
X54339144Y-56047470D01*
X54493402Y-56150541D01*
X54684580Y-56229730D01*
X54684585Y-56229731D01*
X54684588Y-56229732D01*
X54787432Y-56250188D01*
X54887535Y-56270100D01*
X54887537Y-56270100D01*
X55094463Y-56270100D01*
X55094465Y-56270100D01*
X55227336Y-56243670D01*
X55297411Y-56229732D01*
X55297412Y-56229731D01*
X55297420Y-56229730D01*
X55488598Y-56150541D01*
X55660655Y-56035577D01*
X55806977Y-55889255D01*
X55921941Y-55717198D01*
X56001130Y-55526020D01*
X56011089Y-55475955D01*
X56015070Y-55455936D01*
X56041500Y-55323065D01*
X56041500Y-55116136D01*
X56480500Y-55116136D01*
X56480500Y-55323063D01*
X56520867Y-55526011D01*
X56520869Y-55526016D01*
X56520870Y-55526020D01*
X56600059Y-55717198D01*
X56600060Y-55717200D01*
X56600061Y-55717201D01*
X56715019Y-55889250D01*
X56715020Y-55889251D01*
X56715023Y-55889255D01*
X56861345Y-56035577D01*
X56861348Y-56035579D01*
X56861349Y-56035580D01*
X56879144Y-56047470D01*
X57033402Y-56150541D01*
X57224580Y-56229730D01*
X57224585Y-56229731D01*
X57224588Y-56229732D01*
X57327432Y-56250188D01*
X57427535Y-56270100D01*
X57427537Y-56270100D01*
X57634463Y-56270100D01*
X57634465Y-56270100D01*
X57767336Y-56243670D01*
X57837411Y-56229732D01*
X57837412Y-56229731D01*
X57837420Y-56229730D01*
X58028598Y-56150541D01*
X58200655Y-56035577D01*
X58346977Y-55889255D01*
X58461941Y-55717198D01*
X58541130Y-55526020D01*
X58551089Y-55475955D01*
X58555070Y-55455936D01*
X58581500Y-55323065D01*
X58581500Y-55116135D01*
X58556185Y-54988866D01*
X58541132Y-54913188D01*
X58541131Y-54913185D01*
X58541130Y-54913180D01*
X58461941Y-54722002D01*
X58347501Y-54550729D01*
X58346980Y-54549949D01*
X58346979Y-54549948D01*
X58346977Y-54549945D01*
X58200655Y-54403623D01*
X58200651Y-54403620D01*
X58200650Y-54403619D01*
X58028601Y-54288661D01*
X58028600Y-54288660D01*
X58028598Y-54288659D01*
X57837420Y-54209470D01*
X57837416Y-54209469D01*
X57837411Y-54209467D01*
X57684684Y-54179089D01*
X57634465Y-54169100D01*
X57427535Y-54169100D01*
X57382844Y-54177989D01*
X57224588Y-54209467D01*
X57224583Y-54209469D01*
X57224581Y-54209469D01*
X57224580Y-54209470D01*
X57033402Y-54288659D01*
X57033400Y-54288659D01*
X57033398Y-54288661D01*
X56861349Y-54403619D01*
X56715019Y-54549949D01*
X56600061Y-54721998D01*
X56600059Y-54722000D01*
X56600059Y-54722002D01*
X56535346Y-54878232D01*
X56520869Y-54913183D01*
X56520867Y-54913188D01*
X56480500Y-55116136D01*
X56041500Y-55116136D01*
X56041500Y-55116135D01*
X56016185Y-54988866D01*
X56001132Y-54913188D01*
X56001131Y-54913185D01*
X56001130Y-54913180D01*
X55921941Y-54722002D01*
X55807501Y-54550729D01*
X55806980Y-54549949D01*
X55806979Y-54549948D01*
X55806977Y-54549945D01*
X55660655Y-54403623D01*
X55660651Y-54403620D01*
X55660650Y-54403619D01*
X55488601Y-54288661D01*
X55488600Y-54288660D01*
X55488598Y-54288659D01*
X55297420Y-54209470D01*
X55297416Y-54209469D01*
X55297411Y-54209467D01*
X55144684Y-54179089D01*
X55094465Y-54169100D01*
X54887535Y-54169100D01*
X54842844Y-54177989D01*
X54684588Y-54209467D01*
X54684583Y-54209469D01*
X54684581Y-54209469D01*
X54684580Y-54209470D01*
X54493402Y-54288659D01*
X54493400Y-54288659D01*
X54493398Y-54288661D01*
X54321349Y-54403619D01*
X54175019Y-54549949D01*
X54060061Y-54721998D01*
X54060059Y-54722000D01*
X54060059Y-54722002D01*
X53995346Y-54878232D01*
X53980869Y-54913183D01*
X53980867Y-54913188D01*
X53940500Y-55116136D01*
X51397434Y-55116136D01*
X52010728Y-54502842D01*
X52088265Y-54386801D01*
X52128916Y-54288659D01*
X52141673Y-54257862D01*
X52141730Y-54257578D01*
X52168900Y-54120979D01*
X52168900Y-52576136D01*
X53940500Y-52576136D01*
X53940500Y-52783063D01*
X53980867Y-52986011D01*
X53980869Y-52986016D01*
X53980870Y-52986020D01*
X54060059Y-53177198D01*
X54060060Y-53177200D01*
X54060061Y-53177201D01*
X54175019Y-53349250D01*
X54175020Y-53349251D01*
X54175023Y-53349255D01*
X54321345Y-53495577D01*
X54321348Y-53495579D01*
X54321349Y-53495580D01*
X54407373Y-53553059D01*
X54493402Y-53610541D01*
X54684580Y-53689730D01*
X54684585Y-53689731D01*
X54684588Y-53689732D01*
X54787432Y-53710188D01*
X54887535Y-53730100D01*
X54887537Y-53730100D01*
X55094463Y-53730100D01*
X55094465Y-53730100D01*
X55227336Y-53703670D01*
X55297411Y-53689732D01*
X55297412Y-53689731D01*
X55297420Y-53689730D01*
X55488598Y-53610541D01*
X55660655Y-53495577D01*
X55806977Y-53349255D01*
X55921941Y-53177198D01*
X56001130Y-52986020D01*
X56041500Y-52783065D01*
X56041500Y-52576136D01*
X56480500Y-52576136D01*
X56480500Y-52783063D01*
X56520867Y-52986011D01*
X56520869Y-52986016D01*
X56520870Y-52986020D01*
X56600059Y-53177198D01*
X56600060Y-53177200D01*
X56600061Y-53177201D01*
X56715019Y-53349250D01*
X56715020Y-53349251D01*
X56715023Y-53349255D01*
X56861345Y-53495577D01*
X56861348Y-53495579D01*
X56861349Y-53495580D01*
X56947373Y-53553059D01*
X57033402Y-53610541D01*
X57224580Y-53689730D01*
X57224585Y-53689731D01*
X57224588Y-53689732D01*
X57327432Y-53710188D01*
X57427535Y-53730100D01*
X57427537Y-53730100D01*
X57634463Y-53730100D01*
X57634465Y-53730100D01*
X57767336Y-53703670D01*
X57837411Y-53689732D01*
X57837412Y-53689731D01*
X57837420Y-53689730D01*
X58028598Y-53610541D01*
X58200655Y-53495577D01*
X58346977Y-53349255D01*
X58461941Y-53177198D01*
X58541130Y-52986020D01*
X58581500Y-52783065D01*
X58581500Y-52576135D01*
X58552725Y-52431470D01*
X58541132Y-52373188D01*
X58541131Y-52373185D01*
X58541130Y-52373180D01*
X58461941Y-52182002D01*
X58346977Y-52009945D01*
X58200655Y-51863623D01*
X58200651Y-51863620D01*
X58200650Y-51863619D01*
X58028601Y-51748661D01*
X58028600Y-51748660D01*
X58028598Y-51748659D01*
X57837420Y-51669470D01*
X57837416Y-51669469D01*
X57837411Y-51669467D01*
X57684684Y-51639089D01*
X57634465Y-51629100D01*
X57427535Y-51629100D01*
X57382844Y-51637989D01*
X57224588Y-51669467D01*
X57224583Y-51669469D01*
X57224581Y-51669469D01*
X57224580Y-51669470D01*
X57033402Y-51748659D01*
X57033400Y-51748659D01*
X57033398Y-51748661D01*
X56861349Y-51863619D01*
X56715019Y-52009949D01*
X56600061Y-52181998D01*
X56600059Y-52182000D01*
X56600059Y-52182002D01*
X56520870Y-52373180D01*
X56520869Y-52373183D01*
X56520867Y-52373188D01*
X56480500Y-52576136D01*
X56041500Y-52576136D01*
X56041500Y-52576135D01*
X56012725Y-52431470D01*
X56001132Y-52373188D01*
X56001131Y-52373185D01*
X56001130Y-52373180D01*
X55921941Y-52182002D01*
X55806977Y-52009945D01*
X55660655Y-51863623D01*
X55660651Y-51863620D01*
X55660650Y-51863619D01*
X55488601Y-51748661D01*
X55488600Y-51748660D01*
X55488598Y-51748659D01*
X55297420Y-51669470D01*
X55297416Y-51669469D01*
X55297411Y-51669467D01*
X55144684Y-51639089D01*
X55094465Y-51629100D01*
X54887535Y-51629100D01*
X54842844Y-51637989D01*
X54684588Y-51669467D01*
X54684583Y-51669469D01*
X54684581Y-51669469D01*
X54684580Y-51669470D01*
X54493402Y-51748659D01*
X54493400Y-51748659D01*
X54493398Y-51748661D01*
X54321349Y-51863619D01*
X54175019Y-52009949D01*
X54060061Y-52181998D01*
X54060059Y-52182000D01*
X54060059Y-52182002D01*
X53980870Y-52373180D01*
X53980869Y-52373183D01*
X53980867Y-52373188D01*
X53940500Y-52576136D01*
X52168900Y-52576136D01*
X52168900Y-50036135D01*
X53940500Y-50036135D01*
X53940500Y-50243065D01*
X53950489Y-50293284D01*
X53980867Y-50446011D01*
X53980869Y-50446016D01*
X53980870Y-50446020D01*
X54060059Y-50637198D01*
X54060060Y-50637200D01*
X54060061Y-50637201D01*
X54175019Y-50809250D01*
X54175020Y-50809251D01*
X54175023Y-50809255D01*
X54321345Y-50955577D01*
X54321348Y-50955579D01*
X54321349Y-50955580D01*
X54396143Y-51005555D01*
X54493402Y-51070541D01*
X54684580Y-51149730D01*
X54684585Y-51149731D01*
X54684588Y-51149732D01*
X54787432Y-51170188D01*
X54887535Y-51190100D01*
X54887537Y-51190100D01*
X55094463Y-51190100D01*
X55094465Y-51190100D01*
X55227336Y-51163670D01*
X55297411Y-51149732D01*
X55297412Y-51149731D01*
X55297420Y-51149730D01*
X55488598Y-51070541D01*
X55660655Y-50955577D01*
X55806977Y-50809255D01*
X55921941Y-50637198D01*
X56001130Y-50446020D01*
X56006196Y-50420554D01*
X56031021Y-50295746D01*
X56041500Y-50243065D01*
X56041500Y-50036135D01*
X56480500Y-50036135D01*
X56480500Y-50243065D01*
X56490489Y-50293284D01*
X56520867Y-50446011D01*
X56520869Y-50446016D01*
X56520870Y-50446020D01*
X56600059Y-50637198D01*
X56600060Y-50637200D01*
X56600061Y-50637201D01*
X56715019Y-50809250D01*
X56715020Y-50809251D01*
X56715023Y-50809255D01*
X56861345Y-50955577D01*
X56861348Y-50955579D01*
X56861349Y-50955580D01*
X56936143Y-51005555D01*
X57033402Y-51070541D01*
X57224580Y-51149730D01*
X57224585Y-51149731D01*
X57224588Y-51149732D01*
X57327432Y-51170188D01*
X57427535Y-51190100D01*
X57427537Y-51190100D01*
X57634463Y-51190100D01*
X57634465Y-51190100D01*
X57767336Y-51163670D01*
X57837411Y-51149732D01*
X57837412Y-51149731D01*
X57837420Y-51149730D01*
X58028598Y-51070541D01*
X58200655Y-50955577D01*
X58346977Y-50809255D01*
X58461941Y-50637198D01*
X58541130Y-50446020D01*
X58546196Y-50420554D01*
X58571021Y-50295746D01*
X58581500Y-50243065D01*
X58581500Y-50036135D01*
X58552725Y-49891470D01*
X58541132Y-49833188D01*
X58541131Y-49833185D01*
X58541130Y-49833180D01*
X58461941Y-49642002D01*
X58346977Y-49469945D01*
X58200655Y-49323623D01*
X58200651Y-49323620D01*
X58200650Y-49323619D01*
X58028601Y-49208661D01*
X58028600Y-49208660D01*
X58028598Y-49208659D01*
X57837420Y-49129470D01*
X57837416Y-49129469D01*
X57837411Y-49129467D01*
X57684684Y-49099089D01*
X57634465Y-49089100D01*
X57427535Y-49089100D01*
X57382844Y-49097989D01*
X57224588Y-49129467D01*
X57224583Y-49129469D01*
X57224581Y-49129469D01*
X57224580Y-49129470D01*
X57033402Y-49208659D01*
X57033400Y-49208659D01*
X57033398Y-49208661D01*
X56861349Y-49323619D01*
X56715019Y-49469949D01*
X56600061Y-49641998D01*
X56600059Y-49642000D01*
X56600059Y-49642002D01*
X56520870Y-49833180D01*
X56520869Y-49833183D01*
X56520867Y-49833188D01*
X56485494Y-50011025D01*
X56480500Y-50036135D01*
X56041500Y-50036135D01*
X56012725Y-49891470D01*
X56001132Y-49833188D01*
X56001131Y-49833185D01*
X56001130Y-49833180D01*
X55921941Y-49642002D01*
X55806977Y-49469945D01*
X55660655Y-49323623D01*
X55660651Y-49323620D01*
X55660650Y-49323619D01*
X55488601Y-49208661D01*
X55488600Y-49208660D01*
X55488598Y-49208659D01*
X55297420Y-49129470D01*
X55297416Y-49129469D01*
X55297411Y-49129467D01*
X55144684Y-49099089D01*
X55094465Y-49089100D01*
X54887535Y-49089100D01*
X54842844Y-49097989D01*
X54684588Y-49129467D01*
X54684583Y-49129469D01*
X54684581Y-49129469D01*
X54684580Y-49129470D01*
X54493402Y-49208659D01*
X54493400Y-49208659D01*
X54493398Y-49208661D01*
X54321349Y-49323619D01*
X54175019Y-49469949D01*
X54060061Y-49641998D01*
X54060059Y-49642000D01*
X54060059Y-49642002D01*
X53980870Y-49833180D01*
X53980869Y-49833183D01*
X53980867Y-49833188D01*
X53945494Y-50011025D01*
X53940500Y-50036135D01*
X52168900Y-50036135D01*
X52168900Y-47496136D01*
X53940500Y-47496136D01*
X53940500Y-47703063D01*
X53980867Y-47906011D01*
X53980869Y-47906016D01*
X53980870Y-47906020D01*
X54060059Y-48097198D01*
X54060060Y-48097200D01*
X54060061Y-48097201D01*
X54175019Y-48269250D01*
X54175020Y-48269251D01*
X54175023Y-48269255D01*
X54321345Y-48415577D01*
X54321348Y-48415579D01*
X54321349Y-48415580D01*
X54407373Y-48473059D01*
X54493402Y-48530541D01*
X54684580Y-48609730D01*
X54684585Y-48609731D01*
X54684588Y-48609732D01*
X54787432Y-48630188D01*
X54887535Y-48650100D01*
X54887537Y-48650100D01*
X55094463Y-48650100D01*
X55094465Y-48650100D01*
X55227336Y-48623670D01*
X55297411Y-48609732D01*
X55297412Y-48609731D01*
X55297420Y-48609730D01*
X55488598Y-48530541D01*
X55660655Y-48415577D01*
X55806977Y-48269255D01*
X55921941Y-48097198D01*
X56001130Y-47906020D01*
X56041500Y-47703065D01*
X56041500Y-47496136D01*
X56480500Y-47496136D01*
X56480500Y-47703063D01*
X56520867Y-47906011D01*
X56520869Y-47906016D01*
X56520870Y-47906020D01*
X56600059Y-48097198D01*
X56600060Y-48097200D01*
X56600061Y-48097201D01*
X56715019Y-48269250D01*
X56715020Y-48269251D01*
X56715023Y-48269255D01*
X56861345Y-48415577D01*
X56861348Y-48415579D01*
X56861349Y-48415580D01*
X56947373Y-48473059D01*
X57033402Y-48530541D01*
X57224580Y-48609730D01*
X57224585Y-48609731D01*
X57224588Y-48609732D01*
X57327432Y-48630188D01*
X57427535Y-48650100D01*
X57427537Y-48650100D01*
X57634463Y-48650100D01*
X57634465Y-48650100D01*
X57767336Y-48623670D01*
X57837411Y-48609732D01*
X57837412Y-48609731D01*
X57837420Y-48609730D01*
X58028598Y-48530541D01*
X58200655Y-48415577D01*
X58346977Y-48269255D01*
X58461941Y-48097198D01*
X58541130Y-47906020D01*
X58581500Y-47703065D01*
X58581500Y-47496135D01*
X58552725Y-47351470D01*
X58541132Y-47293188D01*
X58541131Y-47293185D01*
X58541130Y-47293180D01*
X58461941Y-47102002D01*
X58358196Y-46946735D01*
X58346980Y-46929949D01*
X58346979Y-46929948D01*
X58346977Y-46929945D01*
X58200655Y-46783623D01*
X58200651Y-46783620D01*
X58200650Y-46783619D01*
X58028601Y-46668661D01*
X58028600Y-46668660D01*
X58028598Y-46668659D01*
X57837420Y-46589470D01*
X57837416Y-46589469D01*
X57837411Y-46589467D01*
X57684684Y-46559089D01*
X57634465Y-46549100D01*
X57427535Y-46549100D01*
X57382844Y-46557989D01*
X57224588Y-46589467D01*
X57224583Y-46589469D01*
X57224581Y-46589469D01*
X57224580Y-46589470D01*
X57033402Y-46668659D01*
X57033400Y-46668659D01*
X57033398Y-46668661D01*
X56861349Y-46783619D01*
X56715019Y-46929949D01*
X56600061Y-47101998D01*
X56600059Y-47102000D01*
X56600059Y-47102002D01*
X56520870Y-47293180D01*
X56520869Y-47293183D01*
X56520867Y-47293188D01*
X56480500Y-47496136D01*
X56041500Y-47496136D01*
X56041500Y-47496135D01*
X56012725Y-47351470D01*
X56001132Y-47293188D01*
X56001131Y-47293185D01*
X56001130Y-47293180D01*
X55921941Y-47102002D01*
X55818196Y-46946735D01*
X55806980Y-46929949D01*
X55806979Y-46929948D01*
X55806977Y-46929945D01*
X55660655Y-46783623D01*
X55660651Y-46783620D01*
X55660650Y-46783619D01*
X55488601Y-46668661D01*
X55488600Y-46668660D01*
X55488598Y-46668659D01*
X55297420Y-46589470D01*
X55297416Y-46589469D01*
X55297411Y-46589467D01*
X55144684Y-46559089D01*
X55094465Y-46549100D01*
X54887535Y-46549100D01*
X54842844Y-46557989D01*
X54684588Y-46589467D01*
X54684583Y-46589469D01*
X54684581Y-46589469D01*
X54684580Y-46589470D01*
X54493402Y-46668659D01*
X54493400Y-46668659D01*
X54493398Y-46668661D01*
X54321349Y-46783619D01*
X54175019Y-46929949D01*
X54060061Y-47101998D01*
X54060059Y-47102000D01*
X54060059Y-47102002D01*
X53980870Y-47293180D01*
X53980869Y-47293183D01*
X53980867Y-47293188D01*
X53940500Y-47496136D01*
X52168900Y-47496136D01*
X52168900Y-44956135D01*
X53940500Y-44956135D01*
X53940500Y-45163065D01*
X53945650Y-45188955D01*
X53980867Y-45366011D01*
X53980869Y-45366016D01*
X53980870Y-45366020D01*
X54060059Y-45557198D01*
X54060060Y-45557200D01*
X54060061Y-45557201D01*
X54175019Y-45729250D01*
X54175020Y-45729251D01*
X54175023Y-45729255D01*
X54321345Y-45875577D01*
X54321348Y-45875579D01*
X54321349Y-45875580D01*
X54403895Y-45930735D01*
X54493402Y-45990541D01*
X54684580Y-46069730D01*
X54684585Y-46069731D01*
X54684588Y-46069732D01*
X54787432Y-46090188D01*
X54887535Y-46110100D01*
X54887537Y-46110100D01*
X55094463Y-46110100D01*
X55094465Y-46110100D01*
X55227336Y-46083670D01*
X55297411Y-46069732D01*
X55297412Y-46069731D01*
X55297420Y-46069730D01*
X55488598Y-45990541D01*
X55660655Y-45875577D01*
X55806977Y-45729255D01*
X55921941Y-45557198D01*
X56001130Y-45366020D01*
X56041500Y-45163065D01*
X56041500Y-44956135D01*
X56480500Y-44956135D01*
X56480500Y-45163065D01*
X56485650Y-45188955D01*
X56520867Y-45366011D01*
X56520869Y-45366016D01*
X56520870Y-45366020D01*
X56600059Y-45557198D01*
X56600060Y-45557200D01*
X56600061Y-45557201D01*
X56715019Y-45729250D01*
X56715020Y-45729251D01*
X56715023Y-45729255D01*
X56861345Y-45875577D01*
X56861348Y-45875579D01*
X56861349Y-45875580D01*
X56943895Y-45930735D01*
X57033402Y-45990541D01*
X57224580Y-46069730D01*
X57224585Y-46069731D01*
X57224588Y-46069732D01*
X57327432Y-46090188D01*
X57427535Y-46110100D01*
X57427537Y-46110100D01*
X57634463Y-46110100D01*
X57634465Y-46110100D01*
X57767336Y-46083670D01*
X57837411Y-46069732D01*
X57837412Y-46069731D01*
X57837420Y-46069730D01*
X58028598Y-45990541D01*
X58200655Y-45875577D01*
X58346977Y-45729255D01*
X58461941Y-45557198D01*
X58541130Y-45366020D01*
X58581500Y-45163065D01*
X58581500Y-44956135D01*
X58558009Y-44838035D01*
X58541132Y-44753188D01*
X58541131Y-44753185D01*
X58541130Y-44753180D01*
X58461941Y-44562002D01*
X58346977Y-44389945D01*
X58200655Y-44243623D01*
X58200651Y-44243620D01*
X58200650Y-44243619D01*
X58028601Y-44128661D01*
X58028600Y-44128660D01*
X58028598Y-44128659D01*
X57837420Y-44049470D01*
X57837416Y-44049469D01*
X57837411Y-44049467D01*
X57684684Y-44019089D01*
X57634465Y-44009100D01*
X57427535Y-44009100D01*
X57382844Y-44017989D01*
X57224588Y-44049467D01*
X57224583Y-44049469D01*
X57224581Y-44049469D01*
X57224580Y-44049470D01*
X57033402Y-44128659D01*
X57033400Y-44128659D01*
X57033398Y-44128661D01*
X56861349Y-44243619D01*
X56715019Y-44389949D01*
X56600061Y-44561998D01*
X56600059Y-44562000D01*
X56600059Y-44562002D01*
X56520870Y-44753180D01*
X56520869Y-44753183D01*
X56520867Y-44753188D01*
X56485494Y-44931025D01*
X56480500Y-44956135D01*
X56041500Y-44956135D01*
X56018009Y-44838035D01*
X56001132Y-44753188D01*
X56001131Y-44753185D01*
X56001130Y-44753180D01*
X55921941Y-44562002D01*
X55806977Y-44389945D01*
X55660655Y-44243623D01*
X55660651Y-44243620D01*
X55660650Y-44243619D01*
X55488601Y-44128661D01*
X55488600Y-44128660D01*
X55488598Y-44128659D01*
X55297420Y-44049470D01*
X55297416Y-44049469D01*
X55297411Y-44049467D01*
X55144684Y-44019089D01*
X55094465Y-44009100D01*
X54887535Y-44009100D01*
X54842844Y-44017989D01*
X54684588Y-44049467D01*
X54684583Y-44049469D01*
X54684581Y-44049469D01*
X54684580Y-44049470D01*
X54493402Y-44128659D01*
X54493400Y-44128659D01*
X54493398Y-44128661D01*
X54321349Y-44243619D01*
X54175019Y-44389949D01*
X54060061Y-44561998D01*
X54060059Y-44562000D01*
X54060059Y-44562002D01*
X53980870Y-44753180D01*
X53980869Y-44753183D01*
X53980867Y-44753188D01*
X53945494Y-44931025D01*
X53940500Y-44956135D01*
X52168900Y-44956135D01*
X52168900Y-43316000D01*
X52189465Y-43259499D01*
X52241536Y-43229435D01*
X52256800Y-43228100D01*
X54177458Y-43228100D01*
X54233959Y-43248665D01*
X54239612Y-43253845D01*
X54286504Y-43300736D01*
X54321345Y-43335577D01*
X54493402Y-43450541D01*
X54684580Y-43529730D01*
X54684585Y-43529731D01*
X54684588Y-43529732D01*
X54787432Y-43550188D01*
X54887535Y-43570100D01*
X54887537Y-43570100D01*
X55094463Y-43570100D01*
X55094465Y-43570100D01*
X55227336Y-43543670D01*
X55297411Y-43529732D01*
X55297412Y-43529731D01*
X55297420Y-43529730D01*
X55488598Y-43450541D01*
X55660655Y-43335577D01*
X55806977Y-43189255D01*
X55921941Y-43017198D01*
X56001130Y-42826020D01*
X56041500Y-42623065D01*
X56041500Y-42416136D01*
X56480500Y-42416136D01*
X56480500Y-42623063D01*
X56520867Y-42826011D01*
X56520869Y-42826016D01*
X56520870Y-42826020D01*
X56600059Y-43017198D01*
X56600060Y-43017200D01*
X56600061Y-43017201D01*
X56715019Y-43189250D01*
X56715020Y-43189251D01*
X56715023Y-43189255D01*
X56861345Y-43335577D01*
X57033402Y-43450541D01*
X57224580Y-43529730D01*
X57224585Y-43529731D01*
X57224588Y-43529732D01*
X57327432Y-43550188D01*
X57427535Y-43570100D01*
X57427537Y-43570100D01*
X57634463Y-43570100D01*
X57634465Y-43570100D01*
X57767336Y-43543670D01*
X57837411Y-43529732D01*
X57837412Y-43529731D01*
X57837420Y-43529730D01*
X58028598Y-43450541D01*
X58200655Y-43335577D01*
X58346977Y-43189255D01*
X58461941Y-43017198D01*
X58541130Y-42826020D01*
X58581500Y-42623065D01*
X58581500Y-42416135D01*
X58553984Y-42277800D01*
X58541132Y-42213188D01*
X58541131Y-42213185D01*
X58541130Y-42213180D01*
X58461941Y-42022002D01*
X58346977Y-41849945D01*
X58200655Y-41703623D01*
X58200651Y-41703620D01*
X58200650Y-41703619D01*
X58028601Y-41588661D01*
X58028600Y-41588660D01*
X58028598Y-41588659D01*
X57837420Y-41509470D01*
X57837416Y-41509469D01*
X57837411Y-41509467D01*
X57684684Y-41479089D01*
X57634465Y-41469100D01*
X57427535Y-41469100D01*
X57382844Y-41477989D01*
X57224588Y-41509467D01*
X57224583Y-41509469D01*
X57224581Y-41509469D01*
X57224580Y-41509470D01*
X57033402Y-41588659D01*
X57033400Y-41588659D01*
X57033398Y-41588661D01*
X56861349Y-41703619D01*
X56715019Y-41849949D01*
X56600061Y-42021998D01*
X56600059Y-42022000D01*
X56600059Y-42022002D01*
X56541379Y-42163668D01*
X56520869Y-42213183D01*
X56520867Y-42213188D01*
X56480500Y-42416136D01*
X56041500Y-42416136D01*
X56041500Y-42416135D01*
X56013984Y-42277800D01*
X56001132Y-42213188D01*
X56001131Y-42213185D01*
X56001130Y-42213180D01*
X55921941Y-42022002D01*
X55806977Y-41849945D01*
X55660655Y-41703623D01*
X55660651Y-41703620D01*
X55660650Y-41703619D01*
X55488601Y-41588661D01*
X55488600Y-41588660D01*
X55488598Y-41588659D01*
X55297420Y-41509470D01*
X55297416Y-41509469D01*
X55297411Y-41509467D01*
X55144684Y-41479089D01*
X55094465Y-41469100D01*
X54887535Y-41469100D01*
X54842844Y-41477989D01*
X54684588Y-41509467D01*
X54684583Y-41509469D01*
X54684581Y-41509469D01*
X54684580Y-41509470D01*
X54493402Y-41588659D01*
X54493400Y-41588659D01*
X54493398Y-41588661D01*
X54321349Y-41703619D01*
X54321343Y-41703624D01*
X54239612Y-41785355D01*
X54185118Y-41810766D01*
X54177458Y-41811100D01*
X36988815Y-41811100D01*
X36920378Y-41824712D01*
X36920378Y-41824713D01*
X36886619Y-41831428D01*
X36851942Y-41838326D01*
X36851940Y-41838326D01*
X36851938Y-41838327D01*
X36851931Y-41838330D01*
X36823890Y-41849945D01*
X36823889Y-41849945D01*
X36723004Y-41891732D01*
X36723002Y-41891732D01*
X36606959Y-41969270D01*
X33514274Y-45061955D01*
X33459780Y-45087366D01*
X33452119Y-45087700D01*
X20834415Y-45087700D01*
X20765978Y-45101313D01*
X20697542Y-45114925D01*
X20697541Y-45114925D01*
X20676242Y-45123747D01*
X20659772Y-45130569D01*
X20626092Y-45144519D01*
X20568599Y-45168334D01*
X20452559Y-45245870D01*
X10222474Y-55475955D01*
X10167980Y-55501366D01*
X10160319Y-55501700D01*
X6705280Y-55501700D01*
X6648779Y-55481135D01*
X6643125Y-55475955D01*
X6169845Y-55002674D01*
X6144434Y-54948180D01*
X6144100Y-54940519D01*
X6144100Y-54753185D01*
X6164665Y-54696684D01*
X6169834Y-54691041D01*
X6232158Y-54628718D01*
X6344386Y-54460756D01*
X6421691Y-54274127D01*
X6461100Y-54076003D01*
X6461100Y-53873997D01*
X6436040Y-53748011D01*
X6421693Y-53675881D01*
X6421692Y-53675878D01*
X6421691Y-53675873D01*
X6344386Y-53489244D01*
X6250846Y-53349250D01*
X6232161Y-53321286D01*
X6232160Y-53321285D01*
X6232158Y-53321282D01*
X6169629Y-53258753D01*
X6144219Y-53204261D01*
X6159782Y-53146183D01*
X6209035Y-53111695D01*
X6231785Y-53108700D01*
X6647054Y-53108700D01*
X6647070Y-53108701D01*
X6652452Y-53108701D01*
X6758747Y-53108701D01*
X6758748Y-53108701D01*
X6839451Y-53087076D01*
X6899347Y-53092316D01*
X6941864Y-53134832D01*
X6950100Y-53171981D01*
X6950100Y-54819748D01*
X6957855Y-54858736D01*
X6961733Y-54878232D01*
X7003353Y-54940519D01*
X7006048Y-54944552D01*
X7006051Y-54944554D01*
X7072367Y-54988866D01*
X7072369Y-54988867D01*
X7130852Y-55000500D01*
X7130854Y-55000500D01*
X8820346Y-55000500D01*
X8820348Y-55000500D01*
X8878831Y-54988867D01*
X8945152Y-54944552D01*
X8989467Y-54878231D01*
X9001100Y-54819748D01*
X9001100Y-54796800D01*
X9021665Y-54740299D01*
X9073736Y-54710235D01*
X9089000Y-54708900D01*
X10331380Y-54708900D01*
X10331382Y-54708900D01*
X10454582Y-54684394D01*
X10468262Y-54681673D01*
X10507524Y-54665410D01*
X10597196Y-54628267D01*
X10597197Y-54628267D01*
X10597198Y-54628266D01*
X10597201Y-54628265D01*
X10713243Y-54550728D01*
X20384525Y-44879444D01*
X20439019Y-44854034D01*
X20446680Y-44853700D01*
X33089780Y-44853700D01*
X33089782Y-44853700D01*
X33173125Y-44837122D01*
X33226662Y-44826473D01*
X33287939Y-44801091D01*
X33355601Y-44773065D01*
X33471643Y-44695528D01*
X37453326Y-40713845D01*
X37507820Y-40688434D01*
X37515481Y-40688100D01*
X54177458Y-40688100D01*
X54233959Y-40708665D01*
X54239612Y-40713845D01*
X54321343Y-40795575D01*
X54321349Y-40795580D01*
X54380181Y-40834890D01*
X54493402Y-40910541D01*
X54684580Y-40989730D01*
X54684585Y-40989731D01*
X54684588Y-40989732D01*
X54787432Y-41010188D01*
X54887535Y-41030100D01*
X54887537Y-41030100D01*
X55094463Y-41030100D01*
X55094465Y-41030100D01*
X55227336Y-41003670D01*
X55297411Y-40989732D01*
X55297412Y-40989731D01*
X55297420Y-40989730D01*
X55488598Y-40910541D01*
X55660655Y-40795577D01*
X55806977Y-40649255D01*
X55921941Y-40477198D01*
X56001130Y-40286020D01*
X56041500Y-40083065D01*
X56041500Y-39878372D01*
X56503200Y-39878372D01*
X56503200Y-40080827D01*
X56542696Y-40279394D01*
X56542698Y-40279398D01*
X56620176Y-40466445D01*
X56648383Y-40508660D01*
X57048036Y-40109006D01*
X57065075Y-40172593D01*
X57130901Y-40286607D01*
X57223993Y-40379699D01*
X57338007Y-40445525D01*
X57401589Y-40462562D01*
X57001937Y-40862215D01*
X57044152Y-40890422D01*
X57231201Y-40967901D01*
X57231205Y-40967903D01*
X57429773Y-41007400D01*
X57632227Y-41007400D01*
X57830794Y-40967903D01*
X57830798Y-40967901D01*
X58017848Y-40890422D01*
X58060061Y-40862215D01*
X57660408Y-40462562D01*
X57723993Y-40445525D01*
X57838007Y-40379699D01*
X57931099Y-40286607D01*
X57996925Y-40172593D01*
X58013962Y-40109008D01*
X58413615Y-40508661D01*
X58441822Y-40466448D01*
X58519301Y-40279398D01*
X58519303Y-40279394D01*
X58558800Y-40080827D01*
X58558800Y-39878372D01*
X58519303Y-39679805D01*
X58519301Y-39679801D01*
X58441822Y-39492752D01*
X58413615Y-39450537D01*
X58013962Y-39850189D01*
X57996925Y-39786607D01*
X57931099Y-39672593D01*
X57838007Y-39579501D01*
X57723993Y-39513675D01*
X57660407Y-39496636D01*
X58060061Y-39096984D01*
X58017845Y-39068776D01*
X57830798Y-38991298D01*
X57830794Y-38991296D01*
X57632227Y-38951800D01*
X57429773Y-38951800D01*
X57231205Y-38991296D01*
X57231201Y-38991298D01*
X57044154Y-39068775D01*
X57001937Y-39096983D01*
X57401591Y-39496637D01*
X57338007Y-39513675D01*
X57223993Y-39579501D01*
X57130901Y-39672593D01*
X57065075Y-39786607D01*
X57048037Y-39850191D01*
X56648383Y-39450537D01*
X56620175Y-39492754D01*
X56542698Y-39679801D01*
X56542696Y-39679805D01*
X56503200Y-39878372D01*
X56041500Y-39878372D01*
X56041500Y-39876135D01*
X56023692Y-39786607D01*
X56001132Y-39673188D01*
X56001131Y-39673185D01*
X56001130Y-39673180D01*
X55921941Y-39482002D01*
X55806977Y-39309945D01*
X55660655Y-39163623D01*
X55660651Y-39163620D01*
X55660650Y-39163619D01*
X55488601Y-39048661D01*
X55488600Y-39048660D01*
X55488598Y-39048659D01*
X55297420Y-38969470D01*
X55297416Y-38969469D01*
X55297411Y-38969467D01*
X55144684Y-38939089D01*
X55094465Y-38929100D01*
X54887535Y-38929100D01*
X54842844Y-38937989D01*
X54684588Y-38969467D01*
X54684583Y-38969469D01*
X54684581Y-38969469D01*
X54684580Y-38969470D01*
X54493402Y-39048659D01*
X54493400Y-39048659D01*
X54493398Y-39048661D01*
X54321349Y-39163619D01*
X54321343Y-39163624D01*
X54239612Y-39245355D01*
X54185118Y-39270766D01*
X54177458Y-39271100D01*
X37115815Y-39271100D01*
X37047378Y-39284712D01*
X37047378Y-39284713D01*
X37013619Y-39291428D01*
X36978942Y-39298326D01*
X36978940Y-39298326D01*
X36978938Y-39298327D01*
X36978931Y-39298330D01*
X36950890Y-39309945D01*
X36950889Y-39309945D01*
X36850004Y-39351732D01*
X36850002Y-39351732D01*
X36733959Y-39429270D01*
X32752274Y-43410955D01*
X32697780Y-43436366D01*
X32690119Y-43436700D01*
X20047019Y-43436700D01*
X20001808Y-43445692D01*
X19910144Y-43463925D01*
X19910132Y-43463929D01*
X19845668Y-43490631D01*
X19784710Y-43515881D01*
X19781197Y-43517336D01*
X19665159Y-43594871D01*
X9993874Y-53266155D01*
X9939380Y-53291566D01*
X9931719Y-53291900D01*
X9089000Y-53291900D01*
X9032499Y-53271335D01*
X9002435Y-53219264D01*
X9001100Y-53204000D01*
X9001100Y-53130253D01*
X9001100Y-53130252D01*
X8989467Y-53071769D01*
X8960248Y-53028041D01*
X8945154Y-53005451D01*
X8945152Y-53005448D01*
X8945148Y-53005445D01*
X8878832Y-52961133D01*
X8859336Y-52957255D01*
X8820348Y-52949500D01*
X7244227Y-52949500D01*
X7187726Y-52928935D01*
X7157662Y-52876864D01*
X7168103Y-52817650D01*
X7182072Y-52799445D01*
X7355898Y-52625619D01*
X7552886Y-52428630D01*
X7607379Y-52403220D01*
X7648678Y-52409577D01*
X7676473Y-52421091D01*
X7676477Y-52421091D01*
X7676481Y-52421093D01*
X7776877Y-52441062D01*
X7874597Y-52460500D01*
X7874599Y-52460500D01*
X8076601Y-52460500D01*
X8076603Y-52460500D01*
X8236821Y-52428631D01*
X8274718Y-52421093D01*
X8274719Y-52421092D01*
X8274727Y-52421091D01*
X8461356Y-52343786D01*
X8629318Y-52231558D01*
X8772158Y-52088718D01*
X8884386Y-51920756D01*
X8961691Y-51734127D01*
X8964983Y-51717580D01*
X9001100Y-51536001D01*
X9001100Y-51333998D01*
X8961693Y-51135881D01*
X8961692Y-51135878D01*
X8961691Y-51135873D01*
X8884386Y-50949244D01*
X8790846Y-50809250D01*
X8772161Y-50781286D01*
X8772160Y-50781285D01*
X8772158Y-50781282D01*
X8629318Y-50638442D01*
X8629314Y-50638439D01*
X8629313Y-50638438D01*
X8461358Y-50526215D01*
X8461356Y-50526214D01*
X8274727Y-50448909D01*
X8274724Y-50448908D01*
X8274718Y-50448906D01*
X8125626Y-50419251D01*
X8076603Y-50409500D01*
X7874597Y-50409500D01*
X7830970Y-50418177D01*
X7676481Y-50448906D01*
X7676473Y-50448909D01*
X7617775Y-50473223D01*
X7489842Y-50526215D01*
X7489841Y-50526215D01*
X7321886Y-50638438D01*
X7179038Y-50781286D01*
X7066815Y-50949241D01*
X7066815Y-50949242D01*
X6989509Y-51135873D01*
X6989506Y-51135881D01*
X6950100Y-51333998D01*
X6950100Y-51536001D01*
X6989506Y-51734118D01*
X6989508Y-51734123D01*
X6989509Y-51734127D01*
X6995529Y-51748661D01*
X7001022Y-51761922D01*
X7003643Y-51821992D01*
X6981967Y-51857713D01*
X6564127Y-52275555D01*
X6509633Y-52300965D01*
X6501972Y-52301300D01*
X6231785Y-52301300D01*
X6175284Y-52280735D01*
X6145220Y-52228664D01*
X6155661Y-52169450D01*
X6169626Y-52151249D01*
X6232158Y-52088718D01*
X6344386Y-51920756D01*
X6421691Y-51734127D01*
X6424983Y-51717580D01*
X6461100Y-51536001D01*
X6461100Y-51333998D01*
X6421693Y-51135881D01*
X6421692Y-51135878D01*
X6421691Y-51135873D01*
X6344386Y-50949244D01*
X6250846Y-50809250D01*
X6232161Y-50781286D01*
X6232160Y-50781285D01*
X6232158Y-50781282D01*
X6089318Y-50638442D01*
X6089314Y-50638439D01*
X6089313Y-50638438D01*
X5921358Y-50526215D01*
X5921356Y-50526214D01*
X5734727Y-50448909D01*
X5734724Y-50448908D01*
X5734718Y-50448906D01*
X5585626Y-50419251D01*
X5536603Y-50409500D01*
X5334597Y-50409500D01*
X5290970Y-50418177D01*
X5136481Y-50448906D01*
X5136473Y-50448909D01*
X5077775Y-50473223D01*
X4949842Y-50526215D01*
X4949841Y-50526215D01*
X4781886Y-50638438D01*
X4639038Y-50781286D01*
X4526815Y-50949241D01*
X4526812Y-50949247D01*
X4515300Y-50977039D01*
X4474678Y-51021369D01*
X4434092Y-51031300D01*
X3124628Y-51031300D01*
X3068127Y-51010735D01*
X3062473Y-51005555D01*
X2232845Y-50175927D01*
X2207434Y-50121433D01*
X2207100Y-50113772D01*
X2207100Y-48793998D01*
X4410100Y-48793998D01*
X4410100Y-48996001D01*
X4449506Y-49194118D01*
X4449508Y-49194124D01*
X4449509Y-49194127D01*
X4526814Y-49380756D01*
X4526815Y-49380757D01*
X4526815Y-49380758D01*
X4639038Y-49548713D01*
X4639039Y-49548714D01*
X4639042Y-49548718D01*
X4781882Y-49691558D01*
X4781885Y-49691560D01*
X4781886Y-49691561D01*
X4949841Y-49803784D01*
X4949844Y-49803786D01*
X5136473Y-49881091D01*
X5136478Y-49881092D01*
X5136481Y-49881093D01*
X5236877Y-49901062D01*
X5334597Y-49920500D01*
X5334599Y-49920500D01*
X5536601Y-49920500D01*
X5536603Y-49920500D01*
X5682563Y-49891467D01*
X5734718Y-49881093D01*
X5734719Y-49881092D01*
X5734727Y-49881091D01*
X5921356Y-49803786D01*
X6089318Y-49691558D01*
X6232158Y-49548718D01*
X6344386Y-49380756D01*
X6421691Y-49194127D01*
X6424983Y-49177580D01*
X6454089Y-49031250D01*
X6461100Y-48996003D01*
X6461100Y-48793998D01*
X6950100Y-48793998D01*
X6950100Y-48996001D01*
X6989506Y-49194118D01*
X6989508Y-49194124D01*
X6989509Y-49194127D01*
X7066814Y-49380756D01*
X7066815Y-49380757D01*
X7066815Y-49380758D01*
X7179038Y-49548713D01*
X7179039Y-49548714D01*
X7179042Y-49548718D01*
X7321882Y-49691558D01*
X7321885Y-49691560D01*
X7321886Y-49691561D01*
X7489841Y-49803784D01*
X7489844Y-49803786D01*
X7676473Y-49881091D01*
X7676478Y-49881092D01*
X7676481Y-49881093D01*
X7776877Y-49901062D01*
X7874597Y-49920500D01*
X7874599Y-49920500D01*
X8076601Y-49920500D01*
X8076603Y-49920500D01*
X8222563Y-49891467D01*
X8274718Y-49881093D01*
X8274719Y-49881092D01*
X8274727Y-49881091D01*
X8461356Y-49803786D01*
X8629318Y-49691558D01*
X8772158Y-49548718D01*
X8884386Y-49380756D01*
X8961691Y-49194127D01*
X8964983Y-49177580D01*
X8994089Y-49031250D01*
X9001100Y-48996003D01*
X9001100Y-48793997D01*
X8976040Y-48668011D01*
X8961693Y-48595881D01*
X8961692Y-48595878D01*
X8961691Y-48595873D01*
X8884386Y-48409244D01*
X8790846Y-48269250D01*
X8772161Y-48241286D01*
X8772160Y-48241285D01*
X8772158Y-48241282D01*
X8629318Y-48098442D01*
X8629314Y-48098439D01*
X8629313Y-48098438D01*
X8461358Y-47986215D01*
X8461356Y-47986214D01*
X8274727Y-47908909D01*
X8274724Y-47908908D01*
X8274718Y-47908906D01*
X8125626Y-47879251D01*
X8076603Y-47869500D01*
X7874597Y-47869500D01*
X7830970Y-47878177D01*
X7676481Y-47908906D01*
X7676473Y-47908909D01*
X7489842Y-47986215D01*
X7489841Y-47986215D01*
X7321886Y-48098438D01*
X7179038Y-48241286D01*
X7066815Y-48409241D01*
X7066815Y-48409242D01*
X6989509Y-48595873D01*
X6989506Y-48595881D01*
X6950100Y-48793998D01*
X6461100Y-48793998D01*
X6461100Y-48793997D01*
X6436040Y-48668011D01*
X6421693Y-48595881D01*
X6421692Y-48595878D01*
X6421691Y-48595873D01*
X6344386Y-48409244D01*
X6250846Y-48269250D01*
X6232161Y-48241286D01*
X6232160Y-48241285D01*
X6232158Y-48241282D01*
X6089318Y-48098442D01*
X6089314Y-48098439D01*
X6089313Y-48098438D01*
X5921358Y-47986215D01*
X5921356Y-47986214D01*
X5734727Y-47908909D01*
X5734724Y-47908908D01*
X5734718Y-47908906D01*
X5585626Y-47879251D01*
X5536603Y-47869500D01*
X5334597Y-47869500D01*
X5290970Y-47878177D01*
X5136481Y-47908906D01*
X5136473Y-47908909D01*
X4949842Y-47986215D01*
X4949841Y-47986215D01*
X4781886Y-48098438D01*
X4639038Y-48241286D01*
X4526815Y-48409241D01*
X4526815Y-48409242D01*
X4449509Y-48595873D01*
X4449506Y-48595881D01*
X4410100Y-48793998D01*
X2207100Y-48793998D01*
X2207100Y-46253997D01*
X4410100Y-46253997D01*
X4410100Y-46456003D01*
X4419786Y-46504700D01*
X4449506Y-46654118D01*
X4449508Y-46654124D01*
X4449509Y-46654127D01*
X4526814Y-46840756D01*
X4526815Y-46840757D01*
X4526815Y-46840758D01*
X4639038Y-47008713D01*
X4639039Y-47008714D01*
X4639042Y-47008718D01*
X4781882Y-47151558D01*
X4949844Y-47263786D01*
X5136473Y-47341091D01*
X5136478Y-47341092D01*
X5136481Y-47341093D01*
X5236877Y-47361062D01*
X5334597Y-47380500D01*
X5334599Y-47380500D01*
X5536601Y-47380500D01*
X5536603Y-47380500D01*
X5682563Y-47351467D01*
X5734718Y-47341093D01*
X5734719Y-47341092D01*
X5734727Y-47341091D01*
X5921356Y-47263786D01*
X6089318Y-47151558D01*
X6232158Y-47008718D01*
X6344386Y-46840756D01*
X6421691Y-46654127D01*
X6424983Y-46637580D01*
X6451347Y-46505034D01*
X6461100Y-46456003D01*
X6461100Y-46253997D01*
X6436040Y-46128011D01*
X6421693Y-46055881D01*
X6421689Y-46055868D01*
X6410178Y-46028079D01*
X6407554Y-45968009D01*
X6429229Y-45932287D01*
X6847073Y-45514445D01*
X6901567Y-45489034D01*
X6909228Y-45488700D01*
X7179415Y-45488700D01*
X7235916Y-45509265D01*
X7265980Y-45561336D01*
X7255539Y-45620550D01*
X7241573Y-45638750D01*
X7208765Y-45671559D01*
X7179039Y-45701285D01*
X7179038Y-45701286D01*
X7066815Y-45869241D01*
X7066815Y-45869242D01*
X7066814Y-45869244D01*
X7016572Y-45990538D01*
X6989509Y-46055873D01*
X6989506Y-46055881D01*
X6967758Y-46165222D01*
X6950100Y-46253997D01*
X6950100Y-46456003D01*
X6959786Y-46504700D01*
X6989506Y-46654118D01*
X6989508Y-46654124D01*
X6989509Y-46654127D01*
X7066814Y-46840756D01*
X7066815Y-46840757D01*
X7066815Y-46840758D01*
X7179038Y-47008713D01*
X7179039Y-47008714D01*
X7179042Y-47008718D01*
X7321882Y-47151558D01*
X7489844Y-47263786D01*
X7676473Y-47341091D01*
X7676478Y-47341092D01*
X7676481Y-47341093D01*
X7776877Y-47361062D01*
X7874597Y-47380500D01*
X7874599Y-47380500D01*
X8076601Y-47380500D01*
X8076603Y-47380500D01*
X8222563Y-47351467D01*
X8274718Y-47341093D01*
X8274719Y-47341092D01*
X8274727Y-47341091D01*
X8461356Y-47263786D01*
X8629318Y-47151558D01*
X8772158Y-47008718D01*
X8884386Y-46840756D01*
X8889455Y-46828516D01*
X8895900Y-46812961D01*
X8936522Y-46768631D01*
X8977108Y-46758700D01*
X11734372Y-46758700D01*
X11790873Y-46779265D01*
X11796527Y-46784445D01*
X12524555Y-47512473D01*
X12549966Y-47566967D01*
X12550300Y-47574628D01*
X12550300Y-47675825D01*
X12575085Y-47800436D01*
X12575087Y-47800440D01*
X12623706Y-47917819D01*
X12623707Y-47917821D01*
X12623708Y-47917822D01*
X12694296Y-48023464D01*
X12784136Y-48113304D01*
X12889778Y-48183892D01*
X13007160Y-48232513D01*
X13007161Y-48232513D01*
X13007163Y-48232514D01*
X13069892Y-48244991D01*
X13131773Y-48257300D01*
X13131775Y-48257300D01*
X13258825Y-48257300D01*
X13258827Y-48257300D01*
X13341148Y-48240925D01*
X13383436Y-48232514D01*
X13383436Y-48232513D01*
X13383440Y-48232513D01*
X13500822Y-48183892D01*
X13606464Y-48113304D01*
X13696304Y-48023464D01*
X13766892Y-47917822D01*
X13815513Y-47800440D01*
X13840300Y-47675827D01*
X13840300Y-47548773D01*
X13815513Y-47424160D01*
X13766892Y-47306778D01*
X13696304Y-47201136D01*
X13606464Y-47111296D01*
X13500822Y-47040708D01*
X13500821Y-47040707D01*
X13500819Y-47040706D01*
X13383440Y-46992087D01*
X13383436Y-46992085D01*
X13289766Y-46973454D01*
X13258827Y-46967300D01*
X13157628Y-46967300D01*
X13101127Y-46946735D01*
X13095473Y-46941555D01*
X12261042Y-46107124D01*
X12261042Y-46107123D01*
X12185881Y-46031961D01*
X12185878Y-46031959D01*
X12093823Y-45978811D01*
X12093820Y-45978810D01*
X12093818Y-45978809D01*
X12072125Y-45972997D01*
X12072124Y-45972996D01*
X12072124Y-45972997D01*
X11991148Y-45951299D01*
X11884852Y-45951299D01*
X11879470Y-45951299D01*
X11879454Y-45951300D01*
X8977108Y-45951300D01*
X8920607Y-45930735D01*
X8895900Y-45897039D01*
X8884387Y-45869247D01*
X8884386Y-45869244D01*
X8884384Y-45869241D01*
X8772161Y-45701286D01*
X8772160Y-45701285D01*
X8772158Y-45701282D01*
X8709629Y-45638753D01*
X8684219Y-45584261D01*
X8699782Y-45526183D01*
X8749035Y-45491695D01*
X8771785Y-45488700D01*
X14172772Y-45488700D01*
X14229273Y-45509265D01*
X14234927Y-45514445D01*
X14480355Y-45759873D01*
X14505766Y-45814367D01*
X14506100Y-45822028D01*
X14506100Y-45923227D01*
X14507902Y-45932285D01*
X14530885Y-46047836D01*
X14530887Y-46047840D01*
X14579506Y-46165219D01*
X14579507Y-46165221D01*
X14579508Y-46165222D01*
X14650096Y-46270864D01*
X14739936Y-46360704D01*
X14845578Y-46431292D01*
X14962960Y-46479913D01*
X14962961Y-46479913D01*
X14962963Y-46479914D01*
X15025692Y-46492391D01*
X15087573Y-46504700D01*
X15087575Y-46504700D01*
X15214625Y-46504700D01*
X15214627Y-46504700D01*
X15296948Y-46488325D01*
X15339236Y-46479914D01*
X15339236Y-46479913D01*
X15339240Y-46479913D01*
X15456622Y-46431292D01*
X15562264Y-46360704D01*
X15652104Y-46270864D01*
X15722692Y-46165222D01*
X15771313Y-46047840D01*
X15796100Y-45923227D01*
X15796100Y-45796173D01*
X15771313Y-45671560D01*
X15722692Y-45554178D01*
X15652104Y-45448536D01*
X15562264Y-45358696D01*
X15456622Y-45288108D01*
X15456621Y-45288107D01*
X15456619Y-45288106D01*
X15339240Y-45239487D01*
X15339236Y-45239485D01*
X15245566Y-45220854D01*
X15214627Y-45214700D01*
X15113428Y-45214700D01*
X15056927Y-45194135D01*
X15051273Y-45188955D01*
X14699442Y-44837124D01*
X14699442Y-44837123D01*
X14624281Y-44761961D01*
X14609086Y-44753188D01*
X14532223Y-44708811D01*
X14532220Y-44708810D01*
X14532218Y-44708809D01*
X14510525Y-44702997D01*
X14510524Y-44702996D01*
X14510524Y-44702997D01*
X14429548Y-44681299D01*
X14323252Y-44681299D01*
X14317870Y-44681299D01*
X14317854Y-44681300D01*
X8771785Y-44681300D01*
X8715284Y-44660735D01*
X8685220Y-44608664D01*
X8695661Y-44549450D01*
X8709626Y-44531249D01*
X8772158Y-44468718D01*
X8884386Y-44300756D01*
X8961691Y-44114127D01*
X9001100Y-43916003D01*
X9001100Y-43713997D01*
X8977405Y-43594871D01*
X8961693Y-43515881D01*
X8961692Y-43515878D01*
X8961691Y-43515873D01*
X8884386Y-43329244D01*
X8772158Y-43161282D01*
X8629318Y-43018442D01*
X8629314Y-43018439D01*
X8629313Y-43018438D01*
X8461358Y-42906215D01*
X8461356Y-42906214D01*
X8274727Y-42828909D01*
X8274724Y-42828908D01*
X8274718Y-42828906D01*
X8125626Y-42799251D01*
X8076603Y-42789500D01*
X7874597Y-42789500D01*
X7830970Y-42798177D01*
X7676481Y-42828906D01*
X7676473Y-42828909D01*
X7489842Y-42906215D01*
X7489841Y-42906215D01*
X7321886Y-43018438D01*
X7179038Y-43161286D01*
X7066815Y-43329241D01*
X7066815Y-43329242D01*
X6989509Y-43515873D01*
X6989506Y-43515881D01*
X6950100Y-43713998D01*
X6950100Y-43916001D01*
X6989506Y-44114118D01*
X6989508Y-44114124D01*
X6989509Y-44114127D01*
X7066814Y-44300756D01*
X7066815Y-44300757D01*
X7066815Y-44300758D01*
X7179038Y-44468713D01*
X7179039Y-44468714D01*
X7179042Y-44468718D01*
X7241570Y-44531246D01*
X7266981Y-44585739D01*
X7251418Y-44643817D01*
X7202165Y-44678305D01*
X7179415Y-44681300D01*
X6764146Y-44681300D01*
X6764130Y-44681299D01*
X6758748Y-44681299D01*
X6652452Y-44681299D01*
X6599346Y-44695529D01*
X6571475Y-44702997D01*
X6549778Y-44708810D01*
X6457720Y-44761960D01*
X6382557Y-44837124D01*
X5858313Y-45361367D01*
X5803819Y-45386778D01*
X5762522Y-45380422D01*
X5756945Y-45378112D01*
X5734727Y-45368909D01*
X5734723Y-45368908D01*
X5734718Y-45368906D01*
X5585626Y-45339251D01*
X5536603Y-45329500D01*
X5334597Y-45329500D01*
X5290970Y-45338177D01*
X5136481Y-45368906D01*
X5136473Y-45368909D01*
X4949842Y-45446215D01*
X4949841Y-45446215D01*
X4781886Y-45558438D01*
X4639038Y-45701286D01*
X4526815Y-45869241D01*
X4526815Y-45869242D01*
X4526814Y-45869244D01*
X4476572Y-45990538D01*
X4449509Y-46055873D01*
X4449506Y-46055881D01*
X4427758Y-46165222D01*
X4410100Y-46253997D01*
X2207100Y-46253997D01*
X2207100Y-43713998D01*
X4410100Y-43713998D01*
X4410100Y-43916001D01*
X4449506Y-44114118D01*
X4449508Y-44114124D01*
X4449509Y-44114127D01*
X4526814Y-44300756D01*
X4526815Y-44300757D01*
X4526815Y-44300758D01*
X4639038Y-44468713D01*
X4639039Y-44468714D01*
X4639042Y-44468718D01*
X4781882Y-44611558D01*
X4949844Y-44723786D01*
X5136473Y-44801091D01*
X5136478Y-44801092D01*
X5136481Y-44801093D01*
X5236877Y-44821062D01*
X5334597Y-44840500D01*
X5334599Y-44840500D01*
X5536601Y-44840500D01*
X5536603Y-44840500D01*
X5682563Y-44811467D01*
X5734718Y-44801093D01*
X5734719Y-44801092D01*
X5734727Y-44801091D01*
X5921356Y-44723786D01*
X6089318Y-44611558D01*
X6232158Y-44468718D01*
X6344386Y-44300756D01*
X6421691Y-44114127D01*
X6461100Y-43916003D01*
X6461100Y-43713997D01*
X6437405Y-43594871D01*
X6421693Y-43515881D01*
X6421692Y-43515878D01*
X6421691Y-43515873D01*
X6344386Y-43329244D01*
X6232158Y-43161282D01*
X6089318Y-43018442D01*
X6089314Y-43018439D01*
X6089313Y-43018438D01*
X5921358Y-42906215D01*
X5921356Y-42906214D01*
X5734727Y-42828909D01*
X5734724Y-42828908D01*
X5734718Y-42828906D01*
X5585626Y-42799251D01*
X5536603Y-42789500D01*
X5334597Y-42789500D01*
X5290970Y-42798177D01*
X5136481Y-42828906D01*
X5136473Y-42828909D01*
X4949842Y-42906215D01*
X4949841Y-42906215D01*
X4781886Y-43018438D01*
X4639038Y-43161286D01*
X4526815Y-43329241D01*
X4526815Y-43329242D01*
X4449509Y-43515873D01*
X4449506Y-43515881D01*
X4410100Y-43713998D01*
X2207100Y-43713998D01*
X2207100Y-41176234D01*
X4432800Y-41176234D01*
X4432800Y-41373765D01*
X4471335Y-41567502D01*
X4471337Y-41567506D01*
X4546928Y-41750002D01*
X4546930Y-41750005D01*
X4571006Y-41786037D01*
X4571007Y-41786037D01*
X4911812Y-41445232D01*
X4923082Y-41487292D01*
X4995490Y-41612708D01*
X5097892Y-41715110D01*
X5223308Y-41787518D01*
X5265365Y-41798787D01*
X4924561Y-42139591D01*
X4960594Y-42163668D01*
X5143093Y-42239262D01*
X5143097Y-42239264D01*
X5336835Y-42277800D01*
X5534365Y-42277800D01*
X5728102Y-42239264D01*
X5728106Y-42239262D01*
X5910606Y-42163668D01*
X5946637Y-42139592D01*
X5605832Y-41798787D01*
X5647892Y-41787518D01*
X5773308Y-41715110D01*
X5875710Y-41612708D01*
X5948118Y-41487292D01*
X5959387Y-41445232D01*
X6300192Y-41786037D01*
X6324268Y-41750006D01*
X6399862Y-41567506D01*
X6399864Y-41567502D01*
X6438400Y-41373765D01*
X6438400Y-41176234D01*
X6972800Y-41176234D01*
X6972800Y-41373765D01*
X7011335Y-41567502D01*
X7011337Y-41567506D01*
X7086928Y-41750002D01*
X7086930Y-41750005D01*
X7111006Y-41786037D01*
X7111007Y-41786037D01*
X7451812Y-41445232D01*
X7463082Y-41487292D01*
X7535490Y-41612708D01*
X7637892Y-41715110D01*
X7763308Y-41787518D01*
X7805365Y-41798787D01*
X7464561Y-42139591D01*
X7500594Y-42163668D01*
X7683093Y-42239262D01*
X7683097Y-42239264D01*
X7876835Y-42277800D01*
X8074365Y-42277800D01*
X8268102Y-42239264D01*
X8268106Y-42239262D01*
X8450606Y-42163668D01*
X8486637Y-42139592D01*
X8145832Y-41798787D01*
X8187892Y-41787518D01*
X8313308Y-41715110D01*
X8415710Y-41612708D01*
X8488118Y-41487292D01*
X8499387Y-41445232D01*
X8840192Y-41786037D01*
X8864268Y-41750006D01*
X8939862Y-41567506D01*
X8939864Y-41567502D01*
X8978400Y-41373765D01*
X8978400Y-41176234D01*
X8939864Y-40982497D01*
X8939862Y-40982493D01*
X8864268Y-40799994D01*
X8840191Y-40763961D01*
X8499387Y-41104765D01*
X8488118Y-41062708D01*
X8415710Y-40937292D01*
X8313308Y-40834890D01*
X8187892Y-40762482D01*
X8145832Y-40751212D01*
X8486637Y-40410407D01*
X8486637Y-40410406D01*
X8450605Y-40386330D01*
X8450602Y-40386328D01*
X8268106Y-40310737D01*
X8268102Y-40310735D01*
X8074365Y-40272200D01*
X7876835Y-40272200D01*
X7683097Y-40310735D01*
X7683093Y-40310737D01*
X7500598Y-40386328D01*
X7464561Y-40410406D01*
X7805367Y-40751212D01*
X7763308Y-40762482D01*
X7637892Y-40834890D01*
X7535490Y-40937292D01*
X7463082Y-41062708D01*
X7451812Y-41104767D01*
X7111006Y-40763961D01*
X7086928Y-40799998D01*
X7011337Y-40982493D01*
X7011335Y-40982497D01*
X6972800Y-41176234D01*
X6438400Y-41176234D01*
X6399864Y-40982497D01*
X6399862Y-40982493D01*
X6324268Y-40799994D01*
X6300191Y-40763961D01*
X5959387Y-41104765D01*
X5948118Y-41062708D01*
X5875710Y-40937292D01*
X5773308Y-40834890D01*
X5647892Y-40762482D01*
X5605832Y-40751212D01*
X5946638Y-40410407D01*
X5946637Y-40410406D01*
X5910605Y-40386330D01*
X5910602Y-40386328D01*
X5728106Y-40310737D01*
X5728102Y-40310735D01*
X5534365Y-40272200D01*
X5336835Y-40272200D01*
X5143097Y-40310735D01*
X5143093Y-40310737D01*
X4960598Y-40386328D01*
X4924561Y-40410406D01*
X5265367Y-40751212D01*
X5223308Y-40762482D01*
X5097892Y-40834890D01*
X4995490Y-40937292D01*
X4923082Y-41062708D01*
X4911812Y-41104767D01*
X4571006Y-40763961D01*
X4546928Y-40799998D01*
X4471337Y-40982493D01*
X4471335Y-40982497D01*
X4432800Y-41176234D01*
X2207100Y-41176234D01*
X2207100Y-33126354D01*
X2227665Y-33069853D01*
X2279736Y-33039789D01*
X2338950Y-33050230D01*
X2377599Y-33096290D01*
X2381211Y-33109206D01*
X2381500Y-33110658D01*
X2381500Y-33110661D01*
X2390340Y-33155105D01*
X2416872Y-33288496D01*
X2416873Y-33288500D01*
X2438239Y-33340080D01*
X2486263Y-33456020D01*
X2587001Y-33606785D01*
X2715215Y-33734999D01*
X2865980Y-33835737D01*
X2967493Y-33877785D01*
X3033499Y-33905126D01*
X3033503Y-33905127D01*
X3123026Y-33922933D01*
X3211339Y-33940500D01*
X3211341Y-33940500D01*
X3392659Y-33940500D01*
X3392661Y-33940500D01*
X3510144Y-33917131D01*
X3570496Y-33905127D01*
X3570500Y-33905126D01*
X3738020Y-33835737D01*
X3888785Y-33734999D01*
X4016999Y-33606785D01*
X4117737Y-33456020D01*
X4187126Y-33288500D01*
X4222500Y-33110661D01*
X4222500Y-32929339D01*
X4921500Y-32929339D01*
X4921500Y-33110661D01*
X4930282Y-33154815D01*
X4956872Y-33288496D01*
X4956873Y-33288500D01*
X4978239Y-33340080D01*
X5026263Y-33456020D01*
X5127001Y-33606785D01*
X5255215Y-33734999D01*
X5405980Y-33835737D01*
X5409433Y-33837167D01*
X5453765Y-33877785D01*
X5463700Y-33918378D01*
X5463700Y-35171253D01*
X5463699Y-35171271D01*
X5463699Y-35282947D01*
X5485397Y-35363924D01*
X5485397Y-35363925D01*
X5491209Y-35385618D01*
X5491210Y-35385620D01*
X5491211Y-35385623D01*
X5544359Y-35477678D01*
X5544361Y-35477681D01*
X5619523Y-35552842D01*
X5619524Y-35552842D01*
X6839757Y-36773075D01*
X6839757Y-36773076D01*
X6914918Y-36848238D01*
X6914923Y-36848242D01*
X7006972Y-36901387D01*
X7006974Y-36901387D01*
X7006977Y-36901389D01*
X7028670Y-36907200D01*
X7028674Y-36907203D01*
X7028675Y-36907202D01*
X7109652Y-36928901D01*
X7109653Y-36928901D01*
X7221330Y-36928901D01*
X7221346Y-36928900D01*
X16280972Y-36928900D01*
X16337473Y-36949465D01*
X16343127Y-36954645D01*
X19895357Y-40506875D01*
X19895357Y-40506876D01*
X19970518Y-40582038D01*
X19970521Y-40582040D01*
X19970522Y-40582041D01*
X19995942Y-40596717D01*
X20014552Y-40607462D01*
X20014556Y-40607464D01*
X20062578Y-40635190D01*
X20165252Y-40662701D01*
X20276931Y-40662701D01*
X20276947Y-40662700D01*
X21698600Y-40662700D01*
X21755101Y-40683265D01*
X21785165Y-40735336D01*
X21786500Y-40750600D01*
X21786500Y-41278746D01*
X21798133Y-41337232D01*
X21842445Y-41403548D01*
X21842448Y-41403552D01*
X21842451Y-41403554D01*
X21908767Y-41447866D01*
X21908769Y-41447867D01*
X21967252Y-41459500D01*
X21967254Y-41459500D01*
X24006746Y-41459500D01*
X24006748Y-41459500D01*
X24065231Y-41447867D01*
X24131552Y-41403552D01*
X24175867Y-41337231D01*
X24187500Y-41278748D01*
X24187500Y-39239252D01*
X24175867Y-39180769D01*
X24131552Y-39114448D01*
X24105416Y-39096984D01*
X24065232Y-39070133D01*
X24045736Y-39066255D01*
X24006748Y-39058500D01*
X21967252Y-39058500D01*
X21938010Y-39064316D01*
X21908767Y-39070133D01*
X21842451Y-39114445D01*
X21842445Y-39114451D01*
X21798133Y-39180767D01*
X21786500Y-39239253D01*
X21786500Y-39767400D01*
X21765935Y-39823901D01*
X21713864Y-39853965D01*
X21698600Y-39855300D01*
X20422028Y-39855300D01*
X20365527Y-39834735D01*
X20359873Y-39829555D01*
X17100171Y-36569853D01*
X53940500Y-36569853D01*
X53940500Y-38309346D01*
X53952133Y-38367832D01*
X53996445Y-38434148D01*
X53996448Y-38434152D01*
X53996451Y-38434154D01*
X54062767Y-38478466D01*
X54062769Y-38478467D01*
X54121252Y-38490100D01*
X54121254Y-38490100D01*
X55860746Y-38490100D01*
X55860748Y-38490100D01*
X55919231Y-38478467D01*
X55985552Y-38434152D01*
X56029867Y-38367831D01*
X56041500Y-38309348D01*
X56041500Y-38236000D01*
X56062065Y-38179499D01*
X56114136Y-38149435D01*
X56129400Y-38148100D01*
X56717458Y-38148100D01*
X56773959Y-38168665D01*
X56779612Y-38173845D01*
X56841768Y-38236000D01*
X56861345Y-38255577D01*
X57033402Y-38370541D01*
X57224580Y-38449730D01*
X57224585Y-38449731D01*
X57224588Y-38449732D01*
X57327432Y-38470188D01*
X57427535Y-38490100D01*
X57427537Y-38490100D01*
X57634463Y-38490100D01*
X57634465Y-38490100D01*
X57767336Y-38463670D01*
X57837411Y-38449732D01*
X57837412Y-38449731D01*
X57837420Y-38449730D01*
X58028598Y-38370541D01*
X58200655Y-38255577D01*
X58346977Y-38109255D01*
X58461941Y-37937198D01*
X58541130Y-37746020D01*
X58581500Y-37543065D01*
X58581500Y-37336135D01*
X58541130Y-37133180D01*
X58461941Y-36942002D01*
X58399290Y-36848238D01*
X58346980Y-36769949D01*
X58346979Y-36769948D01*
X58346977Y-36769945D01*
X58200655Y-36623623D01*
X58200651Y-36623620D01*
X58200650Y-36623619D01*
X58028601Y-36508661D01*
X58028600Y-36508660D01*
X58028598Y-36508659D01*
X57837420Y-36429470D01*
X57837416Y-36429469D01*
X57837411Y-36429467D01*
X57684684Y-36399089D01*
X57634465Y-36389100D01*
X57427535Y-36389100D01*
X57382844Y-36397989D01*
X57224588Y-36429467D01*
X57224583Y-36429469D01*
X57224581Y-36429469D01*
X57224580Y-36429470D01*
X57033402Y-36508659D01*
X57033400Y-36508659D01*
X57033398Y-36508661D01*
X56861349Y-36623619D01*
X56861343Y-36623624D01*
X56779612Y-36705355D01*
X56725118Y-36730766D01*
X56717458Y-36731100D01*
X56129400Y-36731100D01*
X56072899Y-36710535D01*
X56042835Y-36658464D01*
X56041500Y-36643200D01*
X56041500Y-36569853D01*
X56041500Y-36569852D01*
X56029867Y-36511369D01*
X56028056Y-36508659D01*
X55985554Y-36445051D01*
X55985552Y-36445048D01*
X55985548Y-36445045D01*
X55919232Y-36400733D01*
X55899736Y-36396855D01*
X55860748Y-36389100D01*
X54121252Y-36389100D01*
X54092010Y-36394916D01*
X54062767Y-36400733D01*
X53996451Y-36445045D01*
X53996445Y-36445051D01*
X53952133Y-36511367D01*
X53940500Y-36569853D01*
X17100171Y-36569853D01*
X16807642Y-36277324D01*
X16807642Y-36277323D01*
X16732481Y-36202161D01*
X16732478Y-36202159D01*
X16640423Y-36149011D01*
X16640420Y-36149010D01*
X16640418Y-36149009D01*
X16618725Y-36143197D01*
X16618724Y-36143196D01*
X16618724Y-36143197D01*
X16537748Y-36121499D01*
X16431452Y-36121499D01*
X16426070Y-36121499D01*
X16426054Y-36121500D01*
X7366428Y-36121500D01*
X7309927Y-36100935D01*
X7304273Y-36095755D01*
X6296845Y-35088327D01*
X6271434Y-35033833D01*
X6271100Y-35026172D01*
X6271100Y-33887344D01*
X6291665Y-33830843D01*
X6310163Y-33814259D01*
X6428785Y-33734999D01*
X6556999Y-33606785D01*
X6657737Y-33456020D01*
X6727126Y-33288500D01*
X6762500Y-33110661D01*
X6762500Y-32931575D01*
X7484200Y-32931575D01*
X7484200Y-33108424D01*
X7518700Y-33281875D01*
X7518702Y-33281879D01*
X7586379Y-33445268D01*
X7593107Y-33455337D01*
X7982000Y-33066444D01*
X7982000Y-33072661D01*
X8009259Y-33174394D01*
X8061920Y-33265606D01*
X8136394Y-33340080D01*
X8227606Y-33392741D01*
X8329339Y-33420000D01*
X8335552Y-33420000D01*
X7946661Y-33808891D01*
X7956734Y-33815621D01*
X8120120Y-33883297D01*
X8120124Y-33883299D01*
X8293576Y-33917800D01*
X8470424Y-33917800D01*
X8643875Y-33883299D01*
X8643879Y-33883297D01*
X8807269Y-33815619D01*
X8817337Y-33808891D01*
X8428446Y-33420000D01*
X8434661Y-33420000D01*
X8536394Y-33392741D01*
X8627606Y-33340080D01*
X8702080Y-33265606D01*
X8754741Y-33174394D01*
X8782000Y-33072661D01*
X8782000Y-33066446D01*
X9170891Y-33455337D01*
X9177619Y-33445269D01*
X9245297Y-33281879D01*
X9245299Y-33281875D01*
X9279800Y-33108424D01*
X9279800Y-32931575D01*
X9245299Y-32758124D01*
X9245297Y-32758120D01*
X9177621Y-32594734D01*
X9170890Y-32584661D01*
X8782000Y-32973551D01*
X8782000Y-32967339D01*
X8754741Y-32865606D01*
X8702080Y-32774394D01*
X8627606Y-32699920D01*
X8536394Y-32647259D01*
X8434661Y-32620000D01*
X8428444Y-32620000D01*
X8817337Y-32231107D01*
X8807268Y-32224379D01*
X8643879Y-32156702D01*
X8643875Y-32156700D01*
X8470424Y-32122200D01*
X8293576Y-32122200D01*
X8120124Y-32156700D01*
X8120120Y-32156702D01*
X7956733Y-32224379D01*
X7946661Y-32231107D01*
X8335554Y-32620000D01*
X8329339Y-32620000D01*
X8227606Y-32647259D01*
X8136394Y-32699920D01*
X8061920Y-32774394D01*
X8009259Y-32865606D01*
X7982000Y-32967339D01*
X7982000Y-32973554D01*
X7593107Y-32584661D01*
X7586379Y-32594733D01*
X7518702Y-32758120D01*
X7518700Y-32758124D01*
X7484200Y-32931575D01*
X6762500Y-32931575D01*
X6762500Y-32929339D01*
X6727126Y-32751500D01*
X6657737Y-32583980D01*
X6556999Y-32433215D01*
X6428785Y-32305001D01*
X6278020Y-32204263D01*
X6216139Y-32178631D01*
X6110500Y-32134873D01*
X6110496Y-32134872D01*
X5976815Y-32108282D01*
X5932661Y-32099500D01*
X5751339Y-32099500D01*
X5712060Y-32107312D01*
X5573503Y-32134872D01*
X5573499Y-32134873D01*
X5405978Y-32204264D01*
X5255217Y-32304999D01*
X5126999Y-32433217D01*
X5026264Y-32583978D01*
X4956873Y-32751499D01*
X4956872Y-32751503D01*
X4934177Y-32865606D01*
X4921500Y-32929339D01*
X4222500Y-32929339D01*
X4187126Y-32751500D01*
X4117737Y-32583980D01*
X4016999Y-32433215D01*
X3888785Y-32305001D01*
X3738020Y-32204263D01*
X3676139Y-32178631D01*
X3570500Y-32134873D01*
X3570496Y-32134872D01*
X3436815Y-32108282D01*
X3392661Y-32099500D01*
X3211339Y-32099500D01*
X3172060Y-32107312D01*
X3033503Y-32134872D01*
X3033499Y-32134873D01*
X2865978Y-32204264D01*
X2715217Y-32304999D01*
X2586999Y-32433217D01*
X2486264Y-32583978D01*
X2416873Y-32751499D01*
X2416872Y-32751503D01*
X2381211Y-32930793D01*
X2350019Y-32982197D01*
X2293083Y-33001524D01*
X2237044Y-32979732D01*
X2208123Y-32927017D01*
X2207100Y-32913645D01*
X2207100Y-25929687D01*
X2227665Y-25873186D01*
X2279736Y-25843122D01*
X2338950Y-25853563D01*
X2377599Y-25899623D01*
X2381211Y-25912539D01*
X2381500Y-25913991D01*
X2381500Y-25913994D01*
X2390340Y-25958438D01*
X2416872Y-26091829D01*
X2416873Y-26091833D01*
X2438239Y-26143413D01*
X2486263Y-26259353D01*
X2587001Y-26410118D01*
X2715215Y-26538332D01*
X2865980Y-26639070D01*
X2972160Y-26683051D01*
X3033499Y-26708459D01*
X3033503Y-26708460D01*
X3097217Y-26721133D01*
X3211339Y-26743833D01*
X3211341Y-26743833D01*
X3392659Y-26743833D01*
X3392661Y-26743833D01*
X3510144Y-26720464D01*
X3570496Y-26708460D01*
X3570500Y-26708459D01*
X3572458Y-26707648D01*
X3738020Y-26639070D01*
X3888785Y-26538332D01*
X4016999Y-26410118D01*
X4117737Y-26259353D01*
X4187126Y-26091833D01*
X4222500Y-25913994D01*
X4222500Y-25732672D01*
X4921500Y-25732672D01*
X4921500Y-25913994D01*
X4930282Y-25958148D01*
X4956872Y-26091829D01*
X4956873Y-26091833D01*
X4978239Y-26143413D01*
X5026263Y-26259353D01*
X5127001Y-26410118D01*
X5255215Y-26538332D01*
X5399234Y-26634562D01*
X5434788Y-26683051D01*
X5438300Y-26707648D01*
X5438300Y-27932253D01*
X5438299Y-27932271D01*
X5438299Y-28043947D01*
X5459997Y-28124924D01*
X5459997Y-28124925D01*
X5465809Y-28146618D01*
X5465810Y-28146620D01*
X5465811Y-28146623D01*
X5518959Y-28238678D01*
X5518961Y-28238681D01*
X5594123Y-28313842D01*
X5594124Y-28313842D01*
X6738157Y-29457875D01*
X6738157Y-29457876D01*
X6813318Y-29533038D01*
X6813323Y-29533042D01*
X6905372Y-29586187D01*
X6905374Y-29586187D01*
X6905377Y-29586189D01*
X6927070Y-29592000D01*
X6927074Y-29592003D01*
X6927075Y-29592002D01*
X7008052Y-29613701D01*
X7008053Y-29613701D01*
X7119730Y-29613701D01*
X7119746Y-29613700D01*
X17931972Y-29613700D01*
X17988473Y-29634265D01*
X17994127Y-29639445D01*
X19869957Y-31515275D01*
X19869957Y-31515276D01*
X19945118Y-31590438D01*
X19945123Y-31590442D01*
X20037172Y-31643587D01*
X20037174Y-31643587D01*
X20037177Y-31643589D01*
X20058870Y-31649400D01*
X20058874Y-31649403D01*
X20058875Y-31649402D01*
X20139852Y-31671101D01*
X20139853Y-31671101D01*
X20251530Y-31671101D01*
X20251546Y-31671100D01*
X21724000Y-31671100D01*
X21780501Y-31691665D01*
X21810565Y-31743736D01*
X21811900Y-31759000D01*
X21811900Y-32287146D01*
X21823533Y-32345632D01*
X21867845Y-32411948D01*
X21867848Y-32411952D01*
X21867851Y-32411954D01*
X21934167Y-32456266D01*
X21934169Y-32456267D01*
X21992652Y-32467900D01*
X21992654Y-32467900D01*
X24032146Y-32467900D01*
X24032148Y-32467900D01*
X24090631Y-32456267D01*
X24156952Y-32411952D01*
X24201267Y-32345631D01*
X24212900Y-32287148D01*
X24212900Y-30247652D01*
X24201267Y-30189169D01*
X24156952Y-30122848D01*
X24156948Y-30122845D01*
X24090632Y-30078533D01*
X24071136Y-30074655D01*
X24032148Y-30066900D01*
X21992652Y-30066900D01*
X21963410Y-30072716D01*
X21934167Y-30078533D01*
X21867851Y-30122845D01*
X21867845Y-30122851D01*
X21823533Y-30189167D01*
X21811900Y-30247653D01*
X21811900Y-30775800D01*
X21791335Y-30832301D01*
X21739264Y-30862365D01*
X21724000Y-30863700D01*
X20396628Y-30863700D01*
X20340127Y-30843135D01*
X20334473Y-30837955D01*
X18458642Y-28962124D01*
X18458642Y-28962123D01*
X18383481Y-28886961D01*
X18383478Y-28886959D01*
X18291423Y-28833811D01*
X18291420Y-28833810D01*
X18291418Y-28833809D01*
X18269725Y-28827997D01*
X18269724Y-28827996D01*
X18269724Y-28827997D01*
X18188748Y-28806299D01*
X18082452Y-28806299D01*
X18077070Y-28806299D01*
X18077054Y-28806300D01*
X7264828Y-28806300D01*
X7208327Y-28785735D01*
X7202673Y-28780555D01*
X6271445Y-27849327D01*
X6246034Y-27794833D01*
X6245700Y-27787172D01*
X6245700Y-26707648D01*
X6266265Y-26651147D01*
X6284763Y-26634563D01*
X6428785Y-26538332D01*
X6556999Y-26410118D01*
X6657737Y-26259353D01*
X6727126Y-26091833D01*
X6762500Y-25913994D01*
X6762500Y-25734908D01*
X7484200Y-25734908D01*
X7484200Y-25911757D01*
X7518700Y-26085208D01*
X7518702Y-26085212D01*
X7586379Y-26248601D01*
X7593107Y-26258670D01*
X7982000Y-25869777D01*
X7982000Y-25875994D01*
X8009259Y-25977727D01*
X8061920Y-26068939D01*
X8136394Y-26143413D01*
X8227606Y-26196074D01*
X8329339Y-26223333D01*
X8335552Y-26223333D01*
X7946661Y-26612224D01*
X7956734Y-26618954D01*
X8120120Y-26686630D01*
X8120124Y-26686632D01*
X8293576Y-26721133D01*
X8470424Y-26721133D01*
X8643875Y-26686632D01*
X8643879Y-26686630D01*
X8807269Y-26618952D01*
X8817337Y-26612224D01*
X8428446Y-26223333D01*
X8434661Y-26223333D01*
X8536394Y-26196074D01*
X8627606Y-26143413D01*
X8702080Y-26068939D01*
X8754741Y-25977727D01*
X8782000Y-25875994D01*
X8782000Y-25869779D01*
X9170891Y-26258670D01*
X9177619Y-26248602D01*
X9245297Y-26085212D01*
X9245299Y-26085208D01*
X9279800Y-25911757D01*
X9279800Y-25734908D01*
X9245299Y-25561457D01*
X9245297Y-25561453D01*
X9177621Y-25398067D01*
X9170890Y-25387994D01*
X8782000Y-25776884D01*
X8782000Y-25770672D01*
X8754741Y-25668939D01*
X8702080Y-25577727D01*
X8627606Y-25503253D01*
X8536394Y-25450592D01*
X8434661Y-25423333D01*
X8428444Y-25423333D01*
X8817337Y-25034440D01*
X8807268Y-25027712D01*
X8643879Y-24960035D01*
X8643875Y-24960033D01*
X8470424Y-24925533D01*
X8293576Y-24925533D01*
X8120124Y-24960033D01*
X8120120Y-24960035D01*
X7956733Y-25027712D01*
X7946661Y-25034440D01*
X8335554Y-25423333D01*
X8329339Y-25423333D01*
X8227606Y-25450592D01*
X8136394Y-25503253D01*
X8061920Y-25577727D01*
X8009259Y-25668939D01*
X7982000Y-25770672D01*
X7982000Y-25776887D01*
X7593107Y-25387994D01*
X7586379Y-25398066D01*
X7518702Y-25561453D01*
X7518700Y-25561457D01*
X7484200Y-25734908D01*
X6762500Y-25734908D01*
X6762500Y-25732672D01*
X6727126Y-25554833D01*
X6657737Y-25387313D01*
X6556999Y-25236548D01*
X6428785Y-25108334D01*
X6278020Y-25007596D01*
X6216139Y-24981964D01*
X6110500Y-24938206D01*
X6110496Y-24938205D01*
X5976815Y-24911615D01*
X5932661Y-24902833D01*
X5751339Y-24902833D01*
X5712060Y-24910645D01*
X5573503Y-24938205D01*
X5573499Y-24938206D01*
X5405978Y-25007597D01*
X5255217Y-25108332D01*
X5126999Y-25236550D01*
X5026264Y-25387311D01*
X4956873Y-25554832D01*
X4956872Y-25554836D01*
X4934177Y-25668939D01*
X4921500Y-25732672D01*
X4222500Y-25732672D01*
X4187126Y-25554833D01*
X4117737Y-25387313D01*
X4016999Y-25236548D01*
X3888785Y-25108334D01*
X3738020Y-25007596D01*
X3676139Y-24981964D01*
X3570500Y-24938206D01*
X3570496Y-24938205D01*
X3436815Y-24911615D01*
X3392661Y-24902833D01*
X3211339Y-24902833D01*
X3172060Y-24910645D01*
X3033503Y-24938205D01*
X3033499Y-24938206D01*
X2865978Y-25007597D01*
X2715217Y-25108332D01*
X2586999Y-25236550D01*
X2486264Y-25387311D01*
X2416873Y-25554832D01*
X2416872Y-25554836D01*
X2381211Y-25734126D01*
X2350019Y-25785530D01*
X2293083Y-25804857D01*
X2237044Y-25783065D01*
X2208123Y-25730350D01*
X2207100Y-25716978D01*
X2207100Y-23825628D01*
X2227665Y-23769127D01*
X2232845Y-23763473D01*
X4561073Y-21435245D01*
X4615567Y-21409834D01*
X4623228Y-21409500D01*
X12180870Y-21409500D01*
X12234194Y-21428580D01*
X12234446Y-21428205D01*
X12235946Y-21429207D01*
X12236635Y-21429454D01*
X12238035Y-21430603D01*
X12238036Y-21430604D01*
X12343678Y-21501192D01*
X12461060Y-21549813D01*
X12461061Y-21549813D01*
X12461063Y-21549814D01*
X12523792Y-21562291D01*
X12585673Y-21574600D01*
X12585675Y-21574600D01*
X12712725Y-21574600D01*
X12712727Y-21574600D01*
X12795048Y-21558225D01*
X12837336Y-21549814D01*
X12837336Y-21549813D01*
X12837340Y-21549813D01*
X12954722Y-21501192D01*
X13060364Y-21430604D01*
X13150204Y-21340764D01*
X13220792Y-21235122D01*
X13269413Y-21117740D01*
X13294200Y-20993127D01*
X13294200Y-20866073D01*
X13272688Y-20757924D01*
X13269414Y-20741463D01*
X13269413Y-20741461D01*
X13269413Y-20741460D01*
X13231807Y-20650671D01*
X13220793Y-20624080D01*
X13206107Y-20602100D01*
X13150204Y-20518436D01*
X13060364Y-20428596D01*
X12954722Y-20358008D01*
X12954721Y-20358007D01*
X12954719Y-20358006D01*
X12837340Y-20309387D01*
X12837336Y-20309385D01*
X12743666Y-20290754D01*
X12712727Y-20284600D01*
X12585673Y-20284600D01*
X12558150Y-20290074D01*
X12461063Y-20309385D01*
X12461059Y-20309387D01*
X12343680Y-20358006D01*
X12238038Y-20428594D01*
X12148194Y-20518438D01*
X12118396Y-20563035D01*
X12069907Y-20598588D01*
X12045310Y-20602100D01*
X4478147Y-20602100D01*
X4478131Y-20602099D01*
X4472749Y-20602099D01*
X4366452Y-20602099D01*
X4263778Y-20629609D01*
X4239112Y-20643850D01*
X4224871Y-20652073D01*
X4211583Y-20659744D01*
X4171725Y-20682756D01*
X4171720Y-20682759D01*
X4096558Y-20757921D01*
X4096559Y-20757922D01*
X1518955Y-23335526D01*
X1464461Y-23360937D01*
X1406383Y-23345374D01*
X1371895Y-23296121D01*
X1368900Y-23273371D01*
X1368900Y-18536007D01*
X2381500Y-18536007D01*
X2381500Y-18717326D01*
X2416872Y-18895163D01*
X2416873Y-18895167D01*
X2438239Y-18946747D01*
X2486263Y-19062687D01*
X2587001Y-19213452D01*
X2715215Y-19341666D01*
X2865980Y-19442404D01*
X2980800Y-19489964D01*
X3033499Y-19511793D01*
X3033503Y-19511794D01*
X3097217Y-19524467D01*
X3211339Y-19547167D01*
X3211341Y-19547167D01*
X3392659Y-19547167D01*
X3392661Y-19547167D01*
X3510144Y-19523798D01*
X3570496Y-19511794D01*
X3570500Y-19511793D01*
X3738020Y-19442404D01*
X3888785Y-19341666D01*
X4016999Y-19213452D01*
X4117737Y-19062687D01*
X4187126Y-18895167D01*
X4222500Y-18717328D01*
X4222500Y-18536007D01*
X4921500Y-18536007D01*
X4921500Y-18717326D01*
X4956872Y-18895163D01*
X4956873Y-18895167D01*
X4978239Y-18946747D01*
X5026263Y-19062687D01*
X5127001Y-19213452D01*
X5255215Y-19341666D01*
X5405980Y-19442404D01*
X5520800Y-19489964D01*
X5573499Y-19511793D01*
X5573503Y-19511794D01*
X5637217Y-19524467D01*
X5751339Y-19547167D01*
X5751341Y-19547167D01*
X5932659Y-19547167D01*
X5932661Y-19547167D01*
X6050144Y-19523798D01*
X6110496Y-19511794D01*
X6110500Y-19511793D01*
X6278020Y-19442404D01*
X6428785Y-19341666D01*
X6556999Y-19213452D01*
X6657737Y-19062687D01*
X6727126Y-18895167D01*
X6762500Y-18717328D01*
X6762500Y-18538242D01*
X7484200Y-18538242D01*
X7484200Y-18715091D01*
X7518700Y-18888542D01*
X7518702Y-18888546D01*
X7586379Y-19051935D01*
X7593107Y-19062004D01*
X7982000Y-18673111D01*
X7982000Y-18679328D01*
X8009259Y-18781061D01*
X8061920Y-18872273D01*
X8136394Y-18946747D01*
X8227606Y-18999408D01*
X8329339Y-19026667D01*
X8335552Y-19026667D01*
X7946661Y-19415558D01*
X7956734Y-19422288D01*
X8120120Y-19489964D01*
X8120124Y-19489966D01*
X8293576Y-19524467D01*
X8470424Y-19524467D01*
X8643875Y-19489966D01*
X8643879Y-19489964D01*
X8807269Y-19422286D01*
X8817337Y-19415558D01*
X8428446Y-19026667D01*
X8434661Y-19026667D01*
X8536394Y-18999408D01*
X8627606Y-18946747D01*
X8702080Y-18872273D01*
X8754741Y-18781061D01*
X8782000Y-18679328D01*
X8782000Y-18673113D01*
X9170891Y-19062004D01*
X9177619Y-19051936D01*
X9245297Y-18888546D01*
X9245299Y-18888542D01*
X9279800Y-18715091D01*
X9279800Y-18538242D01*
X9245299Y-18364791D01*
X9245297Y-18364787D01*
X9177621Y-18201401D01*
X9170890Y-18191328D01*
X8782000Y-18580218D01*
X8782000Y-18574006D01*
X8754741Y-18472273D01*
X8702080Y-18381061D01*
X8627606Y-18306587D01*
X8536394Y-18253926D01*
X8434661Y-18226667D01*
X8428444Y-18226667D01*
X8817337Y-17837774D01*
X8807268Y-17831046D01*
X8643879Y-17763369D01*
X8643875Y-17763367D01*
X8470424Y-17728867D01*
X8293576Y-17728867D01*
X8120124Y-17763367D01*
X8120120Y-17763369D01*
X7956733Y-17831046D01*
X7946661Y-17837774D01*
X8335554Y-18226667D01*
X8329339Y-18226667D01*
X8227606Y-18253926D01*
X8136394Y-18306587D01*
X8061920Y-18381061D01*
X8009259Y-18472273D01*
X7982000Y-18574006D01*
X7982000Y-18580221D01*
X7593107Y-18191328D01*
X7586379Y-18201400D01*
X7518702Y-18364787D01*
X7518700Y-18364791D01*
X7484200Y-18538242D01*
X6762500Y-18538242D01*
X6762500Y-18536006D01*
X6727126Y-18358167D01*
X6657737Y-18190647D01*
X6556999Y-18039882D01*
X6428785Y-17911668D01*
X6284764Y-17815436D01*
X6249212Y-17766948D01*
X6245700Y-17742351D01*
X6245700Y-17221458D01*
X6266265Y-17164957D01*
X6271445Y-17159303D01*
X7329503Y-16101245D01*
X7383997Y-16075834D01*
X7391658Y-16075500D01*
X13410772Y-16075500D01*
X13467273Y-16096065D01*
X13472927Y-16101245D01*
X19844557Y-22472875D01*
X19844557Y-22472876D01*
X19919718Y-22548038D01*
X19919720Y-22548039D01*
X19919722Y-22548041D01*
X20011777Y-22601189D01*
X20011779Y-22601189D01*
X20011780Y-22601190D01*
X20114452Y-22628700D01*
X21698600Y-22628700D01*
X21755101Y-22649265D01*
X21785165Y-22701336D01*
X21786500Y-22716600D01*
X21786500Y-23244748D01*
X21794255Y-23283736D01*
X21798133Y-23303232D01*
X21842445Y-23369548D01*
X21842448Y-23369552D01*
X21842451Y-23369554D01*
X21908767Y-23413866D01*
X21908769Y-23413867D01*
X21967252Y-23425500D01*
X21967254Y-23425500D01*
X24006746Y-23425500D01*
X24006748Y-23425500D01*
X24065231Y-23413867D01*
X24131552Y-23369552D01*
X24175867Y-23303231D01*
X24187500Y-23244748D01*
X24187500Y-21205252D01*
X24175867Y-21146769D01*
X24156467Y-21117736D01*
X24131554Y-21080451D01*
X24131552Y-21080448D01*
X24131548Y-21080445D01*
X24065232Y-21036133D01*
X24045736Y-21032255D01*
X24006748Y-21024500D01*
X21967252Y-21024500D01*
X21938010Y-21030316D01*
X21908767Y-21036133D01*
X21842451Y-21080445D01*
X21842445Y-21080451D01*
X21798133Y-21146767D01*
X21786500Y-21205253D01*
X21786500Y-21733400D01*
X21765935Y-21789901D01*
X21713864Y-21819965D01*
X21698600Y-21821300D01*
X20371228Y-21821300D01*
X20314727Y-21800735D01*
X20309073Y-21795555D01*
X13937442Y-15423924D01*
X13937442Y-15423923D01*
X13862281Y-15348761D01*
X13862278Y-15348759D01*
X13770223Y-15295611D01*
X13770220Y-15295610D01*
X13770218Y-15295609D01*
X13748525Y-15289797D01*
X13748524Y-15289796D01*
X13748524Y-15289797D01*
X13667548Y-15268099D01*
X13561252Y-15268099D01*
X13555870Y-15268099D01*
X13555854Y-15268100D01*
X7246576Y-15268100D01*
X7246560Y-15268099D01*
X7241178Y-15268099D01*
X7134882Y-15268099D01*
X7053909Y-15289796D01*
X7053905Y-15289797D01*
X7032208Y-15295610D01*
X6940150Y-15348760D01*
X5518960Y-16769950D01*
X5465811Y-16862007D01*
X5465811Y-16862008D01*
X5438299Y-16964682D01*
X5438299Y-17078057D01*
X5438300Y-17078070D01*
X5438300Y-17742351D01*
X5417735Y-17798852D01*
X5399235Y-17815437D01*
X5255217Y-17911666D01*
X5126999Y-18039884D01*
X5026264Y-18190645D01*
X4956873Y-18358166D01*
X4956872Y-18358170D01*
X4921500Y-18536007D01*
X4222500Y-18536007D01*
X4222500Y-18536006D01*
X4187126Y-18358167D01*
X4117737Y-18190647D01*
X4016999Y-18039882D01*
X3888785Y-17911668D01*
X3738020Y-17810930D01*
X3676139Y-17785298D01*
X3570500Y-17741540D01*
X3570496Y-17741539D01*
X3436815Y-17714949D01*
X3392661Y-17706167D01*
X3211339Y-17706167D01*
X3172060Y-17713979D01*
X3033503Y-17741539D01*
X3033499Y-17741540D01*
X2865978Y-17810931D01*
X2715217Y-17911666D01*
X2586999Y-18039884D01*
X2486264Y-18190645D01*
X2416873Y-18358166D01*
X2416872Y-18358170D01*
X2381500Y-18536007D01*
X1368900Y-18536007D01*
X1368900Y-16510428D01*
X1389465Y-16453927D01*
X1394645Y-16448273D01*
X3722873Y-14120045D01*
X3777367Y-14094634D01*
X3785028Y-14094300D01*
X12180522Y-14094300D01*
X12237023Y-14114865D01*
X12242676Y-14120045D01*
X12314233Y-14191602D01*
X12314236Y-14191604D01*
X12419878Y-14262192D01*
X12537260Y-14310813D01*
X12537261Y-14310813D01*
X12537263Y-14310814D01*
X12599992Y-14323291D01*
X12661873Y-14335600D01*
X12661875Y-14335600D01*
X12788925Y-14335600D01*
X12788927Y-14335600D01*
X12871248Y-14319225D01*
X12913536Y-14310814D01*
X12913536Y-14310813D01*
X12913540Y-14310813D01*
X13030922Y-14262192D01*
X13136564Y-14191604D01*
X13226404Y-14101764D01*
X13296992Y-13996122D01*
X13345613Y-13878740D01*
X13370400Y-13754127D01*
X13370400Y-13627073D01*
X13345613Y-13502460D01*
X13296992Y-13385078D01*
X13226404Y-13279436D01*
X13136564Y-13189596D01*
X13030922Y-13119008D01*
X13030921Y-13119007D01*
X13030919Y-13119006D01*
X12913540Y-13070387D01*
X12913536Y-13070385D01*
X12819866Y-13051754D01*
X12788927Y-13045600D01*
X12661873Y-13045600D01*
X12634350Y-13051074D01*
X12537263Y-13070385D01*
X12537259Y-13070387D01*
X12419880Y-13119006D01*
X12314236Y-13189595D01*
X12314233Y-13189597D01*
X12242676Y-13261155D01*
X12188182Y-13286566D01*
X12180522Y-13286900D01*
X3639947Y-13286900D01*
X3639931Y-13286899D01*
X3634549Y-13286899D01*
X3528252Y-13286899D01*
X3425578Y-13314409D01*
X3400912Y-13328650D01*
X3386671Y-13336873D01*
X3373383Y-13344544D01*
X3333525Y-13367556D01*
X3333520Y-13367559D01*
X3258358Y-13442721D01*
X3258359Y-13442722D01*
X785555Y-15915526D01*
X731061Y-15940937D01*
X672983Y-15925374D01*
X638495Y-15876121D01*
X635500Y-15853371D01*
X635500Y-11339340D01*
X2381500Y-11339340D01*
X2381500Y-11520659D01*
X2416872Y-11698496D01*
X2416873Y-11698500D01*
X2438239Y-11750080D01*
X2486263Y-11866020D01*
X2587001Y-12016785D01*
X2715215Y-12144999D01*
X2865980Y-12245737D01*
X2980800Y-12293297D01*
X3033499Y-12315126D01*
X3033503Y-12315127D01*
X3097217Y-12327800D01*
X3211339Y-12350500D01*
X3211341Y-12350500D01*
X3392659Y-12350500D01*
X3392661Y-12350500D01*
X3510144Y-12327131D01*
X3570496Y-12315127D01*
X3570500Y-12315126D01*
X3738020Y-12245737D01*
X3888785Y-12144999D01*
X4016999Y-12016785D01*
X4117737Y-11866020D01*
X4187126Y-11698500D01*
X4222500Y-11520661D01*
X4222500Y-11339340D01*
X4921500Y-11339340D01*
X4921500Y-11520659D01*
X4956872Y-11698496D01*
X4956873Y-11698500D01*
X4978239Y-11750080D01*
X5026263Y-11866020D01*
X5127001Y-12016785D01*
X5255215Y-12144999D01*
X5405980Y-12245737D01*
X5520800Y-12293297D01*
X5573499Y-12315126D01*
X5573503Y-12315127D01*
X5637217Y-12327800D01*
X5751339Y-12350500D01*
X5751341Y-12350500D01*
X5932659Y-12350500D01*
X5932661Y-12350500D01*
X6050144Y-12327131D01*
X6110496Y-12315127D01*
X6110500Y-12315126D01*
X6278020Y-12245737D01*
X6428785Y-12144999D01*
X6556999Y-12016785D01*
X6657737Y-11866020D01*
X6727126Y-11698500D01*
X6762500Y-11520661D01*
X6762500Y-11341575D01*
X7484200Y-11341575D01*
X7484200Y-11518424D01*
X7518700Y-11691875D01*
X7518702Y-11691879D01*
X7586379Y-11855268D01*
X7593107Y-11865337D01*
X7982000Y-11476444D01*
X7982000Y-11482661D01*
X8009259Y-11584394D01*
X8061920Y-11675606D01*
X8136394Y-11750080D01*
X8227606Y-11802741D01*
X8329339Y-11830000D01*
X8335552Y-11830000D01*
X7946661Y-12218891D01*
X7956734Y-12225621D01*
X8120120Y-12293297D01*
X8120124Y-12293299D01*
X8293576Y-12327800D01*
X8470424Y-12327800D01*
X8643875Y-12293299D01*
X8643879Y-12293297D01*
X8807269Y-12225619D01*
X8817337Y-12218891D01*
X8428446Y-11830000D01*
X8434661Y-11830000D01*
X8536394Y-11802741D01*
X8627606Y-11750080D01*
X8702080Y-11675606D01*
X8754741Y-11584394D01*
X8782000Y-11482661D01*
X8782000Y-11476446D01*
X9170891Y-11865337D01*
X9177619Y-11855269D01*
X9245297Y-11691879D01*
X9245299Y-11691875D01*
X9279800Y-11518424D01*
X9279800Y-11341575D01*
X9245299Y-11168124D01*
X9245297Y-11168120D01*
X9177621Y-11004734D01*
X9170890Y-10994661D01*
X8782000Y-11383551D01*
X8782000Y-11377339D01*
X8754741Y-11275606D01*
X8702080Y-11184394D01*
X8627606Y-11109920D01*
X8536394Y-11057259D01*
X8434661Y-11030000D01*
X8428444Y-11030000D01*
X8817337Y-10641107D01*
X8807268Y-10634379D01*
X8643879Y-10566702D01*
X8643875Y-10566700D01*
X8470424Y-10532200D01*
X8293576Y-10532200D01*
X8120124Y-10566700D01*
X8120120Y-10566702D01*
X7956733Y-10634379D01*
X7946661Y-10641107D01*
X8335554Y-11030000D01*
X8329339Y-11030000D01*
X8227606Y-11057259D01*
X8136394Y-11109920D01*
X8061920Y-11184394D01*
X8009259Y-11275606D01*
X7982000Y-11377339D01*
X7982000Y-11383554D01*
X7593107Y-10994661D01*
X7586379Y-11004733D01*
X7518702Y-11168120D01*
X7518700Y-11168124D01*
X7484200Y-11341575D01*
X6762500Y-11341575D01*
X6762500Y-11339339D01*
X6727126Y-11161500D01*
X6657737Y-10993980D01*
X6556999Y-10843215D01*
X6428785Y-10715001D01*
X6284764Y-10618769D01*
X6268590Y-10596709D01*
X6251001Y-10575748D01*
X6250298Y-10571762D01*
X6249212Y-10570281D01*
X6245700Y-10545684D01*
X6245700Y-10490628D01*
X6266265Y-10434127D01*
X6271445Y-10428473D01*
X6974073Y-9725845D01*
X7028567Y-9700434D01*
X7036228Y-9700100D01*
X16280972Y-9700100D01*
X16337473Y-9720665D01*
X16343127Y-9725845D01*
X19996957Y-13379675D01*
X19996957Y-13379676D01*
X20072118Y-13454838D01*
X20072121Y-13454840D01*
X20072122Y-13454841D01*
X20125268Y-13485524D01*
X20125270Y-13485526D01*
X20154598Y-13502459D01*
X20164178Y-13507990D01*
X20266852Y-13535501D01*
X20378530Y-13535501D01*
X20378546Y-13535500D01*
X21698600Y-13535500D01*
X21755101Y-13556065D01*
X21785165Y-13608136D01*
X21786500Y-13623400D01*
X21786500Y-14151546D01*
X21798133Y-14210032D01*
X21832986Y-14262192D01*
X21842448Y-14276352D01*
X21842451Y-14276354D01*
X21908767Y-14320666D01*
X21908769Y-14320667D01*
X21967252Y-14332300D01*
X21967254Y-14332300D01*
X24006746Y-14332300D01*
X24006748Y-14332300D01*
X24065231Y-14320667D01*
X24131552Y-14276352D01*
X24175867Y-14210031D01*
X24187500Y-14151548D01*
X24187500Y-12112052D01*
X24175867Y-12053569D01*
X24131552Y-11987248D01*
X24131548Y-11987245D01*
X24065232Y-11942933D01*
X24045736Y-11939055D01*
X24006748Y-11931300D01*
X21967252Y-11931300D01*
X21938010Y-11937116D01*
X21908767Y-11942933D01*
X21842451Y-11987245D01*
X21842445Y-11987251D01*
X21798133Y-12053567D01*
X21786500Y-12112053D01*
X21786500Y-12640200D01*
X21765935Y-12696701D01*
X21713864Y-12726765D01*
X21698600Y-12728100D01*
X20523628Y-12728100D01*
X20467127Y-12707535D01*
X20461473Y-12702355D01*
X16807642Y-9048524D01*
X16807642Y-9048523D01*
X16732481Y-8973361D01*
X16732478Y-8973359D01*
X16640423Y-8920211D01*
X16640420Y-8920210D01*
X16640418Y-8920209D01*
X16618725Y-8914397D01*
X16618724Y-8914396D01*
X16618724Y-8914397D01*
X16537748Y-8892699D01*
X16431452Y-8892699D01*
X16426070Y-8892699D01*
X16426054Y-8892700D01*
X6891146Y-8892700D01*
X6891130Y-8892699D01*
X6885748Y-8892699D01*
X6779452Y-8892699D01*
X6698479Y-8914396D01*
X6698475Y-8914397D01*
X6676778Y-8920210D01*
X6584720Y-8973360D01*
X5518960Y-10039120D01*
X5465811Y-10131177D01*
X5465811Y-10131178D01*
X5438299Y-10233852D01*
X5438299Y-10347227D01*
X5438300Y-10347240D01*
X5438300Y-10545684D01*
X5417735Y-10602185D01*
X5399235Y-10618770D01*
X5255217Y-10714999D01*
X5126999Y-10843217D01*
X5026264Y-10993978D01*
X4956873Y-11161499D01*
X4956872Y-11161503D01*
X4921500Y-11339340D01*
X4222500Y-11339340D01*
X4222500Y-11339339D01*
X4187126Y-11161500D01*
X4117737Y-10993980D01*
X4016999Y-10843215D01*
X3888785Y-10715001D01*
X3738020Y-10614263D01*
X3676139Y-10588631D01*
X3570500Y-10544873D01*
X3570496Y-10544872D01*
X3436815Y-10518282D01*
X3392661Y-10509500D01*
X3211339Y-10509500D01*
X3172060Y-10517312D01*
X3033503Y-10544872D01*
X3033499Y-10544873D01*
X2865978Y-10614264D01*
X2715217Y-10714999D01*
X2586999Y-10843217D01*
X2486264Y-10993978D01*
X2416873Y-11161499D01*
X2416872Y-11161503D01*
X2381500Y-11339340D01*
X635500Y-11339340D01*
X635500Y-705600D01*
X656065Y-649099D01*
X708136Y-619035D01*
X723400Y-617700D01*
X9139897Y-617700D01*
X9196398Y-638265D01*
G37*
%TD.AperFunction*%
%TD*%
M02*
