<?xml version="1.0" encoding="UTF-8" standalone="no"?>
<!-- Generator: Fusion 360, Shaper Origin Export Add-In, Version 1.8.0  -->

<svg
   shaper:fusionaddin="version:1.8.0"
   width="210mm"
   height="297mm"
   version="1.1"
   x="0cm"
   y="0cm"
   viewBox="0 0 21 29.699999"
   enable-background="new 0 0 11.36 7.3"
   xml:space="preserve"
   id="svg11"
   sodipodi:docname="Lid_Faces.svg"
   inkscape:version="1.4.2 (f4327f4, 2025-05-13)"
   xmlns:inkscape="http://www.inkscape.org/namespaces/inkscape"
   xmlns:sodipodi="http://sodipodi.sourceforge.net/DTD/sodipodi-0.dtd"
   xmlns="http://www.w3.org/2000/svg"
   xmlns:svg="http://www.w3.org/2000/svg"
   xmlns:shaper="http://www.shapertools.com/namespaces/shaper"><defs
     id="defs11"><rect
       x="155.68893"
       y="234.01689"
       width="206.45708"
       height="101.05276"
       id="rect8-0" /><rect
       x="155.68893"
       y="234.01689"
       width="206.45708"
       height="101.05276"
       id="rect8-0-0" /></defs><sodipodi:namedview
     id="namedview11"
     pagecolor="#ffffff"
     bordercolor="#666666"
     borderopacity="1.0"
     inkscape:showpageshadow="2"
     inkscape:pageopacity="0.0"
     inkscape:pagecheckerboard="0"
     inkscape:deskcolor="#d1d1d1"
     inkscape:document-units="cm"
     inkscape:zoom="0.73122856"
     inkscape:cx="16.410738"
     inkscape:cy="647.54035"
     inkscape:window-width="1920"
     inkscape:window-height="1009"
     inkscape:window-x="1912"
     inkscape:window-y="-8"
     inkscape:window-maximized="1"
     inkscape:current-layer="svg11"
     showguides="true"
     showgrid="false"><sodipodi:guide
       position="6.2054529,16.395663"
       orientation="0,-1"
       id="guide11"
       inkscape:locked="false" /></sodipodi:namedview><path
     d="m 3.3726051,5.6519074 a 0.2,0.2 0 0 0 -0.2,0.2 v 6.8999996 a 0.2,0.2 0 0 0 0.2,0.2 H 14.332605 a 0.2,0.2 0 0 0 0.2,-0.2 V 5.8519074 a 0.2,0.2 0 0 0 -0.2,-0.2 z"
     fill="rgb(0,0,0)"
     stroke-linecap="round"
     stroke-linejoin="round"
     id="path1"
     style="fill:none;stroke-width:0.01;stroke-dasharray:none" /><path
     d="m 10.433102,10.643624 a 0.12,0.12 0 0 1 -0.12,0.12 h -0.16 a 0.12,0.12 0 0 1 -0.12,-0.12 V 7.8376243 a 0.12,0.12 0 0 1 0.12,-0.12 h 0.16 a 0.12,0.12 0 0 1 0.12,0.12 z"
     fill="#ffffff"
     stroke="#000000"
     stroke-width="0.0010cm"
     stroke-linecap="round"
     stroke-linejoin="round"
     id="path2"
     style="stroke-width:0.01;stroke-dasharray:none" /><path
     d="m 11.589785,9.0585266 a 0.3,0.3 0 0 1 0.3,-0.3 h 0.1 a 0.3,0.3 0 0 1 0.3,0.3 v 0.4 a 0.3,0.3 0 0 1 -0.3,0.3 h -0.1 a 0.3,0.3 0 0 1 -0.3,-0.3 z"
     fill="#ffffff"
     stroke="#000000"
     stroke-width="0.0010cm"
     stroke-linecap="round"
     stroke-linejoin="round"
     id="path3"
     style="stroke-width:0.01;stroke-dasharray:none" /><path
     d="m 11.077605,8.2458315 a 0.15,0.15 0 1 0 0.3,0 0.15,0.15 0 1 0 -0.3,0 z"
     fill="#ffffff"
     stroke="#000000"
     stroke-width="0.0010cm"
     stroke-linecap="round"
     stroke-linejoin="round"
     id="path4"
     style="stroke-width:0.01;stroke-dasharray:none" /><path
     d="m 12.477605,10.245832 a 0.15,0.15 0 1 0 0.3,0 0.15,0.15 0 1 0 -0.3,0 z"
     fill="#ffffff"
     stroke="#000000"
     stroke-width="0.0010cm"
     stroke-linecap="round"
     stroke-linejoin="round"
     id="path5"
     style="stroke-width:0.01;stroke-dasharray:none" /><path
     d="m 3.6531021,11.763624 a 0.12,0.12 0 0 1 -0.12,-0.12 V 6.8376243 a 0.12,0.12 0 0 1 0.12,-0.12 h 0.16 a 0.12,0.12 0 0 1 0.12,0.12 v 4.8059997 a 0.12,0.12 0 0 1 -0.12,0.12 z"
     fill="#ffffff"
     stroke="#000000"
     stroke-width="0.0010cm"
     stroke-linecap="round"
     stroke-linejoin="round"
     id="path6"
     style="stroke-width:0.01;stroke-dasharray:none" /><path
     d="m 13.903102,11.763624 a 0.12,0.12 0 0 1 -0.12,-0.12 V 6.8376243 a 0.12,0.12 0 0 1 0.12,-0.12 h 0.16 a 0.12,0.12 0 0 1 0.12,0.12 v 4.8059997 a 0.12,0.12 0 0 1 -0.12,0.12 z"
     fill="#ffffff"
     stroke="#000000"
     stroke-width="0.0010cm"
     stroke-linecap="round"
     stroke-linejoin="round"
     id="path7"
     style="stroke-width:0.01;stroke-dasharray:none" /><path
     d="m 12.993255,11.599508 a 0.18,0.18 0 1 0 0.359999,0 0.18,0.18 0 1 0 -0.359999,0 z"
     fill="#ffffff"
     stroke="#000000"
     stroke-width="0.0010cm"
     stroke-linecap="round"
     stroke-linejoin="round"
     id="path8"
     style="stroke-width:0.01;stroke-dasharray:none" /><path
     d="m 4.2932541,11.599508 a 0.1800002,0.1800002 0 1 0 0.3600004,0 0.1800002,0.1800002 0 1 0 -0.3600004,0 z"
     fill="#ffffff"
     stroke="#000000"
     stroke-width="0.0010cm"
     stroke-linecap="round"
     stroke-linejoin="round"
     id="path9"
     style="stroke-width:0.01;stroke-dasharray:none" /><path
     d="m 4.2932541,7.1995083 a 0.1800002,0.1800002 0 1 0 0.3600004,0 0.1800002,0.1800002 0 1 0 -0.3600004,0 z"
     fill="#ffffff"
     stroke="#000000"
     stroke-width="0.0010cm"
     stroke-linecap="round"
     stroke-linejoin="round"
     id="path10"
     style="stroke-width:0.01;stroke-dasharray:none" /><path
     d="m 12.993255,7.1995083 a 0.18,0.18 0 1 0 0.359999,0 0.18,0.18 0 1 0 -0.359999,0 z"
     fill="#ffffff"
     stroke="#000000"
     stroke-width="0.0010cm"
     stroke-linecap="round"
     stroke-linejoin="round"
     id="path11"
     style="stroke-width:0.01;stroke-dasharray:none" /><rect
     style="fill:none;fill-opacity:0.513043;stroke:#000000;stroke-width:0.00992322;stroke-linecap:round;stroke-dasharray:none"
     id="rect11"
     width="11.325479"
     height="7.300077"
     x="-14.514551"
     y="-12.933854"
     ry="0.2046842"
     rx="0.2046842"
     transform="scale(-1)" /><text
     xml:space="preserve"
     transform="matrix(-0.02645833,0,0,0.02645833,14.393281,2.931384)"
     id="text8-9"
     style="font-size:21.3333px;line-height:1.25;font-family:'1CamBam_Stick_2';-inkscape-font-specification:'1CamBam_Stick_2';text-align:end;white-space:pre;shape-inside:url(#rect8-0);display:inline;fill:#ff0000;stroke:#ff0000;stroke-width:0.245669;stroke-dasharray:none"
     x="-31.528009"
     y="0"><tspan
       x="209.12117"
       y="253.75088"
       id="tspan9"><tspan
         style="font-family:Arial;-inkscape-font-specification:Arial;text-align:center;text-anchor:middle"
         id="tspan8">ESPHome</tspan></tspan></text><text
     xml:space="preserve"
     transform="matrix(-0.02645833,0,0,0.02645833,14.767004,3.6117956)"
     id="text8-9-9"
     style="font-size:21.3333px;line-height:1.25;font-family:'1CamBam_Stick_2';-inkscape-font-specification:'1CamBam_Stick_2';text-align:end;white-space:pre;shape-inside:url(#rect8-0-0);display:inline;fill:#ff0000;stroke:#ff0000;stroke-width:0.245669;stroke-dasharray:none"
     x="-31.528009"
     y="0"><tspan
       x="223.35032"
       y="253.75088"
       id="tspan11"><tspan
         style="font-family:Arial;-inkscape-font-specification:Arial;text-align:center;text-anchor:middle"
         id="tspan10">Monitor</tspan></tspan></text><rect
     style="fill:none;fill-opacity:0.513043;stroke:#008000;stroke-width:0.00619167;stroke-linecap:round"
     id="rect1"
     width="4.9938083"
     height="1.9938084"
     x="4.2004008"
     y="8.8036127" /><rect
     style="fill:none;fill-opacity:0.513043;stroke:#008000;stroke-width:0.00619167;stroke-linecap:round"
     id="rect1-9"
     width="2.0991366"
     height="2.7898431"
     x="10.89121"
     y="7.8224745" /><text
     xml:space="preserve"
     style="font-size:0.564443px;line-height:1.25;font-family:'Segoe UI';-inkscape-font-specification:'Segoe UI, Normal';fill:#008000;stroke-width:0.0264583"
     x="3.0702627"
     y="13.918525"
     id="text2"><tspan
       sodipodi:role="line"
       id="tspan2"
       style="fill:#008000;stroke-width:0.0264583"
       x="3.0702627"
       y="13.918525">Green elements are for information only - do not print</tspan><tspan
       sodipodi:role="line"
       style="fill:#008000;stroke-width:0.0264583"
       x="3.0702627"
       y="14.624079"
       id="tspan7">Pico and SHT40 module outlines</tspan><tspan
       sodipodi:role="line"
       style="fill:#008000;stroke-width:0.0264583"
       x="3.0702627"
       y="15.329632"
       id="tspan6">Red is engraved on the underside of the lid.</tspan></text></svg>
