<?xml version="1.0" encoding="UTF-8" standalone="no"?>
<!-- Generator: Fusion 360, Shaper Origin Export Add-In, Version 1.8.0  -->

<svg
   shaper:fusionaddin="version:1.8.0"
   width="210mm"
   height="297mm"
   version="1.1"
   x="0cm"
   y="0cm"
   viewBox="0 0 21 29.699999"
   enable-background="new 0 0 11.36 7.3"
   xml:space="preserve"
   id="svg11"
   sodipodi:docname="case lid.svg"
   inkscape:version="1.4.2 (f4327f4, 2025-05-13)"
   xmlns:inkscape="http://www.inkscape.org/namespaces/inkscape"
   xmlns:sodipodi="http://sodipodi.sourceforge.net/DTD/sodipodi-0.dtd"
   xmlns="http://www.w3.org/2000/svg"
   xmlns:svg="http://www.w3.org/2000/svg"
   xmlns:shaper="http://www.shapertools.com/namespaces/shaper"><defs
     id="defs11"><rect
       x="155.68893"
       y="234.01689"
       width="206.45708"
       height="101.05276"
       id="rect8-0" /><rect
       x="155.68893"
       y="234.01689"
       width="206.45708"
       height="101.05276"
       id="rect8-0-0" /></defs><sodipodi:namedview
     id="namedview11"
     pagecolor="#ffffff"
     bordercolor="#666666"
     borderopacity="1.0"
     inkscape:showpageshadow="2"
     inkscape:pageopacity="0.0"
     inkscape:pagecheckerboard="0"
     inkscape:deskcolor="#d1d1d1"
     inkscape:document-units="cm"
     inkscape:zoom="2.0682267"
     inkscape:cx="201.1385"
     inkscape:cy="430.07859"
     inkscape:window-width="1920"
     inkscape:window-height="1009"
     inkscape:window-x="1912"
     inkscape:window-y="-8"
     inkscape:window-maximized="1"
     inkscape:current-layer="svg11"
     showguides="true"
     showgrid="false"><sodipodi:guide
       position="6.2054529,16.395663"
       orientation="0,-1"
       id="guide11"
       inkscape:locked="false" /><sodipodi:guide
       position="8.0722331,18.474351"
       orientation="0,-1"
       id="guide8"
       inkscape:locked="false" /><sodipodi:guide
       position="7.2407035,22.171459"
       orientation="0,-1"
       id="guide9"
       inkscape:locked="false" /></sodipodi:namedview><path
     d="M 3.3918118,5.6647001 A 0.19929903,0.19929903 0 0 0 3.1925127,5.8639992 v 6.8758158 a 0.19929903,0.19929903 0 0 0 0.1992991,0.199299 H 14.313398 a 0.19929903,0.19929903 0 0 0 0.199299,-0.199299 V 5.8639992 A 0.19929903,0.19929903 0 0 0 14.313398,5.6647001 Z"
     fill="rgb(0,0,0)"
     stroke-linecap="round"
     stroke-linejoin="round"
     id="path1"
     style="fill:none;stroke-width:0.01;stroke-dasharray:none" /><path
     d="m 10.433102,11.078712 a 0.12,0.14545113 0 0 1 -0.12,0.145451 h -0.16 a 0.12,0.14545113 0 0 1 -0.12,-0.145451 V 7.67758 a 0.12,0.14545113 0 0 1 0.12,-0.145451 h 0.16 a 0.12,0.14545113 0 0 1 0.12,0.145451 z"
     fill="#ffffff"
     stroke="#000000"
     stroke-width="0.0010cm"
     stroke-linecap="round"
     stroke-linejoin="round"
     id="path2"
     style="stroke-width:0.01;stroke-dasharray:none" /><path
     d="m 11.50385,9.0096276 a 0.37365906,0.37334781 0 0 1 0.373659,-0.3733478 h 0.124553 a 0.37365906,0.37334781 0 0 1 0.373659,0.3733478 V 9.5074247 A 0.37365906,0.37334781 0 0 1 12.002062,9.8807725 H 11.877509 A 0.37365906,0.37334781 0 0 1 11.50385,9.5074247 Z"
     fill="#ffffff"
     stroke="#000000"
     stroke-width="0.0010cm"
     stroke-linecap="round"
     stroke-linejoin="round"
     id="path3"
     style="stroke-width:0.00999999;stroke-dasharray:none" /><path
     d="m 11.095697,8.2458315 a 0.15,0.15 0 1 0 0.3,0 0.15,0.15 0 1 0 -0.3,0 z"
     fill="#ffffff"
     stroke="#000000"
     stroke-width="0.0010cm"
     stroke-linecap="round"
     stroke-linejoin="round"
     id="path4"
     style="stroke-width:0.01;stroke-dasharray:none" /><path
     d="m 12.459513,10.245832 a 0.15,0.15 0 1 0 0.3,0 0.15,0.15 0 1 0 -0.3,0 z"
     fill="#ffffff"
     stroke="#000000"
     stroke-width="0.0010cm"
     stroke-linecap="round"
     stroke-linejoin="round"
     id="path5"
     style="stroke-width:0.01;stroke-dasharray:none" /><path
     d="m 3.7589355,11.226328 a 0.12,0.08805612 0 0 1 -0.12,-0.08806 V 7.6116245 a 0.12,0.08805612 0 0 1 0.12,-0.088056 h 0.16 a 0.12,0.08805612 0 0 1 0.12,0.088056 v 3.5266475 a 0.12,0.08805612 0 0 1 -0.12,0.08806 z"
     fill="#ffffff"
     stroke="#000000"
     stroke-width="0.0010cm"
     stroke-linecap="round"
     stroke-linejoin="round"
     id="path6"
     style="stroke-width:0.01;stroke-dasharray:none" /><path
     d="m 13.797268,11.226328 a 0.12,0.08805612 0 0 1 -0.12,-0.08806 V 7.6116245 a 0.12,0.08805612 0 0 1 0.12,-0.088056 h 0.16 a 0.12,0.08805612 0 0 1 0.12,0.088056 v 3.5266475 a 0.12,0.08805612 0 0 1 -0.12,0.08806 z"
     fill="#ffffff"
     stroke="#000000"
     stroke-width="0.0010cm"
     stroke-linecap="round"
     stroke-linejoin="round"
     id="path7"
     style="stroke-width:0.01;stroke-dasharray:none" /><path
     d="m 12.993255,11.599508 a 0.18,0.18 0 1 0 0.359999,0 0.18,0.18 0 1 0 -0.359999,0 z"
     fill="#ffffff"
     stroke="#000000"
     stroke-width="0.0010cm"
     stroke-linecap="round"
     stroke-linejoin="round"
     id="path8"
     style="stroke-width:0.01;stroke-dasharray:none" /><path
     d="m 4.2932541,11.599508 a 0.1800002,0.1800002 0 1 0 0.3600004,0 0.1800002,0.1800002 0 1 0 -0.3600004,0 z"
     fill="#ffffff"
     stroke="#000000"
     stroke-width="0.0010cm"
     stroke-linecap="round"
     stroke-linejoin="round"
     id="path9"
     style="stroke-width:0.01;stroke-dasharray:none" /><path
     d="m 4.2932541,7.1995083 a 0.1800002,0.1800002 0 1 0 0.3600004,0 0.1800002,0.1800002 0 1 0 -0.3600004,0 z"
     fill="#ffffff"
     stroke="#000000"
     stroke-width="0.0010cm"
     stroke-linecap="round"
     stroke-linejoin="round"
     id="path10"
     style="stroke-width:0.01;stroke-dasharray:none" /><path
     d="m 12.993255,7.1995083 a 0.18,0.18 0 1 0 0.359999,0 0.18,0.18 0 1 0 -0.359999,0 z"
     fill="#ffffff"
     stroke="#000000"
     stroke-width="0.0010cm"
     stroke-linecap="round"
     stroke-linejoin="round"
     id="path11"
     style="stroke-width:0.01;stroke-dasharray:none" /><g
     id="text8-9"
     style="opacity:1"
     transform="matrix(-0.02645833,0,0,0.02645833,14.725893,0.91880384)"><path
       style="font-size:21.3333px;line-height:1.25;font-family:Arial;-inkscape-font-specification:Arial;text-align:center;baseline-shift:baseline;text-anchor:middle;white-space:pre;display:inline;overflow:visible;vector-effect:none;fill:#ff0000;enable-background:accumulate;stop-color:#000000;stop-opacity:1"
       d="m 210.80867,253.75088 v -15.27081 h 11.04165 v 1.80208 h -9.02082 v 4.67708 h 8.4479 v 1.79166 h -8.4479 v 5.19791 h 9.37499 v 1.80208 z m 13.49998,-4.90624 1.90625,-0.16667 q 0.13541,1.14583 0.62499,1.88542 0.5,0.72916 1.54167,1.18749 1.04166,0.44792 2.34374,0.44792 1.15625,0 2.04167,-0.34375 0.88541,-0.34375 1.3125,-0.9375 0.4375,-0.60416 0.4375,-1.3125 0,-0.71875 -0.41667,-1.24999 -0.41667,-0.54167 -1.375,-0.90625 -0.61458,-0.23959 -2.71874,-0.73959 -2.10417,-0.51041 -2.94792,-0.95833 -1.09374,-0.57291 -1.63541,-1.41666 -0.53125,-0.85417 -0.53125,-1.90625 0,-1.15625 0.65625,-2.15625 0.65625,-1.01041 1.91666,-1.53124 1.26042,-0.52084 2.80208,-0.52084 1.69792,0 2.98958,0.55209 1.30208,0.54166 2,1.60416 0.69791,1.0625 0.75,2.40625 l -1.9375,0.14583 q -0.15625,-1.44791 -1.0625,-2.1875 -0.89583,-0.73958 -2.65624,-0.73958 -1.83333,0 -2.67708,0.67708 -0.83334,0.66667 -0.83334,1.61459 0,0.82291 0.59375,1.35416 0.58334,0.53125 3.04167,1.09375 2.46874,0.55208 3.38541,0.96875 1.33333,0.61458 1.96874,1.56249 0.63542,0.9375 0.63542,2.16667 0,1.21875 -0.69792,2.30208 -0.69791,1.07291 -2.01041,1.67708 -1.30208,0.59375 -2.9375,0.59375 -2.07291,0 -3.47916,-0.60417 -1.39583,-0.60416 -2.19791,-1.8125 -0.79167,-1.21874 -0.83333,-2.74999 z m 14.91664,4.90624 v -15.27081 h 5.76041 q 1.52083,0 2.32291,0.14583 1.125,0.1875 1.88542,0.71875 0.76041,0.52084 1.21874,1.46875 0.46875,0.94792 0.46875,2.08333 0,1.94791 -1.23958,3.30208 -1.23958,1.34375 -4.47916,1.34375 h -3.91666 v 6.20832 z m 2.02083,-8.0104 h 3.94791 q 1.95833,0 2.78125,-0.72917 0.82291,-0.72916 0.82291,-2.05208 0,-0.95833 -0.48958,-1.63541 -0.47917,-0.6875 -1.27083,-0.90625 -0.51042,-0.13542 -1.88541,-0.13542 h -3.90625 z m 12.27081,8.0104 v -15.27081 h 2.02083 v 6.27082 h 7.93749 v -6.27082 h 2.02083 v 15.27081 h -2.02083 v -7.19791 h -7.93749 v 7.19791 z m 14.40623,-5.53124 q 0,-3.07291 1.70833,-4.55208 1.42708,-1.22916 3.47916,-1.22916 2.28125,0 3.72917,1.5 1.44791,1.48958 1.44791,4.12499 0,2.13541 -0.64583,3.36458 -0.63542,1.21875 -1.86458,1.89583 -1.21875,0.67708 -2.66667,0.67708 -2.32291,0 -3.76041,-1.48958 -1.42708,-1.48958 -1.42708,-4.29166 z m 1.92708,0 q 0,2.125 0.92709,3.18749 0.92708,1.05209 2.33332,1.05209 1.39584,0 2.32292,-1.0625 0.92708,-1.0625 0.92708,-3.23958 0,-2.05208 -0.9375,-3.10416 -0.92708,-1.0625 -2.3125,-1.0625 -1.40624,0 -2.33332,1.05208 -0.92709,1.05208 -0.92709,3.17708 z m 10.6354,5.53124 V 242.6884 h 1.67708 v 1.55208 q 0.52083,-0.8125 1.38542,-1.30208 0.86458,-0.5 1.96874,-0.5 1.22917,0 2.01042,0.51041 0.79166,0.51042 1.11458,1.42709 1.3125,-1.9375 3.41666,-1.9375 1.64583,0 2.53125,0.91666 0.88541,0.90625 0.88541,2.80208 v 7.59374 h -1.86458 v -6.96874 q 0,-1.125 -0.1875,-1.61458 -0.17708,-0.5 -0.65625,-0.80208 -0.47916,-0.30208 -1.125,-0.30208 -1.16666,0 -1.93749,0.78124 -0.77084,0.77084 -0.77084,2.47917 v 6.42707 h -1.87499 v -7.18749 q 0,-1.25 -0.45833,-1.875 -0.45834,-0.62499 -1.5,-0.62499 -0.79167,0 -1.46875,0.41666 -0.66667,0.41667 -0.96875,1.21875 -0.30208,0.80208 -0.30208,2.3125 v 5.73957 z m 25.34371,-3.56249 1.9375,0.23958 q -0.45833,1.69791 -1.69792,2.63541 -1.23958,0.9375 -3.16666,0.9375 -2.42708,0 -3.85416,-1.48958 -1.41666,-1.5 -1.41666,-4.19791 0,-2.79166 1.4375,-4.33333 1.43749,-1.54166 3.72916,-1.54166 2.21874,0 3.62499,1.51041 1.40625,1.51042 1.40625,4.25 0,0.16666 -0.0104,0.49999 h -8.24999 q 0.10417,1.82292 1.03125,2.79167 0.92709,0.96875 2.3125,0.96875 1.03125,0 1.76041,-0.54167 0.72917,-0.54167 1.15625,-1.72916 z m -6.15624,-3.03125 h 6.17707 q -0.12499,-1.39583 -0.70833,-2.09375 -0.89583,-1.08333 -2.32291,-1.08333 -1.29166,0 -2.17708,0.86458 -0.875,0.86459 -0.96875,2.3125 z"
       id="path12" /><path
       style="font-size:21.3333px;line-height:1.25;font-family:Arial;-inkscape-font-specification:Arial;text-align:center;baseline-shift:baseline;text-anchor:middle;white-space:pre;display:inline;overflow:visible;vector-effect:none;fill:#ff0000;enable-background:accumulate;stop-color:#000000;stop-opacity:1"
       d="m 230.26758,238.09766 c -1.04161,0 -1.99299,0.17532 -2.84961,0.52929 -0.85923,0.35506 -1.52084,0.88248 -1.97266,1.57813 -0.44941,0.68482 -0.67578,1.42858 -0.67578,2.22265 0,0.72207 0.18272,1.38206 0.54883,1.97071 l 0.002,0.002 c 0.37459,0.58349 0.93791,1.06941 1.68164,1.45898 0.58279,0.30939 1.56944,0.62743 2.97657,0.96875 1.40109,0.33294 2.31066,0.58138 2.70312,0.73438 v 0.002 c 0.62552,0.23797 1.06411,0.52964 1.32227,0.86524 v 0.002 c 0.26117,0.33299 0.39062,0.7184 0.39062,1.17383 0,0.44694 -0.13577,0.85593 -0.41406,1.24023 -0.26779,0.37229 -0.68357,0.67159 -1.25781,0.89453 -0.57347,0.22264 -1.23939,0.33594 -1.99805,0.33594 -0.85327,0 -1.61601,-0.1467 -2.29297,-0.4375 h -0.002 c -0.67824,-0.29869 -1.17092,-0.68172 -1.48828,-1.14453 -0.31264,-0.47287 -0.51695,-1.08099 -0.60547,-1.83008 l -0.0137,-0.11914 -2.13868,0.1875 0.002,0.11524 c 0.0283,1.04109 0.31347,1.98307 0.85351,2.81445 0.54766,0.82505 1.30188,1.4462 2.25196,1.85742 0.95761,0.41142 2.13347,0.61524 3.52734,0.61524 1.10514,0 2.10256,-0.20158 2.98828,-0.60547 h 0.002 c 0.89258,-0.41087 1.58183,-0.98672 2.06055,-1.72266 h 0.002 c 0.47664,-0.73985 0.7168,-1.53319 0.7168,-2.36914 0,-0.84061 -0.21865,-1.58874 -0.65625,-2.23438 -0.4389,-0.65474 -1.11558,-1.1888 -2.01953,-1.60546 -0.63033,-0.28652 -1.76107,-0.60778 -3.41016,-0.97657 -1.63275,-0.37359 -2.64498,-0.75359 -2.98633,-1.06445 v -0.002 c -0.37234,-0.33315 -0.55273,-0.74266 -0.55273,-1.26172 0,-0.59595 0.25373,-1.09283 0.78711,-1.51953 0.52863,-0.42421 1.39251,-0.65039 2.59961,-0.65039 1.1564,0 2.01137,0.24498 2.57812,0.71289 h 0.002 c 0.57642,0.47042 0.91589,1.16316 1.01758,2.10547 l 0.0117,0.11718 2.17579,-0.16211 -0.006,-0.11914 c -0.0355,-0.9158 -0.29199,-1.74172 -0.76954,-2.46875 -0.47926,-0.72962 -1.16752,-1.28133 -2.05468,-1.65039 -0.879,-0.3757 -1.89185,-0.56054 -3.03711,-0.56054 z m 0,0.24414 c 1.11863,0 2.09818,0.18255 2.9414,0.54297 0.84895,0.35315 1.49402,0.87155 1.94532,1.55859 0.43076,0.6558 0.64351,1.40474 0.69531,2.22851 l -1.68945,0.125 c -0.12414,-0.92446 -0.47319,-1.65773 -1.07618,-2.15039 -0.62768,-0.5182 -1.54356,-0.76757 -2.73437,-0.76757 -1.23734,0 -2.15754,0.22455 -2.75391,0.70312 -0.57773,0.46219 -0.8789,1.043 -0.8789,1.71094 0,0.57815 0.21544,1.07013 0.63476,1.44531 0.43645,0.39747 1.45068,0.74469 3.09571,1.12109 l 0.002,0.002 c 1.64168,0.36712 2.76722,0.69002 3.35937,0.95898 0.87382,0.40278 1.50966,0.9104 1.91797,1.51953 h 0.002 c 0.40962,0.60437 0.61328,1.29938 0.61328,2.09766 0,0.78905 -0.22382,1.53174 -0.67774,2.23633 -0.45183,0.6946 -1.10156,1.23812 -1.95898,1.63281 -0.85039,0.38778 -1.81131,0.58203 -2.88672,0.58203 -1.37001,0 -2.5123,-0.19961 -3.42969,-0.59375 -0.91103,-0.39432 -1.62275,-0.98151 -2.14453,-1.76758 -0.49383,-0.76022 -0.73358,-1.6225 -0.7793,-2.57226 l 1.66797,-0.14649 c 0.10005,0.717 0.28608,1.33978 0.60547,1.82227 v 0.002 c 0.34905,0.50902 0.88396,0.91817 1.59375,1.23047 h 0.002 c 0.71151,0.30595 1.50849,0.45899 2.39063,0.45899 0.78301,0 1.47884,-0.11782 2.08594,-0.35352 0.6063,-0.23539 1.06748,-0.55914 1.36914,-0.97852 0.30504,-0.42124 0.46094,-0.88725 0.46093,-1.38476 10e-6,-0.5029 -0.14897,-0.95085 -0.44335,-1.32617 -0.29741,-0.38663 -0.77549,-0.69718 -1.42774,-0.94532 -0.42698,-0.16645 -1.32992,-0.4104 -2.73437,-0.74414 -1.39844,-0.33922 -2.37576,-0.65942 -2.91797,-0.94726 h -0.002 c -0.71458,-0.37431 -1.24025,-0.83349 -1.58789,-1.375 -0.34154,-0.54982 -0.51172,-1.1598 -0.51172,-1.83985 0,-0.74759 0.20919,-1.43938 0.63477,-2.08789 v -0.002 c 0.42319,-0.65157 1.04001,-1.14499 1.86133,-1.48437 0.82394,-0.34048 1.74192,-0.51172 2.75586,-0.51172 z m -19.58203,0.0156 v 15.51563 h 11.64257 v -2.04688 h -9.375 v -4.95312 h 8.44727 v -2.03711 h -8.44727 v -4.43164 h 9.01954 v -2.04688 z m 28.41601,0 v 15.51563 h 2.26758 v -6.20703 h 3.79297 c 2.1767,0 3.70777,-0.44974 4.57031,-1.38477 0.8462,-0.92442 1.27149,-2.0601 1.27149,-3.38477 0,-0.77384 -0.15933,-1.4873 -0.48047,-2.13671 -0.31331,-0.64797 -0.73366,-1.15527 -1.25977,-1.51563 -0.52406,-0.36612 -1.17068,-0.61079 -1.93359,-0.73828 -0.54817,-0.0997 -1.32594,-0.14844 -2.34375,-0.14844 z m 14.29297,0 v 15.51563 h 2.26563 v -7.19727 h 7.6914 v 7.19727 h 2.26758 v -15.51563 h -2.26758 v 6.27149 h -7.6914 v -6.27149 z m -42.46289,0.2461 h 10.79492 v 1.55664 h -9.01953 v 4.92187 h 8.44727 v 1.54688 h -8.44727 v 5.44336 h 9.375 v 1.55664 h -11.15039 z m 28.41602,0 h 5.63867 c 1.00996,0 1.7795,0.0478 2.30078,0.14257 h 0.002 c 0.73587,0.12265 1.34479,0.35746 1.83399,0.69922 h 0.002 c 0.48777,0.3341 0.87993,0.80597 1.17773,1.42188 0.30387,0.61448 0.45508,1.28926 0.45508,2.02929 0,1.27256 -0.40045,2.33761 -1.20703,3.21875 -0.79023,0.85664 -2.24593,1.30469 -4.38867,1.30469 h -4.03906 v 6.20899 h -1.77539 z m 14.29296,0 h 1.77344 v 6.26953 h 8.1836 v -6.26953 h 1.77539 v 15.02539 h -1.77539 v -7.19922 h -8.1836 v 7.19922 h -1.77344 z m -12.51757,1.55664 v 5.70312 h 4.07031 c 1.3208,0 2.27847,-0.24158 2.86328,-0.75976 0.57621,-0.51056 0.86523,-1.23712 0.86523,-2.14454 0,-0.6598 -0.17116,-1.23334 -0.51367,-1.70703 -0.33393,-0.47804 -0.78532,-0.80044 -1.33789,-0.95312 h -0.002 c -0.36671,-0.0973 -0.99532,-0.13867 -1.91602,-0.13867 z m 0.24609,0.24414 h 3.7832 c 0.91263,0 1.53966,0.0495 1.85352,0.13281 v -0.002 c 0.50206,0.13873 0.89637,0.42206 1.20117,0.85937 h 0.002 v 0.002 c 0.31027,0.42909 0.4668,0.94454 0.4668,1.5625 0,0.85648 -0.26024,1.49929 -0.78125,1.96094 -0.51241,0.45404 -1.41086,0.69727 -2.70117,0.69727 h -3.82422 z m 31.74219,1.91211 c -1.39258,0 -2.5871,0.41937 -3.56055,1.25781 -1.17071,1.01367 -1.75,2.57316 -1.75,4.64453 0,1.88891 0.48293,3.35612 1.46094,4.37695 0.98129,1.01685 2.27475,1.52735 3.84961,1.52735 0.98376,0 1.89451,-0.23061 2.72461,-0.69141 0.83888,-0.4621 1.47975,-1.11424 1.91406,-1.94727 0.44418,-0.84537 0.66016,-1.98588 0.66016,-3.42187 0,-1.77944 -0.49192,-3.18997 -1.48243,-4.20898 -0.98766,-1.0232 -2.26865,-1.53711 -3.8164,-1.53711 z m 12.40625,0 c -0.75465,0 -1.43525,0.17094 -2.03125,0.51562 -0.49802,0.28223 -0.86843,0.68883 -1.20117,1.12891 v -1.39453 h -1.92188 v 11.30664 h 2.12109 v -5.86133 c 0,-0.99876 0.10055,-1.75861 0.29297,-2.26953 0.19336,-0.5134 0.49845,-0.89478 0.91993,-1.15821 0.43271,-0.26588 0.89676,-0.39843 1.40234,-0.39843 0.66987,0 1.12303,0.19529 1.40234,0.57617 0.28246,0.38517 0.4336,0.98246 0.4336,1.80078 v 7.31055 h 2.12109 v -6.54883 c 0,-1.12041 0.25256,-1.91077 0.73438,-2.39258 0.49212,-0.49877 1.1012,-0.74609 1.85156,-0.74609 0.41141,0 0.76021,0.0951 1.05859,0.2832 0.29936,0.18872 0.49646,0.43243 0.60547,0.74023 l 0.002,0.002 c 0.11376,0.29704 0.17969,0.82713 0.17969,1.57031 v 7.0918 h 2.10938 v -7.7168 c 0,-1.28301 -0.29973,-2.25193 -0.91993,-2.88672 -0.6167,-0.63846 -1.49911,-0.95312 -2.61914,-0.95312 -1.38912,0 -2.52581,0.65901 -3.40625,1.88476 -0.23067,-0.55468 -0.55879,-1.03323 -1.05859,-1.35547 -0.54553,-0.3564 -1.23972,-0.52929 -2.07617,-0.52929 z m 17.28125,0 c -1.55533,0 -2.83978,0.52849 -3.82031,1.58007 -0.98356,1.05483 -1.47071,2.53383 -1.47071,4.41602 0,1.82011 0.48149,3.25648 1.45117,4.2832 0.97546,1.01818 2.30018,1.52735 3.94336,1.52735 1.30464,0 2.38943,-0.31747 3.24024,-0.96094 0.84904,-0.64213 1.43085,-1.54782 1.74219,-2.70117 l 0.0371,-0.13672 -1.92382,-0.23828 0.006,-0.0195 h -0.16016 -0.0137 l -0.0137,0.22461 -0.10352,-0.14454 c -0.2792,0.77631 -0.65244,1.32954 -1.11328,1.67188 -0.46385,0.34458 -1.02151,0.51758 -1.6875,0.51758 -0.89498,0 -1.62573,-0.30594 -2.22266,-0.92969 -0.56837,-0.59392 -0.88585,-1.46159 -0.97265,-2.58398 h 8.2207 l 0.004,-0.11915 c 0.007,-0.22285 0.0117,-0.39024 0.0117,-0.5039 0,-1.84741 -0.47671,-3.29993 -1.43945,-4.33399 -0.95945,-1.03052 -2.20781,-1.54882 -3.71484,-1.54882 z m -29.6875,0.24414 c 1.49391,0 2.69773,0.48608 3.64062,1.46289 0.94004,0.96709 1.41211,2.30462 1.41211,4.03906 0,1.41122 -0.21393,2.51507 -0.63086,3.30859 -0.41291,0.79198 -1.01446,1.40503 -1.81445,1.84571 h -0.002 c -0.79445,0.44135 -1.65934,0.66211 -2.60547,0.66211 -1.52235,0 -2.7365,-0.48387 -3.67188,-1.45313 -0.92477,-0.96527 -1.39258,-2.35983 -1.39258,-4.20703 0,-2.02584 0.557,-3.50042 1.66407,-4.45898 0.92933,-0.80044 2.05686,-1.19922 3.40039,-1.19922 z m 12.40625,0 c 0.80244,0 1.44722,0.16609 1.94336,0.49023 v 0.002 c 0.50602,0.32626 0.85725,0.7751 1.06445,1.36329 l 0.082,0.23046 0.13672,-0.20117 c 0.85791,-1.26643 1.94938,-1.88476 3.31445,-1.88476 1.07442,0 1.87951,0.29515 2.44336,0.8789 v 0.002 c 0.56036,0.57354 0.84961,1.47008 0.84961,2.71484 v 7.47266 h -1.61719 v -6.84766 c 0,-0.75595 -0.0614,-1.30049 -0.19726,-1.65625 -0.12734,-0.35765 -0.36638,-0.64976 -0.70508,-0.86328 -0.3405,-0.21467 -0.73974,-0.32031 -1.18945,-0.32031 -0.80519,0 -1.48975,0.27352 -2.02539,0.8164 -0.54598,0.54598 -0.80664,1.40905 -0.80664,2.56641 v 6.30469 h -1.62891 v -7.06641 c 0,-0.84835 -0.15377,-1.49911 -0.48242,-1.94727 -0.3318,-0.45244 -0.8806,-0.67382 -1.59961,-0.67382 -0.54933,0 -1.06362,0.14462 -1.5332,0.43359 -0.46742,0.29214 -0.81012,0.7252 -1.01954,1.28125 -0.21035,0.55852 -0.30859,1.34033 -0.30859,2.35547 v 5.61719 h -1.62891 v -10.81836 h 1.42969 v 1.84961 l 0.22656,-0.35352 c 0.33661,-0.5251 0.78351,-0.94448 1.34375,-1.26172 0.55677,-0.32199 1.19064,-0.48437 1.90821,-0.48437 z m 17.28125,0 c 1.45128,0 2.61961,0.48929 3.53515,1.47265 0.91227,0.97984 1.37305,2.36065 1.37305,4.16602 0,0.0825 -0.006,0.22893 -0.01,0.37695 h -8.25782 l 0.008,0.12891 c 0.0706,1.23476 0.42138,2.19911 1.06445,2.87109 0.63919,0.66792 1.44815,1.00586 2.40039,1.00586 0.70901,0 1.32562,-0.18876 1.83398,-0.56641 0.48563,-0.36075 0.85283,-0.94885 1.13868,-1.69531 l 1.70507,0.21094 c -0.30791,1.03706 -0.82874,1.85355 -1.5957,2.43359 -0.80196,0.60653 -1.827,0.91407 -3.0918,0.91407 -1.59292,0 -2.8383,-0.48519 -3.76562,-1.45313 -0.91844,-0.97319 -1.38281,-2.33691 -1.38281,-4.11328 0,-1.84002 0.47118,-3.24731 1.40429,-4.24805 0.93613,-1.00396 2.14039,-1.5039 3.64063,-1.5039 z m 0.0195,1.29687 c -0.88851,0 -1.65008,0.30119 -2.26172,0.89844 v 0.002 h -0.002 c -0.60616,0.59895 -0.93992,1.40234 -1.00391,2.39063 l -0.008,0.13086 h 6.4414 l -0.0117,-0.13282 c -0.0847,-0.94565 -0.32437,-1.66922 -0.73633,-2.16211 -0.61764,-0.7469 -1.4355,-1.12695 -2.41797,-1.12695 z m -29.70703,0.01 c -0.96813,0 -1.78736,0.36925 -2.42578,1.09375 -0.64518,0.73216 -0.95899,1.82328 -0.95899,3.25781 0,1.43453 0.31426,2.53064 0.95899,3.26953 0.63842,0.72451 1.45765,1.09375 2.42578,1.09375 0.96172,0 1.77593,-0.37412 2.41406,-1.10547 0.64538,-0.73965 0.95898,-1.85149 0.95898,-3.32031 0,-1.38598 -0.31809,-2.45262 -0.96875,-3.18359 -0.63798,-0.73118 -1.44928,-1.10547 -2.40429,-1.10547 z m 29.70703,0.23633 c 0.9203,0 1.65171,0.34152 2.22851,1.03906 0.34182,0.40896 0.54175,1.0669 0.63672,1.89258 h -5.83398 c 0.085,-0.86451 0.35123,-1.58212 0.87891,-2.10352 0.56891,-0.55553 1.25614,-0.82812 2.08984,-0.82812 z m -29.70703,0.01 c 0.89221,0 1.62062,0.33404 2.21875,1.01953 v 0.002 h 0.002 c 0.59861,0.67177 0.90625,1.67213 0.90625,3.02148 0,1.43395 -0.30575,2.48314 -0.89648,3.16016 -0.59798,0.68532 -1.33108,1.01953 -2.23047,1.01953 -0.90686,0 -1.6445,-0.33149 -2.24219,-1.00977 -0.59139,-0.67776 -0.89648,-1.70862 -0.89648,-3.10742 0,-1.3988 0.30554,-2.42509 0.89648,-3.0957 0.59769,-0.67828 1.33533,-1.00977 2.24219,-1.00977 z"
       id="path13" /></g><g
     id="text8-9-9"
     style="opacity:1"
     transform="matrix(-0.02645833,0,0,0.02645833,15.099616,1.5992154)"><path
       style="font-size:21.3333px;line-height:1.25;font-family:Arial;-inkscape-font-specification:Arial;text-align:center;baseline-shift:baseline;text-anchor:middle;white-space:pre;display:inline;overflow:visible;vector-effect:none;fill:#ff0000;enable-background:accumulate;stop-color:#000000;stop-opacity:1"
       d="m 224.93365,253.75088 v -15.27081 h 3.04166 l 3.61458,10.81248 q 0.5,1.51042 0.72916,2.26042 0.26042,-0.83333 0.8125,-2.44792 l 3.65625,-10.62498 h 2.71874 v 15.27081 h -1.94791 v -12.78123 l -4.4375,12.78123 h -1.82291 l -4.41666,-12.99998 v 12.99998 z m 16.8958,-5.53124 q 0,-3.07291 1.70833,-4.55208 1.42709,-1.22916 3.47917,-1.22916 2.28124,0 3.72916,1.5 1.44791,1.48958 1.44791,4.12499 0,2.13541 -0.64583,3.36458 -0.63542,1.21875 -1.86458,1.89583 -1.21875,0.67708 -2.66666,0.67708 -2.32292,0 -3.76041,-1.48958 -1.42709,-1.48958 -1.42709,-4.29166 z m 1.92708,0 q 0,2.125 0.92709,3.18749 0.92708,1.05209 2.33333,1.05209 1.39583,0 2.32291,-1.0625 0.92708,-1.0625 0.92708,-3.23958 0,-2.05208 -0.9375,-3.10416 -0.92708,-1.0625 -2.31249,-1.0625 -1.40625,0 -2.33333,1.05208 -0.92709,1.05208 -0.92709,3.17708 z m 10.6354,5.53124 V 242.6884 h 1.6875 v 1.57291 q 1.21875,-1.82291 3.52083,-1.82291 1,0 1.83333,0.36458 0.84375,0.35417 1.26041,0.9375 0.41667,0.58333 0.58334,1.38541 0.10416,0.52084 0.10416,1.82292 v 6.80207 h -1.87499 v -6.72916 q 0,-1.14583 -0.21875,-1.70833 -0.21875,-0.57291 -0.78125,-0.90624 -0.55208,-0.34375 -1.30208,-0.34375 -1.19792,0 -2.07292,0.76041 -0.86458,0.76042 -0.86458,2.88541 v 6.04166 z m 11.87499,-13.11456 v -2.15625 h 1.87499 v 2.15625 z m 0,13.11456 V 242.6884 h 1.87499 v 11.06248 z m 8.8229,-1.67708 0.27083,1.65625 q -0.79167,0.16666 -1.41666,0.16666 -1.02084,0 -1.58333,-0.32291 -0.5625,-0.32292 -0.79167,-0.84375 -0.22917,-0.53125 -0.22917,-2.21875 v -6.36457 h -1.37499 v -1.45833 h 1.37499 v -2.73958 l 1.86458,-1.125 v 3.86458 h 1.88542 v 1.45833 h -1.88542 v 6.46874 q 0,0.80208 0.0937,1.03125 0.10417,0.22916 0.32292,0.36458 0.22917,0.13542 0.64583,0.13542 0.3125,0 0.82292,-0.0729 z m 1.13541,-3.85416 q 0,-3.07291 1.70833,-4.55208 1.42708,-1.22916 3.47916,-1.22916 2.28125,0 3.72917,1.5 1.44791,1.48958 1.44791,4.12499 0,2.13541 -0.64583,3.36458 -0.63542,1.21875 -1.86458,1.89583 -1.21875,0.67708 -2.66667,0.67708 -2.32291,0 -3.76041,-1.48958 -1.42708,-1.48958 -1.42708,-4.29166 z m 1.92708,0 q 0,2.125 0.92708,3.18749 0.92709,1.05209 2.33333,1.05209 1.39584,0 2.32292,-1.0625 0.92708,-1.0625 0.92708,-3.23958 0,-2.05208 -0.9375,-3.10416 -0.92708,-1.0625 -2.3125,-1.0625 -1.40624,0 -2.33333,1.05208 -0.92708,1.05208 -0.92708,3.17708 z m 10.61457,5.53124 V 242.6884 h 1.6875 v 1.67708 q 0.64583,-1.17708 1.1875,-1.55208 0.55208,-0.375 1.20833,-0.375 0.94791,0 1.92708,0.60416 l -0.64583,1.73958 q -0.6875,-0.40624 -1.375,-0.40624 -0.61458,0 -1.10417,0.37499 -0.48958,0.36459 -0.69791,1.02084 -0.3125,0.99999 -0.3125,2.18749 v 5.79166 z"
       id="path14" /><path
       style="font-size:21.3333px;line-height:1.25;font-family:Arial;-inkscape-font-specification:Arial;text-align:center;baseline-shift:baseline;text-anchor:middle;white-space:pre;display:inline;overflow:visible;vector-effect:none;fill:#ff0000;enable-background:accumulate;stop-color:#000000;stop-opacity:1"
       d="m 224.81055,238.35742 v 15.51563 h 2.19336 v -12.38086 l 4.20703,12.38086 h 1.99804 l 4.22657,-12.17774 v 12.17774 h 2.19336 v -15.51563 h -2.92969 l -3.6836,10.70703 c -0.31452,0.91984 -0.52235,1.55295 -0.69531,2.09375 -0.15301,-0.48953 -0.33272,-1.05678 -0.61328,-1.90429 l -3.64258,-10.89649 z m 41.33398,0 v 2.40235 h 2.12109 v -2.40235 z m -41.08789,0.2461 h 2.83008 l 3.58594,10.72851 c 0.33318,1.0065 0.5763,1.7577 0.72851,2.25586 l 0.11719,0.38086 0.11719,-0.37891 c 0.17298,-0.55352 0.44462,-1.36944 0.8125,-2.44531 l 3.62695,-10.54101 h 2.50781 v 15.02539 h -1.70117 v -12.66016 l -0.23828,-0.0391 -4.41016,12.69922 h -1.64648 l -4.38867,-12.91797 -0.24024,0.0391 v 12.87891 h -1.70117 z m 41.33398,0 h 1.62891 v 1.91015 h -1.62891 z m 6.9375,0.002 -2.11132,1.27344 v 2.6875 h -1.375 v 1.70312 h 1.375 v 6.24219 c 0,1.13056 0.0687,1.86998 0.24023,2.26758 0.16393,0.37256 0.44832,0.6745 0.8418,0.90039 0.40282,0.23124 0.95102,0.33984 1.64453,0.33984 0.42758,0 0.9092,-0.0575 1.44336,-0.16992 l 0.11328,-0.0234 -0.31445,-1.92383 -0.12891,0.0527 c -0.32769,0.0462 -0.59415,0.0684 -0.78906,0.0684 -0.26362,0 -0.45728,-0.0439 -0.58203,-0.11719 -0.1256,-0.0778 -0.21365,-0.17701 -0.27344,-0.30664 v -0.002 c -0.0434,-0.10706 -0.084,-0.45353 -0.084,-0.98243 v -6.3457 h 1.88477 v -1.70312 h -1.88477 z m -0.24609,0.43555 v 3.76953 h 1.88477 v 1.21289 h -1.88477 v 6.59179 c 0,0.53951 0.0201,0.87888 0.10156,1.07813 l 0.002,0.002 v 0.002 c 0.0791,0.17396 0.20631,0.31596 0.37109,0.41796 v 0.002 h 0.002 c 0.18085,0.10686 0.41791,0.15234 0.70899,0.15234 0.18649,0 0.44051,-0.0284 0.71875,-0.0644 l 0.23242,1.41797 c -0.46871,0.092 -0.90379,0.15039 -1.27539,0.15039 -0.66761,0 -1.17432,-0.10734 -1.52149,-0.30664 -0.35604,-0.2044 -0.59852,-0.46387 -0.74023,-0.78516 v -0.002 c -0.13384,-0.31122 -0.21875,-1.04953 -0.21875,-2.16797 v -6.48828 h -1.375 v -1.21289 h 1.375 v -2.79297 z m -26.06445,3.27539 c -1.39258,0 -2.5871,0.41937 -3.56055,1.25781 -1.17071,1.01367 -1.75,2.57316 -1.75,4.64453 0,1.88891 0.48293,3.35612 1.46094,4.37695 0.98128,1.01685 2.27474,1.52735 3.84961,1.52735 0.98376,0 1.89451,-0.23061 2.72461,-0.69141 0.83888,-0.4621 1.47975,-1.11424 1.91406,-1.94727 0.44418,-0.84537 0.66016,-1.98588 0.66016,-3.42187 0,-1.77944 -0.49192,-3.18997 -1.48243,-4.20898 -0.98766,-1.0232 -2.26865,-1.53711 -3.8164,-1.53711 z m 12.58203,0 c -1.45171,0 -2.5723,0.60032 -3.39649,1.66992 v -1.41992 h -1.93359 v 11.30664 h 2.12109 v -6.16407 c 0,-1.4 0.28849,-2.32349 0.82227,-2.79296 0.56239,-0.48874 1.21957,-0.73047 1.99219,-0.73047 0.48123,0 0.88946,0.11019 1.23633,0.32617 h 0.002 v 0.002 c 0.35445,0.21005 0.59432,0.48717 0.73047,0.84375 0.13562,0.34874 0.20898,0.90799 0.20898,1.66406 v 6.85157 h 2.1211 v -6.92383 c 0,-0.87133 -0.0322,-1.48113 -0.10547,-1.84766 -0.11406,-0.54887 -0.31476,-1.02739 -0.60352,-1.43164 -0.29324,-0.41054 -0.73588,-0.73601 -1.3125,-0.97851 -0.57208,-0.25029 -1.20122,-0.375 -1.88281,-0.375 z m 21.8125,0 c -1.39258,0 -2.58515,0.41937 -3.55859,1.25781 -1.17071,1.01367 -1.75196,2.57316 -1.75196,4.64453 0,1.88891 0.48489,3.35612 1.46289,4.37695 0.98129,1.01685 2.2728,1.52735 3.84766,1.52735 0.98443,0 1.89601,-0.22999 2.72656,-0.69141 0.83889,-0.4621 1.47975,-1.11424 1.91406,-1.94727 0.44418,-0.84537 0.66016,-1.98588 0.66016,-3.42187 0,-1.77944 -0.49191,-3.18997 -1.48242,-4.20898 -0.98767,-1.0232 -2.2706,-1.53711 -3.81836,-1.53711 z m 11.4375,0 c -0.4609,0 -0.89058,0.13182 -1.27734,0.39453 v 0.002 c -0.31792,0.2201 -0.6515,0.73 -0.99415,1.29297 v -1.43945 h -1.93359 v 11.30664 h 2.12109 v -5.91407 c 0,-0.78089 0.10244,-1.49694 0.30665,-2.15039 0.13247,-0.4173 0.34953,-0.73202 0.65429,-0.95898 v -0.002 c 0.3067,-0.23491 0.64456,-0.34961 1.0293,-0.34961 0.43414,0 0.8696,0.12892 1.3125,0.39062 l 0.12695,0.0742 0.73242,-1.97266 -0.0859,-0.0527 c -0.66786,-0.41207 -1.33415,-0.62109 -1.99219,-0.62109 z m -45.83203,0.24414 c 1.4939,0 2.69773,0.48608 3.64062,1.46289 0.94004,0.96709 1.41211,2.30462 1.41211,4.03906 0,1.41122 -0.21393,2.51507 -0.63086,3.30859 -0.41291,0.79198 -1.01446,1.40503 -1.81445,1.84571 h -0.002 c -0.79445,0.44135 -1.65935,0.66211 -2.60547,0.66211 -1.52236,0 -2.73651,-0.48387 -3.67188,-1.45313 -0.92477,-0.96527 -1.39258,-2.35983 -1.39258,-4.20703 10e-6,-2.02584 0.55896,-3.50042 1.66602,-4.45898 0.92908,-0.79969 2.05554,-1.19922 3.39844,-1.19922 z m 12.58203,0 c 0.65174,0 1.24613,0.11964 1.78516,0.35547 h 0.002 c 0.54696,0.22959 0.94522,0.52994 1.20703,0.89648 0.26681,0.37352 0.45433,0.81733 0.5625,1.33789 0.0656,0.32793 0.10156,0.93405 0.10156,1.79883 v 6.67969 h -1.6289 v -6.60743 c 0,-0.7717 -0.0705,-1.35069 -0.22657,-1.75195 -0.15518,-0.40642 -0.43782,-0.73251 -0.83203,-0.9668 -0.3889,-0.2417 -0.84716,-0.36132 -1.36523,-0.36132 -0.82461,0 -1.55002,0.26391 -2.1543,0.78906 v 0.002 c -0.61899,0.54442 -0.90625,1.54325 -0.90625,2.97656 v 5.91993 h -1.62891 v -10.81836 h 1.44141 v 1.85547 l 0.22461,-0.33594 c 0.79264,-1.18557 1.91567,-1.76953 3.41797,-1.76953 z m 21.8125,0 c 1.49391,0 2.69773,0.48608 3.64062,1.46289 h 0.002 c 0.94004,0.96709 1.41211,2.30462 1.41211,4.03906 0,1.41122 -0.21393,2.51507 -0.63086,3.30859 -0.41292,0.79198 -1.01642,1.40503 -1.81641,1.84571 -0.79445,0.44135 -1.66129,0.66211 -2.60742,0.66211 -1.52235,0 -2.7365,-0.48387 -3.67188,-1.45313 -0.92476,-0.96527 -1.39257,-2.35983 -1.39257,-4.20703 0,-2.02584 0.55895,-3.50042 1.66601,-4.45898 0.92933,-0.80044 2.05491,-1.19922 3.39844,-1.19922 z m 11.4375,0 c 0.57538,0 1.16566,0.20214 1.76953,0.55664 l -0.56445,1.51758 c -0.42929,-0.22905 -0.86288,-0.38086 -1.29883,-0.38086 -0.4347,0 -0.83164,0.13531 -1.17774,0.40039 -0.34733,0.2591 -0.59511,0.62294 -0.74023,1.08007 -0.21246,0.67988 -0.31836,1.42217 -0.31836,2.22461 v 5.66993 h -1.62891 v -10.81836 h 1.44141 v 1.55468 l 0.23047,0.0586 c 0.42623,-0.77685 0.81799,-1.281 1.14844,-1.50977 0.34934,-0.23729 0.72457,-0.35351 1.13867,-0.35351 z m -26.70508,0.006 v 11.30664 h 2.12109 v -11.30664 z m 0.24609,0.24414 h 1.62891 v 10.81836 h -1.62891 z m -19.37304,1.05664 c -0.96813,0 -1.78736,0.36925 -2.42578,1.09375 -0.64518,0.73216 -0.95899,1.82328 -0.95899,3.25781 0,1.43453 0.31426,2.53064 0.95899,3.26953 0.63842,0.72451 1.45765,1.09375 2.42578,1.09375 0.96172,0 1.77593,-0.37412 2.41406,-1.10547 0.64538,-0.73965 0.95898,-1.85149 0.95898,-3.32031 0,-1.38598 -0.31809,-2.45262 -0.96875,-3.18359 -0.63798,-0.73118 -1.44928,-1.10547 -2.40429,-1.10547 z m 34.39453,0 c -0.96813,0 -1.78735,0.36925 -2.42578,1.09375 -0.64518,0.73216 -0.95703,1.82328 -0.95703,3.25781 0,1.43453 0.3123,2.53064 0.95703,3.26953 0.63843,0.72451 1.45765,1.09375 2.42578,1.09375 0.96173,0 1.77788,-0.37412 2.41601,-1.10547 0.64538,-0.73965 0.95704,-1.85149 0.95704,-3.32031 0,-1.38556 -0.31655,-2.45264 -0.9668,-3.18359 l -0.002,-0.002 c -0.63769,-0.72972 -1.45025,-1.10351 -2.4043,-1.10351 z m -34.39453,0.24609 c 0.8922,0 1.62062,0.33404 2.21875,1.01953 l 0.002,0.002 c 0.59861,0.67177 0.90625,1.67213 0.90625,3.02148 0,1.43395 -0.30575,2.48314 -0.89648,3.16016 -0.59798,0.68532 -1.33109,1.01953 -2.23047,1.01953 -0.90687,0 -1.6445,-0.33149 -2.24219,-1.00977 -0.59139,-0.67776 -0.89648,-1.70862 -0.89648,-3.10742 0,-1.3988 0.30554,-2.42509 0.89648,-3.0957 0.59769,-0.67828 1.33532,-1.00977 2.24219,-1.00977 z m 34.39453,0 c 0.89221,0 1.62258,0.33404 2.2207,1.01953 v 0.002 c 0.59861,0.67177 0.90625,1.67213 0.90625,3.02148 0,1.43395 -0.30575,2.48314 -0.89648,3.16016 -0.59798,0.68532 -1.33108,1.01953 -2.23047,1.01953 -0.90686,0 -1.64254,-0.33149 -2.24024,-1.00977 -0.59138,-0.67776 -0.89648,-1.70862 -0.89648,-3.10742 0,-1.3988 0.30555,-2.42509 0.89648,-3.0957 0.5977,-0.67828 1.33338,-1.00977 2.24024,-1.00977 z"
       id="path15" /></g><rect
     style="fill:none;fill-opacity:0.513043;stroke:#008000;stroke-width:0.00619167;stroke-linecap:round"
     id="rect1"
     width="4.9938083"
     height="1.9938084"
     x="4.2004008"
     y="8.8036127" /><rect
     style="fill:none;fill-opacity:0.513043;stroke:#008000;stroke-width:0.00619167;stroke-linecap:round"
     id="rect1-9"
     width="2.0991366"
     height="2.7898431"
     x="10.89121"
     y="7.8224745" /><text
     xml:space="preserve"
     style="font-size:0.564443px;line-height:1.25;font-family:'Segoe UI';-inkscape-font-specification:'Segoe UI, Normal';fill:#008000;stroke-width:0.0264583"
     x="3.0702627"
     y="13.918525"
     id="text2"><tspan
       sodipodi:role="line"
       id="tspan2"
       style="fill:#008000;stroke-width:0.0264583"
       x="3.0702627"
       y="13.918525">3mm acrylic.</tspan><tspan
       sodipodi:role="line"
       style="fill:#008000;stroke-width:0.0264583"
       x="3.0702627"
       y="14.624079"
       id="tspan8">Green elements are for information only - do not print</tspan><tspan
       sodipodi:role="line"
       style="fill:#008000;stroke-width:0.0264583"
       x="3.0702627"
       y="15.329632"
       id="tspan7">Pico and SHT40 module outlines</tspan><tspan
       sodipodi:role="line"
       style="fill:#008000;stroke-width:0.0264583"
       x="3.0702627"
       y="16.035187"
       id="tspan6">Red is engraved on the underside of the lid.</tspan></text></svg>
