%TF.GenerationSoftware,KiCad,Pcbnew,9.0.2*%
%TF.CreationDate,2025-07-04T16:18:25+10:00*%
%TF.ProjectId,v8a_equip_digital_in_iso,7638615f-6571-4756-9970-5f6469676974,rev?*%
%TF.SameCoordinates,Original*%
%TF.FileFunction,Copper,L2,Bot*%
%TF.FilePolarity,Positive*%
%FSLAX46Y46*%
G04 Gerber Fmt 4.6, Leading zero omitted, Abs format (unit mm)*
G04 Created by KiCad (PCBNEW 9.0.2) date 2025-07-04 16:18:25*
%MOMM*%
%LPD*%
G01*
G04 APERTURE LIST*
%TA.AperFunction,ComponentPad*%
%ADD10C,2.100000*%
%TD*%
%TA.AperFunction,ComponentPad*%
%ADD11R,1.700000X1.700000*%
%TD*%
%TA.AperFunction,ComponentPad*%
%ADD12C,1.700000*%
%TD*%
%TA.AperFunction,ComponentPad*%
%ADD13R,1.000000X1.000000*%
%TD*%
%TA.AperFunction,ComponentPad*%
%ADD14C,1.000000*%
%TD*%
%TA.AperFunction,ComponentPad*%
%ADD15R,1.600000X1.600000*%
%TD*%
%TA.AperFunction,ComponentPad*%
%ADD16C,1.600000*%
%TD*%
%TA.AperFunction,ViaPad*%
%ADD17C,0.889000*%
%TD*%
%TA.AperFunction,Conductor*%
%ADD18C,0.812800*%
%TD*%
%TA.AperFunction,Conductor*%
%ADD19C,1.016000*%
%TD*%
%TA.AperFunction,Conductor*%
%ADD20C,0.508000*%
%TD*%
%TA.AperFunction,Conductor*%
%ADD21C,0.406400*%
%TD*%
G04 APERTURE END LIST*
D10*
%TO.P,J33,1,Pin_1*%
%TO.N,/IN7-*%
X3000000Y-88950800D03*
%TO.P,J33,2,Pin_2*%
%TO.N,/IN7+*%
X3000000Y-85140800D03*
%TD*%
D11*
%TO.P,J31,1,Pin_1*%
%TO.N,/P7*%
X36753800Y-83058000D03*
%TD*%
%TO.P,J2,1,Pin_1*%
%TO.N,/P0*%
X36576000Y-11176000D03*
%TD*%
%TO.P,JP2,1,A*%
%TO.N,GND*%
X48463200Y-30759400D03*
D12*
%TO.P,JP2,2,C*%
%TO.N,/A0*%
X51003200Y-30759400D03*
%TO.P,JP2,3,B*%
%TO.N,+3V3*%
X53543200Y-30759400D03*
%TD*%
D10*
%TO.P,J28,1,Pin_1*%
%TO.N,/IN6-*%
X3000000Y-77535314D03*
%TO.P,J28,2,Pin_2*%
%TO.N,/IN6+*%
X3000000Y-73725314D03*
%TD*%
D11*
%TO.P,J13,1,Pin_1*%
%TO.N,+5V*%
X54991000Y-37465000D03*
D12*
%TO.P,J13,2,Pin_2*%
X57531000Y-37465000D03*
%TO.P,J13,3,Pin_3*%
X54991000Y-40005000D03*
%TO.P,J13,4,Pin_4*%
%TO.N,GND*%
X57531000Y-40005000D03*
%TO.P,J13,5,Pin_5*%
%TO.N,+3V3*%
X54991000Y-42545000D03*
%TO.P,J13,6,Pin_6*%
%TO.N,/GP15*%
X57531000Y-42545000D03*
%TO.P,J13,7,Pin_7*%
%TO.N,/GP16*%
X54991000Y-45085000D03*
%TO.P,J13,8,Pin_8*%
%TO.N,/GP14*%
X57531000Y-45085000D03*
%TO.P,J13,9,Pin_9*%
%TO.N,/GP17*%
X54991000Y-47625000D03*
%TO.P,J13,10,Pin_10*%
%TO.N,/GP13*%
X57531000Y-47625000D03*
%TO.P,J13,11,Pin_11*%
%TO.N,/AN_CS0*%
X54991000Y-50165000D03*
%TO.P,J13,12,Pin_12*%
%TO.N,/GP12*%
X57531000Y-50165000D03*
%TO.P,J13,13,Pin_13*%
%TO.N,/AN_CS1*%
X54991000Y-52705000D03*
%TO.P,J13,14,Pin_14*%
%TO.N,/GP11*%
X57531000Y-52705000D03*
%TO.P,J13,15,Pin_15*%
%TO.N,/AN_CS2*%
X54991000Y-55245000D03*
%TO.P,J13,16,Pin_16*%
%TO.N,/GP10*%
X57531000Y-55245000D03*
%TO.P,J13,17,Pin_17*%
%TO.N,/AN_CS3*%
X54991000Y-57785000D03*
%TO.P,J13,18,Pin_18*%
%TO.N,/GP9*%
X57531000Y-57785000D03*
%TO.P,J13,19,Pin_19*%
%TO.N,/GP3*%
X54991000Y-60325000D03*
%TO.P,J13,20,Pin_20*%
%TO.N,/GP8*%
X57531000Y-60325000D03*
%TO.P,J13,21,Pin_21*%
%TO.N,/GP2*%
X54991000Y-62865000D03*
%TO.P,J13,22,Pin_22*%
%TO.N,/GP7*%
X57531000Y-62865000D03*
%TO.P,J13,23,Pin_23*%
%TO.N,/GP1*%
X54991000Y-65405000D03*
%TO.P,J13,24,Pin_24*%
%TO.N,/GP6*%
X57531000Y-65405000D03*
%TO.P,J13,25,Pin_25*%
%TO.N,/GP0*%
X54991000Y-67945000D03*
%TO.P,J13,26,Pin_26*%
%TO.N,/SCL0*%
X57531000Y-67945000D03*
%TO.P,J13,27,Pin_27*%
%TO.N,GND*%
X54991000Y-70485000D03*
%TO.P,J13,28,Pin_28*%
%TO.N,/SDA0*%
X57531000Y-70485000D03*
%TO.P,J13,29,Pin_29*%
%TO.N,GND*%
X54991000Y-73025000D03*
%TO.P,J13,30,Pin_30*%
X57531000Y-73025000D03*
%TD*%
D10*
%TO.P,J20,1,Pin_1*%
%TO.N,/IN4-*%
X3000000Y-54704343D03*
%TO.P,J20,2,Pin_2*%
%TO.N,/IN4+*%
X3000000Y-50894343D03*
%TD*%
D11*
%TO.P,J6,1,Pin_1*%
%TO.N,/P1*%
X36550600Y-21444857D03*
%TD*%
D13*
%TO.P,J17,1,Pin_1*%
%TO.N,/VISO+*%
X21717000Y-47523400D03*
D14*
%TO.P,J17,2,Pin_2*%
%TO.N,/VISO-*%
X22987000Y-47523400D03*
%TD*%
D11*
%TO.P,J9,1,Pin_1*%
%TO.N,/P2*%
X36652200Y-31713714D03*
%TD*%
D13*
%TO.P,J30,1,Pin_1*%
%TO.N,/IN7+*%
X15759263Y-83820000D03*
D14*
%TO.P,J30,2,Pin_2*%
%TO.N,/IN7-*%
X15759263Y-85090000D03*
%TO.P,J30,3,Pin_3*%
%TO.N,/IN7+*%
X14489263Y-83820000D03*
%TO.P,J30,4,Pin_4*%
%TO.N,/IN7-*%
X14489263Y-85090000D03*
%TD*%
D13*
%TO.P,J22,1,Pin_1*%
%TO.N,/IN5+*%
X15773400Y-63246000D03*
D14*
%TO.P,J22,2,Pin_2*%
%TO.N,/IN5-*%
X15773400Y-64516000D03*
%TO.P,J22,3,Pin_3*%
%TO.N,/IN5+*%
X14503400Y-63246000D03*
%TO.P,J22,4,Pin_4*%
%TO.N,/IN5-*%
X14503400Y-64516000D03*
%TD*%
D13*
%TO.P,J26,1,Pin_1*%
%TO.N,/IN6+*%
X15748000Y-73507600D03*
D14*
%TO.P,J26,2,Pin_2*%
%TO.N,/IN6-*%
X15748000Y-74777600D03*
%TO.P,J26,3,Pin_3*%
%TO.N,/IN6+*%
X14478000Y-73507600D03*
%TO.P,J26,4,Pin_4*%
%TO.N,/IN6-*%
X14478000Y-74777600D03*
%TD*%
D15*
%TO.P,U2,1,-Vin*%
%TO.N,GND*%
X55956200Y-18948400D03*
D16*
%TO.P,U2,2,+Vin*%
%TO.N,+5V*%
X55956200Y-16408400D03*
%TO.P,U2,3,-Vout*%
%TO.N,/VISO-*%
X55956200Y-13868400D03*
%TO.P,U2,4,+Vout*%
%TO.N,/VISO+*%
X55956200Y-11328400D03*
%TD*%
D10*
%TO.P,J24,1,Pin_1*%
%TO.N,/IN5-*%
X3000000Y-66119829D03*
%TO.P,J24,2,Pin_2*%
%TO.N,/IN5+*%
X3000000Y-62309829D03*
%TD*%
D13*
%TO.P,J18,1,Pin_1*%
%TO.N,/IN4+*%
X15748000Y-52984400D03*
D14*
%TO.P,J18,2,Pin_2*%
%TO.N,/IN4-*%
X15748000Y-54254400D03*
%TO.P,J18,3,Pin_3*%
%TO.N,/IN4+*%
X14478000Y-52984400D03*
%TO.P,J18,4,Pin_4*%
%TO.N,/IN4-*%
X14478000Y-54254400D03*
%TD*%
D11*
%TO.P,JP1,1,A*%
%TO.N,GND*%
X48463200Y-25222200D03*
D12*
%TO.P,JP1,2,C*%
%TO.N,/A1*%
X51003200Y-25222200D03*
%TO.P,JP1,3,B*%
%TO.N,+3V3*%
X53543200Y-25222200D03*
%TD*%
D13*
%TO.P,J8,1,Pin_1*%
%TO.N,/VISO+*%
X21717000Y-27279600D03*
D14*
%TO.P,J8,2,Pin_2*%
%TO.N,/VISO-*%
X22987000Y-27279600D03*
%TD*%
D13*
%TO.P,J7,1,Pin_1*%
%TO.N,/IN1+*%
X15759263Y-22132982D03*
D14*
%TO.P,J7,2,Pin_2*%
%TO.N,/IN1-*%
X15759263Y-23402982D03*
%TO.P,J7,3,Pin_3*%
%TO.N,/IN1+*%
X14489263Y-22132982D03*
%TO.P,J7,4,Pin_4*%
%TO.N,/IN1-*%
X14489263Y-23402982D03*
%TD*%
D10*
%TO.P,J10,1,Pin_1*%
%TO.N,/IN2-*%
X3000000Y-31873371D03*
%TO.P,J10,2,Pin_2*%
%TO.N,/IN2+*%
X3000000Y-28063371D03*
%TD*%
D11*
%TO.P,CON2,1,Pin_1*%
%TO.N,GND*%
X49072800Y-92176600D03*
D12*
%TO.P,CON2,2,Pin_2*%
%TO.N,+3V3*%
X46532800Y-92176600D03*
%TO.P,CON2,3,Pin_3*%
%TO.N,/SDA0*%
X43992800Y-92176600D03*
%TO.P,CON2,4,Pin_4*%
%TO.N,/SCL0*%
X41452800Y-92176600D03*
%TD*%
D11*
%TO.P,J15,1,Pin_1*%
%TO.N,/P3*%
X35661600Y-41935400D03*
%TD*%
D10*
%TO.P,J16,1,Pin_1*%
%TO.N,/IN3-*%
X3000000Y-43288857D03*
%TO.P,J16,2,Pin_2*%
%TO.N,/IN3+*%
X3000000Y-39478857D03*
%TD*%
D13*
%TO.P,J14,1,Pin_1*%
%TO.N,/IN3+*%
X15759263Y-42663439D03*
D14*
%TO.P,J14,2,Pin_2*%
%TO.N,/IN3-*%
X15759263Y-43933439D03*
%TO.P,J14,3,Pin_3*%
%TO.N,/IN3+*%
X14489263Y-42663439D03*
%TO.P,J14,4,Pin_4*%
%TO.N,/IN3-*%
X14489263Y-43933439D03*
%TD*%
D11*
%TO.P,J23,1,Pin_1*%
%TO.N,/P5*%
X36703000Y-62520286D03*
%TD*%
%TO.P,J27,1,Pin_1*%
%TO.N,/P6*%
X36677600Y-72789143D03*
%TD*%
D13*
%TO.P,J21,1,Pin_1*%
%TO.N,/VISO+*%
X21742400Y-57861200D03*
D14*
%TO.P,J21,2,Pin_2*%
%TO.N,/VISO-*%
X23012400Y-57861200D03*
%TD*%
D10*
%TO.P,J5,1,Pin_1*%
%TO.N,/IN1-*%
X3000000Y-20457886D03*
%TO.P,J5,2,Pin_2*%
%TO.N,/IN1+*%
X3000000Y-16647886D03*
%TD*%
D13*
%TO.P,J3,1,Pin_1*%
%TO.N,/IN0+*%
X15759263Y-11867753D03*
D14*
%TO.P,J3,2,Pin_2*%
%TO.N,/IN0-*%
X15759263Y-13137753D03*
%TO.P,J3,3,Pin_3*%
%TO.N,/IN0+*%
X14489263Y-11867753D03*
%TO.P,J3,4,Pin_4*%
%TO.N,/IN0-*%
X14489263Y-13137753D03*
%TD*%
D13*
%TO.P,J32,1,Pin_1*%
%TO.N,/VISO+*%
X21717000Y-87909400D03*
D14*
%TO.P,J32,2,Pin_2*%
%TO.N,/VISO-*%
X22987000Y-87909400D03*
%TD*%
D13*
%TO.P,J12,1,Pin_1*%
%TO.N,/VISO+*%
X21717000Y-37490400D03*
D14*
%TO.P,J12,2,Pin_2*%
%TO.N,/VISO-*%
X22987000Y-37490400D03*
%TD*%
D13*
%TO.P,J4,1,Pin_1*%
%TO.N,/VISO+*%
X21717000Y-16992600D03*
D14*
%TO.P,J4,2,Pin_2*%
%TO.N,/VISO-*%
X22987000Y-16992600D03*
%TD*%
D13*
%TO.P,J29,1,Pin_1*%
%TO.N,/VISO+*%
X21717000Y-78130400D03*
D14*
%TO.P,J29,2,Pin_2*%
%TO.N,/VISO-*%
X22987000Y-78130400D03*
%TD*%
D11*
%TO.P,J19,1,Pin_1*%
%TO.N,/P4*%
X36753800Y-52251429D03*
%TD*%
D13*
%TO.P,J25,1,Pin_1*%
%TO.N,/VISO+*%
X21717000Y-68300600D03*
D14*
%TO.P,J25,2,Pin_2*%
%TO.N,/VISO-*%
X22987000Y-68300600D03*
%TD*%
D10*
%TO.P,J1,1,Pin_1*%
%TO.N,/IN0-*%
X3000000Y-9042400D03*
%TO.P,J1,2,Pin_2*%
%TO.N,/IN0+*%
X3000000Y-5232400D03*
%TD*%
D13*
%TO.P,J11,1,Pin_1*%
%TO.N,/IN2+*%
X15759263Y-32398210D03*
D14*
%TO.P,J11,2,Pin_2*%
%TO.N,/IN2-*%
X15759263Y-33668210D03*
%TO.P,J11,3,Pin_3*%
%TO.N,/IN2+*%
X14489263Y-32398210D03*
%TO.P,J11,4,Pin_4*%
%TO.N,/IN2-*%
X14489263Y-33668210D03*
%TD*%
D17*
%TO.N,GND*%
X40462200Y-5740400D03*
X32334200Y-74726800D03*
X45542200Y-52628800D03*
X26644600Y-48056800D03*
X32588200Y-54305200D03*
X26219210Y-73177400D03*
X33883600Y-89992200D03*
X47345600Y-45491400D03*
X32156400Y-65582800D03*
X39649400Y-45567600D03*
X50038000Y-64871600D03*
X32232600Y-34848800D03*
X26517600Y-8356600D03*
X33909000Y-5867400D03*
X31419800Y-14909800D03*
X32334200Y-24155400D03*
X53187600Y-85902800D03*
X32334200Y-44551600D03*
%TO.N,+3V3*%
X28956000Y-69799200D03*
X28956000Y-28727400D03*
X28956000Y-59512200D03*
X28956000Y-79883000D03*
X28956000Y-38506400D03*
X28905200Y-49098200D03*
X28956000Y-8407400D03*
X29006800Y-88011000D03*
X51663600Y-58216800D03*
X28956000Y-18669000D03*
%TO.N,/P4*%
X41021000Y-54076600D03*
%TO.N,/SDA0*%
X48666400Y-84861400D03*
X48666400Y-69215000D03*
%TO.N,/SCL0*%
X46634400Y-84582000D03*
X46659800Y-66675000D03*
%TD*%
D18*
%TO.N,+3V3*%
X53543200Y-25222200D02*
X53543200Y-30759400D01*
D19*
X29006800Y-88011000D02*
X45821600Y-88011000D01*
X45821600Y-88011000D02*
X47193200Y-89382600D01*
X41706800Y-42545000D02*
X54991000Y-42545000D01*
X53543200Y-33172400D02*
X53543200Y-30759400D01*
X51663600Y-35052000D02*
X53543200Y-33172400D01*
X28956000Y-87960200D02*
X28956000Y-79883000D01*
X51663600Y-58216800D02*
X51663600Y-35052000D01*
X28956000Y-79883000D02*
X28956000Y-8407400D01*
X47193200Y-89382600D02*
X47193200Y-91516200D01*
X47193200Y-91516200D02*
X46532800Y-92176600D01*
X28956000Y-38506400D02*
X37668200Y-38506400D01*
X37668200Y-38506400D02*
X41706800Y-42545000D01*
X29006800Y-88011000D02*
X28956000Y-87960200D01*
D20*
%TO.N,/P4*%
X39221229Y-52251429D02*
X36753800Y-52251429D01*
X41021000Y-54076600D02*
X41021000Y-54051200D01*
X41021000Y-54051200D02*
X39221229Y-52251429D01*
D21*
%TO.N,/SDA0*%
X48666400Y-69215000D02*
X56286400Y-69215000D01*
X48666400Y-69215000D02*
X48666400Y-84861400D01*
X56286400Y-69215000D02*
X56819800Y-69748400D01*
X56819800Y-69748400D02*
X56819800Y-69773800D01*
X56819800Y-69773800D02*
X57531000Y-70485000D01*
D20*
%TO.N,/SCL0*%
X46659800Y-66675000D02*
X46634400Y-66700400D01*
D21*
X46659800Y-66675000D02*
X56267400Y-66675000D01*
D20*
X46634400Y-66700400D02*
X46634400Y-84582000D01*
D21*
X56267400Y-66675000D02*
X57540000Y-67947600D01*
D18*
%TO.N,/VISO-*%
X53924200Y-13868400D02*
X42722800Y-2667000D01*
X23012400Y-5181600D02*
X23012400Y-87909400D01*
X55956200Y-13868400D02*
X53924200Y-13868400D01*
X25527000Y-2667000D02*
X23012400Y-5181600D01*
X42722800Y-2667000D02*
X25527000Y-2667000D01*
%TO.N,/VISO+*%
X21742400Y-4546600D02*
X21742400Y-87909400D01*
X55956200Y-11328400D02*
X53365400Y-11328400D01*
X53365400Y-11328400D02*
X43383200Y-1346200D01*
X24942800Y-1346200D02*
X21742400Y-4546600D01*
X43383200Y-1346200D02*
X24942800Y-1346200D01*
%TD*%
%TA.AperFunction,Conductor*%
%TO.N,GND*%
G36*
X41347239Y-4165037D02*
G01*
X41524280Y-4188256D01*
X41549575Y-4195009D01*
X41708493Y-4260595D01*
X41731187Y-4273648D01*
X41873061Y-4382044D01*
X41882945Y-4390671D01*
X52899811Y-15353112D01*
X53057769Y-15473727D01*
X53241545Y-15549393D01*
X53438637Y-15574963D01*
X53438639Y-15574962D01*
X53438640Y-15574963D01*
X53452273Y-15574938D01*
X55130134Y-15571974D01*
X55189297Y-15591083D01*
X55225931Y-15641318D01*
X55226041Y-15703492D01*
X55201446Y-15743708D01*
X55176574Y-15768580D01*
X55066731Y-15932973D01*
X54991072Y-16115629D01*
X54952500Y-16309544D01*
X54952500Y-16507255D01*
X54991072Y-16701170D01*
X55066731Y-16883826D01*
X55066733Y-16883830D01*
X55122026Y-16966581D01*
X55176574Y-17048219D01*
X55176576Y-17048221D01*
X55316379Y-17188024D01*
X55480770Y-17297867D01*
X55572101Y-17335697D01*
X55663429Y-17373527D01*
X55663430Y-17373527D01*
X55663432Y-17373528D01*
X55857344Y-17412100D01*
X55857345Y-17412100D01*
X56055055Y-17412100D01*
X56055056Y-17412100D01*
X56248968Y-17373528D01*
X56431630Y-17297867D01*
X56596021Y-17188024D01*
X56735824Y-17048221D01*
X56845667Y-16883830D01*
X56921328Y-16701168D01*
X56959900Y-16507256D01*
X56959900Y-16309544D01*
X56921328Y-16115632D01*
X56845667Y-15932970D01*
X56735824Y-15768579D01*
X56708041Y-15740796D01*
X56679815Y-15685398D01*
X56689541Y-15623990D01*
X56733505Y-15580026D01*
X56778995Y-15569061D01*
X57734240Y-15567374D01*
X59136723Y-15564895D01*
X59195887Y-15584003D01*
X59232521Y-15634239D01*
X59237500Y-15665495D01*
X59237500Y-87905829D01*
X59218287Y-87964960D01*
X59167987Y-88001505D01*
X59105813Y-88001505D01*
X59072236Y-87982893D01*
X58858325Y-87803400D01*
X58805837Y-87766648D01*
X58544480Y-87583644D01*
X58498886Y-87557320D01*
X58212684Y-87392081D01*
X58212680Y-87392079D01*
X57865446Y-87230161D01*
X57865439Y-87230158D01*
X57865436Y-87230157D01*
X57505428Y-87099125D01*
X57505416Y-87099121D01*
X57135354Y-86999964D01*
X57135355Y-86999964D01*
X57135347Y-86999962D01*
X56758037Y-86933432D01*
X56758034Y-86933431D01*
X56758030Y-86933431D01*
X56376380Y-86900040D01*
X56376365Y-86900040D01*
X55993235Y-86900040D01*
X55993219Y-86900040D01*
X55611569Y-86933431D01*
X55611563Y-86933431D01*
X55611563Y-86933432D01*
X55234253Y-86999962D01*
X55234246Y-86999963D01*
X55234245Y-86999964D01*
X54864183Y-87099121D01*
X54864171Y-87099125D01*
X54504163Y-87230157D01*
X54504152Y-87230162D01*
X54156915Y-87392081D01*
X53825124Y-87583641D01*
X53511280Y-87803396D01*
X53217780Y-88049672D01*
X52946872Y-88320580D01*
X52700596Y-88614080D01*
X52480841Y-88927924D01*
X52289281Y-89259715D01*
X52127362Y-89606952D01*
X52127357Y-89606963D01*
X51996325Y-89966971D01*
X51996321Y-89966983D01*
X51897164Y-90337045D01*
X51897162Y-90337053D01*
X51830632Y-90714363D01*
X51830631Y-90714369D01*
X51797240Y-91096019D01*
X51797240Y-91479180D01*
X51826655Y-91815380D01*
X51830632Y-91860837D01*
X51897162Y-92238147D01*
X51897164Y-92238154D01*
X51996321Y-92608216D01*
X51996325Y-92608228D01*
X52021210Y-92676600D01*
X52127361Y-92968246D01*
X52289279Y-93315480D01*
X52480844Y-93647280D01*
X52700598Y-93961122D01*
X52800211Y-94079837D01*
X52823502Y-94137482D01*
X52808461Y-94197810D01*
X52760833Y-94237775D01*
X52723147Y-94245100D01*
X25399000Y-94245100D01*
X25339869Y-94225887D01*
X25303324Y-94175587D01*
X25298400Y-94144500D01*
X25298400Y-92072820D01*
X40399100Y-92072820D01*
X40399100Y-92280379D01*
X40439592Y-92483951D01*
X40519022Y-92675710D01*
X40519026Y-92675718D01*
X40634336Y-92848292D01*
X40781107Y-92995063D01*
X40953681Y-93110373D01*
X40953683Y-93110374D01*
X40953686Y-93110376D01*
X41145447Y-93189807D01*
X41349020Y-93230300D01*
X41349021Y-93230300D01*
X41556579Y-93230300D01*
X41556580Y-93230300D01*
X41760153Y-93189807D01*
X41951914Y-93110376D01*
X42124494Y-92995062D01*
X42271262Y-92848294D01*
X42386576Y-92675714D01*
X42466007Y-92483953D01*
X42506500Y-92280380D01*
X42506500Y-92072820D01*
X42939100Y-92072820D01*
X42939100Y-92280379D01*
X42979592Y-92483951D01*
X43059022Y-92675710D01*
X43059026Y-92675718D01*
X43174336Y-92848292D01*
X43321107Y-92995063D01*
X43493681Y-93110373D01*
X43493683Y-93110374D01*
X43493686Y-93110376D01*
X43685447Y-93189807D01*
X43889020Y-93230300D01*
X43889021Y-93230300D01*
X44096579Y-93230300D01*
X44096580Y-93230300D01*
X44300153Y-93189807D01*
X44491914Y-93110376D01*
X44664494Y-92995062D01*
X44811262Y-92848294D01*
X44926576Y-92675714D01*
X45006007Y-92483953D01*
X45046500Y-92280380D01*
X45046500Y-92072820D01*
X45006007Y-91869247D01*
X44926576Y-91677486D01*
X44811262Y-91504906D01*
X44664494Y-91358138D01*
X44664492Y-91358136D01*
X44491918Y-91242826D01*
X44491910Y-91242822D01*
X44426112Y-91215567D01*
X44300153Y-91163393D01*
X44300149Y-91163392D01*
X44300152Y-91163392D01*
X44110033Y-91125576D01*
X44096580Y-91122900D01*
X43889020Y-91122900D01*
X43875567Y-91125576D01*
X43685448Y-91163392D01*
X43493689Y-91242822D01*
X43493681Y-91242826D01*
X43321107Y-91358136D01*
X43321106Y-91358138D01*
X43174338Y-91504906D01*
X43174336Y-91504907D01*
X43059026Y-91677481D01*
X43059022Y-91677489D01*
X42979592Y-91869248D01*
X42939100Y-92072820D01*
X42506500Y-92072820D01*
X42466007Y-91869247D01*
X42386576Y-91677486D01*
X42271262Y-91504906D01*
X42124494Y-91358138D01*
X42124492Y-91358136D01*
X41951918Y-91242826D01*
X41951910Y-91242822D01*
X41886112Y-91215567D01*
X41760153Y-91163393D01*
X41760149Y-91163392D01*
X41760152Y-91163392D01*
X41570033Y-91125576D01*
X41556580Y-91122900D01*
X41349020Y-91122900D01*
X41335567Y-91125576D01*
X41145448Y-91163392D01*
X40953689Y-91242822D01*
X40953681Y-91242826D01*
X40781107Y-91358136D01*
X40781106Y-91358138D01*
X40634338Y-91504906D01*
X40634336Y-91504907D01*
X40519026Y-91677481D01*
X40519022Y-91677489D01*
X40439592Y-91869248D01*
X40399100Y-92072820D01*
X25298400Y-92072820D01*
X25298400Y-87885961D01*
X28244299Y-87885961D01*
X28244299Y-87890104D01*
X28244299Y-88030296D01*
X28271649Y-88167795D01*
X28292691Y-88218592D01*
X28292691Y-88218594D01*
X28325298Y-88297315D01*
X28325299Y-88297317D01*
X28403186Y-88413883D01*
X28453986Y-88464683D01*
X28553117Y-88563814D01*
X28669683Y-88641701D01*
X28696508Y-88652811D01*
X28734445Y-88668526D01*
X28734446Y-88668526D01*
X28799205Y-88695351D01*
X28936704Y-88722701D01*
X28936705Y-88722701D01*
X29081855Y-88722701D01*
X29081875Y-88722700D01*
X45485134Y-88722700D01*
X45544265Y-88741913D01*
X45556269Y-88752165D01*
X46452035Y-89647931D01*
X46480261Y-89703329D01*
X46481500Y-89719066D01*
X46481500Y-91029900D01*
X46462287Y-91089031D01*
X46411987Y-91125576D01*
X46400526Y-91128567D01*
X46225449Y-91163392D01*
X46033689Y-91242822D01*
X46033681Y-91242826D01*
X45861107Y-91358136D01*
X45861106Y-91358138D01*
X45714338Y-91504906D01*
X45714336Y-91504907D01*
X45599026Y-91677481D01*
X45599022Y-91677489D01*
X45519592Y-91869248D01*
X45479100Y-92072820D01*
X45479100Y-92280379D01*
X45519592Y-92483951D01*
X45599022Y-92675710D01*
X45599026Y-92675718D01*
X45714336Y-92848292D01*
X45861107Y-92995063D01*
X46033681Y-93110373D01*
X46033683Y-93110374D01*
X46033686Y-93110376D01*
X46225447Y-93189807D01*
X46429020Y-93230300D01*
X46429021Y-93230300D01*
X46636579Y-93230300D01*
X46636580Y-93230300D01*
X46840153Y-93189807D01*
X47031914Y-93110376D01*
X47204494Y-92995062D01*
X47351262Y-92848294D01*
X47466576Y-92675714D01*
X47546007Y-92483953D01*
X47586500Y-92280380D01*
X47586500Y-92171065D01*
X47589007Y-92163346D01*
X47587738Y-92155330D01*
X47598433Y-92134338D01*
X47605713Y-92111934D01*
X47615961Y-92099934D01*
X47641147Y-92074747D01*
X47641153Y-92074743D01*
X47646881Y-92069015D01*
X47646883Y-92069014D01*
X47746014Y-91969883D01*
X47823901Y-91853317D01*
X47826056Y-91848113D01*
X47866431Y-91800835D01*
X47926887Y-91786317D01*
X47984330Y-91810106D01*
X48016819Y-91863116D01*
X48019600Y-91886607D01*
X48019600Y-91926600D01*
X48639788Y-91926600D01*
X48606875Y-91983607D01*
X48572800Y-92110774D01*
X48572800Y-92242426D01*
X48606875Y-92369593D01*
X48639788Y-92426600D01*
X48019600Y-92426600D01*
X48019600Y-93046613D01*
X48031389Y-93105884D01*
X48076300Y-93173098D01*
X48076301Y-93173099D01*
X48143515Y-93218010D01*
X48202787Y-93229800D01*
X48822800Y-93229800D01*
X48822800Y-92609612D01*
X48879807Y-92642525D01*
X49006974Y-92676600D01*
X49138626Y-92676600D01*
X49265793Y-92642525D01*
X49322800Y-92609612D01*
X49322800Y-93229800D01*
X49942813Y-93229800D01*
X50002084Y-93218010D01*
X50069298Y-93173099D01*
X50069299Y-93173098D01*
X50114210Y-93105884D01*
X50126000Y-93046613D01*
X50126000Y-92426600D01*
X49505812Y-92426600D01*
X49538725Y-92369593D01*
X49572800Y-92242426D01*
X49572800Y-92110774D01*
X49538725Y-91983607D01*
X49505812Y-91926600D01*
X50126000Y-91926600D01*
X50126000Y-91306586D01*
X50114210Y-91247315D01*
X50069299Y-91180101D01*
X50069298Y-91180100D01*
X50002084Y-91135189D01*
X49942813Y-91123400D01*
X49322800Y-91123400D01*
X49322800Y-91743588D01*
X49265793Y-91710675D01*
X49138626Y-91676600D01*
X49006974Y-91676600D01*
X48879807Y-91710675D01*
X48822800Y-91743588D01*
X48822800Y-91123400D01*
X48202787Y-91123400D01*
X48143515Y-91135189D01*
X48068062Y-91185606D01*
X48067328Y-91184508D01*
X48021237Y-91207993D01*
X47959829Y-91198267D01*
X47915865Y-91154303D01*
X47904900Y-91108632D01*
X47904900Y-89457675D01*
X47904901Y-89457654D01*
X47904901Y-89312504D01*
X47894400Y-89259715D01*
X47877550Y-89175005D01*
X47823901Y-89045483D01*
X47746014Y-88928917D01*
X47646883Y-88829786D01*
X47646879Y-88829783D01*
X46377931Y-87560835D01*
X46377927Y-87560830D01*
X46275284Y-87458187D01*
X46158716Y-87380298D01*
X46158713Y-87380297D01*
X46093956Y-87353474D01*
X46029195Y-87326649D01*
X45891696Y-87299299D01*
X45751504Y-87299299D01*
X45746545Y-87299299D01*
X45746525Y-87299300D01*
X29768300Y-87299300D01*
X29709169Y-87280087D01*
X29672624Y-87229787D01*
X29667700Y-87198700D01*
X29667700Y-84518158D01*
X45986200Y-84518158D01*
X45986200Y-84645841D01*
X46011110Y-84771075D01*
X46059970Y-84889033D01*
X46059975Y-84889042D01*
X46130908Y-84995201D01*
X46221198Y-85085491D01*
X46327357Y-85156424D01*
X46327366Y-85156429D01*
X46445324Y-85205289D01*
X46445325Y-85205289D01*
X46445327Y-85205290D01*
X46570558Y-85230200D01*
X46570559Y-85230200D01*
X46698241Y-85230200D01*
X46698242Y-85230200D01*
X46823473Y-85205290D01*
X46941438Y-85156427D01*
X47047603Y-85085490D01*
X47137890Y-84995203D01*
X47208827Y-84889038D01*
X47257690Y-84771073D01*
X47282600Y-84645842D01*
X47282600Y-84518158D01*
X47257690Y-84392927D01*
X47257689Y-84392924D01*
X47208829Y-84274966D01*
X47208824Y-84274957D01*
X47137891Y-84168798D01*
X47121565Y-84152472D01*
X47093339Y-84097074D01*
X47092100Y-84081337D01*
X47092100Y-67201063D01*
X47094608Y-67193342D01*
X47093339Y-67185326D01*
X47104033Y-67164337D01*
X47111313Y-67141932D01*
X47121565Y-67129928D01*
X47140128Y-67111365D01*
X47195526Y-67083139D01*
X47211263Y-67081900D01*
X54121074Y-67081900D01*
X54180205Y-67101113D01*
X54216750Y-67151413D01*
X54216750Y-67213587D01*
X54192209Y-67253635D01*
X54172538Y-67273306D01*
X54172536Y-67273307D01*
X54057226Y-67445881D01*
X54057222Y-67445889D01*
X53977792Y-67637648D01*
X53937300Y-67841220D01*
X53937300Y-68048779D01*
X53977792Y-68252351D01*
X54057222Y-68444110D01*
X54057226Y-68444118D01*
X54172536Y-68616692D01*
X54192209Y-68636365D01*
X54220435Y-68691763D01*
X54210709Y-68753171D01*
X54166745Y-68797135D01*
X54121074Y-68808100D01*
X49217863Y-68808100D01*
X49158732Y-68788887D01*
X49146728Y-68778635D01*
X49079601Y-68711508D01*
X48973442Y-68640575D01*
X48973433Y-68640570D01*
X48855475Y-68591710D01*
X48771985Y-68575103D01*
X48730242Y-68566800D01*
X48602558Y-68566800D01*
X48571250Y-68573027D01*
X48477324Y-68591710D01*
X48359366Y-68640570D01*
X48359357Y-68640575D01*
X48253198Y-68711508D01*
X48253197Y-68711510D01*
X48162910Y-68801797D01*
X48162908Y-68801798D01*
X48091975Y-68907957D01*
X48091970Y-68907966D01*
X48043110Y-69025924D01*
X48018200Y-69151158D01*
X48018200Y-69278841D01*
X48043110Y-69404075D01*
X48091970Y-69522033D01*
X48091975Y-69522042D01*
X48162908Y-69628201D01*
X48230035Y-69695328D01*
X48258261Y-69750726D01*
X48259500Y-69766463D01*
X48259500Y-84309937D01*
X48240287Y-84369068D01*
X48230035Y-84381072D01*
X48162910Y-84448197D01*
X48162908Y-84448198D01*
X48091975Y-84554357D01*
X48091970Y-84554366D01*
X48043110Y-84672324D01*
X48018200Y-84797558D01*
X48018200Y-84925241D01*
X48043110Y-85050475D01*
X48091970Y-85168433D01*
X48091975Y-85168442D01*
X48162908Y-85274601D01*
X48253198Y-85364891D01*
X48359357Y-85435824D01*
X48359366Y-85435829D01*
X48477324Y-85484689D01*
X48477325Y-85484689D01*
X48477327Y-85484690D01*
X48602558Y-85509600D01*
X48602559Y-85509600D01*
X48730241Y-85509600D01*
X48730242Y-85509600D01*
X48855473Y-85484690D01*
X48973438Y-85435827D01*
X49079603Y-85364890D01*
X49169890Y-85274603D01*
X49240827Y-85168438D01*
X49289690Y-85050473D01*
X49314600Y-84925242D01*
X49314600Y-84797558D01*
X49289690Y-84672327D01*
X49289689Y-84672324D01*
X49240829Y-84554366D01*
X49240824Y-84554357D01*
X49169891Y-84448198D01*
X49102765Y-84381072D01*
X49074539Y-84325674D01*
X49073300Y-84309937D01*
X49073300Y-72921269D01*
X53937800Y-72921269D01*
X53937800Y-73128730D01*
X53978274Y-73332209D01*
X54057664Y-73523873D01*
X54057668Y-73523881D01*
X54090070Y-73572374D01*
X54090071Y-73572374D01*
X54508037Y-73154408D01*
X54525075Y-73217993D01*
X54590901Y-73332007D01*
X54683993Y-73425099D01*
X54798007Y-73490925D01*
X54861590Y-73507962D01*
X54443624Y-73925927D01*
X54443624Y-73925928D01*
X54492118Y-73958331D01*
X54492126Y-73958335D01*
X54683790Y-74037725D01*
X54887270Y-74078200D01*
X55094730Y-74078200D01*
X55298209Y-74037725D01*
X55489870Y-73958337D01*
X55489883Y-73958329D01*
X55538374Y-73925928D01*
X55538374Y-73925927D01*
X55120409Y-73507962D01*
X55183993Y-73490925D01*
X55298007Y-73425099D01*
X55391099Y-73332007D01*
X55456925Y-73217993D01*
X55473962Y-73154409D01*
X55891927Y-73572374D01*
X55891928Y-73572374D01*
X55924329Y-73523883D01*
X55924337Y-73523870D01*
X56003725Y-73332209D01*
X56044200Y-73128730D01*
X56044200Y-72921269D01*
X56477800Y-72921269D01*
X56477800Y-73128730D01*
X56518274Y-73332209D01*
X56597664Y-73523873D01*
X56597668Y-73523881D01*
X56630070Y-73572374D01*
X56630071Y-73572374D01*
X57048037Y-73154408D01*
X57065075Y-73217993D01*
X57130901Y-73332007D01*
X57223993Y-73425099D01*
X57338007Y-73490925D01*
X57401590Y-73507962D01*
X56983624Y-73925927D01*
X56983624Y-73925928D01*
X57032118Y-73958331D01*
X57032126Y-73958335D01*
X57223790Y-74037725D01*
X57427270Y-74078200D01*
X57634730Y-74078200D01*
X57838209Y-74037725D01*
X58029870Y-73958337D01*
X58029883Y-73958329D01*
X58078374Y-73925928D01*
X58078374Y-73925927D01*
X57660409Y-73507962D01*
X57723993Y-73490925D01*
X57838007Y-73425099D01*
X57931099Y-73332007D01*
X57996925Y-73217993D01*
X58013962Y-73154409D01*
X58431927Y-73572374D01*
X58431928Y-73572374D01*
X58464329Y-73523883D01*
X58464337Y-73523870D01*
X58543725Y-73332209D01*
X58584200Y-73128730D01*
X58584200Y-72921269D01*
X58543725Y-72717790D01*
X58464335Y-72526126D01*
X58464331Y-72526118D01*
X58431928Y-72477624D01*
X58431927Y-72477624D01*
X58013962Y-72895589D01*
X57996925Y-72832007D01*
X57931099Y-72717993D01*
X57838007Y-72624901D01*
X57723993Y-72559075D01*
X57660407Y-72542037D01*
X58078374Y-72124071D01*
X58078374Y-72124070D01*
X58029881Y-72091668D01*
X58029873Y-72091664D01*
X57838209Y-72012274D01*
X57634730Y-71971800D01*
X57427270Y-71971800D01*
X57223790Y-72012274D01*
X57032127Y-72091664D01*
X57032121Y-72091667D01*
X56983624Y-72124071D01*
X57401590Y-72542037D01*
X57338007Y-72559075D01*
X57223993Y-72624901D01*
X57130901Y-72717993D01*
X57065075Y-72832007D01*
X57048037Y-72895590D01*
X56630071Y-72477624D01*
X56597667Y-72526121D01*
X56597664Y-72526127D01*
X56518274Y-72717790D01*
X56477800Y-72921269D01*
X56044200Y-72921269D01*
X56003725Y-72717790D01*
X55924335Y-72526126D01*
X55924331Y-72526118D01*
X55891928Y-72477624D01*
X55891927Y-72477624D01*
X55473962Y-72895589D01*
X55456925Y-72832007D01*
X55391099Y-72717993D01*
X55298007Y-72624901D01*
X55183993Y-72559075D01*
X55120407Y-72542037D01*
X55538374Y-72124071D01*
X55538374Y-72124070D01*
X55489881Y-72091668D01*
X55489873Y-72091664D01*
X55298209Y-72012274D01*
X55094730Y-71971800D01*
X54887270Y-71971800D01*
X54683790Y-72012274D01*
X54492127Y-72091664D01*
X54492121Y-72091667D01*
X54443624Y-72124071D01*
X54861590Y-72542037D01*
X54798007Y-72559075D01*
X54683993Y-72624901D01*
X54590901Y-72717993D01*
X54525075Y-72832007D01*
X54508037Y-72895590D01*
X54090071Y-72477624D01*
X54057667Y-72526121D01*
X54057664Y-72526127D01*
X53978274Y-72717790D01*
X53937800Y-72921269D01*
X49073300Y-72921269D01*
X49073300Y-69766463D01*
X49075808Y-69758742D01*
X49074539Y-69750726D01*
X49085233Y-69729737D01*
X49092513Y-69707332D01*
X49102765Y-69695328D01*
X49146728Y-69651365D01*
X49202126Y-69623139D01*
X49217863Y-69621900D01*
X54439783Y-69621900D01*
X54498914Y-69641113D01*
X54510918Y-69651365D01*
X54861591Y-70002037D01*
X54798007Y-70019075D01*
X54683993Y-70084901D01*
X54590901Y-70177993D01*
X54525075Y-70292007D01*
X54508037Y-70355590D01*
X54090071Y-69937624D01*
X54057667Y-69986121D01*
X54057664Y-69986127D01*
X53978274Y-70177790D01*
X53937800Y-70381269D01*
X53937800Y-70588730D01*
X53978274Y-70792209D01*
X54057664Y-70983873D01*
X54057668Y-70983881D01*
X54090070Y-71032374D01*
X54090071Y-71032374D01*
X54508037Y-70614408D01*
X54525075Y-70677993D01*
X54590901Y-70792007D01*
X54683993Y-70885099D01*
X54798007Y-70950925D01*
X54861590Y-70967962D01*
X54443624Y-71385927D01*
X54443624Y-71385928D01*
X54492118Y-71418331D01*
X54492126Y-71418335D01*
X54683790Y-71497725D01*
X54887270Y-71538200D01*
X55094730Y-71538200D01*
X55298209Y-71497725D01*
X55489870Y-71418337D01*
X55489883Y-71418329D01*
X55538374Y-71385928D01*
X55538374Y-71385927D01*
X55120409Y-70967962D01*
X55183993Y-70950925D01*
X55298007Y-70885099D01*
X55391099Y-70792007D01*
X55456925Y-70677993D01*
X55473962Y-70614409D01*
X55891927Y-71032374D01*
X55891928Y-71032374D01*
X55924329Y-70983883D01*
X55924337Y-70983870D01*
X56003725Y-70792209D01*
X56044200Y-70588730D01*
X56044200Y-70381269D01*
X56003725Y-70177790D01*
X55924335Y-69986126D01*
X55924331Y-69986118D01*
X55891928Y-69937624D01*
X55891927Y-69937624D01*
X55473962Y-70355589D01*
X55456925Y-70292007D01*
X55391099Y-70177993D01*
X55298007Y-70084901D01*
X55183993Y-70019075D01*
X55120408Y-70002037D01*
X55471082Y-69651365D01*
X55526480Y-69623139D01*
X55542217Y-69621900D01*
X56076186Y-69621900D01*
X56135317Y-69641113D01*
X56147321Y-69651365D01*
X56450136Y-69954179D01*
X56461547Y-69967811D01*
X56463985Y-69971311D01*
X56494199Y-70023643D01*
X56514771Y-70044215D01*
X56519869Y-70051533D01*
X56526424Y-70073164D01*
X56536684Y-70093299D01*
X56535516Y-70103161D01*
X56537903Y-70111035D01*
X56532868Y-70125542D01*
X56530266Y-70147533D01*
X56517792Y-70177646D01*
X56477300Y-70381220D01*
X56477300Y-70588779D01*
X56517792Y-70792351D01*
X56597222Y-70984110D01*
X56597226Y-70984118D01*
X56712536Y-71156692D01*
X56859307Y-71303463D01*
X57031881Y-71418773D01*
X57031883Y-71418774D01*
X57031886Y-71418776D01*
X57223647Y-71498207D01*
X57427220Y-71538700D01*
X57427221Y-71538700D01*
X57634779Y-71538700D01*
X57634780Y-71538700D01*
X57838353Y-71498207D01*
X58030114Y-71418776D01*
X58202694Y-71303462D01*
X58349462Y-71156694D01*
X58464776Y-70984114D01*
X58544207Y-70792353D01*
X58584700Y-70588780D01*
X58584700Y-70381220D01*
X58544207Y-70177647D01*
X58464776Y-69985886D01*
X58432528Y-69937624D01*
X58349463Y-69813307D01*
X58202692Y-69666536D01*
X58030118Y-69551226D01*
X58030110Y-69551222D01*
X57959642Y-69522033D01*
X57838353Y-69471793D01*
X57838349Y-69471792D01*
X57838352Y-69471792D01*
X57675272Y-69439354D01*
X57634780Y-69431300D01*
X57427220Y-69431300D01*
X57359362Y-69444797D01*
X57223645Y-69471793D01*
X57211488Y-69476828D01*
X57184240Y-69478970D01*
X57157259Y-69483244D01*
X57153600Y-69481379D01*
X57149505Y-69481702D01*
X57101861Y-69455018D01*
X57069642Y-69422799D01*
X56536243Y-68889399D01*
X56443461Y-68835831D01*
X56443458Y-68835830D01*
X56415732Y-68828400D01*
X56339972Y-68808100D01*
X56339970Y-68808100D01*
X56339969Y-68808100D01*
X55860926Y-68808100D01*
X55801795Y-68788887D01*
X55765250Y-68738587D01*
X55765250Y-68676413D01*
X55789791Y-68636365D01*
X55809462Y-68616694D01*
X55809463Y-68616692D01*
X55826156Y-68591710D01*
X55924776Y-68444114D01*
X56004207Y-68252353D01*
X56044700Y-68048780D01*
X56044700Y-67841220D01*
X56004207Y-67637647D01*
X55924776Y-67445886D01*
X55809462Y-67273306D01*
X55789791Y-67253635D01*
X55779096Y-67232644D01*
X55765250Y-67213587D01*
X55765250Y-67205469D01*
X55761565Y-67198237D01*
X55765250Y-67174970D01*
X55765250Y-67151413D01*
X55770021Y-67144845D01*
X55771291Y-67136829D01*
X55787947Y-67120172D01*
X55801795Y-67101113D01*
X55809515Y-67098604D01*
X55815255Y-67092865D01*
X55860926Y-67081900D01*
X56057186Y-67081900D01*
X56116317Y-67101113D01*
X56128321Y-67111365D01*
X56510333Y-67493377D01*
X56538559Y-67548775D01*
X56532141Y-67603009D01*
X56517791Y-67637651D01*
X56477300Y-67841220D01*
X56477300Y-68048779D01*
X56517792Y-68252351D01*
X56597222Y-68444110D01*
X56597226Y-68444118D01*
X56712536Y-68616692D01*
X56859307Y-68763463D01*
X57031881Y-68878773D01*
X57031883Y-68878774D01*
X57031886Y-68878776D01*
X57223647Y-68958207D01*
X57427220Y-68998700D01*
X57427221Y-68998700D01*
X57634779Y-68998700D01*
X57634780Y-68998700D01*
X57838353Y-68958207D01*
X58030114Y-68878776D01*
X58202694Y-68763462D01*
X58349462Y-68616694D01*
X58464776Y-68444114D01*
X58544207Y-68252353D01*
X58584700Y-68048780D01*
X58584700Y-67841220D01*
X58544207Y-67637647D01*
X58464776Y-67445886D01*
X58349462Y-67273306D01*
X58202694Y-67126538D01*
X58202692Y-67126536D01*
X58030118Y-67011226D01*
X58030110Y-67011222D01*
X57959642Y-66982033D01*
X57838353Y-66931793D01*
X57838349Y-66931792D01*
X57838352Y-66931792D01*
X57675272Y-66899354D01*
X57634780Y-66891300D01*
X57427220Y-66891300D01*
X57326809Y-66911272D01*
X57223651Y-66931792D01*
X57223650Y-66931792D01*
X57223647Y-66931793D01*
X57198058Y-66942392D01*
X57136077Y-66947269D01*
X57088428Y-66920584D01*
X56906685Y-66738841D01*
X56517243Y-66349399D01*
X56517240Y-66349397D01*
X56424461Y-66295831D01*
X56424458Y-66295830D01*
X56396732Y-66288400D01*
X56320972Y-66268100D01*
X56320970Y-66268100D01*
X56320969Y-66268100D01*
X55860926Y-66268100D01*
X55801795Y-66248887D01*
X55765250Y-66198587D01*
X55765250Y-66136413D01*
X55789791Y-66096365D01*
X55809462Y-66076694D01*
X55809463Y-66076692D01*
X55826156Y-66051710D01*
X55924776Y-65904114D01*
X56004207Y-65712353D01*
X56044700Y-65508780D01*
X56044700Y-65301220D01*
X56477300Y-65301220D01*
X56477300Y-65508779D01*
X56517792Y-65712351D01*
X56597222Y-65904110D01*
X56597226Y-65904118D01*
X56712536Y-66076692D01*
X56859307Y-66223463D01*
X57031881Y-66338773D01*
X57031883Y-66338774D01*
X57031886Y-66338776D01*
X57223647Y-66418207D01*
X57427220Y-66458700D01*
X57427221Y-66458700D01*
X57634779Y-66458700D01*
X57634780Y-66458700D01*
X57838353Y-66418207D01*
X58030114Y-66338776D01*
X58202694Y-66223462D01*
X58349462Y-66076694D01*
X58464776Y-65904114D01*
X58544207Y-65712353D01*
X58584700Y-65508780D01*
X58584700Y-65301220D01*
X58544207Y-65097647D01*
X58464776Y-64905886D01*
X58349462Y-64733306D01*
X58202694Y-64586538D01*
X58202692Y-64586536D01*
X58030118Y-64471226D01*
X58030110Y-64471222D01*
X57964312Y-64443967D01*
X57838353Y-64391793D01*
X57838349Y-64391792D01*
X57838352Y-64391792D01*
X57675272Y-64359354D01*
X57634780Y-64351300D01*
X57427220Y-64351300D01*
X57386728Y-64359354D01*
X57223648Y-64391792D01*
X57031889Y-64471222D01*
X57031881Y-64471226D01*
X56859307Y-64586536D01*
X56859306Y-64586538D01*
X56712538Y-64733306D01*
X56712536Y-64733307D01*
X56597226Y-64905881D01*
X56597222Y-64905889D01*
X56517792Y-65097648D01*
X56477300Y-65301220D01*
X56044700Y-65301220D01*
X56004207Y-65097647D01*
X55924776Y-64905886D01*
X55809462Y-64733306D01*
X55662694Y-64586538D01*
X55662692Y-64586536D01*
X55490118Y-64471226D01*
X55490110Y-64471222D01*
X55424312Y-64443967D01*
X55298353Y-64391793D01*
X55298349Y-64391792D01*
X55298352Y-64391792D01*
X55135272Y-64359354D01*
X55094780Y-64351300D01*
X54887220Y-64351300D01*
X54846728Y-64359354D01*
X54683648Y-64391792D01*
X54491889Y-64471222D01*
X54491881Y-64471226D01*
X54319307Y-64586536D01*
X54319306Y-64586538D01*
X54172538Y-64733306D01*
X54172536Y-64733307D01*
X54057226Y-64905881D01*
X54057222Y-64905889D01*
X53977792Y-65097648D01*
X53937300Y-65301220D01*
X53937300Y-65508779D01*
X53977792Y-65712351D01*
X54057222Y-65904110D01*
X54057226Y-65904118D01*
X54172536Y-66076692D01*
X54192209Y-66096365D01*
X54220435Y-66151763D01*
X54210709Y-66213171D01*
X54166745Y-66257135D01*
X54121074Y-66268100D01*
X47211263Y-66268100D01*
X47152132Y-66248887D01*
X47140128Y-66238635D01*
X47073001Y-66171508D01*
X46966842Y-66100575D01*
X46966833Y-66100570D01*
X46848875Y-66051710D01*
X46765385Y-66035103D01*
X46723642Y-66026800D01*
X46595958Y-66026800D01*
X46564650Y-66033027D01*
X46470724Y-66051710D01*
X46352766Y-66100570D01*
X46352757Y-66100575D01*
X46246598Y-66171508D01*
X46246597Y-66171510D01*
X46156310Y-66261797D01*
X46156308Y-66261798D01*
X46085375Y-66367957D01*
X46085370Y-66367966D01*
X46036510Y-66485924D01*
X46011600Y-66611158D01*
X46011600Y-66738841D01*
X46036510Y-66864075D01*
X46085370Y-66982033D01*
X46085375Y-66982042D01*
X46159056Y-67092313D01*
X46157132Y-67093598D01*
X46176523Y-67143076D01*
X46176700Y-67149043D01*
X46176700Y-84081337D01*
X46157487Y-84140468D01*
X46147235Y-84152472D01*
X46130910Y-84168797D01*
X46130908Y-84168798D01*
X46059975Y-84274957D01*
X46059970Y-84274966D01*
X46011110Y-84392924D01*
X45986200Y-84518158D01*
X29667700Y-84518158D01*
X29667700Y-82187936D01*
X35700100Y-82187936D01*
X35700100Y-83928063D01*
X35711918Y-83987479D01*
X35711919Y-83987480D01*
X35756940Y-84054860D01*
X35824320Y-84099881D01*
X35883736Y-84111700D01*
X35883737Y-84111700D01*
X37623863Y-84111700D01*
X37623864Y-84111700D01*
X37683280Y-84099881D01*
X37750660Y-84054860D01*
X37795681Y-83987480D01*
X37807500Y-83928064D01*
X37807500Y-82187936D01*
X37795681Y-82128520D01*
X37750660Y-82061140D01*
X37683280Y-82016119D01*
X37683279Y-82016118D01*
X37635682Y-82006650D01*
X37623864Y-82004300D01*
X35883736Y-82004300D01*
X35873878Y-82006260D01*
X35824320Y-82016118D01*
X35756940Y-82061140D01*
X35711918Y-82128520D01*
X35700100Y-82187936D01*
X29667700Y-82187936D01*
X29667700Y-71919079D01*
X35623900Y-71919079D01*
X35623900Y-73659206D01*
X35635718Y-73718622D01*
X35635719Y-73718623D01*
X35680740Y-73786003D01*
X35748120Y-73831024D01*
X35807536Y-73842843D01*
X35807537Y-73842843D01*
X37547663Y-73842843D01*
X37547664Y-73842843D01*
X37607080Y-73831024D01*
X37674460Y-73786003D01*
X37719481Y-73718623D01*
X37731300Y-73659207D01*
X37731300Y-71919079D01*
X37719481Y-71859663D01*
X37674460Y-71792283D01*
X37607080Y-71747262D01*
X37607079Y-71747261D01*
X37559482Y-71737793D01*
X37547664Y-71735443D01*
X35807536Y-71735443D01*
X35797678Y-71737403D01*
X35748120Y-71747261D01*
X35680740Y-71792283D01*
X35635718Y-71859663D01*
X35623900Y-71919079D01*
X29667700Y-71919079D01*
X29667700Y-61650222D01*
X35649300Y-61650222D01*
X35649300Y-63390349D01*
X35661118Y-63449765D01*
X35661119Y-63449766D01*
X35706140Y-63517146D01*
X35773520Y-63562167D01*
X35832936Y-63573986D01*
X35832937Y-63573986D01*
X37573063Y-63573986D01*
X37573064Y-63573986D01*
X37632480Y-63562167D01*
X37699860Y-63517146D01*
X37744881Y-63449766D01*
X37756700Y-63390350D01*
X37756700Y-62761220D01*
X53937300Y-62761220D01*
X53937300Y-62968779D01*
X53977792Y-63172351D01*
X54057222Y-63364110D01*
X54057226Y-63364118D01*
X54172536Y-63536692D01*
X54319307Y-63683463D01*
X54491881Y-63798773D01*
X54491883Y-63798774D01*
X54491886Y-63798776D01*
X54683647Y-63878207D01*
X54887220Y-63918700D01*
X54887221Y-63918700D01*
X55094779Y-63918700D01*
X55094780Y-63918700D01*
X55298353Y-63878207D01*
X55490114Y-63798776D01*
X55662694Y-63683462D01*
X55809462Y-63536694D01*
X55924776Y-63364114D01*
X56004207Y-63172353D01*
X56044700Y-62968780D01*
X56044700Y-62761220D01*
X56477300Y-62761220D01*
X56477300Y-62968779D01*
X56517792Y-63172351D01*
X56597222Y-63364110D01*
X56597226Y-63364118D01*
X56712536Y-63536692D01*
X56859307Y-63683463D01*
X57031881Y-63798773D01*
X57031883Y-63798774D01*
X57031886Y-63798776D01*
X57223647Y-63878207D01*
X57427220Y-63918700D01*
X57427221Y-63918700D01*
X57634779Y-63918700D01*
X57634780Y-63918700D01*
X57838353Y-63878207D01*
X58030114Y-63798776D01*
X58202694Y-63683462D01*
X58349462Y-63536694D01*
X58464776Y-63364114D01*
X58544207Y-63172353D01*
X58584700Y-62968780D01*
X58584700Y-62761220D01*
X58544207Y-62557647D01*
X58464776Y-62365886D01*
X58349462Y-62193306D01*
X58202694Y-62046538D01*
X58202692Y-62046536D01*
X58030118Y-61931226D01*
X58030110Y-61931222D01*
X57964312Y-61903967D01*
X57838353Y-61851793D01*
X57838349Y-61851792D01*
X57838352Y-61851792D01*
X57675272Y-61819354D01*
X57634780Y-61811300D01*
X57427220Y-61811300D01*
X57386728Y-61819354D01*
X57223648Y-61851792D01*
X57031889Y-61931222D01*
X57031881Y-61931226D01*
X56859307Y-62046536D01*
X56859306Y-62046538D01*
X56712538Y-62193306D01*
X56712536Y-62193307D01*
X56597226Y-62365881D01*
X56597222Y-62365889D01*
X56517792Y-62557648D01*
X56477300Y-62761220D01*
X56044700Y-62761220D01*
X56004207Y-62557647D01*
X55924776Y-62365886D01*
X55809462Y-62193306D01*
X55662694Y-62046538D01*
X55662692Y-62046536D01*
X55490118Y-61931226D01*
X55490110Y-61931222D01*
X55424312Y-61903967D01*
X55298353Y-61851793D01*
X55298349Y-61851792D01*
X55298352Y-61851792D01*
X55135272Y-61819354D01*
X55094780Y-61811300D01*
X54887220Y-61811300D01*
X54846728Y-61819354D01*
X54683648Y-61851792D01*
X54491889Y-61931222D01*
X54491881Y-61931226D01*
X54319307Y-62046536D01*
X54319306Y-62046538D01*
X54172538Y-62193306D01*
X54172536Y-62193307D01*
X54057226Y-62365881D01*
X54057222Y-62365889D01*
X53977792Y-62557648D01*
X53937300Y-62761220D01*
X37756700Y-62761220D01*
X37756700Y-61650222D01*
X37744881Y-61590806D01*
X37699860Y-61523426D01*
X37632480Y-61478405D01*
X37632479Y-61478404D01*
X37584882Y-61468936D01*
X37573064Y-61466586D01*
X35832936Y-61466586D01*
X35823078Y-61468546D01*
X35773520Y-61478404D01*
X35706140Y-61523426D01*
X35661118Y-61590806D01*
X35649300Y-61650222D01*
X29667700Y-61650222D01*
X29667700Y-60221220D01*
X53937300Y-60221220D01*
X53937300Y-60428779D01*
X53977792Y-60632351D01*
X54057222Y-60824110D01*
X54057226Y-60824118D01*
X54172536Y-60996692D01*
X54319307Y-61143463D01*
X54491881Y-61258773D01*
X54491883Y-61258774D01*
X54491886Y-61258776D01*
X54683647Y-61338207D01*
X54887220Y-61378700D01*
X54887221Y-61378700D01*
X55094779Y-61378700D01*
X55094780Y-61378700D01*
X55298353Y-61338207D01*
X55490114Y-61258776D01*
X55662694Y-61143462D01*
X55809462Y-60996694D01*
X55924776Y-60824114D01*
X56004207Y-60632353D01*
X56044700Y-60428780D01*
X56044700Y-60221220D01*
X56477300Y-60221220D01*
X56477300Y-60428779D01*
X56517792Y-60632351D01*
X56597222Y-60824110D01*
X56597226Y-60824118D01*
X56712536Y-60996692D01*
X56859307Y-61143463D01*
X57031881Y-61258773D01*
X57031883Y-61258774D01*
X57031886Y-61258776D01*
X57223647Y-61338207D01*
X57427220Y-61378700D01*
X57427221Y-61378700D01*
X57634779Y-61378700D01*
X57634780Y-61378700D01*
X57838353Y-61338207D01*
X58030114Y-61258776D01*
X58202694Y-61143462D01*
X58349462Y-60996694D01*
X58464776Y-60824114D01*
X58544207Y-60632353D01*
X58584700Y-60428780D01*
X58584700Y-60221220D01*
X58544207Y-60017647D01*
X58464776Y-59825886D01*
X58349462Y-59653306D01*
X58202694Y-59506538D01*
X58202692Y-59506536D01*
X58030118Y-59391226D01*
X58030110Y-59391222D01*
X57964312Y-59363967D01*
X57838353Y-59311793D01*
X57838349Y-59311792D01*
X57838352Y-59311792D01*
X57675272Y-59279354D01*
X57634780Y-59271300D01*
X57427220Y-59271300D01*
X57386728Y-59279354D01*
X57223648Y-59311792D01*
X57031889Y-59391222D01*
X57031881Y-59391226D01*
X56859307Y-59506536D01*
X56859306Y-59506538D01*
X56712538Y-59653306D01*
X56712536Y-59653307D01*
X56597226Y-59825881D01*
X56597222Y-59825889D01*
X56517792Y-60017648D01*
X56477300Y-60221220D01*
X56044700Y-60221220D01*
X56004207Y-60017647D01*
X55924776Y-59825886D01*
X55809462Y-59653306D01*
X55662694Y-59506538D01*
X55662692Y-59506536D01*
X55490118Y-59391226D01*
X55490110Y-59391222D01*
X55424312Y-59363967D01*
X55298353Y-59311793D01*
X55298349Y-59311792D01*
X55298352Y-59311792D01*
X55135272Y-59279354D01*
X55094780Y-59271300D01*
X54887220Y-59271300D01*
X54846728Y-59279354D01*
X54683648Y-59311792D01*
X54491889Y-59391222D01*
X54491881Y-59391226D01*
X54319307Y-59506536D01*
X54319306Y-59506538D01*
X54172538Y-59653306D01*
X54172536Y-59653307D01*
X54057226Y-59825881D01*
X54057222Y-59825889D01*
X53977792Y-60017648D01*
X53937300Y-60221220D01*
X29667700Y-60221220D01*
X29667700Y-51381365D01*
X35700100Y-51381365D01*
X35700100Y-53121492D01*
X35711918Y-53180908D01*
X35711919Y-53180909D01*
X35756940Y-53248289D01*
X35824320Y-53293310D01*
X35883736Y-53305129D01*
X35883737Y-53305129D01*
X37623863Y-53305129D01*
X37623864Y-53305129D01*
X37683280Y-53293310D01*
X37750660Y-53248289D01*
X37795681Y-53180909D01*
X37807500Y-53121493D01*
X37807500Y-52809729D01*
X37826713Y-52750598D01*
X37877013Y-52714053D01*
X37908100Y-52709129D01*
X38989973Y-52709129D01*
X39049104Y-52728342D01*
X39061108Y-52738594D01*
X40343335Y-54020820D01*
X40371561Y-54076218D01*
X40372800Y-54091955D01*
X40372800Y-54140441D01*
X40397710Y-54265675D01*
X40446570Y-54383633D01*
X40446575Y-54383642D01*
X40517508Y-54489801D01*
X40607798Y-54580091D01*
X40713957Y-54651024D01*
X40713966Y-54651029D01*
X40831924Y-54699889D01*
X40831925Y-54699889D01*
X40831927Y-54699890D01*
X40957158Y-54724800D01*
X40957159Y-54724800D01*
X41084841Y-54724800D01*
X41084842Y-54724800D01*
X41210073Y-54699890D01*
X41328038Y-54651027D01*
X41434203Y-54580090D01*
X41524490Y-54489803D01*
X41595427Y-54383638D01*
X41644290Y-54265673D01*
X41669200Y-54140442D01*
X41669200Y-54012758D01*
X41644290Y-53887527D01*
X41595427Y-53769562D01*
X41588169Y-53758700D01*
X41524491Y-53663398D01*
X41434201Y-53573108D01*
X41328042Y-53502175D01*
X41328033Y-53502170D01*
X41210075Y-53453310D01*
X41084837Y-53428399D01*
X41079922Y-53427915D01*
X41080100Y-53426107D01*
X41028024Y-53409187D01*
X41016020Y-53398935D01*
X40326214Y-52709129D01*
X39502264Y-51885178D01*
X39502261Y-51885176D01*
X39397898Y-51824922D01*
X39397895Y-51824921D01*
X39366708Y-51816564D01*
X39281489Y-51793729D01*
X39281487Y-51793729D01*
X39281486Y-51793729D01*
X37908100Y-51793729D01*
X37848969Y-51774516D01*
X37812424Y-51724216D01*
X37807500Y-51693129D01*
X37807500Y-51381365D01*
X37795681Y-51321949D01*
X37750660Y-51254569D01*
X37683280Y-51209548D01*
X37683279Y-51209547D01*
X37635682Y-51200079D01*
X37623864Y-51197729D01*
X35883736Y-51197729D01*
X35873878Y-51199689D01*
X35824320Y-51209547D01*
X35756940Y-51254569D01*
X35711918Y-51321949D01*
X35700100Y-51381365D01*
X29667700Y-51381365D01*
X29667700Y-41065336D01*
X34607900Y-41065336D01*
X34607900Y-42805463D01*
X34619718Y-42864879D01*
X34619719Y-42864880D01*
X34664740Y-42932260D01*
X34732120Y-42977281D01*
X34791536Y-42989100D01*
X34791537Y-42989100D01*
X36531663Y-42989100D01*
X36531664Y-42989100D01*
X36591080Y-42977281D01*
X36658460Y-42932260D01*
X36703481Y-42864880D01*
X36715300Y-42805464D01*
X36715300Y-41065336D01*
X36703481Y-41005920D01*
X36658460Y-40938540D01*
X36591080Y-40893519D01*
X36591079Y-40893518D01*
X36543482Y-40884050D01*
X36531664Y-40881700D01*
X34791536Y-40881700D01*
X34781678Y-40883660D01*
X34732120Y-40893518D01*
X34664740Y-40938540D01*
X34619718Y-41005920D01*
X34607900Y-41065336D01*
X29667700Y-41065336D01*
X29667700Y-39318700D01*
X29686913Y-39259569D01*
X29737213Y-39223024D01*
X29768300Y-39218100D01*
X37331734Y-39218100D01*
X37390865Y-39237313D01*
X37402869Y-39247565D01*
X41150463Y-42995158D01*
X41150484Y-42995181D01*
X41153986Y-42998683D01*
X41253117Y-43097814D01*
X41369683Y-43175701D01*
X41396508Y-43186811D01*
X41434445Y-43202526D01*
X41434446Y-43202526D01*
X41499205Y-43229351D01*
X41636704Y-43256701D01*
X41636705Y-43256701D01*
X41781855Y-43256701D01*
X41781875Y-43256700D01*
X50851300Y-43256700D01*
X50910431Y-43275913D01*
X50946976Y-43326213D01*
X50951900Y-43357300D01*
X50951900Y-58286895D01*
X50979250Y-58424397D01*
X51032897Y-58553913D01*
X51032898Y-58553916D01*
X51032899Y-58553917D01*
X51110786Y-58670483D01*
X51209917Y-58769614D01*
X51326483Y-58847501D01*
X51391244Y-58874325D01*
X51456002Y-58901149D01*
X51456003Y-58901149D01*
X51456005Y-58901150D01*
X51593504Y-58928500D01*
X51593505Y-58928500D01*
X51733695Y-58928500D01*
X51733696Y-58928500D01*
X51871195Y-58901150D01*
X52000717Y-58847501D01*
X52117283Y-58769614D01*
X52216414Y-58670483D01*
X52294301Y-58553917D01*
X52347950Y-58424395D01*
X52375300Y-58286896D01*
X52375300Y-57681220D01*
X53937300Y-57681220D01*
X53937300Y-57888779D01*
X53977792Y-58092351D01*
X54057222Y-58284110D01*
X54057226Y-58284118D01*
X54172536Y-58456692D01*
X54319307Y-58603463D01*
X54491881Y-58718773D01*
X54491883Y-58718774D01*
X54491886Y-58718776D01*
X54683647Y-58798207D01*
X54887220Y-58838700D01*
X54887221Y-58838700D01*
X55094779Y-58838700D01*
X55094780Y-58838700D01*
X55298353Y-58798207D01*
X55490114Y-58718776D01*
X55662694Y-58603462D01*
X55809462Y-58456694D01*
X55924776Y-58284114D01*
X56004207Y-58092353D01*
X56044700Y-57888780D01*
X56044700Y-57681220D01*
X56477300Y-57681220D01*
X56477300Y-57888779D01*
X56517792Y-58092351D01*
X56597222Y-58284110D01*
X56597226Y-58284118D01*
X56712536Y-58456692D01*
X56859307Y-58603463D01*
X57031881Y-58718773D01*
X57031883Y-58718774D01*
X57031886Y-58718776D01*
X57223647Y-58798207D01*
X57427220Y-58838700D01*
X57427221Y-58838700D01*
X57634779Y-58838700D01*
X57634780Y-58838700D01*
X57838353Y-58798207D01*
X58030114Y-58718776D01*
X58202694Y-58603462D01*
X58349462Y-58456694D01*
X58464776Y-58284114D01*
X58544207Y-58092353D01*
X58584700Y-57888780D01*
X58584700Y-57681220D01*
X58544207Y-57477647D01*
X58464776Y-57285886D01*
X58349462Y-57113306D01*
X58202694Y-56966538D01*
X58202692Y-56966536D01*
X58030118Y-56851226D01*
X58030110Y-56851222D01*
X57964312Y-56823967D01*
X57838353Y-56771793D01*
X57838349Y-56771792D01*
X57838352Y-56771792D01*
X57675272Y-56739354D01*
X57634780Y-56731300D01*
X57427220Y-56731300D01*
X57386728Y-56739354D01*
X57223648Y-56771792D01*
X57031889Y-56851222D01*
X57031881Y-56851226D01*
X56859307Y-56966536D01*
X56859306Y-56966538D01*
X56712538Y-57113306D01*
X56712536Y-57113307D01*
X56597226Y-57285881D01*
X56597222Y-57285889D01*
X56517792Y-57477648D01*
X56477300Y-57681220D01*
X56044700Y-57681220D01*
X56004207Y-57477647D01*
X55924776Y-57285886D01*
X55809462Y-57113306D01*
X55662694Y-56966538D01*
X55662692Y-56966536D01*
X55490118Y-56851226D01*
X55490110Y-56851222D01*
X55424312Y-56823967D01*
X55298353Y-56771793D01*
X55298349Y-56771792D01*
X55298352Y-56771792D01*
X55135272Y-56739354D01*
X55094780Y-56731300D01*
X54887220Y-56731300D01*
X54846728Y-56739354D01*
X54683648Y-56771792D01*
X54491889Y-56851222D01*
X54491881Y-56851226D01*
X54319307Y-56966536D01*
X54319306Y-56966538D01*
X54172538Y-57113306D01*
X54172536Y-57113307D01*
X54057226Y-57285881D01*
X54057222Y-57285889D01*
X53977792Y-57477648D01*
X53937300Y-57681220D01*
X52375300Y-57681220D01*
X52375300Y-55141220D01*
X53937300Y-55141220D01*
X53937300Y-55348779D01*
X53977792Y-55552351D01*
X54057222Y-55744110D01*
X54057226Y-55744118D01*
X54172536Y-55916692D01*
X54319307Y-56063463D01*
X54491881Y-56178773D01*
X54491883Y-56178774D01*
X54491886Y-56178776D01*
X54683647Y-56258207D01*
X54887220Y-56298700D01*
X54887221Y-56298700D01*
X55094779Y-56298700D01*
X55094780Y-56298700D01*
X55298353Y-56258207D01*
X55490114Y-56178776D01*
X55662694Y-56063462D01*
X55809462Y-55916694D01*
X55924776Y-55744114D01*
X56004207Y-55552353D01*
X56044700Y-55348780D01*
X56044700Y-55141220D01*
X56477300Y-55141220D01*
X56477300Y-55348779D01*
X56517792Y-55552351D01*
X56597222Y-55744110D01*
X56597226Y-55744118D01*
X56712536Y-55916692D01*
X56859307Y-56063463D01*
X57031881Y-56178773D01*
X57031883Y-56178774D01*
X57031886Y-56178776D01*
X57223647Y-56258207D01*
X57427220Y-56298700D01*
X57427221Y-56298700D01*
X57634779Y-56298700D01*
X57634780Y-56298700D01*
X57838353Y-56258207D01*
X58030114Y-56178776D01*
X58202694Y-56063462D01*
X58349462Y-55916694D01*
X58464776Y-55744114D01*
X58544207Y-55552353D01*
X58584700Y-55348780D01*
X58584700Y-55141220D01*
X58544207Y-54937647D01*
X58464776Y-54745886D01*
X58401393Y-54651027D01*
X58349463Y-54573307D01*
X58202692Y-54426536D01*
X58030118Y-54311226D01*
X58030110Y-54311222D01*
X57920150Y-54265675D01*
X57838353Y-54231793D01*
X57838349Y-54231792D01*
X57838352Y-54231792D01*
X57675272Y-54199354D01*
X57634780Y-54191300D01*
X57427220Y-54191300D01*
X57386728Y-54199354D01*
X57223648Y-54231792D01*
X57031889Y-54311222D01*
X57031881Y-54311226D01*
X56859307Y-54426536D01*
X56859306Y-54426538D01*
X56712538Y-54573306D01*
X56712536Y-54573307D01*
X56597226Y-54745881D01*
X56597222Y-54745889D01*
X56517792Y-54937648D01*
X56477300Y-55141220D01*
X56044700Y-55141220D01*
X56004207Y-54937647D01*
X55924776Y-54745886D01*
X55861393Y-54651027D01*
X55809463Y-54573307D01*
X55662692Y-54426536D01*
X55490118Y-54311226D01*
X55490110Y-54311222D01*
X55380150Y-54265675D01*
X55298353Y-54231793D01*
X55298349Y-54231792D01*
X55298352Y-54231792D01*
X55135272Y-54199354D01*
X55094780Y-54191300D01*
X54887220Y-54191300D01*
X54846728Y-54199354D01*
X54683648Y-54231792D01*
X54491889Y-54311222D01*
X54491881Y-54311226D01*
X54319307Y-54426536D01*
X54319306Y-54426538D01*
X54172538Y-54573306D01*
X54172536Y-54573307D01*
X54057226Y-54745881D01*
X54057222Y-54745889D01*
X53977792Y-54937648D01*
X53937300Y-55141220D01*
X52375300Y-55141220D01*
X52375300Y-52601220D01*
X53937300Y-52601220D01*
X53937300Y-52808779D01*
X53977792Y-53012351D01*
X54057222Y-53204110D01*
X54057226Y-53204118D01*
X54172536Y-53376692D01*
X54319307Y-53523463D01*
X54491881Y-53638773D01*
X54491883Y-53638774D01*
X54491886Y-53638776D01*
X54683647Y-53718207D01*
X54887220Y-53758700D01*
X54887221Y-53758700D01*
X55094779Y-53758700D01*
X55094780Y-53758700D01*
X55298353Y-53718207D01*
X55490114Y-53638776D01*
X55662694Y-53523462D01*
X55809462Y-53376694D01*
X55924776Y-53204114D01*
X56004207Y-53012353D01*
X56044700Y-52808780D01*
X56044700Y-52601220D01*
X56477300Y-52601220D01*
X56477300Y-52808779D01*
X56517792Y-53012351D01*
X56597222Y-53204110D01*
X56597226Y-53204118D01*
X56712536Y-53376692D01*
X56859307Y-53523463D01*
X57031881Y-53638773D01*
X57031883Y-53638774D01*
X57031886Y-53638776D01*
X57223647Y-53718207D01*
X57427220Y-53758700D01*
X57427221Y-53758700D01*
X57634779Y-53758700D01*
X57634780Y-53758700D01*
X57838353Y-53718207D01*
X58030114Y-53638776D01*
X58202694Y-53523462D01*
X58349462Y-53376694D01*
X58464776Y-53204114D01*
X58544207Y-53012353D01*
X58584700Y-52808780D01*
X58584700Y-52601220D01*
X58544207Y-52397647D01*
X58464776Y-52205886D01*
X58349462Y-52033306D01*
X58202694Y-51886538D01*
X58202692Y-51886536D01*
X58030118Y-51771226D01*
X58030110Y-51771222D01*
X57964312Y-51743967D01*
X57838353Y-51691793D01*
X57838349Y-51691792D01*
X57838352Y-51691792D01*
X57675272Y-51659354D01*
X57634780Y-51651300D01*
X57427220Y-51651300D01*
X57386728Y-51659354D01*
X57223648Y-51691792D01*
X57031889Y-51771222D01*
X57031881Y-51771226D01*
X56859307Y-51886536D01*
X56859306Y-51886538D01*
X56712538Y-52033306D01*
X56712536Y-52033307D01*
X56597226Y-52205881D01*
X56597222Y-52205889D01*
X56517792Y-52397648D01*
X56477300Y-52601220D01*
X56044700Y-52601220D01*
X56004207Y-52397647D01*
X55924776Y-52205886D01*
X55809462Y-52033306D01*
X55662694Y-51886538D01*
X55662692Y-51886536D01*
X55490118Y-51771226D01*
X55490110Y-51771222D01*
X55424312Y-51743967D01*
X55298353Y-51691793D01*
X55298349Y-51691792D01*
X55298352Y-51691792D01*
X55135272Y-51659354D01*
X55094780Y-51651300D01*
X54887220Y-51651300D01*
X54846728Y-51659354D01*
X54683648Y-51691792D01*
X54491889Y-51771222D01*
X54491881Y-51771226D01*
X54319307Y-51886536D01*
X54319306Y-51886538D01*
X54172538Y-52033306D01*
X54172536Y-52033307D01*
X54057226Y-52205881D01*
X54057222Y-52205889D01*
X53977792Y-52397648D01*
X53937300Y-52601220D01*
X52375300Y-52601220D01*
X52375300Y-50061220D01*
X53937300Y-50061220D01*
X53937300Y-50268779D01*
X53977792Y-50472351D01*
X54057222Y-50664110D01*
X54057226Y-50664118D01*
X54172536Y-50836692D01*
X54319307Y-50983463D01*
X54491881Y-51098773D01*
X54491883Y-51098774D01*
X54491886Y-51098776D01*
X54683647Y-51178207D01*
X54887220Y-51218700D01*
X54887221Y-51218700D01*
X55094779Y-51218700D01*
X55094780Y-51218700D01*
X55298353Y-51178207D01*
X55490114Y-51098776D01*
X55662694Y-50983462D01*
X55809462Y-50836694D01*
X55924776Y-50664114D01*
X56004207Y-50472353D01*
X56044700Y-50268780D01*
X56044700Y-50061220D01*
X56477300Y-50061220D01*
X56477300Y-50268779D01*
X56517792Y-50472351D01*
X56597222Y-50664110D01*
X56597226Y-50664118D01*
X56712536Y-50836692D01*
X56859307Y-50983463D01*
X57031881Y-51098773D01*
X57031883Y-51098774D01*
X57031886Y-51098776D01*
X57223647Y-51178207D01*
X57427220Y-51218700D01*
X57427221Y-51218700D01*
X57634779Y-51218700D01*
X57634780Y-51218700D01*
X57838353Y-51178207D01*
X58030114Y-51098776D01*
X58202694Y-50983462D01*
X58349462Y-50836694D01*
X58464776Y-50664114D01*
X58544207Y-50472353D01*
X58584700Y-50268780D01*
X58584700Y-50061220D01*
X58544207Y-49857647D01*
X58464776Y-49665886D01*
X58349462Y-49493306D01*
X58202694Y-49346538D01*
X58202692Y-49346536D01*
X58030118Y-49231226D01*
X58030110Y-49231222D01*
X57964312Y-49203967D01*
X57838353Y-49151793D01*
X57838349Y-49151792D01*
X57838352Y-49151792D01*
X57675272Y-49119354D01*
X57634780Y-49111300D01*
X57427220Y-49111300D01*
X57386728Y-49119354D01*
X57223648Y-49151792D01*
X57031889Y-49231222D01*
X57031881Y-49231226D01*
X56859307Y-49346536D01*
X56859306Y-49346538D01*
X56712538Y-49493306D01*
X56712536Y-49493307D01*
X56597226Y-49665881D01*
X56597222Y-49665889D01*
X56517792Y-49857648D01*
X56477300Y-50061220D01*
X56044700Y-50061220D01*
X56004207Y-49857647D01*
X55924776Y-49665886D01*
X55809462Y-49493306D01*
X55662694Y-49346538D01*
X55662692Y-49346536D01*
X55490118Y-49231226D01*
X55490110Y-49231222D01*
X55424312Y-49203967D01*
X55298353Y-49151793D01*
X55298349Y-49151792D01*
X55298352Y-49151792D01*
X55135272Y-49119354D01*
X55094780Y-49111300D01*
X54887220Y-49111300D01*
X54846728Y-49119354D01*
X54683648Y-49151792D01*
X54491889Y-49231222D01*
X54491881Y-49231226D01*
X54319307Y-49346536D01*
X54319306Y-49346538D01*
X54172538Y-49493306D01*
X54172536Y-49493307D01*
X54057226Y-49665881D01*
X54057222Y-49665889D01*
X53977792Y-49857648D01*
X53937300Y-50061220D01*
X52375300Y-50061220D01*
X52375300Y-47521220D01*
X53937300Y-47521220D01*
X53937300Y-47728779D01*
X53977792Y-47932351D01*
X54057222Y-48124110D01*
X54057226Y-48124118D01*
X54172536Y-48296692D01*
X54319307Y-48443463D01*
X54491881Y-48558773D01*
X54491883Y-48558774D01*
X54491886Y-48558776D01*
X54683647Y-48638207D01*
X54887220Y-48678700D01*
X54887221Y-48678700D01*
X55094779Y-48678700D01*
X55094780Y-48678700D01*
X55298353Y-48638207D01*
X55490114Y-48558776D01*
X55662694Y-48443462D01*
X55809462Y-48296694D01*
X55924776Y-48124114D01*
X56004207Y-47932353D01*
X56044700Y-47728780D01*
X56044700Y-47521220D01*
X56477300Y-47521220D01*
X56477300Y-47728779D01*
X56517792Y-47932351D01*
X56597222Y-48124110D01*
X56597226Y-48124118D01*
X56712536Y-48296692D01*
X56859307Y-48443463D01*
X57031881Y-48558773D01*
X57031883Y-48558774D01*
X57031886Y-48558776D01*
X57223647Y-48638207D01*
X57427220Y-48678700D01*
X57427221Y-48678700D01*
X57634779Y-48678700D01*
X57634780Y-48678700D01*
X57838353Y-48638207D01*
X58030114Y-48558776D01*
X58202694Y-48443462D01*
X58349462Y-48296694D01*
X58464776Y-48124114D01*
X58544207Y-47932353D01*
X58584700Y-47728780D01*
X58584700Y-47521220D01*
X58544207Y-47317647D01*
X58464776Y-47125886D01*
X58349462Y-46953306D01*
X58202694Y-46806538D01*
X58202692Y-46806536D01*
X58030118Y-46691226D01*
X58030110Y-46691222D01*
X57964312Y-46663967D01*
X57838353Y-46611793D01*
X57838349Y-46611792D01*
X57838352Y-46611792D01*
X57675272Y-46579354D01*
X57634780Y-46571300D01*
X57427220Y-46571300D01*
X57386728Y-46579354D01*
X57223648Y-46611792D01*
X57031889Y-46691222D01*
X57031881Y-46691226D01*
X56859307Y-46806536D01*
X56859306Y-46806538D01*
X56712538Y-46953306D01*
X56712536Y-46953307D01*
X56597226Y-47125881D01*
X56597222Y-47125889D01*
X56517792Y-47317648D01*
X56477300Y-47521220D01*
X56044700Y-47521220D01*
X56004207Y-47317647D01*
X55924776Y-47125886D01*
X55809462Y-46953306D01*
X55662694Y-46806538D01*
X55662692Y-46806536D01*
X55490118Y-46691226D01*
X55490110Y-46691222D01*
X55424312Y-46663967D01*
X55298353Y-46611793D01*
X55298349Y-46611792D01*
X55298352Y-46611792D01*
X55135272Y-46579354D01*
X55094780Y-46571300D01*
X54887220Y-46571300D01*
X54846728Y-46579354D01*
X54683648Y-46611792D01*
X54491889Y-46691222D01*
X54491881Y-46691226D01*
X54319307Y-46806536D01*
X54319306Y-46806538D01*
X54172538Y-46953306D01*
X54172536Y-46953307D01*
X54057226Y-47125881D01*
X54057222Y-47125889D01*
X53977792Y-47317648D01*
X53937300Y-47521220D01*
X52375300Y-47521220D01*
X52375300Y-44981220D01*
X53937300Y-44981220D01*
X53937300Y-45188779D01*
X53977792Y-45392351D01*
X54057222Y-45584110D01*
X54057226Y-45584118D01*
X54172536Y-45756692D01*
X54319307Y-45903463D01*
X54491881Y-46018773D01*
X54491883Y-46018774D01*
X54491886Y-46018776D01*
X54683647Y-46098207D01*
X54887220Y-46138700D01*
X54887221Y-46138700D01*
X55094779Y-46138700D01*
X55094780Y-46138700D01*
X55298353Y-46098207D01*
X55490114Y-46018776D01*
X55662694Y-45903462D01*
X55809462Y-45756694D01*
X55924776Y-45584114D01*
X56004207Y-45392353D01*
X56044700Y-45188780D01*
X56044700Y-44981220D01*
X56477300Y-44981220D01*
X56477300Y-45188779D01*
X56517792Y-45392351D01*
X56597222Y-45584110D01*
X56597226Y-45584118D01*
X56712536Y-45756692D01*
X56859307Y-45903463D01*
X57031881Y-46018773D01*
X57031883Y-46018774D01*
X57031886Y-46018776D01*
X57223647Y-46098207D01*
X57427220Y-46138700D01*
X57427221Y-46138700D01*
X57634779Y-46138700D01*
X57634780Y-46138700D01*
X57838353Y-46098207D01*
X58030114Y-46018776D01*
X58202694Y-45903462D01*
X58349462Y-45756694D01*
X58464776Y-45584114D01*
X58544207Y-45392353D01*
X58584700Y-45188780D01*
X58584700Y-44981220D01*
X58544207Y-44777647D01*
X58464776Y-44585886D01*
X58349462Y-44413306D01*
X58202694Y-44266538D01*
X58202692Y-44266536D01*
X58030118Y-44151226D01*
X58030110Y-44151222D01*
X57964312Y-44123967D01*
X57838353Y-44071793D01*
X57838349Y-44071792D01*
X57838352Y-44071792D01*
X57675272Y-44039354D01*
X57634780Y-44031300D01*
X57427220Y-44031300D01*
X57386728Y-44039354D01*
X57223648Y-44071792D01*
X57031889Y-44151222D01*
X57031881Y-44151226D01*
X56859307Y-44266536D01*
X56859306Y-44266538D01*
X56712538Y-44413306D01*
X56712536Y-44413307D01*
X56597226Y-44585881D01*
X56597222Y-44585889D01*
X56517792Y-44777648D01*
X56477300Y-44981220D01*
X56044700Y-44981220D01*
X56004207Y-44777647D01*
X55924776Y-44585886D01*
X55809462Y-44413306D01*
X55662694Y-44266538D01*
X55662692Y-44266536D01*
X55490118Y-44151226D01*
X55490110Y-44151222D01*
X55424312Y-44123967D01*
X55298353Y-44071793D01*
X55298349Y-44071792D01*
X55298352Y-44071792D01*
X55135272Y-44039354D01*
X55094780Y-44031300D01*
X54887220Y-44031300D01*
X54846728Y-44039354D01*
X54683648Y-44071792D01*
X54491889Y-44151222D01*
X54491881Y-44151226D01*
X54319307Y-44266536D01*
X54319306Y-44266538D01*
X54172538Y-44413306D01*
X54172536Y-44413307D01*
X54057226Y-44585881D01*
X54057222Y-44585889D01*
X53977792Y-44777648D01*
X53937300Y-44981220D01*
X52375300Y-44981220D01*
X52375300Y-43357300D01*
X52394513Y-43298169D01*
X52444813Y-43261624D01*
X52475900Y-43256700D01*
X54170874Y-43256700D01*
X54230005Y-43275913D01*
X54242009Y-43286165D01*
X54319307Y-43363463D01*
X54491881Y-43478773D01*
X54491883Y-43478774D01*
X54491886Y-43478776D01*
X54683647Y-43558207D01*
X54887220Y-43598700D01*
X54887221Y-43598700D01*
X55094779Y-43598700D01*
X55094780Y-43598700D01*
X55298353Y-43558207D01*
X55490114Y-43478776D01*
X55662694Y-43363462D01*
X55809462Y-43216694D01*
X55924776Y-43044114D01*
X56004207Y-42852353D01*
X56044700Y-42648780D01*
X56044700Y-42441220D01*
X56477300Y-42441220D01*
X56477300Y-42648779D01*
X56517792Y-42852351D01*
X56597222Y-43044110D01*
X56597226Y-43044118D01*
X56712536Y-43216692D01*
X56859307Y-43363463D01*
X57031881Y-43478773D01*
X57031883Y-43478774D01*
X57031886Y-43478776D01*
X57223647Y-43558207D01*
X57427220Y-43598700D01*
X57427221Y-43598700D01*
X57634779Y-43598700D01*
X57634780Y-43598700D01*
X57838353Y-43558207D01*
X58030114Y-43478776D01*
X58202694Y-43363462D01*
X58349462Y-43216694D01*
X58464776Y-43044114D01*
X58544207Y-42852353D01*
X58584700Y-42648780D01*
X58584700Y-42441220D01*
X58544207Y-42237647D01*
X58464776Y-42045886D01*
X58349462Y-41873306D01*
X58202694Y-41726538D01*
X58202692Y-41726536D01*
X58030118Y-41611226D01*
X58030110Y-41611222D01*
X57964312Y-41583967D01*
X57838353Y-41531793D01*
X57838349Y-41531792D01*
X57838352Y-41531792D01*
X57675272Y-41499354D01*
X57634780Y-41491300D01*
X57427220Y-41491300D01*
X57386728Y-41499354D01*
X57223648Y-41531792D01*
X57031889Y-41611222D01*
X57031881Y-41611226D01*
X56859307Y-41726536D01*
X56859306Y-41726538D01*
X56712538Y-41873306D01*
X56712536Y-41873307D01*
X56597226Y-42045881D01*
X56597222Y-42045889D01*
X56517792Y-42237648D01*
X56477300Y-42441220D01*
X56044700Y-42441220D01*
X56004207Y-42237647D01*
X55924776Y-42045886D01*
X55809462Y-41873306D01*
X55662694Y-41726538D01*
X55662692Y-41726536D01*
X55490118Y-41611226D01*
X55490110Y-41611222D01*
X55424312Y-41583967D01*
X55298353Y-41531793D01*
X55298349Y-41531792D01*
X55298352Y-41531792D01*
X55135272Y-41499354D01*
X55094780Y-41491300D01*
X54887220Y-41491300D01*
X54846728Y-41499354D01*
X54683648Y-41531792D01*
X54491889Y-41611222D01*
X54491881Y-41611226D01*
X54319307Y-41726536D01*
X54319306Y-41726538D01*
X54242009Y-41803835D01*
X54186611Y-41832061D01*
X54170874Y-41833300D01*
X52475900Y-41833300D01*
X52416769Y-41814087D01*
X52380224Y-41763787D01*
X52375300Y-41732700D01*
X52375300Y-39901220D01*
X53937300Y-39901220D01*
X53937300Y-40108779D01*
X53977792Y-40312351D01*
X54057222Y-40504110D01*
X54057226Y-40504118D01*
X54172536Y-40676692D01*
X54319307Y-40823463D01*
X54491881Y-40938773D01*
X54491883Y-40938774D01*
X54491886Y-40938776D01*
X54683647Y-41018207D01*
X54887220Y-41058700D01*
X54887221Y-41058700D01*
X55094779Y-41058700D01*
X55094780Y-41058700D01*
X55298353Y-41018207D01*
X55490114Y-40938776D01*
X55662694Y-40823462D01*
X55809462Y-40676694D01*
X55924776Y-40504114D01*
X56004207Y-40312353D01*
X56044700Y-40108780D01*
X56044700Y-39901269D01*
X56477800Y-39901269D01*
X56477800Y-40108730D01*
X56518274Y-40312209D01*
X56597664Y-40503873D01*
X56597668Y-40503881D01*
X56630070Y-40552374D01*
X56630071Y-40552374D01*
X57048037Y-40134408D01*
X57065075Y-40197993D01*
X57130901Y-40312007D01*
X57223993Y-40405099D01*
X57338007Y-40470925D01*
X57401590Y-40487962D01*
X56983624Y-40905927D01*
X56983624Y-40905928D01*
X57032118Y-40938331D01*
X57032126Y-40938335D01*
X57223790Y-41017725D01*
X57427270Y-41058200D01*
X57634730Y-41058200D01*
X57838209Y-41017725D01*
X58029870Y-40938337D01*
X58029883Y-40938329D01*
X58078374Y-40905928D01*
X58078374Y-40905927D01*
X57660409Y-40487962D01*
X57723993Y-40470925D01*
X57838007Y-40405099D01*
X57931099Y-40312007D01*
X57996925Y-40197993D01*
X58013962Y-40134409D01*
X58431927Y-40552374D01*
X58431928Y-40552374D01*
X58464329Y-40503883D01*
X58464337Y-40503870D01*
X58543725Y-40312209D01*
X58584200Y-40108730D01*
X58584200Y-39901269D01*
X58543725Y-39697790D01*
X58464335Y-39506126D01*
X58464331Y-39506118D01*
X58431928Y-39457624D01*
X58431927Y-39457624D01*
X58013962Y-39875589D01*
X57996925Y-39812007D01*
X57931099Y-39697993D01*
X57838007Y-39604901D01*
X57723993Y-39539075D01*
X57660407Y-39522037D01*
X58078374Y-39104071D01*
X58078374Y-39104070D01*
X58029881Y-39071668D01*
X58029873Y-39071664D01*
X57838209Y-38992274D01*
X57634730Y-38951800D01*
X57427270Y-38951800D01*
X57223790Y-38992274D01*
X57032127Y-39071664D01*
X57032121Y-39071667D01*
X56983624Y-39104071D01*
X57401590Y-39522037D01*
X57338007Y-39539075D01*
X57223993Y-39604901D01*
X57130901Y-39697993D01*
X57065075Y-39812007D01*
X57048037Y-39875590D01*
X56630071Y-39457624D01*
X56597667Y-39506121D01*
X56597664Y-39506127D01*
X56518274Y-39697790D01*
X56477800Y-39901269D01*
X56044700Y-39901269D01*
X56044700Y-39901220D01*
X56004207Y-39697647D01*
X55924776Y-39505886D01*
X55892528Y-39457624D01*
X55809463Y-39333307D01*
X55662692Y-39186536D01*
X55490118Y-39071226D01*
X55490110Y-39071222D01*
X55424312Y-39043967D01*
X55298353Y-38991793D01*
X55298349Y-38991792D01*
X55298352Y-38991792D01*
X55135272Y-38959354D01*
X55094780Y-38951300D01*
X54887220Y-38951300D01*
X54846728Y-38959354D01*
X54683648Y-38991792D01*
X54491889Y-39071222D01*
X54491881Y-39071226D01*
X54319307Y-39186536D01*
X54319306Y-39186538D01*
X54172538Y-39333306D01*
X54172536Y-39333307D01*
X54057226Y-39505881D01*
X54057222Y-39505889D01*
X53977792Y-39697648D01*
X53937300Y-39901220D01*
X52375300Y-39901220D01*
X52375300Y-36594936D01*
X53937300Y-36594936D01*
X53937300Y-38335063D01*
X53949118Y-38394479D01*
X53949119Y-38394480D01*
X53994140Y-38461860D01*
X54061520Y-38506881D01*
X54120936Y-38518700D01*
X54120937Y-38518700D01*
X55861063Y-38518700D01*
X55861064Y-38518700D01*
X55920480Y-38506881D01*
X55987860Y-38461860D01*
X56032881Y-38394480D01*
X56044700Y-38335064D01*
X56044700Y-37361220D01*
X56477300Y-37361220D01*
X56477300Y-37568779D01*
X56517792Y-37772351D01*
X56597222Y-37964110D01*
X56597226Y-37964118D01*
X56712536Y-38136692D01*
X56859307Y-38283463D01*
X57031881Y-38398773D01*
X57031883Y-38398774D01*
X57031886Y-38398776D01*
X57223647Y-38478207D01*
X57427220Y-38518700D01*
X57427221Y-38518700D01*
X57634779Y-38518700D01*
X57634780Y-38518700D01*
X57838353Y-38478207D01*
X58030114Y-38398776D01*
X58202694Y-38283462D01*
X58349462Y-38136694D01*
X58464776Y-37964114D01*
X58544207Y-37772353D01*
X58584700Y-37568780D01*
X58584700Y-37361220D01*
X58544207Y-37157647D01*
X58464776Y-36965886D01*
X58349462Y-36793306D01*
X58202694Y-36646538D01*
X58202692Y-36646536D01*
X58030118Y-36531226D01*
X58030110Y-36531222D01*
X57964312Y-36503967D01*
X57838353Y-36451793D01*
X57838349Y-36451792D01*
X57838352Y-36451792D01*
X57675272Y-36419354D01*
X57634780Y-36411300D01*
X57427220Y-36411300D01*
X57386728Y-36419354D01*
X57223648Y-36451792D01*
X57031889Y-36531222D01*
X57031881Y-36531226D01*
X56859307Y-36646536D01*
X56859306Y-36646538D01*
X56712538Y-36793306D01*
X56712536Y-36793307D01*
X56597226Y-36965881D01*
X56597222Y-36965889D01*
X56517792Y-37157648D01*
X56477300Y-37361220D01*
X56044700Y-37361220D01*
X56044700Y-36594936D01*
X56032881Y-36535520D01*
X55987860Y-36468140D01*
X55920480Y-36423119D01*
X55920479Y-36423118D01*
X55872882Y-36413650D01*
X55861064Y-36411300D01*
X54120936Y-36411300D01*
X54111078Y-36413260D01*
X54061520Y-36423118D01*
X53994140Y-36468140D01*
X53949118Y-36535520D01*
X53937300Y-36594936D01*
X52375300Y-36594936D01*
X52375300Y-35388464D01*
X52394513Y-35329333D01*
X52404759Y-35317335D01*
X53991144Y-33730949D01*
X53991158Y-33730938D01*
X53996881Y-33725215D01*
X53996883Y-33725214D01*
X54096014Y-33626083D01*
X54173901Y-33509517D01*
X54189614Y-33471580D01*
X54200726Y-33444755D01*
X54200726Y-33444753D01*
X54227551Y-33379995D01*
X54254901Y-33242496D01*
X54254901Y-33102304D01*
X54254901Y-33098161D01*
X54254900Y-33098135D01*
X54254900Y-31579526D01*
X54274113Y-31520395D01*
X54284365Y-31508391D01*
X54361662Y-31431094D01*
X54361663Y-31431092D01*
X54476973Y-31258518D01*
X54476976Y-31258514D01*
X54556407Y-31066753D01*
X54596900Y-30863180D01*
X54596900Y-30655620D01*
X54556407Y-30452047D01*
X54476976Y-30260286D01*
X54361662Y-30087706D01*
X54214894Y-29940938D01*
X54214890Y-29940934D01*
X54198009Y-29929655D01*
X54159518Y-29880829D01*
X54153300Y-29846010D01*
X54153300Y-26135589D01*
X54172513Y-26076458D01*
X54198013Y-26051941D01*
X54214894Y-26040662D01*
X54361662Y-25893894D01*
X54476976Y-25721314D01*
X54556407Y-25529553D01*
X54596900Y-25325980D01*
X54596900Y-25118420D01*
X54556407Y-24914847D01*
X54476976Y-24723086D01*
X54361662Y-24550506D01*
X54214894Y-24403738D01*
X54214892Y-24403736D01*
X54042318Y-24288426D01*
X54042310Y-24288422D01*
X53976512Y-24261167D01*
X53850553Y-24208993D01*
X53850549Y-24208992D01*
X53850552Y-24208992D01*
X53687472Y-24176554D01*
X53646980Y-24168500D01*
X53439420Y-24168500D01*
X53398928Y-24176554D01*
X53235848Y-24208992D01*
X53044089Y-24288422D01*
X53044081Y-24288426D01*
X52871507Y-24403736D01*
X52871506Y-24403738D01*
X52724738Y-24550506D01*
X52724736Y-24550507D01*
X52609426Y-24723081D01*
X52609422Y-24723089D01*
X52529992Y-24914848D01*
X52489500Y-25118420D01*
X52489500Y-25325979D01*
X52529992Y-25529551D01*
X52609422Y-25721310D01*
X52609426Y-25721318D01*
X52724736Y-25893892D01*
X52871507Y-26040663D01*
X52888387Y-26051941D01*
X52926881Y-26100766D01*
X52933100Y-26135589D01*
X52933100Y-29846010D01*
X52913887Y-29905141D01*
X52888391Y-29929655D01*
X52871509Y-29940934D01*
X52871506Y-29940938D01*
X52724738Y-30087706D01*
X52724736Y-30087707D01*
X52609426Y-30260281D01*
X52609422Y-30260289D01*
X52529992Y-30452048D01*
X52489500Y-30655620D01*
X52489500Y-30863179D01*
X52529992Y-31066751D01*
X52609422Y-31258510D01*
X52609426Y-31258518D01*
X52724736Y-31431092D01*
X52802035Y-31508391D01*
X52830261Y-31563789D01*
X52831500Y-31579526D01*
X52831500Y-32835933D01*
X52812287Y-32895064D01*
X52802035Y-32907068D01*
X51110787Y-34598315D01*
X51032898Y-34714883D01*
X51032897Y-34714886D01*
X51006074Y-34779644D01*
X51006074Y-34779645D01*
X50979249Y-34844404D01*
X50951899Y-34981904D01*
X50951899Y-35127054D01*
X50951900Y-35127075D01*
X50951900Y-41732700D01*
X50932687Y-41791831D01*
X50882387Y-41828376D01*
X50851300Y-41833300D01*
X42043265Y-41833300D01*
X41984134Y-41814087D01*
X41972130Y-41803835D01*
X40107469Y-39939174D01*
X38224531Y-38056235D01*
X38224527Y-38056230D01*
X38121884Y-37953587D01*
X38005316Y-37875698D01*
X38005313Y-37875697D01*
X37940556Y-37848874D01*
X37875795Y-37822049D01*
X37738296Y-37794699D01*
X37598104Y-37794699D01*
X37593145Y-37794699D01*
X37593125Y-37794700D01*
X29768300Y-37794700D01*
X29709169Y-37775487D01*
X29672624Y-37725187D01*
X29667700Y-37694100D01*
X29667700Y-30843650D01*
X35598500Y-30843650D01*
X35598500Y-32583777D01*
X35610318Y-32643193D01*
X35610319Y-32643194D01*
X35655340Y-32710574D01*
X35722720Y-32755595D01*
X35782136Y-32767414D01*
X35782137Y-32767414D01*
X37522263Y-32767414D01*
X37522264Y-32767414D01*
X37581680Y-32755595D01*
X37649060Y-32710574D01*
X37694081Y-32643194D01*
X37705900Y-32583778D01*
X37705900Y-30843650D01*
X37694081Y-30784234D01*
X37649060Y-30716854D01*
X37581680Y-30671833D01*
X37581679Y-30671832D01*
X37534082Y-30662364D01*
X37522264Y-30660014D01*
X35782136Y-30660014D01*
X35772278Y-30661974D01*
X35722720Y-30671832D01*
X35655340Y-30716854D01*
X35610318Y-30784234D01*
X35598500Y-30843650D01*
X29667700Y-30843650D01*
X29667700Y-29889386D01*
X47410000Y-29889386D01*
X47410000Y-30509400D01*
X48030188Y-30509400D01*
X47997275Y-30566407D01*
X47963200Y-30693574D01*
X47963200Y-30825226D01*
X47997275Y-30952393D01*
X48030188Y-31009400D01*
X47410000Y-31009400D01*
X47410000Y-31629413D01*
X47421789Y-31688684D01*
X47466700Y-31755898D01*
X47466701Y-31755899D01*
X47533915Y-31800810D01*
X47593187Y-31812600D01*
X48213200Y-31812600D01*
X48213200Y-31192412D01*
X48270207Y-31225325D01*
X48397374Y-31259400D01*
X48529026Y-31259400D01*
X48656193Y-31225325D01*
X48713200Y-31192412D01*
X48713200Y-31812600D01*
X49333213Y-31812600D01*
X49392484Y-31800810D01*
X49459698Y-31755899D01*
X49459699Y-31755898D01*
X49504610Y-31688684D01*
X49516400Y-31629413D01*
X49516400Y-31009400D01*
X48896212Y-31009400D01*
X48929125Y-30952393D01*
X48963200Y-30825226D01*
X48963200Y-30693574D01*
X48953030Y-30655620D01*
X49949500Y-30655620D01*
X49949500Y-30863179D01*
X49989992Y-31066751D01*
X50069422Y-31258510D01*
X50069426Y-31258518D01*
X50184736Y-31431092D01*
X50331507Y-31577863D01*
X50504081Y-31693173D01*
X50504083Y-31693174D01*
X50504086Y-31693176D01*
X50695847Y-31772607D01*
X50899420Y-31813100D01*
X50899421Y-31813100D01*
X51106979Y-31813100D01*
X51106980Y-31813100D01*
X51310553Y-31772607D01*
X51502314Y-31693176D01*
X51674894Y-31577862D01*
X51821662Y-31431094D01*
X51936976Y-31258514D01*
X52016407Y-31066753D01*
X52056900Y-30863180D01*
X52056900Y-30655620D01*
X52016407Y-30452047D01*
X51936976Y-30260286D01*
X51821662Y-30087706D01*
X51674894Y-29940938D01*
X51674892Y-29940936D01*
X51502318Y-29825626D01*
X51502310Y-29825622D01*
X51436512Y-29798367D01*
X51310553Y-29746193D01*
X51310549Y-29746192D01*
X51310552Y-29746192D01*
X51147472Y-29713754D01*
X51106980Y-29705700D01*
X50899420Y-29705700D01*
X50858928Y-29713754D01*
X50695848Y-29746192D01*
X50504089Y-29825622D01*
X50504081Y-29825626D01*
X50331507Y-29940936D01*
X50331506Y-29940938D01*
X50184738Y-30087706D01*
X50184736Y-30087707D01*
X50069426Y-30260281D01*
X50069422Y-30260289D01*
X49989992Y-30452048D01*
X49949500Y-30655620D01*
X48953030Y-30655620D01*
X48929125Y-30566407D01*
X48896212Y-30509400D01*
X49516400Y-30509400D01*
X49516400Y-29889386D01*
X49504610Y-29830115D01*
X49459699Y-29762901D01*
X49459698Y-29762900D01*
X49392484Y-29717989D01*
X49333213Y-29706200D01*
X48713200Y-29706200D01*
X48713200Y-30326388D01*
X48656193Y-30293475D01*
X48529026Y-30259400D01*
X48397374Y-30259400D01*
X48270207Y-30293475D01*
X48213200Y-30326388D01*
X48213200Y-29706200D01*
X47593187Y-29706200D01*
X47533915Y-29717989D01*
X47466701Y-29762900D01*
X47466700Y-29762901D01*
X47421789Y-29830115D01*
X47410000Y-29889386D01*
X29667700Y-29889386D01*
X29667700Y-24352186D01*
X47410000Y-24352186D01*
X47410000Y-24972200D01*
X48030188Y-24972200D01*
X47997275Y-25029207D01*
X47963200Y-25156374D01*
X47963200Y-25288026D01*
X47997275Y-25415193D01*
X48030188Y-25472200D01*
X47410000Y-25472200D01*
X47410000Y-26092213D01*
X47421789Y-26151484D01*
X47466700Y-26218698D01*
X47466701Y-26218699D01*
X47533915Y-26263610D01*
X47593187Y-26275400D01*
X48213200Y-26275400D01*
X48213200Y-25655212D01*
X48270207Y-25688125D01*
X48397374Y-25722200D01*
X48529026Y-25722200D01*
X48656193Y-25688125D01*
X48713200Y-25655212D01*
X48713200Y-26275400D01*
X49333213Y-26275400D01*
X49392484Y-26263610D01*
X49459698Y-26218699D01*
X49459699Y-26218698D01*
X49504610Y-26151484D01*
X49516400Y-26092213D01*
X49516400Y-25472200D01*
X48896212Y-25472200D01*
X48929125Y-25415193D01*
X48963200Y-25288026D01*
X48963200Y-25156374D01*
X48953030Y-25118420D01*
X49949500Y-25118420D01*
X49949500Y-25325979D01*
X49989992Y-25529551D01*
X50069422Y-25721310D01*
X50069426Y-25721318D01*
X50184736Y-25893892D01*
X50331507Y-26040663D01*
X50504081Y-26155973D01*
X50504083Y-26155974D01*
X50504086Y-26155976D01*
X50695847Y-26235407D01*
X50899420Y-26275900D01*
X50899421Y-26275900D01*
X51106979Y-26275900D01*
X51106980Y-26275900D01*
X51310553Y-26235407D01*
X51502314Y-26155976D01*
X51674894Y-26040662D01*
X51821662Y-25893894D01*
X51936976Y-25721314D01*
X52016407Y-25529553D01*
X52056900Y-25325980D01*
X52056900Y-25118420D01*
X52016407Y-24914847D01*
X51936976Y-24723086D01*
X51821662Y-24550506D01*
X51674894Y-24403738D01*
X51674892Y-24403736D01*
X51502318Y-24288426D01*
X51502310Y-24288422D01*
X51436512Y-24261167D01*
X51310553Y-24208993D01*
X51310549Y-24208992D01*
X51310552Y-24208992D01*
X51147472Y-24176554D01*
X51106980Y-24168500D01*
X50899420Y-24168500D01*
X50858928Y-24176554D01*
X50695848Y-24208992D01*
X50504089Y-24288422D01*
X50504081Y-24288426D01*
X50331507Y-24403736D01*
X50331506Y-24403738D01*
X50184738Y-24550506D01*
X50184736Y-24550507D01*
X50069426Y-24723081D01*
X50069422Y-24723089D01*
X49989992Y-24914848D01*
X49949500Y-25118420D01*
X48953030Y-25118420D01*
X48929125Y-25029207D01*
X48896212Y-24972200D01*
X49516400Y-24972200D01*
X49516400Y-24352186D01*
X49504610Y-24292915D01*
X49459699Y-24225701D01*
X49459698Y-24225700D01*
X49392484Y-24180789D01*
X49333213Y-24169000D01*
X48713200Y-24169000D01*
X48713200Y-24789188D01*
X48656193Y-24756275D01*
X48529026Y-24722200D01*
X48397374Y-24722200D01*
X48270207Y-24756275D01*
X48213200Y-24789188D01*
X48213200Y-24169000D01*
X47593187Y-24169000D01*
X47533915Y-24180789D01*
X47466701Y-24225700D01*
X47466700Y-24225701D01*
X47421789Y-24292915D01*
X47410000Y-24352186D01*
X29667700Y-24352186D01*
X29667700Y-20574793D01*
X35496900Y-20574793D01*
X35496900Y-22314920D01*
X35508718Y-22374336D01*
X35508719Y-22374337D01*
X35553740Y-22441717D01*
X35621120Y-22486738D01*
X35680536Y-22498557D01*
X35680537Y-22498557D01*
X37420663Y-22498557D01*
X37420664Y-22498557D01*
X37480080Y-22486738D01*
X37547460Y-22441717D01*
X37592481Y-22374337D01*
X37604300Y-22314921D01*
X37604300Y-20574793D01*
X37592481Y-20515377D01*
X37547460Y-20447997D01*
X37480080Y-20402976D01*
X37480079Y-20402975D01*
X37432482Y-20393507D01*
X37420664Y-20391157D01*
X35680536Y-20391157D01*
X35670678Y-20393117D01*
X35621120Y-20402975D01*
X35553740Y-20447997D01*
X35508718Y-20515377D01*
X35496900Y-20574793D01*
X29667700Y-20574793D01*
X29667700Y-18128386D01*
X54953000Y-18128386D01*
X54953000Y-18698400D01*
X55465452Y-18698400D01*
X55443682Y-18736108D01*
X55406200Y-18875991D01*
X55406200Y-19020809D01*
X55443682Y-19160692D01*
X55465452Y-19198400D01*
X54953000Y-19198400D01*
X54953000Y-19768413D01*
X54964789Y-19827684D01*
X55009700Y-19894898D01*
X55009701Y-19894899D01*
X55076915Y-19939810D01*
X55136187Y-19951600D01*
X55706200Y-19951600D01*
X55706200Y-19439147D01*
X55743908Y-19460918D01*
X55883791Y-19498400D01*
X56028609Y-19498400D01*
X56168492Y-19460918D01*
X56206200Y-19439147D01*
X56206200Y-19951600D01*
X56776213Y-19951600D01*
X56835484Y-19939810D01*
X56902698Y-19894899D01*
X56902699Y-19894898D01*
X56947610Y-19827684D01*
X56959400Y-19768413D01*
X56959400Y-19198400D01*
X56446948Y-19198400D01*
X56468718Y-19160692D01*
X56506200Y-19020809D01*
X56506200Y-18875991D01*
X56468718Y-18736108D01*
X56446948Y-18698400D01*
X56959400Y-18698400D01*
X56959400Y-18128386D01*
X56947610Y-18069115D01*
X56902699Y-18001901D01*
X56902698Y-18001900D01*
X56835484Y-17956989D01*
X56776213Y-17945200D01*
X56206200Y-17945200D01*
X56206200Y-18457652D01*
X56168492Y-18435882D01*
X56028609Y-18398400D01*
X55883791Y-18398400D01*
X55743908Y-18435882D01*
X55706200Y-18457652D01*
X55706200Y-17945200D01*
X55136187Y-17945200D01*
X55076915Y-17956989D01*
X55009701Y-18001900D01*
X55009700Y-18001901D01*
X54964789Y-18069115D01*
X54953000Y-18128386D01*
X29667700Y-18128386D01*
X29667700Y-10305936D01*
X35522300Y-10305936D01*
X35522300Y-12046063D01*
X35534118Y-12105479D01*
X35534119Y-12105480D01*
X35579140Y-12172860D01*
X35646520Y-12217881D01*
X35705936Y-12229700D01*
X35705937Y-12229700D01*
X37446063Y-12229700D01*
X37446064Y-12229700D01*
X37505480Y-12217881D01*
X37572860Y-12172860D01*
X37617881Y-12105480D01*
X37629700Y-12046064D01*
X37629700Y-10305936D01*
X37617881Y-10246520D01*
X37572860Y-10179140D01*
X37505480Y-10134119D01*
X37505479Y-10134118D01*
X37457882Y-10124650D01*
X37446064Y-10122300D01*
X35705936Y-10122300D01*
X35696078Y-10124260D01*
X35646520Y-10134118D01*
X35579140Y-10179140D01*
X35534118Y-10246520D01*
X35522300Y-10305936D01*
X29667700Y-10305936D01*
X29667700Y-8337304D01*
X29640349Y-8199802D01*
X29586702Y-8070286D01*
X29586701Y-8070283D01*
X29583197Y-8065039D01*
X29508814Y-7953717D01*
X29409683Y-7854586D01*
X29293117Y-7776699D01*
X29293118Y-7776699D01*
X29293116Y-7776698D01*
X29293113Y-7776697D01*
X29163597Y-7723050D01*
X29071929Y-7704816D01*
X29026096Y-7695700D01*
X28885904Y-7695700D01*
X28851529Y-7702537D01*
X28748402Y-7723050D01*
X28618886Y-7776697D01*
X28618883Y-7776698D01*
X28502315Y-7854587D01*
X28403187Y-7953715D01*
X28325298Y-8070283D01*
X28325297Y-8070286D01*
X28271650Y-8199802D01*
X28244300Y-8337304D01*
X28244300Y-87885935D01*
X28244299Y-87885961D01*
X25298400Y-87885961D01*
X25298400Y-84124477D01*
X25288361Y-73842843D01*
X25222273Y-6157720D01*
X25223090Y-6144832D01*
X25245455Y-5970421D01*
X25251983Y-5945481D01*
X25315505Y-5788523D01*
X25328157Y-5766067D01*
X25433399Y-5625181D01*
X25441767Y-5615363D01*
X26618640Y-4401896D01*
X26628590Y-4392919D01*
X26771977Y-4279956D01*
X26795017Y-4266338D01*
X26956871Y-4197831D01*
X26982676Y-4190774D01*
X27163583Y-4166472D01*
X27176957Y-4165577D01*
X41334165Y-4164184D01*
X41347239Y-4165037D01*
G37*
%TD.AperFunction*%
%TD*%
M02*
