%TF.GenerationSoftware,KiCad,Pcbnew,9.0.2*%
%TF.CreationDate,2025-07-04T16:18:25+10:00*%
%TF.ProjectId,v8a_equip_digital_in_iso,7638615f-6571-4756-9970-5f6469676974,rev?*%
%TF.SameCoordinates,Original*%
%TF.FileFunction,Soldermask,Bot*%
%TF.FilePolarity,Negative*%
%FSLAX46Y46*%
G04 Gerber Fmt 4.6, Leading zero omitted, Abs format (unit mm)*
G04 Created by KiCad (PCBNEW 9.0.2) date 2025-07-04 16:18:25*
%MOMM*%
%LPD*%
G01*
G04 APERTURE LIST*
%ADD10C,2.100000*%
%ADD11R,1.700000X1.700000*%
%ADD12C,1.700000*%
%ADD13C,3.500000*%
%ADD14R,1.000000X1.000000*%
%ADD15C,1.000000*%
%ADD16R,1.600000X1.600000*%
%ADD17C,1.600000*%
G04 APERTURE END LIST*
D10*
%TO.C,J33*%
X3000000Y-88950800D03*
X3000000Y-85140800D03*
%TD*%
D11*
%TO.C,J31*%
X36753800Y-83058000D03*
%TD*%
%TO.C,J2*%
X36576000Y-11176000D03*
%TD*%
%TO.C,JP2*%
X48463200Y-30759400D03*
D12*
X51003200Y-30759400D03*
X53543200Y-30759400D03*
%TD*%
D10*
%TO.C,J28*%
X3000000Y-77535314D03*
X3000000Y-73725314D03*
%TD*%
D11*
%TO.C,J13*%
X54991000Y-37465000D03*
D12*
X57531000Y-37465000D03*
X54991000Y-40005000D03*
X57531000Y-40005000D03*
X54991000Y-42545000D03*
X57531000Y-42545000D03*
X54991000Y-45085000D03*
X57531000Y-45085000D03*
X54991000Y-47625000D03*
X57531000Y-47625000D03*
X54991000Y-50165000D03*
X57531000Y-50165000D03*
X54991000Y-52705000D03*
X57531000Y-52705000D03*
X54991000Y-55245000D03*
X57531000Y-55245000D03*
X54991000Y-57785000D03*
X57531000Y-57785000D03*
X54991000Y-60325000D03*
X57531000Y-60325000D03*
X54991000Y-62865000D03*
X57531000Y-62865000D03*
X54991000Y-65405000D03*
X57531000Y-65405000D03*
X54991000Y-67945000D03*
X57531000Y-67945000D03*
X54991000Y-70485000D03*
X57531000Y-70485000D03*
X54991000Y-73025000D03*
X57531000Y-73025000D03*
%TD*%
D10*
%TO.C,J20*%
X3000000Y-54704343D03*
X3000000Y-50894343D03*
%TD*%
D13*
%TO.C,H4*%
X56184800Y-91287600D03*
%TD*%
D11*
%TO.C,J6*%
X36550600Y-21444857D03*
%TD*%
D14*
%TO.C,J17*%
X21717000Y-47523400D03*
D15*
X22987000Y-47523400D03*
%TD*%
D11*
%TO.C,J9*%
X36652200Y-31713714D03*
%TD*%
D14*
%TO.C,J30*%
X15759263Y-83820000D03*
D15*
X15759263Y-85090000D03*
X14489263Y-83820000D03*
X14489263Y-85090000D03*
%TD*%
D14*
%TO.C,J22*%
X15773400Y-63246000D03*
D15*
X15773400Y-64516000D03*
X14503400Y-63246000D03*
X14503400Y-64516000D03*
%TD*%
D14*
%TO.C,J26*%
X15748000Y-73507600D03*
D15*
X15748000Y-74777600D03*
X14478000Y-73507600D03*
X14478000Y-74777600D03*
%TD*%
D16*
%TO.C,U2*%
X55956200Y-18948400D03*
D17*
X55956200Y-16408400D03*
X55956200Y-13868400D03*
X55956200Y-11328400D03*
%TD*%
D10*
%TO.C,J24*%
X3000000Y-66119829D03*
X3000000Y-62309829D03*
%TD*%
D14*
%TO.C,J18*%
X15748000Y-52984400D03*
D15*
X15748000Y-54254400D03*
X14478000Y-52984400D03*
X14478000Y-54254400D03*
%TD*%
D11*
%TO.C,JP1*%
X48463200Y-25222200D03*
D12*
X51003200Y-25222200D03*
X53543200Y-25222200D03*
%TD*%
D14*
%TO.C,J8*%
X21717000Y-27279600D03*
D15*
X22987000Y-27279600D03*
%TD*%
D14*
%TO.C,J7*%
X15759263Y-22132982D03*
D15*
X15759263Y-23402982D03*
X14489263Y-22132982D03*
X14489263Y-23402982D03*
%TD*%
D10*
%TO.C,J10*%
X3000000Y-31873371D03*
X3000000Y-28063371D03*
%TD*%
D11*
%TO.C,CON2*%
X49072800Y-92176600D03*
D12*
X46532800Y-92176600D03*
X43992800Y-92176600D03*
X41452800Y-92176600D03*
%TD*%
D11*
%TO.C,J15*%
X35661600Y-41935400D03*
%TD*%
D10*
%TO.C,J16*%
X3000000Y-43288857D03*
X3000000Y-39478857D03*
%TD*%
D14*
%TO.C,J14*%
X15759263Y-42663439D03*
D15*
X15759263Y-43933439D03*
X14489263Y-42663439D03*
X14489263Y-43933439D03*
%TD*%
D13*
%TO.C,H2*%
X56235600Y-4007600D03*
%TD*%
D11*
%TO.C,J23*%
X36703000Y-62520286D03*
%TD*%
%TO.C,J27*%
X36677600Y-72789143D03*
%TD*%
D14*
%TO.C,J21*%
X21742400Y-57861200D03*
D15*
X23012400Y-57861200D03*
%TD*%
D10*
%TO.C,J5*%
X3000000Y-20457886D03*
X3000000Y-16647886D03*
%TD*%
D14*
%TO.C,J3*%
X15759263Y-11867753D03*
D15*
X15759263Y-13137753D03*
X14489263Y-11867753D03*
X14489263Y-13137753D03*
%TD*%
D14*
%TO.C,J32*%
X21717000Y-87909400D03*
D15*
X22987000Y-87909400D03*
%TD*%
D14*
%TO.C,J12*%
X21717000Y-37490400D03*
D15*
X22987000Y-37490400D03*
%TD*%
D13*
%TO.C,H1*%
X12000000Y-4007600D03*
%TD*%
D14*
%TO.C,J4*%
X21717000Y-16992600D03*
D15*
X22987000Y-16992600D03*
%TD*%
D13*
%TO.C,H3*%
X12000000Y-91287600D03*
%TD*%
D14*
%TO.C,J29*%
X21717000Y-78130400D03*
D15*
X22987000Y-78130400D03*
%TD*%
D11*
%TO.C,J19*%
X36753800Y-52251429D03*
%TD*%
D14*
%TO.C,J25*%
X21717000Y-68300600D03*
D15*
X22987000Y-68300600D03*
%TD*%
D10*
%TO.C,J1*%
X3000000Y-9042400D03*
X3000000Y-5232400D03*
%TD*%
D14*
%TO.C,J11*%
X15759263Y-32398210D03*
D15*
X15759263Y-33668210D03*
X14489263Y-32398210D03*
X14489263Y-33668210D03*
%TD*%
M02*
