M48
; DRILL file {KiCad 9.0.1} date 2025-04-04T11:50:33+1100
; FORMAT={-:-/ absolute / inch / decimal}
; #@! TF.CreationDate,2025-04-04T11:50:33+11:00
; #@! TF.GenerationSoftware,Kicad,Pcbnew,9.0.1
; #@! TF.FileFunction,Plated,1,2,PTH
FMAT,2
INCH
; #@! TA.AperFunction,Plated,PTH,ViaDrill
T1C0.0150
; #@! TA.AperFunction,Plated,PTH,ComponentDrill
T2C0.0315
; #@! TA.AperFunction,Plated,PTH,ComponentDrill
T3C0.0394
; #@! TA.AperFunction,Plated,PTH,ComponentDrill
T4C0.0472
%
G90
G05
T1
X0.942Y-0.749
X0.942Y-2.174
X0.9424Y-1.457
X0.943Y-1.106
X0.944Y-0.056
X0.945Y-0.36
X0.945Y-1.814
X0.945Y-2.552
X0.9459Y-2.938
X0.9462Y-3.232
X1.158Y-1.456
X1.159Y-1.105
X1.162Y-2.552
X1.162Y-2.934
X1.163Y-1.814
X1.163Y-2.174
X1.164Y-0.748
X1.164Y-3.23
X1.602Y-3.097
X1.661Y-0.7454
X1.685Y-2.209
X1.688Y-2.502
X1.69Y-2.7
X1.69Y-2.865
X1.81Y-2.211
X1.8337Y-3.0978
X1.868Y-2.285
X1.933Y-2.685
X1.934Y-2.78
X1.963Y-3.1309
X1.963Y-3.223
X2.029Y-0.747
X2.042Y-2.362
X2.088Y-3.382
T2
X0.373Y-0.422
X0.373Y-0.8715
X0.373Y-1.321
X0.373Y-1.7705
X0.373Y-2.22
X0.373Y-2.6695
X0.373Y-3.119
X0.458Y-3.334
X0.473Y-0.422
X0.473Y-0.8715
X0.473Y-1.321
X0.473Y-1.7705
X0.473Y-2.22
X0.473Y-2.6695
X0.473Y-3.119
X0.558Y-3.334
X0.573Y-0.422
X0.573Y-0.8715
X0.573Y-1.321
X0.573Y-1.7705
X0.573Y-2.22
X0.573Y-2.6695
X0.573Y-3.119
X0.658Y-3.334
T3
X1.634Y-3.632
X1.734Y-3.632
X1.782Y-1.804
X1.782Y-1.904
X1.782Y-2.004
X1.782Y-2.104
X1.834Y-3.632
X1.882Y-1.804
X1.882Y-1.904
X1.882Y-2.004
X1.882Y-2.104
X1.934Y-3.632
X2.165Y-1.474
X2.165Y-1.574
X2.165Y-1.674
X2.165Y-1.774
X2.165Y-1.874
X2.165Y-1.974
X2.165Y-2.074
X2.165Y-2.174
X2.165Y-2.274
X2.165Y-2.374
X2.165Y-2.474
X2.165Y-2.574
X2.165Y-2.674
X2.165Y-2.774
X2.165Y-2.874
X2.265Y-1.474
X2.265Y-1.574
X2.265Y-1.674
X2.265Y-1.774
X2.265Y-1.874
X2.265Y-1.974
X2.265Y-2.074
X2.265Y-2.174
X2.265Y-2.274
X2.265Y-2.374
X2.265Y-2.474
X2.265Y-2.574
X2.265Y-2.674
X2.265Y-2.774
X2.265Y-2.874
T4
X0.1181Y-0.2161
X0.1181Y-0.3661
X0.1181Y-0.6661
X0.1181Y-0.8161
X0.1181Y-1.116
X0.1181Y-1.266
X0.1181Y-1.566
X0.1181Y-1.716
X0.1181Y-2.0159
X0.1181Y-2.1659
X0.1181Y-2.4659
X0.1181Y-2.6159
X0.1181Y-2.9158
X0.1181Y-3.0658
X0.1181Y-3.3657
X0.1181Y-3.5157
M30
