%TF.GenerationSoftware,KiCad,Pcbnew,9.0.1*%
%TF.CreationDate,2025-04-04T11:50:33+11:00*%
%TF.ProjectId,v7_equip_analog,76375f65-7175-4697-905f-616e616c6f67,rev?*%
%TF.SameCoordinates,Original*%
%TF.FileFunction,Legend,Top*%
%TF.FilePolarity,Positive*%
%FSLAX46Y46*%
G04 Gerber Fmt 4.6, Leading zero omitted, Abs format (unit mm)*
G04 Created by KiCad (PCBNEW 9.0.1) date 2025-04-04 11:50:33*
%MOMM*%
%LPD*%
G01*
G04 APERTURE LIST*
G04 Aperture macros list*
%AMRoundRect*
0 Rectangle with rounded corners*
0 $1 Rounding radius*
0 $2 $3 $4 $5 $6 $7 $8 $9 X,Y pos of 4 corners*
0 Add a 4 corners polygon primitive as box body*
4,1,4,$2,$3,$4,$5,$6,$7,$8,$9,$2,$3,0*
0 Add four circle primitives for the rounded corners*
1,1,$1+$1,$2,$3*
1,1,$1+$1,$4,$5*
1,1,$1+$1,$6,$7*
1,1,$1+$1,$8,$9*
0 Add four rect primitives between the rounded corners*
20,1,$1+$1,$2,$3,$4,$5,0*
20,1,$1+$1,$4,$5,$6,$7,0*
20,1,$1+$1,$6,$7,$8,$9,0*
20,1,$1+$1,$8,$9,$2,$3,0*%
G04 Aperture macros list end*
%ADD10C,0.152400*%
%ADD11C,0.127000*%
%ADD12C,0.203200*%
%ADD13C,0.101600*%
%ADD14C,0.150000*%
%ADD15C,0.177800*%
%ADD16C,0.120000*%
%ADD17C,0.100000*%
%ADD18C,0.200000*%
%ADD19R,1.700000X1.700000*%
%ADD20C,1.700000*%
%ADD21RoundRect,0.150000X0.587500X0.150000X-0.587500X0.150000X-0.587500X-0.150000X0.587500X-0.150000X0*%
%ADD22C,1.440000*%
%ADD23C,2.100000*%
%ADD24RoundRect,0.250000X-0.337500X-0.475000X0.337500X-0.475000X0.337500X0.475000X-0.337500X0.475000X0*%
%ADD25C,3.500000*%
%ADD26RoundRect,0.250000X0.450000X-0.350000X0.450000X0.350000X-0.450000X0.350000X-0.450000X-0.350000X0*%
%ADD27RoundRect,0.250000X0.337500X0.475000X-0.337500X0.475000X-0.337500X-0.475000X0.337500X-0.475000X0*%
%ADD28RoundRect,0.250000X-0.475000X0.337500X-0.475000X-0.337500X0.475000X-0.337500X0.475000X0.337500X0*%
%ADD29RoundRect,0.250000X-0.350000X-0.450000X0.350000X-0.450000X0.350000X0.450000X-0.350000X0.450000X0*%
%ADD30RoundRect,0.250000X-0.450000X0.350000X-0.450000X-0.350000X0.450000X-0.350000X0.450000X0.350000X0*%
%ADD31RoundRect,0.150000X0.625000X-0.150000X0.625000X0.150000X-0.625000X0.150000X-0.625000X-0.150000X0*%
%ADD32RoundRect,0.416666X0.970834X-0.583334X0.970834X0.583334X-0.970834X0.583334X-0.970834X-0.583334X0*%
%ADD33R,0.600000X1.250000*%
%ADD34RoundRect,0.250000X0.475000X-0.337500X0.475000X0.337500X-0.475000X0.337500X-0.475000X-0.337500X0*%
%ADD35R,1.500000X0.650000*%
G04 APERTURE END LIST*
D10*
X5833777Y-76695777D02*
X5833777Y-77240063D01*
X5507206Y-76586920D02*
X6650206Y-76967920D01*
X6650206Y-76967920D02*
X5507206Y-77348920D01*
X6650206Y-78219777D02*
X6650206Y-78002062D01*
X6650206Y-78002062D02*
X6595777Y-77893205D01*
X6595777Y-77893205D02*
X6541349Y-77838777D01*
X6541349Y-77838777D02*
X6378063Y-77729919D01*
X6378063Y-77729919D02*
X6160349Y-77675491D01*
X6160349Y-77675491D02*
X5724920Y-77675491D01*
X5724920Y-77675491D02*
X5616063Y-77729919D01*
X5616063Y-77729919D02*
X5561635Y-77784348D01*
X5561635Y-77784348D02*
X5507206Y-77893205D01*
X5507206Y-77893205D02*
X5507206Y-78110919D01*
X5507206Y-78110919D02*
X5561635Y-78219777D01*
X5561635Y-78219777D02*
X5616063Y-78274205D01*
X5616063Y-78274205D02*
X5724920Y-78328634D01*
X5724920Y-78328634D02*
X5997063Y-78328634D01*
X5997063Y-78328634D02*
X6105920Y-78274205D01*
X6105920Y-78274205D02*
X6160349Y-78219777D01*
X6160349Y-78219777D02*
X6214777Y-78110919D01*
X6214777Y-78110919D02*
X6214777Y-77893205D01*
X6214777Y-77893205D02*
X6160349Y-77784348D01*
X6160349Y-77784348D02*
X6105920Y-77729919D01*
X6105920Y-77729919D02*
X5997063Y-77675491D01*
D11*
X41889448Y-90287228D02*
X41928152Y-90171114D01*
X41928152Y-90171114D02*
X41928152Y-89977590D01*
X41928152Y-89977590D02*
X41889448Y-89900181D01*
X41889448Y-89900181D02*
X41850743Y-89861476D01*
X41850743Y-89861476D02*
X41773333Y-89822771D01*
X41773333Y-89822771D02*
X41695924Y-89822771D01*
X41695924Y-89822771D02*
X41618514Y-89861476D01*
X41618514Y-89861476D02*
X41579809Y-89900181D01*
X41579809Y-89900181D02*
X41541105Y-89977590D01*
X41541105Y-89977590D02*
X41502400Y-90132409D01*
X41502400Y-90132409D02*
X41463695Y-90209819D01*
X41463695Y-90209819D02*
X41424990Y-90248524D01*
X41424990Y-90248524D02*
X41347581Y-90287228D01*
X41347581Y-90287228D02*
X41270171Y-90287228D01*
X41270171Y-90287228D02*
X41192762Y-90248524D01*
X41192762Y-90248524D02*
X41154057Y-90209819D01*
X41154057Y-90209819D02*
X41115352Y-90132409D01*
X41115352Y-90132409D02*
X41115352Y-89938886D01*
X41115352Y-89938886D02*
X41154057Y-89822771D01*
X41850743Y-89009972D02*
X41889448Y-89048676D01*
X41889448Y-89048676D02*
X41928152Y-89164791D01*
X41928152Y-89164791D02*
X41928152Y-89242200D01*
X41928152Y-89242200D02*
X41889448Y-89358314D01*
X41889448Y-89358314D02*
X41812038Y-89435724D01*
X41812038Y-89435724D02*
X41734628Y-89474429D01*
X41734628Y-89474429D02*
X41579809Y-89513133D01*
X41579809Y-89513133D02*
X41463695Y-89513133D01*
X41463695Y-89513133D02*
X41308876Y-89474429D01*
X41308876Y-89474429D02*
X41231467Y-89435724D01*
X41231467Y-89435724D02*
X41154057Y-89358314D01*
X41154057Y-89358314D02*
X41115352Y-89242200D01*
X41115352Y-89242200D02*
X41115352Y-89164791D01*
X41115352Y-89164791D02*
X41154057Y-89048676D01*
X41154057Y-89048676D02*
X41192762Y-89009972D01*
X41928152Y-88274581D02*
X41928152Y-88661629D01*
X41928152Y-88661629D02*
X41115352Y-88661629D01*
X44506572Y-90287228D02*
X44545276Y-90171114D01*
X44545276Y-90171114D02*
X44545276Y-89977590D01*
X44545276Y-89977590D02*
X44506572Y-89900181D01*
X44506572Y-89900181D02*
X44467867Y-89861476D01*
X44467867Y-89861476D02*
X44390457Y-89822771D01*
X44390457Y-89822771D02*
X44313048Y-89822771D01*
X44313048Y-89822771D02*
X44235638Y-89861476D01*
X44235638Y-89861476D02*
X44196933Y-89900181D01*
X44196933Y-89900181D02*
X44158229Y-89977590D01*
X44158229Y-89977590D02*
X44119524Y-90132409D01*
X44119524Y-90132409D02*
X44080819Y-90209819D01*
X44080819Y-90209819D02*
X44042114Y-90248524D01*
X44042114Y-90248524D02*
X43964705Y-90287228D01*
X43964705Y-90287228D02*
X43887295Y-90287228D01*
X43887295Y-90287228D02*
X43809886Y-90248524D01*
X43809886Y-90248524D02*
X43771181Y-90209819D01*
X43771181Y-90209819D02*
X43732476Y-90132409D01*
X43732476Y-90132409D02*
X43732476Y-89938886D01*
X43732476Y-89938886D02*
X43771181Y-89822771D01*
X44545276Y-89474429D02*
X43732476Y-89474429D01*
X43732476Y-89474429D02*
X43732476Y-89280905D01*
X43732476Y-89280905D02*
X43771181Y-89164791D01*
X43771181Y-89164791D02*
X43848591Y-89087381D01*
X43848591Y-89087381D02*
X43926000Y-89048676D01*
X43926000Y-89048676D02*
X44080819Y-89009972D01*
X44080819Y-89009972D02*
X44196933Y-89009972D01*
X44196933Y-89009972D02*
X44351752Y-89048676D01*
X44351752Y-89048676D02*
X44429162Y-89087381D01*
X44429162Y-89087381D02*
X44506572Y-89164791D01*
X44506572Y-89164791D02*
X44545276Y-89280905D01*
X44545276Y-89280905D02*
X44545276Y-89474429D01*
X44313048Y-88700333D02*
X44313048Y-88313286D01*
X44545276Y-88777743D02*
X43732476Y-88506810D01*
X43732476Y-88506810D02*
X44545276Y-88235876D01*
X46349600Y-90325933D02*
X46349600Y-89822771D01*
X46349600Y-89822771D02*
X46659238Y-90093705D01*
X46659238Y-90093705D02*
X46659238Y-89977590D01*
X46659238Y-89977590D02*
X46697943Y-89900181D01*
X46697943Y-89900181D02*
X46736648Y-89861476D01*
X46736648Y-89861476D02*
X46814057Y-89822771D01*
X46814057Y-89822771D02*
X47007581Y-89822771D01*
X47007581Y-89822771D02*
X47084991Y-89861476D01*
X47084991Y-89861476D02*
X47123696Y-89900181D01*
X47123696Y-89900181D02*
X47162400Y-89977590D01*
X47162400Y-89977590D02*
X47162400Y-90209819D01*
X47162400Y-90209819D02*
X47123696Y-90287228D01*
X47123696Y-90287228D02*
X47084991Y-90325933D01*
X46349600Y-89590543D02*
X47162400Y-89319610D01*
X47162400Y-89319610D02*
X46349600Y-89048676D01*
X46349600Y-88855152D02*
X46349600Y-88351990D01*
X46349600Y-88351990D02*
X46659238Y-88622924D01*
X46659238Y-88622924D02*
X46659238Y-88506809D01*
X46659238Y-88506809D02*
X46697943Y-88429400D01*
X46697943Y-88429400D02*
X46736648Y-88390695D01*
X46736648Y-88390695D02*
X46814057Y-88351990D01*
X46814057Y-88351990D02*
X47007581Y-88351990D01*
X47007581Y-88351990D02*
X47084991Y-88390695D01*
X47084991Y-88390695D02*
X47123696Y-88429400D01*
X47123696Y-88429400D02*
X47162400Y-88506809D01*
X47162400Y-88506809D02*
X47162400Y-88739038D01*
X47162400Y-88739038D02*
X47123696Y-88816447D01*
X47123696Y-88816447D02*
X47084991Y-88855152D01*
X49005429Y-89822771D02*
X48966724Y-89900181D01*
X48966724Y-89900181D02*
X48966724Y-90016295D01*
X48966724Y-90016295D02*
X49005429Y-90132409D01*
X49005429Y-90132409D02*
X49082839Y-90209819D01*
X49082839Y-90209819D02*
X49160248Y-90248524D01*
X49160248Y-90248524D02*
X49315067Y-90287228D01*
X49315067Y-90287228D02*
X49431181Y-90287228D01*
X49431181Y-90287228D02*
X49586000Y-90248524D01*
X49586000Y-90248524D02*
X49663410Y-90209819D01*
X49663410Y-90209819D02*
X49740820Y-90132409D01*
X49740820Y-90132409D02*
X49779524Y-90016295D01*
X49779524Y-90016295D02*
X49779524Y-89938886D01*
X49779524Y-89938886D02*
X49740820Y-89822771D01*
X49740820Y-89822771D02*
X49702115Y-89784067D01*
X49702115Y-89784067D02*
X49431181Y-89784067D01*
X49431181Y-89784067D02*
X49431181Y-89938886D01*
X49779524Y-89435724D02*
X48966724Y-89435724D01*
X48966724Y-89435724D02*
X49779524Y-88971267D01*
X49779524Y-88971267D02*
X48966724Y-88971267D01*
X49779524Y-88584219D02*
X48966724Y-88584219D01*
X48966724Y-88584219D02*
X48966724Y-88390695D01*
X48966724Y-88390695D02*
X49005429Y-88274581D01*
X49005429Y-88274581D02*
X49082839Y-88197171D01*
X49082839Y-88197171D02*
X49160248Y-88158466D01*
X49160248Y-88158466D02*
X49315067Y-88119762D01*
X49315067Y-88119762D02*
X49431181Y-88119762D01*
X49431181Y-88119762D02*
X49586000Y-88158466D01*
X49586000Y-88158466D02*
X49663410Y-88197171D01*
X49663410Y-88197171D02*
X49740820Y-88274581D01*
X49740820Y-88274581D02*
X49779524Y-88390695D01*
X49779524Y-88390695D02*
X49779524Y-88584219D01*
D10*
X5935377Y-29908977D02*
X5935377Y-30453263D01*
X5608806Y-29800120D02*
X6751806Y-30181120D01*
X6751806Y-30181120D02*
X5608806Y-30562120D01*
X6642949Y-30888691D02*
X6697377Y-30943119D01*
X6697377Y-30943119D02*
X6751806Y-31051977D01*
X6751806Y-31051977D02*
X6751806Y-31324119D01*
X6751806Y-31324119D02*
X6697377Y-31432977D01*
X6697377Y-31432977D02*
X6642949Y-31487405D01*
X6642949Y-31487405D02*
X6534092Y-31541834D01*
X6534092Y-31541834D02*
X6425235Y-31541834D01*
X6425235Y-31541834D02*
X6261949Y-31487405D01*
X6261949Y-31487405D02*
X5608806Y-30834262D01*
X5608806Y-30834262D02*
X5608806Y-31541834D01*
D12*
X43218131Y-46673687D02*
X42318245Y-46673687D01*
X42768188Y-46673687D02*
X42768188Y-45098887D01*
X42768188Y-45098887D02*
X42618207Y-45323858D01*
X42618207Y-45323858D02*
X42468226Y-45473839D01*
X42468226Y-45473839D02*
X42318245Y-45548830D01*
X42318245Y-47784208D02*
X42393236Y-47709217D01*
X42393236Y-47709217D02*
X42543217Y-47634227D01*
X42543217Y-47634227D02*
X42918169Y-47634227D01*
X42918169Y-47634227D02*
X43068150Y-47709217D01*
X43068150Y-47709217D02*
X43143141Y-47784208D01*
X43143141Y-47784208D02*
X43218131Y-47934189D01*
X43218131Y-47934189D02*
X43218131Y-48084170D01*
X43218131Y-48084170D02*
X43143141Y-48309141D01*
X43143141Y-48309141D02*
X42243255Y-49209027D01*
X42243255Y-49209027D02*
X43218131Y-49209027D01*
X42243255Y-50169567D02*
X43218131Y-50169567D01*
X43218131Y-50169567D02*
X42693198Y-50769491D01*
X42693198Y-50769491D02*
X42918169Y-50769491D01*
X42918169Y-50769491D02*
X43068150Y-50844481D01*
X43068150Y-50844481D02*
X43143141Y-50919472D01*
X43143141Y-50919472D02*
X43218131Y-51069453D01*
X43218131Y-51069453D02*
X43218131Y-51444405D01*
X43218131Y-51444405D02*
X43143141Y-51594386D01*
X43143141Y-51594386D02*
X43068150Y-51669377D01*
X43068150Y-51669377D02*
X42918169Y-51744367D01*
X42918169Y-51744367D02*
X42468226Y-51744367D01*
X42468226Y-51744367D02*
X42318245Y-51669377D01*
X42318245Y-51669377D02*
X42243255Y-51594386D01*
X43068150Y-53229840D02*
X43068150Y-54279707D01*
X42693198Y-52629917D02*
X42318245Y-53754774D01*
X42318245Y-53754774D02*
X43293122Y-53754774D01*
D10*
X5960777Y-7074377D02*
X5960777Y-7618663D01*
X5634206Y-6965520D02*
X6777206Y-7346520D01*
X6777206Y-7346520D02*
X5634206Y-7727520D01*
X6777206Y-8326234D02*
X6777206Y-8435091D01*
X6777206Y-8435091D02*
X6722777Y-8543948D01*
X6722777Y-8543948D02*
X6668349Y-8598377D01*
X6668349Y-8598377D02*
X6559492Y-8652805D01*
X6559492Y-8652805D02*
X6341777Y-8707234D01*
X6341777Y-8707234D02*
X6069635Y-8707234D01*
X6069635Y-8707234D02*
X5851920Y-8652805D01*
X5851920Y-8652805D02*
X5743063Y-8598377D01*
X5743063Y-8598377D02*
X5688635Y-8543948D01*
X5688635Y-8543948D02*
X5634206Y-8435091D01*
X5634206Y-8435091D02*
X5634206Y-8326234D01*
X5634206Y-8326234D02*
X5688635Y-8217377D01*
X5688635Y-8217377D02*
X5743063Y-8162948D01*
X5743063Y-8162948D02*
X5851920Y-8108519D01*
X5851920Y-8108519D02*
X6069635Y-8054091D01*
X6069635Y-8054091D02*
X6341777Y-8054091D01*
X6341777Y-8054091D02*
X6559492Y-8108519D01*
X6559492Y-8108519D02*
X6668349Y-8162948D01*
X6668349Y-8162948D02*
X6722777Y-8217377D01*
X6722777Y-8217377D02*
X6777206Y-8326234D01*
D13*
X51487900Y-80106424D02*
X51578614Y-80136662D01*
X51578614Y-80136662D02*
X51729805Y-80136662D01*
X51729805Y-80136662D02*
X51790281Y-80106424D01*
X51790281Y-80106424D02*
X51820519Y-80076185D01*
X51820519Y-80076185D02*
X51850757Y-80015709D01*
X51850757Y-80015709D02*
X51850757Y-79955233D01*
X51850757Y-79955233D02*
X51820519Y-79894757D01*
X51820519Y-79894757D02*
X51790281Y-79864519D01*
X51790281Y-79864519D02*
X51729805Y-79834281D01*
X51729805Y-79834281D02*
X51608852Y-79804043D01*
X51608852Y-79804043D02*
X51548376Y-79773804D01*
X51548376Y-79773804D02*
X51518138Y-79743566D01*
X51518138Y-79743566D02*
X51487900Y-79683090D01*
X51487900Y-79683090D02*
X51487900Y-79622614D01*
X51487900Y-79622614D02*
X51518138Y-79562138D01*
X51518138Y-79562138D02*
X51548376Y-79531900D01*
X51548376Y-79531900D02*
X51608852Y-79501662D01*
X51608852Y-79501662D02*
X51760043Y-79501662D01*
X51760043Y-79501662D02*
X51850757Y-79531900D01*
X52485757Y-80076185D02*
X52455519Y-80106424D01*
X52455519Y-80106424D02*
X52364805Y-80136662D01*
X52364805Y-80136662D02*
X52304329Y-80136662D01*
X52304329Y-80136662D02*
X52213614Y-80106424D01*
X52213614Y-80106424D02*
X52153138Y-80045947D01*
X52153138Y-80045947D02*
X52122900Y-79985471D01*
X52122900Y-79985471D02*
X52092662Y-79864519D01*
X52092662Y-79864519D02*
X52092662Y-79773804D01*
X52092662Y-79773804D02*
X52122900Y-79652852D01*
X52122900Y-79652852D02*
X52153138Y-79592376D01*
X52153138Y-79592376D02*
X52213614Y-79531900D01*
X52213614Y-79531900D02*
X52304329Y-79501662D01*
X52304329Y-79501662D02*
X52364805Y-79501662D01*
X52364805Y-79501662D02*
X52455519Y-79531900D01*
X52455519Y-79531900D02*
X52485757Y-79562138D01*
X53060281Y-80136662D02*
X52757900Y-80136662D01*
X52757900Y-80136662D02*
X52757900Y-79501662D01*
X51457662Y-81128738D02*
X51548376Y-81158976D01*
X51548376Y-81158976D02*
X51699567Y-81158976D01*
X51699567Y-81158976D02*
X51760043Y-81128738D01*
X51760043Y-81128738D02*
X51790281Y-81098499D01*
X51790281Y-81098499D02*
X51820519Y-81038023D01*
X51820519Y-81038023D02*
X51820519Y-80977547D01*
X51820519Y-80977547D02*
X51790281Y-80917071D01*
X51790281Y-80917071D02*
X51760043Y-80886833D01*
X51760043Y-80886833D02*
X51699567Y-80856595D01*
X51699567Y-80856595D02*
X51578614Y-80826357D01*
X51578614Y-80826357D02*
X51518138Y-80796118D01*
X51518138Y-80796118D02*
X51487900Y-80765880D01*
X51487900Y-80765880D02*
X51457662Y-80705404D01*
X51457662Y-80705404D02*
X51457662Y-80644928D01*
X51457662Y-80644928D02*
X51487900Y-80584452D01*
X51487900Y-80584452D02*
X51518138Y-80554214D01*
X51518138Y-80554214D02*
X51578614Y-80523976D01*
X51578614Y-80523976D02*
X51729805Y-80523976D01*
X51729805Y-80523976D02*
X51820519Y-80554214D01*
X52092662Y-81158976D02*
X52092662Y-80523976D01*
X52092662Y-80523976D02*
X52243852Y-80523976D01*
X52243852Y-80523976D02*
X52334567Y-80554214D01*
X52334567Y-80554214D02*
X52395043Y-80614690D01*
X52395043Y-80614690D02*
X52425281Y-80675166D01*
X52425281Y-80675166D02*
X52455519Y-80796118D01*
X52455519Y-80796118D02*
X52455519Y-80886833D01*
X52455519Y-80886833D02*
X52425281Y-81007785D01*
X52425281Y-81007785D02*
X52395043Y-81068261D01*
X52395043Y-81068261D02*
X52334567Y-81128738D01*
X52334567Y-81128738D02*
X52243852Y-81158976D01*
X52243852Y-81158976D02*
X52092662Y-81158976D01*
X52697424Y-80977547D02*
X52999805Y-80977547D01*
X52636948Y-81158976D02*
X52848614Y-80523976D01*
X52848614Y-80523976D02*
X53060281Y-81158976D01*
X51457662Y-81546290D02*
X51850757Y-81546290D01*
X51850757Y-81546290D02*
X51639090Y-81788194D01*
X51639090Y-81788194D02*
X51729805Y-81788194D01*
X51729805Y-81788194D02*
X51790281Y-81818432D01*
X51790281Y-81818432D02*
X51820519Y-81848671D01*
X51820519Y-81848671D02*
X51850757Y-81909147D01*
X51850757Y-81909147D02*
X51850757Y-82060337D01*
X51850757Y-82060337D02*
X51820519Y-82120813D01*
X51820519Y-82120813D02*
X51790281Y-82151052D01*
X51790281Y-82151052D02*
X51729805Y-82181290D01*
X51729805Y-82181290D02*
X51548376Y-82181290D01*
X51548376Y-82181290D02*
X51487900Y-82151052D01*
X51487900Y-82151052D02*
X51457662Y-82120813D01*
X52032186Y-81546290D02*
X52243852Y-82181290D01*
X52243852Y-82181290D02*
X52455519Y-81546290D01*
X52606710Y-81546290D02*
X52999805Y-81546290D01*
X52999805Y-81546290D02*
X52788138Y-81788194D01*
X52788138Y-81788194D02*
X52878853Y-81788194D01*
X52878853Y-81788194D02*
X52939329Y-81818432D01*
X52939329Y-81818432D02*
X52969567Y-81848671D01*
X52969567Y-81848671D02*
X52999805Y-81909147D01*
X52999805Y-81909147D02*
X52999805Y-82060337D01*
X52999805Y-82060337D02*
X52969567Y-82120813D01*
X52969567Y-82120813D02*
X52939329Y-82151052D01*
X52939329Y-82151052D02*
X52878853Y-82181290D01*
X52878853Y-82181290D02*
X52697424Y-82181290D01*
X52697424Y-82181290D02*
X52636948Y-82151052D01*
X52636948Y-82151052D02*
X52606710Y-82120813D01*
X51669329Y-82598842D02*
X51608853Y-82568604D01*
X51608853Y-82568604D02*
X51518139Y-82568604D01*
X51518139Y-82568604D02*
X51427424Y-82598842D01*
X51427424Y-82598842D02*
X51366948Y-82659318D01*
X51366948Y-82659318D02*
X51336710Y-82719794D01*
X51336710Y-82719794D02*
X51306472Y-82840746D01*
X51306472Y-82840746D02*
X51306472Y-82931461D01*
X51306472Y-82931461D02*
X51336710Y-83052413D01*
X51336710Y-83052413D02*
X51366948Y-83112889D01*
X51366948Y-83112889D02*
X51427424Y-83173366D01*
X51427424Y-83173366D02*
X51518139Y-83203604D01*
X51518139Y-83203604D02*
X51578615Y-83203604D01*
X51578615Y-83203604D02*
X51669329Y-83173366D01*
X51669329Y-83173366D02*
X51699567Y-83143127D01*
X51699567Y-83143127D02*
X51699567Y-82931461D01*
X51699567Y-82931461D02*
X51578615Y-82931461D01*
X51971710Y-83203604D02*
X51971710Y-82568604D01*
X51971710Y-82568604D02*
X52334567Y-83203604D01*
X52334567Y-83203604D02*
X52334567Y-82568604D01*
X52636948Y-83203604D02*
X52636948Y-82568604D01*
X52636948Y-82568604D02*
X52788138Y-82568604D01*
X52788138Y-82568604D02*
X52878853Y-82598842D01*
X52878853Y-82598842D02*
X52939329Y-82659318D01*
X52939329Y-82659318D02*
X52969567Y-82719794D01*
X52969567Y-82719794D02*
X52999805Y-82840746D01*
X52999805Y-82840746D02*
X52999805Y-82931461D01*
X52999805Y-82931461D02*
X52969567Y-83052413D01*
X52969567Y-83052413D02*
X52939329Y-83112889D01*
X52939329Y-83112889D02*
X52878853Y-83173366D01*
X52878853Y-83173366D02*
X52788138Y-83203604D01*
X52788138Y-83203604D02*
X52636948Y-83203604D01*
D10*
X43149634Y-43201345D02*
X43294777Y-43249726D01*
X43294777Y-43249726D02*
X43343158Y-43298107D01*
X43343158Y-43298107D02*
X43391539Y-43394869D01*
X43391539Y-43394869D02*
X43391539Y-43540012D01*
X43391539Y-43540012D02*
X43343158Y-43636774D01*
X43343158Y-43636774D02*
X43294777Y-43685155D01*
X43294777Y-43685155D02*
X43198015Y-43733535D01*
X43198015Y-43733535D02*
X42810967Y-43733535D01*
X42810967Y-43733535D02*
X42810967Y-42717535D01*
X42810967Y-42717535D02*
X43149634Y-42717535D01*
X43149634Y-42717535D02*
X43246396Y-42765916D01*
X43246396Y-42765916D02*
X43294777Y-42814297D01*
X43294777Y-42814297D02*
X43343158Y-42911059D01*
X43343158Y-42911059D02*
X43343158Y-43007821D01*
X43343158Y-43007821D02*
X43294777Y-43104583D01*
X43294777Y-43104583D02*
X43246396Y-43152964D01*
X43246396Y-43152964D02*
X43149634Y-43201345D01*
X43149634Y-43201345D02*
X42810967Y-43201345D01*
X44020491Y-42717535D02*
X44214015Y-42717535D01*
X44214015Y-42717535D02*
X44310777Y-42765916D01*
X44310777Y-42765916D02*
X44407539Y-42862678D01*
X44407539Y-42862678D02*
X44455920Y-43056202D01*
X44455920Y-43056202D02*
X44455920Y-43394869D01*
X44455920Y-43394869D02*
X44407539Y-43588393D01*
X44407539Y-43588393D02*
X44310777Y-43685155D01*
X44310777Y-43685155D02*
X44214015Y-43733535D01*
X44214015Y-43733535D02*
X44020491Y-43733535D01*
X44020491Y-43733535D02*
X43923729Y-43685155D01*
X43923729Y-43685155D02*
X43826967Y-43588393D01*
X43826967Y-43588393D02*
X43778586Y-43394869D01*
X43778586Y-43394869D02*
X43778586Y-43056202D01*
X43778586Y-43056202D02*
X43826967Y-42862678D01*
X43826967Y-42862678D02*
X43923729Y-42765916D01*
X43923729Y-42765916D02*
X44020491Y-42717535D01*
X44842967Y-43443250D02*
X45326777Y-43443250D01*
X44746205Y-43733535D02*
X45084872Y-42717535D01*
X45084872Y-42717535D02*
X45423539Y-43733535D01*
X46342777Y-43733535D02*
X46004110Y-43249726D01*
X45762205Y-43733535D02*
X45762205Y-42717535D01*
X45762205Y-42717535D02*
X46149253Y-42717535D01*
X46149253Y-42717535D02*
X46246015Y-42765916D01*
X46246015Y-42765916D02*
X46294396Y-42814297D01*
X46294396Y-42814297D02*
X46342777Y-42911059D01*
X46342777Y-42911059D02*
X46342777Y-43056202D01*
X46342777Y-43056202D02*
X46294396Y-43152964D01*
X46294396Y-43152964D02*
X46246015Y-43201345D01*
X46246015Y-43201345D02*
X46149253Y-43249726D01*
X46149253Y-43249726D02*
X45762205Y-43249726D01*
X46778205Y-43733535D02*
X46778205Y-42717535D01*
X46778205Y-42717535D02*
X47020110Y-42717535D01*
X47020110Y-42717535D02*
X47165253Y-42765916D01*
X47165253Y-42765916D02*
X47262015Y-42862678D01*
X47262015Y-42862678D02*
X47310396Y-42959440D01*
X47310396Y-42959440D02*
X47358777Y-43152964D01*
X47358777Y-43152964D02*
X47358777Y-43298107D01*
X47358777Y-43298107D02*
X47310396Y-43491631D01*
X47310396Y-43491631D02*
X47262015Y-43588393D01*
X47262015Y-43588393D02*
X47165253Y-43685155D01*
X47165253Y-43685155D02*
X47020110Y-43733535D01*
X47020110Y-43733535D02*
X46778205Y-43733535D01*
X48519919Y-43685155D02*
X48665062Y-43733535D01*
X48665062Y-43733535D02*
X48906967Y-43733535D01*
X48906967Y-43733535D02*
X49003729Y-43685155D01*
X49003729Y-43685155D02*
X49052110Y-43636774D01*
X49052110Y-43636774D02*
X49100491Y-43540012D01*
X49100491Y-43540012D02*
X49100491Y-43443250D01*
X49100491Y-43443250D02*
X49052110Y-43346488D01*
X49052110Y-43346488D02*
X49003729Y-43298107D01*
X49003729Y-43298107D02*
X48906967Y-43249726D01*
X48906967Y-43249726D02*
X48713443Y-43201345D01*
X48713443Y-43201345D02*
X48616681Y-43152964D01*
X48616681Y-43152964D02*
X48568300Y-43104583D01*
X48568300Y-43104583D02*
X48519919Y-43007821D01*
X48519919Y-43007821D02*
X48519919Y-42911059D01*
X48519919Y-42911059D02*
X48568300Y-42814297D01*
X48568300Y-42814297D02*
X48616681Y-42765916D01*
X48616681Y-42765916D02*
X48713443Y-42717535D01*
X48713443Y-42717535D02*
X48955348Y-42717535D01*
X48955348Y-42717535D02*
X49100491Y-42765916D01*
X49535919Y-43201345D02*
X49874586Y-43201345D01*
X50019729Y-43733535D02*
X49535919Y-43733535D01*
X49535919Y-43733535D02*
X49535919Y-42717535D01*
X49535919Y-42717535D02*
X50019729Y-42717535D01*
X50938967Y-43733535D02*
X50455157Y-43733535D01*
X50455157Y-43733535D02*
X50455157Y-42717535D01*
X6011577Y-41186577D02*
X6011577Y-41730863D01*
X5685006Y-41077720D02*
X6828006Y-41458720D01*
X6828006Y-41458720D02*
X5685006Y-41839720D01*
X6828006Y-42111862D02*
X6828006Y-42819434D01*
X6828006Y-42819434D02*
X6392577Y-42438434D01*
X6392577Y-42438434D02*
X6392577Y-42601719D01*
X6392577Y-42601719D02*
X6338149Y-42710577D01*
X6338149Y-42710577D02*
X6283720Y-42765005D01*
X6283720Y-42765005D02*
X6174863Y-42819434D01*
X6174863Y-42819434D02*
X5902720Y-42819434D01*
X5902720Y-42819434D02*
X5793863Y-42765005D01*
X5793863Y-42765005D02*
X5739435Y-42710577D01*
X5739435Y-42710577D02*
X5685006Y-42601719D01*
X5685006Y-42601719D02*
X5685006Y-42275148D01*
X5685006Y-42275148D02*
X5739435Y-42166291D01*
X5739435Y-42166291D02*
X5793863Y-42111862D01*
D12*
X44307987Y-4985084D02*
X44815987Y-4629484D01*
X44307987Y-4375484D02*
X45374787Y-4375484D01*
X45374787Y-4375484D02*
X45374787Y-4781884D01*
X45374787Y-4781884D02*
X45323987Y-4883484D01*
X45323987Y-4883484D02*
X45273187Y-4934284D01*
X45273187Y-4934284D02*
X45171587Y-4985084D01*
X45171587Y-4985084D02*
X45019187Y-4985084D01*
X45019187Y-4985084D02*
X44917587Y-4934284D01*
X44917587Y-4934284D02*
X44866787Y-4883484D01*
X44866787Y-4883484D02*
X44815987Y-4781884D01*
X44815987Y-4781884D02*
X44815987Y-4375484D01*
X44358787Y-5848684D02*
X44307987Y-5747084D01*
X44307987Y-5747084D02*
X44307987Y-5543884D01*
X44307987Y-5543884D02*
X44358787Y-5442284D01*
X44358787Y-5442284D02*
X44460387Y-5391484D01*
X44460387Y-5391484D02*
X44866787Y-5391484D01*
X44866787Y-5391484D02*
X44968387Y-5442284D01*
X44968387Y-5442284D02*
X45019187Y-5543884D01*
X45019187Y-5543884D02*
X45019187Y-5747084D01*
X45019187Y-5747084D02*
X44968387Y-5848684D01*
X44968387Y-5848684D02*
X44866787Y-5899484D01*
X44866787Y-5899484D02*
X44765187Y-5899484D01*
X44765187Y-5899484D02*
X44663587Y-5391484D01*
X44307987Y-6356684D02*
X45019187Y-6356684D01*
X44917587Y-6356684D02*
X44968387Y-6407484D01*
X44968387Y-6407484D02*
X45019187Y-6509084D01*
X45019187Y-6509084D02*
X45019187Y-6661484D01*
X45019187Y-6661484D02*
X44968387Y-6763084D01*
X44968387Y-6763084D02*
X44866787Y-6813884D01*
X44866787Y-6813884D02*
X44307987Y-6813884D01*
X44866787Y-6813884D02*
X44968387Y-6864684D01*
X44968387Y-6864684D02*
X45019187Y-6966284D01*
X45019187Y-6966284D02*
X45019187Y-7118684D01*
X45019187Y-7118684D02*
X44968387Y-7220284D01*
X44968387Y-7220284D02*
X44866787Y-7271084D01*
X44866787Y-7271084D02*
X44307987Y-7271084D01*
X44307987Y-7931484D02*
X44358787Y-7829884D01*
X44358787Y-7829884D02*
X44409587Y-7779084D01*
X44409587Y-7779084D02*
X44511187Y-7728284D01*
X44511187Y-7728284D02*
X44815987Y-7728284D01*
X44815987Y-7728284D02*
X44917587Y-7779084D01*
X44917587Y-7779084D02*
X44968387Y-7829884D01*
X44968387Y-7829884D02*
X45019187Y-7931484D01*
X45019187Y-7931484D02*
X45019187Y-8083884D01*
X45019187Y-8083884D02*
X44968387Y-8185484D01*
X44968387Y-8185484D02*
X44917587Y-8236284D01*
X44917587Y-8236284D02*
X44815987Y-8287084D01*
X44815987Y-8287084D02*
X44511187Y-8287084D01*
X44511187Y-8287084D02*
X44409587Y-8236284D01*
X44409587Y-8236284D02*
X44358787Y-8185484D01*
X44358787Y-8185484D02*
X44307987Y-8083884D01*
X44307987Y-8083884D02*
X44307987Y-7931484D01*
X45019187Y-8591884D02*
X45019187Y-8998284D01*
X45374787Y-8744284D02*
X44460387Y-8744284D01*
X44460387Y-8744284D02*
X44358787Y-8795084D01*
X44358787Y-8795084D02*
X44307987Y-8896684D01*
X44307987Y-8896684D02*
X44307987Y-8998284D01*
X44358787Y-9760284D02*
X44307987Y-9658684D01*
X44307987Y-9658684D02*
X44307987Y-9455484D01*
X44307987Y-9455484D02*
X44358787Y-9353884D01*
X44358787Y-9353884D02*
X44460387Y-9303084D01*
X44460387Y-9303084D02*
X44866787Y-9303084D01*
X44866787Y-9303084D02*
X44968387Y-9353884D01*
X44968387Y-9353884D02*
X45019187Y-9455484D01*
X45019187Y-9455484D02*
X45019187Y-9658684D01*
X45019187Y-9658684D02*
X44968387Y-9760284D01*
X44968387Y-9760284D02*
X44866787Y-9811084D01*
X44866787Y-9811084D02*
X44765187Y-9811084D01*
X44765187Y-9811084D02*
X44663587Y-9303084D01*
X44307987Y-11081084D02*
X45374787Y-11081084D01*
X45374787Y-11081084D02*
X44612787Y-11436684D01*
X44612787Y-11436684D02*
X45374787Y-11792284D01*
X45374787Y-11792284D02*
X44307987Y-11792284D01*
X44307987Y-12452684D02*
X44358787Y-12351084D01*
X44358787Y-12351084D02*
X44409587Y-12300284D01*
X44409587Y-12300284D02*
X44511187Y-12249484D01*
X44511187Y-12249484D02*
X44815987Y-12249484D01*
X44815987Y-12249484D02*
X44917587Y-12300284D01*
X44917587Y-12300284D02*
X44968387Y-12351084D01*
X44968387Y-12351084D02*
X45019187Y-12452684D01*
X45019187Y-12452684D02*
X45019187Y-12605084D01*
X45019187Y-12605084D02*
X44968387Y-12706684D01*
X44968387Y-12706684D02*
X44917587Y-12757484D01*
X44917587Y-12757484D02*
X44815987Y-12808284D01*
X44815987Y-12808284D02*
X44511187Y-12808284D01*
X44511187Y-12808284D02*
X44409587Y-12757484D01*
X44409587Y-12757484D02*
X44358787Y-12706684D01*
X44358787Y-12706684D02*
X44307987Y-12605084D01*
X44307987Y-12605084D02*
X44307987Y-12452684D01*
X45019187Y-13265484D02*
X44307987Y-13265484D01*
X44917587Y-13265484D02*
X44968387Y-13316284D01*
X44968387Y-13316284D02*
X45019187Y-13417884D01*
X45019187Y-13417884D02*
X45019187Y-13570284D01*
X45019187Y-13570284D02*
X44968387Y-13671884D01*
X44968387Y-13671884D02*
X44866787Y-13722684D01*
X44866787Y-13722684D02*
X44307987Y-13722684D01*
X44307987Y-14230684D02*
X45019187Y-14230684D01*
X45374787Y-14230684D02*
X45323987Y-14179884D01*
X45323987Y-14179884D02*
X45273187Y-14230684D01*
X45273187Y-14230684D02*
X45323987Y-14281484D01*
X45323987Y-14281484D02*
X45374787Y-14230684D01*
X45374787Y-14230684D02*
X45273187Y-14230684D01*
X45019187Y-14586284D02*
X45019187Y-14992684D01*
X45374787Y-14738684D02*
X44460387Y-14738684D01*
X44460387Y-14738684D02*
X44358787Y-14789484D01*
X44358787Y-14789484D02*
X44307987Y-14891084D01*
X44307987Y-14891084D02*
X44307987Y-14992684D01*
X44307987Y-15500684D02*
X44358787Y-15399084D01*
X44358787Y-15399084D02*
X44409587Y-15348284D01*
X44409587Y-15348284D02*
X44511187Y-15297484D01*
X44511187Y-15297484D02*
X44815987Y-15297484D01*
X44815987Y-15297484D02*
X44917587Y-15348284D01*
X44917587Y-15348284D02*
X44968387Y-15399084D01*
X44968387Y-15399084D02*
X45019187Y-15500684D01*
X45019187Y-15500684D02*
X45019187Y-15653084D01*
X45019187Y-15653084D02*
X44968387Y-15754684D01*
X44968387Y-15754684D02*
X44917587Y-15805484D01*
X44917587Y-15805484D02*
X44815987Y-15856284D01*
X44815987Y-15856284D02*
X44511187Y-15856284D01*
X44511187Y-15856284D02*
X44409587Y-15805484D01*
X44409587Y-15805484D02*
X44358787Y-15754684D01*
X44358787Y-15754684D02*
X44307987Y-15653084D01*
X44307987Y-15653084D02*
X44307987Y-15500684D01*
X44307987Y-16313484D02*
X45019187Y-16313484D01*
X44815987Y-16313484D02*
X44917587Y-16364284D01*
X44917587Y-16364284D02*
X44968387Y-16415084D01*
X44968387Y-16415084D02*
X45019187Y-16516684D01*
X45019187Y-16516684D02*
X45019187Y-16618284D01*
X44307987Y-16973884D02*
X45019187Y-16973884D01*
X45374787Y-16973884D02*
X45323987Y-16923084D01*
X45323987Y-16923084D02*
X45273187Y-16973884D01*
X45273187Y-16973884D02*
X45323987Y-17024684D01*
X45323987Y-17024684D02*
X45374787Y-16973884D01*
X45374787Y-16973884D02*
X45273187Y-16973884D01*
X45019187Y-17481884D02*
X44307987Y-17481884D01*
X44917587Y-17481884D02*
X44968387Y-17532684D01*
X44968387Y-17532684D02*
X45019187Y-17634284D01*
X45019187Y-17634284D02*
X45019187Y-17786684D01*
X45019187Y-17786684D02*
X44968387Y-17888284D01*
X44968387Y-17888284D02*
X44866787Y-17939084D01*
X44866787Y-17939084D02*
X44307987Y-17939084D01*
X45019187Y-18904284D02*
X44155587Y-18904284D01*
X44155587Y-18904284D02*
X44053987Y-18853484D01*
X44053987Y-18853484D02*
X44003187Y-18802684D01*
X44003187Y-18802684D02*
X43952387Y-18701084D01*
X43952387Y-18701084D02*
X43952387Y-18548684D01*
X43952387Y-18548684D02*
X44003187Y-18447084D01*
X44358787Y-18904284D02*
X44307987Y-18802684D01*
X44307987Y-18802684D02*
X44307987Y-18599484D01*
X44307987Y-18599484D02*
X44358787Y-18497884D01*
X44358787Y-18497884D02*
X44409587Y-18447084D01*
X44409587Y-18447084D02*
X44511187Y-18396284D01*
X44511187Y-18396284D02*
X44815987Y-18396284D01*
X44815987Y-18396284D02*
X44917587Y-18447084D01*
X44917587Y-18447084D02*
X44968387Y-18497884D01*
X44968387Y-18497884D02*
X45019187Y-18599484D01*
X45019187Y-18599484D02*
X45019187Y-18802684D01*
X45019187Y-18802684D02*
X44968387Y-18904284D01*
X42895299Y-4324684D02*
X42895299Y-4832684D01*
X42590499Y-4223084D02*
X43657299Y-4578684D01*
X43657299Y-4578684D02*
X42590499Y-4934284D01*
X43301699Y-5289884D02*
X42590499Y-5289884D01*
X43200099Y-5289884D02*
X43250899Y-5340684D01*
X43250899Y-5340684D02*
X43301699Y-5442284D01*
X43301699Y-5442284D02*
X43301699Y-5594684D01*
X43301699Y-5594684D02*
X43250899Y-5696284D01*
X43250899Y-5696284D02*
X43149299Y-5747084D01*
X43149299Y-5747084D02*
X42590499Y-5747084D01*
X42590499Y-6712284D02*
X43149299Y-6712284D01*
X43149299Y-6712284D02*
X43250899Y-6661484D01*
X43250899Y-6661484D02*
X43301699Y-6559884D01*
X43301699Y-6559884D02*
X43301699Y-6356684D01*
X43301699Y-6356684D02*
X43250899Y-6255084D01*
X42641299Y-6712284D02*
X42590499Y-6610684D01*
X42590499Y-6610684D02*
X42590499Y-6356684D01*
X42590499Y-6356684D02*
X42641299Y-6255084D01*
X42641299Y-6255084D02*
X42742899Y-6204284D01*
X42742899Y-6204284D02*
X42844499Y-6204284D01*
X42844499Y-6204284D02*
X42946099Y-6255084D01*
X42946099Y-6255084D02*
X42996899Y-6356684D01*
X42996899Y-6356684D02*
X42996899Y-6610684D01*
X42996899Y-6610684D02*
X43047699Y-6712284D01*
X42590499Y-7372684D02*
X42641299Y-7271084D01*
X42641299Y-7271084D02*
X42742899Y-7220284D01*
X42742899Y-7220284D02*
X43657299Y-7220284D01*
X42590499Y-7931484D02*
X42641299Y-7829884D01*
X42641299Y-7829884D02*
X42692099Y-7779084D01*
X42692099Y-7779084D02*
X42793699Y-7728284D01*
X42793699Y-7728284D02*
X43098499Y-7728284D01*
X43098499Y-7728284D02*
X43200099Y-7779084D01*
X43200099Y-7779084D02*
X43250899Y-7829884D01*
X43250899Y-7829884D02*
X43301699Y-7931484D01*
X43301699Y-7931484D02*
X43301699Y-8083884D01*
X43301699Y-8083884D02*
X43250899Y-8185484D01*
X43250899Y-8185484D02*
X43200099Y-8236284D01*
X43200099Y-8236284D02*
X43098499Y-8287084D01*
X43098499Y-8287084D02*
X42793699Y-8287084D01*
X42793699Y-8287084D02*
X42692099Y-8236284D01*
X42692099Y-8236284D02*
X42641299Y-8185484D01*
X42641299Y-8185484D02*
X42590499Y-8083884D01*
X42590499Y-8083884D02*
X42590499Y-7931484D01*
X43301699Y-9201484D02*
X42438099Y-9201484D01*
X42438099Y-9201484D02*
X42336499Y-9150684D01*
X42336499Y-9150684D02*
X42285699Y-9099884D01*
X42285699Y-9099884D02*
X42234899Y-8998284D01*
X42234899Y-8998284D02*
X42234899Y-8845884D01*
X42234899Y-8845884D02*
X42285699Y-8744284D01*
X42641299Y-9201484D02*
X42590499Y-9099884D01*
X42590499Y-9099884D02*
X42590499Y-8896684D01*
X42590499Y-8896684D02*
X42641299Y-8795084D01*
X42641299Y-8795084D02*
X42692099Y-8744284D01*
X42692099Y-8744284D02*
X42793699Y-8693484D01*
X42793699Y-8693484D02*
X43098499Y-8693484D01*
X43098499Y-8693484D02*
X43200099Y-8744284D01*
X43200099Y-8744284D02*
X43250899Y-8795084D01*
X43250899Y-8795084D02*
X43301699Y-8896684D01*
X43301699Y-8896684D02*
X43301699Y-9099884D01*
X43301699Y-9099884D02*
X43250899Y-9201484D01*
X43301699Y-10166684D02*
X42590499Y-10166684D01*
X43301699Y-9709484D02*
X42742899Y-9709484D01*
X42742899Y-9709484D02*
X42641299Y-9760284D01*
X42641299Y-9760284D02*
X42590499Y-9861884D01*
X42590499Y-9861884D02*
X42590499Y-10014284D01*
X42590499Y-10014284D02*
X42641299Y-10115884D01*
X42641299Y-10115884D02*
X42692099Y-10166684D01*
X42641299Y-11081084D02*
X42590499Y-10979484D01*
X42590499Y-10979484D02*
X42590499Y-10776284D01*
X42590499Y-10776284D02*
X42641299Y-10674684D01*
X42641299Y-10674684D02*
X42742899Y-10623884D01*
X42742899Y-10623884D02*
X43149299Y-10623884D01*
X43149299Y-10623884D02*
X43250899Y-10674684D01*
X43250899Y-10674684D02*
X43301699Y-10776284D01*
X43301699Y-10776284D02*
X43301699Y-10979484D01*
X43301699Y-10979484D02*
X43250899Y-11081084D01*
X43250899Y-11081084D02*
X43149299Y-11131884D01*
X43149299Y-11131884D02*
X43047699Y-11131884D01*
X43047699Y-11131884D02*
X42946099Y-10623884D01*
X43149299Y-12757484D02*
X43098499Y-12909884D01*
X43098499Y-12909884D02*
X43047699Y-12960684D01*
X43047699Y-12960684D02*
X42946099Y-13011484D01*
X42946099Y-13011484D02*
X42793699Y-13011484D01*
X42793699Y-13011484D02*
X42692099Y-12960684D01*
X42692099Y-12960684D02*
X42641299Y-12909884D01*
X42641299Y-12909884D02*
X42590499Y-12808284D01*
X42590499Y-12808284D02*
X42590499Y-12401884D01*
X42590499Y-12401884D02*
X43657299Y-12401884D01*
X43657299Y-12401884D02*
X43657299Y-12757484D01*
X43657299Y-12757484D02*
X43606499Y-12859084D01*
X43606499Y-12859084D02*
X43555699Y-12909884D01*
X43555699Y-12909884D02*
X43454099Y-12960684D01*
X43454099Y-12960684D02*
X43352499Y-12960684D01*
X43352499Y-12960684D02*
X43250899Y-12909884D01*
X43250899Y-12909884D02*
X43200099Y-12859084D01*
X43200099Y-12859084D02*
X43149299Y-12757484D01*
X43149299Y-12757484D02*
X43149299Y-12401884D01*
X42590499Y-13621084D02*
X42641299Y-13519484D01*
X42641299Y-13519484D02*
X42692099Y-13468684D01*
X42692099Y-13468684D02*
X42793699Y-13417884D01*
X42793699Y-13417884D02*
X43098499Y-13417884D01*
X43098499Y-13417884D02*
X43200099Y-13468684D01*
X43200099Y-13468684D02*
X43250899Y-13519484D01*
X43250899Y-13519484D02*
X43301699Y-13621084D01*
X43301699Y-13621084D02*
X43301699Y-13773484D01*
X43301699Y-13773484D02*
X43250899Y-13875084D01*
X43250899Y-13875084D02*
X43200099Y-13925884D01*
X43200099Y-13925884D02*
X43098499Y-13976684D01*
X43098499Y-13976684D02*
X42793699Y-13976684D01*
X42793699Y-13976684D02*
X42692099Y-13925884D01*
X42692099Y-13925884D02*
X42641299Y-13875084D01*
X42641299Y-13875084D02*
X42590499Y-13773484D01*
X42590499Y-13773484D02*
X42590499Y-13621084D01*
X42590499Y-14891084D02*
X43149299Y-14891084D01*
X43149299Y-14891084D02*
X43250899Y-14840284D01*
X43250899Y-14840284D02*
X43301699Y-14738684D01*
X43301699Y-14738684D02*
X43301699Y-14535484D01*
X43301699Y-14535484D02*
X43250899Y-14433884D01*
X42641299Y-14891084D02*
X42590499Y-14789484D01*
X42590499Y-14789484D02*
X42590499Y-14535484D01*
X42590499Y-14535484D02*
X42641299Y-14433884D01*
X42641299Y-14433884D02*
X42742899Y-14383084D01*
X42742899Y-14383084D02*
X42844499Y-14383084D01*
X42844499Y-14383084D02*
X42946099Y-14433884D01*
X42946099Y-14433884D02*
X42996899Y-14535484D01*
X42996899Y-14535484D02*
X42996899Y-14789484D01*
X42996899Y-14789484D02*
X43047699Y-14891084D01*
X42590499Y-15399084D02*
X43301699Y-15399084D01*
X43098499Y-15399084D02*
X43200099Y-15449884D01*
X43200099Y-15449884D02*
X43250899Y-15500684D01*
X43250899Y-15500684D02*
X43301699Y-15602284D01*
X43301699Y-15602284D02*
X43301699Y-15703884D01*
X42590499Y-16516684D02*
X43657299Y-16516684D01*
X42641299Y-16516684D02*
X42590499Y-16415084D01*
X42590499Y-16415084D02*
X42590499Y-16211884D01*
X42590499Y-16211884D02*
X42641299Y-16110284D01*
X42641299Y-16110284D02*
X42692099Y-16059484D01*
X42692099Y-16059484D02*
X42793699Y-16008684D01*
X42793699Y-16008684D02*
X43098499Y-16008684D01*
X43098499Y-16008684D02*
X43200099Y-16059484D01*
X43200099Y-16059484D02*
X43250899Y-16110284D01*
X43250899Y-16110284D02*
X43301699Y-16211884D01*
X43301699Y-16211884D02*
X43301699Y-16415084D01*
X43301699Y-16415084D02*
X43250899Y-16516684D01*
X40873011Y-4375484D02*
X41939811Y-4375484D01*
X41939811Y-4375484D02*
X41177811Y-4731084D01*
X41177811Y-4731084D02*
X41939811Y-5086684D01*
X41939811Y-5086684D02*
X40873011Y-5086684D01*
X41939811Y-5797884D02*
X41939811Y-6001084D01*
X41939811Y-6001084D02*
X41889011Y-6102684D01*
X41889011Y-6102684D02*
X41787411Y-6204284D01*
X41787411Y-6204284D02*
X41584211Y-6255084D01*
X41584211Y-6255084D02*
X41228611Y-6255084D01*
X41228611Y-6255084D02*
X41025411Y-6204284D01*
X41025411Y-6204284D02*
X40923811Y-6102684D01*
X40923811Y-6102684D02*
X40873011Y-6001084D01*
X40873011Y-6001084D02*
X40873011Y-5797884D01*
X40873011Y-5797884D02*
X40923811Y-5696284D01*
X40923811Y-5696284D02*
X41025411Y-5594684D01*
X41025411Y-5594684D02*
X41228611Y-5543884D01*
X41228611Y-5543884D02*
X41584211Y-5543884D01*
X41584211Y-5543884D02*
X41787411Y-5594684D01*
X41787411Y-5594684D02*
X41889011Y-5696284D01*
X41889011Y-5696284D02*
X41939811Y-5797884D01*
X40873011Y-6712284D02*
X41939811Y-6712284D01*
X41939811Y-6712284D02*
X40873011Y-7321884D01*
X40873011Y-7321884D02*
X41939811Y-7321884D01*
X41279411Y-7829884D02*
X41279411Y-8642684D01*
X41177811Y-9099884D02*
X41177811Y-9607884D01*
X40873011Y-8998284D02*
X41939811Y-9353884D01*
X41939811Y-9353884D02*
X40873011Y-9709484D01*
X40873011Y-10065084D02*
X41939811Y-10065084D01*
X41939811Y-10065084D02*
X40873011Y-10674684D01*
X40873011Y-10674684D02*
X41939811Y-10674684D01*
X41279411Y-11182684D02*
X41279411Y-11995484D01*
X41939811Y-12706684D02*
X41939811Y-12808284D01*
X41939811Y-12808284D02*
X41889011Y-12909884D01*
X41889011Y-12909884D02*
X41838211Y-12960684D01*
X41838211Y-12960684D02*
X41736611Y-13011484D01*
X41736611Y-13011484D02*
X41533411Y-13062284D01*
X41533411Y-13062284D02*
X41279411Y-13062284D01*
X41279411Y-13062284D02*
X41076211Y-13011484D01*
X41076211Y-13011484D02*
X40974611Y-12960684D01*
X40974611Y-12960684D02*
X40923811Y-12909884D01*
X40923811Y-12909884D02*
X40873011Y-12808284D01*
X40873011Y-12808284D02*
X40873011Y-12706684D01*
X40873011Y-12706684D02*
X40923811Y-12605084D01*
X40923811Y-12605084D02*
X40974611Y-12554284D01*
X40974611Y-12554284D02*
X41076211Y-12503484D01*
X41076211Y-12503484D02*
X41279411Y-12452684D01*
X41279411Y-12452684D02*
X41533411Y-12452684D01*
X41533411Y-12452684D02*
X41736611Y-12503484D01*
X41736611Y-12503484D02*
X41838211Y-12554284D01*
X41838211Y-12554284D02*
X41889011Y-12605084D01*
X41889011Y-12605084D02*
X41939811Y-12706684D01*
X41939811Y-13417884D02*
X41939811Y-14129084D01*
X41939811Y-14129084D02*
X40873011Y-13671884D01*
X40222323Y-4273884D02*
X40222323Y-4934284D01*
X40222323Y-4934284D02*
X39815923Y-4578684D01*
X39815923Y-4578684D02*
X39815923Y-4731084D01*
X39815923Y-4731084D02*
X39765123Y-4832684D01*
X39765123Y-4832684D02*
X39714323Y-4883484D01*
X39714323Y-4883484D02*
X39612723Y-4934284D01*
X39612723Y-4934284D02*
X39358723Y-4934284D01*
X39358723Y-4934284D02*
X39257123Y-4883484D01*
X39257123Y-4883484D02*
X39206323Y-4832684D01*
X39206323Y-4832684D02*
X39155523Y-4731084D01*
X39155523Y-4731084D02*
X39155523Y-4426284D01*
X39155523Y-4426284D02*
X39206323Y-4324684D01*
X39206323Y-4324684D02*
X39257123Y-4273884D01*
X40171523Y-5950284D02*
X40222323Y-5848684D01*
X40222323Y-5848684D02*
X40222323Y-5696284D01*
X40222323Y-5696284D02*
X40171523Y-5543884D01*
X40171523Y-5543884D02*
X40069923Y-5442284D01*
X40069923Y-5442284D02*
X39968323Y-5391484D01*
X39968323Y-5391484D02*
X39765123Y-5340684D01*
X39765123Y-5340684D02*
X39612723Y-5340684D01*
X39612723Y-5340684D02*
X39409523Y-5391484D01*
X39409523Y-5391484D02*
X39307923Y-5442284D01*
X39307923Y-5442284D02*
X39206323Y-5543884D01*
X39206323Y-5543884D02*
X39155523Y-5696284D01*
X39155523Y-5696284D02*
X39155523Y-5797884D01*
X39155523Y-5797884D02*
X39206323Y-5950284D01*
X39206323Y-5950284D02*
X39257123Y-6001084D01*
X39257123Y-6001084D02*
X39612723Y-6001084D01*
X39612723Y-6001084D02*
X39612723Y-5797884D01*
X39155523Y-6458284D02*
X40222323Y-6458284D01*
X40222323Y-6458284D02*
X40222323Y-6712284D01*
X40222323Y-6712284D02*
X40171523Y-6864684D01*
X40171523Y-6864684D02*
X40069923Y-6966284D01*
X40069923Y-6966284D02*
X39968323Y-7017084D01*
X39968323Y-7017084D02*
X39765123Y-7067884D01*
X39765123Y-7067884D02*
X39612723Y-7067884D01*
X39612723Y-7067884D02*
X39409523Y-7017084D01*
X39409523Y-7017084D02*
X39307923Y-6966284D01*
X39307923Y-6966284D02*
X39206323Y-6864684D01*
X39206323Y-6864684D02*
X39155523Y-6712284D01*
X39155523Y-6712284D02*
X39155523Y-6458284D01*
X39155523Y-8134684D02*
X39663523Y-7779084D01*
X39155523Y-7525084D02*
X40222323Y-7525084D01*
X40222323Y-7525084D02*
X40222323Y-7931484D01*
X40222323Y-7931484D02*
X40171523Y-8033084D01*
X40171523Y-8033084D02*
X40120723Y-8083884D01*
X40120723Y-8083884D02*
X40019123Y-8134684D01*
X40019123Y-8134684D02*
X39866723Y-8134684D01*
X39866723Y-8134684D02*
X39765123Y-8083884D01*
X39765123Y-8083884D02*
X39714323Y-8033084D01*
X39714323Y-8033084D02*
X39663523Y-7931484D01*
X39663523Y-7931484D02*
X39663523Y-7525084D01*
X39561923Y-8591884D02*
X39561923Y-9404684D01*
X39714323Y-10268284D02*
X39714323Y-9912684D01*
X39155523Y-9912684D02*
X40222323Y-9912684D01*
X40222323Y-9912684D02*
X40222323Y-10420684D01*
X39155523Y-10827084D02*
X40222323Y-10827084D01*
X40222323Y-10827084D02*
X39460323Y-11182684D01*
X39460323Y-11182684D02*
X40222323Y-11538284D01*
X40222323Y-11538284D02*
X39155523Y-11538284D01*
D10*
X5732177Y-65570577D02*
X5732177Y-66114863D01*
X5405606Y-65461720D02*
X6548606Y-65842720D01*
X6548606Y-65842720D02*
X5405606Y-66223720D01*
X6548606Y-67149005D02*
X6548606Y-66604719D01*
X6548606Y-66604719D02*
X6004320Y-66550291D01*
X6004320Y-66550291D02*
X6058749Y-66604719D01*
X6058749Y-66604719D02*
X6113177Y-66713577D01*
X6113177Y-66713577D02*
X6113177Y-66985719D01*
X6113177Y-66985719D02*
X6058749Y-67094577D01*
X6058749Y-67094577D02*
X6004320Y-67149005D01*
X6004320Y-67149005D02*
X5895463Y-67203434D01*
X5895463Y-67203434D02*
X5623320Y-67203434D01*
X5623320Y-67203434D02*
X5514463Y-67149005D01*
X5514463Y-67149005D02*
X5460035Y-67094577D01*
X5460035Y-67094577D02*
X5405606Y-66985719D01*
X5405606Y-66985719D02*
X5405606Y-66713577D01*
X5405606Y-66713577D02*
X5460035Y-66604719D01*
X5460035Y-66604719D02*
X5514463Y-66550291D01*
X5681377Y-82588577D02*
X5681377Y-83132863D01*
X5354806Y-82479720D02*
X6497806Y-82860720D01*
X6497806Y-82860720D02*
X5354806Y-83241720D01*
X6497806Y-83513862D02*
X6497806Y-84275862D01*
X6497806Y-84275862D02*
X5354806Y-83786005D01*
X5859177Y-52946777D02*
X5859177Y-53491063D01*
X5532606Y-52837920D02*
X6675606Y-53218920D01*
X6675606Y-53218920D02*
X5532606Y-53599920D01*
X6294606Y-54470777D02*
X5532606Y-54470777D01*
X6730035Y-54198634D02*
X5913606Y-53926491D01*
X5913606Y-53926491D02*
X5913606Y-54634062D01*
X5935377Y-18021777D02*
X5935377Y-18566063D01*
X5608806Y-17912920D02*
X6751806Y-18293920D01*
X6751806Y-18293920D02*
X5608806Y-18674920D01*
X5608806Y-19654634D02*
X5608806Y-19001491D01*
X5608806Y-19328062D02*
X6751806Y-19328062D01*
X6751806Y-19328062D02*
X6588520Y-19219205D01*
X6588520Y-19219205D02*
X6479663Y-19110348D01*
X6479663Y-19110348D02*
X6425235Y-19001491D01*
D14*
X21220505Y-11173619D02*
X21220505Y-10173619D01*
X21220505Y-10173619D02*
X21458600Y-10173619D01*
X21458600Y-10173619D02*
X21601457Y-10221238D01*
X21601457Y-10221238D02*
X21696695Y-10316476D01*
X21696695Y-10316476D02*
X21744314Y-10411714D01*
X21744314Y-10411714D02*
X21791933Y-10602190D01*
X21791933Y-10602190D02*
X21791933Y-10745047D01*
X21791933Y-10745047D02*
X21744314Y-10935523D01*
X21744314Y-10935523D02*
X21696695Y-11030761D01*
X21696695Y-11030761D02*
X21601457Y-11126000D01*
X21601457Y-11126000D02*
X21458600Y-11173619D01*
X21458600Y-11173619D02*
X21220505Y-11173619D01*
X22744314Y-11173619D02*
X22172886Y-11173619D01*
X22458600Y-11173619D02*
X22458600Y-10173619D01*
X22458600Y-10173619D02*
X22363362Y-10316476D01*
X22363362Y-10316476D02*
X22268124Y-10411714D01*
X22268124Y-10411714D02*
X22172886Y-10459333D01*
D11*
X21492633Y-17007798D02*
X21619633Y-17050132D01*
X21619633Y-17050132D02*
X21661966Y-17092465D01*
X21661966Y-17092465D02*
X21704299Y-17177132D01*
X21704299Y-17177132D02*
X21704299Y-17304132D01*
X21704299Y-17304132D02*
X21661966Y-17388798D01*
X21661966Y-17388798D02*
X21619633Y-17431132D01*
X21619633Y-17431132D02*
X21534966Y-17473465D01*
X21534966Y-17473465D02*
X21196299Y-17473465D01*
X21196299Y-17473465D02*
X21196299Y-16584465D01*
X21196299Y-16584465D02*
X21492633Y-16584465D01*
X21492633Y-16584465D02*
X21577299Y-16626798D01*
X21577299Y-16626798D02*
X21619633Y-16669132D01*
X21619633Y-16669132D02*
X21661966Y-16753798D01*
X21661966Y-16753798D02*
X21661966Y-16838465D01*
X21661966Y-16838465D02*
X21619633Y-16923132D01*
X21619633Y-16923132D02*
X21577299Y-16965465D01*
X21577299Y-16965465D02*
X21492633Y-17007798D01*
X21492633Y-17007798D02*
X21196299Y-17007798D01*
X22042966Y-17219465D02*
X22466299Y-17219465D01*
X21958299Y-17473465D02*
X22254633Y-16584465D01*
X22254633Y-16584465D02*
X22550966Y-17473465D01*
X22720299Y-16584465D02*
X23016633Y-17473465D01*
X23016633Y-17473465D02*
X23312966Y-16584465D01*
X23651633Y-17473465D02*
X23820966Y-17473465D01*
X23820966Y-17473465D02*
X23905633Y-17431132D01*
X23905633Y-17431132D02*
X23947966Y-17388798D01*
X23947966Y-17388798D02*
X24032633Y-17261798D01*
X24032633Y-17261798D02*
X24074966Y-17092465D01*
X24074966Y-17092465D02*
X24074966Y-16753798D01*
X24074966Y-16753798D02*
X24032633Y-16669132D01*
X24032633Y-16669132D02*
X23990299Y-16626798D01*
X23990299Y-16626798D02*
X23905633Y-16584465D01*
X23905633Y-16584465D02*
X23736299Y-16584465D01*
X23736299Y-16584465D02*
X23651633Y-16626798D01*
X23651633Y-16626798D02*
X23609299Y-16669132D01*
X23609299Y-16669132D02*
X23566966Y-16753798D01*
X23566966Y-16753798D02*
X23566966Y-16965465D01*
X23566966Y-16965465D02*
X23609299Y-17050132D01*
X23609299Y-17050132D02*
X23651633Y-17092465D01*
X23651633Y-17092465D02*
X23736299Y-17134798D01*
X23736299Y-17134798D02*
X23905633Y-17134798D01*
X23905633Y-17134798D02*
X23990299Y-17092465D01*
X23990299Y-17092465D02*
X24032633Y-17050132D01*
X24032633Y-17050132D02*
X24074966Y-16965465D01*
X24498300Y-17473465D02*
X24667633Y-17473465D01*
X24667633Y-17473465D02*
X24752300Y-17431132D01*
X24752300Y-17431132D02*
X24794633Y-17388798D01*
X24794633Y-17388798D02*
X24879300Y-17261798D01*
X24879300Y-17261798D02*
X24921633Y-17092465D01*
X24921633Y-17092465D02*
X24921633Y-16753798D01*
X24921633Y-16753798D02*
X24879300Y-16669132D01*
X24879300Y-16669132D02*
X24836966Y-16626798D01*
X24836966Y-16626798D02*
X24752300Y-16584465D01*
X24752300Y-16584465D02*
X24582966Y-16584465D01*
X24582966Y-16584465D02*
X24498300Y-16626798D01*
X24498300Y-16626798D02*
X24455966Y-16669132D01*
X24455966Y-16669132D02*
X24413633Y-16753798D01*
X24413633Y-16753798D02*
X24413633Y-16965465D01*
X24413633Y-16965465D02*
X24455966Y-17050132D01*
X24455966Y-17050132D02*
X24498300Y-17092465D01*
X24498300Y-17092465D02*
X24582966Y-17134798D01*
X24582966Y-17134798D02*
X24752300Y-17134798D01*
X24752300Y-17134798D02*
X24836966Y-17092465D01*
X24836966Y-17092465D02*
X24879300Y-17050132D01*
X24879300Y-17050132D02*
X24921633Y-16965465D01*
D14*
X21283705Y-66648677D02*
X21283705Y-65648677D01*
X21283705Y-65648677D02*
X21521800Y-65648677D01*
X21521800Y-65648677D02*
X21664657Y-65696296D01*
X21664657Y-65696296D02*
X21759895Y-65791534D01*
X21759895Y-65791534D02*
X21807514Y-65886772D01*
X21807514Y-65886772D02*
X21855133Y-66077248D01*
X21855133Y-66077248D02*
X21855133Y-66220105D01*
X21855133Y-66220105D02*
X21807514Y-66410581D01*
X21807514Y-66410581D02*
X21759895Y-66505819D01*
X21759895Y-66505819D02*
X21664657Y-66601058D01*
X21664657Y-66601058D02*
X21521800Y-66648677D01*
X21521800Y-66648677D02*
X21283705Y-66648677D01*
X22188467Y-65648677D02*
X22855133Y-65648677D01*
X22855133Y-65648677D02*
X22426562Y-66648677D01*
X21220505Y-47114619D02*
X21220505Y-46114619D01*
X21220505Y-46114619D02*
X21458600Y-46114619D01*
X21458600Y-46114619D02*
X21601457Y-46162238D01*
X21601457Y-46162238D02*
X21696695Y-46257476D01*
X21696695Y-46257476D02*
X21744314Y-46352714D01*
X21744314Y-46352714D02*
X21791933Y-46543190D01*
X21791933Y-46543190D02*
X21791933Y-46686047D01*
X21791933Y-46686047D02*
X21744314Y-46876523D01*
X21744314Y-46876523D02*
X21696695Y-46971761D01*
X21696695Y-46971761D02*
X21601457Y-47067000D01*
X21601457Y-47067000D02*
X21458600Y-47114619D01*
X21458600Y-47114619D02*
X21220505Y-47114619D01*
X22649076Y-46114619D02*
X22458600Y-46114619D01*
X22458600Y-46114619D02*
X22363362Y-46162238D01*
X22363362Y-46162238D02*
X22315743Y-46209857D01*
X22315743Y-46209857D02*
X22220505Y-46352714D01*
X22220505Y-46352714D02*
X22172886Y-46543190D01*
X22172886Y-46543190D02*
X22172886Y-46924142D01*
X22172886Y-46924142D02*
X22220505Y-47019380D01*
X22220505Y-47019380D02*
X22268124Y-47067000D01*
X22268124Y-47067000D02*
X22363362Y-47114619D01*
X22363362Y-47114619D02*
X22553838Y-47114619D01*
X22553838Y-47114619D02*
X22649076Y-47067000D01*
X22649076Y-47067000D02*
X22696695Y-47019380D01*
X22696695Y-47019380D02*
X22744314Y-46924142D01*
X22744314Y-46924142D02*
X22744314Y-46686047D01*
X22744314Y-46686047D02*
X22696695Y-46590809D01*
X22696695Y-46590809D02*
X22649076Y-46543190D01*
X22649076Y-46543190D02*
X22553838Y-46495571D01*
X22553838Y-46495571D02*
X22363362Y-46495571D01*
X22363362Y-46495571D02*
X22268124Y-46543190D01*
X22268124Y-46543190D02*
X22220505Y-46590809D01*
X22220505Y-46590809D02*
X22172886Y-46686047D01*
X21220505Y-29170505D02*
X21220505Y-28170505D01*
X21220505Y-28170505D02*
X21458600Y-28170505D01*
X21458600Y-28170505D02*
X21601457Y-28218124D01*
X21601457Y-28218124D02*
X21696695Y-28313362D01*
X21696695Y-28313362D02*
X21744314Y-28408600D01*
X21744314Y-28408600D02*
X21791933Y-28599076D01*
X21791933Y-28599076D02*
X21791933Y-28741933D01*
X21791933Y-28741933D02*
X21744314Y-28932409D01*
X21744314Y-28932409D02*
X21696695Y-29027647D01*
X21696695Y-29027647D02*
X21601457Y-29122886D01*
X21601457Y-29122886D02*
X21458600Y-29170505D01*
X21458600Y-29170505D02*
X21220505Y-29170505D01*
X22649076Y-28503838D02*
X22649076Y-29170505D01*
X22410981Y-28122886D02*
X22172886Y-28837171D01*
X22172886Y-28837171D02*
X22791933Y-28837171D01*
X21220505Y-38123019D02*
X21220505Y-37123019D01*
X21220505Y-37123019D02*
X21458600Y-37123019D01*
X21458600Y-37123019D02*
X21601457Y-37170638D01*
X21601457Y-37170638D02*
X21696695Y-37265876D01*
X21696695Y-37265876D02*
X21744314Y-37361114D01*
X21744314Y-37361114D02*
X21791933Y-37551590D01*
X21791933Y-37551590D02*
X21791933Y-37694447D01*
X21791933Y-37694447D02*
X21744314Y-37884923D01*
X21744314Y-37884923D02*
X21696695Y-37980161D01*
X21696695Y-37980161D02*
X21601457Y-38075400D01*
X21601457Y-38075400D02*
X21458600Y-38123019D01*
X21458600Y-38123019D02*
X21220505Y-38123019D01*
X22125267Y-37123019D02*
X22744314Y-37123019D01*
X22744314Y-37123019D02*
X22410981Y-37503971D01*
X22410981Y-37503971D02*
X22553838Y-37503971D01*
X22553838Y-37503971D02*
X22649076Y-37551590D01*
X22649076Y-37551590D02*
X22696695Y-37599209D01*
X22696695Y-37599209D02*
X22744314Y-37694447D01*
X22744314Y-37694447D02*
X22744314Y-37932542D01*
X22744314Y-37932542D02*
X22696695Y-38027780D01*
X22696695Y-38027780D02*
X22649076Y-38075400D01*
X22649076Y-38075400D02*
X22553838Y-38123019D01*
X22553838Y-38123019D02*
X22268124Y-38123019D01*
X22268124Y-38123019D02*
X22172886Y-38075400D01*
X22172886Y-38075400D02*
X22125267Y-38027780D01*
X21232905Y-75552419D02*
X21232905Y-74552419D01*
X21232905Y-74552419D02*
X21471000Y-74552419D01*
X21471000Y-74552419D02*
X21613857Y-74600038D01*
X21613857Y-74600038D02*
X21709095Y-74695276D01*
X21709095Y-74695276D02*
X21756714Y-74790514D01*
X21756714Y-74790514D02*
X21804333Y-74980990D01*
X21804333Y-74980990D02*
X21804333Y-75123847D01*
X21804333Y-75123847D02*
X21756714Y-75314323D01*
X21756714Y-75314323D02*
X21709095Y-75409561D01*
X21709095Y-75409561D02*
X21613857Y-75504800D01*
X21613857Y-75504800D02*
X21471000Y-75552419D01*
X21471000Y-75552419D02*
X21232905Y-75552419D01*
X22375762Y-74980990D02*
X22280524Y-74933371D01*
X22280524Y-74933371D02*
X22232905Y-74885752D01*
X22232905Y-74885752D02*
X22185286Y-74790514D01*
X22185286Y-74790514D02*
X22185286Y-74742895D01*
X22185286Y-74742895D02*
X22232905Y-74647657D01*
X22232905Y-74647657D02*
X22280524Y-74600038D01*
X22280524Y-74600038D02*
X22375762Y-74552419D01*
X22375762Y-74552419D02*
X22566238Y-74552419D01*
X22566238Y-74552419D02*
X22661476Y-74600038D01*
X22661476Y-74600038D02*
X22709095Y-74647657D01*
X22709095Y-74647657D02*
X22756714Y-74742895D01*
X22756714Y-74742895D02*
X22756714Y-74790514D01*
X22756714Y-74790514D02*
X22709095Y-74885752D01*
X22709095Y-74885752D02*
X22661476Y-74933371D01*
X22661476Y-74933371D02*
X22566238Y-74980990D01*
X22566238Y-74980990D02*
X22375762Y-74980990D01*
X22375762Y-74980990D02*
X22280524Y-75028609D01*
X22280524Y-75028609D02*
X22232905Y-75076228D01*
X22232905Y-75076228D02*
X22185286Y-75171466D01*
X22185286Y-75171466D02*
X22185286Y-75361942D01*
X22185286Y-75361942D02*
X22232905Y-75457180D01*
X22232905Y-75457180D02*
X22280524Y-75504800D01*
X22280524Y-75504800D02*
X22375762Y-75552419D01*
X22375762Y-75552419D02*
X22566238Y-75552419D01*
X22566238Y-75552419D02*
X22661476Y-75504800D01*
X22661476Y-75504800D02*
X22709095Y-75457180D01*
X22709095Y-75457180D02*
X22756714Y-75361942D01*
X22756714Y-75361942D02*
X22756714Y-75171466D01*
X22756714Y-75171466D02*
X22709095Y-75076228D01*
X22709095Y-75076228D02*
X22661476Y-75028609D01*
X22661476Y-75028609D02*
X22566238Y-74980990D01*
D11*
X21289433Y-81091998D02*
X21416433Y-81134332D01*
X21416433Y-81134332D02*
X21458766Y-81176665D01*
X21458766Y-81176665D02*
X21501099Y-81261332D01*
X21501099Y-81261332D02*
X21501099Y-81388332D01*
X21501099Y-81388332D02*
X21458766Y-81472998D01*
X21458766Y-81472998D02*
X21416433Y-81515332D01*
X21416433Y-81515332D02*
X21331766Y-81557665D01*
X21331766Y-81557665D02*
X20993099Y-81557665D01*
X20993099Y-81557665D02*
X20993099Y-80668665D01*
X20993099Y-80668665D02*
X21289433Y-80668665D01*
X21289433Y-80668665D02*
X21374099Y-80710998D01*
X21374099Y-80710998D02*
X21416433Y-80753332D01*
X21416433Y-80753332D02*
X21458766Y-80837998D01*
X21458766Y-80837998D02*
X21458766Y-80922665D01*
X21458766Y-80922665D02*
X21416433Y-81007332D01*
X21416433Y-81007332D02*
X21374099Y-81049665D01*
X21374099Y-81049665D02*
X21289433Y-81091998D01*
X21289433Y-81091998D02*
X20993099Y-81091998D01*
X21839766Y-81303665D02*
X22263099Y-81303665D01*
X21755099Y-81557665D02*
X22051433Y-80668665D01*
X22051433Y-80668665D02*
X22347766Y-81557665D01*
X22517099Y-80668665D02*
X22813433Y-81557665D01*
X22813433Y-81557665D02*
X23109766Y-80668665D01*
X23448433Y-81557665D02*
X23617766Y-81557665D01*
X23617766Y-81557665D02*
X23702433Y-81515332D01*
X23702433Y-81515332D02*
X23744766Y-81472998D01*
X23744766Y-81472998D02*
X23829433Y-81345998D01*
X23829433Y-81345998D02*
X23871766Y-81176665D01*
X23871766Y-81176665D02*
X23871766Y-80837998D01*
X23871766Y-80837998D02*
X23829433Y-80753332D01*
X23829433Y-80753332D02*
X23787099Y-80710998D01*
X23787099Y-80710998D02*
X23702433Y-80668665D01*
X23702433Y-80668665D02*
X23533099Y-80668665D01*
X23533099Y-80668665D02*
X23448433Y-80710998D01*
X23448433Y-80710998D02*
X23406099Y-80753332D01*
X23406099Y-80753332D02*
X23363766Y-80837998D01*
X23363766Y-80837998D02*
X23363766Y-81049665D01*
X23363766Y-81049665D02*
X23406099Y-81134332D01*
X23406099Y-81134332D02*
X23448433Y-81176665D01*
X23448433Y-81176665D02*
X23533099Y-81218998D01*
X23533099Y-81218998D02*
X23702433Y-81218998D01*
X23702433Y-81218998D02*
X23787099Y-81176665D01*
X23787099Y-81176665D02*
X23829433Y-81134332D01*
X23829433Y-81134332D02*
X23871766Y-81049665D01*
X24295100Y-81557665D02*
X24464433Y-81557665D01*
X24464433Y-81557665D02*
X24549100Y-81515332D01*
X24549100Y-81515332D02*
X24591433Y-81472998D01*
X24591433Y-81472998D02*
X24676100Y-81345998D01*
X24676100Y-81345998D02*
X24718433Y-81176665D01*
X24718433Y-81176665D02*
X24718433Y-80837998D01*
X24718433Y-80837998D02*
X24676100Y-80753332D01*
X24676100Y-80753332D02*
X24633766Y-80710998D01*
X24633766Y-80710998D02*
X24549100Y-80668665D01*
X24549100Y-80668665D02*
X24379766Y-80668665D01*
X24379766Y-80668665D02*
X24295100Y-80710998D01*
X24295100Y-80710998D02*
X24252766Y-80753332D01*
X24252766Y-80753332D02*
X24210433Y-80837998D01*
X24210433Y-80837998D02*
X24210433Y-81049665D01*
X24210433Y-81049665D02*
X24252766Y-81134332D01*
X24252766Y-81134332D02*
X24295100Y-81176665D01*
X24295100Y-81176665D02*
X24379766Y-81218998D01*
X24379766Y-81218998D02*
X24549100Y-81218998D01*
X24549100Y-81218998D02*
X24633766Y-81176665D01*
X24633766Y-81176665D02*
X24676100Y-81134332D01*
X24676100Y-81134332D02*
X24718433Y-81049665D01*
D14*
X21220505Y-56225519D02*
X21220505Y-55225519D01*
X21220505Y-55225519D02*
X21458600Y-55225519D01*
X21458600Y-55225519D02*
X21601457Y-55273138D01*
X21601457Y-55273138D02*
X21696695Y-55368376D01*
X21696695Y-55368376D02*
X21744314Y-55463614D01*
X21744314Y-55463614D02*
X21791933Y-55654090D01*
X21791933Y-55654090D02*
X21791933Y-55796947D01*
X21791933Y-55796947D02*
X21744314Y-55987423D01*
X21744314Y-55987423D02*
X21696695Y-56082661D01*
X21696695Y-56082661D02*
X21601457Y-56177900D01*
X21601457Y-56177900D02*
X21458600Y-56225519D01*
X21458600Y-56225519D02*
X21220505Y-56225519D01*
X22696695Y-55225519D02*
X22220505Y-55225519D01*
X22220505Y-55225519D02*
X22172886Y-55701709D01*
X22172886Y-55701709D02*
X22220505Y-55654090D01*
X22220505Y-55654090D02*
X22315743Y-55606471D01*
X22315743Y-55606471D02*
X22553838Y-55606471D01*
X22553838Y-55606471D02*
X22649076Y-55654090D01*
X22649076Y-55654090D02*
X22696695Y-55701709D01*
X22696695Y-55701709D02*
X22744314Y-55796947D01*
X22744314Y-55796947D02*
X22744314Y-56035042D01*
X22744314Y-56035042D02*
X22696695Y-56130280D01*
X22696695Y-56130280D02*
X22649076Y-56177900D01*
X22649076Y-56177900D02*
X22553838Y-56225519D01*
X22553838Y-56225519D02*
X22315743Y-56225519D01*
X22315743Y-56225519D02*
X22220505Y-56177900D01*
X22220505Y-56177900D02*
X22172886Y-56130280D01*
X21220505Y-20190619D02*
X21220505Y-19190619D01*
X21220505Y-19190619D02*
X21458600Y-19190619D01*
X21458600Y-19190619D02*
X21601457Y-19238238D01*
X21601457Y-19238238D02*
X21696695Y-19333476D01*
X21696695Y-19333476D02*
X21744314Y-19428714D01*
X21744314Y-19428714D02*
X21791933Y-19619190D01*
X21791933Y-19619190D02*
X21791933Y-19762047D01*
X21791933Y-19762047D02*
X21744314Y-19952523D01*
X21744314Y-19952523D02*
X21696695Y-20047761D01*
X21696695Y-20047761D02*
X21601457Y-20143000D01*
X21601457Y-20143000D02*
X21458600Y-20190619D01*
X21458600Y-20190619D02*
X21220505Y-20190619D01*
X22172886Y-19285857D02*
X22220505Y-19238238D01*
X22220505Y-19238238D02*
X22315743Y-19190619D01*
X22315743Y-19190619D02*
X22553838Y-19190619D01*
X22553838Y-19190619D02*
X22649076Y-19238238D01*
X22649076Y-19238238D02*
X22696695Y-19285857D01*
X22696695Y-19285857D02*
X22744314Y-19381095D01*
X22744314Y-19381095D02*
X22744314Y-19476333D01*
X22744314Y-19476333D02*
X22696695Y-19619190D01*
X22696695Y-19619190D02*
X22125267Y-20190619D01*
X22125267Y-20190619D02*
X22744314Y-20190619D01*
D11*
X53987700Y-34965598D02*
X54284034Y-34965598D01*
X54411034Y-35431265D02*
X53987700Y-35431265D01*
X53987700Y-35431265D02*
X53987700Y-34542265D01*
X53987700Y-34542265D02*
X54411034Y-34542265D01*
X54707367Y-34542265D02*
X55300033Y-35431265D01*
X55300033Y-34542265D02*
X54707367Y-35431265D01*
X55638700Y-35431265D02*
X55638700Y-34542265D01*
X55638700Y-34542265D02*
X55977367Y-34542265D01*
X55977367Y-34542265D02*
X56062034Y-34584598D01*
X56062034Y-34584598D02*
X56104367Y-34626932D01*
X56104367Y-34626932D02*
X56146700Y-34711598D01*
X56146700Y-34711598D02*
X56146700Y-34838598D01*
X56146700Y-34838598D02*
X56104367Y-34923265D01*
X56104367Y-34923265D02*
X56062034Y-34965598D01*
X56062034Y-34965598D02*
X55977367Y-35007932D01*
X55977367Y-35007932D02*
X55638700Y-35007932D01*
X56485367Y-35177265D02*
X56908700Y-35177265D01*
X56400700Y-35431265D02*
X56697034Y-34542265D01*
X56697034Y-34542265D02*
X56993367Y-35431265D01*
X57289700Y-35431265D02*
X57289700Y-34542265D01*
X57289700Y-34542265D02*
X57797700Y-35431265D01*
X57797700Y-35431265D02*
X57797700Y-34542265D01*
X58221033Y-35431265D02*
X58221033Y-34542265D01*
X58221033Y-34542265D02*
X58432700Y-34542265D01*
X58432700Y-34542265D02*
X58559700Y-34584598D01*
X58559700Y-34584598D02*
X58644367Y-34669265D01*
X58644367Y-34669265D02*
X58686700Y-34753932D01*
X58686700Y-34753932D02*
X58729033Y-34923265D01*
X58729033Y-34923265D02*
X58729033Y-35050265D01*
X58729033Y-35050265D02*
X58686700Y-35219598D01*
X58686700Y-35219598D02*
X58644367Y-35304265D01*
X58644367Y-35304265D02*
X58559700Y-35388932D01*
X58559700Y-35388932D02*
X58432700Y-35431265D01*
X58432700Y-35431265D02*
X58221033Y-35431265D01*
X42947166Y-87602865D02*
X42947166Y-86713865D01*
X43328166Y-86798532D02*
X43370499Y-86756198D01*
X43370499Y-86756198D02*
X43455166Y-86713865D01*
X43455166Y-86713865D02*
X43666833Y-86713865D01*
X43666833Y-86713865D02*
X43751499Y-86756198D01*
X43751499Y-86756198D02*
X43793833Y-86798532D01*
X43793833Y-86798532D02*
X43836166Y-86883198D01*
X43836166Y-86883198D02*
X43836166Y-86967865D01*
X43836166Y-86967865D02*
X43793833Y-87094865D01*
X43793833Y-87094865D02*
X43285833Y-87602865D01*
X43285833Y-87602865D02*
X43836166Y-87602865D01*
X44725166Y-87518198D02*
X44682833Y-87560532D01*
X44682833Y-87560532D02*
X44555833Y-87602865D01*
X44555833Y-87602865D02*
X44471166Y-87602865D01*
X44471166Y-87602865D02*
X44344166Y-87560532D01*
X44344166Y-87560532D02*
X44259500Y-87475865D01*
X44259500Y-87475865D02*
X44217166Y-87391198D01*
X44217166Y-87391198D02*
X44174833Y-87221865D01*
X44174833Y-87221865D02*
X44174833Y-87094865D01*
X44174833Y-87094865D02*
X44217166Y-86925532D01*
X44217166Y-86925532D02*
X44259500Y-86840865D01*
X44259500Y-86840865D02*
X44344166Y-86756198D01*
X44344166Y-86756198D02*
X44471166Y-86713865D01*
X44471166Y-86713865D02*
X44555833Y-86713865D01*
X44555833Y-86713865D02*
X44682833Y-86756198D01*
X44682833Y-86756198D02*
X44725166Y-86798532D01*
X46249166Y-87602865D02*
X45741166Y-87602865D01*
X45995166Y-87602865D02*
X45995166Y-86713865D01*
X45995166Y-86713865D02*
X45910499Y-86840865D01*
X45910499Y-86840865D02*
X45825833Y-86925532D01*
X45825833Y-86925532D02*
X45741166Y-86967865D01*
D14*
X19585780Y-84037561D02*
X20061971Y-83704228D01*
X19585780Y-83466133D02*
X20585780Y-83466133D01*
X20585780Y-83466133D02*
X20585780Y-83847085D01*
X20585780Y-83847085D02*
X20538161Y-83942323D01*
X20538161Y-83942323D02*
X20490542Y-83989942D01*
X20490542Y-83989942D02*
X20395304Y-84037561D01*
X20395304Y-84037561D02*
X20252447Y-84037561D01*
X20252447Y-84037561D02*
X20157209Y-83989942D01*
X20157209Y-83989942D02*
X20109590Y-83942323D01*
X20109590Y-83942323D02*
X20061971Y-83847085D01*
X20061971Y-83847085D02*
X20061971Y-83466133D01*
X20585780Y-84323276D02*
X19585780Y-84656609D01*
X19585780Y-84656609D02*
X20585780Y-84989942D01*
X20157209Y-85466133D02*
X20204828Y-85370895D01*
X20204828Y-85370895D02*
X20252447Y-85323276D01*
X20252447Y-85323276D02*
X20347685Y-85275657D01*
X20347685Y-85275657D02*
X20395304Y-85275657D01*
X20395304Y-85275657D02*
X20490542Y-85323276D01*
X20490542Y-85323276D02*
X20538161Y-85370895D01*
X20538161Y-85370895D02*
X20585780Y-85466133D01*
X20585780Y-85466133D02*
X20585780Y-85656609D01*
X20585780Y-85656609D02*
X20538161Y-85751847D01*
X20538161Y-85751847D02*
X20490542Y-85799466D01*
X20490542Y-85799466D02*
X20395304Y-85847085D01*
X20395304Y-85847085D02*
X20347685Y-85847085D01*
X20347685Y-85847085D02*
X20252447Y-85799466D01*
X20252447Y-85799466D02*
X20204828Y-85751847D01*
X20204828Y-85751847D02*
X20157209Y-85656609D01*
X20157209Y-85656609D02*
X20157209Y-85466133D01*
X20157209Y-85466133D02*
X20109590Y-85370895D01*
X20109590Y-85370895D02*
X20061971Y-85323276D01*
X20061971Y-85323276D02*
X19966733Y-85275657D01*
X19966733Y-85275657D02*
X19776257Y-85275657D01*
X19776257Y-85275657D02*
X19681019Y-85323276D01*
X19681019Y-85323276D02*
X19633400Y-85370895D01*
X19633400Y-85370895D02*
X19585780Y-85466133D01*
X19585780Y-85466133D02*
X19585780Y-85656609D01*
X19585780Y-85656609D02*
X19633400Y-85751847D01*
X19633400Y-85751847D02*
X19681019Y-85799466D01*
X19681019Y-85799466D02*
X19776257Y-85847085D01*
X19776257Y-85847085D02*
X19966733Y-85847085D01*
X19966733Y-85847085D02*
X20061971Y-85799466D01*
X20061971Y-85799466D02*
X20109590Y-85751847D01*
X20109590Y-85751847D02*
X20157209Y-85656609D01*
X17528380Y-78627361D02*
X18004571Y-78294028D01*
X17528380Y-78055933D02*
X18528380Y-78055933D01*
X18528380Y-78055933D02*
X18528380Y-78436885D01*
X18528380Y-78436885D02*
X18480761Y-78532123D01*
X18480761Y-78532123D02*
X18433142Y-78579742D01*
X18433142Y-78579742D02*
X18337904Y-78627361D01*
X18337904Y-78627361D02*
X18195047Y-78627361D01*
X18195047Y-78627361D02*
X18099809Y-78579742D01*
X18099809Y-78579742D02*
X18052190Y-78532123D01*
X18052190Y-78532123D02*
X18004571Y-78436885D01*
X18004571Y-78436885D02*
X18004571Y-78055933D01*
X18528380Y-78913076D02*
X17528380Y-79246409D01*
X17528380Y-79246409D02*
X18528380Y-79579742D01*
X18528380Y-79817838D02*
X18528380Y-80484504D01*
X18528380Y-80484504D02*
X17528380Y-80055933D01*
X17604580Y-10148961D02*
X18080771Y-9815628D01*
X17604580Y-9577533D02*
X18604580Y-9577533D01*
X18604580Y-9577533D02*
X18604580Y-9958485D01*
X18604580Y-9958485D02*
X18556961Y-10053723D01*
X18556961Y-10053723D02*
X18509342Y-10101342D01*
X18509342Y-10101342D02*
X18414104Y-10148961D01*
X18414104Y-10148961D02*
X18271247Y-10148961D01*
X18271247Y-10148961D02*
X18176009Y-10101342D01*
X18176009Y-10101342D02*
X18128390Y-10053723D01*
X18128390Y-10053723D02*
X18080771Y-9958485D01*
X18080771Y-9958485D02*
X18080771Y-9577533D01*
X18604580Y-10434676D02*
X17604580Y-10768009D01*
X17604580Y-10768009D02*
X18604580Y-11101342D01*
X17604580Y-11958485D02*
X17604580Y-11387057D01*
X17604580Y-11672771D02*
X18604580Y-11672771D01*
X18604580Y-11672771D02*
X18461723Y-11577533D01*
X18461723Y-11577533D02*
X18366485Y-11482295D01*
X18366485Y-11482295D02*
X18318866Y-11387057D01*
X18509342Y-20632943D02*
X18556961Y-20680562D01*
X18556961Y-20680562D02*
X18604580Y-20775800D01*
X18604580Y-20775800D02*
X18604580Y-21013895D01*
X18604580Y-21013895D02*
X18556961Y-21109133D01*
X18556961Y-21109133D02*
X18509342Y-21156752D01*
X18509342Y-21156752D02*
X18414104Y-21204371D01*
X18414104Y-21204371D02*
X18318866Y-21204371D01*
X18318866Y-21204371D02*
X18176009Y-21156752D01*
X18176009Y-21156752D02*
X17604580Y-20585324D01*
X17604580Y-20585324D02*
X17604580Y-21204371D01*
X18604580Y-21823419D02*
X18604580Y-21918657D01*
X18604580Y-21918657D02*
X18556961Y-22013895D01*
X18556961Y-22013895D02*
X18509342Y-22061514D01*
X18509342Y-22061514D02*
X18414104Y-22109133D01*
X18414104Y-22109133D02*
X18223628Y-22156752D01*
X18223628Y-22156752D02*
X17985533Y-22156752D01*
X17985533Y-22156752D02*
X17795057Y-22109133D01*
X17795057Y-22109133D02*
X17699819Y-22061514D01*
X17699819Y-22061514D02*
X17652200Y-22013895D01*
X17652200Y-22013895D02*
X17604580Y-21918657D01*
X17604580Y-21918657D02*
X17604580Y-21823419D01*
X17604580Y-21823419D02*
X17652200Y-21728181D01*
X17652200Y-21728181D02*
X17699819Y-21680562D01*
X17699819Y-21680562D02*
X17795057Y-21632943D01*
X17795057Y-21632943D02*
X17985533Y-21585324D01*
X17985533Y-21585324D02*
X18223628Y-21585324D01*
X18223628Y-21585324D02*
X18414104Y-21632943D01*
X18414104Y-21632943D02*
X18509342Y-21680562D01*
X18509342Y-21680562D02*
X18556961Y-21728181D01*
X18556961Y-21728181D02*
X18604580Y-21823419D01*
X18604580Y-22775800D02*
X18604580Y-22871038D01*
X18604580Y-22871038D02*
X18556961Y-22966276D01*
X18556961Y-22966276D02*
X18509342Y-23013895D01*
X18509342Y-23013895D02*
X18414104Y-23061514D01*
X18414104Y-23061514D02*
X18223628Y-23109133D01*
X18223628Y-23109133D02*
X17985533Y-23109133D01*
X17985533Y-23109133D02*
X17795057Y-23061514D01*
X17795057Y-23061514D02*
X17699819Y-23013895D01*
X17699819Y-23013895D02*
X17652200Y-22966276D01*
X17652200Y-22966276D02*
X17604580Y-22871038D01*
X17604580Y-22871038D02*
X17604580Y-22775800D01*
X17604580Y-22775800D02*
X17652200Y-22680562D01*
X17652200Y-22680562D02*
X17699819Y-22632943D01*
X17699819Y-22632943D02*
X17795057Y-22585324D01*
X17795057Y-22585324D02*
X17985533Y-22537705D01*
X17985533Y-22537705D02*
X18223628Y-22537705D01*
X18223628Y-22537705D02*
X18414104Y-22585324D01*
X18414104Y-22585324D02*
X18509342Y-22632943D01*
X18509342Y-22632943D02*
X18556961Y-22680562D01*
X18556961Y-22680562D02*
X18604580Y-22775800D01*
X17604580Y-23537705D02*
X18604580Y-23537705D01*
X17985533Y-23632943D02*
X17604580Y-23918657D01*
X18271247Y-23918657D02*
X17890295Y-23537705D01*
X50023733Y-64392980D02*
X49976114Y-64440600D01*
X49976114Y-64440600D02*
X49833257Y-64488219D01*
X49833257Y-64488219D02*
X49738019Y-64488219D01*
X49738019Y-64488219D02*
X49595162Y-64440600D01*
X49595162Y-64440600D02*
X49499924Y-64345361D01*
X49499924Y-64345361D02*
X49452305Y-64250123D01*
X49452305Y-64250123D02*
X49404686Y-64059647D01*
X49404686Y-64059647D02*
X49404686Y-63916790D01*
X49404686Y-63916790D02*
X49452305Y-63726314D01*
X49452305Y-63726314D02*
X49499924Y-63631076D01*
X49499924Y-63631076D02*
X49595162Y-63535838D01*
X49595162Y-63535838D02*
X49738019Y-63488219D01*
X49738019Y-63488219D02*
X49833257Y-63488219D01*
X49833257Y-63488219D02*
X49976114Y-63535838D01*
X49976114Y-63535838D02*
X50023733Y-63583457D01*
X50499924Y-64488219D02*
X50690400Y-64488219D01*
X50690400Y-64488219D02*
X50785638Y-64440600D01*
X50785638Y-64440600D02*
X50833257Y-64392980D01*
X50833257Y-64392980D02*
X50928495Y-64250123D01*
X50928495Y-64250123D02*
X50976114Y-64059647D01*
X50976114Y-64059647D02*
X50976114Y-63678695D01*
X50976114Y-63678695D02*
X50928495Y-63583457D01*
X50928495Y-63583457D02*
X50880876Y-63535838D01*
X50880876Y-63535838D02*
X50785638Y-63488219D01*
X50785638Y-63488219D02*
X50595162Y-63488219D01*
X50595162Y-63488219D02*
X50499924Y-63535838D01*
X50499924Y-63535838D02*
X50452305Y-63583457D01*
X50452305Y-63583457D02*
X50404686Y-63678695D01*
X50404686Y-63678695D02*
X50404686Y-63916790D01*
X50404686Y-63916790D02*
X50452305Y-64012028D01*
X50452305Y-64012028D02*
X50499924Y-64059647D01*
X50499924Y-64059647D02*
X50595162Y-64107266D01*
X50595162Y-64107266D02*
X50785638Y-64107266D01*
X50785638Y-64107266D02*
X50880876Y-64059647D01*
X50880876Y-64059647D02*
X50928495Y-64012028D01*
X50928495Y-64012028D02*
X50976114Y-63916790D01*
D11*
X49940633Y-60628065D02*
X49432633Y-60628065D01*
X49686633Y-60628065D02*
X49686633Y-59739065D01*
X49686633Y-59739065D02*
X49601966Y-59866065D01*
X49601966Y-59866065D02*
X49517300Y-59950732D01*
X49517300Y-59950732D02*
X49432633Y-59993065D01*
X50702633Y-60035398D02*
X50702633Y-60628065D01*
X50321633Y-60035398D02*
X50321633Y-60501065D01*
X50321633Y-60501065D02*
X50363967Y-60585732D01*
X50363967Y-60585732D02*
X50448633Y-60628065D01*
X50448633Y-60628065D02*
X50575633Y-60628065D01*
X50575633Y-60628065D02*
X50660300Y-60585732D01*
X50660300Y-60585732D02*
X50702633Y-60543398D01*
D14*
X48906133Y-19851019D02*
X48572800Y-19374828D01*
X48334705Y-19851019D02*
X48334705Y-18851019D01*
X48334705Y-18851019D02*
X48715657Y-18851019D01*
X48715657Y-18851019D02*
X48810895Y-18898638D01*
X48810895Y-18898638D02*
X48858514Y-18946257D01*
X48858514Y-18946257D02*
X48906133Y-19041495D01*
X48906133Y-19041495D02*
X48906133Y-19184352D01*
X48906133Y-19184352D02*
X48858514Y-19279590D01*
X48858514Y-19279590D02*
X48810895Y-19327209D01*
X48810895Y-19327209D02*
X48715657Y-19374828D01*
X48715657Y-19374828D02*
X48334705Y-19374828D01*
X49382324Y-19851019D02*
X49572800Y-19851019D01*
X49572800Y-19851019D02*
X49668038Y-19803400D01*
X49668038Y-19803400D02*
X49715657Y-19755780D01*
X49715657Y-19755780D02*
X49810895Y-19612923D01*
X49810895Y-19612923D02*
X49858514Y-19422447D01*
X49858514Y-19422447D02*
X49858514Y-19041495D01*
X49858514Y-19041495D02*
X49810895Y-18946257D01*
X49810895Y-18946257D02*
X49763276Y-18898638D01*
X49763276Y-18898638D02*
X49668038Y-18851019D01*
X49668038Y-18851019D02*
X49477562Y-18851019D01*
X49477562Y-18851019D02*
X49382324Y-18898638D01*
X49382324Y-18898638D02*
X49334705Y-18946257D01*
X49334705Y-18946257D02*
X49287086Y-19041495D01*
X49287086Y-19041495D02*
X49287086Y-19279590D01*
X49287086Y-19279590D02*
X49334705Y-19374828D01*
X49334705Y-19374828D02*
X49382324Y-19422447D01*
X49382324Y-19422447D02*
X49477562Y-19470066D01*
X49477562Y-19470066D02*
X49668038Y-19470066D01*
X49668038Y-19470066D02*
X49763276Y-19422447D01*
X49763276Y-19422447D02*
X49810895Y-19374828D01*
X49810895Y-19374828D02*
X49858514Y-19279590D01*
D11*
X48755300Y-24220465D02*
X48331966Y-24220465D01*
X48331966Y-24220465D02*
X48289633Y-24643798D01*
X48289633Y-24643798D02*
X48331966Y-24601465D01*
X48331966Y-24601465D02*
X48416633Y-24559132D01*
X48416633Y-24559132D02*
X48628300Y-24559132D01*
X48628300Y-24559132D02*
X48712966Y-24601465D01*
X48712966Y-24601465D02*
X48755300Y-24643798D01*
X48755300Y-24643798D02*
X48797633Y-24728465D01*
X48797633Y-24728465D02*
X48797633Y-24940132D01*
X48797633Y-24940132D02*
X48755300Y-25024798D01*
X48755300Y-25024798D02*
X48712966Y-25067132D01*
X48712966Y-25067132D02*
X48628300Y-25109465D01*
X48628300Y-25109465D02*
X48416633Y-25109465D01*
X48416633Y-25109465D02*
X48331966Y-25067132D01*
X48331966Y-25067132D02*
X48289633Y-25024798D01*
X49559633Y-24220465D02*
X49390300Y-24220465D01*
X49390300Y-24220465D02*
X49305633Y-24262798D01*
X49305633Y-24262798D02*
X49263300Y-24305132D01*
X49263300Y-24305132D02*
X49178633Y-24432132D01*
X49178633Y-24432132D02*
X49136300Y-24601465D01*
X49136300Y-24601465D02*
X49136300Y-24940132D01*
X49136300Y-24940132D02*
X49178633Y-25024798D01*
X49178633Y-25024798D02*
X49220967Y-25067132D01*
X49220967Y-25067132D02*
X49305633Y-25109465D01*
X49305633Y-25109465D02*
X49474967Y-25109465D01*
X49474967Y-25109465D02*
X49559633Y-25067132D01*
X49559633Y-25067132D02*
X49601967Y-25024798D01*
X49601967Y-25024798D02*
X49644300Y-24940132D01*
X49644300Y-24940132D02*
X49644300Y-24728465D01*
X49644300Y-24728465D02*
X49601967Y-24643798D01*
X49601967Y-24643798D02*
X49559633Y-24601465D01*
X49559633Y-24601465D02*
X49474967Y-24559132D01*
X49474967Y-24559132D02*
X49305633Y-24559132D01*
X49305633Y-24559132D02*
X49220967Y-24601465D01*
X49220967Y-24601465D02*
X49178633Y-24643798D01*
X49178633Y-24643798D02*
X49136300Y-24728465D01*
X50025300Y-25109465D02*
X50025300Y-24220465D01*
X50109967Y-24770798D02*
X50363967Y-25109465D01*
X50363967Y-24516798D02*
X50025300Y-24855465D01*
D14*
X42888842Y-77423180D02*
X42841223Y-77470800D01*
X42841223Y-77470800D02*
X42698366Y-77518419D01*
X42698366Y-77518419D02*
X42603128Y-77518419D01*
X42603128Y-77518419D02*
X42460271Y-77470800D01*
X42460271Y-77470800D02*
X42365033Y-77375561D01*
X42365033Y-77375561D02*
X42317414Y-77280323D01*
X42317414Y-77280323D02*
X42269795Y-77089847D01*
X42269795Y-77089847D02*
X42269795Y-76946990D01*
X42269795Y-76946990D02*
X42317414Y-76756514D01*
X42317414Y-76756514D02*
X42365033Y-76661276D01*
X42365033Y-76661276D02*
X42460271Y-76566038D01*
X42460271Y-76566038D02*
X42603128Y-76518419D01*
X42603128Y-76518419D02*
X42698366Y-76518419D01*
X42698366Y-76518419D02*
X42841223Y-76566038D01*
X42841223Y-76566038D02*
X42888842Y-76613657D01*
X43841223Y-77518419D02*
X43269795Y-77518419D01*
X43555509Y-77518419D02*
X43555509Y-76518419D01*
X43555509Y-76518419D02*
X43460271Y-76661276D01*
X43460271Y-76661276D02*
X43365033Y-76756514D01*
X43365033Y-76756514D02*
X43269795Y-76804133D01*
X44174557Y-76518419D02*
X44793604Y-76518419D01*
X44793604Y-76518419D02*
X44460271Y-76899371D01*
X44460271Y-76899371D02*
X44603128Y-76899371D01*
X44603128Y-76899371D02*
X44698366Y-76946990D01*
X44698366Y-76946990D02*
X44745985Y-76994609D01*
X44745985Y-76994609D02*
X44793604Y-77089847D01*
X44793604Y-77089847D02*
X44793604Y-77327942D01*
X44793604Y-77327942D02*
X44745985Y-77423180D01*
X44745985Y-77423180D02*
X44698366Y-77470800D01*
X44698366Y-77470800D02*
X44603128Y-77518419D01*
X44603128Y-77518419D02*
X44317414Y-77518419D01*
X44317414Y-77518419D02*
X44222176Y-77470800D01*
X44222176Y-77470800D02*
X44174557Y-77423180D01*
D11*
X43434333Y-80922665D02*
X42926333Y-80922665D01*
X43180333Y-80922665D02*
X43180333Y-80033665D01*
X43180333Y-80033665D02*
X43095666Y-80160665D01*
X43095666Y-80160665D02*
X43011000Y-80245332D01*
X43011000Y-80245332D02*
X42926333Y-80287665D01*
X44196333Y-80329998D02*
X44196333Y-80922665D01*
X43815333Y-80329998D02*
X43815333Y-80795665D01*
X43815333Y-80795665D02*
X43857667Y-80880332D01*
X43857667Y-80880332D02*
X43942333Y-80922665D01*
X43942333Y-80922665D02*
X44069333Y-80922665D01*
X44069333Y-80922665D02*
X44154000Y-80880332D01*
X44154000Y-80880332D02*
X44196333Y-80837998D01*
D14*
X28922742Y-67313980D02*
X28875123Y-67361600D01*
X28875123Y-67361600D02*
X28732266Y-67409219D01*
X28732266Y-67409219D02*
X28637028Y-67409219D01*
X28637028Y-67409219D02*
X28494171Y-67361600D01*
X28494171Y-67361600D02*
X28398933Y-67266361D01*
X28398933Y-67266361D02*
X28351314Y-67171123D01*
X28351314Y-67171123D02*
X28303695Y-66980647D01*
X28303695Y-66980647D02*
X28303695Y-66837790D01*
X28303695Y-66837790D02*
X28351314Y-66647314D01*
X28351314Y-66647314D02*
X28398933Y-66552076D01*
X28398933Y-66552076D02*
X28494171Y-66456838D01*
X28494171Y-66456838D02*
X28637028Y-66409219D01*
X28637028Y-66409219D02*
X28732266Y-66409219D01*
X28732266Y-66409219D02*
X28875123Y-66456838D01*
X28875123Y-66456838D02*
X28922742Y-66504457D01*
X29875123Y-67409219D02*
X29303695Y-67409219D01*
X29589409Y-67409219D02*
X29589409Y-66409219D01*
X29589409Y-66409219D02*
X29494171Y-66552076D01*
X29494171Y-66552076D02*
X29398933Y-66647314D01*
X29398933Y-66647314D02*
X29303695Y-66694933D01*
X30827504Y-67409219D02*
X30256076Y-67409219D01*
X30541790Y-67409219D02*
X30541790Y-66409219D01*
X30541790Y-66409219D02*
X30446552Y-66552076D01*
X30446552Y-66552076D02*
X30351314Y-66647314D01*
X30351314Y-66647314D02*
X30256076Y-66694933D01*
X7764542Y-72947419D02*
X7431209Y-72471228D01*
X7193114Y-72947419D02*
X7193114Y-71947419D01*
X7193114Y-71947419D02*
X7574066Y-71947419D01*
X7574066Y-71947419D02*
X7669304Y-71995038D01*
X7669304Y-71995038D02*
X7716923Y-72042657D01*
X7716923Y-72042657D02*
X7764542Y-72137895D01*
X7764542Y-72137895D02*
X7764542Y-72280752D01*
X7764542Y-72280752D02*
X7716923Y-72375990D01*
X7716923Y-72375990D02*
X7669304Y-72423609D01*
X7669304Y-72423609D02*
X7574066Y-72471228D01*
X7574066Y-72471228D02*
X7193114Y-72471228D01*
X8716923Y-72947419D02*
X8145495Y-72947419D01*
X8431209Y-72947419D02*
X8431209Y-71947419D01*
X8431209Y-71947419D02*
X8335971Y-72090276D01*
X8335971Y-72090276D02*
X8240733Y-72185514D01*
X8240733Y-72185514D02*
X8145495Y-72233133D01*
X9335971Y-71947419D02*
X9431209Y-71947419D01*
X9431209Y-71947419D02*
X9526447Y-71995038D01*
X9526447Y-71995038D02*
X9574066Y-72042657D01*
X9574066Y-72042657D02*
X9621685Y-72137895D01*
X9621685Y-72137895D02*
X9669304Y-72328371D01*
X9669304Y-72328371D02*
X9669304Y-72566466D01*
X9669304Y-72566466D02*
X9621685Y-72756942D01*
X9621685Y-72756942D02*
X9574066Y-72852180D01*
X9574066Y-72852180D02*
X9526447Y-72899800D01*
X9526447Y-72899800D02*
X9431209Y-72947419D01*
X9431209Y-72947419D02*
X9335971Y-72947419D01*
X9335971Y-72947419D02*
X9240733Y-72899800D01*
X9240733Y-72899800D02*
X9193114Y-72852180D01*
X9193114Y-72852180D02*
X9145495Y-72756942D01*
X9145495Y-72756942D02*
X9097876Y-72566466D01*
X9097876Y-72566466D02*
X9097876Y-72328371D01*
X9097876Y-72328371D02*
X9145495Y-72137895D01*
X9145495Y-72137895D02*
X9193114Y-72042657D01*
X9193114Y-72042657D02*
X9240733Y-71995038D01*
X9240733Y-71995038D02*
X9335971Y-71947419D01*
X29244233Y-47816980D02*
X29196614Y-47864600D01*
X29196614Y-47864600D02*
X29053757Y-47912219D01*
X29053757Y-47912219D02*
X28958519Y-47912219D01*
X28958519Y-47912219D02*
X28815662Y-47864600D01*
X28815662Y-47864600D02*
X28720424Y-47769361D01*
X28720424Y-47769361D02*
X28672805Y-47674123D01*
X28672805Y-47674123D02*
X28625186Y-47483647D01*
X28625186Y-47483647D02*
X28625186Y-47340790D01*
X28625186Y-47340790D02*
X28672805Y-47150314D01*
X28672805Y-47150314D02*
X28720424Y-47055076D01*
X28720424Y-47055076D02*
X28815662Y-46959838D01*
X28815662Y-46959838D02*
X28958519Y-46912219D01*
X28958519Y-46912219D02*
X29053757Y-46912219D01*
X29053757Y-46912219D02*
X29196614Y-46959838D01*
X29196614Y-46959838D02*
X29244233Y-47007457D01*
X29815662Y-47340790D02*
X29720424Y-47293171D01*
X29720424Y-47293171D02*
X29672805Y-47245552D01*
X29672805Y-47245552D02*
X29625186Y-47150314D01*
X29625186Y-47150314D02*
X29625186Y-47102695D01*
X29625186Y-47102695D02*
X29672805Y-47007457D01*
X29672805Y-47007457D02*
X29720424Y-46959838D01*
X29720424Y-46959838D02*
X29815662Y-46912219D01*
X29815662Y-46912219D02*
X30006138Y-46912219D01*
X30006138Y-46912219D02*
X30101376Y-46959838D01*
X30101376Y-46959838D02*
X30148995Y-47007457D01*
X30148995Y-47007457D02*
X30196614Y-47102695D01*
X30196614Y-47102695D02*
X30196614Y-47150314D01*
X30196614Y-47150314D02*
X30148995Y-47245552D01*
X30148995Y-47245552D02*
X30101376Y-47293171D01*
X30101376Y-47293171D02*
X30006138Y-47340790D01*
X30006138Y-47340790D02*
X29815662Y-47340790D01*
X29815662Y-47340790D02*
X29720424Y-47388409D01*
X29720424Y-47388409D02*
X29672805Y-47436028D01*
X29672805Y-47436028D02*
X29625186Y-47531266D01*
X29625186Y-47531266D02*
X29625186Y-47721742D01*
X29625186Y-47721742D02*
X29672805Y-47816980D01*
X29672805Y-47816980D02*
X29720424Y-47864600D01*
X29720424Y-47864600D02*
X29815662Y-47912219D01*
X29815662Y-47912219D02*
X30006138Y-47912219D01*
X30006138Y-47912219D02*
X30101376Y-47864600D01*
X30101376Y-47864600D02*
X30148995Y-47816980D01*
X30148995Y-47816980D02*
X30196614Y-47721742D01*
X30196614Y-47721742D02*
X30196614Y-47531266D01*
X30196614Y-47531266D02*
X30148995Y-47436028D01*
X30148995Y-47436028D02*
X30101376Y-47388409D01*
X30101376Y-47388409D02*
X30006138Y-47340790D01*
X9231333Y-15212219D02*
X8898000Y-14736028D01*
X8659905Y-15212219D02*
X8659905Y-14212219D01*
X8659905Y-14212219D02*
X9040857Y-14212219D01*
X9040857Y-14212219D02*
X9136095Y-14259838D01*
X9136095Y-14259838D02*
X9183714Y-14307457D01*
X9183714Y-14307457D02*
X9231333Y-14402695D01*
X9231333Y-14402695D02*
X9231333Y-14545552D01*
X9231333Y-14545552D02*
X9183714Y-14640790D01*
X9183714Y-14640790D02*
X9136095Y-14688409D01*
X9136095Y-14688409D02*
X9040857Y-14736028D01*
X9040857Y-14736028D02*
X8659905Y-14736028D01*
X9612286Y-14307457D02*
X9659905Y-14259838D01*
X9659905Y-14259838D02*
X9755143Y-14212219D01*
X9755143Y-14212219D02*
X9993238Y-14212219D01*
X9993238Y-14212219D02*
X10088476Y-14259838D01*
X10088476Y-14259838D02*
X10136095Y-14307457D01*
X10136095Y-14307457D02*
X10183714Y-14402695D01*
X10183714Y-14402695D02*
X10183714Y-14497933D01*
X10183714Y-14497933D02*
X10136095Y-14640790D01*
X10136095Y-14640790D02*
X9564667Y-15212219D01*
X9564667Y-15212219D02*
X10183714Y-15212219D01*
X8037533Y-61160819D02*
X7704200Y-60684628D01*
X7466105Y-61160819D02*
X7466105Y-60160819D01*
X7466105Y-60160819D02*
X7847057Y-60160819D01*
X7847057Y-60160819D02*
X7942295Y-60208438D01*
X7942295Y-60208438D02*
X7989914Y-60256057D01*
X7989914Y-60256057D02*
X8037533Y-60351295D01*
X8037533Y-60351295D02*
X8037533Y-60494152D01*
X8037533Y-60494152D02*
X7989914Y-60589390D01*
X7989914Y-60589390D02*
X7942295Y-60637009D01*
X7942295Y-60637009D02*
X7847057Y-60684628D01*
X7847057Y-60684628D02*
X7466105Y-60684628D01*
X8942295Y-60160819D02*
X8466105Y-60160819D01*
X8466105Y-60160819D02*
X8418486Y-60637009D01*
X8418486Y-60637009D02*
X8466105Y-60589390D01*
X8466105Y-60589390D02*
X8561343Y-60541771D01*
X8561343Y-60541771D02*
X8799438Y-60541771D01*
X8799438Y-60541771D02*
X8894676Y-60589390D01*
X8894676Y-60589390D02*
X8942295Y-60637009D01*
X8942295Y-60637009D02*
X8989914Y-60732247D01*
X8989914Y-60732247D02*
X8989914Y-60970342D01*
X8989914Y-60970342D02*
X8942295Y-61065580D01*
X8942295Y-61065580D02*
X8894676Y-61113200D01*
X8894676Y-61113200D02*
X8799438Y-61160819D01*
X8799438Y-61160819D02*
X8561343Y-61160819D01*
X8561343Y-61160819D02*
X8466105Y-61113200D01*
X8466105Y-61113200D02*
X8418486Y-61065580D01*
X54849733Y-27572619D02*
X54516400Y-27096428D01*
X54278305Y-27572619D02*
X54278305Y-26572619D01*
X54278305Y-26572619D02*
X54659257Y-26572619D01*
X54659257Y-26572619D02*
X54754495Y-26620238D01*
X54754495Y-26620238D02*
X54802114Y-26667857D01*
X54802114Y-26667857D02*
X54849733Y-26763095D01*
X54849733Y-26763095D02*
X54849733Y-26905952D01*
X54849733Y-26905952D02*
X54802114Y-27001190D01*
X54802114Y-27001190D02*
X54754495Y-27048809D01*
X54754495Y-27048809D02*
X54659257Y-27096428D01*
X54659257Y-27096428D02*
X54278305Y-27096428D01*
X55183067Y-26572619D02*
X55849733Y-26572619D01*
X55849733Y-26572619D02*
X55421162Y-27572619D01*
D11*
X54563433Y-32627865D02*
X54055433Y-32627865D01*
X54309433Y-32627865D02*
X54309433Y-31738865D01*
X54309433Y-31738865D02*
X54224766Y-31865865D01*
X54224766Y-31865865D02*
X54140100Y-31950532D01*
X54140100Y-31950532D02*
X54055433Y-31992865D01*
X54944433Y-32627865D02*
X54944433Y-31738865D01*
X55029100Y-32289198D02*
X55283100Y-32627865D01*
X55283100Y-32035198D02*
X54944433Y-32373865D01*
X55791100Y-32119865D02*
X55706434Y-32077532D01*
X55706434Y-32077532D02*
X55664100Y-32035198D01*
X55664100Y-32035198D02*
X55621767Y-31950532D01*
X55621767Y-31950532D02*
X55621767Y-31908198D01*
X55621767Y-31908198D02*
X55664100Y-31823532D01*
X55664100Y-31823532D02*
X55706434Y-31781198D01*
X55706434Y-31781198D02*
X55791100Y-31738865D01*
X55791100Y-31738865D02*
X55960434Y-31738865D01*
X55960434Y-31738865D02*
X56045100Y-31781198D01*
X56045100Y-31781198D02*
X56087434Y-31823532D01*
X56087434Y-31823532D02*
X56129767Y-31908198D01*
X56129767Y-31908198D02*
X56129767Y-31950532D01*
X56129767Y-31950532D02*
X56087434Y-32035198D01*
X56087434Y-32035198D02*
X56045100Y-32077532D01*
X56045100Y-32077532D02*
X55960434Y-32119865D01*
X55960434Y-32119865D02*
X55791100Y-32119865D01*
X55791100Y-32119865D02*
X55706434Y-32162198D01*
X55706434Y-32162198D02*
X55664100Y-32204532D01*
X55664100Y-32204532D02*
X55621767Y-32289198D01*
X55621767Y-32289198D02*
X55621767Y-32458532D01*
X55621767Y-32458532D02*
X55664100Y-32543198D01*
X55664100Y-32543198D02*
X55706434Y-32585532D01*
X55706434Y-32585532D02*
X55791100Y-32627865D01*
X55791100Y-32627865D02*
X55960434Y-32627865D01*
X55960434Y-32627865D02*
X56045100Y-32585532D01*
X56045100Y-32585532D02*
X56087434Y-32543198D01*
X56087434Y-32543198D02*
X56129767Y-32458532D01*
X56129767Y-32458532D02*
X56129767Y-32289198D01*
X56129767Y-32289198D02*
X56087434Y-32204532D01*
X56087434Y-32204532D02*
X56045100Y-32162198D01*
X56045100Y-32162198D02*
X55960434Y-32119865D01*
D14*
X29246533Y-20567095D02*
X29198914Y-20614715D01*
X29198914Y-20614715D02*
X29056057Y-20662334D01*
X29056057Y-20662334D02*
X28960819Y-20662334D01*
X28960819Y-20662334D02*
X28817962Y-20614715D01*
X28817962Y-20614715D02*
X28722724Y-20519476D01*
X28722724Y-20519476D02*
X28675105Y-20424238D01*
X28675105Y-20424238D02*
X28627486Y-20233762D01*
X28627486Y-20233762D02*
X28627486Y-20090905D01*
X28627486Y-20090905D02*
X28675105Y-19900429D01*
X28675105Y-19900429D02*
X28722724Y-19805191D01*
X28722724Y-19805191D02*
X28817962Y-19709953D01*
X28817962Y-19709953D02*
X28960819Y-19662334D01*
X28960819Y-19662334D02*
X29056057Y-19662334D01*
X29056057Y-19662334D02*
X29198914Y-19709953D01*
X29198914Y-19709953D02*
X29246533Y-19757572D01*
X29579867Y-19662334D02*
X30198914Y-19662334D01*
X30198914Y-19662334D02*
X29865581Y-20043286D01*
X29865581Y-20043286D02*
X30008438Y-20043286D01*
X30008438Y-20043286D02*
X30103676Y-20090905D01*
X30103676Y-20090905D02*
X30151295Y-20138524D01*
X30151295Y-20138524D02*
X30198914Y-20233762D01*
X30198914Y-20233762D02*
X30198914Y-20471857D01*
X30198914Y-20471857D02*
X30151295Y-20567095D01*
X30151295Y-20567095D02*
X30103676Y-20614715D01*
X30103676Y-20614715D02*
X30008438Y-20662334D01*
X30008438Y-20662334D02*
X29722724Y-20662334D01*
X29722724Y-20662334D02*
X29627486Y-20614715D01*
X29627486Y-20614715D02*
X29579867Y-20567095D01*
X8367733Y-38631019D02*
X8034400Y-38154828D01*
X7796305Y-38631019D02*
X7796305Y-37631019D01*
X7796305Y-37631019D02*
X8177257Y-37631019D01*
X8177257Y-37631019D02*
X8272495Y-37678638D01*
X8272495Y-37678638D02*
X8320114Y-37726257D01*
X8320114Y-37726257D02*
X8367733Y-37821495D01*
X8367733Y-37821495D02*
X8367733Y-37964352D01*
X8367733Y-37964352D02*
X8320114Y-38059590D01*
X8320114Y-38059590D02*
X8272495Y-38107209D01*
X8272495Y-38107209D02*
X8177257Y-38154828D01*
X8177257Y-38154828D02*
X7796305Y-38154828D01*
X8701067Y-37631019D02*
X9320114Y-37631019D01*
X9320114Y-37631019D02*
X8986781Y-38011971D01*
X8986781Y-38011971D02*
X9129638Y-38011971D01*
X9129638Y-38011971D02*
X9224876Y-38059590D01*
X9224876Y-38059590D02*
X9272495Y-38107209D01*
X9272495Y-38107209D02*
X9320114Y-38202447D01*
X9320114Y-38202447D02*
X9320114Y-38440542D01*
X9320114Y-38440542D02*
X9272495Y-38535780D01*
X9272495Y-38535780D02*
X9224876Y-38583400D01*
X9224876Y-38583400D02*
X9129638Y-38631019D01*
X9129638Y-38631019D02*
X8843924Y-38631019D01*
X8843924Y-38631019D02*
X8748686Y-38583400D01*
X8748686Y-38583400D02*
X8701067Y-38535780D01*
X48880733Y-27521819D02*
X48547400Y-27045628D01*
X48309305Y-27521819D02*
X48309305Y-26521819D01*
X48309305Y-26521819D02*
X48690257Y-26521819D01*
X48690257Y-26521819D02*
X48785495Y-26569438D01*
X48785495Y-26569438D02*
X48833114Y-26617057D01*
X48833114Y-26617057D02*
X48880733Y-26712295D01*
X48880733Y-26712295D02*
X48880733Y-26855152D01*
X48880733Y-26855152D02*
X48833114Y-26950390D01*
X48833114Y-26950390D02*
X48785495Y-26998009D01*
X48785495Y-26998009D02*
X48690257Y-27045628D01*
X48690257Y-27045628D02*
X48309305Y-27045628D01*
X49452162Y-26950390D02*
X49356924Y-26902771D01*
X49356924Y-26902771D02*
X49309305Y-26855152D01*
X49309305Y-26855152D02*
X49261686Y-26759914D01*
X49261686Y-26759914D02*
X49261686Y-26712295D01*
X49261686Y-26712295D02*
X49309305Y-26617057D01*
X49309305Y-26617057D02*
X49356924Y-26569438D01*
X49356924Y-26569438D02*
X49452162Y-26521819D01*
X49452162Y-26521819D02*
X49642638Y-26521819D01*
X49642638Y-26521819D02*
X49737876Y-26569438D01*
X49737876Y-26569438D02*
X49785495Y-26617057D01*
X49785495Y-26617057D02*
X49833114Y-26712295D01*
X49833114Y-26712295D02*
X49833114Y-26759914D01*
X49833114Y-26759914D02*
X49785495Y-26855152D01*
X49785495Y-26855152D02*
X49737876Y-26902771D01*
X49737876Y-26902771D02*
X49642638Y-26950390D01*
X49642638Y-26950390D02*
X49452162Y-26950390D01*
X49452162Y-26950390D02*
X49356924Y-26998009D01*
X49356924Y-26998009D02*
X49309305Y-27045628D01*
X49309305Y-27045628D02*
X49261686Y-27140866D01*
X49261686Y-27140866D02*
X49261686Y-27331342D01*
X49261686Y-27331342D02*
X49309305Y-27426580D01*
X49309305Y-27426580D02*
X49356924Y-27474200D01*
X49356924Y-27474200D02*
X49452162Y-27521819D01*
X49452162Y-27521819D02*
X49642638Y-27521819D01*
X49642638Y-27521819D02*
X49737876Y-27474200D01*
X49737876Y-27474200D02*
X49785495Y-27426580D01*
X49785495Y-27426580D02*
X49833114Y-27331342D01*
X49833114Y-27331342D02*
X49833114Y-27140866D01*
X49833114Y-27140866D02*
X49785495Y-27045628D01*
X49785495Y-27045628D02*
X49737876Y-26998009D01*
X49737876Y-26998009D02*
X49642638Y-26950390D01*
D11*
X48044100Y-31789665D02*
X48594433Y-31789665D01*
X48594433Y-31789665D02*
X48298100Y-32128332D01*
X48298100Y-32128332D02*
X48425100Y-32128332D01*
X48425100Y-32128332D02*
X48509766Y-32170665D01*
X48509766Y-32170665D02*
X48552100Y-32212998D01*
X48552100Y-32212998D02*
X48594433Y-32297665D01*
X48594433Y-32297665D02*
X48594433Y-32509332D01*
X48594433Y-32509332D02*
X48552100Y-32593998D01*
X48552100Y-32593998D02*
X48509766Y-32636332D01*
X48509766Y-32636332D02*
X48425100Y-32678665D01*
X48425100Y-32678665D02*
X48171100Y-32678665D01*
X48171100Y-32678665D02*
X48086433Y-32636332D01*
X48086433Y-32636332D02*
X48044100Y-32593998D01*
X48890767Y-31789665D02*
X49441100Y-31789665D01*
X49441100Y-31789665D02*
X49144767Y-32128332D01*
X49144767Y-32128332D02*
X49271767Y-32128332D01*
X49271767Y-32128332D02*
X49356433Y-32170665D01*
X49356433Y-32170665D02*
X49398767Y-32212998D01*
X49398767Y-32212998D02*
X49441100Y-32297665D01*
X49441100Y-32297665D02*
X49441100Y-32509332D01*
X49441100Y-32509332D02*
X49398767Y-32593998D01*
X49398767Y-32593998D02*
X49356433Y-32636332D01*
X49356433Y-32636332D02*
X49271767Y-32678665D01*
X49271767Y-32678665D02*
X49017767Y-32678665D01*
X49017767Y-32678665D02*
X48933100Y-32636332D01*
X48933100Y-32636332D02*
X48890767Y-32593998D01*
X49822100Y-32678665D02*
X49822100Y-31789665D01*
X49906767Y-32339998D02*
X50160767Y-32678665D01*
X50160767Y-32085998D02*
X49822100Y-32424665D01*
D14*
X8240733Y-50035619D02*
X7907400Y-49559428D01*
X7669305Y-50035619D02*
X7669305Y-49035619D01*
X7669305Y-49035619D02*
X8050257Y-49035619D01*
X8050257Y-49035619D02*
X8145495Y-49083238D01*
X8145495Y-49083238D02*
X8193114Y-49130857D01*
X8193114Y-49130857D02*
X8240733Y-49226095D01*
X8240733Y-49226095D02*
X8240733Y-49368952D01*
X8240733Y-49368952D02*
X8193114Y-49464190D01*
X8193114Y-49464190D02*
X8145495Y-49511809D01*
X8145495Y-49511809D02*
X8050257Y-49559428D01*
X8050257Y-49559428D02*
X7669305Y-49559428D01*
X9097876Y-49035619D02*
X8907400Y-49035619D01*
X8907400Y-49035619D02*
X8812162Y-49083238D01*
X8812162Y-49083238D02*
X8764543Y-49130857D01*
X8764543Y-49130857D02*
X8669305Y-49273714D01*
X8669305Y-49273714D02*
X8621686Y-49464190D01*
X8621686Y-49464190D02*
X8621686Y-49845142D01*
X8621686Y-49845142D02*
X8669305Y-49940380D01*
X8669305Y-49940380D02*
X8716924Y-49988000D01*
X8716924Y-49988000D02*
X8812162Y-50035619D01*
X8812162Y-50035619D02*
X9002638Y-50035619D01*
X9002638Y-50035619D02*
X9097876Y-49988000D01*
X9097876Y-49988000D02*
X9145495Y-49940380D01*
X9145495Y-49940380D02*
X9193114Y-49845142D01*
X9193114Y-49845142D02*
X9193114Y-49607047D01*
X9193114Y-49607047D02*
X9145495Y-49511809D01*
X9145495Y-49511809D02*
X9097876Y-49464190D01*
X9097876Y-49464190D02*
X9002638Y-49416571D01*
X9002638Y-49416571D02*
X8812162Y-49416571D01*
X8812162Y-49416571D02*
X8716924Y-49464190D01*
X8716924Y-49464190D02*
X8669305Y-49511809D01*
X8669305Y-49511809D02*
X8621686Y-49607047D01*
X29297333Y-56925380D02*
X29249714Y-56973000D01*
X29249714Y-56973000D02*
X29106857Y-57020619D01*
X29106857Y-57020619D02*
X29011619Y-57020619D01*
X29011619Y-57020619D02*
X28868762Y-56973000D01*
X28868762Y-56973000D02*
X28773524Y-56877761D01*
X28773524Y-56877761D02*
X28725905Y-56782523D01*
X28725905Y-56782523D02*
X28678286Y-56592047D01*
X28678286Y-56592047D02*
X28678286Y-56449190D01*
X28678286Y-56449190D02*
X28725905Y-56258714D01*
X28725905Y-56258714D02*
X28773524Y-56163476D01*
X28773524Y-56163476D02*
X28868762Y-56068238D01*
X28868762Y-56068238D02*
X29011619Y-56020619D01*
X29011619Y-56020619D02*
X29106857Y-56020619D01*
X29106857Y-56020619D02*
X29249714Y-56068238D01*
X29249714Y-56068238D02*
X29297333Y-56115857D01*
X29630667Y-56020619D02*
X30297333Y-56020619D01*
X30297333Y-56020619D02*
X29868762Y-57020619D01*
D11*
X46909566Y-81252865D02*
X46909566Y-80363865D01*
X47290566Y-80448532D02*
X47332899Y-80406198D01*
X47332899Y-80406198D02*
X47417566Y-80363865D01*
X47417566Y-80363865D02*
X47629233Y-80363865D01*
X47629233Y-80363865D02*
X47713899Y-80406198D01*
X47713899Y-80406198D02*
X47756233Y-80448532D01*
X47756233Y-80448532D02*
X47798566Y-80533198D01*
X47798566Y-80533198D02*
X47798566Y-80617865D01*
X47798566Y-80617865D02*
X47756233Y-80744865D01*
X47756233Y-80744865D02*
X47248233Y-81252865D01*
X47248233Y-81252865D02*
X47798566Y-81252865D01*
X48687566Y-81168198D02*
X48645233Y-81210532D01*
X48645233Y-81210532D02*
X48518233Y-81252865D01*
X48518233Y-81252865D02*
X48433566Y-81252865D01*
X48433566Y-81252865D02*
X48306566Y-81210532D01*
X48306566Y-81210532D02*
X48221900Y-81125865D01*
X48221900Y-81125865D02*
X48179566Y-81041198D01*
X48179566Y-81041198D02*
X48137233Y-80871865D01*
X48137233Y-80871865D02*
X48137233Y-80744865D01*
X48137233Y-80744865D02*
X48179566Y-80575532D01*
X48179566Y-80575532D02*
X48221900Y-80490865D01*
X48221900Y-80490865D02*
X48306566Y-80406198D01*
X48306566Y-80406198D02*
X48433566Y-80363865D01*
X48433566Y-80363865D02*
X48518233Y-80363865D01*
X48518233Y-80363865D02*
X48645233Y-80406198D01*
X48645233Y-80406198D02*
X48687566Y-80448532D01*
X50211566Y-81252865D02*
X49703566Y-81252865D01*
X49957566Y-81252865D02*
X49957566Y-80363865D01*
X49957566Y-80363865D02*
X49872899Y-80490865D01*
X49872899Y-80490865D02*
X49788233Y-80575532D01*
X49788233Y-80575532D02*
X49703566Y-80617865D01*
D10*
X53237190Y-19807495D02*
X53237190Y-18791495D01*
X54301572Y-19710734D02*
X54253191Y-19759115D01*
X54253191Y-19759115D02*
X54108048Y-19807495D01*
X54108048Y-19807495D02*
X54011286Y-19807495D01*
X54011286Y-19807495D02*
X53866143Y-19759115D01*
X53866143Y-19759115D02*
X53769381Y-19662353D01*
X53769381Y-19662353D02*
X53721000Y-19565591D01*
X53721000Y-19565591D02*
X53672619Y-19372067D01*
X53672619Y-19372067D02*
X53672619Y-19226924D01*
X53672619Y-19226924D02*
X53721000Y-19033400D01*
X53721000Y-19033400D02*
X53769381Y-18936638D01*
X53769381Y-18936638D02*
X53866143Y-18839876D01*
X53866143Y-18839876D02*
X54011286Y-18791495D01*
X54011286Y-18791495D02*
X54108048Y-18791495D01*
X54108048Y-18791495D02*
X54253191Y-18839876D01*
X54253191Y-18839876D02*
X54301572Y-18888257D01*
X54688619Y-18888257D02*
X54737000Y-18839876D01*
X54737000Y-18839876D02*
X54833762Y-18791495D01*
X54833762Y-18791495D02*
X55075667Y-18791495D01*
X55075667Y-18791495D02*
X55172429Y-18839876D01*
X55172429Y-18839876D02*
X55220810Y-18888257D01*
X55220810Y-18888257D02*
X55269191Y-18985019D01*
X55269191Y-18985019D02*
X55269191Y-19081781D01*
X55269191Y-19081781D02*
X55220810Y-19226924D01*
X55220810Y-19226924D02*
X54640238Y-19807495D01*
X54640238Y-19807495D02*
X55269191Y-19807495D01*
D11*
X56211934Y-17965333D02*
X56211934Y-17541999D01*
X56211934Y-17541999D02*
X57100934Y-17541999D01*
X56211934Y-18261666D02*
X57100934Y-18261666D01*
X57100934Y-18261666D02*
X56465934Y-18558000D01*
X56465934Y-18558000D02*
X57100934Y-18854333D01*
X57100934Y-18854333D02*
X56211934Y-18854333D01*
X56804601Y-19658666D02*
X56211934Y-19658666D01*
X57143268Y-19447000D02*
X56508268Y-19235333D01*
X56508268Y-19235333D02*
X56508268Y-19785666D01*
X57100934Y-20293667D02*
X57100934Y-20378333D01*
X57100934Y-20378333D02*
X57058601Y-20463000D01*
X57058601Y-20463000D02*
X57016268Y-20505333D01*
X57016268Y-20505333D02*
X56931601Y-20547667D01*
X56931601Y-20547667D02*
X56762268Y-20590000D01*
X56762268Y-20590000D02*
X56550601Y-20590000D01*
X56550601Y-20590000D02*
X56381268Y-20547667D01*
X56381268Y-20547667D02*
X56296601Y-20505333D01*
X56296601Y-20505333D02*
X56254268Y-20463000D01*
X56254268Y-20463000D02*
X56211934Y-20378333D01*
X56211934Y-20378333D02*
X56211934Y-20293667D01*
X56211934Y-20293667D02*
X56254268Y-20209000D01*
X56254268Y-20209000D02*
X56296601Y-20166667D01*
X56296601Y-20166667D02*
X56381268Y-20124333D01*
X56381268Y-20124333D02*
X56550601Y-20082000D01*
X56550601Y-20082000D02*
X56762268Y-20082000D01*
X56762268Y-20082000D02*
X56931601Y-20124333D01*
X56931601Y-20124333D02*
X57016268Y-20166667D01*
X57016268Y-20166667D02*
X57058601Y-20209000D01*
X57058601Y-20209000D02*
X57100934Y-20293667D01*
X56804601Y-21352000D02*
X56211934Y-21352000D01*
X57143268Y-21140334D02*
X56508268Y-20928667D01*
X56508268Y-20928667D02*
X56508268Y-21479000D01*
X56211934Y-22283334D02*
X56211934Y-21775334D01*
X56211934Y-22029334D02*
X57100934Y-22029334D01*
X57100934Y-22029334D02*
X56973934Y-21944667D01*
X56973934Y-21944667D02*
X56889268Y-21860001D01*
X56889268Y-21860001D02*
X56846934Y-21775334D01*
X56550601Y-22664334D02*
X56550601Y-23341668D01*
X56465934Y-23722668D02*
X56465934Y-24146001D01*
X56211934Y-23638001D02*
X57100934Y-23934335D01*
X57100934Y-23934335D02*
X56211934Y-24230668D01*
X56211934Y-24527001D02*
X57100934Y-24527001D01*
X57100934Y-24527001D02*
X57100934Y-24738668D01*
X57100934Y-24738668D02*
X57058601Y-24865668D01*
X57058601Y-24865668D02*
X56973934Y-24950335D01*
X56973934Y-24950335D02*
X56889268Y-24992668D01*
X56889268Y-24992668D02*
X56719934Y-25035001D01*
X56719934Y-25035001D02*
X56592934Y-25035001D01*
X56592934Y-25035001D02*
X56423601Y-24992668D01*
X56423601Y-24992668D02*
X56338934Y-24950335D01*
X56338934Y-24950335D02*
X56254268Y-24865668D01*
X56254268Y-24865668D02*
X56211934Y-24738668D01*
X56211934Y-24738668D02*
X56211934Y-24527001D01*
X57100934Y-25670001D02*
X56465934Y-25670001D01*
X56465934Y-25670001D02*
X56338934Y-25627668D01*
X56338934Y-25627668D02*
X56254268Y-25543001D01*
X56254268Y-25543001D02*
X56211934Y-25416001D01*
X56211934Y-25416001D02*
X56211934Y-25331335D01*
D14*
X29246533Y-11941980D02*
X29198914Y-11989600D01*
X29198914Y-11989600D02*
X29056057Y-12037219D01*
X29056057Y-12037219D02*
X28960819Y-12037219D01*
X28960819Y-12037219D02*
X28817962Y-11989600D01*
X28817962Y-11989600D02*
X28722724Y-11894361D01*
X28722724Y-11894361D02*
X28675105Y-11799123D01*
X28675105Y-11799123D02*
X28627486Y-11608647D01*
X28627486Y-11608647D02*
X28627486Y-11465790D01*
X28627486Y-11465790D02*
X28675105Y-11275314D01*
X28675105Y-11275314D02*
X28722724Y-11180076D01*
X28722724Y-11180076D02*
X28817962Y-11084838D01*
X28817962Y-11084838D02*
X28960819Y-11037219D01*
X28960819Y-11037219D02*
X29056057Y-11037219D01*
X29056057Y-11037219D02*
X29198914Y-11084838D01*
X29198914Y-11084838D02*
X29246533Y-11132457D01*
X30198914Y-12037219D02*
X29627486Y-12037219D01*
X29913200Y-12037219D02*
X29913200Y-11037219D01*
X29913200Y-11037219D02*
X29817962Y-11180076D01*
X29817962Y-11180076D02*
X29722724Y-11275314D01*
X29722724Y-11275314D02*
X29627486Y-11322933D01*
D11*
X28494566Y-17448065D02*
X27986566Y-17448065D01*
X28240566Y-17448065D02*
X28240566Y-16559065D01*
X28240566Y-16559065D02*
X28155899Y-16686065D01*
X28155899Y-16686065D02*
X28071233Y-16770732D01*
X28071233Y-16770732D02*
X27986566Y-16813065D01*
X29044900Y-16559065D02*
X29129566Y-16559065D01*
X29129566Y-16559065D02*
X29214233Y-16601398D01*
X29214233Y-16601398D02*
X29256566Y-16643732D01*
X29256566Y-16643732D02*
X29298900Y-16728398D01*
X29298900Y-16728398D02*
X29341233Y-16897732D01*
X29341233Y-16897732D02*
X29341233Y-17109398D01*
X29341233Y-17109398D02*
X29298900Y-17278732D01*
X29298900Y-17278732D02*
X29256566Y-17363398D01*
X29256566Y-17363398D02*
X29214233Y-17405732D01*
X29214233Y-17405732D02*
X29129566Y-17448065D01*
X29129566Y-17448065D02*
X29044900Y-17448065D01*
X29044900Y-17448065D02*
X28960233Y-17405732D01*
X28960233Y-17405732D02*
X28917900Y-17363398D01*
X28917900Y-17363398D02*
X28875566Y-17278732D01*
X28875566Y-17278732D02*
X28833233Y-17109398D01*
X28833233Y-17109398D02*
X28833233Y-16897732D01*
X28833233Y-16897732D02*
X28875566Y-16728398D01*
X28875566Y-16728398D02*
X28917900Y-16643732D01*
X28917900Y-16643732D02*
X28960233Y-16601398D01*
X28960233Y-16601398D02*
X29044900Y-16559065D01*
X29891567Y-16559065D02*
X29976233Y-16559065D01*
X29976233Y-16559065D02*
X30060900Y-16601398D01*
X30060900Y-16601398D02*
X30103233Y-16643732D01*
X30103233Y-16643732D02*
X30145567Y-16728398D01*
X30145567Y-16728398D02*
X30187900Y-16897732D01*
X30187900Y-16897732D02*
X30187900Y-17109398D01*
X30187900Y-17109398D02*
X30145567Y-17278732D01*
X30145567Y-17278732D02*
X30103233Y-17363398D01*
X30103233Y-17363398D02*
X30060900Y-17405732D01*
X30060900Y-17405732D02*
X29976233Y-17448065D01*
X29976233Y-17448065D02*
X29891567Y-17448065D01*
X29891567Y-17448065D02*
X29806900Y-17405732D01*
X29806900Y-17405732D02*
X29764567Y-17363398D01*
X29764567Y-17363398D02*
X29722233Y-17278732D01*
X29722233Y-17278732D02*
X29679900Y-17109398D01*
X29679900Y-17109398D02*
X29679900Y-16897732D01*
X29679900Y-16897732D02*
X29722233Y-16728398D01*
X29722233Y-16728398D02*
X29764567Y-16643732D01*
X29764567Y-16643732D02*
X29806900Y-16601398D01*
X29806900Y-16601398D02*
X29891567Y-16559065D01*
X30568900Y-16855398D02*
X30568900Y-17448065D01*
X30568900Y-16940065D02*
X30611234Y-16897732D01*
X30611234Y-16897732D02*
X30695900Y-16855398D01*
X30695900Y-16855398D02*
X30822900Y-16855398D01*
X30822900Y-16855398D02*
X30907567Y-16897732D01*
X30907567Y-16897732D02*
X30949900Y-16982398D01*
X30949900Y-16982398D02*
X30949900Y-17448065D01*
D14*
X23858733Y-3153580D02*
X23811114Y-3201200D01*
X23811114Y-3201200D02*
X23668257Y-3248819D01*
X23668257Y-3248819D02*
X23573019Y-3248819D01*
X23573019Y-3248819D02*
X23430162Y-3201200D01*
X23430162Y-3201200D02*
X23334924Y-3105961D01*
X23334924Y-3105961D02*
X23287305Y-3010723D01*
X23287305Y-3010723D02*
X23239686Y-2820247D01*
X23239686Y-2820247D02*
X23239686Y-2677390D01*
X23239686Y-2677390D02*
X23287305Y-2486914D01*
X23287305Y-2486914D02*
X23334924Y-2391676D01*
X23334924Y-2391676D02*
X23430162Y-2296438D01*
X23430162Y-2296438D02*
X23573019Y-2248819D01*
X23573019Y-2248819D02*
X23668257Y-2248819D01*
X23668257Y-2248819D02*
X23811114Y-2296438D01*
X23811114Y-2296438D02*
X23858733Y-2344057D01*
X24239686Y-2344057D02*
X24287305Y-2296438D01*
X24287305Y-2296438D02*
X24382543Y-2248819D01*
X24382543Y-2248819D02*
X24620638Y-2248819D01*
X24620638Y-2248819D02*
X24715876Y-2296438D01*
X24715876Y-2296438D02*
X24763495Y-2344057D01*
X24763495Y-2344057D02*
X24811114Y-2439295D01*
X24811114Y-2439295D02*
X24811114Y-2534533D01*
X24811114Y-2534533D02*
X24763495Y-2677390D01*
X24763495Y-2677390D02*
X24192067Y-3248819D01*
X24192067Y-3248819D02*
X24811114Y-3248819D01*
D11*
X26133600Y-5730711D02*
X25698171Y-5730711D01*
X25915886Y-5730711D02*
X25915886Y-4968711D01*
X25915886Y-4968711D02*
X25843314Y-5077568D01*
X25843314Y-5077568D02*
X25770743Y-5150140D01*
X25770743Y-5150140D02*
X25698171Y-5186426D01*
X26786743Y-5222711D02*
X26786743Y-5730711D01*
X26460171Y-5222711D02*
X26460171Y-5621854D01*
X26460171Y-5621854D02*
X26496457Y-5694426D01*
X26496457Y-5694426D02*
X26569028Y-5730711D01*
X26569028Y-5730711D02*
X26677885Y-5730711D01*
X26677885Y-5730711D02*
X26750457Y-5694426D01*
X26750457Y-5694426D02*
X26786743Y-5658140D01*
D14*
X29246533Y-38738980D02*
X29198914Y-38786600D01*
X29198914Y-38786600D02*
X29056057Y-38834219D01*
X29056057Y-38834219D02*
X28960819Y-38834219D01*
X28960819Y-38834219D02*
X28817962Y-38786600D01*
X28817962Y-38786600D02*
X28722724Y-38691361D01*
X28722724Y-38691361D02*
X28675105Y-38596123D01*
X28675105Y-38596123D02*
X28627486Y-38405647D01*
X28627486Y-38405647D02*
X28627486Y-38262790D01*
X28627486Y-38262790D02*
X28675105Y-38072314D01*
X28675105Y-38072314D02*
X28722724Y-37977076D01*
X28722724Y-37977076D02*
X28817962Y-37881838D01*
X28817962Y-37881838D02*
X28960819Y-37834219D01*
X28960819Y-37834219D02*
X29056057Y-37834219D01*
X29056057Y-37834219D02*
X29198914Y-37881838D01*
X29198914Y-37881838D02*
X29246533Y-37929457D01*
X30103676Y-38167552D02*
X30103676Y-38834219D01*
X29865581Y-37786600D02*
X29627486Y-38500885D01*
X29627486Y-38500885D02*
X30246533Y-38500885D01*
X5757942Y-89634219D02*
X5424609Y-89158028D01*
X5186514Y-89634219D02*
X5186514Y-88634219D01*
X5186514Y-88634219D02*
X5567466Y-88634219D01*
X5567466Y-88634219D02*
X5662704Y-88681838D01*
X5662704Y-88681838D02*
X5710323Y-88729457D01*
X5710323Y-88729457D02*
X5757942Y-88824695D01*
X5757942Y-88824695D02*
X5757942Y-88967552D01*
X5757942Y-88967552D02*
X5710323Y-89062790D01*
X5710323Y-89062790D02*
X5662704Y-89110409D01*
X5662704Y-89110409D02*
X5567466Y-89158028D01*
X5567466Y-89158028D02*
X5186514Y-89158028D01*
X6710323Y-89634219D02*
X6138895Y-89634219D01*
X6424609Y-89634219D02*
X6424609Y-88634219D01*
X6424609Y-88634219D02*
X6329371Y-88777076D01*
X6329371Y-88777076D02*
X6234133Y-88872314D01*
X6234133Y-88872314D02*
X6138895Y-88919933D01*
X7662704Y-89634219D02*
X7091276Y-89634219D01*
X7376990Y-89634219D02*
X7376990Y-88634219D01*
X7376990Y-88634219D02*
X7281752Y-88777076D01*
X7281752Y-88777076D02*
X7186514Y-88872314D01*
X7186514Y-88872314D02*
X7091276Y-88919933D01*
D11*
X5947833Y-91108065D02*
X5439833Y-91108065D01*
X5693833Y-91108065D02*
X5693833Y-90219065D01*
X5693833Y-90219065D02*
X5609166Y-90346065D01*
X5609166Y-90346065D02*
X5524500Y-90430732D01*
X5524500Y-90430732D02*
X5439833Y-90473065D01*
X6498167Y-90219065D02*
X6582833Y-90219065D01*
X6582833Y-90219065D02*
X6667500Y-90261398D01*
X6667500Y-90261398D02*
X6709833Y-90303732D01*
X6709833Y-90303732D02*
X6752167Y-90388398D01*
X6752167Y-90388398D02*
X6794500Y-90557732D01*
X6794500Y-90557732D02*
X6794500Y-90769398D01*
X6794500Y-90769398D02*
X6752167Y-90938732D01*
X6752167Y-90938732D02*
X6709833Y-91023398D01*
X6709833Y-91023398D02*
X6667500Y-91065732D01*
X6667500Y-91065732D02*
X6582833Y-91108065D01*
X6582833Y-91108065D02*
X6498167Y-91108065D01*
X6498167Y-91108065D02*
X6413500Y-91065732D01*
X6413500Y-91065732D02*
X6371167Y-91023398D01*
X6371167Y-91023398D02*
X6328833Y-90938732D01*
X6328833Y-90938732D02*
X6286500Y-90769398D01*
X6286500Y-90769398D02*
X6286500Y-90557732D01*
X6286500Y-90557732D02*
X6328833Y-90388398D01*
X6328833Y-90388398D02*
X6371167Y-90303732D01*
X6371167Y-90303732D02*
X6413500Y-90261398D01*
X6413500Y-90261398D02*
X6498167Y-90219065D01*
X7175500Y-91108065D02*
X7175500Y-90219065D01*
X7260167Y-90769398D02*
X7514167Y-91108065D01*
X7514167Y-90515398D02*
X7175500Y-90854065D01*
D14*
X13422333Y-15161419D02*
X13089000Y-14685228D01*
X12850905Y-15161419D02*
X12850905Y-14161419D01*
X12850905Y-14161419D02*
X13231857Y-14161419D01*
X13231857Y-14161419D02*
X13327095Y-14209038D01*
X13327095Y-14209038D02*
X13374714Y-14256657D01*
X13374714Y-14256657D02*
X13422333Y-14351895D01*
X13422333Y-14351895D02*
X13422333Y-14494752D01*
X13422333Y-14494752D02*
X13374714Y-14589990D01*
X13374714Y-14589990D02*
X13327095Y-14637609D01*
X13327095Y-14637609D02*
X13231857Y-14685228D01*
X13231857Y-14685228D02*
X12850905Y-14685228D01*
X14374714Y-15161419D02*
X13803286Y-15161419D01*
X14089000Y-15161419D02*
X14089000Y-14161419D01*
X14089000Y-14161419D02*
X13993762Y-14304276D01*
X13993762Y-14304276D02*
X13898524Y-14399514D01*
X13898524Y-14399514D02*
X13803286Y-14447133D01*
X15609961Y-17549019D02*
X15038533Y-17549019D01*
X15324247Y-17549019D02*
X15324247Y-16549019D01*
X15324247Y-16549019D02*
X15229009Y-16691876D01*
X15229009Y-16691876D02*
X15133771Y-16787114D01*
X15133771Y-16787114D02*
X15038533Y-16834733D01*
X16229009Y-16549019D02*
X16324247Y-16549019D01*
X16324247Y-16549019D02*
X16419485Y-16596638D01*
X16419485Y-16596638D02*
X16467104Y-16644257D01*
X16467104Y-16644257D02*
X16514723Y-16739495D01*
X16514723Y-16739495D02*
X16562342Y-16929971D01*
X16562342Y-16929971D02*
X16562342Y-17168066D01*
X16562342Y-17168066D02*
X16514723Y-17358542D01*
X16514723Y-17358542D02*
X16467104Y-17453780D01*
X16467104Y-17453780D02*
X16419485Y-17501400D01*
X16419485Y-17501400D02*
X16324247Y-17549019D01*
X16324247Y-17549019D02*
X16229009Y-17549019D01*
X16229009Y-17549019D02*
X16133771Y-17501400D01*
X16133771Y-17501400D02*
X16086152Y-17453780D01*
X16086152Y-17453780D02*
X16038533Y-17358542D01*
X16038533Y-17358542D02*
X15990914Y-17168066D01*
X15990914Y-17168066D02*
X15990914Y-16929971D01*
X15990914Y-16929971D02*
X16038533Y-16739495D01*
X16038533Y-16739495D02*
X16086152Y-16644257D01*
X16086152Y-16644257D02*
X16133771Y-16596638D01*
X16133771Y-16596638D02*
X16229009Y-16549019D01*
X16990914Y-17549019D02*
X16990914Y-16549019D01*
X17086152Y-17168066D02*
X17371866Y-17549019D01*
X17371866Y-16882352D02*
X16990914Y-17263304D01*
X49871333Y-56772980D02*
X49823714Y-56820600D01*
X49823714Y-56820600D02*
X49680857Y-56868219D01*
X49680857Y-56868219D02*
X49585619Y-56868219D01*
X49585619Y-56868219D02*
X49442762Y-56820600D01*
X49442762Y-56820600D02*
X49347524Y-56725361D01*
X49347524Y-56725361D02*
X49299905Y-56630123D01*
X49299905Y-56630123D02*
X49252286Y-56439647D01*
X49252286Y-56439647D02*
X49252286Y-56296790D01*
X49252286Y-56296790D02*
X49299905Y-56106314D01*
X49299905Y-56106314D02*
X49347524Y-56011076D01*
X49347524Y-56011076D02*
X49442762Y-55915838D01*
X49442762Y-55915838D02*
X49585619Y-55868219D01*
X49585619Y-55868219D02*
X49680857Y-55868219D01*
X49680857Y-55868219D02*
X49823714Y-55915838D01*
X49823714Y-55915838D02*
X49871333Y-55963457D01*
X50728476Y-55868219D02*
X50538000Y-55868219D01*
X50538000Y-55868219D02*
X50442762Y-55915838D01*
X50442762Y-55915838D02*
X50395143Y-55963457D01*
X50395143Y-55963457D02*
X50299905Y-56106314D01*
X50299905Y-56106314D02*
X50252286Y-56296790D01*
X50252286Y-56296790D02*
X50252286Y-56677742D01*
X50252286Y-56677742D02*
X50299905Y-56772980D01*
X50299905Y-56772980D02*
X50347524Y-56820600D01*
X50347524Y-56820600D02*
X50442762Y-56868219D01*
X50442762Y-56868219D02*
X50633238Y-56868219D01*
X50633238Y-56868219D02*
X50728476Y-56820600D01*
X50728476Y-56820600D02*
X50776095Y-56772980D01*
X50776095Y-56772980D02*
X50823714Y-56677742D01*
X50823714Y-56677742D02*
X50823714Y-56439647D01*
X50823714Y-56439647D02*
X50776095Y-56344409D01*
X50776095Y-56344409D02*
X50728476Y-56296790D01*
X50728476Y-56296790D02*
X50633238Y-56249171D01*
X50633238Y-56249171D02*
X50442762Y-56249171D01*
X50442762Y-56249171D02*
X50347524Y-56296790D01*
X50347524Y-56296790D02*
X50299905Y-56344409D01*
X50299905Y-56344409D02*
X50252286Y-56439647D01*
X29373533Y-29812696D02*
X29325914Y-29860316D01*
X29325914Y-29860316D02*
X29183057Y-29907935D01*
X29183057Y-29907935D02*
X29087819Y-29907935D01*
X29087819Y-29907935D02*
X28944962Y-29860316D01*
X28944962Y-29860316D02*
X28849724Y-29765077D01*
X28849724Y-29765077D02*
X28802105Y-29669839D01*
X28802105Y-29669839D02*
X28754486Y-29479363D01*
X28754486Y-29479363D02*
X28754486Y-29336506D01*
X28754486Y-29336506D02*
X28802105Y-29146030D01*
X28802105Y-29146030D02*
X28849724Y-29050792D01*
X28849724Y-29050792D02*
X28944962Y-28955554D01*
X28944962Y-28955554D02*
X29087819Y-28907935D01*
X29087819Y-28907935D02*
X29183057Y-28907935D01*
X29183057Y-28907935D02*
X29325914Y-28955554D01*
X29325914Y-28955554D02*
X29373533Y-29003173D01*
X30278295Y-28907935D02*
X29802105Y-28907935D01*
X29802105Y-28907935D02*
X29754486Y-29384125D01*
X29754486Y-29384125D02*
X29802105Y-29336506D01*
X29802105Y-29336506D02*
X29897343Y-29288887D01*
X29897343Y-29288887D02*
X30135438Y-29288887D01*
X30135438Y-29288887D02*
X30230676Y-29336506D01*
X30230676Y-29336506D02*
X30278295Y-29384125D01*
X30278295Y-29384125D02*
X30325914Y-29479363D01*
X30325914Y-29479363D02*
X30325914Y-29717458D01*
X30325914Y-29717458D02*
X30278295Y-29812696D01*
X30278295Y-29812696D02*
X30230676Y-29860316D01*
X30230676Y-29860316D02*
X30135438Y-29907935D01*
X30135438Y-29907935D02*
X29897343Y-29907935D01*
X29897343Y-29907935D02*
X29802105Y-29860316D01*
X29802105Y-29860316D02*
X29754486Y-29812696D01*
D11*
X28367566Y-35445781D02*
X27859566Y-35445781D01*
X28113566Y-35445781D02*
X28113566Y-34556781D01*
X28113566Y-34556781D02*
X28028899Y-34683781D01*
X28028899Y-34683781D02*
X27944233Y-34768448D01*
X27944233Y-34768448D02*
X27859566Y-34810781D01*
X28917900Y-34556781D02*
X29002566Y-34556781D01*
X29002566Y-34556781D02*
X29087233Y-34599114D01*
X29087233Y-34599114D02*
X29129566Y-34641448D01*
X29129566Y-34641448D02*
X29171900Y-34726114D01*
X29171900Y-34726114D02*
X29214233Y-34895448D01*
X29214233Y-34895448D02*
X29214233Y-35107114D01*
X29214233Y-35107114D02*
X29171900Y-35276448D01*
X29171900Y-35276448D02*
X29129566Y-35361114D01*
X29129566Y-35361114D02*
X29087233Y-35403448D01*
X29087233Y-35403448D02*
X29002566Y-35445781D01*
X29002566Y-35445781D02*
X28917900Y-35445781D01*
X28917900Y-35445781D02*
X28833233Y-35403448D01*
X28833233Y-35403448D02*
X28790900Y-35361114D01*
X28790900Y-35361114D02*
X28748566Y-35276448D01*
X28748566Y-35276448D02*
X28706233Y-35107114D01*
X28706233Y-35107114D02*
X28706233Y-34895448D01*
X28706233Y-34895448D02*
X28748566Y-34726114D01*
X28748566Y-34726114D02*
X28790900Y-34641448D01*
X28790900Y-34641448D02*
X28833233Y-34599114D01*
X28833233Y-34599114D02*
X28917900Y-34556781D01*
X29764567Y-34556781D02*
X29849233Y-34556781D01*
X29849233Y-34556781D02*
X29933900Y-34599114D01*
X29933900Y-34599114D02*
X29976233Y-34641448D01*
X29976233Y-34641448D02*
X30018567Y-34726114D01*
X30018567Y-34726114D02*
X30060900Y-34895448D01*
X30060900Y-34895448D02*
X30060900Y-35107114D01*
X30060900Y-35107114D02*
X30018567Y-35276448D01*
X30018567Y-35276448D02*
X29976233Y-35361114D01*
X29976233Y-35361114D02*
X29933900Y-35403448D01*
X29933900Y-35403448D02*
X29849233Y-35445781D01*
X29849233Y-35445781D02*
X29764567Y-35445781D01*
X29764567Y-35445781D02*
X29679900Y-35403448D01*
X29679900Y-35403448D02*
X29637567Y-35361114D01*
X29637567Y-35361114D02*
X29595233Y-35276448D01*
X29595233Y-35276448D02*
X29552900Y-35107114D01*
X29552900Y-35107114D02*
X29552900Y-34895448D01*
X29552900Y-34895448D02*
X29595233Y-34726114D01*
X29595233Y-34726114D02*
X29637567Y-34641448D01*
X29637567Y-34641448D02*
X29679900Y-34599114D01*
X29679900Y-34599114D02*
X29764567Y-34556781D01*
X30441900Y-34853114D02*
X30441900Y-35445781D01*
X30441900Y-34937781D02*
X30484234Y-34895448D01*
X30484234Y-34895448D02*
X30568900Y-34853114D01*
X30568900Y-34853114D02*
X30695900Y-34853114D01*
X30695900Y-34853114D02*
X30780567Y-34895448D01*
X30780567Y-34895448D02*
X30822900Y-34980114D01*
X30822900Y-34980114D02*
X30822900Y-35445781D01*
D14*
X28821142Y-76153180D02*
X28773523Y-76200800D01*
X28773523Y-76200800D02*
X28630666Y-76248419D01*
X28630666Y-76248419D02*
X28535428Y-76248419D01*
X28535428Y-76248419D02*
X28392571Y-76200800D01*
X28392571Y-76200800D02*
X28297333Y-76105561D01*
X28297333Y-76105561D02*
X28249714Y-76010323D01*
X28249714Y-76010323D02*
X28202095Y-75819847D01*
X28202095Y-75819847D02*
X28202095Y-75676990D01*
X28202095Y-75676990D02*
X28249714Y-75486514D01*
X28249714Y-75486514D02*
X28297333Y-75391276D01*
X28297333Y-75391276D02*
X28392571Y-75296038D01*
X28392571Y-75296038D02*
X28535428Y-75248419D01*
X28535428Y-75248419D02*
X28630666Y-75248419D01*
X28630666Y-75248419D02*
X28773523Y-75296038D01*
X28773523Y-75296038D02*
X28821142Y-75343657D01*
X29773523Y-76248419D02*
X29202095Y-76248419D01*
X29487809Y-76248419D02*
X29487809Y-75248419D01*
X29487809Y-75248419D02*
X29392571Y-75391276D01*
X29392571Y-75391276D02*
X29297333Y-75486514D01*
X29297333Y-75486514D02*
X29202095Y-75534133D01*
X30154476Y-75343657D02*
X30202095Y-75296038D01*
X30202095Y-75296038D02*
X30297333Y-75248419D01*
X30297333Y-75248419D02*
X30535428Y-75248419D01*
X30535428Y-75248419D02*
X30630666Y-75296038D01*
X30630666Y-75296038D02*
X30678285Y-75343657D01*
X30678285Y-75343657D02*
X30725904Y-75438895D01*
X30725904Y-75438895D02*
X30725904Y-75534133D01*
X30725904Y-75534133D02*
X30678285Y-75676990D01*
X30678285Y-75676990D02*
X30106857Y-76248419D01*
X30106857Y-76248419D02*
X30725904Y-76248419D01*
D11*
X28518366Y-81395065D02*
X28010366Y-81395065D01*
X28264366Y-81395065D02*
X28264366Y-80506065D01*
X28264366Y-80506065D02*
X28179699Y-80633065D01*
X28179699Y-80633065D02*
X28095033Y-80717732D01*
X28095033Y-80717732D02*
X28010366Y-80760065D01*
X29068700Y-80506065D02*
X29153366Y-80506065D01*
X29153366Y-80506065D02*
X29238033Y-80548398D01*
X29238033Y-80548398D02*
X29280366Y-80590732D01*
X29280366Y-80590732D02*
X29322700Y-80675398D01*
X29322700Y-80675398D02*
X29365033Y-80844732D01*
X29365033Y-80844732D02*
X29365033Y-81056398D01*
X29365033Y-81056398D02*
X29322700Y-81225732D01*
X29322700Y-81225732D02*
X29280366Y-81310398D01*
X29280366Y-81310398D02*
X29238033Y-81352732D01*
X29238033Y-81352732D02*
X29153366Y-81395065D01*
X29153366Y-81395065D02*
X29068700Y-81395065D01*
X29068700Y-81395065D02*
X28984033Y-81352732D01*
X28984033Y-81352732D02*
X28941700Y-81310398D01*
X28941700Y-81310398D02*
X28899366Y-81225732D01*
X28899366Y-81225732D02*
X28857033Y-81056398D01*
X28857033Y-81056398D02*
X28857033Y-80844732D01*
X28857033Y-80844732D02*
X28899366Y-80675398D01*
X28899366Y-80675398D02*
X28941700Y-80590732D01*
X28941700Y-80590732D02*
X28984033Y-80548398D01*
X28984033Y-80548398D02*
X29068700Y-80506065D01*
X29915367Y-80506065D02*
X30000033Y-80506065D01*
X30000033Y-80506065D02*
X30084700Y-80548398D01*
X30084700Y-80548398D02*
X30127033Y-80590732D01*
X30127033Y-80590732D02*
X30169367Y-80675398D01*
X30169367Y-80675398D02*
X30211700Y-80844732D01*
X30211700Y-80844732D02*
X30211700Y-81056398D01*
X30211700Y-81056398D02*
X30169367Y-81225732D01*
X30169367Y-81225732D02*
X30127033Y-81310398D01*
X30127033Y-81310398D02*
X30084700Y-81352732D01*
X30084700Y-81352732D02*
X30000033Y-81395065D01*
X30000033Y-81395065D02*
X29915367Y-81395065D01*
X29915367Y-81395065D02*
X29830700Y-81352732D01*
X29830700Y-81352732D02*
X29788367Y-81310398D01*
X29788367Y-81310398D02*
X29746033Y-81225732D01*
X29746033Y-81225732D02*
X29703700Y-81056398D01*
X29703700Y-81056398D02*
X29703700Y-80844732D01*
X29703700Y-80844732D02*
X29746033Y-80675398D01*
X29746033Y-80675398D02*
X29788367Y-80590732D01*
X29788367Y-80590732D02*
X29830700Y-80548398D01*
X29830700Y-80548398D02*
X29915367Y-80506065D01*
X30592700Y-80802398D02*
X30592700Y-81395065D01*
X30592700Y-80887065D02*
X30635034Y-80844732D01*
X30635034Y-80844732D02*
X30719700Y-80802398D01*
X30719700Y-80802398D02*
X30846700Y-80802398D01*
X30846700Y-80802398D02*
X30931367Y-80844732D01*
X30931367Y-80844732D02*
X30973700Y-80929398D01*
X30973700Y-80929398D02*
X30973700Y-81395065D01*
D14*
X24376142Y-83646180D02*
X24328523Y-83693800D01*
X24328523Y-83693800D02*
X24185666Y-83741419D01*
X24185666Y-83741419D02*
X24090428Y-83741419D01*
X24090428Y-83741419D02*
X23947571Y-83693800D01*
X23947571Y-83693800D02*
X23852333Y-83598561D01*
X23852333Y-83598561D02*
X23804714Y-83503323D01*
X23804714Y-83503323D02*
X23757095Y-83312847D01*
X23757095Y-83312847D02*
X23757095Y-83169990D01*
X23757095Y-83169990D02*
X23804714Y-82979514D01*
X23804714Y-82979514D02*
X23852333Y-82884276D01*
X23852333Y-82884276D02*
X23947571Y-82789038D01*
X23947571Y-82789038D02*
X24090428Y-82741419D01*
X24090428Y-82741419D02*
X24185666Y-82741419D01*
X24185666Y-82741419D02*
X24328523Y-82789038D01*
X24328523Y-82789038D02*
X24376142Y-82836657D01*
X25328523Y-83741419D02*
X24757095Y-83741419D01*
X25042809Y-83741419D02*
X25042809Y-82741419D01*
X25042809Y-82741419D02*
X24947571Y-82884276D01*
X24947571Y-82884276D02*
X24852333Y-82979514D01*
X24852333Y-82979514D02*
X24757095Y-83027133D01*
X25947571Y-82741419D02*
X26042809Y-82741419D01*
X26042809Y-82741419D02*
X26138047Y-82789038D01*
X26138047Y-82789038D02*
X26185666Y-82836657D01*
X26185666Y-82836657D02*
X26233285Y-82931895D01*
X26233285Y-82931895D02*
X26280904Y-83122371D01*
X26280904Y-83122371D02*
X26280904Y-83360466D01*
X26280904Y-83360466D02*
X26233285Y-83550942D01*
X26233285Y-83550942D02*
X26185666Y-83646180D01*
X26185666Y-83646180D02*
X26138047Y-83693800D01*
X26138047Y-83693800D02*
X26042809Y-83741419D01*
X26042809Y-83741419D02*
X25947571Y-83741419D01*
X25947571Y-83741419D02*
X25852333Y-83693800D01*
X25852333Y-83693800D02*
X25804714Y-83646180D01*
X25804714Y-83646180D02*
X25757095Y-83550942D01*
X25757095Y-83550942D02*
X25709476Y-83360466D01*
X25709476Y-83360466D02*
X25709476Y-83122371D01*
X25709476Y-83122371D02*
X25757095Y-82931895D01*
X25757095Y-82931895D02*
X25804714Y-82836657D01*
X25804714Y-82836657D02*
X25852333Y-82789038D01*
X25852333Y-82789038D02*
X25947571Y-82741419D01*
D11*
X24845433Y-86993265D02*
X24337433Y-86993265D01*
X24591433Y-86993265D02*
X24591433Y-86104265D01*
X24591433Y-86104265D02*
X24506766Y-86231265D01*
X24506766Y-86231265D02*
X24422100Y-86315932D01*
X24422100Y-86315932D02*
X24337433Y-86358265D01*
X25607433Y-86400598D02*
X25607433Y-86993265D01*
X25226433Y-86400598D02*
X25226433Y-86866265D01*
X25226433Y-86866265D02*
X25268767Y-86950932D01*
X25268767Y-86950932D02*
X25353433Y-86993265D01*
X25353433Y-86993265D02*
X25480433Y-86993265D01*
X25480433Y-86993265D02*
X25565100Y-86950932D01*
X25565100Y-86950932D02*
X25607433Y-86908598D01*
D14*
X8367733Y-27150219D02*
X8034400Y-26674028D01*
X7796305Y-27150219D02*
X7796305Y-26150219D01*
X7796305Y-26150219D02*
X8177257Y-26150219D01*
X8177257Y-26150219D02*
X8272495Y-26197838D01*
X8272495Y-26197838D02*
X8320114Y-26245457D01*
X8320114Y-26245457D02*
X8367733Y-26340695D01*
X8367733Y-26340695D02*
X8367733Y-26483552D01*
X8367733Y-26483552D02*
X8320114Y-26578790D01*
X8320114Y-26578790D02*
X8272495Y-26626409D01*
X8272495Y-26626409D02*
X8177257Y-26674028D01*
X8177257Y-26674028D02*
X7796305Y-26674028D01*
X9224876Y-26483552D02*
X9224876Y-27150219D01*
X8986781Y-26102600D02*
X8748686Y-26816885D01*
X8748686Y-26816885D02*
X9367733Y-26816885D01*
D15*
X39216390Y-59642774D02*
X39216390Y-58626774D01*
X40280772Y-59546013D02*
X40232391Y-59594394D01*
X40232391Y-59594394D02*
X40087248Y-59642774D01*
X40087248Y-59642774D02*
X39990486Y-59642774D01*
X39990486Y-59642774D02*
X39845343Y-59594394D01*
X39845343Y-59594394D02*
X39748581Y-59497632D01*
X39748581Y-59497632D02*
X39700200Y-59400870D01*
X39700200Y-59400870D02*
X39651819Y-59207346D01*
X39651819Y-59207346D02*
X39651819Y-59062203D01*
X39651819Y-59062203D02*
X39700200Y-58868679D01*
X39700200Y-58868679D02*
X39748581Y-58771917D01*
X39748581Y-58771917D02*
X39845343Y-58675155D01*
X39845343Y-58675155D02*
X39990486Y-58626774D01*
X39990486Y-58626774D02*
X40087248Y-58626774D01*
X40087248Y-58626774D02*
X40232391Y-58675155D01*
X40232391Y-58675155D02*
X40280772Y-58723536D01*
X41248391Y-59642774D02*
X40667819Y-59642774D01*
X40958105Y-59642774D02*
X40958105Y-58626774D01*
X40958105Y-58626774D02*
X40861343Y-58771917D01*
X40861343Y-58771917D02*
X40764581Y-58868679D01*
X40764581Y-58868679D02*
X40667819Y-58917060D01*
D11*
X39945732Y-71905665D02*
X39945732Y-71016665D01*
X39945732Y-71016665D02*
X40242066Y-71651665D01*
X40242066Y-71651665D02*
X40538399Y-71016665D01*
X40538399Y-71016665D02*
X40538399Y-71905665D01*
X41469732Y-71820998D02*
X41427399Y-71863332D01*
X41427399Y-71863332D02*
X41300399Y-71905665D01*
X41300399Y-71905665D02*
X41215732Y-71905665D01*
X41215732Y-71905665D02*
X41088732Y-71863332D01*
X41088732Y-71863332D02*
X41004066Y-71778665D01*
X41004066Y-71778665D02*
X40961732Y-71693998D01*
X40961732Y-71693998D02*
X40919399Y-71524665D01*
X40919399Y-71524665D02*
X40919399Y-71397665D01*
X40919399Y-71397665D02*
X40961732Y-71228332D01*
X40961732Y-71228332D02*
X41004066Y-71143665D01*
X41004066Y-71143665D02*
X41088732Y-71058998D01*
X41088732Y-71058998D02*
X41215732Y-71016665D01*
X41215732Y-71016665D02*
X41300399Y-71016665D01*
X41300399Y-71016665D02*
X41427399Y-71058998D01*
X41427399Y-71058998D02*
X41469732Y-71101332D01*
X41850732Y-71905665D02*
X41850732Y-71016665D01*
X41850732Y-71016665D02*
X42189399Y-71016665D01*
X42189399Y-71016665D02*
X42274066Y-71058998D01*
X42274066Y-71058998D02*
X42316399Y-71101332D01*
X42316399Y-71101332D02*
X42358732Y-71185998D01*
X42358732Y-71185998D02*
X42358732Y-71312998D01*
X42358732Y-71312998D02*
X42316399Y-71397665D01*
X42316399Y-71397665D02*
X42274066Y-71439998D01*
X42274066Y-71439998D02*
X42189399Y-71482332D01*
X42189399Y-71482332D02*
X41850732Y-71482332D01*
X42655066Y-71016665D02*
X43205399Y-71016665D01*
X43205399Y-71016665D02*
X42909066Y-71355332D01*
X42909066Y-71355332D02*
X43036066Y-71355332D01*
X43036066Y-71355332D02*
X43120732Y-71397665D01*
X43120732Y-71397665D02*
X43163066Y-71439998D01*
X43163066Y-71439998D02*
X43205399Y-71524665D01*
X43205399Y-71524665D02*
X43205399Y-71736332D01*
X43205399Y-71736332D02*
X43163066Y-71820998D01*
X43163066Y-71820998D02*
X43120732Y-71863332D01*
X43120732Y-71863332D02*
X43036066Y-71905665D01*
X43036066Y-71905665D02*
X42782066Y-71905665D01*
X42782066Y-71905665D02*
X42697399Y-71863332D01*
X42697399Y-71863332D02*
X42655066Y-71820998D01*
X43755733Y-71016665D02*
X43840399Y-71016665D01*
X43840399Y-71016665D02*
X43925066Y-71058998D01*
X43925066Y-71058998D02*
X43967399Y-71101332D01*
X43967399Y-71101332D02*
X44009733Y-71185998D01*
X44009733Y-71185998D02*
X44052066Y-71355332D01*
X44052066Y-71355332D02*
X44052066Y-71566998D01*
X44052066Y-71566998D02*
X44009733Y-71736332D01*
X44009733Y-71736332D02*
X43967399Y-71820998D01*
X43967399Y-71820998D02*
X43925066Y-71863332D01*
X43925066Y-71863332D02*
X43840399Y-71905665D01*
X43840399Y-71905665D02*
X43755733Y-71905665D01*
X43755733Y-71905665D02*
X43671066Y-71863332D01*
X43671066Y-71863332D02*
X43628733Y-71820998D01*
X43628733Y-71820998D02*
X43586399Y-71736332D01*
X43586399Y-71736332D02*
X43544066Y-71566998D01*
X43544066Y-71566998D02*
X43544066Y-71355332D01*
X43544066Y-71355332D02*
X43586399Y-71185998D01*
X43586399Y-71185998D02*
X43628733Y-71101332D01*
X43628733Y-71101332D02*
X43671066Y-71058998D01*
X43671066Y-71058998D02*
X43755733Y-71016665D01*
X44602400Y-71016665D02*
X44687066Y-71016665D01*
X44687066Y-71016665D02*
X44771733Y-71058998D01*
X44771733Y-71058998D02*
X44814066Y-71101332D01*
X44814066Y-71101332D02*
X44856400Y-71185998D01*
X44856400Y-71185998D02*
X44898733Y-71355332D01*
X44898733Y-71355332D02*
X44898733Y-71566998D01*
X44898733Y-71566998D02*
X44856400Y-71736332D01*
X44856400Y-71736332D02*
X44814066Y-71820998D01*
X44814066Y-71820998D02*
X44771733Y-71863332D01*
X44771733Y-71863332D02*
X44687066Y-71905665D01*
X44687066Y-71905665D02*
X44602400Y-71905665D01*
X44602400Y-71905665D02*
X44517733Y-71863332D01*
X44517733Y-71863332D02*
X44475400Y-71820998D01*
X44475400Y-71820998D02*
X44433066Y-71736332D01*
X44433066Y-71736332D02*
X44390733Y-71566998D01*
X44390733Y-71566998D02*
X44390733Y-71355332D01*
X44390733Y-71355332D02*
X44433066Y-71185998D01*
X44433066Y-71185998D02*
X44475400Y-71101332D01*
X44475400Y-71101332D02*
X44517733Y-71058998D01*
X44517733Y-71058998D02*
X44602400Y-71016665D01*
X45406733Y-71397665D02*
X45322067Y-71355332D01*
X45322067Y-71355332D02*
X45279733Y-71312998D01*
X45279733Y-71312998D02*
X45237400Y-71228332D01*
X45237400Y-71228332D02*
X45237400Y-71185998D01*
X45237400Y-71185998D02*
X45279733Y-71101332D01*
X45279733Y-71101332D02*
X45322067Y-71058998D01*
X45322067Y-71058998D02*
X45406733Y-71016665D01*
X45406733Y-71016665D02*
X45576067Y-71016665D01*
X45576067Y-71016665D02*
X45660733Y-71058998D01*
X45660733Y-71058998D02*
X45703067Y-71101332D01*
X45703067Y-71101332D02*
X45745400Y-71185998D01*
X45745400Y-71185998D02*
X45745400Y-71228332D01*
X45745400Y-71228332D02*
X45703067Y-71312998D01*
X45703067Y-71312998D02*
X45660733Y-71355332D01*
X45660733Y-71355332D02*
X45576067Y-71397665D01*
X45576067Y-71397665D02*
X45406733Y-71397665D01*
X45406733Y-71397665D02*
X45322067Y-71439998D01*
X45322067Y-71439998D02*
X45279733Y-71482332D01*
X45279733Y-71482332D02*
X45237400Y-71566998D01*
X45237400Y-71566998D02*
X45237400Y-71736332D01*
X45237400Y-71736332D02*
X45279733Y-71820998D01*
X45279733Y-71820998D02*
X45322067Y-71863332D01*
X45322067Y-71863332D02*
X45406733Y-71905665D01*
X45406733Y-71905665D02*
X45576067Y-71905665D01*
X45576067Y-71905665D02*
X45660733Y-71863332D01*
X45660733Y-71863332D02*
X45703067Y-71820998D01*
X45703067Y-71820998D02*
X45745400Y-71736332D01*
X45745400Y-71736332D02*
X45745400Y-71566998D01*
X45745400Y-71566998D02*
X45703067Y-71482332D01*
X45703067Y-71482332D02*
X45660733Y-71439998D01*
X45660733Y-71439998D02*
X45576067Y-71397665D01*
D16*
%TO.C,J8*%
X49182800Y-54821600D02*
X47802800Y-54821600D01*
X49182800Y-53441600D02*
X49182800Y-54821600D01*
X49182800Y-52171600D02*
X49182800Y-44441600D01*
X49182800Y-52171600D02*
X46532800Y-52171600D01*
X49182800Y-44441600D02*
X43882800Y-44441600D01*
X46532800Y-54821600D02*
X43882800Y-54821600D01*
X46532800Y-52171600D02*
X46532800Y-54821600D01*
X43882800Y-54821600D02*
X43882800Y-44441600D01*
%TO.C,D1*%
X23000000Y-14756700D02*
X23650000Y-14756700D01*
X23000000Y-14756700D02*
X22350000Y-14756700D01*
X23000000Y-11636700D02*
X23650000Y-11636700D01*
X23000000Y-11636700D02*
X22350000Y-11636700D01*
X24402500Y-15036700D02*
X23922500Y-15036700D01*
X24162500Y-14706700D01*
X24402500Y-15036700D01*
G36*
X24402500Y-15036700D02*
G01*
X23922500Y-15036700D01*
X24162500Y-14706700D01*
X24402500Y-15036700D01*
G37*
%TO.C,D7*%
X23063200Y-70140000D02*
X23713200Y-70140000D01*
X23063200Y-70140000D02*
X22413200Y-70140000D01*
X23063200Y-67020000D02*
X23713200Y-67020000D01*
X23063200Y-67020000D02*
X22413200Y-67020000D01*
X24465700Y-70420000D02*
X23985700Y-70420000D01*
X24225700Y-70090000D01*
X24465700Y-70420000D01*
G36*
X24465700Y-70420000D02*
G01*
X23985700Y-70420000D01*
X24225700Y-70090000D01*
X24465700Y-70420000D01*
G37*
%TO.C,D6*%
X23000000Y-50752128D02*
X23650000Y-50752128D01*
X23000000Y-50752128D02*
X22350000Y-50752128D01*
X23000000Y-47632128D02*
X23650000Y-47632128D01*
X23000000Y-47632128D02*
X22350000Y-47632128D01*
X24402500Y-51032128D02*
X23922500Y-51032128D01*
X24162500Y-50702128D01*
X24402500Y-51032128D01*
G36*
X24402500Y-51032128D02*
G01*
X23922500Y-51032128D01*
X24162500Y-50702128D01*
X24402500Y-51032128D01*
G37*
%TO.C,D4*%
X23000000Y-32841500D02*
X23650000Y-32841500D01*
X23000000Y-32841500D02*
X22350000Y-32841500D01*
X23000000Y-29721500D02*
X23650000Y-29721500D01*
X23000000Y-29721500D02*
X22350000Y-29721500D01*
X24402500Y-33121500D02*
X23922500Y-33121500D01*
X24162500Y-32791500D01*
X24402500Y-33121500D01*
G36*
X24402500Y-33121500D02*
G01*
X23922500Y-33121500D01*
X24162500Y-32791500D01*
X24402500Y-33121500D01*
G37*
%TO.C,D3*%
X23000000Y-41753271D02*
X23650000Y-41753271D01*
X23000000Y-41753271D02*
X22350000Y-41753271D01*
X23000000Y-38633271D02*
X23650000Y-38633271D01*
X23000000Y-38633271D02*
X22350000Y-38633271D01*
X24402500Y-42033271D02*
X23922500Y-42033271D01*
X24162500Y-41703271D01*
X24402500Y-42033271D01*
G36*
X24402500Y-42033271D02*
G01*
X23922500Y-42033271D01*
X24162500Y-41703271D01*
X24402500Y-42033271D01*
G37*
%TO.C,D8*%
X23012400Y-79080800D02*
X23662400Y-79080800D01*
X23012400Y-79080800D02*
X22362400Y-79080800D01*
X23012400Y-75960800D02*
X23662400Y-75960800D01*
X23012400Y-75960800D02*
X22362400Y-75960800D01*
X24414900Y-79360800D02*
X23934900Y-79360800D01*
X24174900Y-79030800D01*
X24414900Y-79360800D01*
G36*
X24414900Y-79360800D02*
G01*
X23934900Y-79360800D01*
X24174900Y-79030800D01*
X24414900Y-79360800D01*
G37*
%TO.C,D5*%
X23000000Y-59750985D02*
X23650000Y-59750985D01*
X23000000Y-59750985D02*
X22350000Y-59750985D01*
X23000000Y-56630985D02*
X23650000Y-56630985D01*
X23000000Y-56630985D02*
X22350000Y-56630985D01*
X24402500Y-60030985D02*
X23922500Y-60030985D01*
X24162500Y-59700985D01*
X24402500Y-60030985D01*
G36*
X24402500Y-60030985D02*
G01*
X23922500Y-60030985D01*
X24162500Y-59700985D01*
X24402500Y-60030985D01*
G37*
%TO.C,D2*%
X23000000Y-23755557D02*
X23650000Y-23755557D01*
X23000000Y-23755557D02*
X22350000Y-23755557D01*
X23000000Y-20635557D02*
X23650000Y-20635557D01*
X23000000Y-20635557D02*
X22350000Y-20635557D01*
X24402500Y-24035557D02*
X23922500Y-24035557D01*
X24162500Y-23705557D01*
X24402500Y-24035557D01*
G36*
X24402500Y-24035557D02*
G01*
X23922500Y-24035557D01*
X24162500Y-23705557D01*
X24402500Y-24035557D01*
G37*
%TO.C,J3*%
X53611000Y-36059600D02*
X54991000Y-36059600D01*
X53611000Y-37439600D02*
X53611000Y-36059600D01*
X53611000Y-38709600D02*
X53611000Y-74379600D01*
X53611000Y-38709600D02*
X56261000Y-38709600D01*
X53611000Y-74379600D02*
X58911000Y-74379600D01*
X56261000Y-36059600D02*
X58911000Y-36059600D01*
X56261000Y-38709600D02*
X56261000Y-36059600D01*
X58911000Y-36059600D02*
X58911000Y-74379600D01*
%TO.C,CON1*%
X47853600Y-90922800D02*
X40173600Y-90922800D01*
X47853600Y-90922800D02*
X47853600Y-93582800D01*
X40173600Y-90922800D02*
X40173600Y-93582800D01*
X50453600Y-92252800D02*
X50453600Y-93582800D01*
X50453600Y-93582800D02*
X49123600Y-93582800D01*
X47853600Y-93582800D02*
X40173600Y-93582800D01*
%TO.C,RV8*%
X7778200Y-84628600D02*
X7778200Y-87038600D01*
X7778200Y-84628600D02*
X9298200Y-84628600D01*
X7778200Y-85833600D02*
X8538200Y-85833600D01*
X7778200Y-87038600D02*
X9298200Y-87038600D01*
X9298200Y-82163600D02*
X9298200Y-87213600D01*
X9298200Y-82163600D02*
X19048200Y-82163600D01*
X9298200Y-84628600D02*
X9298200Y-87038600D01*
X9298200Y-87213600D02*
X19048200Y-87213600D01*
X19048200Y-82163600D02*
X19048200Y-87213600D01*
%TO.C,RV2*%
X5619200Y-22081100D02*
X5619200Y-24491100D01*
X5619200Y-22081100D02*
X7139200Y-22081100D01*
X5619200Y-23286100D02*
X6379200Y-23286100D01*
X5619200Y-24491100D02*
X7139200Y-24491100D01*
X7139200Y-19616100D02*
X7139200Y-24666100D01*
X7139200Y-19616100D02*
X16889200Y-19616100D01*
X7139200Y-22081100D02*
X7139200Y-24491100D01*
X7139200Y-24666100D02*
X16889200Y-24666100D01*
X16889200Y-19616100D02*
X16889200Y-24666100D01*
%TO.C,RV5*%
X5619200Y-67750300D02*
X5619200Y-70160300D01*
X5619200Y-67750300D02*
X7139200Y-67750300D01*
X5619200Y-68955300D02*
X6379200Y-68955300D01*
X5619200Y-70160300D02*
X7139200Y-70160300D01*
X7139200Y-65285300D02*
X7139200Y-70335300D01*
X7139200Y-65285300D02*
X16889200Y-65285300D01*
X7139200Y-67750300D02*
X7139200Y-70160300D01*
X7139200Y-70335300D02*
X16889200Y-70335300D01*
X16889200Y-65285300D02*
X16889200Y-70335300D01*
%TO.C,RV4*%
X5619200Y-33498400D02*
X5619200Y-35908400D01*
X5619200Y-33498400D02*
X7139200Y-33498400D01*
X5619200Y-34703400D02*
X6379200Y-34703400D01*
X5619200Y-35908400D02*
X7139200Y-35908400D01*
X7139200Y-31033400D02*
X7139200Y-36083400D01*
X7139200Y-31033400D02*
X16889200Y-31033400D01*
X7139200Y-33498400D02*
X7139200Y-35908400D01*
X7139200Y-36083400D02*
X16889200Y-36083400D01*
X16889200Y-31033400D02*
X16889200Y-36083400D01*
%TO.C,RV6*%
X5619200Y-56333000D02*
X5619200Y-58743000D01*
X5619200Y-56333000D02*
X7139200Y-56333000D01*
X5619200Y-57538000D02*
X6379200Y-57538000D01*
X5619200Y-58743000D02*
X7139200Y-58743000D01*
X7139200Y-53868000D02*
X7139200Y-58918000D01*
X7139200Y-53868000D02*
X16889200Y-53868000D01*
X7139200Y-56333000D02*
X7139200Y-58743000D01*
X7139200Y-58918000D02*
X16889200Y-58918000D01*
X16889200Y-53868000D02*
X16889200Y-58918000D01*
%TO.C,RV7*%
X5619200Y-79167600D02*
X5619200Y-81577600D01*
X5619200Y-79167600D02*
X7139200Y-79167600D01*
X5619200Y-80372600D02*
X6379200Y-80372600D01*
X5619200Y-81577600D02*
X7139200Y-81577600D01*
X7139200Y-76702600D02*
X7139200Y-81752600D01*
X7139200Y-76702600D02*
X16889200Y-76702600D01*
X7139200Y-79167600D02*
X7139200Y-81577600D01*
X7139200Y-81752600D02*
X16889200Y-81752600D01*
X16889200Y-76702600D02*
X16889200Y-81752600D01*
%TO.C,RV3*%
X5619200Y-44915700D02*
X5619200Y-47325700D01*
X5619200Y-44915700D02*
X7139200Y-44915700D01*
X5619200Y-46120700D02*
X6379200Y-46120700D01*
X5619200Y-47325700D02*
X7139200Y-47325700D01*
X7139200Y-42450700D02*
X7139200Y-47500700D01*
X7139200Y-42450700D02*
X16889200Y-42450700D01*
X7139200Y-44915700D02*
X7139200Y-47325700D01*
X7139200Y-47500700D02*
X16889200Y-47500700D01*
X16889200Y-42450700D02*
X16889200Y-47500700D01*
%TO.C,RV1*%
X5619200Y-10663800D02*
X5619200Y-13073800D01*
X5619200Y-10663800D02*
X7139200Y-10663800D01*
X5619200Y-11868800D02*
X6379200Y-11868800D01*
X5619200Y-13073800D02*
X7139200Y-13073800D01*
X7139200Y-8198800D02*
X7139200Y-13248800D01*
X7139200Y-8198800D02*
X16889200Y-8198800D01*
X7139200Y-10663800D02*
X7139200Y-13073800D01*
X7139200Y-13248800D02*
X16889200Y-13248800D01*
X16889200Y-8198800D02*
X16889200Y-13248800D01*
D17*
%TO.C,J1*%
X-4990000Y-2990000D02*
X4210000Y-2990000D01*
X-4990000Y-11800000D02*
X-4990000Y-2990000D01*
X4210000Y-2990000D02*
X4210000Y-11800000D01*
X4210000Y-11800000D02*
X-4990000Y-11800000D01*
D16*
%TO.C,C9*%
X49878348Y-61520400D02*
X50400852Y-61520400D01*
X49878348Y-62990400D02*
X50400852Y-62990400D01*
%TO.C,H4*%
X56184801Y-91262200D02*
X56184801Y-91262200D01*
X56184801Y-91262200D01*
X56184801Y-91262200D01*
X56184801Y-91262200D01*
X56184801Y-91262200D01*
X56184801Y-91262201D01*
X56184801Y-91262201D01*
X56184801Y-91262201D01*
X56184801Y-91262201D01*
X56184801Y-91262201D01*
X56184801Y-91262201D01*
X56184801Y-91262201D01*
X56184800Y-91262201D01*
X56184800Y-91262201D01*
X56184800Y-91262201D01*
X56184800Y-91262201D01*
X56184800Y-91262201D01*
X56184800Y-91262201D01*
X56184800Y-91262201D01*
X56184800Y-91262201D01*
X56184800Y-91262201D01*
X56184800Y-91262201D01*
X56184800Y-91262201D01*
X56184800Y-91262201D01*
X56184799Y-91262201D01*
X56184799Y-91262201D01*
X56184799Y-91262201D01*
X56184799Y-91262201D01*
X56184799Y-91262201D01*
X56184799Y-91262201D01*
X56184799Y-91262200D01*
X56184799Y-91262200D01*
X56184799Y-91262200D01*
X56184799Y-91262200D01*
X56184799Y-91262200D01*
X56184799Y-91262200D01*
X56184799Y-91262200D02*
X56184799Y-91262200D01*
X56184799Y-91262200D01*
X56184799Y-91262200D01*
X56184799Y-91262200D01*
X56184799Y-91262200D01*
X56184799Y-91262200D01*
X56184799Y-91262199D01*
X56184799Y-91262199D01*
X56184799Y-91262199D01*
X56184799Y-91262199D01*
X56184799Y-91262199D01*
X56184800Y-91262199D01*
X56184800Y-91262199D01*
X56184800Y-91262199D01*
X56184800Y-91262199D01*
X56184800Y-91262199D01*
X56184800Y-91262199D01*
X56184800Y-91262199D01*
X56184800Y-91262199D01*
X56184800Y-91262199D01*
X56184800Y-91262199D01*
X56184800Y-91262199D01*
X56184800Y-91262199D01*
X56184801Y-91262199D01*
X56184801Y-91262199D01*
X56184801Y-91262199D01*
X56184801Y-91262199D01*
X56184801Y-91262199D01*
X56184801Y-91262199D01*
X56184801Y-91262200D01*
X56184801Y-91262200D01*
X56184801Y-91262200D01*
X56184801Y-91262200D01*
X56184801Y-91262200D01*
X56184801Y-91262200D01*
X56184801Y-91262200D01*
%TO.C,R9*%
X48337800Y-22188664D02*
X48337800Y-21734536D01*
X49807800Y-22188664D02*
X49807800Y-21734536D01*
%TO.C,C13*%
X43826152Y-77928800D02*
X43303648Y-77928800D01*
X43826152Y-79398800D02*
X43303648Y-79398800D01*
%TO.C,C11*%
X28779800Y-69360148D02*
X28779800Y-69882652D01*
X30249800Y-69360148D02*
X30249800Y-69882652D01*
%TO.C,R10*%
X8180336Y-73407600D02*
X8634464Y-73407600D01*
X8180336Y-74877600D02*
X8634464Y-74877600D01*
D17*
%TO.C,J4*%
X-4990000Y-37275713D02*
X4210000Y-37275713D01*
X-4990000Y-46085713D02*
X-4990000Y-37275713D01*
X4210000Y-37275713D02*
X4210000Y-46085713D01*
X4210000Y-46085713D02*
X-4990000Y-46085713D01*
%TO.C,J5*%
X-4990000Y-25847142D02*
X4210000Y-25847142D01*
X-4990000Y-34657142D02*
X-4990000Y-25847142D01*
X4210000Y-25847142D02*
X4210000Y-34657142D01*
X4210000Y-34657142D02*
X-4990000Y-34657142D01*
D16*
%TO.C,C8*%
X28729000Y-49954548D02*
X28729000Y-50477052D01*
X30199000Y-49954548D02*
X30199000Y-50477052D01*
%TO.C,R2*%
X8739200Y-16968736D02*
X8739200Y-17422864D01*
X10209200Y-16968736D02*
X10209200Y-17422864D01*
%TO.C,R5*%
X8129536Y-61926800D02*
X8583664Y-61926800D01*
X8129536Y-63396800D02*
X8583664Y-63396800D01*
D17*
%TO.C,J2*%
X-4990000Y-14418571D02*
X4210000Y-14418571D01*
X-4990000Y-23228571D02*
X-4990000Y-14418571D01*
X4210000Y-14418571D02*
X4210000Y-23228571D01*
X4210000Y-23228571D02*
X-4990000Y-23228571D01*
D16*
%TO.C,R7*%
X54281400Y-29808664D02*
X54281400Y-29354536D01*
X55751400Y-29808664D02*
X55751400Y-29354536D01*
%TO.C,C3*%
X28754400Y-22852748D02*
X28754400Y-23375252D01*
X30224400Y-22852748D02*
X30224400Y-23375252D01*
D17*
%TO.C,J10*%
X-4990000Y-82990000D02*
X4210000Y-82990000D01*
X-4990000Y-91800000D02*
X-4990000Y-82990000D01*
X4210000Y-82990000D02*
X4210000Y-91800000D01*
X4210000Y-91800000D02*
X-4990000Y-91800000D01*
D16*
%TO.C,R3*%
X8281936Y-39066800D02*
X8736064Y-39066800D01*
X8281936Y-40536800D02*
X8736064Y-40536800D01*
%TO.C,R8*%
X48337800Y-29783264D02*
X48337800Y-29329136D01*
X49807800Y-29783264D02*
X49807800Y-29329136D01*
%TO.C,R6*%
X8180336Y-50496800D02*
X8634464Y-50496800D01*
X8180336Y-51966800D02*
X8634464Y-51966800D01*
D17*
%TO.C,J7*%
X-4990000Y-48704284D02*
X4210000Y-48704284D01*
X-4990000Y-57514284D02*
X-4990000Y-48704284D01*
X4210000Y-48704284D02*
X4210000Y-57514284D01*
X4210000Y-57514284D02*
X-4990000Y-57514284D01*
D16*
%TO.C,C7*%
X28729000Y-58971548D02*
X28729000Y-59494052D01*
X30199000Y-58971548D02*
X30199000Y-59494052D01*
%TO.C,CON2*%
X54603000Y-79287600D02*
X54603000Y-80337600D01*
X54603000Y-84457600D02*
X53613000Y-84457600D01*
X54603000Y-85507600D02*
X54603000Y-84457600D01*
X56235600Y-79287600D02*
X54603000Y-79287600D01*
X56235600Y-85507600D02*
X54603000Y-85507600D01*
X59073000Y-84337600D02*
X59073000Y-80457600D01*
D18*
%TO.C,IC2*%
X52754400Y-23636600D02*
X52754400Y-22386600D01*
X52794400Y-21886600D02*
X55714400Y-21886600D01*
X52794400Y-22036600D02*
X52794400Y-21886600D01*
X55714400Y-21886600D02*
X55714400Y-22036600D01*
X55714400Y-22036600D02*
X52794400Y-22036600D01*
D16*
%TO.C,C1*%
X28729000Y-13962748D02*
X28729000Y-14485252D01*
X30199000Y-13962748D02*
X30199000Y-14485252D01*
D17*
%TO.C,J6*%
X-4990000Y-60132855D02*
X4210000Y-60132855D01*
X-4990000Y-68942855D02*
X-4990000Y-60132855D01*
X4210000Y-60132855D02*
X4210000Y-68942855D01*
X4210000Y-68942855D02*
X-4990000Y-68942855D01*
D16*
%TO.C,H2*%
X56235601Y-3982200D02*
X56235601Y-3982200D01*
X56235601Y-3982200D01*
X56235601Y-3982200D01*
X56235601Y-3982200D01*
X56235601Y-3982200D01*
X56235601Y-3982201D01*
X56235601Y-3982201D01*
X56235601Y-3982201D01*
X56235601Y-3982201D01*
X56235601Y-3982201D01*
X56235601Y-3982201D01*
X56235601Y-3982201D01*
X56235600Y-3982201D01*
X56235600Y-3982201D01*
X56235600Y-3982201D01*
X56235600Y-3982201D01*
X56235600Y-3982201D01*
X56235600Y-3982201D01*
X56235600Y-3982201D01*
X56235600Y-3982201D01*
X56235600Y-3982201D01*
X56235600Y-3982201D01*
X56235600Y-3982201D01*
X56235600Y-3982201D01*
X56235599Y-3982201D01*
X56235599Y-3982201D01*
X56235599Y-3982201D01*
X56235599Y-3982201D01*
X56235599Y-3982201D01*
X56235599Y-3982201D01*
X56235599Y-3982200D01*
X56235599Y-3982200D01*
X56235599Y-3982200D01*
X56235599Y-3982200D01*
X56235599Y-3982200D01*
X56235599Y-3982200D01*
X56235599Y-3982200D02*
X56235599Y-3982200D01*
X56235599Y-3982200D01*
X56235599Y-3982200D01*
X56235599Y-3982200D01*
X56235599Y-3982200D01*
X56235599Y-3982200D01*
X56235599Y-3982199D01*
X56235599Y-3982199D01*
X56235599Y-3982199D01*
X56235599Y-3982199D01*
X56235599Y-3982199D01*
X56235600Y-3982199D01*
X56235600Y-3982199D01*
X56235600Y-3982199D01*
X56235600Y-3982199D01*
X56235600Y-3982199D01*
X56235600Y-3982199D01*
X56235600Y-3982199D01*
X56235600Y-3982199D01*
X56235600Y-3982199D01*
X56235600Y-3982199D01*
X56235600Y-3982199D01*
X56235600Y-3982199D01*
X56235601Y-3982199D01*
X56235601Y-3982199D01*
X56235601Y-3982199D01*
X56235601Y-3982199D01*
X56235601Y-3982199D01*
X56235601Y-3982199D01*
X56235601Y-3982200D01*
X56235601Y-3982200D01*
X56235601Y-3982200D01*
X56235601Y-3982200D01*
X56235601Y-3982200D01*
X56235601Y-3982200D01*
X56235601Y-3982200D01*
%TO.C,C2*%
X23265000Y-5696852D02*
X23265000Y-5174348D01*
X24735000Y-5696852D02*
X24735000Y-5174348D01*
%TO.C,C4*%
X28729000Y-40861348D02*
X28729000Y-41383852D01*
X30199000Y-40861348D02*
X30199000Y-41383852D01*
%TO.C,R11*%
X5792800Y-86234536D02*
X5792800Y-86688664D01*
X7262800Y-86234536D02*
X7262800Y-86688664D01*
%TO.C,R1*%
X12930200Y-16943336D02*
X12930200Y-17397464D01*
X14400200Y-16943336D02*
X14400200Y-17397464D01*
%TO.C,C6*%
X49776748Y-57278600D02*
X50299252Y-57278600D01*
X49776748Y-58748600D02*
X50299252Y-58748600D01*
D17*
%TO.C,J9*%
X-4990000Y-71561426D02*
X4210000Y-71561426D01*
X-4990000Y-80371426D02*
X-4990000Y-71561426D01*
X4210000Y-71561426D02*
X4210000Y-80371426D01*
X4210000Y-80371426D02*
X-4990000Y-80371426D01*
D16*
%TO.C,C5*%
X28703600Y-31985864D02*
X28703600Y-32508368D01*
X30173600Y-31985864D02*
X30173600Y-32508368D01*
%TO.C,H1*%
X12000001Y-3982200D02*
X12000001Y-3982200D01*
X12000001Y-3982200D01*
X12000001Y-3982200D01*
X12000001Y-3982200D01*
X12000001Y-3982200D01*
X12000001Y-3982201D01*
X12000001Y-3982201D01*
X12000001Y-3982201D01*
X12000001Y-3982201D01*
X12000001Y-3982201D01*
X12000001Y-3982201D01*
X12000001Y-3982201D01*
X12000000Y-3982201D01*
X12000000Y-3982201D01*
X12000000Y-3982201D01*
X12000000Y-3982201D01*
X12000000Y-3982201D01*
X12000000Y-3982201D01*
X12000000Y-3982201D01*
X12000000Y-3982201D01*
X12000000Y-3982201D01*
X12000000Y-3982201D01*
X12000000Y-3982201D01*
X12000000Y-3982201D01*
X11999999Y-3982201D01*
X11999999Y-3982201D01*
X11999999Y-3982201D01*
X11999999Y-3982201D01*
X11999999Y-3982201D01*
X11999999Y-3982201D01*
X11999999Y-3982200D01*
X11999999Y-3982200D01*
X11999999Y-3982200D01*
X11999999Y-3982200D01*
X11999999Y-3982200D01*
X11999999Y-3982200D01*
X11999999Y-3982200D02*
X11999999Y-3982200D01*
X11999999Y-3982200D01*
X11999999Y-3982200D01*
X11999999Y-3982200D01*
X11999999Y-3982200D01*
X11999999Y-3982200D01*
X11999999Y-3982199D01*
X11999999Y-3982199D01*
X11999999Y-3982199D01*
X11999999Y-3982199D01*
X11999999Y-3982199D01*
X12000000Y-3982199D01*
X12000000Y-3982199D01*
X12000000Y-3982199D01*
X12000000Y-3982199D01*
X12000000Y-3982199D01*
X12000000Y-3982199D01*
X12000000Y-3982199D01*
X12000000Y-3982199D01*
X12000000Y-3982199D01*
X12000000Y-3982199D01*
X12000000Y-3982199D01*
X12000000Y-3982199D01*
X12000001Y-3982199D01*
X12000001Y-3982199D01*
X12000001Y-3982199D01*
X12000001Y-3982199D01*
X12000001Y-3982199D01*
X12000001Y-3982199D01*
X12000001Y-3982200D01*
X12000001Y-3982200D01*
X12000001Y-3982200D01*
X12000001Y-3982200D01*
X12000001Y-3982200D01*
X12000001Y-3982200D01*
X12000001Y-3982200D01*
%TO.C,H3*%
X12000001Y-91262200D02*
X12000001Y-91262200D01*
X12000001Y-91262200D01*
X12000001Y-91262200D01*
X12000001Y-91262200D01*
X12000001Y-91262200D01*
X12000001Y-91262201D01*
X12000001Y-91262201D01*
X12000001Y-91262201D01*
X12000001Y-91262201D01*
X12000001Y-91262201D01*
X12000001Y-91262201D01*
X12000001Y-91262201D01*
X12000000Y-91262201D01*
X12000000Y-91262201D01*
X12000000Y-91262201D01*
X12000000Y-91262201D01*
X12000000Y-91262201D01*
X12000000Y-91262201D01*
X12000000Y-91262201D01*
X12000000Y-91262201D01*
X12000000Y-91262201D01*
X12000000Y-91262201D01*
X12000000Y-91262201D01*
X12000000Y-91262201D01*
X11999999Y-91262201D01*
X11999999Y-91262201D01*
X11999999Y-91262201D01*
X11999999Y-91262201D01*
X11999999Y-91262201D01*
X11999999Y-91262201D01*
X11999999Y-91262200D01*
X11999999Y-91262200D01*
X11999999Y-91262200D01*
X11999999Y-91262200D01*
X11999999Y-91262200D01*
X11999999Y-91262200D01*
X11999999Y-91262200D02*
X11999999Y-91262200D01*
X11999999Y-91262200D01*
X11999999Y-91262200D01*
X11999999Y-91262200D01*
X11999999Y-91262200D01*
X11999999Y-91262200D01*
X11999999Y-91262199D01*
X11999999Y-91262199D01*
X11999999Y-91262199D01*
X11999999Y-91262199D01*
X11999999Y-91262199D01*
X12000000Y-91262199D01*
X12000000Y-91262199D01*
X12000000Y-91262199D01*
X12000000Y-91262199D01*
X12000000Y-91262199D01*
X12000000Y-91262199D01*
X12000000Y-91262199D01*
X12000000Y-91262199D01*
X12000000Y-91262199D01*
X12000000Y-91262199D01*
X12000000Y-91262199D01*
X12000000Y-91262199D01*
X12000001Y-91262199D01*
X12000001Y-91262199D01*
X12000001Y-91262199D01*
X12000001Y-91262199D01*
X12000001Y-91262199D01*
X12000001Y-91262199D01*
X12000001Y-91262200D01*
X12000001Y-91262200D01*
X12000001Y-91262200D01*
X12000001Y-91262200D01*
X12000001Y-91262200D01*
X12000001Y-91262200D01*
X12000001Y-91262200D01*
%TO.C,C12*%
X28779800Y-78123148D02*
X28779800Y-78645652D01*
X30249800Y-78123148D02*
X30249800Y-78645652D01*
%TO.C,C10*%
X24808548Y-84050200D02*
X25331052Y-84050200D01*
X24808548Y-85520200D02*
X25331052Y-85520200D01*
%TO.C,R4*%
X8358136Y-27586000D02*
X8812264Y-27586000D01*
X8358136Y-29056000D02*
X8812264Y-29056000D01*
D18*
%TO.C,IC1*%
X39399800Y-60310400D02*
X40899800Y-60310400D01*
X41249800Y-60480400D02*
X44449800Y-60480400D01*
X41249800Y-70380400D02*
X41249800Y-60480400D01*
X44449800Y-60480400D02*
X44449800Y-70380400D01*
X44449800Y-70380400D02*
X41249800Y-70380400D01*
%TD*%
%LPC*%
D19*
%TO.C,J8*%
X47802800Y-53441600D03*
D20*
X45262800Y-53441600D03*
X47802800Y-50901600D03*
X45262800Y-50901600D03*
X47802800Y-48361600D03*
X45262800Y-48361600D03*
X47802800Y-45821600D03*
X45262800Y-45821600D03*
%TD*%
D21*
%TO.C,D1*%
X23937500Y-14146700D03*
X23937500Y-12246700D03*
X22062500Y-13196700D03*
%TD*%
%TO.C,D7*%
X24000700Y-69530000D03*
X24000700Y-67630000D03*
X22125700Y-68580000D03*
%TD*%
%TO.C,D6*%
X23937500Y-50142128D03*
X23937500Y-48242128D03*
X22062500Y-49192128D03*
%TD*%
%TO.C,D4*%
X23937500Y-32231500D03*
X23937500Y-30331500D03*
X22062500Y-31281500D03*
%TD*%
%TO.C,D3*%
X23937500Y-41143271D03*
X23937500Y-39243271D03*
X22062500Y-40193271D03*
%TD*%
%TO.C,D8*%
X23949900Y-78470800D03*
X23949900Y-76570800D03*
X22074900Y-77520800D03*
%TD*%
%TO.C,D5*%
X23937500Y-59140985D03*
X23937500Y-57240985D03*
X22062500Y-58190985D03*
%TD*%
%TO.C,D2*%
X23937500Y-23145557D03*
X23937500Y-21245557D03*
X22062500Y-22195557D03*
%TD*%
D19*
%TO.C,J3*%
X54991000Y-37439600D03*
D20*
X57531000Y-37439600D03*
X54991000Y-39979600D03*
X57531000Y-39979600D03*
X54991000Y-42519600D03*
X57531000Y-42519600D03*
X54991000Y-45059600D03*
X57531000Y-45059600D03*
X54991000Y-47599600D03*
X57531000Y-47599600D03*
X54991000Y-50139600D03*
X57531000Y-50139600D03*
X54991000Y-52679600D03*
X57531000Y-52679600D03*
X54991000Y-55219600D03*
X57531000Y-55219600D03*
X54991000Y-57759600D03*
X57531000Y-57759600D03*
X54991000Y-60299600D03*
X57531000Y-60299600D03*
X54991000Y-62839600D03*
X57531000Y-62839600D03*
X54991000Y-65379600D03*
X57531000Y-65379600D03*
X54991000Y-67919600D03*
X57531000Y-67919600D03*
X54991000Y-70459600D03*
X57531000Y-70459600D03*
X54991000Y-72999600D03*
X57531000Y-72999600D03*
%TD*%
D19*
%TO.C,CON1*%
X49123600Y-92252800D03*
D20*
X46583600Y-92252800D03*
X44043600Y-92252800D03*
X41503600Y-92252800D03*
%TD*%
D22*
%TO.C,RV8*%
X16713200Y-84683600D03*
X14173200Y-84683600D03*
X11633200Y-84683600D03*
%TD*%
%TO.C,RV2*%
X14554200Y-22136100D03*
X12014200Y-22136100D03*
X9474200Y-22136100D03*
%TD*%
%TO.C,RV5*%
X14554200Y-67805300D03*
X12014200Y-67805300D03*
X9474200Y-67805300D03*
%TD*%
%TO.C,RV4*%
X14554200Y-33553400D03*
X12014200Y-33553400D03*
X9474200Y-33553400D03*
%TD*%
%TO.C,RV6*%
X14554200Y-56388000D03*
X12014200Y-56388000D03*
X9474200Y-56388000D03*
%TD*%
%TO.C,RV7*%
X14554200Y-79222600D03*
X12014200Y-79222600D03*
X9474200Y-79222600D03*
%TD*%
%TO.C,RV3*%
X14554200Y-44970700D03*
X12014200Y-44970700D03*
X9474200Y-44970700D03*
%TD*%
%TO.C,RV1*%
X14554200Y-10718800D03*
X12014200Y-10718800D03*
X9474200Y-10718800D03*
%TD*%
D23*
%TO.C,J1*%
X3000000Y-9300000D03*
X3000000Y-5490000D03*
%TD*%
D24*
%TO.C,C9*%
X49102100Y-62255400D03*
X51177100Y-62255400D03*
%TD*%
D25*
%TO.C,H4*%
X56184800Y-91262200D03*
%TD*%
D26*
%TO.C,R9*%
X49072800Y-22961600D03*
X49072800Y-20961600D03*
%TD*%
D27*
%TO.C,C13*%
X44602400Y-78663800D03*
X42527400Y-78663800D03*
%TD*%
D28*
%TO.C,C11*%
X29514800Y-68583900D03*
X29514800Y-70658900D03*
%TD*%
D29*
%TO.C,R10*%
X7407400Y-74142600D03*
X9407400Y-74142600D03*
%TD*%
D23*
%TO.C,J4*%
X3000000Y-43585713D03*
X3000000Y-39775713D03*
%TD*%
%TO.C,J5*%
X3000000Y-32157142D03*
X3000000Y-28347142D03*
%TD*%
D28*
%TO.C,C8*%
X29464000Y-49178300D03*
X29464000Y-51253300D03*
%TD*%
D30*
%TO.C,R2*%
X9474200Y-16195800D03*
X9474200Y-18195800D03*
%TD*%
D29*
%TO.C,R5*%
X7356600Y-62661800D03*
X9356600Y-62661800D03*
%TD*%
D23*
%TO.C,J2*%
X3000000Y-20728571D03*
X3000000Y-16918571D03*
%TD*%
D26*
%TO.C,R7*%
X55016400Y-30581600D03*
X55016400Y-28581600D03*
%TD*%
D28*
%TO.C,C3*%
X29489400Y-22076500D03*
X29489400Y-24151500D03*
%TD*%
D23*
%TO.C,J10*%
X3000000Y-89300000D03*
X3000000Y-85490000D03*
%TD*%
D29*
%TO.C,R3*%
X7509000Y-39801800D03*
X9509000Y-39801800D03*
%TD*%
D26*
%TO.C,R8*%
X49072800Y-30556200D03*
X49072800Y-28556200D03*
%TD*%
D29*
%TO.C,R6*%
X7407400Y-51231800D03*
X9407400Y-51231800D03*
%TD*%
D23*
%TO.C,J7*%
X3000000Y-55014284D03*
X3000000Y-51204284D03*
%TD*%
D28*
%TO.C,C7*%
X29464000Y-58195300D03*
X29464000Y-60270300D03*
%TD*%
D31*
%TO.C,CON2*%
X54388000Y-83897600D03*
X54388000Y-82897600D03*
X54388000Y-81897600D03*
X54388000Y-80897600D03*
D32*
X57810400Y-85598000D03*
X57810400Y-79146400D03*
%TD*%
D33*
%TO.C,IC2*%
X53304400Y-23011600D03*
X55204400Y-23011600D03*
X54254400Y-20911600D03*
%TD*%
D28*
%TO.C,C1*%
X29464000Y-13186500D03*
X29464000Y-15261500D03*
%TD*%
D23*
%TO.C,J6*%
X3000000Y-66442855D03*
X3000000Y-62632855D03*
%TD*%
D25*
%TO.C,H2*%
X56235600Y-3982200D03*
%TD*%
D34*
%TO.C,C2*%
X24000000Y-6473100D03*
X24000000Y-4398100D03*
%TD*%
D28*
%TO.C,C4*%
X29464000Y-40085100D03*
X29464000Y-42160100D03*
%TD*%
D30*
%TO.C,R11*%
X6527800Y-85461600D03*
X6527800Y-87461600D03*
%TD*%
%TO.C,R1*%
X13665200Y-16170400D03*
X13665200Y-18170400D03*
%TD*%
D24*
%TO.C,C6*%
X49000500Y-58013600D03*
X51075500Y-58013600D03*
%TD*%
D23*
%TO.C,J9*%
X3000000Y-77871426D03*
X3000000Y-74061426D03*
%TD*%
D28*
%TO.C,C5*%
X29438600Y-31209616D03*
X29438600Y-33284616D03*
%TD*%
D25*
%TO.C,H1*%
X12000000Y-3982200D03*
%TD*%
%TO.C,H3*%
X12000000Y-91262200D03*
%TD*%
D28*
%TO.C,C12*%
X29514800Y-77346900D03*
X29514800Y-79421900D03*
%TD*%
D24*
%TO.C,C10*%
X24032300Y-84785200D03*
X26107300Y-84785200D03*
%TD*%
D29*
%TO.C,R4*%
X7585200Y-28321000D03*
X9585200Y-28321000D03*
%TD*%
D35*
%TO.C,IC1*%
X40149800Y-60985400D03*
X40149800Y-62255400D03*
X40149800Y-63525400D03*
X40149800Y-64795400D03*
X40149800Y-66065400D03*
X40149800Y-67335400D03*
X40149800Y-68605400D03*
X40149800Y-69875400D03*
X45549800Y-69875400D03*
X45549800Y-68605400D03*
X45549800Y-67335400D03*
X45549800Y-66065400D03*
X45549800Y-64795400D03*
X45549800Y-63525400D03*
X45549800Y-62255400D03*
X45549800Y-60985400D03*
%TD*%
%LPD*%
M02*
