%TF.GenerationSoftware,KiCad,Pcbnew,9.0.1*%
%TF.CreationDate,2025-04-04T11:50:33+11:00*%
%TF.ProjectId,v7_equip_analog,76375f65-7175-4697-905f-616e616c6f67,rev?*%
%TF.SameCoordinates,Original*%
%TF.FileFunction,Copper,L2,Bot*%
%TF.FilePolarity,Positive*%
%FSLAX46Y46*%
G04 Gerber Fmt 4.6, Leading zero omitted, Abs format (unit mm)*
G04 Created by KiCad (PCBNEW 9.0.1) date 2025-04-04 11:50:33*
%MOMM*%
%LPD*%
G01*
G04 APERTURE LIST*
%TA.AperFunction,ComponentPad*%
%ADD10R,1.700000X1.700000*%
%TD*%
%TA.AperFunction,ComponentPad*%
%ADD11C,1.700000*%
%TD*%
%TA.AperFunction,ComponentPad*%
%ADD12C,1.440000*%
%TD*%
%TA.AperFunction,ComponentPad*%
%ADD13C,2.100000*%
%TD*%
%TA.AperFunction,ViaPad*%
%ADD14C,0.889000*%
%TD*%
%TA.AperFunction,Conductor*%
%ADD15C,1.016000*%
%TD*%
%TA.AperFunction,Conductor*%
%ADD16C,0.508000*%
%TD*%
%TA.AperFunction,Conductor*%
%ADD17C,0.406400*%
%TD*%
G04 APERTURE END LIST*
D10*
%TO.P,J8,1,Pin_1*%
%TO.N,/GP21*%
X47802800Y-53441600D03*
D11*
%TO.P,J8,2,Pin_2*%
%TO.N,/CS!*%
X45262800Y-53441600D03*
%TO.P,J8,3,Pin_3*%
%TO.N,/GP20*%
X47802800Y-50901600D03*
%TO.P,J8,4,Pin_4*%
%TO.N,/CS!*%
X45262800Y-50901600D03*
%TO.P,J8,5,Pin_5*%
%TO.N,/GP19*%
X47802800Y-48361600D03*
%TO.P,J8,6,Pin_6*%
%TO.N,/CS!*%
X45262800Y-48361600D03*
%TO.P,J8,7,Pin_7*%
%TO.N,/GP18*%
X47802800Y-45821600D03*
%TO.P,J8,8,Pin_8*%
%TO.N,/CS!*%
X45262800Y-45821600D03*
%TD*%
D10*
%TO.P,J3,1,Pin_1*%
%TO.N,+5V*%
X54991000Y-37439600D03*
D11*
%TO.P,J3,2,Pin_2*%
X57531000Y-37439600D03*
%TO.P,J3,3,Pin_3*%
X54991000Y-39979600D03*
%TO.P,J3,4,Pin_4*%
%TO.N,GND*%
X57531000Y-39979600D03*
%TO.P,J3,5,Pin_5*%
%TO.N,+3V3*%
X54991000Y-42519600D03*
%TO.P,J3,6,Pin_6*%
%TO.N,/GP15*%
X57531000Y-42519600D03*
%TO.P,J3,7,Pin_7*%
%TO.N,/GP16*%
X54991000Y-45059600D03*
%TO.P,J3,8,Pin_8*%
%TO.N,/GP14*%
X57531000Y-45059600D03*
%TO.P,J3,9,Pin_9*%
%TO.N,/GP17*%
X54991000Y-47599600D03*
%TO.P,J3,10,Pin_10*%
%TO.N,/GP13*%
X57531000Y-47599600D03*
%TO.P,J3,11,Pin_11*%
%TO.N,/GP18*%
X54991000Y-50139600D03*
%TO.P,J3,12,Pin_12*%
%TO.N,/GP12*%
X57531000Y-50139600D03*
%TO.P,J3,13,Pin_13*%
%TO.N,/GP19*%
X54991000Y-52679600D03*
%TO.P,J3,14,Pin_14*%
%TO.N,/GP11*%
X57531000Y-52679600D03*
%TO.P,J3,15,Pin_15*%
%TO.N,/GP20*%
X54991000Y-55219600D03*
%TO.P,J3,16,Pin_16*%
%TO.N,/GP10*%
X57531000Y-55219600D03*
%TO.P,J3,17,Pin_17*%
%TO.N,/GP21*%
X54991000Y-57759600D03*
%TO.P,J3,18,Pin_18*%
%TO.N,/GP9*%
X57531000Y-57759600D03*
%TO.P,J3,19,Pin_19*%
%TO.N,/MOSI*%
X54991000Y-60299600D03*
%TO.P,J3,20,Pin_20*%
%TO.N,/GP8*%
X57531000Y-60299600D03*
%TO.P,J3,21,Pin_21*%
%TO.N,/SCK*%
X54991000Y-62839600D03*
%TO.P,J3,22,Pin_22*%
%TO.N,/GP7*%
X57531000Y-62839600D03*
%TO.P,J3,23,Pin_23*%
%TO.N,/GP1*%
X54991000Y-65379600D03*
%TO.P,J3,24,Pin_24*%
%TO.N,/GP6*%
X57531000Y-65379600D03*
%TO.P,J3,25,Pin_25*%
%TO.N,/MISO*%
X54991000Y-67919600D03*
%TO.P,J3,26,Pin_26*%
%TO.N,/GP5*%
X57531000Y-67919600D03*
%TO.P,J3,27,Pin_27*%
%TO.N,GND*%
X54991000Y-70459600D03*
%TO.P,J3,28,Pin_28*%
%TO.N,/GP4*%
X57531000Y-70459600D03*
%TO.P,J3,29,Pin_29*%
%TO.N,GND*%
X54991000Y-72999600D03*
%TO.P,J3,30,Pin_30*%
X57531000Y-72999600D03*
%TD*%
D10*
%TO.P,CON1,1,Pin_1*%
%TO.N,GND*%
X49123600Y-92252800D03*
D11*
%TO.P,CON1,2,Pin_2*%
%TO.N,+3V3*%
X46583600Y-92252800D03*
%TO.P,CON1,3,Pin_3*%
%TO.N,/GP6*%
X44043600Y-92252800D03*
%TO.P,CON1,4,Pin_4*%
%TO.N,/GP7*%
X41503600Y-92252800D03*
%TD*%
D12*
%TO.P,RV8,1,1*%
%TO.N,GND*%
X16713200Y-84683600D03*
%TO.P,RV8,2,2*%
%TO.N,/IN7*%
X14173200Y-84683600D03*
%TO.P,RV8,3,3*%
%TO.N,Net-(R11-Pad2)*%
X11633200Y-84683600D03*
%TD*%
%TO.P,RV2,1,1*%
%TO.N,GND*%
X14554200Y-22136100D03*
%TO.P,RV2,2,2*%
%TO.N,/IN1*%
X12014200Y-22136100D03*
%TO.P,RV2,3,3*%
%TO.N,Net-(R2-Pad2)*%
X9474200Y-22136100D03*
%TD*%
%TO.P,RV5,1,1*%
%TO.N,GND*%
X14554200Y-67805300D03*
%TO.P,RV5,2,2*%
%TO.N,/IN5*%
X12014200Y-67805300D03*
%TO.P,RV5,3,3*%
%TO.N,Net-(R5-Pad2)*%
X9474200Y-67805300D03*
%TD*%
%TO.P,RV4,1,1*%
%TO.N,GND*%
X14554200Y-33553400D03*
%TO.P,RV4,2,2*%
%TO.N,/IN2*%
X12014200Y-33553400D03*
%TO.P,RV4,3,3*%
%TO.N,Net-(R4-Pad2)*%
X9474200Y-33553400D03*
%TD*%
%TO.P,RV6,1,1*%
%TO.N,GND*%
X14554200Y-56388000D03*
%TO.P,RV6,2,2*%
%TO.N,/IN4*%
X12014200Y-56388000D03*
%TO.P,RV6,3,3*%
%TO.N,Net-(R6-Pad2)*%
X9474200Y-56388000D03*
%TD*%
%TO.P,RV7,1,1*%
%TO.N,GND*%
X14554200Y-79222600D03*
%TO.P,RV7,2,2*%
%TO.N,/IN6*%
X12014200Y-79222600D03*
%TO.P,RV7,3,3*%
%TO.N,Net-(R10-Pad2)*%
X9474200Y-79222600D03*
%TD*%
%TO.P,RV3,1,1*%
%TO.N,GND*%
X14554200Y-44970700D03*
%TO.P,RV3,2,2*%
%TO.N,/IN3*%
X12014200Y-44970700D03*
%TO.P,RV3,3,3*%
%TO.N,Net-(R3-Pad2)*%
X9474200Y-44970700D03*
%TD*%
%TO.P,RV1,1,1*%
%TO.N,GND*%
X14554200Y-10718800D03*
%TO.P,RV1,2,2*%
%TO.N,/IN0*%
X12014200Y-10718800D03*
%TO.P,RV1,3,3*%
%TO.N,Net-(R1-Pad2)*%
X9474200Y-10718800D03*
%TD*%
D13*
%TO.P,J1,1,Pin_1*%
%TO.N,GND*%
X3000000Y-9300000D03*
%TO.P,J1,2,Pin_2*%
%TO.N,/A0*%
X3000000Y-5490000D03*
%TD*%
%TO.P,J4,1,Pin_1*%
%TO.N,GND*%
X3000000Y-43585713D03*
%TO.P,J4,2,Pin_2*%
%TO.N,/A3*%
X3000000Y-39775713D03*
%TD*%
%TO.P,J5,1,Pin_1*%
%TO.N,GND*%
X3000000Y-32157142D03*
%TO.P,J5,2,Pin_2*%
%TO.N,/A2*%
X3000000Y-28347142D03*
%TD*%
%TO.P,J2,1,Pin_1*%
%TO.N,GND*%
X3000000Y-20728571D03*
%TO.P,J2,2,Pin_2*%
%TO.N,/A1*%
X3000000Y-16918571D03*
%TD*%
%TO.P,J10,1,Pin_1*%
%TO.N,GND*%
X3000000Y-89300000D03*
%TO.P,J10,2,Pin_2*%
%TO.N,/A7*%
X3000000Y-85490000D03*
%TD*%
%TO.P,J7,1,Pin_1*%
%TO.N,GND*%
X3000000Y-55014284D03*
%TO.P,J7,2,Pin_2*%
%TO.N,/A4*%
X3000000Y-51204284D03*
%TD*%
%TO.P,J6,1,Pin_1*%
%TO.N,GND*%
X3000000Y-66442855D03*
%TO.P,J6,2,Pin_2*%
%TO.N,/A5*%
X3000000Y-62632855D03*
%TD*%
%TO.P,J9,1,Pin_1*%
%TO.N,GND*%
X3000000Y-77871426D03*
%TO.P,J9,2,Pin_2*%
%TO.N,/A6*%
X3000000Y-74061426D03*
%TD*%
D14*
%TO.N,GND*%
X29565600Y-18999200D03*
X29413200Y-36982400D03*
X23977600Y-1422400D03*
X29514800Y-74523600D03*
X42926000Y-72771000D03*
X51536600Y-18973800D03*
X29514800Y-64820800D03*
X29540200Y-46075600D03*
X49123600Y-70612000D03*
X29565600Y-82042000D03*
X51866800Y-59994800D03*
X53035200Y-85902800D03*
X45974000Y-56159400D03*
X42799000Y-56108600D03*
X29438600Y-28067000D03*
X29540200Y-55219600D03*
X40690800Y-78663800D03*
X42875200Y-63550800D03*
X42189400Y-18932400D03*
%TO.N,+3V3*%
X24003000Y-64820800D03*
X23952200Y-28092400D03*
X24032300Y-82092800D03*
X23926800Y-55219600D03*
X47447200Y-58039000D03*
X24026100Y-74625200D03*
X23926800Y-19024600D03*
X23937500Y-37007800D03*
X46575000Y-78684000D03*
X24003000Y-46075600D03*
X24003000Y-9144000D03*
%TO.N,/MOSI*%
X49098200Y-68199000D03*
%TO.N,/GP7*%
X49860200Y-79526000D03*
%TO.N,/GP6*%
X49860200Y-81864200D03*
%TO.N,/CS!*%
X42926000Y-68580000D03*
%TD*%
D15*
%TO.N,+3V3*%
X46575000Y-78684000D02*
X46575000Y-92244200D01*
X47447200Y-58039000D02*
X47472600Y-58039000D01*
X51460400Y-42570400D02*
X51485800Y-42545000D01*
X51460400Y-54051200D02*
X51460400Y-42570400D01*
X47472600Y-58039000D02*
X51460400Y-54051200D01*
X46575000Y-78616000D02*
X46575000Y-58911200D01*
X46575000Y-58911200D02*
X47447200Y-58039000D01*
X24003000Y-9144000D02*
X24003000Y-82063500D01*
X24033400Y-42519600D02*
X54997400Y-42519600D01*
X46575000Y-92244200D02*
X46583600Y-92252800D01*
X24003000Y-82063500D02*
X24032300Y-82092800D01*
%TO.N,+5V*%
X57531000Y-37439600D02*
X54991000Y-37439600D01*
D16*
%TO.N,/MOSI*%
X49098200Y-68199000D02*
X49123600Y-68173600D01*
X53921600Y-60302200D02*
X55000000Y-60302200D01*
X49123600Y-68173600D02*
X49123600Y-65100200D01*
X49123600Y-65100200D02*
X53921600Y-60302200D01*
D17*
%TO.N,/GP7*%
X53568600Y-64109600D02*
X56261000Y-64109600D01*
X50901600Y-78484600D02*
X50901600Y-66776600D01*
X49860200Y-79526000D02*
X50901600Y-78484600D01*
X50901600Y-66776600D02*
X53568600Y-64109600D01*
X56261000Y-64109600D02*
X57531000Y-62839600D01*
%TO.N,/GP6*%
X49860200Y-81864200D02*
X52400200Y-79324200D01*
X52400200Y-79324200D02*
X52400200Y-67868800D01*
X52400200Y-67868800D02*
X53619400Y-66649600D01*
X56261000Y-66649600D02*
X57531000Y-65379600D01*
X53619400Y-66649600D02*
X56261000Y-66649600D01*
D16*
%TO.N,/CS!*%
X44373800Y-54330600D02*
X45262800Y-53441600D01*
X42926000Y-68580000D02*
X44373800Y-67132200D01*
X44373800Y-67132200D02*
X44373800Y-54330600D01*
%TD*%
%TA.AperFunction,Conductor*%
%TO.N,GND*%
G36*
X9196398Y-638265D02*
G01*
X9226462Y-690336D01*
X9216021Y-749550D01*
X9196398Y-772935D01*
X9118871Y-837988D01*
X9118866Y-837992D01*
X8855792Y-1101066D01*
X8855788Y-1101071D01*
X8616654Y-1386058D01*
X8616649Y-1386065D01*
X8403261Y-1690813D01*
X8217237Y-2013016D01*
X8217232Y-2013027D01*
X8060010Y-2350190D01*
X8060007Y-2350198D01*
X7932762Y-2699801D01*
X7836468Y-3059171D01*
X7771866Y-3425547D01*
X7771865Y-3425553D01*
X7771865Y-3425556D01*
X7739440Y-3796180D01*
X7739440Y-4168220D01*
X7771631Y-4536172D01*
X7771866Y-4538852D01*
X7824014Y-4834598D01*
X7836469Y-4905232D01*
X7932761Y-5264596D01*
X8050622Y-5588415D01*
X8060007Y-5614201D01*
X8060010Y-5614209D01*
X8217232Y-5951372D01*
X8217237Y-5951383D01*
X8403261Y-6273586D01*
X8573971Y-6517384D01*
X8616650Y-6578336D01*
X8855793Y-6863335D01*
X9118865Y-7126407D01*
X9403864Y-7365550D01*
X9510448Y-7440181D01*
X9708613Y-7578938D01*
X9708622Y-7578943D01*
X10030818Y-7764963D01*
X10368001Y-7922194D01*
X10717604Y-8049439D01*
X11076968Y-8145731D01*
X11443356Y-8210335D01*
X11813980Y-8242760D01*
X11813984Y-8242760D01*
X12186016Y-8242760D01*
X12186020Y-8242760D01*
X12556644Y-8210335D01*
X12923032Y-8145731D01*
X13282396Y-8049439D01*
X13631999Y-7922194D01*
X13969182Y-7764963D01*
X14291378Y-7578943D01*
X14291381Y-7578940D01*
X14291386Y-7578938D01*
X14382966Y-7514812D01*
X14596136Y-7365550D01*
X14881135Y-7126407D01*
X15144207Y-6863335D01*
X15383350Y-6578336D01*
X15574989Y-6304646D01*
X15596738Y-6273586D01*
X15596743Y-6273578D01*
X15782763Y-5951382D01*
X15939994Y-5614199D01*
X16067239Y-5264596D01*
X16163531Y-4905232D01*
X16228135Y-4538844D01*
X16260560Y-4168220D01*
X16260560Y-3796180D01*
X16228135Y-3425556D01*
X16163531Y-3059168D01*
X16067239Y-2699804D01*
X15939994Y-2350201D01*
X15782763Y-2013018D01*
X15596743Y-1690822D01*
X15596738Y-1690813D01*
X15457981Y-1492648D01*
X15383350Y-1386064D01*
X15144207Y-1101065D01*
X14881135Y-837993D01*
X14803601Y-772934D01*
X14773538Y-720863D01*
X14783980Y-661650D01*
X14830040Y-623001D01*
X14860103Y-617700D01*
X53375497Y-617700D01*
X53431998Y-638265D01*
X53462062Y-690336D01*
X53451621Y-749550D01*
X53431998Y-772935D01*
X53354471Y-837988D01*
X53354466Y-837992D01*
X53091392Y-1101066D01*
X53091388Y-1101071D01*
X52852254Y-1386058D01*
X52852249Y-1386065D01*
X52638861Y-1690813D01*
X52452837Y-2013016D01*
X52452832Y-2013027D01*
X52295610Y-2350190D01*
X52295607Y-2350198D01*
X52168362Y-2699801D01*
X52072068Y-3059171D01*
X52007466Y-3425547D01*
X52007465Y-3425553D01*
X52007465Y-3425556D01*
X51975040Y-3796180D01*
X51975040Y-4168220D01*
X52007231Y-4536172D01*
X52007466Y-4538852D01*
X52059614Y-4834598D01*
X52072069Y-4905232D01*
X52168361Y-5264596D01*
X52286222Y-5588415D01*
X52295607Y-5614201D01*
X52295610Y-5614209D01*
X52452832Y-5951372D01*
X52452837Y-5951383D01*
X52638861Y-6273586D01*
X52809571Y-6517384D01*
X52852250Y-6578336D01*
X53091393Y-6863335D01*
X53354465Y-7126407D01*
X53639464Y-7365550D01*
X53746048Y-7440181D01*
X53944213Y-7578938D01*
X53944222Y-7578943D01*
X54266418Y-7764963D01*
X54603601Y-7922194D01*
X54953204Y-8049439D01*
X55312568Y-8145731D01*
X55678956Y-8210335D01*
X56049580Y-8242760D01*
X56049584Y-8242760D01*
X56421616Y-8242760D01*
X56421620Y-8242760D01*
X56792244Y-8210335D01*
X57158632Y-8145731D01*
X57517996Y-8049439D01*
X57867599Y-7922194D01*
X58204782Y-7764963D01*
X58526978Y-7578943D01*
X58526981Y-7578940D01*
X58526986Y-7578938D01*
X58618566Y-7514812D01*
X58831736Y-7365550D01*
X59116735Y-7126407D01*
X59214446Y-7028695D01*
X59268939Y-7003285D01*
X59327017Y-7018848D01*
X59361505Y-7068101D01*
X59364500Y-7090851D01*
X59364500Y-88204348D01*
X59343935Y-88260849D01*
X59291864Y-88290913D01*
X59232650Y-88280472D01*
X59214446Y-88266503D01*
X59065945Y-88118003D01*
X59065935Y-88117993D01*
X58780936Y-87878850D01*
X58719984Y-87836171D01*
X58476186Y-87665461D01*
X58153983Y-87479437D01*
X58153972Y-87479432D01*
X57816809Y-87322210D01*
X57816801Y-87322207D01*
X57816799Y-87322206D01*
X57467196Y-87194961D01*
X57107832Y-87098669D01*
X57107831Y-87098668D01*
X57107828Y-87098668D01*
X56741452Y-87034066D01*
X56741447Y-87034065D01*
X56741444Y-87034065D01*
X56370820Y-87001640D01*
X55998780Y-87001640D01*
X55998779Y-87001640D01*
X55890729Y-87011093D01*
X55628156Y-87034065D01*
X55628153Y-87034065D01*
X55628147Y-87034066D01*
X55261771Y-87098668D01*
X55082086Y-87146815D01*
X54902404Y-87194961D01*
X54902401Y-87194961D01*
X54902401Y-87194962D01*
X54552798Y-87322207D01*
X54552790Y-87322210D01*
X54215627Y-87479432D01*
X54215616Y-87479437D01*
X53893413Y-87665461D01*
X53588665Y-87878849D01*
X53588658Y-87878854D01*
X53303671Y-88117988D01*
X53303666Y-88117992D01*
X53040592Y-88381066D01*
X53040588Y-88381071D01*
X52801454Y-88666058D01*
X52801449Y-88666065D01*
X52588061Y-88970813D01*
X52402037Y-89293016D01*
X52402032Y-89293027D01*
X52244810Y-89630190D01*
X52244807Y-89630198D01*
X52117562Y-89979801D01*
X52021268Y-90339171D01*
X51956666Y-90705547D01*
X51956665Y-90705553D01*
X51956665Y-90705556D01*
X51924240Y-91076180D01*
X51924240Y-91448220D01*
X51929151Y-91504359D01*
X51956666Y-91818852D01*
X52021268Y-92185226D01*
X52021269Y-92185232D01*
X52117561Y-92544596D01*
X52123098Y-92559807D01*
X52244807Y-92894201D01*
X52244810Y-92894209D01*
X52402032Y-93231372D01*
X52402037Y-93231383D01*
X52588061Y-93553586D01*
X52758771Y-93797384D01*
X52801450Y-93858336D01*
X53040593Y-94143335D01*
X53093904Y-94196646D01*
X53119315Y-94251139D01*
X53103752Y-94309217D01*
X53054499Y-94343705D01*
X53031749Y-94346700D01*
X15153051Y-94346700D01*
X15096550Y-94326135D01*
X15066486Y-94274064D01*
X15076927Y-94214850D01*
X15090892Y-94196649D01*
X15144207Y-94143335D01*
X15383350Y-93858336D01*
X15532612Y-93645166D01*
X15596738Y-93553586D01*
X15741241Y-93303300D01*
X15782763Y-93231382D01*
X15939994Y-92894199D01*
X16067239Y-92544596D01*
X16163531Y-92185232D01*
X16169860Y-92149336D01*
X40453100Y-92149336D01*
X40453100Y-92356263D01*
X40493467Y-92559211D01*
X40493469Y-92559216D01*
X40493470Y-92559220D01*
X40572659Y-92750398D01*
X40572660Y-92750400D01*
X40572661Y-92750401D01*
X40687619Y-92922450D01*
X40687620Y-92922451D01*
X40687623Y-92922455D01*
X40833945Y-93068777D01*
X41006002Y-93183741D01*
X41197180Y-93262930D01*
X41197185Y-93262931D01*
X41197188Y-93262932D01*
X41300032Y-93283388D01*
X41400135Y-93303300D01*
X41400137Y-93303300D01*
X41607063Y-93303300D01*
X41607065Y-93303300D01*
X41773054Y-93270283D01*
X41810011Y-93262932D01*
X41810012Y-93262931D01*
X41810020Y-93262930D01*
X42001198Y-93183741D01*
X42173255Y-93068777D01*
X42319577Y-92922455D01*
X42434541Y-92750398D01*
X42513730Y-92559220D01*
X42516639Y-92544598D01*
X42554100Y-92356263D01*
X42554100Y-92149336D01*
X42993100Y-92149336D01*
X42993100Y-92356263D01*
X43033467Y-92559211D01*
X43033469Y-92559216D01*
X43033470Y-92559220D01*
X43112659Y-92750398D01*
X43112660Y-92750400D01*
X43112661Y-92750401D01*
X43227619Y-92922450D01*
X43227620Y-92922451D01*
X43227623Y-92922455D01*
X43373945Y-93068777D01*
X43546002Y-93183741D01*
X43737180Y-93262930D01*
X43737185Y-93262931D01*
X43737188Y-93262932D01*
X43840032Y-93283388D01*
X43940135Y-93303300D01*
X43940137Y-93303300D01*
X44147063Y-93303300D01*
X44147065Y-93303300D01*
X44313054Y-93270283D01*
X44350011Y-93262932D01*
X44350012Y-93262931D01*
X44350020Y-93262930D01*
X44541198Y-93183741D01*
X44713255Y-93068777D01*
X44859577Y-92922455D01*
X44974541Y-92750398D01*
X45053730Y-92559220D01*
X45056639Y-92544598D01*
X45094100Y-92356263D01*
X45094100Y-92149336D01*
X45053732Y-91946388D01*
X45053731Y-91946385D01*
X45053730Y-91946380D01*
X44974541Y-91755202D01*
X44859577Y-91583145D01*
X44713255Y-91436823D01*
X44713251Y-91436820D01*
X44713250Y-91436819D01*
X44541201Y-91321861D01*
X44541200Y-91321860D01*
X44541198Y-91321859D01*
X44350020Y-91242670D01*
X44350016Y-91242669D01*
X44350011Y-91242667D01*
X44197284Y-91212289D01*
X44147065Y-91202300D01*
X43940135Y-91202300D01*
X43895444Y-91211189D01*
X43737188Y-91242667D01*
X43737183Y-91242669D01*
X43737181Y-91242669D01*
X43737180Y-91242670D01*
X43546002Y-91321859D01*
X43546000Y-91321859D01*
X43545998Y-91321861D01*
X43373949Y-91436819D01*
X43227619Y-91583149D01*
X43112661Y-91755198D01*
X43112659Y-91755200D01*
X43112659Y-91755202D01*
X43033713Y-91945793D01*
X43033469Y-91946383D01*
X43033467Y-91946388D01*
X42993100Y-92149336D01*
X42554100Y-92149336D01*
X42513732Y-91946388D01*
X42513731Y-91946385D01*
X42513730Y-91946380D01*
X42434541Y-91755202D01*
X42319577Y-91583145D01*
X42173255Y-91436823D01*
X42173251Y-91436820D01*
X42173250Y-91436819D01*
X42001201Y-91321861D01*
X42001200Y-91321860D01*
X42001198Y-91321859D01*
X41810020Y-91242670D01*
X41810016Y-91242669D01*
X41810011Y-91242667D01*
X41657284Y-91212289D01*
X41607065Y-91202300D01*
X41400135Y-91202300D01*
X41355444Y-91211189D01*
X41197188Y-91242667D01*
X41197183Y-91242669D01*
X41197181Y-91242669D01*
X41197180Y-91242670D01*
X41006002Y-91321859D01*
X41006000Y-91321859D01*
X41005998Y-91321861D01*
X40833949Y-91436819D01*
X40687619Y-91583149D01*
X40572661Y-91755198D01*
X40572659Y-91755200D01*
X40572659Y-91755202D01*
X40493713Y-91945793D01*
X40493469Y-91946383D01*
X40493467Y-91946388D01*
X40453100Y-92149336D01*
X16169860Y-92149336D01*
X16228135Y-91818844D01*
X16260560Y-91448220D01*
X16260560Y-91076180D01*
X16228135Y-90705556D01*
X16163531Y-90339168D01*
X16067239Y-89979804D01*
X15939994Y-89630201D01*
X15782763Y-89293018D01*
X15596743Y-88970822D01*
X15596738Y-88970813D01*
X15407112Y-88700000D01*
X15383350Y-88666064D01*
X15144207Y-88381065D01*
X14881135Y-88117993D01*
X14596136Y-87878850D01*
X14535184Y-87836171D01*
X14291386Y-87665461D01*
X13969183Y-87479437D01*
X13969172Y-87479432D01*
X13632009Y-87322210D01*
X13632001Y-87322207D01*
X13631999Y-87322206D01*
X13282396Y-87194961D01*
X12923032Y-87098669D01*
X12923031Y-87098668D01*
X12923028Y-87098668D01*
X12556652Y-87034066D01*
X12556647Y-87034065D01*
X12556644Y-87034065D01*
X12186020Y-87001640D01*
X11813980Y-87001640D01*
X11813979Y-87001640D01*
X11705929Y-87011093D01*
X11443356Y-87034065D01*
X11443353Y-87034065D01*
X11443347Y-87034066D01*
X11076971Y-87098668D01*
X10897286Y-87146815D01*
X10717604Y-87194961D01*
X10717601Y-87194961D01*
X10717601Y-87194962D01*
X10367998Y-87322207D01*
X10367990Y-87322210D01*
X10030827Y-87479432D01*
X10030816Y-87479437D01*
X9708613Y-87665461D01*
X9403865Y-87878849D01*
X9403858Y-87878854D01*
X9118871Y-88117988D01*
X9118866Y-88117992D01*
X8855792Y-88381066D01*
X8855788Y-88381071D01*
X8616654Y-88666058D01*
X8616649Y-88666065D01*
X8403261Y-88970813D01*
X8217237Y-89293016D01*
X8217232Y-89293027D01*
X8060010Y-89630190D01*
X8060007Y-89630198D01*
X7932762Y-89979801D01*
X7836468Y-90339171D01*
X7771866Y-90705547D01*
X7771865Y-90705553D01*
X7771865Y-90705556D01*
X7739440Y-91076180D01*
X7739440Y-91448220D01*
X7744351Y-91504359D01*
X7771866Y-91818852D01*
X7836468Y-92185226D01*
X7836469Y-92185232D01*
X7932761Y-92544596D01*
X7938298Y-92559807D01*
X8060007Y-92894201D01*
X8060010Y-92894209D01*
X8217232Y-93231372D01*
X8217237Y-93231383D01*
X8403261Y-93553586D01*
X8573971Y-93797384D01*
X8616650Y-93858336D01*
X8855793Y-94143335D01*
X8909104Y-94196646D01*
X8934515Y-94251139D01*
X8918952Y-94309217D01*
X8869699Y-94343705D01*
X8846949Y-94346700D01*
X723400Y-94346700D01*
X666899Y-94326135D01*
X636835Y-94274064D01*
X635500Y-94258800D01*
X635500Y-89203371D01*
X1772200Y-89203371D01*
X1772200Y-89396628D01*
X1802430Y-89587506D01*
X1862152Y-89771310D01*
X1949889Y-89943504D01*
X1949895Y-89943515D01*
X1972212Y-89974232D01*
X2435386Y-89511057D01*
X2440889Y-89531591D01*
X2519881Y-89668408D01*
X2631592Y-89780119D01*
X2768409Y-89859111D01*
X2788940Y-89864612D01*
X2325767Y-90327786D01*
X2356491Y-90350108D01*
X2356495Y-90350110D01*
X2528690Y-90437847D01*
X2528689Y-90437847D01*
X2712493Y-90497569D01*
X2903371Y-90527799D01*
X2903372Y-90527800D01*
X3096628Y-90527800D01*
X3096628Y-90527799D01*
X3287506Y-90497569D01*
X3471310Y-90437847D01*
X3471314Y-90437845D01*
X3643508Y-90350108D01*
X3674231Y-90327786D01*
X3211057Y-89864612D01*
X3231591Y-89859111D01*
X3368408Y-89780119D01*
X3480119Y-89668408D01*
X3559111Y-89531591D01*
X3564612Y-89511057D01*
X4027786Y-89974231D01*
X4050108Y-89943508D01*
X4137845Y-89771314D01*
X4137847Y-89771310D01*
X4197569Y-89587506D01*
X4227799Y-89396628D01*
X4227800Y-89396628D01*
X4227800Y-89203371D01*
X4197569Y-89012493D01*
X4137847Y-88828689D01*
X4050110Y-88656495D01*
X4050108Y-88656491D01*
X4027786Y-88625767D01*
X3564612Y-89088940D01*
X3559111Y-89068409D01*
X3480119Y-88931592D01*
X3368408Y-88819881D01*
X3231591Y-88740889D01*
X3211057Y-88735386D01*
X3674232Y-88272212D01*
X3643515Y-88249895D01*
X3643504Y-88249889D01*
X3471309Y-88162152D01*
X3471310Y-88162152D01*
X3287506Y-88102430D01*
X3096629Y-88072200D01*
X2903371Y-88072200D01*
X2712493Y-88102430D01*
X2528692Y-88162151D01*
X2356491Y-88249892D01*
X2356487Y-88249894D01*
X2325767Y-88272212D01*
X2325767Y-88272213D01*
X2788941Y-88735387D01*
X2768409Y-88740889D01*
X2631592Y-88819881D01*
X2519881Y-88931592D01*
X2440889Y-89068409D01*
X2435387Y-89088941D01*
X1972213Y-88625767D01*
X1972212Y-88625767D01*
X1949894Y-88656487D01*
X1949892Y-88656491D01*
X1862151Y-88828692D01*
X1802430Y-89012493D01*
X1772200Y-89203371D01*
X635500Y-89203371D01*
X635500Y-85391584D01*
X1749500Y-85391584D01*
X1749500Y-85588415D01*
X1780289Y-85782821D01*
X1780291Y-85782826D01*
X1841116Y-85970025D01*
X1930476Y-86145405D01*
X2046172Y-86304646D01*
X2185354Y-86443828D01*
X2344595Y-86559524D01*
X2519975Y-86648884D01*
X2707174Y-86709709D01*
X2707175Y-86709709D01*
X2707178Y-86709710D01*
X2753899Y-86717109D01*
X2901583Y-86740500D01*
X2901585Y-86740500D01*
X3098415Y-86740500D01*
X3098417Y-86740500D01*
X3266291Y-86713911D01*
X3292821Y-86709710D01*
X3292822Y-86709709D01*
X3292826Y-86709709D01*
X3480025Y-86648884D01*
X3655405Y-86559524D01*
X3814646Y-86443828D01*
X3953828Y-86304646D01*
X4069524Y-86145405D01*
X4158884Y-85970025D01*
X4219709Y-85782826D01*
X4250500Y-85588417D01*
X4250500Y-85391583D01*
X4241208Y-85332918D01*
X4219710Y-85197178D01*
X4191017Y-85108869D01*
X4158884Y-85009975D01*
X4069524Y-84834595D01*
X3953828Y-84675354D01*
X3871414Y-84592940D01*
X10712700Y-84592940D01*
X10712700Y-84774259D01*
X10748072Y-84952096D01*
X10748073Y-84952100D01*
X10772048Y-85009979D01*
X10817463Y-85119620D01*
X10918201Y-85270385D01*
X11046415Y-85398599D01*
X11197180Y-85499337D01*
X11312000Y-85546897D01*
X11364699Y-85568726D01*
X11364703Y-85568727D01*
X11428417Y-85581400D01*
X11542539Y-85604100D01*
X11542541Y-85604100D01*
X11723859Y-85604100D01*
X11723861Y-85604100D01*
X11841344Y-85580731D01*
X11901696Y-85568727D01*
X11901700Y-85568726D01*
X12069220Y-85499337D01*
X12219985Y-85398599D01*
X12348199Y-85270385D01*
X12448937Y-85119620D01*
X12518326Y-84952100D01*
X12553700Y-84774261D01*
X12553700Y-84592940D01*
X13252700Y-84592940D01*
X13252700Y-84774259D01*
X13288072Y-84952096D01*
X13288073Y-84952100D01*
X13312048Y-85009979D01*
X13357463Y-85119620D01*
X13458201Y-85270385D01*
X13586415Y-85398599D01*
X13737180Y-85499337D01*
X13852000Y-85546897D01*
X13904699Y-85568726D01*
X13904703Y-85568727D01*
X13968417Y-85581400D01*
X14082539Y-85604100D01*
X14082541Y-85604100D01*
X14263859Y-85604100D01*
X14263861Y-85604100D01*
X14381344Y-85580731D01*
X14441696Y-85568727D01*
X14441700Y-85568726D01*
X14609220Y-85499337D01*
X14759985Y-85398599D01*
X14888199Y-85270385D01*
X14988937Y-85119620D01*
X15058326Y-84952100D01*
X15093700Y-84774261D01*
X15093700Y-84595175D01*
X15815400Y-84595175D01*
X15815400Y-84772024D01*
X15849900Y-84945475D01*
X15849902Y-84945479D01*
X15917579Y-85108868D01*
X15924307Y-85118937D01*
X16313200Y-84730044D01*
X16313200Y-84736261D01*
X16340459Y-84837994D01*
X16393120Y-84929206D01*
X16467594Y-85003680D01*
X16558806Y-85056341D01*
X16660539Y-85083600D01*
X16666752Y-85083600D01*
X16277861Y-85472491D01*
X16287934Y-85479221D01*
X16451320Y-85546897D01*
X16451324Y-85546899D01*
X16624776Y-85581400D01*
X16801624Y-85581400D01*
X16975075Y-85546899D01*
X16975079Y-85546897D01*
X17138469Y-85479219D01*
X17148537Y-85472491D01*
X16759646Y-85083600D01*
X16765861Y-85083600D01*
X16867594Y-85056341D01*
X16958806Y-85003680D01*
X17033280Y-84929206D01*
X17085941Y-84837994D01*
X17113200Y-84736261D01*
X17113200Y-84730046D01*
X17502091Y-85118937D01*
X17508819Y-85108869D01*
X17576497Y-84945479D01*
X17576499Y-84945475D01*
X17611000Y-84772024D01*
X17611000Y-84595175D01*
X17576499Y-84421724D01*
X17576497Y-84421720D01*
X17508821Y-84258334D01*
X17502090Y-84248261D01*
X17113200Y-84637151D01*
X17113200Y-84630939D01*
X17085941Y-84529206D01*
X17033280Y-84437994D01*
X16958806Y-84363520D01*
X16867594Y-84310859D01*
X16765861Y-84283600D01*
X16759644Y-84283600D01*
X17148537Y-83894707D01*
X17138468Y-83887979D01*
X16975079Y-83820302D01*
X16975075Y-83820300D01*
X16801624Y-83785800D01*
X16624776Y-83785800D01*
X16451324Y-83820300D01*
X16451320Y-83820302D01*
X16287933Y-83887979D01*
X16277861Y-83894707D01*
X16666754Y-84283600D01*
X16660539Y-84283600D01*
X16558806Y-84310859D01*
X16467594Y-84363520D01*
X16393120Y-84437994D01*
X16340459Y-84529206D01*
X16313200Y-84630939D01*
X16313200Y-84637154D01*
X15924307Y-84248261D01*
X15917579Y-84258333D01*
X15849902Y-84421720D01*
X15849900Y-84421724D01*
X15815400Y-84595175D01*
X15093700Y-84595175D01*
X15093700Y-84592939D01*
X15059396Y-84420477D01*
X15058327Y-84415103D01*
X15058326Y-84415099D01*
X15036961Y-84363520D01*
X14988937Y-84247580D01*
X14888199Y-84096815D01*
X14759985Y-83968601D01*
X14609220Y-83867863D01*
X14547339Y-83842231D01*
X14441700Y-83798473D01*
X14441696Y-83798472D01*
X14308015Y-83771882D01*
X14263861Y-83763100D01*
X14082539Y-83763100D01*
X14043260Y-83770912D01*
X13904703Y-83798472D01*
X13904699Y-83798473D01*
X13737178Y-83867864D01*
X13586417Y-83968599D01*
X13458199Y-84096817D01*
X13357464Y-84247578D01*
X13288073Y-84415099D01*
X13288072Y-84415103D01*
X13252700Y-84592940D01*
X12553700Y-84592940D01*
X12553700Y-84592939D01*
X12519396Y-84420477D01*
X12518327Y-84415103D01*
X12518326Y-84415099D01*
X12496961Y-84363520D01*
X12448937Y-84247580D01*
X12348199Y-84096815D01*
X12219985Y-83968601D01*
X12069220Y-83867863D01*
X12007339Y-83842231D01*
X11901700Y-83798473D01*
X11901696Y-83798472D01*
X11768015Y-83771882D01*
X11723861Y-83763100D01*
X11542539Y-83763100D01*
X11503260Y-83770912D01*
X11364703Y-83798472D01*
X11364699Y-83798473D01*
X11197178Y-83867864D01*
X11046417Y-83968599D01*
X10918199Y-84096817D01*
X10817464Y-84247578D01*
X10748073Y-84415099D01*
X10748072Y-84415103D01*
X10712700Y-84592940D01*
X3871414Y-84592940D01*
X3814646Y-84536172D01*
X3769434Y-84503323D01*
X3655407Y-84420477D01*
X3655401Y-84420474D01*
X3644852Y-84415099D01*
X3480025Y-84331116D01*
X3480022Y-84331115D01*
X3480020Y-84331114D01*
X3292821Y-84270289D01*
X3120948Y-84243068D01*
X3098417Y-84239500D01*
X2901583Y-84239500D01*
X2881391Y-84242697D01*
X2707178Y-84270289D01*
X2519979Y-84331114D01*
X2344598Y-84420474D01*
X2344592Y-84420477D01*
X2185356Y-84536170D01*
X2185353Y-84536172D01*
X2046172Y-84675353D01*
X2046170Y-84675356D01*
X1930477Y-84834592D01*
X1930474Y-84834598D01*
X1841114Y-85009979D01*
X1780289Y-85197178D01*
X1749500Y-85391584D01*
X635500Y-85391584D01*
X635500Y-79131940D01*
X8553700Y-79131940D01*
X8553700Y-79313259D01*
X8589072Y-79491096D01*
X8589073Y-79491100D01*
X8624304Y-79576153D01*
X8658463Y-79658620D01*
X8759201Y-79809385D01*
X8887415Y-79937599D01*
X9038180Y-80038337D01*
X9153000Y-80085897D01*
X9205699Y-80107726D01*
X9205703Y-80107727D01*
X9269417Y-80120400D01*
X9383539Y-80143100D01*
X9383541Y-80143100D01*
X9564859Y-80143100D01*
X9564861Y-80143100D01*
X9682344Y-80119731D01*
X9742696Y-80107727D01*
X9742700Y-80107726D01*
X9767163Y-80097593D01*
X9910220Y-80038337D01*
X10060985Y-79937599D01*
X10189199Y-79809385D01*
X10289937Y-79658620D01*
X10359326Y-79491100D01*
X10394700Y-79313261D01*
X10394700Y-79131940D01*
X11093700Y-79131940D01*
X11093700Y-79313259D01*
X11129072Y-79491096D01*
X11129073Y-79491100D01*
X11164304Y-79576153D01*
X11198463Y-79658620D01*
X11299201Y-79809385D01*
X11427415Y-79937599D01*
X11578180Y-80038337D01*
X11693000Y-80085897D01*
X11745699Y-80107726D01*
X11745703Y-80107727D01*
X11809417Y-80120400D01*
X11923539Y-80143100D01*
X11923541Y-80143100D01*
X12104859Y-80143100D01*
X12104861Y-80143100D01*
X12222344Y-80119731D01*
X12282696Y-80107727D01*
X12282700Y-80107726D01*
X12307163Y-80097593D01*
X12450220Y-80038337D01*
X12600985Y-79937599D01*
X12729199Y-79809385D01*
X12829937Y-79658620D01*
X12899326Y-79491100D01*
X12934700Y-79313261D01*
X12934700Y-79134175D01*
X13656400Y-79134175D01*
X13656400Y-79311024D01*
X13690900Y-79484475D01*
X13690902Y-79484479D01*
X13758579Y-79647868D01*
X13765307Y-79657937D01*
X14154200Y-79269044D01*
X14154200Y-79275261D01*
X14181459Y-79376994D01*
X14234120Y-79468206D01*
X14308594Y-79542680D01*
X14399806Y-79595341D01*
X14501539Y-79622600D01*
X14507752Y-79622600D01*
X14118861Y-80011491D01*
X14128934Y-80018221D01*
X14292320Y-80085897D01*
X14292324Y-80085899D01*
X14465776Y-80120400D01*
X14642624Y-80120400D01*
X14816075Y-80085899D01*
X14816079Y-80085897D01*
X14979469Y-80018219D01*
X14989537Y-80011491D01*
X14600646Y-79622600D01*
X14606861Y-79622600D01*
X14708594Y-79595341D01*
X14799806Y-79542680D01*
X14874280Y-79468206D01*
X14926941Y-79376994D01*
X14954200Y-79275261D01*
X14954200Y-79269046D01*
X15343091Y-79657937D01*
X15349819Y-79647869D01*
X15417497Y-79484479D01*
X15417499Y-79484475D01*
X15452000Y-79311024D01*
X15452000Y-79134175D01*
X15417499Y-78960724D01*
X15417497Y-78960720D01*
X15349821Y-78797334D01*
X15343090Y-78787261D01*
X14954200Y-79176151D01*
X14954200Y-79169939D01*
X14926941Y-79068206D01*
X14874280Y-78976994D01*
X14799806Y-78902520D01*
X14708594Y-78849859D01*
X14606861Y-78822600D01*
X14600644Y-78822600D01*
X14989537Y-78433707D01*
X14979468Y-78426979D01*
X14816079Y-78359302D01*
X14816075Y-78359300D01*
X14642624Y-78324800D01*
X14465776Y-78324800D01*
X14292324Y-78359300D01*
X14292320Y-78359302D01*
X14128933Y-78426979D01*
X14118861Y-78433707D01*
X14507754Y-78822600D01*
X14501539Y-78822600D01*
X14399806Y-78849859D01*
X14308594Y-78902520D01*
X14234120Y-78976994D01*
X14181459Y-79068206D01*
X14154200Y-79169939D01*
X14154200Y-79176154D01*
X13765307Y-78787261D01*
X13758579Y-78797333D01*
X13690902Y-78960720D01*
X13690900Y-78960724D01*
X13656400Y-79134175D01*
X12934700Y-79134175D01*
X12934700Y-79131939D01*
X12913428Y-79024994D01*
X12899327Y-78954103D01*
X12899326Y-78954099D01*
X12869047Y-78881000D01*
X12829937Y-78786580D01*
X12729199Y-78635815D01*
X12600985Y-78507601D01*
X12450220Y-78406863D01*
X12388339Y-78381231D01*
X12282700Y-78337473D01*
X12282696Y-78337472D01*
X12149015Y-78310882D01*
X12104861Y-78302100D01*
X11923539Y-78302100D01*
X11884260Y-78309912D01*
X11745703Y-78337472D01*
X11745699Y-78337473D01*
X11578178Y-78406864D01*
X11427417Y-78507599D01*
X11299199Y-78635817D01*
X11198464Y-78786578D01*
X11129073Y-78954099D01*
X11129072Y-78954103D01*
X11093700Y-79131940D01*
X10394700Y-79131940D01*
X10394700Y-79131939D01*
X10373428Y-79024994D01*
X10359327Y-78954103D01*
X10359326Y-78954099D01*
X10329047Y-78881000D01*
X10289937Y-78786580D01*
X10189199Y-78635815D01*
X10060985Y-78507601D01*
X9910220Y-78406863D01*
X9848339Y-78381231D01*
X9742700Y-78337473D01*
X9742696Y-78337472D01*
X9609015Y-78310882D01*
X9564861Y-78302100D01*
X9383539Y-78302100D01*
X9344260Y-78309912D01*
X9205703Y-78337472D01*
X9205699Y-78337473D01*
X9038178Y-78406864D01*
X8887417Y-78507599D01*
X8759199Y-78635817D01*
X8658464Y-78786578D01*
X8589073Y-78954099D01*
X8589072Y-78954103D01*
X8553700Y-79131940D01*
X635500Y-79131940D01*
X635500Y-77774797D01*
X1772200Y-77774797D01*
X1772200Y-77968054D01*
X1802430Y-78158932D01*
X1862152Y-78342736D01*
X1949889Y-78514930D01*
X1949895Y-78514941D01*
X1972212Y-78545658D01*
X2435386Y-78082483D01*
X2440889Y-78103017D01*
X2519881Y-78239834D01*
X2631592Y-78351545D01*
X2768409Y-78430537D01*
X2788940Y-78436038D01*
X2325767Y-78899212D01*
X2356491Y-78921534D01*
X2356495Y-78921536D01*
X2528690Y-79009273D01*
X2528689Y-79009273D01*
X2712493Y-79068995D01*
X2903371Y-79099225D01*
X2903372Y-79099226D01*
X3096628Y-79099226D01*
X3096628Y-79099225D01*
X3287506Y-79068995D01*
X3364363Y-79044023D01*
X3471310Y-79009273D01*
X3471314Y-79009271D01*
X3643508Y-78921534D01*
X3674231Y-78899212D01*
X3211057Y-78436038D01*
X3231591Y-78430537D01*
X3368408Y-78351545D01*
X3480119Y-78239834D01*
X3559111Y-78103017D01*
X3564612Y-78082483D01*
X4027786Y-78545657D01*
X4050108Y-78514934D01*
X4137845Y-78342740D01*
X4137847Y-78342736D01*
X4197569Y-78158932D01*
X4227799Y-77968054D01*
X4227800Y-77968054D01*
X4227800Y-77774797D01*
X4197569Y-77583919D01*
X4137847Y-77400115D01*
X4050110Y-77227921D01*
X4050108Y-77227917D01*
X4027786Y-77197193D01*
X3564612Y-77660366D01*
X3559111Y-77639835D01*
X3480119Y-77503018D01*
X3368408Y-77391307D01*
X3231591Y-77312315D01*
X3211057Y-77306812D01*
X3674232Y-76843638D01*
X3643515Y-76821321D01*
X3643504Y-76821315D01*
X3471309Y-76733578D01*
X3471310Y-76733578D01*
X3287506Y-76673856D01*
X3096629Y-76643626D01*
X2903371Y-76643626D01*
X2712493Y-76673856D01*
X2528692Y-76733577D01*
X2356491Y-76821318D01*
X2356487Y-76821320D01*
X2325767Y-76843638D01*
X2325767Y-76843639D01*
X2788941Y-77306813D01*
X2768409Y-77312315D01*
X2631592Y-77391307D01*
X2519881Y-77503018D01*
X2440889Y-77639835D01*
X2435387Y-77660367D01*
X1972213Y-77197193D01*
X1972212Y-77197193D01*
X1949894Y-77227913D01*
X1949892Y-77227917D01*
X1862151Y-77400118D01*
X1802430Y-77583919D01*
X1772200Y-77774797D01*
X635500Y-77774797D01*
X635500Y-73963010D01*
X1749500Y-73963010D01*
X1749500Y-74159841D01*
X1780289Y-74354247D01*
X1780291Y-74354252D01*
X1841116Y-74541451D01*
X1930476Y-74716831D01*
X2046172Y-74876072D01*
X2185354Y-75015254D01*
X2344595Y-75130950D01*
X2519975Y-75220310D01*
X2707174Y-75281135D01*
X2707175Y-75281135D01*
X2707178Y-75281136D01*
X2753899Y-75288535D01*
X2901583Y-75311926D01*
X2901585Y-75311926D01*
X3098415Y-75311926D01*
X3098417Y-75311926D01*
X3266291Y-75285337D01*
X3292821Y-75281136D01*
X3292822Y-75281135D01*
X3292826Y-75281135D01*
X3480025Y-75220310D01*
X3655405Y-75130950D01*
X3814646Y-75015254D01*
X3953828Y-74876072D01*
X4069524Y-74716831D01*
X4158884Y-74541451D01*
X4219709Y-74354252D01*
X4250500Y-74159843D01*
X4250500Y-73963009D01*
X4219709Y-73768600D01*
X4158884Y-73581401D01*
X4069524Y-73406021D01*
X3953828Y-73246780D01*
X3814646Y-73107598D01*
X3756602Y-73065426D01*
X3655407Y-72991903D01*
X3655401Y-72991900D01*
X3480025Y-72902542D01*
X3480022Y-72902541D01*
X3480020Y-72902540D01*
X3292821Y-72841715D01*
X3120948Y-72814494D01*
X3098417Y-72810926D01*
X2901583Y-72810926D01*
X2881391Y-72814123D01*
X2707178Y-72841715D01*
X2519979Y-72902540D01*
X2344598Y-72991900D01*
X2344592Y-72991903D01*
X2185356Y-73107596D01*
X2185353Y-73107598D01*
X2046172Y-73246779D01*
X2046170Y-73246782D01*
X1930477Y-73406018D01*
X1930474Y-73406024D01*
X1841114Y-73581405D01*
X1780289Y-73768604D01*
X1749500Y-73963010D01*
X635500Y-73963010D01*
X635500Y-67714639D01*
X8553700Y-67714639D01*
X8553700Y-67895961D01*
X8558869Y-67921948D01*
X8589072Y-68073796D01*
X8589073Y-68073800D01*
X8614620Y-68135474D01*
X8658463Y-68241320D01*
X8759201Y-68392085D01*
X8887415Y-68520299D01*
X9038180Y-68621037D01*
X9153000Y-68668597D01*
X9205699Y-68690426D01*
X9205703Y-68690427D01*
X9269417Y-68703100D01*
X9383539Y-68725800D01*
X9383541Y-68725800D01*
X9564859Y-68725800D01*
X9564861Y-68725800D01*
X9694548Y-68700004D01*
X9742696Y-68690427D01*
X9742700Y-68690426D01*
X9910220Y-68621037D01*
X10060985Y-68520299D01*
X10189199Y-68392085D01*
X10289937Y-68241320D01*
X10359326Y-68073800D01*
X10394700Y-67895961D01*
X10394700Y-67714639D01*
X11093700Y-67714639D01*
X11093700Y-67895961D01*
X11098869Y-67921948D01*
X11129072Y-68073796D01*
X11129073Y-68073800D01*
X11154620Y-68135474D01*
X11198463Y-68241320D01*
X11299201Y-68392085D01*
X11427415Y-68520299D01*
X11578180Y-68621037D01*
X11693000Y-68668597D01*
X11745699Y-68690426D01*
X11745703Y-68690427D01*
X11809417Y-68703100D01*
X11923539Y-68725800D01*
X11923541Y-68725800D01*
X12104859Y-68725800D01*
X12104861Y-68725800D01*
X12234548Y-68700004D01*
X12282696Y-68690427D01*
X12282700Y-68690426D01*
X12450220Y-68621037D01*
X12600985Y-68520299D01*
X12729199Y-68392085D01*
X12829937Y-68241320D01*
X12899326Y-68073800D01*
X12934700Y-67895961D01*
X12934700Y-67716875D01*
X13656400Y-67716875D01*
X13656400Y-67893724D01*
X13690900Y-68067175D01*
X13690902Y-68067179D01*
X13758579Y-68230568D01*
X13765307Y-68240637D01*
X14154200Y-67851744D01*
X14154200Y-67857961D01*
X14181459Y-67959694D01*
X14234120Y-68050906D01*
X14308594Y-68125380D01*
X14399806Y-68178041D01*
X14501539Y-68205300D01*
X14507752Y-68205300D01*
X14118861Y-68594191D01*
X14128934Y-68600921D01*
X14292320Y-68668597D01*
X14292324Y-68668599D01*
X14465776Y-68703100D01*
X14642624Y-68703100D01*
X14816075Y-68668599D01*
X14816079Y-68668597D01*
X14979469Y-68600919D01*
X14989537Y-68594191D01*
X14600646Y-68205300D01*
X14606861Y-68205300D01*
X14708594Y-68178041D01*
X14799806Y-68125380D01*
X14874280Y-68050906D01*
X14926941Y-67959694D01*
X14954200Y-67857961D01*
X14954200Y-67851746D01*
X15343091Y-68240637D01*
X15349819Y-68230569D01*
X15417497Y-68067179D01*
X15417499Y-68067175D01*
X15452000Y-67893724D01*
X15452000Y-67716875D01*
X15417499Y-67543424D01*
X15417497Y-67543420D01*
X15349821Y-67380034D01*
X15343090Y-67369961D01*
X14954200Y-67758851D01*
X14954200Y-67752639D01*
X14926941Y-67650906D01*
X14874280Y-67559694D01*
X14799806Y-67485220D01*
X14708594Y-67432559D01*
X14606861Y-67405300D01*
X14600644Y-67405300D01*
X14989537Y-67016407D01*
X14979468Y-67009679D01*
X14816079Y-66942002D01*
X14816075Y-66942000D01*
X14642624Y-66907500D01*
X14465776Y-66907500D01*
X14292324Y-66942000D01*
X14292320Y-66942002D01*
X14128933Y-67009679D01*
X14118861Y-67016407D01*
X14507754Y-67405300D01*
X14501539Y-67405300D01*
X14399806Y-67432559D01*
X14308594Y-67485220D01*
X14234120Y-67559694D01*
X14181459Y-67650906D01*
X14154200Y-67752639D01*
X14154200Y-67758854D01*
X13765307Y-67369961D01*
X13758579Y-67380033D01*
X13690902Y-67543420D01*
X13690900Y-67543424D01*
X13656400Y-67716875D01*
X12934700Y-67716875D01*
X12934700Y-67714639D01*
X12916058Y-67620920D01*
X12899327Y-67536803D01*
X12899326Y-67536799D01*
X12864095Y-67451745D01*
X12829937Y-67369280D01*
X12729199Y-67218515D01*
X12600985Y-67090301D01*
X12450220Y-66989563D01*
X12388339Y-66963931D01*
X12282700Y-66920173D01*
X12282696Y-66920172D01*
X12149015Y-66893582D01*
X12104861Y-66884800D01*
X11923539Y-66884800D01*
X11896165Y-66890245D01*
X11745703Y-66920172D01*
X11745699Y-66920173D01*
X11600717Y-66980228D01*
X11580363Y-66988659D01*
X11578178Y-66989564D01*
X11427417Y-67090299D01*
X11299199Y-67218517D01*
X11198464Y-67369278D01*
X11129073Y-67536799D01*
X11129072Y-67536803D01*
X11112341Y-67620922D01*
X11093700Y-67714639D01*
X10394700Y-67714639D01*
X10376058Y-67620920D01*
X10359327Y-67536803D01*
X10359326Y-67536799D01*
X10324095Y-67451745D01*
X10289937Y-67369280D01*
X10189199Y-67218515D01*
X10060985Y-67090301D01*
X9910220Y-66989563D01*
X9848339Y-66963931D01*
X9742700Y-66920173D01*
X9742696Y-66920172D01*
X9609015Y-66893582D01*
X9564861Y-66884800D01*
X9383539Y-66884800D01*
X9356165Y-66890245D01*
X9205703Y-66920172D01*
X9205699Y-66920173D01*
X9060717Y-66980228D01*
X9040363Y-66988659D01*
X9038178Y-66989564D01*
X8887417Y-67090299D01*
X8759199Y-67218517D01*
X8658464Y-67369278D01*
X8589073Y-67536799D01*
X8589072Y-67536803D01*
X8572341Y-67620922D01*
X8553700Y-67714639D01*
X635500Y-67714639D01*
X635500Y-66346226D01*
X1772200Y-66346226D01*
X1772200Y-66539483D01*
X1802430Y-66730361D01*
X1862152Y-66914165D01*
X1949889Y-67086359D01*
X1949895Y-67086370D01*
X1972212Y-67117087D01*
X2435386Y-66653912D01*
X2440889Y-66674446D01*
X2519881Y-66811263D01*
X2631592Y-66922974D01*
X2768409Y-67001966D01*
X2788940Y-67007467D01*
X2325767Y-67470641D01*
X2356491Y-67492963D01*
X2356495Y-67492965D01*
X2528690Y-67580702D01*
X2528689Y-67580702D01*
X2712493Y-67640424D01*
X2903371Y-67670654D01*
X2903372Y-67670655D01*
X3096628Y-67670655D01*
X3096628Y-67670654D01*
X3287506Y-67640424D01*
X3329674Y-67626723D01*
X3471310Y-67580702D01*
X3471314Y-67580700D01*
X3643508Y-67492963D01*
X3674231Y-67470641D01*
X3211057Y-67007467D01*
X3231591Y-67001966D01*
X3368408Y-66922974D01*
X3480119Y-66811263D01*
X3559111Y-66674446D01*
X3564612Y-66653912D01*
X4027786Y-67117086D01*
X4050108Y-67086363D01*
X4137845Y-66914169D01*
X4137847Y-66914165D01*
X4197569Y-66730361D01*
X4227799Y-66539483D01*
X4227800Y-66539483D01*
X4227800Y-66346226D01*
X4197569Y-66155348D01*
X4137847Y-65971544D01*
X4050110Y-65799350D01*
X4050108Y-65799346D01*
X4027786Y-65768622D01*
X3564612Y-66231795D01*
X3559111Y-66211264D01*
X3480119Y-66074447D01*
X3368408Y-65962736D01*
X3231591Y-65883744D01*
X3211057Y-65878241D01*
X3674232Y-65415067D01*
X3643515Y-65392750D01*
X3643504Y-65392744D01*
X3471309Y-65305007D01*
X3471310Y-65305007D01*
X3287506Y-65245285D01*
X3096629Y-65215055D01*
X2903371Y-65215055D01*
X2712493Y-65245285D01*
X2528692Y-65305006D01*
X2356491Y-65392747D01*
X2356487Y-65392749D01*
X2325767Y-65415067D01*
X2325767Y-65415068D01*
X2788941Y-65878242D01*
X2768409Y-65883744D01*
X2631592Y-65962736D01*
X2519881Y-66074447D01*
X2440889Y-66211264D01*
X2435387Y-66231796D01*
X1972213Y-65768622D01*
X1972212Y-65768622D01*
X1949894Y-65799342D01*
X1949892Y-65799346D01*
X1862151Y-65971547D01*
X1802430Y-66155348D01*
X1772200Y-66346226D01*
X635500Y-66346226D01*
X635500Y-62534438D01*
X1749500Y-62534438D01*
X1749500Y-62731272D01*
X1755895Y-62771654D01*
X1780289Y-62925676D01*
X1785939Y-62943063D01*
X1841116Y-63112880D01*
X1905844Y-63239917D01*
X1930474Y-63288256D01*
X1930477Y-63288262D01*
X1966034Y-63337201D01*
X2046172Y-63447501D01*
X2185354Y-63586683D01*
X2344595Y-63702379D01*
X2519975Y-63791739D01*
X2707174Y-63852564D01*
X2707175Y-63852564D01*
X2707178Y-63852565D01*
X2753899Y-63859964D01*
X2901583Y-63883355D01*
X2901585Y-63883355D01*
X3098415Y-63883355D01*
X3098417Y-63883355D01*
X3266291Y-63856766D01*
X3292821Y-63852565D01*
X3292822Y-63852564D01*
X3292826Y-63852564D01*
X3480025Y-63791739D01*
X3655405Y-63702379D01*
X3814646Y-63586683D01*
X3953828Y-63447501D01*
X4069524Y-63288260D01*
X4158884Y-63112880D01*
X4219709Y-62925681D01*
X4250500Y-62731272D01*
X4250500Y-62534438D01*
X4241208Y-62475773D01*
X4219710Y-62340033D01*
X4158885Y-62152834D01*
X4158884Y-62152830D01*
X4069524Y-61977450D01*
X3953828Y-61818209D01*
X3814646Y-61679027D01*
X3769434Y-61646178D01*
X3655407Y-61563332D01*
X3655401Y-61563329D01*
X3480025Y-61473971D01*
X3480022Y-61473970D01*
X3480020Y-61473969D01*
X3292821Y-61413144D01*
X3120948Y-61385923D01*
X3098417Y-61382355D01*
X2901583Y-61382355D01*
X2881391Y-61385552D01*
X2707178Y-61413144D01*
X2519979Y-61473969D01*
X2344598Y-61563329D01*
X2344592Y-61563332D01*
X2185356Y-61679025D01*
X2185353Y-61679027D01*
X2046172Y-61818208D01*
X2046170Y-61818211D01*
X1930477Y-61977447D01*
X1930474Y-61977453D01*
X1841114Y-62152834D01*
X1780289Y-62340033D01*
X1752697Y-62514246D01*
X1749500Y-62534438D01*
X635500Y-62534438D01*
X635500Y-56297340D01*
X8553700Y-56297340D01*
X8553700Y-56478659D01*
X8589072Y-56656496D01*
X8589073Y-56656500D01*
X8624304Y-56741553D01*
X8658463Y-56824020D01*
X8759201Y-56974785D01*
X8887415Y-57102999D01*
X9038180Y-57203737D01*
X9153000Y-57251297D01*
X9205699Y-57273126D01*
X9205703Y-57273127D01*
X9269417Y-57285800D01*
X9383539Y-57308500D01*
X9383541Y-57308500D01*
X9564859Y-57308500D01*
X9564861Y-57308500D01*
X9682344Y-57285131D01*
X9742696Y-57273127D01*
X9742700Y-57273126D01*
X9910220Y-57203737D01*
X10060985Y-57102999D01*
X10189199Y-56974785D01*
X10289937Y-56824020D01*
X10359326Y-56656500D01*
X10394700Y-56478661D01*
X10394700Y-56297340D01*
X11093700Y-56297340D01*
X11093700Y-56478659D01*
X11129072Y-56656496D01*
X11129073Y-56656500D01*
X11164304Y-56741553D01*
X11198463Y-56824020D01*
X11299201Y-56974785D01*
X11427415Y-57102999D01*
X11578180Y-57203737D01*
X11693000Y-57251297D01*
X11745699Y-57273126D01*
X11745703Y-57273127D01*
X11809417Y-57285800D01*
X11923539Y-57308500D01*
X11923541Y-57308500D01*
X12104859Y-57308500D01*
X12104861Y-57308500D01*
X12222344Y-57285131D01*
X12282696Y-57273127D01*
X12282700Y-57273126D01*
X12450220Y-57203737D01*
X12600985Y-57102999D01*
X12729199Y-56974785D01*
X12829937Y-56824020D01*
X12899326Y-56656500D01*
X12934700Y-56478661D01*
X12934700Y-56299575D01*
X13656400Y-56299575D01*
X13656400Y-56476424D01*
X13690900Y-56649875D01*
X13690902Y-56649879D01*
X13758579Y-56813268D01*
X13765307Y-56823337D01*
X14154200Y-56434444D01*
X14154200Y-56440661D01*
X14181459Y-56542394D01*
X14234120Y-56633606D01*
X14308594Y-56708080D01*
X14399806Y-56760741D01*
X14501539Y-56788000D01*
X14507752Y-56788000D01*
X14118861Y-57176891D01*
X14128934Y-57183621D01*
X14292320Y-57251297D01*
X14292324Y-57251299D01*
X14465776Y-57285800D01*
X14642624Y-57285800D01*
X14816075Y-57251299D01*
X14816079Y-57251297D01*
X14979469Y-57183619D01*
X14989537Y-57176891D01*
X14600646Y-56788000D01*
X14606861Y-56788000D01*
X14708594Y-56760741D01*
X14799806Y-56708080D01*
X14874280Y-56633606D01*
X14926941Y-56542394D01*
X14954200Y-56440661D01*
X14954200Y-56434446D01*
X15343091Y-56823337D01*
X15349819Y-56813269D01*
X15417497Y-56649879D01*
X15417499Y-56649875D01*
X15452000Y-56476424D01*
X15452000Y-56299575D01*
X15417499Y-56126124D01*
X15417497Y-56126120D01*
X15349821Y-55962734D01*
X15343090Y-55952661D01*
X14954200Y-56341551D01*
X14954200Y-56335339D01*
X14926941Y-56233606D01*
X14874280Y-56142394D01*
X14799806Y-56067920D01*
X14708594Y-56015259D01*
X14606861Y-55988000D01*
X14600644Y-55988000D01*
X14989537Y-55599107D01*
X14979468Y-55592379D01*
X14816079Y-55524702D01*
X14816075Y-55524700D01*
X14642624Y-55490200D01*
X14465776Y-55490200D01*
X14292324Y-55524700D01*
X14292320Y-55524702D01*
X14128933Y-55592379D01*
X14118861Y-55599107D01*
X14507754Y-55988000D01*
X14501539Y-55988000D01*
X14399806Y-56015259D01*
X14308594Y-56067920D01*
X14234120Y-56142394D01*
X14181459Y-56233606D01*
X14154200Y-56335339D01*
X14154200Y-56341554D01*
X13765307Y-55952661D01*
X13758579Y-55962733D01*
X13690902Y-56126120D01*
X13690900Y-56126124D01*
X13656400Y-56299575D01*
X12934700Y-56299575D01*
X12934700Y-56297339D01*
X12905817Y-56152131D01*
X12899327Y-56119503D01*
X12899326Y-56119499D01*
X12876500Y-56064394D01*
X12829937Y-55951980D01*
X12729199Y-55801215D01*
X12600985Y-55673001D01*
X12450220Y-55572263D01*
X12388339Y-55546631D01*
X12282700Y-55502873D01*
X12282696Y-55502872D01*
X12149015Y-55476282D01*
X12104861Y-55467500D01*
X11923539Y-55467500D01*
X11884260Y-55475312D01*
X11745703Y-55502872D01*
X11745699Y-55502873D01*
X11578178Y-55572264D01*
X11427417Y-55672999D01*
X11299199Y-55801217D01*
X11198464Y-55951978D01*
X11129073Y-56119499D01*
X11129072Y-56119503D01*
X11093700Y-56297340D01*
X10394700Y-56297340D01*
X10394700Y-56297339D01*
X10365817Y-56152131D01*
X10359327Y-56119503D01*
X10359326Y-56119499D01*
X10336500Y-56064394D01*
X10289937Y-55951980D01*
X10189199Y-55801215D01*
X10060985Y-55673001D01*
X9910220Y-55572263D01*
X9848339Y-55546631D01*
X9742700Y-55502873D01*
X9742696Y-55502872D01*
X9609015Y-55476282D01*
X9564861Y-55467500D01*
X9383539Y-55467500D01*
X9344260Y-55475312D01*
X9205703Y-55502872D01*
X9205699Y-55502873D01*
X9038178Y-55572264D01*
X8887417Y-55672999D01*
X8759199Y-55801217D01*
X8658464Y-55951978D01*
X8589073Y-56119499D01*
X8589072Y-56119503D01*
X8553700Y-56297340D01*
X635500Y-56297340D01*
X635500Y-54917655D01*
X1772200Y-54917655D01*
X1772200Y-55110912D01*
X1802430Y-55301790D01*
X1862152Y-55485594D01*
X1949889Y-55657788D01*
X1949895Y-55657799D01*
X1972212Y-55688516D01*
X2435386Y-55225341D01*
X2440889Y-55245875D01*
X2519881Y-55382692D01*
X2631592Y-55494403D01*
X2768409Y-55573395D01*
X2788940Y-55578896D01*
X2325767Y-56042070D01*
X2356491Y-56064392D01*
X2356495Y-56064394D01*
X2528690Y-56152131D01*
X2528689Y-56152131D01*
X2712493Y-56211853D01*
X2903371Y-56242083D01*
X2903372Y-56242084D01*
X3096628Y-56242084D01*
X3096628Y-56242083D01*
X3287508Y-56211852D01*
X3294969Y-56209428D01*
X3294986Y-56209423D01*
X3471310Y-56152131D01*
X3471314Y-56152129D01*
X3643508Y-56064392D01*
X3674231Y-56042070D01*
X3211057Y-55578896D01*
X3231591Y-55573395D01*
X3368408Y-55494403D01*
X3480119Y-55382692D01*
X3559111Y-55245875D01*
X3564612Y-55225341D01*
X4027786Y-55688515D01*
X4050108Y-55657792D01*
X4137845Y-55485598D01*
X4137847Y-55485594D01*
X4197569Y-55301790D01*
X4227799Y-55110912D01*
X4227800Y-55110912D01*
X4227800Y-54917655D01*
X4197569Y-54726777D01*
X4137847Y-54542973D01*
X4050110Y-54370779D01*
X4050108Y-54370775D01*
X4027786Y-54340051D01*
X3564612Y-54803224D01*
X3559111Y-54782693D01*
X3480119Y-54645876D01*
X3368408Y-54534165D01*
X3231591Y-54455173D01*
X3211057Y-54449670D01*
X3674232Y-53986496D01*
X3643515Y-53964179D01*
X3643504Y-53964173D01*
X3471309Y-53876436D01*
X3471310Y-53876436D01*
X3287506Y-53816714D01*
X3096629Y-53786484D01*
X2903371Y-53786484D01*
X2712493Y-53816714D01*
X2528692Y-53876435D01*
X2356491Y-53964176D01*
X2356487Y-53964178D01*
X2325767Y-53986496D01*
X2325767Y-53986497D01*
X2788941Y-54449671D01*
X2768409Y-54455173D01*
X2631592Y-54534165D01*
X2519881Y-54645876D01*
X2440889Y-54782693D01*
X2435387Y-54803225D01*
X1972213Y-54340051D01*
X1972212Y-54340051D01*
X1949894Y-54370771D01*
X1949892Y-54370775D01*
X1862151Y-54542976D01*
X1802430Y-54726777D01*
X1772200Y-54917655D01*
X635500Y-54917655D01*
X635500Y-51105868D01*
X1749500Y-51105868D01*
X1749500Y-51302699D01*
X1780289Y-51497105D01*
X1836294Y-51669467D01*
X1841116Y-51684309D01*
X1930474Y-51859685D01*
X1930477Y-51859691D01*
X1997617Y-51952100D01*
X2046172Y-52018930D01*
X2185354Y-52158112D01*
X2344595Y-52273808D01*
X2519975Y-52363168D01*
X2707174Y-52423993D01*
X2707175Y-52423993D01*
X2707178Y-52423994D01*
X2753899Y-52431393D01*
X2901583Y-52454784D01*
X2901585Y-52454784D01*
X3098415Y-52454784D01*
X3098417Y-52454784D01*
X3266291Y-52428195D01*
X3292821Y-52423994D01*
X3292822Y-52423993D01*
X3292826Y-52423993D01*
X3480025Y-52363168D01*
X3655405Y-52273808D01*
X3814646Y-52158112D01*
X3953828Y-52018930D01*
X4069524Y-51859689D01*
X4158884Y-51684309D01*
X4219709Y-51497110D01*
X4250500Y-51302701D01*
X4250500Y-51105867D01*
X4234535Y-51005065D01*
X4219710Y-50911462D01*
X4158885Y-50724263D01*
X4158884Y-50724259D01*
X4069524Y-50548879D01*
X3953828Y-50389638D01*
X3814646Y-50250456D01*
X3769434Y-50217607D01*
X3655407Y-50134761D01*
X3655401Y-50134758D01*
X3480025Y-50045400D01*
X3480022Y-50045399D01*
X3480020Y-50045398D01*
X3292821Y-49984573D01*
X3120948Y-49957352D01*
X3098417Y-49953784D01*
X2901583Y-49953784D01*
X2881391Y-49956981D01*
X2707178Y-49984573D01*
X2519979Y-50045398D01*
X2344598Y-50134758D01*
X2344592Y-50134761D01*
X2185356Y-50250454D01*
X2185353Y-50250456D01*
X2046172Y-50389637D01*
X2046170Y-50389640D01*
X1930477Y-50548876D01*
X1930474Y-50548882D01*
X1841114Y-50724263D01*
X1780289Y-50911462D01*
X1749500Y-51105868D01*
X635500Y-51105868D01*
X635500Y-44880040D01*
X8553700Y-44880040D01*
X8553700Y-45061359D01*
X8589072Y-45239196D01*
X8589073Y-45239200D01*
X8610439Y-45290780D01*
X8658463Y-45406720D01*
X8759201Y-45557485D01*
X8887415Y-45685699D01*
X9038180Y-45786437D01*
X9153000Y-45833997D01*
X9205699Y-45855826D01*
X9205703Y-45855827D01*
X9269417Y-45868500D01*
X9383539Y-45891200D01*
X9383541Y-45891200D01*
X9564859Y-45891200D01*
X9564861Y-45891200D01*
X9682344Y-45867831D01*
X9742696Y-45855827D01*
X9742700Y-45855826D01*
X9910220Y-45786437D01*
X10060985Y-45685699D01*
X10189199Y-45557485D01*
X10289937Y-45406720D01*
X10359326Y-45239200D01*
X10394700Y-45061361D01*
X10394700Y-44880040D01*
X11093700Y-44880040D01*
X11093700Y-45061359D01*
X11129072Y-45239196D01*
X11129073Y-45239200D01*
X11150439Y-45290780D01*
X11198463Y-45406720D01*
X11299201Y-45557485D01*
X11427415Y-45685699D01*
X11578180Y-45786437D01*
X11693000Y-45833997D01*
X11745699Y-45855826D01*
X11745703Y-45855827D01*
X11809417Y-45868500D01*
X11923539Y-45891200D01*
X11923541Y-45891200D01*
X12104859Y-45891200D01*
X12104861Y-45891200D01*
X12222344Y-45867831D01*
X12282696Y-45855827D01*
X12282700Y-45855826D01*
X12450220Y-45786437D01*
X12600985Y-45685699D01*
X12729199Y-45557485D01*
X12829937Y-45406720D01*
X12899326Y-45239200D01*
X12934700Y-45061361D01*
X12934700Y-44882275D01*
X13656400Y-44882275D01*
X13656400Y-45059124D01*
X13690900Y-45232575D01*
X13690902Y-45232579D01*
X13758579Y-45395968D01*
X13765307Y-45406037D01*
X14154200Y-45017144D01*
X14154200Y-45023361D01*
X14181459Y-45125094D01*
X14234120Y-45216306D01*
X14308594Y-45290780D01*
X14399806Y-45343441D01*
X14501539Y-45370700D01*
X14507752Y-45370700D01*
X14118861Y-45759591D01*
X14128934Y-45766321D01*
X14292320Y-45833997D01*
X14292324Y-45833999D01*
X14465776Y-45868500D01*
X14642624Y-45868500D01*
X14816075Y-45833999D01*
X14816079Y-45833997D01*
X14979469Y-45766319D01*
X14989537Y-45759591D01*
X14600646Y-45370700D01*
X14606861Y-45370700D01*
X14708594Y-45343441D01*
X14799806Y-45290780D01*
X14874280Y-45216306D01*
X14926941Y-45125094D01*
X14954200Y-45023361D01*
X14954200Y-45017146D01*
X15343091Y-45406037D01*
X15349819Y-45395969D01*
X15417497Y-45232579D01*
X15417499Y-45232575D01*
X15452000Y-45059124D01*
X15452000Y-44882275D01*
X15417499Y-44708824D01*
X15417497Y-44708820D01*
X15349821Y-44545434D01*
X15343090Y-44535361D01*
X14954200Y-44924251D01*
X14954200Y-44918039D01*
X14926941Y-44816306D01*
X14874280Y-44725094D01*
X14799806Y-44650620D01*
X14708594Y-44597959D01*
X14606861Y-44570700D01*
X14600644Y-44570700D01*
X14989537Y-44181807D01*
X14979468Y-44175079D01*
X14816079Y-44107402D01*
X14816075Y-44107400D01*
X14642624Y-44072900D01*
X14465776Y-44072900D01*
X14292324Y-44107400D01*
X14292320Y-44107402D01*
X14128933Y-44175079D01*
X14118861Y-44181807D01*
X14507754Y-44570700D01*
X14501539Y-44570700D01*
X14399806Y-44597959D01*
X14308594Y-44650620D01*
X14234120Y-44725094D01*
X14181459Y-44816306D01*
X14154200Y-44918039D01*
X14154200Y-44924254D01*
X13765307Y-44535361D01*
X13758579Y-44545433D01*
X13690902Y-44708820D01*
X13690900Y-44708824D01*
X13656400Y-44882275D01*
X12934700Y-44882275D01*
X12934700Y-44880039D01*
X12909467Y-44753183D01*
X12899327Y-44702203D01*
X12899326Y-44702199D01*
X12864095Y-44617145D01*
X12829937Y-44534680D01*
X12729199Y-44383915D01*
X12600985Y-44255701D01*
X12450220Y-44154963D01*
X12386721Y-44128661D01*
X12282700Y-44085573D01*
X12282696Y-44085572D01*
X12139183Y-44057027D01*
X12104861Y-44050200D01*
X11923539Y-44050200D01*
X11889237Y-44057023D01*
X11745703Y-44085572D01*
X11745699Y-44085573D01*
X11578178Y-44154964D01*
X11427417Y-44255699D01*
X11299199Y-44383917D01*
X11198464Y-44534678D01*
X11129073Y-44702199D01*
X11129072Y-44702203D01*
X11093700Y-44880040D01*
X10394700Y-44880040D01*
X10394700Y-44880039D01*
X10369467Y-44753183D01*
X10359327Y-44702203D01*
X10359326Y-44702199D01*
X10324095Y-44617145D01*
X10289937Y-44534680D01*
X10189199Y-44383915D01*
X10060985Y-44255701D01*
X9910220Y-44154963D01*
X9846721Y-44128661D01*
X9742700Y-44085573D01*
X9742696Y-44085572D01*
X9599183Y-44057027D01*
X9564861Y-44050200D01*
X9383539Y-44050200D01*
X9349237Y-44057023D01*
X9205703Y-44085572D01*
X9205699Y-44085573D01*
X9038178Y-44154964D01*
X8887417Y-44255699D01*
X8759199Y-44383917D01*
X8658464Y-44534678D01*
X8589073Y-44702199D01*
X8589072Y-44702203D01*
X8553700Y-44880040D01*
X635500Y-44880040D01*
X635500Y-43489084D01*
X1772200Y-43489084D01*
X1772200Y-43682341D01*
X1802430Y-43873219D01*
X1862152Y-44057023D01*
X1949889Y-44229217D01*
X1949895Y-44229228D01*
X1972212Y-44259945D01*
X2435386Y-43796770D01*
X2440889Y-43817304D01*
X2519881Y-43954121D01*
X2631592Y-44065832D01*
X2768409Y-44144824D01*
X2788940Y-44150325D01*
X2325767Y-44613499D01*
X2356491Y-44635821D01*
X2356495Y-44635823D01*
X2528690Y-44723560D01*
X2528689Y-44723560D01*
X2712493Y-44783282D01*
X2903371Y-44813512D01*
X2903372Y-44813513D01*
X3096628Y-44813513D01*
X3096628Y-44813512D01*
X3252016Y-44788903D01*
X3287506Y-44783282D01*
X3471310Y-44723560D01*
X3471314Y-44723558D01*
X3643508Y-44635821D01*
X3674231Y-44613499D01*
X3211057Y-44150325D01*
X3231591Y-44144824D01*
X3368408Y-44065832D01*
X3480119Y-43954121D01*
X3559111Y-43817304D01*
X3564612Y-43796770D01*
X4027786Y-44259944D01*
X4050108Y-44229221D01*
X4137845Y-44057027D01*
X4137847Y-44057023D01*
X4197569Y-43873219D01*
X4227799Y-43682341D01*
X4227800Y-43682341D01*
X4227800Y-43489084D01*
X4197569Y-43298206D01*
X4137847Y-43114402D01*
X4050110Y-42942208D01*
X4050108Y-42942204D01*
X4027786Y-42911480D01*
X3564612Y-43374653D01*
X3559111Y-43354122D01*
X3480119Y-43217305D01*
X3368408Y-43105594D01*
X3231591Y-43026602D01*
X3211057Y-43021099D01*
X3674232Y-42557925D01*
X3643515Y-42535608D01*
X3643504Y-42535602D01*
X3471309Y-42447865D01*
X3471310Y-42447865D01*
X3287506Y-42388143D01*
X3096629Y-42357913D01*
X2903371Y-42357913D01*
X2712493Y-42388143D01*
X2528692Y-42447864D01*
X2356491Y-42535605D01*
X2356487Y-42535607D01*
X2325767Y-42557925D01*
X2325767Y-42557926D01*
X2788941Y-43021100D01*
X2768409Y-43026602D01*
X2631592Y-43105594D01*
X2519881Y-43217305D01*
X2440889Y-43354122D01*
X2435387Y-43374654D01*
X1972213Y-42911480D01*
X1972212Y-42911480D01*
X1949894Y-42942200D01*
X1949892Y-42942204D01*
X1862151Y-43114405D01*
X1802430Y-43298206D01*
X1772200Y-43489084D01*
X635500Y-43489084D01*
X635500Y-39677297D01*
X1749500Y-39677297D01*
X1749500Y-39874128D01*
X1780289Y-40068534D01*
X1785011Y-40083065D01*
X1841116Y-40255738D01*
X1880561Y-40333153D01*
X1930474Y-40431114D01*
X1930477Y-40431120D01*
X2013323Y-40545147D01*
X2046172Y-40590359D01*
X2185354Y-40729541D01*
X2344595Y-40845237D01*
X2519975Y-40934597D01*
X2707174Y-40995422D01*
X2707175Y-40995422D01*
X2707178Y-40995423D01*
X2753899Y-41002822D01*
X2901583Y-41026213D01*
X2901585Y-41026213D01*
X3098415Y-41026213D01*
X3098417Y-41026213D01*
X3266291Y-40999624D01*
X3292821Y-40995423D01*
X3292822Y-40995422D01*
X3292826Y-40995422D01*
X3480025Y-40934597D01*
X3655405Y-40845237D01*
X3814646Y-40729541D01*
X3953828Y-40590359D01*
X4069524Y-40431118D01*
X4158884Y-40255738D01*
X4219709Y-40068539D01*
X4250500Y-39874130D01*
X4250500Y-39677296D01*
X4235011Y-39579501D01*
X4219710Y-39482891D01*
X4209198Y-39450537D01*
X4158884Y-39295688D01*
X4069524Y-39120308D01*
X3953828Y-38961067D01*
X3814646Y-38821885D01*
X3769434Y-38789036D01*
X3655407Y-38706190D01*
X3655401Y-38706187D01*
X3480025Y-38616829D01*
X3480022Y-38616828D01*
X3480020Y-38616827D01*
X3292821Y-38556002D01*
X3120948Y-38528781D01*
X3098417Y-38525213D01*
X2901583Y-38525213D01*
X2881391Y-38528410D01*
X2707178Y-38556002D01*
X2519979Y-38616827D01*
X2344598Y-38706187D01*
X2344592Y-38706190D01*
X2185356Y-38821883D01*
X2185353Y-38821885D01*
X2046172Y-38961066D01*
X2046170Y-38961069D01*
X1930477Y-39120305D01*
X1930474Y-39120311D01*
X1841114Y-39295692D01*
X1780289Y-39482891D01*
X1757617Y-39626045D01*
X1750152Y-39673183D01*
X1749500Y-39677297D01*
X635500Y-39677297D01*
X635500Y-33462740D01*
X8553700Y-33462740D01*
X8553700Y-33644059D01*
X8589072Y-33821896D01*
X8589073Y-33821900D01*
X8610439Y-33873480D01*
X8658463Y-33989420D01*
X8759201Y-34140185D01*
X8887415Y-34268399D01*
X9038180Y-34369137D01*
X9153000Y-34416697D01*
X9205699Y-34438526D01*
X9205703Y-34438527D01*
X9269417Y-34451200D01*
X9383539Y-34473900D01*
X9383541Y-34473900D01*
X9564859Y-34473900D01*
X9564861Y-34473900D01*
X9682344Y-34450531D01*
X9742696Y-34438527D01*
X9742700Y-34438526D01*
X9910220Y-34369137D01*
X10060985Y-34268399D01*
X10189199Y-34140185D01*
X10289937Y-33989420D01*
X10359326Y-33821900D01*
X10394700Y-33644061D01*
X10394700Y-33462740D01*
X11093700Y-33462740D01*
X11093700Y-33644059D01*
X11129072Y-33821896D01*
X11129073Y-33821900D01*
X11150439Y-33873480D01*
X11198463Y-33989420D01*
X11299201Y-34140185D01*
X11427415Y-34268399D01*
X11578180Y-34369137D01*
X11693000Y-34416697D01*
X11745699Y-34438526D01*
X11745703Y-34438527D01*
X11809417Y-34451200D01*
X11923539Y-34473900D01*
X11923541Y-34473900D01*
X12104859Y-34473900D01*
X12104861Y-34473900D01*
X12222344Y-34450531D01*
X12282696Y-34438527D01*
X12282700Y-34438526D01*
X12450220Y-34369137D01*
X12600985Y-34268399D01*
X12729199Y-34140185D01*
X12829937Y-33989420D01*
X12899326Y-33821900D01*
X12934700Y-33644061D01*
X12934700Y-33464975D01*
X13656400Y-33464975D01*
X13656400Y-33641824D01*
X13690900Y-33815275D01*
X13690902Y-33815279D01*
X13758579Y-33978668D01*
X13765307Y-33988737D01*
X14154200Y-33599844D01*
X14154200Y-33606061D01*
X14181459Y-33707794D01*
X14234120Y-33799006D01*
X14308594Y-33873480D01*
X14399806Y-33926141D01*
X14501539Y-33953400D01*
X14507752Y-33953400D01*
X14118861Y-34342291D01*
X14128934Y-34349021D01*
X14292320Y-34416697D01*
X14292324Y-34416699D01*
X14465776Y-34451200D01*
X14642624Y-34451200D01*
X14816075Y-34416699D01*
X14816079Y-34416697D01*
X14979469Y-34349019D01*
X14989537Y-34342291D01*
X14600646Y-33953400D01*
X14606861Y-33953400D01*
X14708594Y-33926141D01*
X14799806Y-33873480D01*
X14874280Y-33799006D01*
X14926941Y-33707794D01*
X14954200Y-33606061D01*
X14954200Y-33599846D01*
X15343091Y-33988737D01*
X15349819Y-33978669D01*
X15417497Y-33815279D01*
X15417499Y-33815275D01*
X15452000Y-33641824D01*
X15452000Y-33464975D01*
X15417499Y-33291524D01*
X15417497Y-33291520D01*
X15349821Y-33128134D01*
X15343090Y-33118061D01*
X14954200Y-33506951D01*
X14954200Y-33500739D01*
X14926941Y-33399006D01*
X14874280Y-33307794D01*
X14799806Y-33233320D01*
X14708594Y-33180659D01*
X14606861Y-33153400D01*
X14600644Y-33153400D01*
X14989537Y-32764507D01*
X14979468Y-32757779D01*
X14816079Y-32690102D01*
X14816075Y-32690100D01*
X14642624Y-32655600D01*
X14465776Y-32655600D01*
X14292324Y-32690100D01*
X14292320Y-32690102D01*
X14128933Y-32757779D01*
X14118861Y-32764507D01*
X14507754Y-33153400D01*
X14501539Y-33153400D01*
X14399806Y-33180659D01*
X14308594Y-33233320D01*
X14234120Y-33307794D01*
X14181459Y-33399006D01*
X14154200Y-33500739D01*
X14154200Y-33506954D01*
X13765307Y-33118061D01*
X13758579Y-33128133D01*
X13690902Y-33291520D01*
X13690900Y-33291524D01*
X13656400Y-33464975D01*
X12934700Y-33464975D01*
X12934700Y-33462739D01*
X12901333Y-33294989D01*
X12899327Y-33284903D01*
X12899326Y-33284899D01*
X12857916Y-33184928D01*
X12829937Y-33117380D01*
X12729199Y-32966615D01*
X12600985Y-32838401D01*
X12450220Y-32737663D01*
X12388339Y-32712031D01*
X12282700Y-32668273D01*
X12282696Y-32668272D01*
X12149015Y-32641682D01*
X12104861Y-32632900D01*
X11923539Y-32632900D01*
X11901615Y-32637261D01*
X11745703Y-32668272D01*
X11745699Y-32668273D01*
X11578178Y-32737664D01*
X11427417Y-32838399D01*
X11299199Y-32966617D01*
X11198464Y-33117378D01*
X11129073Y-33284899D01*
X11129072Y-33284903D01*
X11093700Y-33462740D01*
X10394700Y-33462740D01*
X10394700Y-33462739D01*
X10361333Y-33294989D01*
X10359327Y-33284903D01*
X10359326Y-33284899D01*
X10317916Y-33184928D01*
X10289937Y-33117380D01*
X10189199Y-32966615D01*
X10060985Y-32838401D01*
X9910220Y-32737663D01*
X9848339Y-32712031D01*
X9742700Y-32668273D01*
X9742696Y-32668272D01*
X9609015Y-32641682D01*
X9564861Y-32632900D01*
X9383539Y-32632900D01*
X9361615Y-32637261D01*
X9205703Y-32668272D01*
X9205699Y-32668273D01*
X9038178Y-32737664D01*
X8887417Y-32838399D01*
X8759199Y-32966617D01*
X8658464Y-33117378D01*
X8589073Y-33284899D01*
X8589072Y-33284903D01*
X8553700Y-33462740D01*
X635500Y-33462740D01*
X635500Y-32060513D01*
X1772200Y-32060513D01*
X1772200Y-32253770D01*
X1802430Y-32444648D01*
X1862152Y-32628452D01*
X1949889Y-32800646D01*
X1949895Y-32800657D01*
X1972212Y-32831374D01*
X2435386Y-32368199D01*
X2440889Y-32388733D01*
X2519881Y-32525550D01*
X2631592Y-32637261D01*
X2768409Y-32716253D01*
X2788940Y-32721754D01*
X2325767Y-33184928D01*
X2356491Y-33207250D01*
X2356495Y-33207252D01*
X2528690Y-33294989D01*
X2528689Y-33294989D01*
X2712493Y-33354711D01*
X2903371Y-33384941D01*
X2903372Y-33384942D01*
X3096628Y-33384942D01*
X3096628Y-33384941D01*
X3180851Y-33371603D01*
X3287506Y-33354711D01*
X3471310Y-33294989D01*
X3471314Y-33294987D01*
X3643508Y-33207250D01*
X3674231Y-33184928D01*
X3211057Y-32721754D01*
X3231591Y-32716253D01*
X3368408Y-32637261D01*
X3480119Y-32525550D01*
X3559111Y-32388733D01*
X3564612Y-32368199D01*
X4027786Y-32831373D01*
X4050108Y-32800650D01*
X4137845Y-32628456D01*
X4137847Y-32628452D01*
X4197569Y-32444648D01*
X4227799Y-32253770D01*
X4227800Y-32253770D01*
X4227800Y-32060513D01*
X4197569Y-31869635D01*
X4137847Y-31685831D01*
X4050110Y-31513637D01*
X4050108Y-31513633D01*
X4027786Y-31482909D01*
X3564612Y-31946082D01*
X3559111Y-31925551D01*
X3480119Y-31788734D01*
X3368408Y-31677023D01*
X3231591Y-31598031D01*
X3211057Y-31592528D01*
X3674232Y-31129354D01*
X3643515Y-31107037D01*
X3643504Y-31107031D01*
X3471309Y-31019294D01*
X3471310Y-31019294D01*
X3287506Y-30959572D01*
X3096629Y-30929342D01*
X2903371Y-30929342D01*
X2712493Y-30959572D01*
X2528692Y-31019293D01*
X2356491Y-31107034D01*
X2356487Y-31107036D01*
X2325767Y-31129354D01*
X2325767Y-31129355D01*
X2788941Y-31592529D01*
X2768409Y-31598031D01*
X2631592Y-31677023D01*
X2519881Y-31788734D01*
X2440889Y-31925551D01*
X2435387Y-31946083D01*
X1972213Y-31482909D01*
X1972212Y-31482909D01*
X1949894Y-31513629D01*
X1949892Y-31513633D01*
X1862151Y-31685834D01*
X1802430Y-31869635D01*
X1772200Y-32060513D01*
X635500Y-32060513D01*
X635500Y-28248726D01*
X1749500Y-28248726D01*
X1749500Y-28445557D01*
X1780289Y-28639963D01*
X1780291Y-28639968D01*
X1841116Y-28827167D01*
X1930476Y-29002547D01*
X2046172Y-29161788D01*
X2185354Y-29300970D01*
X2344595Y-29416666D01*
X2519975Y-29506026D01*
X2707174Y-29566851D01*
X2707175Y-29566851D01*
X2707178Y-29566852D01*
X2753899Y-29574251D01*
X2901583Y-29597642D01*
X2901585Y-29597642D01*
X3098415Y-29597642D01*
X3098417Y-29597642D01*
X3266291Y-29571053D01*
X3292821Y-29566852D01*
X3292822Y-29566851D01*
X3292826Y-29566851D01*
X3480025Y-29506026D01*
X3655405Y-29416666D01*
X3814646Y-29300970D01*
X3953828Y-29161788D01*
X4069524Y-29002547D01*
X4158884Y-28827167D01*
X4219709Y-28639968D01*
X4250500Y-28445559D01*
X4250500Y-28248725D01*
X4219709Y-28054316D01*
X4158884Y-27867117D01*
X4069524Y-27691737D01*
X3953828Y-27532496D01*
X3814646Y-27393314D01*
X3769434Y-27360465D01*
X3655407Y-27277619D01*
X3655401Y-27277616D01*
X3480025Y-27188258D01*
X3480022Y-27188257D01*
X3480020Y-27188256D01*
X3292821Y-27127431D01*
X3120948Y-27100210D01*
X3098417Y-27096642D01*
X2901583Y-27096642D01*
X2881391Y-27099839D01*
X2707178Y-27127431D01*
X2519979Y-27188256D01*
X2344598Y-27277616D01*
X2344592Y-27277619D01*
X2185356Y-27393312D01*
X2185353Y-27393314D01*
X2046172Y-27532495D01*
X2046170Y-27532498D01*
X1930477Y-27691734D01*
X1930474Y-27691740D01*
X1841114Y-27867121D01*
X1780289Y-28054320D01*
X1749500Y-28248726D01*
X635500Y-28248726D01*
X635500Y-22045440D01*
X8553700Y-22045440D01*
X8553700Y-22226759D01*
X8589072Y-22404596D01*
X8589073Y-22404600D01*
X8610439Y-22456180D01*
X8658463Y-22572120D01*
X8759201Y-22722885D01*
X8887415Y-22851099D01*
X9038180Y-22951837D01*
X9153000Y-22999397D01*
X9205699Y-23021226D01*
X9205703Y-23021227D01*
X9269417Y-23033900D01*
X9383539Y-23056600D01*
X9383541Y-23056600D01*
X9564859Y-23056600D01*
X9564861Y-23056600D01*
X9682344Y-23033231D01*
X9742696Y-23021227D01*
X9742700Y-23021226D01*
X9910220Y-22951837D01*
X10060985Y-22851099D01*
X10189199Y-22722885D01*
X10289937Y-22572120D01*
X10359326Y-22404600D01*
X10394700Y-22226761D01*
X10394700Y-22045440D01*
X11093700Y-22045440D01*
X11093700Y-22226759D01*
X11129072Y-22404596D01*
X11129073Y-22404600D01*
X11150439Y-22456180D01*
X11198463Y-22572120D01*
X11299201Y-22722885D01*
X11427415Y-22851099D01*
X11578180Y-22951837D01*
X11693000Y-22999397D01*
X11745699Y-23021226D01*
X11745703Y-23021227D01*
X11809417Y-23033900D01*
X11923539Y-23056600D01*
X11923541Y-23056600D01*
X12104859Y-23056600D01*
X12104861Y-23056600D01*
X12222344Y-23033231D01*
X12282696Y-23021227D01*
X12282700Y-23021226D01*
X12450220Y-22951837D01*
X12600985Y-22851099D01*
X12729199Y-22722885D01*
X12829937Y-22572120D01*
X12899326Y-22404600D01*
X12934700Y-22226761D01*
X12934700Y-22047675D01*
X13656400Y-22047675D01*
X13656400Y-22224524D01*
X13690900Y-22397975D01*
X13690902Y-22397979D01*
X13758579Y-22561368D01*
X13765307Y-22571437D01*
X14154200Y-22182544D01*
X14154200Y-22188761D01*
X14181459Y-22290494D01*
X14234120Y-22381706D01*
X14308594Y-22456180D01*
X14399806Y-22508841D01*
X14501539Y-22536100D01*
X14507752Y-22536100D01*
X14118861Y-22924991D01*
X14128934Y-22931721D01*
X14292320Y-22999397D01*
X14292324Y-22999399D01*
X14465776Y-23033900D01*
X14642624Y-23033900D01*
X14816075Y-22999399D01*
X14816079Y-22999397D01*
X14979469Y-22931719D01*
X14989537Y-22924991D01*
X14600646Y-22536100D01*
X14606861Y-22536100D01*
X14708594Y-22508841D01*
X14799806Y-22456180D01*
X14874280Y-22381706D01*
X14926941Y-22290494D01*
X14954200Y-22188761D01*
X14954200Y-22182546D01*
X15343091Y-22571437D01*
X15349819Y-22561369D01*
X15417497Y-22397979D01*
X15417499Y-22397975D01*
X15452000Y-22224524D01*
X15452000Y-22047675D01*
X15417499Y-21874224D01*
X15417497Y-21874220D01*
X15349821Y-21710834D01*
X15343090Y-21700761D01*
X14954200Y-22089651D01*
X14954200Y-22083439D01*
X14926941Y-21981706D01*
X14874280Y-21890494D01*
X14799806Y-21816020D01*
X14708594Y-21763359D01*
X14606861Y-21736100D01*
X14600644Y-21736100D01*
X14989537Y-21347207D01*
X14979468Y-21340479D01*
X14816079Y-21272802D01*
X14816075Y-21272800D01*
X14642624Y-21238300D01*
X14465776Y-21238300D01*
X14292324Y-21272800D01*
X14292320Y-21272802D01*
X14128933Y-21340479D01*
X14118861Y-21347207D01*
X14507754Y-21736100D01*
X14501539Y-21736100D01*
X14399806Y-21763359D01*
X14308594Y-21816020D01*
X14234120Y-21890494D01*
X14181459Y-21981706D01*
X14154200Y-22083439D01*
X14154200Y-22089654D01*
X13765307Y-21700761D01*
X13758579Y-21710833D01*
X13690902Y-21874220D01*
X13690900Y-21874224D01*
X13656400Y-22047675D01*
X12934700Y-22047675D01*
X12934700Y-22045439D01*
X12922023Y-21981706D01*
X12899327Y-21867603D01*
X12899326Y-21867599D01*
X12864095Y-21782545D01*
X12829937Y-21700080D01*
X12729199Y-21549315D01*
X12600985Y-21421101D01*
X12450220Y-21320363D01*
X12371321Y-21287682D01*
X12282700Y-21250973D01*
X12282696Y-21250972D01*
X12149015Y-21224382D01*
X12104861Y-21215600D01*
X11923539Y-21215600D01*
X11884260Y-21223412D01*
X11745703Y-21250972D01*
X11745699Y-21250973D01*
X11578178Y-21320364D01*
X11427417Y-21421099D01*
X11299199Y-21549317D01*
X11198464Y-21700078D01*
X11129073Y-21867599D01*
X11129072Y-21867603D01*
X11093700Y-22045440D01*
X10394700Y-22045440D01*
X10394700Y-22045439D01*
X10382023Y-21981706D01*
X10359327Y-21867603D01*
X10359326Y-21867599D01*
X10324095Y-21782545D01*
X10289937Y-21700080D01*
X10189199Y-21549315D01*
X10060985Y-21421101D01*
X9910220Y-21320363D01*
X9831321Y-21287682D01*
X9742700Y-21250973D01*
X9742696Y-21250972D01*
X9609015Y-21224382D01*
X9564861Y-21215600D01*
X9383539Y-21215600D01*
X9344260Y-21223412D01*
X9205703Y-21250972D01*
X9205699Y-21250973D01*
X9038178Y-21320364D01*
X8887417Y-21421099D01*
X8759199Y-21549317D01*
X8658464Y-21700078D01*
X8589073Y-21867599D01*
X8589072Y-21867603D01*
X8553700Y-22045440D01*
X635500Y-22045440D01*
X635500Y-20631942D01*
X1772200Y-20631942D01*
X1772200Y-20825199D01*
X1802430Y-21016077D01*
X1862152Y-21199881D01*
X1949889Y-21372075D01*
X1949895Y-21372086D01*
X1972212Y-21402803D01*
X2435386Y-20939628D01*
X2440889Y-20960162D01*
X2519881Y-21096979D01*
X2631592Y-21208690D01*
X2768409Y-21287682D01*
X2788940Y-21293183D01*
X2325767Y-21756357D01*
X2356491Y-21778679D01*
X2356495Y-21778681D01*
X2528690Y-21866418D01*
X2528689Y-21866418D01*
X2712493Y-21926140D01*
X2903371Y-21956370D01*
X2903372Y-21956371D01*
X3096628Y-21956371D01*
X3096628Y-21956370D01*
X3109686Y-21954303D01*
X3287506Y-21926140D01*
X3471310Y-21866418D01*
X3471314Y-21866416D01*
X3643508Y-21778679D01*
X3674231Y-21756357D01*
X3211057Y-21293183D01*
X3231591Y-21287682D01*
X3368408Y-21208690D01*
X3480119Y-21096979D01*
X3559111Y-20960162D01*
X3564612Y-20939628D01*
X4027786Y-21402802D01*
X4050108Y-21372079D01*
X4137845Y-21199885D01*
X4137847Y-21199881D01*
X4197569Y-21016077D01*
X4227799Y-20825199D01*
X4227800Y-20825199D01*
X4227800Y-20631942D01*
X4197569Y-20441064D01*
X4137847Y-20257260D01*
X4050110Y-20085066D01*
X4050108Y-20085062D01*
X4027786Y-20054338D01*
X3564612Y-20517511D01*
X3559111Y-20496980D01*
X3480119Y-20360163D01*
X3368408Y-20248452D01*
X3231591Y-20169460D01*
X3211057Y-20163957D01*
X3674232Y-19700783D01*
X3643515Y-19678466D01*
X3643504Y-19678460D01*
X3471309Y-19590723D01*
X3471310Y-19590723D01*
X3287506Y-19531001D01*
X3096629Y-19500771D01*
X2903371Y-19500771D01*
X2712493Y-19531001D01*
X2528692Y-19590722D01*
X2356491Y-19678463D01*
X2356487Y-19678465D01*
X2325767Y-19700783D01*
X2325767Y-19700784D01*
X2788941Y-20163958D01*
X2768409Y-20169460D01*
X2631592Y-20248452D01*
X2519881Y-20360163D01*
X2440889Y-20496980D01*
X2435387Y-20517512D01*
X1972213Y-20054338D01*
X1972212Y-20054338D01*
X1949894Y-20085058D01*
X1949892Y-20085062D01*
X1862151Y-20257263D01*
X1802430Y-20441064D01*
X1772200Y-20631942D01*
X635500Y-20631942D01*
X635500Y-18961073D01*
X23281800Y-18961073D01*
X23281800Y-18964871D01*
X23281800Y-19088125D01*
X23292811Y-19143482D01*
X23294500Y-19160630D01*
X23294500Y-36934218D01*
X23292500Y-36944273D01*
X23292500Y-37071327D01*
X23294500Y-37081381D01*
X23294500Y-55083568D01*
X23292810Y-55100716D01*
X23281800Y-55156073D01*
X23281800Y-55283127D01*
X23289744Y-55323063D01*
X23292811Y-55338482D01*
X23294500Y-55355630D01*
X23294500Y-82133279D01*
X23321725Y-82270158D01*
X23321726Y-82270162D01*
X23333863Y-82299461D01*
X23375133Y-82399098D01*
X23375134Y-82399100D01*
X23375135Y-82399101D01*
X23452672Y-82515143D01*
X23580657Y-82643127D01*
X23696699Y-82720665D01*
X23696701Y-82720666D01*
X23696703Y-82720667D01*
X23825633Y-82774070D01*
X23825642Y-82774073D01*
X23894545Y-82787778D01*
X23962518Y-82801299D01*
X23962520Y-82801299D01*
X24102079Y-82801299D01*
X24102081Y-82801299D01*
X24238961Y-82774072D01*
X24367895Y-82720667D01*
X24367896Y-82720667D01*
X24367897Y-82720666D01*
X24367900Y-82720665D01*
X24483942Y-82643127D01*
X24582627Y-82544442D01*
X24660165Y-82428400D01*
X24713572Y-82299461D01*
X24740799Y-82162581D01*
X24740799Y-82023018D01*
X24732986Y-81983743D01*
X24713189Y-81884211D01*
X24711500Y-81867063D01*
X24711500Y-68516474D01*
X42281000Y-68516474D01*
X42281000Y-68643525D01*
X42305785Y-68768136D01*
X42305787Y-68768140D01*
X42354406Y-68885519D01*
X42354407Y-68885521D01*
X42354408Y-68885522D01*
X42424996Y-68991164D01*
X42514836Y-69081004D01*
X42620478Y-69151592D01*
X42737860Y-69200213D01*
X42737861Y-69200213D01*
X42737863Y-69200214D01*
X42800592Y-69212691D01*
X42862473Y-69225000D01*
X42862475Y-69225000D01*
X42989525Y-69225000D01*
X42989527Y-69225000D01*
X43071848Y-69208625D01*
X43114136Y-69200214D01*
X43114136Y-69200213D01*
X43114140Y-69200213D01*
X43231522Y-69151592D01*
X43337164Y-69081004D01*
X43427004Y-68991164D01*
X43497592Y-68885522D01*
X43546213Y-68768140D01*
X43571000Y-68643527D01*
X43571000Y-68614169D01*
X43591565Y-68557668D01*
X43596734Y-68552025D01*
X44645632Y-67503126D01*
X44645637Y-67503123D01*
X44652868Y-67495891D01*
X44652870Y-67495891D01*
X44737491Y-67411270D01*
X44797327Y-67307631D01*
X44828300Y-67192036D01*
X44828300Y-54555268D01*
X44834863Y-54537235D01*
X44836536Y-54518120D01*
X44847542Y-54502399D01*
X44848865Y-54498767D01*
X44854026Y-54493133D01*
X44872362Y-54474796D01*
X44926854Y-54449387D01*
X44951923Y-54451996D01*
X44952144Y-54450888D01*
X45072351Y-54474798D01*
X45159335Y-54492100D01*
X45159337Y-54492100D01*
X45366263Y-54492100D01*
X45366265Y-54492100D01*
X45499136Y-54465670D01*
X45569211Y-54451732D01*
X45569212Y-54451731D01*
X45569220Y-54451730D01*
X45760398Y-54372541D01*
X45932455Y-54257577D01*
X46078777Y-54111255D01*
X46193741Y-53939198D01*
X46272930Y-53748020D01*
X46276495Y-53730100D01*
X46300276Y-53610541D01*
X46313300Y-53545065D01*
X46313300Y-53338135D01*
X46300085Y-53271699D01*
X46272932Y-53135188D01*
X46272931Y-53135185D01*
X46272930Y-53135180D01*
X46193741Y-52944002D01*
X46078777Y-52771945D01*
X45932455Y-52625623D01*
X45932451Y-52625620D01*
X45932450Y-52625619D01*
X45851982Y-52571853D01*
X46752300Y-52571853D01*
X46752300Y-54311346D01*
X46763933Y-54369832D01*
X46808245Y-54436148D01*
X46808248Y-54436152D01*
X46808251Y-54436154D01*
X46874567Y-54480466D01*
X46874569Y-54480467D01*
X46933052Y-54492100D01*
X46933054Y-54492100D01*
X48672546Y-54492100D01*
X48672548Y-54492100D01*
X48731031Y-54480467D01*
X48797352Y-54436152D01*
X48841667Y-54369831D01*
X48853300Y-54311348D01*
X48853300Y-52571852D01*
X48841667Y-52513369D01*
X48839856Y-52510659D01*
X48797354Y-52447051D01*
X48797352Y-52447048D01*
X48797348Y-52447045D01*
X48731032Y-52402733D01*
X48711536Y-52398855D01*
X48672548Y-52391100D01*
X46933052Y-52391100D01*
X46903810Y-52396916D01*
X46874567Y-52402733D01*
X46808251Y-52447045D01*
X46808245Y-52447051D01*
X46763933Y-52513367D01*
X46752300Y-52571853D01*
X45851982Y-52571853D01*
X45760401Y-52510661D01*
X45760400Y-52510660D01*
X45760398Y-52510659D01*
X45569220Y-52431470D01*
X45569216Y-52431469D01*
X45569211Y-52431467D01*
X45416484Y-52401089D01*
X45366265Y-52391100D01*
X45159335Y-52391100D01*
X45114644Y-52399989D01*
X44956388Y-52431467D01*
X44956383Y-52431469D01*
X44956381Y-52431469D01*
X44956380Y-52431470D01*
X44765202Y-52510659D01*
X44765200Y-52510659D01*
X44765198Y-52510661D01*
X44593149Y-52625619D01*
X44446819Y-52771949D01*
X44331861Y-52943998D01*
X44331859Y-52944000D01*
X44331859Y-52944002D01*
X44252670Y-53135180D01*
X44252669Y-53135183D01*
X44252667Y-53135188D01*
X44212300Y-53338136D01*
X44212300Y-53545063D01*
X44253512Y-53752255D01*
X44251117Y-53752731D01*
X44248263Y-53804451D01*
X44229601Y-53832036D01*
X44094732Y-53966906D01*
X44094732Y-53966907D01*
X44010110Y-54051528D01*
X43950273Y-54155169D01*
X43950273Y-54155170D01*
X43919299Y-54270764D01*
X43919299Y-54397515D01*
X43919300Y-54397528D01*
X43919300Y-66907530D01*
X43898735Y-66964031D01*
X43893555Y-66969685D01*
X42953985Y-67909255D01*
X42899491Y-67934666D01*
X42891830Y-67935000D01*
X42862473Y-67935000D01*
X42834950Y-67940474D01*
X42737863Y-67959785D01*
X42737859Y-67959787D01*
X42620480Y-68008406D01*
X42514838Y-68078994D01*
X42424994Y-68168838D01*
X42354406Y-68274480D01*
X42305787Y-68391859D01*
X42305785Y-68391863D01*
X42281000Y-68516474D01*
X24711500Y-68516474D01*
X24711500Y-50798136D01*
X44212300Y-50798136D01*
X44212300Y-51005063D01*
X44252667Y-51208011D01*
X44252669Y-51208016D01*
X44252670Y-51208020D01*
X44331859Y-51399198D01*
X44331860Y-51399200D01*
X44331861Y-51399201D01*
X44446819Y-51571250D01*
X44446820Y-51571251D01*
X44446823Y-51571255D01*
X44593145Y-51717577D01*
X44765202Y-51832541D01*
X44956380Y-51911730D01*
X44956385Y-51911731D01*
X44956388Y-51911732D01*
X45059232Y-51932188D01*
X45159335Y-51952100D01*
X45159337Y-51952100D01*
X45366263Y-51952100D01*
X45366265Y-51952100D01*
X45499136Y-51925670D01*
X45569211Y-51911732D01*
X45569212Y-51911731D01*
X45569220Y-51911730D01*
X45760398Y-51832541D01*
X45932455Y-51717577D01*
X46078777Y-51571255D01*
X46193741Y-51399198D01*
X46272930Y-51208020D01*
X46276495Y-51190100D01*
X46300276Y-51070541D01*
X46313300Y-51005065D01*
X46313300Y-50798136D01*
X46752300Y-50798136D01*
X46752300Y-51005063D01*
X46792667Y-51208011D01*
X46792669Y-51208016D01*
X46792670Y-51208020D01*
X46871859Y-51399198D01*
X46871860Y-51399200D01*
X46871861Y-51399201D01*
X46986819Y-51571250D01*
X46986820Y-51571251D01*
X46986823Y-51571255D01*
X47133145Y-51717577D01*
X47305202Y-51832541D01*
X47496380Y-51911730D01*
X47496385Y-51911731D01*
X47496388Y-51911732D01*
X47599232Y-51932188D01*
X47699335Y-51952100D01*
X47699337Y-51952100D01*
X47906263Y-51952100D01*
X47906265Y-51952100D01*
X48039136Y-51925670D01*
X48109211Y-51911732D01*
X48109212Y-51911731D01*
X48109220Y-51911730D01*
X48300398Y-51832541D01*
X48472455Y-51717577D01*
X48618777Y-51571255D01*
X48733741Y-51399198D01*
X48812930Y-51208020D01*
X48816495Y-51190100D01*
X48840276Y-51070541D01*
X48853300Y-51005065D01*
X48853300Y-50798135D01*
X48838605Y-50724259D01*
X48812932Y-50595188D01*
X48812931Y-50595185D01*
X48812930Y-50595180D01*
X48733741Y-50404002D01*
X48618777Y-50231945D01*
X48472455Y-50085623D01*
X48472451Y-50085620D01*
X48472450Y-50085619D01*
X48300401Y-49970661D01*
X48300400Y-49970660D01*
X48300398Y-49970659D01*
X48109220Y-49891470D01*
X48109216Y-49891469D01*
X48109211Y-49891467D01*
X47956484Y-49861089D01*
X47906265Y-49851100D01*
X47699335Y-49851100D01*
X47654644Y-49859989D01*
X47496388Y-49891467D01*
X47496383Y-49891469D01*
X47496381Y-49891469D01*
X47496380Y-49891470D01*
X47305202Y-49970659D01*
X47305200Y-49970659D01*
X47305198Y-49970661D01*
X47133149Y-50085619D01*
X46986819Y-50231949D01*
X46871861Y-50403998D01*
X46871859Y-50404000D01*
X46871859Y-50404002D01*
X46792670Y-50595180D01*
X46792669Y-50595183D01*
X46792667Y-50595188D01*
X46752300Y-50798136D01*
X46313300Y-50798136D01*
X46313300Y-50798135D01*
X46298605Y-50724259D01*
X46272932Y-50595188D01*
X46272931Y-50595185D01*
X46272930Y-50595180D01*
X46193741Y-50404002D01*
X46078777Y-50231945D01*
X45932455Y-50085623D01*
X45932451Y-50085620D01*
X45932450Y-50085619D01*
X45760401Y-49970661D01*
X45760400Y-49970660D01*
X45760398Y-49970659D01*
X45569220Y-49891470D01*
X45569216Y-49891469D01*
X45569211Y-49891467D01*
X45416484Y-49861089D01*
X45366265Y-49851100D01*
X45159335Y-49851100D01*
X45114644Y-49859989D01*
X44956388Y-49891467D01*
X44956383Y-49891469D01*
X44956381Y-49891469D01*
X44956380Y-49891470D01*
X44765202Y-49970659D01*
X44765200Y-49970659D01*
X44765198Y-49970661D01*
X44593149Y-50085619D01*
X44446819Y-50231949D01*
X44331861Y-50403998D01*
X44331859Y-50404000D01*
X44331859Y-50404002D01*
X44252670Y-50595180D01*
X44252669Y-50595183D01*
X44252667Y-50595188D01*
X44212300Y-50798136D01*
X24711500Y-50798136D01*
X24711500Y-48258136D01*
X44212300Y-48258136D01*
X44212300Y-48465063D01*
X44252667Y-48668011D01*
X44252669Y-48668016D01*
X44252670Y-48668020D01*
X44331859Y-48859198D01*
X44331860Y-48859200D01*
X44331861Y-48859201D01*
X44446819Y-49031250D01*
X44446820Y-49031251D01*
X44446823Y-49031255D01*
X44593145Y-49177577D01*
X44765202Y-49292541D01*
X44956380Y-49371730D01*
X44956385Y-49371731D01*
X44956388Y-49371732D01*
X45059232Y-49392188D01*
X45159335Y-49412100D01*
X45159337Y-49412100D01*
X45366263Y-49412100D01*
X45366265Y-49412100D01*
X45499136Y-49385670D01*
X45569211Y-49371732D01*
X45569212Y-49371731D01*
X45569220Y-49371730D01*
X45760398Y-49292541D01*
X45932455Y-49177577D01*
X46078777Y-49031255D01*
X46193741Y-48859198D01*
X46272930Y-48668020D01*
X46276495Y-48650100D01*
X46300276Y-48530541D01*
X46313300Y-48465065D01*
X46313300Y-48258136D01*
X46752300Y-48258136D01*
X46752300Y-48465063D01*
X46792667Y-48668011D01*
X46792669Y-48668016D01*
X46792670Y-48668020D01*
X46871859Y-48859198D01*
X46871860Y-48859200D01*
X46871861Y-48859201D01*
X46986819Y-49031250D01*
X46986820Y-49031251D01*
X46986823Y-49031255D01*
X47133145Y-49177577D01*
X47305202Y-49292541D01*
X47496380Y-49371730D01*
X47496385Y-49371731D01*
X47496388Y-49371732D01*
X47599232Y-49392188D01*
X47699335Y-49412100D01*
X47699337Y-49412100D01*
X47906263Y-49412100D01*
X47906265Y-49412100D01*
X48039136Y-49385670D01*
X48109211Y-49371732D01*
X48109212Y-49371731D01*
X48109220Y-49371730D01*
X48300398Y-49292541D01*
X48472455Y-49177577D01*
X48618777Y-49031255D01*
X48733741Y-48859198D01*
X48812930Y-48668020D01*
X48816495Y-48650100D01*
X48840276Y-48530541D01*
X48853300Y-48465065D01*
X48853300Y-48258135D01*
X48840085Y-48191699D01*
X48812932Y-48055188D01*
X48812931Y-48055185D01*
X48812930Y-48055180D01*
X48733741Y-47864002D01*
X48618777Y-47691945D01*
X48472455Y-47545623D01*
X48472451Y-47545620D01*
X48472450Y-47545619D01*
X48300401Y-47430661D01*
X48300400Y-47430660D01*
X48300398Y-47430659D01*
X48109220Y-47351470D01*
X48109216Y-47351469D01*
X48109211Y-47351467D01*
X47956484Y-47321089D01*
X47906265Y-47311100D01*
X47699335Y-47311100D01*
X47654644Y-47319989D01*
X47496388Y-47351467D01*
X47496383Y-47351469D01*
X47496381Y-47351469D01*
X47496380Y-47351470D01*
X47305202Y-47430659D01*
X47305200Y-47430659D01*
X47305198Y-47430661D01*
X47133149Y-47545619D01*
X46986819Y-47691949D01*
X46871861Y-47863998D01*
X46871859Y-47864000D01*
X46871859Y-47864002D01*
X46792670Y-48055180D01*
X46792669Y-48055183D01*
X46792667Y-48055188D01*
X46752300Y-48258136D01*
X46313300Y-48258136D01*
X46313300Y-48258135D01*
X46300085Y-48191699D01*
X46272932Y-48055188D01*
X46272931Y-48055185D01*
X46272930Y-48055180D01*
X46193741Y-47864002D01*
X46078777Y-47691945D01*
X45932455Y-47545623D01*
X45932451Y-47545620D01*
X45932450Y-47545619D01*
X45760401Y-47430661D01*
X45760400Y-47430660D01*
X45760398Y-47430659D01*
X45569220Y-47351470D01*
X45569216Y-47351469D01*
X45569211Y-47351467D01*
X45416484Y-47321089D01*
X45366265Y-47311100D01*
X45159335Y-47311100D01*
X45114644Y-47319989D01*
X44956388Y-47351467D01*
X44956383Y-47351469D01*
X44956381Y-47351469D01*
X44956380Y-47351470D01*
X44765202Y-47430659D01*
X44765200Y-47430659D01*
X44765198Y-47430661D01*
X44593149Y-47545619D01*
X44446819Y-47691949D01*
X44331861Y-47863998D01*
X44331859Y-47864000D01*
X44331859Y-47864002D01*
X44252670Y-48055180D01*
X44252669Y-48055183D01*
X44252667Y-48055188D01*
X44212300Y-48258136D01*
X24711500Y-48258136D01*
X24711500Y-45718136D01*
X44212300Y-45718136D01*
X44212300Y-45925063D01*
X44252667Y-46128011D01*
X44252669Y-46128016D01*
X44252670Y-46128020D01*
X44331859Y-46319198D01*
X44331860Y-46319200D01*
X44331861Y-46319201D01*
X44446819Y-46491250D01*
X44446820Y-46491251D01*
X44446823Y-46491255D01*
X44593145Y-46637577D01*
X44765202Y-46752541D01*
X44956380Y-46831730D01*
X44956385Y-46831731D01*
X44956388Y-46831732D01*
X45059232Y-46852188D01*
X45159335Y-46872100D01*
X45159337Y-46872100D01*
X45366263Y-46872100D01*
X45366265Y-46872100D01*
X45499136Y-46845670D01*
X45569211Y-46831732D01*
X45569212Y-46831731D01*
X45569220Y-46831730D01*
X45760398Y-46752541D01*
X45932455Y-46637577D01*
X46078777Y-46491255D01*
X46193741Y-46319198D01*
X46272930Y-46128020D01*
X46276495Y-46110100D01*
X46300276Y-45990541D01*
X46313300Y-45925065D01*
X46313300Y-45718136D01*
X46752300Y-45718136D01*
X46752300Y-45925063D01*
X46792667Y-46128011D01*
X46792669Y-46128016D01*
X46792670Y-46128020D01*
X46871859Y-46319198D01*
X46871860Y-46319200D01*
X46871861Y-46319201D01*
X46986819Y-46491250D01*
X46986820Y-46491251D01*
X46986823Y-46491255D01*
X47133145Y-46637577D01*
X47305202Y-46752541D01*
X47496380Y-46831730D01*
X47496385Y-46831731D01*
X47496388Y-46831732D01*
X47599232Y-46852188D01*
X47699335Y-46872100D01*
X47699337Y-46872100D01*
X47906263Y-46872100D01*
X47906265Y-46872100D01*
X48039136Y-46845670D01*
X48109211Y-46831732D01*
X48109212Y-46831731D01*
X48109220Y-46831730D01*
X48300398Y-46752541D01*
X48472455Y-46637577D01*
X48618777Y-46491255D01*
X48733741Y-46319198D01*
X48812930Y-46128020D01*
X48816495Y-46110100D01*
X48840276Y-45990541D01*
X48853300Y-45925065D01*
X48853300Y-45718135D01*
X48821345Y-45557485D01*
X48812932Y-45515188D01*
X48812931Y-45515185D01*
X48812930Y-45515180D01*
X48733741Y-45324002D01*
X48618777Y-45151945D01*
X48472455Y-45005623D01*
X48472451Y-45005620D01*
X48472450Y-45005619D01*
X48300401Y-44890661D01*
X48300400Y-44890660D01*
X48300398Y-44890659D01*
X48109220Y-44811470D01*
X48109216Y-44811469D01*
X48109211Y-44811467D01*
X47956484Y-44781089D01*
X47906265Y-44771100D01*
X47699335Y-44771100D01*
X47654644Y-44779989D01*
X47496388Y-44811467D01*
X47496383Y-44811469D01*
X47496381Y-44811469D01*
X47496380Y-44811470D01*
X47305202Y-44890659D01*
X47305200Y-44890659D01*
X47305198Y-44890661D01*
X47133149Y-45005619D01*
X46986819Y-45151949D01*
X46871861Y-45323998D01*
X46871859Y-45324000D01*
X46871859Y-45324002D01*
X46792670Y-45515180D01*
X46792669Y-45515183D01*
X46792667Y-45515188D01*
X46752300Y-45718136D01*
X46313300Y-45718136D01*
X46313300Y-45718135D01*
X46281345Y-45557485D01*
X46272932Y-45515188D01*
X46272931Y-45515185D01*
X46272930Y-45515180D01*
X46193741Y-45324002D01*
X46078777Y-45151945D01*
X45932455Y-45005623D01*
X45932451Y-45005620D01*
X45932450Y-45005619D01*
X45760401Y-44890661D01*
X45760400Y-44890660D01*
X45760398Y-44890659D01*
X45569220Y-44811470D01*
X45569216Y-44811469D01*
X45569211Y-44811467D01*
X45416484Y-44781089D01*
X45366265Y-44771100D01*
X45159335Y-44771100D01*
X45114644Y-44779989D01*
X44956388Y-44811467D01*
X44956383Y-44811469D01*
X44956381Y-44811469D01*
X44956380Y-44811470D01*
X44765202Y-44890659D01*
X44765200Y-44890659D01*
X44765198Y-44890661D01*
X44593149Y-45005619D01*
X44446819Y-45151949D01*
X44331861Y-45323998D01*
X44331859Y-45324000D01*
X44331859Y-45324002D01*
X44252670Y-45515180D01*
X44252669Y-45515183D01*
X44252667Y-45515188D01*
X44212300Y-45718136D01*
X24711500Y-45718136D01*
X24711500Y-43316000D01*
X24732065Y-43259499D01*
X24784136Y-43229435D01*
X24799400Y-43228100D01*
X50664000Y-43228100D01*
X50720501Y-43248665D01*
X50750565Y-43300736D01*
X50751900Y-43316000D01*
X50751900Y-53721318D01*
X50731335Y-53777819D01*
X50726155Y-53783473D01*
X47078224Y-57431403D01*
X47064905Y-57442334D01*
X46995559Y-57488670D01*
X46024670Y-58459559D01*
X45947134Y-58575600D01*
X45932642Y-58610590D01*
X45932641Y-58610592D01*
X45893726Y-58704541D01*
X45893724Y-58704546D01*
X45866500Y-58841420D01*
X45866500Y-91447858D01*
X45845935Y-91504359D01*
X45840755Y-91510012D01*
X45767624Y-91583142D01*
X45767619Y-91583149D01*
X45652661Y-91755198D01*
X45652659Y-91755200D01*
X45652659Y-91755202D01*
X45573713Y-91945793D01*
X45573469Y-91946383D01*
X45573467Y-91946388D01*
X45533100Y-92149336D01*
X45533100Y-92356263D01*
X45573467Y-92559211D01*
X45573469Y-92559216D01*
X45573470Y-92559220D01*
X45652659Y-92750398D01*
X45652660Y-92750400D01*
X45652661Y-92750401D01*
X45767619Y-92922450D01*
X45767620Y-92922451D01*
X45767623Y-92922455D01*
X45913945Y-93068777D01*
X46086002Y-93183741D01*
X46277180Y-93262930D01*
X46277185Y-93262931D01*
X46277188Y-93262932D01*
X46380032Y-93283388D01*
X46480135Y-93303300D01*
X46480137Y-93303300D01*
X46687063Y-93303300D01*
X46687065Y-93303300D01*
X46853054Y-93270283D01*
X46890011Y-93262932D01*
X46890012Y-93262931D01*
X46890020Y-93262930D01*
X47081198Y-93183741D01*
X47253255Y-93068777D01*
X47399577Y-92922455D01*
X47514541Y-92750398D01*
X47593730Y-92559220D01*
X47593732Y-92559211D01*
X47615606Y-92449243D01*
X47634100Y-92356263D01*
X47634100Y-92149336D01*
X47593732Y-91946388D01*
X47593731Y-91946385D01*
X47593730Y-91946380D01*
X47514541Y-91755202D01*
X47399577Y-91583145D01*
X47399574Y-91583142D01*
X47309245Y-91492812D01*
X47301135Y-91475421D01*
X47288801Y-91460722D01*
X47285469Y-91441825D01*
X47283834Y-91438319D01*
X47283500Y-91430658D01*
X47283500Y-91385287D01*
X48095800Y-91385287D01*
X48095800Y-92002799D01*
X48095801Y-92002800D01*
X48690588Y-92002800D01*
X48657675Y-92059807D01*
X48623600Y-92186974D01*
X48623600Y-92318626D01*
X48657675Y-92445793D01*
X48690588Y-92502800D01*
X48095802Y-92502800D01*
X48095801Y-92502801D01*
X48095801Y-93120308D01*
X48106116Y-93172175D01*
X48145411Y-93230982D01*
X48145417Y-93230988D01*
X48204224Y-93270283D01*
X48256087Y-93280599D01*
X48873598Y-93280599D01*
X48873600Y-93280598D01*
X48873600Y-92685812D01*
X48930607Y-92718725D01*
X49057774Y-92752800D01*
X49189426Y-92752800D01*
X49316593Y-92718725D01*
X49373600Y-92685812D01*
X49373600Y-93280598D01*
X49373601Y-93280599D01*
X49991109Y-93280599D01*
X50042975Y-93270283D01*
X50101782Y-93230988D01*
X50101788Y-93230982D01*
X50141083Y-93172175D01*
X50151400Y-93120312D01*
X50151400Y-92502801D01*
X50151399Y-92502800D01*
X49556612Y-92502800D01*
X49589525Y-92445793D01*
X49623600Y-92318626D01*
X49623600Y-92186974D01*
X49589525Y-92059807D01*
X49556612Y-92002800D01*
X50151398Y-92002800D01*
X50151399Y-92002799D01*
X50151399Y-91385291D01*
X50141083Y-91333424D01*
X50101788Y-91274617D01*
X50101782Y-91274611D01*
X50042975Y-91235316D01*
X49991113Y-91225000D01*
X49373601Y-91225000D01*
X49373600Y-91225001D01*
X49373600Y-91819788D01*
X49316593Y-91786875D01*
X49189426Y-91752800D01*
X49057774Y-91752800D01*
X48930607Y-91786875D01*
X48873600Y-91819788D01*
X48873600Y-91225001D01*
X48873599Y-91225000D01*
X48256086Y-91225000D01*
X48256084Y-91225001D01*
X48204228Y-91235314D01*
X48204224Y-91235316D01*
X48145417Y-91274611D01*
X48145411Y-91274617D01*
X48106116Y-91333424D01*
X48095800Y-91385287D01*
X47283500Y-91385287D01*
X47283500Y-79462473D01*
X49215200Y-79462473D01*
X49215200Y-79589527D01*
X49221354Y-79620466D01*
X49239985Y-79714136D01*
X49239987Y-79714140D01*
X49288606Y-79831519D01*
X49288607Y-79831521D01*
X49288608Y-79831522D01*
X49359196Y-79937164D01*
X49449036Y-80027004D01*
X49554678Y-80097592D01*
X49672060Y-80146213D01*
X49672061Y-80146213D01*
X49672063Y-80146214D01*
X49734792Y-80158691D01*
X49796673Y-80171000D01*
X49796675Y-80171000D01*
X49923725Y-80171000D01*
X49923727Y-80171000D01*
X50006048Y-80154625D01*
X50048336Y-80146214D01*
X50048336Y-80146213D01*
X50048340Y-80146213D01*
X50165722Y-80097592D01*
X50271364Y-80027004D01*
X50361204Y-79937164D01*
X50431792Y-79831522D01*
X50480413Y-79714140D01*
X50505200Y-79589527D01*
X50505200Y-79488327D01*
X50525765Y-79431826D01*
X50530945Y-79426172D01*
X50836546Y-79120571D01*
X51142240Y-78814877D01*
X51142245Y-78814873D01*
X51149476Y-78807641D01*
X51149478Y-78807641D01*
X51224641Y-78732478D01*
X51277789Y-78640423D01*
X51284810Y-78614219D01*
X51305301Y-78537748D01*
X51305301Y-78431452D01*
X51305301Y-78426071D01*
X51305300Y-78426053D01*
X51305300Y-66980228D01*
X51325865Y-66923727D01*
X51331045Y-66918073D01*
X53710073Y-64539045D01*
X53764567Y-64513634D01*
X53772228Y-64513300D01*
X54159459Y-64513300D01*
X54215960Y-64533865D01*
X54246024Y-64585936D01*
X54235583Y-64645150D01*
X54221617Y-64663350D01*
X54175023Y-64709945D01*
X54175020Y-64709948D01*
X54175019Y-64709949D01*
X54060061Y-64881998D01*
X54060059Y-64882000D01*
X54060059Y-64882002D01*
X54042344Y-64924770D01*
X53980869Y-65073183D01*
X53980867Y-65073188D01*
X53940500Y-65276136D01*
X53940500Y-65483063D01*
X53980867Y-65686011D01*
X53980869Y-65686016D01*
X53980870Y-65686020D01*
X54060059Y-65877198D01*
X54060060Y-65877200D01*
X54060061Y-65877201D01*
X54175019Y-66049250D01*
X54175020Y-66049251D01*
X54175023Y-66049255D01*
X54221614Y-66095846D01*
X54247025Y-66150339D01*
X54231462Y-66208417D01*
X54182209Y-66242905D01*
X54159459Y-66245900D01*
X53677946Y-66245900D01*
X53677930Y-66245899D01*
X53672548Y-66245899D01*
X53566252Y-66245899D01*
X53485275Y-66267597D01*
X53463578Y-66273410D01*
X53371520Y-66326560D01*
X52077160Y-67620920D01*
X52024011Y-67712977D01*
X52024011Y-67712978D01*
X51996499Y-67815652D01*
X51996499Y-67929027D01*
X51996500Y-67929040D01*
X51996500Y-79120571D01*
X51975935Y-79177072D01*
X51970755Y-79182726D01*
X49960026Y-81193455D01*
X49905532Y-81218866D01*
X49897871Y-81219200D01*
X49796673Y-81219200D01*
X49769150Y-81224674D01*
X49672063Y-81243985D01*
X49672059Y-81243987D01*
X49554680Y-81292606D01*
X49449038Y-81363194D01*
X49359194Y-81453038D01*
X49288606Y-81558680D01*
X49239987Y-81676059D01*
X49239985Y-81676063D01*
X49215200Y-81800674D01*
X49215200Y-81927725D01*
X49239985Y-82052336D01*
X49239987Y-82052340D01*
X49288606Y-82169719D01*
X49288607Y-82169721D01*
X49288608Y-82169722D01*
X49359196Y-82275364D01*
X49449036Y-82365204D01*
X49554678Y-82435792D01*
X49672060Y-82484413D01*
X49672061Y-82484413D01*
X49672063Y-82484414D01*
X49734792Y-82496891D01*
X49796673Y-82509200D01*
X49796675Y-82509200D01*
X49923725Y-82509200D01*
X49923727Y-82509200D01*
X50006048Y-82492825D01*
X50048336Y-82484414D01*
X50048336Y-82484413D01*
X50048340Y-82484413D01*
X50165722Y-82435792D01*
X50271364Y-82365204D01*
X50361204Y-82275364D01*
X50431792Y-82169722D01*
X50480413Y-82052340D01*
X50486246Y-82023018D01*
X50505200Y-81927725D01*
X50505200Y-81826527D01*
X50525765Y-81770026D01*
X50530945Y-81764372D01*
X51101862Y-81193455D01*
X52640840Y-79654477D01*
X52640845Y-79654473D01*
X52648076Y-79647241D01*
X52648078Y-79647241D01*
X52723241Y-79572078D01*
X52776389Y-79480023D01*
X52803900Y-79377348D01*
X52803900Y-72898372D01*
X53963200Y-72898372D01*
X53963200Y-73100827D01*
X54002696Y-73299394D01*
X54002698Y-73299398D01*
X54080176Y-73486445D01*
X54108383Y-73528660D01*
X54508036Y-73129006D01*
X54525075Y-73192593D01*
X54590901Y-73306607D01*
X54683993Y-73399699D01*
X54798007Y-73465525D01*
X54861589Y-73482562D01*
X54461937Y-73882215D01*
X54504152Y-73910422D01*
X54691201Y-73987901D01*
X54691205Y-73987903D01*
X54889773Y-74027400D01*
X55092227Y-74027400D01*
X55290794Y-73987903D01*
X55290798Y-73987901D01*
X55477848Y-73910422D01*
X55520061Y-73882215D01*
X55120408Y-73482562D01*
X55183993Y-73465525D01*
X55298007Y-73399699D01*
X55391099Y-73306607D01*
X55456925Y-73192593D01*
X55473962Y-73129008D01*
X55873615Y-73528661D01*
X55901822Y-73486448D01*
X55979301Y-73299398D01*
X55979303Y-73299394D01*
X56018800Y-73100827D01*
X56018800Y-72898372D01*
X56503200Y-72898372D01*
X56503200Y-73100827D01*
X56542696Y-73299394D01*
X56542698Y-73299398D01*
X56620176Y-73486445D01*
X56648383Y-73528660D01*
X57048036Y-73129006D01*
X57065075Y-73192593D01*
X57130901Y-73306607D01*
X57223993Y-73399699D01*
X57338007Y-73465525D01*
X57401589Y-73482562D01*
X57001937Y-73882215D01*
X57044152Y-73910422D01*
X57231201Y-73987901D01*
X57231205Y-73987903D01*
X57429773Y-74027400D01*
X57632227Y-74027400D01*
X57830794Y-73987903D01*
X57830798Y-73987901D01*
X58017848Y-73910422D01*
X58060061Y-73882215D01*
X57660408Y-73482562D01*
X57723993Y-73465525D01*
X57838007Y-73399699D01*
X57931099Y-73306607D01*
X57996925Y-73192593D01*
X58013962Y-73129008D01*
X58413615Y-73528661D01*
X58441822Y-73486448D01*
X58519301Y-73299398D01*
X58519303Y-73299394D01*
X58558800Y-73100827D01*
X58558800Y-72898372D01*
X58519303Y-72699805D01*
X58519301Y-72699801D01*
X58441822Y-72512752D01*
X58413615Y-72470537D01*
X58013962Y-72870189D01*
X57996925Y-72806607D01*
X57931099Y-72692593D01*
X57838007Y-72599501D01*
X57723993Y-72533675D01*
X57660407Y-72516636D01*
X58060061Y-72116984D01*
X58017845Y-72088776D01*
X57830798Y-72011298D01*
X57830794Y-72011296D01*
X57632227Y-71971800D01*
X57429773Y-71971800D01*
X57231205Y-72011296D01*
X57231201Y-72011298D01*
X57044154Y-72088775D01*
X57001937Y-72116983D01*
X57401591Y-72516637D01*
X57338007Y-72533675D01*
X57223993Y-72599501D01*
X57130901Y-72692593D01*
X57065075Y-72806607D01*
X57048037Y-72870191D01*
X56648383Y-72470537D01*
X56620175Y-72512754D01*
X56542698Y-72699801D01*
X56542696Y-72699805D01*
X56503200Y-72898372D01*
X56018800Y-72898372D01*
X55979303Y-72699805D01*
X55979301Y-72699801D01*
X55901822Y-72512752D01*
X55873615Y-72470537D01*
X55473962Y-72870189D01*
X55456925Y-72806607D01*
X55391099Y-72692593D01*
X55298007Y-72599501D01*
X55183993Y-72533675D01*
X55120407Y-72516636D01*
X55520061Y-72116984D01*
X55477845Y-72088776D01*
X55290798Y-72011298D01*
X55290794Y-72011296D01*
X55092227Y-71971800D01*
X54889773Y-71971800D01*
X54691205Y-72011296D01*
X54691201Y-72011298D01*
X54504154Y-72088775D01*
X54461937Y-72116983D01*
X54861591Y-72516637D01*
X54798007Y-72533675D01*
X54683993Y-72599501D01*
X54590901Y-72692593D01*
X54525075Y-72806607D01*
X54508037Y-72870191D01*
X54108383Y-72470537D01*
X54080175Y-72512754D01*
X54002698Y-72699801D01*
X54002696Y-72699805D01*
X53963200Y-72898372D01*
X52803900Y-72898372D01*
X52803900Y-70358372D01*
X53963200Y-70358372D01*
X53963200Y-70560827D01*
X54002696Y-70759394D01*
X54002698Y-70759398D01*
X54080176Y-70946445D01*
X54108383Y-70988660D01*
X54508036Y-70589006D01*
X54525075Y-70652593D01*
X54590901Y-70766607D01*
X54683993Y-70859699D01*
X54798007Y-70925525D01*
X54861589Y-70942562D01*
X54461937Y-71342215D01*
X54504152Y-71370422D01*
X54691201Y-71447901D01*
X54691205Y-71447903D01*
X54889773Y-71487400D01*
X55092227Y-71487400D01*
X55290794Y-71447903D01*
X55290798Y-71447901D01*
X55477848Y-71370422D01*
X55520061Y-71342215D01*
X55120408Y-70942562D01*
X55183993Y-70925525D01*
X55298007Y-70859699D01*
X55391099Y-70766607D01*
X55456925Y-70652593D01*
X55473962Y-70589008D01*
X55873615Y-70988661D01*
X55901822Y-70946448D01*
X55979301Y-70759398D01*
X55979303Y-70759394D01*
X56018800Y-70560827D01*
X56018800Y-70358373D01*
X56018799Y-70358372D01*
X56018354Y-70356136D01*
X56480500Y-70356136D01*
X56480500Y-70563063D01*
X56520867Y-70766011D01*
X56520869Y-70766016D01*
X56520870Y-70766020D01*
X56600059Y-70957198D01*
X56600060Y-70957200D01*
X56600061Y-70957201D01*
X56715019Y-71129250D01*
X56715020Y-71129251D01*
X56715023Y-71129255D01*
X56861345Y-71275577D01*
X57033402Y-71390541D01*
X57224580Y-71469730D01*
X57224585Y-71469731D01*
X57224588Y-71469732D01*
X57327432Y-71490188D01*
X57427535Y-71510100D01*
X57427537Y-71510100D01*
X57634463Y-71510100D01*
X57634465Y-71510100D01*
X57767336Y-71483670D01*
X57837411Y-71469732D01*
X57837412Y-71469731D01*
X57837420Y-71469730D01*
X58028598Y-71390541D01*
X58200655Y-71275577D01*
X58346977Y-71129255D01*
X58461941Y-70957198D01*
X58541130Y-70766020D01*
X58581500Y-70563065D01*
X58581500Y-70356135D01*
X58541130Y-70153180D01*
X58461941Y-69962002D01*
X58346977Y-69789945D01*
X58200655Y-69643623D01*
X58200651Y-69643620D01*
X58200650Y-69643619D01*
X58028601Y-69528661D01*
X58028600Y-69528660D01*
X58028598Y-69528659D01*
X57837420Y-69449470D01*
X57837416Y-69449469D01*
X57837411Y-69449467D01*
X57684684Y-69419089D01*
X57634465Y-69409100D01*
X57427535Y-69409100D01*
X57382844Y-69417989D01*
X57224588Y-69449467D01*
X57224583Y-69449469D01*
X57224581Y-69449469D01*
X57224580Y-69449470D01*
X57033402Y-69528659D01*
X57033400Y-69528659D01*
X57033398Y-69528661D01*
X56861349Y-69643619D01*
X56715019Y-69789949D01*
X56600061Y-69961998D01*
X56600059Y-69962000D01*
X56600059Y-69962002D01*
X56540394Y-70106045D01*
X56520869Y-70153183D01*
X56520867Y-70153188D01*
X56480500Y-70356136D01*
X56018354Y-70356136D01*
X55979303Y-70159805D01*
X55979301Y-70159801D01*
X55901822Y-69972752D01*
X55873615Y-69930537D01*
X55473962Y-70330189D01*
X55456925Y-70266607D01*
X55391099Y-70152593D01*
X55298007Y-70059501D01*
X55183993Y-69993675D01*
X55120407Y-69976636D01*
X55520061Y-69576984D01*
X55477845Y-69548776D01*
X55290798Y-69471298D01*
X55290794Y-69471296D01*
X55092227Y-69431800D01*
X54889773Y-69431800D01*
X54691205Y-69471296D01*
X54691201Y-69471298D01*
X54504154Y-69548775D01*
X54461937Y-69576983D01*
X54861591Y-69976637D01*
X54798007Y-69993675D01*
X54683993Y-70059501D01*
X54590901Y-70152593D01*
X54525075Y-70266607D01*
X54508037Y-70330191D01*
X54108383Y-69930537D01*
X54080175Y-69972754D01*
X54002698Y-70159801D01*
X54002696Y-70159805D01*
X53963200Y-70358372D01*
X52803900Y-70358372D01*
X52803900Y-68072428D01*
X52824465Y-68015927D01*
X52829645Y-68010273D01*
X53760873Y-67079045D01*
X53815367Y-67053634D01*
X53823028Y-67053300D01*
X54159459Y-67053300D01*
X54215960Y-67073865D01*
X54246024Y-67125936D01*
X54235583Y-67185150D01*
X54221617Y-67203350D01*
X54175023Y-67249945D01*
X54175020Y-67249948D01*
X54175019Y-67249949D01*
X54060061Y-67421998D01*
X54060059Y-67422000D01*
X54060059Y-67422002D01*
X54012508Y-67536800D01*
X53980869Y-67613183D01*
X53980867Y-67613188D01*
X53953130Y-67752639D01*
X53940500Y-67816135D01*
X53940500Y-68023065D01*
X53946038Y-68050906D01*
X53980867Y-68226011D01*
X53980869Y-68226016D01*
X53980870Y-68226020D01*
X54060059Y-68417198D01*
X54060060Y-68417200D01*
X54060061Y-68417201D01*
X54175019Y-68589250D01*
X54175020Y-68589251D01*
X54175023Y-68589255D01*
X54321345Y-68735577D01*
X54321348Y-68735579D01*
X54321349Y-68735580D01*
X54407373Y-68793059D01*
X54493402Y-68850541D01*
X54684580Y-68929730D01*
X54684585Y-68929731D01*
X54684588Y-68929732D01*
X54787432Y-68950188D01*
X54887535Y-68970100D01*
X54887537Y-68970100D01*
X55094463Y-68970100D01*
X55094465Y-68970100D01*
X55227336Y-68943670D01*
X55297411Y-68929732D01*
X55297412Y-68929731D01*
X55297420Y-68929730D01*
X55488598Y-68850541D01*
X55660655Y-68735577D01*
X55806977Y-68589255D01*
X55921941Y-68417198D01*
X56001130Y-68226020D01*
X56005252Y-68205300D01*
X56021148Y-68125380D01*
X56041500Y-68023065D01*
X56041500Y-67816135D01*
X56480500Y-67816135D01*
X56480500Y-68023065D01*
X56486038Y-68050906D01*
X56520867Y-68226011D01*
X56520869Y-68226016D01*
X56520870Y-68226020D01*
X56600059Y-68417198D01*
X56600060Y-68417200D01*
X56600061Y-68417201D01*
X56715019Y-68589250D01*
X56715020Y-68589251D01*
X56715023Y-68589255D01*
X56861345Y-68735577D01*
X56861348Y-68735579D01*
X56861349Y-68735580D01*
X56947373Y-68793059D01*
X57033402Y-68850541D01*
X57224580Y-68929730D01*
X57224585Y-68929731D01*
X57224588Y-68929732D01*
X57327432Y-68950188D01*
X57427535Y-68970100D01*
X57427537Y-68970100D01*
X57634463Y-68970100D01*
X57634465Y-68970100D01*
X57767336Y-68943670D01*
X57837411Y-68929732D01*
X57837412Y-68929731D01*
X57837420Y-68929730D01*
X58028598Y-68850541D01*
X58200655Y-68735577D01*
X58346977Y-68589255D01*
X58461941Y-68417198D01*
X58541130Y-68226020D01*
X58545252Y-68205300D01*
X58561148Y-68125380D01*
X58581500Y-68023065D01*
X58581500Y-67816135D01*
X58554326Y-67679522D01*
X58541132Y-67613188D01*
X58541131Y-67613185D01*
X58541130Y-67613180D01*
X58461941Y-67422002D01*
X58346977Y-67249945D01*
X58200655Y-67103623D01*
X58200651Y-67103620D01*
X58200650Y-67103619D01*
X58028601Y-66988661D01*
X58028600Y-66988660D01*
X58028598Y-66988659D01*
X57837420Y-66909470D01*
X57837416Y-66909469D01*
X57837411Y-66909467D01*
X57684684Y-66879089D01*
X57634465Y-66869100D01*
X57427535Y-66869100D01*
X57382844Y-66877989D01*
X57224588Y-66909467D01*
X57224583Y-66909469D01*
X57224581Y-66909469D01*
X57224580Y-66909470D01*
X57033402Y-66988659D01*
X57033400Y-66988659D01*
X57033398Y-66988661D01*
X56861349Y-67103619D01*
X56715019Y-67249949D01*
X56600061Y-67421998D01*
X56600059Y-67422000D01*
X56600059Y-67422002D01*
X56552508Y-67536800D01*
X56520869Y-67613183D01*
X56520867Y-67613188D01*
X56493130Y-67752639D01*
X56480500Y-67816135D01*
X56041500Y-67816135D01*
X56014326Y-67679522D01*
X56001132Y-67613188D01*
X56001131Y-67613185D01*
X56001130Y-67613180D01*
X55921941Y-67422002D01*
X55806977Y-67249945D01*
X55760385Y-67203353D01*
X55734975Y-67148861D01*
X55750538Y-67090783D01*
X55799791Y-67056295D01*
X55822541Y-67053300D01*
X56202454Y-67053300D01*
X56202470Y-67053301D01*
X56207852Y-67053301D01*
X56314148Y-67053301D01*
X56395120Y-67031603D01*
X56395125Y-67031603D01*
X56395125Y-67031602D01*
X56403065Y-67029474D01*
X56416823Y-67025789D01*
X56508878Y-66972641D01*
X56584041Y-66897478D01*
X56584041Y-66897476D01*
X56591273Y-66890245D01*
X56591277Y-66890240D01*
X57089152Y-66392364D01*
X57143645Y-66366954D01*
X57184944Y-66373311D01*
X57224580Y-66389730D01*
X57224584Y-66389730D01*
X57224588Y-66389732D01*
X57327432Y-66410188D01*
X57427535Y-66430100D01*
X57427537Y-66430100D01*
X57634463Y-66430100D01*
X57634465Y-66430100D01*
X57777132Y-66401722D01*
X57837411Y-66389732D01*
X57837412Y-66389731D01*
X57837420Y-66389730D01*
X58028598Y-66310541D01*
X58200655Y-66195577D01*
X58346977Y-66049255D01*
X58461941Y-65877198D01*
X58541130Y-65686020D01*
X58581500Y-65483065D01*
X58581500Y-65276135D01*
X58541130Y-65073180D01*
X58461941Y-64882002D01*
X58404459Y-64795973D01*
X58346980Y-64709949D01*
X58346979Y-64709948D01*
X58346977Y-64709945D01*
X58200655Y-64563623D01*
X58200651Y-64563620D01*
X58200650Y-64563619D01*
X58028601Y-64448661D01*
X58028600Y-64448660D01*
X58028598Y-64448659D01*
X57837420Y-64369470D01*
X57837416Y-64369469D01*
X57837411Y-64369467D01*
X57684684Y-64339089D01*
X57634465Y-64329100D01*
X57427535Y-64329100D01*
X57382844Y-64337989D01*
X57224588Y-64369467D01*
X57224583Y-64369469D01*
X57224581Y-64369469D01*
X57224580Y-64369470D01*
X57033402Y-64448659D01*
X57033400Y-64448659D01*
X57033398Y-64448661D01*
X56861349Y-64563619D01*
X56715019Y-64709949D01*
X56600061Y-64881998D01*
X56600059Y-64882000D01*
X56600059Y-64882002D01*
X56582344Y-64924770D01*
X56520869Y-65073183D01*
X56520867Y-65073188D01*
X56480500Y-65276136D01*
X56480500Y-65483063D01*
X56520867Y-65686011D01*
X56520871Y-65686023D01*
X56537287Y-65725655D01*
X56539910Y-65785724D01*
X56518233Y-65821447D01*
X56119527Y-66220155D01*
X56065033Y-66245565D01*
X56057372Y-66245900D01*
X55822541Y-66245900D01*
X55766040Y-66225335D01*
X55735976Y-66173264D01*
X55746417Y-66114050D01*
X55760382Y-66095849D01*
X55806977Y-66049255D01*
X55921941Y-65877198D01*
X56001130Y-65686020D01*
X56041500Y-65483065D01*
X56041500Y-65276135D01*
X56001130Y-65073180D01*
X55921941Y-64882002D01*
X55864459Y-64795973D01*
X55806980Y-64709949D01*
X55806979Y-64709948D01*
X55806977Y-64709945D01*
X55760385Y-64663353D01*
X55734975Y-64608861D01*
X55750538Y-64550783D01*
X55799791Y-64516295D01*
X55822541Y-64513300D01*
X56202454Y-64513300D01*
X56202470Y-64513301D01*
X56207852Y-64513301D01*
X56314148Y-64513301D01*
X56395120Y-64491603D01*
X56395125Y-64491603D01*
X56395125Y-64491602D01*
X56403065Y-64489474D01*
X56416823Y-64485789D01*
X56508878Y-64432641D01*
X56584041Y-64357478D01*
X56584041Y-64357476D01*
X56591273Y-64350245D01*
X56591277Y-64350240D01*
X57089152Y-63852364D01*
X57143645Y-63826954D01*
X57184944Y-63833311D01*
X57224580Y-63849730D01*
X57224584Y-63849730D01*
X57224588Y-63849732D01*
X57327432Y-63870188D01*
X57427535Y-63890100D01*
X57427537Y-63890100D01*
X57634463Y-63890100D01*
X57634465Y-63890100D01*
X57777137Y-63861721D01*
X57837411Y-63849732D01*
X57837412Y-63849731D01*
X57837420Y-63849730D01*
X58028598Y-63770541D01*
X58200655Y-63655577D01*
X58346977Y-63509255D01*
X58461941Y-63337198D01*
X58541130Y-63146020D01*
X58581500Y-62943065D01*
X58581500Y-62736135D01*
X58568285Y-62669699D01*
X58541132Y-62533188D01*
X58541131Y-62533185D01*
X58541130Y-62533180D01*
X58461941Y-62342002D01*
X58346977Y-62169945D01*
X58200655Y-62023623D01*
X58200651Y-62023620D01*
X58200650Y-62023619D01*
X58028601Y-61908661D01*
X58028600Y-61908660D01*
X58028598Y-61908659D01*
X57837420Y-61829470D01*
X57837416Y-61829469D01*
X57837411Y-61829467D01*
X57684684Y-61799089D01*
X57634465Y-61789100D01*
X57427535Y-61789100D01*
X57382844Y-61797989D01*
X57224588Y-61829467D01*
X57224583Y-61829469D01*
X57224581Y-61829469D01*
X57224580Y-61829470D01*
X57033402Y-61908659D01*
X57033400Y-61908659D01*
X57033398Y-61908661D01*
X56861349Y-62023619D01*
X56715019Y-62169949D01*
X56600061Y-62341998D01*
X56520869Y-62533183D01*
X56520867Y-62533188D01*
X56480500Y-62736136D01*
X56480500Y-62943063D01*
X56520867Y-63146011D01*
X56520871Y-63146023D01*
X56537287Y-63185655D01*
X56539910Y-63245724D01*
X56518233Y-63281447D01*
X56119527Y-63680155D01*
X56065033Y-63705565D01*
X56057372Y-63705900D01*
X55822541Y-63705900D01*
X55766040Y-63685335D01*
X55735976Y-63633264D01*
X55746417Y-63574050D01*
X55760382Y-63555849D01*
X55806977Y-63509255D01*
X55921941Y-63337198D01*
X56001130Y-63146020D01*
X56041500Y-62943065D01*
X56041500Y-62736135D01*
X56028285Y-62669699D01*
X56001132Y-62533188D01*
X56001131Y-62533185D01*
X56001130Y-62533180D01*
X55921941Y-62342002D01*
X55806977Y-62169945D01*
X55660655Y-62023623D01*
X55660651Y-62023620D01*
X55660650Y-62023619D01*
X55488601Y-61908661D01*
X55488600Y-61908660D01*
X55488598Y-61908659D01*
X55297420Y-61829470D01*
X55297416Y-61829469D01*
X55297411Y-61829467D01*
X55144684Y-61799089D01*
X55094465Y-61789100D01*
X54887535Y-61789100D01*
X54842844Y-61797989D01*
X54684588Y-61829467D01*
X54684583Y-61829469D01*
X54684581Y-61829469D01*
X54684580Y-61829470D01*
X54493402Y-61908659D01*
X54493400Y-61908659D01*
X54493398Y-61908661D01*
X54321349Y-62023619D01*
X54175019Y-62169949D01*
X54060061Y-62341998D01*
X53980869Y-62533183D01*
X53980867Y-62533188D01*
X53940500Y-62736136D01*
X53940500Y-62943063D01*
X53980867Y-63146011D01*
X53980869Y-63146016D01*
X53980870Y-63146020D01*
X54060059Y-63337198D01*
X54060060Y-63337200D01*
X54060061Y-63337201D01*
X54175019Y-63509250D01*
X54175020Y-63509251D01*
X54175023Y-63509255D01*
X54221614Y-63555846D01*
X54247025Y-63610339D01*
X54231462Y-63668417D01*
X54182209Y-63702905D01*
X54159459Y-63705900D01*
X53627147Y-63705900D01*
X53627131Y-63705899D01*
X53621749Y-63705899D01*
X53515452Y-63705899D01*
X53412778Y-63733409D01*
X53388112Y-63747650D01*
X53373871Y-63755873D01*
X53360583Y-63763544D01*
X53320725Y-63786556D01*
X53320720Y-63786559D01*
X53245558Y-63861721D01*
X53245559Y-63861722D01*
X50578560Y-66528720D01*
X50525411Y-66620777D01*
X50525411Y-66620778D01*
X50497899Y-66723452D01*
X50497899Y-66836827D01*
X50497900Y-66836840D01*
X50497900Y-78280971D01*
X50477335Y-78337472D01*
X50472155Y-78343126D01*
X49960026Y-78855255D01*
X49905532Y-78880666D01*
X49897871Y-78881000D01*
X49796673Y-78881000D01*
X49769150Y-78886474D01*
X49672063Y-78905785D01*
X49672059Y-78905787D01*
X49554680Y-78954406D01*
X49449038Y-79024994D01*
X49359194Y-79114838D01*
X49288606Y-79220480D01*
X49239987Y-79337859D01*
X49239985Y-79337863D01*
X49221296Y-79431826D01*
X49215200Y-79462473D01*
X47283500Y-79462473D01*
X47283500Y-68135474D01*
X48453200Y-68135474D01*
X48453200Y-68262525D01*
X48477985Y-68387136D01*
X48477987Y-68387140D01*
X48526606Y-68504519D01*
X48526607Y-68504521D01*
X48526608Y-68504522D01*
X48597196Y-68610164D01*
X48687036Y-68700004D01*
X48792678Y-68770592D01*
X48910060Y-68819213D01*
X48910061Y-68819213D01*
X48910063Y-68819214D01*
X48972792Y-68831691D01*
X49034673Y-68844000D01*
X49034675Y-68844000D01*
X49161725Y-68844000D01*
X49161727Y-68844000D01*
X49244048Y-68827625D01*
X49286336Y-68819214D01*
X49286336Y-68819213D01*
X49286340Y-68819213D01*
X49403722Y-68770592D01*
X49509364Y-68700004D01*
X49599204Y-68610164D01*
X49669792Y-68504522D01*
X49718413Y-68387140D01*
X49743200Y-68262527D01*
X49743200Y-68135473D01*
X49726379Y-68050906D01*
X49718414Y-68010863D01*
X49718413Y-68010861D01*
X49718413Y-68010860D01*
X49676327Y-67909255D01*
X49669793Y-67893480D01*
X49618113Y-67816136D01*
X49599204Y-67787836D01*
X49599202Y-67787833D01*
X49598048Y-67786427D01*
X49597801Y-67785736D01*
X49596805Y-67784246D01*
X49597178Y-67783996D01*
X49578100Y-67730669D01*
X49578100Y-65324869D01*
X49598665Y-65268368D01*
X49603834Y-65262725D01*
X53988050Y-60878508D01*
X54042543Y-60853098D01*
X54100621Y-60868661D01*
X54123287Y-60891825D01*
X54175023Y-60969255D01*
X54321345Y-61115577D01*
X54493402Y-61230541D01*
X54684580Y-61309730D01*
X54684585Y-61309731D01*
X54684588Y-61309732D01*
X54787432Y-61330188D01*
X54887535Y-61350100D01*
X54887537Y-61350100D01*
X55094463Y-61350100D01*
X55094465Y-61350100D01*
X55227336Y-61323670D01*
X55297411Y-61309732D01*
X55297412Y-61309731D01*
X55297420Y-61309730D01*
X55488598Y-61230541D01*
X55660655Y-61115577D01*
X55806977Y-60969255D01*
X55921941Y-60797198D01*
X56001130Y-60606020D01*
X56041500Y-60403065D01*
X56041500Y-60196136D01*
X56480500Y-60196136D01*
X56480500Y-60403063D01*
X56520867Y-60606011D01*
X56520869Y-60606016D01*
X56520870Y-60606020D01*
X56600059Y-60797198D01*
X56600060Y-60797200D01*
X56600061Y-60797201D01*
X56715019Y-60969250D01*
X56715020Y-60969251D01*
X56715023Y-60969255D01*
X56861345Y-61115577D01*
X57033402Y-61230541D01*
X57224580Y-61309730D01*
X57224585Y-61309731D01*
X57224588Y-61309732D01*
X57327432Y-61330188D01*
X57427535Y-61350100D01*
X57427537Y-61350100D01*
X57634463Y-61350100D01*
X57634465Y-61350100D01*
X57767336Y-61323670D01*
X57837411Y-61309732D01*
X57837412Y-61309731D01*
X57837420Y-61309730D01*
X58028598Y-61230541D01*
X58200655Y-61115577D01*
X58346977Y-60969255D01*
X58461941Y-60797198D01*
X58541130Y-60606020D01*
X58581500Y-60403065D01*
X58581500Y-60196135D01*
X58547088Y-60023132D01*
X58541132Y-59993188D01*
X58541131Y-59993185D01*
X58541130Y-59993180D01*
X58461941Y-59802002D01*
X58346977Y-59629945D01*
X58200655Y-59483623D01*
X58200651Y-59483620D01*
X58200650Y-59483619D01*
X58028601Y-59368661D01*
X58028600Y-59368660D01*
X58028598Y-59368659D01*
X57837420Y-59289470D01*
X57837416Y-59289469D01*
X57837411Y-59289467D01*
X57684684Y-59259089D01*
X57634465Y-59249100D01*
X57427535Y-59249100D01*
X57382844Y-59257989D01*
X57224588Y-59289467D01*
X57224583Y-59289469D01*
X57224581Y-59289469D01*
X57224580Y-59289470D01*
X57033402Y-59368659D01*
X57033400Y-59368659D01*
X57033398Y-59368661D01*
X56861349Y-59483619D01*
X56715019Y-59629949D01*
X56600061Y-59801998D01*
X56520869Y-59993183D01*
X56520867Y-59993188D01*
X56480500Y-60196136D01*
X56041500Y-60196136D01*
X56041500Y-60196135D01*
X56007088Y-60023132D01*
X56001132Y-59993188D01*
X56001131Y-59993185D01*
X56001130Y-59993180D01*
X55921941Y-59802002D01*
X55806977Y-59629945D01*
X55660655Y-59483623D01*
X55660651Y-59483620D01*
X55660650Y-59483619D01*
X55488601Y-59368661D01*
X55488600Y-59368660D01*
X55488598Y-59368659D01*
X55297420Y-59289470D01*
X55297416Y-59289469D01*
X55297411Y-59289467D01*
X55144684Y-59259089D01*
X55094465Y-59249100D01*
X54887535Y-59249100D01*
X54842844Y-59257989D01*
X54684588Y-59289467D01*
X54684583Y-59289469D01*
X54684581Y-59289469D01*
X54684580Y-59289470D01*
X54493402Y-59368659D01*
X54493400Y-59368659D01*
X54493398Y-59368661D01*
X54321349Y-59483619D01*
X54175019Y-59629949D01*
X54057660Y-59805592D01*
X54056487Y-59804808D01*
X54015687Y-59841375D01*
X53982948Y-59847699D01*
X53861764Y-59847699D01*
X53770599Y-59872125D01*
X53770600Y-59872126D01*
X53746169Y-59878673D01*
X53746168Y-59878673D01*
X53642528Y-59938510D01*
X48759910Y-64821128D01*
X48700073Y-64924769D01*
X48700073Y-64924770D01*
X48669099Y-65040364D01*
X48669099Y-65167115D01*
X48669100Y-65167128D01*
X48669100Y-67679522D01*
X48648535Y-67736023D01*
X48643355Y-67741676D01*
X48597195Y-67787836D01*
X48526606Y-67893480D01*
X48477987Y-68010859D01*
X48477985Y-68010863D01*
X48453200Y-68135474D01*
X47283500Y-68135474D01*
X47283500Y-59241080D01*
X47304065Y-59184579D01*
X47309234Y-59178936D01*
X47841578Y-58646591D01*
X47854888Y-58635668D01*
X47924243Y-58589328D01*
X48857435Y-57656136D01*
X53940500Y-57656136D01*
X53940500Y-57863063D01*
X53980867Y-58066011D01*
X53980869Y-58066016D01*
X53980870Y-58066020D01*
X54060059Y-58257198D01*
X54060060Y-58257200D01*
X54060061Y-58257201D01*
X54175019Y-58429250D01*
X54175020Y-58429251D01*
X54175023Y-58429255D01*
X54321345Y-58575577D01*
X54321348Y-58575579D01*
X54321349Y-58575580D01*
X54321379Y-58575600D01*
X54493402Y-58690541D01*
X54684580Y-58769730D01*
X54684585Y-58769731D01*
X54684588Y-58769732D01*
X54787432Y-58790188D01*
X54887535Y-58810100D01*
X54887537Y-58810100D01*
X55094463Y-58810100D01*
X55094465Y-58810100D01*
X55227336Y-58783670D01*
X55297411Y-58769732D01*
X55297412Y-58769731D01*
X55297420Y-58769730D01*
X55488598Y-58690541D01*
X55660655Y-58575577D01*
X55806977Y-58429255D01*
X55921941Y-58257198D01*
X56001130Y-58066020D01*
X56041500Y-57863065D01*
X56041500Y-57656136D01*
X56480500Y-57656136D01*
X56480500Y-57863063D01*
X56520867Y-58066011D01*
X56520869Y-58066016D01*
X56520870Y-58066020D01*
X56600059Y-58257198D01*
X56600060Y-58257200D01*
X56600061Y-58257201D01*
X56715019Y-58429250D01*
X56715020Y-58429251D01*
X56715023Y-58429255D01*
X56861345Y-58575577D01*
X56861348Y-58575579D01*
X56861349Y-58575580D01*
X56861379Y-58575600D01*
X57033402Y-58690541D01*
X57224580Y-58769730D01*
X57224585Y-58769731D01*
X57224588Y-58769732D01*
X57327432Y-58790188D01*
X57427535Y-58810100D01*
X57427537Y-58810100D01*
X57634463Y-58810100D01*
X57634465Y-58810100D01*
X57767336Y-58783670D01*
X57837411Y-58769732D01*
X57837412Y-58769731D01*
X57837420Y-58769730D01*
X58028598Y-58690541D01*
X58200655Y-58575577D01*
X58346977Y-58429255D01*
X58461941Y-58257198D01*
X58541130Y-58066020D01*
X58581500Y-57863065D01*
X58581500Y-57656135D01*
X58548190Y-57488672D01*
X58541132Y-57453188D01*
X58541131Y-57453185D01*
X58541130Y-57453180D01*
X58461941Y-57262002D01*
X58355700Y-57103000D01*
X58346980Y-57089949D01*
X58346979Y-57089948D01*
X58346977Y-57089945D01*
X58200655Y-56943623D01*
X58200651Y-56943620D01*
X58200650Y-56943619D01*
X58028601Y-56828661D01*
X58028600Y-56828660D01*
X58028598Y-56828659D01*
X57837420Y-56749470D01*
X57837416Y-56749469D01*
X57837411Y-56749467D01*
X57684684Y-56719089D01*
X57634465Y-56709100D01*
X57427535Y-56709100D01*
X57382844Y-56717989D01*
X57224588Y-56749467D01*
X57224583Y-56749469D01*
X57224581Y-56749469D01*
X57224580Y-56749470D01*
X57033402Y-56828659D01*
X57033400Y-56828659D01*
X57033398Y-56828661D01*
X56861349Y-56943619D01*
X56715019Y-57089949D01*
X56600061Y-57261998D01*
X56600059Y-57262000D01*
X56600059Y-57262002D01*
X56527355Y-57437524D01*
X56520869Y-57453183D01*
X56520867Y-57453188D01*
X56480500Y-57656136D01*
X56041500Y-57656136D01*
X56041500Y-57656135D01*
X56008190Y-57488672D01*
X56001132Y-57453188D01*
X56001131Y-57453185D01*
X56001130Y-57453180D01*
X55921941Y-57262002D01*
X55815700Y-57103000D01*
X55806980Y-57089949D01*
X55806979Y-57089948D01*
X55806977Y-57089945D01*
X55660655Y-56943623D01*
X55660651Y-56943620D01*
X55660650Y-56943619D01*
X55488601Y-56828661D01*
X55488600Y-56828660D01*
X55488598Y-56828659D01*
X55297420Y-56749470D01*
X55297416Y-56749469D01*
X55297411Y-56749467D01*
X55144684Y-56719089D01*
X55094465Y-56709100D01*
X54887535Y-56709100D01*
X54842844Y-56717989D01*
X54684588Y-56749467D01*
X54684583Y-56749469D01*
X54684581Y-56749469D01*
X54684580Y-56749470D01*
X54493402Y-56828659D01*
X54493400Y-56828659D01*
X54493398Y-56828661D01*
X54321349Y-56943619D01*
X54175019Y-57089949D01*
X54060061Y-57261998D01*
X54060059Y-57262000D01*
X54060059Y-57262002D01*
X53987355Y-57437524D01*
X53980869Y-57453183D01*
X53980867Y-57453188D01*
X53940500Y-57656136D01*
X48857435Y-57656136D01*
X51397434Y-55116136D01*
X53940500Y-55116136D01*
X53940500Y-55323063D01*
X53980867Y-55526011D01*
X53980869Y-55526016D01*
X53980870Y-55526020D01*
X54060059Y-55717198D01*
X54060060Y-55717200D01*
X54060061Y-55717201D01*
X54175019Y-55889250D01*
X54175020Y-55889251D01*
X54175023Y-55889255D01*
X54321345Y-56035577D01*
X54321348Y-56035579D01*
X54321349Y-56035580D01*
X54364470Y-56064392D01*
X54493402Y-56150541D01*
X54684580Y-56229730D01*
X54684585Y-56229731D01*
X54684588Y-56229732D01*
X54787432Y-56250188D01*
X54887535Y-56270100D01*
X54887537Y-56270100D01*
X55094463Y-56270100D01*
X55094465Y-56270100D01*
X55235317Y-56242083D01*
X55297411Y-56229732D01*
X55297412Y-56229731D01*
X55297420Y-56229730D01*
X55488598Y-56150541D01*
X55660655Y-56035577D01*
X55806977Y-55889255D01*
X55921941Y-55717198D01*
X56001130Y-55526020D01*
X56005735Y-55502872D01*
X56015070Y-55455936D01*
X56041500Y-55323065D01*
X56041500Y-55116136D01*
X56480500Y-55116136D01*
X56480500Y-55323063D01*
X56520867Y-55526011D01*
X56520869Y-55526016D01*
X56520870Y-55526020D01*
X56600059Y-55717198D01*
X56600060Y-55717200D01*
X56600061Y-55717201D01*
X56715019Y-55889250D01*
X56715020Y-55889251D01*
X56715023Y-55889255D01*
X56861345Y-56035577D01*
X56861348Y-56035579D01*
X56861349Y-56035580D01*
X56904470Y-56064392D01*
X57033402Y-56150541D01*
X57224580Y-56229730D01*
X57224585Y-56229731D01*
X57224588Y-56229732D01*
X57327432Y-56250188D01*
X57427535Y-56270100D01*
X57427537Y-56270100D01*
X57634463Y-56270100D01*
X57634465Y-56270100D01*
X57775317Y-56242083D01*
X57837411Y-56229732D01*
X57837412Y-56229731D01*
X57837420Y-56229730D01*
X58028598Y-56150541D01*
X58200655Y-56035577D01*
X58346977Y-55889255D01*
X58461941Y-55717198D01*
X58541130Y-55526020D01*
X58545735Y-55502872D01*
X58555070Y-55455936D01*
X58581500Y-55323065D01*
X58581500Y-55116135D01*
X58545529Y-54935293D01*
X58541132Y-54913188D01*
X58541131Y-54913185D01*
X58541130Y-54913180D01*
X58461941Y-54722002D01*
X58346977Y-54549945D01*
X58200655Y-54403623D01*
X58200651Y-54403620D01*
X58200650Y-54403619D01*
X58028601Y-54288661D01*
X58028600Y-54288660D01*
X58028598Y-54288659D01*
X57837420Y-54209470D01*
X57837416Y-54209469D01*
X57837411Y-54209467D01*
X57684684Y-54179089D01*
X57634465Y-54169100D01*
X57427535Y-54169100D01*
X57382844Y-54177989D01*
X57224588Y-54209467D01*
X57224583Y-54209469D01*
X57224581Y-54209469D01*
X57224580Y-54209470D01*
X57033402Y-54288659D01*
X57033400Y-54288659D01*
X57033398Y-54288661D01*
X56861349Y-54403619D01*
X56715019Y-54549949D01*
X56600061Y-54721998D01*
X56520869Y-54913183D01*
X56520867Y-54913188D01*
X56480500Y-55116136D01*
X56041500Y-55116136D01*
X56041500Y-55116135D01*
X56005529Y-54935293D01*
X56001132Y-54913188D01*
X56001131Y-54913185D01*
X56001130Y-54913180D01*
X55921941Y-54722002D01*
X55806977Y-54549945D01*
X55660655Y-54403623D01*
X55660651Y-54403620D01*
X55660650Y-54403619D01*
X55488601Y-54288661D01*
X55488600Y-54288660D01*
X55488598Y-54288659D01*
X55297420Y-54209470D01*
X55297416Y-54209469D01*
X55297411Y-54209467D01*
X55144684Y-54179089D01*
X55094465Y-54169100D01*
X54887535Y-54169100D01*
X54842844Y-54177989D01*
X54684588Y-54209467D01*
X54684583Y-54209469D01*
X54684581Y-54209469D01*
X54684580Y-54209470D01*
X54493402Y-54288659D01*
X54493400Y-54288659D01*
X54493398Y-54288661D01*
X54321349Y-54403619D01*
X54175019Y-54549949D01*
X54060061Y-54721998D01*
X53980869Y-54913183D01*
X53980867Y-54913188D01*
X53940500Y-55116136D01*
X51397434Y-55116136D01*
X52010728Y-54502842D01*
X52088265Y-54386801D01*
X52128916Y-54288659D01*
X52141673Y-54257862D01*
X52168900Y-54120981D01*
X52168900Y-52576136D01*
X53940500Y-52576136D01*
X53940500Y-52783063D01*
X53980867Y-52986011D01*
X53980869Y-52986016D01*
X53980870Y-52986020D01*
X54060059Y-53177198D01*
X54060060Y-53177200D01*
X54060061Y-53177201D01*
X54175019Y-53349250D01*
X54175020Y-53349251D01*
X54175023Y-53349255D01*
X54321345Y-53495577D01*
X54321348Y-53495579D01*
X54321349Y-53495580D01*
X54407373Y-53553059D01*
X54493402Y-53610541D01*
X54684580Y-53689730D01*
X54684585Y-53689731D01*
X54684588Y-53689732D01*
X54787432Y-53710188D01*
X54887535Y-53730100D01*
X54887537Y-53730100D01*
X55094463Y-53730100D01*
X55094465Y-53730100D01*
X55227336Y-53703670D01*
X55297411Y-53689732D01*
X55297412Y-53689731D01*
X55297420Y-53689730D01*
X55488598Y-53610541D01*
X55660655Y-53495577D01*
X55806977Y-53349255D01*
X55921941Y-53177198D01*
X56001130Y-52986020D01*
X56041500Y-52783065D01*
X56041500Y-52576136D01*
X56480500Y-52576136D01*
X56480500Y-52783063D01*
X56520867Y-52986011D01*
X56520869Y-52986016D01*
X56520870Y-52986020D01*
X56600059Y-53177198D01*
X56600060Y-53177200D01*
X56600061Y-53177201D01*
X56715019Y-53349250D01*
X56715020Y-53349251D01*
X56715023Y-53349255D01*
X56861345Y-53495577D01*
X56861348Y-53495579D01*
X56861349Y-53495580D01*
X56947373Y-53553059D01*
X57033402Y-53610541D01*
X57224580Y-53689730D01*
X57224585Y-53689731D01*
X57224588Y-53689732D01*
X57327432Y-53710188D01*
X57427535Y-53730100D01*
X57427537Y-53730100D01*
X57634463Y-53730100D01*
X57634465Y-53730100D01*
X57767336Y-53703670D01*
X57837411Y-53689732D01*
X57837412Y-53689731D01*
X57837420Y-53689730D01*
X58028598Y-53610541D01*
X58200655Y-53495577D01*
X58346977Y-53349255D01*
X58461941Y-53177198D01*
X58541130Y-52986020D01*
X58581500Y-52783065D01*
X58581500Y-52576135D01*
X58552725Y-52431470D01*
X58541132Y-52373188D01*
X58541131Y-52373185D01*
X58541130Y-52373180D01*
X58461941Y-52182002D01*
X58346977Y-52009945D01*
X58200655Y-51863623D01*
X58200651Y-51863620D01*
X58200650Y-51863619D01*
X58028601Y-51748661D01*
X58028600Y-51748660D01*
X58028598Y-51748659D01*
X57837420Y-51669470D01*
X57837416Y-51669469D01*
X57837411Y-51669467D01*
X57684684Y-51639089D01*
X57634465Y-51629100D01*
X57427535Y-51629100D01*
X57382844Y-51637989D01*
X57224588Y-51669467D01*
X57224583Y-51669469D01*
X57224581Y-51669469D01*
X57224580Y-51669470D01*
X57033402Y-51748659D01*
X57033400Y-51748659D01*
X57033398Y-51748661D01*
X56861349Y-51863619D01*
X56715019Y-52009949D01*
X56600061Y-52181998D01*
X56600059Y-52182000D01*
X56600059Y-52182002D01*
X56562031Y-52273809D01*
X56520869Y-52373183D01*
X56520867Y-52373188D01*
X56480500Y-52576136D01*
X56041500Y-52576136D01*
X56041500Y-52576135D01*
X56012725Y-52431470D01*
X56001132Y-52373188D01*
X56001131Y-52373185D01*
X56001130Y-52373180D01*
X55921941Y-52182002D01*
X55806977Y-52009945D01*
X55660655Y-51863623D01*
X55660651Y-51863620D01*
X55660650Y-51863619D01*
X55488601Y-51748661D01*
X55488600Y-51748660D01*
X55488598Y-51748659D01*
X55297420Y-51669470D01*
X55297416Y-51669469D01*
X55297411Y-51669467D01*
X55144684Y-51639089D01*
X55094465Y-51629100D01*
X54887535Y-51629100D01*
X54842844Y-51637989D01*
X54684588Y-51669467D01*
X54684583Y-51669469D01*
X54684581Y-51669469D01*
X54684580Y-51669470D01*
X54493402Y-51748659D01*
X54493400Y-51748659D01*
X54493398Y-51748661D01*
X54321349Y-51863619D01*
X54175019Y-52009949D01*
X54060061Y-52181998D01*
X54060059Y-52182000D01*
X54060059Y-52182002D01*
X54022031Y-52273809D01*
X53980869Y-52373183D01*
X53980867Y-52373188D01*
X53940500Y-52576136D01*
X52168900Y-52576136D01*
X52168900Y-50036136D01*
X53940500Y-50036136D01*
X53940500Y-50243063D01*
X53980867Y-50446011D01*
X53980869Y-50446016D01*
X53980870Y-50446020D01*
X54060059Y-50637198D01*
X54060060Y-50637200D01*
X54060061Y-50637201D01*
X54175019Y-50809250D01*
X54175020Y-50809251D01*
X54175023Y-50809255D01*
X54321345Y-50955577D01*
X54321348Y-50955579D01*
X54321349Y-50955580D01*
X54407373Y-51013059D01*
X54493402Y-51070541D01*
X54684580Y-51149730D01*
X54684585Y-51149731D01*
X54684588Y-51149732D01*
X54787432Y-51170188D01*
X54887535Y-51190100D01*
X54887537Y-51190100D01*
X55094463Y-51190100D01*
X55094465Y-51190100D01*
X55227336Y-51163670D01*
X55297411Y-51149732D01*
X55297412Y-51149731D01*
X55297420Y-51149730D01*
X55488598Y-51070541D01*
X55660655Y-50955577D01*
X55806977Y-50809255D01*
X55921941Y-50637198D01*
X56001130Y-50446020D01*
X56041500Y-50243065D01*
X56041500Y-50036136D01*
X56480500Y-50036136D01*
X56480500Y-50243063D01*
X56520867Y-50446011D01*
X56520869Y-50446016D01*
X56520870Y-50446020D01*
X56600059Y-50637198D01*
X56600060Y-50637200D01*
X56600061Y-50637201D01*
X56715019Y-50809250D01*
X56715020Y-50809251D01*
X56715023Y-50809255D01*
X56861345Y-50955577D01*
X56861348Y-50955579D01*
X56861349Y-50955580D01*
X56947373Y-51013059D01*
X57033402Y-51070541D01*
X57224580Y-51149730D01*
X57224585Y-51149731D01*
X57224588Y-51149732D01*
X57327432Y-51170188D01*
X57427535Y-51190100D01*
X57427537Y-51190100D01*
X57634463Y-51190100D01*
X57634465Y-51190100D01*
X57767336Y-51163670D01*
X57837411Y-51149732D01*
X57837412Y-51149731D01*
X57837420Y-51149730D01*
X58028598Y-51070541D01*
X58200655Y-50955577D01*
X58346977Y-50809255D01*
X58461941Y-50637198D01*
X58541130Y-50446020D01*
X58581500Y-50243065D01*
X58581500Y-50036135D01*
X58568285Y-49969699D01*
X58541132Y-49833188D01*
X58541131Y-49833185D01*
X58541130Y-49833180D01*
X58461941Y-49642002D01*
X58346977Y-49469945D01*
X58200655Y-49323623D01*
X58200651Y-49323620D01*
X58200650Y-49323619D01*
X58028601Y-49208661D01*
X58028600Y-49208660D01*
X58028598Y-49208659D01*
X57837420Y-49129470D01*
X57837416Y-49129469D01*
X57837411Y-49129467D01*
X57684684Y-49099089D01*
X57634465Y-49089100D01*
X57427535Y-49089100D01*
X57382844Y-49097989D01*
X57224588Y-49129467D01*
X57224583Y-49129469D01*
X57224581Y-49129469D01*
X57224580Y-49129470D01*
X57033402Y-49208659D01*
X57033400Y-49208659D01*
X57033398Y-49208661D01*
X56861349Y-49323619D01*
X56715019Y-49469949D01*
X56600061Y-49641998D01*
X56520869Y-49833183D01*
X56520867Y-49833188D01*
X56480500Y-50036136D01*
X56041500Y-50036136D01*
X56041500Y-50036135D01*
X56028285Y-49969699D01*
X56001132Y-49833188D01*
X56001131Y-49833185D01*
X56001130Y-49833180D01*
X55921941Y-49642002D01*
X55806977Y-49469945D01*
X55660655Y-49323623D01*
X55660651Y-49323620D01*
X55660650Y-49323619D01*
X55488601Y-49208661D01*
X55488600Y-49208660D01*
X55488598Y-49208659D01*
X55297420Y-49129470D01*
X55297416Y-49129469D01*
X55297411Y-49129467D01*
X55144684Y-49099089D01*
X55094465Y-49089100D01*
X54887535Y-49089100D01*
X54842844Y-49097989D01*
X54684588Y-49129467D01*
X54684583Y-49129469D01*
X54684581Y-49129469D01*
X54684580Y-49129470D01*
X54493402Y-49208659D01*
X54493400Y-49208659D01*
X54493398Y-49208661D01*
X54321349Y-49323619D01*
X54175019Y-49469949D01*
X54060061Y-49641998D01*
X53980869Y-49833183D01*
X53980867Y-49833188D01*
X53940500Y-50036136D01*
X52168900Y-50036136D01*
X52168900Y-47496136D01*
X53940500Y-47496136D01*
X53940500Y-47703063D01*
X53980867Y-47906011D01*
X53980869Y-47906016D01*
X53980870Y-47906020D01*
X54060059Y-48097198D01*
X54060060Y-48097200D01*
X54060061Y-48097201D01*
X54175019Y-48269250D01*
X54175020Y-48269251D01*
X54175023Y-48269255D01*
X54321345Y-48415577D01*
X54321348Y-48415579D01*
X54321349Y-48415580D01*
X54407373Y-48473059D01*
X54493402Y-48530541D01*
X54684580Y-48609730D01*
X54684585Y-48609731D01*
X54684588Y-48609732D01*
X54787432Y-48630188D01*
X54887535Y-48650100D01*
X54887537Y-48650100D01*
X55094463Y-48650100D01*
X55094465Y-48650100D01*
X55227336Y-48623670D01*
X55297411Y-48609732D01*
X55297412Y-48609731D01*
X55297420Y-48609730D01*
X55488598Y-48530541D01*
X55660655Y-48415577D01*
X55806977Y-48269255D01*
X55921941Y-48097198D01*
X56001130Y-47906020D01*
X56041500Y-47703065D01*
X56041500Y-47496136D01*
X56480500Y-47496136D01*
X56480500Y-47703063D01*
X56520867Y-47906011D01*
X56520869Y-47906016D01*
X56520870Y-47906020D01*
X56600059Y-48097198D01*
X56600060Y-48097200D01*
X56600061Y-48097201D01*
X56715019Y-48269250D01*
X56715020Y-48269251D01*
X56715023Y-48269255D01*
X56861345Y-48415577D01*
X56861348Y-48415579D01*
X56861349Y-48415580D01*
X56947373Y-48473059D01*
X57033402Y-48530541D01*
X57224580Y-48609730D01*
X57224585Y-48609731D01*
X57224588Y-48609732D01*
X57327432Y-48630188D01*
X57427535Y-48650100D01*
X57427537Y-48650100D01*
X57634463Y-48650100D01*
X57634465Y-48650100D01*
X57767336Y-48623670D01*
X57837411Y-48609732D01*
X57837412Y-48609731D01*
X57837420Y-48609730D01*
X58028598Y-48530541D01*
X58200655Y-48415577D01*
X58346977Y-48269255D01*
X58461941Y-48097198D01*
X58541130Y-47906020D01*
X58581500Y-47703065D01*
X58581500Y-47496135D01*
X58552725Y-47351470D01*
X58541132Y-47293188D01*
X58541131Y-47293185D01*
X58541130Y-47293180D01*
X58461941Y-47102002D01*
X58346977Y-46929945D01*
X58200655Y-46783623D01*
X58200651Y-46783620D01*
X58200650Y-46783619D01*
X58028601Y-46668661D01*
X58028600Y-46668660D01*
X58028598Y-46668659D01*
X57837420Y-46589470D01*
X57837416Y-46589469D01*
X57837411Y-46589467D01*
X57684684Y-46559089D01*
X57634465Y-46549100D01*
X57427535Y-46549100D01*
X57382844Y-46557989D01*
X57224588Y-46589467D01*
X57224583Y-46589469D01*
X57224581Y-46589469D01*
X57224580Y-46589470D01*
X57033402Y-46668659D01*
X57033400Y-46668659D01*
X57033398Y-46668661D01*
X56861349Y-46783619D01*
X56715019Y-46929949D01*
X56600061Y-47101998D01*
X56520869Y-47293183D01*
X56520867Y-47293188D01*
X56480500Y-47496136D01*
X56041500Y-47496136D01*
X56041500Y-47496135D01*
X56012725Y-47351470D01*
X56001132Y-47293188D01*
X56001131Y-47293185D01*
X56001130Y-47293180D01*
X55921941Y-47102002D01*
X55806977Y-46929945D01*
X55660655Y-46783623D01*
X55660651Y-46783620D01*
X55660650Y-46783619D01*
X55488601Y-46668661D01*
X55488600Y-46668660D01*
X55488598Y-46668659D01*
X55297420Y-46589470D01*
X55297416Y-46589469D01*
X55297411Y-46589467D01*
X55144684Y-46559089D01*
X55094465Y-46549100D01*
X54887535Y-46549100D01*
X54842844Y-46557989D01*
X54684588Y-46589467D01*
X54684583Y-46589469D01*
X54684581Y-46589469D01*
X54684580Y-46589470D01*
X54493402Y-46668659D01*
X54493400Y-46668659D01*
X54493398Y-46668661D01*
X54321349Y-46783619D01*
X54175019Y-46929949D01*
X54060061Y-47101998D01*
X53980869Y-47293183D01*
X53980867Y-47293188D01*
X53940500Y-47496136D01*
X52168900Y-47496136D01*
X52168900Y-44956136D01*
X53940500Y-44956136D01*
X53940500Y-45163063D01*
X53980867Y-45366011D01*
X53980869Y-45366016D01*
X53980870Y-45366020D01*
X54060059Y-45557198D01*
X54060060Y-45557200D01*
X54060061Y-45557201D01*
X54175019Y-45729250D01*
X54175020Y-45729251D01*
X54175023Y-45729255D01*
X54321345Y-45875577D01*
X54321348Y-45875579D01*
X54321349Y-45875580D01*
X54407373Y-45933059D01*
X54493402Y-45990541D01*
X54684580Y-46069730D01*
X54684585Y-46069731D01*
X54684588Y-46069732D01*
X54787432Y-46090188D01*
X54887535Y-46110100D01*
X54887537Y-46110100D01*
X55094463Y-46110100D01*
X55094465Y-46110100D01*
X55227336Y-46083670D01*
X55297411Y-46069732D01*
X55297412Y-46069731D01*
X55297420Y-46069730D01*
X55488598Y-45990541D01*
X55660655Y-45875577D01*
X55806977Y-45729255D01*
X55921941Y-45557198D01*
X56001130Y-45366020D01*
X56041500Y-45163065D01*
X56041500Y-44956136D01*
X56480500Y-44956136D01*
X56480500Y-45163063D01*
X56520867Y-45366011D01*
X56520869Y-45366016D01*
X56520870Y-45366020D01*
X56600059Y-45557198D01*
X56600060Y-45557200D01*
X56600061Y-45557201D01*
X56715019Y-45729250D01*
X56715020Y-45729251D01*
X56715023Y-45729255D01*
X56861345Y-45875577D01*
X56861348Y-45875579D01*
X56861349Y-45875580D01*
X56947373Y-45933059D01*
X57033402Y-45990541D01*
X57224580Y-46069730D01*
X57224585Y-46069731D01*
X57224588Y-46069732D01*
X57327432Y-46090188D01*
X57427535Y-46110100D01*
X57427537Y-46110100D01*
X57634463Y-46110100D01*
X57634465Y-46110100D01*
X57767336Y-46083670D01*
X57837411Y-46069732D01*
X57837412Y-46069731D01*
X57837420Y-46069730D01*
X58028598Y-45990541D01*
X58200655Y-45875577D01*
X58346977Y-45729255D01*
X58461941Y-45557198D01*
X58541130Y-45366020D01*
X58581500Y-45163065D01*
X58581500Y-44956135D01*
X58566364Y-44880039D01*
X58541132Y-44753188D01*
X58541131Y-44753185D01*
X58541130Y-44753180D01*
X58461941Y-44562002D01*
X58346977Y-44389945D01*
X58200655Y-44243623D01*
X58200651Y-44243620D01*
X58200650Y-44243619D01*
X58028601Y-44128661D01*
X58028600Y-44128660D01*
X58028598Y-44128659D01*
X57837420Y-44049470D01*
X57837416Y-44049469D01*
X57837411Y-44049467D01*
X57684684Y-44019089D01*
X57634465Y-44009100D01*
X57427535Y-44009100D01*
X57382844Y-44017989D01*
X57224588Y-44049467D01*
X57224583Y-44049469D01*
X57224581Y-44049469D01*
X57224580Y-44049470D01*
X57033402Y-44128659D01*
X57033400Y-44128659D01*
X57033398Y-44128661D01*
X56861349Y-44243619D01*
X56715019Y-44389949D01*
X56600061Y-44561998D01*
X56600059Y-44562000D01*
X56600059Y-44562002D01*
X56539245Y-44708820D01*
X56520869Y-44753183D01*
X56520867Y-44753188D01*
X56480500Y-44956136D01*
X56041500Y-44956136D01*
X56041500Y-44956135D01*
X56026364Y-44880039D01*
X56001132Y-44753188D01*
X56001131Y-44753185D01*
X56001130Y-44753180D01*
X55921941Y-44562002D01*
X55806977Y-44389945D01*
X55660655Y-44243623D01*
X55660651Y-44243620D01*
X55660650Y-44243619D01*
X55488601Y-44128661D01*
X55488600Y-44128660D01*
X55488598Y-44128659D01*
X55297420Y-44049470D01*
X55297416Y-44049469D01*
X55297411Y-44049467D01*
X55144684Y-44019089D01*
X55094465Y-44009100D01*
X54887535Y-44009100D01*
X54842844Y-44017989D01*
X54684588Y-44049467D01*
X54684583Y-44049469D01*
X54684581Y-44049469D01*
X54684580Y-44049470D01*
X54493402Y-44128659D01*
X54493400Y-44128659D01*
X54493398Y-44128661D01*
X54321349Y-44243619D01*
X54175019Y-44389949D01*
X54060061Y-44561998D01*
X54060059Y-44562000D01*
X54060059Y-44562002D01*
X53999245Y-44708820D01*
X53980869Y-44753183D01*
X53980867Y-44753188D01*
X53940500Y-44956136D01*
X52168900Y-44956136D01*
X52168900Y-43316000D01*
X52189465Y-43259499D01*
X52241536Y-43229435D01*
X52256800Y-43228100D01*
X54177458Y-43228100D01*
X54233959Y-43248665D01*
X54239612Y-43253845D01*
X54321343Y-43335575D01*
X54321349Y-43335580D01*
X54407373Y-43393059D01*
X54493402Y-43450541D01*
X54684580Y-43529730D01*
X54684585Y-43529731D01*
X54684588Y-43529732D01*
X54787432Y-43550188D01*
X54887535Y-43570100D01*
X54887537Y-43570100D01*
X55094463Y-43570100D01*
X55094465Y-43570100D01*
X55227336Y-43543670D01*
X55297411Y-43529732D01*
X55297412Y-43529731D01*
X55297420Y-43529730D01*
X55488598Y-43450541D01*
X55660655Y-43335577D01*
X55806977Y-43189255D01*
X55921941Y-43017198D01*
X56001130Y-42826020D01*
X56041500Y-42623065D01*
X56041500Y-42416136D01*
X56480500Y-42416136D01*
X56480500Y-42623063D01*
X56520867Y-42826011D01*
X56520869Y-42826016D01*
X56520870Y-42826020D01*
X56600059Y-43017198D01*
X56600060Y-43017200D01*
X56600061Y-43017201D01*
X56715019Y-43189250D01*
X56715020Y-43189251D01*
X56715023Y-43189255D01*
X56861345Y-43335577D01*
X56861348Y-43335579D01*
X56861349Y-43335580D01*
X56947373Y-43393059D01*
X57033402Y-43450541D01*
X57224580Y-43529730D01*
X57224585Y-43529731D01*
X57224588Y-43529732D01*
X57327432Y-43550188D01*
X57427535Y-43570100D01*
X57427537Y-43570100D01*
X57634463Y-43570100D01*
X57634465Y-43570100D01*
X57767336Y-43543670D01*
X57837411Y-43529732D01*
X57837412Y-43529731D01*
X57837420Y-43529730D01*
X58028598Y-43450541D01*
X58200655Y-43335577D01*
X58346977Y-43189255D01*
X58461941Y-43017198D01*
X58541130Y-42826020D01*
X58581500Y-42623065D01*
X58581500Y-42416135D01*
X58541130Y-42213180D01*
X58461941Y-42022002D01*
X58346977Y-41849945D01*
X58200655Y-41703623D01*
X58200651Y-41703620D01*
X58200650Y-41703619D01*
X58028601Y-41588661D01*
X58028600Y-41588660D01*
X58028598Y-41588659D01*
X57837420Y-41509470D01*
X57837416Y-41509469D01*
X57837411Y-41509467D01*
X57684684Y-41479089D01*
X57634465Y-41469100D01*
X57427535Y-41469100D01*
X57382844Y-41477989D01*
X57224588Y-41509467D01*
X57224583Y-41509469D01*
X57224581Y-41509469D01*
X57224580Y-41509470D01*
X57033402Y-41588659D01*
X57033400Y-41588659D01*
X57033398Y-41588661D01*
X56861349Y-41703619D01*
X56715019Y-41849949D01*
X56600061Y-42021998D01*
X56520869Y-42213183D01*
X56520867Y-42213188D01*
X56480500Y-42416136D01*
X56041500Y-42416136D01*
X56041500Y-42416135D01*
X56001130Y-42213180D01*
X55921941Y-42022002D01*
X55806977Y-41849945D01*
X55660655Y-41703623D01*
X55660651Y-41703620D01*
X55660650Y-41703619D01*
X55488601Y-41588661D01*
X55488600Y-41588660D01*
X55488598Y-41588659D01*
X55297420Y-41509470D01*
X55297416Y-41509469D01*
X55297411Y-41509467D01*
X55144684Y-41479089D01*
X55094465Y-41469100D01*
X54887535Y-41469100D01*
X54842844Y-41477989D01*
X54684588Y-41509467D01*
X54684583Y-41509469D01*
X54684581Y-41509469D01*
X54684580Y-41509470D01*
X54493402Y-41588659D01*
X54493400Y-41588659D01*
X54493398Y-41588661D01*
X54321349Y-41703619D01*
X54321343Y-41703624D01*
X54239612Y-41785355D01*
X54185118Y-41810766D01*
X54177458Y-41811100D01*
X24799400Y-41811100D01*
X24742899Y-41790535D01*
X24712835Y-41738464D01*
X24711500Y-41723200D01*
X24711500Y-39876136D01*
X53940500Y-39876136D01*
X53940500Y-40083063D01*
X53980867Y-40286011D01*
X53980869Y-40286016D01*
X53980870Y-40286020D01*
X54060059Y-40477198D01*
X54060060Y-40477200D01*
X54060061Y-40477201D01*
X54175019Y-40649250D01*
X54175020Y-40649251D01*
X54175023Y-40649255D01*
X54321345Y-40795577D01*
X54493402Y-40910541D01*
X54684580Y-40989730D01*
X54684585Y-40989731D01*
X54684588Y-40989732D01*
X54787432Y-41010188D01*
X54887535Y-41030100D01*
X54887537Y-41030100D01*
X55094463Y-41030100D01*
X55094465Y-41030100D01*
X55227336Y-41003670D01*
X55297411Y-40989732D01*
X55297412Y-40989731D01*
X55297420Y-40989730D01*
X55488598Y-40910541D01*
X55660655Y-40795577D01*
X55806977Y-40649255D01*
X55921941Y-40477198D01*
X56001130Y-40286020D01*
X56007154Y-40255738D01*
X56041500Y-40083063D01*
X56041500Y-39878372D01*
X56503200Y-39878372D01*
X56503200Y-40080827D01*
X56542696Y-40279394D01*
X56542698Y-40279398D01*
X56620176Y-40466445D01*
X56648383Y-40508660D01*
X57048036Y-40109006D01*
X57065075Y-40172593D01*
X57130901Y-40286607D01*
X57223993Y-40379699D01*
X57338007Y-40445525D01*
X57401589Y-40462562D01*
X57001937Y-40862215D01*
X57044152Y-40890422D01*
X57231201Y-40967901D01*
X57231205Y-40967903D01*
X57429773Y-41007400D01*
X57632227Y-41007400D01*
X57830794Y-40967903D01*
X57830798Y-40967901D01*
X58017848Y-40890422D01*
X58060061Y-40862215D01*
X57660408Y-40462562D01*
X57723993Y-40445525D01*
X57838007Y-40379699D01*
X57931099Y-40286607D01*
X57996925Y-40172593D01*
X58013962Y-40109008D01*
X58413615Y-40508661D01*
X58441822Y-40466448D01*
X58519301Y-40279398D01*
X58519303Y-40279394D01*
X58558800Y-40080827D01*
X58558800Y-39878372D01*
X58519303Y-39679805D01*
X58519301Y-39679801D01*
X58441822Y-39492752D01*
X58413615Y-39450537D01*
X58013962Y-39850189D01*
X57996925Y-39786607D01*
X57931099Y-39672593D01*
X57838007Y-39579501D01*
X57723993Y-39513675D01*
X57660407Y-39496636D01*
X58060061Y-39096984D01*
X58017845Y-39068776D01*
X57830798Y-38991298D01*
X57830794Y-38991296D01*
X57632227Y-38951800D01*
X57429773Y-38951800D01*
X57231205Y-38991296D01*
X57231201Y-38991298D01*
X57044154Y-39068775D01*
X57001937Y-39096983D01*
X57401591Y-39496637D01*
X57338007Y-39513675D01*
X57223993Y-39579501D01*
X57130901Y-39672593D01*
X57065075Y-39786607D01*
X57048037Y-39850191D01*
X56648383Y-39450537D01*
X56620175Y-39492754D01*
X56542698Y-39679801D01*
X56542696Y-39679805D01*
X56503200Y-39878372D01*
X56041500Y-39878372D01*
X56041500Y-39876136D01*
X56001132Y-39673188D01*
X56001131Y-39673185D01*
X56001130Y-39673180D01*
X55921941Y-39482002D01*
X55806977Y-39309945D01*
X55660655Y-39163623D01*
X55660651Y-39163620D01*
X55660650Y-39163619D01*
X55488601Y-39048661D01*
X55488600Y-39048660D01*
X55488598Y-39048659D01*
X55297420Y-38969470D01*
X55297416Y-38969469D01*
X55297411Y-38969467D01*
X55144684Y-38939089D01*
X55094465Y-38929100D01*
X54887535Y-38929100D01*
X54842844Y-38937989D01*
X54684588Y-38969467D01*
X54684583Y-38969469D01*
X54684581Y-38969469D01*
X54684580Y-38969470D01*
X54493402Y-39048659D01*
X54493400Y-39048659D01*
X54493398Y-39048661D01*
X54321349Y-39163619D01*
X54175019Y-39309949D01*
X54060061Y-39481998D01*
X54060059Y-39482000D01*
X54060059Y-39482002D01*
X54000394Y-39626045D01*
X53980869Y-39673183D01*
X53980867Y-39673188D01*
X53940500Y-39876136D01*
X24711500Y-39876136D01*
X24711500Y-36569853D01*
X53940500Y-36569853D01*
X53940500Y-38309346D01*
X53952133Y-38367832D01*
X53996445Y-38434148D01*
X53996448Y-38434152D01*
X53996451Y-38434154D01*
X54062767Y-38478466D01*
X54062769Y-38478467D01*
X54121252Y-38490100D01*
X54121254Y-38490100D01*
X55860746Y-38490100D01*
X55860748Y-38490100D01*
X55919231Y-38478467D01*
X55985552Y-38434152D01*
X56029867Y-38367831D01*
X56041500Y-38309348D01*
X56041500Y-38236000D01*
X56062065Y-38179499D01*
X56114136Y-38149435D01*
X56129400Y-38148100D01*
X56717458Y-38148100D01*
X56773959Y-38168665D01*
X56779612Y-38173845D01*
X56841768Y-38236000D01*
X56861345Y-38255577D01*
X57033402Y-38370541D01*
X57224580Y-38449730D01*
X57224585Y-38449731D01*
X57224588Y-38449732D01*
X57327432Y-38470188D01*
X57427535Y-38490100D01*
X57427537Y-38490100D01*
X57634463Y-38490100D01*
X57634465Y-38490100D01*
X57767336Y-38463670D01*
X57837411Y-38449732D01*
X57837412Y-38449731D01*
X57837420Y-38449730D01*
X58028598Y-38370541D01*
X58200655Y-38255577D01*
X58346977Y-38109255D01*
X58461941Y-37937198D01*
X58541130Y-37746020D01*
X58581500Y-37543065D01*
X58581500Y-37336135D01*
X58541130Y-37133180D01*
X58461941Y-36942002D01*
X58346977Y-36769945D01*
X58200655Y-36623623D01*
X58200651Y-36623620D01*
X58200650Y-36623619D01*
X58028601Y-36508661D01*
X58028600Y-36508660D01*
X58028598Y-36508659D01*
X57837420Y-36429470D01*
X57837416Y-36429469D01*
X57837411Y-36429467D01*
X57684684Y-36399089D01*
X57634465Y-36389100D01*
X57427535Y-36389100D01*
X57382844Y-36397989D01*
X57224588Y-36429467D01*
X57224583Y-36429469D01*
X57224581Y-36429469D01*
X57224580Y-36429470D01*
X57033402Y-36508659D01*
X57033400Y-36508659D01*
X57033398Y-36508661D01*
X56861349Y-36623619D01*
X56861343Y-36623624D01*
X56779612Y-36705355D01*
X56725118Y-36730766D01*
X56717458Y-36731100D01*
X56129400Y-36731100D01*
X56072899Y-36710535D01*
X56042835Y-36658464D01*
X56041500Y-36643200D01*
X56041500Y-36569853D01*
X56041500Y-36569852D01*
X56029867Y-36511369D01*
X56028056Y-36508659D01*
X55985554Y-36445051D01*
X55985552Y-36445048D01*
X55985548Y-36445045D01*
X55919232Y-36400733D01*
X55899736Y-36396855D01*
X55860748Y-36389100D01*
X54121252Y-36389100D01*
X54092010Y-36394916D01*
X54062767Y-36400733D01*
X53996451Y-36445045D01*
X53996445Y-36445051D01*
X53952133Y-36511367D01*
X53940500Y-36569853D01*
X24711500Y-36569853D01*
X24711500Y-9074220D01*
X24684275Y-8937345D01*
X24684273Y-8937342D01*
X24684273Y-8937338D01*
X24630864Y-8808399D01*
X24630862Y-8808396D01*
X24553331Y-8692362D01*
X24553330Y-8692361D01*
X24553328Y-8692358D01*
X24454642Y-8593672D01*
X24454638Y-8593669D01*
X24454637Y-8593668D01*
X24338603Y-8516137D01*
X24338601Y-8516136D01*
X24209662Y-8462727D01*
X24209660Y-8462726D01*
X24209654Y-8462724D01*
X24102920Y-8441495D01*
X24072781Y-8435500D01*
X23933219Y-8435500D01*
X23906068Y-8440900D01*
X23796345Y-8462724D01*
X23796338Y-8462727D01*
X23667397Y-8516137D01*
X23667396Y-8516137D01*
X23551362Y-8593668D01*
X23452668Y-8692362D01*
X23375137Y-8808396D01*
X23375137Y-8808397D01*
X23375136Y-8808399D01*
X23366730Y-8828692D01*
X23321727Y-8937338D01*
X23321724Y-8937345D01*
X23294500Y-9074220D01*
X23294500Y-18888568D01*
X23293024Y-18903546D01*
X23293014Y-18904663D01*
X23292918Y-18905177D01*
X23281800Y-18961073D01*
X635500Y-18961073D01*
X635500Y-16820155D01*
X1749500Y-16820155D01*
X1749500Y-17016986D01*
X1780289Y-17211392D01*
X1780291Y-17211397D01*
X1841116Y-17398596D01*
X1930476Y-17573976D01*
X2046172Y-17733217D01*
X2185354Y-17872399D01*
X2344595Y-17988095D01*
X2519975Y-18077455D01*
X2707174Y-18138280D01*
X2707175Y-18138280D01*
X2707178Y-18138281D01*
X2753899Y-18145680D01*
X2901583Y-18169071D01*
X2901585Y-18169071D01*
X3098415Y-18169071D01*
X3098417Y-18169071D01*
X3266291Y-18142482D01*
X3292821Y-18138281D01*
X3292822Y-18138280D01*
X3292826Y-18138280D01*
X3480025Y-18077455D01*
X3655405Y-17988095D01*
X3814646Y-17872399D01*
X3953828Y-17733217D01*
X4069524Y-17573976D01*
X4158884Y-17398596D01*
X4219709Y-17211397D01*
X4250500Y-17016988D01*
X4250500Y-16820154D01*
X4219709Y-16625745D01*
X4158884Y-16438546D01*
X4069524Y-16263166D01*
X3953828Y-16103925D01*
X3814646Y-15964743D01*
X3769434Y-15931894D01*
X3655407Y-15849048D01*
X3655401Y-15849045D01*
X3480025Y-15759687D01*
X3480022Y-15759686D01*
X3480020Y-15759685D01*
X3292821Y-15698860D01*
X3120948Y-15671639D01*
X3098417Y-15668071D01*
X2901583Y-15668071D01*
X2881391Y-15671268D01*
X2707178Y-15698860D01*
X2519979Y-15759685D01*
X2344598Y-15849045D01*
X2344592Y-15849048D01*
X2185356Y-15964741D01*
X2185353Y-15964743D01*
X2046172Y-16103924D01*
X2046170Y-16103927D01*
X1930477Y-16263163D01*
X1930474Y-16263169D01*
X1841114Y-16438550D01*
X1780289Y-16625749D01*
X1749500Y-16820155D01*
X635500Y-16820155D01*
X635500Y-10628140D01*
X8553700Y-10628140D01*
X8553700Y-10809459D01*
X8589072Y-10987296D01*
X8589073Y-10987300D01*
X8610439Y-11038880D01*
X8658463Y-11154820D01*
X8759201Y-11305585D01*
X8887415Y-11433799D01*
X9038180Y-11534537D01*
X9153000Y-11582097D01*
X9205699Y-11603926D01*
X9205703Y-11603927D01*
X9269417Y-11616600D01*
X9383539Y-11639300D01*
X9383541Y-11639300D01*
X9564859Y-11639300D01*
X9564861Y-11639300D01*
X9682344Y-11615931D01*
X9742696Y-11603927D01*
X9742700Y-11603926D01*
X9910220Y-11534537D01*
X10060985Y-11433799D01*
X10189199Y-11305585D01*
X10289937Y-11154820D01*
X10359326Y-10987300D01*
X10394700Y-10809461D01*
X10394700Y-10628140D01*
X11093700Y-10628140D01*
X11093700Y-10809459D01*
X11129072Y-10987296D01*
X11129073Y-10987300D01*
X11150439Y-11038880D01*
X11198463Y-11154820D01*
X11299201Y-11305585D01*
X11427415Y-11433799D01*
X11578180Y-11534537D01*
X11693000Y-11582097D01*
X11745699Y-11603926D01*
X11745703Y-11603927D01*
X11809417Y-11616600D01*
X11923539Y-11639300D01*
X11923541Y-11639300D01*
X12104859Y-11639300D01*
X12104861Y-11639300D01*
X12222344Y-11615931D01*
X12282696Y-11603927D01*
X12282700Y-11603926D01*
X12450220Y-11534537D01*
X12600985Y-11433799D01*
X12729199Y-11305585D01*
X12829937Y-11154820D01*
X12899326Y-10987300D01*
X12934700Y-10809461D01*
X12934700Y-10630375D01*
X13656400Y-10630375D01*
X13656400Y-10807224D01*
X13690900Y-10980675D01*
X13690902Y-10980679D01*
X13758579Y-11144068D01*
X13765307Y-11154137D01*
X14154200Y-10765244D01*
X14154200Y-10771461D01*
X14181459Y-10873194D01*
X14234120Y-10964406D01*
X14308594Y-11038880D01*
X14399806Y-11091541D01*
X14501539Y-11118800D01*
X14507752Y-11118800D01*
X14118861Y-11507691D01*
X14128934Y-11514421D01*
X14292320Y-11582097D01*
X14292324Y-11582099D01*
X14465776Y-11616600D01*
X14642624Y-11616600D01*
X14816075Y-11582099D01*
X14816079Y-11582097D01*
X14979469Y-11514419D01*
X14989537Y-11507691D01*
X14600646Y-11118800D01*
X14606861Y-11118800D01*
X14708594Y-11091541D01*
X14799806Y-11038880D01*
X14874280Y-10964406D01*
X14926941Y-10873194D01*
X14954200Y-10771461D01*
X14954200Y-10765246D01*
X15343091Y-11154137D01*
X15349819Y-11144069D01*
X15417497Y-10980679D01*
X15417499Y-10980675D01*
X15452000Y-10807224D01*
X15452000Y-10630375D01*
X15417499Y-10456924D01*
X15417497Y-10456920D01*
X15349821Y-10293534D01*
X15343090Y-10283461D01*
X14954200Y-10672351D01*
X14954200Y-10666139D01*
X14926941Y-10564406D01*
X14874280Y-10473194D01*
X14799806Y-10398720D01*
X14708594Y-10346059D01*
X14606861Y-10318800D01*
X14600644Y-10318800D01*
X14989537Y-9929907D01*
X14979468Y-9923179D01*
X14816079Y-9855502D01*
X14816075Y-9855500D01*
X14642624Y-9821000D01*
X14465776Y-9821000D01*
X14292324Y-9855500D01*
X14292320Y-9855502D01*
X14128933Y-9923179D01*
X14118861Y-9929907D01*
X14507754Y-10318800D01*
X14501539Y-10318800D01*
X14399806Y-10346059D01*
X14308594Y-10398720D01*
X14234120Y-10473194D01*
X14181459Y-10564406D01*
X14154200Y-10666139D01*
X14154200Y-10672354D01*
X13765307Y-10283461D01*
X13758579Y-10293533D01*
X13690902Y-10456920D01*
X13690900Y-10456924D01*
X13656400Y-10630375D01*
X12934700Y-10630375D01*
X12934700Y-10628139D01*
X12914741Y-10527799D01*
X12899327Y-10450303D01*
X12899326Y-10450299D01*
X12864095Y-10365245D01*
X12829937Y-10282780D01*
X12729199Y-10132015D01*
X12600985Y-10003801D01*
X12450220Y-9903063D01*
X12388339Y-9877431D01*
X12282700Y-9833673D01*
X12282696Y-9833672D01*
X12149015Y-9807082D01*
X12104861Y-9798300D01*
X11923539Y-9798300D01*
X11884260Y-9806112D01*
X11745703Y-9833672D01*
X11745699Y-9833673D01*
X11578178Y-9903064D01*
X11427417Y-10003799D01*
X11299199Y-10132017D01*
X11198464Y-10282778D01*
X11129073Y-10450299D01*
X11129072Y-10450303D01*
X11093700Y-10628140D01*
X10394700Y-10628140D01*
X10394700Y-10628139D01*
X10374741Y-10527799D01*
X10359327Y-10450303D01*
X10359326Y-10450299D01*
X10324095Y-10365245D01*
X10289937Y-10282780D01*
X10189199Y-10132015D01*
X10060985Y-10003801D01*
X9910220Y-9903063D01*
X9848339Y-9877431D01*
X9742700Y-9833673D01*
X9742696Y-9833672D01*
X9609015Y-9807082D01*
X9564861Y-9798300D01*
X9383539Y-9798300D01*
X9344260Y-9806112D01*
X9205703Y-9833672D01*
X9205699Y-9833673D01*
X9038178Y-9903064D01*
X8887417Y-10003799D01*
X8759199Y-10132017D01*
X8658464Y-10282778D01*
X8589073Y-10450299D01*
X8589072Y-10450303D01*
X8553700Y-10628140D01*
X635500Y-10628140D01*
X635500Y-9203371D01*
X1772200Y-9203371D01*
X1772200Y-9396628D01*
X1802430Y-9587506D01*
X1862152Y-9771310D01*
X1949889Y-9943504D01*
X1949895Y-9943515D01*
X1972212Y-9974232D01*
X2435386Y-9511057D01*
X2440889Y-9531591D01*
X2519881Y-9668408D01*
X2631592Y-9780119D01*
X2768409Y-9859111D01*
X2788940Y-9864612D01*
X2325767Y-10327786D01*
X2356491Y-10350108D01*
X2356495Y-10350110D01*
X2528690Y-10437847D01*
X2528689Y-10437847D01*
X2712493Y-10497569D01*
X2903371Y-10527799D01*
X2903372Y-10527800D01*
X3096628Y-10527800D01*
X3096628Y-10527799D01*
X3287506Y-10497569D01*
X3471310Y-10437847D01*
X3471314Y-10437845D01*
X3643508Y-10350108D01*
X3674231Y-10327786D01*
X3211057Y-9864612D01*
X3231591Y-9859111D01*
X3368408Y-9780119D01*
X3480119Y-9668408D01*
X3559111Y-9531591D01*
X3564612Y-9511057D01*
X4027786Y-9974231D01*
X4050108Y-9943508D01*
X4137845Y-9771314D01*
X4137847Y-9771310D01*
X4197569Y-9587506D01*
X4227799Y-9396628D01*
X4227800Y-9396628D01*
X4227800Y-9203371D01*
X4197569Y-9012493D01*
X4137847Y-8828689D01*
X4050110Y-8656495D01*
X4050108Y-8656491D01*
X4027786Y-8625767D01*
X3564612Y-9088940D01*
X3559111Y-9068409D01*
X3480119Y-8931592D01*
X3368408Y-8819881D01*
X3231591Y-8740889D01*
X3211057Y-8735386D01*
X3674232Y-8272212D01*
X3643515Y-8249895D01*
X3643504Y-8249889D01*
X3471309Y-8162152D01*
X3471310Y-8162152D01*
X3287506Y-8102430D01*
X3096629Y-8072200D01*
X2903371Y-8072200D01*
X2712493Y-8102430D01*
X2528692Y-8162151D01*
X2356491Y-8249892D01*
X2356487Y-8249894D01*
X2325767Y-8272212D01*
X2325767Y-8272213D01*
X2788941Y-8735387D01*
X2768409Y-8740889D01*
X2631592Y-8819881D01*
X2519881Y-8931592D01*
X2440889Y-9068409D01*
X2435387Y-9088941D01*
X1972213Y-8625767D01*
X1972212Y-8625767D01*
X1949894Y-8656487D01*
X1949892Y-8656491D01*
X1862151Y-8828692D01*
X1802430Y-9012493D01*
X1772200Y-9203371D01*
X635500Y-9203371D01*
X635500Y-5391583D01*
X1749500Y-5391583D01*
X1749500Y-5588417D01*
X1753584Y-5614201D01*
X1780289Y-5782821D01*
X1835059Y-5951383D01*
X1841116Y-5970025D01*
X1930476Y-6145405D01*
X2046172Y-6304646D01*
X2185354Y-6443828D01*
X2344595Y-6559524D01*
X2519975Y-6648884D01*
X2707174Y-6709709D01*
X2707175Y-6709709D01*
X2707178Y-6709710D01*
X2753899Y-6717109D01*
X2901583Y-6740500D01*
X2901585Y-6740500D01*
X3098415Y-6740500D01*
X3098417Y-6740500D01*
X3266291Y-6713911D01*
X3292821Y-6709710D01*
X3292822Y-6709709D01*
X3292826Y-6709709D01*
X3480025Y-6648884D01*
X3655405Y-6559524D01*
X3814646Y-6443828D01*
X3953828Y-6304646D01*
X4069524Y-6145405D01*
X4158884Y-5970025D01*
X4219709Y-5782826D01*
X4250500Y-5588417D01*
X4250500Y-5391583D01*
X4230388Y-5264598D01*
X4219710Y-5197178D01*
X4158885Y-5009979D01*
X4158884Y-5009975D01*
X4069524Y-4834595D01*
X3953828Y-4675354D01*
X3814646Y-4536172D01*
X3769434Y-4503323D01*
X3655407Y-4420477D01*
X3655401Y-4420474D01*
X3480025Y-4331116D01*
X3480022Y-4331115D01*
X3480020Y-4331114D01*
X3292821Y-4270289D01*
X3120948Y-4243068D01*
X3098417Y-4239500D01*
X2901583Y-4239500D01*
X2881391Y-4242697D01*
X2707178Y-4270289D01*
X2519979Y-4331114D01*
X2344598Y-4420474D01*
X2344592Y-4420477D01*
X2185356Y-4536170D01*
X2185353Y-4536172D01*
X2046172Y-4675353D01*
X2046170Y-4675356D01*
X1930477Y-4834592D01*
X1930474Y-4834598D01*
X1841114Y-5009979D01*
X1780289Y-5197178D01*
X1752697Y-5371391D01*
X1749500Y-5391583D01*
X635500Y-5391583D01*
X635500Y-705600D01*
X656065Y-649099D01*
X708136Y-619035D01*
X723400Y-617700D01*
X9139897Y-617700D01*
X9196398Y-638265D01*
G37*
%TD.AperFunction*%
%TD*%
M02*
