%TF.GenerationSoftware,KiCad,Pcbnew,9.0.1*%
%TF.CreationDate,2025-04-04T11:50:33+11:00*%
%TF.ProjectId,v7_equip_analog,76375f65-7175-4697-905f-616e616c6f67,rev?*%
%TF.SameCoordinates,Original*%
%TF.FileFunction,Soldermask,Top*%
%TF.FilePolarity,Negative*%
%FSLAX46Y46*%
G04 Gerber Fmt 4.6, Leading zero omitted, Abs format (unit mm)*
G04 Created by KiCad (PCBNEW 9.0.1) date 2025-04-04 11:50:33*
%MOMM*%
%LPD*%
G01*
G04 APERTURE LIST*
G04 Aperture macros list*
%AMRoundRect*
0 Rectangle with rounded corners*
0 $1 Rounding radius*
0 $2 $3 $4 $5 $6 $7 $8 $9 X,Y pos of 4 corners*
0 Add a 4 corners polygon primitive as box body*
4,1,4,$2,$3,$4,$5,$6,$7,$8,$9,$2,$3,0*
0 Add four circle primitives for the rounded corners*
1,1,$1+$1,$2,$3*
1,1,$1+$1,$4,$5*
1,1,$1+$1,$6,$7*
1,1,$1+$1,$8,$9*
0 Add four rect primitives between the rounded corners*
20,1,$1+$1,$2,$3,$4,$5,0*
20,1,$1+$1,$4,$5,$6,$7,0*
20,1,$1+$1,$6,$7,$8,$9,0*
20,1,$1+$1,$8,$9,$2,$3,0*%
G04 Aperture macros list end*
%ADD10R,1.700000X1.700000*%
%ADD11C,1.700000*%
%ADD12RoundRect,0.150000X0.587500X0.150000X-0.587500X0.150000X-0.587500X-0.150000X0.587500X-0.150000X0*%
%ADD13C,1.440000*%
%ADD14C,2.100000*%
%ADD15RoundRect,0.250000X-0.337500X-0.475000X0.337500X-0.475000X0.337500X0.475000X-0.337500X0.475000X0*%
%ADD16RoundRect,0.250000X0.450000X-0.350000X0.450000X0.350000X-0.450000X0.350000X-0.450000X-0.350000X0*%
%ADD17RoundRect,0.250000X0.337500X0.475000X-0.337500X0.475000X-0.337500X-0.475000X0.337500X-0.475000X0*%
%ADD18RoundRect,0.250000X-0.475000X0.337500X-0.475000X-0.337500X0.475000X-0.337500X0.475000X0.337500X0*%
%ADD19RoundRect,0.250000X-0.350000X-0.450000X0.350000X-0.450000X0.350000X0.450000X-0.350000X0.450000X0*%
%ADD20RoundRect,0.250000X-0.450000X0.350000X-0.450000X-0.350000X0.450000X-0.350000X0.450000X0.350000X0*%
%ADD21RoundRect,0.150000X0.625000X-0.150000X0.625000X0.150000X-0.625000X0.150000X-0.625000X-0.150000X0*%
%ADD22RoundRect,0.416666X0.970834X-0.583334X0.970834X0.583334X-0.970834X0.583334X-0.970834X-0.583334X0*%
%ADD23R,0.600000X1.250000*%
%ADD24RoundRect,0.250000X0.475000X-0.337500X0.475000X0.337500X-0.475000X0.337500X-0.475000X-0.337500X0*%
%ADD25R,1.500000X0.650000*%
G04 APERTURE END LIST*
D10*
%TO.C,J8*%
X47802800Y-53441600D03*
D11*
X45262800Y-53441600D03*
X47802800Y-50901600D03*
X45262800Y-50901600D03*
X47802800Y-48361600D03*
X45262800Y-48361600D03*
X47802800Y-45821600D03*
X45262800Y-45821600D03*
%TD*%
D12*
%TO.C,D1*%
X23937500Y-14146700D03*
X23937500Y-12246700D03*
X22062500Y-13196700D03*
%TD*%
%TO.C,D7*%
X24000700Y-69530000D03*
X24000700Y-67630000D03*
X22125700Y-68580000D03*
%TD*%
%TO.C,D6*%
X23937500Y-50142128D03*
X23937500Y-48242128D03*
X22062500Y-49192128D03*
%TD*%
%TO.C,D4*%
X23937500Y-32231500D03*
X23937500Y-30331500D03*
X22062500Y-31281500D03*
%TD*%
%TO.C,D3*%
X23937500Y-41143271D03*
X23937500Y-39243271D03*
X22062500Y-40193271D03*
%TD*%
%TO.C,D8*%
X23949900Y-78470800D03*
X23949900Y-76570800D03*
X22074900Y-77520800D03*
%TD*%
%TO.C,D5*%
X23937500Y-59140985D03*
X23937500Y-57240985D03*
X22062500Y-58190985D03*
%TD*%
%TO.C,D2*%
X23937500Y-23145557D03*
X23937500Y-21245557D03*
X22062500Y-22195557D03*
%TD*%
D10*
%TO.C,J3*%
X54991000Y-37439600D03*
D11*
X57531000Y-37439600D03*
X54991000Y-39979600D03*
X57531000Y-39979600D03*
X54991000Y-42519600D03*
X57531000Y-42519600D03*
X54991000Y-45059600D03*
X57531000Y-45059600D03*
X54991000Y-47599600D03*
X57531000Y-47599600D03*
X54991000Y-50139600D03*
X57531000Y-50139600D03*
X54991000Y-52679600D03*
X57531000Y-52679600D03*
X54991000Y-55219600D03*
X57531000Y-55219600D03*
X54991000Y-57759600D03*
X57531000Y-57759600D03*
X54991000Y-60299600D03*
X57531000Y-60299600D03*
X54991000Y-62839600D03*
X57531000Y-62839600D03*
X54991000Y-65379600D03*
X57531000Y-65379600D03*
X54991000Y-67919600D03*
X57531000Y-67919600D03*
X54991000Y-70459600D03*
X57531000Y-70459600D03*
X54991000Y-72999600D03*
X57531000Y-72999600D03*
%TD*%
D10*
%TO.C,CON1*%
X49123600Y-92252800D03*
D11*
X46583600Y-92252800D03*
X44043600Y-92252800D03*
X41503600Y-92252800D03*
%TD*%
D13*
%TO.C,RV8*%
X16713200Y-84683600D03*
X14173200Y-84683600D03*
X11633200Y-84683600D03*
%TD*%
%TO.C,RV2*%
X14554200Y-22136100D03*
X12014200Y-22136100D03*
X9474200Y-22136100D03*
%TD*%
%TO.C,RV5*%
X14554200Y-67805300D03*
X12014200Y-67805300D03*
X9474200Y-67805300D03*
%TD*%
%TO.C,RV4*%
X14554200Y-33553400D03*
X12014200Y-33553400D03*
X9474200Y-33553400D03*
%TD*%
%TO.C,RV6*%
X14554200Y-56388000D03*
X12014200Y-56388000D03*
X9474200Y-56388000D03*
%TD*%
%TO.C,RV7*%
X14554200Y-79222600D03*
X12014200Y-79222600D03*
X9474200Y-79222600D03*
%TD*%
%TO.C,RV3*%
X14554200Y-44970700D03*
X12014200Y-44970700D03*
X9474200Y-44970700D03*
%TD*%
%TO.C,RV1*%
X14554200Y-10718800D03*
X12014200Y-10718800D03*
X9474200Y-10718800D03*
%TD*%
D14*
%TO.C,J1*%
X3000000Y-9300000D03*
X3000000Y-5490000D03*
%TD*%
D15*
%TO.C,C9*%
X49102100Y-62255400D03*
X51177100Y-62255400D03*
%TD*%
D16*
%TO.C,R9*%
X49072800Y-22961600D03*
X49072800Y-20961600D03*
%TD*%
D17*
%TO.C,C13*%
X44602400Y-78663800D03*
X42527400Y-78663800D03*
%TD*%
D18*
%TO.C,C11*%
X29514800Y-68583900D03*
X29514800Y-70658900D03*
%TD*%
D19*
%TO.C,R10*%
X7407400Y-74142600D03*
X9407400Y-74142600D03*
%TD*%
D14*
%TO.C,J4*%
X3000000Y-43585713D03*
X3000000Y-39775713D03*
%TD*%
%TO.C,J5*%
X3000000Y-32157142D03*
X3000000Y-28347142D03*
%TD*%
D18*
%TO.C,C8*%
X29464000Y-49178300D03*
X29464000Y-51253300D03*
%TD*%
D20*
%TO.C,R2*%
X9474200Y-16195800D03*
X9474200Y-18195800D03*
%TD*%
D19*
%TO.C,R5*%
X7356600Y-62661800D03*
X9356600Y-62661800D03*
%TD*%
D14*
%TO.C,J2*%
X3000000Y-20728571D03*
X3000000Y-16918571D03*
%TD*%
D16*
%TO.C,R7*%
X55016400Y-30581600D03*
X55016400Y-28581600D03*
%TD*%
D18*
%TO.C,C3*%
X29489400Y-22076500D03*
X29489400Y-24151500D03*
%TD*%
D14*
%TO.C,J10*%
X3000000Y-89300000D03*
X3000000Y-85490000D03*
%TD*%
D19*
%TO.C,R3*%
X7509000Y-39801800D03*
X9509000Y-39801800D03*
%TD*%
D16*
%TO.C,R8*%
X49072800Y-30556200D03*
X49072800Y-28556200D03*
%TD*%
D19*
%TO.C,R6*%
X7407400Y-51231800D03*
X9407400Y-51231800D03*
%TD*%
D14*
%TO.C,J7*%
X3000000Y-55014284D03*
X3000000Y-51204284D03*
%TD*%
D18*
%TO.C,C7*%
X29464000Y-58195300D03*
X29464000Y-60270300D03*
%TD*%
D21*
%TO.C,CON2*%
X54388000Y-83897600D03*
X54388000Y-82897600D03*
X54388000Y-81897600D03*
X54388000Y-80897600D03*
D22*
X57810400Y-85598000D03*
X57810400Y-79146400D03*
%TD*%
D23*
%TO.C,IC2*%
X53304400Y-23011600D03*
X55204400Y-23011600D03*
X54254400Y-20911600D03*
%TD*%
D18*
%TO.C,C1*%
X29464000Y-13186500D03*
X29464000Y-15261500D03*
%TD*%
D14*
%TO.C,J6*%
X3000000Y-66442855D03*
X3000000Y-62632855D03*
%TD*%
D24*
%TO.C,C2*%
X24000000Y-6473100D03*
X24000000Y-4398100D03*
%TD*%
D18*
%TO.C,C4*%
X29464000Y-40085100D03*
X29464000Y-42160100D03*
%TD*%
D20*
%TO.C,R11*%
X6527800Y-85461600D03*
X6527800Y-87461600D03*
%TD*%
%TO.C,R1*%
X13665200Y-16170400D03*
X13665200Y-18170400D03*
%TD*%
D15*
%TO.C,C6*%
X49000500Y-58013600D03*
X51075500Y-58013600D03*
%TD*%
D14*
%TO.C,J9*%
X3000000Y-77871426D03*
X3000000Y-74061426D03*
%TD*%
D18*
%TO.C,C5*%
X29438600Y-31209616D03*
X29438600Y-33284616D03*
%TD*%
%TO.C,C12*%
X29514800Y-77346900D03*
X29514800Y-79421900D03*
%TD*%
D15*
%TO.C,C10*%
X24032300Y-84785200D03*
X26107300Y-84785200D03*
%TD*%
D19*
%TO.C,R4*%
X7585200Y-28321000D03*
X9585200Y-28321000D03*
%TD*%
D25*
%TO.C,IC1*%
X40149800Y-60985400D03*
X40149800Y-62255400D03*
X40149800Y-63525400D03*
X40149800Y-64795400D03*
X40149800Y-66065400D03*
X40149800Y-67335400D03*
X40149800Y-68605400D03*
X40149800Y-69875400D03*
X45549800Y-69875400D03*
X45549800Y-68605400D03*
X45549800Y-67335400D03*
X45549800Y-66065400D03*
X45549800Y-64795400D03*
X45549800Y-63525400D03*
X45549800Y-62255400D03*
X45549800Y-60985400D03*
%TD*%
M02*
