%TF.GenerationSoftware,KiCad,Pcbnew,8.0.8*%
%TF.CreationDate,2025-01-31T12:33:27+11:00*%
%TF.ProjectId,v6_equip_joiner,76365f65-7175-4697-905f-6a6f696e6572,rev?*%
%TF.SameCoordinates,Original*%
%TF.FileFunction,Soldermask,Bot*%
%TF.FilePolarity,Negative*%
%FSLAX46Y46*%
G04 Gerber Fmt 4.6, Leading zero omitted, Abs format (unit mm)*
G04 Created by KiCad (PCBNEW 8.0.8) date 2025-01-31 12:33:27*
%MOMM*%
%LPD*%
G01*
G04 APERTURE LIST*
%ADD10R,1.700000X1.700000*%
%ADD11O,1.700000X1.700000*%
%ADD12C,2.100000*%
%ADD13C,3.500000*%
%ADD14R,1.500000X1.500000*%
G04 APERTURE END LIST*
D10*
%TO.C,J1*%
X142367000Y-56489600D03*
D11*
X144907000Y-56489600D03*
X142367000Y-59029600D03*
X144907000Y-59029600D03*
X142367000Y-61569600D03*
X144907000Y-61569600D03*
X142367000Y-64109600D03*
X144907000Y-64109600D03*
X142367000Y-66649600D03*
X144907000Y-66649600D03*
X142367000Y-69189600D03*
X144907000Y-69189600D03*
X142367000Y-71729600D03*
X144907000Y-71729600D03*
X142367000Y-74269600D03*
X144907000Y-74269600D03*
X142367000Y-76809600D03*
X144907000Y-76809600D03*
X142367000Y-79349600D03*
X144907000Y-79349600D03*
X142367000Y-81889600D03*
X144907000Y-81889600D03*
X142367000Y-84429600D03*
X144907000Y-84429600D03*
X142367000Y-86969600D03*
X144907000Y-86969600D03*
X142367000Y-89509600D03*
X144907000Y-89509600D03*
X142367000Y-92049600D03*
X144907000Y-92049600D03*
%TD*%
D12*
%TO.C,J3*%
X155778200Y-44297600D03*
X159588200Y-44297600D03*
%TD*%
D13*
%TO.C,H1*%
X141630400Y-40843200D03*
%TD*%
D10*
%TO.C,CON1*%
X155956000Y-99517200D03*
D11*
X153416000Y-99517200D03*
X150876000Y-99517200D03*
X148336000Y-99517200D03*
%TD*%
D13*
%TO.C,H2*%
X174167800Y-97739200D03*
%TD*%
D10*
%TO.C,J2*%
X173101000Y-76555600D03*
D11*
X170561000Y-76555600D03*
X173101000Y-74015600D03*
X170561000Y-74015600D03*
X173101000Y-71475600D03*
X170561000Y-71475600D03*
X173101000Y-68935600D03*
X170561000Y-68935600D03*
X173101000Y-66395600D03*
X170561000Y-66395600D03*
X173101000Y-63855600D03*
X170561000Y-63855600D03*
X173101000Y-61315600D03*
X170561000Y-61315600D03*
X173101000Y-58775600D03*
X170561000Y-58775600D03*
X173101000Y-56235600D03*
X170561000Y-56235600D03*
X173101000Y-53695600D03*
X170561000Y-53695600D03*
X173101000Y-51155600D03*
X170561000Y-51155600D03*
X173101000Y-48615600D03*
X170561000Y-48615600D03*
X173101000Y-46075600D03*
X170561000Y-46075600D03*
X173101000Y-43535600D03*
X170561000Y-43535600D03*
X173101000Y-40995600D03*
X170561000Y-40995600D03*
%TD*%
D12*
%TO.C,J4*%
X155778200Y-38746800D03*
X159588200Y-38746800D03*
%TD*%
D14*
%TO.C,JP1*%
X166700200Y-95300800D03*
X166700200Y-93421200D03*
X166700200Y-91541600D03*
%TD*%
M02*
