%TF.GenerationSoftware,KiCad,Pcbnew,8.0.8*%
%TF.CreationDate,2025-01-31T12:33:27+11:00*%
%TF.ProjectId,v6_equip_joiner,76365f65-7175-4697-905f-6a6f696e6572,rev?*%
%TF.SameCoordinates,Original*%
%TF.FileFunction,Soldermask,Top*%
%TF.FilePolarity,Negative*%
%FSLAX46Y46*%
G04 Gerber Fmt 4.6, Leading zero omitted, Abs format (unit mm)*
G04 Created by KiCad (PCBNEW 8.0.8) date 2025-01-31 12:33:27*
%MOMM*%
%LPD*%
G01*
G04 APERTURE LIST*
G04 Aperture macros list*
%AMRoundRect*
0 Rectangle with rounded corners*
0 $1 Rounding radius*
0 $2 $3 $4 $5 $6 $7 $8 $9 X,Y pos of 4 corners*
0 Add a 4 corners polygon primitive as box body*
4,1,4,$2,$3,$4,$5,$6,$7,$8,$9,$2,$3,0*
0 Add four circle primitives for the rounded corners*
1,1,$1+$1,$2,$3*
1,1,$1+$1,$4,$5*
1,1,$1+$1,$6,$7*
1,1,$1+$1,$8,$9*
0 Add four rect primitives between the rounded corners*
20,1,$1+$1,$2,$3,$4,$5,0*
20,1,$1+$1,$4,$5,$6,$7,0*
20,1,$1+$1,$6,$7,$8,$9,0*
20,1,$1+$1,$8,$9,$2,$3,0*%
G04 Aperture macros list end*
%ADD10RoundRect,0.250000X0.475000X-0.337500X0.475000X0.337500X-0.475000X0.337500X-0.475000X-0.337500X0*%
%ADD11RoundRect,0.250000X-0.475000X0.337500X-0.475000X-0.337500X0.475000X-0.337500X0.475000X0.337500X0*%
%ADD12RoundRect,0.150000X-0.150000X-0.625000X0.150000X-0.625000X0.150000X0.625000X-0.150000X0.625000X0*%
%ADD13RoundRect,0.416666X-0.583334X-0.970834X0.583334X-0.970834X0.583334X0.970834X-0.583334X0.970834X0*%
%ADD14RoundRect,0.375000X-0.375000X0.625000X-0.375000X-0.625000X0.375000X-0.625000X0.375000X0.625000X0*%
%ADD15RoundRect,0.500000X-1.400000X0.500000X-1.400000X-0.500000X1.400000X-0.500000X1.400000X0.500000X0*%
%ADD16R,1.700000X1.700000*%
%ADD17O,1.700000X1.700000*%
%ADD18C,2.100000*%
%ADD19C,3.500000*%
%ADD20RoundRect,0.250000X-0.337500X-0.475000X0.337500X-0.475000X0.337500X0.475000X-0.337500X0.475000X0*%
G04 APERTURE END LIST*
D10*
%TO.C,C4*%
X144881600Y-51710500D03*
X144881600Y-49635500D03*
%TD*%
D11*
%TO.C,C3*%
X169138600Y-94517300D03*
X169138600Y-96592300D03*
%TD*%
D12*
%TO.C,CON2*%
X161212400Y-95942400D03*
X162212400Y-95942400D03*
X163212400Y-95942400D03*
X164212400Y-95942400D03*
D13*
X159512000Y-99364800D03*
X165963600Y-99364800D03*
%TD*%
D14*
%TO.C,U1*%
X174080200Y-84556200D03*
X171780200Y-84556200D03*
D15*
X171780200Y-90856200D03*
D14*
X169480200Y-84556200D03*
%TD*%
D16*
%TO.C,J1*%
X142367000Y-56489600D03*
D17*
X144907000Y-56489600D03*
X142367000Y-59029600D03*
X144907000Y-59029600D03*
X142367000Y-61569600D03*
X144907000Y-61569600D03*
X142367000Y-64109600D03*
X144907000Y-64109600D03*
X142367000Y-66649600D03*
X144907000Y-66649600D03*
X142367000Y-69189600D03*
X144907000Y-69189600D03*
X142367000Y-71729600D03*
X144907000Y-71729600D03*
X142367000Y-74269600D03*
X144907000Y-74269600D03*
X142367000Y-76809600D03*
X144907000Y-76809600D03*
X142367000Y-79349600D03*
X144907000Y-79349600D03*
X142367000Y-81889600D03*
X144907000Y-81889600D03*
X142367000Y-84429600D03*
X144907000Y-84429600D03*
X142367000Y-86969600D03*
X144907000Y-86969600D03*
X142367000Y-89509600D03*
X144907000Y-89509600D03*
X142367000Y-92049600D03*
X144907000Y-92049600D03*
%TD*%
D18*
%TO.C,J3*%
X155778200Y-44297600D03*
X159588200Y-44297600D03*
%TD*%
D19*
%TO.C,H1*%
X141630400Y-40843200D03*
%TD*%
D16*
%TO.C,CON1*%
X155956000Y-99517200D03*
D17*
X153416000Y-99517200D03*
X150876000Y-99517200D03*
X148336000Y-99517200D03*
%TD*%
D19*
%TO.C,H2*%
X174167800Y-97739200D03*
%TD*%
D16*
%TO.C,J2*%
X173101000Y-76555600D03*
D17*
X170561000Y-76555600D03*
X173101000Y-74015600D03*
X170561000Y-74015600D03*
X173101000Y-71475600D03*
X170561000Y-71475600D03*
X173101000Y-68935600D03*
X170561000Y-68935600D03*
X173101000Y-66395600D03*
X170561000Y-66395600D03*
X173101000Y-63855600D03*
X170561000Y-63855600D03*
X173101000Y-61315600D03*
X170561000Y-61315600D03*
X173101000Y-58775600D03*
X170561000Y-58775600D03*
X173101000Y-56235600D03*
X170561000Y-56235600D03*
X173101000Y-53695600D03*
X170561000Y-53695600D03*
X173101000Y-51155600D03*
X170561000Y-51155600D03*
X173101000Y-48615600D03*
X170561000Y-48615600D03*
X173101000Y-46075600D03*
X170561000Y-46075600D03*
X173101000Y-43535600D03*
X170561000Y-43535600D03*
X173101000Y-40995600D03*
X170561000Y-40995600D03*
%TD*%
D20*
%TO.C,C2*%
X170006100Y-81051400D03*
X172081100Y-81051400D03*
%TD*%
D10*
%TO.C,C1*%
X157657800Y-90674100D03*
X157657800Y-88599100D03*
%TD*%
D18*
%TO.C,J4*%
X155778200Y-38746800D03*
X159588200Y-38746800D03*
%TD*%
M02*
