M48
; DRILL file {KiCad 8.0.8} date 2025-01-31T12:33:30+1100
; FORMAT={-:-/ absolute / metric / decimal}
; #@! TF.CreationDate,2025-01-31T12:33:30+11:00
; #@! TF.GenerationSoftware,Kicad,Pcbnew,8.0.8
; #@! TF.FileFunction,Plated,1,2,PTH
FMAT,2
METRIC
; #@! TA.AperFunction,Plated,PTH,ViaDrill
T1C0.330
; #@! TA.AperFunction,Plated,PTH,ViaDrill
T2C0.381
; #@! TA.AperFunction,Plated,PTH,ComponentDrill
T3C1.000
; #@! TA.AperFunction,Plated,PTH,ComponentDrill
T4C1.400
%
G90
G05
T1
X148.209Y-64.11
X149.225Y-65.126
X150.241Y-66.405
X151.308Y-65.126
X152.273Y-63.865
X153.289Y-62.611
X154.305Y-61.316
X154.661Y-81.89
X155.296Y-60.046
X155.801Y-84.432
X156.337Y-58.785
X157.353Y-57.506
X158.394Y-56.286
X159.385Y-54.966
X160.401Y-53.67
X161.392Y-52.426
X162.433Y-51.156
X163.449Y-49.936
X164.465Y-48.641
X165.481Y-47.371
X166.522Y-46.025
X167.513Y-44.831
T2
X139.802Y-97.485
X141.605Y-46.076
X153.441Y-95.275
X157.734Y-93.396
X161.519Y-88.468
X165.633Y-84.582
X169.215Y-99.644
X171.78Y-87.147
X171.78Y-88.595
X173.939Y-87.122
X173.965Y-81.001
X176.555Y-63.373
X176.555Y-65.075
X176.555Y-66.929
X176.555Y-68.631
T3
X142.367Y-56.49
X142.367Y-59.03
X142.367Y-61.57
X142.367Y-64.11
X142.367Y-66.65
X142.367Y-69.19
X142.367Y-71.73
X142.367Y-74.27
X142.367Y-76.81
X142.367Y-79.35
X142.367Y-81.89
X142.367Y-84.43
X142.367Y-86.97
X142.367Y-89.51
X142.367Y-92.05
X144.907Y-56.49
X144.907Y-59.03
X144.907Y-61.57
X144.907Y-64.11
X144.907Y-66.65
X144.907Y-69.19
X144.907Y-71.73
X144.907Y-74.27
X144.907Y-76.81
X144.907Y-79.35
X144.907Y-81.89
X144.907Y-84.43
X144.907Y-86.97
X144.907Y-89.51
X144.907Y-92.05
X148.336Y-99.517
X150.876Y-99.517
X153.416Y-99.517
X155.956Y-99.517
X170.561Y-40.996
X170.561Y-43.536
X170.561Y-46.076
X170.561Y-48.616
X170.561Y-51.156
X170.561Y-53.696
X170.561Y-56.236
X170.561Y-58.776
X170.561Y-61.316
X170.561Y-63.856
X170.561Y-66.396
X170.561Y-68.936
X170.561Y-71.476
X170.561Y-74.016
X170.561Y-76.556
X173.101Y-40.996
X173.101Y-43.536
X173.101Y-46.076
X173.101Y-48.616
X173.101Y-51.156
X173.101Y-53.696
X173.101Y-56.236
X173.101Y-58.776
X173.101Y-61.316
X173.101Y-63.856
X173.101Y-66.396
X173.101Y-68.936
X173.101Y-71.476
X173.101Y-74.016
X173.101Y-76.556
T4
X155.778Y-38.747
X155.778Y-44.298
X159.588Y-38.747
X159.588Y-44.298
M30
