%TF.GenerationSoftware,KiCad,Pcbnew,8.0.8*%
%TF.CreationDate,2025-01-31T12:33:27+11:00*%
%TF.ProjectId,v6_equip_joiner,76365f65-7175-4697-905f-6a6f696e6572,rev?*%
%TF.SameCoordinates,Original*%
%TF.FileFunction,Legend,Bot*%
%TF.FilePolarity,Positive*%
%FSLAX46Y46*%
G04 Gerber Fmt 4.6, Leading zero omitted, Abs format (unit mm)*
G04 Created by KiCad (PCBNEW 8.0.8) date 2025-01-31 12:33:27*
%MOMM*%
%LPD*%
G01*
G04 APERTURE LIST*
%ADD10C,0.066145*%
%ADD11C,0.053477*%
%ADD12C,0.100000*%
%ADD13C,0.150000*%
%ADD14C,0.120000*%
G04 APERTURE END LIST*
D10*
X149290684Y-48690259D02*
X149349782Y-48693431D01*
X149409135Y-48699165D01*
X149468617Y-48707459D01*
X149528100Y-48718310D01*
X149587458Y-48731714D01*
X149646566Y-48747668D01*
X149705296Y-48766169D01*
X149763522Y-48787213D01*
X149821118Y-48810798D01*
X149877956Y-48836920D01*
X149933912Y-48865577D01*
X149988858Y-48896764D01*
X150042668Y-48930478D01*
X150095216Y-48966718D01*
X150146375Y-49005478D01*
X150196018Y-49046757D01*
X150244019Y-49090550D01*
X150290253Y-49136855D01*
X150334591Y-49185668D01*
X150376909Y-49236987D01*
X150417079Y-49290807D01*
X150454974Y-49347127D01*
X150490470Y-49405942D01*
X150523439Y-49467250D01*
X150557779Y-49536122D01*
X150589297Y-49603436D01*
X150617693Y-49669680D01*
X150642665Y-49735346D01*
X150663915Y-49800923D01*
X150681140Y-49866904D01*
X150694042Y-49933777D01*
X150702318Y-50002035D01*
X150705669Y-50072166D01*
X150703793Y-50144663D01*
X150696392Y-50220014D01*
X150683163Y-50298712D01*
X150663808Y-50381246D01*
X150638024Y-50468106D01*
X150605512Y-50559785D01*
X150565971Y-50656771D01*
X150560235Y-50642666D01*
X150553831Y-50629388D01*
X150546777Y-50616913D01*
X150539096Y-50605219D01*
X150530806Y-50594283D01*
X150521928Y-50584081D01*
X150512481Y-50574592D01*
X150502487Y-50565791D01*
X150491966Y-50557657D01*
X150480936Y-50550166D01*
X150469420Y-50543296D01*
X150457436Y-50537023D01*
X150432147Y-50526178D01*
X150405230Y-50517450D01*
X150376848Y-50510654D01*
X150347162Y-50505609D01*
X150316331Y-50502130D01*
X150284519Y-50500035D01*
X150251886Y-50499141D01*
X150218593Y-50499264D01*
X150150674Y-50501834D01*
X150054633Y-50509059D01*
X149964364Y-50517697D01*
X149879717Y-50527873D01*
X149800541Y-50539710D01*
X149726686Y-50553334D01*
X149658003Y-50568869D01*
X149625553Y-50577392D01*
X149594340Y-50586439D01*
X149564344Y-50596026D01*
X149535547Y-50606169D01*
X149507930Y-50616883D01*
X149481475Y-50628183D01*
X149456162Y-50640086D01*
X149431972Y-50652606D01*
X149408888Y-50665759D01*
X149386890Y-50679561D01*
X149365959Y-50694028D01*
X149346076Y-50709175D01*
X149327224Y-50725017D01*
X149309382Y-50741570D01*
X149292533Y-50758849D01*
X149276657Y-50776871D01*
X149261735Y-50795651D01*
X149247750Y-50815204D01*
X149234682Y-50835546D01*
X149222512Y-50856692D01*
X149217522Y-50862989D01*
X149213322Y-50869235D01*
X149209878Y-50875436D01*
X149207159Y-50881599D01*
X149205133Y-50887731D01*
X149203767Y-50893838D01*
X149203030Y-50899928D01*
X149202889Y-50906008D01*
X149203312Y-50912084D01*
X149204268Y-50918163D01*
X149205724Y-50924252D01*
X149207648Y-50930358D01*
X149210008Y-50936488D01*
X149212773Y-50942649D01*
X149219385Y-50955089D01*
X149227229Y-50967734D01*
X149236047Y-50980640D01*
X149255583Y-51007450D01*
X149265786Y-51021465D01*
X149275939Y-51035959D01*
X149285784Y-51050988D01*
X149295064Y-51066607D01*
X149218645Y-51044660D01*
X149145555Y-51021030D01*
X149075737Y-50995776D01*
X149009133Y-50968959D01*
X148945686Y-50940637D01*
X148885340Y-50910870D01*
X148828035Y-50879718D01*
X148773717Y-50847240D01*
X148722326Y-50813495D01*
X148673806Y-50778543D01*
X148628100Y-50742443D01*
X148585150Y-50705256D01*
X148544900Y-50667039D01*
X148507291Y-50627854D01*
X148472266Y-50587759D01*
X148439769Y-50546813D01*
X148409742Y-50505078D01*
X148382128Y-50462610D01*
X148356869Y-50419471D01*
X148333908Y-50375720D01*
X148313188Y-50331416D01*
X148294652Y-50286619D01*
X148278242Y-50241388D01*
X148263902Y-50195783D01*
X148241199Y-50103687D01*
X148226086Y-50010808D01*
X148218104Y-49917621D01*
X148216795Y-49824603D01*
X148216794Y-49824603D01*
X148218815Y-49778767D01*
X148222498Y-49733138D01*
X148227790Y-49687775D01*
X148234638Y-49642739D01*
X148242989Y-49598088D01*
X148252788Y-49553884D01*
X148263984Y-49510185D01*
X148276523Y-49467053D01*
X148290353Y-49424547D01*
X148305419Y-49382726D01*
X148321668Y-49341652D01*
X148339049Y-49301383D01*
X148357506Y-49261980D01*
X148376988Y-49223503D01*
X148397442Y-49186011D01*
X148418813Y-49149564D01*
X148441049Y-49114224D01*
X148464097Y-49080048D01*
X148487903Y-49047098D01*
X148512415Y-49015434D01*
X148537579Y-48985114D01*
X148563342Y-48956200D01*
X148589652Y-48928751D01*
X148616454Y-48902827D01*
X148643696Y-48878489D01*
X148671325Y-48855795D01*
X148699287Y-48834806D01*
X148727529Y-48815582D01*
X148755999Y-48798182D01*
X148784642Y-48782668D01*
X148813407Y-48769098D01*
X148842239Y-48757533D01*
X148894748Y-48740086D01*
X148948523Y-48725228D01*
X149003438Y-48712956D01*
X149059367Y-48703265D01*
X149116182Y-48696153D01*
X149173757Y-48691617D01*
X149231967Y-48689653D01*
X149290684Y-48690259D01*
D11*
X144648140Y-47868510D02*
X144648132Y-47868510D01*
X144648140Y-47868503D01*
X144648140Y-47868510D01*
G36*
X144648140Y-47868510D02*
G01*
X144648132Y-47868510D01*
X144648140Y-47868503D01*
X144648140Y-47868510D01*
G37*
D10*
X143908950Y-49522920D02*
X143926656Y-49631832D01*
X143951120Y-49736521D01*
X143982226Y-49836693D01*
X144019857Y-49932052D01*
X144063899Y-50022303D01*
X144114236Y-50107149D01*
X144170751Y-50186296D01*
X144201290Y-50223640D01*
X144233330Y-50259448D01*
X144266858Y-50293683D01*
X144301857Y-50326309D01*
X144338315Y-50357289D01*
X144376217Y-50386585D01*
X144415547Y-50414160D01*
X144456292Y-50439979D01*
X144498438Y-50464003D01*
X144541969Y-50486196D01*
X144586872Y-50506520D01*
X144633132Y-50524940D01*
X144680734Y-50541418D01*
X144729664Y-50555916D01*
X144779907Y-50568399D01*
X144831450Y-50578829D01*
X144831449Y-50578837D01*
X144794520Y-50664011D01*
X144761709Y-50748300D01*
X144707860Y-50914085D01*
X144668736Y-51075920D01*
X144643168Y-51233535D01*
X144629991Y-51386659D01*
X144628035Y-51535020D01*
X144636134Y-51678347D01*
X144653119Y-51816370D01*
X144677825Y-51948818D01*
X144709082Y-52075419D01*
X144745724Y-52195903D01*
X144786584Y-52309999D01*
X144830493Y-52417435D01*
X144876284Y-52517941D01*
X144968843Y-52697077D01*
X145000610Y-52757702D01*
X145033140Y-52825952D01*
X145064972Y-52900864D01*
X145094642Y-52981478D01*
X145120687Y-53066832D01*
X145141646Y-53155963D01*
X145156055Y-53247911D01*
X145160346Y-53294641D01*
X145162451Y-53341714D01*
X145162187Y-53389011D01*
X145159372Y-53436410D01*
X145153822Y-53483793D01*
X145145355Y-53531038D01*
X145133788Y-53578026D01*
X145118938Y-53624636D01*
X145100621Y-53670748D01*
X145078656Y-53716242D01*
X145052860Y-53760998D01*
X145023049Y-53804895D01*
X144989041Y-53847814D01*
X144950653Y-53889634D01*
X144907702Y-53930234D01*
X144860005Y-53969496D01*
X144807379Y-54007298D01*
X144749642Y-54043520D01*
X144714780Y-54062455D01*
X144678648Y-54079085D01*
X144641335Y-54093454D01*
X144602930Y-54105607D01*
X144563523Y-54115587D01*
X144523205Y-54123437D01*
X144482063Y-54129203D01*
X144440188Y-54132926D01*
X144397668Y-54134652D01*
X144354595Y-54134425D01*
X144267143Y-54128283D01*
X144178548Y-54114852D01*
X144089525Y-54094482D01*
X144000791Y-54067525D01*
X143913061Y-54034330D01*
X143827052Y-53995248D01*
X143743480Y-53950630D01*
X143663060Y-53900826D01*
X143586510Y-53846188D01*
X143514544Y-53787066D01*
X143447878Y-53723811D01*
X143398308Y-53670572D01*
X143351327Y-53615299D01*
X143306890Y-53558127D01*
X143264947Y-53499189D01*
X143188360Y-53376557D01*
X143121187Y-53248485D01*
X143063052Y-53116050D01*
X143013577Y-52980333D01*
X142972382Y-52842412D01*
X142939092Y-52703367D01*
X142913327Y-52564276D01*
X142894710Y-52426220D01*
X142882864Y-52290277D01*
X142877410Y-52157526D01*
X142877970Y-52029047D01*
X142884167Y-51905919D01*
X142895623Y-51789221D01*
X142911959Y-51680033D01*
X142959231Y-51450952D01*
X143013258Y-51240044D01*
X143073002Y-51045906D01*
X143137427Y-50867136D01*
X143205496Y-50702331D01*
X143276172Y-50550089D01*
X143348416Y-50409007D01*
X143421193Y-50277684D01*
X143696882Y-49821919D01*
X143756763Y-49718348D01*
X143810954Y-49616120D01*
X143858417Y-49513832D01*
X143898116Y-49410082D01*
X143908950Y-49522920D01*
D11*
X146674644Y-50199608D02*
X146770452Y-50206361D01*
X146865610Y-50216457D01*
X146958805Y-50229393D01*
X147048720Y-50244669D01*
X147134039Y-50261782D01*
X147213448Y-50280231D01*
X147285632Y-50299515D01*
X147349274Y-50319131D01*
X147403059Y-50338579D01*
X147445672Y-50357356D01*
X147447486Y-50388715D01*
X147450539Y-50419104D01*
X147454766Y-50448579D01*
X147460099Y-50477196D01*
X147466474Y-50505011D01*
X147473824Y-50532080D01*
X147482083Y-50558458D01*
X147491185Y-50584201D01*
X147511655Y-50634008D01*
X147534705Y-50681947D01*
X147559808Y-50728465D01*
X147586436Y-50774008D01*
X147642155Y-50863961D01*
X147670189Y-50909264D01*
X147697636Y-50955381D01*
X147723968Y-51002758D01*
X147748657Y-51051843D01*
X147771175Y-51103083D01*
X147781455Y-51129650D01*
X147790994Y-51156924D01*
X147791800Y-51157088D01*
X147792542Y-51157218D01*
X147793239Y-51157325D01*
X147793914Y-51157421D01*
X147794588Y-51157516D01*
X147795281Y-51157624D01*
X147796016Y-51157756D01*
X147796812Y-51157923D01*
X147804080Y-51202456D01*
X147809036Y-51248131D01*
X147811926Y-51294687D01*
X147812995Y-51341865D01*
X147812491Y-51389404D01*
X147810658Y-51437044D01*
X147803993Y-51531587D01*
X147785555Y-51710436D01*
X147777719Y-51790578D01*
X147775008Y-51827418D01*
X147773430Y-51861758D01*
X147773477Y-51895861D01*
X147774508Y-51932170D01*
X147776449Y-51970076D01*
X147779228Y-52008971D01*
X147782770Y-52048248D01*
X147787001Y-52087298D01*
X147791849Y-52125513D01*
X147797239Y-52162287D01*
X147803099Y-52197011D01*
X147809354Y-52229077D01*
X147815931Y-52257877D01*
X147822756Y-52282804D01*
X147829756Y-52303250D01*
X147836857Y-52318607D01*
X147840422Y-52324187D01*
X147843986Y-52328267D01*
X147847537Y-52330770D01*
X147851068Y-52331622D01*
X147855469Y-52332428D01*
X147859769Y-52332536D01*
X147863985Y-52331993D01*
X147868134Y-52330848D01*
X147872234Y-52329148D01*
X147876301Y-52326942D01*
X147880351Y-52324277D01*
X147884403Y-52321202D01*
X147892579Y-52314014D01*
X147900962Y-52305760D01*
X147918896Y-52287595D01*
X147928719Y-52278452D01*
X147933904Y-52274034D01*
X147939293Y-52269782D01*
X147944905Y-52265744D01*
X147950755Y-52261968D01*
X147956861Y-52258502D01*
X147963239Y-52255394D01*
X147969908Y-52252693D01*
X147976883Y-52250446D01*
X147984181Y-52248701D01*
X147991821Y-52247507D01*
X147999818Y-52246911D01*
X148008189Y-52246961D01*
X148016952Y-52247706D01*
X148026124Y-52249194D01*
X148035617Y-52251334D01*
X148044873Y-52253983D01*
X148053900Y-52257109D01*
X148062710Y-52260680D01*
X148071313Y-52264662D01*
X148079720Y-52269024D01*
X148087941Y-52273732D01*
X148095986Y-52278755D01*
X148103867Y-52284060D01*
X148111594Y-52289614D01*
X148126626Y-52301340D01*
X148141167Y-52313674D01*
X148155302Y-52326355D01*
X148182688Y-52351722D01*
X148196107Y-52363887D01*
X148209456Y-52375360D01*
X148222820Y-52385882D01*
X148229533Y-52390704D01*
X148236281Y-52395192D01*
X148243075Y-52399311D01*
X148249925Y-52403030D01*
X148256842Y-52406316D01*
X148263836Y-52409136D01*
X148270097Y-52407966D01*
X148275778Y-52405900D01*
X148280930Y-52402993D01*
X148285605Y-52399301D01*
X148289853Y-52394880D01*
X148293724Y-52389786D01*
X148297270Y-52384075D01*
X148300542Y-52377803D01*
X148306465Y-52363797D01*
X148311901Y-52348217D01*
X148322937Y-52314120D01*
X148329351Y-52296496D01*
X148336905Y-52279085D01*
X148341236Y-52270599D01*
X148346005Y-52262334D01*
X148351263Y-52254345D01*
X148357059Y-52246689D01*
X148363446Y-52239421D01*
X148370473Y-52232597D01*
X148378192Y-52226273D01*
X148386654Y-52220506D01*
X148395910Y-52215350D01*
X148406009Y-52210862D01*
X148417004Y-52207097D01*
X148428945Y-52204111D01*
X148435601Y-52203312D01*
X148442876Y-52203225D01*
X148450727Y-52203799D01*
X148459114Y-52204985D01*
X148477332Y-52208993D01*
X148497199Y-52214849D01*
X148518385Y-52222156D01*
X148540560Y-52230513D01*
X148586560Y-52248783D01*
X148632559Y-52266466D01*
X148654734Y-52274090D01*
X148675919Y-52280371D01*
X148695785Y-52284909D01*
X148705120Y-52286399D01*
X148714001Y-52287305D01*
X148722388Y-52287575D01*
X148730239Y-52287160D01*
X148737513Y-52286010D01*
X148744168Y-52284075D01*
X148747521Y-52282329D01*
X148750116Y-52279917D01*
X148752016Y-52276860D01*
X148753284Y-52273179D01*
X148753984Y-52268897D01*
X148754179Y-52264034D01*
X148753306Y-52252652D01*
X148742257Y-52188205D01*
X148740136Y-52168223D01*
X148739283Y-52147035D01*
X148740204Y-52124816D01*
X148741488Y-52113372D01*
X148743405Y-52101735D01*
X148746019Y-52089926D01*
X148749392Y-52077966D01*
X148753589Y-52065877D01*
X148758672Y-52053680D01*
X148764704Y-52041397D01*
X148771749Y-52029049D01*
X148779871Y-52016657D01*
X148789131Y-52004244D01*
X148792519Y-52000287D01*
X148795972Y-51996546D01*
X148799487Y-51993016D01*
X148803061Y-51989690D01*
X148806690Y-51986564D01*
X148810372Y-51983630D01*
X148817882Y-51978319D01*
X148825566Y-51973710D01*
X148833400Y-51969756D01*
X148841358Y-51966411D01*
X148849418Y-51963626D01*
X148857553Y-51961356D01*
X148865740Y-51959553D01*
X148873954Y-51958171D01*
X148882171Y-51957163D01*
X148890366Y-51956481D01*
X148898515Y-51956079D01*
X148906594Y-51955910D01*
X148914577Y-51955927D01*
X148818068Y-52156168D01*
X148527258Y-52753291D01*
X144996388Y-52754427D01*
X144893207Y-52558698D01*
X144841334Y-52452014D01*
X144815957Y-52394903D01*
X144791193Y-52334682D01*
X144767222Y-52270905D01*
X144744224Y-52203125D01*
X144722379Y-52130894D01*
X144701867Y-52053767D01*
X144682867Y-51971295D01*
X144665561Y-51883031D01*
X144650127Y-51788529D01*
X144636746Y-51687342D01*
X144631553Y-51635014D01*
X144628198Y-51582778D01*
X144626571Y-51530737D01*
X144626561Y-51478993D01*
X144628059Y-51427650D01*
X144630955Y-51376810D01*
X144635140Y-51326577D01*
X144640505Y-51277053D01*
X144654332Y-51180545D01*
X144671560Y-51088110D01*
X144691311Y-51000570D01*
X144712707Y-50918749D01*
X144734872Y-50843471D01*
X144756929Y-50775558D01*
X144777998Y-50715835D01*
X144797205Y-50665124D01*
X144826517Y-50594033D01*
X144837848Y-50568873D01*
X144867388Y-50572393D01*
X144896106Y-50574509D01*
X144924590Y-50575303D01*
X144953428Y-50574854D01*
X144983206Y-50573244D01*
X145014513Y-50570553D01*
X145047935Y-50566862D01*
X145084061Y-50562250D01*
X145083521Y-50581691D01*
X145084142Y-50601165D01*
X145085852Y-50620656D01*
X145088580Y-50640143D01*
X145092253Y-50659611D01*
X145096800Y-50679040D01*
X145102149Y-50698413D01*
X145108229Y-50717712D01*
X145122294Y-50756015D01*
X145138420Y-50793805D01*
X145156034Y-50830938D01*
X145174563Y-50867271D01*
X145246354Y-51001713D01*
X145260852Y-51031882D01*
X145272823Y-51060387D01*
X145281694Y-51087083D01*
X145284787Y-51099708D01*
X145286890Y-51111826D01*
X145296244Y-51232802D01*
X145304458Y-51391570D01*
X145314917Y-51572930D01*
X145331005Y-51761681D01*
X145342216Y-51854077D01*
X145356103Y-51942620D01*
X145373089Y-52025410D01*
X145393596Y-52100546D01*
X145405303Y-52134651D01*
X145418049Y-52166129D01*
X145431886Y-52194744D01*
X145446868Y-52220258D01*
X145463048Y-52242434D01*
X145480479Y-52261034D01*
X145499212Y-52275820D01*
X145519302Y-52286555D01*
X145523000Y-52287393D01*
X145526603Y-52287136D01*
X145530133Y-52285845D01*
X145533612Y-52283583D01*
X145537063Y-52280411D01*
X145540506Y-52276391D01*
X145547461Y-52266054D01*
X145554650Y-52253066D01*
X145562252Y-52237921D01*
X145579391Y-52203141D01*
X145589280Y-52184493D01*
X145600282Y-52165665D01*
X145612574Y-52147153D01*
X145619259Y-52138170D01*
X145626331Y-52129450D01*
X145633814Y-52121057D01*
X145641729Y-52113051D01*
X145650098Y-52105494D01*
X145658943Y-52098449D01*
X145668286Y-52091977D01*
X145678149Y-52086140D01*
X145688554Y-52080999D01*
X145699522Y-52076617D01*
X145710861Y-52073437D01*
X145721896Y-52071798D01*
X145732629Y-52071600D01*
X145743066Y-52072742D01*
X145753209Y-52075125D01*
X145763062Y-52078649D01*
X145772629Y-52083215D01*
X145781913Y-52088722D01*
X145790919Y-52095072D01*
X145799650Y-52102163D01*
X145808109Y-52109897D01*
X145816301Y-52118174D01*
X145831896Y-52135956D01*
X145846465Y-52154712D01*
X145895069Y-52223513D01*
X145904949Y-52235167D01*
X145909569Y-52239614D01*
X145913981Y-52243007D01*
X145918187Y-52245247D01*
X145922192Y-52246234D01*
X145926000Y-52245869D01*
X145929614Y-52244051D01*
X145932131Y-52241996D01*
X145934536Y-52239146D01*
X145936850Y-52235555D01*
X145939092Y-52231279D01*
X145943441Y-52220887D01*
X145947746Y-52208405D01*
X145956869Y-52178914D01*
X145962009Y-52162776D01*
X145967749Y-52146290D01*
X145974252Y-52129892D01*
X145981679Y-52114017D01*
X145985789Y-52106412D01*
X145990191Y-52099102D01*
X145994904Y-52092139D01*
X145999949Y-52085580D01*
X146005345Y-52079478D01*
X146011114Y-52073888D01*
X146017275Y-52068865D01*
X146023848Y-52064462D01*
X146030854Y-52060735D01*
X146038313Y-52057737D01*
X146046245Y-52055523D01*
X146054669Y-52054148D01*
X146063053Y-52053860D01*
X146071315Y-52054366D01*
X146079451Y-52055610D01*
X146087455Y-52057536D01*
X146095324Y-52060088D01*
X146103053Y-52063210D01*
X146110638Y-52066847D01*
X146118072Y-52070942D01*
X146125353Y-52075440D01*
X146132476Y-52080285D01*
X146139435Y-52085422D01*
X146146227Y-52090793D01*
X146159290Y-52102018D01*
X146171626Y-52113514D01*
X146193976Y-52135533D01*
X146203916Y-52145161D01*
X146212984Y-52153274D01*
X146217179Y-52156622D01*
X146221143Y-52159424D01*
X146224870Y-52161623D01*
X146228356Y-52163165D01*
X146231596Y-52163992D01*
X146234587Y-52164049D01*
X146237322Y-52163281D01*
X146239799Y-52161631D01*
X146240603Y-52158418D01*
X146241160Y-52154439D01*
X146241658Y-52144395D01*
X146241060Y-52117466D01*
X146239998Y-52084270D01*
X146239915Y-52066392D01*
X146240462Y-52048232D01*
X146241889Y-52030219D01*
X146244445Y-52012781D01*
X146246223Y-52004411D01*
X146248378Y-51996345D01*
X146250938Y-51988637D01*
X146253937Y-51981340D01*
X146257404Y-51974509D01*
X146261372Y-51968195D01*
X146265870Y-51962454D01*
X146270931Y-51957338D01*
X146276585Y-51952902D01*
X146282863Y-51949197D01*
X146289797Y-51946279D01*
X146297418Y-51944201D01*
X146305498Y-51943110D01*
X146313772Y-51942616D01*
X146322214Y-51942673D01*
X146330799Y-51943235D01*
X146339502Y-51944253D01*
X146348296Y-51945683D01*
X146357156Y-51947477D01*
X146366056Y-51949588D01*
X146383874Y-51954577D01*
X146401546Y-51960276D01*
X146435629Y-51972309D01*
X146451629Y-51977898D01*
X146466662Y-51982703D01*
X146480522Y-51986352D01*
X146486949Y-51987626D01*
X146493005Y-51988470D01*
X146498666Y-51988839D01*
X146503905Y-51988685D01*
X146508697Y-51987962D01*
X146513017Y-51986624D01*
X146516838Y-51984622D01*
X146520135Y-51981912D01*
X146522883Y-51978446D01*
X146525055Y-51974177D01*
X146526034Y-51961584D01*
X146524339Y-51943021D01*
X146520049Y-51919193D01*
X146513245Y-51890807D01*
X146504008Y-51858570D01*
X146492418Y-51823188D01*
X146478557Y-51785368D01*
X146462504Y-51745817D01*
X146444340Y-51705240D01*
X146424146Y-51664345D01*
X146402002Y-51623837D01*
X146377990Y-51584425D01*
X146352189Y-51546814D01*
X146324680Y-51511710D01*
X146295545Y-51479821D01*
X146280392Y-51465303D01*
X146264862Y-51451853D01*
X146232509Y-51426117D01*
X146199408Y-51401288D01*
X146165809Y-51377220D01*
X146131962Y-51353767D01*
X145999066Y-51263172D01*
X145967711Y-51240597D01*
X145937602Y-51217758D01*
X145908988Y-51194509D01*
X145882118Y-51170704D01*
X145857241Y-51146197D01*
X145834606Y-51120840D01*
X145824207Y-51107798D01*
X145814462Y-51094489D01*
X145805403Y-51080894D01*
X145797059Y-51066996D01*
X145793613Y-51067981D01*
X145790022Y-51068889D01*
X145786328Y-51069743D01*
X145782571Y-51070566D01*
X145775034Y-51072201D01*
X145771336Y-51073057D01*
X145767739Y-51073969D01*
X145784908Y-51069195D01*
X145793528Y-51066826D01*
X145802103Y-51064547D01*
X145799515Y-51047302D01*
X145798727Y-51029758D01*
X145799647Y-51011892D01*
X145802185Y-50993684D01*
X145806248Y-50975111D01*
X145811747Y-50956152D01*
X145826686Y-50916992D01*
X145846271Y-50876030D01*
X145869774Y-50833094D01*
X145925614Y-50740615D01*
X145988374Y-50638179D01*
X146020526Y-50582797D01*
X146052220Y-50524409D01*
X146082727Y-50462844D01*
X146111317Y-50397930D01*
X146137262Y-50329494D01*
X146159833Y-50257365D01*
X146194884Y-50244623D01*
X146231911Y-50233531D01*
X146311232Y-50216049D01*
X146396481Y-50204417D01*
X146486343Y-50198134D01*
X146579503Y-50196698D01*
X146674644Y-50199608D01*
G36*
X146674644Y-50199608D02*
G01*
X146770452Y-50206361D01*
X146865610Y-50216457D01*
X146958805Y-50229393D01*
X147048720Y-50244669D01*
X147134039Y-50261782D01*
X147213448Y-50280231D01*
X147285632Y-50299515D01*
X147349274Y-50319131D01*
X147403059Y-50338579D01*
X147445672Y-50357356D01*
X147447486Y-50388715D01*
X147450539Y-50419104D01*
X147454766Y-50448579D01*
X147460099Y-50477196D01*
X147466474Y-50505011D01*
X147473824Y-50532080D01*
X147482083Y-50558458D01*
X147491185Y-50584201D01*
X147511655Y-50634008D01*
X147534705Y-50681947D01*
X147559808Y-50728465D01*
X147586436Y-50774008D01*
X147642155Y-50863961D01*
X147670189Y-50909264D01*
X147697636Y-50955381D01*
X147723968Y-51002758D01*
X147748657Y-51051843D01*
X147771175Y-51103083D01*
X147781455Y-51129650D01*
X147790994Y-51156924D01*
X147791800Y-51157088D01*
X147792542Y-51157218D01*
X147793239Y-51157325D01*
X147793914Y-51157421D01*
X147794588Y-51157516D01*
X147795281Y-51157624D01*
X147796016Y-51157756D01*
X147796812Y-51157923D01*
X147804080Y-51202456D01*
X147809036Y-51248131D01*
X147811926Y-51294687D01*
X147812995Y-51341865D01*
X147812491Y-51389404D01*
X147810658Y-51437044D01*
X147803993Y-51531587D01*
X147785555Y-51710436D01*
X147777719Y-51790578D01*
X147775008Y-51827418D01*
X147773430Y-51861758D01*
X147773477Y-51895861D01*
X147774508Y-51932170D01*
X147776449Y-51970076D01*
X147779228Y-52008971D01*
X147782770Y-52048248D01*
X147787001Y-52087298D01*
X147791849Y-52125513D01*
X147797239Y-52162287D01*
X147803099Y-52197011D01*
X147809354Y-52229077D01*
X147815931Y-52257877D01*
X147822756Y-52282804D01*
X147829756Y-52303250D01*
X147836857Y-52318607D01*
X147840422Y-52324187D01*
X147843986Y-52328267D01*
X147847537Y-52330770D01*
X147851068Y-52331622D01*
X147855469Y-52332428D01*
X147859769Y-52332536D01*
X147863985Y-52331993D01*
X147868134Y-52330848D01*
X147872234Y-52329148D01*
X147876301Y-52326942D01*
X147880351Y-52324277D01*
X147884403Y-52321202D01*
X147892579Y-52314014D01*
X147900962Y-52305760D01*
X147918896Y-52287595D01*
X147928719Y-52278452D01*
X147933904Y-52274034D01*
X147939293Y-52269782D01*
X147944905Y-52265744D01*
X147950755Y-52261968D01*
X147956861Y-52258502D01*
X147963239Y-52255394D01*
X147969908Y-52252693D01*
X147976883Y-52250446D01*
X147984181Y-52248701D01*
X147991821Y-52247507D01*
X147999818Y-52246911D01*
X148008189Y-52246961D01*
X148016952Y-52247706D01*
X148026124Y-52249194D01*
X148035617Y-52251334D01*
X148044873Y-52253983D01*
X148053900Y-52257109D01*
X148062710Y-52260680D01*
X148071313Y-52264662D01*
X148079720Y-52269024D01*
X148087941Y-52273732D01*
X148095986Y-52278755D01*
X148103867Y-52284060D01*
X148111594Y-52289614D01*
X148126626Y-52301340D01*
X148141167Y-52313674D01*
X148155302Y-52326355D01*
X148182688Y-52351722D01*
X148196107Y-52363887D01*
X148209456Y-52375360D01*
X148222820Y-52385882D01*
X148229533Y-52390704D01*
X148236281Y-52395192D01*
X148243075Y-52399311D01*
X148249925Y-52403030D01*
X148256842Y-52406316D01*
X148263836Y-52409136D01*
X148270097Y-52407966D01*
X148275778Y-52405900D01*
X148280930Y-52402993D01*
X148285605Y-52399301D01*
X148289853Y-52394880D01*
X148293724Y-52389786D01*
X148297270Y-52384075D01*
X148300542Y-52377803D01*
X148306465Y-52363797D01*
X148311901Y-52348217D01*
X148322937Y-52314120D01*
X148329351Y-52296496D01*
X148336905Y-52279085D01*
X148341236Y-52270599D01*
X148346005Y-52262334D01*
X148351263Y-52254345D01*
X148357059Y-52246689D01*
X148363446Y-52239421D01*
X148370473Y-52232597D01*
X148378192Y-52226273D01*
X148386654Y-52220506D01*
X148395910Y-52215350D01*
X148406009Y-52210862D01*
X148417004Y-52207097D01*
X148428945Y-52204111D01*
X148435601Y-52203312D01*
X148442876Y-52203225D01*
X148450727Y-52203799D01*
X148459114Y-52204985D01*
X148477332Y-52208993D01*
X148497199Y-52214849D01*
X148518385Y-52222156D01*
X148540560Y-52230513D01*
X148586560Y-52248783D01*
X148632559Y-52266466D01*
X148654734Y-52274090D01*
X148675919Y-52280371D01*
X148695785Y-52284909D01*
X148705120Y-52286399D01*
X148714001Y-52287305D01*
X148722388Y-52287575D01*
X148730239Y-52287160D01*
X148737513Y-52286010D01*
X148744168Y-52284075D01*
X148747521Y-52282329D01*
X148750116Y-52279917D01*
X148752016Y-52276860D01*
X148753284Y-52273179D01*
X148753984Y-52268897D01*
X148754179Y-52264034D01*
X148753306Y-52252652D01*
X148742257Y-52188205D01*
X148740136Y-52168223D01*
X148739283Y-52147035D01*
X148740204Y-52124816D01*
X148741488Y-52113372D01*
X148743405Y-52101735D01*
X148746019Y-52089926D01*
X148749392Y-52077966D01*
X148753589Y-52065877D01*
X148758672Y-52053680D01*
X148764704Y-52041397D01*
X148771749Y-52029049D01*
X148779871Y-52016657D01*
X148789131Y-52004244D01*
X148792519Y-52000287D01*
X148795972Y-51996546D01*
X148799487Y-51993016D01*
X148803061Y-51989690D01*
X148806690Y-51986564D01*
X148810372Y-51983630D01*
X148817882Y-51978319D01*
X148825566Y-51973710D01*
X148833400Y-51969756D01*
X148841358Y-51966411D01*
X148849418Y-51963626D01*
X148857553Y-51961356D01*
X148865740Y-51959553D01*
X148873954Y-51958171D01*
X148882171Y-51957163D01*
X148890366Y-51956481D01*
X148898515Y-51956079D01*
X148906594Y-51955910D01*
X148914577Y-51955927D01*
X148818068Y-52156168D01*
X148527258Y-52753291D01*
X144996388Y-52754427D01*
X144893207Y-52558698D01*
X144841334Y-52452014D01*
X144815957Y-52394903D01*
X144791193Y-52334682D01*
X144767222Y-52270905D01*
X144744224Y-52203125D01*
X144722379Y-52130894D01*
X144701867Y-52053767D01*
X144682867Y-51971295D01*
X144665561Y-51883031D01*
X144650127Y-51788529D01*
X144636746Y-51687342D01*
X144631553Y-51635014D01*
X144628198Y-51582778D01*
X144626571Y-51530737D01*
X144626561Y-51478993D01*
X144628059Y-51427650D01*
X144630955Y-51376810D01*
X144635140Y-51326577D01*
X144640505Y-51277053D01*
X144654332Y-51180545D01*
X144671560Y-51088110D01*
X144691311Y-51000570D01*
X144712707Y-50918749D01*
X144734872Y-50843471D01*
X144756929Y-50775558D01*
X144777998Y-50715835D01*
X144797205Y-50665124D01*
X144826517Y-50594033D01*
X144837848Y-50568873D01*
X144867388Y-50572393D01*
X144896106Y-50574509D01*
X144924590Y-50575303D01*
X144953428Y-50574854D01*
X144983206Y-50573244D01*
X145014513Y-50570553D01*
X145047935Y-50566862D01*
X145084061Y-50562250D01*
X145083521Y-50581691D01*
X145084142Y-50601165D01*
X145085852Y-50620656D01*
X145088580Y-50640143D01*
X145092253Y-50659611D01*
X145096800Y-50679040D01*
X145102149Y-50698413D01*
X145108229Y-50717712D01*
X145122294Y-50756015D01*
X145138420Y-50793805D01*
X145156034Y-50830938D01*
X145174563Y-50867271D01*
X145246354Y-51001713D01*
X145260852Y-51031882D01*
X145272823Y-51060387D01*
X145281694Y-51087083D01*
X145284787Y-51099708D01*
X145286890Y-51111826D01*
X145296244Y-51232802D01*
X145304458Y-51391570D01*
X145314917Y-51572930D01*
X145331005Y-51761681D01*
X145342216Y-51854077D01*
X145356103Y-51942620D01*
X145373089Y-52025410D01*
X145393596Y-52100546D01*
X145405303Y-52134651D01*
X145418049Y-52166129D01*
X145431886Y-52194744D01*
X145446868Y-52220258D01*
X145463048Y-52242434D01*
X145480479Y-52261034D01*
X145499212Y-52275820D01*
X145519302Y-52286555D01*
X145523000Y-52287393D01*
X145526603Y-52287136D01*
X145530133Y-52285845D01*
X145533612Y-52283583D01*
X145537063Y-52280411D01*
X145540506Y-52276391D01*
X145547461Y-52266054D01*
X145554650Y-52253066D01*
X145562252Y-52237921D01*
X145579391Y-52203141D01*
X145589280Y-52184493D01*
X145600282Y-52165665D01*
X145612574Y-52147153D01*
X145619259Y-52138170D01*
X145626331Y-52129450D01*
X145633814Y-52121057D01*
X145641729Y-52113051D01*
X145650098Y-52105494D01*
X145658943Y-52098449D01*
X145668286Y-52091977D01*
X145678149Y-52086140D01*
X145688554Y-52080999D01*
X145699522Y-52076617D01*
X145710861Y-52073437D01*
X145721896Y-52071798D01*
X145732629Y-52071600D01*
X145743066Y-52072742D01*
X145753209Y-52075125D01*
X145763062Y-52078649D01*
X145772629Y-52083215D01*
X145781913Y-52088722D01*
X145790919Y-52095072D01*
X145799650Y-52102163D01*
X145808109Y-52109897D01*
X145816301Y-52118174D01*
X145831896Y-52135956D01*
X145846465Y-52154712D01*
X145895069Y-52223513D01*
X145904949Y-52235167D01*
X145909569Y-52239614D01*
X145913981Y-52243007D01*
X145918187Y-52245247D01*
X145922192Y-52246234D01*
X145926000Y-52245869D01*
X145929614Y-52244051D01*
X145932131Y-52241996D01*
X145934536Y-52239146D01*
X145936850Y-52235555D01*
X145939092Y-52231279D01*
X145943441Y-52220887D01*
X145947746Y-52208405D01*
X145956869Y-52178914D01*
X145962009Y-52162776D01*
X145967749Y-52146290D01*
X145974252Y-52129892D01*
X145981679Y-52114017D01*
X145985789Y-52106412D01*
X145990191Y-52099102D01*
X145994904Y-52092139D01*
X145999949Y-52085580D01*
X146005345Y-52079478D01*
X146011114Y-52073888D01*
X146017275Y-52068865D01*
X146023848Y-52064462D01*
X146030854Y-52060735D01*
X146038313Y-52057737D01*
X146046245Y-52055523D01*
X146054669Y-52054148D01*
X146063053Y-52053860D01*
X146071315Y-52054366D01*
X146079451Y-52055610D01*
X146087455Y-52057536D01*
X146095324Y-52060088D01*
X146103053Y-52063210D01*
X146110638Y-52066847D01*
X146118072Y-52070942D01*
X146125353Y-52075440D01*
X146132476Y-52080285D01*
X146139435Y-52085422D01*
X146146227Y-52090793D01*
X146159290Y-52102018D01*
X146171626Y-52113514D01*
X146193976Y-52135533D01*
X146203916Y-52145161D01*
X146212984Y-52153274D01*
X146217179Y-52156622D01*
X146221143Y-52159424D01*
X146224870Y-52161623D01*
X146228356Y-52163165D01*
X146231596Y-52163992D01*
X146234587Y-52164049D01*
X146237322Y-52163281D01*
X146239799Y-52161631D01*
X146240603Y-52158418D01*
X146241160Y-52154439D01*
X146241658Y-52144395D01*
X146241060Y-52117466D01*
X146239998Y-52084270D01*
X146239915Y-52066392D01*
X146240462Y-52048232D01*
X146241889Y-52030219D01*
X146244445Y-52012781D01*
X146246223Y-52004411D01*
X146248378Y-51996345D01*
X146250938Y-51988637D01*
X146253937Y-51981340D01*
X146257404Y-51974509D01*
X146261372Y-51968195D01*
X146265870Y-51962454D01*
X146270931Y-51957338D01*
X146276585Y-51952902D01*
X146282863Y-51949197D01*
X146289797Y-51946279D01*
X146297418Y-51944201D01*
X146305498Y-51943110D01*
X146313772Y-51942616D01*
X146322214Y-51942673D01*
X146330799Y-51943235D01*
X146339502Y-51944253D01*
X146348296Y-51945683D01*
X146357156Y-51947477D01*
X146366056Y-51949588D01*
X146383874Y-51954577D01*
X146401546Y-51960276D01*
X146435629Y-51972309D01*
X146451629Y-51977898D01*
X146466662Y-51982703D01*
X146480522Y-51986352D01*
X146486949Y-51987626D01*
X146493005Y-51988470D01*
X146498666Y-51988839D01*
X146503905Y-51988685D01*
X146508697Y-51987962D01*
X146513017Y-51986624D01*
X146516838Y-51984622D01*
X146520135Y-51981912D01*
X146522883Y-51978446D01*
X146525055Y-51974177D01*
X146526034Y-51961584D01*
X146524339Y-51943021D01*
X146520049Y-51919193D01*
X146513245Y-51890807D01*
X146504008Y-51858570D01*
X146492418Y-51823188D01*
X146478557Y-51785368D01*
X146462504Y-51745817D01*
X146444340Y-51705240D01*
X146424146Y-51664345D01*
X146402002Y-51623837D01*
X146377990Y-51584425D01*
X146352189Y-51546814D01*
X146324680Y-51511710D01*
X146295545Y-51479821D01*
X146280392Y-51465303D01*
X146264862Y-51451853D01*
X146232509Y-51426117D01*
X146199408Y-51401288D01*
X146165809Y-51377220D01*
X146131962Y-51353767D01*
X145999066Y-51263172D01*
X145967711Y-51240597D01*
X145937602Y-51217758D01*
X145908988Y-51194509D01*
X145882118Y-51170704D01*
X145857241Y-51146197D01*
X145834606Y-51120840D01*
X145824207Y-51107798D01*
X145814462Y-51094489D01*
X145805403Y-51080894D01*
X145797059Y-51066996D01*
X145793613Y-51067981D01*
X145790022Y-51068889D01*
X145786328Y-51069743D01*
X145782571Y-51070566D01*
X145775034Y-51072201D01*
X145771336Y-51073057D01*
X145767739Y-51073969D01*
X145784908Y-51069195D01*
X145793528Y-51066826D01*
X145802103Y-51064547D01*
X145799515Y-51047302D01*
X145798727Y-51029758D01*
X145799647Y-51011892D01*
X145802185Y-50993684D01*
X145806248Y-50975111D01*
X145811747Y-50956152D01*
X145826686Y-50916992D01*
X145846271Y-50876030D01*
X145869774Y-50833094D01*
X145925614Y-50740615D01*
X145988374Y-50638179D01*
X146020526Y-50582797D01*
X146052220Y-50524409D01*
X146082727Y-50462844D01*
X146111317Y-50397930D01*
X146137262Y-50329494D01*
X146159833Y-50257365D01*
X146194884Y-50244623D01*
X146231911Y-50233531D01*
X146311232Y-50216049D01*
X146396481Y-50204417D01*
X146486343Y-50198134D01*
X146579503Y-50196698D01*
X146674644Y-50199608D01*
G37*
D10*
X150202268Y-50502524D02*
X150287377Y-50508559D01*
X150365827Y-50519328D01*
X150383805Y-50522725D01*
X150400701Y-50526360D01*
X150416549Y-50530235D01*
X150431383Y-50534354D01*
X150445234Y-50538721D01*
X150458135Y-50543338D01*
X150470121Y-50548208D01*
X150481223Y-50553335D01*
X150491475Y-50558722D01*
X150500910Y-50564372D01*
X150509561Y-50570289D01*
X150517460Y-50576475D01*
X150524641Y-50582934D01*
X150531136Y-50589668D01*
X150536980Y-50596682D01*
X150542204Y-50603979D01*
X150546841Y-50611560D01*
X150550925Y-50619431D01*
X150554489Y-50627593D01*
X150557566Y-50636051D01*
X150560188Y-50644807D01*
X150562388Y-50653864D01*
X150565657Y-50672897D01*
X150567636Y-50693174D01*
X150568588Y-50714721D01*
X150568779Y-50737564D01*
X150568471Y-50761729D01*
X150568910Y-50796165D01*
X150573035Y-50834449D01*
X150580840Y-50876034D01*
X150592316Y-50920377D01*
X150607458Y-50966930D01*
X150626257Y-51015148D01*
X150648706Y-51064487D01*
X150674798Y-51114400D01*
X150704525Y-51164343D01*
X150737880Y-51213769D01*
X150774856Y-51262134D01*
X150815445Y-51308892D01*
X150859640Y-51353497D01*
X150883088Y-51374822D01*
X150907434Y-51395404D01*
X150932679Y-51415176D01*
X150958820Y-51434068D01*
X150985857Y-51452013D01*
X151013789Y-51468943D01*
X151013790Y-51468943D01*
X151013791Y-51468944D01*
X151013791Y-51468945D01*
X151013792Y-51468945D01*
X151013793Y-51468947D01*
X151013793Y-51468948D01*
X151013794Y-51468949D01*
X151013795Y-51468949D01*
X151013795Y-51468950D01*
X151013796Y-51468950D01*
X151013796Y-51468951D01*
X151013797Y-51468951D01*
X151049111Y-51490854D01*
X151079623Y-51512485D01*
X151105471Y-51533790D01*
X151126792Y-51554716D01*
X151143725Y-51575210D01*
X151156408Y-51595219D01*
X151164977Y-51614690D01*
X151169572Y-51633570D01*
X151170330Y-51651806D01*
X151167389Y-51669344D01*
X151160886Y-51686132D01*
X151150960Y-51702117D01*
X151137749Y-51717245D01*
X151121390Y-51731463D01*
X151102022Y-51744719D01*
X151079782Y-51756958D01*
X151054808Y-51768129D01*
X151027238Y-51778178D01*
X150964861Y-51794697D01*
X150893755Y-51806092D01*
X150815023Y-51811936D01*
X150729767Y-51811807D01*
X150639091Y-51805279D01*
X150544099Y-51791927D01*
X150445892Y-51771326D01*
X150414481Y-51764130D01*
X150384030Y-51757969D01*
X150354515Y-51752796D01*
X150325914Y-51748565D01*
X150298203Y-51745226D01*
X150271359Y-51742733D01*
X150245361Y-51741038D01*
X150220184Y-51740093D01*
X150195806Y-51739851D01*
X150172204Y-51740265D01*
X150127237Y-51742866D01*
X150085099Y-51747518D01*
X150045607Y-51753839D01*
X150008577Y-51761448D01*
X149973827Y-51769965D01*
X149941173Y-51779009D01*
X149910432Y-51788200D01*
X149853957Y-51805497D01*
X149827855Y-51812843D01*
X149802934Y-51818812D01*
X149769411Y-51825049D01*
X149735522Y-51830524D01*
X149701370Y-51835063D01*
X149667055Y-51838489D01*
X149632683Y-51840627D01*
X149598354Y-51841301D01*
X149564172Y-51840334D01*
X149530239Y-51837552D01*
X149496658Y-51832779D01*
X149463531Y-51825839D01*
X149430962Y-51816556D01*
X149399051Y-51804754D01*
X149383376Y-51797853D01*
X149367904Y-51790258D01*
X149352648Y-51781944D01*
X149337620Y-51772891D01*
X149322835Y-51763077D01*
X149308305Y-51752479D01*
X149294042Y-51741076D01*
X149280059Y-51728846D01*
X149259674Y-51709790D01*
X149241168Y-51691019D01*
X149224489Y-51672496D01*
X149209582Y-51654183D01*
X149196391Y-51636045D01*
X149184863Y-51618044D01*
X149174943Y-51600142D01*
X149166576Y-51582303D01*
X149159708Y-51564490D01*
X149154285Y-51546665D01*
X149150251Y-51528792D01*
X149147553Y-51510833D01*
X149146135Y-51492751D01*
X149145944Y-51474510D01*
X149146925Y-51456072D01*
X149149023Y-51437400D01*
X149152184Y-51418458D01*
X149156353Y-51399207D01*
X149167498Y-51359634D01*
X149182021Y-51318384D01*
X149199488Y-51275161D01*
X149241505Y-51181610D01*
X149290059Y-51076609D01*
X149291818Y-51071739D01*
X149292899Y-51066966D01*
X149293344Y-51062285D01*
X149293192Y-51057690D01*
X149292485Y-51053175D01*
X149291264Y-51048735D01*
X149289569Y-51044365D01*
X149287441Y-51040059D01*
X149284921Y-51035811D01*
X149282050Y-51031617D01*
X149278868Y-51027470D01*
X149275416Y-51023365D01*
X149267866Y-51015260D01*
X149259726Y-51007258D01*
X149242981Y-50991385D01*
X149235028Y-50983427D01*
X149227789Y-50975395D01*
X149224540Y-50971338D01*
X149221591Y-50967247D01*
X149218985Y-50963115D01*
X149216761Y-50958938D01*
X149214960Y-50954709D01*
X149213623Y-50950423D01*
X149212791Y-50946076D01*
X149212505Y-50941660D01*
X149215125Y-50908369D01*
X149221912Y-50876434D01*
X149232665Y-50845848D01*
X149247183Y-50816607D01*
X149265265Y-50788703D01*
X149286710Y-50762132D01*
X149311317Y-50736887D01*
X149338885Y-50712962D01*
X149369211Y-50690351D01*
X149402097Y-50669048D01*
X149474738Y-50630343D01*
X149555200Y-50596800D01*
X149641874Y-50568371D01*
X149733151Y-50545009D01*
X149827421Y-50526665D01*
X149923077Y-50513292D01*
X150018510Y-50504842D01*
X150112110Y-50501269D01*
X150202268Y-50502524D01*
X147850090Y-51162892D02*
X147906698Y-51171683D01*
X147960198Y-51179243D01*
X147986213Y-51182187D01*
X148011968Y-51184372D01*
X148037635Y-51185650D01*
X148063387Y-51185870D01*
X148089394Y-51184882D01*
X148115831Y-51182536D01*
X148142869Y-51178682D01*
X148170679Y-51173170D01*
X148199436Y-51165851D01*
X148229310Y-51156573D01*
X148270671Y-51200776D01*
X148321319Y-51250265D01*
X148443291Y-51361177D01*
X148719660Y-51603267D01*
X148845326Y-51718748D01*
X148898744Y-51771664D01*
X148943491Y-51820056D01*
X148977772Y-51862942D01*
X148990427Y-51882013D01*
X148999791Y-51899341D01*
X149005641Y-51914802D01*
X149007752Y-51928273D01*
X149005900Y-51939632D01*
X148999860Y-51948756D01*
X148996573Y-51951538D01*
X148992825Y-51953821D01*
X148988641Y-51955650D01*
X148984043Y-51957067D01*
X148979055Y-51958117D01*
X148973699Y-51958842D01*
X148961981Y-51959493D01*
X148905105Y-51957815D01*
X148889319Y-51958063D01*
X148873280Y-51959274D01*
X148865225Y-51960350D01*
X148857176Y-51961796D01*
X148849157Y-51963657D01*
X148841192Y-51965976D01*
X148833304Y-51968797D01*
X148825516Y-51972163D01*
X148817852Y-51976117D01*
X148810335Y-51980703D01*
X148802988Y-51985964D01*
X148795835Y-51991944D01*
X148788900Y-51998687D01*
X148782204Y-52006235D01*
X148772944Y-52018649D01*
X148764823Y-52031040D01*
X148757777Y-52043389D01*
X148751743Y-52055673D01*
X148746659Y-52067872D01*
X148742461Y-52079962D01*
X148739085Y-52091924D01*
X148736469Y-52103735D01*
X148734549Y-52115374D01*
X148733263Y-52126819D01*
X148732336Y-52149044D01*
X148733183Y-52170236D01*
X148735297Y-52190223D01*
X148746321Y-52254688D01*
X148747189Y-52266073D01*
X148746992Y-52270938D01*
X148746291Y-52275222D01*
X148745021Y-52278903D01*
X148743120Y-52281961D01*
X148740525Y-52284374D01*
X148737172Y-52286120D01*
X148730516Y-52288055D01*
X148723242Y-52289205D01*
X148715391Y-52289620D01*
X148707004Y-52289349D01*
X148698122Y-52288444D01*
X148688787Y-52286953D01*
X148668921Y-52282416D01*
X148647735Y-52276135D01*
X148625560Y-52268511D01*
X148579560Y-52250827D01*
X148533561Y-52232558D01*
X148511386Y-52224201D01*
X148490200Y-52216894D01*
X148470333Y-52211037D01*
X148452116Y-52207030D01*
X148443728Y-52205844D01*
X148435877Y-52205269D01*
X148428603Y-52205357D01*
X148421947Y-52206156D01*
X148410006Y-52209141D01*
X148399012Y-52212905D01*
X148388912Y-52217392D01*
X148379656Y-52222546D01*
X148371194Y-52228311D01*
X148363475Y-52234632D01*
X148356447Y-52241452D01*
X148350060Y-52248717D01*
X148344263Y-52256369D01*
X148339005Y-52264354D01*
X148334236Y-52272614D01*
X148329904Y-52281096D01*
X148322349Y-52298497D01*
X148315934Y-52316111D01*
X148304896Y-52350189D01*
X148299459Y-52365760D01*
X148293535Y-52379757D01*
X148290264Y-52386026D01*
X148286717Y-52391734D01*
X148282846Y-52396825D01*
X148278598Y-52401243D01*
X148273924Y-52404933D01*
X148268771Y-52407839D01*
X148263090Y-52409904D01*
X148256830Y-52411074D01*
X148249836Y-52408253D01*
X148242920Y-52404967D01*
X148236070Y-52401249D01*
X148229277Y-52397129D01*
X148222529Y-52392642D01*
X148215817Y-52387820D01*
X148202456Y-52377298D01*
X148189110Y-52365825D01*
X148175694Y-52353660D01*
X148148316Y-52328294D01*
X148134186Y-52315613D01*
X148119648Y-52303280D01*
X148104620Y-52291554D01*
X148096895Y-52286000D01*
X148089016Y-52280696D01*
X148080972Y-52275674D01*
X148072752Y-52270966D01*
X148064347Y-52266605D01*
X148055744Y-52262623D01*
X148046935Y-52259053D01*
X148037909Y-52255927D01*
X148028654Y-52253278D01*
X148019160Y-52251139D01*
X148009988Y-52249652D01*
X148001225Y-52248907D01*
X147992852Y-52248857D01*
X147984854Y-52249454D01*
X147977213Y-52250649D01*
X147969912Y-52252395D01*
X147962935Y-52254643D01*
X147956264Y-52257346D01*
X147949883Y-52260455D01*
X147943774Y-52263922D01*
X147937921Y-52267700D01*
X147932307Y-52271739D01*
X147926914Y-52275993D01*
X147921726Y-52280413D01*
X147911897Y-52289560D01*
X147893949Y-52307732D01*
X147885560Y-52315988D01*
X147877380Y-52323180D01*
X147873325Y-52326256D01*
X147869273Y-52328922D01*
X147865204Y-52331129D01*
X147861103Y-52332830D01*
X147856953Y-52333975D01*
X147852736Y-52334519D01*
X147848436Y-52334411D01*
X147844035Y-52333605D01*
X147844027Y-52333598D01*
X147840496Y-52332746D01*
X147836945Y-52330243D01*
X147833383Y-52326164D01*
X147829818Y-52320585D01*
X147822721Y-52305231D01*
X147815727Y-52284789D01*
X147808908Y-52259866D01*
X147802339Y-52231070D01*
X147796092Y-52199009D01*
X147790240Y-52164290D01*
X147784858Y-52127521D01*
X147780018Y-52089310D01*
X147775794Y-52050265D01*
X147772259Y-52010992D01*
X147769486Y-51972101D01*
X147767548Y-51934197D01*
X147766519Y-51897890D01*
X147766473Y-51863787D01*
X147768072Y-51829158D01*
X147770825Y-51791985D01*
X147778785Y-51711075D01*
X147797432Y-51530484D01*
X147804074Y-51435078D01*
X147805839Y-51387032D01*
X147806231Y-51339115D01*
X147804995Y-51291593D01*
X147801880Y-51244733D01*
X147796631Y-51198803D01*
X147788997Y-51154070D01*
X147850090Y-51162892D01*
D11*
X150282161Y-49128115D02*
X150229768Y-49076878D01*
X150175208Y-49028802D01*
X150118657Y-48983893D01*
X150060293Y-48942155D01*
X150000294Y-48903594D01*
X149938836Y-48868214D01*
X149876099Y-48836020D01*
X149812258Y-48807016D01*
X149747492Y-48781208D01*
X149681978Y-48758600D01*
X149615893Y-48739196D01*
X149549415Y-48723002D01*
X149482722Y-48710023D01*
X149415991Y-48700262D01*
X149349400Y-48693725D01*
X149283125Y-48690417D01*
X149283125Y-48690425D01*
X149242259Y-48671066D01*
X149203111Y-48651084D01*
X149165577Y-48630503D01*
X149129553Y-48609346D01*
X149061619Y-48565401D01*
X148998476Y-48519436D01*
X148939291Y-48471639D01*
X148883230Y-48422199D01*
X148829461Y-48371305D01*
X148777150Y-48319143D01*
X148565835Y-48101597D01*
X148508323Y-48045927D01*
X148447271Y-47990120D01*
X148381847Y-47934364D01*
X148311218Y-47878848D01*
X150890905Y-47874576D01*
X150282161Y-49128115D01*
G36*
X150282161Y-49128115D02*
G01*
X150229768Y-49076878D01*
X150175208Y-49028802D01*
X150118657Y-48983893D01*
X150060293Y-48942155D01*
X150000294Y-48903594D01*
X149938836Y-48868214D01*
X149876099Y-48836020D01*
X149812258Y-48807016D01*
X149747492Y-48781208D01*
X149681978Y-48758600D01*
X149615893Y-48739196D01*
X149549415Y-48723002D01*
X149482722Y-48710023D01*
X149415991Y-48700262D01*
X149349400Y-48693725D01*
X149283125Y-48690417D01*
X149283125Y-48690425D01*
X149242259Y-48671066D01*
X149203111Y-48651084D01*
X149165577Y-48630503D01*
X149129553Y-48609346D01*
X149061619Y-48565401D01*
X148998476Y-48519436D01*
X148939291Y-48471639D01*
X148883230Y-48422199D01*
X148829461Y-48371305D01*
X148777150Y-48319143D01*
X148565835Y-48101597D01*
X148508323Y-48045927D01*
X148447271Y-47990120D01*
X148381847Y-47934364D01*
X148311218Y-47878848D01*
X150890905Y-47874576D01*
X150282161Y-49128115D01*
G37*
D10*
X145798404Y-51083001D02*
X145807464Y-51096596D01*
X145827607Y-51122947D01*
X145850243Y-51148303D01*
X145875122Y-51172809D01*
X145901994Y-51196613D01*
X145930611Y-51219860D01*
X145960723Y-51242697D01*
X145992081Y-51265271D01*
X146124988Y-51355858D01*
X146192439Y-51403378D01*
X146225542Y-51428207D01*
X146257896Y-51453944D01*
X146273426Y-51467393D01*
X146288578Y-51481910D01*
X146303344Y-51497408D01*
X146317714Y-51513797D01*
X146345222Y-51548899D01*
X146371022Y-51586507D01*
X146395034Y-51625917D01*
X146417177Y-51666422D01*
X146437370Y-51707315D01*
X146455533Y-51747889D01*
X146471586Y-51787438D01*
X146485447Y-51825256D01*
X146497036Y-51860636D01*
X146506272Y-51892871D01*
X146513076Y-51921255D01*
X146517366Y-51945082D01*
X146519061Y-51963645D01*
X146518911Y-51970731D01*
X146518082Y-51976237D01*
X146515909Y-51980505D01*
X146513161Y-51983972D01*
X146509863Y-51986682D01*
X146506042Y-51988683D01*
X146501722Y-51990021D01*
X146496929Y-51990743D01*
X146491689Y-51990896D01*
X146486027Y-51990527D01*
X146473543Y-51988407D01*
X146459680Y-51984756D01*
X146444645Y-51979949D01*
X146428643Y-51974359D01*
X146394556Y-51962322D01*
X146376882Y-51956622D01*
X146359062Y-51951632D01*
X146341300Y-51947726D01*
X146323803Y-51945278D01*
X146315217Y-51944717D01*
X146306774Y-51944660D01*
X146298500Y-51945154D01*
X146290420Y-51946246D01*
X146282799Y-51948323D01*
X146275866Y-51951241D01*
X146269588Y-51954944D01*
X146263936Y-51959380D01*
X146258877Y-51964495D01*
X146254380Y-51970236D01*
X146250415Y-51976548D01*
X146246950Y-51983379D01*
X146243954Y-51990675D01*
X146241396Y-51998383D01*
X146239245Y-52006448D01*
X146237470Y-52014817D01*
X146234921Y-52032254D01*
X146233501Y-52050267D01*
X146232960Y-52068425D01*
X146233050Y-52086302D01*
X146234125Y-52119497D01*
X146234732Y-52146425D01*
X146234237Y-52156469D01*
X146232877Y-52163660D01*
X146230400Y-52165310D01*
X146227664Y-52166078D01*
X146224674Y-52166020D01*
X146221433Y-52165193D01*
X146217947Y-52163652D01*
X146214220Y-52161453D01*
X146206061Y-52155305D01*
X146196993Y-52147194D01*
X146187053Y-52137568D01*
X146164703Y-52115556D01*
X146152367Y-52104063D01*
X146139305Y-52092841D01*
X146125554Y-52082337D01*
X146118431Y-52077493D01*
X146111150Y-52072996D01*
X146103715Y-52068902D01*
X146096131Y-52065267D01*
X146088402Y-52062145D01*
X146080533Y-52059594D01*
X146072528Y-52057669D01*
X146064393Y-52056426D01*
X146056131Y-52055920D01*
X146047747Y-52056208D01*
X146039322Y-52057583D01*
X146031390Y-52059797D01*
X146023930Y-52062795D01*
X146016924Y-52066523D01*
X146010349Y-52070926D01*
X146004187Y-52075950D01*
X145998417Y-52081540D01*
X145993020Y-52087642D01*
X145987974Y-52094202D01*
X145983259Y-52101165D01*
X145978856Y-52108477D01*
X145974745Y-52116083D01*
X145967315Y-52131959D01*
X145960809Y-52148359D01*
X145955065Y-52164846D01*
X145949923Y-52180986D01*
X145940795Y-52210481D01*
X145936488Y-52222965D01*
X145932137Y-52233359D01*
X145929894Y-52237636D01*
X145927580Y-52241227D01*
X145925174Y-52244078D01*
X145922657Y-52246134D01*
X145919043Y-52247952D01*
X145915235Y-52248317D01*
X145911229Y-52247330D01*
X145907021Y-52245090D01*
X145902608Y-52241696D01*
X145897986Y-52237250D01*
X145888101Y-52225595D01*
X145839472Y-52156795D01*
X145824897Y-52138039D01*
X145809295Y-52120257D01*
X145801100Y-52111980D01*
X145792637Y-52104246D01*
X145783904Y-52097155D01*
X145774895Y-52090805D01*
X145765608Y-52085298D01*
X145756039Y-52080732D01*
X145746184Y-52077208D01*
X145736039Y-52074825D01*
X145725602Y-52073683D01*
X145714867Y-52073881D01*
X145703832Y-52075520D01*
X145692493Y-52078699D01*
X145681524Y-52083082D01*
X145671120Y-52088222D01*
X145661258Y-52094059D01*
X145651917Y-52100531D01*
X145643074Y-52107576D01*
X145634708Y-52115131D01*
X145626796Y-52123137D01*
X145619316Y-52131529D01*
X145612247Y-52140248D01*
X145605566Y-52149231D01*
X145593282Y-52167741D01*
X145582287Y-52186566D01*
X145572407Y-52205212D01*
X145555286Y-52239989D01*
X145547692Y-52255131D01*
X145540510Y-52268117D01*
X145537017Y-52273647D01*
X145533561Y-52278453D01*
X145530120Y-52282472D01*
X145526672Y-52285644D01*
X145523194Y-52287905D01*
X145519665Y-52289196D01*
X145516063Y-52289453D01*
X145512365Y-52288615D01*
X145492192Y-52277819D01*
X145473388Y-52262930D01*
X145455898Y-52244189D01*
X145439669Y-52221838D01*
X145424648Y-52196117D01*
X145410781Y-52167268D01*
X145386295Y-52101148D01*
X145365782Y-52025409D01*
X145348812Y-51941979D01*
X145334958Y-51852787D01*
X145323790Y-51759762D01*
X145307798Y-51569932D01*
X145297405Y-51387920D01*
X145289182Y-51229161D01*
X145279698Y-51109087D01*
X145316981Y-51111548D01*
X145353753Y-51113314D01*
X145389968Y-51114391D01*
X145425582Y-51114787D01*
X145460550Y-51114510D01*
X145494830Y-51113567D01*
X145528377Y-51111965D01*
X145561147Y-51109711D01*
X145593097Y-51106813D01*
X145624181Y-51103278D01*
X145654356Y-51099114D01*
X145683579Y-51094327D01*
X145711805Y-51088925D01*
X145738990Y-51082915D01*
X145765090Y-51076305D01*
X145790061Y-51069102D01*
X145798404Y-51083001D01*
X146376105Y-47267391D02*
X146502010Y-47273690D01*
X146633749Y-47285133D01*
X146770355Y-47301868D01*
X146910861Y-47324047D01*
X147054298Y-47351820D01*
X147199700Y-47385335D01*
X147346098Y-47424745D01*
X147492526Y-47470198D01*
X147638016Y-47521845D01*
X147781600Y-47579836D01*
X147922311Y-47644320D01*
X148059181Y-47715449D01*
X148115341Y-47747722D01*
X148168548Y-47780319D01*
X148218987Y-47813198D01*
X148266843Y-47846319D01*
X148355545Y-47913118D01*
X148436129Y-47980382D01*
X148510073Y-48047777D01*
X148578853Y-48114971D01*
X148706830Y-48247423D01*
X148768981Y-48312015D01*
X148831876Y-48375072D01*
X148896991Y-48436263D01*
X148965804Y-48495254D01*
X149039792Y-48551712D01*
X149079188Y-48578887D01*
X149120431Y-48605304D01*
X149163706Y-48630920D01*
X149209198Y-48655696D01*
X149257092Y-48679588D01*
X149307571Y-48702556D01*
X149252050Y-48695415D01*
X149198064Y-48691705D01*
X149145610Y-48691280D01*
X149094685Y-48693999D01*
X149045284Y-48699718D01*
X148997404Y-48708293D01*
X148951041Y-48719582D01*
X148906191Y-48733441D01*
X148862852Y-48749727D01*
X148821019Y-48768297D01*
X148780688Y-48789007D01*
X148741856Y-48811715D01*
X148704519Y-48836277D01*
X148668674Y-48862549D01*
X148634316Y-48890390D01*
X148601443Y-48919655D01*
X148540135Y-48981885D01*
X148484719Y-49048094D01*
X148435167Y-49117137D01*
X148391450Y-49187867D01*
X148353537Y-49259139D01*
X148321399Y-49329807D01*
X148295008Y-49398725D01*
X148274334Y-49464747D01*
X148255990Y-49534318D01*
X148240516Y-49604295D01*
X148228142Y-49674617D01*
X148219099Y-49745220D01*
X148213618Y-49816043D01*
X148211931Y-49887024D01*
X148214267Y-49958099D01*
X148220858Y-50029208D01*
X148231935Y-50100287D01*
X148247728Y-50171275D01*
X148268468Y-50242109D01*
X148294387Y-50312726D01*
X148325716Y-50383066D01*
X148362684Y-50453065D01*
X148405523Y-50522661D01*
X148454464Y-50591792D01*
X148436796Y-50631331D01*
X148418666Y-50667854D01*
X148400317Y-50701917D01*
X148381989Y-50734077D01*
X148346368Y-50794912D01*
X148329558Y-50824700D01*
X148313737Y-50854810D01*
X148299148Y-50885799D01*
X148286032Y-50918223D01*
X148280102Y-50935146D01*
X148274631Y-50952638D01*
X148269649Y-50970766D01*
X148265187Y-50989601D01*
X148261275Y-51009211D01*
X148257942Y-51029668D01*
X148255220Y-51051039D01*
X148253138Y-51073396D01*
X148251726Y-51096806D01*
X148251016Y-51121341D01*
X148251036Y-51147069D01*
X148251818Y-51174059D01*
X148191081Y-51179978D01*
X148136501Y-51184372D01*
X148085322Y-51186892D01*
X148060146Y-51187339D01*
X148034787Y-51187185D01*
X148008901Y-51186386D01*
X147982142Y-51184899D01*
X147954167Y-51182680D01*
X147924630Y-51179684D01*
X147893188Y-51175868D01*
X147859496Y-51171188D01*
X147783983Y-51159060D01*
X147774444Y-51131786D01*
X147764164Y-51105218D01*
X147741648Y-51053974D01*
X147716962Y-51004884D01*
X147690635Y-50957499D01*
X147663193Y-50911374D01*
X147635165Y-50866061D01*
X147579462Y-50776088D01*
X147552841Y-50730534D01*
X147527745Y-50684007D01*
X147504702Y-50636059D01*
X147484238Y-50586244D01*
X147475139Y-50560497D01*
X147466882Y-50534116D01*
X147459534Y-50507045D01*
X147453162Y-50479228D01*
X147447829Y-50450609D01*
X147443604Y-50421133D01*
X147440552Y-50390744D01*
X147438738Y-50359385D01*
X147396124Y-50340608D01*
X147342336Y-50321162D01*
X147278690Y-50301547D01*
X147206501Y-50282265D01*
X147127086Y-50263819D01*
X147041759Y-50246708D01*
X146951837Y-50231435D01*
X146858635Y-50218502D01*
X146763469Y-50208409D01*
X146667654Y-50201658D01*
X146572506Y-50198751D01*
X146479341Y-50200190D01*
X146389474Y-50206475D01*
X146304220Y-50218108D01*
X146224896Y-50235591D01*
X146187869Y-50246683D01*
X146152818Y-50259425D01*
X146152820Y-50259432D01*
X146130249Y-50331561D01*
X146104304Y-50399997D01*
X146075712Y-50464910D01*
X146045204Y-50526474D01*
X146013509Y-50584861D01*
X145981356Y-50640242D01*
X145918591Y-50742676D01*
X145862746Y-50835153D01*
X145839241Y-50878088D01*
X145819654Y-50919050D01*
X145804713Y-50958210D01*
X145799213Y-50977169D01*
X145795149Y-50995742D01*
X145792610Y-51013951D01*
X145791690Y-51031817D01*
X145792477Y-51049362D01*
X145795065Y-51066607D01*
X145693118Y-51094565D01*
X145639388Y-51108075D01*
X145611168Y-51114200D01*
X145581789Y-51119710D01*
X145551061Y-51124459D01*
X145518794Y-51128300D01*
X145484798Y-51131086D01*
X145448881Y-51132672D01*
X145410854Y-51132910D01*
X145370525Y-51131655D01*
X145327704Y-51128760D01*
X145282200Y-51124079D01*
X145280916Y-51112083D01*
X145278523Y-51099536D01*
X145275098Y-51086457D01*
X145270719Y-51072865D01*
X145259411Y-51044225D01*
X145245223Y-51013773D01*
X145228777Y-50981667D01*
X145210696Y-50948063D01*
X145172123Y-50876993D01*
X145152877Y-50839841D01*
X145134488Y-50801822D01*
X145117580Y-50763093D01*
X145102775Y-50723811D01*
X145096357Y-50704012D01*
X145090697Y-50684133D01*
X145085875Y-50664196D01*
X145081969Y-50644218D01*
X145079055Y-50624220D01*
X145077213Y-50604222D01*
X145076519Y-50584243D01*
X145077052Y-50564303D01*
X145039675Y-50568923D01*
X145004252Y-50572449D01*
X144970448Y-50574840D01*
X144937930Y-50576057D01*
X144906366Y-50576058D01*
X144875420Y-50574803D01*
X144844760Y-50572253D01*
X144814053Y-50568366D01*
X144782964Y-50563104D01*
X144751161Y-50556424D01*
X144718310Y-50548287D01*
X144684077Y-50538653D01*
X144648129Y-50527482D01*
X144610133Y-50514733D01*
X144569754Y-50500365D01*
X144526660Y-50484339D01*
X144496337Y-50471277D01*
X144465496Y-50455572D01*
X144434264Y-50437302D01*
X144402768Y-50416550D01*
X144371134Y-50393394D01*
X144339490Y-50367916D01*
X144307962Y-50340194D01*
X144276677Y-50310309D01*
X144245763Y-50278341D01*
X144215345Y-50244370D01*
X144185552Y-50208477D01*
X144156509Y-50170741D01*
X144128344Y-50131242D01*
X144101183Y-50090061D01*
X144075154Y-50047277D01*
X144050383Y-50002971D01*
X144026998Y-49957223D01*
X144005125Y-49910112D01*
X143984890Y-49861720D01*
X143966422Y-49812125D01*
X143949847Y-49761408D01*
X143935291Y-49709650D01*
X143922882Y-49656929D01*
X143912746Y-49603327D01*
X143905011Y-49548923D01*
X143899803Y-49493798D01*
X143897249Y-49438031D01*
X143897477Y-49381703D01*
X143900612Y-49324893D01*
X143906782Y-49267682D01*
X143916114Y-49210150D01*
X143928735Y-49152377D01*
X143965014Y-49017970D01*
X144008821Y-48879888D01*
X144061116Y-48739434D01*
X144122858Y-48597911D01*
X144195008Y-48456622D01*
X144278525Y-48316871D01*
X144374371Y-48179961D01*
X144427217Y-48112978D01*
X144483505Y-48047194D01*
X144543356Y-47982772D01*
X144606888Y-47919875D01*
X144674223Y-47858665D01*
X144745479Y-47799306D01*
X144820778Y-47741960D01*
X144900239Y-47686790D01*
X144983983Y-47633959D01*
X145072128Y-47583630D01*
X145164796Y-47535967D01*
X145262106Y-47491131D01*
X145364179Y-47449286D01*
X145471133Y-47410594D01*
X145583091Y-47375219D01*
X145700170Y-47343323D01*
X145822492Y-47315070D01*
X145950176Y-47290622D01*
X146043069Y-47277850D01*
X146145667Y-47269621D01*
X146257001Y-47266084D01*
X146376105Y-47267391D01*
D11*
X148250292Y-51180464D02*
X148250170Y-51180483D01*
X148250178Y-51180346D01*
X148250292Y-51180464D01*
G36*
X148250292Y-51180464D02*
G01*
X148250170Y-51180483D01*
X148250178Y-51180346D01*
X148250292Y-51180464D01*
G37*
X148502935Y-50625366D02*
X148537877Y-50662589D01*
X148575163Y-50698960D01*
X148614841Y-50734431D01*
X148656958Y-50768950D01*
X148701564Y-50802469D01*
X148748705Y-50834937D01*
X148798431Y-50866303D01*
X148850790Y-50896518D01*
X148905830Y-50925531D01*
X148963599Y-50953293D01*
X149024145Y-50979753D01*
X149087517Y-51004861D01*
X149153763Y-51028567D01*
X149222931Y-51050822D01*
X149295069Y-51071574D01*
X149294619Y-51076932D01*
X149294539Y-51077605D01*
X149294441Y-51078280D01*
X149294321Y-51078958D01*
X149294176Y-51079641D01*
X149294003Y-51080328D01*
X149293796Y-51081020D01*
X149293553Y-51081718D01*
X149293269Y-51082423D01*
X149241418Y-51195129D01*
X149218349Y-51246352D01*
X149197854Y-51294663D01*
X149188730Y-51317845D01*
X149180437Y-51340441D01*
X149173040Y-51362499D01*
X149166600Y-51384066D01*
X149161181Y-51405190D01*
X149156846Y-51425919D01*
X149153657Y-51446299D01*
X149151677Y-51466380D01*
X148991611Y-51796076D01*
X148965767Y-51849818D01*
X148936992Y-51815768D01*
X148902460Y-51778695D01*
X148862949Y-51739024D01*
X148819237Y-51697181D01*
X148722322Y-51608677D01*
X148617938Y-51516584D01*
X148411656Y-51335236D01*
X148322205Y-51252783D01*
X148283625Y-51215100D01*
X148250292Y-51180464D01*
X148250810Y-51180384D01*
X148251411Y-51180305D01*
X148251986Y-51180241D01*
X148252550Y-51180189D01*
X148253695Y-51180094D01*
X148254303Y-51180042D01*
X148254953Y-51179980D01*
X148254208Y-51152961D01*
X148254295Y-51127150D01*
X148255179Y-51102483D01*
X148256825Y-51078892D01*
X148259198Y-51056313D01*
X148262263Y-51034678D01*
X148265985Y-51013922D01*
X148270330Y-50993980D01*
X148275262Y-50974784D01*
X148280746Y-50956270D01*
X148286748Y-50938371D01*
X148293233Y-50921022D01*
X148307509Y-50887707D01*
X148323296Y-50855798D01*
X148340315Y-50824768D01*
X148358285Y-50794089D01*
X148395964Y-50731674D01*
X148415112Y-50698883D01*
X148434095Y-50664334D01*
X148452632Y-50627497D01*
X148470444Y-50587847D01*
X148470287Y-50587344D01*
X148502935Y-50625366D01*
G36*
X148502935Y-50625366D02*
G01*
X148537877Y-50662589D01*
X148575163Y-50698960D01*
X148614841Y-50734431D01*
X148656958Y-50768950D01*
X148701564Y-50802469D01*
X148748705Y-50834937D01*
X148798431Y-50866303D01*
X148850790Y-50896518D01*
X148905830Y-50925531D01*
X148963599Y-50953293D01*
X149024145Y-50979753D01*
X149087517Y-51004861D01*
X149153763Y-51028567D01*
X149222931Y-51050822D01*
X149295069Y-51071574D01*
X149294619Y-51076932D01*
X149294539Y-51077605D01*
X149294441Y-51078280D01*
X149294321Y-51078958D01*
X149294176Y-51079641D01*
X149294003Y-51080328D01*
X149293796Y-51081020D01*
X149293553Y-51081718D01*
X149293269Y-51082423D01*
X149241418Y-51195129D01*
X149218349Y-51246352D01*
X149197854Y-51294663D01*
X149188730Y-51317845D01*
X149180437Y-51340441D01*
X149173040Y-51362499D01*
X149166600Y-51384066D01*
X149161181Y-51405190D01*
X149156846Y-51425919D01*
X149153657Y-51446299D01*
X149151677Y-51466380D01*
X148991611Y-51796076D01*
X148965767Y-51849818D01*
X148936992Y-51815768D01*
X148902460Y-51778695D01*
X148862949Y-51739024D01*
X148819237Y-51697181D01*
X148722322Y-51608677D01*
X148617938Y-51516584D01*
X148411656Y-51335236D01*
X148322205Y-51252783D01*
X148283625Y-51215100D01*
X148250292Y-51180464D01*
X148250810Y-51180384D01*
X148251411Y-51180305D01*
X148251986Y-51180241D01*
X148252550Y-51180189D01*
X148253695Y-51180094D01*
X148254303Y-51180042D01*
X148254953Y-51179980D01*
X148254208Y-51152961D01*
X148254295Y-51127150D01*
X148255179Y-51102483D01*
X148256825Y-51078892D01*
X148259198Y-51056313D01*
X148262263Y-51034678D01*
X148265985Y-51013922D01*
X148270330Y-50993980D01*
X148275262Y-50974784D01*
X148280746Y-50956270D01*
X148286748Y-50938371D01*
X148293233Y-50921022D01*
X148307509Y-50887707D01*
X148323296Y-50855798D01*
X148340315Y-50824768D01*
X148358285Y-50794089D01*
X148395964Y-50731674D01*
X148415112Y-50698883D01*
X148434095Y-50664334D01*
X148452632Y-50627497D01*
X148470444Y-50587847D01*
X148470287Y-50587344D01*
X148502935Y-50625366D01*
G37*
D10*
X149283319Y-50016021D02*
X149288312Y-50016534D01*
X149293455Y-50017313D01*
X149298741Y-50018358D01*
X149304161Y-50019671D01*
X149309706Y-50021251D01*
X149315367Y-50023101D01*
X149321136Y-50025220D01*
X149327004Y-50027611D01*
X149332962Y-50030273D01*
X149339001Y-50033208D01*
X149345113Y-50036416D01*
X149351290Y-50039899D01*
X149357522Y-50043658D01*
X149363800Y-50047692D01*
X149370116Y-50052004D01*
X149370116Y-50052012D01*
X149382510Y-50060754D01*
X149394328Y-50070057D01*
X149405523Y-50079835D01*
X149416048Y-50090005D01*
X149425854Y-50100483D01*
X149434894Y-50111183D01*
X149443121Y-50122023D01*
X149450486Y-50132918D01*
X149456943Y-50143783D01*
X149462443Y-50154535D01*
X149466939Y-50165089D01*
X149470383Y-50175362D01*
X149471696Y-50180366D01*
X149472728Y-50185268D01*
X149473473Y-50190057D01*
X149473925Y-50194723D01*
X149474079Y-50199256D01*
X149473928Y-50203645D01*
X149473467Y-50207878D01*
X149472689Y-50211947D01*
X149471599Y-50216032D01*
X149470210Y-50219854D01*
X149468530Y-50223410D01*
X149466568Y-50226702D01*
X149464334Y-50229729D01*
X149461835Y-50232489D01*
X149459080Y-50234983D01*
X149456079Y-50237211D01*
X149452839Y-50239171D01*
X149449369Y-50240864D01*
X149445679Y-50242288D01*
X149441777Y-50243444D01*
X149437671Y-50244330D01*
X149433371Y-50244948D01*
X149428884Y-50245295D01*
X149424220Y-50245371D01*
X149419388Y-50245177D01*
X149414395Y-50244712D01*
X149409252Y-50243974D01*
X149403966Y-50242965D01*
X149398546Y-50241682D01*
X149393001Y-50240127D01*
X149387340Y-50238298D01*
X149381571Y-50236194D01*
X149375703Y-50233816D01*
X149369745Y-50231163D01*
X149363706Y-50228235D01*
X149357593Y-50225031D01*
X149351417Y-50221550D01*
X149345185Y-50217792D01*
X149338906Y-50213757D01*
X149332589Y-50209445D01*
X149320196Y-50200702D01*
X149308378Y-50191395D01*
X149297183Y-50181605D01*
X149286658Y-50171412D01*
X149276852Y-50160898D01*
X149267812Y-50150141D01*
X149259585Y-50139224D01*
X149252220Y-50128226D01*
X149245763Y-50117228D01*
X149240263Y-50106311D01*
X149235767Y-50095554D01*
X149232323Y-50085039D01*
X149231010Y-50079898D01*
X149229978Y-50074847D01*
X149229233Y-50069897D01*
X149228781Y-50065057D01*
X149228627Y-50060338D01*
X149228778Y-50055750D01*
X149229239Y-50051303D01*
X149230017Y-50047007D01*
X149231107Y-50043149D01*
X149232496Y-50039541D01*
X149234176Y-50036184D01*
X149236138Y-50033078D01*
X149238372Y-50030225D01*
X149240871Y-50027625D01*
X149243626Y-50025280D01*
X149246628Y-50023190D01*
X149249868Y-50021356D01*
X149253337Y-50019780D01*
X149257027Y-50018461D01*
X149260930Y-50017402D01*
X149265036Y-50016602D01*
X149269336Y-50016063D01*
X149273823Y-50015786D01*
X149278487Y-50015771D01*
X149283319Y-50016021D01*
D11*
X144572169Y-47940573D02*
X144501195Y-48014776D01*
X144435036Y-48090857D01*
X144373508Y-48168565D01*
X144316429Y-48247646D01*
X144263615Y-48327847D01*
X144214884Y-48408916D01*
X144170053Y-48490600D01*
X144128938Y-48572646D01*
X144091358Y-48654802D01*
X144057128Y-48736813D01*
X144026065Y-48818428D01*
X143997988Y-48899394D01*
X143972712Y-48979458D01*
X143950056Y-49058366D01*
X143929835Y-49135867D01*
X143922358Y-49168448D01*
X143916021Y-49200948D01*
X143910776Y-49233359D01*
X143906574Y-49265669D01*
X143903366Y-49297872D01*
X143901103Y-49329956D01*
X143899736Y-49361912D01*
X143899216Y-49393733D01*
X143886745Y-49428979D01*
X143873286Y-49463991D01*
X143858882Y-49498814D01*
X143843578Y-49533500D01*
X143827416Y-49568096D01*
X143810441Y-49602650D01*
X143774225Y-49671829D01*
X143735280Y-49741426D01*
X143693956Y-49811830D01*
X143605567Y-49956614D01*
X142604851Y-47871860D01*
X144648132Y-47868510D01*
X144572169Y-47940573D01*
G36*
X144572169Y-47940573D02*
G01*
X144501195Y-48014776D01*
X144435036Y-48090857D01*
X144373508Y-48168565D01*
X144316429Y-48247646D01*
X144263615Y-48327847D01*
X144214884Y-48408916D01*
X144170053Y-48490600D01*
X144128938Y-48572646D01*
X144091358Y-48654802D01*
X144057128Y-48736813D01*
X144026065Y-48818428D01*
X143997988Y-48899394D01*
X143972712Y-48979458D01*
X143950056Y-49058366D01*
X143929835Y-49135867D01*
X143922358Y-49168448D01*
X143916021Y-49200948D01*
X143910776Y-49233359D01*
X143906574Y-49265669D01*
X143903366Y-49297872D01*
X143901103Y-49329956D01*
X143899736Y-49361912D01*
X143899216Y-49393733D01*
X143886745Y-49428979D01*
X143873286Y-49463991D01*
X143858882Y-49498814D01*
X143843578Y-49533500D01*
X143827416Y-49568096D01*
X143810441Y-49602650D01*
X143774225Y-49671829D01*
X143735280Y-49741426D01*
X143693956Y-49811830D01*
X143605567Y-49956614D01*
X142604851Y-47871860D01*
X144648132Y-47868510D01*
X144572169Y-47940573D01*
G37*
D10*
X150772062Y-50112306D02*
X150823107Y-50131343D01*
X150878279Y-50149539D01*
X150936650Y-50167321D01*
X151059282Y-50203357D01*
X151121688Y-50222467D01*
X151183584Y-50242878D01*
X151244044Y-50265016D01*
X151302141Y-50289310D01*
X151356946Y-50316188D01*
X151382825Y-50330730D01*
X151407533Y-50346079D01*
X151430955Y-50362288D01*
X151452975Y-50379411D01*
X151473477Y-50397501D01*
X151492345Y-50416612D01*
X151509462Y-50436798D01*
X151524714Y-50458111D01*
X151537985Y-50480606D01*
X151549157Y-50504336D01*
X151550445Y-50507669D01*
X151551046Y-50510208D01*
X151550992Y-50512011D01*
X151550315Y-50513134D01*
X151549046Y-50513633D01*
X151547216Y-50513564D01*
X151542003Y-50511947D01*
X151505063Y-50494023D01*
X151493070Y-50488929D01*
X151480480Y-50484491D01*
X151474040Y-50482658D01*
X151467545Y-50481158D01*
X151461028Y-50480047D01*
X151454519Y-50479381D01*
X151448050Y-50479216D01*
X151441654Y-50479610D01*
X151435361Y-50480617D01*
X151429203Y-50482295D01*
X151423212Y-50484700D01*
X151417419Y-50487887D01*
X151411856Y-50491914D01*
X151406554Y-50496836D01*
X151401684Y-50502386D01*
X151397373Y-50507793D01*
X151393595Y-50513062D01*
X151390324Y-50518194D01*
X151387533Y-50523195D01*
X151385196Y-50528068D01*
X151383285Y-50532816D01*
X151381775Y-50537443D01*
X151380639Y-50541954D01*
X151379849Y-50546350D01*
X151379381Y-50550637D01*
X151379206Y-50554818D01*
X151379299Y-50558897D01*
X151379633Y-50562876D01*
X151380181Y-50566760D01*
X151380917Y-50570553D01*
X151381814Y-50574258D01*
X151382846Y-50577879D01*
X151385208Y-50584883D01*
X151390378Y-50598041D01*
X151392761Y-50604255D01*
X151394727Y-50610263D01*
X151395486Y-50613200D01*
X151396062Y-50616096D01*
X151396427Y-50618956D01*
X151396554Y-50621783D01*
X151396528Y-50624251D01*
X151395996Y-50626065D01*
X151394978Y-50627273D01*
X151393495Y-50627924D01*
X151391569Y-50628066D01*
X151389221Y-50627747D01*
X151383341Y-50625923D01*
X151347143Y-50609914D01*
X151335766Y-50605674D01*
X151323796Y-50602114D01*
X151317641Y-50600711D01*
X151311401Y-50599624D01*
X151305097Y-50598901D01*
X151298749Y-50598590D01*
X151292380Y-50598741D01*
X151286009Y-50599401D01*
X151279659Y-50600620D01*
X151273350Y-50602446D01*
X151267104Y-50604926D01*
X151260940Y-50608111D01*
X151254882Y-50612048D01*
X151248948Y-50616785D01*
X151243219Y-50622173D01*
X151238200Y-50627556D01*
X151233856Y-50632929D01*
X151230149Y-50638286D01*
X151227043Y-50643624D01*
X151224501Y-50648936D01*
X151222487Y-50654218D01*
X151220964Y-50659465D01*
X151219896Y-50664671D01*
X151219245Y-50669832D01*
X151218975Y-50674943D01*
X151219050Y-50679998D01*
X151219432Y-50684993D01*
X151220086Y-50689923D01*
X151220974Y-50694782D01*
X151222060Y-50699565D01*
X151224679Y-50708886D01*
X151227650Y-50717844D01*
X151233475Y-50734512D01*
X151235743Y-50742141D01*
X151236588Y-50745762D01*
X151237190Y-50749247D01*
X151237514Y-50752592D01*
X151237523Y-50755790D01*
X151237181Y-50758837D01*
X151236449Y-50761729D01*
X151234967Y-50764841D01*
X151232891Y-50767184D01*
X151230255Y-50768808D01*
X151227097Y-50769762D01*
X151223451Y-50770098D01*
X151219353Y-50769866D01*
X151214839Y-50769115D01*
X151209946Y-50767898D01*
X151199160Y-50764260D01*
X151187283Y-50759356D01*
X151161395Y-50747360D01*
X151134570Y-50735129D01*
X151121520Y-50729932D01*
X151109093Y-50725885D01*
X151103202Y-50724418D01*
X151097575Y-50723389D01*
X151092246Y-50722850D01*
X151087251Y-50722849D01*
X151082627Y-50723438D01*
X151078409Y-50724666D01*
X151074632Y-50726584D01*
X151071332Y-50729243D01*
X151068212Y-50732360D01*
X151065408Y-50735611D01*
X151062899Y-50738987D01*
X151060662Y-50742474D01*
X151058676Y-50746062D01*
X151056919Y-50749740D01*
X151055371Y-50753495D01*
X151054009Y-50757316D01*
X151051760Y-50765112D01*
X151049997Y-50773037D01*
X151047247Y-50788904D01*
X151045914Y-50796663D01*
X151044380Y-50804185D01*
X151042472Y-50811378D01*
X151041324Y-50814822D01*
X151040018Y-50818149D01*
X151038532Y-50821349D01*
X151036845Y-50824409D01*
X151034936Y-50827318D01*
X151032782Y-50830064D01*
X151030363Y-50832637D01*
X151027656Y-50835024D01*
X151024641Y-50837215D01*
X151021295Y-50839198D01*
X151016008Y-50840698D01*
X151009576Y-50840572D01*
X151002073Y-50838907D01*
X150993570Y-50835790D01*
X150984140Y-50831307D01*
X150973855Y-50825546D01*
X150951011Y-50810536D01*
X150925615Y-50791455D01*
X150898249Y-50769000D01*
X150869489Y-50743865D01*
X150839916Y-50716746D01*
X150780646Y-50659338D01*
X150725069Y-50602339D01*
X150677819Y-50551315D01*
X150643527Y-50511828D01*
X150643512Y-50511828D01*
X150651338Y-50490916D01*
X150658860Y-50468575D01*
X150666067Y-50444961D01*
X150672948Y-50420226D01*
X150685687Y-50368011D01*
X150696990Y-50313160D01*
X150706767Y-50256902D01*
X150714932Y-50200470D01*
X150721396Y-50145091D01*
X150726070Y-50091998D01*
X150772062Y-50112306D01*
D12*
G36*
X151584740Y-45602059D02*
G01*
X151584684Y-45602985D01*
X151527045Y-45627184D01*
X151505501Y-45632697D01*
X151455702Y-45673712D01*
X151445282Y-45710416D01*
X151438848Y-45776289D01*
X151437401Y-45843386D01*
X151439882Y-46093708D01*
X151437401Y-46325729D01*
X151437421Y-46340624D01*
X151438024Y-46404923D01*
X151439672Y-46471128D01*
X151442674Y-46537587D01*
X151449159Y-46597274D01*
X151471211Y-46657010D01*
X151493399Y-46675665D01*
X151552480Y-46697644D01*
X151585671Y-46721839D01*
X151579157Y-46735487D01*
X151534058Y-46738420D01*
X151471521Y-46738900D01*
X151231435Y-46738900D01*
X151203813Y-46738812D01*
X151139309Y-46736418D01*
X151126902Y-46719978D01*
X151166916Y-46699195D01*
X151175834Y-46698405D01*
X151233917Y-46674690D01*
X151273931Y-46627232D01*
X151282873Y-46567254D01*
X151286029Y-46503466D01*
X151287919Y-46438792D01*
X151289131Y-46374428D01*
X151289032Y-46359572D01*
X151286339Y-46295950D01*
X151283125Y-46242167D01*
X151281066Y-46177148D01*
X151271215Y-46177862D01*
X151206465Y-46181568D01*
X151141481Y-46183042D01*
X151095990Y-46182379D01*
X151025044Y-46178331D01*
X150960186Y-46170602D01*
X150890394Y-46156469D01*
X150829369Y-46137036D01*
X150769255Y-46107666D01*
X150761621Y-46102863D01*
X150709277Y-46059204D01*
X150672442Y-46006239D01*
X150651117Y-45943969D01*
X150645179Y-45881849D01*
X150646783Y-45855173D01*
X150817024Y-45855173D01*
X150818300Y-45883493D01*
X150829818Y-45945228D01*
X150853316Y-46007475D01*
X150868314Y-46034560D01*
X150911135Y-46081945D01*
X150968085Y-46113870D01*
X151007964Y-46126762D01*
X151070181Y-46139194D01*
X151135277Y-46143338D01*
X151153957Y-46142994D01*
X151217740Y-46141094D01*
X151281066Y-46138995D01*
X151281996Y-46085022D01*
X151278584Y-45878127D01*
X151281996Y-45683949D01*
X151281066Y-45645796D01*
X151250548Y-45638544D01*
X151188203Y-45629801D01*
X151124110Y-45627184D01*
X151062733Y-45629518D01*
X151000636Y-45638140D01*
X150935846Y-45658559D01*
X150883714Y-45693565D01*
X150851476Y-45733185D01*
X150824904Y-45793112D01*
X150817024Y-45855173D01*
X150646783Y-45855173D01*
X150647489Y-45843427D01*
X150663288Y-45779458D01*
X150694054Y-45722162D01*
X150739787Y-45671541D01*
X150773729Y-45647324D01*
X150835955Y-45620316D01*
X150902948Y-45603570D01*
X150968406Y-45594129D01*
X151042618Y-45588794D01*
X151108291Y-45587480D01*
X151385909Y-45588411D01*
X151558684Y-45587480D01*
X151584740Y-45602059D01*
G37*
G36*
X149551145Y-46738900D02*
G01*
X149600155Y-46738900D01*
X149665071Y-46738900D01*
X149717096Y-46738900D01*
X149787670Y-46738900D01*
X149858303Y-46738900D01*
X149932763Y-46738900D01*
X150004626Y-46738900D01*
X150068539Y-46738900D01*
X150290014Y-46738900D01*
X150352769Y-46738900D01*
X150379348Y-46738900D01*
X150443770Y-46738900D01*
X150472404Y-46738900D01*
X150533534Y-46727843D01*
X150538785Y-46717496D01*
X150512729Y-46699195D01*
X150448488Y-46689772D01*
X150394857Y-46663524D01*
X150359190Y-46609264D01*
X150349570Y-46576361D01*
X150342506Y-46514177D01*
X150339537Y-46450713D01*
X150337938Y-46381524D01*
X150337271Y-46313437D01*
X150337162Y-46268033D01*
X150336542Y-45961257D01*
X150337376Y-45892415D01*
X150340306Y-45828361D01*
X150347496Y-45765017D01*
X150349880Y-45753121D01*
X150374111Y-45695400D01*
X150405714Y-45662856D01*
X150462808Y-45634236D01*
X150501252Y-45627184D01*
X150529169Y-45605161D01*
X150503733Y-45586550D01*
X150481090Y-45587480D01*
X150418172Y-45587480D01*
X150350743Y-45587480D01*
X150278801Y-45587480D01*
X150213545Y-45587480D01*
X150156633Y-45587480D01*
X150003089Y-45587480D01*
X149979515Y-45611054D01*
X150004950Y-45632457D01*
X150068014Y-45640211D01*
X150108243Y-45656962D01*
X150156150Y-45699310D01*
X150163457Y-45712796D01*
X150174919Y-45775973D01*
X150176795Y-45836561D01*
X150183619Y-46247561D01*
X150181758Y-46476790D01*
X150180695Y-46541530D01*
X150175354Y-46604159D01*
X150172762Y-46616065D01*
X150140101Y-46668878D01*
X150134919Y-46673760D01*
X150076752Y-46696190D01*
X150030076Y-46699195D01*
X149966221Y-46697014D01*
X149900880Y-46694610D01*
X149874051Y-46693612D01*
X149808664Y-46677121D01*
X149747203Y-46646840D01*
X149695867Y-46608348D01*
X149659401Y-46572328D01*
X149615780Y-46521438D01*
X149576255Y-46467477D01*
X149544194Y-46411607D01*
X149532844Y-46385285D01*
X149509269Y-46361710D01*
X149494380Y-46383113D01*
X149501559Y-46446227D01*
X149511172Y-46509127D01*
X149519816Y-46562402D01*
X149531196Y-46631245D01*
X149542095Y-46694125D01*
X149551145Y-46738900D01*
G37*
G36*
X148939308Y-45635016D02*
G01*
X148968960Y-45703180D01*
X148998011Y-45772120D01*
X149026461Y-45841835D01*
X149054310Y-45912325D01*
X149081558Y-45983591D01*
X149108205Y-46055632D01*
X149134252Y-46128449D01*
X149148095Y-46167856D01*
X149174393Y-46241865D01*
X149198840Y-46309467D01*
X149221435Y-46370661D01*
X149247076Y-46438144D01*
X149274026Y-46505908D01*
X149300202Y-46566745D01*
X149307017Y-46580917D01*
X149342240Y-46634613D01*
X149390126Y-46674938D01*
X149453435Y-46695783D01*
X149477940Y-46717807D01*
X149450023Y-46738900D01*
X149387377Y-46738900D01*
X149320093Y-46738900D01*
X149252744Y-46738900D01*
X149211230Y-46738900D01*
X149147473Y-46738900D01*
X149084621Y-46738900D01*
X149074075Y-46723080D01*
X149106335Y-46699195D01*
X149136550Y-46694960D01*
X149195049Y-46672829D01*
X149214590Y-46659317D01*
X149239716Y-46599935D01*
X149230870Y-46544404D01*
X149214153Y-46482823D01*
X149192924Y-46415153D01*
X149170369Y-46348266D01*
X149149141Y-46287886D01*
X149105317Y-46287209D01*
X149025056Y-46285988D01*
X148954643Y-46284941D01*
X148880476Y-46283878D01*
X148811789Y-46282962D01*
X148743414Y-46282302D01*
X148691923Y-46438637D01*
X148671134Y-46501111D01*
X148651909Y-46564031D01*
X148638570Y-46627542D01*
X148667108Y-46677482D01*
X148706812Y-46690820D01*
X148769470Y-46699195D01*
X148789632Y-46717807D01*
X148762646Y-46738900D01*
X148715451Y-46738900D01*
X148650288Y-46738900D01*
X148584746Y-46738900D01*
X148518217Y-46738900D01*
X148510524Y-46738900D01*
X148445105Y-46738900D01*
X148380474Y-46738900D01*
X148314113Y-46738900D01*
X148302016Y-46739520D01*
X148287127Y-46724010D01*
X148315975Y-46699195D01*
X148343075Y-46695618D01*
X148402266Y-46673699D01*
X148447805Y-46629713D01*
X148476357Y-46574765D01*
X148501526Y-46516241D01*
X148526248Y-46454093D01*
X148548480Y-46395618D01*
X148572893Y-46329359D01*
X148599487Y-46255316D01*
X148603989Y-46242598D01*
X148759234Y-46242598D01*
X149004283Y-46238255D01*
X149068629Y-46239786D01*
X149133321Y-46242598D01*
X149106684Y-46166524D01*
X149080899Y-46095103D01*
X149055968Y-46028335D01*
X149031889Y-45966220D01*
X149002991Y-45895119D01*
X148975425Y-45831288D01*
X148944106Y-45764287D01*
X148922747Y-45820257D01*
X148899939Y-45878228D01*
X148874956Y-45940880D01*
X148849809Y-46003443D01*
X148832221Y-46048540D01*
X148806728Y-46114741D01*
X148781941Y-46180457D01*
X148759234Y-46242598D01*
X148603989Y-46242598D01*
X148610155Y-46225177D01*
X148641289Y-46138108D01*
X148671121Y-46056061D01*
X148699650Y-45979036D01*
X148726875Y-45907033D01*
X148752797Y-45840051D01*
X148777416Y-45778091D01*
X148808215Y-45703290D01*
X148836696Y-45637416D01*
X148869040Y-45567628D01*
X148909055Y-45567628D01*
X148939308Y-45635016D01*
G37*
G36*
X147783691Y-45627184D02*
G01*
X147847453Y-45627184D01*
X147879539Y-45627184D01*
X147946609Y-45629932D01*
X148015623Y-45640085D01*
X148082318Y-45660848D01*
X148141824Y-45695886D01*
X148152815Y-45705352D01*
X148198671Y-45752316D01*
X148235545Y-45804195D01*
X148251145Y-45843696D01*
X148274719Y-45865409D01*
X148291159Y-45865409D01*
X148286729Y-45801789D01*
X148279454Y-45735680D01*
X148270513Y-45670456D01*
X148260934Y-45609067D01*
X148257349Y-45587480D01*
X148203997Y-45587480D01*
X148141175Y-45587480D01*
X148076102Y-45587480D01*
X148021916Y-45587480D01*
X147952162Y-45587480D01*
X147889109Y-45587480D01*
X147816852Y-45587480D01*
X147749607Y-45587480D01*
X147675971Y-45587480D01*
X147644727Y-45587480D01*
X147582578Y-45587480D01*
X147512866Y-45587480D01*
X147440907Y-45587480D01*
X147373081Y-45587480D01*
X147306311Y-45587480D01*
X147239339Y-45587480D01*
X147175908Y-45587480D01*
X147109962Y-45587480D01*
X147101199Y-45652077D01*
X147096224Y-45715031D01*
X147096003Y-45719310D01*
X147091283Y-45782591D01*
X147085767Y-45829427D01*
X147084837Y-45844316D01*
X147103138Y-45865409D01*
X147121749Y-45857654D01*
X147155249Y-45805232D01*
X147192861Y-45750282D01*
X147237658Y-45701891D01*
X147249857Y-45691703D01*
X147304839Y-45658540D01*
X147358733Y-45642073D01*
X147421183Y-45634745D01*
X147490749Y-45630623D01*
X147558325Y-45628231D01*
X147602231Y-45627184D01*
X147606709Y-45696085D01*
X147609578Y-45760253D01*
X147611468Y-45828043D01*
X147612377Y-45899455D01*
X147612467Y-45931169D01*
X147612374Y-46000040D01*
X147612094Y-46065287D01*
X147611324Y-46156358D01*
X147610135Y-46239273D01*
X147608525Y-46314031D01*
X147606496Y-46380632D01*
X147603137Y-46456744D01*
X147597889Y-46531493D01*
X147588583Y-46598074D01*
X147557398Y-46655646D01*
X147503793Y-46687246D01*
X147434985Y-46698800D01*
X147417049Y-46699195D01*
X147381377Y-46717496D01*
X147415498Y-46738900D01*
X147951813Y-46738900D01*
X147972906Y-46718427D01*
X147931961Y-46698265D01*
X147869536Y-46688494D01*
X147820604Y-46659181D01*
X147784181Y-46606226D01*
X147771594Y-46553097D01*
X147768159Y-46486533D01*
X147766708Y-46422895D01*
X147765850Y-46356285D01*
X147765392Y-46294109D01*
X147765137Y-46224033D01*
X147765080Y-46166292D01*
X147765371Y-46098157D01*
X147766243Y-46030235D01*
X147767697Y-45962527D01*
X147769733Y-45895032D01*
X147772350Y-45827750D01*
X147775549Y-45760682D01*
X147779329Y-45693826D01*
X147783691Y-45627184D01*
G37*
G36*
X146445849Y-46129689D02*
G01*
X146402127Y-46076996D01*
X146359889Y-46021446D01*
X146321439Y-45968740D01*
X146297268Y-45934891D01*
X146257489Y-45878386D01*
X146221624Y-45826313D01*
X146187018Y-45773213D01*
X146179397Y-45759945D01*
X146161406Y-45705352D01*
X146193303Y-45651281D01*
X146197698Y-45648587D01*
X146257192Y-45627937D01*
X146271212Y-45627184D01*
X146300991Y-45607953D01*
X146251360Y-45587480D01*
X145922561Y-45587480D01*
X145877273Y-45609814D01*
X145897435Y-45627805D01*
X145960079Y-45637013D01*
X145996386Y-45651379D01*
X146048962Y-45689532D01*
X146095113Y-45737282D01*
X146111776Y-45756843D01*
X146263768Y-45961257D01*
X146304691Y-46016528D01*
X146342676Y-46069294D01*
X146378712Y-46122790D01*
X146392806Y-46148921D01*
X146402348Y-46210515D01*
X146405661Y-46277325D01*
X146406710Y-46344013D01*
X146406765Y-46365433D01*
X146406288Y-46433603D01*
X146404456Y-46503192D01*
X146400582Y-46567536D01*
X146390715Y-46632002D01*
X146387223Y-46641811D01*
X146337212Y-46679967D01*
X146273120Y-46693519D01*
X146260046Y-46694853D01*
X146232129Y-46716876D01*
X146262527Y-46738900D01*
X146497340Y-46738900D01*
X146561075Y-46738900D01*
X146625604Y-46738900D01*
X146635994Y-46738900D01*
X146691828Y-46738900D01*
X146725018Y-46717496D01*
X146700513Y-46699195D01*
X146638130Y-46685582D01*
X146590955Y-46640477D01*
X146589156Y-46636848D01*
X146570072Y-46574202D01*
X146562575Y-46509819D01*
X146561239Y-46461901D01*
X146562465Y-46394241D01*
X146566706Y-46328156D01*
X146574870Y-46266519D01*
X146576748Y-46256557D01*
X146604858Y-46196896D01*
X146638978Y-46136506D01*
X146651814Y-46114490D01*
X146684570Y-46059775D01*
X146720414Y-46002566D01*
X146759345Y-45942863D01*
X146795172Y-45889704D01*
X146826760Y-45844006D01*
X146863434Y-45792483D01*
X146901010Y-45742683D01*
X146941078Y-45694968D01*
X146974720Y-45663476D01*
X147031870Y-45633559D01*
X147060952Y-45627805D01*
X147092281Y-45606712D01*
X147084216Y-45591202D01*
X147034586Y-45587480D01*
X146653365Y-45587480D01*
X146606526Y-45590892D01*
X146598461Y-45607953D01*
X146620174Y-45627184D01*
X146682868Y-45638910D01*
X146729324Y-45682923D01*
X146730291Y-45693254D01*
X146709620Y-45753241D01*
X146690277Y-45786311D01*
X146654639Y-45839056D01*
X146616486Y-45893276D01*
X146575895Y-45950105D01*
X146537664Y-46003191D01*
X146494316Y-46063052D01*
X146445849Y-46129689D01*
G37*
G36*
X145778013Y-45602059D02*
G01*
X145777957Y-45602985D01*
X145720318Y-45627184D01*
X145698774Y-45632697D01*
X145648975Y-45673712D01*
X145638555Y-45710416D01*
X145632121Y-45776289D01*
X145630673Y-45843386D01*
X145633155Y-46093708D01*
X145630673Y-46325729D01*
X145630694Y-46340624D01*
X145631297Y-46404923D01*
X145632944Y-46471128D01*
X145635947Y-46537587D01*
X145642431Y-46597274D01*
X145664484Y-46657010D01*
X145686672Y-46675665D01*
X145745753Y-46697644D01*
X145778943Y-46721839D01*
X145772430Y-46735487D01*
X145727331Y-46738420D01*
X145664794Y-46738900D01*
X145424708Y-46738900D01*
X145397086Y-46738812D01*
X145332582Y-46736418D01*
X145320175Y-46719978D01*
X145360189Y-46699195D01*
X145369107Y-46698405D01*
X145427190Y-46674690D01*
X145467204Y-46627232D01*
X145476146Y-46567254D01*
X145479301Y-46503466D01*
X145481192Y-46438792D01*
X145482403Y-46374428D01*
X145482305Y-46359572D01*
X145479612Y-46295950D01*
X145476398Y-46242167D01*
X145474338Y-46177148D01*
X145464488Y-46177862D01*
X145399738Y-46181568D01*
X145334754Y-46183042D01*
X145289263Y-46182379D01*
X145218317Y-46178331D01*
X145153459Y-46170602D01*
X145083666Y-46156469D01*
X145022642Y-46137036D01*
X144962528Y-46107666D01*
X144954894Y-46102863D01*
X144902550Y-46059204D01*
X144865715Y-46006239D01*
X144844389Y-45943969D01*
X144838452Y-45881849D01*
X144840056Y-45855173D01*
X145010297Y-45855173D01*
X145011572Y-45883493D01*
X145023091Y-45945228D01*
X145046589Y-46007475D01*
X145061587Y-46034560D01*
X145104408Y-46081945D01*
X145161358Y-46113870D01*
X145201237Y-46126762D01*
X145263454Y-46139194D01*
X145328550Y-46143338D01*
X145347230Y-46142994D01*
X145411013Y-46141094D01*
X145474338Y-46138995D01*
X145475269Y-46085022D01*
X145471857Y-45878127D01*
X145475269Y-45683949D01*
X145474338Y-45645796D01*
X145443821Y-45638544D01*
X145381476Y-45629801D01*
X145317383Y-45627184D01*
X145256006Y-45629518D01*
X145193909Y-45638140D01*
X145129119Y-45658559D01*
X145076987Y-45693565D01*
X145044749Y-45733185D01*
X145018177Y-45793112D01*
X145010297Y-45855173D01*
X144840056Y-45855173D01*
X144840762Y-45843427D01*
X144856561Y-45779458D01*
X144887327Y-45722162D01*
X144933060Y-45671541D01*
X144967002Y-45647324D01*
X145029228Y-45620316D01*
X145096221Y-45603570D01*
X145161679Y-45594129D01*
X145235891Y-45588794D01*
X145301564Y-45587480D01*
X145579182Y-45588411D01*
X145751957Y-45587480D01*
X145778013Y-45602059D01*
G37*
G36*
X144677154Y-45587480D02*
G01*
X144240099Y-45587480D01*
X144202566Y-45605781D01*
X144230483Y-45627184D01*
X144292521Y-45642425D01*
X144321988Y-45661925D01*
X144354794Y-45717809D01*
X144366966Y-45762116D01*
X144375619Y-45830767D01*
X144379256Y-45894645D01*
X144381215Y-45961897D01*
X144382031Y-46026753D01*
X144382165Y-46069513D01*
X144381913Y-46137522D01*
X144381157Y-46200102D01*
X144379503Y-46270694D01*
X144377061Y-46332805D01*
X144373092Y-46396141D01*
X144366035Y-46461591D01*
X144349229Y-46525440D01*
X144318974Y-46580505D01*
X144275269Y-46626785D01*
X144264914Y-46634986D01*
X144205766Y-46668847D01*
X144142225Y-46688598D01*
X144077546Y-46697628D01*
X144033203Y-46699195D01*
X143969546Y-46696346D01*
X143905409Y-46686109D01*
X143844240Y-46665695D01*
X143799631Y-46639639D01*
X143751069Y-46591877D01*
X143718499Y-46536625D01*
X143698614Y-46477263D01*
X143695408Y-46462832D01*
X143685980Y-46398413D01*
X143680664Y-46336333D01*
X143676529Y-46260864D01*
X143674072Y-46190849D01*
X143672371Y-46112264D01*
X143671591Y-46047703D01*
X143671237Y-45978321D01*
X143671213Y-45954123D01*
X143672653Y-45883400D01*
X143677971Y-45813239D01*
X143688847Y-45749340D01*
X143712158Y-45689842D01*
X143759200Y-45644868D01*
X143823553Y-45627429D01*
X143833442Y-45627184D01*
X143865701Y-45606712D01*
X143822895Y-45587480D01*
X143473933Y-45587480D01*
X143450359Y-45607022D01*
X143469591Y-45623462D01*
X143530140Y-45640157D01*
X143566990Y-45665648D01*
X143596279Y-45723024D01*
X143607625Y-45783829D01*
X143613099Y-45851931D01*
X143615888Y-45921718D01*
X143617006Y-45984750D01*
X143617240Y-46034462D01*
X143617611Y-46097587D01*
X143619036Y-46169298D01*
X143621530Y-46236604D01*
X143625092Y-46299505D01*
X143630599Y-46367320D01*
X143632440Y-46385595D01*
X143642269Y-46453138D01*
X143658656Y-46518187D01*
X143683484Y-46576881D01*
X143698510Y-46600866D01*
X143743628Y-46650113D01*
X143797631Y-46688589D01*
X143850812Y-46715325D01*
X143911573Y-46736317D01*
X143979743Y-46750439D01*
X144046559Y-46757225D01*
X144100514Y-46758752D01*
X144164738Y-46756421D01*
X144232901Y-46748051D01*
X144295482Y-46733593D01*
X144359211Y-46710052D01*
X144413810Y-46680156D01*
X144465814Y-46636818D01*
X144501618Y-46586004D01*
X144504069Y-46581014D01*
X144525614Y-46516397D01*
X144536590Y-46449571D01*
X144541321Y-46379624D01*
X144541912Y-46340928D01*
X144538500Y-46097740D01*
X144538931Y-46020712D01*
X144540225Y-45951544D01*
X144543056Y-45876140D01*
X144547235Y-45813020D01*
X144555350Y-45745287D01*
X144566107Y-45701629D01*
X144605601Y-45649122D01*
X144667552Y-45628155D01*
X144683978Y-45627184D01*
X144713756Y-45609503D01*
X144677154Y-45587480D01*
G37*
G36*
X142724828Y-45645796D02*
G01*
X142693499Y-45591202D01*
X142673337Y-45567628D01*
X142657517Y-45576313D01*
X142647824Y-45641065D01*
X142640147Y-45704111D01*
X142619364Y-45869441D01*
X142638596Y-45885261D01*
X142656897Y-45868201D01*
X142686403Y-45807882D01*
X142722927Y-45753599D01*
X142766468Y-45705353D01*
X142793690Y-45681157D01*
X142846114Y-45645470D01*
X142907412Y-45619516D01*
X142971922Y-45607981D01*
X142991901Y-45607332D01*
X143058286Y-45614919D01*
X143116744Y-45640503D01*
X143151027Y-45671541D01*
X143185772Y-45725042D01*
X143203380Y-45785635D01*
X143204690Y-45808024D01*
X143195065Y-45872791D01*
X143163174Y-45927312D01*
X143146374Y-45942956D01*
X143091445Y-45976484D01*
X143033124Y-46002801D01*
X142969403Y-46027165D01*
X142905358Y-46049040D01*
X142842429Y-46070133D01*
X142781736Y-46093492D01*
X142722085Y-46121508D01*
X142704356Y-46131551D01*
X142653702Y-46169134D01*
X142610113Y-46217366D01*
X142592378Y-46243218D01*
X142562855Y-46303229D01*
X142548383Y-46366822D01*
X142546780Y-46397382D01*
X142553934Y-46465507D01*
X142575395Y-46529988D01*
X142611164Y-46590823D01*
X142654198Y-46641065D01*
X142661240Y-46648014D01*
X142713659Y-46691163D01*
X142771036Y-46723714D01*
X142833370Y-46745666D01*
X142900662Y-46757021D01*
X142941340Y-46758752D01*
X143006689Y-46754269D01*
X143072187Y-46740821D01*
X143137834Y-46718408D01*
X143194220Y-46692062D01*
X143241292Y-46665075D01*
X143276526Y-46716936D01*
X143279755Y-46728043D01*
X143302399Y-46758752D01*
X143322561Y-46721839D01*
X143328857Y-46655420D01*
X143333412Y-46593159D01*
X143337924Y-46526481D01*
X143342002Y-46463455D01*
X143346498Y-46391820D01*
X143347687Y-46372567D01*
X143329386Y-46361710D01*
X143308603Y-46380942D01*
X143282482Y-46441365D01*
X143244736Y-46512684D01*
X143203655Y-46573438D01*
X143159240Y-46623625D01*
X143111490Y-46663247D01*
X143047114Y-46697916D01*
X142977528Y-46716076D01*
X142933275Y-46719047D01*
X142870197Y-46713306D01*
X142809723Y-46693459D01*
X142754886Y-46655253D01*
X142746231Y-46646463D01*
X142707732Y-46593996D01*
X142683959Y-46530907D01*
X142678610Y-46479582D01*
X142687683Y-46417157D01*
X142714902Y-46360159D01*
X142757088Y-46310839D01*
X142807342Y-46274180D01*
X142811061Y-46272066D01*
X142870917Y-46243516D01*
X142932567Y-46219743D01*
X142991658Y-46199590D01*
X142999655Y-46197000D01*
X143067062Y-46173548D01*
X143131702Y-46147473D01*
X143188618Y-46119065D01*
X143225162Y-46094638D01*
X143271430Y-46049923D01*
X143307430Y-45996742D01*
X143312946Y-45985452D01*
X143333883Y-45925663D01*
X143340863Y-45867890D01*
X143332545Y-45803698D01*
X143307591Y-45743725D01*
X143266002Y-45687973D01*
X143235709Y-45658823D01*
X143180166Y-45618925D01*
X143118690Y-45590427D01*
X143051282Y-45573328D01*
X142987434Y-45567717D01*
X142977942Y-45567628D01*
X142915065Y-45573143D01*
X142856969Y-45587170D01*
X142796418Y-45609630D01*
X142737691Y-45638586D01*
X142724828Y-45645796D01*
G37*
D13*
X164255019Y-89587866D02*
X164255019Y-90206913D01*
X164255019Y-90206913D02*
X164635971Y-89873580D01*
X164635971Y-89873580D02*
X164635971Y-90016437D01*
X164635971Y-90016437D02*
X164683590Y-90111675D01*
X164683590Y-90111675D02*
X164731209Y-90159294D01*
X164731209Y-90159294D02*
X164826447Y-90206913D01*
X164826447Y-90206913D02*
X165064542Y-90206913D01*
X165064542Y-90206913D02*
X165159780Y-90159294D01*
X165159780Y-90159294D02*
X165207400Y-90111675D01*
X165207400Y-90111675D02*
X165255019Y-90016437D01*
X165255019Y-90016437D02*
X165255019Y-89730723D01*
X165255019Y-89730723D02*
X165207400Y-89635485D01*
X165207400Y-89635485D02*
X165159780Y-89587866D01*
X164255019Y-90492628D02*
X165255019Y-90825961D01*
X165255019Y-90825961D02*
X164255019Y-91159294D01*
X164255019Y-91397390D02*
X164255019Y-92016437D01*
X164255019Y-92016437D02*
X164635971Y-91683104D01*
X164635971Y-91683104D02*
X164635971Y-91825961D01*
X164635971Y-91825961D02*
X164683590Y-91921199D01*
X164683590Y-91921199D02*
X164731209Y-91968818D01*
X164731209Y-91968818D02*
X164826447Y-92016437D01*
X164826447Y-92016437D02*
X165064542Y-92016437D01*
X165064542Y-92016437D02*
X165159780Y-91968818D01*
X165159780Y-91968818D02*
X165207400Y-91921199D01*
X165207400Y-91921199D02*
X165255019Y-91825961D01*
X165255019Y-91825961D02*
X165255019Y-91540247D01*
X165255019Y-91540247D02*
X165207400Y-91445009D01*
X165207400Y-91445009D02*
X165159780Y-91397390D01*
X165255019Y-93206914D02*
X164255019Y-93206914D01*
X164255019Y-93206914D02*
X164255019Y-93587866D01*
X164255019Y-93587866D02*
X164302638Y-93683104D01*
X164302638Y-93683104D02*
X164350257Y-93730723D01*
X164350257Y-93730723D02*
X164445495Y-93778342D01*
X164445495Y-93778342D02*
X164588352Y-93778342D01*
X164588352Y-93778342D02*
X164683590Y-93730723D01*
X164683590Y-93730723D02*
X164731209Y-93683104D01*
X164731209Y-93683104D02*
X164778828Y-93587866D01*
X164778828Y-93587866D02*
X164778828Y-93206914D01*
X165255019Y-94349771D02*
X165207400Y-94254533D01*
X165207400Y-94254533D02*
X165159780Y-94206914D01*
X165159780Y-94206914D02*
X165064542Y-94159295D01*
X165064542Y-94159295D02*
X164778828Y-94159295D01*
X164778828Y-94159295D02*
X164683590Y-94206914D01*
X164683590Y-94206914D02*
X164635971Y-94254533D01*
X164635971Y-94254533D02*
X164588352Y-94349771D01*
X164588352Y-94349771D02*
X164588352Y-94492628D01*
X164588352Y-94492628D02*
X164635971Y-94587866D01*
X164635971Y-94587866D02*
X164683590Y-94635485D01*
X164683590Y-94635485D02*
X164778828Y-94683104D01*
X164778828Y-94683104D02*
X165064542Y-94683104D01*
X165064542Y-94683104D02*
X165159780Y-94635485D01*
X165159780Y-94635485D02*
X165207400Y-94587866D01*
X165207400Y-94587866D02*
X165255019Y-94492628D01*
X165255019Y-94492628D02*
X165255019Y-94349771D01*
X164588352Y-95016438D02*
X165255019Y-95206914D01*
X165255019Y-95206914D02*
X164778828Y-95397390D01*
X164778828Y-95397390D02*
X165255019Y-95587866D01*
X165255019Y-95587866D02*
X164588352Y-95778342D01*
X165207400Y-96540247D02*
X165255019Y-96445009D01*
X165255019Y-96445009D02*
X165255019Y-96254533D01*
X165255019Y-96254533D02*
X165207400Y-96159295D01*
X165207400Y-96159295D02*
X165112161Y-96111676D01*
X165112161Y-96111676D02*
X164731209Y-96111676D01*
X164731209Y-96111676D02*
X164635971Y-96159295D01*
X164635971Y-96159295D02*
X164588352Y-96254533D01*
X164588352Y-96254533D02*
X164588352Y-96445009D01*
X164588352Y-96445009D02*
X164635971Y-96540247D01*
X164635971Y-96540247D02*
X164731209Y-96587866D01*
X164731209Y-96587866D02*
X164826447Y-96587866D01*
X164826447Y-96587866D02*
X164921685Y-96111676D01*
X165255019Y-97016438D02*
X164588352Y-97016438D01*
X164778828Y-97016438D02*
X164683590Y-97064057D01*
X164683590Y-97064057D02*
X164635971Y-97111676D01*
X164635971Y-97111676D02*
X164588352Y-97206914D01*
X164588352Y-97206914D02*
X164588352Y-97302152D01*
D14*
%TO.C,JP1*%
X165700200Y-90678000D02*
X167700200Y-90678000D01*
X165700200Y-96164400D02*
X165700200Y-90678000D01*
X167700200Y-90678000D02*
X167700200Y-96164400D01*
X167700200Y-96164400D02*
X165700200Y-96164400D01*
%TD*%
M02*
