%TF.GenerationSoftware,KiCad,Pcbnew,8.0.8*%
%TF.CreationDate,2025-01-31T12:33:30+11:00*%
%TF.ProjectId,v6_equip_joiner,76365f65-7175-4697-905f-6a6f696e6572,rev?*%
%TF.SameCoordinates,Original*%
%TF.FileFunction,Drillmap*%
%TF.FilePolarity,Positive*%
%FSLAX45Y45*%
G04 Gerber Fmt 4.5, Leading zero omitted, Abs format (unit mm)*
G04 Created by KiCad (PCBNEW 8.0.8) date 2025-01-31 12:33:30*
%MOMM*%
%LPD*%
G01*
G04 APERTURE LIST*
%ADD10C,0.050000*%
%ADD11C,0.200000*%
%ADD12C,0.100000*%
%ADD13C,0.140000*%
G04 APERTURE END LIST*
D10*
X13779500Y-3657600D02*
X17792700Y-3657600D01*
X17792700Y-10150040D01*
X13779500Y-10150040D01*
X13779500Y-3657600D01*
D11*
D12*
X14804390Y-6394450D02*
X14837410Y-6427470D01*
X14837410Y-6394450D02*
X14804390Y-6427470D01*
X14905990Y-6496050D02*
X14939010Y-6529070D01*
X14939010Y-6496050D02*
X14905990Y-6529070D01*
X15007590Y-6623950D02*
X15040610Y-6656970D01*
X15040610Y-6623950D02*
X15007590Y-6656970D01*
X15114270Y-6496050D02*
X15147290Y-6529070D01*
X15147290Y-6496050D02*
X15114270Y-6529070D01*
X15210790Y-6369950D02*
X15243810Y-6402970D01*
X15243810Y-6369950D02*
X15210790Y-6402970D01*
X15312390Y-6244590D02*
X15345410Y-6277610D01*
X15345410Y-6244590D02*
X15312390Y-6277610D01*
X15413990Y-6115050D02*
X15447010Y-6148070D01*
X15447010Y-6115050D02*
X15413990Y-6148070D01*
X15449550Y-8172450D02*
X15482570Y-8205470D01*
X15482570Y-8172450D02*
X15449550Y-8205470D01*
X15513050Y-5988050D02*
X15546070Y-6021070D01*
X15546070Y-5988050D02*
X15513050Y-6021070D01*
X15563590Y-8426710D02*
X15596610Y-8459730D01*
X15596610Y-8426710D02*
X15563590Y-8459730D01*
X15617190Y-5861950D02*
X15650210Y-5894970D01*
X15650210Y-5861950D02*
X15617190Y-5894970D01*
X15718790Y-5734050D02*
X15751810Y-5767070D01*
X15751810Y-5734050D02*
X15718790Y-5767070D01*
X15822930Y-5612130D02*
X15855950Y-5645150D01*
X15855950Y-5612130D02*
X15822930Y-5645150D01*
X15921990Y-5480050D02*
X15955010Y-5513070D01*
X15955010Y-5480050D02*
X15921990Y-5513070D01*
X16023590Y-5350510D02*
X16056610Y-5383530D01*
X16056610Y-5350510D02*
X16023590Y-5383530D01*
X16122650Y-5226050D02*
X16155670Y-5259070D01*
X16155670Y-5226050D02*
X16122650Y-5259070D01*
X16226790Y-5099050D02*
X16259810Y-5132070D01*
X16259810Y-5099050D02*
X16226790Y-5132070D01*
X16328390Y-4977130D02*
X16361410Y-5010150D01*
X16361410Y-4977130D02*
X16328390Y-5010150D01*
X16429990Y-4847590D02*
X16463010Y-4880610D01*
X16463010Y-4847590D02*
X16429990Y-4880610D01*
X16531590Y-4720590D02*
X16564610Y-4753610D01*
X16564610Y-4720590D02*
X16531590Y-4753610D01*
X16635730Y-4585970D02*
X16668750Y-4618990D01*
X16668750Y-4585970D02*
X16635730Y-4618990D01*
X16734790Y-4466590D02*
X16767810Y-4499610D01*
X16767810Y-4466590D02*
X16734790Y-4499610D01*
X13999210Y-9748520D02*
G75*
G02*
X13961110Y-9748520I-19050J0D01*
G01*
X13961110Y-9748520D02*
G75*
G02*
X13999210Y-9748520I19050J0D01*
G01*
X14179550Y-4607560D02*
G75*
G02*
X14141450Y-4607560I-19050J0D01*
G01*
X14141450Y-4607560D02*
G75*
G02*
X14179550Y-4607560I19050J0D01*
G01*
X15363190Y-9527540D02*
G75*
G02*
X15325090Y-9527540I-19050J0D01*
G01*
X15325090Y-9527540D02*
G75*
G02*
X15363190Y-9527540I19050J0D01*
G01*
X15792450Y-9339580D02*
G75*
G02*
X15754350Y-9339580I-19050J0D01*
G01*
X15754350Y-9339580D02*
G75*
G02*
X15792450Y-9339580I19050J0D01*
G01*
X16170910Y-8846820D02*
G75*
G02*
X16132810Y-8846820I-19050J0D01*
G01*
X16132810Y-8846820D02*
G75*
G02*
X16170910Y-8846820I19050J0D01*
G01*
X16582390Y-8458200D02*
G75*
G02*
X16544290Y-8458200I-19050J0D01*
G01*
X16544290Y-8458200D02*
G75*
G02*
X16582390Y-8458200I19050J0D01*
G01*
X16940530Y-9964420D02*
G75*
G02*
X16902430Y-9964420I-19050J0D01*
G01*
X16902430Y-9964420D02*
G75*
G02*
X16940530Y-9964420I19050J0D01*
G01*
X17197070Y-8714740D02*
G75*
G02*
X17158970Y-8714740I-19050J0D01*
G01*
X17158970Y-8714740D02*
G75*
G02*
X17197070Y-8714740I19050J0D01*
G01*
X17197070Y-8859520D02*
G75*
G02*
X17158970Y-8859520I-19050J0D01*
G01*
X17158970Y-8859520D02*
G75*
G02*
X17197070Y-8859520I19050J0D01*
G01*
X17412970Y-8712200D02*
G75*
G02*
X17374870Y-8712200I-19050J0D01*
G01*
X17374870Y-8712200D02*
G75*
G02*
X17412970Y-8712200I19050J0D01*
G01*
X17415510Y-8100060D02*
G75*
G02*
X17377410Y-8100060I-19050J0D01*
G01*
X17377410Y-8100060D02*
G75*
G02*
X17415510Y-8100060I19050J0D01*
G01*
X17674590Y-6337300D02*
G75*
G02*
X17636490Y-6337300I-19050J0D01*
G01*
X17636490Y-6337300D02*
G75*
G02*
X17674590Y-6337300I19050J0D01*
G01*
X17674590Y-6507480D02*
G75*
G02*
X17636490Y-6507480I-19050J0D01*
G01*
X17636490Y-6507480D02*
G75*
G02*
X17674590Y-6507480I19050J0D01*
G01*
X17674590Y-6692900D02*
G75*
G02*
X17636490Y-6692900I-19050J0D01*
G01*
X17636490Y-6692900D02*
G75*
G02*
X17674590Y-6692900I19050J0D01*
G01*
X17674590Y-6863080D02*
G75*
G02*
X17636490Y-6863080I-19050J0D01*
G01*
X17636490Y-6863080D02*
G75*
G02*
X17674590Y-6863080I19050J0D01*
G01*
X14236700Y-5598960D02*
X14236700Y-5698960D01*
X14186700Y-5648960D02*
X14286700Y-5648960D01*
X14236700Y-5852960D02*
X14236700Y-5952960D01*
X14186700Y-5902960D02*
X14286700Y-5902960D01*
X14236700Y-6106960D02*
X14236700Y-6206960D01*
X14186700Y-6156960D02*
X14286700Y-6156960D01*
X14236700Y-6360960D02*
X14236700Y-6460960D01*
X14186700Y-6410960D02*
X14286700Y-6410960D01*
X14236700Y-6614960D02*
X14236700Y-6714960D01*
X14186700Y-6664960D02*
X14286700Y-6664960D01*
X14236700Y-6868960D02*
X14236700Y-6968960D01*
X14186700Y-6918960D02*
X14286700Y-6918960D01*
X14236700Y-7122960D02*
X14236700Y-7222960D01*
X14186700Y-7172960D02*
X14286700Y-7172960D01*
X14236700Y-7376960D02*
X14236700Y-7476960D01*
X14186700Y-7426960D02*
X14286700Y-7426960D01*
X14236700Y-7630960D02*
X14236700Y-7730960D01*
X14186700Y-7680960D02*
X14286700Y-7680960D01*
X14236700Y-7884960D02*
X14236700Y-7984960D01*
X14186700Y-7934960D02*
X14286700Y-7934960D01*
X14236700Y-8138960D02*
X14236700Y-8238960D01*
X14186700Y-8188960D02*
X14286700Y-8188960D01*
X14236700Y-8392960D02*
X14236700Y-8492960D01*
X14186700Y-8442960D02*
X14286700Y-8442960D01*
X14236700Y-8646960D02*
X14236700Y-8746960D01*
X14186700Y-8696960D02*
X14286700Y-8696960D01*
X14236700Y-8900960D02*
X14236700Y-9000960D01*
X14186700Y-8950960D02*
X14286700Y-8950960D01*
X14236700Y-9154960D02*
X14236700Y-9254960D01*
X14186700Y-9204960D02*
X14286700Y-9204960D01*
X14490700Y-5598960D02*
X14490700Y-5698960D01*
X14440700Y-5648960D02*
X14540700Y-5648960D01*
X14490700Y-5852960D02*
X14490700Y-5952960D01*
X14440700Y-5902960D02*
X14540700Y-5902960D01*
X14490700Y-6106960D02*
X14490700Y-6206960D01*
X14440700Y-6156960D02*
X14540700Y-6156960D01*
X14490700Y-6360960D02*
X14490700Y-6460960D01*
X14440700Y-6410960D02*
X14540700Y-6410960D01*
X14490700Y-6614960D02*
X14490700Y-6714960D01*
X14440700Y-6664960D02*
X14540700Y-6664960D01*
X14490700Y-6868960D02*
X14490700Y-6968960D01*
X14440700Y-6918960D02*
X14540700Y-6918960D01*
X14490700Y-7122960D02*
X14490700Y-7222960D01*
X14440700Y-7172960D02*
X14540700Y-7172960D01*
X14490700Y-7376960D02*
X14490700Y-7476960D01*
X14440700Y-7426960D02*
X14540700Y-7426960D01*
X14490700Y-7630960D02*
X14490700Y-7730960D01*
X14440700Y-7680960D02*
X14540700Y-7680960D01*
X14490700Y-7884960D02*
X14490700Y-7984960D01*
X14440700Y-7934960D02*
X14540700Y-7934960D01*
X14490700Y-8138960D02*
X14490700Y-8238960D01*
X14440700Y-8188960D02*
X14540700Y-8188960D01*
X14490700Y-8392960D02*
X14490700Y-8492960D01*
X14440700Y-8442960D02*
X14540700Y-8442960D01*
X14490700Y-8646960D02*
X14490700Y-8746960D01*
X14440700Y-8696960D02*
X14540700Y-8696960D01*
X14490700Y-8900960D02*
X14490700Y-9000960D01*
X14440700Y-8950960D02*
X14540700Y-8950960D01*
X14490700Y-9154960D02*
X14490700Y-9254960D01*
X14440700Y-9204960D02*
X14540700Y-9204960D01*
X14833600Y-9901720D02*
X14833600Y-10001720D01*
X14783600Y-9951720D02*
X14883600Y-9951720D01*
X15087600Y-9901720D02*
X15087600Y-10001720D01*
X15037600Y-9951720D02*
X15137600Y-9951720D01*
X15341600Y-9901720D02*
X15341600Y-10001720D01*
X15291600Y-9951720D02*
X15391600Y-9951720D01*
X15595600Y-9901720D02*
X15595600Y-10001720D01*
X15545600Y-9951720D02*
X15645600Y-9951720D01*
X17056100Y-4049560D02*
X17056100Y-4149560D01*
X17006100Y-4099560D02*
X17106100Y-4099560D01*
X17056100Y-4303560D02*
X17056100Y-4403560D01*
X17006100Y-4353560D02*
X17106100Y-4353560D01*
X17056100Y-4557560D02*
X17056100Y-4657560D01*
X17006100Y-4607560D02*
X17106100Y-4607560D01*
X17056100Y-4811560D02*
X17056100Y-4911560D01*
X17006100Y-4861560D02*
X17106100Y-4861560D01*
X17056100Y-5065560D02*
X17056100Y-5165560D01*
X17006100Y-5115560D02*
X17106100Y-5115560D01*
X17056100Y-5319560D02*
X17056100Y-5419560D01*
X17006100Y-5369560D02*
X17106100Y-5369560D01*
X17056100Y-5573560D02*
X17056100Y-5673560D01*
X17006100Y-5623560D02*
X17106100Y-5623560D01*
X17056100Y-5827560D02*
X17056100Y-5927560D01*
X17006100Y-5877560D02*
X17106100Y-5877560D01*
X17056100Y-6081560D02*
X17056100Y-6181560D01*
X17006100Y-6131560D02*
X17106100Y-6131560D01*
X17056100Y-6335560D02*
X17056100Y-6435560D01*
X17006100Y-6385560D02*
X17106100Y-6385560D01*
X17056100Y-6589560D02*
X17056100Y-6689560D01*
X17006100Y-6639560D02*
X17106100Y-6639560D01*
X17056100Y-6843560D02*
X17056100Y-6943560D01*
X17006100Y-6893560D02*
X17106100Y-6893560D01*
X17056100Y-7097560D02*
X17056100Y-7197560D01*
X17006100Y-7147560D02*
X17106100Y-7147560D01*
X17056100Y-7351560D02*
X17056100Y-7451560D01*
X17006100Y-7401560D02*
X17106100Y-7401560D01*
X17056100Y-7605560D02*
X17056100Y-7705560D01*
X17006100Y-7655560D02*
X17106100Y-7655560D01*
X17310100Y-4049560D02*
X17310100Y-4149560D01*
X17260100Y-4099560D02*
X17360100Y-4099560D01*
X17310100Y-4303560D02*
X17310100Y-4403560D01*
X17260100Y-4353560D02*
X17360100Y-4353560D01*
X17310100Y-4557560D02*
X17310100Y-4657560D01*
X17260100Y-4607560D02*
X17360100Y-4607560D01*
X17310100Y-4811560D02*
X17310100Y-4911560D01*
X17260100Y-4861560D02*
X17360100Y-4861560D01*
X17310100Y-5065560D02*
X17310100Y-5165560D01*
X17260100Y-5115560D02*
X17360100Y-5115560D01*
X17310100Y-5319560D02*
X17310100Y-5419560D01*
X17260100Y-5369560D02*
X17360100Y-5369560D01*
X17310100Y-5573560D02*
X17310100Y-5673560D01*
X17260100Y-5623560D02*
X17360100Y-5623560D01*
X17310100Y-5827560D02*
X17310100Y-5927560D01*
X17260100Y-5877560D02*
X17360100Y-5877560D01*
X17310100Y-6081560D02*
X17310100Y-6181560D01*
X17260100Y-6131560D02*
X17360100Y-6131560D01*
X17310100Y-6335560D02*
X17310100Y-6435560D01*
X17260100Y-6385560D02*
X17360100Y-6385560D01*
X17310100Y-6589560D02*
X17310100Y-6689560D01*
X17260100Y-6639560D02*
X17360100Y-6639560D01*
X17310100Y-6843560D02*
X17310100Y-6943560D01*
X17260100Y-6893560D02*
X17360100Y-6893560D01*
X17310100Y-7097560D02*
X17310100Y-7197560D01*
X17260100Y-7147560D02*
X17360100Y-7147560D01*
X17310100Y-7351560D02*
X17310100Y-7451560D01*
X17260100Y-7401560D02*
X17360100Y-7401560D01*
X17310100Y-7605560D02*
X17310100Y-7705560D01*
X17260100Y-7655560D02*
X17360100Y-7655560D01*
D13*
X15627318Y-3924178D02*
X15627318Y-3825182D01*
X15528322Y-3825182D01*
X15528322Y-3924178D01*
X15627318Y-3924178D01*
X15627318Y-4479258D02*
X15627318Y-4380262D01*
X15528322Y-4380262D01*
X15528322Y-4479258D01*
X15627318Y-4479258D01*
X16008318Y-3924178D02*
X16008318Y-3825182D01*
X15909322Y-3825182D01*
X15909322Y-3924178D01*
X16008318Y-3924178D01*
X16008318Y-4479258D02*
X16008318Y-4380262D01*
X15909322Y-4380262D01*
X15909322Y-4479258D01*
X16008318Y-4479258D01*
D11*
X14037777Y-10464024D02*
X14037777Y-10264024D01*
X14037777Y-10264024D02*
X14085396Y-10264024D01*
X14085396Y-10264024D02*
X14113967Y-10273548D01*
X14113967Y-10273548D02*
X14133015Y-10292595D01*
X14133015Y-10292595D02*
X14142539Y-10311643D01*
X14142539Y-10311643D02*
X14152062Y-10349738D01*
X14152062Y-10349738D02*
X14152062Y-10378310D01*
X14152062Y-10378310D02*
X14142539Y-10416405D01*
X14142539Y-10416405D02*
X14133015Y-10435452D01*
X14133015Y-10435452D02*
X14113967Y-10454500D01*
X14113967Y-10454500D02*
X14085396Y-10464024D01*
X14085396Y-10464024D02*
X14037777Y-10464024D01*
X14237777Y-10464024D02*
X14237777Y-10330690D01*
X14237777Y-10368786D02*
X14247301Y-10349738D01*
X14247301Y-10349738D02*
X14256824Y-10340214D01*
X14256824Y-10340214D02*
X14275872Y-10330690D01*
X14275872Y-10330690D02*
X14294920Y-10330690D01*
X14361586Y-10464024D02*
X14361586Y-10330690D01*
X14361586Y-10264024D02*
X14352062Y-10273548D01*
X14352062Y-10273548D02*
X14361586Y-10283071D01*
X14361586Y-10283071D02*
X14371110Y-10273548D01*
X14371110Y-10273548D02*
X14361586Y-10264024D01*
X14361586Y-10264024D02*
X14361586Y-10283071D01*
X14485396Y-10464024D02*
X14466348Y-10454500D01*
X14466348Y-10454500D02*
X14456824Y-10435452D01*
X14456824Y-10435452D02*
X14456824Y-10264024D01*
X14590158Y-10464024D02*
X14571110Y-10454500D01*
X14571110Y-10454500D02*
X14561586Y-10435452D01*
X14561586Y-10435452D02*
X14561586Y-10264024D01*
X14818729Y-10464024D02*
X14818729Y-10264024D01*
X14818729Y-10264024D02*
X14885396Y-10406881D01*
X14885396Y-10406881D02*
X14952062Y-10264024D01*
X14952062Y-10264024D02*
X14952062Y-10464024D01*
X15133015Y-10464024D02*
X15133015Y-10359262D01*
X15133015Y-10359262D02*
X15123491Y-10340214D01*
X15123491Y-10340214D02*
X15104443Y-10330690D01*
X15104443Y-10330690D02*
X15066348Y-10330690D01*
X15066348Y-10330690D02*
X15047301Y-10340214D01*
X15133015Y-10454500D02*
X15113967Y-10464024D01*
X15113967Y-10464024D02*
X15066348Y-10464024D01*
X15066348Y-10464024D02*
X15047301Y-10454500D01*
X15047301Y-10454500D02*
X15037777Y-10435452D01*
X15037777Y-10435452D02*
X15037777Y-10416405D01*
X15037777Y-10416405D02*
X15047301Y-10397357D01*
X15047301Y-10397357D02*
X15066348Y-10387833D01*
X15066348Y-10387833D02*
X15113967Y-10387833D01*
X15113967Y-10387833D02*
X15133015Y-10378310D01*
X15228253Y-10330690D02*
X15228253Y-10530690D01*
X15228253Y-10340214D02*
X15247301Y-10330690D01*
X15247301Y-10330690D02*
X15285396Y-10330690D01*
X15285396Y-10330690D02*
X15304443Y-10340214D01*
X15304443Y-10340214D02*
X15313967Y-10349738D01*
X15313967Y-10349738D02*
X15323491Y-10368786D01*
X15323491Y-10368786D02*
X15323491Y-10425929D01*
X15323491Y-10425929D02*
X15313967Y-10444976D01*
X15313967Y-10444976D02*
X15304443Y-10454500D01*
X15304443Y-10454500D02*
X15285396Y-10464024D01*
X15285396Y-10464024D02*
X15247301Y-10464024D01*
X15247301Y-10464024D02*
X15228253Y-10454500D01*
X15409205Y-10444976D02*
X15418729Y-10454500D01*
X15418729Y-10454500D02*
X15409205Y-10464024D01*
X15409205Y-10464024D02*
X15399682Y-10454500D01*
X15399682Y-10454500D02*
X15409205Y-10444976D01*
X15409205Y-10444976D02*
X15409205Y-10464024D01*
X15409205Y-10340214D02*
X15418729Y-10349738D01*
X15418729Y-10349738D02*
X15409205Y-10359262D01*
X15409205Y-10359262D02*
X15399682Y-10349738D01*
X15399682Y-10349738D02*
X15409205Y-10340214D01*
X15409205Y-10340214D02*
X15409205Y-10359262D01*
D12*
X13743980Y-10776030D02*
X13777000Y-10809050D01*
X13777000Y-10776030D02*
X13743980Y-10809050D01*
D11*
X14075872Y-10684024D02*
X14094920Y-10684024D01*
X14094920Y-10684024D02*
X14113967Y-10693548D01*
X14113967Y-10693548D02*
X14123491Y-10703071D01*
X14123491Y-10703071D02*
X14133015Y-10722119D01*
X14133015Y-10722119D02*
X14142539Y-10760214D01*
X14142539Y-10760214D02*
X14142539Y-10807833D01*
X14142539Y-10807833D02*
X14133015Y-10845929D01*
X14133015Y-10845929D02*
X14123491Y-10864976D01*
X14123491Y-10864976D02*
X14113967Y-10874500D01*
X14113967Y-10874500D02*
X14094920Y-10884024D01*
X14094920Y-10884024D02*
X14075872Y-10884024D01*
X14075872Y-10884024D02*
X14056824Y-10874500D01*
X14056824Y-10874500D02*
X14047301Y-10864976D01*
X14047301Y-10864976D02*
X14037777Y-10845929D01*
X14037777Y-10845929D02*
X14028253Y-10807833D01*
X14028253Y-10807833D02*
X14028253Y-10760214D01*
X14028253Y-10760214D02*
X14037777Y-10722119D01*
X14037777Y-10722119D02*
X14047301Y-10703071D01*
X14047301Y-10703071D02*
X14056824Y-10693548D01*
X14056824Y-10693548D02*
X14075872Y-10684024D01*
X14228253Y-10864976D02*
X14237777Y-10874500D01*
X14237777Y-10874500D02*
X14228253Y-10884024D01*
X14228253Y-10884024D02*
X14218729Y-10874500D01*
X14218729Y-10874500D02*
X14228253Y-10864976D01*
X14228253Y-10864976D02*
X14228253Y-10884024D01*
X14304443Y-10684024D02*
X14428253Y-10684024D01*
X14428253Y-10684024D02*
X14361586Y-10760214D01*
X14361586Y-10760214D02*
X14390158Y-10760214D01*
X14390158Y-10760214D02*
X14409205Y-10769738D01*
X14409205Y-10769738D02*
X14418729Y-10779262D01*
X14418729Y-10779262D02*
X14428253Y-10798310D01*
X14428253Y-10798310D02*
X14428253Y-10845929D01*
X14428253Y-10845929D02*
X14418729Y-10864976D01*
X14418729Y-10864976D02*
X14409205Y-10874500D01*
X14409205Y-10874500D02*
X14390158Y-10884024D01*
X14390158Y-10884024D02*
X14333015Y-10884024D01*
X14333015Y-10884024D02*
X14313967Y-10874500D01*
X14313967Y-10874500D02*
X14304443Y-10864976D01*
X14494920Y-10684024D02*
X14618729Y-10684024D01*
X14618729Y-10684024D02*
X14552062Y-10760214D01*
X14552062Y-10760214D02*
X14580634Y-10760214D01*
X14580634Y-10760214D02*
X14599682Y-10769738D01*
X14599682Y-10769738D02*
X14609205Y-10779262D01*
X14609205Y-10779262D02*
X14618729Y-10798310D01*
X14618729Y-10798310D02*
X14618729Y-10845929D01*
X14618729Y-10845929D02*
X14609205Y-10864976D01*
X14609205Y-10864976D02*
X14599682Y-10874500D01*
X14599682Y-10874500D02*
X14580634Y-10884024D01*
X14580634Y-10884024D02*
X14523491Y-10884024D01*
X14523491Y-10884024D02*
X14504443Y-10874500D01*
X14504443Y-10874500D02*
X14494920Y-10864976D01*
X14742539Y-10684024D02*
X14761586Y-10684024D01*
X14761586Y-10684024D02*
X14780634Y-10693548D01*
X14780634Y-10693548D02*
X14790158Y-10703071D01*
X14790158Y-10703071D02*
X14799682Y-10722119D01*
X14799682Y-10722119D02*
X14809205Y-10760214D01*
X14809205Y-10760214D02*
X14809205Y-10807833D01*
X14809205Y-10807833D02*
X14799682Y-10845929D01*
X14799682Y-10845929D02*
X14790158Y-10864976D01*
X14790158Y-10864976D02*
X14780634Y-10874500D01*
X14780634Y-10874500D02*
X14761586Y-10884024D01*
X14761586Y-10884024D02*
X14742539Y-10884024D01*
X14742539Y-10884024D02*
X14723491Y-10874500D01*
X14723491Y-10874500D02*
X14713967Y-10864976D01*
X14713967Y-10864976D02*
X14704443Y-10845929D01*
X14704443Y-10845929D02*
X14694920Y-10807833D01*
X14694920Y-10807833D02*
X14694920Y-10760214D01*
X14694920Y-10760214D02*
X14704443Y-10722119D01*
X14704443Y-10722119D02*
X14713967Y-10703071D01*
X14713967Y-10703071D02*
X14723491Y-10693548D01*
X14723491Y-10693548D02*
X14742539Y-10684024D01*
X14894920Y-10884024D02*
X14894920Y-10750690D01*
X14894920Y-10769738D02*
X14904443Y-10760214D01*
X14904443Y-10760214D02*
X14923491Y-10750690D01*
X14923491Y-10750690D02*
X14952063Y-10750690D01*
X14952063Y-10750690D02*
X14971110Y-10760214D01*
X14971110Y-10760214D02*
X14980634Y-10779262D01*
X14980634Y-10779262D02*
X14980634Y-10884024D01*
X14980634Y-10779262D02*
X14990158Y-10760214D01*
X14990158Y-10760214D02*
X15009205Y-10750690D01*
X15009205Y-10750690D02*
X15037777Y-10750690D01*
X15037777Y-10750690D02*
X15056824Y-10760214D01*
X15056824Y-10760214D02*
X15066348Y-10779262D01*
X15066348Y-10779262D02*
X15066348Y-10884024D01*
X15161586Y-10884024D02*
X15161586Y-10750690D01*
X15161586Y-10769738D02*
X15171110Y-10760214D01*
X15171110Y-10760214D02*
X15190158Y-10750690D01*
X15190158Y-10750690D02*
X15218729Y-10750690D01*
X15218729Y-10750690D02*
X15237777Y-10760214D01*
X15237777Y-10760214D02*
X15247301Y-10779262D01*
X15247301Y-10779262D02*
X15247301Y-10884024D01*
X15247301Y-10779262D02*
X15256824Y-10760214D01*
X15256824Y-10760214D02*
X15275872Y-10750690D01*
X15275872Y-10750690D02*
X15304443Y-10750690D01*
X15304443Y-10750690D02*
X15323491Y-10760214D01*
X15323491Y-10760214D02*
X15333015Y-10779262D01*
X15333015Y-10779262D02*
X15333015Y-10884024D01*
X15723491Y-10674500D02*
X15552063Y-10931643D01*
X15980634Y-10684024D02*
X15999682Y-10684024D01*
X15999682Y-10684024D02*
X16018729Y-10693548D01*
X16018729Y-10693548D02*
X16028253Y-10703071D01*
X16028253Y-10703071D02*
X16037777Y-10722119D01*
X16037777Y-10722119D02*
X16047301Y-10760214D01*
X16047301Y-10760214D02*
X16047301Y-10807833D01*
X16047301Y-10807833D02*
X16037777Y-10845929D01*
X16037777Y-10845929D02*
X16028253Y-10864976D01*
X16028253Y-10864976D02*
X16018729Y-10874500D01*
X16018729Y-10874500D02*
X15999682Y-10884024D01*
X15999682Y-10884024D02*
X15980634Y-10884024D01*
X15980634Y-10884024D02*
X15961586Y-10874500D01*
X15961586Y-10874500D02*
X15952063Y-10864976D01*
X15952063Y-10864976D02*
X15942539Y-10845929D01*
X15942539Y-10845929D02*
X15933015Y-10807833D01*
X15933015Y-10807833D02*
X15933015Y-10760214D01*
X15933015Y-10760214D02*
X15942539Y-10722119D01*
X15942539Y-10722119D02*
X15952063Y-10703071D01*
X15952063Y-10703071D02*
X15961586Y-10693548D01*
X15961586Y-10693548D02*
X15980634Y-10684024D01*
X16133015Y-10864976D02*
X16142539Y-10874500D01*
X16142539Y-10874500D02*
X16133015Y-10884024D01*
X16133015Y-10884024D02*
X16123491Y-10874500D01*
X16123491Y-10874500D02*
X16133015Y-10864976D01*
X16133015Y-10864976D02*
X16133015Y-10884024D01*
X16266348Y-10684024D02*
X16285396Y-10684024D01*
X16285396Y-10684024D02*
X16304444Y-10693548D01*
X16304444Y-10693548D02*
X16313967Y-10703071D01*
X16313967Y-10703071D02*
X16323491Y-10722119D01*
X16323491Y-10722119D02*
X16333015Y-10760214D01*
X16333015Y-10760214D02*
X16333015Y-10807833D01*
X16333015Y-10807833D02*
X16323491Y-10845929D01*
X16323491Y-10845929D02*
X16313967Y-10864976D01*
X16313967Y-10864976D02*
X16304444Y-10874500D01*
X16304444Y-10874500D02*
X16285396Y-10884024D01*
X16285396Y-10884024D02*
X16266348Y-10884024D01*
X16266348Y-10884024D02*
X16247301Y-10874500D01*
X16247301Y-10874500D02*
X16237777Y-10864976D01*
X16237777Y-10864976D02*
X16228253Y-10845929D01*
X16228253Y-10845929D02*
X16218729Y-10807833D01*
X16218729Y-10807833D02*
X16218729Y-10760214D01*
X16218729Y-10760214D02*
X16228253Y-10722119D01*
X16228253Y-10722119D02*
X16237777Y-10703071D01*
X16237777Y-10703071D02*
X16247301Y-10693548D01*
X16247301Y-10693548D02*
X16266348Y-10684024D01*
X16523491Y-10884024D02*
X16409206Y-10884024D01*
X16466348Y-10884024D02*
X16466348Y-10684024D01*
X16466348Y-10684024D02*
X16447301Y-10712595D01*
X16447301Y-10712595D02*
X16428253Y-10731643D01*
X16428253Y-10731643D02*
X16409206Y-10741167D01*
X16590158Y-10684024D02*
X16713967Y-10684024D01*
X16713967Y-10684024D02*
X16647301Y-10760214D01*
X16647301Y-10760214D02*
X16675872Y-10760214D01*
X16675872Y-10760214D02*
X16694920Y-10769738D01*
X16694920Y-10769738D02*
X16704444Y-10779262D01*
X16704444Y-10779262D02*
X16713967Y-10798310D01*
X16713967Y-10798310D02*
X16713967Y-10845929D01*
X16713967Y-10845929D02*
X16704444Y-10864976D01*
X16704444Y-10864976D02*
X16694920Y-10874500D01*
X16694920Y-10874500D02*
X16675872Y-10884024D01*
X16675872Y-10884024D02*
X16618729Y-10884024D01*
X16618729Y-10884024D02*
X16599682Y-10874500D01*
X16599682Y-10874500D02*
X16590158Y-10864976D01*
X16837777Y-10684024D02*
X16856825Y-10684024D01*
X16856825Y-10684024D02*
X16875872Y-10693548D01*
X16875872Y-10693548D02*
X16885396Y-10703071D01*
X16885396Y-10703071D02*
X16894920Y-10722119D01*
X16894920Y-10722119D02*
X16904444Y-10760214D01*
X16904444Y-10760214D02*
X16904444Y-10807833D01*
X16904444Y-10807833D02*
X16894920Y-10845929D01*
X16894920Y-10845929D02*
X16885396Y-10864976D01*
X16885396Y-10864976D02*
X16875872Y-10874500D01*
X16875872Y-10874500D02*
X16856825Y-10884024D01*
X16856825Y-10884024D02*
X16837777Y-10884024D01*
X16837777Y-10884024D02*
X16818729Y-10874500D01*
X16818729Y-10874500D02*
X16809206Y-10864976D01*
X16809206Y-10864976D02*
X16799682Y-10845929D01*
X16799682Y-10845929D02*
X16790158Y-10807833D01*
X16790158Y-10807833D02*
X16790158Y-10760214D01*
X16790158Y-10760214D02*
X16799682Y-10722119D01*
X16799682Y-10722119D02*
X16809206Y-10703071D01*
X16809206Y-10703071D02*
X16818729Y-10693548D01*
X16818729Y-10693548D02*
X16837777Y-10684024D01*
X16980634Y-10684024D02*
X16980634Y-10722119D01*
X17056825Y-10684024D02*
X17056825Y-10722119D01*
X17352063Y-10960214D02*
X17342539Y-10950690D01*
X17342539Y-10950690D02*
X17323491Y-10922119D01*
X17323491Y-10922119D02*
X17313968Y-10903071D01*
X17313968Y-10903071D02*
X17304444Y-10874500D01*
X17304444Y-10874500D02*
X17294920Y-10826881D01*
X17294920Y-10826881D02*
X17294920Y-10788786D01*
X17294920Y-10788786D02*
X17304444Y-10741167D01*
X17304444Y-10741167D02*
X17313968Y-10712595D01*
X17313968Y-10712595D02*
X17323491Y-10693548D01*
X17323491Y-10693548D02*
X17342539Y-10664976D01*
X17342539Y-10664976D02*
X17352063Y-10655452D01*
X17418730Y-10703071D02*
X17428253Y-10693548D01*
X17428253Y-10693548D02*
X17447301Y-10684024D01*
X17447301Y-10684024D02*
X17494920Y-10684024D01*
X17494920Y-10684024D02*
X17513968Y-10693548D01*
X17513968Y-10693548D02*
X17523491Y-10703071D01*
X17523491Y-10703071D02*
X17533015Y-10722119D01*
X17533015Y-10722119D02*
X17533015Y-10741167D01*
X17533015Y-10741167D02*
X17523491Y-10769738D01*
X17523491Y-10769738D02*
X17409206Y-10884024D01*
X17409206Y-10884024D02*
X17533015Y-10884024D01*
X17609206Y-10703071D02*
X17618730Y-10693548D01*
X17618730Y-10693548D02*
X17637777Y-10684024D01*
X17637777Y-10684024D02*
X17685396Y-10684024D01*
X17685396Y-10684024D02*
X17704444Y-10693548D01*
X17704444Y-10693548D02*
X17713968Y-10703071D01*
X17713968Y-10703071D02*
X17723491Y-10722119D01*
X17723491Y-10722119D02*
X17723491Y-10741167D01*
X17723491Y-10741167D02*
X17713968Y-10769738D01*
X17713968Y-10769738D02*
X17599682Y-10884024D01*
X17599682Y-10884024D02*
X17723491Y-10884024D01*
X17961587Y-10884024D02*
X17961587Y-10684024D01*
X18047301Y-10884024D02*
X18047301Y-10779262D01*
X18047301Y-10779262D02*
X18037777Y-10760214D01*
X18037777Y-10760214D02*
X18018730Y-10750690D01*
X18018730Y-10750690D02*
X17990158Y-10750690D01*
X17990158Y-10750690D02*
X17971111Y-10760214D01*
X17971111Y-10760214D02*
X17961587Y-10769738D01*
X18171111Y-10884024D02*
X18152063Y-10874500D01*
X18152063Y-10874500D02*
X18142539Y-10864976D01*
X18142539Y-10864976D02*
X18133015Y-10845929D01*
X18133015Y-10845929D02*
X18133015Y-10788786D01*
X18133015Y-10788786D02*
X18142539Y-10769738D01*
X18142539Y-10769738D02*
X18152063Y-10760214D01*
X18152063Y-10760214D02*
X18171111Y-10750690D01*
X18171111Y-10750690D02*
X18199682Y-10750690D01*
X18199682Y-10750690D02*
X18218730Y-10760214D01*
X18218730Y-10760214D02*
X18228253Y-10769738D01*
X18228253Y-10769738D02*
X18237777Y-10788786D01*
X18237777Y-10788786D02*
X18237777Y-10845929D01*
X18237777Y-10845929D02*
X18228253Y-10864976D01*
X18228253Y-10864976D02*
X18218730Y-10874500D01*
X18218730Y-10874500D02*
X18199682Y-10884024D01*
X18199682Y-10884024D02*
X18171111Y-10884024D01*
X18352063Y-10884024D02*
X18333015Y-10874500D01*
X18333015Y-10874500D02*
X18323492Y-10855452D01*
X18323492Y-10855452D02*
X18323492Y-10684024D01*
X18504444Y-10874500D02*
X18485396Y-10884024D01*
X18485396Y-10884024D02*
X18447301Y-10884024D01*
X18447301Y-10884024D02*
X18428253Y-10874500D01*
X18428253Y-10874500D02*
X18418730Y-10855452D01*
X18418730Y-10855452D02*
X18418730Y-10779262D01*
X18418730Y-10779262D02*
X18428253Y-10760214D01*
X18428253Y-10760214D02*
X18447301Y-10750690D01*
X18447301Y-10750690D02*
X18485396Y-10750690D01*
X18485396Y-10750690D02*
X18504444Y-10760214D01*
X18504444Y-10760214D02*
X18513968Y-10779262D01*
X18513968Y-10779262D02*
X18513968Y-10798310D01*
X18513968Y-10798310D02*
X18418730Y-10817357D01*
X18590158Y-10874500D02*
X18609206Y-10884024D01*
X18609206Y-10884024D02*
X18647301Y-10884024D01*
X18647301Y-10884024D02*
X18666349Y-10874500D01*
X18666349Y-10874500D02*
X18675873Y-10855452D01*
X18675873Y-10855452D02*
X18675873Y-10845929D01*
X18675873Y-10845929D02*
X18666349Y-10826881D01*
X18666349Y-10826881D02*
X18647301Y-10817357D01*
X18647301Y-10817357D02*
X18618730Y-10817357D01*
X18618730Y-10817357D02*
X18599682Y-10807833D01*
X18599682Y-10807833D02*
X18590158Y-10788786D01*
X18590158Y-10788786D02*
X18590158Y-10779262D01*
X18590158Y-10779262D02*
X18599682Y-10760214D01*
X18599682Y-10760214D02*
X18618730Y-10750690D01*
X18618730Y-10750690D02*
X18647301Y-10750690D01*
X18647301Y-10750690D02*
X18666349Y-10760214D01*
X18742539Y-10960214D02*
X18752063Y-10950690D01*
X18752063Y-10950690D02*
X18771111Y-10922119D01*
X18771111Y-10922119D02*
X18780634Y-10903071D01*
X18780634Y-10903071D02*
X18790158Y-10874500D01*
X18790158Y-10874500D02*
X18799682Y-10826881D01*
X18799682Y-10826881D02*
X18799682Y-10788786D01*
X18799682Y-10788786D02*
X18790158Y-10741167D01*
X18790158Y-10741167D02*
X18780634Y-10712595D01*
X18780634Y-10712595D02*
X18771111Y-10693548D01*
X18771111Y-10693548D02*
X18752063Y-10664976D01*
X18752063Y-10664976D02*
X18742539Y-10655452D01*
D12*
X13777000Y-11056540D02*
G75*
G02*
X13738900Y-11056540I-19050J0D01*
G01*
X13738900Y-11056540D02*
G75*
G02*
X13777000Y-11056540I19050J0D01*
G01*
D11*
X14075872Y-10948024D02*
X14094920Y-10948024D01*
X14094920Y-10948024D02*
X14113967Y-10957548D01*
X14113967Y-10957548D02*
X14123491Y-10967071D01*
X14123491Y-10967071D02*
X14133015Y-10986119D01*
X14133015Y-10986119D02*
X14142539Y-11024214D01*
X14142539Y-11024214D02*
X14142539Y-11071833D01*
X14142539Y-11071833D02*
X14133015Y-11109929D01*
X14133015Y-11109929D02*
X14123491Y-11128976D01*
X14123491Y-11128976D02*
X14113967Y-11138500D01*
X14113967Y-11138500D02*
X14094920Y-11148024D01*
X14094920Y-11148024D02*
X14075872Y-11148024D01*
X14075872Y-11148024D02*
X14056824Y-11138500D01*
X14056824Y-11138500D02*
X14047301Y-11128976D01*
X14047301Y-11128976D02*
X14037777Y-11109929D01*
X14037777Y-11109929D02*
X14028253Y-11071833D01*
X14028253Y-11071833D02*
X14028253Y-11024214D01*
X14028253Y-11024214D02*
X14037777Y-10986119D01*
X14037777Y-10986119D02*
X14047301Y-10967071D01*
X14047301Y-10967071D02*
X14056824Y-10957548D01*
X14056824Y-10957548D02*
X14075872Y-10948024D01*
X14228253Y-11128976D02*
X14237777Y-11138500D01*
X14237777Y-11138500D02*
X14228253Y-11148024D01*
X14228253Y-11148024D02*
X14218729Y-11138500D01*
X14218729Y-11138500D02*
X14228253Y-11128976D01*
X14228253Y-11128976D02*
X14228253Y-11148024D01*
X14304443Y-10948024D02*
X14428253Y-10948024D01*
X14428253Y-10948024D02*
X14361586Y-11024214D01*
X14361586Y-11024214D02*
X14390158Y-11024214D01*
X14390158Y-11024214D02*
X14409205Y-11033738D01*
X14409205Y-11033738D02*
X14418729Y-11043262D01*
X14418729Y-11043262D02*
X14428253Y-11062310D01*
X14428253Y-11062310D02*
X14428253Y-11109929D01*
X14428253Y-11109929D02*
X14418729Y-11128976D01*
X14418729Y-11128976D02*
X14409205Y-11138500D01*
X14409205Y-11138500D02*
X14390158Y-11148024D01*
X14390158Y-11148024D02*
X14333015Y-11148024D01*
X14333015Y-11148024D02*
X14313967Y-11138500D01*
X14313967Y-11138500D02*
X14304443Y-11128976D01*
X14542539Y-11033738D02*
X14523491Y-11024214D01*
X14523491Y-11024214D02*
X14513967Y-11014690D01*
X14513967Y-11014690D02*
X14504443Y-10995643D01*
X14504443Y-10995643D02*
X14504443Y-10986119D01*
X14504443Y-10986119D02*
X14513967Y-10967071D01*
X14513967Y-10967071D02*
X14523491Y-10957548D01*
X14523491Y-10957548D02*
X14542539Y-10948024D01*
X14542539Y-10948024D02*
X14580634Y-10948024D01*
X14580634Y-10948024D02*
X14599682Y-10957548D01*
X14599682Y-10957548D02*
X14609205Y-10967071D01*
X14609205Y-10967071D02*
X14618729Y-10986119D01*
X14618729Y-10986119D02*
X14618729Y-10995643D01*
X14618729Y-10995643D02*
X14609205Y-11014690D01*
X14609205Y-11014690D02*
X14599682Y-11024214D01*
X14599682Y-11024214D02*
X14580634Y-11033738D01*
X14580634Y-11033738D02*
X14542539Y-11033738D01*
X14542539Y-11033738D02*
X14523491Y-11043262D01*
X14523491Y-11043262D02*
X14513967Y-11052786D01*
X14513967Y-11052786D02*
X14504443Y-11071833D01*
X14504443Y-11071833D02*
X14504443Y-11109929D01*
X14504443Y-11109929D02*
X14513967Y-11128976D01*
X14513967Y-11128976D02*
X14523491Y-11138500D01*
X14523491Y-11138500D02*
X14542539Y-11148024D01*
X14542539Y-11148024D02*
X14580634Y-11148024D01*
X14580634Y-11148024D02*
X14599682Y-11138500D01*
X14599682Y-11138500D02*
X14609205Y-11128976D01*
X14609205Y-11128976D02*
X14618729Y-11109929D01*
X14618729Y-11109929D02*
X14618729Y-11071833D01*
X14618729Y-11071833D02*
X14609205Y-11052786D01*
X14609205Y-11052786D02*
X14599682Y-11043262D01*
X14599682Y-11043262D02*
X14580634Y-11033738D01*
X14809205Y-11148024D02*
X14694920Y-11148024D01*
X14752062Y-11148024D02*
X14752062Y-10948024D01*
X14752062Y-10948024D02*
X14733015Y-10976595D01*
X14733015Y-10976595D02*
X14713967Y-10995643D01*
X14713967Y-10995643D02*
X14694920Y-11005167D01*
X14894920Y-11148024D02*
X14894920Y-11014690D01*
X14894920Y-11033738D02*
X14904443Y-11024214D01*
X14904443Y-11024214D02*
X14923491Y-11014690D01*
X14923491Y-11014690D02*
X14952063Y-11014690D01*
X14952063Y-11014690D02*
X14971110Y-11024214D01*
X14971110Y-11024214D02*
X14980634Y-11043262D01*
X14980634Y-11043262D02*
X14980634Y-11148024D01*
X14980634Y-11043262D02*
X14990158Y-11024214D01*
X14990158Y-11024214D02*
X15009205Y-11014690D01*
X15009205Y-11014690D02*
X15037777Y-11014690D01*
X15037777Y-11014690D02*
X15056824Y-11024214D01*
X15056824Y-11024214D02*
X15066348Y-11043262D01*
X15066348Y-11043262D02*
X15066348Y-11148024D01*
X15161586Y-11148024D02*
X15161586Y-11014690D01*
X15161586Y-11033738D02*
X15171110Y-11024214D01*
X15171110Y-11024214D02*
X15190158Y-11014690D01*
X15190158Y-11014690D02*
X15218729Y-11014690D01*
X15218729Y-11014690D02*
X15237777Y-11024214D01*
X15237777Y-11024214D02*
X15247301Y-11043262D01*
X15247301Y-11043262D02*
X15247301Y-11148024D01*
X15247301Y-11043262D02*
X15256824Y-11024214D01*
X15256824Y-11024214D02*
X15275872Y-11014690D01*
X15275872Y-11014690D02*
X15304443Y-11014690D01*
X15304443Y-11014690D02*
X15323491Y-11024214D01*
X15323491Y-11024214D02*
X15333015Y-11043262D01*
X15333015Y-11043262D02*
X15333015Y-11148024D01*
X15723491Y-10938500D02*
X15552063Y-11195643D01*
X15980634Y-10948024D02*
X15999682Y-10948024D01*
X15999682Y-10948024D02*
X16018729Y-10957548D01*
X16018729Y-10957548D02*
X16028253Y-10967071D01*
X16028253Y-10967071D02*
X16037777Y-10986119D01*
X16037777Y-10986119D02*
X16047301Y-11024214D01*
X16047301Y-11024214D02*
X16047301Y-11071833D01*
X16047301Y-11071833D02*
X16037777Y-11109929D01*
X16037777Y-11109929D02*
X16028253Y-11128976D01*
X16028253Y-11128976D02*
X16018729Y-11138500D01*
X16018729Y-11138500D02*
X15999682Y-11148024D01*
X15999682Y-11148024D02*
X15980634Y-11148024D01*
X15980634Y-11148024D02*
X15961586Y-11138500D01*
X15961586Y-11138500D02*
X15952063Y-11128976D01*
X15952063Y-11128976D02*
X15942539Y-11109929D01*
X15942539Y-11109929D02*
X15933015Y-11071833D01*
X15933015Y-11071833D02*
X15933015Y-11024214D01*
X15933015Y-11024214D02*
X15942539Y-10986119D01*
X15942539Y-10986119D02*
X15952063Y-10967071D01*
X15952063Y-10967071D02*
X15961586Y-10957548D01*
X15961586Y-10957548D02*
X15980634Y-10948024D01*
X16133015Y-11128976D02*
X16142539Y-11138500D01*
X16142539Y-11138500D02*
X16133015Y-11148024D01*
X16133015Y-11148024D02*
X16123491Y-11138500D01*
X16123491Y-11138500D02*
X16133015Y-11128976D01*
X16133015Y-11128976D02*
X16133015Y-11148024D01*
X16266348Y-10948024D02*
X16285396Y-10948024D01*
X16285396Y-10948024D02*
X16304444Y-10957548D01*
X16304444Y-10957548D02*
X16313967Y-10967071D01*
X16313967Y-10967071D02*
X16323491Y-10986119D01*
X16323491Y-10986119D02*
X16333015Y-11024214D01*
X16333015Y-11024214D02*
X16333015Y-11071833D01*
X16333015Y-11071833D02*
X16323491Y-11109929D01*
X16323491Y-11109929D02*
X16313967Y-11128976D01*
X16313967Y-11128976D02*
X16304444Y-11138500D01*
X16304444Y-11138500D02*
X16285396Y-11148024D01*
X16285396Y-11148024D02*
X16266348Y-11148024D01*
X16266348Y-11148024D02*
X16247301Y-11138500D01*
X16247301Y-11138500D02*
X16237777Y-11128976D01*
X16237777Y-11128976D02*
X16228253Y-11109929D01*
X16228253Y-11109929D02*
X16218729Y-11071833D01*
X16218729Y-11071833D02*
X16218729Y-11024214D01*
X16218729Y-11024214D02*
X16228253Y-10986119D01*
X16228253Y-10986119D02*
X16237777Y-10967071D01*
X16237777Y-10967071D02*
X16247301Y-10957548D01*
X16247301Y-10957548D02*
X16266348Y-10948024D01*
X16523491Y-11148024D02*
X16409206Y-11148024D01*
X16466348Y-11148024D02*
X16466348Y-10948024D01*
X16466348Y-10948024D02*
X16447301Y-10976595D01*
X16447301Y-10976595D02*
X16428253Y-10995643D01*
X16428253Y-10995643D02*
X16409206Y-11005167D01*
X16704444Y-10948024D02*
X16609206Y-10948024D01*
X16609206Y-10948024D02*
X16599682Y-11043262D01*
X16599682Y-11043262D02*
X16609206Y-11033738D01*
X16609206Y-11033738D02*
X16628253Y-11024214D01*
X16628253Y-11024214D02*
X16675872Y-11024214D01*
X16675872Y-11024214D02*
X16694920Y-11033738D01*
X16694920Y-11033738D02*
X16704444Y-11043262D01*
X16704444Y-11043262D02*
X16713967Y-11062310D01*
X16713967Y-11062310D02*
X16713967Y-11109929D01*
X16713967Y-11109929D02*
X16704444Y-11128976D01*
X16704444Y-11128976D02*
X16694920Y-11138500D01*
X16694920Y-11138500D02*
X16675872Y-11148024D01*
X16675872Y-11148024D02*
X16628253Y-11148024D01*
X16628253Y-11148024D02*
X16609206Y-11138500D01*
X16609206Y-11138500D02*
X16599682Y-11128976D01*
X16837777Y-10948024D02*
X16856825Y-10948024D01*
X16856825Y-10948024D02*
X16875872Y-10957548D01*
X16875872Y-10957548D02*
X16885396Y-10967071D01*
X16885396Y-10967071D02*
X16894920Y-10986119D01*
X16894920Y-10986119D02*
X16904444Y-11024214D01*
X16904444Y-11024214D02*
X16904444Y-11071833D01*
X16904444Y-11071833D02*
X16894920Y-11109929D01*
X16894920Y-11109929D02*
X16885396Y-11128976D01*
X16885396Y-11128976D02*
X16875872Y-11138500D01*
X16875872Y-11138500D02*
X16856825Y-11148024D01*
X16856825Y-11148024D02*
X16837777Y-11148024D01*
X16837777Y-11148024D02*
X16818729Y-11138500D01*
X16818729Y-11138500D02*
X16809206Y-11128976D01*
X16809206Y-11128976D02*
X16799682Y-11109929D01*
X16799682Y-11109929D02*
X16790158Y-11071833D01*
X16790158Y-11071833D02*
X16790158Y-11024214D01*
X16790158Y-11024214D02*
X16799682Y-10986119D01*
X16799682Y-10986119D02*
X16809206Y-10967071D01*
X16809206Y-10967071D02*
X16818729Y-10957548D01*
X16818729Y-10957548D02*
X16837777Y-10948024D01*
X16980634Y-10948024D02*
X16980634Y-10986119D01*
X17056825Y-10948024D02*
X17056825Y-10986119D01*
X17352063Y-11224214D02*
X17342539Y-11214690D01*
X17342539Y-11214690D02*
X17323491Y-11186119D01*
X17323491Y-11186119D02*
X17313968Y-11167071D01*
X17313968Y-11167071D02*
X17304444Y-11138500D01*
X17304444Y-11138500D02*
X17294920Y-11090881D01*
X17294920Y-11090881D02*
X17294920Y-11052786D01*
X17294920Y-11052786D02*
X17304444Y-11005167D01*
X17304444Y-11005167D02*
X17313968Y-10976595D01*
X17313968Y-10976595D02*
X17323491Y-10957548D01*
X17323491Y-10957548D02*
X17342539Y-10928976D01*
X17342539Y-10928976D02*
X17352063Y-10919452D01*
X17533015Y-11148024D02*
X17418730Y-11148024D01*
X17475872Y-11148024D02*
X17475872Y-10948024D01*
X17475872Y-10948024D02*
X17456825Y-10976595D01*
X17456825Y-10976595D02*
X17437777Y-10995643D01*
X17437777Y-10995643D02*
X17418730Y-11005167D01*
X17713968Y-10948024D02*
X17618730Y-10948024D01*
X17618730Y-10948024D02*
X17609206Y-11043262D01*
X17609206Y-11043262D02*
X17618730Y-11033738D01*
X17618730Y-11033738D02*
X17637777Y-11024214D01*
X17637777Y-11024214D02*
X17685396Y-11024214D01*
X17685396Y-11024214D02*
X17704444Y-11033738D01*
X17704444Y-11033738D02*
X17713968Y-11043262D01*
X17713968Y-11043262D02*
X17723491Y-11062310D01*
X17723491Y-11062310D02*
X17723491Y-11109929D01*
X17723491Y-11109929D02*
X17713968Y-11128976D01*
X17713968Y-11128976D02*
X17704444Y-11138500D01*
X17704444Y-11138500D02*
X17685396Y-11148024D01*
X17685396Y-11148024D02*
X17637777Y-11148024D01*
X17637777Y-11148024D02*
X17618730Y-11138500D01*
X17618730Y-11138500D02*
X17609206Y-11128976D01*
X17961587Y-11148024D02*
X17961587Y-10948024D01*
X18047301Y-11148024D02*
X18047301Y-11043262D01*
X18047301Y-11043262D02*
X18037777Y-11024214D01*
X18037777Y-11024214D02*
X18018730Y-11014690D01*
X18018730Y-11014690D02*
X17990158Y-11014690D01*
X17990158Y-11014690D02*
X17971111Y-11024214D01*
X17971111Y-11024214D02*
X17961587Y-11033738D01*
X18171111Y-11148024D02*
X18152063Y-11138500D01*
X18152063Y-11138500D02*
X18142539Y-11128976D01*
X18142539Y-11128976D02*
X18133015Y-11109929D01*
X18133015Y-11109929D02*
X18133015Y-11052786D01*
X18133015Y-11052786D02*
X18142539Y-11033738D01*
X18142539Y-11033738D02*
X18152063Y-11024214D01*
X18152063Y-11024214D02*
X18171111Y-11014690D01*
X18171111Y-11014690D02*
X18199682Y-11014690D01*
X18199682Y-11014690D02*
X18218730Y-11024214D01*
X18218730Y-11024214D02*
X18228253Y-11033738D01*
X18228253Y-11033738D02*
X18237777Y-11052786D01*
X18237777Y-11052786D02*
X18237777Y-11109929D01*
X18237777Y-11109929D02*
X18228253Y-11128976D01*
X18228253Y-11128976D02*
X18218730Y-11138500D01*
X18218730Y-11138500D02*
X18199682Y-11148024D01*
X18199682Y-11148024D02*
X18171111Y-11148024D01*
X18352063Y-11148024D02*
X18333015Y-11138500D01*
X18333015Y-11138500D02*
X18323492Y-11119452D01*
X18323492Y-11119452D02*
X18323492Y-10948024D01*
X18504444Y-11138500D02*
X18485396Y-11148024D01*
X18485396Y-11148024D02*
X18447301Y-11148024D01*
X18447301Y-11148024D02*
X18428253Y-11138500D01*
X18428253Y-11138500D02*
X18418730Y-11119452D01*
X18418730Y-11119452D02*
X18418730Y-11043262D01*
X18418730Y-11043262D02*
X18428253Y-11024214D01*
X18428253Y-11024214D02*
X18447301Y-11014690D01*
X18447301Y-11014690D02*
X18485396Y-11014690D01*
X18485396Y-11014690D02*
X18504444Y-11024214D01*
X18504444Y-11024214D02*
X18513968Y-11043262D01*
X18513968Y-11043262D02*
X18513968Y-11062310D01*
X18513968Y-11062310D02*
X18418730Y-11081357D01*
X18590158Y-11138500D02*
X18609206Y-11148024D01*
X18609206Y-11148024D02*
X18647301Y-11148024D01*
X18647301Y-11148024D02*
X18666349Y-11138500D01*
X18666349Y-11138500D02*
X18675873Y-11119452D01*
X18675873Y-11119452D02*
X18675873Y-11109929D01*
X18675873Y-11109929D02*
X18666349Y-11090881D01*
X18666349Y-11090881D02*
X18647301Y-11081357D01*
X18647301Y-11081357D02*
X18618730Y-11081357D01*
X18618730Y-11081357D02*
X18599682Y-11071833D01*
X18599682Y-11071833D02*
X18590158Y-11052786D01*
X18590158Y-11052786D02*
X18590158Y-11043262D01*
X18590158Y-11043262D02*
X18599682Y-11024214D01*
X18599682Y-11024214D02*
X18618730Y-11014690D01*
X18618730Y-11014690D02*
X18647301Y-11014690D01*
X18647301Y-11014690D02*
X18666349Y-11024214D01*
X18742539Y-11224214D02*
X18752063Y-11214690D01*
X18752063Y-11214690D02*
X18771111Y-11186119D01*
X18771111Y-11186119D02*
X18780634Y-11167071D01*
X18780634Y-11167071D02*
X18790158Y-11138500D01*
X18790158Y-11138500D02*
X18799682Y-11090881D01*
X18799682Y-11090881D02*
X18799682Y-11052786D01*
X18799682Y-11052786D02*
X18790158Y-11005167D01*
X18790158Y-11005167D02*
X18780634Y-10976595D01*
X18780634Y-10976595D02*
X18771111Y-10957548D01*
X18771111Y-10957548D02*
X18752063Y-10928976D01*
X18752063Y-10928976D02*
X18742539Y-10919452D01*
D12*
X13727000Y-11270540D02*
X13727000Y-11370540D01*
X13677000Y-11320540D02*
X13777000Y-11320540D01*
D11*
X14142539Y-11412024D02*
X14028253Y-11412024D01*
X14085396Y-11412024D02*
X14085396Y-11212024D01*
X14085396Y-11212024D02*
X14066348Y-11240595D01*
X14066348Y-11240595D02*
X14047301Y-11259643D01*
X14047301Y-11259643D02*
X14028253Y-11269167D01*
X14228253Y-11392976D02*
X14237777Y-11402500D01*
X14237777Y-11402500D02*
X14228253Y-11412024D01*
X14228253Y-11412024D02*
X14218729Y-11402500D01*
X14218729Y-11402500D02*
X14228253Y-11392976D01*
X14228253Y-11392976D02*
X14228253Y-11412024D01*
X14361586Y-11212024D02*
X14380634Y-11212024D01*
X14380634Y-11212024D02*
X14399682Y-11221548D01*
X14399682Y-11221548D02*
X14409205Y-11231071D01*
X14409205Y-11231071D02*
X14418729Y-11250119D01*
X14418729Y-11250119D02*
X14428253Y-11288214D01*
X14428253Y-11288214D02*
X14428253Y-11335833D01*
X14428253Y-11335833D02*
X14418729Y-11373928D01*
X14418729Y-11373928D02*
X14409205Y-11392976D01*
X14409205Y-11392976D02*
X14399682Y-11402500D01*
X14399682Y-11402500D02*
X14380634Y-11412024D01*
X14380634Y-11412024D02*
X14361586Y-11412024D01*
X14361586Y-11412024D02*
X14342539Y-11402500D01*
X14342539Y-11402500D02*
X14333015Y-11392976D01*
X14333015Y-11392976D02*
X14323491Y-11373928D01*
X14323491Y-11373928D02*
X14313967Y-11335833D01*
X14313967Y-11335833D02*
X14313967Y-11288214D01*
X14313967Y-11288214D02*
X14323491Y-11250119D01*
X14323491Y-11250119D02*
X14333015Y-11231071D01*
X14333015Y-11231071D02*
X14342539Y-11221548D01*
X14342539Y-11221548D02*
X14361586Y-11212024D01*
X14552062Y-11212024D02*
X14571110Y-11212024D01*
X14571110Y-11212024D02*
X14590158Y-11221548D01*
X14590158Y-11221548D02*
X14599682Y-11231071D01*
X14599682Y-11231071D02*
X14609205Y-11250119D01*
X14609205Y-11250119D02*
X14618729Y-11288214D01*
X14618729Y-11288214D02*
X14618729Y-11335833D01*
X14618729Y-11335833D02*
X14609205Y-11373928D01*
X14609205Y-11373928D02*
X14599682Y-11392976D01*
X14599682Y-11392976D02*
X14590158Y-11402500D01*
X14590158Y-11402500D02*
X14571110Y-11412024D01*
X14571110Y-11412024D02*
X14552062Y-11412024D01*
X14552062Y-11412024D02*
X14533015Y-11402500D01*
X14533015Y-11402500D02*
X14523491Y-11392976D01*
X14523491Y-11392976D02*
X14513967Y-11373928D01*
X14513967Y-11373928D02*
X14504443Y-11335833D01*
X14504443Y-11335833D02*
X14504443Y-11288214D01*
X14504443Y-11288214D02*
X14513967Y-11250119D01*
X14513967Y-11250119D02*
X14523491Y-11231071D01*
X14523491Y-11231071D02*
X14533015Y-11221548D01*
X14533015Y-11221548D02*
X14552062Y-11212024D01*
X14742539Y-11212024D02*
X14761586Y-11212024D01*
X14761586Y-11212024D02*
X14780634Y-11221548D01*
X14780634Y-11221548D02*
X14790158Y-11231071D01*
X14790158Y-11231071D02*
X14799682Y-11250119D01*
X14799682Y-11250119D02*
X14809205Y-11288214D01*
X14809205Y-11288214D02*
X14809205Y-11335833D01*
X14809205Y-11335833D02*
X14799682Y-11373928D01*
X14799682Y-11373928D02*
X14790158Y-11392976D01*
X14790158Y-11392976D02*
X14780634Y-11402500D01*
X14780634Y-11402500D02*
X14761586Y-11412024D01*
X14761586Y-11412024D02*
X14742539Y-11412024D01*
X14742539Y-11412024D02*
X14723491Y-11402500D01*
X14723491Y-11402500D02*
X14713967Y-11392976D01*
X14713967Y-11392976D02*
X14704443Y-11373928D01*
X14704443Y-11373928D02*
X14694920Y-11335833D01*
X14694920Y-11335833D02*
X14694920Y-11288214D01*
X14694920Y-11288214D02*
X14704443Y-11250119D01*
X14704443Y-11250119D02*
X14713967Y-11231071D01*
X14713967Y-11231071D02*
X14723491Y-11221548D01*
X14723491Y-11221548D02*
X14742539Y-11212024D01*
X14894920Y-11412024D02*
X14894920Y-11278690D01*
X14894920Y-11297738D02*
X14904443Y-11288214D01*
X14904443Y-11288214D02*
X14923491Y-11278690D01*
X14923491Y-11278690D02*
X14952063Y-11278690D01*
X14952063Y-11278690D02*
X14971110Y-11288214D01*
X14971110Y-11288214D02*
X14980634Y-11307262D01*
X14980634Y-11307262D02*
X14980634Y-11412024D01*
X14980634Y-11307262D02*
X14990158Y-11288214D01*
X14990158Y-11288214D02*
X15009205Y-11278690D01*
X15009205Y-11278690D02*
X15037777Y-11278690D01*
X15037777Y-11278690D02*
X15056824Y-11288214D01*
X15056824Y-11288214D02*
X15066348Y-11307262D01*
X15066348Y-11307262D02*
X15066348Y-11412024D01*
X15161586Y-11412024D02*
X15161586Y-11278690D01*
X15161586Y-11297738D02*
X15171110Y-11288214D01*
X15171110Y-11288214D02*
X15190158Y-11278690D01*
X15190158Y-11278690D02*
X15218729Y-11278690D01*
X15218729Y-11278690D02*
X15237777Y-11288214D01*
X15237777Y-11288214D02*
X15247301Y-11307262D01*
X15247301Y-11307262D02*
X15247301Y-11412024D01*
X15247301Y-11307262D02*
X15256824Y-11288214D01*
X15256824Y-11288214D02*
X15275872Y-11278690D01*
X15275872Y-11278690D02*
X15304443Y-11278690D01*
X15304443Y-11278690D02*
X15323491Y-11288214D01*
X15323491Y-11288214D02*
X15333015Y-11307262D01*
X15333015Y-11307262D02*
X15333015Y-11412024D01*
X15723491Y-11202500D02*
X15552063Y-11459643D01*
X15980634Y-11212024D02*
X15999682Y-11212024D01*
X15999682Y-11212024D02*
X16018729Y-11221548D01*
X16018729Y-11221548D02*
X16028253Y-11231071D01*
X16028253Y-11231071D02*
X16037777Y-11250119D01*
X16037777Y-11250119D02*
X16047301Y-11288214D01*
X16047301Y-11288214D02*
X16047301Y-11335833D01*
X16047301Y-11335833D02*
X16037777Y-11373928D01*
X16037777Y-11373928D02*
X16028253Y-11392976D01*
X16028253Y-11392976D02*
X16018729Y-11402500D01*
X16018729Y-11402500D02*
X15999682Y-11412024D01*
X15999682Y-11412024D02*
X15980634Y-11412024D01*
X15980634Y-11412024D02*
X15961586Y-11402500D01*
X15961586Y-11402500D02*
X15952063Y-11392976D01*
X15952063Y-11392976D02*
X15942539Y-11373928D01*
X15942539Y-11373928D02*
X15933015Y-11335833D01*
X15933015Y-11335833D02*
X15933015Y-11288214D01*
X15933015Y-11288214D02*
X15942539Y-11250119D01*
X15942539Y-11250119D02*
X15952063Y-11231071D01*
X15952063Y-11231071D02*
X15961586Y-11221548D01*
X15961586Y-11221548D02*
X15980634Y-11212024D01*
X16133015Y-11392976D02*
X16142539Y-11402500D01*
X16142539Y-11402500D02*
X16133015Y-11412024D01*
X16133015Y-11412024D02*
X16123491Y-11402500D01*
X16123491Y-11402500D02*
X16133015Y-11392976D01*
X16133015Y-11392976D02*
X16133015Y-11412024D01*
X16266348Y-11212024D02*
X16285396Y-11212024D01*
X16285396Y-11212024D02*
X16304444Y-11221548D01*
X16304444Y-11221548D02*
X16313967Y-11231071D01*
X16313967Y-11231071D02*
X16323491Y-11250119D01*
X16323491Y-11250119D02*
X16333015Y-11288214D01*
X16333015Y-11288214D02*
X16333015Y-11335833D01*
X16333015Y-11335833D02*
X16323491Y-11373928D01*
X16323491Y-11373928D02*
X16313967Y-11392976D01*
X16313967Y-11392976D02*
X16304444Y-11402500D01*
X16304444Y-11402500D02*
X16285396Y-11412024D01*
X16285396Y-11412024D02*
X16266348Y-11412024D01*
X16266348Y-11412024D02*
X16247301Y-11402500D01*
X16247301Y-11402500D02*
X16237777Y-11392976D01*
X16237777Y-11392976D02*
X16228253Y-11373928D01*
X16228253Y-11373928D02*
X16218729Y-11335833D01*
X16218729Y-11335833D02*
X16218729Y-11288214D01*
X16218729Y-11288214D02*
X16228253Y-11250119D01*
X16228253Y-11250119D02*
X16237777Y-11231071D01*
X16237777Y-11231071D02*
X16247301Y-11221548D01*
X16247301Y-11221548D02*
X16266348Y-11212024D01*
X16399682Y-11212024D02*
X16523491Y-11212024D01*
X16523491Y-11212024D02*
X16456825Y-11288214D01*
X16456825Y-11288214D02*
X16485396Y-11288214D01*
X16485396Y-11288214D02*
X16504444Y-11297738D01*
X16504444Y-11297738D02*
X16513967Y-11307262D01*
X16513967Y-11307262D02*
X16523491Y-11326309D01*
X16523491Y-11326309D02*
X16523491Y-11373928D01*
X16523491Y-11373928D02*
X16513967Y-11392976D01*
X16513967Y-11392976D02*
X16504444Y-11402500D01*
X16504444Y-11402500D02*
X16485396Y-11412024D01*
X16485396Y-11412024D02*
X16428253Y-11412024D01*
X16428253Y-11412024D02*
X16409206Y-11402500D01*
X16409206Y-11402500D02*
X16399682Y-11392976D01*
X16618729Y-11412024D02*
X16656825Y-11412024D01*
X16656825Y-11412024D02*
X16675872Y-11402500D01*
X16675872Y-11402500D02*
X16685396Y-11392976D01*
X16685396Y-11392976D02*
X16704444Y-11364405D01*
X16704444Y-11364405D02*
X16713967Y-11326309D01*
X16713967Y-11326309D02*
X16713967Y-11250119D01*
X16713967Y-11250119D02*
X16704444Y-11231071D01*
X16704444Y-11231071D02*
X16694920Y-11221548D01*
X16694920Y-11221548D02*
X16675872Y-11212024D01*
X16675872Y-11212024D02*
X16637777Y-11212024D01*
X16637777Y-11212024D02*
X16618729Y-11221548D01*
X16618729Y-11221548D02*
X16609206Y-11231071D01*
X16609206Y-11231071D02*
X16599682Y-11250119D01*
X16599682Y-11250119D02*
X16599682Y-11297738D01*
X16599682Y-11297738D02*
X16609206Y-11316786D01*
X16609206Y-11316786D02*
X16618729Y-11326309D01*
X16618729Y-11326309D02*
X16637777Y-11335833D01*
X16637777Y-11335833D02*
X16675872Y-11335833D01*
X16675872Y-11335833D02*
X16694920Y-11326309D01*
X16694920Y-11326309D02*
X16704444Y-11316786D01*
X16704444Y-11316786D02*
X16713967Y-11297738D01*
X16885396Y-11278690D02*
X16885396Y-11412024D01*
X16837777Y-11202500D02*
X16790158Y-11345357D01*
X16790158Y-11345357D02*
X16913968Y-11345357D01*
X16980634Y-11212024D02*
X16980634Y-11250119D01*
X17056825Y-11212024D02*
X17056825Y-11250119D01*
X17352063Y-11488214D02*
X17342539Y-11478690D01*
X17342539Y-11478690D02*
X17323491Y-11450119D01*
X17323491Y-11450119D02*
X17313968Y-11431071D01*
X17313968Y-11431071D02*
X17304444Y-11402500D01*
X17304444Y-11402500D02*
X17294920Y-11354881D01*
X17294920Y-11354881D02*
X17294920Y-11316786D01*
X17294920Y-11316786D02*
X17304444Y-11269167D01*
X17304444Y-11269167D02*
X17313968Y-11240595D01*
X17313968Y-11240595D02*
X17323491Y-11221548D01*
X17323491Y-11221548D02*
X17342539Y-11192976D01*
X17342539Y-11192976D02*
X17352063Y-11183452D01*
X17513968Y-11212024D02*
X17475872Y-11212024D01*
X17475872Y-11212024D02*
X17456825Y-11221548D01*
X17456825Y-11221548D02*
X17447301Y-11231071D01*
X17447301Y-11231071D02*
X17428253Y-11259643D01*
X17428253Y-11259643D02*
X17418730Y-11297738D01*
X17418730Y-11297738D02*
X17418730Y-11373928D01*
X17418730Y-11373928D02*
X17428253Y-11392976D01*
X17428253Y-11392976D02*
X17437777Y-11402500D01*
X17437777Y-11402500D02*
X17456825Y-11412024D01*
X17456825Y-11412024D02*
X17494920Y-11412024D01*
X17494920Y-11412024D02*
X17513968Y-11402500D01*
X17513968Y-11402500D02*
X17523491Y-11392976D01*
X17523491Y-11392976D02*
X17533015Y-11373928D01*
X17533015Y-11373928D02*
X17533015Y-11326309D01*
X17533015Y-11326309D02*
X17523491Y-11307262D01*
X17523491Y-11307262D02*
X17513968Y-11297738D01*
X17513968Y-11297738D02*
X17494920Y-11288214D01*
X17494920Y-11288214D02*
X17456825Y-11288214D01*
X17456825Y-11288214D02*
X17437777Y-11297738D01*
X17437777Y-11297738D02*
X17428253Y-11307262D01*
X17428253Y-11307262D02*
X17418730Y-11326309D01*
X17704444Y-11278690D02*
X17704444Y-11412024D01*
X17656825Y-11202500D02*
X17609206Y-11345357D01*
X17609206Y-11345357D02*
X17733015Y-11345357D01*
X17961587Y-11412024D02*
X17961587Y-11212024D01*
X18047301Y-11412024D02*
X18047301Y-11307262D01*
X18047301Y-11307262D02*
X18037777Y-11288214D01*
X18037777Y-11288214D02*
X18018730Y-11278690D01*
X18018730Y-11278690D02*
X17990158Y-11278690D01*
X17990158Y-11278690D02*
X17971111Y-11288214D01*
X17971111Y-11288214D02*
X17961587Y-11297738D01*
X18171111Y-11412024D02*
X18152063Y-11402500D01*
X18152063Y-11402500D02*
X18142539Y-11392976D01*
X18142539Y-11392976D02*
X18133015Y-11373928D01*
X18133015Y-11373928D02*
X18133015Y-11316786D01*
X18133015Y-11316786D02*
X18142539Y-11297738D01*
X18142539Y-11297738D02*
X18152063Y-11288214D01*
X18152063Y-11288214D02*
X18171111Y-11278690D01*
X18171111Y-11278690D02*
X18199682Y-11278690D01*
X18199682Y-11278690D02*
X18218730Y-11288214D01*
X18218730Y-11288214D02*
X18228253Y-11297738D01*
X18228253Y-11297738D02*
X18237777Y-11316786D01*
X18237777Y-11316786D02*
X18237777Y-11373928D01*
X18237777Y-11373928D02*
X18228253Y-11392976D01*
X18228253Y-11392976D02*
X18218730Y-11402500D01*
X18218730Y-11402500D02*
X18199682Y-11412024D01*
X18199682Y-11412024D02*
X18171111Y-11412024D01*
X18352063Y-11412024D02*
X18333015Y-11402500D01*
X18333015Y-11402500D02*
X18323492Y-11383452D01*
X18323492Y-11383452D02*
X18323492Y-11212024D01*
X18504444Y-11402500D02*
X18485396Y-11412024D01*
X18485396Y-11412024D02*
X18447301Y-11412024D01*
X18447301Y-11412024D02*
X18428253Y-11402500D01*
X18428253Y-11402500D02*
X18418730Y-11383452D01*
X18418730Y-11383452D02*
X18418730Y-11307262D01*
X18418730Y-11307262D02*
X18428253Y-11288214D01*
X18428253Y-11288214D02*
X18447301Y-11278690D01*
X18447301Y-11278690D02*
X18485396Y-11278690D01*
X18485396Y-11278690D02*
X18504444Y-11288214D01*
X18504444Y-11288214D02*
X18513968Y-11307262D01*
X18513968Y-11307262D02*
X18513968Y-11326309D01*
X18513968Y-11326309D02*
X18418730Y-11345357D01*
X18590158Y-11402500D02*
X18609206Y-11412024D01*
X18609206Y-11412024D02*
X18647301Y-11412024D01*
X18647301Y-11412024D02*
X18666349Y-11402500D01*
X18666349Y-11402500D02*
X18675873Y-11383452D01*
X18675873Y-11383452D02*
X18675873Y-11373928D01*
X18675873Y-11373928D02*
X18666349Y-11354881D01*
X18666349Y-11354881D02*
X18647301Y-11345357D01*
X18647301Y-11345357D02*
X18618730Y-11345357D01*
X18618730Y-11345357D02*
X18599682Y-11335833D01*
X18599682Y-11335833D02*
X18590158Y-11316786D01*
X18590158Y-11316786D02*
X18590158Y-11307262D01*
X18590158Y-11307262D02*
X18599682Y-11288214D01*
X18599682Y-11288214D02*
X18618730Y-11278690D01*
X18618730Y-11278690D02*
X18647301Y-11278690D01*
X18647301Y-11278690D02*
X18666349Y-11288214D01*
X18742539Y-11488214D02*
X18752063Y-11478690D01*
X18752063Y-11478690D02*
X18771111Y-11450119D01*
X18771111Y-11450119D02*
X18780634Y-11431071D01*
X18780634Y-11431071D02*
X18790158Y-11402500D01*
X18790158Y-11402500D02*
X18799682Y-11354881D01*
X18799682Y-11354881D02*
X18799682Y-11316786D01*
X18799682Y-11316786D02*
X18790158Y-11269167D01*
X18790158Y-11269167D02*
X18780634Y-11240595D01*
X18780634Y-11240595D02*
X18771111Y-11221548D01*
X18771111Y-11221548D02*
X18752063Y-11192976D01*
X18752063Y-11192976D02*
X18742539Y-11183452D01*
D13*
X13756498Y-11634038D02*
X13756498Y-11535042D01*
X13657502Y-11535042D01*
X13657502Y-11634038D01*
X13756498Y-11634038D01*
D11*
X14142539Y-11676024D02*
X14028253Y-11676024D01*
X14085396Y-11676024D02*
X14085396Y-11476024D01*
X14085396Y-11476024D02*
X14066348Y-11504595D01*
X14066348Y-11504595D02*
X14047301Y-11523643D01*
X14047301Y-11523643D02*
X14028253Y-11533167D01*
X14228253Y-11656976D02*
X14237777Y-11666500D01*
X14237777Y-11666500D02*
X14228253Y-11676024D01*
X14228253Y-11676024D02*
X14218729Y-11666500D01*
X14218729Y-11666500D02*
X14228253Y-11656976D01*
X14228253Y-11656976D02*
X14228253Y-11676024D01*
X14409205Y-11542690D02*
X14409205Y-11676024D01*
X14361586Y-11466500D02*
X14313967Y-11609357D01*
X14313967Y-11609357D02*
X14437777Y-11609357D01*
X14552062Y-11476024D02*
X14571110Y-11476024D01*
X14571110Y-11476024D02*
X14590158Y-11485548D01*
X14590158Y-11485548D02*
X14599682Y-11495071D01*
X14599682Y-11495071D02*
X14609205Y-11514119D01*
X14609205Y-11514119D02*
X14618729Y-11552214D01*
X14618729Y-11552214D02*
X14618729Y-11599833D01*
X14618729Y-11599833D02*
X14609205Y-11637928D01*
X14609205Y-11637928D02*
X14599682Y-11656976D01*
X14599682Y-11656976D02*
X14590158Y-11666500D01*
X14590158Y-11666500D02*
X14571110Y-11676024D01*
X14571110Y-11676024D02*
X14552062Y-11676024D01*
X14552062Y-11676024D02*
X14533015Y-11666500D01*
X14533015Y-11666500D02*
X14523491Y-11656976D01*
X14523491Y-11656976D02*
X14513967Y-11637928D01*
X14513967Y-11637928D02*
X14504443Y-11599833D01*
X14504443Y-11599833D02*
X14504443Y-11552214D01*
X14504443Y-11552214D02*
X14513967Y-11514119D01*
X14513967Y-11514119D02*
X14523491Y-11495071D01*
X14523491Y-11495071D02*
X14533015Y-11485548D01*
X14533015Y-11485548D02*
X14552062Y-11476024D01*
X14742539Y-11476024D02*
X14761586Y-11476024D01*
X14761586Y-11476024D02*
X14780634Y-11485548D01*
X14780634Y-11485548D02*
X14790158Y-11495071D01*
X14790158Y-11495071D02*
X14799682Y-11514119D01*
X14799682Y-11514119D02*
X14809205Y-11552214D01*
X14809205Y-11552214D02*
X14809205Y-11599833D01*
X14809205Y-11599833D02*
X14799682Y-11637928D01*
X14799682Y-11637928D02*
X14790158Y-11656976D01*
X14790158Y-11656976D02*
X14780634Y-11666500D01*
X14780634Y-11666500D02*
X14761586Y-11676024D01*
X14761586Y-11676024D02*
X14742539Y-11676024D01*
X14742539Y-11676024D02*
X14723491Y-11666500D01*
X14723491Y-11666500D02*
X14713967Y-11656976D01*
X14713967Y-11656976D02*
X14704443Y-11637928D01*
X14704443Y-11637928D02*
X14694920Y-11599833D01*
X14694920Y-11599833D02*
X14694920Y-11552214D01*
X14694920Y-11552214D02*
X14704443Y-11514119D01*
X14704443Y-11514119D02*
X14713967Y-11495071D01*
X14713967Y-11495071D02*
X14723491Y-11485548D01*
X14723491Y-11485548D02*
X14742539Y-11476024D01*
X14894920Y-11676024D02*
X14894920Y-11542690D01*
X14894920Y-11561738D02*
X14904443Y-11552214D01*
X14904443Y-11552214D02*
X14923491Y-11542690D01*
X14923491Y-11542690D02*
X14952063Y-11542690D01*
X14952063Y-11542690D02*
X14971110Y-11552214D01*
X14971110Y-11552214D02*
X14980634Y-11571262D01*
X14980634Y-11571262D02*
X14980634Y-11676024D01*
X14980634Y-11571262D02*
X14990158Y-11552214D01*
X14990158Y-11552214D02*
X15009205Y-11542690D01*
X15009205Y-11542690D02*
X15037777Y-11542690D01*
X15037777Y-11542690D02*
X15056824Y-11552214D01*
X15056824Y-11552214D02*
X15066348Y-11571262D01*
X15066348Y-11571262D02*
X15066348Y-11676024D01*
X15161586Y-11676024D02*
X15161586Y-11542690D01*
X15161586Y-11561738D02*
X15171110Y-11552214D01*
X15171110Y-11552214D02*
X15190158Y-11542690D01*
X15190158Y-11542690D02*
X15218729Y-11542690D01*
X15218729Y-11542690D02*
X15237777Y-11552214D01*
X15237777Y-11552214D02*
X15247301Y-11571262D01*
X15247301Y-11571262D02*
X15247301Y-11676024D01*
X15247301Y-11571262D02*
X15256824Y-11552214D01*
X15256824Y-11552214D02*
X15275872Y-11542690D01*
X15275872Y-11542690D02*
X15304443Y-11542690D01*
X15304443Y-11542690D02*
X15323491Y-11552214D01*
X15323491Y-11552214D02*
X15333015Y-11571262D01*
X15333015Y-11571262D02*
X15333015Y-11676024D01*
X15723491Y-11466500D02*
X15552063Y-11723643D01*
X15980634Y-11476024D02*
X15999682Y-11476024D01*
X15999682Y-11476024D02*
X16018729Y-11485548D01*
X16018729Y-11485548D02*
X16028253Y-11495071D01*
X16028253Y-11495071D02*
X16037777Y-11514119D01*
X16037777Y-11514119D02*
X16047301Y-11552214D01*
X16047301Y-11552214D02*
X16047301Y-11599833D01*
X16047301Y-11599833D02*
X16037777Y-11637928D01*
X16037777Y-11637928D02*
X16028253Y-11656976D01*
X16028253Y-11656976D02*
X16018729Y-11666500D01*
X16018729Y-11666500D02*
X15999682Y-11676024D01*
X15999682Y-11676024D02*
X15980634Y-11676024D01*
X15980634Y-11676024D02*
X15961586Y-11666500D01*
X15961586Y-11666500D02*
X15952063Y-11656976D01*
X15952063Y-11656976D02*
X15942539Y-11637928D01*
X15942539Y-11637928D02*
X15933015Y-11599833D01*
X15933015Y-11599833D02*
X15933015Y-11552214D01*
X15933015Y-11552214D02*
X15942539Y-11514119D01*
X15942539Y-11514119D02*
X15952063Y-11495071D01*
X15952063Y-11495071D02*
X15961586Y-11485548D01*
X15961586Y-11485548D02*
X15980634Y-11476024D01*
X16133015Y-11656976D02*
X16142539Y-11666500D01*
X16142539Y-11666500D02*
X16133015Y-11676024D01*
X16133015Y-11676024D02*
X16123491Y-11666500D01*
X16123491Y-11666500D02*
X16133015Y-11656976D01*
X16133015Y-11656976D02*
X16133015Y-11676024D01*
X16266348Y-11476024D02*
X16285396Y-11476024D01*
X16285396Y-11476024D02*
X16304444Y-11485548D01*
X16304444Y-11485548D02*
X16313967Y-11495071D01*
X16313967Y-11495071D02*
X16323491Y-11514119D01*
X16323491Y-11514119D02*
X16333015Y-11552214D01*
X16333015Y-11552214D02*
X16333015Y-11599833D01*
X16333015Y-11599833D02*
X16323491Y-11637928D01*
X16323491Y-11637928D02*
X16313967Y-11656976D01*
X16313967Y-11656976D02*
X16304444Y-11666500D01*
X16304444Y-11666500D02*
X16285396Y-11676024D01*
X16285396Y-11676024D02*
X16266348Y-11676024D01*
X16266348Y-11676024D02*
X16247301Y-11666500D01*
X16247301Y-11666500D02*
X16237777Y-11656976D01*
X16237777Y-11656976D02*
X16228253Y-11637928D01*
X16228253Y-11637928D02*
X16218729Y-11599833D01*
X16218729Y-11599833D02*
X16218729Y-11552214D01*
X16218729Y-11552214D02*
X16228253Y-11514119D01*
X16228253Y-11514119D02*
X16237777Y-11495071D01*
X16237777Y-11495071D02*
X16247301Y-11485548D01*
X16247301Y-11485548D02*
X16266348Y-11476024D01*
X16513967Y-11476024D02*
X16418729Y-11476024D01*
X16418729Y-11476024D02*
X16409206Y-11571262D01*
X16409206Y-11571262D02*
X16418729Y-11561738D01*
X16418729Y-11561738D02*
X16437777Y-11552214D01*
X16437777Y-11552214D02*
X16485396Y-11552214D01*
X16485396Y-11552214D02*
X16504444Y-11561738D01*
X16504444Y-11561738D02*
X16513967Y-11571262D01*
X16513967Y-11571262D02*
X16523491Y-11590309D01*
X16523491Y-11590309D02*
X16523491Y-11637928D01*
X16523491Y-11637928D02*
X16513967Y-11656976D01*
X16513967Y-11656976D02*
X16504444Y-11666500D01*
X16504444Y-11666500D02*
X16485396Y-11676024D01*
X16485396Y-11676024D02*
X16437777Y-11676024D01*
X16437777Y-11676024D02*
X16418729Y-11666500D01*
X16418729Y-11666500D02*
X16409206Y-11656976D01*
X16704444Y-11476024D02*
X16609206Y-11476024D01*
X16609206Y-11476024D02*
X16599682Y-11571262D01*
X16599682Y-11571262D02*
X16609206Y-11561738D01*
X16609206Y-11561738D02*
X16628253Y-11552214D01*
X16628253Y-11552214D02*
X16675872Y-11552214D01*
X16675872Y-11552214D02*
X16694920Y-11561738D01*
X16694920Y-11561738D02*
X16704444Y-11571262D01*
X16704444Y-11571262D02*
X16713967Y-11590309D01*
X16713967Y-11590309D02*
X16713967Y-11637928D01*
X16713967Y-11637928D02*
X16704444Y-11656976D01*
X16704444Y-11656976D02*
X16694920Y-11666500D01*
X16694920Y-11666500D02*
X16675872Y-11676024D01*
X16675872Y-11676024D02*
X16628253Y-11676024D01*
X16628253Y-11676024D02*
X16609206Y-11666500D01*
X16609206Y-11666500D02*
X16599682Y-11656976D01*
X16904444Y-11676024D02*
X16790158Y-11676024D01*
X16847301Y-11676024D02*
X16847301Y-11476024D01*
X16847301Y-11476024D02*
X16828253Y-11504595D01*
X16828253Y-11504595D02*
X16809206Y-11523643D01*
X16809206Y-11523643D02*
X16790158Y-11533167D01*
X16980634Y-11476024D02*
X16980634Y-11514119D01*
X17056825Y-11476024D02*
X17056825Y-11514119D01*
X17352063Y-11752214D02*
X17342539Y-11742690D01*
X17342539Y-11742690D02*
X17323491Y-11714119D01*
X17323491Y-11714119D02*
X17313968Y-11695071D01*
X17313968Y-11695071D02*
X17304444Y-11666500D01*
X17304444Y-11666500D02*
X17294920Y-11618881D01*
X17294920Y-11618881D02*
X17294920Y-11580786D01*
X17294920Y-11580786D02*
X17304444Y-11533167D01*
X17304444Y-11533167D02*
X17313968Y-11504595D01*
X17313968Y-11504595D02*
X17323491Y-11485548D01*
X17323491Y-11485548D02*
X17342539Y-11456976D01*
X17342539Y-11456976D02*
X17352063Y-11447452D01*
X17513968Y-11542690D02*
X17513968Y-11676024D01*
X17466349Y-11466500D02*
X17418730Y-11609357D01*
X17418730Y-11609357D02*
X17542539Y-11609357D01*
X17771111Y-11676024D02*
X17771111Y-11476024D01*
X17856825Y-11676024D02*
X17856825Y-11571262D01*
X17856825Y-11571262D02*
X17847301Y-11552214D01*
X17847301Y-11552214D02*
X17828253Y-11542690D01*
X17828253Y-11542690D02*
X17799682Y-11542690D01*
X17799682Y-11542690D02*
X17780634Y-11552214D01*
X17780634Y-11552214D02*
X17771111Y-11561738D01*
X17980634Y-11676024D02*
X17961587Y-11666500D01*
X17961587Y-11666500D02*
X17952063Y-11656976D01*
X17952063Y-11656976D02*
X17942539Y-11637928D01*
X17942539Y-11637928D02*
X17942539Y-11580786D01*
X17942539Y-11580786D02*
X17952063Y-11561738D01*
X17952063Y-11561738D02*
X17961587Y-11552214D01*
X17961587Y-11552214D02*
X17980634Y-11542690D01*
X17980634Y-11542690D02*
X18009206Y-11542690D01*
X18009206Y-11542690D02*
X18028253Y-11552214D01*
X18028253Y-11552214D02*
X18037777Y-11561738D01*
X18037777Y-11561738D02*
X18047301Y-11580786D01*
X18047301Y-11580786D02*
X18047301Y-11637928D01*
X18047301Y-11637928D02*
X18037777Y-11656976D01*
X18037777Y-11656976D02*
X18028253Y-11666500D01*
X18028253Y-11666500D02*
X18009206Y-11676024D01*
X18009206Y-11676024D02*
X17980634Y-11676024D01*
X18161587Y-11676024D02*
X18142539Y-11666500D01*
X18142539Y-11666500D02*
X18133015Y-11647452D01*
X18133015Y-11647452D02*
X18133015Y-11476024D01*
X18313968Y-11666500D02*
X18294920Y-11676024D01*
X18294920Y-11676024D02*
X18256825Y-11676024D01*
X18256825Y-11676024D02*
X18237777Y-11666500D01*
X18237777Y-11666500D02*
X18228253Y-11647452D01*
X18228253Y-11647452D02*
X18228253Y-11571262D01*
X18228253Y-11571262D02*
X18237777Y-11552214D01*
X18237777Y-11552214D02*
X18256825Y-11542690D01*
X18256825Y-11542690D02*
X18294920Y-11542690D01*
X18294920Y-11542690D02*
X18313968Y-11552214D01*
X18313968Y-11552214D02*
X18323492Y-11571262D01*
X18323492Y-11571262D02*
X18323492Y-11590309D01*
X18323492Y-11590309D02*
X18228253Y-11609357D01*
X18399682Y-11666500D02*
X18418730Y-11676024D01*
X18418730Y-11676024D02*
X18456825Y-11676024D01*
X18456825Y-11676024D02*
X18475873Y-11666500D01*
X18475873Y-11666500D02*
X18485396Y-11647452D01*
X18485396Y-11647452D02*
X18485396Y-11637928D01*
X18485396Y-11637928D02*
X18475873Y-11618881D01*
X18475873Y-11618881D02*
X18456825Y-11609357D01*
X18456825Y-11609357D02*
X18428253Y-11609357D01*
X18428253Y-11609357D02*
X18409206Y-11599833D01*
X18409206Y-11599833D02*
X18399682Y-11580786D01*
X18399682Y-11580786D02*
X18399682Y-11571262D01*
X18399682Y-11571262D02*
X18409206Y-11552214D01*
X18409206Y-11552214D02*
X18428253Y-11542690D01*
X18428253Y-11542690D02*
X18456825Y-11542690D01*
X18456825Y-11542690D02*
X18475873Y-11552214D01*
X18552063Y-11752214D02*
X18561587Y-11742690D01*
X18561587Y-11742690D02*
X18580634Y-11714119D01*
X18580634Y-11714119D02*
X18590158Y-11695071D01*
X18590158Y-11695071D02*
X18599682Y-11666500D01*
X18599682Y-11666500D02*
X18609206Y-11618881D01*
X18609206Y-11618881D02*
X18609206Y-11580786D01*
X18609206Y-11580786D02*
X18599682Y-11533167D01*
X18599682Y-11533167D02*
X18590158Y-11504595D01*
X18590158Y-11504595D02*
X18580634Y-11485548D01*
X18580634Y-11485548D02*
X18561587Y-11456976D01*
X18561587Y-11456976D02*
X18552063Y-11447452D01*
M02*
