%TF.GenerationSoftware,KiCad,Pcbnew,8.0.8*%
%TF.CreationDate,2025-01-31T12:33:27+11:00*%
%TF.ProjectId,v6_equip_joiner,76365f65-7175-4697-905f-6a6f696e6572,rev?*%
%TF.SameCoordinates,Original*%
%TF.FileFunction,Copper,L1,Top*%
%TF.FilePolarity,Positive*%
%FSLAX46Y46*%
G04 Gerber Fmt 4.6, Leading zero omitted, Abs format (unit mm)*
G04 Created by KiCad (PCBNEW 8.0.8) date 2025-01-31 12:33:27*
%MOMM*%
%LPD*%
G01*
G04 APERTURE LIST*
G04 Aperture macros list*
%AMRoundRect*
0 Rectangle with rounded corners*
0 $1 Rounding radius*
0 $2 $3 $4 $5 $6 $7 $8 $9 X,Y pos of 4 corners*
0 Add a 4 corners polygon primitive as box body*
4,1,4,$2,$3,$4,$5,$6,$7,$8,$9,$2,$3,0*
0 Add four circle primitives for the rounded corners*
1,1,$1+$1,$2,$3*
1,1,$1+$1,$4,$5*
1,1,$1+$1,$6,$7*
1,1,$1+$1,$8,$9*
0 Add four rect primitives between the rounded corners*
20,1,$1+$1,$2,$3,$4,$5,0*
20,1,$1+$1,$4,$5,$6,$7,0*
20,1,$1+$1,$6,$7,$8,$9,0*
20,1,$1+$1,$8,$9,$2,$3,0*%
G04 Aperture macros list end*
%TA.AperFunction,Conductor*%
%ADD10C,0.200000*%
%TD*%
%TA.AperFunction,SMDPad,CuDef*%
%ADD11RoundRect,0.250000X0.475000X-0.337500X0.475000X0.337500X-0.475000X0.337500X-0.475000X-0.337500X0*%
%TD*%
%TA.AperFunction,SMDPad,CuDef*%
%ADD12RoundRect,0.250000X-0.475000X0.337500X-0.475000X-0.337500X0.475000X-0.337500X0.475000X0.337500X0*%
%TD*%
%TA.AperFunction,SMDPad,CuDef*%
%ADD13RoundRect,0.150000X-0.150000X-0.625000X0.150000X-0.625000X0.150000X0.625000X-0.150000X0.625000X0*%
%TD*%
%TA.AperFunction,SMDPad,CuDef*%
%ADD14RoundRect,0.416666X-0.583334X-0.970834X0.583334X-0.970834X0.583334X0.970834X-0.583334X0.970834X0*%
%TD*%
%TA.AperFunction,SMDPad,CuDef*%
%ADD15RoundRect,0.375000X-0.375000X0.625000X-0.375000X-0.625000X0.375000X-0.625000X0.375000X0.625000X0*%
%TD*%
%TA.AperFunction,SMDPad,CuDef*%
%ADD16RoundRect,0.500000X-1.400000X0.500000X-1.400000X-0.500000X1.400000X-0.500000X1.400000X0.500000X0*%
%TD*%
%TA.AperFunction,ComponentPad*%
%ADD17R,1.700000X1.700000*%
%TD*%
%TA.AperFunction,ComponentPad*%
%ADD18O,1.700000X1.700000*%
%TD*%
%TA.AperFunction,ComponentPad*%
%ADD19C,2.100000*%
%TD*%
%TA.AperFunction,SMDPad,CuDef*%
%ADD20RoundRect,0.250000X-0.337500X-0.475000X0.337500X-0.475000X0.337500X0.475000X-0.337500X0.475000X0*%
%TD*%
%TA.AperFunction,ViaPad*%
%ADD21C,0.889000*%
%TD*%
%TA.AperFunction,ViaPad*%
%ADD22C,0.635000*%
%TD*%
%TA.AperFunction,Conductor*%
%ADD23C,0.406400*%
%TD*%
%TA.AperFunction,Conductor*%
%ADD24C,0.508000*%
%TD*%
%TA.AperFunction,Conductor*%
%ADD25C,0.812800*%
%TD*%
%TA.AperFunction,Conductor*%
%ADD26C,1.016000*%
%TD*%
%TA.AperFunction,Conductor*%
%ADD27C,1.270000*%
%TD*%
G04 APERTURE END LIST*
%TO.N,/SDA0*%
D10*
X144881600Y-89382600D02*
X144932400Y-89382600D01*
X144932400Y-89535000D01*
X144881600Y-89535000D01*
X144881600Y-89382600D01*
%TD*%
D11*
%TO.P,C4,1*%
%TO.N,+5V*%
X144881600Y-51710500D03*
%TO.P,C4,2*%
%TO.N,GND*%
X144881600Y-49635500D03*
%TD*%
D12*
%TO.P,C3,1*%
%TO.N,+3.3VP*%
X169138600Y-94517300D03*
%TO.P,C3,2*%
%TO.N,GND*%
X169138600Y-96592300D03*
%TD*%
D13*
%TO.P,CON2,1,Pin_1*%
%TO.N,GND*%
X161212400Y-95942400D03*
%TO.P,CON2,2,Pin_2*%
%TO.N,+3.3VA*%
X162212400Y-95942400D03*
%TO.P,CON2,3,Pin_3*%
%TO.N,/GP6*%
X163212400Y-95942400D03*
%TO.P,CON2,4,Pin_4*%
%TO.N,/GP7*%
X164212400Y-95942400D03*
D14*
%TO.P,CON2,MP*%
%TO.N,N/C*%
X159512000Y-99364800D03*
X165963600Y-99364800D03*
%TD*%
D15*
%TO.P,U1,1,GND*%
%TO.N,GND*%
X174080200Y-84556200D03*
%TO.P,U1,2,VO*%
%TO.N,+3.3VP*%
X171780200Y-84556200D03*
D16*
X171780200Y-90856200D03*
D15*
%TO.P,U1,3,VI*%
%TO.N,+5V*%
X169480200Y-84556200D03*
%TD*%
D17*
%TO.P,J1,1,Pin_1*%
%TO.N,+5V*%
X142367000Y-56489600D03*
D18*
%TO.P,J1,2,Pin_2*%
X144907000Y-56489600D03*
%TO.P,J1,3,Pin_3*%
X142367000Y-59029600D03*
%TO.P,J1,4,Pin_4*%
%TO.N,GND*%
X144907000Y-59029600D03*
%TO.P,J1,5,Pin_5*%
%TO.N,+3.3VA*%
X142367000Y-61569600D03*
%TO.P,J1,6,Pin_6*%
%TO.N,/GP15*%
X144907000Y-61569600D03*
%TO.P,J1,7,Pin_7*%
%TO.N,/GP16*%
X142367000Y-64109600D03*
%TO.P,J1,8,Pin_8*%
%TO.N,/GP14*%
X144907000Y-64109600D03*
%TO.P,J1,9,Pin_9*%
%TO.N,/GP17*%
X142367000Y-66649600D03*
%TO.P,J1,10,Pin_10*%
%TO.N,/GP13*%
X144907000Y-66649600D03*
%TO.P,J1,11,Pin_11*%
%TO.N,/AN_CS0*%
X142367000Y-69189600D03*
%TO.P,J1,12,Pin_12*%
%TO.N,/GP12*%
X144907000Y-69189600D03*
%TO.P,J1,13,Pin_13*%
%TO.N,/AN_CS1*%
X142367000Y-71729600D03*
%TO.P,J1,14,Pin_14*%
%TO.N,/GP11*%
X144907000Y-71729600D03*
%TO.P,J1,15,Pin_15*%
%TO.N,/AN_CS2*%
X142367000Y-74269600D03*
%TO.P,J1,16,Pin_16*%
%TO.N,/GP10*%
X144907000Y-74269600D03*
%TO.P,J1,17,Pin_17*%
%TO.N,/AN_CS3*%
X142367000Y-76809600D03*
%TO.P,J1,18,Pin_18*%
%TO.N,/GP9*%
X144907000Y-76809600D03*
%TO.P,J1,19,Pin_19*%
%TO.N,/MOSI*%
X142367000Y-79349600D03*
%TO.P,J1,20,Pin_20*%
%TO.N,/GP8*%
X144907000Y-79349600D03*
%TO.P,J1,21,Pin_21*%
%TO.N,/SCK*%
X142367000Y-81889600D03*
%TO.P,J1,22,Pin_22*%
%TO.N,/GP7*%
X144907000Y-81889600D03*
%TO.P,J1,23,Pin_23*%
%TO.N,/GP1*%
X142367000Y-84429600D03*
%TO.P,J1,24,Pin_24*%
%TO.N,/GP6*%
X144907000Y-84429600D03*
%TO.P,J1,25,Pin_25*%
%TO.N,/MISO*%
X142367000Y-86969600D03*
%TO.P,J1,26,Pin_26*%
%TO.N,/SCL0*%
X144907000Y-86969600D03*
%TO.P,J1,27,Pin_27*%
%TO.N,GND*%
X142367000Y-89509600D03*
%TO.P,J1,28,Pin_28*%
%TO.N,/SDA0*%
X144907000Y-89509600D03*
%TO.P,J1,29,Pin_29*%
%TO.N,GND*%
X142367000Y-92049600D03*
%TO.P,J1,30,Pin_30*%
X144907000Y-92049600D03*
%TD*%
D19*
%TO.P,J3,1,Pin_1*%
%TO.N,GND*%
X155778200Y-44297600D03*
%TO.P,J3,2,Pin_2*%
%TO.N,+5V*%
X159588200Y-44297600D03*
%TD*%
D17*
%TO.P,CON1,1,Pin_1*%
%TO.N,GND*%
X155956000Y-99517200D03*
D18*
%TO.P,CON1,2,Pin_2*%
%TO.N,+3.3VA*%
X153416000Y-99517200D03*
%TO.P,CON1,3,Pin_3*%
%TO.N,/GP6*%
X150876000Y-99517200D03*
%TO.P,CON1,4,Pin_4*%
%TO.N,/GP7*%
X148336000Y-99517200D03*
%TD*%
D17*
%TO.P,J2,1,Pin_1*%
%TO.N,+5V*%
X173101000Y-76555600D03*
D18*
%TO.P,J2,2,Pin_2*%
X170561000Y-76555600D03*
%TO.P,J2,3,Pin_3*%
X173101000Y-74015600D03*
%TO.P,J2,4,Pin_4*%
%TO.N,GND*%
X170561000Y-74015600D03*
%TO.P,J2,5,Pin_5*%
%TO.N,+3V3*%
X173101000Y-71475600D03*
%TO.P,J2,6,Pin_6*%
%TO.N,/GP15*%
X170561000Y-71475600D03*
%TO.P,J2,7,Pin_7*%
%TO.N,/GP16*%
X173101000Y-68935600D03*
%TO.P,J2,8,Pin_8*%
%TO.N,/GP14*%
X170561000Y-68935600D03*
%TO.P,J2,9,Pin_9*%
%TO.N,/GP17*%
X173101000Y-66395600D03*
%TO.P,J2,10,Pin_10*%
%TO.N,/GP13*%
X170561000Y-66395600D03*
%TO.P,J2,11,Pin_11*%
%TO.N,/AN_CS0*%
X173101000Y-63855600D03*
%TO.P,J2,12,Pin_12*%
%TO.N,/GP12*%
X170561000Y-63855600D03*
%TO.P,J2,13,Pin_13*%
%TO.N,/AN_CS1*%
X173101000Y-61315600D03*
%TO.P,J2,14,Pin_14*%
%TO.N,/GP11*%
X170561000Y-61315600D03*
%TO.P,J2,15,Pin_15*%
%TO.N,/AN_CS2*%
X173101000Y-58775600D03*
%TO.P,J2,16,Pin_16*%
%TO.N,/GP10*%
X170561000Y-58775600D03*
%TO.P,J2,17,Pin_17*%
%TO.N,/AN_CS3*%
X173101000Y-56235600D03*
%TO.P,J2,18,Pin_18*%
%TO.N,/GP9*%
X170561000Y-56235600D03*
%TO.P,J2,19,Pin_19*%
%TO.N,/MOSI*%
X173101000Y-53695600D03*
%TO.P,J2,20,Pin_20*%
%TO.N,/GP8*%
X170561000Y-53695600D03*
%TO.P,J2,21,Pin_21*%
%TO.N,/SCK*%
X173101000Y-51155600D03*
%TO.P,J2,22,Pin_22*%
%TO.N,/GP7*%
X170561000Y-51155600D03*
%TO.P,J2,23,Pin_23*%
%TO.N,/GP1*%
X173101000Y-48615600D03*
%TO.P,J2,24,Pin_24*%
%TO.N,/GP6*%
X170561000Y-48615600D03*
%TO.P,J2,25,Pin_25*%
%TO.N,/MISO*%
X173101000Y-46075600D03*
%TO.P,J2,26,Pin_26*%
%TO.N,/SCL0*%
X170561000Y-46075600D03*
%TO.P,J2,27,Pin_27*%
%TO.N,GND*%
X173101000Y-43535600D03*
%TO.P,J2,28,Pin_28*%
%TO.N,/SDA0*%
X170561000Y-43535600D03*
%TO.P,J2,29,Pin_29*%
%TO.N,GND*%
X173101000Y-40995600D03*
%TO.P,J2,30,Pin_30*%
X170561000Y-40995600D03*
%TD*%
D20*
%TO.P,C2,1*%
%TO.N,+5V*%
X170006100Y-81051400D03*
%TO.P,C2,2*%
%TO.N,GND*%
X172081100Y-81051400D03*
%TD*%
D11*
%TO.P,C1,1*%
%TO.N,+3.3VA*%
X157657800Y-90674100D03*
%TO.P,C1,2*%
%TO.N,GND*%
X157657800Y-88599100D03*
%TD*%
D19*
%TO.P,J4,1,Pin_1*%
%TO.N,GND*%
X155778200Y-38746800D03*
%TO.P,J4,2,Pin_2*%
%TO.N,+5V*%
X159588200Y-38746800D03*
%TD*%
D21*
%TO.N,GND*%
X157734000Y-93395800D03*
X161518600Y-88468200D03*
X173964600Y-81000600D03*
X139801600Y-97485200D03*
X173939200Y-87122000D03*
X141605000Y-46075600D03*
X169214800Y-99644200D03*
X165633400Y-84582000D03*
%TO.N,+5V*%
X176555400Y-63373000D03*
X176555400Y-65074800D03*
X176555400Y-66929000D03*
X176555400Y-68630800D03*
D22*
%TO.N,/GP14*%
X148209000Y-64109600D03*
%TO.N,/GP13*%
X150241000Y-66404600D03*
%TO.N,/GP11*%
X154305000Y-61315600D03*
%TO.N,/GP12*%
X152273000Y-63864600D03*
%TO.N,/GP10*%
X156337000Y-58784600D03*
%TO.N,/GP7*%
X154660600Y-81889600D03*
X162433000Y-51155600D03*
%TO.N,/GP6*%
X155801000Y-84432200D03*
X164465000Y-48641000D03*
%TO.N,/GP1*%
X165481000Y-47371000D03*
%TO.N,/AN_CS3*%
X159385000Y-54965600D03*
%TO.N,/AN_CS0*%
X153289000Y-62611000D03*
%TO.N,/AN_CS1*%
X155295600Y-60045600D03*
%TO.N,/AN_CS2*%
X157353000Y-57505600D03*
%TO.N,/GP9*%
X158394400Y-56286400D03*
%TO.N,/GP8*%
X160401000Y-53670200D03*
%TO.N,/GP17*%
X151307800Y-65125600D03*
%TO.N,/GP16*%
X149225000Y-65125600D03*
D21*
%TO.N,+3.3VP*%
X171780200Y-88595200D03*
X171780200Y-87147400D03*
D22*
%TO.N,/SCL0*%
X166522400Y-46024800D03*
%TO.N,/SCK*%
X163449000Y-49936400D03*
D21*
%TO.N,+3.3VA*%
X153441400Y-95275400D03*
D22*
%TO.N,/MOSI*%
X161391600Y-52425600D03*
%TO.N,/MISO*%
X167513000Y-44831000D03*
%TD*%
D23*
%TO.N,/GP7*%
X164185600Y-93751400D02*
X164185600Y-96017200D01*
X164846000Y-86766400D02*
X164846000Y-93091000D01*
X159969200Y-81889600D02*
X164846000Y-86766400D01*
X164846000Y-93091000D02*
X164185600Y-93751400D01*
X154660600Y-81889600D02*
X159969200Y-81889600D01*
D24*
%TO.N,+3.3VA*%
X159355700Y-90674100D02*
X157657800Y-90674100D01*
X162204400Y-93522800D02*
X159355700Y-90674100D01*
X162204400Y-96036000D02*
X162204400Y-93522800D01*
D25*
X156315500Y-90674100D02*
X157657800Y-90674100D01*
X153441400Y-93548200D02*
X156315500Y-90674100D01*
X153441400Y-95275400D02*
X153441400Y-93548200D01*
D26*
%TO.N,+5V*%
X144932400Y-51761300D02*
X144881600Y-51710500D01*
D27*
X160528000Y-37744400D02*
X159588200Y-38684200D01*
X159588200Y-38684200D02*
X159588200Y-44297600D01*
X159639000Y-44348400D02*
X159588200Y-44297600D01*
X159639000Y-47218600D02*
X159639000Y-44348400D01*
D26*
X170561000Y-76555600D02*
X170561000Y-78435200D01*
D27*
X176580800Y-39547800D02*
X174777400Y-37744400D01*
D26*
X169468800Y-79527400D02*
X169468800Y-84544800D01*
D27*
X150368000Y-56489600D02*
X159639000Y-47218600D01*
X175149400Y-74024600D02*
X173101000Y-74024600D01*
X176555400Y-66929000D02*
X176580800Y-66954400D01*
X176580800Y-63398400D02*
X176580800Y-66903600D01*
X176580800Y-66903600D02*
X176555400Y-66929000D01*
X176580800Y-63347600D02*
X176580800Y-39547800D01*
D26*
X144932400Y-56464200D02*
X144932400Y-51761300D01*
X170561000Y-76555600D02*
X173101000Y-76555600D01*
X144907000Y-56489600D02*
X144932400Y-56464200D01*
D27*
X176555400Y-63373000D02*
X176580800Y-63398400D01*
D26*
X170561000Y-78435200D02*
X169468800Y-79527400D01*
D27*
X176580800Y-66954400D02*
X176580800Y-72593200D01*
X174777400Y-37744400D02*
X160528000Y-37744400D01*
D26*
X173101000Y-74015600D02*
X173101000Y-76555600D01*
D27*
X176580800Y-72593200D02*
X175149400Y-74024600D01*
X176555400Y-63373000D02*
X176580800Y-63347600D01*
D26*
X169468800Y-84544800D02*
X169480200Y-84556200D01*
D27*
X144907000Y-56489600D02*
X150368000Y-56489600D01*
D23*
%TO.N,/GP14*%
X170561000Y-68944600D02*
X149005400Y-68944600D01*
X148209000Y-68148200D02*
X148209000Y-64109600D01*
X149005400Y-68944600D02*
X148209000Y-68148200D01*
%TO.N,/GP15*%
X148878400Y-71484600D02*
X147040600Y-69646800D01*
X170561000Y-71484600D02*
X148878400Y-71484600D01*
X147040600Y-69646800D02*
X147040600Y-62560200D01*
X146052600Y-61572200D02*
X144907000Y-61572200D01*
X147040600Y-62560200D02*
X146052600Y-61572200D01*
%TO.N,/GP13*%
X150241000Y-66404600D02*
X170561000Y-66404600D01*
%TO.N,/GP11*%
X170561000Y-61324600D02*
X154314000Y-61324600D01*
X154314000Y-61324600D02*
X154305000Y-61315600D01*
%TO.N,/GP12*%
X152273000Y-63864600D02*
X170561000Y-63864600D01*
%TO.N,/GP10*%
X156337000Y-58784600D02*
X170561000Y-58784600D01*
%TO.N,/GP7*%
X162442000Y-51164600D02*
X170561000Y-51164600D01*
X148310600Y-88239600D02*
X148310600Y-99491800D01*
X154660600Y-81889600D02*
X148310600Y-88239600D01*
X162433000Y-51155600D02*
X162442000Y-51164600D01*
%TO.N,/GP6*%
X164481400Y-48624600D02*
X170561000Y-48624600D01*
X160454400Y-84432200D02*
X163195000Y-87172800D01*
X155801000Y-84432200D02*
X150901400Y-89331800D01*
X164465000Y-48641000D02*
X164481400Y-48624600D01*
X150901400Y-89331800D02*
X150901400Y-99491800D01*
X155801000Y-84432200D02*
X160454400Y-84432200D01*
X163195000Y-87172800D02*
X163195000Y-96026600D01*
%TO.N,/GP1*%
X165481000Y-47371000D02*
X171847400Y-47371000D01*
X171847400Y-47371000D02*
X173101000Y-48624600D01*
%TO.N,/AN_CS3*%
X159385000Y-54965600D02*
X171932600Y-54965600D01*
X171932600Y-54965600D02*
X173101000Y-56134000D01*
%TO.N,/AN_CS0*%
X171831000Y-62611000D02*
X153289000Y-62611000D01*
X173084600Y-63864600D02*
X171831000Y-62611000D01*
%TO.N,/AN_CS1*%
X171729400Y-60045600D02*
X173008400Y-61324600D01*
X155295600Y-60045600D02*
X171729400Y-60045600D01*
%TO.N,/AN_CS2*%
X157353000Y-57505600D02*
X171780200Y-57505600D01*
X171780200Y-57505600D02*
X173059200Y-58784600D01*
%TO.N,/GP9*%
X158394400Y-56286400D02*
X158436200Y-56244600D01*
X158436200Y-56244600D02*
X170561000Y-56244600D01*
%TO.N,/GP8*%
X160401000Y-53670200D02*
X160451800Y-53721000D01*
X160451800Y-53721000D02*
X170544600Y-53721000D01*
%TO.N,/GP17*%
X171602400Y-65125600D02*
X172881400Y-66404600D01*
X151307800Y-65125600D02*
X171602400Y-65125600D01*
%TO.N,/GP16*%
X171983400Y-67691000D02*
X172008800Y-67665600D01*
X172008800Y-67665600D02*
X173101000Y-68757800D01*
X149225000Y-65125600D02*
X149225000Y-67005200D01*
X149225000Y-67005200D02*
X149910800Y-67691000D01*
X149910800Y-67691000D02*
X171983400Y-67691000D01*
D27*
%TO.N,+3.3VP*%
X171780200Y-87147400D02*
X171780200Y-88595200D01*
X171780200Y-87147400D02*
X171780200Y-84556200D01*
D25*
X169138600Y-94517300D02*
X169845900Y-94517300D01*
D27*
X171780200Y-88595200D02*
X171780200Y-90856200D01*
D25*
X169845900Y-94517300D02*
X171780200Y-92583000D01*
X171780200Y-92583000D02*
X171780200Y-90856200D01*
D23*
%TO.N,/SCL0*%
X166522400Y-46024800D02*
X166573200Y-46075600D01*
X166573200Y-46075600D02*
X170552000Y-46075600D01*
%TO.N,/SCK*%
X163449000Y-49936400D02*
X163474400Y-49911000D01*
X171932600Y-49911000D02*
X173151800Y-51130200D01*
X163474400Y-49911000D02*
X171932600Y-49911000D01*
D25*
%TO.N,+3.3VA*%
X153441400Y-95275400D02*
X153441400Y-99491800D01*
X153517600Y-95250000D02*
X153492200Y-95275400D01*
X153492200Y-95275400D02*
X153441400Y-95275400D01*
D23*
%TO.N,/MOSI*%
X171754800Y-52425600D02*
X173033800Y-53704600D01*
X161391600Y-52425600D02*
X171754800Y-52425600D01*
%TO.N,/MISO*%
X171856400Y-44805600D02*
X173101000Y-46050200D01*
X167513000Y-44831000D02*
X167538400Y-44805600D01*
X167538400Y-44805600D02*
X171856400Y-44805600D01*
%TD*%
%TA.AperFunction,Conductor*%
%TO.N,GND*%
G36*
X159799028Y-37096185D02*
G01*
X159844783Y-37148989D01*
X159854727Y-37218147D01*
X159825702Y-37281703D01*
X159819670Y-37288181D01*
X159637693Y-37470157D01*
X159576370Y-37503642D01*
X159560820Y-37506004D01*
X159372326Y-37522495D01*
X159372319Y-37522496D01*
X159163008Y-37578581D01*
X159163002Y-37578584D01*
X158966606Y-37670164D01*
X158966604Y-37670165D01*
X158789089Y-37794461D01*
X158635861Y-37947689D01*
X158511565Y-38125204D01*
X158511564Y-38125206D01*
X158419984Y-38321602D01*
X158419981Y-38321608D01*
X158363896Y-38530919D01*
X158363895Y-38530926D01*
X158345009Y-38746799D01*
X158345009Y-38746800D01*
X158363895Y-38962673D01*
X158363896Y-38962680D01*
X158419981Y-39171991D01*
X158419985Y-39172002D01*
X158511562Y-39368390D01*
X158511565Y-39368396D01*
X158635858Y-39545906D01*
X158635859Y-39545907D01*
X158635860Y-39545908D01*
X158728422Y-39638470D01*
X158761906Y-39699791D01*
X158764740Y-39726150D01*
X158764740Y-43318249D01*
X158745055Y-43385288D01*
X158728421Y-43405930D01*
X158635861Y-43498489D01*
X158511565Y-43676004D01*
X158511564Y-43676006D01*
X158419984Y-43872402D01*
X158419981Y-43872408D01*
X158363896Y-44081719D01*
X158363895Y-44081726D01*
X158345009Y-44297599D01*
X158345009Y-44297600D01*
X158363895Y-44513473D01*
X158363896Y-44513480D01*
X158419981Y-44722791D01*
X158419985Y-44722802D01*
X158511562Y-44919190D01*
X158511565Y-44919196D01*
X158635861Y-45096710D01*
X158779221Y-45240070D01*
X158812706Y-45301393D01*
X158815540Y-45327751D01*
X158815540Y-46826150D01*
X158795855Y-46893189D01*
X158779221Y-46913831D01*
X150063231Y-55629821D01*
X150001908Y-55663306D01*
X149975550Y-55666140D01*
X145752860Y-55666140D01*
X145685821Y-55646455D01*
X145640066Y-55593651D01*
X145628860Y-55542140D01*
X145628860Y-52454182D01*
X145648545Y-52387143D01*
X145665183Y-52366497D01*
X145670136Y-52361542D01*
X145670140Y-52361540D01*
X145748628Y-52255193D01*
X145792283Y-52130436D01*
X145795060Y-52100821D01*
X145795059Y-51320180D01*
X145792283Y-51290564D01*
X145748628Y-51165807D01*
X145709384Y-51112633D01*
X145670140Y-51059459D01*
X145605268Y-51011582D01*
X145563793Y-50980972D01*
X145505556Y-50960593D01*
X145439040Y-50937318D01*
X145439031Y-50937316D01*
X145409425Y-50934540D01*
X144353781Y-50934540D01*
X144324168Y-50937316D01*
X144324159Y-50937318D01*
X144199408Y-50980971D01*
X144093059Y-51059459D01*
X144014572Y-51165807D01*
X143970918Y-51290559D01*
X143970916Y-51290568D01*
X143968140Y-51320174D01*
X143968140Y-52100818D01*
X143970916Y-52130431D01*
X143970918Y-52130440D01*
X144014571Y-52255191D01*
X144093060Y-52361541D01*
X144185573Y-52429818D01*
X144227824Y-52485465D01*
X144235940Y-52529588D01*
X144235940Y-55638280D01*
X144216255Y-55705319D01*
X144190606Y-55734132D01*
X144169142Y-55751746D01*
X144039374Y-55909869D01*
X144039372Y-55909872D01*
X143942946Y-56090274D01*
X143883565Y-56286023D01*
X143883564Y-56286025D01*
X143863515Y-56489600D01*
X143883564Y-56693174D01*
X143883565Y-56693176D01*
X143942946Y-56888925D01*
X144039372Y-57069327D01*
X144039374Y-57069330D01*
X144169144Y-57227455D01*
X144327269Y-57357225D01*
X144327272Y-57357227D01*
X144431864Y-57413132D01*
X144507676Y-57453654D01*
X144703423Y-57513034D01*
X144703425Y-57513035D01*
X144721677Y-57514832D01*
X144907000Y-57533085D01*
X145110574Y-57513035D01*
X145306324Y-57453654D01*
X145486729Y-57357226D01*
X145506247Y-57341208D01*
X145570556Y-57313894D01*
X145584913Y-57313060D01*
X150449106Y-57313060D01*
X150449107Y-57313059D01*
X150608194Y-57281415D01*
X150670268Y-57255702D01*
X150758055Y-57219341D01*
X150892925Y-57129223D01*
X160278623Y-47743525D01*
X160368741Y-47608655D01*
X160413321Y-47501028D01*
X160430815Y-47458794D01*
X160462460Y-47299704D01*
X160462460Y-45226150D01*
X160482145Y-45159111D01*
X160498780Y-45138468D01*
X160540539Y-45096709D01*
X160540540Y-45096708D01*
X160664835Y-44919196D01*
X160756417Y-44722796D01*
X160812504Y-44513478D01*
X160831391Y-44297600D01*
X160812504Y-44081722D01*
X160756417Y-43872404D01*
X160664835Y-43676005D01*
X160540540Y-43498492D01*
X160540538Y-43498489D01*
X160447979Y-43405930D01*
X160414494Y-43344607D01*
X160411660Y-43318249D01*
X160411660Y-40745600D01*
X169536246Y-40745600D01*
X170127988Y-40745600D01*
X170095075Y-40802607D01*
X170061000Y-40929774D01*
X170061000Y-41061426D01*
X170095075Y-41188593D01*
X170127988Y-41245600D01*
X169536246Y-41245600D01*
X169583263Y-41400596D01*
X169681055Y-41583552D01*
X169681059Y-41583559D01*
X169812671Y-41743928D01*
X169973040Y-41875540D01*
X169973047Y-41875544D01*
X170156003Y-41973336D01*
X170311000Y-42020353D01*
X170311000Y-41428612D01*
X170368007Y-41461525D01*
X170495174Y-41495600D01*
X170626826Y-41495600D01*
X170753993Y-41461525D01*
X170811000Y-41428612D01*
X170811000Y-42020353D01*
X170965996Y-41973336D01*
X171148952Y-41875544D01*
X171148959Y-41875540D01*
X171309328Y-41743928D01*
X171440940Y-41583559D01*
X171440944Y-41583552D01*
X171538736Y-41400596D01*
X171585754Y-41245600D01*
X170994012Y-41245600D01*
X171026925Y-41188593D01*
X171061000Y-41061426D01*
X171061000Y-40929774D01*
X171026925Y-40802607D01*
X170994012Y-40745600D01*
X171585754Y-40745600D01*
X172076246Y-40745600D01*
X172667988Y-40745600D01*
X172635075Y-40802607D01*
X172601000Y-40929774D01*
X172601000Y-41061426D01*
X172635075Y-41188593D01*
X172667988Y-41245600D01*
X172076246Y-41245600D01*
X172123263Y-41400596D01*
X172221055Y-41583552D01*
X172221059Y-41583559D01*
X172352671Y-41743928D01*
X172513040Y-41875540D01*
X172513047Y-41875544D01*
X172696003Y-41973336D01*
X172851000Y-42020353D01*
X172851000Y-41428612D01*
X172908007Y-41461525D01*
X173035174Y-41495600D01*
X173166826Y-41495600D01*
X173293993Y-41461525D01*
X173351000Y-41428612D01*
X173351000Y-42020353D01*
X173505996Y-41973336D01*
X173688952Y-41875544D01*
X173688959Y-41875540D01*
X173849328Y-41743928D01*
X173980940Y-41583559D01*
X173980944Y-41583552D01*
X174078736Y-41400596D01*
X174125754Y-41245600D01*
X173534012Y-41245600D01*
X173566925Y-41188593D01*
X173601000Y-41061426D01*
X173601000Y-40929774D01*
X173566925Y-40802607D01*
X173534012Y-40745600D01*
X174125754Y-40745600D01*
X174078736Y-40590603D01*
X173980944Y-40407647D01*
X173980940Y-40407640D01*
X173849328Y-40247271D01*
X173688959Y-40115659D01*
X173688952Y-40115655D01*
X173505993Y-40017862D01*
X173351000Y-39970844D01*
X173351000Y-40562588D01*
X173293993Y-40529675D01*
X173166826Y-40495600D01*
X173035174Y-40495600D01*
X172908007Y-40529675D01*
X172851000Y-40562588D01*
X172851000Y-39970844D01*
X172696006Y-40017862D01*
X172513047Y-40115655D01*
X172513040Y-40115659D01*
X172352671Y-40247271D01*
X172221059Y-40407640D01*
X172221055Y-40407647D01*
X172123263Y-40590603D01*
X172076246Y-40745600D01*
X171585754Y-40745600D01*
X171538736Y-40590603D01*
X171440944Y-40407647D01*
X171440940Y-40407640D01*
X171309328Y-40247271D01*
X171148959Y-40115659D01*
X171148952Y-40115655D01*
X170965993Y-40017862D01*
X170811000Y-39970844D01*
X170811000Y-40562588D01*
X170753993Y-40529675D01*
X170626826Y-40495600D01*
X170495174Y-40495600D01*
X170368007Y-40529675D01*
X170311000Y-40562588D01*
X170311000Y-39970844D01*
X170156006Y-40017862D01*
X169973047Y-40115655D01*
X169973040Y-40115659D01*
X169812671Y-40247271D01*
X169681059Y-40407640D01*
X169681055Y-40407647D01*
X169583263Y-40590603D01*
X169536246Y-40745600D01*
X160411660Y-40745600D01*
X160411660Y-39726150D01*
X160431345Y-39659111D01*
X160447974Y-39638473D01*
X160540540Y-39545908D01*
X160664835Y-39368396D01*
X160756417Y-39171996D01*
X160812504Y-38962678D01*
X160831391Y-38746800D01*
X160827530Y-38702668D01*
X160841296Y-38634168D01*
X160889912Y-38583985D01*
X160951058Y-38567860D01*
X174384950Y-38567860D01*
X174451989Y-38587545D01*
X174472631Y-38604179D01*
X175721021Y-39852569D01*
X175754506Y-39913892D01*
X175757340Y-39940250D01*
X175757340Y-63151992D01*
X175754957Y-63176184D01*
X175731940Y-63291893D01*
X175731940Y-63454106D01*
X175754957Y-63569814D01*
X175757340Y-63594006D01*
X175757340Y-66707992D01*
X175754957Y-66732184D01*
X175731940Y-66847893D01*
X175731940Y-67010106D01*
X175754957Y-67125814D01*
X175757340Y-67150006D01*
X175757340Y-72200750D01*
X175737655Y-72267789D01*
X175721021Y-72288431D01*
X174844631Y-73164821D01*
X174783308Y-73198306D01*
X174756950Y-73201140D01*
X173789880Y-73201140D01*
X173722841Y-73181455D01*
X173711215Y-73172993D01*
X173680730Y-73147974D01*
X173680727Y-73147972D01*
X173500325Y-73051546D01*
X173304576Y-72992165D01*
X173304574Y-72992164D01*
X173101000Y-72972115D01*
X172897425Y-72992164D01*
X172897423Y-72992165D01*
X172701674Y-73051546D01*
X172521272Y-73147972D01*
X172521269Y-73147974D01*
X172363144Y-73277744D01*
X172233374Y-73435869D01*
X172233372Y-73435872D01*
X172136946Y-73616274D01*
X172077565Y-73812023D01*
X172077564Y-73812025D01*
X172057515Y-74015600D01*
X172077564Y-74219174D01*
X172077565Y-74219176D01*
X172136946Y-74414925D01*
X172233372Y-74595327D01*
X172233374Y-74595330D01*
X172363146Y-74753457D01*
X172367452Y-74757763D01*
X172365600Y-74759614D01*
X172398536Y-74807958D01*
X172404540Y-74846075D01*
X172404540Y-75393140D01*
X172384855Y-75460179D01*
X172332051Y-75505934D01*
X172280540Y-75517140D01*
X172232437Y-75517140D01*
X172177467Y-75528074D01*
X172115128Y-75569728D01*
X172073474Y-75632067D01*
X172062540Y-75687035D01*
X172062540Y-75735140D01*
X172042855Y-75802179D01*
X171990051Y-75847934D01*
X171938540Y-75859140D01*
X171391475Y-75859140D01*
X171324436Y-75839455D01*
X171303975Y-75821239D01*
X171303163Y-75822052D01*
X171298857Y-75817746D01*
X171140730Y-75687974D01*
X171140727Y-75687972D01*
X170960325Y-75591546D01*
X170764576Y-75532165D01*
X170764574Y-75532164D01*
X170561000Y-75512115D01*
X170357425Y-75532164D01*
X170357423Y-75532165D01*
X170161674Y-75591546D01*
X169981272Y-75687972D01*
X169981269Y-75687974D01*
X169823144Y-75817744D01*
X169693374Y-75975869D01*
X169693372Y-75975872D01*
X169596946Y-76156274D01*
X169537565Y-76352023D01*
X169537564Y-76352025D01*
X169517515Y-76555600D01*
X169537564Y-76759174D01*
X169537565Y-76759176D01*
X169596946Y-76954925D01*
X169693372Y-77135327D01*
X169693374Y-77135330D01*
X169823146Y-77293457D01*
X169827452Y-77297763D01*
X169825600Y-77299614D01*
X169858536Y-77347958D01*
X169864540Y-77386075D01*
X169864540Y-78095353D01*
X169844855Y-78162392D01*
X169828221Y-78183034D01*
X168927826Y-79083428D01*
X168927820Y-79083436D01*
X168886000Y-79146025D01*
X168886000Y-79146026D01*
X168851604Y-79197502D01*
X168799104Y-79324249D01*
X168799102Y-79324257D01*
X168772340Y-79458800D01*
X168772340Y-83415237D01*
X168752655Y-83482276D01*
X168723828Y-83513611D01*
X168703339Y-83529333D01*
X168703337Y-83529334D01*
X168703336Y-83529336D01*
X168678292Y-83561974D01*
X168613017Y-83647042D01*
X168556243Y-83784106D01*
X168556243Y-83784107D01*
X168541740Y-83894261D01*
X168541740Y-85218133D01*
X168556240Y-85328284D01*
X168556243Y-85328292D01*
X168556243Y-85328293D01*
X168613019Y-85465361D01*
X168703336Y-85583064D01*
X168821039Y-85673381D01*
X168958107Y-85730157D01*
X169068269Y-85744660D01*
X169892130Y-85744659D01*
X169892133Y-85744659D01*
X170002284Y-85730159D01*
X170002288Y-85730157D01*
X170002293Y-85730157D01*
X170139361Y-85673381D01*
X170257064Y-85583064D01*
X170347381Y-85465361D01*
X170404157Y-85328293D01*
X170418660Y-85218131D01*
X170418659Y-83894270D01*
X170418659Y-83894269D01*
X170418659Y-83894266D01*
X170404159Y-83784115D01*
X170404157Y-83784110D01*
X170404157Y-83784107D01*
X170347381Y-83647039D01*
X170257064Y-83529336D01*
X170257062Y-83529334D01*
X170257061Y-83529333D01*
X170213773Y-83496117D01*
X170172570Y-83439689D01*
X170165260Y-83397742D01*
X170165260Y-82088859D01*
X170184945Y-82021820D01*
X170237749Y-81976065D01*
X170289260Y-81964859D01*
X170396418Y-81964859D01*
X170396420Y-81964859D01*
X170426036Y-81962083D01*
X170550793Y-81918428D01*
X170657140Y-81839940D01*
X170735628Y-81733593D01*
X170779283Y-81608836D01*
X170781894Y-81580994D01*
X171290400Y-81580994D01*
X171293270Y-81611602D01*
X171293272Y-81611614D01*
X171338392Y-81740556D01*
X171419519Y-81850480D01*
X171529443Y-81931607D01*
X171658385Y-81976727D01*
X171658397Y-81976729D01*
X171689006Y-81979600D01*
X171831100Y-81979600D01*
X172331100Y-81979600D01*
X172473194Y-81979600D01*
X172503802Y-81976729D01*
X172503814Y-81976727D01*
X172632756Y-81931607D01*
X172742680Y-81850480D01*
X172823807Y-81740556D01*
X172868927Y-81611614D01*
X172868929Y-81611602D01*
X172871800Y-81580994D01*
X172871800Y-81301400D01*
X172331100Y-81301400D01*
X172331100Y-81979600D01*
X171831100Y-81979600D01*
X171831100Y-81301400D01*
X171290400Y-81301400D01*
X171290400Y-81580994D01*
X170781894Y-81580994D01*
X170782060Y-81579221D01*
X170782059Y-80523580D01*
X170781893Y-80521805D01*
X171290400Y-80521805D01*
X171290400Y-80801400D01*
X171831100Y-80801400D01*
X172331100Y-80801400D01*
X172871800Y-80801400D01*
X172871800Y-80521805D01*
X172868929Y-80491197D01*
X172868927Y-80491185D01*
X172823807Y-80362243D01*
X172742680Y-80252319D01*
X172632756Y-80171192D01*
X172503814Y-80126072D01*
X172503802Y-80126070D01*
X172473194Y-80123200D01*
X172331100Y-80123200D01*
X172331100Y-80801400D01*
X171831100Y-80801400D01*
X171831100Y-80123200D01*
X171689006Y-80123200D01*
X171658397Y-80126070D01*
X171658385Y-80126072D01*
X171529443Y-80171192D01*
X171419519Y-80252319D01*
X171338392Y-80362243D01*
X171293272Y-80491185D01*
X171293270Y-80491197D01*
X171290400Y-80521805D01*
X170781893Y-80521805D01*
X170779283Y-80493964D01*
X170735628Y-80369207D01*
X170694627Y-80313653D01*
X170657140Y-80262859D01*
X170595307Y-80217225D01*
X170550793Y-80184372D01*
X170492556Y-80163993D01*
X170426040Y-80140718D01*
X170426031Y-80140716D01*
X170396425Y-80137940D01*
X170396421Y-80137940D01*
X170289260Y-80137940D01*
X170222221Y-80118255D01*
X170176466Y-80065451D01*
X170165260Y-80013940D01*
X170165260Y-79867246D01*
X170184945Y-79800207D01*
X170201579Y-79779565D01*
X171101973Y-78879171D01*
X171101976Y-78879168D01*
X171178195Y-78765098D01*
X171230696Y-78638350D01*
X171257460Y-78503796D01*
X171257460Y-78366604D01*
X171257460Y-77386075D01*
X171277145Y-77319036D01*
X171295360Y-77298575D01*
X171294548Y-77297763D01*
X171303163Y-77289148D01*
X171305014Y-77290999D01*
X171353358Y-77258064D01*
X171391475Y-77252060D01*
X171938540Y-77252060D01*
X172005579Y-77271745D01*
X172051334Y-77324549D01*
X172062540Y-77376060D01*
X172062540Y-77424164D01*
X172073474Y-77479132D01*
X172073475Y-77479133D01*
X172115128Y-77541472D01*
X172177467Y-77583125D01*
X172232435Y-77594059D01*
X172232438Y-77594060D01*
X172232440Y-77594060D01*
X173969562Y-77594060D01*
X173969563Y-77594059D01*
X174024533Y-77583125D01*
X174086872Y-77541472D01*
X174128525Y-77479133D01*
X174139460Y-77424160D01*
X174139460Y-75687040D01*
X174139460Y-75687037D01*
X174139459Y-75687035D01*
X174128525Y-75632067D01*
X174086872Y-75569728D01*
X174045218Y-75541896D01*
X174024532Y-75528074D01*
X173969563Y-75517140D01*
X173969560Y-75517140D01*
X173921460Y-75517140D01*
X173854421Y-75497455D01*
X173808666Y-75444651D01*
X173797460Y-75393140D01*
X173797460Y-74972060D01*
X173817145Y-74905021D01*
X173869949Y-74859266D01*
X173921460Y-74848060D01*
X175230506Y-74848060D01*
X175230507Y-74848059D01*
X175389594Y-74816415D01*
X175451668Y-74790702D01*
X175539455Y-74754341D01*
X175674325Y-74664223D01*
X176388774Y-73949774D01*
X177214819Y-73123730D01*
X177276142Y-73090245D01*
X177345834Y-73095229D01*
X177401767Y-73137101D01*
X177426184Y-73202565D01*
X177426500Y-73211411D01*
X177426500Y-100875900D01*
X177406815Y-100942939D01*
X177354011Y-100988694D01*
X177302500Y-100999900D01*
X167040566Y-100999900D01*
X166973527Y-100980215D01*
X166927772Y-100927411D01*
X166917828Y-100858253D01*
X166946853Y-100794697D01*
X166965079Y-100777525D01*
X166966397Y-100776513D01*
X166978515Y-100767215D01*
X167075511Y-100640808D01*
X167136485Y-100493604D01*
X167152060Y-100375299D01*
X167152059Y-98354302D01*
X167152059Y-98354301D01*
X167152059Y-98354298D01*
X167136487Y-98236004D01*
X167136485Y-98235997D01*
X167136485Y-98235996D01*
X167075513Y-98088796D01*
X167075513Y-98088795D01*
X167075511Y-98088792D01*
X166978515Y-97962385D01*
X166852108Y-97865389D01*
X166852105Y-97865388D01*
X166852103Y-97865386D01*
X166704907Y-97804416D01*
X166704902Y-97804414D01*
X166586599Y-97788840D01*
X165340598Y-97788840D01*
X165222304Y-97804412D01*
X165222292Y-97804416D01*
X165075096Y-97865386D01*
X165075095Y-97865386D01*
X164948685Y-97962385D01*
X164851686Y-98088795D01*
X164851686Y-98088796D01*
X164790716Y-98235992D01*
X164790714Y-98235997D01*
X164775141Y-98354291D01*
X164775141Y-98354298D01*
X164775140Y-98354307D01*
X164775140Y-100375301D01*
X164790712Y-100493595D01*
X164790716Y-100493607D01*
X164851686Y-100640803D01*
X164851686Y-100640804D01*
X164851688Y-100640807D01*
X164851689Y-100640808D01*
X164948685Y-100767215D01*
X164959306Y-100775365D01*
X164962121Y-100777525D01*
X165003324Y-100833953D01*
X165007478Y-100903699D01*
X164973265Y-100964619D01*
X164911547Y-100997371D01*
X164886634Y-100999900D01*
X160588966Y-100999900D01*
X160521927Y-100980215D01*
X160476172Y-100927411D01*
X160466228Y-100858253D01*
X160495253Y-100794697D01*
X160513479Y-100777525D01*
X160514797Y-100776513D01*
X160526915Y-100767215D01*
X160623911Y-100640808D01*
X160684885Y-100493604D01*
X160700460Y-100375299D01*
X160700459Y-98354302D01*
X160700459Y-98354301D01*
X160700459Y-98354298D01*
X160684887Y-98236004D01*
X160684885Y-98235997D01*
X160684885Y-98235996D01*
X160623913Y-98088796D01*
X160623913Y-98088795D01*
X160623911Y-98088792D01*
X160526915Y-97962385D01*
X160400508Y-97865389D01*
X160400505Y-97865388D01*
X160400503Y-97865386D01*
X160253307Y-97804416D01*
X160253302Y-97804414D01*
X160134999Y-97788840D01*
X158888998Y-97788840D01*
X158770704Y-97804412D01*
X158770692Y-97804416D01*
X158623496Y-97865386D01*
X158623495Y-97865386D01*
X158497085Y-97962385D01*
X158400086Y-98088795D01*
X158400086Y-98088796D01*
X158339116Y-98235992D01*
X158339114Y-98235997D01*
X158323541Y-98354291D01*
X158323541Y-98354298D01*
X158323540Y-98354307D01*
X158323540Y-100375301D01*
X158339112Y-100493595D01*
X158339116Y-100493607D01*
X158400086Y-100640803D01*
X158400086Y-100640804D01*
X158400088Y-100640807D01*
X158400089Y-100640808D01*
X158497085Y-100767215D01*
X158507706Y-100775365D01*
X158510521Y-100777525D01*
X158551724Y-100833953D01*
X158555878Y-100903699D01*
X158521665Y-100964619D01*
X158459947Y-100997371D01*
X158435034Y-100999900D01*
X138419500Y-100999900D01*
X138352461Y-100980215D01*
X138306706Y-100927411D01*
X138295500Y-100875900D01*
X138295500Y-99517200D01*
X147292515Y-99517200D01*
X147312564Y-99720774D01*
X147312565Y-99720776D01*
X147371946Y-99916525D01*
X147468372Y-100096927D01*
X147468374Y-100096930D01*
X147598144Y-100255055D01*
X147756269Y-100384825D01*
X147756272Y-100384827D01*
X147936674Y-100481253D01*
X147936676Y-100481254D01*
X148132423Y-100540634D01*
X148132425Y-100540635D01*
X148150677Y-100542432D01*
X148336000Y-100560685D01*
X148539574Y-100540635D01*
X148735324Y-100481254D01*
X148915729Y-100384826D01*
X149073855Y-100255055D01*
X149203626Y-100096929D01*
X149300054Y-99916524D01*
X149359435Y-99720774D01*
X149379485Y-99517200D01*
X149359435Y-99313626D01*
X149300054Y-99117876D01*
X149299640Y-99117101D01*
X149203627Y-98937472D01*
X149203625Y-98937469D01*
X149073855Y-98779344D01*
X148915730Y-98649574D01*
X148915727Y-98649572D01*
X148767807Y-98570508D01*
X148717963Y-98521546D01*
X148702260Y-98461150D01*
X148702260Y-88453193D01*
X148721945Y-88386154D01*
X148738579Y-88365512D01*
X151651057Y-85453034D01*
X154675837Y-82428253D01*
X154728582Y-82396959D01*
X154872942Y-82354571D01*
X154872942Y-82354570D01*
X154872945Y-82354570D01*
X154956389Y-82300944D01*
X155023428Y-82281260D01*
X159755607Y-82281260D01*
X159822646Y-82300945D01*
X159843288Y-82317579D01*
X164418021Y-86892312D01*
X164451506Y-86953635D01*
X164454340Y-86979993D01*
X164454340Y-92877407D01*
X164434655Y-92944446D01*
X164418021Y-92965088D01*
X163872195Y-93510913D01*
X163872191Y-93510918D01*
X163818047Y-93604700D01*
X163767480Y-93652916D01*
X163698873Y-93666139D01*
X163634008Y-93640171D01*
X163593480Y-93583257D01*
X163586660Y-93542700D01*
X163586660Y-87121239D01*
X163586660Y-87121237D01*
X163559969Y-87021625D01*
X163508406Y-86932315D01*
X163435485Y-86859394D01*
X160694885Y-84118794D01*
X160694884Y-84118793D01*
X160694881Y-84118791D01*
X160605577Y-84067232D01*
X160605576Y-84067231D01*
X160605575Y-84067231D01*
X160505963Y-84040540D01*
X160505961Y-84040540D01*
X156163828Y-84040540D01*
X156096789Y-84020856D01*
X156013343Y-83967228D01*
X155873747Y-83926240D01*
X155873746Y-83926240D01*
X155728254Y-83926240D01*
X155728253Y-83926240D01*
X155588656Y-83967228D01*
X155466260Y-84045888D01*
X155370983Y-84155842D01*
X155370980Y-84155847D01*
X155310543Y-84288186D01*
X155302885Y-84341446D01*
X155273859Y-84405002D01*
X155267828Y-84411479D01*
X150660915Y-89018394D01*
X150587995Y-89091313D01*
X150587991Y-89091318D01*
X150536432Y-89180622D01*
X150536432Y-89180623D01*
X150536431Y-89180625D01*
X150509740Y-89280237D01*
X150509740Y-89280239D01*
X150509740Y-98461150D01*
X150490055Y-98528189D01*
X150444193Y-98570508D01*
X150296272Y-98649572D01*
X150296269Y-98649574D01*
X150138144Y-98779344D01*
X150008374Y-98937469D01*
X150008372Y-98937472D01*
X149911946Y-99117874D01*
X149852565Y-99313623D01*
X149852564Y-99313625D01*
X149832515Y-99517200D01*
X149852564Y-99720774D01*
X149852565Y-99720776D01*
X149911946Y-99916525D01*
X150008372Y-100096927D01*
X150008374Y-100096930D01*
X150138144Y-100255055D01*
X150296269Y-100384825D01*
X150296272Y-100384827D01*
X150476674Y-100481253D01*
X150476676Y-100481254D01*
X150672423Y-100540634D01*
X150672425Y-100540635D01*
X150690677Y-100542432D01*
X150876000Y-100560685D01*
X151079574Y-100540635D01*
X151275324Y-100481254D01*
X151455729Y-100384826D01*
X151613855Y-100255055D01*
X151743626Y-100096929D01*
X151840054Y-99916524D01*
X151899435Y-99720774D01*
X151919485Y-99517200D01*
X151899435Y-99313626D01*
X151840054Y-99117876D01*
X151839640Y-99117101D01*
X151743627Y-98937472D01*
X151743625Y-98937469D01*
X151613855Y-98779344D01*
X151455730Y-98649575D01*
X151455729Y-98649574D01*
X151358605Y-98597660D01*
X151308763Y-98548699D01*
X151293060Y-98488303D01*
X151293060Y-89545393D01*
X151312745Y-89478354D01*
X151329379Y-89457712D01*
X151795897Y-88991194D01*
X156729600Y-88991194D01*
X156732470Y-89021802D01*
X156732472Y-89021814D01*
X156777592Y-89150756D01*
X156858719Y-89260680D01*
X156968643Y-89341807D01*
X157097585Y-89386927D01*
X157097597Y-89386929D01*
X157128206Y-89389800D01*
X157407800Y-89389800D01*
X157907800Y-89389800D01*
X158187394Y-89389800D01*
X158218002Y-89386929D01*
X158218014Y-89386927D01*
X158346956Y-89341807D01*
X158456880Y-89260680D01*
X158538007Y-89150756D01*
X158583127Y-89021814D01*
X158583129Y-89021802D01*
X158586000Y-88991194D01*
X158586000Y-88849100D01*
X157907800Y-88849100D01*
X157907800Y-89389800D01*
X157407800Y-89389800D01*
X157407800Y-88849100D01*
X156729600Y-88849100D01*
X156729600Y-88991194D01*
X151795897Y-88991194D01*
X152580086Y-88207005D01*
X156729600Y-88207005D01*
X156729600Y-88349100D01*
X157407800Y-88349100D01*
X157907800Y-88349100D01*
X158586000Y-88349100D01*
X158586000Y-88207005D01*
X158583129Y-88176397D01*
X158583127Y-88176385D01*
X158538007Y-88047443D01*
X158456880Y-87937519D01*
X158346956Y-87856392D01*
X158218014Y-87811272D01*
X158218002Y-87811270D01*
X158187394Y-87808400D01*
X157907800Y-87808400D01*
X157907800Y-88349100D01*
X157407800Y-88349100D01*
X157407800Y-87808400D01*
X157128206Y-87808400D01*
X157097597Y-87811270D01*
X157097585Y-87811272D01*
X156968643Y-87856392D01*
X156858719Y-87937519D01*
X156777592Y-88047443D01*
X156732472Y-88176385D01*
X156732470Y-88176397D01*
X156729600Y-88207005D01*
X152580086Y-88207005D01*
X153488379Y-87298712D01*
X155816237Y-84970853D01*
X155868982Y-84939559D01*
X156013342Y-84897171D01*
X156013342Y-84897170D01*
X156013345Y-84897170D01*
X156096789Y-84843544D01*
X156163828Y-84823860D01*
X160240807Y-84823860D01*
X160307846Y-84843545D01*
X160328488Y-84860179D01*
X162767021Y-87298712D01*
X162800506Y-87360035D01*
X162803340Y-87386393D01*
X162803340Y-93212500D01*
X162783655Y-93279539D01*
X162730851Y-93325294D01*
X162661693Y-93335238D01*
X162598137Y-93306213D01*
X162571953Y-93274500D01*
X162558458Y-93251126D01*
X162558454Y-93251121D01*
X159627378Y-90320045D01*
X159627373Y-90320041D01*
X159526485Y-90261794D01*
X159526484Y-90261793D01*
X159498350Y-90254254D01*
X159413951Y-90231640D01*
X159413948Y-90231640D01*
X158648583Y-90231640D01*
X158581544Y-90211955D01*
X158535789Y-90159151D01*
X158531547Y-90148610D01*
X158524828Y-90129407D01*
X158495249Y-90089329D01*
X158446340Y-90023059D01*
X158381933Y-89975525D01*
X158339993Y-89944572D01*
X158254328Y-89914596D01*
X158215240Y-89900918D01*
X158215231Y-89900916D01*
X158185625Y-89898140D01*
X157129981Y-89898140D01*
X157100368Y-89900916D01*
X157100359Y-89900918D01*
X156975608Y-89944571D01*
X156869260Y-90023059D01*
X156864970Y-90028873D01*
X156809323Y-90071124D01*
X156765199Y-90079240D01*
X156237183Y-90079240D01*
X156161539Y-90099508D01*
X156161539Y-90099509D01*
X156136323Y-90106265D01*
X156085890Y-90119779D01*
X155950247Y-90198094D01*
X155950244Y-90198096D01*
X152965394Y-93182946D01*
X152965388Y-93182954D01*
X152887082Y-93318586D01*
X152887079Y-93318591D01*
X152883624Y-93331486D01*
X152846540Y-93469885D01*
X152846540Y-93469887D01*
X152846540Y-95036220D01*
X152838482Y-95080190D01*
X152822320Y-95122804D01*
X152822318Y-95122812D01*
X152803791Y-95275400D01*
X152822318Y-95427988D01*
X152822319Y-95427990D01*
X152838482Y-95470610D01*
X152846540Y-95514579D01*
X152846540Y-98582498D01*
X152826855Y-98649537D01*
X152801205Y-98678351D01*
X152678144Y-98779344D01*
X152548374Y-98937469D01*
X152548372Y-98937472D01*
X152451946Y-99117874D01*
X152392565Y-99313623D01*
X152392564Y-99313625D01*
X152372515Y-99517200D01*
X152392564Y-99720774D01*
X152392565Y-99720776D01*
X152451946Y-99916525D01*
X152548372Y-100096927D01*
X152548374Y-100096930D01*
X152678144Y-100255055D01*
X152836269Y-100384825D01*
X152836272Y-100384827D01*
X153016674Y-100481253D01*
X153016676Y-100481254D01*
X153212423Y-100540634D01*
X153212425Y-100540635D01*
X153230677Y-100542432D01*
X153416000Y-100560685D01*
X153619574Y-100540635D01*
X153815324Y-100481254D01*
X153995729Y-100384826D01*
X154153855Y-100255055D01*
X154283626Y-100096929D01*
X154380054Y-99916524D01*
X154439435Y-99720774D01*
X154459485Y-99517200D01*
X154439435Y-99313626D01*
X154380054Y-99117876D01*
X154379640Y-99117101D01*
X154283627Y-98937472D01*
X154283625Y-98937469D01*
X154153855Y-98779344D01*
X154081595Y-98720042D01*
X154042261Y-98662296D01*
X154039881Y-98647181D01*
X154902800Y-98647181D01*
X154902800Y-99267200D01*
X155522988Y-99267200D01*
X155490075Y-99324207D01*
X155456000Y-99451374D01*
X155456000Y-99583026D01*
X155490075Y-99710193D01*
X155522988Y-99767200D01*
X154902800Y-99767200D01*
X154902800Y-100387218D01*
X154914588Y-100446480D01*
X154914590Y-100446484D01*
X154959501Y-100513698D01*
X155026715Y-100558609D01*
X155026719Y-100558611D01*
X155085981Y-100570399D01*
X155085984Y-100570400D01*
X155706000Y-100570400D01*
X155706000Y-99950212D01*
X155763007Y-99983125D01*
X155890174Y-100017200D01*
X156021826Y-100017200D01*
X156148993Y-99983125D01*
X156206000Y-99950212D01*
X156206000Y-100570400D01*
X156826016Y-100570400D01*
X156826018Y-100570399D01*
X156885280Y-100558611D01*
X156885284Y-100558609D01*
X156952498Y-100513698D01*
X156997409Y-100446484D01*
X156997411Y-100446480D01*
X157009199Y-100387218D01*
X157009200Y-100387216D01*
X157009200Y-99767200D01*
X156389012Y-99767200D01*
X156421925Y-99710193D01*
X156456000Y-99583026D01*
X156456000Y-99451374D01*
X156421925Y-99324207D01*
X156389012Y-99267200D01*
X157009200Y-99267200D01*
X157009200Y-98647183D01*
X157009199Y-98647181D01*
X156997411Y-98587919D01*
X156997409Y-98587915D01*
X156952498Y-98520701D01*
X156885284Y-98475790D01*
X156885280Y-98475788D01*
X156826017Y-98464000D01*
X156206000Y-98464000D01*
X156206000Y-99084188D01*
X156148993Y-99051275D01*
X156021826Y-99017200D01*
X155890174Y-99017200D01*
X155763007Y-99051275D01*
X155706000Y-99084188D01*
X155706000Y-98464000D01*
X155085983Y-98464000D01*
X155026719Y-98475788D01*
X155026715Y-98475790D01*
X154959501Y-98520701D01*
X154914590Y-98587915D01*
X154914588Y-98587919D01*
X154902800Y-98647181D01*
X154039881Y-98647181D01*
X154036260Y-98624189D01*
X154036260Y-97608072D01*
X172167300Y-97608072D01*
X172167300Y-97870327D01*
X172193923Y-98072539D01*
X172201530Y-98130316D01*
X172261547Y-98354302D01*
X172269402Y-98383618D01*
X172269405Y-98383628D01*
X172369753Y-98625890D01*
X172369758Y-98625900D01*
X172500875Y-98853003D01*
X172660518Y-99061051D01*
X172660526Y-99061060D01*
X172845940Y-99246474D01*
X172845948Y-99246481D01*
X173053996Y-99406124D01*
X173281099Y-99537241D01*
X173281109Y-99537246D01*
X173523371Y-99637594D01*
X173523381Y-99637598D01*
X173776684Y-99705470D01*
X174036680Y-99739700D01*
X174036687Y-99739700D01*
X174298913Y-99739700D01*
X174298920Y-99739700D01*
X174558916Y-99705470D01*
X174812219Y-99637598D01*
X175054497Y-99537243D01*
X175281603Y-99406124D01*
X175489651Y-99246482D01*
X175489655Y-99246477D01*
X175489660Y-99246474D01*
X175675074Y-99061060D01*
X175675077Y-99061055D01*
X175675082Y-99061051D01*
X175834724Y-98853003D01*
X175965843Y-98625897D01*
X175966551Y-98624189D01*
X175995068Y-98555342D01*
X176066198Y-98383619D01*
X176134070Y-98130316D01*
X176168300Y-97870320D01*
X176168300Y-97608080D01*
X176134070Y-97348084D01*
X176066198Y-97094781D01*
X176066194Y-97094771D01*
X175965846Y-96852509D01*
X175965841Y-96852499D01*
X175834724Y-96625396D01*
X175675081Y-96417348D01*
X175675074Y-96417340D01*
X175489660Y-96231926D01*
X175489651Y-96231918D01*
X175281603Y-96072275D01*
X175054500Y-95941158D01*
X175054490Y-95941153D01*
X174812228Y-95840805D01*
X174812221Y-95840803D01*
X174812219Y-95840802D01*
X174558916Y-95772930D01*
X174501139Y-95765323D01*
X174298927Y-95738700D01*
X174298920Y-95738700D01*
X174036680Y-95738700D01*
X174036672Y-95738700D01*
X173805572Y-95769126D01*
X173776684Y-95772930D01*
X173523381Y-95840802D01*
X173523371Y-95840805D01*
X173281109Y-95941153D01*
X173281099Y-95941158D01*
X173053996Y-96072275D01*
X172845948Y-96231918D01*
X172660518Y-96417348D01*
X172500875Y-96625396D01*
X172369758Y-96852499D01*
X172369753Y-96852509D01*
X172269405Y-97094771D01*
X172269402Y-97094781D01*
X172201530Y-97348085D01*
X172167300Y-97608072D01*
X154036260Y-97608072D01*
X154036260Y-96984394D01*
X168210400Y-96984394D01*
X168213270Y-97015002D01*
X168213272Y-97015014D01*
X168258392Y-97143956D01*
X168339519Y-97253880D01*
X168449443Y-97335007D01*
X168578385Y-97380127D01*
X168578397Y-97380129D01*
X168609006Y-97383000D01*
X168888600Y-97383000D01*
X169388600Y-97383000D01*
X169668194Y-97383000D01*
X169698802Y-97380129D01*
X169698814Y-97380127D01*
X169827756Y-97335007D01*
X169937680Y-97253880D01*
X170018807Y-97143956D01*
X170063927Y-97015014D01*
X170063929Y-97015002D01*
X170066800Y-96984394D01*
X170066800Y-96842300D01*
X169388600Y-96842300D01*
X169388600Y-97383000D01*
X168888600Y-97383000D01*
X168888600Y-96842300D01*
X168210400Y-96842300D01*
X168210400Y-96984394D01*
X154036260Y-96984394D01*
X154036260Y-96600921D01*
X160709201Y-96600921D01*
X160719203Y-96669577D01*
X160770973Y-96775474D01*
X160854324Y-96858825D01*
X160960227Y-96910598D01*
X160962400Y-96910913D01*
X160962400Y-96192400D01*
X160709201Y-96192400D01*
X160709201Y-96600921D01*
X154036260Y-96600921D01*
X154036260Y-95574599D01*
X154052873Y-95512599D01*
X154071921Y-95479607D01*
X154112460Y-95328314D01*
X154112460Y-95283882D01*
X160709200Y-95283882D01*
X160709200Y-95692400D01*
X160962400Y-95692400D01*
X160962400Y-94973884D01*
X160960231Y-94974201D01*
X160960225Y-94974202D01*
X160854324Y-95025974D01*
X160770973Y-95109325D01*
X160719202Y-95215223D01*
X160709200Y-95283882D01*
X154112460Y-95283882D01*
X154112460Y-95171686D01*
X154071921Y-95020393D01*
X154056286Y-94993311D01*
X154052872Y-94987397D01*
X154036260Y-94925399D01*
X154036260Y-93845961D01*
X154055945Y-93778922D01*
X154072579Y-93758280D01*
X156525580Y-91305279D01*
X156586903Y-91271794D01*
X156613261Y-91268960D01*
X156765199Y-91268960D01*
X156832238Y-91288645D01*
X156864969Y-91319326D01*
X156869260Y-91325140D01*
X156975607Y-91403628D01*
X157100364Y-91447283D01*
X157129979Y-91450060D01*
X158185620Y-91450059D01*
X158215236Y-91447283D01*
X158339993Y-91403628D01*
X158446340Y-91325140D01*
X158524828Y-91218793D01*
X158531542Y-91199603D01*
X158572262Y-91142830D01*
X158637215Y-91117082D01*
X158648583Y-91116560D01*
X159121065Y-91116560D01*
X159188104Y-91136245D01*
X159208746Y-91152879D01*
X161725621Y-93669754D01*
X161759106Y-93731077D01*
X161761940Y-93757435D01*
X161761940Y-94921780D01*
X161742255Y-94988819D01*
X161689451Y-95034574D01*
X161620293Y-95044518D01*
X161580623Y-95028610D01*
X161579706Y-95030487D01*
X161464574Y-94974202D01*
X161464568Y-94974201D01*
X161462400Y-94973884D01*
X161462400Y-96910912D01*
X161464572Y-96910598D01*
X161570473Y-96858826D01*
X161635141Y-96794158D01*
X161696464Y-96760673D01*
X161766156Y-96765657D01*
X161810504Y-96794158D01*
X161865273Y-96848927D01*
X161973447Y-96899369D01*
X161973448Y-96899370D01*
X161981408Y-96900417D01*
X162022744Y-96905860D01*
X162022751Y-96905860D01*
X162402049Y-96905860D01*
X162402056Y-96905860D01*
X162451351Y-96899370D01*
X162559527Y-96848927D01*
X162624719Y-96783735D01*
X162686042Y-96750250D01*
X162755734Y-96755234D01*
X162800081Y-96783735D01*
X162865273Y-96848927D01*
X162973447Y-96899369D01*
X162973448Y-96899370D01*
X162981408Y-96900417D01*
X163022744Y-96905860D01*
X163022751Y-96905860D01*
X163402049Y-96905860D01*
X163402056Y-96905860D01*
X163451351Y-96899370D01*
X163559527Y-96848927D01*
X163624719Y-96783735D01*
X163686042Y-96750250D01*
X163755734Y-96755234D01*
X163800081Y-96783735D01*
X163865273Y-96848927D01*
X163973447Y-96899369D01*
X163973448Y-96899370D01*
X163981408Y-96900417D01*
X164022744Y-96905860D01*
X164022751Y-96905860D01*
X164402049Y-96905860D01*
X164402056Y-96905860D01*
X164451351Y-96899370D01*
X164559527Y-96848927D01*
X164643927Y-96764527D01*
X164694370Y-96656351D01*
X164700860Y-96607056D01*
X164700860Y-96200205D01*
X168210400Y-96200205D01*
X168210400Y-96342300D01*
X168888600Y-96342300D01*
X169388600Y-96342300D01*
X170066800Y-96342300D01*
X170066800Y-96200205D01*
X170063929Y-96169597D01*
X170063927Y-96169585D01*
X170018807Y-96040643D01*
X169937680Y-95930719D01*
X169827756Y-95849592D01*
X169698814Y-95804472D01*
X169698802Y-95804470D01*
X169668194Y-95801600D01*
X169388600Y-95801600D01*
X169388600Y-96342300D01*
X168888600Y-96342300D01*
X168888600Y-95801600D01*
X168609006Y-95801600D01*
X168578397Y-95804470D01*
X168578385Y-95804472D01*
X168449443Y-95849592D01*
X168339519Y-95930719D01*
X168258392Y-96040643D01*
X168213272Y-96169585D01*
X168213270Y-96169597D01*
X168210400Y-96200205D01*
X164700860Y-96200205D01*
X164700860Y-95277744D01*
X164694370Y-95228449D01*
X164643927Y-95120273D01*
X164613579Y-95089925D01*
X164580094Y-95028602D01*
X164577260Y-95002244D01*
X164577260Y-94126974D01*
X168225140Y-94126974D01*
X168225140Y-94907618D01*
X168227916Y-94937231D01*
X168227918Y-94937240D01*
X168271571Y-95061991D01*
X168350059Y-95168340D01*
X168395218Y-95201668D01*
X168456407Y-95246828D01*
X168581164Y-95290483D01*
X168610779Y-95293260D01*
X169666420Y-95293259D01*
X169696036Y-95290483D01*
X169820793Y-95246828D01*
X169927140Y-95168340D01*
X169953777Y-95132246D01*
X170009424Y-95089995D01*
X170021447Y-95086106D01*
X170075507Y-95071621D01*
X170164237Y-95020393D01*
X170164239Y-95020391D01*
X170164242Y-95020391D01*
X170211145Y-94993311D01*
X170211144Y-94993311D01*
X170211152Y-94993307D01*
X172256206Y-92948253D01*
X172334521Y-92812608D01*
X172375060Y-92661314D01*
X172375060Y-92504686D01*
X172375060Y-92168659D01*
X172394745Y-92101620D01*
X172447549Y-92055865D01*
X172499060Y-92044659D01*
X173235855Y-92044659D01*
X173305203Y-92038358D01*
X173305204Y-92038357D01*
X173305210Y-92038357D01*
X173464828Y-91988618D01*
X173538468Y-91944100D01*
X173607899Y-91902129D01*
X173607900Y-91902127D01*
X173607905Y-91902125D01*
X173726125Y-91783905D01*
X173812618Y-91640828D01*
X173862357Y-91481210D01*
X173868660Y-91411849D01*
X173868659Y-90300552D01*
X173868659Y-90300551D01*
X173868659Y-90300543D01*
X173862358Y-90231196D01*
X173862357Y-90231193D01*
X173862357Y-90231190D01*
X173818152Y-90089330D01*
X173812619Y-90071574D01*
X173812617Y-90071570D01*
X173726129Y-89928500D01*
X173726125Y-89928495D01*
X173607904Y-89810274D01*
X173607899Y-89810270D01*
X173464829Y-89723782D01*
X173464825Y-89723780D01*
X173305210Y-89674043D01*
X173305212Y-89674043D01*
X173277465Y-89671521D01*
X173235849Y-89667740D01*
X173235846Y-89667740D01*
X172727660Y-89667740D01*
X172660621Y-89648055D01*
X172614866Y-89595251D01*
X172603660Y-89543740D01*
X172603660Y-85564431D01*
X172623345Y-85497392D01*
X172629285Y-85488944D01*
X172647380Y-85465362D01*
X172647379Y-85465362D01*
X172647381Y-85465361D01*
X172704157Y-85328293D01*
X172718533Y-85219094D01*
X173127001Y-85219094D01*
X173141883Y-85332141D01*
X173200142Y-85472792D01*
X173292823Y-85593576D01*
X173413607Y-85686257D01*
X173554256Y-85744515D01*
X173554261Y-85744516D01*
X173667304Y-85759399D01*
X173830199Y-85759399D01*
X174330200Y-85759399D01*
X174493095Y-85759399D01*
X174606141Y-85744516D01*
X174746792Y-85686257D01*
X174867576Y-85593576D01*
X174960257Y-85472792D01*
X175018515Y-85332143D01*
X175018516Y-85332138D01*
X175033399Y-85219102D01*
X175033400Y-85219088D01*
X175033400Y-84806200D01*
X174330200Y-84806200D01*
X174330200Y-85759399D01*
X173830199Y-85759399D01*
X173830200Y-85759398D01*
X173830200Y-84806200D01*
X173127001Y-84806200D01*
X173127001Y-85219094D01*
X172718533Y-85219094D01*
X172718660Y-85218131D01*
X172718659Y-83894270D01*
X172718659Y-83894269D01*
X172718659Y-83894266D01*
X172718531Y-83893297D01*
X173127000Y-83893297D01*
X173127000Y-84306200D01*
X173830200Y-84306200D01*
X174330200Y-84306200D01*
X175033399Y-84306200D01*
X175033399Y-83893305D01*
X175018516Y-83780258D01*
X174960257Y-83639607D01*
X174867576Y-83518823D01*
X174746792Y-83426142D01*
X174606143Y-83367884D01*
X174606138Y-83367883D01*
X174493102Y-83353000D01*
X174330200Y-83353000D01*
X174330200Y-84306200D01*
X173830200Y-84306200D01*
X173830200Y-83353000D01*
X173667305Y-83353000D01*
X173554258Y-83367883D01*
X173413607Y-83426142D01*
X173292823Y-83518823D01*
X173200142Y-83639607D01*
X173141884Y-83780256D01*
X173141883Y-83780261D01*
X173127000Y-83893297D01*
X172718531Y-83893297D01*
X172704159Y-83784115D01*
X172704157Y-83784110D01*
X172704157Y-83784107D01*
X172647381Y-83647039D01*
X172557064Y-83529336D01*
X172439361Y-83439019D01*
X172439357Y-83439017D01*
X172360043Y-83406164D01*
X172302293Y-83382243D01*
X172192131Y-83367740D01*
X171368266Y-83367740D01*
X171258115Y-83382240D01*
X171258106Y-83382243D01*
X171121042Y-83439017D01*
X171121039Y-83439018D01*
X171121039Y-83439019D01*
X171003336Y-83529336D01*
X170978294Y-83561972D01*
X170913017Y-83647042D01*
X170856243Y-83784106D01*
X170856243Y-83784107D01*
X170841740Y-83894261D01*
X170841740Y-85218133D01*
X170856240Y-85328284D01*
X170856243Y-85328293D01*
X170913017Y-85465358D01*
X170913019Y-85465362D01*
X170931115Y-85488944D01*
X170956310Y-85554113D01*
X170956740Y-85564431D01*
X170956740Y-89543740D01*
X170937055Y-89610779D01*
X170884251Y-89656534D01*
X170832740Y-89667740D01*
X170324543Y-89667740D01*
X170255196Y-89674041D01*
X170255189Y-89674043D01*
X170095574Y-89723780D01*
X170095570Y-89723782D01*
X169952500Y-89810270D01*
X169952495Y-89810274D01*
X169834274Y-89928495D01*
X169834270Y-89928500D01*
X169747782Y-90071570D01*
X169747780Y-90071574D01*
X169698043Y-90231188D01*
X169691740Y-90300553D01*
X169691740Y-91411856D01*
X169698041Y-91481203D01*
X169698043Y-91481210D01*
X169747780Y-91640825D01*
X169747782Y-91640829D01*
X169834270Y-91783899D01*
X169834274Y-91783904D01*
X169952495Y-91902125D01*
X169952500Y-91902129D01*
X170095570Y-91988617D01*
X170095574Y-91988619D01*
X170152033Y-92006212D01*
X170255190Y-92038357D01*
X170324551Y-92044660D01*
X171061340Y-92044659D01*
X171128379Y-92064343D01*
X171174134Y-92117147D01*
X171185340Y-92168659D01*
X171185340Y-92285238D01*
X171165655Y-92352277D01*
X171149021Y-92372919D01*
X169811087Y-93710852D01*
X169749764Y-93744337D01*
X169703596Y-93744319D01*
X169703549Y-93744821D01*
X169698178Y-93744317D01*
X169696956Y-93744317D01*
X169696039Y-93744116D01*
X169666425Y-93741340D01*
X168610781Y-93741340D01*
X168581168Y-93744116D01*
X168581159Y-93744118D01*
X168456408Y-93787771D01*
X168350059Y-93866259D01*
X168271572Y-93972607D01*
X168227918Y-94097359D01*
X168227916Y-94097368D01*
X168225140Y-94126974D01*
X164577260Y-94126974D01*
X164577260Y-93964993D01*
X164596945Y-93897954D01*
X164613579Y-93877312D01*
X164886191Y-93604700D01*
X165159406Y-93331485D01*
X165210969Y-93242175D01*
X165237660Y-93142563D01*
X165237660Y-93039437D01*
X165237660Y-86714837D01*
X165210969Y-86615225D01*
X165159406Y-86525915D01*
X165086485Y-86452994D01*
X160209685Y-81576194D01*
X160209684Y-81576193D01*
X160209681Y-81576191D01*
X160120377Y-81524632D01*
X160120376Y-81524631D01*
X160120375Y-81524631D01*
X160020763Y-81497940D01*
X160020761Y-81497940D01*
X155023428Y-81497940D01*
X154956389Y-81478256D01*
X154872943Y-81424628D01*
X154733347Y-81383640D01*
X154733346Y-81383640D01*
X154587854Y-81383640D01*
X154587853Y-81383640D01*
X154448256Y-81424628D01*
X154325860Y-81503288D01*
X154230583Y-81613242D01*
X154230580Y-81613247D01*
X154170143Y-81745586D01*
X154162485Y-81798846D01*
X154133459Y-81862402D01*
X154127428Y-81868879D01*
X148070115Y-87926194D01*
X147997195Y-87999113D01*
X147997191Y-87999118D01*
X147945632Y-88088422D01*
X147945632Y-88088423D01*
X147945631Y-88088425D01*
X147918940Y-88188037D01*
X147918940Y-88188039D01*
X147918940Y-98488303D01*
X147899255Y-98555342D01*
X147853394Y-98597660D01*
X147766985Y-98643847D01*
X147756269Y-98649575D01*
X147598144Y-98779344D01*
X147468374Y-98937469D01*
X147468372Y-98937472D01*
X147371946Y-99117874D01*
X147312565Y-99313623D01*
X147312564Y-99313625D01*
X147292515Y-99517200D01*
X138295500Y-99517200D01*
X138295500Y-91799600D01*
X141342246Y-91799600D01*
X141933988Y-91799600D01*
X141901075Y-91856607D01*
X141867000Y-91983774D01*
X141867000Y-92115426D01*
X141901075Y-92242593D01*
X141933988Y-92299600D01*
X141342246Y-92299600D01*
X141389263Y-92454596D01*
X141487055Y-92637552D01*
X141487059Y-92637559D01*
X141618671Y-92797928D01*
X141779040Y-92929540D01*
X141779047Y-92929544D01*
X141962003Y-93027336D01*
X142117000Y-93074353D01*
X142117000Y-92482612D01*
X142174007Y-92515525D01*
X142301174Y-92549600D01*
X142432826Y-92549600D01*
X142559993Y-92515525D01*
X142617000Y-92482612D01*
X142617000Y-93074353D01*
X142771996Y-93027336D01*
X142954952Y-92929544D01*
X142954959Y-92929540D01*
X143115328Y-92797928D01*
X143246940Y-92637559D01*
X143246944Y-92637552D01*
X143344736Y-92454596D01*
X143391754Y-92299600D01*
X142800012Y-92299600D01*
X142832925Y-92242593D01*
X142867000Y-92115426D01*
X142867000Y-91983774D01*
X142832925Y-91856607D01*
X142800012Y-91799600D01*
X143391754Y-91799600D01*
X143882246Y-91799600D01*
X144473988Y-91799600D01*
X144441075Y-91856607D01*
X144407000Y-91983774D01*
X144407000Y-92115426D01*
X144441075Y-92242593D01*
X144473988Y-92299600D01*
X143882246Y-92299600D01*
X143929263Y-92454596D01*
X144027055Y-92637552D01*
X144027059Y-92637559D01*
X144158671Y-92797928D01*
X144319040Y-92929540D01*
X144319047Y-92929544D01*
X144502003Y-93027336D01*
X144657000Y-93074353D01*
X144657000Y-92482612D01*
X144714007Y-92515525D01*
X144841174Y-92549600D01*
X144972826Y-92549600D01*
X145099993Y-92515525D01*
X145157000Y-92482612D01*
X145157000Y-93074353D01*
X145311996Y-93027336D01*
X145494952Y-92929544D01*
X145494959Y-92929540D01*
X145655328Y-92797928D01*
X145786940Y-92637559D01*
X145786944Y-92637552D01*
X145884736Y-92454596D01*
X145931754Y-92299600D01*
X145340012Y-92299600D01*
X145372925Y-92242593D01*
X145407000Y-92115426D01*
X145407000Y-91983774D01*
X145372925Y-91856607D01*
X145340012Y-91799600D01*
X145931754Y-91799600D01*
X145884736Y-91644603D01*
X145786944Y-91461647D01*
X145786940Y-91461640D01*
X145655328Y-91301271D01*
X145494959Y-91169659D01*
X145494952Y-91169655D01*
X145311993Y-91071862D01*
X145157000Y-91024844D01*
X145157000Y-91616588D01*
X145099993Y-91583675D01*
X144972826Y-91549600D01*
X144841174Y-91549600D01*
X144714007Y-91583675D01*
X144657000Y-91616588D01*
X144657000Y-91024844D01*
X144502006Y-91071862D01*
X144319047Y-91169655D01*
X144319040Y-91169659D01*
X144158671Y-91301271D01*
X144027059Y-91461640D01*
X144027055Y-91461647D01*
X143929263Y-91644603D01*
X143882246Y-91799600D01*
X143391754Y-91799600D01*
X143344736Y-91644603D01*
X143246944Y-91461647D01*
X143246940Y-91461640D01*
X143115328Y-91301271D01*
X142954959Y-91169659D01*
X142954952Y-91169655D01*
X142771993Y-91071862D01*
X142617000Y-91024844D01*
X142617000Y-91616588D01*
X142559993Y-91583675D01*
X142432826Y-91549600D01*
X142301174Y-91549600D01*
X142174007Y-91583675D01*
X142117000Y-91616588D01*
X142117000Y-91024844D01*
X141962006Y-91071862D01*
X141779047Y-91169655D01*
X141779040Y-91169659D01*
X141618671Y-91301271D01*
X141487059Y-91461640D01*
X141487055Y-91461647D01*
X141389263Y-91644603D01*
X141342246Y-91799600D01*
X138295500Y-91799600D01*
X138295500Y-89259600D01*
X141342246Y-89259600D01*
X141933988Y-89259600D01*
X141901075Y-89316607D01*
X141867000Y-89443774D01*
X141867000Y-89575426D01*
X141901075Y-89702593D01*
X141933988Y-89759600D01*
X141342246Y-89759600D01*
X141389263Y-89914596D01*
X141487055Y-90097552D01*
X141487059Y-90097559D01*
X141618671Y-90257928D01*
X141779040Y-90389540D01*
X141779047Y-90389544D01*
X141962003Y-90487336D01*
X142117000Y-90534353D01*
X142117000Y-89942612D01*
X142174007Y-89975525D01*
X142301174Y-90009600D01*
X142432826Y-90009600D01*
X142559993Y-89975525D01*
X142617000Y-89942612D01*
X142617000Y-90534353D01*
X142771996Y-90487336D01*
X142954952Y-90389544D01*
X142954959Y-90389540D01*
X143115328Y-90257928D01*
X143246940Y-90097559D01*
X143246944Y-90097552D01*
X143344736Y-89914596D01*
X143391754Y-89759600D01*
X142800012Y-89759600D01*
X142832925Y-89702593D01*
X142867000Y-89575426D01*
X142867000Y-89509600D01*
X143863515Y-89509600D01*
X143883564Y-89713174D01*
X143883565Y-89713176D01*
X143942946Y-89908925D01*
X144039372Y-90089327D01*
X144039374Y-90089330D01*
X144169144Y-90247455D01*
X144327269Y-90377225D01*
X144327272Y-90377227D01*
X144350316Y-90389544D01*
X144507676Y-90473654D01*
X144703423Y-90533034D01*
X144703425Y-90533035D01*
X144716808Y-90534353D01*
X144907000Y-90553085D01*
X145110574Y-90533035D01*
X145306324Y-90473654D01*
X145486729Y-90377226D01*
X145644855Y-90247455D01*
X145774626Y-90089329D01*
X145871054Y-89908924D01*
X145930435Y-89713174D01*
X145950485Y-89509600D01*
X145930435Y-89306026D01*
X145871054Y-89110276D01*
X145835455Y-89043675D01*
X145774627Y-88929872D01*
X145774625Y-88929869D01*
X145644855Y-88771744D01*
X145486730Y-88641974D01*
X145486727Y-88641972D01*
X145306325Y-88545546D01*
X145110576Y-88486165D01*
X145110574Y-88486164D01*
X144907000Y-88466115D01*
X144703425Y-88486164D01*
X144703423Y-88486165D01*
X144507674Y-88545546D01*
X144327272Y-88641972D01*
X144327269Y-88641974D01*
X144169144Y-88771744D01*
X144039374Y-88929869D01*
X144039372Y-88929872D01*
X143942946Y-89110274D01*
X143883565Y-89306023D01*
X143883564Y-89306025D01*
X143863515Y-89509600D01*
X142867000Y-89509600D01*
X142867000Y-89443774D01*
X142832925Y-89316607D01*
X142800012Y-89259600D01*
X143391754Y-89259600D01*
X143344736Y-89104603D01*
X143246944Y-88921647D01*
X143246940Y-88921640D01*
X143115328Y-88761271D01*
X142954959Y-88629659D01*
X142954952Y-88629655D01*
X142771993Y-88531862D01*
X142617000Y-88484844D01*
X142617000Y-89076588D01*
X142559993Y-89043675D01*
X142432826Y-89009600D01*
X142301174Y-89009600D01*
X142174007Y-89043675D01*
X142117000Y-89076588D01*
X142117000Y-88484844D01*
X141962006Y-88531862D01*
X141779047Y-88629655D01*
X141779040Y-88629659D01*
X141618671Y-88761271D01*
X141487059Y-88921640D01*
X141487055Y-88921647D01*
X141389263Y-89104603D01*
X141342246Y-89259600D01*
X138295500Y-89259600D01*
X138295500Y-86969600D01*
X141323515Y-86969600D01*
X141343564Y-87173174D01*
X141343565Y-87173176D01*
X141402946Y-87368925D01*
X141499372Y-87549327D01*
X141499374Y-87549330D01*
X141629144Y-87707455D01*
X141787269Y-87837225D01*
X141787272Y-87837227D01*
X141823128Y-87856392D01*
X141967676Y-87933654D01*
X142163423Y-87993034D01*
X142163425Y-87993035D01*
X142181677Y-87994832D01*
X142367000Y-88013085D01*
X142570574Y-87993035D01*
X142766324Y-87933654D01*
X142946729Y-87837226D01*
X143104855Y-87707455D01*
X143234626Y-87549329D01*
X143331054Y-87368924D01*
X143390435Y-87173174D01*
X143410485Y-86969600D01*
X143863515Y-86969600D01*
X143883564Y-87173174D01*
X143883565Y-87173176D01*
X143942946Y-87368925D01*
X144039372Y-87549327D01*
X144039374Y-87549330D01*
X144169144Y-87707455D01*
X144327269Y-87837225D01*
X144327272Y-87837227D01*
X144363128Y-87856392D01*
X144507676Y-87933654D01*
X144703423Y-87993034D01*
X144703425Y-87993035D01*
X144721677Y-87994832D01*
X144907000Y-88013085D01*
X145110574Y-87993035D01*
X145306324Y-87933654D01*
X145486729Y-87837226D01*
X145644855Y-87707455D01*
X145774626Y-87549329D01*
X145871054Y-87368924D01*
X145930435Y-87173174D01*
X145950485Y-86969600D01*
X145930435Y-86766026D01*
X145871054Y-86570276D01*
X145774626Y-86389871D01*
X145774625Y-86389869D01*
X145644855Y-86231744D01*
X145486730Y-86101974D01*
X145486727Y-86101972D01*
X145306325Y-86005546D01*
X145110576Y-85946165D01*
X145110574Y-85946164D01*
X144907000Y-85926115D01*
X144703425Y-85946164D01*
X144703423Y-85946165D01*
X144507674Y-86005546D01*
X144327272Y-86101972D01*
X144327269Y-86101974D01*
X144169144Y-86231744D01*
X144039374Y-86389869D01*
X144039372Y-86389872D01*
X143942946Y-86570274D01*
X143883565Y-86766023D01*
X143883564Y-86766025D01*
X143863515Y-86969600D01*
X143410485Y-86969600D01*
X143390435Y-86766026D01*
X143331054Y-86570276D01*
X143234626Y-86389871D01*
X143234625Y-86389869D01*
X143104855Y-86231744D01*
X142946730Y-86101974D01*
X142946727Y-86101972D01*
X142766325Y-86005546D01*
X142570576Y-85946165D01*
X142570574Y-85946164D01*
X142367000Y-85926115D01*
X142163425Y-85946164D01*
X142163423Y-85946165D01*
X141967674Y-86005546D01*
X141787272Y-86101972D01*
X141787269Y-86101974D01*
X141629144Y-86231744D01*
X141499374Y-86389869D01*
X141499372Y-86389872D01*
X141402946Y-86570274D01*
X141343565Y-86766023D01*
X141343564Y-86766025D01*
X141323515Y-86969600D01*
X138295500Y-86969600D01*
X138295500Y-84429600D01*
X141323515Y-84429600D01*
X141343564Y-84633174D01*
X141343565Y-84633176D01*
X141402946Y-84828925D01*
X141499372Y-85009327D01*
X141499374Y-85009330D01*
X141629144Y-85167455D01*
X141787269Y-85297225D01*
X141787272Y-85297227D01*
X141852596Y-85332143D01*
X141967676Y-85393654D01*
X142163423Y-85453034D01*
X142163425Y-85453035D01*
X142181677Y-85454832D01*
X142367000Y-85473085D01*
X142570574Y-85453035D01*
X142766324Y-85393654D01*
X142946729Y-85297226D01*
X143104855Y-85167455D01*
X143234626Y-85009329D01*
X143331054Y-84828924D01*
X143390435Y-84633174D01*
X143410485Y-84429600D01*
X143863515Y-84429600D01*
X143883564Y-84633174D01*
X143883565Y-84633176D01*
X143942946Y-84828925D01*
X144039372Y-85009327D01*
X144039374Y-85009330D01*
X144169144Y-85167455D01*
X144327269Y-85297225D01*
X144327272Y-85297227D01*
X144392596Y-85332143D01*
X144507676Y-85393654D01*
X144703423Y-85453034D01*
X144703425Y-85453035D01*
X144721677Y-85454832D01*
X144907000Y-85473085D01*
X145110574Y-85453035D01*
X145306324Y-85393654D01*
X145486729Y-85297226D01*
X145644855Y-85167455D01*
X145774626Y-85009329D01*
X145871054Y-84828924D01*
X145930435Y-84633174D01*
X145950485Y-84429600D01*
X145930435Y-84226026D01*
X145871054Y-84030276D01*
X145866019Y-84020856D01*
X145774627Y-83849872D01*
X145774625Y-83849869D01*
X145644855Y-83691744D01*
X145486730Y-83561974D01*
X145486727Y-83561972D01*
X145306325Y-83465546D01*
X145110576Y-83406165D01*
X145110574Y-83406164D01*
X144907000Y-83386115D01*
X144703425Y-83406164D01*
X144703423Y-83406165D01*
X144507674Y-83465546D01*
X144327272Y-83561972D01*
X144327269Y-83561974D01*
X144169144Y-83691744D01*
X144039374Y-83849869D01*
X144039372Y-83849872D01*
X143942946Y-84030274D01*
X143883565Y-84226023D01*
X143883564Y-84226025D01*
X143863515Y-84429600D01*
X143410485Y-84429600D01*
X143390435Y-84226026D01*
X143331054Y-84030276D01*
X143326019Y-84020856D01*
X143234627Y-83849872D01*
X143234625Y-83849869D01*
X143104855Y-83691744D01*
X142946730Y-83561974D01*
X142946727Y-83561972D01*
X142766325Y-83465546D01*
X142570576Y-83406165D01*
X142570574Y-83406164D01*
X142367000Y-83386115D01*
X142163425Y-83406164D01*
X142163423Y-83406165D01*
X141967674Y-83465546D01*
X141787272Y-83561972D01*
X141787269Y-83561974D01*
X141629144Y-83691744D01*
X141499374Y-83849869D01*
X141499372Y-83849872D01*
X141402946Y-84030274D01*
X141343565Y-84226023D01*
X141343564Y-84226025D01*
X141323515Y-84429600D01*
X138295500Y-84429600D01*
X138295500Y-81889600D01*
X141323515Y-81889600D01*
X141343564Y-82093174D01*
X141343565Y-82093176D01*
X141402946Y-82288925D01*
X141499372Y-82469327D01*
X141499374Y-82469330D01*
X141629144Y-82627455D01*
X141787269Y-82757225D01*
X141787272Y-82757227D01*
X141967674Y-82853653D01*
X141967676Y-82853654D01*
X142163423Y-82913034D01*
X142163425Y-82913035D01*
X142181677Y-82914832D01*
X142367000Y-82933085D01*
X142570574Y-82913035D01*
X142766324Y-82853654D01*
X142946729Y-82757226D01*
X143104855Y-82627455D01*
X143234626Y-82469329D01*
X143331054Y-82288924D01*
X143390435Y-82093174D01*
X143410485Y-81889600D01*
X143863515Y-81889600D01*
X143883564Y-82093174D01*
X143883565Y-82093176D01*
X143942946Y-82288925D01*
X144039372Y-82469327D01*
X144039374Y-82469330D01*
X144169144Y-82627455D01*
X144327269Y-82757225D01*
X144327272Y-82757227D01*
X144507674Y-82853653D01*
X144507676Y-82853654D01*
X144703423Y-82913034D01*
X144703425Y-82913035D01*
X144721677Y-82914832D01*
X144907000Y-82933085D01*
X145110574Y-82913035D01*
X145306324Y-82853654D01*
X145486729Y-82757226D01*
X145644855Y-82627455D01*
X145774626Y-82469329D01*
X145871054Y-82288924D01*
X145930435Y-82093174D01*
X145950485Y-81889600D01*
X145930435Y-81686026D01*
X145871054Y-81490276D01*
X145774626Y-81309871D01*
X145774625Y-81309869D01*
X145644855Y-81151744D01*
X145486730Y-81021974D01*
X145486727Y-81021972D01*
X145306325Y-80925546D01*
X145110576Y-80866165D01*
X145110574Y-80866164D01*
X144907000Y-80846115D01*
X144703425Y-80866164D01*
X144703423Y-80866165D01*
X144507674Y-80925546D01*
X144327272Y-81021972D01*
X144327269Y-81021974D01*
X144169144Y-81151744D01*
X144039374Y-81309869D01*
X144039372Y-81309872D01*
X143942946Y-81490274D01*
X143883565Y-81686023D01*
X143883564Y-81686025D01*
X143863515Y-81889600D01*
X143410485Y-81889600D01*
X143390435Y-81686026D01*
X143331054Y-81490276D01*
X143234626Y-81309871D01*
X143234625Y-81309869D01*
X143104855Y-81151744D01*
X142946730Y-81021974D01*
X142946727Y-81021972D01*
X142766325Y-80925546D01*
X142570576Y-80866165D01*
X142570574Y-80866164D01*
X142367000Y-80846115D01*
X142163425Y-80866164D01*
X142163423Y-80866165D01*
X141967674Y-80925546D01*
X141787272Y-81021972D01*
X141787269Y-81021974D01*
X141629144Y-81151744D01*
X141499374Y-81309869D01*
X141499372Y-81309872D01*
X141402946Y-81490274D01*
X141343565Y-81686023D01*
X141343564Y-81686025D01*
X141323515Y-81889600D01*
X138295500Y-81889600D01*
X138295500Y-79349600D01*
X141323515Y-79349600D01*
X141343564Y-79553174D01*
X141343565Y-79553176D01*
X141402946Y-79748925D01*
X141499372Y-79929327D01*
X141499374Y-79929330D01*
X141629144Y-80087455D01*
X141787269Y-80217225D01*
X141787272Y-80217227D01*
X141967674Y-80313653D01*
X141967676Y-80313654D01*
X142163423Y-80373034D01*
X142163425Y-80373035D01*
X142181677Y-80374832D01*
X142367000Y-80393085D01*
X142570574Y-80373035D01*
X142766324Y-80313654D01*
X142946729Y-80217226D01*
X143104855Y-80087455D01*
X143234626Y-79929329D01*
X143331054Y-79748924D01*
X143390435Y-79553174D01*
X143410485Y-79349600D01*
X143863515Y-79349600D01*
X143883564Y-79553174D01*
X143883565Y-79553176D01*
X143942946Y-79748925D01*
X144039372Y-79929327D01*
X144039374Y-79929330D01*
X144169144Y-80087455D01*
X144327269Y-80217225D01*
X144327272Y-80217227D01*
X144507674Y-80313653D01*
X144507676Y-80313654D01*
X144703423Y-80373034D01*
X144703425Y-80373035D01*
X144721677Y-80374832D01*
X144907000Y-80393085D01*
X145110574Y-80373035D01*
X145306324Y-80313654D01*
X145486729Y-80217226D01*
X145644855Y-80087455D01*
X145774626Y-79929329D01*
X145871054Y-79748924D01*
X145930435Y-79553174D01*
X145950485Y-79349600D01*
X145930435Y-79146026D01*
X145871054Y-78950276D01*
X145774626Y-78769871D01*
X145774625Y-78769869D01*
X145644855Y-78611744D01*
X145486730Y-78481974D01*
X145486727Y-78481972D01*
X145306325Y-78385546D01*
X145110576Y-78326165D01*
X145110574Y-78326164D01*
X144907000Y-78306115D01*
X144703425Y-78326164D01*
X144703423Y-78326165D01*
X144507674Y-78385546D01*
X144327272Y-78481972D01*
X144327269Y-78481974D01*
X144169144Y-78611744D01*
X144039374Y-78769869D01*
X144039372Y-78769872D01*
X143942946Y-78950274D01*
X143883565Y-79146023D01*
X143883564Y-79146025D01*
X143863515Y-79349600D01*
X143410485Y-79349600D01*
X143390435Y-79146026D01*
X143331054Y-78950276D01*
X143234626Y-78769871D01*
X143234625Y-78769869D01*
X143104855Y-78611744D01*
X142946730Y-78481974D01*
X142946727Y-78481972D01*
X142766325Y-78385546D01*
X142570576Y-78326165D01*
X142570574Y-78326164D01*
X142367000Y-78306115D01*
X142163425Y-78326164D01*
X142163423Y-78326165D01*
X141967674Y-78385546D01*
X141787272Y-78481972D01*
X141787269Y-78481974D01*
X141629144Y-78611744D01*
X141499374Y-78769869D01*
X141499372Y-78769872D01*
X141402946Y-78950274D01*
X141343565Y-79146023D01*
X141343564Y-79146025D01*
X141323515Y-79349600D01*
X138295500Y-79349600D01*
X138295500Y-76809600D01*
X141323515Y-76809600D01*
X141343564Y-77013174D01*
X141343565Y-77013176D01*
X141402946Y-77208925D01*
X141499372Y-77389327D01*
X141499374Y-77389330D01*
X141629144Y-77547455D01*
X141787269Y-77677225D01*
X141787272Y-77677227D01*
X141967674Y-77773653D01*
X141967676Y-77773654D01*
X142163423Y-77833034D01*
X142163425Y-77833035D01*
X142181677Y-77834832D01*
X142367000Y-77853085D01*
X142570574Y-77833035D01*
X142766324Y-77773654D01*
X142946729Y-77677226D01*
X143104855Y-77547455D01*
X143234626Y-77389329D01*
X143331054Y-77208924D01*
X143390435Y-77013174D01*
X143410485Y-76809600D01*
X143863515Y-76809600D01*
X143883564Y-77013174D01*
X143883565Y-77013176D01*
X143942946Y-77208925D01*
X144039372Y-77389327D01*
X144039374Y-77389330D01*
X144169144Y-77547455D01*
X144327269Y-77677225D01*
X144327272Y-77677227D01*
X144507674Y-77773653D01*
X144507676Y-77773654D01*
X144703423Y-77833034D01*
X144703425Y-77833035D01*
X144721677Y-77834832D01*
X144907000Y-77853085D01*
X145110574Y-77833035D01*
X145306324Y-77773654D01*
X145486729Y-77677226D01*
X145644855Y-77547455D01*
X145774626Y-77389329D01*
X145871054Y-77208924D01*
X145930435Y-77013174D01*
X145950485Y-76809600D01*
X145930435Y-76606026D01*
X145871054Y-76410276D01*
X145839919Y-76352026D01*
X145774627Y-76229872D01*
X145774625Y-76229869D01*
X145644855Y-76071744D01*
X145486730Y-75941974D01*
X145486727Y-75941972D01*
X145306325Y-75845546D01*
X145110576Y-75786165D01*
X145110574Y-75786164D01*
X144907000Y-75766115D01*
X144703425Y-75786164D01*
X144703423Y-75786165D01*
X144507674Y-75845546D01*
X144327272Y-75941972D01*
X144327269Y-75941974D01*
X144169144Y-76071744D01*
X144039374Y-76229869D01*
X144039372Y-76229872D01*
X143942946Y-76410274D01*
X143883565Y-76606023D01*
X143883564Y-76606025D01*
X143863515Y-76809600D01*
X143410485Y-76809600D01*
X143390435Y-76606026D01*
X143331054Y-76410276D01*
X143299919Y-76352026D01*
X143234627Y-76229872D01*
X143234625Y-76229869D01*
X143104855Y-76071744D01*
X142946730Y-75941974D01*
X142946727Y-75941972D01*
X142766325Y-75845546D01*
X142570576Y-75786165D01*
X142570574Y-75786164D01*
X142367000Y-75766115D01*
X142163425Y-75786164D01*
X142163423Y-75786165D01*
X141967674Y-75845546D01*
X141787272Y-75941972D01*
X141787269Y-75941974D01*
X141629144Y-76071744D01*
X141499374Y-76229869D01*
X141499372Y-76229872D01*
X141402946Y-76410274D01*
X141343565Y-76606023D01*
X141343564Y-76606025D01*
X141323515Y-76809600D01*
X138295500Y-76809600D01*
X138295500Y-74269600D01*
X141323515Y-74269600D01*
X141343564Y-74473174D01*
X141343565Y-74473176D01*
X141402946Y-74668925D01*
X141499372Y-74849327D01*
X141499374Y-74849330D01*
X141629144Y-75007455D01*
X141787269Y-75137225D01*
X141787272Y-75137227D01*
X141967674Y-75233653D01*
X141967676Y-75233654D01*
X142163423Y-75293034D01*
X142163425Y-75293035D01*
X142181677Y-75294832D01*
X142367000Y-75313085D01*
X142570574Y-75293035D01*
X142766324Y-75233654D01*
X142946729Y-75137226D01*
X143104855Y-75007455D01*
X143234626Y-74849329D01*
X143331054Y-74668924D01*
X143390435Y-74473174D01*
X143410485Y-74269600D01*
X143863515Y-74269600D01*
X143883564Y-74473174D01*
X143883565Y-74473176D01*
X143942946Y-74668925D01*
X144039372Y-74849327D01*
X144039374Y-74849330D01*
X144169144Y-75007455D01*
X144327269Y-75137225D01*
X144327272Y-75137227D01*
X144507674Y-75233653D01*
X144507676Y-75233654D01*
X144703423Y-75293034D01*
X144703425Y-75293035D01*
X144721677Y-75294832D01*
X144907000Y-75313085D01*
X145110574Y-75293035D01*
X145306324Y-75233654D01*
X145486729Y-75137226D01*
X145644855Y-75007455D01*
X145774626Y-74849329D01*
X145871054Y-74668924D01*
X145930435Y-74473174D01*
X145950485Y-74269600D01*
X145930435Y-74066026D01*
X145871054Y-73870276D01*
X145839919Y-73812026D01*
X145815104Y-73765600D01*
X169536246Y-73765600D01*
X170127988Y-73765600D01*
X170095075Y-73822607D01*
X170061000Y-73949774D01*
X170061000Y-74081426D01*
X170095075Y-74208593D01*
X170127988Y-74265600D01*
X169536246Y-74265600D01*
X169583263Y-74420596D01*
X169681055Y-74603552D01*
X169681059Y-74603559D01*
X169812671Y-74763928D01*
X169973040Y-74895540D01*
X169973047Y-74895544D01*
X170156003Y-74993336D01*
X170311000Y-75040353D01*
X170311000Y-74448612D01*
X170368007Y-74481525D01*
X170495174Y-74515600D01*
X170626826Y-74515600D01*
X170753993Y-74481525D01*
X170811000Y-74448612D01*
X170811000Y-75040353D01*
X170965996Y-74993336D01*
X171148952Y-74895544D01*
X171148959Y-74895540D01*
X171309328Y-74763928D01*
X171440940Y-74603559D01*
X171440944Y-74603552D01*
X171538736Y-74420596D01*
X171585754Y-74265600D01*
X170994012Y-74265600D01*
X171026925Y-74208593D01*
X171061000Y-74081426D01*
X171061000Y-73949774D01*
X171026925Y-73822607D01*
X170994012Y-73765600D01*
X171585754Y-73765600D01*
X171538736Y-73610603D01*
X171440944Y-73427647D01*
X171440940Y-73427640D01*
X171309328Y-73267271D01*
X171148959Y-73135659D01*
X171148952Y-73135655D01*
X170965993Y-73037862D01*
X170811000Y-72990844D01*
X170811000Y-73582588D01*
X170753993Y-73549675D01*
X170626826Y-73515600D01*
X170495174Y-73515600D01*
X170368007Y-73549675D01*
X170311000Y-73582588D01*
X170311000Y-72990844D01*
X170156006Y-73037862D01*
X169973047Y-73135655D01*
X169973040Y-73135659D01*
X169812671Y-73267271D01*
X169681059Y-73427640D01*
X169681055Y-73427647D01*
X169583263Y-73610603D01*
X169536246Y-73765600D01*
X145815104Y-73765600D01*
X145774627Y-73689872D01*
X145774625Y-73689869D01*
X145644855Y-73531744D01*
X145486730Y-73401974D01*
X145486727Y-73401972D01*
X145306325Y-73305546D01*
X145110576Y-73246165D01*
X145110574Y-73246164D01*
X144907000Y-73226115D01*
X144703425Y-73246164D01*
X144703423Y-73246165D01*
X144507674Y-73305546D01*
X144327272Y-73401972D01*
X144327269Y-73401974D01*
X144169144Y-73531744D01*
X144039374Y-73689869D01*
X144039372Y-73689872D01*
X143942946Y-73870274D01*
X143883565Y-74066023D01*
X143883564Y-74066025D01*
X143863515Y-74269600D01*
X143410485Y-74269600D01*
X143390435Y-74066026D01*
X143331054Y-73870276D01*
X143299919Y-73812026D01*
X143234627Y-73689872D01*
X143234625Y-73689869D01*
X143104855Y-73531744D01*
X142946730Y-73401974D01*
X142946727Y-73401972D01*
X142766325Y-73305546D01*
X142570576Y-73246165D01*
X142570574Y-73246164D01*
X142367000Y-73226115D01*
X142163425Y-73246164D01*
X142163423Y-73246165D01*
X141967674Y-73305546D01*
X141787272Y-73401972D01*
X141787269Y-73401974D01*
X141629144Y-73531744D01*
X141499374Y-73689869D01*
X141499372Y-73689872D01*
X141402946Y-73870274D01*
X141343565Y-74066023D01*
X141343564Y-74066025D01*
X141323515Y-74269600D01*
X138295500Y-74269600D01*
X138295500Y-71729600D01*
X141323515Y-71729600D01*
X141343564Y-71933174D01*
X141343565Y-71933176D01*
X141402946Y-72128925D01*
X141499372Y-72309327D01*
X141499374Y-72309330D01*
X141629144Y-72467455D01*
X141787269Y-72597225D01*
X141787272Y-72597227D01*
X141967674Y-72693653D01*
X141967676Y-72693654D01*
X142163423Y-72753034D01*
X142163425Y-72753035D01*
X142181677Y-72754832D01*
X142367000Y-72773085D01*
X142570574Y-72753035D01*
X142766324Y-72693654D01*
X142946729Y-72597226D01*
X143104855Y-72467455D01*
X143234626Y-72309329D01*
X143331054Y-72128924D01*
X143390435Y-71933174D01*
X143410485Y-71729600D01*
X143863515Y-71729600D01*
X143883564Y-71933174D01*
X143883565Y-71933176D01*
X143942946Y-72128925D01*
X144039372Y-72309327D01*
X144039374Y-72309330D01*
X144169144Y-72467455D01*
X144327269Y-72597225D01*
X144327272Y-72597227D01*
X144507674Y-72693653D01*
X144507676Y-72693654D01*
X144703423Y-72753034D01*
X144703425Y-72753035D01*
X144721677Y-72754832D01*
X144907000Y-72773085D01*
X145110574Y-72753035D01*
X145306324Y-72693654D01*
X145486729Y-72597226D01*
X145644855Y-72467455D01*
X145774626Y-72309329D01*
X145871054Y-72128924D01*
X145930435Y-71933174D01*
X145950485Y-71729600D01*
X145930435Y-71526026D01*
X145871054Y-71330276D01*
X145839919Y-71272026D01*
X145774627Y-71149872D01*
X145774625Y-71149869D01*
X145644855Y-70991744D01*
X145486730Y-70861974D01*
X145486727Y-70861972D01*
X145306325Y-70765546D01*
X145110576Y-70706165D01*
X145110574Y-70706164D01*
X144907000Y-70686115D01*
X144703425Y-70706164D01*
X144703423Y-70706165D01*
X144507674Y-70765546D01*
X144327272Y-70861972D01*
X144327269Y-70861974D01*
X144169144Y-70991744D01*
X144039374Y-71149869D01*
X144039372Y-71149872D01*
X143942946Y-71330274D01*
X143883565Y-71526023D01*
X143883564Y-71526025D01*
X143863515Y-71729600D01*
X143410485Y-71729600D01*
X143390435Y-71526026D01*
X143331054Y-71330276D01*
X143299919Y-71272026D01*
X143234627Y-71149872D01*
X143234625Y-71149869D01*
X143104855Y-70991744D01*
X142946730Y-70861974D01*
X142946727Y-70861972D01*
X142766325Y-70765546D01*
X142570576Y-70706165D01*
X142570574Y-70706164D01*
X142367000Y-70686115D01*
X142163425Y-70706164D01*
X142163423Y-70706165D01*
X141967674Y-70765546D01*
X141787272Y-70861972D01*
X141787269Y-70861974D01*
X141629144Y-70991744D01*
X141499374Y-71149869D01*
X141499372Y-71149872D01*
X141402946Y-71330274D01*
X141343565Y-71526023D01*
X141343564Y-71526025D01*
X141323515Y-71729600D01*
X138295500Y-71729600D01*
X138295500Y-69189600D01*
X141323515Y-69189600D01*
X141343564Y-69393174D01*
X141343565Y-69393176D01*
X141402946Y-69588925D01*
X141499372Y-69769327D01*
X141499374Y-69769330D01*
X141629144Y-69927455D01*
X141787269Y-70057225D01*
X141787272Y-70057227D01*
X141967674Y-70153653D01*
X141967676Y-70153654D01*
X142163423Y-70213034D01*
X142163425Y-70213035D01*
X142181677Y-70214832D01*
X142367000Y-70233085D01*
X142570574Y-70213035D01*
X142766324Y-70153654D01*
X142946729Y-70057226D01*
X143104855Y-69927455D01*
X143234626Y-69769329D01*
X143331054Y-69588924D01*
X143390435Y-69393174D01*
X143410485Y-69189600D01*
X143863515Y-69189600D01*
X143883564Y-69393174D01*
X143883565Y-69393176D01*
X143942946Y-69588925D01*
X144039372Y-69769327D01*
X144039374Y-69769330D01*
X144169144Y-69927455D01*
X144327269Y-70057225D01*
X144327272Y-70057227D01*
X144507674Y-70153653D01*
X144507676Y-70153654D01*
X144703423Y-70213034D01*
X144703425Y-70213035D01*
X144721677Y-70214832D01*
X144907000Y-70233085D01*
X145110574Y-70213035D01*
X145306324Y-70153654D01*
X145486729Y-70057226D01*
X145644855Y-69927455D01*
X145774626Y-69769329D01*
X145871054Y-69588924D01*
X145930435Y-69393174D01*
X145950485Y-69189600D01*
X145930435Y-68986026D01*
X145871054Y-68790276D01*
X145839919Y-68732026D01*
X145774627Y-68609872D01*
X145774625Y-68609869D01*
X145644855Y-68451744D01*
X145486730Y-68321974D01*
X145486727Y-68321972D01*
X145306325Y-68225546D01*
X145110576Y-68166165D01*
X145110574Y-68166164D01*
X144907000Y-68146115D01*
X144703425Y-68166164D01*
X144703423Y-68166165D01*
X144507674Y-68225546D01*
X144327272Y-68321972D01*
X144327269Y-68321974D01*
X144169144Y-68451744D01*
X144039374Y-68609869D01*
X144039372Y-68609872D01*
X143942946Y-68790274D01*
X143883565Y-68986023D01*
X143883564Y-68986025D01*
X143863515Y-69189600D01*
X143410485Y-69189600D01*
X143390435Y-68986026D01*
X143331054Y-68790276D01*
X143299919Y-68732026D01*
X143234627Y-68609872D01*
X143234625Y-68609869D01*
X143104855Y-68451744D01*
X142946730Y-68321974D01*
X142946727Y-68321972D01*
X142766325Y-68225546D01*
X142570576Y-68166165D01*
X142570574Y-68166164D01*
X142367000Y-68146115D01*
X142163425Y-68166164D01*
X142163423Y-68166165D01*
X141967674Y-68225546D01*
X141787272Y-68321972D01*
X141787269Y-68321974D01*
X141629144Y-68451744D01*
X141499374Y-68609869D01*
X141499372Y-68609872D01*
X141402946Y-68790274D01*
X141343565Y-68986023D01*
X141343564Y-68986025D01*
X141323515Y-69189600D01*
X138295500Y-69189600D01*
X138295500Y-66649600D01*
X141323515Y-66649600D01*
X141343564Y-66853174D01*
X141343565Y-66853176D01*
X141402946Y-67048925D01*
X141499372Y-67229327D01*
X141499374Y-67229330D01*
X141629144Y-67387455D01*
X141787269Y-67517225D01*
X141787272Y-67517227D01*
X141967674Y-67613653D01*
X141967676Y-67613654D01*
X142163423Y-67673034D01*
X142163425Y-67673035D01*
X142181677Y-67674832D01*
X142367000Y-67693085D01*
X142570574Y-67673035D01*
X142766324Y-67613654D01*
X142946729Y-67517226D01*
X143104855Y-67387455D01*
X143234626Y-67229329D01*
X143331054Y-67048924D01*
X143390435Y-66853174D01*
X143410485Y-66649600D01*
X143863515Y-66649600D01*
X143883564Y-66853174D01*
X143883565Y-66853176D01*
X143942946Y-67048925D01*
X144039372Y-67229327D01*
X144039374Y-67229330D01*
X144169144Y-67387455D01*
X144327269Y-67517225D01*
X144327272Y-67517227D01*
X144507674Y-67613653D01*
X144507676Y-67613654D01*
X144703423Y-67673034D01*
X144703425Y-67673035D01*
X144721677Y-67674832D01*
X144907000Y-67693085D01*
X145110574Y-67673035D01*
X145306324Y-67613654D01*
X145486729Y-67517226D01*
X145644855Y-67387455D01*
X145774626Y-67229329D01*
X145871054Y-67048924D01*
X145930435Y-66853174D01*
X145950485Y-66649600D01*
X145930435Y-66446026D01*
X145871054Y-66250276D01*
X145871053Y-66250274D01*
X145774627Y-66069872D01*
X145774625Y-66069869D01*
X145644855Y-65911744D01*
X145486730Y-65781974D01*
X145486727Y-65781972D01*
X145306325Y-65685546D01*
X145110576Y-65626165D01*
X145110574Y-65626164D01*
X144907000Y-65606115D01*
X144703425Y-65626164D01*
X144703423Y-65626165D01*
X144507674Y-65685546D01*
X144327272Y-65781972D01*
X144327269Y-65781974D01*
X144169144Y-65911744D01*
X144039374Y-66069869D01*
X144039372Y-66069872D01*
X143942946Y-66250274D01*
X143883565Y-66446023D01*
X143883564Y-66446025D01*
X143863515Y-66649600D01*
X143410485Y-66649600D01*
X143390435Y-66446026D01*
X143331054Y-66250276D01*
X143331053Y-66250274D01*
X143234627Y-66069872D01*
X143234625Y-66069869D01*
X143104855Y-65911744D01*
X142946730Y-65781974D01*
X142946727Y-65781972D01*
X142766325Y-65685546D01*
X142570576Y-65626165D01*
X142570574Y-65626164D01*
X142367000Y-65606115D01*
X142163425Y-65626164D01*
X142163423Y-65626165D01*
X141967674Y-65685546D01*
X141787272Y-65781972D01*
X141787269Y-65781974D01*
X141629144Y-65911744D01*
X141499374Y-66069869D01*
X141499372Y-66069872D01*
X141402946Y-66250274D01*
X141343565Y-66446023D01*
X141343564Y-66446025D01*
X141323515Y-66649600D01*
X138295500Y-66649600D01*
X138295500Y-64109600D01*
X141323515Y-64109600D01*
X141343564Y-64313174D01*
X141343565Y-64313176D01*
X141402946Y-64508925D01*
X141499372Y-64689327D01*
X141499374Y-64689330D01*
X141629144Y-64847455D01*
X141787269Y-64977225D01*
X141787272Y-64977227D01*
X141967674Y-65073653D01*
X141967676Y-65073654D01*
X142163423Y-65133034D01*
X142163425Y-65133035D01*
X142181677Y-65134832D01*
X142367000Y-65153085D01*
X142570574Y-65133035D01*
X142766324Y-65073654D01*
X142946729Y-64977226D01*
X143104855Y-64847455D01*
X143234626Y-64689329D01*
X143331054Y-64508924D01*
X143390435Y-64313174D01*
X143410485Y-64109600D01*
X143863515Y-64109600D01*
X143883564Y-64313174D01*
X143883565Y-64313176D01*
X143942946Y-64508925D01*
X144039372Y-64689327D01*
X144039374Y-64689330D01*
X144169144Y-64847455D01*
X144327269Y-64977225D01*
X144327272Y-64977227D01*
X144507674Y-65073653D01*
X144507676Y-65073654D01*
X144703423Y-65133034D01*
X144703425Y-65133035D01*
X144721677Y-65134832D01*
X144907000Y-65153085D01*
X145110574Y-65133035D01*
X145306324Y-65073654D01*
X145486729Y-64977226D01*
X145644855Y-64847455D01*
X145774626Y-64689329D01*
X145871054Y-64508924D01*
X145930435Y-64313174D01*
X145950485Y-64109600D01*
X145930435Y-63906026D01*
X145871054Y-63710276D01*
X145839919Y-63652026D01*
X145774627Y-63529872D01*
X145774625Y-63529869D01*
X145644855Y-63371744D01*
X145486730Y-63241974D01*
X145486727Y-63241972D01*
X145306325Y-63145546D01*
X145110576Y-63086165D01*
X145110574Y-63086164D01*
X144907000Y-63066115D01*
X144703425Y-63086164D01*
X144703423Y-63086165D01*
X144507674Y-63145546D01*
X144327272Y-63241972D01*
X144327269Y-63241974D01*
X144169144Y-63371744D01*
X144039374Y-63529869D01*
X144039372Y-63529872D01*
X143942946Y-63710274D01*
X143883565Y-63906023D01*
X143883564Y-63906025D01*
X143863515Y-64109600D01*
X143410485Y-64109600D01*
X143390435Y-63906026D01*
X143331054Y-63710276D01*
X143299919Y-63652026D01*
X143234627Y-63529872D01*
X143234625Y-63529869D01*
X143104855Y-63371744D01*
X142946730Y-63241974D01*
X142946727Y-63241972D01*
X142766325Y-63145546D01*
X142570576Y-63086165D01*
X142570574Y-63086164D01*
X142367000Y-63066115D01*
X142163425Y-63086164D01*
X142163423Y-63086165D01*
X141967674Y-63145546D01*
X141787272Y-63241972D01*
X141787269Y-63241974D01*
X141629144Y-63371744D01*
X141499374Y-63529869D01*
X141499372Y-63529872D01*
X141402946Y-63710274D01*
X141343565Y-63906023D01*
X141343564Y-63906025D01*
X141323515Y-64109600D01*
X138295500Y-64109600D01*
X138295500Y-61569600D01*
X141323515Y-61569600D01*
X141343564Y-61773174D01*
X141343565Y-61773176D01*
X141402946Y-61968925D01*
X141499372Y-62149327D01*
X141499374Y-62149330D01*
X141629144Y-62307455D01*
X141787269Y-62437225D01*
X141787272Y-62437227D01*
X141920872Y-62508637D01*
X141967676Y-62533654D01*
X142163423Y-62593034D01*
X142163425Y-62593035D01*
X142181677Y-62594832D01*
X142367000Y-62613085D01*
X142570574Y-62593035D01*
X142766324Y-62533654D01*
X142946729Y-62437226D01*
X143104855Y-62307455D01*
X143234626Y-62149329D01*
X143331054Y-61968924D01*
X143390435Y-61773174D01*
X143410485Y-61569600D01*
X143863515Y-61569600D01*
X143883564Y-61773174D01*
X143883565Y-61773176D01*
X143942946Y-61968925D01*
X144039372Y-62149327D01*
X144039374Y-62149330D01*
X144169144Y-62307455D01*
X144327269Y-62437225D01*
X144327272Y-62437227D01*
X144460872Y-62508637D01*
X144507676Y-62533654D01*
X144703423Y-62593034D01*
X144703425Y-62593035D01*
X144721677Y-62594832D01*
X144907000Y-62613085D01*
X145110574Y-62593035D01*
X145306324Y-62533654D01*
X145486729Y-62437226D01*
X145644855Y-62307455D01*
X145774626Y-62149329D01*
X145800731Y-62100488D01*
X145849692Y-62050645D01*
X145917829Y-62035184D01*
X145983509Y-62059015D01*
X145997770Y-62071261D01*
X146612621Y-62686112D01*
X146646106Y-62747435D01*
X146648940Y-62773793D01*
X146648940Y-69595237D01*
X146648940Y-69698363D01*
X146675631Y-69797975D01*
X146675632Y-69797976D01*
X146675632Y-69797977D01*
X146727191Y-69887281D01*
X146727193Y-69887284D01*
X146727194Y-69887285D01*
X148564994Y-71725085D01*
X148637915Y-71798006D01*
X148727225Y-71849569D01*
X148826837Y-71876260D01*
X169523337Y-71876260D01*
X169590376Y-71895945D01*
X169632694Y-71941805D01*
X169693374Y-72055329D01*
X169693375Y-72055330D01*
X169693374Y-72055330D01*
X169823144Y-72213455D01*
X169981269Y-72343225D01*
X169981272Y-72343227D01*
X170161674Y-72439653D01*
X170161676Y-72439654D01*
X170357423Y-72499034D01*
X170357425Y-72499035D01*
X170375677Y-72500832D01*
X170561000Y-72519085D01*
X170764574Y-72499035D01*
X170960324Y-72439654D01*
X171140729Y-72343226D01*
X171298855Y-72213455D01*
X171428626Y-72055329D01*
X171525054Y-71874924D01*
X171584435Y-71679174D01*
X171604485Y-71475600D01*
X172057515Y-71475600D01*
X172077564Y-71679174D01*
X172077565Y-71679176D01*
X172136946Y-71874925D01*
X172233372Y-72055327D01*
X172233374Y-72055330D01*
X172363144Y-72213455D01*
X172521269Y-72343225D01*
X172521272Y-72343227D01*
X172701674Y-72439653D01*
X172701676Y-72439654D01*
X172897423Y-72499034D01*
X172897425Y-72499035D01*
X172915677Y-72500832D01*
X173101000Y-72519085D01*
X173304574Y-72499035D01*
X173500324Y-72439654D01*
X173680729Y-72343226D01*
X173838855Y-72213455D01*
X173968626Y-72055329D01*
X174065054Y-71874924D01*
X174124435Y-71679174D01*
X174144485Y-71475600D01*
X174124435Y-71272026D01*
X174065054Y-71076276D01*
X174038926Y-71027393D01*
X173968627Y-70895872D01*
X173968625Y-70895869D01*
X173838855Y-70737744D01*
X173680730Y-70607974D01*
X173680727Y-70607972D01*
X173500325Y-70511546D01*
X173304576Y-70452165D01*
X173304574Y-70452164D01*
X173101000Y-70432115D01*
X172897425Y-70452164D01*
X172897423Y-70452165D01*
X172701674Y-70511546D01*
X172521272Y-70607972D01*
X172521269Y-70607974D01*
X172363144Y-70737744D01*
X172233374Y-70895869D01*
X172233372Y-70895872D01*
X172136946Y-71076274D01*
X172077565Y-71272023D01*
X172077564Y-71272025D01*
X172057515Y-71475600D01*
X171604485Y-71475600D01*
X171584435Y-71272026D01*
X171525054Y-71076276D01*
X171498926Y-71027393D01*
X171428627Y-70895872D01*
X171428625Y-70895869D01*
X171298855Y-70737744D01*
X171140730Y-70607974D01*
X171140727Y-70607972D01*
X170960325Y-70511546D01*
X170764576Y-70452165D01*
X170764574Y-70452164D01*
X170561000Y-70432115D01*
X170357425Y-70452164D01*
X170357423Y-70452165D01*
X170161674Y-70511546D01*
X169981272Y-70607972D01*
X169981269Y-70607974D01*
X169823144Y-70737744D01*
X169693374Y-70895869D01*
X169693372Y-70895872D01*
X169623074Y-71027393D01*
X169574112Y-71077237D01*
X169513716Y-71092940D01*
X149091993Y-71092940D01*
X149024954Y-71073255D01*
X149004312Y-71056621D01*
X147468579Y-69520888D01*
X147435094Y-69459565D01*
X147432260Y-69433207D01*
X147432260Y-64109600D01*
X147697837Y-64109600D01*
X147718542Y-64253609D01*
X147718544Y-64253617D01*
X147778982Y-64385957D01*
X147787050Y-64395267D01*
X147816077Y-64458821D01*
X147817340Y-64476473D01*
X147817340Y-68096637D01*
X147817340Y-68199763D01*
X147844031Y-68299375D01*
X147844032Y-68299376D01*
X147844032Y-68299377D01*
X147895591Y-68388681D01*
X147895593Y-68388684D01*
X147895594Y-68388685D01*
X148764915Y-69258006D01*
X148854225Y-69309569D01*
X148953837Y-69336260D01*
X149056963Y-69336260D01*
X169523337Y-69336260D01*
X169590376Y-69355945D01*
X169632694Y-69401805D01*
X169693374Y-69515329D01*
X169693375Y-69515330D01*
X169693374Y-69515330D01*
X169823144Y-69673455D01*
X169981269Y-69803225D01*
X169981272Y-69803227D01*
X170138535Y-69887285D01*
X170161676Y-69899654D01*
X170357423Y-69959034D01*
X170357425Y-69959035D01*
X170375677Y-69960832D01*
X170561000Y-69979085D01*
X170764574Y-69959035D01*
X170960324Y-69899654D01*
X171140729Y-69803226D01*
X171298855Y-69673455D01*
X171428626Y-69515329D01*
X171525054Y-69334924D01*
X171584435Y-69139174D01*
X171604485Y-68935600D01*
X171584435Y-68732026D01*
X171525054Y-68536276D01*
X171494616Y-68479330D01*
X171428627Y-68355872D01*
X171428625Y-68355869D01*
X171370731Y-68285325D01*
X171343418Y-68221015D01*
X171355209Y-68152147D01*
X171402361Y-68100587D01*
X171466584Y-68082660D01*
X171820607Y-68082660D01*
X171887646Y-68102345D01*
X171908288Y-68118979D01*
X172137624Y-68348315D01*
X172171109Y-68409638D01*
X172166125Y-68479330D01*
X172159303Y-68494446D01*
X172136946Y-68536275D01*
X172136944Y-68536280D01*
X172077565Y-68732023D01*
X172077564Y-68732025D01*
X172057515Y-68935600D01*
X172077564Y-69139174D01*
X172077565Y-69139176D01*
X172136946Y-69334925D01*
X172233372Y-69515327D01*
X172233374Y-69515330D01*
X172363144Y-69673455D01*
X172521269Y-69803225D01*
X172521272Y-69803227D01*
X172678535Y-69887285D01*
X172701676Y-69899654D01*
X172897423Y-69959034D01*
X172897425Y-69959035D01*
X172915677Y-69960832D01*
X173101000Y-69979085D01*
X173304574Y-69959035D01*
X173500324Y-69899654D01*
X173680729Y-69803226D01*
X173838855Y-69673455D01*
X173968626Y-69515329D01*
X174065054Y-69334924D01*
X174124435Y-69139174D01*
X174144485Y-68935600D01*
X174124435Y-68732026D01*
X174065054Y-68536276D01*
X174034616Y-68479330D01*
X173968627Y-68355872D01*
X173968625Y-68355869D01*
X173838855Y-68197744D01*
X173680730Y-68067974D01*
X173680727Y-68067972D01*
X173500325Y-67971546D01*
X173304576Y-67912165D01*
X173304574Y-67912164D01*
X173101000Y-67892115D01*
X172897421Y-67912165D01*
X172891451Y-67913353D01*
X172891024Y-67911207D01*
X172830986Y-67911721D01*
X172777222Y-67880131D01*
X172293171Y-67396080D01*
X172266397Y-67347047D01*
X172236101Y-67343518D01*
X172222572Y-67336771D01*
X172159975Y-67300631D01*
X172139389Y-67295115D01*
X172060363Y-67273940D01*
X171957237Y-67273940D01*
X171878210Y-67295115D01*
X171846117Y-67299340D01*
X171424893Y-67299340D01*
X171357854Y-67279655D01*
X171312099Y-67226851D01*
X171302155Y-67157693D01*
X171329040Y-67096675D01*
X171428625Y-66975330D01*
X171428627Y-66975327D01*
X171525054Y-66794924D01*
X171584435Y-66599174D01*
X171604485Y-66395600D01*
X171584435Y-66192026D01*
X171525054Y-65996276D01*
X171494775Y-65939628D01*
X171466541Y-65886805D01*
X171452299Y-65818403D01*
X171477299Y-65753159D01*
X171533604Y-65711788D01*
X171603337Y-65707426D01*
X171663580Y-65740671D01*
X172039445Y-66116536D01*
X172072930Y-66177859D01*
X172075167Y-66216371D01*
X172057515Y-66395599D01*
X172077564Y-66599174D01*
X172077565Y-66599176D01*
X172136946Y-66794925D01*
X172233372Y-66975327D01*
X172233374Y-66975330D01*
X172363142Y-67133452D01*
X172363143Y-67133453D01*
X172363145Y-67133455D01*
X172363233Y-67133527D01*
X172363269Y-67133580D01*
X172367452Y-67137763D01*
X172366658Y-67138556D01*
X172402569Y-67191272D01*
X172402571Y-67191364D01*
X172440279Y-67199567D01*
X172459517Y-67212546D01*
X172521269Y-67263225D01*
X172521272Y-67263227D01*
X172678090Y-67347047D01*
X172701676Y-67359654D01*
X172821755Y-67396080D01*
X172897423Y-67419034D01*
X172897425Y-67419035D01*
X172915677Y-67420832D01*
X173101000Y-67439085D01*
X173304574Y-67419035D01*
X173500324Y-67359654D01*
X173680729Y-67263226D01*
X173838855Y-67133455D01*
X173968626Y-66975329D01*
X174065054Y-66794924D01*
X174124435Y-66599174D01*
X174144485Y-66395600D01*
X174124435Y-66192026D01*
X174065054Y-65996276D01*
X174034775Y-65939628D01*
X173968627Y-65815872D01*
X173968625Y-65815869D01*
X173838855Y-65657744D01*
X173680730Y-65527974D01*
X173680727Y-65527972D01*
X173500325Y-65431546D01*
X173304576Y-65372165D01*
X173304574Y-65372164D01*
X173101000Y-65352115D01*
X172897425Y-65372164D01*
X172897423Y-65372165D01*
X172701680Y-65431544D01*
X172701672Y-65431547D01*
X172626742Y-65471597D01*
X172558339Y-65485838D01*
X172493096Y-65460837D01*
X172480610Y-65449919D01*
X171842886Y-64812195D01*
X171842881Y-64812191D01*
X171753577Y-64760632D01*
X171753576Y-64760631D01*
X171753575Y-64760631D01*
X171653963Y-64733940D01*
X171653961Y-64733940D01*
X171445738Y-64733940D01*
X171378699Y-64714255D01*
X171332944Y-64661451D01*
X171323000Y-64592293D01*
X171349885Y-64531275D01*
X171394860Y-64476473D01*
X171428626Y-64435329D01*
X171525054Y-64254924D01*
X171584435Y-64059174D01*
X171604485Y-63855600D01*
X171584435Y-63652026D01*
X171525054Y-63456276D01*
X171494775Y-63399628D01*
X171428627Y-63275872D01*
X171428625Y-63275869D01*
X171370731Y-63205325D01*
X171343418Y-63141015D01*
X171355209Y-63072147D01*
X171402361Y-63020587D01*
X171466584Y-63002660D01*
X171617407Y-63002660D01*
X171684446Y-63022345D01*
X171705088Y-63038979D01*
X172081001Y-63414892D01*
X172114486Y-63476215D01*
X172111981Y-63538567D01*
X172077565Y-63652025D01*
X172057515Y-63855600D01*
X172077564Y-64059174D01*
X172077565Y-64059176D01*
X172136946Y-64254925D01*
X172233372Y-64435327D01*
X172233374Y-64435330D01*
X172363144Y-64593455D01*
X172521269Y-64723225D01*
X172521272Y-64723227D01*
X172687719Y-64812194D01*
X172701676Y-64819654D01*
X172799220Y-64849244D01*
X172897423Y-64879034D01*
X172897425Y-64879035D01*
X172915677Y-64880832D01*
X173101000Y-64899085D01*
X173304574Y-64879035D01*
X173500324Y-64819654D01*
X173680729Y-64723226D01*
X173838855Y-64593455D01*
X173968626Y-64435329D01*
X174065054Y-64254924D01*
X174124435Y-64059174D01*
X174144485Y-63855600D01*
X174124435Y-63652026D01*
X174065054Y-63456276D01*
X174034775Y-63399628D01*
X173968627Y-63275872D01*
X173968625Y-63275869D01*
X173838855Y-63117744D01*
X173680730Y-62987974D01*
X173680727Y-62987972D01*
X173500325Y-62891546D01*
X173304576Y-62832165D01*
X173304574Y-62832164D01*
X173101000Y-62812115D01*
X172897427Y-62832164D01*
X172744992Y-62878405D01*
X172675125Y-62879028D01*
X172621316Y-62847425D01*
X172071486Y-62297595D01*
X172071481Y-62297591D01*
X171982177Y-62246032D01*
X171982176Y-62246031D01*
X171982175Y-62246031D01*
X171882563Y-62219340D01*
X171882561Y-62219340D01*
X171424893Y-62219340D01*
X171357854Y-62199655D01*
X171312099Y-62146851D01*
X171302155Y-62077693D01*
X171329040Y-62016675D01*
X171428625Y-61895330D01*
X171428627Y-61895327D01*
X171489965Y-61780571D01*
X171525054Y-61714924D01*
X171584435Y-61519174D01*
X171604485Y-61315600D01*
X171584435Y-61112026D01*
X171525054Y-60916276D01*
X171489965Y-60850628D01*
X171428627Y-60735872D01*
X171428625Y-60735869D01*
X171349885Y-60639925D01*
X171322572Y-60575615D01*
X171334363Y-60506748D01*
X171381515Y-60455187D01*
X171445738Y-60437260D01*
X171515807Y-60437260D01*
X171582846Y-60456945D01*
X171603488Y-60473579D01*
X172063266Y-60933357D01*
X172096751Y-60994680D01*
X172094246Y-61057031D01*
X172077565Y-61112023D01*
X172057515Y-61315600D01*
X172077564Y-61519174D01*
X172077565Y-61519176D01*
X172136946Y-61714925D01*
X172233372Y-61895327D01*
X172233374Y-61895330D01*
X172363144Y-62053455D01*
X172521269Y-62183225D01*
X172521272Y-62183227D01*
X172598841Y-62224688D01*
X172701676Y-62279654D01*
X172882951Y-62334644D01*
X172897423Y-62339034D01*
X172897425Y-62339035D01*
X172915677Y-62340832D01*
X173101000Y-62359085D01*
X173304574Y-62339035D01*
X173500324Y-62279654D01*
X173680729Y-62183226D01*
X173838855Y-62053455D01*
X173968626Y-61895329D01*
X174065054Y-61714924D01*
X174124435Y-61519174D01*
X174144485Y-61315600D01*
X174124435Y-61112026D01*
X174065054Y-60916276D01*
X174029965Y-60850628D01*
X173968627Y-60735872D01*
X173968625Y-60735869D01*
X173838855Y-60577744D01*
X173680730Y-60447974D01*
X173680727Y-60447972D01*
X173500325Y-60351546D01*
X173304576Y-60292165D01*
X173304574Y-60292164D01*
X173101000Y-60272115D01*
X172897425Y-60292164D01*
X172897423Y-60292165D01*
X172701670Y-60351547D01*
X172698701Y-60352777D01*
X172697023Y-60352957D01*
X172695847Y-60353314D01*
X172695779Y-60353090D01*
X172629231Y-60360237D01*
X172566756Y-60328954D01*
X172563582Y-60325891D01*
X171969886Y-59732195D01*
X171969881Y-59732191D01*
X171880577Y-59680632D01*
X171880576Y-59680631D01*
X171880575Y-59680631D01*
X171780963Y-59653940D01*
X171780961Y-59653940D01*
X171445738Y-59653940D01*
X171378699Y-59634255D01*
X171332944Y-59581451D01*
X171323000Y-59512293D01*
X171349885Y-59451275D01*
X171428625Y-59355330D01*
X171428627Y-59355327D01*
X171438633Y-59336607D01*
X171525054Y-59174924D01*
X171584435Y-58979174D01*
X171604485Y-58775600D01*
X171584435Y-58572026D01*
X171525054Y-58376276D01*
X171494775Y-58319628D01*
X171428627Y-58195872D01*
X171428625Y-58195869D01*
X171349885Y-58099925D01*
X171322572Y-58035615D01*
X171334363Y-57966748D01*
X171381515Y-57915187D01*
X171445738Y-57897260D01*
X171566607Y-57897260D01*
X171633646Y-57916945D01*
X171654288Y-57933579D01*
X172075090Y-58354381D01*
X172108575Y-58415704D01*
X172106070Y-58478057D01*
X172077564Y-58572027D01*
X172057515Y-58775600D01*
X172077564Y-58979174D01*
X172077565Y-58979176D01*
X172136946Y-59174925D01*
X172233372Y-59355327D01*
X172233374Y-59355330D01*
X172363144Y-59513455D01*
X172521269Y-59643225D01*
X172521272Y-59643227D01*
X172687719Y-59732194D01*
X172701676Y-59739654D01*
X172799220Y-59769244D01*
X172897423Y-59799034D01*
X172897425Y-59799035D01*
X172915677Y-59800832D01*
X173101000Y-59819085D01*
X173304574Y-59799035D01*
X173500324Y-59739654D01*
X173680729Y-59643226D01*
X173838855Y-59513455D01*
X173968626Y-59355329D01*
X174065054Y-59174924D01*
X174124435Y-58979174D01*
X174144485Y-58775600D01*
X174124435Y-58572026D01*
X174065054Y-58376276D01*
X174034775Y-58319628D01*
X173968627Y-58195872D01*
X173968625Y-58195869D01*
X173838855Y-58037744D01*
X173680730Y-57907974D01*
X173680727Y-57907972D01*
X173500325Y-57811546D01*
X173304576Y-57752165D01*
X173304574Y-57752164D01*
X173101000Y-57732115D01*
X172897427Y-57752164D01*
X172725504Y-57804317D01*
X172655637Y-57804940D01*
X172601828Y-57773337D01*
X172020686Y-57192195D01*
X172020681Y-57192191D01*
X171931377Y-57140632D01*
X171931376Y-57140631D01*
X171931375Y-57140631D01*
X171831763Y-57113940D01*
X171831761Y-57113940D01*
X171445738Y-57113940D01*
X171378699Y-57094255D01*
X171332944Y-57041451D01*
X171323000Y-56972293D01*
X171349885Y-56911275D01*
X171428625Y-56815330D01*
X171428627Y-56815327D01*
X171462812Y-56751371D01*
X171525054Y-56634924D01*
X171584435Y-56439174D01*
X171604485Y-56235600D01*
X171584435Y-56032026D01*
X171525054Y-55836276D01*
X171495209Y-55780440D01*
X171428627Y-55655872D01*
X171428625Y-55655869D01*
X171349885Y-55559925D01*
X171322572Y-55495615D01*
X171334363Y-55426748D01*
X171381515Y-55375187D01*
X171445738Y-55357260D01*
X171719007Y-55357260D01*
X171786046Y-55376945D01*
X171806688Y-55393579D01*
X172111291Y-55698182D01*
X172144776Y-55759505D01*
X172139792Y-55829197D01*
X172138177Y-55833301D01*
X172136947Y-55836270D01*
X172077565Y-56032023D01*
X172077564Y-56032025D01*
X172057515Y-56235600D01*
X172077564Y-56439174D01*
X172077565Y-56439176D01*
X172136946Y-56634925D01*
X172233372Y-56815327D01*
X172233374Y-56815330D01*
X172363144Y-56973455D01*
X172521269Y-57103225D01*
X172521272Y-57103227D01*
X172687719Y-57192194D01*
X172701676Y-57199654D01*
X172799220Y-57229244D01*
X172897423Y-57259034D01*
X172897425Y-57259035D01*
X172915677Y-57260832D01*
X173101000Y-57279085D01*
X173304574Y-57259035D01*
X173500324Y-57199654D01*
X173680729Y-57103226D01*
X173838855Y-56973455D01*
X173968626Y-56815329D01*
X174065054Y-56634924D01*
X174124435Y-56439174D01*
X174144485Y-56235600D01*
X174124435Y-56032026D01*
X174065054Y-55836276D01*
X174035209Y-55780440D01*
X173968627Y-55655872D01*
X173968625Y-55655869D01*
X173838855Y-55497744D01*
X173680730Y-55367974D01*
X173680727Y-55367972D01*
X173500325Y-55271546D01*
X173304576Y-55212165D01*
X173304574Y-55212164D01*
X173101000Y-55192115D01*
X172897423Y-55212165D01*
X172842431Y-55228846D01*
X172772564Y-55229469D01*
X172718757Y-55197866D01*
X172173086Y-54652195D01*
X172173081Y-54652191D01*
X172083777Y-54600632D01*
X172083776Y-54600631D01*
X172083775Y-54600631D01*
X171984163Y-54573940D01*
X171984161Y-54573940D01*
X171445738Y-54573940D01*
X171378699Y-54554255D01*
X171332944Y-54501451D01*
X171323000Y-54432293D01*
X171349885Y-54371275D01*
X171428625Y-54275330D01*
X171428627Y-54275327D01*
X171525054Y-54094924D01*
X171584435Y-53899174D01*
X171604485Y-53695600D01*
X171584435Y-53492026D01*
X171525054Y-53296276D01*
X171525053Y-53296274D01*
X171428627Y-53115872D01*
X171428625Y-53115869D01*
X171349885Y-53019925D01*
X171322572Y-52955615D01*
X171334363Y-52886748D01*
X171381515Y-52835187D01*
X171445738Y-52817260D01*
X171541207Y-52817260D01*
X171608246Y-52836945D01*
X171628888Y-52853579D01*
X172069178Y-53293869D01*
X172102663Y-53355192D01*
X172100158Y-53417544D01*
X172077565Y-53492025D01*
X172057515Y-53695600D01*
X172077564Y-53899174D01*
X172077565Y-53899176D01*
X172136946Y-54094925D01*
X172233372Y-54275327D01*
X172233374Y-54275330D01*
X172363144Y-54433455D01*
X172521269Y-54563225D01*
X172521272Y-54563227D01*
X172687719Y-54652194D01*
X172701676Y-54659654D01*
X172799220Y-54689244D01*
X172897423Y-54719034D01*
X172897425Y-54719035D01*
X172915677Y-54720832D01*
X173101000Y-54739085D01*
X173304574Y-54719035D01*
X173500324Y-54659654D01*
X173680729Y-54563226D01*
X173838855Y-54433455D01*
X173968626Y-54275329D01*
X174065054Y-54094924D01*
X174124435Y-53899174D01*
X174144485Y-53695600D01*
X174124435Y-53492026D01*
X174065054Y-53296276D01*
X174065053Y-53296274D01*
X173968627Y-53115872D01*
X173968625Y-53115869D01*
X173838855Y-52957744D01*
X173680730Y-52827974D01*
X173680727Y-52827972D01*
X173500325Y-52731546D01*
X173304576Y-52672165D01*
X173304574Y-52672164D01*
X173101000Y-52652115D01*
X172897427Y-52672164D01*
X172706016Y-52730229D01*
X172636150Y-52730852D01*
X172582340Y-52699249D01*
X171995286Y-52112195D01*
X171995281Y-52112191D01*
X171905977Y-52060632D01*
X171905976Y-52060631D01*
X171905975Y-52060631D01*
X171806363Y-52033940D01*
X171806361Y-52033940D01*
X171445738Y-52033940D01*
X171378699Y-52014255D01*
X171332944Y-51961451D01*
X171323000Y-51892293D01*
X171349885Y-51831275D01*
X171428625Y-51735330D01*
X171428627Y-51735327D01*
X171489965Y-51620571D01*
X171525054Y-51554924D01*
X171584435Y-51359174D01*
X171604485Y-51155600D01*
X171584435Y-50952026D01*
X171525054Y-50756276D01*
X171428626Y-50575871D01*
X171428625Y-50575869D01*
X171370731Y-50505325D01*
X171343418Y-50441015D01*
X171355209Y-50372147D01*
X171402361Y-50320587D01*
X171466584Y-50302660D01*
X171719007Y-50302660D01*
X171786046Y-50322345D01*
X171806688Y-50338979D01*
X172104649Y-50636940D01*
X172138134Y-50698263D01*
X172135629Y-50760616D01*
X172077564Y-50952027D01*
X172057515Y-51155600D01*
X172077564Y-51359174D01*
X172077565Y-51359176D01*
X172136946Y-51554925D01*
X172233372Y-51735327D01*
X172233374Y-51735330D01*
X172363144Y-51893455D01*
X172521269Y-52023225D01*
X172521272Y-52023227D01*
X172687719Y-52112194D01*
X172701676Y-52119654D01*
X172799220Y-52149244D01*
X172897423Y-52179034D01*
X172897425Y-52179035D01*
X172915677Y-52180832D01*
X173101000Y-52199085D01*
X173304574Y-52179035D01*
X173500324Y-52119654D01*
X173680729Y-52023226D01*
X173838855Y-51893455D01*
X173968626Y-51735329D01*
X174065054Y-51554924D01*
X174124435Y-51359174D01*
X174144485Y-51155600D01*
X174124435Y-50952026D01*
X174065054Y-50756276D01*
X173968626Y-50575871D01*
X173968625Y-50575869D01*
X173838855Y-50417744D01*
X173680730Y-50287974D01*
X173680727Y-50287972D01*
X173500325Y-50191546D01*
X173304576Y-50132165D01*
X173304574Y-50132164D01*
X173101000Y-50112115D01*
X172897425Y-50132165D01*
X172822944Y-50154758D01*
X172753077Y-50155381D01*
X172699269Y-50123778D01*
X172173086Y-49597595D01*
X172173081Y-49597591D01*
X172083777Y-49546032D01*
X172083776Y-49546031D01*
X172083775Y-49546031D01*
X171984163Y-49519340D01*
X171984161Y-49519340D01*
X171424893Y-49519340D01*
X171357854Y-49499655D01*
X171312099Y-49446851D01*
X171302155Y-49377693D01*
X171329040Y-49316675D01*
X171428625Y-49195330D01*
X171428627Y-49195327D01*
X171525054Y-49014924D01*
X171584435Y-48819174D01*
X171604485Y-48615600D01*
X171584435Y-48412026D01*
X171525054Y-48216276D01*
X171428626Y-48035871D01*
X171428625Y-48035869D01*
X171370731Y-47965325D01*
X171343418Y-47901015D01*
X171355209Y-47832147D01*
X171402361Y-47780587D01*
X171466584Y-47762660D01*
X171633807Y-47762660D01*
X171700846Y-47782345D01*
X171721488Y-47798979D01*
X172084819Y-48162310D01*
X172118304Y-48223633D01*
X172115799Y-48285986D01*
X172077564Y-48412027D01*
X172057515Y-48615600D01*
X172077564Y-48819174D01*
X172077565Y-48819176D01*
X172136946Y-49014925D01*
X172233372Y-49195327D01*
X172233374Y-49195330D01*
X172363144Y-49353455D01*
X172521269Y-49483225D01*
X172521272Y-49483227D01*
X172646363Y-49550089D01*
X172701676Y-49579654D01*
X172897423Y-49639034D01*
X172897425Y-49639035D01*
X172915677Y-49640832D01*
X173101000Y-49659085D01*
X173304574Y-49639035D01*
X173500324Y-49579654D01*
X173680729Y-49483226D01*
X173838855Y-49353455D01*
X173968626Y-49195329D01*
X174065054Y-49014924D01*
X174124435Y-48819174D01*
X174144485Y-48615600D01*
X174124435Y-48412026D01*
X174065054Y-48216276D01*
X173968626Y-48035871D01*
X173968625Y-48035869D01*
X173838855Y-47877744D01*
X173680730Y-47747974D01*
X173680727Y-47747972D01*
X173500325Y-47651546D01*
X173304576Y-47592165D01*
X173304574Y-47592164D01*
X173101000Y-47572115D01*
X172897427Y-47592164D01*
X172757575Y-47634588D01*
X172687708Y-47635211D01*
X172633899Y-47603608D01*
X172087886Y-47057595D01*
X172087881Y-47057591D01*
X171998577Y-47006032D01*
X171998576Y-47006031D01*
X171998575Y-47006031D01*
X171898963Y-46979340D01*
X171898961Y-46979340D01*
X171424893Y-46979340D01*
X171357854Y-46959655D01*
X171312099Y-46906851D01*
X171302155Y-46837693D01*
X171329040Y-46776675D01*
X171428625Y-46655330D01*
X171428627Y-46655327D01*
X171517118Y-46489771D01*
X171525054Y-46474924D01*
X171584435Y-46279174D01*
X171604485Y-46075600D01*
X171584435Y-45872026D01*
X171525054Y-45676276D01*
X171460545Y-45555587D01*
X171428627Y-45495872D01*
X171428625Y-45495869D01*
X171349885Y-45399925D01*
X171322572Y-45335615D01*
X171334363Y-45266748D01*
X171381515Y-45215187D01*
X171445738Y-45197260D01*
X171642807Y-45197260D01*
X171709846Y-45216945D01*
X171730488Y-45233579D01*
X172092825Y-45595916D01*
X172126310Y-45657239D01*
X172123805Y-45719592D01*
X172077564Y-45872027D01*
X172057515Y-46075600D01*
X172077564Y-46279174D01*
X172077565Y-46279176D01*
X172136946Y-46474925D01*
X172233372Y-46655327D01*
X172233374Y-46655330D01*
X172363144Y-46813455D01*
X172521269Y-46943225D01*
X172521272Y-46943227D01*
X172598841Y-46984688D01*
X172701676Y-47039654D01*
X172882951Y-47094644D01*
X172897423Y-47099034D01*
X172897425Y-47099035D01*
X172915677Y-47100832D01*
X173101000Y-47119085D01*
X173304574Y-47099035D01*
X173500324Y-47039654D01*
X173680729Y-46943226D01*
X173838855Y-46813455D01*
X173968626Y-46655329D01*
X174065054Y-46474924D01*
X174124435Y-46279174D01*
X174144485Y-46075600D01*
X174124435Y-45872026D01*
X174065054Y-45676276D01*
X174000545Y-45555587D01*
X173968627Y-45495872D01*
X173968625Y-45495869D01*
X173838855Y-45337744D01*
X173680730Y-45207974D01*
X173680727Y-45207972D01*
X173500325Y-45111546D01*
X173304576Y-45052165D01*
X173304574Y-45052164D01*
X173101000Y-45032115D01*
X172897425Y-45052165D01*
X172783967Y-45086581D01*
X172714100Y-45087204D01*
X172660292Y-45055601D01*
X172096886Y-44492195D01*
X172096881Y-44492191D01*
X172007577Y-44440632D01*
X172007576Y-44440631D01*
X172007575Y-44440631D01*
X171907963Y-44413940D01*
X171907961Y-44413940D01*
X171445738Y-44413940D01*
X171378699Y-44394255D01*
X171332944Y-44341451D01*
X171323000Y-44272293D01*
X171349885Y-44211275D01*
X171421872Y-44123559D01*
X171428626Y-44115329D01*
X171525054Y-43934924D01*
X171584435Y-43739174D01*
X171604485Y-43535600D01*
X171584435Y-43332026D01*
X171570352Y-43285600D01*
X172076246Y-43285600D01*
X172667988Y-43285600D01*
X172635075Y-43342607D01*
X172601000Y-43469774D01*
X172601000Y-43601426D01*
X172635075Y-43728593D01*
X172667988Y-43785600D01*
X172076246Y-43785600D01*
X172123263Y-43940596D01*
X172221055Y-44123552D01*
X172221059Y-44123559D01*
X172352671Y-44283928D01*
X172513040Y-44415540D01*
X172513047Y-44415544D01*
X172696003Y-44513336D01*
X172851000Y-44560353D01*
X172851000Y-43968612D01*
X172908007Y-44001525D01*
X173035174Y-44035600D01*
X173166826Y-44035600D01*
X173293993Y-44001525D01*
X173351000Y-43968612D01*
X173351000Y-44560353D01*
X173505996Y-44513336D01*
X173688952Y-44415544D01*
X173688959Y-44415540D01*
X173849328Y-44283928D01*
X173980940Y-44123559D01*
X173980944Y-44123552D01*
X174078736Y-43940596D01*
X174125754Y-43785600D01*
X173534012Y-43785600D01*
X173566925Y-43728593D01*
X173601000Y-43601426D01*
X173601000Y-43469774D01*
X173566925Y-43342607D01*
X173534012Y-43285600D01*
X174125754Y-43285600D01*
X174078736Y-43130603D01*
X173980944Y-42947647D01*
X173980940Y-42947640D01*
X173849328Y-42787271D01*
X173688959Y-42655659D01*
X173688952Y-42655655D01*
X173505993Y-42557862D01*
X173351000Y-42510844D01*
X173351000Y-43102588D01*
X173293993Y-43069675D01*
X173166826Y-43035600D01*
X173035174Y-43035600D01*
X172908007Y-43069675D01*
X172851000Y-43102588D01*
X172851000Y-42510844D01*
X172696006Y-42557862D01*
X172513047Y-42655655D01*
X172513040Y-42655659D01*
X172352671Y-42787271D01*
X172221059Y-42947640D01*
X172221055Y-42947647D01*
X172123263Y-43130603D01*
X172076246Y-43285600D01*
X171570352Y-43285600D01*
X171525054Y-43136276D01*
X171428626Y-42955871D01*
X171428625Y-42955869D01*
X171298855Y-42797744D01*
X171140730Y-42667974D01*
X171140727Y-42667972D01*
X170960325Y-42571546D01*
X170764576Y-42512165D01*
X170764574Y-42512164D01*
X170561000Y-42492115D01*
X170357425Y-42512164D01*
X170357423Y-42512165D01*
X170161674Y-42571546D01*
X169981272Y-42667972D01*
X169981269Y-42667974D01*
X169823144Y-42797744D01*
X169693374Y-42955869D01*
X169693372Y-42955872D01*
X169596946Y-43136274D01*
X169537565Y-43332023D01*
X169537564Y-43332025D01*
X169517515Y-43535600D01*
X169537564Y-43739174D01*
X169537565Y-43739176D01*
X169596946Y-43934925D01*
X169693372Y-44115327D01*
X169693374Y-44115330D01*
X169772115Y-44211275D01*
X169799428Y-44275585D01*
X169787637Y-44344452D01*
X169740485Y-44396013D01*
X169676262Y-44413940D01*
X167836304Y-44413940D01*
X167769266Y-44394256D01*
X167725345Y-44366030D01*
X167725343Y-44366029D01*
X167725341Y-44366028D01*
X167585747Y-44325040D01*
X167585746Y-44325040D01*
X167440254Y-44325040D01*
X167440253Y-44325040D01*
X167300656Y-44366028D01*
X167178260Y-44444688D01*
X167082983Y-44554642D01*
X167082980Y-44554647D01*
X167022544Y-44686982D01*
X167022542Y-44686990D01*
X167001837Y-44831000D01*
X167022542Y-44975009D01*
X167022544Y-44975017D01*
X167078120Y-45096710D01*
X167082982Y-45107356D01*
X167178259Y-45217311D01*
X167203573Y-45233579D01*
X167300656Y-45295971D01*
X167440253Y-45336960D01*
X167440254Y-45336960D01*
X167585746Y-45336960D01*
X167725343Y-45295971D01*
X167766146Y-45269749D01*
X167847741Y-45217311D01*
X167847741Y-45217310D01*
X167848312Y-45216944D01*
X167915351Y-45197260D01*
X169676262Y-45197260D01*
X169743301Y-45216945D01*
X169789056Y-45269749D01*
X169799000Y-45338907D01*
X169772115Y-45399925D01*
X169693374Y-45495869D01*
X169693372Y-45495872D01*
X169627884Y-45618393D01*
X169578922Y-45668238D01*
X169518526Y-45683940D01*
X166953154Y-45683940D01*
X166886115Y-45664255D01*
X166859442Y-45641143D01*
X166857146Y-45638494D01*
X166857140Y-45638488D01*
X166734743Y-45559828D01*
X166595147Y-45518840D01*
X166595146Y-45518840D01*
X166449654Y-45518840D01*
X166449653Y-45518840D01*
X166310056Y-45559828D01*
X166187660Y-45638488D01*
X166092383Y-45748442D01*
X166092380Y-45748447D01*
X166031944Y-45880782D01*
X166031942Y-45880790D01*
X166011237Y-46024800D01*
X166031942Y-46168809D01*
X166031944Y-46168817D01*
X166082343Y-46279174D01*
X166092382Y-46301156D01*
X166187659Y-46411111D01*
X166266319Y-46461662D01*
X166310056Y-46489771D01*
X166449653Y-46530760D01*
X166449654Y-46530760D01*
X166595146Y-46530760D01*
X166734743Y-46489771D01*
X166739141Y-46486945D01*
X166739142Y-46486943D01*
X166806181Y-46467260D01*
X169518526Y-46467260D01*
X169585565Y-46486945D01*
X169627884Y-46532807D01*
X169693372Y-46655327D01*
X169693374Y-46655330D01*
X169792960Y-46776675D01*
X169820273Y-46840985D01*
X169808482Y-46909853D01*
X169761330Y-46961413D01*
X169697107Y-46979340D01*
X165843828Y-46979340D01*
X165776789Y-46959656D01*
X165693343Y-46906028D01*
X165553747Y-46865040D01*
X165553746Y-46865040D01*
X165408254Y-46865040D01*
X165408253Y-46865040D01*
X165268656Y-46906028D01*
X165146260Y-46984688D01*
X165050983Y-47094642D01*
X165050980Y-47094647D01*
X164990544Y-47226982D01*
X164990542Y-47226990D01*
X164969837Y-47371000D01*
X164990542Y-47515009D01*
X164990544Y-47515017D01*
X165050980Y-47647352D01*
X165050982Y-47647356D01*
X165146259Y-47757311D01*
X165185213Y-47782345D01*
X165268656Y-47835971D01*
X165408253Y-47876960D01*
X165408254Y-47876960D01*
X165553746Y-47876960D01*
X165693343Y-47835971D01*
X165694623Y-47835149D01*
X165776789Y-47782344D01*
X165843828Y-47762660D01*
X169655416Y-47762660D01*
X169722455Y-47782345D01*
X169768210Y-47835149D01*
X169778154Y-47904307D01*
X169751269Y-47965325D01*
X169693374Y-48035869D01*
X169693372Y-48035872D01*
X169623074Y-48167393D01*
X169574112Y-48217237D01*
X169513716Y-48232940D01*
X164802309Y-48232940D01*
X164735270Y-48213256D01*
X164677343Y-48176028D01*
X164537747Y-48135040D01*
X164537746Y-48135040D01*
X164392254Y-48135040D01*
X164392253Y-48135040D01*
X164252656Y-48176028D01*
X164130260Y-48254688D01*
X164034983Y-48364642D01*
X164034980Y-48364647D01*
X163974544Y-48496982D01*
X163974542Y-48496990D01*
X163953837Y-48641000D01*
X163974542Y-48785009D01*
X163974544Y-48785017D01*
X164023764Y-48892792D01*
X164034982Y-48917356D01*
X164130259Y-49027311D01*
X164208919Y-49077862D01*
X164252656Y-49105971D01*
X164392253Y-49146960D01*
X164392254Y-49146960D01*
X164537746Y-49146960D01*
X164677343Y-49105971D01*
X164786308Y-49035944D01*
X164853347Y-49016260D01*
X169523337Y-49016260D01*
X169590376Y-49035945D01*
X169632694Y-49081805D01*
X169693374Y-49195329D01*
X169693375Y-49195330D01*
X169693374Y-49195330D01*
X169792960Y-49316675D01*
X169820273Y-49380985D01*
X169808482Y-49449853D01*
X169761330Y-49501413D01*
X169697107Y-49519340D01*
X163772304Y-49519340D01*
X163705266Y-49499656D01*
X163661345Y-49471430D01*
X163661343Y-49471429D01*
X163661341Y-49471428D01*
X163521747Y-49430440D01*
X163521746Y-49430440D01*
X163376254Y-49430440D01*
X163376253Y-49430440D01*
X163236656Y-49471428D01*
X163114260Y-49550088D01*
X163018983Y-49660042D01*
X163018980Y-49660047D01*
X162958544Y-49792382D01*
X162958542Y-49792390D01*
X162937837Y-49936400D01*
X162958542Y-50080409D01*
X162958544Y-50080417D01*
X163018980Y-50212752D01*
X163018982Y-50212756D01*
X163114259Y-50322711D01*
X163139573Y-50338979D01*
X163236656Y-50401371D01*
X163376253Y-50442360D01*
X163376254Y-50442360D01*
X163521746Y-50442360D01*
X163661343Y-50401371D01*
X163702146Y-50375149D01*
X163783741Y-50322711D01*
X163783741Y-50322710D01*
X163784312Y-50322344D01*
X163851351Y-50302660D01*
X169655416Y-50302660D01*
X169722455Y-50322345D01*
X169768210Y-50375149D01*
X169778154Y-50444307D01*
X169751269Y-50505325D01*
X169693374Y-50575869D01*
X169693372Y-50575872D01*
X169623074Y-50707393D01*
X169574112Y-50757237D01*
X169513716Y-50772940D01*
X162809832Y-50772940D01*
X162742793Y-50753256D01*
X162645343Y-50690628D01*
X162505747Y-50649640D01*
X162505746Y-50649640D01*
X162360254Y-50649640D01*
X162360253Y-50649640D01*
X162220656Y-50690628D01*
X162098260Y-50769288D01*
X162002983Y-50879242D01*
X162002980Y-50879247D01*
X161942544Y-51011582D01*
X161942542Y-51011590D01*
X161921837Y-51155600D01*
X161942542Y-51299609D01*
X161942544Y-51299617D01*
X162002980Y-51431952D01*
X162002982Y-51431956D01*
X162098259Y-51541911D01*
X162120587Y-51556260D01*
X162220656Y-51620571D01*
X162360253Y-51661560D01*
X162360254Y-51661560D01*
X162505746Y-51661560D01*
X162645345Y-51620570D01*
X162645347Y-51620569D01*
X162714784Y-51575945D01*
X162781823Y-51556260D01*
X169523337Y-51556260D01*
X169590376Y-51575945D01*
X169632694Y-51621805D01*
X169693374Y-51735329D01*
X169693375Y-51735330D01*
X169693374Y-51735330D01*
X169772115Y-51831275D01*
X169799428Y-51895585D01*
X169787637Y-51964452D01*
X169740485Y-52016013D01*
X169676262Y-52033940D01*
X161754428Y-52033940D01*
X161687389Y-52014256D01*
X161603943Y-51960628D01*
X161464347Y-51919640D01*
X161464346Y-51919640D01*
X161318854Y-51919640D01*
X161318853Y-51919640D01*
X161179256Y-51960628D01*
X161056860Y-52039288D01*
X160961583Y-52149242D01*
X160961580Y-52149247D01*
X160901144Y-52281582D01*
X160901142Y-52281590D01*
X160880437Y-52425600D01*
X160901142Y-52569609D01*
X160901144Y-52569617D01*
X160947977Y-52672165D01*
X160961582Y-52701956D01*
X161056859Y-52811911D01*
X161095813Y-52836945D01*
X161179256Y-52890571D01*
X161318853Y-52931560D01*
X161318854Y-52931560D01*
X161464346Y-52931560D01*
X161603943Y-52890571D01*
X161605223Y-52889749D01*
X161687389Y-52836944D01*
X161754428Y-52817260D01*
X169676262Y-52817260D01*
X169743301Y-52836945D01*
X169789056Y-52889749D01*
X169799000Y-52958907D01*
X169772115Y-53019925D01*
X169693374Y-53115869D01*
X169693372Y-53115872D01*
X169614308Y-53263793D01*
X169565346Y-53313637D01*
X169504950Y-53329340D01*
X160831754Y-53329340D01*
X160764715Y-53309655D01*
X160738042Y-53286543D01*
X160735746Y-53283894D01*
X160735740Y-53283888D01*
X160613343Y-53205228D01*
X160473747Y-53164240D01*
X160473746Y-53164240D01*
X160328254Y-53164240D01*
X160328253Y-53164240D01*
X160188656Y-53205228D01*
X160066260Y-53283888D01*
X159970983Y-53393842D01*
X159970980Y-53393847D01*
X159910544Y-53526182D01*
X159910542Y-53526190D01*
X159889837Y-53670200D01*
X159910542Y-53814209D01*
X159910544Y-53814217D01*
X159970980Y-53946552D01*
X159970982Y-53946556D01*
X160066259Y-54056511D01*
X160144919Y-54107062D01*
X160188656Y-54135171D01*
X160328253Y-54176160D01*
X160328254Y-54176160D01*
X160473746Y-54176160D01*
X160613343Y-54135171D01*
X160617741Y-54132345D01*
X160617742Y-54132343D01*
X160684781Y-54112660D01*
X169532103Y-54112660D01*
X169599142Y-54132345D01*
X169641460Y-54178205D01*
X169693373Y-54275327D01*
X169693375Y-54275330D01*
X169772115Y-54371275D01*
X169799428Y-54435585D01*
X169787637Y-54504452D01*
X169740485Y-54556013D01*
X169676262Y-54573940D01*
X159747828Y-54573940D01*
X159680789Y-54554256D01*
X159597343Y-54500628D01*
X159457747Y-54459640D01*
X159457746Y-54459640D01*
X159312254Y-54459640D01*
X159312253Y-54459640D01*
X159172656Y-54500628D01*
X159050260Y-54579288D01*
X158954983Y-54689242D01*
X158954980Y-54689247D01*
X158894544Y-54821582D01*
X158894542Y-54821590D01*
X158873837Y-54965600D01*
X158894542Y-55109609D01*
X158894544Y-55109617D01*
X158941377Y-55212165D01*
X158954982Y-55241956D01*
X159050259Y-55351911D01*
X159089213Y-55376945D01*
X159172656Y-55430571D01*
X159312253Y-55471560D01*
X159312254Y-55471560D01*
X159457746Y-55471560D01*
X159597343Y-55430571D01*
X159598623Y-55429749D01*
X159680789Y-55376944D01*
X159747828Y-55357260D01*
X169676262Y-55357260D01*
X169743301Y-55376945D01*
X169789056Y-55429749D01*
X169799000Y-55498907D01*
X169772115Y-55559925D01*
X169693374Y-55655869D01*
X169693372Y-55655872D01*
X169623074Y-55787393D01*
X169574112Y-55837237D01*
X169513716Y-55852940D01*
X158692185Y-55852940D01*
X158625147Y-55833256D01*
X158606743Y-55821429D01*
X158467147Y-55780440D01*
X158467146Y-55780440D01*
X158321654Y-55780440D01*
X158321653Y-55780440D01*
X158182056Y-55821428D01*
X158059660Y-55900088D01*
X157964383Y-56010042D01*
X157964380Y-56010047D01*
X157903944Y-56142382D01*
X157903942Y-56142390D01*
X157883237Y-56286400D01*
X157903942Y-56430409D01*
X157903944Y-56430417D01*
X157964380Y-56562752D01*
X157964382Y-56562756D01*
X158059659Y-56672711D01*
X158138319Y-56723262D01*
X158182056Y-56751371D01*
X158321653Y-56792360D01*
X158321654Y-56792360D01*
X158467146Y-56792360D01*
X158606743Y-56751371D01*
X158606745Y-56751370D01*
X158729141Y-56672711D01*
X158729144Y-56672707D01*
X158735841Y-56666905D01*
X158738249Y-56669684D01*
X158782328Y-56641310D01*
X158817354Y-56636260D01*
X169523337Y-56636260D01*
X169590376Y-56655945D01*
X169632694Y-56701805D01*
X169693374Y-56815329D01*
X169693375Y-56815330D01*
X169693374Y-56815330D01*
X169772115Y-56911275D01*
X169799428Y-56975585D01*
X169787637Y-57044452D01*
X169740485Y-57096013D01*
X169676262Y-57113940D01*
X157715828Y-57113940D01*
X157648789Y-57094256D01*
X157565343Y-57040628D01*
X157425747Y-56999640D01*
X157425746Y-56999640D01*
X157280254Y-56999640D01*
X157280253Y-56999640D01*
X157140656Y-57040628D01*
X157018260Y-57119288D01*
X156922983Y-57229242D01*
X156922980Y-57229247D01*
X156862544Y-57361582D01*
X156862542Y-57361590D01*
X156841837Y-57505600D01*
X156862542Y-57649609D01*
X156862544Y-57649617D01*
X156909377Y-57752165D01*
X156922982Y-57781956D01*
X157018259Y-57891911D01*
X157057213Y-57916945D01*
X157140656Y-57970571D01*
X157280253Y-58011560D01*
X157280254Y-58011560D01*
X157425746Y-58011560D01*
X157565343Y-57970571D01*
X157566623Y-57969749D01*
X157648789Y-57916944D01*
X157715828Y-57897260D01*
X169676262Y-57897260D01*
X169743301Y-57916945D01*
X169789056Y-57969749D01*
X169799000Y-58038907D01*
X169772115Y-58099925D01*
X169693374Y-58195869D01*
X169693372Y-58195872D01*
X169623074Y-58327393D01*
X169574112Y-58377237D01*
X169513716Y-58392940D01*
X156699828Y-58392940D01*
X156632789Y-58373256D01*
X156549343Y-58319628D01*
X156409747Y-58278640D01*
X156409746Y-58278640D01*
X156264254Y-58278640D01*
X156264253Y-58278640D01*
X156124656Y-58319628D01*
X156002260Y-58398288D01*
X155906983Y-58508242D01*
X155906980Y-58508247D01*
X155846544Y-58640582D01*
X155846542Y-58640590D01*
X155825837Y-58784600D01*
X155846542Y-58928609D01*
X155846544Y-58928617D01*
X155892662Y-59029600D01*
X155906982Y-59060956D01*
X156002259Y-59170911D01*
X156041213Y-59195945D01*
X156124656Y-59249571D01*
X156264253Y-59290560D01*
X156264254Y-59290560D01*
X156409746Y-59290560D01*
X156549343Y-59249571D01*
X156561425Y-59241807D01*
X156632789Y-59195944D01*
X156699828Y-59176260D01*
X169523337Y-59176260D01*
X169590376Y-59195945D01*
X169632694Y-59241805D01*
X169693374Y-59355329D01*
X169693375Y-59355330D01*
X169693374Y-59355330D01*
X169772115Y-59451275D01*
X169799428Y-59515585D01*
X169787637Y-59584452D01*
X169740485Y-59636013D01*
X169676262Y-59653940D01*
X155658428Y-59653940D01*
X155591389Y-59634256D01*
X155507943Y-59580628D01*
X155368347Y-59539640D01*
X155368346Y-59539640D01*
X155222854Y-59539640D01*
X155222853Y-59539640D01*
X155083256Y-59580628D01*
X154960860Y-59659288D01*
X154865583Y-59769242D01*
X154865580Y-59769247D01*
X154805144Y-59901582D01*
X154805142Y-59901590D01*
X154784437Y-60045600D01*
X154805142Y-60189609D01*
X154805144Y-60189617D01*
X154851977Y-60292165D01*
X154865582Y-60321956D01*
X154960859Y-60431911D01*
X154999813Y-60456945D01*
X155083256Y-60510571D01*
X155222853Y-60551560D01*
X155222854Y-60551560D01*
X155368346Y-60551560D01*
X155507943Y-60510571D01*
X155509223Y-60509749D01*
X155591389Y-60456944D01*
X155658428Y-60437260D01*
X169676262Y-60437260D01*
X169743301Y-60456945D01*
X169789056Y-60509749D01*
X169799000Y-60578907D01*
X169772115Y-60639925D01*
X169693374Y-60735869D01*
X169693372Y-60735872D01*
X169623074Y-60867393D01*
X169574112Y-60917237D01*
X169513716Y-60932940D01*
X154681832Y-60932940D01*
X154614793Y-60913256D01*
X154517343Y-60850628D01*
X154377747Y-60809640D01*
X154377746Y-60809640D01*
X154232254Y-60809640D01*
X154232253Y-60809640D01*
X154092656Y-60850628D01*
X153970260Y-60929288D01*
X153874983Y-61039242D01*
X153874980Y-61039247D01*
X153814544Y-61171582D01*
X153814542Y-61171590D01*
X153793837Y-61315600D01*
X153814542Y-61459609D01*
X153814544Y-61459617D01*
X153874980Y-61591952D01*
X153874982Y-61591956D01*
X153970259Y-61701911D01*
X153992587Y-61716260D01*
X154092656Y-61780571D01*
X154232253Y-61821560D01*
X154232254Y-61821560D01*
X154377746Y-61821560D01*
X154517345Y-61780570D01*
X154517347Y-61780569D01*
X154586784Y-61735945D01*
X154653823Y-61716260D01*
X169523337Y-61716260D01*
X169590376Y-61735945D01*
X169632694Y-61781805D01*
X169693374Y-61895329D01*
X169693375Y-61895330D01*
X169693374Y-61895330D01*
X169792960Y-62016675D01*
X169820273Y-62080985D01*
X169808482Y-62149853D01*
X169761330Y-62201413D01*
X169697107Y-62219340D01*
X153651828Y-62219340D01*
X153584789Y-62199656D01*
X153501343Y-62146028D01*
X153361747Y-62105040D01*
X153361746Y-62105040D01*
X153216254Y-62105040D01*
X153216253Y-62105040D01*
X153076656Y-62146028D01*
X152954260Y-62224688D01*
X152858983Y-62334642D01*
X152858980Y-62334647D01*
X152798544Y-62466982D01*
X152798542Y-62466990D01*
X152777837Y-62611000D01*
X152798542Y-62755009D01*
X152798544Y-62755017D01*
X152840746Y-62847425D01*
X152858982Y-62887356D01*
X152954259Y-62997311D01*
X152993213Y-63022345D01*
X153076656Y-63075971D01*
X153216253Y-63116960D01*
X153216254Y-63116960D01*
X153361746Y-63116960D01*
X153501343Y-63075971D01*
X153502623Y-63075149D01*
X153584789Y-63022344D01*
X153651828Y-63002660D01*
X169655416Y-63002660D01*
X169722455Y-63022345D01*
X169768210Y-63075149D01*
X169778154Y-63144307D01*
X169751269Y-63205325D01*
X169693374Y-63275869D01*
X169693372Y-63275872D01*
X169623074Y-63407393D01*
X169574112Y-63457237D01*
X169513716Y-63472940D01*
X152635828Y-63472940D01*
X152568789Y-63453256D01*
X152485343Y-63399628D01*
X152345747Y-63358640D01*
X152345746Y-63358640D01*
X152200254Y-63358640D01*
X152200253Y-63358640D01*
X152060656Y-63399628D01*
X151938260Y-63478288D01*
X151842983Y-63588242D01*
X151842980Y-63588247D01*
X151782544Y-63720582D01*
X151782542Y-63720590D01*
X151761837Y-63864600D01*
X151782542Y-64008609D01*
X151782544Y-64008617D01*
X151828662Y-64109600D01*
X151842982Y-64140956D01*
X151938259Y-64250911D01*
X151977213Y-64275945D01*
X152060656Y-64329571D01*
X152200253Y-64370560D01*
X152200254Y-64370560D01*
X152345746Y-64370560D01*
X152485343Y-64329571D01*
X152497425Y-64321807D01*
X152568789Y-64275944D01*
X152635828Y-64256260D01*
X169523337Y-64256260D01*
X169590376Y-64275945D01*
X169632694Y-64321805D01*
X169693374Y-64435329D01*
X169693375Y-64435330D01*
X169693374Y-64435330D01*
X169772115Y-64531275D01*
X169799428Y-64595585D01*
X169787637Y-64664452D01*
X169740485Y-64716013D01*
X169676262Y-64733940D01*
X151670628Y-64733940D01*
X151603589Y-64714256D01*
X151520143Y-64660628D01*
X151380547Y-64619640D01*
X151380546Y-64619640D01*
X151235054Y-64619640D01*
X151235053Y-64619640D01*
X151095456Y-64660628D01*
X150973060Y-64739288D01*
X150877783Y-64849242D01*
X150877780Y-64849247D01*
X150817344Y-64981582D01*
X150817342Y-64981590D01*
X150796637Y-65125600D01*
X150817342Y-65269609D01*
X150817344Y-65269617D01*
X150864177Y-65372165D01*
X150877782Y-65401956D01*
X150973059Y-65511911D01*
X151012013Y-65536945D01*
X151095456Y-65590571D01*
X151235053Y-65631560D01*
X151235054Y-65631560D01*
X151380546Y-65631560D01*
X151520143Y-65590571D01*
X151521423Y-65589749D01*
X151603589Y-65536944D01*
X151670628Y-65517260D01*
X169676262Y-65517260D01*
X169743301Y-65536945D01*
X169789056Y-65589749D01*
X169799000Y-65658907D01*
X169772115Y-65719925D01*
X169693374Y-65815869D01*
X169693372Y-65815872D01*
X169623074Y-65947393D01*
X169574112Y-65997237D01*
X169513716Y-66012940D01*
X150603828Y-66012940D01*
X150536789Y-65993256D01*
X150453343Y-65939628D01*
X150313747Y-65898640D01*
X150313746Y-65898640D01*
X150168254Y-65898640D01*
X150168253Y-65898640D01*
X150028656Y-65939628D01*
X149906259Y-66018288D01*
X149834372Y-66101250D01*
X149775594Y-66139023D01*
X149705724Y-66139023D01*
X149646946Y-66101248D01*
X149617922Y-66037692D01*
X149616660Y-66020046D01*
X149616660Y-65492473D01*
X149636345Y-65425434D01*
X149646950Y-65411267D01*
X149655017Y-65401957D01*
X149655016Y-65401957D01*
X149655018Y-65401956D01*
X149680603Y-65345930D01*
X149715455Y-65269617D01*
X149715457Y-65269609D01*
X149736163Y-65125600D01*
X149715457Y-64981589D01*
X149715456Y-64981587D01*
X149715455Y-64981582D01*
X149668622Y-64879034D01*
X149655018Y-64849244D01*
X149559741Y-64739289D01*
X149520787Y-64714255D01*
X149437343Y-64660628D01*
X149297747Y-64619640D01*
X149297746Y-64619640D01*
X149152254Y-64619640D01*
X149152253Y-64619640D01*
X149012656Y-64660628D01*
X148890259Y-64739288D01*
X148818372Y-64822250D01*
X148759594Y-64860023D01*
X148689724Y-64860023D01*
X148630946Y-64822248D01*
X148601922Y-64758692D01*
X148600660Y-64741046D01*
X148600660Y-64476473D01*
X148620345Y-64409434D01*
X148630950Y-64395267D01*
X148639017Y-64385957D01*
X148639016Y-64385957D01*
X148639018Y-64385956D01*
X148689258Y-64275945D01*
X148699455Y-64253617D01*
X148699457Y-64253609D01*
X148715654Y-64140957D01*
X148720163Y-64109600D01*
X148699457Y-63965589D01*
X148699456Y-63965587D01*
X148699455Y-63965582D01*
X148639019Y-63833247D01*
X148639018Y-63833244D01*
X148543741Y-63723289D01*
X148508817Y-63700844D01*
X148421343Y-63644628D01*
X148281747Y-63603640D01*
X148281746Y-63603640D01*
X148136254Y-63603640D01*
X148136253Y-63603640D01*
X147996656Y-63644628D01*
X147874260Y-63723288D01*
X147778983Y-63833242D01*
X147778980Y-63833247D01*
X147718544Y-63965582D01*
X147718542Y-63965590D01*
X147697837Y-64109600D01*
X147432260Y-64109600D01*
X147432260Y-62508639D01*
X147432260Y-62508637D01*
X147405569Y-62409025D01*
X147376736Y-62359084D01*
X147354008Y-62319718D01*
X147354004Y-62319713D01*
X146293086Y-61258795D01*
X146293081Y-61258791D01*
X146203777Y-61207232D01*
X146203776Y-61207231D01*
X146203775Y-61207231D01*
X146104163Y-61180540D01*
X146104161Y-61180540D01*
X145950863Y-61180540D01*
X145883824Y-61160855D01*
X145841505Y-61114993D01*
X145774627Y-60989872D01*
X145774625Y-60989869D01*
X145644855Y-60831744D01*
X145486730Y-60701974D01*
X145486727Y-60701972D01*
X145306325Y-60605546D01*
X145110576Y-60546165D01*
X145110574Y-60546164D01*
X144907000Y-60526115D01*
X144703425Y-60546164D01*
X144703423Y-60546165D01*
X144507674Y-60605546D01*
X144327272Y-60701972D01*
X144327269Y-60701974D01*
X144169144Y-60831744D01*
X144039374Y-60989869D01*
X144039372Y-60989872D01*
X143942946Y-61170274D01*
X143883565Y-61366023D01*
X143883564Y-61366025D01*
X143863515Y-61569600D01*
X143410485Y-61569600D01*
X143390435Y-61366026D01*
X143331054Y-61170276D01*
X143299919Y-61112026D01*
X143234627Y-60989872D01*
X143234625Y-60989869D01*
X143104855Y-60831744D01*
X142946730Y-60701974D01*
X142946727Y-60701972D01*
X142766325Y-60605546D01*
X142570576Y-60546165D01*
X142570574Y-60546164D01*
X142367000Y-60526115D01*
X142163425Y-60546164D01*
X142163423Y-60546165D01*
X141967674Y-60605546D01*
X141787272Y-60701972D01*
X141787269Y-60701974D01*
X141629144Y-60831744D01*
X141499374Y-60989869D01*
X141499372Y-60989872D01*
X141402946Y-61170274D01*
X141343565Y-61366023D01*
X141343564Y-61366025D01*
X141323515Y-61569600D01*
X138295500Y-61569600D01*
X138295500Y-59029600D01*
X141323515Y-59029600D01*
X141343564Y-59233174D01*
X141343565Y-59233176D01*
X141402946Y-59428925D01*
X141499372Y-59609327D01*
X141499374Y-59609330D01*
X141629144Y-59767455D01*
X141787269Y-59897225D01*
X141787272Y-59897227D01*
X141810316Y-59909544D01*
X141967676Y-59993654D01*
X142163423Y-60053034D01*
X142163425Y-60053035D01*
X142176808Y-60054353D01*
X142367000Y-60073085D01*
X142570574Y-60053035D01*
X142766324Y-59993654D01*
X142946729Y-59897226D01*
X143104855Y-59767455D01*
X143234626Y-59609329D01*
X143331054Y-59428924D01*
X143390435Y-59233174D01*
X143410485Y-59029600D01*
X143390435Y-58826026D01*
X143376352Y-58779600D01*
X143882246Y-58779600D01*
X144473988Y-58779600D01*
X144441075Y-58836607D01*
X144407000Y-58963774D01*
X144407000Y-59095426D01*
X144441075Y-59222593D01*
X144473988Y-59279600D01*
X143882246Y-59279600D01*
X143929263Y-59434596D01*
X144027055Y-59617552D01*
X144027059Y-59617559D01*
X144158671Y-59777928D01*
X144319040Y-59909540D01*
X144319047Y-59909544D01*
X144502003Y-60007336D01*
X144657000Y-60054353D01*
X144657000Y-59462612D01*
X144714007Y-59495525D01*
X144841174Y-59529600D01*
X144972826Y-59529600D01*
X145099993Y-59495525D01*
X145157000Y-59462612D01*
X145157000Y-60054353D01*
X145311996Y-60007336D01*
X145494952Y-59909544D01*
X145494959Y-59909540D01*
X145655328Y-59777928D01*
X145786940Y-59617559D01*
X145786944Y-59617552D01*
X145884736Y-59434596D01*
X145931754Y-59279600D01*
X145340012Y-59279600D01*
X145372925Y-59222593D01*
X145407000Y-59095426D01*
X145407000Y-58963774D01*
X145372925Y-58836607D01*
X145340012Y-58779600D01*
X145931754Y-58779600D01*
X145884736Y-58624603D01*
X145786944Y-58441647D01*
X145786940Y-58441640D01*
X145655328Y-58281271D01*
X145494959Y-58149659D01*
X145494952Y-58149655D01*
X145311993Y-58051862D01*
X145157000Y-58004844D01*
X145157000Y-58596588D01*
X145099993Y-58563675D01*
X144972826Y-58529600D01*
X144841174Y-58529600D01*
X144714007Y-58563675D01*
X144657000Y-58596588D01*
X144657000Y-58004844D01*
X144502006Y-58051862D01*
X144319047Y-58149655D01*
X144319040Y-58149659D01*
X144158671Y-58281271D01*
X144027059Y-58441640D01*
X144027055Y-58441647D01*
X143929263Y-58624603D01*
X143882246Y-58779600D01*
X143376352Y-58779600D01*
X143331054Y-58630276D01*
X143328022Y-58624603D01*
X143234627Y-58449872D01*
X143234625Y-58449869D01*
X143104855Y-58291744D01*
X142946730Y-58161974D01*
X142946727Y-58161972D01*
X142766325Y-58065546D01*
X142570576Y-58006165D01*
X142570574Y-58006164D01*
X142367000Y-57986115D01*
X142163425Y-58006164D01*
X142163423Y-58006165D01*
X141967674Y-58065546D01*
X141787272Y-58161972D01*
X141787269Y-58161974D01*
X141629144Y-58291744D01*
X141499374Y-58449869D01*
X141499372Y-58449872D01*
X141402946Y-58630274D01*
X141343565Y-58826023D01*
X141343564Y-58826025D01*
X141323515Y-59029600D01*
X138295500Y-59029600D01*
X138295500Y-55621035D01*
X141328540Y-55621035D01*
X141328540Y-57358164D01*
X141339474Y-57413132D01*
X141339475Y-57413133D01*
X141381128Y-57475472D01*
X141437344Y-57513034D01*
X141443467Y-57517125D01*
X141498435Y-57528059D01*
X141498438Y-57528060D01*
X141498440Y-57528060D01*
X143235562Y-57528060D01*
X143235563Y-57528059D01*
X143290533Y-57517125D01*
X143352872Y-57475472D01*
X143394525Y-57413133D01*
X143405460Y-57358160D01*
X143405460Y-55621040D01*
X143405460Y-55621037D01*
X143405459Y-55621035D01*
X143394525Y-55566067D01*
X143390421Y-55559925D01*
X143352872Y-55503728D01*
X143290533Y-55462075D01*
X143290532Y-55462074D01*
X143235563Y-55451140D01*
X143235560Y-55451140D01*
X141498440Y-55451140D01*
X141498437Y-55451140D01*
X141443467Y-55462074D01*
X141381128Y-55503728D01*
X141339474Y-55566067D01*
X141328540Y-55621035D01*
X138295500Y-55621035D01*
X138295500Y-50027594D01*
X143953400Y-50027594D01*
X143956270Y-50058202D01*
X143956272Y-50058214D01*
X144001392Y-50187156D01*
X144082519Y-50297080D01*
X144192443Y-50378207D01*
X144321385Y-50423327D01*
X144321397Y-50423329D01*
X144352006Y-50426200D01*
X144631600Y-50426200D01*
X145131600Y-50426200D01*
X145411194Y-50426200D01*
X145441802Y-50423329D01*
X145441814Y-50423327D01*
X145570756Y-50378207D01*
X145680680Y-50297080D01*
X145761807Y-50187156D01*
X145806927Y-50058214D01*
X145806929Y-50058202D01*
X145809800Y-50027594D01*
X145809800Y-49885500D01*
X145131600Y-49885500D01*
X145131600Y-50426200D01*
X144631600Y-50426200D01*
X144631600Y-49885500D01*
X143953400Y-49885500D01*
X143953400Y-50027594D01*
X138295500Y-50027594D01*
X138295500Y-49243405D01*
X143953400Y-49243405D01*
X143953400Y-49385500D01*
X144631600Y-49385500D01*
X145131600Y-49385500D01*
X145809800Y-49385500D01*
X145809800Y-49243405D01*
X145806929Y-49212797D01*
X145806927Y-49212785D01*
X145761807Y-49083843D01*
X145680680Y-48973919D01*
X145570756Y-48892792D01*
X145441814Y-48847672D01*
X145441802Y-48847670D01*
X145411194Y-48844800D01*
X145131600Y-48844800D01*
X145131600Y-49385500D01*
X144631600Y-49385500D01*
X144631600Y-48844800D01*
X144352006Y-48844800D01*
X144321397Y-48847670D01*
X144321385Y-48847672D01*
X144192443Y-48892792D01*
X144082519Y-48973919D01*
X144001392Y-49083843D01*
X143956272Y-49212785D01*
X143956270Y-49212797D01*
X143953400Y-49243405D01*
X138295500Y-49243405D01*
X138295500Y-44297599D01*
X154520213Y-44297599D01*
X154520213Y-44297600D01*
X154539324Y-44516042D01*
X154539326Y-44516052D01*
X154596076Y-44727849D01*
X154596081Y-44727863D01*
X154688751Y-44926594D01*
X154688752Y-44926596D01*
X154732775Y-44989468D01*
X154732777Y-44989469D01*
X155138889Y-44583356D01*
X155157868Y-44629174D01*
X155234474Y-44743824D01*
X155331976Y-44841326D01*
X155446626Y-44917932D01*
X155492442Y-44936909D01*
X155086329Y-45343022D01*
X155149207Y-45387049D01*
X155149211Y-45387051D01*
X155347936Y-45479718D01*
X155347950Y-45479723D01*
X155559747Y-45536473D01*
X155559757Y-45536475D01*
X155778199Y-45555587D01*
X155778201Y-45555587D01*
X155996642Y-45536475D01*
X155996652Y-45536473D01*
X156208449Y-45479723D01*
X156208463Y-45479718D01*
X156407190Y-45387050D01*
X156407192Y-45387049D01*
X156470069Y-45343022D01*
X156063956Y-44936909D01*
X156109774Y-44917932D01*
X156224424Y-44841326D01*
X156321926Y-44743824D01*
X156398532Y-44629174D01*
X156417509Y-44583356D01*
X156823622Y-44989469D01*
X156867649Y-44926592D01*
X156867650Y-44926590D01*
X156960318Y-44727863D01*
X156960323Y-44727849D01*
X157017073Y-44516052D01*
X157017075Y-44516042D01*
X157036187Y-44297600D01*
X157036187Y-44297599D01*
X157017075Y-44079157D01*
X157017073Y-44079147D01*
X156960323Y-43867350D01*
X156960318Y-43867336D01*
X156867651Y-43668611D01*
X156867647Y-43668603D01*
X156823622Y-43605730D01*
X156417509Y-44011842D01*
X156398532Y-43966026D01*
X156321926Y-43851376D01*
X156224424Y-43753874D01*
X156109774Y-43677268D01*
X156063956Y-43658289D01*
X156470069Y-43252177D01*
X156470068Y-43252175D01*
X156407196Y-43208152D01*
X156407194Y-43208151D01*
X156208463Y-43115481D01*
X156208449Y-43115476D01*
X155996652Y-43058726D01*
X155996642Y-43058724D01*
X155778201Y-43039613D01*
X155778199Y-43039613D01*
X155559757Y-43058724D01*
X155559747Y-43058726D01*
X155347950Y-43115476D01*
X155347941Y-43115480D01*
X155149208Y-43208150D01*
X155086330Y-43252177D01*
X155492443Y-43658289D01*
X155446626Y-43677268D01*
X155331976Y-43753874D01*
X155234474Y-43851376D01*
X155157868Y-43966026D01*
X155138890Y-44011843D01*
X154732777Y-43605730D01*
X154688750Y-43668608D01*
X154596080Y-43867341D01*
X154596076Y-43867350D01*
X154539326Y-44079147D01*
X154539324Y-44079157D01*
X154520213Y-44297599D01*
X138295500Y-44297599D01*
X138295500Y-40712072D01*
X139629900Y-40712072D01*
X139629900Y-40974327D01*
X139656523Y-41176539D01*
X139664130Y-41234316D01*
X139725010Y-41461525D01*
X139732002Y-41487618D01*
X139732005Y-41487628D01*
X139832353Y-41729890D01*
X139832358Y-41729900D01*
X139963475Y-41957003D01*
X140123118Y-42165051D01*
X140123126Y-42165060D01*
X140308540Y-42350474D01*
X140308548Y-42350481D01*
X140516596Y-42510124D01*
X140743699Y-42641241D01*
X140743709Y-42641246D01*
X140985971Y-42741594D01*
X140985981Y-42741598D01*
X141239284Y-42809470D01*
X141499280Y-42843700D01*
X141499287Y-42843700D01*
X141761513Y-42843700D01*
X141761520Y-42843700D01*
X142021516Y-42809470D01*
X142274819Y-42741598D01*
X142482294Y-42655659D01*
X142517090Y-42641246D01*
X142517091Y-42641245D01*
X142517097Y-42641243D01*
X142744203Y-42510124D01*
X142952251Y-42350482D01*
X142952255Y-42350477D01*
X142952260Y-42350474D01*
X143137674Y-42165060D01*
X143137677Y-42165055D01*
X143137682Y-42165051D01*
X143297324Y-41957003D01*
X143428443Y-41729897D01*
X143528798Y-41487619D01*
X143596670Y-41234316D01*
X143630900Y-40974320D01*
X143630900Y-40712080D01*
X143596670Y-40452084D01*
X143528798Y-40198781D01*
X143448443Y-40004787D01*
X143428446Y-39956509D01*
X143428441Y-39956499D01*
X143297324Y-39729396D01*
X143137681Y-39521348D01*
X143137674Y-39521340D01*
X142952260Y-39335926D01*
X142952251Y-39335918D01*
X142744203Y-39176275D01*
X142517100Y-39045158D01*
X142517090Y-39045153D01*
X142274828Y-38944805D01*
X142274821Y-38944803D01*
X142274819Y-38944802D01*
X142021516Y-38876930D01*
X141963739Y-38869323D01*
X141761527Y-38842700D01*
X141761520Y-38842700D01*
X141499280Y-38842700D01*
X141499272Y-38842700D01*
X141268172Y-38873126D01*
X141239284Y-38876930D01*
X141042761Y-38929588D01*
X140985981Y-38944802D01*
X140985971Y-38944805D01*
X140743709Y-39045153D01*
X140743699Y-39045158D01*
X140516596Y-39176275D01*
X140308548Y-39335918D01*
X140123118Y-39521348D01*
X139963475Y-39729396D01*
X139832358Y-39956499D01*
X139832353Y-39956509D01*
X139732005Y-40198771D01*
X139732002Y-40198781D01*
X139664130Y-40452085D01*
X139629900Y-40712072D01*
X138295500Y-40712072D01*
X138295500Y-38746799D01*
X154520213Y-38746799D01*
X154520213Y-38746800D01*
X154539324Y-38965242D01*
X154539326Y-38965252D01*
X154596076Y-39177049D01*
X154596081Y-39177063D01*
X154688751Y-39375794D01*
X154688752Y-39375796D01*
X154732775Y-39438668D01*
X154732777Y-39438669D01*
X155138889Y-39032556D01*
X155157868Y-39078374D01*
X155234474Y-39193024D01*
X155331976Y-39290526D01*
X155446626Y-39367132D01*
X155492442Y-39386109D01*
X155086329Y-39792222D01*
X155149207Y-39836249D01*
X155149211Y-39836251D01*
X155347936Y-39928918D01*
X155347950Y-39928923D01*
X155559747Y-39985673D01*
X155559757Y-39985675D01*
X155778199Y-40004787D01*
X155778201Y-40004787D01*
X155996642Y-39985675D01*
X155996652Y-39985673D01*
X156208449Y-39928923D01*
X156208463Y-39928918D01*
X156407190Y-39836250D01*
X156407192Y-39836249D01*
X156470069Y-39792222D01*
X156063956Y-39386109D01*
X156109774Y-39367132D01*
X156224424Y-39290526D01*
X156321926Y-39193024D01*
X156398532Y-39078374D01*
X156417509Y-39032556D01*
X156823622Y-39438669D01*
X156867649Y-39375792D01*
X156867650Y-39375790D01*
X156960318Y-39177063D01*
X156960323Y-39177049D01*
X157017073Y-38965252D01*
X157017075Y-38965242D01*
X157036187Y-38746800D01*
X157036187Y-38746799D01*
X157017075Y-38528357D01*
X157017073Y-38528347D01*
X156960323Y-38316550D01*
X156960318Y-38316536D01*
X156867651Y-38117811D01*
X156867647Y-38117803D01*
X156823622Y-38054930D01*
X156417509Y-38461042D01*
X156398532Y-38415226D01*
X156321926Y-38300576D01*
X156224424Y-38203074D01*
X156109774Y-38126468D01*
X156063956Y-38107489D01*
X156470069Y-37701377D01*
X156470068Y-37701375D01*
X156407196Y-37657352D01*
X156407194Y-37657351D01*
X156208463Y-37564681D01*
X156208449Y-37564676D01*
X155996652Y-37507926D01*
X155996642Y-37507924D01*
X155778201Y-37488813D01*
X155778199Y-37488813D01*
X155559757Y-37507924D01*
X155559747Y-37507926D01*
X155347950Y-37564676D01*
X155347941Y-37564680D01*
X155149208Y-37657350D01*
X155086330Y-37701377D01*
X155492443Y-38107489D01*
X155446626Y-38126468D01*
X155331976Y-38203074D01*
X155234474Y-38300576D01*
X155157868Y-38415226D01*
X155138890Y-38461043D01*
X154732777Y-38054930D01*
X154688750Y-38117808D01*
X154596080Y-38316541D01*
X154596076Y-38316550D01*
X154539326Y-38528347D01*
X154539324Y-38528357D01*
X154520213Y-38746799D01*
X138295500Y-38746799D01*
X138295500Y-37200500D01*
X138315185Y-37133461D01*
X138367989Y-37087706D01*
X138419500Y-37076500D01*
X159731989Y-37076500D01*
X159799028Y-37096185D01*
G37*
%TD.AperFunction*%
%TD*%
%TA.AperFunction,NonConductor*%
G36*
X177369539Y-37096185D02*
G01*
X177415294Y-37148989D01*
X177426500Y-37200500D01*
X177426500Y-38929588D01*
X177406815Y-38996627D01*
X177354011Y-39042382D01*
X177284853Y-39052326D01*
X177221297Y-39023301D01*
X177214819Y-39017269D01*
X175485730Y-37288181D01*
X175452245Y-37226858D01*
X175457229Y-37157166D01*
X175499101Y-37101233D01*
X175564565Y-37076816D01*
X175573411Y-37076500D01*
X177302500Y-37076500D01*
X177369539Y-37096185D01*
G37*
%TD.AperFunction*%
%TA.AperFunction,NonConductor*%
G36*
X149912806Y-66795494D02*
G01*
X149920418Y-66800011D01*
X150028652Y-66869569D01*
X150028655Y-66869570D01*
X150168253Y-66910560D01*
X150168254Y-66910560D01*
X150313746Y-66910560D01*
X150453343Y-66869571D01*
X150453347Y-66869569D01*
X150536789Y-66815944D01*
X150603828Y-66796260D01*
X169523337Y-66796260D01*
X169590376Y-66815945D01*
X169632694Y-66861805D01*
X169693374Y-66975329D01*
X169693375Y-66975330D01*
X169693374Y-66975330D01*
X169792960Y-67096675D01*
X169820273Y-67160985D01*
X169808482Y-67229853D01*
X169761330Y-67281413D01*
X169697107Y-67299340D01*
X150124393Y-67299340D01*
X150057354Y-67279655D01*
X150036712Y-67263021D01*
X149765698Y-66992007D01*
X149732213Y-66930684D01*
X149737197Y-66860992D01*
X149779069Y-66805059D01*
X149844533Y-66780642D01*
X149912806Y-66795494D01*
G37*
%TD.AperFunction*%
%TA.AperFunction,NonConductor*%
G36*
X148805863Y-67036548D02*
G01*
X148843637Y-67095326D01*
X148844423Y-67098125D01*
X148860031Y-67156374D01*
X148860032Y-67156377D01*
X148911591Y-67245681D01*
X148911593Y-67245684D01*
X148911594Y-67245685D01*
X149597394Y-67931485D01*
X149670315Y-68004406D01*
X149670316Y-68004407D01*
X149670318Y-68004408D01*
X149714970Y-68030187D01*
X149759625Y-68055969D01*
X149859237Y-68082660D01*
X169655416Y-68082660D01*
X169722455Y-68102345D01*
X169768210Y-68155149D01*
X169778154Y-68224307D01*
X169751269Y-68285325D01*
X169693374Y-68355869D01*
X169693372Y-68355872D01*
X169623074Y-68487393D01*
X169574112Y-68537237D01*
X169513716Y-68552940D01*
X149218993Y-68552940D01*
X149151954Y-68533255D01*
X149131312Y-68516621D01*
X148636979Y-68022288D01*
X148603494Y-67960965D01*
X148600660Y-67934607D01*
X148600660Y-67130261D01*
X148620345Y-67063222D01*
X148673149Y-67017467D01*
X148742307Y-67007523D01*
X148805863Y-67036548D01*
G37*
%TD.AperFunction*%
M02*
