%TF.GenerationSoftware,KiCad,Pcbnew,9.0.6*%
%TF.CreationDate,2025-11-25T17:06:26+11:00*%
%TF.ProjectId,v8_equip_analog_RVR,76385f65-7175-4697-905f-616e616c6f67,rev?*%
%TF.SameCoordinates,Original*%
%TF.FileFunction,Soldermask,Top*%
%TF.FilePolarity,Negative*%
%FSLAX46Y46*%
G04 Gerber Fmt 4.6, Leading zero omitted, Abs format (unit mm)*
G04 Created by KiCad (PCBNEW 9.0.6) date 2025-11-25 17:06:26*
%MOMM*%
%LPD*%
G01*
G04 APERTURE LIST*
G04 Aperture macros list*
%AMRoundRect*
0 Rectangle with rounded corners*
0 $1 Rounding radius*
0 $2 $3 $4 $5 $6 $7 $8 $9 X,Y pos of 4 corners*
0 Add a 4 corners polygon primitive as box body*
4,1,4,$2,$3,$4,$5,$6,$7,$8,$9,$2,$3,0*
0 Add four circle primitives for the rounded corners*
1,1,$1+$1,$2,$3*
1,1,$1+$1,$4,$5*
1,1,$1+$1,$6,$7*
1,1,$1+$1,$8,$9*
0 Add four rect primitives between the rounded corners*
20,1,$1+$1,$2,$3,$4,$5,0*
20,1,$1+$1,$4,$5,$6,$7,0*
20,1,$1+$1,$6,$7,$8,$9,0*
20,1,$1+$1,$8,$9,$2,$3,0*%
G04 Aperture macros list end*
%ADD10C,4.000000*%
%ADD11R,1.600000X1.600000*%
%ADD12C,1.600000*%
%ADD13RoundRect,0.150000X-0.150000X0.725000X-0.150000X-0.725000X0.150000X-0.725000X0.150000X0.725000X0*%
%ADD14RoundRect,0.250000X-0.450000X0.350000X-0.450000X-0.350000X0.450000X-0.350000X0.450000X0.350000X0*%
%ADD15RoundRect,0.250000X-0.337500X-0.475000X0.337500X-0.475000X0.337500X0.475000X-0.337500X0.475000X0*%
%ADD16RoundRect,0.250000X0.450000X-0.350000X0.450000X0.350000X-0.450000X0.350000X-0.450000X-0.350000X0*%
%ADD17RoundRect,0.250000X-0.475000X0.337500X-0.475000X-0.337500X0.475000X-0.337500X0.475000X0.337500X0*%
%ADD18RoundRect,0.250000X-0.350000X-0.450000X0.350000X-0.450000X0.350000X0.450000X-0.350000X0.450000X0*%
%ADD19RoundRect,0.250000X0.337500X0.475000X-0.337500X0.475000X-0.337500X-0.475000X0.337500X-0.475000X0*%
%ADD20RoundRect,0.250000X0.475000X-0.337500X0.475000X0.337500X-0.475000X0.337500X-0.475000X-0.337500X0*%
%ADD21R,2.025000X2.025000*%
%ADD22C,2.025000*%
%ADD23C,1.440000*%
%ADD24RoundRect,0.150000X-0.150000X-0.625000X0.150000X-0.625000X0.150000X0.625000X-0.150000X0.625000X0*%
%ADD25RoundRect,0.416666X-0.583334X-0.970834X0.583334X-0.970834X0.583334X0.970834X-0.583334X0.970834X0*%
%ADD26R,1.700000X1.700000*%
%ADD27O,1.700000X1.700000*%
%ADD28C,2.100000*%
%ADD29RoundRect,0.150000X-0.587500X-0.150000X0.587500X-0.150000X0.587500X0.150000X-0.587500X0.150000X0*%
%ADD30RoundRect,0.150000X0.625000X-0.150000X0.625000X0.150000X-0.625000X0.150000X-0.625000X-0.150000X0*%
%ADD31RoundRect,0.416666X0.970834X-0.583334X0.970834X0.583334X-0.970834X0.583334X-0.970834X-0.583334X0*%
%ADD32RoundRect,0.250000X0.350000X0.450000X-0.350000X0.450000X-0.350000X-0.450000X0.350000X-0.450000X0*%
%ADD33RoundRect,0.150000X0.587500X0.150000X-0.587500X0.150000X-0.587500X-0.150000X0.587500X-0.150000X0*%
%ADD34R,0.600000X1.250000*%
%ADD35R,1.500000X0.650000*%
G04 APERTURE END LIST*
D10*
%TO.C,J3*%
X4700000Y-45155000D03*
X4700000Y-78455000D03*
D11*
X5000000Y-71500000D03*
D12*
X5000000Y-68730000D03*
X5000000Y-65960000D03*
X5000000Y-63190000D03*
X5000000Y-60420000D03*
X5000000Y-57650000D03*
X5000000Y-54880000D03*
X5000000Y-52110000D03*
X2160000Y-70115000D03*
X2160000Y-67345000D03*
X2160000Y-64575000D03*
X2160000Y-61805000D03*
X2160000Y-59035000D03*
X2160000Y-56265000D03*
X2160000Y-53495000D03*
%TD*%
D13*
%TO.C,U1*%
X30149800Y-21174000D03*
X28879800Y-21174000D03*
X27609800Y-21174000D03*
X26339800Y-21174000D03*
X26339800Y-26324000D03*
X27609800Y-26324000D03*
X28879800Y-26324000D03*
X30149800Y-26324000D03*
%TD*%
D14*
%TO.C,R13*%
X26138200Y-79086200D03*
X26138200Y-81086200D03*
%TD*%
D15*
%TO.C,C10*%
X49102100Y-62255400D03*
X51177100Y-62255400D03*
%TD*%
D16*
%TO.C,R18*%
X50927000Y-22869400D03*
X50927000Y-20869400D03*
%TD*%
D15*
%TO.C,C15*%
X36325900Y-87045800D03*
X38400900Y-87045800D03*
%TD*%
D17*
%TO.C,C7*%
X30782500Y-72495500D03*
X30782500Y-74570500D03*
%TD*%
D18*
%TO.C,R10*%
X15886400Y-72684129D03*
X17886400Y-72684129D03*
%TD*%
D19*
%TO.C,C9*%
X13762900Y-9220200D03*
X11687900Y-9220200D03*
%TD*%
D18*
%TO.C,R17*%
X33899600Y-21183600D03*
X35899600Y-21183600D03*
%TD*%
D14*
%TO.C,R8*%
X26265900Y-59934600D03*
X26265900Y-61934600D03*
%TD*%
%TO.C,R7*%
X26314400Y-66106800D03*
X26314400Y-68106800D03*
%TD*%
D17*
%TO.C,C3*%
X30736300Y-59973300D03*
X30736300Y-62048300D03*
%TD*%
D20*
%TO.C,C21*%
X34721800Y-39137500D03*
X34721800Y-37062500D03*
%TD*%
D21*
%TO.C,J6*%
X3000000Y-12000000D03*
D22*
X3000000Y-8190000D03*
X3000000Y-4380000D03*
%TD*%
D23*
%TO.C,RV1*%
X7500000Y-18000000D03*
X4960000Y-18000000D03*
X2420000Y-18000000D03*
%TD*%
D14*
%TO.C,R24*%
X22580600Y-30292800D03*
X22580600Y-32292800D03*
%TD*%
D15*
%TO.C,C16*%
X33836700Y-26492200D03*
X35911700Y-26492200D03*
%TD*%
D20*
%TO.C,C20*%
X38633400Y-39112100D03*
X38633400Y-37037100D03*
%TD*%
D18*
%TO.C,R6*%
X15861000Y-66115729D03*
X17861000Y-66115729D03*
%TD*%
D24*
%TO.C,CON4*%
X19683600Y-89490800D03*
X20683600Y-89490800D03*
X21683600Y-89490800D03*
X22683600Y-89490800D03*
D25*
X17983200Y-92913200D03*
X24434800Y-92913200D03*
%TD*%
D26*
%TO.C,J1*%
X54991000Y-37439600D03*
D27*
X57531000Y-37439600D03*
X54991000Y-39979600D03*
X57531000Y-39979600D03*
X54991000Y-42519600D03*
X57531000Y-42519600D03*
X54991000Y-45059600D03*
X57531000Y-45059600D03*
X54991000Y-47599600D03*
X57531000Y-47599600D03*
X54991000Y-50139600D03*
X57531000Y-50139600D03*
X54991000Y-52679600D03*
X57531000Y-52679600D03*
X54991000Y-55219600D03*
X57531000Y-55219600D03*
X54991000Y-57759600D03*
X57531000Y-57759600D03*
X54991000Y-60299600D03*
X57531000Y-60299600D03*
X54991000Y-62839600D03*
X57531000Y-62839600D03*
X54991000Y-65379600D03*
X57531000Y-65379600D03*
X54991000Y-67919600D03*
X57531000Y-67919600D03*
X54991000Y-70459600D03*
X57531000Y-70459600D03*
X54991000Y-72999600D03*
X57531000Y-72999600D03*
%TD*%
D16*
%TO.C,R14*%
X56870600Y-30489400D03*
X56870600Y-28489400D03*
%TD*%
D14*
%TO.C,R3*%
X26339800Y-44004900D03*
X26339800Y-46004900D03*
%TD*%
D15*
%TO.C,C12*%
X22914700Y-9194800D03*
X24989700Y-9194800D03*
%TD*%
D26*
%TO.C,J2*%
X11506200Y-41249600D03*
%TD*%
D15*
%TO.C,C11*%
X11713300Y-13030200D03*
X13788300Y-13030200D03*
%TD*%
D14*
%TO.C,R4*%
X26339800Y-53544471D03*
X26339800Y-55544471D03*
%TD*%
D28*
%TO.C,J4*%
X2971800Y-90982800D03*
X2971800Y-87172800D03*
%TD*%
D18*
%TO.C,R2*%
X15814800Y-54229000D03*
X17814800Y-54229000D03*
%TD*%
D16*
%TO.C,R15*%
X50927000Y-30464000D03*
X50927000Y-28464000D03*
%TD*%
D29*
%TO.C,D10*%
X28704300Y-37099200D03*
X28704300Y-38999200D03*
X30579300Y-38049200D03*
%TD*%
D18*
%TO.C,R5*%
X15865600Y-59994800D03*
X17865600Y-59994800D03*
%TD*%
D20*
%TO.C,C14*%
X35407600Y-7006500D03*
X35407600Y-4931500D03*
%TD*%
D17*
%TO.C,C4*%
X30861000Y-66069300D03*
X30861000Y-68144300D03*
%TD*%
D20*
%TO.C,C13*%
X39497000Y-6955700D03*
X39497000Y-4880700D03*
%TD*%
D26*
%TO.C,J5*%
X47802800Y-53441600D03*
D27*
X45262800Y-53441600D03*
X47802800Y-50901600D03*
X45262800Y-50901600D03*
X47802800Y-48361600D03*
X45262800Y-48361600D03*
X47802800Y-45821600D03*
X45262800Y-45821600D03*
%TD*%
D30*
%TO.C,CON2*%
X54388000Y-83897600D03*
X54388000Y-82897600D03*
X54388000Y-81897600D03*
X54388000Y-80897600D03*
D31*
X57810400Y-85598000D03*
X57810400Y-79146400D03*
%TD*%
D32*
%TO.C,R9*%
X17840200Y-49276000D03*
X15840200Y-49276000D03*
%TD*%
D33*
%TO.C,D8*%
X31011100Y-6893600D03*
X31011100Y-4993600D03*
X29136100Y-5943600D03*
%TD*%
D34*
%TO.C,IC2*%
X55158600Y-22919400D03*
X57058600Y-22919400D03*
X56108600Y-20819400D03*
%TD*%
D19*
%TO.C,C19*%
X17953900Y-36957000D03*
X15878900Y-36957000D03*
%TD*%
D17*
%TO.C,C2*%
X30861000Y-53506971D03*
X30861000Y-55581971D03*
%TD*%
D26*
%TO.C,J7*%
X46177200Y-22961600D03*
%TD*%
D16*
%TO.C,R20*%
X43256200Y-6969000D03*
X43256200Y-4969000D03*
%TD*%
D14*
%TO.C,R23*%
X30175200Y-30318200D03*
X30175200Y-32318200D03*
%TD*%
D18*
%TO.C,R11*%
X15839500Y-79120529D03*
X17839500Y-79120529D03*
%TD*%
%TO.C,R21*%
X22977600Y-14935200D03*
X24977600Y-14935200D03*
%TD*%
D15*
%TO.C,C5*%
X49000500Y-58013600D03*
X51075500Y-58013600D03*
%TD*%
D26*
%TO.C,J9*%
X41478200Y-22936200D03*
%TD*%
D14*
%TO.C,R12*%
X26185100Y-72507600D03*
X26185100Y-74507600D03*
%TD*%
D17*
%TO.C,C1*%
X30886400Y-43996700D03*
X30886400Y-46071700D03*
%TD*%
D23*
%TO.C,RV2*%
X7500000Y-24500000D03*
X4960000Y-24500000D03*
X2420000Y-24500000D03*
%TD*%
D19*
%TO.C,C17*%
X12594500Y-31318200D03*
X10519500Y-31318200D03*
%TD*%
D21*
%TO.C,J8*%
X3000000Y-38000000D03*
D22*
X3000000Y-34190000D03*
X3000000Y-30380000D03*
%TD*%
D17*
%TO.C,C8*%
X30735600Y-79084300D03*
X30735600Y-81159300D03*
%TD*%
D26*
%TO.C,CON1*%
X49123600Y-92252800D03*
D27*
X46583600Y-92252800D03*
X44043600Y-92252800D03*
X41503600Y-92252800D03*
%TD*%
D18*
%TO.C,R19*%
X28895800Y-14909800D03*
X30895800Y-14909800D03*
%TD*%
%TO.C,R16*%
X17237200Y-9296400D03*
X19237200Y-9296400D03*
%TD*%
D15*
%TO.C,C18*%
X10443300Y-36880800D03*
X12518300Y-36880800D03*
%TD*%
D14*
%TO.C,R25*%
X34747200Y-30343600D03*
X34747200Y-32343600D03*
%TD*%
D18*
%TO.C,R22*%
X15967200Y-31369000D03*
X17967200Y-31369000D03*
%TD*%
%TO.C,R1*%
X15840200Y-44145200D03*
X17840200Y-44145200D03*
%TD*%
D35*
%TO.C,IC1*%
X40149800Y-60985400D03*
X40149800Y-62255400D03*
X40149800Y-63525400D03*
X40149800Y-64795400D03*
X40149800Y-66065400D03*
X40149800Y-67335400D03*
X40149800Y-68605400D03*
X40149800Y-69875400D03*
X45549800Y-69875400D03*
X45549800Y-68605400D03*
X45549800Y-67335400D03*
X45549800Y-66065400D03*
X45549800Y-64795400D03*
X45549800Y-63525400D03*
X45549800Y-62255400D03*
X45549800Y-60985400D03*
%TD*%
D16*
%TO.C,R26*%
X25908000Y-32292800D03*
X25908000Y-30292800D03*
%TD*%
D26*
%TO.C,CON3*%
X36017200Y-92379800D03*
D27*
X33477200Y-92379800D03*
X30937200Y-92379800D03*
X28397200Y-92379800D03*
%TD*%
M02*
