M48
; DRILL file {KiCad 9.0.6} date 2025-11-25T17:06:26+1100
; FORMAT={-:-/ absolute / inch / decimal}
; #@! TF.CreationDate,2025-11-25T17:06:26+11:00
; #@! TF.GenerationSoftware,Kicad,Pcbnew,9.0.6
; #@! TF.FileFunction,Plated,1,2,PTH
FMAT,2
INCH
; #@! TA.AperFunction,Plated,PTH,ViaDrill
T1C0.0150
; #@! TA.AperFunction,Plated,PTH,ComponentDrill
T2C0.0315
; #@! TA.AperFunction,Plated,PTH,ComponentDrill
T3C0.0394
; #@! TA.AperFunction,Plated,PTH,ComponentDrill
T4C0.0472
; #@! TA.AperFunction,Plated,PTH,ComponentDrill
T5C0.1260
%
G90
G05
T1
X0.475Y-3.319
X0.563Y-1.365
X0.693Y-0.519
X0.71Y-1.352
X0.763Y-1.16
X0.803Y-0.588
X0.818Y-3.624
X0.854Y-3.398
X0.894Y-1.536
X0.894Y-1.941
X0.971Y-0.929
X1.018Y-1.378
X1.052Y-0.496
X1.055Y-0.201
X1.114Y-2.266
X1.116Y-2.499
X1.116Y-3.004
X1.117Y-2.752
X1.117Y-3.2
X1.119Y-1.841
X1.261Y-1.038
X1.309Y-3.397
X1.446Y-1.604
X1.454Y-0.929
X1.454Y-1.159
X1.513Y-3.303
X1.556Y-0.395
X1.685Y-2.209
X1.688Y-2.502
X1.69Y-2.7
X1.69Y-2.865
X1.691Y-2.964
X1.81Y-2.211
X1.859Y-2.294
X1.933Y-2.685
X1.934Y-2.769
X1.963Y-3.1309
X1.963Y-3.223
X2.04Y-2.355
X2.111Y-0.75
X2.131Y-3.408
T2
X0.0953Y-0.7087
X0.0953Y-0.9646
X0.1953Y-0.7087
X0.1953Y-0.9646
X0.2953Y-0.7087
X0.2953Y-0.9646
T3
X0.085Y-2.1061
X0.085Y-2.2152
X0.085Y-2.3242
X0.085Y-2.4333
X0.085Y-2.5423
X0.085Y-2.6514
X0.085Y-2.7604
X0.1969Y-2.0516
X0.1969Y-2.1606
X0.1969Y-2.2697
X0.1969Y-2.3787
X0.1969Y-2.4878
X0.1969Y-2.5969
X0.1969Y-2.7059
X0.1969Y-2.815
X0.453Y-1.624
X1.118Y-3.637
X1.218Y-3.637
X1.318Y-3.637
X1.418Y-3.637
X1.633Y-0.903
X1.634Y-3.632
X1.734Y-3.632
X1.782Y-1.804
X1.782Y-1.904
X1.782Y-2.004
X1.782Y-2.104
X1.818Y-0.904
X1.834Y-3.632
X1.882Y-1.804
X1.882Y-1.904
X1.882Y-2.004
X1.882Y-2.104
X1.934Y-3.632
X2.165Y-1.474
X2.165Y-1.574
X2.165Y-1.674
X2.165Y-1.774
X2.165Y-1.874
X2.165Y-1.974
X2.165Y-2.074
X2.165Y-2.174
X2.165Y-2.274
X2.165Y-2.374
X2.165Y-2.474
X2.165Y-2.574
X2.165Y-2.674
X2.165Y-2.774
X2.165Y-2.874
X2.265Y-1.474
X2.265Y-1.574
X2.265Y-1.674
X2.265Y-1.774
X2.265Y-1.874
X2.265Y-1.974
X2.265Y-2.074
X2.265Y-2.174
X2.265Y-2.274
X2.265Y-2.374
X2.265Y-2.474
X2.265Y-2.574
X2.265Y-2.674
X2.265Y-2.774
X2.265Y-2.874
T4
X0.117Y-3.432
X0.117Y-3.582
X0.1181Y-0.1724
X0.1181Y-0.3224
X0.1181Y-0.4724
X0.1181Y-1.1961
X0.1181Y-1.3461
X0.1181Y-1.4961
T5
X0.185Y-1.7778
X0.185Y-3.0888
M30
