%TF.GenerationSoftware,KiCad,Pcbnew,9.0.6*%
%TF.CreationDate,2025-11-25T17:06:26+11:00*%
%TF.ProjectId,v8_equip_analog_RVR,76385f65-7175-4697-905f-616e616c6f67,rev?*%
%TF.SameCoordinates,Original*%
%TF.FileFunction,Soldermask,Bot*%
%TF.FilePolarity,Negative*%
%FSLAX46Y46*%
G04 Gerber Fmt 4.6, Leading zero omitted, Abs format (unit mm)*
G04 Created by KiCad (PCBNEW 9.0.6) date 2025-11-25 17:06:26*
%MOMM*%
%LPD*%
G01*
G04 APERTURE LIST*
%ADD10C,4.000000*%
%ADD11R,1.600000X1.600000*%
%ADD12C,1.600000*%
%ADD13C,3.500000*%
%ADD14R,2.025000X2.025000*%
%ADD15C,2.025000*%
%ADD16C,1.440000*%
%ADD17R,1.700000X1.700000*%
%ADD18O,1.700000X1.700000*%
%ADD19C,2.100000*%
G04 APERTURE END LIST*
D10*
%TO.C,J3*%
X4700000Y-45155000D03*
X4700000Y-78455000D03*
D11*
X5000000Y-71500000D03*
D12*
X5000000Y-68730000D03*
X5000000Y-65960000D03*
X5000000Y-63190000D03*
X5000000Y-60420000D03*
X5000000Y-57650000D03*
X5000000Y-54880000D03*
X5000000Y-52110000D03*
X2160000Y-70115000D03*
X2160000Y-67345000D03*
X2160000Y-64575000D03*
X2160000Y-61805000D03*
X2160000Y-59035000D03*
X2160000Y-56265000D03*
X2160000Y-53495000D03*
%TD*%
D13*
%TO.C,H4*%
X56184800Y-91262200D03*
%TD*%
D14*
%TO.C,J6*%
X3000000Y-12000000D03*
D15*
X3000000Y-8190000D03*
X3000000Y-4380000D03*
%TD*%
D16*
%TO.C,RV1*%
X7500000Y-18000000D03*
X4960000Y-18000000D03*
X2420000Y-18000000D03*
%TD*%
D17*
%TO.C,J1*%
X54991000Y-37439600D03*
D18*
X57531000Y-37439600D03*
X54991000Y-39979600D03*
X57531000Y-39979600D03*
X54991000Y-42519600D03*
X57531000Y-42519600D03*
X54991000Y-45059600D03*
X57531000Y-45059600D03*
X54991000Y-47599600D03*
X57531000Y-47599600D03*
X54991000Y-50139600D03*
X57531000Y-50139600D03*
X54991000Y-52679600D03*
X57531000Y-52679600D03*
X54991000Y-55219600D03*
X57531000Y-55219600D03*
X54991000Y-57759600D03*
X57531000Y-57759600D03*
X54991000Y-60299600D03*
X57531000Y-60299600D03*
X54991000Y-62839600D03*
X57531000Y-62839600D03*
X54991000Y-65379600D03*
X57531000Y-65379600D03*
X54991000Y-67919600D03*
X57531000Y-67919600D03*
X54991000Y-70459600D03*
X57531000Y-70459600D03*
X54991000Y-72999600D03*
X57531000Y-72999600D03*
%TD*%
D17*
%TO.C,J2*%
X11506200Y-41249600D03*
%TD*%
D19*
%TO.C,J4*%
X2971800Y-90982800D03*
X2971800Y-87172800D03*
%TD*%
D17*
%TO.C,J5*%
X47802800Y-53441600D03*
D18*
X45262800Y-53441600D03*
X47802800Y-50901600D03*
X45262800Y-50901600D03*
X47802800Y-48361600D03*
X45262800Y-48361600D03*
X47802800Y-45821600D03*
X45262800Y-45821600D03*
%TD*%
D13*
%TO.C,H2*%
X56235600Y-3982200D03*
%TD*%
D17*
%TO.C,J7*%
X46177200Y-22961600D03*
%TD*%
%TO.C,J9*%
X41478200Y-22936200D03*
%TD*%
D16*
%TO.C,RV2*%
X7500000Y-24500000D03*
X4960000Y-24500000D03*
X2420000Y-24500000D03*
%TD*%
D13*
%TO.C,H1*%
X12000000Y-3982200D03*
%TD*%
%TO.C,H3*%
X12000000Y-91262200D03*
%TD*%
D14*
%TO.C,J8*%
X3000000Y-38000000D03*
D15*
X3000000Y-34190000D03*
X3000000Y-30380000D03*
%TD*%
D17*
%TO.C,CON1*%
X49123600Y-92252800D03*
D18*
X46583600Y-92252800D03*
X44043600Y-92252800D03*
X41503600Y-92252800D03*
%TD*%
D17*
%TO.C,CON3*%
X36017200Y-92379800D03*
D18*
X33477200Y-92379800D03*
X30937200Y-92379800D03*
X28397200Y-92379800D03*
%TD*%
M02*
