%TF.GenerationSoftware,KiCad,Pcbnew,9.0.6*%
%TF.CreationDate,2025-11-25T17:06:26+11:00*%
%TF.ProjectId,v8_equip_analog_RVR,76385f65-7175-4697-905f-616e616c6f67,rev?*%
%TF.SameCoordinates,Original*%
%TF.FileFunction,Copper,L2,Bot*%
%TF.FilePolarity,Positive*%
%FSLAX46Y46*%
G04 Gerber Fmt 4.6, Leading zero omitted, Abs format (unit mm)*
G04 Created by KiCad (PCBNEW 9.0.6) date 2025-11-25 17:06:26*
%MOMM*%
%LPD*%
G01*
G04 APERTURE LIST*
%TA.AperFunction,ComponentPad*%
%ADD10C,4.000000*%
%TD*%
%TA.AperFunction,ComponentPad*%
%ADD11R,1.600000X1.600000*%
%TD*%
%TA.AperFunction,ComponentPad*%
%ADD12C,1.600000*%
%TD*%
%TA.AperFunction,ComponentPad*%
%ADD13R,2.025000X2.025000*%
%TD*%
%TA.AperFunction,ComponentPad*%
%ADD14C,2.025000*%
%TD*%
%TA.AperFunction,ComponentPad*%
%ADD15C,1.440000*%
%TD*%
%TA.AperFunction,ComponentPad*%
%ADD16R,1.700000X1.700000*%
%TD*%
%TA.AperFunction,ComponentPad*%
%ADD17O,1.700000X1.700000*%
%TD*%
%TA.AperFunction,ComponentPad*%
%ADD18C,2.100000*%
%TD*%
%TA.AperFunction,ViaPad*%
%ADD19C,0.889000*%
%TD*%
%TA.AperFunction,Conductor*%
%ADD20C,1.016000*%
%TD*%
%TA.AperFunction,Conductor*%
%ADD21C,0.812800*%
%TD*%
%TA.AperFunction,Conductor*%
%ADD22C,0.406400*%
%TD*%
%TA.AperFunction,Conductor*%
%ADD23C,0.508000*%
%TD*%
G04 APERTURE END LIST*
D10*
%TO.P,J3,0,PAD*%
%TO.N,GND*%
X4700000Y-45155000D03*
X4700000Y-78455000D03*
D11*
%TO.P,J3,1,1*%
%TO.N,TX:Interlock*%
X5000000Y-71500000D03*
D12*
%TO.P,J3,2,2*%
%TO.N,TX:AGC_FWD*%
X5000000Y-68730000D03*
%TO.P,J3,3,3*%
%TO.N,GND*%
X5000000Y-65960000D03*
%TO.P,J3,4,4*%
%TO.N,SDA_X*%
X5000000Y-63190000D03*
%TO.P,J3,5,5*%
%TO.N,TX:VPA*%
X5000000Y-60420000D03*
%TO.P,J3,6,6*%
%TO.N,TX:FWD*%
X5000000Y-57650000D03*
%TO.P,J3,7,7*%
%TO.N,TX:P_Good_OC*%
X5000000Y-54880000D03*
%TO.P,J3,8,8*%
%TO.N,GND*%
X5000000Y-52110000D03*
%TO.P,J3,9,P9*%
X2160000Y-70115000D03*
%TO.P,J3,10,P10*%
%TO.N,TX:AGC_RFL*%
X2160000Y-67345000D03*
%TO.P,J3,11,P111*%
%TO.N,SCL_X*%
X2160000Y-64575000D03*
%TO.P,J3,12,P12*%
%TO.N,TX:IPA*%
X2160000Y-61805000D03*
%TO.P,J3,13,P13*%
%TO.N,TX:RFL*%
X2160000Y-59035000D03*
%TO.P,J3,14,P14*%
%TO.N,TX:ON*%
X2160000Y-56265000D03*
%TO.P,J3,15,P15*%
%TO.N,TX:OFF*%
X2160000Y-53495000D03*
%TD*%
D13*
%TO.P,J6,1,Pin_1*%
%TO.N,GND*%
X3000000Y-12000000D03*
D14*
%TO.P,J6,2,Pin_2*%
%TO.N,/A0-*%
X3000000Y-8190000D03*
%TO.P,J6,3,Pin_3*%
%TO.N,/A0+*%
X3000000Y-4380000D03*
%TD*%
D15*
%TO.P,RV1,1,1*%
%TO.N,GND*%
X7500000Y-18000000D03*
%TO.P,RV1,2,2*%
%TO.N,Net-(U1A-+)*%
X4960000Y-18000000D03*
%TO.P,RV1,3,3*%
%TO.N,Net-(C12-Pad1)*%
X2420000Y-18000000D03*
%TD*%
D16*
%TO.P,J1,1,Pin_1*%
%TO.N,+5V*%
X54991000Y-37439600D03*
D17*
%TO.P,J1,2,Pin_2*%
X57531000Y-37439600D03*
%TO.P,J1,3,Pin_3*%
X54991000Y-39979600D03*
%TO.P,J1,4,Pin_4*%
%TO.N,GND*%
X57531000Y-39979600D03*
%TO.P,J1,5,Pin_5*%
%TO.N,+3V3*%
X54991000Y-42519600D03*
%TO.P,J1,6,Pin_6*%
%TO.N,/GP15*%
X57531000Y-42519600D03*
%TO.P,J1,7,Pin_7*%
%TO.N,/GP16*%
X54991000Y-45059600D03*
%TO.P,J1,8,Pin_8*%
%TO.N,/GP14*%
X57531000Y-45059600D03*
%TO.P,J1,9,Pin_9*%
%TO.N,/GP17*%
X54991000Y-47599600D03*
%TO.P,J1,10,Pin_10*%
%TO.N,/GP13*%
X57531000Y-47599600D03*
%TO.P,J1,11,Pin_11*%
%TO.N,/GP18*%
X54991000Y-50139600D03*
%TO.P,J1,12,Pin_12*%
%TO.N,/GP12*%
X57531000Y-50139600D03*
%TO.P,J1,13,Pin_13*%
%TO.N,/GP19*%
X54991000Y-52679600D03*
%TO.P,J1,14,Pin_14*%
%TO.N,/GP11*%
X57531000Y-52679600D03*
%TO.P,J1,15,Pin_15*%
%TO.N,/GP20*%
X54991000Y-55219600D03*
%TO.P,J1,16,Pin_16*%
%TO.N,/GP10*%
X57531000Y-55219600D03*
%TO.P,J1,17,Pin_17*%
%TO.N,/GP21*%
X54991000Y-57759600D03*
%TO.P,J1,18,Pin_18*%
%TO.N,/GP9*%
X57531000Y-57759600D03*
%TO.P,J1,19,Pin_19*%
%TO.N,/MOSI*%
X54991000Y-60299600D03*
%TO.P,J1,20,Pin_20*%
%TO.N,/GP8*%
X57531000Y-60299600D03*
%TO.P,J1,21,Pin_21*%
%TO.N,/SCK*%
X54991000Y-62839600D03*
%TO.P,J1,22,Pin_22*%
%TO.N,/GP7*%
X57531000Y-62839600D03*
%TO.P,J1,23,Pin_23*%
%TO.N,/GP1*%
X54991000Y-65379600D03*
%TO.P,J1,24,Pin_24*%
%TO.N,/GP6*%
X57531000Y-65379600D03*
%TO.P,J1,25,Pin_25*%
%TO.N,/MISO*%
X54991000Y-67919600D03*
%TO.P,J1,26,Pin_26*%
%TO.N,/GP5*%
X57531000Y-67919600D03*
%TO.P,J1,27,Pin_27*%
%TO.N,GND*%
X54991000Y-70459600D03*
%TO.P,J1,28,Pin_28*%
%TO.N,/GP4*%
X57531000Y-70459600D03*
%TO.P,J1,29,Pin_29*%
%TO.N,GND*%
X54991000Y-72999600D03*
%TO.P,J1,30,Pin_30*%
X57531000Y-72999600D03*
%TD*%
D16*
%TO.P,J2,1,Pin_1*%
%TO.N,TX:IPA*%
X11506200Y-41249600D03*
%TD*%
D18*
%TO.P,J4,1,Pin_1*%
%TO.N,GND*%
X2971800Y-90982800D03*
%TO.P,J4,2,Pin_2*%
%TO.N,/A7*%
X2971800Y-87172800D03*
%TD*%
D16*
%TO.P,J5,1,Pin_1*%
%TO.N,/GP21*%
X47802800Y-53441600D03*
D17*
%TO.P,J5,2,Pin_2*%
%TO.N,/CS!*%
X45262800Y-53441600D03*
%TO.P,J5,3,Pin_3*%
%TO.N,/GP20*%
X47802800Y-50901600D03*
%TO.P,J5,4,Pin_4*%
%TO.N,/CS!*%
X45262800Y-50901600D03*
%TO.P,J5,5,Pin_5*%
%TO.N,/GP19*%
X47802800Y-48361600D03*
%TO.P,J5,6,Pin_6*%
%TO.N,/CS!*%
X45262800Y-48361600D03*
%TO.P,J5,7,Pin_7*%
%TO.N,/GP18*%
X47802800Y-45821600D03*
%TO.P,J5,8,Pin_8*%
%TO.N,/CS!*%
X45262800Y-45821600D03*
%TD*%
D16*
%TO.P,J7,1,Pin_1*%
%TO.N,/IN0*%
X46177200Y-22961600D03*
%TD*%
%TO.P,J9,1,Pin_1*%
%TO.N,/IN1*%
X41478200Y-22936200D03*
%TD*%
D15*
%TO.P,RV2,1,1*%
%TO.N,GND*%
X7500000Y-24500000D03*
%TO.P,RV2,2,2*%
%TO.N,Net-(U1B-+)*%
X4960000Y-24500000D03*
%TO.P,RV2,3,3*%
%TO.N,Net-(C19-Pad1)*%
X2420000Y-24500000D03*
%TD*%
D13*
%TO.P,J8,1,Pin_1*%
%TO.N,GND*%
X3000000Y-38000000D03*
D14*
%TO.P,J8,2,Pin_2*%
%TO.N,/A1-*%
X3000000Y-34190000D03*
%TO.P,J8,3,Pin_3*%
%TO.N,/A1+*%
X3000000Y-30380000D03*
%TD*%
D16*
%TO.P,CON1,1,Pin_1*%
%TO.N,GND*%
X49123600Y-92252800D03*
D17*
%TO.P,CON1,2,Pin_2*%
%TO.N,+3V3*%
X46583600Y-92252800D03*
%TO.P,CON1,3,Pin_3*%
%TO.N,/GP4*%
X44043600Y-92252800D03*
%TO.P,CON1,4,Pin_4*%
%TO.N,/GP5*%
X41503600Y-92252800D03*
%TD*%
D16*
%TO.P,CON3,1,Pin_1*%
%TO.N,GND*%
X36017200Y-92379800D03*
D17*
%TO.P,CON3,2,Pin_2*%
%TO.N,+3V3*%
X33477200Y-92379800D03*
%TO.P,CON3,3,Pin_3*%
%TO.N,/GP6*%
X30937200Y-92379800D03*
%TO.P,CON3,4,Pin_4*%
%TO.N,/GP7*%
X28397200Y-92379800D03*
%TD*%
D19*
%TO.N,GND*%
X26720800Y-12598400D03*
X25857200Y-35001200D03*
X28371800Y-69900800D03*
X28371800Y-81280000D03*
X42926000Y-72771000D03*
X53619400Y-19050000D03*
X28295600Y-57556400D03*
X28422600Y-46761400D03*
X17602200Y-13182600D03*
X49123600Y-70332600D03*
X42951400Y-75285600D03*
X39522400Y-10033000D03*
X14300200Y-34671000D03*
X51816000Y-59817000D03*
X54127400Y-86563200D03*
X45974000Y-56159400D03*
X36931600Y-23596600D03*
X28346400Y-76301600D03*
X42799000Y-56108600D03*
X12065000Y-84302600D03*
X20396200Y-14935200D03*
X36728400Y-40741600D03*
X19380200Y-29464000D03*
X24663400Y-23596600D03*
X28346400Y-63474600D03*
X38430200Y-83896200D03*
X36931600Y-29438600D03*
X42875200Y-63550800D03*
%TO.N,+3V3*%
X26797000Y-5105400D03*
X20777200Y-92049600D03*
X47218600Y-58267600D03*
X22707600Y-39014400D03*
X22707600Y-49301400D03*
%TO.N,+5V*%
X32029400Y-26365200D03*
%TO.N,/GP5*%
X49860200Y-79526000D03*
%TO.N,/GP4*%
X49860200Y-81864200D03*
%TO.N,/MOSI*%
X49098200Y-68199000D03*
%TO.N,/GP6*%
X33248600Y-86283800D03*
X21691600Y-86309200D03*
%TO.N,/CS!*%
X42926000Y-68580000D03*
%TO.N,Net-(C19-Pad1)*%
X18034000Y-34340800D03*
%TD*%
D20*
%TO.N,+3V3*%
X22707600Y-49301400D02*
X22707600Y-9245600D01*
X40487600Y-42519600D02*
X54997400Y-42519600D01*
X51460400Y-42570400D02*
X51485800Y-42545000D01*
D21*
X33477200Y-88722200D02*
X33477200Y-92379800D01*
D20*
X26797000Y-5156200D02*
X26797000Y-5105400D01*
X47244000Y-58267600D02*
X51460400Y-54051200D01*
X22707600Y-49301400D02*
X33705800Y-49301400D01*
X47218600Y-58267600D02*
X47244000Y-58267600D01*
D21*
X46609000Y-88696800D02*
X46583600Y-88722200D01*
D20*
X22707600Y-9245600D02*
X26797000Y-5156200D01*
D21*
X24104600Y-88722200D02*
X20777200Y-92049600D01*
D20*
X46609000Y-58877200D02*
X47218600Y-58267600D01*
X46583600Y-88722200D02*
X46583600Y-92252800D01*
X33705800Y-49301400D02*
X40487600Y-42519600D01*
X46609000Y-88696800D02*
X46609000Y-58877200D01*
D21*
X46583600Y-88722200D02*
X24104600Y-88722200D01*
D20*
X51460400Y-54051200D02*
X51460400Y-42570400D01*
%TO.N,+5V*%
X55000000Y-37430600D02*
X54991000Y-37439600D01*
X49530000Y-26365200D02*
X55000000Y-31835200D01*
X32029400Y-26365200D02*
X49530000Y-26365200D01*
X55000000Y-31835200D02*
X55000000Y-37430600D01*
D22*
%TO.N,/GP5*%
X56272600Y-69189600D02*
X57540000Y-67922200D01*
X49834800Y-79500600D02*
X49834800Y-73050400D01*
X53695600Y-69189600D02*
X56272600Y-69189600D01*
X49834800Y-73050400D02*
X53695600Y-69189600D01*
X49860200Y-79526000D02*
X49834800Y-79500600D01*
%TO.N,/GP4*%
X56272600Y-71729600D02*
X57540000Y-70462200D01*
X49860200Y-81864200D02*
X56272600Y-75451800D01*
X56272600Y-75451800D02*
X56272600Y-71729600D01*
D23*
%TO.N,/MOSI*%
X49098200Y-68199000D02*
X49123600Y-68173600D01*
X53921600Y-60302200D02*
X55000000Y-60302200D01*
X49123600Y-68173600D02*
X49123600Y-65100200D01*
X49123600Y-65100200D02*
X53921600Y-60302200D01*
%TO.N,/GP6*%
X21691600Y-86309200D02*
X21717000Y-86283800D01*
X21717000Y-86283800D02*
X33248600Y-86283800D01*
%TO.N,/CS!*%
X44373800Y-54330600D02*
X45262800Y-53441600D01*
X42926000Y-68580000D02*
X44373800Y-67132200D01*
X44373800Y-67132200D02*
X44373800Y-54330600D01*
%TO.N,TX:IPA*%
X2160000Y-61805000D02*
X7841800Y-61805000D01*
X7841800Y-61805000D02*
X11506200Y-58140600D01*
X11506200Y-58140600D02*
X11506200Y-41249600D01*
%TO.N,Net-(C19-Pad1)*%
X2420000Y-25711800D02*
X4114800Y-27406600D01*
X4114800Y-27406600D02*
X12522200Y-27406600D01*
X18034000Y-32918400D02*
X18034000Y-34315400D01*
X12522200Y-27406600D02*
X18034000Y-32918400D01*
X2420000Y-24500000D02*
X2420000Y-25711800D01*
%TD*%
%TA.AperFunction,Conductor*%
%TO.N,GND*%
G36*
X9196398Y-638265D02*
G01*
X9226462Y-690336D01*
X9216021Y-749550D01*
X9196398Y-772935D01*
X9118871Y-837988D01*
X9118866Y-837992D01*
X8855792Y-1101066D01*
X8855788Y-1101071D01*
X8616654Y-1386058D01*
X8616649Y-1386065D01*
X8403261Y-1690813D01*
X8217237Y-2013016D01*
X8217232Y-2013027D01*
X8060010Y-2350190D01*
X8060007Y-2350198D01*
X7932762Y-2699801D01*
X7836468Y-3059171D01*
X7771866Y-3425547D01*
X7771865Y-3425553D01*
X7771865Y-3425556D01*
X7739440Y-3796180D01*
X7739440Y-4168220D01*
X7766501Y-4477537D01*
X7771866Y-4538852D01*
X7835324Y-4898738D01*
X7836469Y-4905232D01*
X7932761Y-5264596D01*
X8057693Y-5607842D01*
X8060007Y-5614201D01*
X8060010Y-5614209D01*
X8217232Y-5951372D01*
X8217237Y-5951383D01*
X8403261Y-6273586D01*
X8573971Y-6517384D01*
X8616650Y-6578336D01*
X8855793Y-6863335D01*
X9118865Y-7126407D01*
X9403864Y-7365550D01*
X9510448Y-7440181D01*
X9708613Y-7578938D01*
X9708622Y-7578943D01*
X10030818Y-7764963D01*
X10368001Y-7922194D01*
X10717604Y-8049439D01*
X11076968Y-8145731D01*
X11443356Y-8210335D01*
X11813980Y-8242760D01*
X11813984Y-8242760D01*
X12186016Y-8242760D01*
X12186020Y-8242760D01*
X12556644Y-8210335D01*
X12923032Y-8145731D01*
X13282396Y-8049439D01*
X13631999Y-7922194D01*
X13969182Y-7764963D01*
X14291378Y-7578943D01*
X14291381Y-7578940D01*
X14291386Y-7578938D01*
X14382966Y-7514812D01*
X14596136Y-7365550D01*
X14881135Y-7126407D01*
X15144207Y-6863335D01*
X15383350Y-6578336D01*
X15532612Y-6365166D01*
X15596738Y-6273586D01*
X15782762Y-5951383D01*
X15782763Y-5951382D01*
X15939994Y-5614199D01*
X16067239Y-5264596D01*
X16163531Y-4905232D01*
X16228135Y-4538844D01*
X16260560Y-4168220D01*
X16260560Y-3796180D01*
X16228135Y-3425556D01*
X16163531Y-3059168D01*
X16067239Y-2699804D01*
X15939994Y-2350201D01*
X15782763Y-2013018D01*
X15596743Y-1690822D01*
X15596738Y-1690813D01*
X15457981Y-1492648D01*
X15383350Y-1386064D01*
X15144207Y-1101065D01*
X14881135Y-837993D01*
X14803601Y-772934D01*
X14773538Y-720863D01*
X14783980Y-661650D01*
X14830040Y-623001D01*
X14860103Y-617700D01*
X53375497Y-617700D01*
X53431998Y-638265D01*
X53462062Y-690336D01*
X53451621Y-749550D01*
X53431998Y-772935D01*
X53354471Y-837988D01*
X53354466Y-837992D01*
X53091392Y-1101066D01*
X53091388Y-1101071D01*
X52852254Y-1386058D01*
X52852249Y-1386065D01*
X52638861Y-1690813D01*
X52452837Y-2013016D01*
X52452832Y-2013027D01*
X52295610Y-2350190D01*
X52295607Y-2350198D01*
X52168362Y-2699801D01*
X52072068Y-3059171D01*
X52007466Y-3425547D01*
X52007465Y-3425553D01*
X52007465Y-3425556D01*
X51975040Y-3796180D01*
X51975040Y-4168220D01*
X52002101Y-4477537D01*
X52007466Y-4538852D01*
X52070924Y-4898738D01*
X52072069Y-4905232D01*
X52168361Y-5264596D01*
X52293293Y-5607842D01*
X52295607Y-5614201D01*
X52295610Y-5614209D01*
X52452832Y-5951372D01*
X52452837Y-5951383D01*
X52638861Y-6273586D01*
X52809571Y-6517384D01*
X52852250Y-6578336D01*
X53091393Y-6863335D01*
X53354465Y-7126407D01*
X53639464Y-7365550D01*
X53746048Y-7440181D01*
X53944213Y-7578938D01*
X53944222Y-7578943D01*
X54266418Y-7764963D01*
X54603601Y-7922194D01*
X54953204Y-8049439D01*
X55312568Y-8145731D01*
X55678956Y-8210335D01*
X56049580Y-8242760D01*
X56049584Y-8242760D01*
X56421616Y-8242760D01*
X56421620Y-8242760D01*
X56792244Y-8210335D01*
X57158632Y-8145731D01*
X57517996Y-8049439D01*
X57867599Y-7922194D01*
X58204782Y-7764963D01*
X58526978Y-7578943D01*
X58526981Y-7578940D01*
X58526986Y-7578938D01*
X58618566Y-7514812D01*
X58831736Y-7365550D01*
X59116735Y-7126407D01*
X59214446Y-7028695D01*
X59268939Y-7003285D01*
X59327017Y-7018848D01*
X59361505Y-7068101D01*
X59364500Y-7090851D01*
X59364500Y-88204348D01*
X59343935Y-88260849D01*
X59291864Y-88290913D01*
X59232650Y-88280472D01*
X59214446Y-88266503D01*
X59065945Y-88118003D01*
X59065935Y-88117993D01*
X58780936Y-87878850D01*
X58708607Y-87828205D01*
X58476186Y-87665461D01*
X58153983Y-87479437D01*
X58153972Y-87479432D01*
X57816809Y-87322210D01*
X57816801Y-87322207D01*
X57816799Y-87322206D01*
X57467196Y-87194961D01*
X57107832Y-87098669D01*
X57107831Y-87098668D01*
X57107828Y-87098668D01*
X56741452Y-87034066D01*
X56741447Y-87034065D01*
X56741444Y-87034065D01*
X56370820Y-87001640D01*
X55998780Y-87001640D01*
X55998779Y-87001640D01*
X55890729Y-87011093D01*
X55628156Y-87034065D01*
X55628153Y-87034065D01*
X55628147Y-87034066D01*
X55261771Y-87098668D01*
X55082086Y-87146815D01*
X54902404Y-87194961D01*
X54902401Y-87194961D01*
X54902401Y-87194962D01*
X54552798Y-87322207D01*
X54552790Y-87322210D01*
X54215627Y-87479432D01*
X54215616Y-87479437D01*
X53893413Y-87665461D01*
X53588665Y-87878849D01*
X53588658Y-87878854D01*
X53303671Y-88117988D01*
X53303666Y-88117992D01*
X53040592Y-88381066D01*
X53040588Y-88381071D01*
X52801454Y-88666058D01*
X52801449Y-88666065D01*
X52588061Y-88970813D01*
X52402037Y-89293016D01*
X52402032Y-89293027D01*
X52244810Y-89630190D01*
X52244807Y-89630198D01*
X52117562Y-89979801D01*
X52021268Y-90339171D01*
X51956666Y-90705547D01*
X51956665Y-90705553D01*
X51956665Y-90705556D01*
X51924240Y-91076180D01*
X51924240Y-91448220D01*
X51942508Y-91657032D01*
X51956666Y-91818852D01*
X52021268Y-92185228D01*
X52021269Y-92185232D01*
X52117561Y-92544596D01*
X52203205Y-92779899D01*
X52244807Y-92894201D01*
X52244810Y-92894209D01*
X52402032Y-93231372D01*
X52402037Y-93231383D01*
X52588061Y-93553586D01*
X52758771Y-93797384D01*
X52801450Y-93858336D01*
X53040593Y-94143335D01*
X53093904Y-94196646D01*
X53119315Y-94251139D01*
X53103752Y-94309217D01*
X53054499Y-94343705D01*
X53031749Y-94346700D01*
X15153051Y-94346700D01*
X15096550Y-94326135D01*
X15066486Y-94274064D01*
X15076927Y-94214850D01*
X15090892Y-94196649D01*
X15144207Y-94143335D01*
X15383350Y-93858336D01*
X15532612Y-93645166D01*
X15596738Y-93553586D01*
X15596743Y-93553578D01*
X15782763Y-93231382D01*
X15939994Y-92894199D01*
X16067239Y-92544596D01*
X16163531Y-92185232D01*
X16198648Y-91986073D01*
X20132200Y-91986073D01*
X20132200Y-92113127D01*
X20138354Y-92144066D01*
X20156985Y-92237736D01*
X20156987Y-92237740D01*
X20205606Y-92355119D01*
X20205607Y-92355120D01*
X20205608Y-92355122D01*
X20276196Y-92460764D01*
X20366036Y-92550604D01*
X20471678Y-92621192D01*
X20589060Y-92669813D01*
X20589061Y-92669813D01*
X20589063Y-92669814D01*
X20651792Y-92682291D01*
X20713673Y-92694600D01*
X20713675Y-92694600D01*
X20840725Y-92694600D01*
X20840727Y-92694600D01*
X20923048Y-92678225D01*
X20965336Y-92669814D01*
X20965336Y-92669813D01*
X20965340Y-92669813D01*
X21082722Y-92621192D01*
X21188364Y-92550604D01*
X21278204Y-92460764D01*
X21348792Y-92355122D01*
X21355413Y-92339134D01*
X21356838Y-92337002D01*
X21356959Y-92335623D01*
X21374465Y-92310619D01*
X21408748Y-92276336D01*
X27346700Y-92276336D01*
X27346700Y-92483263D01*
X27387067Y-92686211D01*
X27387069Y-92686216D01*
X27387070Y-92686220D01*
X27466259Y-92877398D01*
X27466260Y-92877400D01*
X27466261Y-92877401D01*
X27581219Y-93049450D01*
X27581220Y-93049451D01*
X27581223Y-93049455D01*
X27727545Y-93195777D01*
X27727548Y-93195779D01*
X27727549Y-93195780D01*
X27804667Y-93247308D01*
X27899602Y-93310741D01*
X28090780Y-93389930D01*
X28090785Y-93389931D01*
X28090788Y-93389932D01*
X28193632Y-93410388D01*
X28293735Y-93430300D01*
X28293737Y-93430300D01*
X28500663Y-93430300D01*
X28500665Y-93430300D01*
X28666654Y-93397283D01*
X28703611Y-93389932D01*
X28703612Y-93389931D01*
X28703620Y-93389930D01*
X28894798Y-93310741D01*
X29066855Y-93195777D01*
X29213177Y-93049455D01*
X29328141Y-92877398D01*
X29407330Y-92686220D01*
X29447700Y-92483265D01*
X29447700Y-92276336D01*
X29886700Y-92276336D01*
X29886700Y-92483263D01*
X29927067Y-92686211D01*
X29927069Y-92686216D01*
X29927070Y-92686220D01*
X30006259Y-92877398D01*
X30006260Y-92877400D01*
X30006261Y-92877401D01*
X30121219Y-93049450D01*
X30121220Y-93049451D01*
X30121223Y-93049455D01*
X30267545Y-93195777D01*
X30267548Y-93195779D01*
X30267549Y-93195780D01*
X30344667Y-93247308D01*
X30439602Y-93310741D01*
X30630780Y-93389930D01*
X30630785Y-93389931D01*
X30630788Y-93389932D01*
X30733632Y-93410388D01*
X30833735Y-93430300D01*
X30833737Y-93430300D01*
X31040663Y-93430300D01*
X31040665Y-93430300D01*
X31206654Y-93397283D01*
X31243611Y-93389932D01*
X31243612Y-93389931D01*
X31243620Y-93389930D01*
X31434798Y-93310741D01*
X31606855Y-93195777D01*
X31753177Y-93049455D01*
X31868141Y-92877398D01*
X31947330Y-92686220D01*
X31987700Y-92483265D01*
X31987700Y-92276335D01*
X31968611Y-92180369D01*
X31947332Y-92073388D01*
X31947331Y-92073385D01*
X31947330Y-92073380D01*
X31868141Y-91882202D01*
X31781678Y-91752800D01*
X31753180Y-91710149D01*
X31753179Y-91710148D01*
X31753177Y-91710145D01*
X31606855Y-91563823D01*
X31606851Y-91563820D01*
X31606850Y-91563819D01*
X31434801Y-91448861D01*
X31434800Y-91448860D01*
X31434798Y-91448859D01*
X31243620Y-91369670D01*
X31243616Y-91369669D01*
X31243611Y-91369667D01*
X31090884Y-91339289D01*
X31040665Y-91329300D01*
X30833735Y-91329300D01*
X30798272Y-91336354D01*
X30630788Y-91369667D01*
X30630783Y-91369669D01*
X30630781Y-91369669D01*
X30630780Y-91369670D01*
X30439602Y-91448859D01*
X30439600Y-91448859D01*
X30439598Y-91448861D01*
X30267549Y-91563819D01*
X30121219Y-91710149D01*
X30006261Y-91882198D01*
X30006259Y-91882200D01*
X30006259Y-91882202D01*
X29932692Y-92059807D01*
X29927069Y-92073383D01*
X29927067Y-92073388D01*
X29886700Y-92276336D01*
X29447700Y-92276336D01*
X29447700Y-92276335D01*
X29428611Y-92180369D01*
X29407332Y-92073388D01*
X29407331Y-92073385D01*
X29407330Y-92073380D01*
X29328141Y-91882202D01*
X29241678Y-91752800D01*
X29213180Y-91710149D01*
X29213179Y-91710148D01*
X29213177Y-91710145D01*
X29066855Y-91563823D01*
X29066851Y-91563820D01*
X29066850Y-91563819D01*
X28894801Y-91448861D01*
X28894800Y-91448860D01*
X28894798Y-91448859D01*
X28703620Y-91369670D01*
X28703616Y-91369669D01*
X28703611Y-91369667D01*
X28550884Y-91339289D01*
X28500665Y-91329300D01*
X28293735Y-91329300D01*
X28258272Y-91336354D01*
X28090788Y-91369667D01*
X28090783Y-91369669D01*
X28090781Y-91369669D01*
X28090780Y-91369670D01*
X27899602Y-91448859D01*
X27899600Y-91448859D01*
X27899598Y-91448861D01*
X27727549Y-91563819D01*
X27581219Y-91710149D01*
X27466261Y-91882198D01*
X27466259Y-91882200D01*
X27466259Y-91882202D01*
X27392692Y-92059807D01*
X27387069Y-92073383D01*
X27387067Y-92073388D01*
X27346700Y-92276336D01*
X21408748Y-92276336D01*
X24330241Y-89354845D01*
X24384735Y-89329434D01*
X24392396Y-89329100D01*
X32782400Y-89329100D01*
X32838901Y-89349665D01*
X32868965Y-89401736D01*
X32870300Y-89417000D01*
X32870300Y-91474907D01*
X32849735Y-91531408D01*
X32831237Y-91547992D01*
X32807546Y-91563822D01*
X32661219Y-91710149D01*
X32546261Y-91882198D01*
X32546259Y-91882200D01*
X32546259Y-91882202D01*
X32472692Y-92059807D01*
X32467069Y-92073383D01*
X32467067Y-92073388D01*
X32426700Y-92276336D01*
X32426700Y-92483263D01*
X32467067Y-92686211D01*
X32467069Y-92686216D01*
X32467070Y-92686220D01*
X32546259Y-92877398D01*
X32546260Y-92877400D01*
X32546261Y-92877401D01*
X32661219Y-93049450D01*
X32661220Y-93049451D01*
X32661223Y-93049455D01*
X32807545Y-93195777D01*
X32807548Y-93195779D01*
X32807549Y-93195780D01*
X32884667Y-93247308D01*
X32979602Y-93310741D01*
X33170780Y-93389930D01*
X33170785Y-93389931D01*
X33170788Y-93389932D01*
X33273632Y-93410388D01*
X33373735Y-93430300D01*
X33373737Y-93430300D01*
X33580663Y-93430300D01*
X33580665Y-93430300D01*
X33746654Y-93397283D01*
X33783611Y-93389932D01*
X33783612Y-93389931D01*
X33783620Y-93389930D01*
X33974798Y-93310741D01*
X34146855Y-93195777D01*
X34293177Y-93049455D01*
X34408141Y-92877398D01*
X34487330Y-92686220D01*
X34487332Y-92686211D01*
X34509206Y-92576243D01*
X34527700Y-92483263D01*
X34527700Y-92276336D01*
X34487332Y-92073388D01*
X34487331Y-92073385D01*
X34487330Y-92073380D01*
X34408141Y-91882202D01*
X34321678Y-91752800D01*
X34293180Y-91710149D01*
X34293179Y-91710148D01*
X34293177Y-91710145D01*
X34146855Y-91563823D01*
X34120874Y-91546462D01*
X34118663Y-91544775D01*
X34103852Y-91521653D01*
X34096985Y-91512287D01*
X34989400Y-91512287D01*
X34989400Y-92129799D01*
X34989401Y-92129800D01*
X35584188Y-92129800D01*
X35551275Y-92186807D01*
X35517200Y-92313974D01*
X35517200Y-92445626D01*
X35551275Y-92572793D01*
X35584188Y-92629800D01*
X34989402Y-92629800D01*
X34989401Y-92629801D01*
X34989401Y-93247308D01*
X34999716Y-93299175D01*
X35039011Y-93357982D01*
X35039017Y-93357988D01*
X35097824Y-93397283D01*
X35149687Y-93407599D01*
X35767198Y-93407599D01*
X35767200Y-93407598D01*
X35767200Y-92812812D01*
X35824207Y-92845725D01*
X35951374Y-92879800D01*
X36083026Y-92879800D01*
X36210193Y-92845725D01*
X36267200Y-92812812D01*
X36267200Y-93407598D01*
X36267201Y-93407599D01*
X36884709Y-93407599D01*
X36936575Y-93397283D01*
X36995382Y-93357988D01*
X36995388Y-93357982D01*
X37034683Y-93299175D01*
X37045000Y-93247312D01*
X37045000Y-92629801D01*
X37044999Y-92629800D01*
X36450212Y-92629800D01*
X36483125Y-92572793D01*
X36517200Y-92445626D01*
X36517200Y-92313974D01*
X36483125Y-92186807D01*
X36461491Y-92149336D01*
X40453100Y-92149336D01*
X40453100Y-92356263D01*
X40493467Y-92559211D01*
X40493469Y-92559216D01*
X40493470Y-92559220D01*
X40572659Y-92750398D01*
X40572660Y-92750400D01*
X40572661Y-92750401D01*
X40687619Y-92922450D01*
X40687620Y-92922451D01*
X40687623Y-92922455D01*
X40833945Y-93068777D01*
X41006002Y-93183741D01*
X41197180Y-93262930D01*
X41197185Y-93262931D01*
X41197188Y-93262932D01*
X41300032Y-93283388D01*
X41400135Y-93303300D01*
X41400137Y-93303300D01*
X41607063Y-93303300D01*
X41607065Y-93303300D01*
X41773054Y-93270283D01*
X41810011Y-93262932D01*
X41810012Y-93262931D01*
X41810020Y-93262930D01*
X42001198Y-93183741D01*
X42173255Y-93068777D01*
X42319577Y-92922455D01*
X42434541Y-92750398D01*
X42513730Y-92559220D01*
X42516639Y-92544598D01*
X42554100Y-92356263D01*
X42554100Y-92149336D01*
X42993100Y-92149336D01*
X42993100Y-92356263D01*
X43033467Y-92559211D01*
X43033469Y-92559216D01*
X43033470Y-92559220D01*
X43112659Y-92750398D01*
X43112660Y-92750400D01*
X43112661Y-92750401D01*
X43227619Y-92922450D01*
X43227620Y-92922451D01*
X43227623Y-92922455D01*
X43373945Y-93068777D01*
X43546002Y-93183741D01*
X43737180Y-93262930D01*
X43737185Y-93262931D01*
X43737188Y-93262932D01*
X43840032Y-93283388D01*
X43940135Y-93303300D01*
X43940137Y-93303300D01*
X44147063Y-93303300D01*
X44147065Y-93303300D01*
X44313054Y-93270283D01*
X44350011Y-93262932D01*
X44350012Y-93262931D01*
X44350020Y-93262930D01*
X44541198Y-93183741D01*
X44713255Y-93068777D01*
X44859577Y-92922455D01*
X44974541Y-92750398D01*
X45053730Y-92559220D01*
X45056639Y-92544598D01*
X45094100Y-92356263D01*
X45094100Y-92149336D01*
X45053732Y-91946388D01*
X45053731Y-91946385D01*
X45053730Y-91946380D01*
X44974541Y-91755202D01*
X44888422Y-91626315D01*
X44859580Y-91583149D01*
X44859579Y-91583148D01*
X44859577Y-91583145D01*
X44713255Y-91436823D01*
X44713251Y-91436820D01*
X44713250Y-91436819D01*
X44541201Y-91321861D01*
X44541200Y-91321860D01*
X44541198Y-91321859D01*
X44350020Y-91242670D01*
X44350016Y-91242669D01*
X44350011Y-91242667D01*
X44197284Y-91212289D01*
X44147065Y-91202300D01*
X43940135Y-91202300D01*
X43895444Y-91211189D01*
X43737188Y-91242667D01*
X43737183Y-91242669D01*
X43737181Y-91242669D01*
X43737180Y-91242670D01*
X43546002Y-91321859D01*
X43546000Y-91321859D01*
X43545998Y-91321861D01*
X43373949Y-91436819D01*
X43227619Y-91583149D01*
X43112661Y-91755198D01*
X43112659Y-91755200D01*
X43112659Y-91755202D01*
X43068644Y-91861463D01*
X43033469Y-91946383D01*
X43033467Y-91946388D01*
X42993100Y-92149336D01*
X42554100Y-92149336D01*
X42513732Y-91946388D01*
X42513731Y-91946385D01*
X42513730Y-91946380D01*
X42434541Y-91755202D01*
X42348422Y-91626315D01*
X42319580Y-91583149D01*
X42319579Y-91583148D01*
X42319577Y-91583145D01*
X42173255Y-91436823D01*
X42173251Y-91436820D01*
X42173250Y-91436819D01*
X42001201Y-91321861D01*
X42001200Y-91321860D01*
X42001198Y-91321859D01*
X41810020Y-91242670D01*
X41810016Y-91242669D01*
X41810011Y-91242667D01*
X41657284Y-91212289D01*
X41607065Y-91202300D01*
X41400135Y-91202300D01*
X41355444Y-91211189D01*
X41197188Y-91242667D01*
X41197183Y-91242669D01*
X41197181Y-91242669D01*
X41197180Y-91242670D01*
X41006002Y-91321859D01*
X41006000Y-91321859D01*
X41005998Y-91321861D01*
X40833949Y-91436819D01*
X40687619Y-91583149D01*
X40572661Y-91755198D01*
X40572659Y-91755200D01*
X40572659Y-91755202D01*
X40528644Y-91861463D01*
X40493469Y-91946383D01*
X40493467Y-91946388D01*
X40453100Y-92149336D01*
X36461491Y-92149336D01*
X36450212Y-92129800D01*
X37044998Y-92129800D01*
X37044999Y-92129799D01*
X37044999Y-91512291D01*
X37034683Y-91460424D01*
X36995388Y-91401617D01*
X36995382Y-91401611D01*
X36936575Y-91362316D01*
X36884713Y-91352000D01*
X36267201Y-91352000D01*
X36267200Y-91352001D01*
X36267200Y-91946788D01*
X36210193Y-91913875D01*
X36083026Y-91879800D01*
X35951374Y-91879800D01*
X35824207Y-91913875D01*
X35767200Y-91946788D01*
X35767200Y-91352001D01*
X35767199Y-91352000D01*
X35149686Y-91352000D01*
X35149684Y-91352001D01*
X35097828Y-91362314D01*
X35097824Y-91362316D01*
X35039017Y-91401611D01*
X35039011Y-91401617D01*
X34999716Y-91460424D01*
X34989400Y-91512287D01*
X34096985Y-91512287D01*
X34087611Y-91499502D01*
X34087022Y-91495380D01*
X34086231Y-91494145D01*
X34086523Y-91491881D01*
X34084100Y-91474907D01*
X34084100Y-89417000D01*
X34104665Y-89360499D01*
X34156736Y-89330435D01*
X34172000Y-89329100D01*
X45787200Y-89329100D01*
X45843701Y-89349665D01*
X45873765Y-89401736D01*
X45875100Y-89417000D01*
X45875100Y-91439258D01*
X45854535Y-91495759D01*
X45849355Y-91501412D01*
X45767624Y-91583143D01*
X45767619Y-91583149D01*
X45652661Y-91755198D01*
X45652659Y-91755200D01*
X45652659Y-91755202D01*
X45608644Y-91861463D01*
X45573469Y-91946383D01*
X45573467Y-91946388D01*
X45533100Y-92149336D01*
X45533100Y-92356263D01*
X45573467Y-92559211D01*
X45573469Y-92559216D01*
X45573470Y-92559220D01*
X45652659Y-92750398D01*
X45652660Y-92750400D01*
X45652661Y-92750401D01*
X45767619Y-92922450D01*
X45767620Y-92922451D01*
X45767623Y-92922455D01*
X45913945Y-93068777D01*
X46086002Y-93183741D01*
X46277180Y-93262930D01*
X46277185Y-93262931D01*
X46277188Y-93262932D01*
X46380032Y-93283388D01*
X46480135Y-93303300D01*
X46480137Y-93303300D01*
X46687063Y-93303300D01*
X46687065Y-93303300D01*
X46853054Y-93270283D01*
X46890011Y-93262932D01*
X46890012Y-93262931D01*
X46890020Y-93262930D01*
X47081198Y-93183741D01*
X47253255Y-93068777D01*
X47399577Y-92922455D01*
X47514541Y-92750398D01*
X47593730Y-92559220D01*
X47595444Y-92550604D01*
X47615606Y-92449243D01*
X47634100Y-92356263D01*
X47634100Y-92149336D01*
X47593732Y-91946388D01*
X47593731Y-91946385D01*
X47593730Y-91946380D01*
X47514541Y-91755202D01*
X47428422Y-91626315D01*
X47399580Y-91583149D01*
X47399575Y-91583143D01*
X47317845Y-91501412D01*
X47309736Y-91484022D01*
X47297401Y-91469322D01*
X47294068Y-91450423D01*
X47292434Y-91446918D01*
X47292100Y-91439258D01*
X47292100Y-91385287D01*
X48095800Y-91385287D01*
X48095800Y-92002799D01*
X48095801Y-92002800D01*
X48690588Y-92002800D01*
X48657675Y-92059807D01*
X48623600Y-92186974D01*
X48623600Y-92318626D01*
X48657675Y-92445793D01*
X48690588Y-92502800D01*
X48095802Y-92502800D01*
X48095801Y-92502801D01*
X48095801Y-93120308D01*
X48106116Y-93172175D01*
X48145411Y-93230982D01*
X48145417Y-93230988D01*
X48204224Y-93270283D01*
X48256087Y-93280599D01*
X48873598Y-93280599D01*
X48873600Y-93280598D01*
X48873600Y-92685812D01*
X48930607Y-92718725D01*
X49057774Y-92752800D01*
X49189426Y-92752800D01*
X49316593Y-92718725D01*
X49373600Y-92685812D01*
X49373600Y-93280598D01*
X49373601Y-93280599D01*
X49991109Y-93280599D01*
X50042975Y-93270283D01*
X50101782Y-93230988D01*
X50101788Y-93230982D01*
X50141083Y-93172175D01*
X50151400Y-93120312D01*
X50151400Y-92502801D01*
X50151399Y-92502800D01*
X49556612Y-92502800D01*
X49589525Y-92445793D01*
X49623600Y-92318626D01*
X49623600Y-92186974D01*
X49589525Y-92059807D01*
X49556612Y-92002800D01*
X50151398Y-92002800D01*
X50151399Y-92002799D01*
X50151399Y-91385291D01*
X50141083Y-91333424D01*
X50101788Y-91274617D01*
X50101782Y-91274611D01*
X50042975Y-91235316D01*
X49991113Y-91225000D01*
X49373601Y-91225000D01*
X49373600Y-91225001D01*
X49373600Y-91819788D01*
X49316593Y-91786875D01*
X49189426Y-91752800D01*
X49057774Y-91752800D01*
X48930607Y-91786875D01*
X48873600Y-91819788D01*
X48873600Y-91225001D01*
X48873599Y-91225000D01*
X48256086Y-91225000D01*
X48256084Y-91225001D01*
X48204228Y-91235314D01*
X48204224Y-91235316D01*
X48145417Y-91274611D01*
X48145411Y-91274617D01*
X48106116Y-91333424D01*
X48095800Y-91385287D01*
X47292100Y-91385287D01*
X47292100Y-88902932D01*
X47293789Y-88885784D01*
X47317500Y-88766579D01*
X47317500Y-81800674D01*
X49215200Y-81800674D01*
X49215200Y-81927725D01*
X49239985Y-82052336D01*
X49239987Y-82052340D01*
X49288606Y-82169719D01*
X49288607Y-82169721D01*
X49288608Y-82169722D01*
X49359196Y-82275364D01*
X49449036Y-82365204D01*
X49554678Y-82435792D01*
X49672060Y-82484413D01*
X49672061Y-82484413D01*
X49672063Y-82484414D01*
X49734792Y-82496891D01*
X49796673Y-82509200D01*
X49796675Y-82509200D01*
X49923725Y-82509200D01*
X49923727Y-82509200D01*
X50006048Y-82492825D01*
X50048336Y-82484414D01*
X50048336Y-82484413D01*
X50048340Y-82484413D01*
X50165722Y-82435792D01*
X50271364Y-82365204D01*
X50361204Y-82275364D01*
X50431792Y-82169722D01*
X50480413Y-82052340D01*
X50505200Y-81927727D01*
X50505200Y-81826527D01*
X50525765Y-81770026D01*
X50530945Y-81764372D01*
X53486764Y-78808553D01*
X56513240Y-75782077D01*
X56513245Y-75782073D01*
X56520476Y-75774841D01*
X56520478Y-75774841D01*
X56595641Y-75699678D01*
X56648789Y-75607623D01*
X56654602Y-75585924D01*
X56676301Y-75504948D01*
X56676301Y-75398652D01*
X56676301Y-75393271D01*
X56676300Y-75393253D01*
X56676300Y-73810637D01*
X56696865Y-73754136D01*
X56748936Y-73724072D01*
X56808150Y-73734513D01*
X56826355Y-73748482D01*
X56875818Y-73797945D01*
X57044153Y-73910422D01*
X57231196Y-73987899D01*
X57231210Y-73987904D01*
X57281000Y-73997807D01*
X57281000Y-73432612D01*
X57338007Y-73465525D01*
X57465174Y-73499600D01*
X57596826Y-73499600D01*
X57723993Y-73465525D01*
X57781000Y-73432612D01*
X57781000Y-73997806D01*
X57830789Y-73987904D01*
X57830803Y-73987899D01*
X58017846Y-73910422D01*
X58186181Y-73797945D01*
X58329345Y-73654781D01*
X58441822Y-73486446D01*
X58519299Y-73299403D01*
X58519304Y-73299389D01*
X58529207Y-73249600D01*
X57964012Y-73249600D01*
X57996925Y-73192593D01*
X58031000Y-73065426D01*
X58031000Y-72933774D01*
X57996925Y-72806607D01*
X57964012Y-72749600D01*
X58529207Y-72749600D01*
X58519304Y-72699810D01*
X58519299Y-72699796D01*
X58441822Y-72512753D01*
X58329345Y-72344418D01*
X58186181Y-72201254D01*
X58017847Y-72088777D01*
X57830804Y-72011301D01*
X57830795Y-72011298D01*
X57781000Y-72001392D01*
X57781000Y-72566588D01*
X57723993Y-72533675D01*
X57596826Y-72499600D01*
X57465174Y-72499600D01*
X57338007Y-72533675D01*
X57281000Y-72566588D01*
X57281000Y-72001392D01*
X57231204Y-72011298D01*
X57231195Y-72011301D01*
X57044152Y-72088777D01*
X56875818Y-72201254D01*
X56826355Y-72250718D01*
X56771861Y-72276129D01*
X56713783Y-72260566D01*
X56679295Y-72211313D01*
X56676300Y-72188563D01*
X56676300Y-71933227D01*
X56696865Y-71876726D01*
X56702034Y-71871083D01*
X57097355Y-71475762D01*
X57151847Y-71450352D01*
X57193144Y-71456708D01*
X57224580Y-71469730D01*
X57224585Y-71469731D01*
X57224588Y-71469732D01*
X57327432Y-71490188D01*
X57427535Y-71510100D01*
X57427537Y-71510100D01*
X57634463Y-71510100D01*
X57634465Y-71510100D01*
X57807090Y-71475763D01*
X57837411Y-71469732D01*
X57837412Y-71469731D01*
X57837420Y-71469730D01*
X58028598Y-71390541D01*
X58200655Y-71275577D01*
X58346977Y-71129255D01*
X58461941Y-70957198D01*
X58541130Y-70766020D01*
X58581500Y-70563065D01*
X58581500Y-70356135D01*
X58563692Y-70266607D01*
X58541132Y-70153188D01*
X58541131Y-70153185D01*
X58541130Y-70153180D01*
X58461941Y-69962002D01*
X58359036Y-69807993D01*
X58346980Y-69789949D01*
X58346979Y-69789948D01*
X58346977Y-69789945D01*
X58200655Y-69643623D01*
X58200651Y-69643620D01*
X58200650Y-69643619D01*
X58028601Y-69528661D01*
X58028600Y-69528660D01*
X58028598Y-69528659D01*
X57837420Y-69449470D01*
X57837416Y-69449469D01*
X57837411Y-69449467D01*
X57684684Y-69419089D01*
X57634465Y-69409100D01*
X57427535Y-69409100D01*
X57382844Y-69417989D01*
X57224588Y-69449467D01*
X57224583Y-69449469D01*
X57224581Y-69449469D01*
X57224580Y-69449470D01*
X57033402Y-69528659D01*
X57033400Y-69528659D01*
X57033398Y-69528661D01*
X56861349Y-69643619D01*
X56715019Y-69789949D01*
X56600061Y-69961998D01*
X56600059Y-69962000D01*
X56600059Y-69962002D01*
X56536685Y-70114999D01*
X56520869Y-70153183D01*
X56520867Y-70153188D01*
X56498308Y-70266607D01*
X56480500Y-70356135D01*
X56480500Y-70563065D01*
X56484053Y-70580925D01*
X56520868Y-70766016D01*
X56520871Y-70766024D01*
X56540684Y-70813858D01*
X56543307Y-70873928D01*
X56521630Y-70909650D01*
X56024724Y-71406557D01*
X55949560Y-71481720D01*
X55896411Y-71573777D01*
X55896411Y-71573778D01*
X55868899Y-71676452D01*
X55868899Y-71789827D01*
X55868900Y-71789840D01*
X55868900Y-72211763D01*
X55848335Y-72268264D01*
X55796264Y-72298328D01*
X55737050Y-72287887D01*
X55718845Y-72273918D01*
X55646181Y-72201254D01*
X55477847Y-72088777D01*
X55290804Y-72011301D01*
X55290795Y-72011298D01*
X55241000Y-72001392D01*
X55241000Y-72566588D01*
X55183993Y-72533675D01*
X55056826Y-72499600D01*
X54925174Y-72499600D01*
X54798007Y-72533675D01*
X54741000Y-72566588D01*
X54741000Y-72001392D01*
X54691204Y-72011298D01*
X54691195Y-72011301D01*
X54504152Y-72088777D01*
X54335818Y-72201254D01*
X54192654Y-72344418D01*
X54080177Y-72512753D01*
X54002700Y-72699796D01*
X54002695Y-72699810D01*
X53992792Y-72749600D01*
X54557988Y-72749600D01*
X54525075Y-72806607D01*
X54491000Y-72933774D01*
X54491000Y-73065426D01*
X54525075Y-73192593D01*
X54557988Y-73249600D01*
X53992793Y-73249600D01*
X54002695Y-73299389D01*
X54002700Y-73299403D01*
X54080177Y-73486446D01*
X54192654Y-73654781D01*
X54335818Y-73797945D01*
X54504153Y-73910422D01*
X54691196Y-73987899D01*
X54691210Y-73987904D01*
X54741000Y-73997807D01*
X54741000Y-73432612D01*
X54798007Y-73465525D01*
X54925174Y-73499600D01*
X55056826Y-73499600D01*
X55183993Y-73465525D01*
X55241000Y-73432612D01*
X55241000Y-73997806D01*
X55290789Y-73987904D01*
X55290803Y-73987899D01*
X55477846Y-73910422D01*
X55646181Y-73797945D01*
X55718845Y-73725282D01*
X55773339Y-73699871D01*
X55831417Y-73715434D01*
X55865905Y-73764687D01*
X55868900Y-73787437D01*
X55868900Y-75248171D01*
X55848335Y-75304672D01*
X55843155Y-75310326D01*
X49960026Y-81193455D01*
X49905532Y-81218866D01*
X49897871Y-81219200D01*
X49796673Y-81219200D01*
X49769150Y-81224674D01*
X49672063Y-81243985D01*
X49672059Y-81243987D01*
X49554680Y-81292606D01*
X49449038Y-81363194D01*
X49359194Y-81453038D01*
X49288606Y-81558680D01*
X49239987Y-81676059D01*
X49239985Y-81676063D01*
X49215200Y-81800674D01*
X47317500Y-81800674D01*
X47317500Y-79462474D01*
X49215200Y-79462474D01*
X49215200Y-79589525D01*
X49239985Y-79714136D01*
X49239987Y-79714140D01*
X49288606Y-79831519D01*
X49288607Y-79831521D01*
X49288608Y-79831522D01*
X49359196Y-79937164D01*
X49449036Y-80027004D01*
X49554678Y-80097592D01*
X49672060Y-80146213D01*
X49672061Y-80146213D01*
X49672063Y-80146214D01*
X49734792Y-80158691D01*
X49796673Y-80171000D01*
X49796675Y-80171000D01*
X49923725Y-80171000D01*
X49923727Y-80171000D01*
X50006048Y-80154625D01*
X50048336Y-80146214D01*
X50048336Y-80146213D01*
X50048340Y-80146213D01*
X50165722Y-80097592D01*
X50271364Y-80027004D01*
X50361204Y-79937164D01*
X50431792Y-79831522D01*
X50480413Y-79714140D01*
X50505200Y-79589527D01*
X50505200Y-79462473D01*
X50480413Y-79337860D01*
X50431792Y-79220478D01*
X50361204Y-79114836D01*
X50361202Y-79114834D01*
X50271366Y-79024997D01*
X50270636Y-79024398D01*
X50270445Y-79024077D01*
X50268311Y-79021942D01*
X50268858Y-79021394D01*
X50240007Y-78972656D01*
X50238500Y-78956451D01*
X50238500Y-73254028D01*
X50245063Y-73235995D01*
X50246736Y-73216880D01*
X50257742Y-73201159D01*
X50259065Y-73197527D01*
X50264245Y-73191873D01*
X53837073Y-69619045D01*
X53891567Y-69593634D01*
X53899228Y-69593300D01*
X54191563Y-69593300D01*
X54248064Y-69613865D01*
X54278128Y-69665936D01*
X54267687Y-69725150D01*
X54253718Y-69743355D01*
X54192654Y-69804418D01*
X54080177Y-69972753D01*
X54002700Y-70159796D01*
X54002695Y-70159810D01*
X53992792Y-70209600D01*
X54557988Y-70209600D01*
X54525075Y-70266607D01*
X54491000Y-70393774D01*
X54491000Y-70525426D01*
X54525075Y-70652593D01*
X54557988Y-70709600D01*
X53992793Y-70709600D01*
X54002695Y-70759389D01*
X54002700Y-70759403D01*
X54080177Y-70946446D01*
X54192654Y-71114781D01*
X54335818Y-71257945D01*
X54504153Y-71370422D01*
X54691196Y-71447899D01*
X54691210Y-71447904D01*
X54741000Y-71457807D01*
X54741000Y-70892612D01*
X54798007Y-70925525D01*
X54925174Y-70959600D01*
X55056826Y-70959600D01*
X55183993Y-70925525D01*
X55241000Y-70892612D01*
X55241000Y-71457806D01*
X55290789Y-71447904D01*
X55290803Y-71447899D01*
X55477846Y-71370422D01*
X55646181Y-71257945D01*
X55789345Y-71114781D01*
X55901822Y-70946446D01*
X55979299Y-70759403D01*
X55979304Y-70759389D01*
X55989207Y-70709600D01*
X55424012Y-70709600D01*
X55456925Y-70652593D01*
X55491000Y-70525426D01*
X55491000Y-70393774D01*
X55456925Y-70266607D01*
X55424012Y-70209600D01*
X55989207Y-70209600D01*
X55979304Y-70159810D01*
X55979299Y-70159796D01*
X55901822Y-69972753D01*
X55789345Y-69804418D01*
X55728282Y-69743355D01*
X55702871Y-69688861D01*
X55718434Y-69630783D01*
X55767687Y-69596295D01*
X55790437Y-69593300D01*
X56214054Y-69593300D01*
X56214070Y-69593301D01*
X56219452Y-69593301D01*
X56325748Y-69593301D01*
X56406720Y-69571603D01*
X56406725Y-69571603D01*
X56406725Y-69571602D01*
X56414665Y-69569474D01*
X56428423Y-69565789D01*
X56520478Y-69512641D01*
X56595641Y-69437478D01*
X56595641Y-69437476D01*
X56602873Y-69430245D01*
X56602877Y-69430240D01*
X57097354Y-68935762D01*
X57151847Y-68910352D01*
X57193144Y-68916708D01*
X57224580Y-68929730D01*
X57224585Y-68929731D01*
X57224588Y-68929732D01*
X57327432Y-68950188D01*
X57427535Y-68970100D01*
X57427537Y-68970100D01*
X57634463Y-68970100D01*
X57634465Y-68970100D01*
X57807090Y-68935763D01*
X57837411Y-68929732D01*
X57837412Y-68929731D01*
X57837420Y-68929730D01*
X58028598Y-68850541D01*
X58200655Y-68735577D01*
X58346977Y-68589255D01*
X58461941Y-68417198D01*
X58541130Y-68226020D01*
X58581500Y-68023065D01*
X58581500Y-67816135D01*
X58554326Y-67679522D01*
X58541132Y-67613188D01*
X58541131Y-67613185D01*
X58541130Y-67613180D01*
X58461941Y-67422002D01*
X58346977Y-67249945D01*
X58200655Y-67103623D01*
X58200651Y-67103620D01*
X58200650Y-67103619D01*
X58028601Y-66988661D01*
X58028600Y-66988660D01*
X58028598Y-66988659D01*
X57837420Y-66909470D01*
X57837416Y-66909469D01*
X57837411Y-66909467D01*
X57684684Y-66879089D01*
X57634465Y-66869100D01*
X57427535Y-66869100D01*
X57382844Y-66877989D01*
X57224588Y-66909467D01*
X57224583Y-66909469D01*
X57224581Y-66909469D01*
X57224580Y-66909470D01*
X57033402Y-66988659D01*
X57033400Y-66988659D01*
X57033398Y-66988661D01*
X56861349Y-67103619D01*
X56715019Y-67249949D01*
X56600061Y-67421998D01*
X56600059Y-67422000D01*
X56600059Y-67422002D01*
X56566454Y-67503131D01*
X56520869Y-67613183D01*
X56520867Y-67613188D01*
X56480500Y-67816136D01*
X56480500Y-68023063D01*
X56520868Y-68226016D01*
X56520871Y-68226024D01*
X56540684Y-68273858D01*
X56543307Y-68333928D01*
X56521630Y-68369650D01*
X56131127Y-68760155D01*
X56076633Y-68785565D01*
X56068972Y-68785900D01*
X55822541Y-68785900D01*
X55766040Y-68765335D01*
X55735976Y-68713264D01*
X55746417Y-68654050D01*
X55760382Y-68635849D01*
X55806977Y-68589255D01*
X55921941Y-68417198D01*
X56001130Y-68226020D01*
X56041500Y-68023065D01*
X56041500Y-67816135D01*
X56014326Y-67679522D01*
X56001132Y-67613188D01*
X56001131Y-67613185D01*
X56001130Y-67613180D01*
X55921941Y-67422002D01*
X55806977Y-67249945D01*
X55660655Y-67103623D01*
X55660651Y-67103620D01*
X55660650Y-67103619D01*
X55488601Y-66988661D01*
X55488600Y-66988660D01*
X55488598Y-66988659D01*
X55297420Y-66909470D01*
X55297416Y-66909469D01*
X55297411Y-66909467D01*
X55144684Y-66879089D01*
X55094465Y-66869100D01*
X54887535Y-66869100D01*
X54842844Y-66877989D01*
X54684588Y-66909467D01*
X54684583Y-66909469D01*
X54684581Y-66909469D01*
X54684580Y-66909470D01*
X54493402Y-66988659D01*
X54493400Y-66988659D01*
X54493398Y-66988661D01*
X54321349Y-67103619D01*
X54175019Y-67249949D01*
X54060061Y-67421998D01*
X54060059Y-67422000D01*
X54060059Y-67422002D01*
X54026454Y-67503131D01*
X53980869Y-67613183D01*
X53980867Y-67613188D01*
X53940500Y-67816136D01*
X53940500Y-68023063D01*
X53980867Y-68226011D01*
X53980869Y-68226016D01*
X53980870Y-68226020D01*
X54060059Y-68417198D01*
X54060060Y-68417200D01*
X54060061Y-68417201D01*
X54175019Y-68589250D01*
X54175020Y-68589251D01*
X54175023Y-68589255D01*
X54221614Y-68635846D01*
X54247025Y-68690339D01*
X54231462Y-68748417D01*
X54182209Y-68782905D01*
X54159459Y-68785900D01*
X53754146Y-68785900D01*
X53754130Y-68785899D01*
X53748748Y-68785899D01*
X53642452Y-68785899D01*
X53575206Y-68803918D01*
X53575205Y-68803918D01*
X53539778Y-68813410D01*
X53447720Y-68866560D01*
X49511760Y-72802520D01*
X49458611Y-72894577D01*
X49458611Y-72894578D01*
X49431099Y-72997252D01*
X49431099Y-73110627D01*
X49431100Y-73110640D01*
X49431100Y-79006522D01*
X49410535Y-79063023D01*
X49405355Y-79068676D01*
X49359195Y-79114836D01*
X49288606Y-79220480D01*
X49239987Y-79337859D01*
X49239985Y-79337863D01*
X49215200Y-79462474D01*
X47317500Y-79462474D01*
X47317500Y-68135474D01*
X48453200Y-68135474D01*
X48453200Y-68262525D01*
X48477985Y-68387136D01*
X48477987Y-68387140D01*
X48526606Y-68504519D01*
X48526607Y-68504521D01*
X48526608Y-68504522D01*
X48597196Y-68610164D01*
X48687036Y-68700004D01*
X48792678Y-68770592D01*
X48910060Y-68819213D01*
X48910061Y-68819213D01*
X48910063Y-68819214D01*
X48956945Y-68828539D01*
X49034673Y-68844000D01*
X49034675Y-68844000D01*
X49161725Y-68844000D01*
X49161727Y-68844000D01*
X49244048Y-68827625D01*
X49286336Y-68819214D01*
X49286336Y-68819213D01*
X49286340Y-68819213D01*
X49403722Y-68770592D01*
X49509364Y-68700004D01*
X49599204Y-68610164D01*
X49669792Y-68504522D01*
X49718413Y-68387140D01*
X49743200Y-68262527D01*
X49743200Y-68135473D01*
X49720841Y-68023065D01*
X49718414Y-68010863D01*
X49718413Y-68010861D01*
X49718413Y-68010860D01*
X49669792Y-67893478D01*
X49599204Y-67787836D01*
X49599202Y-67787833D01*
X49598048Y-67786427D01*
X49597801Y-67785736D01*
X49596805Y-67784246D01*
X49597178Y-67783996D01*
X49578100Y-67730669D01*
X49578100Y-65324869D01*
X49584663Y-65306836D01*
X49586336Y-65287721D01*
X49594446Y-65276136D01*
X53940500Y-65276136D01*
X53940500Y-65483063D01*
X53980867Y-65686011D01*
X53980869Y-65686016D01*
X53980870Y-65686020D01*
X54060059Y-65877198D01*
X54060060Y-65877200D01*
X54060061Y-65877201D01*
X54175019Y-66049250D01*
X54175020Y-66049251D01*
X54175023Y-66049255D01*
X54321345Y-66195577D01*
X54321348Y-66195579D01*
X54321349Y-66195580D01*
X54407373Y-66253059D01*
X54493402Y-66310541D01*
X54684580Y-66389730D01*
X54684585Y-66389731D01*
X54684588Y-66389732D01*
X54787432Y-66410188D01*
X54887535Y-66430100D01*
X54887537Y-66430100D01*
X55094463Y-66430100D01*
X55094465Y-66430100D01*
X55227336Y-66403670D01*
X55297411Y-66389732D01*
X55297412Y-66389731D01*
X55297420Y-66389730D01*
X55488598Y-66310541D01*
X55660655Y-66195577D01*
X55806977Y-66049255D01*
X55921941Y-65877198D01*
X56001130Y-65686020D01*
X56007700Y-65652993D01*
X56030761Y-65537052D01*
X56041500Y-65483065D01*
X56041500Y-65276136D01*
X56480500Y-65276136D01*
X56480500Y-65483063D01*
X56520867Y-65686011D01*
X56520869Y-65686016D01*
X56520870Y-65686020D01*
X56600059Y-65877198D01*
X56600060Y-65877200D01*
X56600061Y-65877201D01*
X56715019Y-66049250D01*
X56715020Y-66049251D01*
X56715023Y-66049255D01*
X56861345Y-66195577D01*
X56861348Y-66195579D01*
X56861349Y-66195580D01*
X56947373Y-66253059D01*
X57033402Y-66310541D01*
X57224580Y-66389730D01*
X57224585Y-66389731D01*
X57224588Y-66389732D01*
X57327432Y-66410188D01*
X57427535Y-66430100D01*
X57427537Y-66430100D01*
X57634463Y-66430100D01*
X57634465Y-66430100D01*
X57767336Y-66403670D01*
X57837411Y-66389732D01*
X57837412Y-66389731D01*
X57837420Y-66389730D01*
X58028598Y-66310541D01*
X58200655Y-66195577D01*
X58346977Y-66049255D01*
X58461941Y-65877198D01*
X58541130Y-65686020D01*
X58547700Y-65652993D01*
X58570761Y-65537052D01*
X58581500Y-65483065D01*
X58581500Y-65276135D01*
X58558407Y-65160036D01*
X58541132Y-65073188D01*
X58541131Y-65073185D01*
X58541130Y-65073180D01*
X58461941Y-64882002D01*
X58404459Y-64795973D01*
X58346980Y-64709949D01*
X58346979Y-64709948D01*
X58346977Y-64709945D01*
X58200655Y-64563623D01*
X58200651Y-64563620D01*
X58200650Y-64563619D01*
X58028601Y-64448661D01*
X58028600Y-64448660D01*
X58028598Y-64448659D01*
X57837420Y-64369470D01*
X57837416Y-64369469D01*
X57837411Y-64369467D01*
X57684684Y-64339089D01*
X57634465Y-64329100D01*
X57427535Y-64329100D01*
X57382844Y-64337989D01*
X57224588Y-64369467D01*
X57224583Y-64369469D01*
X57224581Y-64369469D01*
X57224580Y-64369470D01*
X57033402Y-64448659D01*
X57033400Y-64448659D01*
X57033398Y-64448661D01*
X56861349Y-64563619D01*
X56715019Y-64709949D01*
X56600061Y-64881998D01*
X56600059Y-64882000D01*
X56600059Y-64882002D01*
X56520870Y-65073180D01*
X56520869Y-65073183D01*
X56520867Y-65073188D01*
X56485494Y-65251025D01*
X56481323Y-65272000D01*
X56480500Y-65276136D01*
X56041500Y-65276136D01*
X56041500Y-65276135D01*
X56018407Y-65160036D01*
X56001132Y-65073188D01*
X56001131Y-65073185D01*
X56001130Y-65073180D01*
X55921941Y-64882002D01*
X55864459Y-64795973D01*
X55806980Y-64709949D01*
X55806979Y-64709948D01*
X55806977Y-64709945D01*
X55660655Y-64563623D01*
X55660651Y-64563620D01*
X55660650Y-64563619D01*
X55488601Y-64448661D01*
X55488600Y-64448660D01*
X55488598Y-64448659D01*
X55297420Y-64369470D01*
X55297416Y-64369469D01*
X55297411Y-64369467D01*
X55144684Y-64339089D01*
X55094465Y-64329100D01*
X54887535Y-64329100D01*
X54842844Y-64337989D01*
X54684588Y-64369467D01*
X54684583Y-64369469D01*
X54684581Y-64369469D01*
X54684580Y-64369470D01*
X54493402Y-64448659D01*
X54493400Y-64448659D01*
X54493398Y-64448661D01*
X54321349Y-64563619D01*
X54175019Y-64709949D01*
X54060061Y-64881998D01*
X54060059Y-64882000D01*
X54060059Y-64882002D01*
X53980870Y-65073180D01*
X53980869Y-65073183D01*
X53980867Y-65073188D01*
X53945494Y-65251025D01*
X53941323Y-65272000D01*
X53940500Y-65276136D01*
X49594446Y-65276136D01*
X49597342Y-65272000D01*
X49598665Y-65268368D01*
X49603834Y-65262725D01*
X52130422Y-62736136D01*
X53940500Y-62736136D01*
X53940500Y-62943063D01*
X53980867Y-63146011D01*
X53980869Y-63146016D01*
X53980870Y-63146020D01*
X54060059Y-63337198D01*
X54060060Y-63337200D01*
X54060061Y-63337201D01*
X54175019Y-63509250D01*
X54175020Y-63509251D01*
X54175023Y-63509255D01*
X54321345Y-63655577D01*
X54321348Y-63655579D01*
X54321349Y-63655580D01*
X54407373Y-63713059D01*
X54493402Y-63770541D01*
X54684580Y-63849730D01*
X54684585Y-63849731D01*
X54684588Y-63849732D01*
X54787432Y-63870188D01*
X54887535Y-63890100D01*
X54887537Y-63890100D01*
X55094463Y-63890100D01*
X55094465Y-63890100D01*
X55227336Y-63863670D01*
X55297411Y-63849732D01*
X55297412Y-63849731D01*
X55297420Y-63849730D01*
X55488598Y-63770541D01*
X55660655Y-63655577D01*
X55806977Y-63509255D01*
X55921941Y-63337198D01*
X56001130Y-63146020D01*
X56041500Y-62943065D01*
X56041500Y-62736136D01*
X56480500Y-62736136D01*
X56480500Y-62943063D01*
X56520867Y-63146011D01*
X56520869Y-63146016D01*
X56520870Y-63146020D01*
X56600059Y-63337198D01*
X56600060Y-63337200D01*
X56600061Y-63337201D01*
X56715019Y-63509250D01*
X56715020Y-63509251D01*
X56715023Y-63509255D01*
X56861345Y-63655577D01*
X56861348Y-63655579D01*
X56861349Y-63655580D01*
X56947373Y-63713059D01*
X57033402Y-63770541D01*
X57224580Y-63849730D01*
X57224585Y-63849731D01*
X57224588Y-63849732D01*
X57327432Y-63870188D01*
X57427535Y-63890100D01*
X57427537Y-63890100D01*
X57634463Y-63890100D01*
X57634465Y-63890100D01*
X57767336Y-63863670D01*
X57837411Y-63849732D01*
X57837412Y-63849731D01*
X57837420Y-63849730D01*
X58028598Y-63770541D01*
X58200655Y-63655577D01*
X58346977Y-63509255D01*
X58461941Y-63337198D01*
X58541130Y-63146020D01*
X58581500Y-62943065D01*
X58581500Y-62736135D01*
X58550869Y-62582140D01*
X58541132Y-62533188D01*
X58541131Y-62533185D01*
X58541130Y-62533180D01*
X58461941Y-62342002D01*
X58346977Y-62169945D01*
X58200655Y-62023623D01*
X58200651Y-62023620D01*
X58200650Y-62023619D01*
X58028601Y-61908661D01*
X58028600Y-61908660D01*
X58028598Y-61908659D01*
X57837420Y-61829470D01*
X57837416Y-61829469D01*
X57837411Y-61829467D01*
X57684684Y-61799089D01*
X57634465Y-61789100D01*
X57427535Y-61789100D01*
X57382844Y-61797989D01*
X57224588Y-61829467D01*
X57224583Y-61829469D01*
X57224581Y-61829469D01*
X57224580Y-61829470D01*
X57033402Y-61908659D01*
X57033400Y-61908659D01*
X57033398Y-61908661D01*
X56861349Y-62023619D01*
X56715019Y-62169949D01*
X56600061Y-62341998D01*
X56600059Y-62342000D01*
X56600059Y-62342002D01*
X56520870Y-62533180D01*
X56520869Y-62533183D01*
X56520867Y-62533188D01*
X56480500Y-62736136D01*
X56041500Y-62736136D01*
X56041500Y-62736135D01*
X56010869Y-62582140D01*
X56001132Y-62533188D01*
X56001131Y-62533185D01*
X56001130Y-62533180D01*
X55921941Y-62342002D01*
X55806977Y-62169945D01*
X55660655Y-62023623D01*
X55660651Y-62023620D01*
X55660650Y-62023619D01*
X55488601Y-61908661D01*
X55488600Y-61908660D01*
X55488598Y-61908659D01*
X55297420Y-61829470D01*
X55297416Y-61829469D01*
X55297411Y-61829467D01*
X55144684Y-61799089D01*
X55094465Y-61789100D01*
X54887535Y-61789100D01*
X54842844Y-61797989D01*
X54684588Y-61829467D01*
X54684583Y-61829469D01*
X54684581Y-61829469D01*
X54684580Y-61829470D01*
X54493402Y-61908659D01*
X54493400Y-61908659D01*
X54493398Y-61908661D01*
X54321349Y-62023619D01*
X54175019Y-62169949D01*
X54060061Y-62341998D01*
X54060059Y-62342000D01*
X54060059Y-62342002D01*
X53980870Y-62533180D01*
X53980869Y-62533183D01*
X53980867Y-62533188D01*
X53940500Y-62736136D01*
X52130422Y-62736136D01*
X53988050Y-60878508D01*
X54042543Y-60853098D01*
X54100621Y-60868661D01*
X54123287Y-60891825D01*
X54175023Y-60969255D01*
X54321345Y-61115577D01*
X54493402Y-61230541D01*
X54684580Y-61309730D01*
X54684585Y-61309731D01*
X54684588Y-61309732D01*
X54760116Y-61324755D01*
X54887535Y-61350100D01*
X54887537Y-61350100D01*
X55094463Y-61350100D01*
X55094465Y-61350100D01*
X55227336Y-61323670D01*
X55297411Y-61309732D01*
X55297412Y-61309731D01*
X55297420Y-61309730D01*
X55488598Y-61230541D01*
X55660655Y-61115577D01*
X55806977Y-60969255D01*
X55921941Y-60797198D01*
X56001130Y-60606020D01*
X56041500Y-60403065D01*
X56041500Y-60196136D01*
X56480500Y-60196136D01*
X56480500Y-60403063D01*
X56520867Y-60606011D01*
X56520869Y-60606016D01*
X56520870Y-60606020D01*
X56600059Y-60797198D01*
X56600060Y-60797200D01*
X56600061Y-60797201D01*
X56715019Y-60969250D01*
X56715020Y-60969251D01*
X56715023Y-60969255D01*
X56861345Y-61115577D01*
X57033402Y-61230541D01*
X57224580Y-61309730D01*
X57224585Y-61309731D01*
X57224588Y-61309732D01*
X57300116Y-61324755D01*
X57427535Y-61350100D01*
X57427537Y-61350100D01*
X57634463Y-61350100D01*
X57634465Y-61350100D01*
X57767336Y-61323670D01*
X57837411Y-61309732D01*
X57837412Y-61309731D01*
X57837420Y-61309730D01*
X58028598Y-61230541D01*
X58200655Y-61115577D01*
X58346977Y-60969255D01*
X58461941Y-60797198D01*
X58541130Y-60606020D01*
X58581500Y-60403065D01*
X58581500Y-60196135D01*
X58547088Y-60023132D01*
X58541132Y-59993188D01*
X58541131Y-59993185D01*
X58541130Y-59993180D01*
X58461941Y-59802002D01*
X58346977Y-59629945D01*
X58200655Y-59483623D01*
X58200651Y-59483620D01*
X58200650Y-59483619D01*
X58028601Y-59368661D01*
X58028600Y-59368660D01*
X58028598Y-59368659D01*
X57837420Y-59289470D01*
X57837416Y-59289469D01*
X57837411Y-59289467D01*
X57684684Y-59259089D01*
X57634465Y-59249100D01*
X57427535Y-59249100D01*
X57382844Y-59257989D01*
X57224588Y-59289467D01*
X57224583Y-59289469D01*
X57224581Y-59289469D01*
X57224580Y-59289470D01*
X57033402Y-59368659D01*
X57033400Y-59368659D01*
X57033398Y-59368661D01*
X56861349Y-59483619D01*
X56715019Y-59629949D01*
X56600061Y-59801998D01*
X56600059Y-59802000D01*
X56600059Y-59802002D01*
X56520870Y-59993180D01*
X56520869Y-59993183D01*
X56520867Y-59993188D01*
X56480500Y-60196136D01*
X56041500Y-60196136D01*
X56041500Y-60196135D01*
X56007088Y-60023132D01*
X56001132Y-59993188D01*
X56001131Y-59993185D01*
X56001130Y-59993180D01*
X55921941Y-59802002D01*
X55806977Y-59629945D01*
X55660655Y-59483623D01*
X55660651Y-59483620D01*
X55660650Y-59483619D01*
X55488601Y-59368661D01*
X55488600Y-59368660D01*
X55488598Y-59368659D01*
X55297420Y-59289470D01*
X55297416Y-59289469D01*
X55297411Y-59289467D01*
X55144684Y-59259089D01*
X55094465Y-59249100D01*
X54887535Y-59249100D01*
X54842844Y-59257989D01*
X54684588Y-59289467D01*
X54684583Y-59289469D01*
X54684581Y-59289469D01*
X54684580Y-59289470D01*
X54493402Y-59368659D01*
X54493400Y-59368659D01*
X54493398Y-59368661D01*
X54321349Y-59483619D01*
X54175019Y-59629949D01*
X54057660Y-59805592D01*
X54056487Y-59804808D01*
X54015687Y-59841375D01*
X53982948Y-59847699D01*
X53861764Y-59847699D01*
X53770599Y-59872125D01*
X53770600Y-59872126D01*
X53746169Y-59878673D01*
X53746168Y-59878673D01*
X53642528Y-59938510D01*
X48759910Y-64821128D01*
X48700073Y-64924769D01*
X48700073Y-64924770D01*
X48669099Y-65040364D01*
X48669099Y-65167115D01*
X48669100Y-65167128D01*
X48669100Y-67679522D01*
X48648535Y-67736023D01*
X48643355Y-67741676D01*
X48597195Y-67787836D01*
X48526606Y-67893480D01*
X48477987Y-68010859D01*
X48477985Y-68010863D01*
X48453200Y-68135474D01*
X47317500Y-68135474D01*
X47317500Y-59207079D01*
X47338065Y-59150578D01*
X47343235Y-59144934D01*
X47612975Y-58875193D01*
X47626285Y-58864270D01*
X47695643Y-58817928D01*
X48857435Y-57656136D01*
X53940500Y-57656136D01*
X53940500Y-57863063D01*
X53980867Y-58066011D01*
X53980869Y-58066016D01*
X53980870Y-58066020D01*
X54060059Y-58257198D01*
X54060060Y-58257200D01*
X54060061Y-58257201D01*
X54175019Y-58429250D01*
X54175020Y-58429251D01*
X54175023Y-58429255D01*
X54321345Y-58575577D01*
X54321348Y-58575579D01*
X54321349Y-58575580D01*
X54375934Y-58612052D01*
X54493402Y-58690541D01*
X54684580Y-58769730D01*
X54684585Y-58769731D01*
X54684588Y-58769732D01*
X54787432Y-58790188D01*
X54887535Y-58810100D01*
X54887537Y-58810100D01*
X55094463Y-58810100D01*
X55094465Y-58810100D01*
X55227336Y-58783670D01*
X55297411Y-58769732D01*
X55297412Y-58769731D01*
X55297420Y-58769730D01*
X55488598Y-58690541D01*
X55660655Y-58575577D01*
X55806977Y-58429255D01*
X55921941Y-58257198D01*
X56001130Y-58066020D01*
X56041500Y-57863065D01*
X56041500Y-57656136D01*
X56480500Y-57656136D01*
X56480500Y-57863063D01*
X56520867Y-58066011D01*
X56520869Y-58066016D01*
X56520870Y-58066020D01*
X56600059Y-58257198D01*
X56600060Y-58257200D01*
X56600061Y-58257201D01*
X56715019Y-58429250D01*
X56715020Y-58429251D01*
X56715023Y-58429255D01*
X56861345Y-58575577D01*
X56861348Y-58575579D01*
X56861349Y-58575580D01*
X56915934Y-58612052D01*
X57033402Y-58690541D01*
X57224580Y-58769730D01*
X57224585Y-58769731D01*
X57224588Y-58769732D01*
X57327432Y-58790188D01*
X57427535Y-58810100D01*
X57427537Y-58810100D01*
X57634463Y-58810100D01*
X57634465Y-58810100D01*
X57767336Y-58783670D01*
X57837411Y-58769732D01*
X57837412Y-58769731D01*
X57837420Y-58769730D01*
X58028598Y-58690541D01*
X58200655Y-58575577D01*
X58346977Y-58429255D01*
X58461941Y-58257198D01*
X58541130Y-58066020D01*
X58581500Y-57863065D01*
X58581500Y-57656135D01*
X58541130Y-57453180D01*
X58461941Y-57262002D01*
X58346977Y-57089945D01*
X58200655Y-56943623D01*
X58200651Y-56943620D01*
X58200650Y-56943619D01*
X58028601Y-56828661D01*
X58028600Y-56828660D01*
X58028598Y-56828659D01*
X57837420Y-56749470D01*
X57837416Y-56749469D01*
X57837411Y-56749467D01*
X57684684Y-56719089D01*
X57634465Y-56709100D01*
X57427535Y-56709100D01*
X57382844Y-56717989D01*
X57224588Y-56749467D01*
X57224583Y-56749469D01*
X57224581Y-56749469D01*
X57224580Y-56749470D01*
X57033402Y-56828659D01*
X57033400Y-56828659D01*
X57033398Y-56828661D01*
X56861349Y-56943619D01*
X56715019Y-57089949D01*
X56600061Y-57261998D01*
X56600059Y-57262000D01*
X56600059Y-57262002D01*
X56520870Y-57453180D01*
X56520869Y-57453183D01*
X56520867Y-57453188D01*
X56480500Y-57656136D01*
X56041500Y-57656136D01*
X56041500Y-57656135D01*
X56001130Y-57453180D01*
X55921941Y-57262002D01*
X55806977Y-57089945D01*
X55660655Y-56943623D01*
X55660651Y-56943620D01*
X55660650Y-56943619D01*
X55488601Y-56828661D01*
X55488600Y-56828660D01*
X55488598Y-56828659D01*
X55297420Y-56749470D01*
X55297416Y-56749469D01*
X55297411Y-56749467D01*
X55144684Y-56719089D01*
X55094465Y-56709100D01*
X54887535Y-56709100D01*
X54842844Y-56717989D01*
X54684588Y-56749467D01*
X54684583Y-56749469D01*
X54684581Y-56749469D01*
X54684580Y-56749470D01*
X54493402Y-56828659D01*
X54493400Y-56828659D01*
X54493398Y-56828661D01*
X54321349Y-56943619D01*
X54175019Y-57089949D01*
X54060061Y-57261998D01*
X54060059Y-57262000D01*
X54060059Y-57262002D01*
X53980870Y-57453180D01*
X53980869Y-57453183D01*
X53980867Y-57453188D01*
X53940500Y-57656136D01*
X48857435Y-57656136D01*
X51397435Y-55116136D01*
X53940500Y-55116136D01*
X53940500Y-55323063D01*
X53980867Y-55526011D01*
X53980869Y-55526016D01*
X53980870Y-55526020D01*
X54060059Y-55717198D01*
X54060060Y-55717200D01*
X54060061Y-55717201D01*
X54175019Y-55889250D01*
X54175020Y-55889251D01*
X54175023Y-55889255D01*
X54321345Y-56035577D01*
X54493402Y-56150541D01*
X54684580Y-56229730D01*
X54684585Y-56229731D01*
X54684588Y-56229732D01*
X54787432Y-56250188D01*
X54887535Y-56270100D01*
X54887537Y-56270100D01*
X55094463Y-56270100D01*
X55094465Y-56270100D01*
X55227336Y-56243670D01*
X55297411Y-56229732D01*
X55297412Y-56229731D01*
X55297420Y-56229730D01*
X55488598Y-56150541D01*
X55660655Y-56035577D01*
X55806977Y-55889255D01*
X55921941Y-55717198D01*
X56001130Y-55526020D01*
X56041500Y-55323065D01*
X56041500Y-55116136D01*
X56480500Y-55116136D01*
X56480500Y-55323063D01*
X56520867Y-55526011D01*
X56520869Y-55526016D01*
X56520870Y-55526020D01*
X56600059Y-55717198D01*
X56600060Y-55717200D01*
X56600061Y-55717201D01*
X56715019Y-55889250D01*
X56715020Y-55889251D01*
X56715023Y-55889255D01*
X56861345Y-56035577D01*
X57033402Y-56150541D01*
X57224580Y-56229730D01*
X57224585Y-56229731D01*
X57224588Y-56229732D01*
X57327432Y-56250188D01*
X57427535Y-56270100D01*
X57427537Y-56270100D01*
X57634463Y-56270100D01*
X57634465Y-56270100D01*
X57767336Y-56243670D01*
X57837411Y-56229732D01*
X57837412Y-56229731D01*
X57837420Y-56229730D01*
X58028598Y-56150541D01*
X58200655Y-56035577D01*
X58346977Y-55889255D01*
X58461941Y-55717198D01*
X58541130Y-55526020D01*
X58581500Y-55323065D01*
X58581500Y-55116135D01*
X58541130Y-54913180D01*
X58461941Y-54722002D01*
X58346977Y-54549945D01*
X58200655Y-54403623D01*
X58200651Y-54403620D01*
X58200650Y-54403619D01*
X58028601Y-54288661D01*
X58028600Y-54288660D01*
X58028598Y-54288659D01*
X57837420Y-54209470D01*
X57837416Y-54209469D01*
X57837411Y-54209467D01*
X57684684Y-54179089D01*
X57634465Y-54169100D01*
X57427535Y-54169100D01*
X57382844Y-54177989D01*
X57224588Y-54209467D01*
X57224583Y-54209469D01*
X57224581Y-54209469D01*
X57224580Y-54209470D01*
X57033402Y-54288659D01*
X57033400Y-54288659D01*
X57033398Y-54288661D01*
X56861349Y-54403619D01*
X56715019Y-54549949D01*
X56600061Y-54721998D01*
X56520869Y-54913183D01*
X56520867Y-54913188D01*
X56480500Y-55116136D01*
X56041500Y-55116136D01*
X56041500Y-55116135D01*
X56001130Y-54913180D01*
X55921941Y-54722002D01*
X55806977Y-54549945D01*
X55660655Y-54403623D01*
X55660651Y-54403620D01*
X55660650Y-54403619D01*
X55488601Y-54288661D01*
X55488600Y-54288660D01*
X55488598Y-54288659D01*
X55297420Y-54209470D01*
X55297416Y-54209469D01*
X55297411Y-54209467D01*
X55144684Y-54179089D01*
X55094465Y-54169100D01*
X54887535Y-54169100D01*
X54842844Y-54177989D01*
X54684588Y-54209467D01*
X54684583Y-54209469D01*
X54684581Y-54209469D01*
X54684580Y-54209470D01*
X54493402Y-54288659D01*
X54493400Y-54288659D01*
X54493398Y-54288661D01*
X54321349Y-54403619D01*
X54175019Y-54549949D01*
X54060061Y-54721998D01*
X53980869Y-54913183D01*
X53980867Y-54913188D01*
X53940500Y-55116136D01*
X51397435Y-55116136D01*
X52010728Y-54502843D01*
X52088265Y-54386801D01*
X52119519Y-54311346D01*
X52135759Y-54272140D01*
X52135759Y-54272138D01*
X52141673Y-54257862D01*
X52161469Y-54158342D01*
X52168900Y-54120982D01*
X52168900Y-53981419D01*
X52168900Y-52576136D01*
X53940500Y-52576136D01*
X53940500Y-52783063D01*
X53980867Y-52986011D01*
X53980869Y-52986016D01*
X53980870Y-52986020D01*
X54060059Y-53177198D01*
X54060060Y-53177200D01*
X54060061Y-53177201D01*
X54175019Y-53349250D01*
X54175020Y-53349251D01*
X54175023Y-53349255D01*
X54321345Y-53495577D01*
X54321348Y-53495579D01*
X54321349Y-53495580D01*
X54407373Y-53553059D01*
X54493402Y-53610541D01*
X54684580Y-53689730D01*
X54684585Y-53689731D01*
X54684588Y-53689732D01*
X54787432Y-53710188D01*
X54887535Y-53730100D01*
X54887537Y-53730100D01*
X55094463Y-53730100D01*
X55094465Y-53730100D01*
X55227336Y-53703670D01*
X55297411Y-53689732D01*
X55297412Y-53689731D01*
X55297420Y-53689730D01*
X55488598Y-53610541D01*
X55660655Y-53495577D01*
X55806977Y-53349255D01*
X55921941Y-53177198D01*
X56001130Y-52986020D01*
X56041500Y-52783065D01*
X56041500Y-52576136D01*
X56480500Y-52576136D01*
X56480500Y-52783063D01*
X56520867Y-52986011D01*
X56520869Y-52986016D01*
X56520870Y-52986020D01*
X56600059Y-53177198D01*
X56600060Y-53177200D01*
X56600061Y-53177201D01*
X56715019Y-53349250D01*
X56715020Y-53349251D01*
X56715023Y-53349255D01*
X56861345Y-53495577D01*
X56861348Y-53495579D01*
X56861349Y-53495580D01*
X56947373Y-53553059D01*
X57033402Y-53610541D01*
X57224580Y-53689730D01*
X57224585Y-53689731D01*
X57224588Y-53689732D01*
X57327432Y-53710188D01*
X57427535Y-53730100D01*
X57427537Y-53730100D01*
X57634463Y-53730100D01*
X57634465Y-53730100D01*
X57767336Y-53703670D01*
X57837411Y-53689732D01*
X57837412Y-53689731D01*
X57837420Y-53689730D01*
X58028598Y-53610541D01*
X58200655Y-53495577D01*
X58346977Y-53349255D01*
X58461941Y-53177198D01*
X58541130Y-52986020D01*
X58581500Y-52783065D01*
X58581500Y-52576135D01*
X58552725Y-52431470D01*
X58541132Y-52373188D01*
X58541131Y-52373185D01*
X58541130Y-52373180D01*
X58461941Y-52182002D01*
X58369848Y-52044174D01*
X58346980Y-52009949D01*
X58346979Y-52009948D01*
X58346977Y-52009945D01*
X58200655Y-51863623D01*
X58200651Y-51863620D01*
X58200650Y-51863619D01*
X58028601Y-51748661D01*
X58028600Y-51748660D01*
X58028598Y-51748659D01*
X57837420Y-51669470D01*
X57837416Y-51669469D01*
X57837411Y-51669467D01*
X57684684Y-51639089D01*
X57634465Y-51629100D01*
X57427535Y-51629100D01*
X57382844Y-51637989D01*
X57224588Y-51669467D01*
X57224583Y-51669469D01*
X57224581Y-51669469D01*
X57224580Y-51669470D01*
X57033402Y-51748659D01*
X57033400Y-51748659D01*
X57033398Y-51748661D01*
X56861349Y-51863619D01*
X56715019Y-52009949D01*
X56600061Y-52181998D01*
X56520869Y-52373183D01*
X56520867Y-52373188D01*
X56480500Y-52576136D01*
X56041500Y-52576136D01*
X56041500Y-52576135D01*
X56012725Y-52431470D01*
X56001132Y-52373188D01*
X56001131Y-52373185D01*
X56001130Y-52373180D01*
X55921941Y-52182002D01*
X55829848Y-52044174D01*
X55806980Y-52009949D01*
X55806979Y-52009948D01*
X55806977Y-52009945D01*
X55660655Y-51863623D01*
X55660651Y-51863620D01*
X55660650Y-51863619D01*
X55488601Y-51748661D01*
X55488600Y-51748660D01*
X55488598Y-51748659D01*
X55297420Y-51669470D01*
X55297416Y-51669469D01*
X55297411Y-51669467D01*
X55144684Y-51639089D01*
X55094465Y-51629100D01*
X54887535Y-51629100D01*
X54842844Y-51637989D01*
X54684588Y-51669467D01*
X54684583Y-51669469D01*
X54684581Y-51669469D01*
X54684580Y-51669470D01*
X54493402Y-51748659D01*
X54493400Y-51748659D01*
X54493398Y-51748661D01*
X54321349Y-51863619D01*
X54175019Y-52009949D01*
X54060061Y-52181998D01*
X53980869Y-52373183D01*
X53980867Y-52373188D01*
X53940500Y-52576136D01*
X52168900Y-52576136D01*
X52168900Y-50036136D01*
X53940500Y-50036136D01*
X53940500Y-50243063D01*
X53980867Y-50446011D01*
X53980869Y-50446016D01*
X53980870Y-50446020D01*
X54060059Y-50637198D01*
X54060060Y-50637200D01*
X54060061Y-50637201D01*
X54175019Y-50809250D01*
X54175020Y-50809251D01*
X54175023Y-50809255D01*
X54321345Y-50955577D01*
X54321348Y-50955579D01*
X54321349Y-50955580D01*
X54407373Y-51013059D01*
X54493402Y-51070541D01*
X54684580Y-51149730D01*
X54684585Y-51149731D01*
X54684588Y-51149732D01*
X54785344Y-51169773D01*
X54887535Y-51190100D01*
X54887537Y-51190100D01*
X55094463Y-51190100D01*
X55094465Y-51190100D01*
X55227336Y-51163670D01*
X55297411Y-51149732D01*
X55297412Y-51149731D01*
X55297420Y-51149730D01*
X55488598Y-51070541D01*
X55660655Y-50955577D01*
X55806977Y-50809255D01*
X55921941Y-50637198D01*
X56001130Y-50446020D01*
X56041500Y-50243065D01*
X56041500Y-50036136D01*
X56480500Y-50036136D01*
X56480500Y-50243063D01*
X56520867Y-50446011D01*
X56520869Y-50446016D01*
X56520870Y-50446020D01*
X56600059Y-50637198D01*
X56600060Y-50637200D01*
X56600061Y-50637201D01*
X56715019Y-50809250D01*
X56715020Y-50809251D01*
X56715023Y-50809255D01*
X56861345Y-50955577D01*
X56861348Y-50955579D01*
X56861349Y-50955580D01*
X56947373Y-51013059D01*
X57033402Y-51070541D01*
X57224580Y-51149730D01*
X57224585Y-51149731D01*
X57224588Y-51149732D01*
X57325344Y-51169773D01*
X57427535Y-51190100D01*
X57427537Y-51190100D01*
X57634463Y-51190100D01*
X57634465Y-51190100D01*
X57767336Y-51163670D01*
X57837411Y-51149732D01*
X57837412Y-51149731D01*
X57837420Y-51149730D01*
X58028598Y-51070541D01*
X58200655Y-50955577D01*
X58346977Y-50809255D01*
X58461941Y-50637198D01*
X58541130Y-50446020D01*
X58581500Y-50243065D01*
X58581500Y-50036135D01*
X58552725Y-49891470D01*
X58541132Y-49833188D01*
X58541131Y-49833185D01*
X58541130Y-49833180D01*
X58461941Y-49642002D01*
X58372445Y-49508061D01*
X58346980Y-49469949D01*
X58346979Y-49469948D01*
X58346977Y-49469945D01*
X58200655Y-49323623D01*
X58200651Y-49323620D01*
X58200650Y-49323619D01*
X58028601Y-49208661D01*
X58028600Y-49208660D01*
X58028598Y-49208659D01*
X57837420Y-49129470D01*
X57837416Y-49129469D01*
X57837411Y-49129467D01*
X57684684Y-49099089D01*
X57634465Y-49089100D01*
X57427535Y-49089100D01*
X57382844Y-49097989D01*
X57224588Y-49129467D01*
X57224583Y-49129469D01*
X57224581Y-49129469D01*
X57224580Y-49129470D01*
X57033402Y-49208659D01*
X57033400Y-49208659D01*
X57033398Y-49208661D01*
X56861349Y-49323619D01*
X56715019Y-49469949D01*
X56600061Y-49641998D01*
X56600059Y-49642000D01*
X56600059Y-49642002D01*
X56520870Y-49833180D01*
X56520869Y-49833183D01*
X56520867Y-49833188D01*
X56480500Y-50036136D01*
X56041500Y-50036136D01*
X56041500Y-50036135D01*
X56012725Y-49891470D01*
X56001132Y-49833188D01*
X56001131Y-49833185D01*
X56001130Y-49833180D01*
X55921941Y-49642002D01*
X55832445Y-49508061D01*
X55806980Y-49469949D01*
X55806979Y-49469948D01*
X55806977Y-49469945D01*
X55660655Y-49323623D01*
X55660651Y-49323620D01*
X55660650Y-49323619D01*
X55488601Y-49208661D01*
X55488600Y-49208660D01*
X55488598Y-49208659D01*
X55297420Y-49129470D01*
X55297416Y-49129469D01*
X55297411Y-49129467D01*
X55144684Y-49099089D01*
X55094465Y-49089100D01*
X54887535Y-49089100D01*
X54842844Y-49097989D01*
X54684588Y-49129467D01*
X54684583Y-49129469D01*
X54684581Y-49129469D01*
X54684580Y-49129470D01*
X54493402Y-49208659D01*
X54493400Y-49208659D01*
X54493398Y-49208661D01*
X54321349Y-49323619D01*
X54175019Y-49469949D01*
X54060061Y-49641998D01*
X54060059Y-49642000D01*
X54060059Y-49642002D01*
X53980870Y-49833180D01*
X53980869Y-49833183D01*
X53980867Y-49833188D01*
X53940500Y-50036136D01*
X52168900Y-50036136D01*
X52168900Y-47496136D01*
X53940500Y-47496136D01*
X53940500Y-47703063D01*
X53980867Y-47906011D01*
X53980869Y-47906016D01*
X53980870Y-47906020D01*
X54060059Y-48097198D01*
X54060060Y-48097200D01*
X54060061Y-48097201D01*
X54175019Y-48269250D01*
X54175020Y-48269251D01*
X54175023Y-48269255D01*
X54321345Y-48415577D01*
X54321348Y-48415579D01*
X54321349Y-48415580D01*
X54407373Y-48473059D01*
X54493402Y-48530541D01*
X54684580Y-48609730D01*
X54684585Y-48609731D01*
X54684588Y-48609732D01*
X54787432Y-48630188D01*
X54887535Y-48650100D01*
X54887537Y-48650100D01*
X55094463Y-48650100D01*
X55094465Y-48650100D01*
X55227336Y-48623670D01*
X55297411Y-48609732D01*
X55297412Y-48609731D01*
X55297420Y-48609730D01*
X55488598Y-48530541D01*
X55660655Y-48415577D01*
X55806977Y-48269255D01*
X55921941Y-48097198D01*
X56001130Y-47906020D01*
X56041500Y-47703065D01*
X56041500Y-47496136D01*
X56480500Y-47496136D01*
X56480500Y-47703063D01*
X56520867Y-47906011D01*
X56520869Y-47906016D01*
X56520870Y-47906020D01*
X56600059Y-48097198D01*
X56600060Y-48097200D01*
X56600061Y-48097201D01*
X56715019Y-48269250D01*
X56715020Y-48269251D01*
X56715023Y-48269255D01*
X56861345Y-48415577D01*
X56861348Y-48415579D01*
X56861349Y-48415580D01*
X56947373Y-48473059D01*
X57033402Y-48530541D01*
X57224580Y-48609730D01*
X57224585Y-48609731D01*
X57224588Y-48609732D01*
X57327432Y-48630188D01*
X57427535Y-48650100D01*
X57427537Y-48650100D01*
X57634463Y-48650100D01*
X57634465Y-48650100D01*
X57767336Y-48623670D01*
X57837411Y-48609732D01*
X57837412Y-48609731D01*
X57837420Y-48609730D01*
X58028598Y-48530541D01*
X58200655Y-48415577D01*
X58346977Y-48269255D01*
X58461941Y-48097198D01*
X58541130Y-47906020D01*
X58581500Y-47703065D01*
X58581500Y-47496135D01*
X58552725Y-47351470D01*
X58541132Y-47293188D01*
X58541131Y-47293185D01*
X58541130Y-47293180D01*
X58461941Y-47102002D01*
X58346977Y-46929945D01*
X58200655Y-46783623D01*
X58200651Y-46783620D01*
X58200650Y-46783619D01*
X58028601Y-46668661D01*
X58028600Y-46668660D01*
X58028598Y-46668659D01*
X57837420Y-46589470D01*
X57837416Y-46589469D01*
X57837411Y-46589467D01*
X57684684Y-46559089D01*
X57634465Y-46549100D01*
X57427535Y-46549100D01*
X57382844Y-46557989D01*
X57224588Y-46589467D01*
X57224583Y-46589469D01*
X57224581Y-46589469D01*
X57224580Y-46589470D01*
X57033402Y-46668659D01*
X57033400Y-46668659D01*
X57033398Y-46668661D01*
X56861349Y-46783619D01*
X56715019Y-46929949D01*
X56600061Y-47101998D01*
X56520869Y-47293183D01*
X56520867Y-47293188D01*
X56480500Y-47496136D01*
X56041500Y-47496136D01*
X56041500Y-47496135D01*
X56012725Y-47351470D01*
X56001132Y-47293188D01*
X56001131Y-47293185D01*
X56001130Y-47293180D01*
X55921941Y-47102002D01*
X55806977Y-46929945D01*
X55660655Y-46783623D01*
X55660651Y-46783620D01*
X55660650Y-46783619D01*
X55488601Y-46668661D01*
X55488600Y-46668660D01*
X55488598Y-46668659D01*
X55297420Y-46589470D01*
X55297416Y-46589469D01*
X55297411Y-46589467D01*
X55144684Y-46559089D01*
X55094465Y-46549100D01*
X54887535Y-46549100D01*
X54842844Y-46557989D01*
X54684588Y-46589467D01*
X54684583Y-46589469D01*
X54684581Y-46589469D01*
X54684580Y-46589470D01*
X54493402Y-46668659D01*
X54493400Y-46668659D01*
X54493398Y-46668661D01*
X54321349Y-46783619D01*
X54175019Y-46929949D01*
X54060061Y-47101998D01*
X53980869Y-47293183D01*
X53980867Y-47293188D01*
X53940500Y-47496136D01*
X52168900Y-47496136D01*
X52168900Y-44956136D01*
X53940500Y-44956136D01*
X53940500Y-45163063D01*
X53980867Y-45366011D01*
X53980869Y-45366016D01*
X53980870Y-45366020D01*
X54060059Y-45557198D01*
X54060060Y-45557200D01*
X54060061Y-45557201D01*
X54175019Y-45729250D01*
X54175020Y-45729251D01*
X54175023Y-45729255D01*
X54321345Y-45875577D01*
X54321348Y-45875579D01*
X54321349Y-45875580D01*
X54407373Y-45933059D01*
X54493402Y-45990541D01*
X54684580Y-46069730D01*
X54684585Y-46069731D01*
X54684588Y-46069732D01*
X54787432Y-46090188D01*
X54887535Y-46110100D01*
X54887537Y-46110100D01*
X55094463Y-46110100D01*
X55094465Y-46110100D01*
X55227336Y-46083670D01*
X55297411Y-46069732D01*
X55297412Y-46069731D01*
X55297420Y-46069730D01*
X55488598Y-45990541D01*
X55660655Y-45875577D01*
X55806977Y-45729255D01*
X55921941Y-45557198D01*
X56001130Y-45366020D01*
X56041500Y-45163065D01*
X56041500Y-44956136D01*
X56480500Y-44956136D01*
X56480500Y-45163063D01*
X56520867Y-45366011D01*
X56520869Y-45366016D01*
X56520870Y-45366020D01*
X56600059Y-45557198D01*
X56600060Y-45557200D01*
X56600061Y-45557201D01*
X56715019Y-45729250D01*
X56715020Y-45729251D01*
X56715023Y-45729255D01*
X56861345Y-45875577D01*
X56861348Y-45875579D01*
X56861349Y-45875580D01*
X56947373Y-45933059D01*
X57033402Y-45990541D01*
X57224580Y-46069730D01*
X57224585Y-46069731D01*
X57224588Y-46069732D01*
X57327432Y-46090188D01*
X57427535Y-46110100D01*
X57427537Y-46110100D01*
X57634463Y-46110100D01*
X57634465Y-46110100D01*
X57767336Y-46083670D01*
X57837411Y-46069732D01*
X57837412Y-46069731D01*
X57837420Y-46069730D01*
X58028598Y-45990541D01*
X58200655Y-45875577D01*
X58346977Y-45729255D01*
X58461941Y-45557198D01*
X58541130Y-45366020D01*
X58581500Y-45163065D01*
X58581500Y-44956135D01*
X58552725Y-44811470D01*
X58541132Y-44753188D01*
X58541131Y-44753185D01*
X58541130Y-44753180D01*
X58461941Y-44562002D01*
X58346977Y-44389945D01*
X58200655Y-44243623D01*
X58200651Y-44243620D01*
X58200650Y-44243619D01*
X58028601Y-44128661D01*
X58028600Y-44128660D01*
X58028598Y-44128659D01*
X57837420Y-44049470D01*
X57837416Y-44049469D01*
X57837411Y-44049467D01*
X57684684Y-44019089D01*
X57634465Y-44009100D01*
X57427535Y-44009100D01*
X57382844Y-44017989D01*
X57224588Y-44049467D01*
X57224583Y-44049469D01*
X57224581Y-44049469D01*
X57224580Y-44049470D01*
X57033402Y-44128659D01*
X57033400Y-44128659D01*
X57033398Y-44128661D01*
X56861349Y-44243619D01*
X56715019Y-44389949D01*
X56600061Y-44561998D01*
X56520869Y-44753183D01*
X56520867Y-44753188D01*
X56480500Y-44956136D01*
X56041500Y-44956136D01*
X56041500Y-44956135D01*
X56012725Y-44811470D01*
X56001132Y-44753188D01*
X56001131Y-44753185D01*
X56001130Y-44753180D01*
X55921941Y-44562002D01*
X55806977Y-44389945D01*
X55660655Y-44243623D01*
X55660651Y-44243620D01*
X55660650Y-44243619D01*
X55488601Y-44128661D01*
X55488600Y-44128660D01*
X55488598Y-44128659D01*
X55297420Y-44049470D01*
X55297416Y-44049469D01*
X55297411Y-44049467D01*
X55144684Y-44019089D01*
X55094465Y-44009100D01*
X54887535Y-44009100D01*
X54842844Y-44017989D01*
X54684588Y-44049467D01*
X54684583Y-44049469D01*
X54684581Y-44049469D01*
X54684580Y-44049470D01*
X54493402Y-44128659D01*
X54493400Y-44128659D01*
X54493398Y-44128661D01*
X54321349Y-44243619D01*
X54175019Y-44389949D01*
X54060061Y-44561998D01*
X53980869Y-44753183D01*
X53980867Y-44753188D01*
X53940500Y-44956136D01*
X52168900Y-44956136D01*
X52168900Y-43316000D01*
X52189465Y-43259499D01*
X52241536Y-43229435D01*
X52256800Y-43228100D01*
X54177458Y-43228100D01*
X54233959Y-43248665D01*
X54239612Y-43253845D01*
X54321343Y-43335575D01*
X54321349Y-43335580D01*
X54407373Y-43393059D01*
X54493402Y-43450541D01*
X54684580Y-43529730D01*
X54684585Y-43529731D01*
X54684588Y-43529732D01*
X54787432Y-43550188D01*
X54887535Y-43570100D01*
X54887537Y-43570100D01*
X55094463Y-43570100D01*
X55094465Y-43570100D01*
X55227336Y-43543670D01*
X55297411Y-43529732D01*
X55297412Y-43529731D01*
X55297420Y-43529730D01*
X55488598Y-43450541D01*
X55660655Y-43335577D01*
X55806977Y-43189255D01*
X55921941Y-43017198D01*
X56001130Y-42826020D01*
X56041500Y-42623065D01*
X56041500Y-42416136D01*
X56480500Y-42416136D01*
X56480500Y-42623063D01*
X56520867Y-42826011D01*
X56520869Y-42826016D01*
X56520870Y-42826020D01*
X56600059Y-43017198D01*
X56600060Y-43017200D01*
X56600061Y-43017201D01*
X56715019Y-43189250D01*
X56715020Y-43189251D01*
X56715023Y-43189255D01*
X56861345Y-43335577D01*
X56861348Y-43335579D01*
X56861349Y-43335580D01*
X56947373Y-43393059D01*
X57033402Y-43450541D01*
X57224580Y-43529730D01*
X57224585Y-43529731D01*
X57224588Y-43529732D01*
X57327432Y-43550188D01*
X57427535Y-43570100D01*
X57427537Y-43570100D01*
X57634463Y-43570100D01*
X57634465Y-43570100D01*
X57767336Y-43543670D01*
X57837411Y-43529732D01*
X57837412Y-43529731D01*
X57837420Y-43529730D01*
X58028598Y-43450541D01*
X58200655Y-43335577D01*
X58346977Y-43189255D01*
X58461941Y-43017198D01*
X58541130Y-42826020D01*
X58581500Y-42623065D01*
X58581500Y-42416135D01*
X58558685Y-42301435D01*
X58541132Y-42213188D01*
X58541131Y-42213185D01*
X58541130Y-42213180D01*
X58461941Y-42022002D01*
X58374899Y-41891733D01*
X58346980Y-41849949D01*
X58346979Y-41849948D01*
X58346977Y-41849945D01*
X58200655Y-41703623D01*
X58200651Y-41703620D01*
X58200650Y-41703619D01*
X58028601Y-41588661D01*
X58028600Y-41588660D01*
X58028598Y-41588659D01*
X57837420Y-41509470D01*
X57837416Y-41509469D01*
X57837411Y-41509467D01*
X57684684Y-41479089D01*
X57634465Y-41469100D01*
X57427535Y-41469100D01*
X57382844Y-41477989D01*
X57224588Y-41509467D01*
X57224583Y-41509469D01*
X57224581Y-41509469D01*
X57224580Y-41509470D01*
X57033402Y-41588659D01*
X57033400Y-41588659D01*
X57033398Y-41588661D01*
X56861349Y-41703619D01*
X56715019Y-41849949D01*
X56600061Y-42021998D01*
X56520869Y-42213183D01*
X56520867Y-42213188D01*
X56480500Y-42416136D01*
X56041500Y-42416136D01*
X56041500Y-42416135D01*
X56018685Y-42301435D01*
X56001132Y-42213188D01*
X56001131Y-42213185D01*
X56001130Y-42213180D01*
X55921941Y-42022002D01*
X55834899Y-41891733D01*
X55806980Y-41849949D01*
X55806979Y-41849948D01*
X55806977Y-41849945D01*
X55660655Y-41703623D01*
X55660651Y-41703620D01*
X55660650Y-41703619D01*
X55488601Y-41588661D01*
X55488600Y-41588660D01*
X55488598Y-41588659D01*
X55297420Y-41509470D01*
X55297416Y-41509469D01*
X55297411Y-41509467D01*
X55144684Y-41479089D01*
X55094465Y-41469100D01*
X54887535Y-41469100D01*
X54842844Y-41477989D01*
X54684588Y-41509467D01*
X54684583Y-41509469D01*
X54684581Y-41509469D01*
X54684580Y-41509470D01*
X54493402Y-41588659D01*
X54493400Y-41588659D01*
X54493398Y-41588661D01*
X54321349Y-41703619D01*
X54321343Y-41703624D01*
X54239612Y-41785355D01*
X54185118Y-41810766D01*
X54177458Y-41811100D01*
X40417819Y-41811100D01*
X40390668Y-41816500D01*
X40280945Y-41838324D01*
X40280938Y-41838327D01*
X40241855Y-41854516D01*
X40152002Y-41891733D01*
X40035960Y-41969270D01*
X33438074Y-48567155D01*
X33383580Y-48592566D01*
X33375919Y-48592900D01*
X23504000Y-48592900D01*
X23447499Y-48572335D01*
X23417435Y-48520264D01*
X23416100Y-48505000D01*
X23416100Y-39876136D01*
X53940500Y-39876136D01*
X53940500Y-40083063D01*
X53980867Y-40286011D01*
X53980869Y-40286016D01*
X53980870Y-40286020D01*
X54060059Y-40477198D01*
X54060060Y-40477200D01*
X54060061Y-40477201D01*
X54175019Y-40649250D01*
X54175020Y-40649251D01*
X54175023Y-40649255D01*
X54321345Y-40795577D01*
X54493402Y-40910541D01*
X54684580Y-40989730D01*
X54684585Y-40989731D01*
X54684588Y-40989732D01*
X54787432Y-41010188D01*
X54887535Y-41030100D01*
X54887537Y-41030100D01*
X55094463Y-41030100D01*
X55094465Y-41030100D01*
X55227336Y-41003670D01*
X55297411Y-40989732D01*
X55297412Y-40989731D01*
X55297420Y-40989730D01*
X55488598Y-40910541D01*
X55660655Y-40795577D01*
X55806977Y-40649255D01*
X55921941Y-40477198D01*
X56001130Y-40286020D01*
X56041500Y-40083065D01*
X56041500Y-39876135D01*
X56012353Y-39729600D01*
X56532792Y-39729600D01*
X57097988Y-39729600D01*
X57065075Y-39786607D01*
X57031000Y-39913774D01*
X57031000Y-40045426D01*
X57065075Y-40172593D01*
X57097988Y-40229600D01*
X56532793Y-40229600D01*
X56542695Y-40279389D01*
X56542700Y-40279403D01*
X56620177Y-40466446D01*
X56732654Y-40634781D01*
X56875818Y-40777945D01*
X57044153Y-40890422D01*
X57231196Y-40967899D01*
X57231210Y-40967904D01*
X57281000Y-40977807D01*
X57281000Y-40412612D01*
X57338007Y-40445525D01*
X57465174Y-40479600D01*
X57596826Y-40479600D01*
X57723993Y-40445525D01*
X57781000Y-40412612D01*
X57781000Y-40977806D01*
X57830789Y-40967904D01*
X57830803Y-40967899D01*
X58017846Y-40890422D01*
X58186181Y-40777945D01*
X58329345Y-40634781D01*
X58441822Y-40466446D01*
X58519299Y-40279403D01*
X58519304Y-40279389D01*
X58529207Y-40229600D01*
X57964012Y-40229600D01*
X57996925Y-40172593D01*
X58031000Y-40045426D01*
X58031000Y-39913774D01*
X57996925Y-39786607D01*
X57964012Y-39729600D01*
X58529207Y-39729600D01*
X58519304Y-39679810D01*
X58519299Y-39679796D01*
X58441822Y-39492753D01*
X58329345Y-39324418D01*
X58186181Y-39181254D01*
X58017847Y-39068777D01*
X57830804Y-38991301D01*
X57830795Y-38991298D01*
X57781000Y-38981392D01*
X57781000Y-39546588D01*
X57723993Y-39513675D01*
X57596826Y-39479600D01*
X57465174Y-39479600D01*
X57338007Y-39513675D01*
X57281000Y-39546588D01*
X57281000Y-38981392D01*
X57231204Y-38991298D01*
X57231195Y-38991301D01*
X57044152Y-39068777D01*
X56875818Y-39181254D01*
X56732654Y-39324418D01*
X56620177Y-39492753D01*
X56542700Y-39679796D01*
X56542695Y-39679810D01*
X56532792Y-39729600D01*
X56012353Y-39729600D01*
X56001132Y-39673188D01*
X56001131Y-39673185D01*
X56001130Y-39673180D01*
X55921941Y-39482002D01*
X55864459Y-39395973D01*
X55806980Y-39309949D01*
X55806979Y-39309948D01*
X55806977Y-39309945D01*
X55660655Y-39163623D01*
X55660651Y-39163620D01*
X55660650Y-39163619D01*
X55488601Y-39048661D01*
X55488600Y-39048660D01*
X55488598Y-39048659D01*
X55297420Y-38969470D01*
X55297416Y-38969469D01*
X55297411Y-38969467D01*
X55144684Y-38939089D01*
X55094465Y-38929100D01*
X54887535Y-38929100D01*
X54842844Y-38937989D01*
X54684588Y-38969467D01*
X54684583Y-38969469D01*
X54684581Y-38969469D01*
X54684580Y-38969470D01*
X54493402Y-39048659D01*
X54493400Y-39048659D01*
X54493398Y-39048661D01*
X54321349Y-39163619D01*
X54175019Y-39309949D01*
X54060061Y-39481998D01*
X54060059Y-39482000D01*
X54060059Y-39482002D01*
X53981113Y-39672593D01*
X53980869Y-39673183D01*
X53980867Y-39673188D01*
X53940500Y-39876136D01*
X23416100Y-39876136D01*
X23416100Y-26295420D01*
X31320900Y-26295420D01*
X31320900Y-26434979D01*
X31348124Y-26571854D01*
X31348126Y-26571860D01*
X31348127Y-26571862D01*
X31401536Y-26700801D01*
X31401537Y-26700802D01*
X31401537Y-26700803D01*
X31479068Y-26816837D01*
X31479069Y-26816838D01*
X31479072Y-26816842D01*
X31577758Y-26915528D01*
X31577761Y-26915530D01*
X31577762Y-26915531D01*
X31678845Y-26983072D01*
X31693799Y-26993064D01*
X31822738Y-27046473D01*
X31822742Y-27046473D01*
X31822745Y-27046475D01*
X31905464Y-27062928D01*
X31959619Y-27073700D01*
X49200119Y-27073700D01*
X49256620Y-27094265D01*
X49262274Y-27099445D01*
X54265755Y-32102926D01*
X54291166Y-32157420D01*
X54291500Y-32165081D01*
X54291500Y-36301200D01*
X54270935Y-36357701D01*
X54218864Y-36387765D01*
X54203600Y-36389100D01*
X54121252Y-36389100D01*
X54092010Y-36394916D01*
X54062767Y-36400733D01*
X53996451Y-36445045D01*
X53996445Y-36445051D01*
X53952133Y-36511367D01*
X53940500Y-36569853D01*
X53940500Y-38309346D01*
X53952133Y-38367832D01*
X53996445Y-38434148D01*
X53996448Y-38434152D01*
X53996451Y-38434154D01*
X54062767Y-38478466D01*
X54062769Y-38478467D01*
X54121252Y-38490100D01*
X54121254Y-38490100D01*
X55860746Y-38490100D01*
X55860748Y-38490100D01*
X55919231Y-38478467D01*
X55985552Y-38434152D01*
X56029867Y-38367831D01*
X56041500Y-38309348D01*
X56041500Y-37336136D01*
X56480500Y-37336136D01*
X56480500Y-37543063D01*
X56520867Y-37746011D01*
X56520869Y-37746016D01*
X56520870Y-37746020D01*
X56600059Y-37937198D01*
X56600060Y-37937200D01*
X56600061Y-37937201D01*
X56715019Y-38109250D01*
X56715020Y-38109251D01*
X56715023Y-38109255D01*
X56861345Y-38255577D01*
X57033402Y-38370541D01*
X57224580Y-38449730D01*
X57224585Y-38449731D01*
X57224588Y-38449732D01*
X57327432Y-38470188D01*
X57427535Y-38490100D01*
X57427537Y-38490100D01*
X57634463Y-38490100D01*
X57634465Y-38490100D01*
X57767336Y-38463670D01*
X57837411Y-38449732D01*
X57837412Y-38449731D01*
X57837420Y-38449730D01*
X58028598Y-38370541D01*
X58200655Y-38255577D01*
X58346977Y-38109255D01*
X58461941Y-37937198D01*
X58541130Y-37746020D01*
X58581500Y-37543065D01*
X58581500Y-37336135D01*
X58541130Y-37133180D01*
X58461941Y-36942002D01*
X58346977Y-36769945D01*
X58200655Y-36623623D01*
X58200651Y-36623620D01*
X58200650Y-36623619D01*
X58028601Y-36508661D01*
X58028600Y-36508660D01*
X58028598Y-36508659D01*
X57837420Y-36429470D01*
X57837416Y-36429469D01*
X57837411Y-36429467D01*
X57684684Y-36399089D01*
X57634465Y-36389100D01*
X57427535Y-36389100D01*
X57382844Y-36397989D01*
X57224588Y-36429467D01*
X57224583Y-36429469D01*
X57224581Y-36429469D01*
X57224580Y-36429470D01*
X57033402Y-36508659D01*
X57033400Y-36508659D01*
X57033398Y-36508661D01*
X56861349Y-36623619D01*
X56715019Y-36769949D01*
X56600061Y-36941998D01*
X56520869Y-37133183D01*
X56520867Y-37133188D01*
X56480500Y-37336136D01*
X56041500Y-37336136D01*
X56041500Y-36569852D01*
X56029867Y-36511369D01*
X56028056Y-36508659D01*
X55985554Y-36445051D01*
X55985552Y-36445048D01*
X55985548Y-36445045D01*
X55919232Y-36400733D01*
X55899736Y-36396855D01*
X55860748Y-36389100D01*
X55860746Y-36389100D01*
X55796400Y-36389100D01*
X55739899Y-36368535D01*
X55709835Y-36316464D01*
X55708500Y-36301200D01*
X55708500Y-31765420D01*
X55681274Y-31628541D01*
X55681273Y-31628539D01*
X55681273Y-31628538D01*
X55654181Y-31563132D01*
X55627867Y-31499603D01*
X55627867Y-31499602D01*
X55572975Y-31417451D01*
X55550328Y-31383557D01*
X49981643Y-25814872D01*
X49865601Y-25737335D01*
X49774427Y-25699569D01*
X49774426Y-25699568D01*
X49736663Y-25683927D01*
X49736657Y-25683925D01*
X49668221Y-25670313D01*
X49645408Y-25665775D01*
X49599784Y-25656700D01*
X49599782Y-25656700D01*
X49599781Y-25656700D01*
X31959619Y-25656700D01*
X31932468Y-25662100D01*
X31822745Y-25683924D01*
X31822738Y-25683927D01*
X31693802Y-25737335D01*
X31693797Y-25737337D01*
X31693796Y-25737337D01*
X31577762Y-25814868D01*
X31479068Y-25913562D01*
X31401537Y-26029596D01*
X31401537Y-26029597D01*
X31348127Y-26158538D01*
X31348124Y-26158545D01*
X31320900Y-26295420D01*
X23416100Y-26295420D01*
X23416100Y-22066452D01*
X40427700Y-22066452D01*
X40427700Y-23805948D01*
X40435455Y-23844936D01*
X40439333Y-23864432D01*
X40471930Y-23913215D01*
X40483648Y-23930752D01*
X40483651Y-23930754D01*
X40549967Y-23975066D01*
X40549969Y-23975067D01*
X40608452Y-23986700D01*
X40608454Y-23986700D01*
X42347946Y-23986700D01*
X42347948Y-23986700D01*
X42406431Y-23975067D01*
X42472752Y-23930752D01*
X42517067Y-23864431D01*
X42528700Y-23805948D01*
X42528700Y-22091853D01*
X45126700Y-22091853D01*
X45126700Y-23831346D01*
X45138333Y-23889832D01*
X45153959Y-23913217D01*
X45182648Y-23956152D01*
X45182651Y-23956154D01*
X45248967Y-24000466D01*
X45248969Y-24000467D01*
X45307452Y-24012100D01*
X45307454Y-24012100D01*
X47046946Y-24012100D01*
X47046948Y-24012100D01*
X47105431Y-24000467D01*
X47171752Y-23956152D01*
X47216067Y-23889831D01*
X47227700Y-23831348D01*
X47227700Y-22091852D01*
X47216067Y-22033369D01*
X47171752Y-21967048D01*
X47171748Y-21967045D01*
X47105432Y-21922733D01*
X47085936Y-21918855D01*
X47046948Y-21911100D01*
X45307452Y-21911100D01*
X45278210Y-21916916D01*
X45248967Y-21922733D01*
X45182651Y-21967045D01*
X45182645Y-21967051D01*
X45138333Y-22033367D01*
X45126700Y-22091853D01*
X42528700Y-22091853D01*
X42528700Y-22066452D01*
X42517067Y-22007969D01*
X42472752Y-21941648D01*
X42472748Y-21941645D01*
X42406432Y-21897333D01*
X42386936Y-21893455D01*
X42347948Y-21885700D01*
X40608452Y-21885700D01*
X40579210Y-21891516D01*
X40549967Y-21897333D01*
X40483651Y-21941645D01*
X40483645Y-21941651D01*
X40439333Y-22007967D01*
X40431577Y-22046957D01*
X40427700Y-22066452D01*
X23416100Y-22066452D01*
X23416100Y-9575479D01*
X23436665Y-9518978D01*
X23441834Y-9513335D01*
X27347328Y-5607842D01*
X27424865Y-5491801D01*
X27478273Y-5362861D01*
X27489738Y-5305225D01*
X27497819Y-5264596D01*
X27505500Y-5225984D01*
X27505500Y-5035620D01*
X27478275Y-4898745D01*
X27478273Y-4898742D01*
X27478273Y-4898738D01*
X27424864Y-4769799D01*
X27354202Y-4664045D01*
X27347331Y-4653762D01*
X27347329Y-4653760D01*
X27347328Y-4653758D01*
X27248642Y-4555072D01*
X27248638Y-4555069D01*
X27248637Y-4555068D01*
X27132603Y-4477537D01*
X27127596Y-4475463D01*
X27003662Y-4424127D01*
X27003660Y-4424126D01*
X27003654Y-4424124D01*
X26896920Y-4402895D01*
X26866781Y-4396900D01*
X26727219Y-4396900D01*
X26700068Y-4402300D01*
X26590345Y-4424124D01*
X26590338Y-4424127D01*
X26461397Y-4477537D01*
X26461396Y-4477537D01*
X26345362Y-4555068D01*
X26246670Y-4653760D01*
X26169135Y-4769799D01*
X26167128Y-4774644D01*
X26148079Y-4803149D01*
X22157270Y-8793959D01*
X22079734Y-8910000D01*
X22065774Y-8943704D01*
X22026327Y-9038937D01*
X22026324Y-9038946D01*
X22002468Y-9158884D01*
X21999100Y-9175819D01*
X21999100Y-49231618D01*
X21999100Y-49231619D01*
X21999100Y-49371181D01*
X21999210Y-49371732D01*
X22026324Y-49508054D01*
X22026326Y-49508060D01*
X22026327Y-49508062D01*
X22079736Y-49637001D01*
X22079737Y-49637002D01*
X22079737Y-49637003D01*
X22157268Y-49753037D01*
X22157269Y-49753038D01*
X22157272Y-49753042D01*
X22255958Y-49851728D01*
X22255961Y-49851730D01*
X22255962Y-49851731D01*
X22315436Y-49891470D01*
X22371999Y-49929264D01*
X22500938Y-49982673D01*
X22500942Y-49982673D01*
X22500945Y-49982675D01*
X22583664Y-49999128D01*
X22637819Y-50009900D01*
X22637821Y-50009900D01*
X33775580Y-50009900D01*
X33775582Y-50009900D01*
X33844021Y-49996286D01*
X33912462Y-49982673D01*
X33950227Y-49967030D01*
X34041401Y-49929265D01*
X34157443Y-49851728D01*
X35751035Y-48258136D01*
X44212300Y-48258136D01*
X44212300Y-48465063D01*
X44252667Y-48668011D01*
X44252669Y-48668016D01*
X44252670Y-48668020D01*
X44331859Y-48859198D01*
X44331860Y-48859200D01*
X44331861Y-48859201D01*
X44446819Y-49031250D01*
X44446820Y-49031251D01*
X44446823Y-49031255D01*
X44593145Y-49177577D01*
X44765202Y-49292541D01*
X44956380Y-49371730D01*
X44956385Y-49371731D01*
X44956388Y-49371732D01*
X45059232Y-49392188D01*
X45159335Y-49412100D01*
X45159337Y-49412100D01*
X45366263Y-49412100D01*
X45366265Y-49412100D01*
X45499136Y-49385670D01*
X45569211Y-49371732D01*
X45569212Y-49371731D01*
X45569220Y-49371730D01*
X45760398Y-49292541D01*
X45932455Y-49177577D01*
X46078777Y-49031255D01*
X46193741Y-48859198D01*
X46272930Y-48668020D01*
X46276495Y-48650100D01*
X46300276Y-48530541D01*
X46313300Y-48465065D01*
X46313300Y-48258136D01*
X46752300Y-48258136D01*
X46752300Y-48465063D01*
X46792667Y-48668011D01*
X46792669Y-48668016D01*
X46792670Y-48668020D01*
X46871859Y-48859198D01*
X46871860Y-48859200D01*
X46871861Y-48859201D01*
X46986819Y-49031250D01*
X46986820Y-49031251D01*
X46986823Y-49031255D01*
X47133145Y-49177577D01*
X47305202Y-49292541D01*
X47496380Y-49371730D01*
X47496385Y-49371731D01*
X47496388Y-49371732D01*
X47599232Y-49392188D01*
X47699335Y-49412100D01*
X47699337Y-49412100D01*
X47906263Y-49412100D01*
X47906265Y-49412100D01*
X48039136Y-49385670D01*
X48109211Y-49371732D01*
X48109212Y-49371731D01*
X48109220Y-49371730D01*
X48300398Y-49292541D01*
X48472455Y-49177577D01*
X48618777Y-49031255D01*
X48733741Y-48859198D01*
X48812930Y-48668020D01*
X48816495Y-48650100D01*
X48840276Y-48530541D01*
X48853300Y-48465065D01*
X48853300Y-48258135D01*
X48840078Y-48191662D01*
X48812932Y-48055188D01*
X48812931Y-48055185D01*
X48812930Y-48055180D01*
X48733741Y-47864002D01*
X48618777Y-47691945D01*
X48472455Y-47545623D01*
X48472451Y-47545620D01*
X48472450Y-47545619D01*
X48300401Y-47430661D01*
X48300400Y-47430660D01*
X48300398Y-47430659D01*
X48109220Y-47351470D01*
X48109216Y-47351469D01*
X48109211Y-47351467D01*
X47956484Y-47321089D01*
X47906265Y-47311100D01*
X47699335Y-47311100D01*
X47654644Y-47319989D01*
X47496388Y-47351467D01*
X47496383Y-47351469D01*
X47496381Y-47351469D01*
X47496380Y-47351470D01*
X47305202Y-47430659D01*
X47305200Y-47430659D01*
X47305198Y-47430661D01*
X47133149Y-47545619D01*
X46986819Y-47691949D01*
X46871861Y-47863998D01*
X46871859Y-47864000D01*
X46871859Y-47864002D01*
X46792670Y-48055180D01*
X46792669Y-48055183D01*
X46792667Y-48055188D01*
X46752300Y-48258136D01*
X46313300Y-48258136D01*
X46313300Y-48258135D01*
X46300078Y-48191662D01*
X46272932Y-48055188D01*
X46272931Y-48055185D01*
X46272930Y-48055180D01*
X46193741Y-47864002D01*
X46078777Y-47691945D01*
X45932455Y-47545623D01*
X45932451Y-47545620D01*
X45932450Y-47545619D01*
X45760401Y-47430661D01*
X45760400Y-47430660D01*
X45760398Y-47430659D01*
X45569220Y-47351470D01*
X45569216Y-47351469D01*
X45569211Y-47351467D01*
X45416484Y-47321089D01*
X45366265Y-47311100D01*
X45159335Y-47311100D01*
X45114644Y-47319989D01*
X44956388Y-47351467D01*
X44956383Y-47351469D01*
X44956381Y-47351469D01*
X44956380Y-47351470D01*
X44765202Y-47430659D01*
X44765200Y-47430659D01*
X44765198Y-47430661D01*
X44593149Y-47545619D01*
X44446819Y-47691949D01*
X44331861Y-47863998D01*
X44331859Y-47864000D01*
X44331859Y-47864002D01*
X44252670Y-48055180D01*
X44252669Y-48055183D01*
X44252667Y-48055188D01*
X44212300Y-48258136D01*
X35751035Y-48258136D01*
X38291034Y-45718136D01*
X44212300Y-45718136D01*
X44212300Y-45925063D01*
X44252667Y-46128011D01*
X44252669Y-46128016D01*
X44252670Y-46128020D01*
X44331859Y-46319198D01*
X44331860Y-46319200D01*
X44331861Y-46319201D01*
X44446819Y-46491250D01*
X44446820Y-46491251D01*
X44446823Y-46491255D01*
X44593145Y-46637577D01*
X44765202Y-46752541D01*
X44956380Y-46831730D01*
X44956385Y-46831731D01*
X44956388Y-46831732D01*
X45059232Y-46852188D01*
X45159335Y-46872100D01*
X45159337Y-46872100D01*
X45366263Y-46872100D01*
X45366265Y-46872100D01*
X45499136Y-46845670D01*
X45569211Y-46831732D01*
X45569212Y-46831731D01*
X45569220Y-46831730D01*
X45760398Y-46752541D01*
X45932455Y-46637577D01*
X46078777Y-46491255D01*
X46193741Y-46319198D01*
X46272930Y-46128020D01*
X46276495Y-46110100D01*
X46300276Y-45990541D01*
X46313300Y-45925065D01*
X46313300Y-45718136D01*
X46752300Y-45718136D01*
X46752300Y-45925063D01*
X46792667Y-46128011D01*
X46792669Y-46128016D01*
X46792670Y-46128020D01*
X46871859Y-46319198D01*
X46871860Y-46319200D01*
X46871861Y-46319201D01*
X46986819Y-46491250D01*
X46986820Y-46491251D01*
X46986823Y-46491255D01*
X47133145Y-46637577D01*
X47305202Y-46752541D01*
X47496380Y-46831730D01*
X47496385Y-46831731D01*
X47496388Y-46831732D01*
X47599232Y-46852188D01*
X47699335Y-46872100D01*
X47699337Y-46872100D01*
X47906263Y-46872100D01*
X47906265Y-46872100D01*
X48039136Y-46845670D01*
X48109211Y-46831732D01*
X48109212Y-46831731D01*
X48109220Y-46831730D01*
X48300398Y-46752541D01*
X48472455Y-46637577D01*
X48618777Y-46491255D01*
X48733741Y-46319198D01*
X48812930Y-46128020D01*
X48816495Y-46110100D01*
X48840276Y-45990541D01*
X48853300Y-45925065D01*
X48853300Y-45718135D01*
X48825981Y-45580791D01*
X48812932Y-45515188D01*
X48812931Y-45515185D01*
X48812930Y-45515180D01*
X48733741Y-45324002D01*
X48618777Y-45151945D01*
X48472455Y-45005623D01*
X48472451Y-45005620D01*
X48472450Y-45005619D01*
X48300401Y-44890661D01*
X48300400Y-44890660D01*
X48300398Y-44890659D01*
X48109220Y-44811470D01*
X48109216Y-44811469D01*
X48109211Y-44811467D01*
X47952678Y-44780332D01*
X47906265Y-44771100D01*
X47699335Y-44771100D01*
X47654644Y-44779989D01*
X47496388Y-44811467D01*
X47496383Y-44811469D01*
X47496381Y-44811469D01*
X47496380Y-44811470D01*
X47305202Y-44890659D01*
X47305200Y-44890659D01*
X47305198Y-44890661D01*
X47133149Y-45005619D01*
X46986819Y-45151949D01*
X46871861Y-45323998D01*
X46871859Y-45324000D01*
X46871859Y-45324002D01*
X46795415Y-45508553D01*
X46792669Y-45515183D01*
X46792667Y-45515188D01*
X46752300Y-45718136D01*
X46313300Y-45718136D01*
X46313300Y-45718135D01*
X46285981Y-45580791D01*
X46272932Y-45515188D01*
X46272931Y-45515185D01*
X46272930Y-45515180D01*
X46193741Y-45324002D01*
X46078777Y-45151945D01*
X45932455Y-45005623D01*
X45932451Y-45005620D01*
X45932450Y-45005619D01*
X45760401Y-44890661D01*
X45760400Y-44890660D01*
X45760398Y-44890659D01*
X45569220Y-44811470D01*
X45569216Y-44811469D01*
X45569211Y-44811467D01*
X45412678Y-44780332D01*
X45366265Y-44771100D01*
X45159335Y-44771100D01*
X45114644Y-44779989D01*
X44956388Y-44811467D01*
X44956383Y-44811469D01*
X44956381Y-44811469D01*
X44956380Y-44811470D01*
X44765202Y-44890659D01*
X44765200Y-44890659D01*
X44765198Y-44890661D01*
X44593149Y-45005619D01*
X44446819Y-45151949D01*
X44331861Y-45323998D01*
X44331859Y-45324000D01*
X44331859Y-45324002D01*
X44255415Y-45508553D01*
X44252669Y-45515183D01*
X44252667Y-45515188D01*
X44212300Y-45718136D01*
X38291034Y-45718136D01*
X40755325Y-43253844D01*
X40809819Y-43228434D01*
X40817480Y-43228100D01*
X50664000Y-43228100D01*
X50720501Y-43248665D01*
X50750565Y-43300736D01*
X50751900Y-43316000D01*
X50751900Y-53721318D01*
X50731335Y-53777819D01*
X50726155Y-53783473D01*
X46849622Y-57660005D01*
X46836303Y-57670936D01*
X46766960Y-57717270D01*
X46058670Y-58425559D01*
X45981132Y-58541602D01*
X45981132Y-58541604D01*
X45955619Y-58603200D01*
X45955619Y-58603201D01*
X45927726Y-58670537D01*
X45927725Y-58670541D01*
X45900500Y-58807420D01*
X45900500Y-88027400D01*
X45879935Y-88083901D01*
X45827864Y-88113965D01*
X45812600Y-88115300D01*
X24024700Y-88115300D01*
X23870346Y-88156658D01*
X23731957Y-88236557D01*
X20516181Y-91452331D01*
X20487668Y-91471383D01*
X20471679Y-91478006D01*
X20366038Y-91548594D01*
X20276194Y-91638438D01*
X20205606Y-91744080D01*
X20156987Y-91861459D01*
X20156985Y-91861463D01*
X20140094Y-91946388D01*
X20132200Y-91986073D01*
X16198648Y-91986073D01*
X16205751Y-91945793D01*
X16220620Y-91861463D01*
X16228135Y-91818844D01*
X16260560Y-91448220D01*
X16260560Y-91076180D01*
X16228135Y-90705556D01*
X16163531Y-90339168D01*
X16067239Y-89979804D01*
X15939994Y-89630201D01*
X15782763Y-89293018D01*
X15596743Y-88970822D01*
X15596738Y-88970813D01*
X15453731Y-88766579D01*
X15383350Y-88666064D01*
X15144207Y-88381065D01*
X14881135Y-88117993D01*
X14596136Y-87878850D01*
X14523807Y-87828205D01*
X14291386Y-87665461D01*
X13969183Y-87479437D01*
X13969172Y-87479432D01*
X13632009Y-87322210D01*
X13632001Y-87322207D01*
X13631999Y-87322206D01*
X13282396Y-87194961D01*
X12923032Y-87098669D01*
X12923031Y-87098668D01*
X12923028Y-87098668D01*
X12556652Y-87034066D01*
X12556647Y-87034065D01*
X12556644Y-87034065D01*
X12186020Y-87001640D01*
X11813980Y-87001640D01*
X11813979Y-87001640D01*
X11705929Y-87011093D01*
X11443356Y-87034065D01*
X11443353Y-87034065D01*
X11443347Y-87034066D01*
X11076971Y-87098668D01*
X10897286Y-87146815D01*
X10717604Y-87194961D01*
X10717601Y-87194961D01*
X10717601Y-87194962D01*
X10367998Y-87322207D01*
X10367990Y-87322210D01*
X10030827Y-87479432D01*
X10030816Y-87479437D01*
X9708613Y-87665461D01*
X9403865Y-87878849D01*
X9403858Y-87878854D01*
X9118871Y-88117988D01*
X9118866Y-88117992D01*
X8855792Y-88381066D01*
X8855788Y-88381071D01*
X8616654Y-88666058D01*
X8616649Y-88666065D01*
X8403261Y-88970813D01*
X8217237Y-89293016D01*
X8217232Y-89293027D01*
X8060010Y-89630190D01*
X8060007Y-89630198D01*
X7932762Y-89979801D01*
X7836468Y-90339171D01*
X7771866Y-90705547D01*
X7771865Y-90705553D01*
X7771865Y-90705556D01*
X7739440Y-91076180D01*
X7739440Y-91448220D01*
X7757708Y-91657032D01*
X7771866Y-91818852D01*
X7836468Y-92185228D01*
X7836469Y-92185232D01*
X7932761Y-92544596D01*
X8018405Y-92779899D01*
X8060007Y-92894201D01*
X8060010Y-92894209D01*
X8217232Y-93231372D01*
X8217237Y-93231383D01*
X8403261Y-93553586D01*
X8573971Y-93797384D01*
X8616650Y-93858336D01*
X8855793Y-94143335D01*
X8909104Y-94196646D01*
X8934515Y-94251139D01*
X8918952Y-94309217D01*
X8869699Y-94343705D01*
X8846949Y-94346700D01*
X723400Y-94346700D01*
X666899Y-94326135D01*
X636835Y-94274064D01*
X635500Y-94258800D01*
X635500Y-90886171D01*
X1744000Y-90886171D01*
X1744000Y-91079428D01*
X1774230Y-91270306D01*
X1833952Y-91454110D01*
X1921689Y-91626304D01*
X1921695Y-91626315D01*
X1944012Y-91657032D01*
X2407186Y-91193857D01*
X2412689Y-91214391D01*
X2491681Y-91351208D01*
X2603392Y-91462919D01*
X2740209Y-91541911D01*
X2760740Y-91547412D01*
X2297567Y-92010586D01*
X2328291Y-92032908D01*
X2328295Y-92032910D01*
X2500490Y-92120647D01*
X2500489Y-92120647D01*
X2684293Y-92180369D01*
X2875171Y-92210599D01*
X2875172Y-92210600D01*
X3068428Y-92210600D01*
X3068428Y-92210599D01*
X3259306Y-92180369D01*
X3443110Y-92120647D01*
X3443114Y-92120645D01*
X3615308Y-92032908D01*
X3646031Y-92010586D01*
X3182857Y-91547412D01*
X3203391Y-91541911D01*
X3340208Y-91462919D01*
X3451919Y-91351208D01*
X3530911Y-91214391D01*
X3536412Y-91193857D01*
X3999586Y-91657031D01*
X4021908Y-91626308D01*
X4109645Y-91454114D01*
X4109647Y-91454110D01*
X4169369Y-91270306D01*
X4199599Y-91079428D01*
X4199600Y-91079428D01*
X4199600Y-90886171D01*
X4169369Y-90695293D01*
X4109647Y-90511489D01*
X4021910Y-90339295D01*
X4021908Y-90339291D01*
X3999586Y-90308567D01*
X3536412Y-90771740D01*
X3530911Y-90751209D01*
X3451919Y-90614392D01*
X3340208Y-90502681D01*
X3203391Y-90423689D01*
X3182857Y-90418186D01*
X3646032Y-89955012D01*
X3615315Y-89932695D01*
X3615304Y-89932689D01*
X3443109Y-89844952D01*
X3443110Y-89844952D01*
X3259306Y-89785230D01*
X3068429Y-89755000D01*
X2875171Y-89755000D01*
X2684293Y-89785230D01*
X2500492Y-89844951D01*
X2328291Y-89932692D01*
X2328287Y-89932694D01*
X2297567Y-89955012D01*
X2297567Y-89955013D01*
X2760741Y-90418187D01*
X2740209Y-90423689D01*
X2603392Y-90502681D01*
X2491681Y-90614392D01*
X2412689Y-90751209D01*
X2407187Y-90771741D01*
X1944013Y-90308567D01*
X1944012Y-90308567D01*
X1921694Y-90339287D01*
X1921692Y-90339291D01*
X1833951Y-90511492D01*
X1774230Y-90695293D01*
X1744000Y-90886171D01*
X635500Y-90886171D01*
X635500Y-87074384D01*
X1721300Y-87074384D01*
X1721300Y-87271215D01*
X1752089Y-87465621D01*
X1756577Y-87479432D01*
X1812916Y-87652825D01*
X1902276Y-87828205D01*
X2017972Y-87987446D01*
X2157154Y-88126628D01*
X2316395Y-88242324D01*
X2491775Y-88331684D01*
X2678974Y-88392509D01*
X2678975Y-88392509D01*
X2678978Y-88392510D01*
X2725699Y-88399909D01*
X2873383Y-88423300D01*
X2873385Y-88423300D01*
X3070215Y-88423300D01*
X3070217Y-88423300D01*
X3238091Y-88396711D01*
X3264621Y-88392510D01*
X3264622Y-88392509D01*
X3264626Y-88392509D01*
X3451825Y-88331684D01*
X3627205Y-88242324D01*
X3786446Y-88126628D01*
X3925628Y-87987446D01*
X4041324Y-87828205D01*
X4130684Y-87652825D01*
X4191509Y-87465626D01*
X4222300Y-87271217D01*
X4222300Y-87074383D01*
X4203265Y-86954200D01*
X4191510Y-86879978D01*
X4183522Y-86855392D01*
X4130684Y-86692775D01*
X4041324Y-86517395D01*
X3925628Y-86358154D01*
X3813148Y-86245674D01*
X21046600Y-86245674D01*
X21046600Y-86372725D01*
X21071385Y-86497336D01*
X21071387Y-86497340D01*
X21120006Y-86614719D01*
X21120007Y-86614721D01*
X21120008Y-86614722D01*
X21190596Y-86720364D01*
X21280436Y-86810204D01*
X21386078Y-86880792D01*
X21503460Y-86929413D01*
X21503461Y-86929413D01*
X21503463Y-86929414D01*
X21566192Y-86941891D01*
X21628073Y-86954200D01*
X21628075Y-86954200D01*
X21755125Y-86954200D01*
X21755127Y-86954200D01*
X21837448Y-86937825D01*
X21879736Y-86929414D01*
X21879736Y-86929413D01*
X21879740Y-86929413D01*
X21997122Y-86880792D01*
X22102764Y-86810204D01*
X22128164Y-86784804D01*
X22148924Y-86764045D01*
X22203418Y-86738634D01*
X22211078Y-86738300D01*
X32754523Y-86738300D01*
X32811024Y-86758865D01*
X32816666Y-86764034D01*
X32837436Y-86784804D01*
X32943078Y-86855392D01*
X33060460Y-86904013D01*
X33060461Y-86904013D01*
X33060463Y-86904014D01*
X33123192Y-86916491D01*
X33185073Y-86928800D01*
X33185075Y-86928800D01*
X33312125Y-86928800D01*
X33312127Y-86928800D01*
X33394448Y-86912425D01*
X33436736Y-86904014D01*
X33436736Y-86904013D01*
X33436740Y-86904013D01*
X33554122Y-86855392D01*
X33659764Y-86784804D01*
X33749604Y-86694964D01*
X33820192Y-86589322D01*
X33868813Y-86471940D01*
X33893600Y-86347327D01*
X33893600Y-86220273D01*
X33873866Y-86121063D01*
X33868814Y-86095663D01*
X33868813Y-86095661D01*
X33868813Y-86095660D01*
X33820192Y-85978278D01*
X33749604Y-85872636D01*
X33659764Y-85782796D01*
X33554122Y-85712208D01*
X33554121Y-85712207D01*
X33554119Y-85712206D01*
X33436740Y-85663587D01*
X33436736Y-85663585D01*
X33343066Y-85644954D01*
X33312127Y-85638800D01*
X33185073Y-85638800D01*
X33157550Y-85644274D01*
X33060463Y-85663585D01*
X33060459Y-85663587D01*
X32943080Y-85712206D01*
X32837438Y-85782794D01*
X32837436Y-85782795D01*
X32837436Y-85782796D01*
X32816676Y-85803555D01*
X32762184Y-85828966D01*
X32754523Y-85829300D01*
X22159930Y-85829300D01*
X22106605Y-85810219D01*
X22106354Y-85810595D01*
X22104853Y-85809592D01*
X22104165Y-85809346D01*
X22102764Y-85808196D01*
X21997119Y-85737606D01*
X21879740Y-85688987D01*
X21879736Y-85688985D01*
X21786066Y-85670354D01*
X21755127Y-85664200D01*
X21628073Y-85664200D01*
X21600550Y-85669674D01*
X21503463Y-85688985D01*
X21503459Y-85688987D01*
X21386080Y-85737606D01*
X21280438Y-85808194D01*
X21190594Y-85898038D01*
X21120006Y-86003680D01*
X21071387Y-86121059D01*
X21071385Y-86121063D01*
X21046600Y-86245674D01*
X3813148Y-86245674D01*
X3786446Y-86218972D01*
X3651687Y-86121063D01*
X3627207Y-86103277D01*
X3627201Y-86103274D01*
X3451825Y-86013916D01*
X3451822Y-86013915D01*
X3451820Y-86013914D01*
X3264621Y-85953089D01*
X3092748Y-85925868D01*
X3070217Y-85922300D01*
X2873383Y-85922300D01*
X2853191Y-85925497D01*
X2678978Y-85953089D01*
X2491779Y-86013914D01*
X2316398Y-86103274D01*
X2316392Y-86103277D01*
X2157156Y-86218970D01*
X2157153Y-86218972D01*
X2017972Y-86358153D01*
X2017970Y-86358156D01*
X1902277Y-86517392D01*
X1902274Y-86517398D01*
X1812914Y-86692779D01*
X1752089Y-86879978D01*
X1721300Y-87074384D01*
X635500Y-87074384D01*
X635500Y-78312257D01*
X2522200Y-78312257D01*
X2522200Y-78597742D01*
X2559463Y-78880779D01*
X2559466Y-78880791D01*
X2633349Y-79156526D01*
X2633352Y-79156534D01*
X2742596Y-79420277D01*
X2742597Y-79420279D01*
X2885337Y-79667512D01*
X2885339Y-79667515D01*
X2993270Y-79808174D01*
X3405747Y-79395696D01*
X3479588Y-79497330D01*
X3657670Y-79675412D01*
X3759300Y-79749250D01*
X3346824Y-80161727D01*
X3487484Y-80269660D01*
X3487487Y-80269662D01*
X3734720Y-80412402D01*
X3734722Y-80412403D01*
X3998465Y-80521647D01*
X3998473Y-80521650D01*
X4274208Y-80595533D01*
X4274220Y-80595536D01*
X4557257Y-80632800D01*
X4842743Y-80632800D01*
X5125779Y-80595536D01*
X5125791Y-80595533D01*
X5401526Y-80521650D01*
X5401534Y-80521647D01*
X5665277Y-80412403D01*
X5665279Y-80412402D01*
X5912519Y-80269658D01*
X6053174Y-80161728D01*
X5640698Y-79749252D01*
X5742330Y-79675412D01*
X5920412Y-79497330D01*
X5994252Y-79395698D01*
X6406728Y-79808174D01*
X6514658Y-79667519D01*
X6657402Y-79420279D01*
X6657403Y-79420277D01*
X6766647Y-79156534D01*
X6766650Y-79156526D01*
X6840533Y-78880791D01*
X6840536Y-78880779D01*
X6877800Y-78597742D01*
X6877800Y-78312257D01*
X6840536Y-78029220D01*
X6840533Y-78029208D01*
X6766650Y-77753473D01*
X6766647Y-77753465D01*
X6657403Y-77489722D01*
X6657402Y-77489720D01*
X6514662Y-77242487D01*
X6514660Y-77242484D01*
X6406727Y-77101824D01*
X5994250Y-77514300D01*
X5920412Y-77412670D01*
X5742330Y-77234588D01*
X5640696Y-77160747D01*
X6053174Y-76748270D01*
X5912515Y-76640339D01*
X5912512Y-76640337D01*
X5665279Y-76497597D01*
X5665277Y-76497596D01*
X5401534Y-76388352D01*
X5401526Y-76388349D01*
X5125791Y-76314466D01*
X5125779Y-76314463D01*
X4842743Y-76277200D01*
X4557257Y-76277200D01*
X4274220Y-76314463D01*
X4274208Y-76314466D01*
X3998473Y-76388349D01*
X3998465Y-76388352D01*
X3734722Y-76497596D01*
X3734720Y-76497597D01*
X3487480Y-76640341D01*
X3346824Y-76748270D01*
X3759301Y-77160747D01*
X3657670Y-77234588D01*
X3479588Y-77412670D01*
X3405747Y-77514301D01*
X2993270Y-77101824D01*
X2885341Y-77242480D01*
X2742597Y-77489720D01*
X2742596Y-77489722D01*
X2633352Y-77753465D01*
X2633349Y-77753473D01*
X2559466Y-78029208D01*
X2559463Y-78029220D01*
X2522200Y-78312257D01*
X635500Y-78312257D01*
X635500Y-70018696D01*
X1182200Y-70018696D01*
X1182200Y-70211303D01*
X1219773Y-70400205D01*
X1219775Y-70400210D01*
X1293486Y-70578164D01*
X1313431Y-70608013D01*
X1677036Y-70244407D01*
X1694075Y-70307993D01*
X1759901Y-70422007D01*
X1852993Y-70515099D01*
X1967007Y-70580925D01*
X2030589Y-70597962D01*
X1666985Y-70961567D01*
X1696835Y-70981513D01*
X1874789Y-71055224D01*
X1874794Y-71055226D01*
X2063697Y-71092800D01*
X2256303Y-71092800D01*
X2445205Y-71055226D01*
X2445210Y-71055224D01*
X2623160Y-70981515D01*
X2653013Y-70961567D01*
X2371699Y-70680253D01*
X3999500Y-70680253D01*
X3999500Y-72319746D01*
X4011133Y-72378232D01*
X4055445Y-72444548D01*
X4055448Y-72444552D01*
X4055451Y-72444554D01*
X4121767Y-72488866D01*
X4121769Y-72488867D01*
X4180252Y-72500500D01*
X4180254Y-72500500D01*
X5819746Y-72500500D01*
X5819748Y-72500500D01*
X5878231Y-72488867D01*
X5944552Y-72444552D01*
X5988867Y-72378231D01*
X6000500Y-72319748D01*
X6000500Y-70680252D01*
X5988867Y-70621769D01*
X5979675Y-70608013D01*
X5944554Y-70555451D01*
X5944552Y-70555448D01*
X5899622Y-70525426D01*
X5878232Y-70511133D01*
X5858736Y-70507255D01*
X5819748Y-70499500D01*
X4180252Y-70499500D01*
X4151010Y-70505316D01*
X4121767Y-70511133D01*
X4055451Y-70555445D01*
X4055445Y-70555451D01*
X4011133Y-70621767D01*
X3999500Y-70680253D01*
X2371699Y-70680253D01*
X2289408Y-70597962D01*
X2352993Y-70580925D01*
X2467007Y-70515099D01*
X2560099Y-70422007D01*
X2625925Y-70307993D01*
X2642962Y-70244408D01*
X3006567Y-70608013D01*
X3026515Y-70578160D01*
X3100224Y-70400210D01*
X3100226Y-70400205D01*
X3137800Y-70211303D01*
X3137800Y-70018696D01*
X3100226Y-69829794D01*
X3100224Y-69829789D01*
X3026513Y-69651835D01*
X3006567Y-69621985D01*
X2642962Y-69985589D01*
X2625925Y-69922007D01*
X2560099Y-69807993D01*
X2467007Y-69714901D01*
X2352993Y-69649075D01*
X2289407Y-69632036D01*
X2653013Y-69268431D01*
X2623164Y-69248486D01*
X2445210Y-69174775D01*
X2445205Y-69174773D01*
X2256303Y-69137200D01*
X2063697Y-69137200D01*
X1874794Y-69174773D01*
X1874789Y-69174775D01*
X1696835Y-69248486D01*
X1666985Y-69268431D01*
X2030591Y-69632037D01*
X1967007Y-69649075D01*
X1852993Y-69714901D01*
X1759901Y-69807993D01*
X1694075Y-69922007D01*
X1677037Y-69985591D01*
X1313431Y-69621985D01*
X1293486Y-69651835D01*
X1219775Y-69829789D01*
X1219773Y-69829794D01*
X1182200Y-70018696D01*
X635500Y-70018696D01*
X635500Y-68631460D01*
X3999500Y-68631460D01*
X3999500Y-68828539D01*
X4037947Y-69021831D01*
X4037949Y-69021835D01*
X4113366Y-69203911D01*
X4113367Y-69203913D01*
X4113368Y-69203914D01*
X4222861Y-69367782D01*
X4362218Y-69507139D01*
X4526086Y-69616632D01*
X4526088Y-69616633D01*
X4526087Y-69616633D01*
X4604411Y-69649075D01*
X4708165Y-69692051D01*
X4708166Y-69692051D01*
X4708168Y-69692052D01*
X4805469Y-69711406D01*
X4901459Y-69730500D01*
X4901461Y-69730500D01*
X5098539Y-69730500D01*
X5098541Y-69730500D01*
X5226238Y-69705099D01*
X5291831Y-69692052D01*
X5291831Y-69692051D01*
X5291835Y-69692051D01*
X5473914Y-69616632D01*
X5637782Y-69507139D01*
X5777139Y-69367782D01*
X5886632Y-69203914D01*
X5962051Y-69021835D01*
X6000500Y-68828541D01*
X6000500Y-68631459D01*
X5992104Y-68589250D01*
X5980180Y-68529303D01*
X5977628Y-68516474D01*
X42281000Y-68516474D01*
X42281000Y-68643525D01*
X42305785Y-68768136D01*
X42305787Y-68768140D01*
X42354406Y-68885519D01*
X42354407Y-68885521D01*
X42354408Y-68885522D01*
X42424996Y-68991164D01*
X42514836Y-69081004D01*
X42620478Y-69151592D01*
X42737860Y-69200213D01*
X42737861Y-69200213D01*
X42737863Y-69200214D01*
X42800592Y-69212691D01*
X42862473Y-69225000D01*
X42862475Y-69225000D01*
X42989525Y-69225000D01*
X42989527Y-69225000D01*
X43095549Y-69203911D01*
X43114136Y-69200214D01*
X43114136Y-69200213D01*
X43114140Y-69200213D01*
X43231522Y-69151592D01*
X43337164Y-69081004D01*
X43427004Y-68991164D01*
X43497592Y-68885522D01*
X43546213Y-68768140D01*
X43571000Y-68643527D01*
X43571000Y-68614169D01*
X43591565Y-68557668D01*
X43596734Y-68552025D01*
X44645632Y-67503126D01*
X44645637Y-67503123D01*
X44652868Y-67495891D01*
X44652870Y-67495891D01*
X44737491Y-67411270D01*
X44797327Y-67307631D01*
X44828300Y-67192036D01*
X44828300Y-54555268D01*
X44834863Y-54537235D01*
X44836536Y-54518120D01*
X44847542Y-54502399D01*
X44848865Y-54498767D01*
X44854026Y-54493133D01*
X44872362Y-54474796D01*
X44926854Y-54449387D01*
X44951923Y-54451996D01*
X44952144Y-54450888D01*
X45072351Y-54474798D01*
X45159335Y-54492100D01*
X45159337Y-54492100D01*
X45366263Y-54492100D01*
X45366265Y-54492100D01*
X45499136Y-54465670D01*
X45569211Y-54451732D01*
X45569212Y-54451731D01*
X45569220Y-54451730D01*
X45760398Y-54372541D01*
X45932455Y-54257577D01*
X46078777Y-54111255D01*
X46193741Y-53939198D01*
X46272930Y-53748020D01*
X46276495Y-53730100D01*
X46300276Y-53610541D01*
X46313300Y-53545065D01*
X46313300Y-53338135D01*
X46286453Y-53203164D01*
X46272932Y-53135188D01*
X46272931Y-53135185D01*
X46272930Y-53135180D01*
X46193741Y-52944002D01*
X46078777Y-52771945D01*
X45932455Y-52625623D01*
X45932451Y-52625620D01*
X45932450Y-52625619D01*
X45851982Y-52571853D01*
X46752300Y-52571853D01*
X46752300Y-54311346D01*
X46763933Y-54369832D01*
X46808245Y-54436148D01*
X46808248Y-54436152D01*
X46808251Y-54436154D01*
X46874567Y-54480466D01*
X46874569Y-54480467D01*
X46933052Y-54492100D01*
X46933054Y-54492100D01*
X48672546Y-54492100D01*
X48672548Y-54492100D01*
X48731031Y-54480467D01*
X48797352Y-54436152D01*
X48841667Y-54369831D01*
X48853300Y-54311348D01*
X48853300Y-52571852D01*
X48841667Y-52513369D01*
X48839856Y-52510659D01*
X48797354Y-52447051D01*
X48797352Y-52447048D01*
X48797348Y-52447045D01*
X48731032Y-52402733D01*
X48711536Y-52398855D01*
X48672548Y-52391100D01*
X46933052Y-52391100D01*
X46912415Y-52395205D01*
X46874567Y-52402733D01*
X46808251Y-52447045D01*
X46808245Y-52447051D01*
X46763933Y-52513367D01*
X46752300Y-52571853D01*
X45851982Y-52571853D01*
X45760401Y-52510661D01*
X45760400Y-52510660D01*
X45760398Y-52510659D01*
X45569220Y-52431470D01*
X45569216Y-52431469D01*
X45569211Y-52431467D01*
X45416484Y-52401089D01*
X45366265Y-52391100D01*
X45159335Y-52391100D01*
X45114644Y-52399989D01*
X44956388Y-52431467D01*
X44956383Y-52431469D01*
X44956381Y-52431469D01*
X44956380Y-52431470D01*
X44765202Y-52510659D01*
X44765200Y-52510659D01*
X44765198Y-52510661D01*
X44593149Y-52625619D01*
X44446819Y-52771949D01*
X44331861Y-52943998D01*
X44331859Y-52944000D01*
X44331859Y-52944002D01*
X44272296Y-53087800D01*
X44252669Y-53135183D01*
X44252667Y-53135188D01*
X44239146Y-53203168D01*
X44212300Y-53338135D01*
X44212300Y-53545065D01*
X44225323Y-53610538D01*
X44253512Y-53752255D01*
X44251117Y-53752731D01*
X44248263Y-53804451D01*
X44229601Y-53832036D01*
X44094732Y-53966906D01*
X44094732Y-53966907D01*
X44010110Y-54051528D01*
X43950273Y-54155169D01*
X43950273Y-54155170D01*
X43919299Y-54270764D01*
X43919299Y-54397515D01*
X43919300Y-54397528D01*
X43919300Y-66907530D01*
X43898735Y-66964031D01*
X43893555Y-66969685D01*
X42953985Y-67909255D01*
X42899491Y-67934666D01*
X42891830Y-67935000D01*
X42862473Y-67935000D01*
X42834950Y-67940474D01*
X42737863Y-67959785D01*
X42737859Y-67959787D01*
X42620480Y-68008406D01*
X42514838Y-68078994D01*
X42424994Y-68168838D01*
X42354406Y-68274480D01*
X42305787Y-68391859D01*
X42305785Y-68391863D01*
X42281000Y-68516474D01*
X5977628Y-68516474D01*
X5962052Y-68438168D01*
X5962051Y-68438166D01*
X5962051Y-68438165D01*
X5886632Y-68256086D01*
X5777139Y-68092218D01*
X5637782Y-67952861D01*
X5473914Y-67843368D01*
X5473911Y-67843366D01*
X5473912Y-67843366D01*
X5291835Y-67767949D01*
X5291831Y-67767947D01*
X5146534Y-67739046D01*
X5098541Y-67729500D01*
X4901459Y-67729500D01*
X4868666Y-67736023D01*
X4708168Y-67767947D01*
X4708164Y-67767949D01*
X4526088Y-67843366D01*
X4362220Y-67952859D01*
X4222859Y-68092220D01*
X4113366Y-68256088D01*
X4037949Y-68438164D01*
X4037947Y-68438168D01*
X4007896Y-68589250D01*
X4003737Y-68610161D01*
X3999500Y-68631460D01*
X635500Y-68631460D01*
X635500Y-67246460D01*
X1159500Y-67246460D01*
X1159500Y-67443539D01*
X1197947Y-67636831D01*
X1197949Y-67636835D01*
X1273366Y-67818911D01*
X1273367Y-67818913D01*
X1273368Y-67818914D01*
X1382861Y-67982782D01*
X1522218Y-68122139D01*
X1686086Y-68231632D01*
X1686088Y-68231633D01*
X1686087Y-68231633D01*
X1777125Y-68269341D01*
X1868165Y-68307051D01*
X1868166Y-68307051D01*
X1868168Y-68307052D01*
X1965469Y-68326406D01*
X2061459Y-68345500D01*
X2061461Y-68345500D01*
X2258539Y-68345500D01*
X2258541Y-68345500D01*
X2386238Y-68320099D01*
X2451831Y-68307052D01*
X2451831Y-68307051D01*
X2451835Y-68307051D01*
X2633914Y-68231632D01*
X2797782Y-68122139D01*
X2937139Y-67982782D01*
X3046632Y-67818914D01*
X3122051Y-67636835D01*
X3160500Y-67443541D01*
X3160500Y-67246459D01*
X3122051Y-67053165D01*
X3062530Y-66909467D01*
X3046633Y-66871087D01*
X3046631Y-66871084D01*
X3014266Y-66822646D01*
X3014264Y-66822644D01*
X2937140Y-66707220D01*
X2937139Y-66707218D01*
X2797782Y-66567861D01*
X2633914Y-66458368D01*
X2633911Y-66458366D01*
X2633912Y-66458366D01*
X2451835Y-66382949D01*
X2451831Y-66382947D01*
X2306534Y-66354046D01*
X2258541Y-66344500D01*
X2061459Y-66344500D01*
X2018765Y-66352992D01*
X1868168Y-66382947D01*
X1868164Y-66382949D01*
X1686088Y-66458366D01*
X1522220Y-66567859D01*
X1382859Y-66707220D01*
X1273366Y-66871088D01*
X1197949Y-67053164D01*
X1197947Y-67053168D01*
X1159500Y-67246460D01*
X635500Y-67246460D01*
X635500Y-65863696D01*
X4022200Y-65863696D01*
X4022200Y-66056303D01*
X4059773Y-66245205D01*
X4059775Y-66245210D01*
X4133486Y-66423164D01*
X4153431Y-66453013D01*
X4517036Y-66089407D01*
X4534075Y-66152993D01*
X4599901Y-66267007D01*
X4692993Y-66360099D01*
X4807007Y-66425925D01*
X4870589Y-66442962D01*
X4506985Y-66806567D01*
X4536835Y-66826513D01*
X4714789Y-66900224D01*
X4714794Y-66900226D01*
X4903697Y-66937800D01*
X5096303Y-66937800D01*
X5285205Y-66900226D01*
X5285210Y-66900224D01*
X5463160Y-66826515D01*
X5493013Y-66806567D01*
X5129408Y-66442962D01*
X5192993Y-66425925D01*
X5307007Y-66360099D01*
X5400099Y-66267007D01*
X5465925Y-66152993D01*
X5482962Y-66089408D01*
X5846567Y-66453013D01*
X5866515Y-66423160D01*
X5940224Y-66245210D01*
X5940226Y-66245205D01*
X5977800Y-66056303D01*
X5977800Y-65863696D01*
X5940226Y-65674794D01*
X5940224Y-65674789D01*
X5866513Y-65496835D01*
X5846567Y-65466985D01*
X5482962Y-65830589D01*
X5465925Y-65767007D01*
X5400099Y-65652993D01*
X5307007Y-65559901D01*
X5192993Y-65494075D01*
X5129407Y-65477036D01*
X5493013Y-65113431D01*
X5463164Y-65093486D01*
X5285210Y-65019775D01*
X5285205Y-65019773D01*
X5096303Y-64982200D01*
X4903697Y-64982200D01*
X4714794Y-65019773D01*
X4714789Y-65019775D01*
X4536835Y-65093486D01*
X4506985Y-65113431D01*
X4870591Y-65477037D01*
X4807007Y-65494075D01*
X4692993Y-65559901D01*
X4599901Y-65652993D01*
X4534075Y-65767007D01*
X4517037Y-65830591D01*
X4153431Y-65466985D01*
X4133486Y-65496835D01*
X4059775Y-65674789D01*
X4059773Y-65674794D01*
X4022200Y-65863696D01*
X635500Y-65863696D01*
X635500Y-64476460D01*
X1159500Y-64476460D01*
X1159500Y-64673539D01*
X1197947Y-64866831D01*
X1197949Y-64866835D01*
X1273366Y-65048911D01*
X1273367Y-65048913D01*
X1273368Y-65048914D01*
X1382861Y-65212782D01*
X1522218Y-65352139D01*
X1686086Y-65461632D01*
X1686088Y-65461633D01*
X1686087Y-65461633D01*
X1737825Y-65483063D01*
X1868165Y-65537051D01*
X1868166Y-65537051D01*
X1868168Y-65537052D01*
X1965469Y-65556406D01*
X2061459Y-65575500D01*
X2061461Y-65575500D01*
X2258539Y-65575500D01*
X2258541Y-65575500D01*
X2386238Y-65550099D01*
X2451831Y-65537052D01*
X2451831Y-65537051D01*
X2451835Y-65537051D01*
X2633914Y-65461632D01*
X2797782Y-65352139D01*
X2937139Y-65212782D01*
X3046632Y-65048914D01*
X3122051Y-64866835D01*
X3160500Y-64673541D01*
X3160500Y-64476459D01*
X3122051Y-64283165D01*
X3046632Y-64101086D01*
X2937139Y-63937218D01*
X2797782Y-63797861D01*
X2633914Y-63688368D01*
X2633911Y-63688366D01*
X2633912Y-63688366D01*
X2451835Y-63612949D01*
X2451831Y-63612947D01*
X2306534Y-63584046D01*
X2258541Y-63574500D01*
X2061459Y-63574500D01*
X2018765Y-63582992D01*
X1868168Y-63612947D01*
X1868164Y-63612949D01*
X1686088Y-63688366D01*
X1522220Y-63797859D01*
X1382859Y-63937220D01*
X1273366Y-64101088D01*
X1197949Y-64283164D01*
X1197947Y-64283168D01*
X1159500Y-64476460D01*
X635500Y-64476460D01*
X635500Y-61706459D01*
X1159500Y-61706459D01*
X1159500Y-61903541D01*
X1169046Y-61951534D01*
X1197947Y-62096831D01*
X1197949Y-62096835D01*
X1273366Y-62278911D01*
X1273367Y-62278913D01*
X1273368Y-62278914D01*
X1382861Y-62442782D01*
X1522218Y-62582139D01*
X1686086Y-62691632D01*
X1686088Y-62691633D01*
X1686087Y-62691633D01*
X1745128Y-62716088D01*
X1868165Y-62767051D01*
X1868166Y-62767051D01*
X1868168Y-62767052D01*
X1965469Y-62786406D01*
X2061459Y-62805500D01*
X2061461Y-62805500D01*
X2258539Y-62805500D01*
X2258541Y-62805500D01*
X2386238Y-62780099D01*
X2451831Y-62767052D01*
X2451831Y-62767051D01*
X2451835Y-62767051D01*
X2633914Y-62691632D01*
X2797782Y-62582139D01*
X2937139Y-62442782D01*
X3029704Y-62304249D01*
X3033502Y-62298565D01*
X3081991Y-62263012D01*
X3106588Y-62259500D01*
X4303425Y-62259500D01*
X4359926Y-62280065D01*
X4389990Y-62332136D01*
X4379549Y-62391350D01*
X4364527Y-62409063D01*
X4365272Y-62409808D01*
X4362220Y-62412859D01*
X4362218Y-62412861D01*
X4241899Y-62533180D01*
X4222859Y-62552220D01*
X4113366Y-62716088D01*
X4037949Y-62898164D01*
X4037947Y-62898168D01*
X3999500Y-63091460D01*
X3999500Y-63288539D01*
X4037947Y-63481831D01*
X4037949Y-63481835D01*
X4113366Y-63663911D01*
X4113367Y-63663913D01*
X4113368Y-63663914D01*
X4222861Y-63827782D01*
X4362218Y-63967139D01*
X4526086Y-64076632D01*
X4526088Y-64076633D01*
X4526087Y-64076633D01*
X4585128Y-64101088D01*
X4708165Y-64152051D01*
X4708166Y-64152051D01*
X4708168Y-64152052D01*
X4805469Y-64171406D01*
X4901459Y-64190500D01*
X4901461Y-64190500D01*
X5098539Y-64190500D01*
X5098541Y-64190500D01*
X5226238Y-64165099D01*
X5291831Y-64152052D01*
X5291831Y-64152051D01*
X5291835Y-64152051D01*
X5473914Y-64076632D01*
X5637782Y-63967139D01*
X5777139Y-63827782D01*
X5886632Y-63663914D01*
X5962051Y-63481835D01*
X6000500Y-63288541D01*
X6000500Y-63091459D01*
X5987799Y-63027610D01*
X5962052Y-62898168D01*
X5962051Y-62898166D01*
X5962051Y-62898165D01*
X5886632Y-62716086D01*
X5777139Y-62552218D01*
X5637782Y-62412861D01*
X5637778Y-62412858D01*
X5634728Y-62409808D01*
X5636482Y-62408053D01*
X5610175Y-62363568D01*
X5619996Y-62304249D01*
X5665649Y-62265120D01*
X5696575Y-62259500D01*
X7776566Y-62259500D01*
X7776582Y-62259501D01*
X7781964Y-62259501D01*
X7901637Y-62259501D01*
X7901637Y-62259500D01*
X7992798Y-62235073D01*
X7992799Y-62235073D01*
X7995686Y-62234299D01*
X8017231Y-62228527D01*
X8120870Y-62168691D01*
X8205491Y-62084070D01*
X8205491Y-62084068D01*
X8212723Y-62076837D01*
X8212727Y-62076832D01*
X11778032Y-58511527D01*
X11778037Y-58511523D01*
X11785268Y-58504291D01*
X11785270Y-58504291D01*
X11869891Y-58419670D01*
X11929727Y-58316031D01*
X11938176Y-58284500D01*
X11960701Y-58200436D01*
X11960701Y-58080764D01*
X11960701Y-58075383D01*
X11960700Y-58075365D01*
X11960700Y-50798136D01*
X44212300Y-50798136D01*
X44212300Y-51005063D01*
X44252667Y-51208011D01*
X44252669Y-51208016D01*
X44252670Y-51208020D01*
X44331859Y-51399198D01*
X44331860Y-51399200D01*
X44331861Y-51399201D01*
X44446819Y-51571250D01*
X44446820Y-51571251D01*
X44446823Y-51571255D01*
X44593145Y-51717577D01*
X44765202Y-51832541D01*
X44956380Y-51911730D01*
X44956385Y-51911731D01*
X44956388Y-51911732D01*
X45059232Y-51932188D01*
X45159335Y-51952100D01*
X45159337Y-51952100D01*
X45366263Y-51952100D01*
X45366265Y-51952100D01*
X45542691Y-51917007D01*
X45569211Y-51911732D01*
X45569212Y-51911731D01*
X45569220Y-51911730D01*
X45760398Y-51832541D01*
X45932455Y-51717577D01*
X46078777Y-51571255D01*
X46193741Y-51399198D01*
X46272930Y-51208020D01*
X46276495Y-51190100D01*
X46300276Y-51070541D01*
X46313300Y-51005065D01*
X46313300Y-50798136D01*
X46752300Y-50798136D01*
X46752300Y-51005063D01*
X46792667Y-51208011D01*
X46792669Y-51208016D01*
X46792670Y-51208020D01*
X46871859Y-51399198D01*
X46871860Y-51399200D01*
X46871861Y-51399201D01*
X46986819Y-51571250D01*
X46986820Y-51571251D01*
X46986823Y-51571255D01*
X47133145Y-51717577D01*
X47305202Y-51832541D01*
X47496380Y-51911730D01*
X47496385Y-51911731D01*
X47496388Y-51911732D01*
X47599232Y-51932188D01*
X47699335Y-51952100D01*
X47699337Y-51952100D01*
X47906263Y-51952100D01*
X47906265Y-51952100D01*
X48082691Y-51917007D01*
X48109211Y-51911732D01*
X48109212Y-51911731D01*
X48109220Y-51911730D01*
X48300398Y-51832541D01*
X48472455Y-51717577D01*
X48618777Y-51571255D01*
X48733741Y-51399198D01*
X48812930Y-51208020D01*
X48816495Y-51190100D01*
X48840276Y-51070541D01*
X48853300Y-51005065D01*
X48853300Y-50798135D01*
X48840085Y-50731699D01*
X48812932Y-50595188D01*
X48812931Y-50595185D01*
X48812930Y-50595180D01*
X48733741Y-50404002D01*
X48618777Y-50231945D01*
X48472455Y-50085623D01*
X48472451Y-50085620D01*
X48472450Y-50085619D01*
X48300401Y-49970661D01*
X48300400Y-49970660D01*
X48300398Y-49970659D01*
X48109220Y-49891470D01*
X48109216Y-49891469D01*
X48109211Y-49891467D01*
X47956484Y-49861089D01*
X47906265Y-49851100D01*
X47699335Y-49851100D01*
X47654644Y-49859989D01*
X47496388Y-49891467D01*
X47496383Y-49891469D01*
X47496381Y-49891469D01*
X47496380Y-49891470D01*
X47305202Y-49970659D01*
X47305200Y-49970659D01*
X47305198Y-49970661D01*
X47133149Y-50085619D01*
X46986819Y-50231949D01*
X46871861Y-50403998D01*
X46871859Y-50404000D01*
X46871859Y-50404002D01*
X46792670Y-50595180D01*
X46792669Y-50595183D01*
X46792667Y-50595188D01*
X46752300Y-50798136D01*
X46313300Y-50798136D01*
X46313300Y-50798135D01*
X46300085Y-50731699D01*
X46272932Y-50595188D01*
X46272931Y-50595185D01*
X46272930Y-50595180D01*
X46193741Y-50404002D01*
X46078777Y-50231945D01*
X45932455Y-50085623D01*
X45932451Y-50085620D01*
X45932450Y-50085619D01*
X45760401Y-49970661D01*
X45760400Y-49970660D01*
X45760398Y-49970659D01*
X45569220Y-49891470D01*
X45569216Y-49891469D01*
X45569211Y-49891467D01*
X45416484Y-49861089D01*
X45366265Y-49851100D01*
X45159335Y-49851100D01*
X45114644Y-49859989D01*
X44956388Y-49891467D01*
X44956383Y-49891469D01*
X44956381Y-49891469D01*
X44956380Y-49891470D01*
X44765202Y-49970659D01*
X44765200Y-49970659D01*
X44765198Y-49970661D01*
X44593149Y-50085619D01*
X44446819Y-50231949D01*
X44331861Y-50403998D01*
X44331859Y-50404000D01*
X44331859Y-50404002D01*
X44252670Y-50595180D01*
X44252669Y-50595183D01*
X44252667Y-50595188D01*
X44212300Y-50798136D01*
X11960700Y-50798136D01*
X11960700Y-42388000D01*
X11981265Y-42331499D01*
X12033336Y-42301435D01*
X12048600Y-42300100D01*
X12375946Y-42300100D01*
X12375948Y-42300100D01*
X12434431Y-42288467D01*
X12500752Y-42244152D01*
X12545067Y-42177831D01*
X12556700Y-42119348D01*
X12556700Y-40379852D01*
X12545067Y-40321369D01*
X12521839Y-40286607D01*
X12500754Y-40255051D01*
X12500752Y-40255048D01*
X12500748Y-40255045D01*
X12434432Y-40210733D01*
X12414936Y-40206855D01*
X12375948Y-40199100D01*
X10636452Y-40199100D01*
X10607210Y-40204916D01*
X10577967Y-40210733D01*
X10511651Y-40255045D01*
X10511645Y-40255051D01*
X10467333Y-40321367D01*
X10467333Y-40321369D01*
X10455731Y-40379699D01*
X10455700Y-40379853D01*
X10455700Y-42119346D01*
X10467333Y-42177832D01*
X10490958Y-42213188D01*
X10511648Y-42244152D01*
X10511651Y-42244154D01*
X10577967Y-42288466D01*
X10577969Y-42288467D01*
X10636452Y-42300100D01*
X10963800Y-42300100D01*
X11020301Y-42320665D01*
X11050365Y-42372736D01*
X11051700Y-42388000D01*
X11051700Y-57915930D01*
X11031135Y-57972431D01*
X11025955Y-57978085D01*
X7679285Y-61324755D01*
X7624791Y-61350166D01*
X7617130Y-61350500D01*
X5696575Y-61350500D01*
X5640074Y-61329935D01*
X5610010Y-61277864D01*
X5620451Y-61218650D01*
X5635472Y-61200936D01*
X5634728Y-61200192D01*
X5637778Y-61197141D01*
X5637782Y-61197139D01*
X5777139Y-61057782D01*
X5886632Y-60893914D01*
X5962051Y-60711835D01*
X6000500Y-60518541D01*
X6000500Y-60321459D01*
X5987799Y-60257610D01*
X5962052Y-60128168D01*
X5962051Y-60128166D01*
X5962051Y-60128165D01*
X5886632Y-59946086D01*
X5777139Y-59782218D01*
X5637782Y-59642861D01*
X5473914Y-59533368D01*
X5473911Y-59533366D01*
X5473912Y-59533366D01*
X5291835Y-59457949D01*
X5291831Y-59457947D01*
X5146534Y-59429046D01*
X5098541Y-59419500D01*
X4901459Y-59419500D01*
X4858765Y-59427992D01*
X4708168Y-59457947D01*
X4708164Y-59457949D01*
X4526088Y-59533366D01*
X4362220Y-59642859D01*
X4222859Y-59782220D01*
X4113366Y-59946088D01*
X4037949Y-60128164D01*
X4037947Y-60128168D01*
X3999500Y-60321460D01*
X3999500Y-60518539D01*
X4037947Y-60711831D01*
X4037949Y-60711835D01*
X4113366Y-60893911D01*
X4113367Y-60893913D01*
X4113368Y-60893914D01*
X4222861Y-61057782D01*
X4362218Y-61197139D01*
X4362221Y-61197141D01*
X4365272Y-61200192D01*
X4363517Y-61201946D01*
X4389825Y-61246432D01*
X4380004Y-61305751D01*
X4334351Y-61344880D01*
X4303425Y-61350500D01*
X3106588Y-61350500D01*
X3050087Y-61329935D01*
X3033502Y-61311435D01*
X2960343Y-61201946D01*
X2937139Y-61167218D01*
X2797782Y-61027861D01*
X2633914Y-60918368D01*
X2633911Y-60918366D01*
X2633912Y-60918366D01*
X2451835Y-60842949D01*
X2451831Y-60842947D01*
X2306534Y-60814046D01*
X2258541Y-60804500D01*
X2061459Y-60804500D01*
X2018765Y-60812992D01*
X1868168Y-60842947D01*
X1868164Y-60842949D01*
X1686088Y-60918366D01*
X1522220Y-61027859D01*
X1382859Y-61167220D01*
X1273366Y-61331088D01*
X1197949Y-61513164D01*
X1197947Y-61513168D01*
X1164273Y-61682462D01*
X1159500Y-61706459D01*
X635500Y-61706459D01*
X635500Y-58936459D01*
X1159500Y-58936459D01*
X1159500Y-59133541D01*
X1162889Y-59150578D01*
X1197947Y-59326831D01*
X1197949Y-59326835D01*
X1273366Y-59508911D01*
X1273367Y-59508913D01*
X1273368Y-59508914D01*
X1382861Y-59672782D01*
X1522218Y-59812139D01*
X1686086Y-59921632D01*
X1686088Y-59921633D01*
X1686087Y-59921633D01*
X1745128Y-59946088D01*
X1868165Y-59997051D01*
X1868166Y-59997051D01*
X1868168Y-59997052D01*
X1965469Y-60016406D01*
X2061459Y-60035500D01*
X2061461Y-60035500D01*
X2258539Y-60035500D01*
X2258541Y-60035500D01*
X2386238Y-60010099D01*
X2451831Y-59997052D01*
X2451831Y-59997051D01*
X2451835Y-59997051D01*
X2633914Y-59921632D01*
X2797782Y-59812139D01*
X2937139Y-59672782D01*
X3046632Y-59508914D01*
X3122051Y-59326835D01*
X3129484Y-59289470D01*
X3157111Y-59150578D01*
X3160500Y-59133541D01*
X3160500Y-58936459D01*
X3146140Y-58864266D01*
X3122052Y-58743168D01*
X3122051Y-58743166D01*
X3122051Y-58743165D01*
X3046632Y-58561086D01*
X2937139Y-58397218D01*
X2797782Y-58257861D01*
X2633914Y-58148368D01*
X2633911Y-58148366D01*
X2633912Y-58148366D01*
X2451835Y-58072949D01*
X2451831Y-58072947D01*
X2306534Y-58044046D01*
X2258541Y-58034500D01*
X2061459Y-58034500D01*
X2018765Y-58042992D01*
X1868168Y-58072947D01*
X1868164Y-58072949D01*
X1686088Y-58148366D01*
X1522220Y-58257859D01*
X1382859Y-58397220D01*
X1273366Y-58561088D01*
X1197949Y-58743164D01*
X1197947Y-58743168D01*
X1164273Y-58912462D01*
X1159500Y-58936459D01*
X635500Y-58936459D01*
X635500Y-57551460D01*
X3999500Y-57551460D01*
X3999500Y-57748539D01*
X4037947Y-57941831D01*
X4037949Y-57941835D01*
X4113366Y-58123911D01*
X4113367Y-58123913D01*
X4113368Y-58123914D01*
X4222861Y-58287782D01*
X4362218Y-58427139D01*
X4526086Y-58536632D01*
X4526088Y-58536633D01*
X4526087Y-58536633D01*
X4585128Y-58561088D01*
X4708165Y-58612051D01*
X4708166Y-58612051D01*
X4708168Y-58612052D01*
X4805469Y-58631406D01*
X4901459Y-58650500D01*
X4901461Y-58650500D01*
X5098539Y-58650500D01*
X5098541Y-58650500D01*
X5226238Y-58625099D01*
X5291831Y-58612052D01*
X5291831Y-58612051D01*
X5291835Y-58612051D01*
X5473914Y-58536632D01*
X5637782Y-58427139D01*
X5777139Y-58287782D01*
X5886632Y-58123914D01*
X5962051Y-57941835D01*
X6000500Y-57748541D01*
X6000500Y-57551459D01*
X5987799Y-57487610D01*
X5962052Y-57358168D01*
X5962051Y-57358166D01*
X5962051Y-57358165D01*
X5886632Y-57176086D01*
X5777139Y-57012218D01*
X5637782Y-56872861D01*
X5473914Y-56763368D01*
X5473911Y-56763366D01*
X5473912Y-56763366D01*
X5291835Y-56687949D01*
X5291831Y-56687947D01*
X5146534Y-56659046D01*
X5098541Y-56649500D01*
X4901459Y-56649500D01*
X4858765Y-56657992D01*
X4708168Y-56687947D01*
X4708164Y-56687949D01*
X4526088Y-56763366D01*
X4362220Y-56872859D01*
X4222859Y-57012220D01*
X4113366Y-57176088D01*
X4037949Y-57358164D01*
X4037947Y-57358168D01*
X3999500Y-57551460D01*
X635500Y-57551460D01*
X635500Y-56166460D01*
X1159500Y-56166460D01*
X1159500Y-56363539D01*
X1197947Y-56556831D01*
X1197949Y-56556835D01*
X1273366Y-56738911D01*
X1273367Y-56738913D01*
X1273368Y-56738914D01*
X1382861Y-56902782D01*
X1522218Y-57042139D01*
X1686086Y-57151632D01*
X1686088Y-57151633D01*
X1686087Y-57151633D01*
X1745128Y-57176088D01*
X1868165Y-57227051D01*
X1868166Y-57227051D01*
X1868168Y-57227052D01*
X1965469Y-57246406D01*
X2061459Y-57265500D01*
X2061461Y-57265500D01*
X2258539Y-57265500D01*
X2258541Y-57265500D01*
X2386238Y-57240099D01*
X2451831Y-57227052D01*
X2451831Y-57227051D01*
X2451835Y-57227051D01*
X2633914Y-57151632D01*
X2797782Y-57042139D01*
X2937139Y-56902782D01*
X3046632Y-56738914D01*
X3122051Y-56556835D01*
X3160500Y-56363541D01*
X3160500Y-56166459D01*
X3122051Y-55973165D01*
X3046632Y-55791086D01*
X2937139Y-55627218D01*
X2797782Y-55487861D01*
X2633914Y-55378368D01*
X2633911Y-55378366D01*
X2633912Y-55378366D01*
X2451835Y-55302949D01*
X2451831Y-55302947D01*
X2306534Y-55274046D01*
X2258541Y-55264500D01*
X2061459Y-55264500D01*
X2018765Y-55272992D01*
X1868168Y-55302947D01*
X1868164Y-55302949D01*
X1686088Y-55378366D01*
X1522220Y-55487859D01*
X1382859Y-55627220D01*
X1273366Y-55791088D01*
X1197949Y-55973164D01*
X1197947Y-55973168D01*
X1159500Y-56166460D01*
X635500Y-56166460D01*
X635500Y-54781460D01*
X3999500Y-54781460D01*
X3999500Y-54978539D01*
X4037947Y-55171831D01*
X4037949Y-55171835D01*
X4113366Y-55353911D01*
X4113367Y-55353913D01*
X4113368Y-55353914D01*
X4222861Y-55517782D01*
X4362218Y-55657139D01*
X4526086Y-55766632D01*
X4526088Y-55766633D01*
X4526087Y-55766633D01*
X4585128Y-55791088D01*
X4708165Y-55842051D01*
X4708166Y-55842051D01*
X4708168Y-55842052D01*
X4805469Y-55861406D01*
X4901459Y-55880500D01*
X4901461Y-55880500D01*
X5098539Y-55880500D01*
X5098541Y-55880500D01*
X5226238Y-55855099D01*
X5291831Y-55842052D01*
X5291831Y-55842051D01*
X5291835Y-55842051D01*
X5473914Y-55766632D01*
X5637782Y-55657139D01*
X5777139Y-55517782D01*
X5886632Y-55353914D01*
X5962051Y-55171835D01*
X6000500Y-54978541D01*
X6000500Y-54781459D01*
X5962051Y-54588165D01*
X5903718Y-54447336D01*
X5886633Y-54406088D01*
X5884984Y-54403619D01*
X5777139Y-54242218D01*
X5637782Y-54102861D01*
X5473914Y-53993368D01*
X5473911Y-53993366D01*
X5473912Y-53993366D01*
X5291835Y-53917949D01*
X5291831Y-53917947D01*
X5146534Y-53889046D01*
X5098541Y-53879500D01*
X4901459Y-53879500D01*
X4858765Y-53887992D01*
X4708168Y-53917947D01*
X4708164Y-53917949D01*
X4526088Y-53993366D01*
X4362220Y-54102859D01*
X4222859Y-54242220D01*
X4113366Y-54406088D01*
X4037949Y-54588164D01*
X4037947Y-54588168D01*
X3999500Y-54781460D01*
X635500Y-54781460D01*
X635500Y-53396460D01*
X1159500Y-53396460D01*
X1159500Y-53593539D01*
X1197947Y-53786831D01*
X1197949Y-53786835D01*
X1273366Y-53968911D01*
X1273367Y-53968913D01*
X1273368Y-53968914D01*
X1382861Y-54132782D01*
X1522218Y-54272139D01*
X1686086Y-54381632D01*
X1686088Y-54381633D01*
X1686087Y-54381633D01*
X1745128Y-54406088D01*
X1868165Y-54457051D01*
X1868166Y-54457051D01*
X1868168Y-54457052D01*
X1957384Y-54474798D01*
X2061459Y-54495500D01*
X2061461Y-54495500D01*
X2258539Y-54495500D01*
X2258541Y-54495500D01*
X2386238Y-54470099D01*
X2451831Y-54457052D01*
X2451831Y-54457051D01*
X2451835Y-54457051D01*
X2633914Y-54381632D01*
X2797782Y-54272139D01*
X2937139Y-54132782D01*
X3046632Y-53968914D01*
X3122051Y-53786835D01*
X3123845Y-53777819D01*
X3160500Y-53593539D01*
X3160500Y-53396460D01*
X3148898Y-53338135D01*
X3122051Y-53203165D01*
X3058702Y-53050226D01*
X3046633Y-53021087D01*
X3046631Y-53021084D01*
X3014266Y-52972646D01*
X3014264Y-52972644D01*
X2937140Y-52857220D01*
X2937139Y-52857218D01*
X2797782Y-52717861D01*
X2633914Y-52608368D01*
X2633911Y-52608366D01*
X2633912Y-52608366D01*
X2451835Y-52532949D01*
X2451831Y-52532947D01*
X2306534Y-52504046D01*
X2258541Y-52494500D01*
X2061459Y-52494500D01*
X2018765Y-52502992D01*
X1868168Y-52532947D01*
X1868164Y-52532949D01*
X1686088Y-52608366D01*
X1522220Y-52717859D01*
X1382859Y-52857220D01*
X1273366Y-53021088D01*
X1197949Y-53203164D01*
X1197947Y-53203168D01*
X1159500Y-53396460D01*
X635500Y-53396460D01*
X635500Y-52013696D01*
X4022200Y-52013696D01*
X4022200Y-52206303D01*
X4059773Y-52395205D01*
X4059775Y-52395210D01*
X4133486Y-52573164D01*
X4153431Y-52603013D01*
X4517036Y-52239407D01*
X4534075Y-52302993D01*
X4599901Y-52417007D01*
X4692993Y-52510099D01*
X4807007Y-52575925D01*
X4870589Y-52592962D01*
X4506985Y-52956567D01*
X4536835Y-52976513D01*
X4714789Y-53050224D01*
X4714794Y-53050226D01*
X4903697Y-53087800D01*
X5096303Y-53087800D01*
X5285205Y-53050226D01*
X5285210Y-53050224D01*
X5463160Y-52976515D01*
X5493013Y-52956567D01*
X5129408Y-52592962D01*
X5192993Y-52575925D01*
X5307007Y-52510099D01*
X5400099Y-52417007D01*
X5465925Y-52302993D01*
X5482962Y-52239408D01*
X5846567Y-52603013D01*
X5866515Y-52573160D01*
X5940224Y-52395210D01*
X5940226Y-52395205D01*
X5977800Y-52206303D01*
X5977800Y-52013696D01*
X5940226Y-51824794D01*
X5940224Y-51824789D01*
X5866513Y-51646835D01*
X5846567Y-51616985D01*
X5482962Y-51980589D01*
X5465925Y-51917007D01*
X5400099Y-51802993D01*
X5307007Y-51709901D01*
X5192993Y-51644075D01*
X5129407Y-51627036D01*
X5493013Y-51263431D01*
X5463164Y-51243486D01*
X5285210Y-51169775D01*
X5285205Y-51169773D01*
X5096303Y-51132200D01*
X4903697Y-51132200D01*
X4714794Y-51169773D01*
X4714789Y-51169775D01*
X4536835Y-51243486D01*
X4506985Y-51263431D01*
X4870591Y-51627037D01*
X4807007Y-51644075D01*
X4692993Y-51709901D01*
X4599901Y-51802993D01*
X4534075Y-51917007D01*
X4517037Y-51980591D01*
X4153431Y-51616985D01*
X4133486Y-51646835D01*
X4059775Y-51824789D01*
X4059773Y-51824794D01*
X4022200Y-52013696D01*
X635500Y-52013696D01*
X635500Y-45012257D01*
X2522200Y-45012257D01*
X2522200Y-45297742D01*
X2559463Y-45580779D01*
X2559466Y-45580791D01*
X2633349Y-45856526D01*
X2633352Y-45856534D01*
X2742596Y-46120277D01*
X2742597Y-46120279D01*
X2885337Y-46367512D01*
X2885339Y-46367515D01*
X2993270Y-46508174D01*
X3405747Y-46095696D01*
X3479588Y-46197330D01*
X3657670Y-46375412D01*
X3759300Y-46449250D01*
X3346824Y-46861727D01*
X3487484Y-46969660D01*
X3487487Y-46969662D01*
X3734720Y-47112402D01*
X3734722Y-47112403D01*
X3998465Y-47221647D01*
X3998473Y-47221650D01*
X4274208Y-47295533D01*
X4274220Y-47295536D01*
X4557257Y-47332800D01*
X4842743Y-47332800D01*
X5125779Y-47295536D01*
X5125791Y-47295533D01*
X5401526Y-47221650D01*
X5401534Y-47221647D01*
X5665277Y-47112403D01*
X5665279Y-47112402D01*
X5912519Y-46969658D01*
X6053174Y-46861728D01*
X5640698Y-46449252D01*
X5742330Y-46375412D01*
X5920412Y-46197330D01*
X5994252Y-46095698D01*
X6406728Y-46508174D01*
X6514658Y-46367519D01*
X6657402Y-46120279D01*
X6657403Y-46120277D01*
X6766647Y-45856534D01*
X6766650Y-45856526D01*
X6840533Y-45580791D01*
X6840536Y-45580779D01*
X6877800Y-45297742D01*
X6877800Y-45012257D01*
X6840536Y-44729220D01*
X6840533Y-44729208D01*
X6766650Y-44453473D01*
X6766647Y-44453465D01*
X6657403Y-44189722D01*
X6657402Y-44189720D01*
X6514662Y-43942487D01*
X6514660Y-43942484D01*
X6406727Y-43801824D01*
X5994250Y-44214300D01*
X5920412Y-44112670D01*
X5742330Y-43934588D01*
X5640696Y-43860747D01*
X6053174Y-43448270D01*
X5912515Y-43340339D01*
X5912512Y-43340337D01*
X5665279Y-43197597D01*
X5665277Y-43197596D01*
X5401534Y-43088352D01*
X5401526Y-43088349D01*
X5125791Y-43014466D01*
X5125779Y-43014463D01*
X4842743Y-42977200D01*
X4557257Y-42977200D01*
X4274220Y-43014463D01*
X4274208Y-43014466D01*
X3998473Y-43088349D01*
X3998465Y-43088352D01*
X3734722Y-43197596D01*
X3734720Y-43197597D01*
X3487480Y-43340341D01*
X3346824Y-43448270D01*
X3759301Y-43860747D01*
X3657670Y-43934588D01*
X3479588Y-44112670D01*
X3405747Y-44214301D01*
X2993270Y-43801824D01*
X2885341Y-43942480D01*
X2742597Y-44189720D01*
X2742596Y-44189722D01*
X2633352Y-44453465D01*
X2633349Y-44453473D01*
X2559466Y-44729208D01*
X2559463Y-44729220D01*
X2522200Y-45012257D01*
X635500Y-45012257D01*
X635500Y-36969987D01*
X1809700Y-36969987D01*
X1809700Y-37749999D01*
X1809701Y-37750000D01*
X2451518Y-37750000D01*
X2440889Y-37768409D01*
X2400000Y-37921009D01*
X2400000Y-38078991D01*
X2440889Y-38231591D01*
X2451518Y-38250000D01*
X1809702Y-38250000D01*
X1809701Y-38250001D01*
X1809701Y-39030008D01*
X1820016Y-39081875D01*
X1859311Y-39140682D01*
X1859317Y-39140688D01*
X1918124Y-39179983D01*
X1969987Y-39190299D01*
X2749998Y-39190299D01*
X2750000Y-39190298D01*
X2750000Y-38548482D01*
X2768409Y-38559111D01*
X2921009Y-38600000D01*
X3078991Y-38600000D01*
X3231591Y-38559111D01*
X3250000Y-38548482D01*
X3250000Y-39190298D01*
X3250001Y-39190299D01*
X4030009Y-39190299D01*
X4081875Y-39179983D01*
X4140682Y-39140688D01*
X4140688Y-39140682D01*
X4179983Y-39081875D01*
X4190300Y-39030012D01*
X4190300Y-38250001D01*
X4190299Y-38250000D01*
X3548482Y-38250000D01*
X3559111Y-38231591D01*
X3600000Y-38078991D01*
X3600000Y-37921009D01*
X3559111Y-37768409D01*
X3548482Y-37750000D01*
X4190298Y-37750000D01*
X4190299Y-37749999D01*
X4190299Y-36969991D01*
X4179983Y-36918124D01*
X4140688Y-36859317D01*
X4140682Y-36859311D01*
X4081875Y-36820016D01*
X4030013Y-36809700D01*
X3250001Y-36809700D01*
X3250000Y-36809701D01*
X3250000Y-37451517D01*
X3231591Y-37440889D01*
X3078991Y-37400000D01*
X2921009Y-37400000D01*
X2768409Y-37440889D01*
X2750000Y-37451517D01*
X2750000Y-36809701D01*
X2749999Y-36809700D01*
X1969986Y-36809700D01*
X1969984Y-36809701D01*
X1918128Y-36820014D01*
X1918124Y-36820016D01*
X1859317Y-36859311D01*
X1859311Y-36859317D01*
X1820016Y-36918124D01*
X1809700Y-36969987D01*
X635500Y-36969987D01*
X635500Y-34094536D01*
X1787000Y-34094536D01*
X1787000Y-34285463D01*
X1816866Y-34474040D01*
X1872845Y-34646322D01*
X1875869Y-34655630D01*
X1962549Y-34825751D01*
X2074775Y-34980217D01*
X2209783Y-35115225D01*
X2364249Y-35227451D01*
X2534370Y-35314131D01*
X2715955Y-35373132D01*
X2715956Y-35373132D01*
X2715959Y-35373133D01*
X2761279Y-35380310D01*
X2904535Y-35403000D01*
X2904537Y-35403000D01*
X3095463Y-35403000D01*
X3095465Y-35403000D01*
X3258306Y-35377208D01*
X3284040Y-35373133D01*
X3284041Y-35373132D01*
X3284045Y-35373132D01*
X3465630Y-35314131D01*
X3635751Y-35227451D01*
X3790217Y-35115225D01*
X3925225Y-34980217D01*
X4037451Y-34825751D01*
X4124131Y-34655630D01*
X4183132Y-34474045D01*
X4213000Y-34285465D01*
X4213000Y-34094535D01*
X4186883Y-33929636D01*
X4183133Y-33905959D01*
X4124132Y-33724374D01*
X4124131Y-33724370D01*
X4037451Y-33554249D01*
X3925225Y-33399783D01*
X3790217Y-33264775D01*
X3635751Y-33152549D01*
X3465630Y-33065869D01*
X3465627Y-33065868D01*
X3465625Y-33065867D01*
X3284040Y-33006866D01*
X3117321Y-32980461D01*
X3095465Y-32977000D01*
X2904535Y-32977000D01*
X2884948Y-32980102D01*
X2715959Y-33006866D01*
X2534374Y-33065867D01*
X2364252Y-33152547D01*
X2364248Y-33152549D01*
X2209782Y-33264775D01*
X2074775Y-33399782D01*
X1962549Y-33554248D01*
X1962547Y-33554252D01*
X1875867Y-33724374D01*
X1816866Y-33905959D01*
X1787000Y-34094536D01*
X635500Y-34094536D01*
X635500Y-30284536D01*
X1787000Y-30284536D01*
X1787000Y-30475463D01*
X1816866Y-30664040D01*
X1816868Y-30664045D01*
X1875869Y-30845630D01*
X1962549Y-31015751D01*
X2074775Y-31170217D01*
X2209783Y-31305225D01*
X2364249Y-31417451D01*
X2534370Y-31504131D01*
X2715955Y-31563132D01*
X2715956Y-31563132D01*
X2715959Y-31563133D01*
X2761279Y-31570310D01*
X2904535Y-31593000D01*
X2904537Y-31593000D01*
X3095463Y-31593000D01*
X3095465Y-31593000D01*
X3258306Y-31567208D01*
X3284040Y-31563133D01*
X3284041Y-31563132D01*
X3284045Y-31563132D01*
X3465630Y-31504131D01*
X3635751Y-31417451D01*
X3790217Y-31305225D01*
X3925225Y-31170217D01*
X4037451Y-31015751D01*
X4124131Y-30845630D01*
X4183132Y-30664045D01*
X4213000Y-30475465D01*
X4213000Y-30284535D01*
X4183132Y-30095955D01*
X4124131Y-29914370D01*
X4037451Y-29744249D01*
X3925225Y-29589783D01*
X3790217Y-29454775D01*
X3635751Y-29342549D01*
X3465630Y-29255869D01*
X3465627Y-29255868D01*
X3465625Y-29255867D01*
X3284040Y-29196866D01*
X3117321Y-29170461D01*
X3095465Y-29167000D01*
X2904535Y-29167000D01*
X2884948Y-29170102D01*
X2715959Y-29196866D01*
X2534374Y-29255867D01*
X2364252Y-29342547D01*
X2364248Y-29342549D01*
X2209782Y-29454775D01*
X2074775Y-29589782D01*
X1962549Y-29744248D01*
X1962547Y-29744252D01*
X1875867Y-29914374D01*
X1816866Y-30095959D01*
X1787000Y-30284536D01*
X635500Y-30284536D01*
X635500Y-24409340D01*
X1499500Y-24409340D01*
X1499500Y-24590659D01*
X1534872Y-24768496D01*
X1534873Y-24768500D01*
X1556239Y-24820080D01*
X1604263Y-24936020D01*
X1705001Y-25086785D01*
X1833215Y-25214999D01*
X1833218Y-25215001D01*
X1833219Y-25215002D01*
X1926434Y-25277286D01*
X1961988Y-25325775D01*
X1965500Y-25350372D01*
X1965500Y-25646565D01*
X1965499Y-25646583D01*
X1965499Y-25771635D01*
X1989927Y-25862802D01*
X1996472Y-25887229D01*
X2056311Y-25990873D01*
X2140931Y-26075492D01*
X2140932Y-26075492D01*
X3751107Y-27685667D01*
X3751107Y-27685668D01*
X3835726Y-27770288D01*
X3835728Y-27770289D01*
X3835730Y-27770291D01*
X3939369Y-27830127D01*
X3963795Y-27836671D01*
X3963796Y-27836672D01*
X3963797Y-27836672D01*
X4054964Y-27861101D01*
X4054965Y-27861101D01*
X4180018Y-27861101D01*
X4180034Y-27861100D01*
X12297530Y-27861100D01*
X12354031Y-27881665D01*
X12359685Y-27886845D01*
X17553755Y-33080915D01*
X17579166Y-33135409D01*
X17579500Y-33143070D01*
X17579500Y-33846722D01*
X17558935Y-33903223D01*
X17553756Y-33908875D01*
X17532995Y-33929636D01*
X17462406Y-34035280D01*
X17413787Y-34152659D01*
X17413785Y-34152663D01*
X17389000Y-34277274D01*
X17389000Y-34404325D01*
X17413785Y-34528936D01*
X17413787Y-34528940D01*
X17462406Y-34646319D01*
X17462407Y-34646321D01*
X17462408Y-34646322D01*
X17532996Y-34751964D01*
X17622836Y-34841804D01*
X17728478Y-34912392D01*
X17845860Y-34961013D01*
X17845861Y-34961013D01*
X17845863Y-34961014D01*
X17908592Y-34973491D01*
X17970473Y-34985800D01*
X17970475Y-34985800D01*
X18097525Y-34985800D01*
X18097527Y-34985800D01*
X18179848Y-34969425D01*
X18222136Y-34961014D01*
X18222136Y-34961013D01*
X18222140Y-34961013D01*
X18339522Y-34912392D01*
X18445164Y-34841804D01*
X18535004Y-34751964D01*
X18605592Y-34646322D01*
X18654213Y-34528940D01*
X18679000Y-34404327D01*
X18679000Y-34277273D01*
X18654213Y-34152660D01*
X18605592Y-34035278D01*
X18535004Y-33929636D01*
X18535001Y-33929633D01*
X18514244Y-33908875D01*
X18488834Y-33854381D01*
X18488500Y-33846722D01*
X18488500Y-32858564D01*
X18457527Y-32742970D01*
X18457527Y-32742969D01*
X18397691Y-32639330D01*
X18397689Y-32639328D01*
X18397688Y-32639326D01*
X18310001Y-32551640D01*
X18310000Y-32551640D01*
X12885892Y-27127532D01*
X12885892Y-27127531D01*
X12801273Y-27042911D01*
X12697629Y-26983072D01*
X12673202Y-26976527D01*
X12673202Y-26976526D01*
X12582036Y-26952099D01*
X12462364Y-26952099D01*
X12456982Y-26952099D01*
X12456966Y-26952100D01*
X4339470Y-26952100D01*
X4282969Y-26931535D01*
X4277315Y-26926355D01*
X2900245Y-25549285D01*
X2892134Y-25531893D01*
X2879801Y-25517194D01*
X2876469Y-25498297D01*
X2874834Y-25494791D01*
X2874500Y-25487130D01*
X2874500Y-25350372D01*
X2895065Y-25293871D01*
X2913566Y-25277286D01*
X2928180Y-25267520D01*
X3006785Y-25214999D01*
X3134999Y-25086785D01*
X3235737Y-24936020D01*
X3305126Y-24768500D01*
X3340500Y-24590661D01*
X3340500Y-24409340D01*
X4039500Y-24409340D01*
X4039500Y-24590659D01*
X4074872Y-24768496D01*
X4074873Y-24768500D01*
X4096239Y-24820080D01*
X4144263Y-24936020D01*
X4245001Y-25086785D01*
X4373215Y-25214999D01*
X4523980Y-25315737D01*
X4638800Y-25363297D01*
X4691499Y-25385126D01*
X4691503Y-25385127D01*
X4755217Y-25397800D01*
X4869339Y-25420500D01*
X4869341Y-25420500D01*
X5050659Y-25420500D01*
X5050661Y-25420500D01*
X5168144Y-25397131D01*
X5228496Y-25385127D01*
X5228500Y-25385126D01*
X5396020Y-25315737D01*
X5546785Y-25214999D01*
X5674999Y-25086785D01*
X5775737Y-24936020D01*
X5845126Y-24768500D01*
X5880500Y-24590661D01*
X5880500Y-24411575D01*
X6602200Y-24411575D01*
X6602200Y-24588424D01*
X6636700Y-24761875D01*
X6636702Y-24761879D01*
X6704379Y-24925268D01*
X6711107Y-24935337D01*
X7100000Y-24546444D01*
X7100000Y-24552661D01*
X7127259Y-24654394D01*
X7179920Y-24745606D01*
X7254394Y-24820080D01*
X7345606Y-24872741D01*
X7447339Y-24900000D01*
X7453552Y-24900000D01*
X7064661Y-25288891D01*
X7074734Y-25295621D01*
X7238120Y-25363297D01*
X7238124Y-25363299D01*
X7411576Y-25397800D01*
X7588424Y-25397800D01*
X7761875Y-25363299D01*
X7761879Y-25363297D01*
X7925269Y-25295619D01*
X7935337Y-25288891D01*
X7546446Y-24900000D01*
X7552661Y-24900000D01*
X7654394Y-24872741D01*
X7745606Y-24820080D01*
X7820080Y-24745606D01*
X7872741Y-24654394D01*
X7900000Y-24552661D01*
X7900000Y-24546446D01*
X8288891Y-24935337D01*
X8295619Y-24925269D01*
X8363297Y-24761879D01*
X8363299Y-24761875D01*
X8397800Y-24588424D01*
X8397800Y-24411575D01*
X8363299Y-24238124D01*
X8363297Y-24238120D01*
X8295621Y-24074734D01*
X8288890Y-24064661D01*
X7900000Y-24453551D01*
X7900000Y-24447339D01*
X7872741Y-24345606D01*
X7820080Y-24254394D01*
X7745606Y-24179920D01*
X7654394Y-24127259D01*
X7552661Y-24100000D01*
X7546444Y-24100000D01*
X7935337Y-23711107D01*
X7925268Y-23704379D01*
X7761879Y-23636702D01*
X7761875Y-23636700D01*
X7588424Y-23602200D01*
X7411576Y-23602200D01*
X7238124Y-23636700D01*
X7238120Y-23636702D01*
X7074733Y-23704379D01*
X7064661Y-23711107D01*
X7453554Y-24100000D01*
X7447339Y-24100000D01*
X7345606Y-24127259D01*
X7254394Y-24179920D01*
X7179920Y-24254394D01*
X7127259Y-24345606D01*
X7100000Y-24447339D01*
X7100000Y-24453554D01*
X6711107Y-24064661D01*
X6704379Y-24074733D01*
X6636702Y-24238120D01*
X6636700Y-24238124D01*
X6602200Y-24411575D01*
X5880500Y-24411575D01*
X5880500Y-24409339D01*
X5845126Y-24231500D01*
X5775737Y-24063980D01*
X5674999Y-23913215D01*
X5546785Y-23785001D01*
X5396020Y-23684263D01*
X5334139Y-23658631D01*
X5228500Y-23614873D01*
X5228496Y-23614872D01*
X5094815Y-23588282D01*
X5050661Y-23579500D01*
X4869339Y-23579500D01*
X4830060Y-23587312D01*
X4691503Y-23614872D01*
X4691499Y-23614873D01*
X4523978Y-23684264D01*
X4373217Y-23784999D01*
X4244999Y-23913217D01*
X4144264Y-24063978D01*
X4074873Y-24231499D01*
X4074872Y-24231503D01*
X4039500Y-24409340D01*
X3340500Y-24409340D01*
X3340500Y-24409339D01*
X3305126Y-24231500D01*
X3235737Y-24063980D01*
X3134999Y-23913215D01*
X3006785Y-23785001D01*
X2856020Y-23684263D01*
X2794139Y-23658631D01*
X2688500Y-23614873D01*
X2688496Y-23614872D01*
X2554815Y-23588282D01*
X2510661Y-23579500D01*
X2329339Y-23579500D01*
X2290060Y-23587312D01*
X2151503Y-23614872D01*
X2151499Y-23614873D01*
X1983978Y-23684264D01*
X1833217Y-23784999D01*
X1704999Y-23913217D01*
X1604264Y-24063978D01*
X1534873Y-24231499D01*
X1534872Y-24231503D01*
X1499500Y-24409340D01*
X635500Y-24409340D01*
X635500Y-17909340D01*
X1499500Y-17909340D01*
X1499500Y-18090659D01*
X1534872Y-18268496D01*
X1534873Y-18268500D01*
X1556239Y-18320080D01*
X1604263Y-18436020D01*
X1705001Y-18586785D01*
X1833215Y-18714999D01*
X1983980Y-18815737D01*
X2098800Y-18863297D01*
X2151499Y-18885126D01*
X2151503Y-18885127D01*
X2215217Y-18897800D01*
X2329339Y-18920500D01*
X2329341Y-18920500D01*
X2510659Y-18920500D01*
X2510661Y-18920500D01*
X2628144Y-18897131D01*
X2688496Y-18885127D01*
X2688500Y-18885126D01*
X2856020Y-18815737D01*
X3006785Y-18714999D01*
X3134999Y-18586785D01*
X3235737Y-18436020D01*
X3305126Y-18268500D01*
X3340500Y-18090661D01*
X3340500Y-17909340D01*
X4039500Y-17909340D01*
X4039500Y-18090659D01*
X4074872Y-18268496D01*
X4074873Y-18268500D01*
X4096239Y-18320080D01*
X4144263Y-18436020D01*
X4245001Y-18586785D01*
X4373215Y-18714999D01*
X4523980Y-18815737D01*
X4638800Y-18863297D01*
X4691499Y-18885126D01*
X4691503Y-18885127D01*
X4755217Y-18897800D01*
X4869339Y-18920500D01*
X4869341Y-18920500D01*
X5050659Y-18920500D01*
X5050661Y-18920500D01*
X5168144Y-18897131D01*
X5228496Y-18885127D01*
X5228500Y-18885126D01*
X5396020Y-18815737D01*
X5546785Y-18714999D01*
X5674999Y-18586785D01*
X5775737Y-18436020D01*
X5845126Y-18268500D01*
X5880500Y-18090661D01*
X5880500Y-17911575D01*
X6602200Y-17911575D01*
X6602200Y-18088424D01*
X6636700Y-18261875D01*
X6636702Y-18261879D01*
X6704379Y-18425268D01*
X6711107Y-18435337D01*
X7100000Y-18046444D01*
X7100000Y-18052661D01*
X7127259Y-18154394D01*
X7179920Y-18245606D01*
X7254394Y-18320080D01*
X7345606Y-18372741D01*
X7447339Y-18400000D01*
X7453552Y-18400000D01*
X7064661Y-18788891D01*
X7074734Y-18795621D01*
X7238120Y-18863297D01*
X7238124Y-18863299D01*
X7411576Y-18897800D01*
X7588424Y-18897800D01*
X7761875Y-18863299D01*
X7761879Y-18863297D01*
X7925269Y-18795619D01*
X7935337Y-18788891D01*
X7546446Y-18400000D01*
X7552661Y-18400000D01*
X7654394Y-18372741D01*
X7745606Y-18320080D01*
X7820080Y-18245606D01*
X7872741Y-18154394D01*
X7900000Y-18052661D01*
X7900000Y-18046446D01*
X8288891Y-18435337D01*
X8295619Y-18425269D01*
X8363297Y-18261879D01*
X8363299Y-18261875D01*
X8397800Y-18088424D01*
X8397800Y-17911575D01*
X8363299Y-17738124D01*
X8363297Y-17738120D01*
X8295621Y-17574734D01*
X8288890Y-17564661D01*
X7900000Y-17953551D01*
X7900000Y-17947339D01*
X7872741Y-17845606D01*
X7820080Y-17754394D01*
X7745606Y-17679920D01*
X7654394Y-17627259D01*
X7552661Y-17600000D01*
X7546444Y-17600000D01*
X7935337Y-17211107D01*
X7925268Y-17204379D01*
X7761879Y-17136702D01*
X7761875Y-17136700D01*
X7588424Y-17102200D01*
X7411576Y-17102200D01*
X7238124Y-17136700D01*
X7238120Y-17136702D01*
X7074733Y-17204379D01*
X7064661Y-17211107D01*
X7453554Y-17600000D01*
X7447339Y-17600000D01*
X7345606Y-17627259D01*
X7254394Y-17679920D01*
X7179920Y-17754394D01*
X7127259Y-17845606D01*
X7100000Y-17947339D01*
X7100000Y-17953554D01*
X6711107Y-17564661D01*
X6704379Y-17574733D01*
X6636702Y-17738120D01*
X6636700Y-17738124D01*
X6602200Y-17911575D01*
X5880500Y-17911575D01*
X5880500Y-17909339D01*
X5845126Y-17731500D01*
X5775737Y-17563980D01*
X5674999Y-17413215D01*
X5546785Y-17285001D01*
X5396020Y-17184263D01*
X5334139Y-17158631D01*
X5228500Y-17114873D01*
X5228496Y-17114872D01*
X5094815Y-17088282D01*
X5050661Y-17079500D01*
X4869339Y-17079500D01*
X4830060Y-17087312D01*
X4691503Y-17114872D01*
X4691499Y-17114873D01*
X4523978Y-17184264D01*
X4373217Y-17284999D01*
X4244999Y-17413217D01*
X4144264Y-17563978D01*
X4074873Y-17731499D01*
X4074872Y-17731503D01*
X4039500Y-17909340D01*
X3340500Y-17909340D01*
X3340500Y-17909339D01*
X3305126Y-17731500D01*
X3235737Y-17563980D01*
X3134999Y-17413215D01*
X3006785Y-17285001D01*
X2856020Y-17184263D01*
X2794139Y-17158631D01*
X2688500Y-17114873D01*
X2688496Y-17114872D01*
X2554815Y-17088282D01*
X2510661Y-17079500D01*
X2329339Y-17079500D01*
X2290060Y-17087312D01*
X2151503Y-17114872D01*
X2151499Y-17114873D01*
X1983978Y-17184264D01*
X1833217Y-17284999D01*
X1704999Y-17413217D01*
X1604264Y-17563978D01*
X1534873Y-17731499D01*
X1534872Y-17731503D01*
X1499500Y-17909340D01*
X635500Y-17909340D01*
X635500Y-10969987D01*
X1809700Y-10969987D01*
X1809700Y-11749999D01*
X1809701Y-11750000D01*
X2451518Y-11750000D01*
X2440889Y-11768409D01*
X2400000Y-11921009D01*
X2400000Y-12078991D01*
X2440889Y-12231591D01*
X2451518Y-12250000D01*
X1809702Y-12250000D01*
X1809701Y-12250001D01*
X1809701Y-13030008D01*
X1820016Y-13081875D01*
X1859311Y-13140682D01*
X1859317Y-13140688D01*
X1918124Y-13179983D01*
X1969987Y-13190299D01*
X2749998Y-13190299D01*
X2750000Y-13190298D01*
X2750000Y-12548482D01*
X2768409Y-12559111D01*
X2921009Y-12600000D01*
X3078991Y-12600000D01*
X3231591Y-12559111D01*
X3250000Y-12548482D01*
X3250000Y-13190298D01*
X3250001Y-13190299D01*
X4030009Y-13190299D01*
X4081875Y-13179983D01*
X4140682Y-13140688D01*
X4140688Y-13140682D01*
X4179983Y-13081875D01*
X4190300Y-13030012D01*
X4190300Y-12250001D01*
X4190299Y-12250000D01*
X3548482Y-12250000D01*
X3559111Y-12231591D01*
X3600000Y-12078991D01*
X3600000Y-11921009D01*
X3559111Y-11768409D01*
X3548482Y-11750000D01*
X4190298Y-11750000D01*
X4190299Y-11749999D01*
X4190299Y-10969991D01*
X4179983Y-10918124D01*
X4140688Y-10859317D01*
X4140682Y-10859311D01*
X4081875Y-10820016D01*
X4030013Y-10809700D01*
X3250001Y-10809700D01*
X3250000Y-10809701D01*
X3250000Y-11451517D01*
X3231591Y-11440889D01*
X3078991Y-11400000D01*
X2921009Y-11400000D01*
X2768409Y-11440889D01*
X2750000Y-11451517D01*
X2750000Y-10809701D01*
X2749999Y-10809700D01*
X1969986Y-10809700D01*
X1969984Y-10809701D01*
X1918128Y-10820014D01*
X1918124Y-10820016D01*
X1859317Y-10859311D01*
X1859311Y-10859317D01*
X1820016Y-10918124D01*
X1809700Y-10969987D01*
X635500Y-10969987D01*
X635500Y-8094536D01*
X1787000Y-8094536D01*
X1787000Y-8285463D01*
X1816866Y-8474040D01*
X1816868Y-8474045D01*
X1875869Y-8655630D01*
X1962549Y-8825751D01*
X2074775Y-8980217D01*
X2209783Y-9115225D01*
X2364249Y-9227451D01*
X2534370Y-9314131D01*
X2715955Y-9373132D01*
X2715956Y-9373132D01*
X2715959Y-9373133D01*
X2761279Y-9380310D01*
X2904535Y-9403000D01*
X2904537Y-9403000D01*
X3095463Y-9403000D01*
X3095465Y-9403000D01*
X3258306Y-9377208D01*
X3284040Y-9373133D01*
X3284041Y-9373132D01*
X3284045Y-9373132D01*
X3465630Y-9314131D01*
X3635751Y-9227451D01*
X3790217Y-9115225D01*
X3925225Y-8980217D01*
X4037451Y-8825751D01*
X4124131Y-8655630D01*
X4183132Y-8474045D01*
X4213000Y-8285465D01*
X4213000Y-8094535D01*
X4185704Y-7922192D01*
X4183133Y-7905959D01*
X4137321Y-7764963D01*
X4124131Y-7724370D01*
X4037451Y-7554249D01*
X3925225Y-7399783D01*
X3790217Y-7264775D01*
X3635751Y-7152549D01*
X3465630Y-7065869D01*
X3465627Y-7065868D01*
X3465625Y-7065867D01*
X3284040Y-7006866D01*
X3117321Y-6980461D01*
X3095465Y-6977000D01*
X2904535Y-6977000D01*
X2884948Y-6980102D01*
X2715959Y-7006866D01*
X2534374Y-7065867D01*
X2364252Y-7152547D01*
X2364248Y-7152549D01*
X2209782Y-7264775D01*
X2074775Y-7399782D01*
X1962549Y-7554248D01*
X1962547Y-7554252D01*
X1875867Y-7724374D01*
X1816866Y-7905959D01*
X1787000Y-8094536D01*
X635500Y-8094536D01*
X635500Y-4284536D01*
X1787000Y-4284536D01*
X1787000Y-4475463D01*
X1816866Y-4664040D01*
X1858050Y-4790788D01*
X1875869Y-4845630D01*
X1962549Y-5015751D01*
X2074775Y-5170217D01*
X2209783Y-5305225D01*
X2364249Y-5417451D01*
X2534370Y-5504131D01*
X2715955Y-5563132D01*
X2715956Y-5563132D01*
X2715959Y-5563133D01*
X2761279Y-5570310D01*
X2904535Y-5593000D01*
X2904537Y-5593000D01*
X3095463Y-5593000D01*
X3095465Y-5593000D01*
X3258306Y-5567208D01*
X3284040Y-5563133D01*
X3284041Y-5563132D01*
X3284045Y-5563132D01*
X3465630Y-5504131D01*
X3635751Y-5417451D01*
X3790217Y-5305225D01*
X3925225Y-5170217D01*
X4037451Y-5015751D01*
X4124131Y-4845630D01*
X4183132Y-4664045D01*
X4213000Y-4475465D01*
X4213000Y-4284535D01*
X4183132Y-4095955D01*
X4124131Y-3914370D01*
X4037451Y-3744249D01*
X3925225Y-3589783D01*
X3790217Y-3454775D01*
X3635751Y-3342549D01*
X3465630Y-3255869D01*
X3465627Y-3255868D01*
X3465625Y-3255867D01*
X3284040Y-3196866D01*
X3117321Y-3170461D01*
X3095465Y-3167000D01*
X2904535Y-3167000D01*
X2884948Y-3170102D01*
X2715959Y-3196866D01*
X2534374Y-3255867D01*
X2364252Y-3342547D01*
X2364248Y-3342549D01*
X2209782Y-3454775D01*
X2074775Y-3589782D01*
X1962549Y-3744248D01*
X1962547Y-3744252D01*
X1875867Y-3914374D01*
X1816866Y-4095959D01*
X1787000Y-4284536D01*
X635500Y-4284536D01*
X635500Y-705600D01*
X656065Y-649099D01*
X708136Y-619035D01*
X723400Y-617700D01*
X9139897Y-617700D01*
X9196398Y-638265D01*
G37*
%TD.AperFunction*%
%TD*%
M02*
