%TF.GenerationSoftware,KiCad,Pcbnew,9.0.6*%
%TF.CreationDate,2025-11-26T11:15:41+11:00*%
%TF.ProjectId,v7_equip_digital_out,76375f65-7175-4697-905f-646967697461,rev?*%
%TF.SameCoordinates,Original*%
%TF.FileFunction,Copper,L2,Bot*%
%TF.FilePolarity,Positive*%
%FSLAX46Y46*%
G04 Gerber Fmt 4.6, Leading zero omitted, Abs format (unit mm)*
G04 Created by KiCad (PCBNEW 9.0.6) date 2025-11-26 11:15:41*
%MOMM*%
%LPD*%
G01*
G04 APERTURE LIST*
%TA.AperFunction,ComponentPad*%
%ADD10R,1.524000X1.524000*%
%TD*%
%TA.AperFunction,ComponentPad*%
%ADD11C,1.524000*%
%TD*%
%TA.AperFunction,ComponentPad*%
%ADD12C,2.100000*%
%TD*%
%TA.AperFunction,ComponentPad*%
%ADD13R,2.025000X2.025000*%
%TD*%
%TA.AperFunction,ComponentPad*%
%ADD14C,2.025000*%
%TD*%
%TA.AperFunction,ComponentPad*%
%ADD15R,1.700000X1.700000*%
%TD*%
%TA.AperFunction,ComponentPad*%
%ADD16O,1.700000X1.700000*%
%TD*%
%TA.AperFunction,ViaPad*%
%ADD17C,0.889000*%
%TD*%
%TA.AperFunction,Conductor*%
%ADD18C,1.016000*%
%TD*%
%TA.AperFunction,Conductor*%
%ADD19C,0.508000*%
%TD*%
%TA.AperFunction,Conductor*%
%ADD20C,0.609600*%
%TD*%
%TA.AperFunction,Conductor*%
%ADD21C,0.406400*%
%TD*%
G04 APERTURE END LIST*
D10*
%TO.P,K2,1*%
%TO.N,Net-(Q3-C)*%
X29000000Y-22606000D03*
D11*
%TO.P,K2,4*%
%TO.N,Net-(J2-Pin_2)*%
X21380000Y-22606000D03*
%TO.P,K2,6*%
%TO.N,Net-(J2-Pin_1)*%
X16300000Y-22606000D03*
%TO.P,K2,8*%
%TO.N,Net-(J2-Pin_3)*%
X11220000Y-22606000D03*
%TO.P,K2,9*%
X11220000Y-30226000D03*
%TO.P,K2,11*%
%TO.N,Net-(J2-Pin_1)*%
X16300000Y-30226000D03*
%TO.P,K2,13*%
%TO.N,Net-(J2-Pin_2)*%
X21380000Y-30226000D03*
%TO.P,K2,16*%
%TO.N,+5V*%
X29000000Y-30226000D03*
%TD*%
D12*
%TO.P,J5,1,Pin_1*%
%TO.N,Net-(J5-Pin_1)*%
X3000000Y-71500000D03*
%TO.P,J5,2,Pin_2*%
%TO.N,Net-(J5-Pin_2)*%
X3000000Y-67690000D03*
%TD*%
%TO.P,J3,1,Pin_1*%
%TO.N,Net-(J3-Pin_1)*%
X3000000Y-62000000D03*
%TO.P,J3,2,Pin_2*%
%TO.N,Net-(J3-Pin_2)*%
X3000000Y-58190000D03*
%TD*%
D13*
%TO.P,J1,1,Pin_1*%
%TO.N,Net-(J1-Pin_1)*%
X3000000Y-12000000D03*
D14*
%TO.P,J1,2,Pin_2*%
%TO.N,Net-(J1-Pin_2)*%
X3000000Y-8190000D03*
%TO.P,J1,3,Pin_3*%
%TO.N,Net-(J1-Pin_3)*%
X3000000Y-4380000D03*
%TD*%
D12*
%TO.P,J10,1,Pin_1*%
%TO.N,Net-(J10-Pin_1)*%
X3000000Y-90500000D03*
%TO.P,J10,2,Pin_2*%
%TO.N,Net-(J10-Pin_2)*%
X3000000Y-86690000D03*
%TD*%
D15*
%TO.P,JP1,1,A*%
%TO.N,GND*%
X45974000Y-54940200D03*
D16*
%TO.P,JP1,2,C*%
%TO.N,/A0*%
X48514000Y-54940200D03*
%TO.P,JP1,3,B*%
%TO.N,+3V3*%
X51054000Y-54940200D03*
%TD*%
D15*
%TO.P,JP2,1,A*%
%TO.N,GND*%
X46014400Y-49098200D03*
D16*
%TO.P,JP2,2,C*%
%TO.N,/A1*%
X48554400Y-49098200D03*
%TO.P,JP2,3,B*%
%TO.N,+3V3*%
X51094400Y-49098200D03*
%TD*%
D15*
%TO.P,J6,1,Pin_1*%
%TO.N,+5V*%
X54991000Y-37465000D03*
D16*
%TO.P,J6,2,Pin_2*%
X57531000Y-37465000D03*
%TO.P,J6,3,Pin_3*%
X54991000Y-40005000D03*
%TO.P,J6,4,Pin_4*%
%TO.N,GND*%
X57531000Y-40005000D03*
%TO.P,J6,5,Pin_5*%
%TO.N,+3V3*%
X54991000Y-42545000D03*
%TO.P,J6,6,Pin_6*%
%TO.N,/GP15*%
X57531000Y-42545000D03*
%TO.P,J6,7,Pin_7*%
%TO.N,/GP16*%
X54991000Y-45085000D03*
%TO.P,J6,8,Pin_8*%
%TO.N,/GP14*%
X57531000Y-45085000D03*
%TO.P,J6,9,Pin_9*%
%TO.N,/GP17*%
X54991000Y-47625000D03*
%TO.P,J6,10,Pin_10*%
%TO.N,/GP13*%
X57531000Y-47625000D03*
%TO.P,J6,11,Pin_11*%
%TO.N,/AN_CS0*%
X54991000Y-50165000D03*
%TO.P,J6,12,Pin_12*%
%TO.N,/GP12*%
X57531000Y-50165000D03*
%TO.P,J6,13,Pin_13*%
%TO.N,/AN_CS1*%
X54991000Y-52705000D03*
%TO.P,J6,14,Pin_14*%
%TO.N,/GP11*%
X57531000Y-52705000D03*
%TO.P,J6,15,Pin_15*%
%TO.N,/AN_CS2*%
X54991000Y-55245000D03*
%TO.P,J6,16,Pin_16*%
%TO.N,/GP10*%
X57531000Y-55245000D03*
%TO.P,J6,17,Pin_17*%
%TO.N,/AN_CS3*%
X54991000Y-57785000D03*
%TO.P,J6,18,Pin_18*%
%TO.N,/GP9*%
X57531000Y-57785000D03*
%TO.P,J6,19,Pin_19*%
%TO.N,/MOSI*%
X54991000Y-60325000D03*
%TO.P,J6,20,Pin_20*%
%TO.N,/GP8*%
X57531000Y-60325000D03*
%TO.P,J6,21,Pin_21*%
%TO.N,/SCK*%
X54991000Y-62865000D03*
%TO.P,J6,22,Pin_22*%
%TO.N,/GP7*%
X57531000Y-62865000D03*
%TO.P,J6,23,Pin_23*%
%TO.N,/GP1*%
X54991000Y-65405000D03*
%TO.P,J6,24,Pin_24*%
%TO.N,/GP6*%
X57531000Y-65405000D03*
%TO.P,J6,25,Pin_25*%
%TO.N,/MISO*%
X54991000Y-67945000D03*
%TO.P,J6,26,Pin_26*%
%TO.N,/SCL0*%
X57531000Y-67945000D03*
%TO.P,J6,27,Pin_27*%
%TO.N,GND*%
X54991000Y-70485000D03*
%TO.P,J6,28,Pin_28*%
%TO.N,/SDA0*%
X57531000Y-70485000D03*
%TO.P,J6,29,Pin_29*%
%TO.N,GND*%
X54991000Y-73025000D03*
%TO.P,J6,30,Pin_30*%
X57531000Y-73025000D03*
%TD*%
D15*
%TO.P,CON1,1,Pin_1*%
%TO.N,GND*%
X48437800Y-92329000D03*
D16*
%TO.P,CON1,2,Pin_2*%
%TO.N,+3V3*%
X45897800Y-92329000D03*
%TO.P,CON1,3,Pin_3*%
%TO.N,/SDA0*%
X43357800Y-92329000D03*
%TO.P,CON1,4,Pin_4*%
%TO.N,/SCL0*%
X40817800Y-92329000D03*
%TD*%
D13*
%TO.P,J2,1,Pin_1*%
%TO.N,Net-(J2-Pin_1)*%
X3000000Y-25500000D03*
D14*
%TO.P,J2,2,Pin_2*%
%TO.N,Net-(J2-Pin_2)*%
X3000000Y-21690000D03*
%TO.P,J2,3,Pin_3*%
%TO.N,Net-(J2-Pin_3)*%
X3000000Y-17880000D03*
%TD*%
D10*
%TO.P,K4,1*%
%TO.N,Net-(Q8-C)*%
X29000000Y-47218600D03*
D11*
%TO.P,K4,4*%
%TO.N,Net-(J9-Pin_2)*%
X21380000Y-47218600D03*
%TO.P,K4,6*%
%TO.N,Net-(J9-Pin_1)*%
X16300000Y-47218600D03*
%TO.P,K4,8*%
%TO.N,Net-(J9-Pin_3)*%
X11220000Y-47218600D03*
%TO.P,K4,9*%
X11220000Y-54838600D03*
%TO.P,K4,11*%
%TO.N,Net-(J9-Pin_1)*%
X16300000Y-54838600D03*
%TO.P,K4,13*%
%TO.N,Net-(J9-Pin_2)*%
X21380000Y-54838600D03*
%TO.P,K4,16*%
%TO.N,+5V*%
X29000000Y-54838600D03*
%TD*%
D13*
%TO.P,J9,1,Pin_1*%
%TO.N,Net-(J9-Pin_1)*%
X3000000Y-52500000D03*
D14*
%TO.P,J9,2,Pin_2*%
%TO.N,Net-(J9-Pin_2)*%
X3000000Y-48690000D03*
%TO.P,J9,3,Pin_3*%
%TO.N,Net-(J9-Pin_3)*%
X3000000Y-44880000D03*
%TD*%
D12*
%TO.P,J7,1,Pin_1*%
%TO.N,Net-(J7-Pin_1)*%
X3000000Y-81000000D03*
%TO.P,J7,2,Pin_2*%
%TO.N,Net-(J7-Pin_2)*%
X3000000Y-77190000D03*
%TD*%
D13*
%TO.P,J8,1,Pin_1*%
%TO.N,Net-(J8-Pin_1)*%
X3000000Y-39000000D03*
D14*
%TO.P,J8,2,Pin_2*%
%TO.N,Net-(J8-Pin_2)*%
X3000000Y-35190000D03*
%TO.P,J8,3,Pin_3*%
%TO.N,Net-(J8-Pin_3)*%
X3000000Y-31380000D03*
%TD*%
D15*
%TO.P,J11,1,Pin_1*%
%TO.N,+5V*%
X54940200Y-18110200D03*
D16*
%TO.P,J11,2,Pin_2*%
X57480200Y-18110200D03*
%TO.P,J11,3,Pin_3*%
%TO.N,/P0*%
X54940200Y-20650200D03*
%TO.P,J11,4,Pin_4*%
%TO.N,GND*%
X57480200Y-20650200D03*
%TO.P,J11,5,Pin_5*%
%TO.N,/P1*%
X54940200Y-23190200D03*
%TO.P,J11,6,Pin_6*%
%TO.N,GND*%
X57480200Y-23190200D03*
%TO.P,J11,7,Pin_7*%
%TO.N,/P2*%
X54940200Y-25730200D03*
%TO.P,J11,8,Pin_8*%
%TO.N,GND*%
X57480200Y-25730200D03*
%TO.P,J11,9,Pin_9*%
%TO.N,/P3*%
X54940200Y-28270200D03*
%TO.P,J11,10,Pin_10*%
%TO.N,GND*%
X57480200Y-28270200D03*
%TO.P,J11,11,Pin_11*%
%TO.N,+5V*%
X54940200Y-30810200D03*
%TO.P,J11,12,Pin_12*%
X57480200Y-30810200D03*
%TD*%
D10*
%TO.P,K3,1*%
%TO.N,+5V*%
X29000000Y-34950400D03*
D11*
%TO.P,K3,4*%
%TO.N,Net-(J8-Pin_2)*%
X21380000Y-34950400D03*
%TO.P,K3,6*%
%TO.N,Net-(J8-Pin_1)*%
X16300000Y-34950400D03*
%TO.P,K3,8*%
%TO.N,Net-(J8-Pin_3)*%
X11220000Y-34950400D03*
%TO.P,K3,9*%
X11220000Y-42570400D03*
%TO.P,K3,11*%
%TO.N,Net-(J8-Pin_1)*%
X16300000Y-42570400D03*
%TO.P,K3,13*%
%TO.N,Net-(J8-Pin_2)*%
X21380000Y-42570400D03*
%TO.P,K3,16*%
%TO.N,Net-(Q7-C)*%
X29000000Y-42570400D03*
%TD*%
D10*
%TO.P,K1,1*%
%TO.N,Net-(Q4-C)*%
X29000000Y-10591800D03*
D11*
%TO.P,K1,4*%
%TO.N,Net-(J1-Pin_2)*%
X21380000Y-10591800D03*
%TO.P,K1,6*%
%TO.N,Net-(J1-Pin_1)*%
X16300000Y-10591800D03*
%TO.P,K1,8*%
%TO.N,Net-(J1-Pin_3)*%
X11220000Y-10591800D03*
%TO.P,K1,9*%
X11220000Y-18211800D03*
%TO.P,K1,11*%
%TO.N,Net-(J1-Pin_1)*%
X16300000Y-18211800D03*
%TO.P,K1,13*%
%TO.N,Net-(J1-Pin_2)*%
X21380000Y-18211800D03*
%TO.P,K1,16*%
%TO.N,+5V*%
X29000000Y-18211800D03*
%TD*%
D17*
%TO.N,GND*%
X42164000Y-3454400D03*
X44043600Y-67741800D03*
X49123600Y-67945000D03*
X52044600Y-77546200D03*
X39801800Y-27940000D03*
X18389600Y-64465200D03*
X38455600Y-41833800D03*
X31623000Y-69748400D03*
X40944800Y-82397600D03*
X25654000Y-26466800D03*
X18389600Y-79679800D03*
X51460400Y-36195000D03*
X25704800Y-38735000D03*
X25806400Y-51028600D03*
X31623000Y-62738000D03*
X39776400Y-34544000D03*
X18389600Y-72110600D03*
X39801800Y-20777200D03*
X53975000Y-86106000D03*
X18338800Y-87680800D03*
X25755600Y-3454400D03*
X25679400Y-14401800D03*
X49098200Y-65278000D03*
X31699200Y-77470000D03*
X31623000Y-56286400D03*
X37363400Y-63042800D03*
X57378600Y-10439400D03*
%TO.N,+3V3*%
X47802800Y-75133200D03*
%TO.N,/P2*%
X43113200Y-34061400D03*
%TO.N,/P1*%
X45415200Y-23545800D03*
%TO.N,/P3*%
X44399200Y-42164000D03*
X37693600Y-58166000D03*
X44399200Y-37820600D03*
%TO.N,+5V*%
X36779200Y-18211800D03*
X36830000Y-34823400D03*
X27787600Y-68859400D03*
X27838400Y-76047600D03*
X27813000Y-61798200D03*
X27838400Y-83464400D03*
%TO.N,Net-(J3-Pin_1)*%
X8178800Y-59207400D03*
%TO.N,Net-(J5-Pin_1)*%
X8178800Y-66835866D03*
%TO.N,Net-(J7-Pin_1)*%
X8204200Y-74464332D03*
%TO.N,Net-(J10-Pin_1)*%
X8229600Y-82092800D03*
%TO.N,/SDA0*%
X48120300Y-83172300D03*
%TD*%
D18*
%TO.N,+3V3*%
X53111400Y-42519600D02*
X54965600Y-42519600D01*
X51130200Y-71805800D02*
X51130200Y-44500800D01*
X47802800Y-75133200D02*
X51130200Y-71805800D01*
X51130200Y-44500800D02*
X53111400Y-42519600D01*
X45897800Y-77038200D02*
X45897800Y-92329000D01*
X47802800Y-75133200D02*
X45897800Y-77038200D01*
%TO.N,Net-(J2-Pin_2)*%
X21437600Y-22663600D02*
X21437600Y-30168400D01*
%TO.N,Net-(J2-Pin_3)*%
X11252200Y-30193800D02*
X11252200Y-22638200D01*
D19*
%TO.N,/P2*%
X43113200Y-34061400D02*
X51419000Y-25755600D01*
X51419000Y-25755600D02*
X54914800Y-25755600D01*
%TO.N,/P1*%
X52603400Y-23520400D02*
X52933600Y-23190200D01*
X45415200Y-23545800D02*
X45440600Y-23520400D01*
X45440600Y-23520400D02*
X52603400Y-23520400D01*
X52933600Y-23190200D02*
X54940200Y-23190200D01*
%TO.N,/P3*%
X44399200Y-44450000D02*
X44399200Y-42164000D01*
X44399200Y-37820600D02*
X53949600Y-28270200D01*
X53949600Y-28270200D02*
X54940200Y-28270200D01*
X37693600Y-51155600D02*
X44399200Y-44450000D01*
X37693600Y-58166000D02*
X37693600Y-51155600D01*
D18*
%TO.N,+5V*%
X36779200Y-46990000D02*
X29000000Y-54769200D01*
X28981400Y-30244600D02*
X28981400Y-34931800D01*
X27813000Y-68834000D02*
X27813000Y-61798200D01*
X36830000Y-40007600D02*
X55000000Y-40007600D01*
X27787600Y-75996800D02*
X27838400Y-76047600D01*
X27813000Y-61798200D02*
X27813000Y-56025600D01*
X27813000Y-56025600D02*
X29000000Y-54838600D01*
X36830000Y-34823400D02*
X36830000Y-18262600D01*
X36830000Y-18262600D02*
X36779200Y-18211800D01*
X36830000Y-34823400D02*
X36779200Y-34874200D01*
X36779200Y-18211800D02*
X29000000Y-18211800D01*
X36830000Y-30226000D02*
X29000000Y-30226000D01*
X36779200Y-34874200D02*
X36779200Y-46990000D01*
X27787600Y-68859400D02*
X27787600Y-75996800D01*
X27787600Y-68859400D02*
X27813000Y-68834000D01*
X27838400Y-83464400D02*
X27838400Y-76047600D01*
%TO.N,Net-(J1-Pin_2)*%
X21386800Y-10598600D02*
X21386800Y-18205000D01*
%TO.N,Net-(J1-Pin_1)*%
X16306800Y-10598600D02*
X16306800Y-18205000D01*
%TO.N,Net-(J1-Pin_3)*%
X11252200Y-10624000D02*
X11252200Y-18179600D01*
%TO.N,Net-(J2-Pin_1)*%
X16306800Y-22612800D02*
X16306800Y-30219200D01*
D20*
%TO.N,Net-(J3-Pin_1)*%
X8178800Y-60325000D02*
X6503800Y-62000000D01*
X6503800Y-62000000D02*
X3000000Y-62000000D01*
X8178800Y-59207400D02*
X8178800Y-60325000D01*
%TO.N,Net-(J5-Pin_1)*%
X8178800Y-68834000D02*
X5512800Y-71500000D01*
X8178800Y-66835866D02*
X8178800Y-68834000D01*
X5512800Y-71500000D02*
X3000000Y-71500000D01*
%TO.N,Net-(J7-Pin_1)*%
X8204200Y-74464332D02*
X8204200Y-78079600D01*
X5283800Y-81000000D02*
X3000000Y-81000000D01*
X8204200Y-78079600D02*
X5283800Y-81000000D01*
D18*
%TO.N,Net-(J8-Pin_1)*%
X16332200Y-34982600D02*
X16332200Y-42538200D01*
%TO.N,Net-(J8-Pin_2)*%
X21386800Y-34957200D02*
X21386800Y-42563600D01*
%TO.N,Net-(J9-Pin_1)*%
X16357600Y-47276200D02*
X16357600Y-54781000D01*
%TO.N,Net-(J9-Pin_2)*%
X21437600Y-47276200D02*
X21437600Y-54781000D01*
D20*
%TO.N,Net-(J10-Pin_1)*%
X5207200Y-90500000D02*
X3000000Y-90500000D01*
X8229600Y-82092800D02*
X8255000Y-82118200D01*
X8255000Y-87452200D02*
X5207200Y-90500000D01*
X8255000Y-82118200D02*
X8255000Y-87452200D01*
D18*
%TO.N,Net-(J8-Pin_3)*%
X11226800Y-34957200D02*
X11226800Y-42563600D01*
%TO.N,Net-(J9-Pin_3)*%
X11176000Y-47262600D02*
X11176000Y-54794600D01*
D21*
%TO.N,/SDA0*%
X48120300Y-83172300D02*
X48120300Y-83096100D01*
X48120300Y-83096100D02*
X56261000Y-74955400D01*
X56261000Y-74955400D02*
X56261000Y-71805800D01*
X56261000Y-71805800D02*
X57531000Y-70535800D01*
%TD*%
%TA.AperFunction,Conductor*%
%TO.N,GND*%
G36*
X53112445Y-790665D02*
G01*
X53142509Y-842736D01*
X53132068Y-901950D01*
X53118102Y-920150D01*
X52997670Y-1040583D01*
X52997669Y-1040584D01*
X52997665Y-1040589D01*
X52751402Y-1334072D01*
X52751397Y-1334079D01*
X52531648Y-1647911D01*
X52340079Y-1979718D01*
X52340074Y-1979729D01*
X52178165Y-2326943D01*
X52178162Y-2326951D01*
X52047124Y-2686975D01*
X51947961Y-3057056D01*
X51881433Y-3434354D01*
X51848040Y-3816034D01*
X51848040Y-4199165D01*
X51881433Y-4580845D01*
X51947961Y-4958143D01*
X52047124Y-5328224D01*
X52178162Y-5688248D01*
X52178165Y-5688256D01*
X52340074Y-6035470D01*
X52340079Y-6035481D01*
X52531648Y-6367288D01*
X52707447Y-6618353D01*
X52751398Y-6681122D01*
X52997670Y-6974617D01*
X53268583Y-7245530D01*
X53562078Y-7491802D01*
X53671839Y-7568657D01*
X53875911Y-7711551D01*
X53875920Y-7711556D01*
X54207720Y-7903121D01*
X54554954Y-8065039D01*
X54914978Y-8196077D01*
X55285053Y-8295238D01*
X55662363Y-8361768D01*
X56044035Y-8395160D01*
X56044039Y-8395160D01*
X56427161Y-8395160D01*
X56427165Y-8395160D01*
X56808837Y-8361768D01*
X57186147Y-8295238D01*
X57556222Y-8196077D01*
X57916246Y-8065039D01*
X58263480Y-7903121D01*
X58595280Y-7711556D01*
X58595283Y-7711553D01*
X58595288Y-7711551D01*
X58689598Y-7645513D01*
X58909122Y-7491802D01*
X59093100Y-7337425D01*
X59149600Y-7316861D01*
X59206101Y-7337425D01*
X59236165Y-7389497D01*
X59237500Y-7404761D01*
X59237500Y-87933064D01*
X59216935Y-87989565D01*
X59164864Y-88019629D01*
X59105650Y-88009188D01*
X59093099Y-88000399D01*
X58858327Y-87803402D01*
X58858325Y-87803400D01*
X58858322Y-87803398D01*
X58795553Y-87759447D01*
X58544488Y-87583648D01*
X58212681Y-87392079D01*
X58212670Y-87392074D01*
X57865456Y-87230165D01*
X57865448Y-87230162D01*
X57865446Y-87230161D01*
X57505422Y-87099123D01*
X57135347Y-86999962D01*
X57135346Y-86999961D01*
X57135343Y-86999961D01*
X56758045Y-86933433D01*
X56758040Y-86933432D01*
X56758037Y-86933432D01*
X56376365Y-86900040D01*
X55993235Y-86900040D01*
X55993234Y-86900040D01*
X55881958Y-86909775D01*
X55611563Y-86933432D01*
X55611560Y-86933432D01*
X55611554Y-86933433D01*
X55234256Y-86999961D01*
X55049215Y-87049542D01*
X54864178Y-87099123D01*
X54864175Y-87099123D01*
X54864175Y-87099124D01*
X54504151Y-87230162D01*
X54504143Y-87230165D01*
X54156929Y-87392074D01*
X54156918Y-87392079D01*
X53825111Y-87583648D01*
X53511279Y-87803397D01*
X53511272Y-87803402D01*
X53217789Y-88049665D01*
X53217784Y-88049669D01*
X52946869Y-88320584D01*
X52946865Y-88320589D01*
X52700602Y-88614072D01*
X52700597Y-88614079D01*
X52480848Y-88927911D01*
X52289279Y-89259718D01*
X52289274Y-89259729D01*
X52127365Y-89606943D01*
X52127362Y-89606951D01*
X51996324Y-89966975D01*
X51897161Y-90337056D01*
X51830633Y-90714354D01*
X51806129Y-90994439D01*
X51797240Y-91096035D01*
X51797240Y-91479165D01*
X51828056Y-91831398D01*
X51830633Y-91860845D01*
X51859152Y-92022583D01*
X51897162Y-92238147D01*
X51996323Y-92608222D01*
X52090386Y-92866656D01*
X52127362Y-92968248D01*
X52127365Y-92968256D01*
X52289274Y-93315470D01*
X52289279Y-93315481D01*
X52480848Y-93647288D01*
X52700597Y-93961120D01*
X52700602Y-93961127D01*
X52817717Y-94100699D01*
X52838282Y-94157200D01*
X52817717Y-94213701D01*
X52765646Y-94243765D01*
X52750382Y-94245100D01*
X15791842Y-94245100D01*
X15735341Y-94224535D01*
X15705277Y-94172464D01*
X15703942Y-94156945D01*
X15705657Y-93566031D01*
X15717432Y-93522338D01*
X15895521Y-93213880D01*
X16057439Y-92866646D01*
X16188477Y-92506622D01*
X16263794Y-92225536D01*
X39767300Y-92225536D01*
X39767300Y-92432463D01*
X39807667Y-92635411D01*
X39807669Y-92635416D01*
X39807670Y-92635420D01*
X39886859Y-92826598D01*
X39886860Y-92826600D01*
X39886861Y-92826601D01*
X40001819Y-92998650D01*
X40001820Y-92998651D01*
X40001823Y-92998655D01*
X40148145Y-93144977D01*
X40320202Y-93259941D01*
X40511380Y-93339130D01*
X40511385Y-93339131D01*
X40511388Y-93339132D01*
X40614232Y-93359588D01*
X40714335Y-93379500D01*
X40714337Y-93379500D01*
X40921263Y-93379500D01*
X40921265Y-93379500D01*
X41087254Y-93346483D01*
X41124211Y-93339132D01*
X41124212Y-93339131D01*
X41124220Y-93339130D01*
X41315398Y-93259941D01*
X41487455Y-93144977D01*
X41633777Y-92998655D01*
X41748741Y-92826598D01*
X41827930Y-92635420D01*
X41868300Y-92432465D01*
X41868300Y-92225536D01*
X42307300Y-92225536D01*
X42307300Y-92432463D01*
X42347667Y-92635411D01*
X42347669Y-92635416D01*
X42347670Y-92635420D01*
X42426859Y-92826598D01*
X42426860Y-92826600D01*
X42426861Y-92826601D01*
X42541819Y-92998650D01*
X42541820Y-92998651D01*
X42541823Y-92998655D01*
X42688145Y-93144977D01*
X42860202Y-93259941D01*
X43051380Y-93339130D01*
X43051385Y-93339131D01*
X43051388Y-93339132D01*
X43154232Y-93359588D01*
X43254335Y-93379500D01*
X43254337Y-93379500D01*
X43461263Y-93379500D01*
X43461265Y-93379500D01*
X43627254Y-93346483D01*
X43664211Y-93339132D01*
X43664212Y-93339131D01*
X43664220Y-93339130D01*
X43855398Y-93259941D01*
X44027455Y-93144977D01*
X44173777Y-92998655D01*
X44288741Y-92826598D01*
X44367930Y-92635420D01*
X44408300Y-92432465D01*
X44408300Y-92225536D01*
X44847300Y-92225536D01*
X44847300Y-92432463D01*
X44887667Y-92635411D01*
X44887669Y-92635416D01*
X44887670Y-92635420D01*
X44966859Y-92826598D01*
X44966860Y-92826600D01*
X44966861Y-92826601D01*
X45081819Y-92998650D01*
X45081820Y-92998651D01*
X45081823Y-92998655D01*
X45228145Y-93144977D01*
X45400202Y-93259941D01*
X45591380Y-93339130D01*
X45591385Y-93339131D01*
X45591388Y-93339132D01*
X45694232Y-93359588D01*
X45794335Y-93379500D01*
X45794337Y-93379500D01*
X46001263Y-93379500D01*
X46001265Y-93379500D01*
X46167254Y-93346483D01*
X46204211Y-93339132D01*
X46204212Y-93339131D01*
X46204220Y-93339130D01*
X46395398Y-93259941D01*
X46567455Y-93144977D01*
X46713777Y-92998655D01*
X46828741Y-92826598D01*
X46907930Y-92635420D01*
X46913340Y-92608222D01*
X46929806Y-92525443D01*
X46948300Y-92432463D01*
X46948300Y-92225536D01*
X46907932Y-92022588D01*
X46907931Y-92022585D01*
X46907930Y-92022580D01*
X46828741Y-91831402D01*
X46713777Y-91659345D01*
X46713775Y-91659343D01*
X46632045Y-91577612D01*
X46623936Y-91560222D01*
X46611601Y-91545522D01*
X46608268Y-91526623D01*
X46606634Y-91523118D01*
X46606300Y-91515458D01*
X46606300Y-91461487D01*
X47410000Y-91461487D01*
X47410000Y-92078999D01*
X47410001Y-92079000D01*
X48004788Y-92079000D01*
X47971875Y-92136007D01*
X47937800Y-92263174D01*
X47937800Y-92394826D01*
X47971875Y-92521993D01*
X48004788Y-92579000D01*
X47410002Y-92579000D01*
X47410001Y-92579001D01*
X47410001Y-93196508D01*
X47420316Y-93248375D01*
X47459611Y-93307182D01*
X47459617Y-93307188D01*
X47518424Y-93346483D01*
X47570287Y-93356799D01*
X48187798Y-93356799D01*
X48187800Y-93356798D01*
X48187800Y-92762012D01*
X48244807Y-92794925D01*
X48371974Y-92829000D01*
X48503626Y-92829000D01*
X48630793Y-92794925D01*
X48687800Y-92762012D01*
X48687800Y-93356798D01*
X48687801Y-93356799D01*
X49305309Y-93356799D01*
X49357175Y-93346483D01*
X49415982Y-93307188D01*
X49415988Y-93307182D01*
X49455283Y-93248375D01*
X49465600Y-93196512D01*
X49465600Y-92579001D01*
X49465599Y-92579000D01*
X48870812Y-92579000D01*
X48903725Y-92521993D01*
X48937800Y-92394826D01*
X48937800Y-92263174D01*
X48903725Y-92136007D01*
X48870812Y-92079000D01*
X49465598Y-92079000D01*
X49465599Y-92078999D01*
X49465599Y-91461491D01*
X49455283Y-91409624D01*
X49415988Y-91350817D01*
X49415982Y-91350811D01*
X49357175Y-91311516D01*
X49305313Y-91301200D01*
X48687801Y-91301200D01*
X48687800Y-91301201D01*
X48687800Y-91895988D01*
X48630793Y-91863075D01*
X48503626Y-91829000D01*
X48371974Y-91829000D01*
X48244807Y-91863075D01*
X48187800Y-91895988D01*
X48187800Y-91301201D01*
X48187799Y-91301200D01*
X47570286Y-91301200D01*
X47570284Y-91301201D01*
X47518428Y-91311514D01*
X47518424Y-91311516D01*
X47459617Y-91350811D01*
X47459611Y-91350817D01*
X47420316Y-91409624D01*
X47410000Y-91461487D01*
X46606300Y-91461487D01*
X46606300Y-83108774D01*
X47475300Y-83108774D01*
X47475300Y-83235825D01*
X47500085Y-83360436D01*
X47500087Y-83360440D01*
X47548706Y-83477819D01*
X47548707Y-83477821D01*
X47548708Y-83477822D01*
X47619296Y-83583464D01*
X47709136Y-83673304D01*
X47814778Y-83743892D01*
X47932160Y-83792513D01*
X47932161Y-83792513D01*
X47932163Y-83792514D01*
X47994892Y-83804991D01*
X48056773Y-83817300D01*
X48056775Y-83817300D01*
X48183825Y-83817300D01*
X48183827Y-83817300D01*
X48270795Y-83800001D01*
X48308436Y-83792514D01*
X48308436Y-83792513D01*
X48308440Y-83792513D01*
X48425822Y-83743892D01*
X48531464Y-83673304D01*
X48621304Y-83583464D01*
X48691892Y-83477822D01*
X48740513Y-83360440D01*
X48765300Y-83235827D01*
X48765300Y-83108773D01*
X48760072Y-83082490D01*
X48769219Y-83023064D01*
X48784124Y-83003192D01*
X56501640Y-75285677D01*
X56501645Y-75285673D01*
X56508876Y-75278441D01*
X56508878Y-75278441D01*
X56584041Y-75203278D01*
X56637189Y-75111223D01*
X56664700Y-75008548D01*
X56664700Y-73824437D01*
X56685265Y-73767936D01*
X56737336Y-73737872D01*
X56796550Y-73748313D01*
X56814755Y-73762282D01*
X56875818Y-73823345D01*
X57044153Y-73935822D01*
X57231196Y-74013299D01*
X57231210Y-74013304D01*
X57281000Y-74023207D01*
X57281000Y-73458012D01*
X57338007Y-73490925D01*
X57465174Y-73525000D01*
X57596826Y-73525000D01*
X57723993Y-73490925D01*
X57781000Y-73458012D01*
X57781000Y-74023206D01*
X57830789Y-74013304D01*
X57830803Y-74013299D01*
X58017846Y-73935822D01*
X58186181Y-73823345D01*
X58329345Y-73680181D01*
X58441822Y-73511846D01*
X58519299Y-73324803D01*
X58519304Y-73324789D01*
X58529207Y-73275000D01*
X57964012Y-73275000D01*
X57996925Y-73217993D01*
X58031000Y-73090826D01*
X58031000Y-72959174D01*
X57996925Y-72832007D01*
X57964012Y-72775000D01*
X58529207Y-72775000D01*
X58519304Y-72725210D01*
X58519299Y-72725196D01*
X58441822Y-72538153D01*
X58329345Y-72369818D01*
X58186181Y-72226654D01*
X58017847Y-72114177D01*
X57830804Y-72036701D01*
X57830795Y-72036698D01*
X57781000Y-72026792D01*
X57781000Y-72591988D01*
X57723993Y-72559075D01*
X57596826Y-72525000D01*
X57465174Y-72525000D01*
X57338007Y-72559075D01*
X57281000Y-72591988D01*
X57281000Y-72026792D01*
X57231204Y-72036698D01*
X57231195Y-72036701D01*
X57044152Y-72114177D01*
X56875818Y-72226654D01*
X56814755Y-72287718D01*
X56760261Y-72313129D01*
X56702183Y-72297566D01*
X56667695Y-72248313D01*
X56664700Y-72225563D01*
X56664700Y-72009427D01*
X56685265Y-71952926D01*
X56690434Y-71947283D01*
X57125074Y-71512643D01*
X57179566Y-71487233D01*
X57220867Y-71493592D01*
X57224580Y-71495130D01*
X57224587Y-71495131D01*
X57224588Y-71495132D01*
X57312629Y-71512644D01*
X57427535Y-71535500D01*
X57427537Y-71535500D01*
X57634463Y-71535500D01*
X57634465Y-71535500D01*
X57767336Y-71509070D01*
X57837411Y-71495132D01*
X57837412Y-71495131D01*
X57837420Y-71495130D01*
X58028598Y-71415941D01*
X58200655Y-71300977D01*
X58346977Y-71154655D01*
X58461941Y-70982598D01*
X58541130Y-70791420D01*
X58581500Y-70588465D01*
X58581500Y-70381535D01*
X58552353Y-70235000D01*
X58541132Y-70178588D01*
X58541131Y-70178585D01*
X58541130Y-70178580D01*
X58461941Y-69987402D01*
X58404459Y-69901373D01*
X58346980Y-69815349D01*
X58346979Y-69815348D01*
X58346977Y-69815345D01*
X58200655Y-69669023D01*
X58200651Y-69669020D01*
X58200650Y-69669019D01*
X58028601Y-69554061D01*
X58028600Y-69554060D01*
X58028598Y-69554059D01*
X57837420Y-69474870D01*
X57837416Y-69474869D01*
X57837411Y-69474867D01*
X57684684Y-69444489D01*
X57634465Y-69434500D01*
X57427535Y-69434500D01*
X57382844Y-69443389D01*
X57224588Y-69474867D01*
X57224583Y-69474869D01*
X57224581Y-69474869D01*
X57224580Y-69474870D01*
X57033402Y-69554059D01*
X57033400Y-69554059D01*
X57033398Y-69554061D01*
X56861349Y-69669019D01*
X56715019Y-69815349D01*
X56600061Y-69987398D01*
X56600059Y-69987400D01*
X56600059Y-69987402D01*
X56521113Y-70177993D01*
X56520869Y-70178583D01*
X56520867Y-70178588D01*
X56480500Y-70381536D01*
X56480500Y-70588463D01*
X56520867Y-70791411D01*
X56520869Y-70791416D01*
X56520870Y-70791420D01*
X56539851Y-70837244D01*
X56552166Y-70866975D01*
X56554789Y-70927045D01*
X56533112Y-70962768D01*
X56013124Y-71482757D01*
X55937960Y-71557920D01*
X55884811Y-71649977D01*
X55884811Y-71649978D01*
X55857299Y-71752652D01*
X55857299Y-71866027D01*
X55857300Y-71866040D01*
X55857300Y-72225563D01*
X55836735Y-72282064D01*
X55784664Y-72312128D01*
X55725450Y-72301687D01*
X55707245Y-72287718D01*
X55646181Y-72226654D01*
X55477847Y-72114177D01*
X55290804Y-72036701D01*
X55290795Y-72036698D01*
X55241000Y-72026792D01*
X55241000Y-72591988D01*
X55183993Y-72559075D01*
X55056826Y-72525000D01*
X54925174Y-72525000D01*
X54798007Y-72559075D01*
X54741000Y-72591988D01*
X54741000Y-72026792D01*
X54691204Y-72036698D01*
X54691195Y-72036701D01*
X54504152Y-72114177D01*
X54335818Y-72226654D01*
X54192654Y-72369818D01*
X54080177Y-72538153D01*
X54002700Y-72725196D01*
X54002695Y-72725210D01*
X53992792Y-72775000D01*
X54557988Y-72775000D01*
X54525075Y-72832007D01*
X54491000Y-72959174D01*
X54491000Y-73090826D01*
X54525075Y-73217993D01*
X54557988Y-73275000D01*
X53992793Y-73275000D01*
X54002695Y-73324789D01*
X54002700Y-73324803D01*
X54080177Y-73511846D01*
X54192654Y-73680181D01*
X54335818Y-73823345D01*
X54504153Y-73935822D01*
X54691196Y-74013299D01*
X54691210Y-74013304D01*
X54741000Y-74023207D01*
X54741000Y-73458012D01*
X54798007Y-73490925D01*
X54925174Y-73525000D01*
X55056826Y-73525000D01*
X55183993Y-73490925D01*
X55241000Y-73458012D01*
X55241000Y-74023206D01*
X55290789Y-74013304D01*
X55290803Y-74013299D01*
X55477846Y-73935822D01*
X55646181Y-73823345D01*
X55707245Y-73762282D01*
X55761739Y-73736871D01*
X55819817Y-73752434D01*
X55854305Y-73801687D01*
X55857300Y-73824437D01*
X55857300Y-74751772D01*
X55836735Y-74808273D01*
X55831555Y-74813927D01*
X48143927Y-82501555D01*
X48089433Y-82526966D01*
X48081772Y-82527300D01*
X48056773Y-82527300D01*
X48029250Y-82532774D01*
X47932163Y-82552085D01*
X47932159Y-82552087D01*
X47814780Y-82600706D01*
X47709138Y-82671294D01*
X47619294Y-82761138D01*
X47548706Y-82866780D01*
X47500087Y-82984159D01*
X47500085Y-82984163D01*
X47475300Y-83108774D01*
X46606300Y-83108774D01*
X46606300Y-77368079D01*
X46626865Y-77311578D01*
X46632034Y-77305935D01*
X48247205Y-75690763D01*
X48247210Y-75690760D01*
X48254441Y-75683528D01*
X48254443Y-75683528D01*
X51680528Y-72257443D01*
X51758065Y-72141401D01*
X51780186Y-72087992D01*
X51811473Y-72012462D01*
X51838700Y-71875581D01*
X51838700Y-70235000D01*
X53992792Y-70235000D01*
X54557988Y-70235000D01*
X54525075Y-70292007D01*
X54491000Y-70419174D01*
X54491000Y-70550826D01*
X54525075Y-70677993D01*
X54557988Y-70735000D01*
X53992793Y-70735000D01*
X54002695Y-70784789D01*
X54002700Y-70784803D01*
X54080177Y-70971846D01*
X54192654Y-71140181D01*
X54335818Y-71283345D01*
X54504153Y-71395822D01*
X54691196Y-71473299D01*
X54691210Y-71473304D01*
X54741000Y-71483207D01*
X54741000Y-70918012D01*
X54798007Y-70950925D01*
X54925174Y-70985000D01*
X55056826Y-70985000D01*
X55183993Y-70950925D01*
X55241000Y-70918012D01*
X55241000Y-71483206D01*
X55290789Y-71473304D01*
X55290803Y-71473299D01*
X55477846Y-71395822D01*
X55646181Y-71283345D01*
X55789345Y-71140181D01*
X55901822Y-70971846D01*
X55979299Y-70784803D01*
X55979304Y-70784789D01*
X55989207Y-70735000D01*
X55424012Y-70735000D01*
X55456925Y-70677993D01*
X55491000Y-70550826D01*
X55491000Y-70419174D01*
X55456925Y-70292007D01*
X55424012Y-70235000D01*
X55989207Y-70235000D01*
X55979304Y-70185210D01*
X55979299Y-70185196D01*
X55901822Y-69998153D01*
X55789345Y-69829818D01*
X55646181Y-69686654D01*
X55477847Y-69574177D01*
X55290804Y-69496701D01*
X55290795Y-69496698D01*
X55241000Y-69486792D01*
X55241000Y-70051988D01*
X55183993Y-70019075D01*
X55056826Y-69985000D01*
X54925174Y-69985000D01*
X54798007Y-70019075D01*
X54741000Y-70051988D01*
X54741000Y-69486792D01*
X54691204Y-69496698D01*
X54691195Y-69496701D01*
X54504152Y-69574177D01*
X54335818Y-69686654D01*
X54192654Y-69829818D01*
X54080177Y-69998153D01*
X54002700Y-70185196D01*
X54002695Y-70185210D01*
X53992792Y-70235000D01*
X51838700Y-70235000D01*
X51838700Y-67841536D01*
X53940500Y-67841536D01*
X53940500Y-68048463D01*
X53980867Y-68251411D01*
X53980869Y-68251416D01*
X53980870Y-68251420D01*
X54060059Y-68442598D01*
X54060060Y-68442600D01*
X54060061Y-68442601D01*
X54175019Y-68614650D01*
X54175020Y-68614651D01*
X54175023Y-68614655D01*
X54321345Y-68760977D01*
X54321348Y-68760979D01*
X54321349Y-68760980D01*
X54364211Y-68789619D01*
X54493402Y-68875941D01*
X54684580Y-68955130D01*
X54684585Y-68955131D01*
X54684588Y-68955132D01*
X54787432Y-68975588D01*
X54887535Y-68995500D01*
X54887537Y-68995500D01*
X55094463Y-68995500D01*
X55094465Y-68995500D01*
X55227336Y-68969070D01*
X55297411Y-68955132D01*
X55297412Y-68955131D01*
X55297420Y-68955130D01*
X55488598Y-68875941D01*
X55660655Y-68760977D01*
X55806977Y-68614655D01*
X55921941Y-68442598D01*
X56001130Y-68251420D01*
X56041500Y-68048465D01*
X56041500Y-67841536D01*
X56480500Y-67841536D01*
X56480500Y-68048463D01*
X56520867Y-68251411D01*
X56520869Y-68251416D01*
X56520870Y-68251420D01*
X56600059Y-68442598D01*
X56600060Y-68442600D01*
X56600061Y-68442601D01*
X56715019Y-68614650D01*
X56715020Y-68614651D01*
X56715023Y-68614655D01*
X56861345Y-68760977D01*
X56861348Y-68760979D01*
X56861349Y-68760980D01*
X56904211Y-68789619D01*
X57033402Y-68875941D01*
X57224580Y-68955130D01*
X57224585Y-68955131D01*
X57224588Y-68955132D01*
X57327432Y-68975588D01*
X57427535Y-68995500D01*
X57427537Y-68995500D01*
X57634463Y-68995500D01*
X57634465Y-68995500D01*
X57767336Y-68969070D01*
X57837411Y-68955132D01*
X57837412Y-68955131D01*
X57837420Y-68955130D01*
X58028598Y-68875941D01*
X58200655Y-68760977D01*
X58346977Y-68614655D01*
X58461941Y-68442598D01*
X58541130Y-68251420D01*
X58581500Y-68048465D01*
X58581500Y-67841535D01*
X58541130Y-67638580D01*
X58461941Y-67447402D01*
X58346977Y-67275345D01*
X58200655Y-67129023D01*
X58200651Y-67129020D01*
X58200650Y-67129019D01*
X58028601Y-67014061D01*
X58028600Y-67014060D01*
X58028598Y-67014059D01*
X57837420Y-66934870D01*
X57837416Y-66934869D01*
X57837411Y-66934867D01*
X57684684Y-66904489D01*
X57634465Y-66894500D01*
X57427535Y-66894500D01*
X57382844Y-66903389D01*
X57224588Y-66934867D01*
X57224583Y-66934869D01*
X57224581Y-66934869D01*
X57224580Y-66934870D01*
X57033402Y-67014059D01*
X57033400Y-67014059D01*
X57033398Y-67014061D01*
X56861349Y-67129019D01*
X56715019Y-67275349D01*
X56600061Y-67447398D01*
X56520869Y-67638583D01*
X56520867Y-67638588D01*
X56480500Y-67841536D01*
X56041500Y-67841536D01*
X56041500Y-67841535D01*
X56001130Y-67638580D01*
X55921941Y-67447402D01*
X55806977Y-67275345D01*
X55660655Y-67129023D01*
X55660651Y-67129020D01*
X55660650Y-67129019D01*
X55488601Y-67014061D01*
X55488600Y-67014060D01*
X55488598Y-67014059D01*
X55297420Y-66934870D01*
X55297416Y-66934869D01*
X55297411Y-66934867D01*
X55144684Y-66904489D01*
X55094465Y-66894500D01*
X54887535Y-66894500D01*
X54842844Y-66903389D01*
X54684588Y-66934867D01*
X54684583Y-66934869D01*
X54684581Y-66934869D01*
X54684580Y-66934870D01*
X54493402Y-67014059D01*
X54493400Y-67014059D01*
X54493398Y-67014061D01*
X54321349Y-67129019D01*
X54175019Y-67275349D01*
X54060061Y-67447398D01*
X53980869Y-67638583D01*
X53980867Y-67638588D01*
X53940500Y-67841536D01*
X51838700Y-67841536D01*
X51838700Y-65301536D01*
X53940500Y-65301536D01*
X53940500Y-65508463D01*
X53980867Y-65711411D01*
X53980869Y-65711416D01*
X53980870Y-65711420D01*
X54060059Y-65902598D01*
X54060060Y-65902600D01*
X54060061Y-65902601D01*
X54175019Y-66074650D01*
X54175020Y-66074651D01*
X54175023Y-66074655D01*
X54321345Y-66220977D01*
X54493402Y-66335941D01*
X54684580Y-66415130D01*
X54684585Y-66415131D01*
X54684588Y-66415132D01*
X54787432Y-66435588D01*
X54887535Y-66455500D01*
X54887537Y-66455500D01*
X55094463Y-66455500D01*
X55094465Y-66455500D01*
X55227336Y-66429070D01*
X55297411Y-66415132D01*
X55297412Y-66415131D01*
X55297420Y-66415130D01*
X55488598Y-66335941D01*
X55660655Y-66220977D01*
X55806977Y-66074655D01*
X55921941Y-65902598D01*
X56001130Y-65711420D01*
X56041500Y-65508465D01*
X56041500Y-65301536D01*
X56480500Y-65301536D01*
X56480500Y-65508463D01*
X56520867Y-65711411D01*
X56520869Y-65711416D01*
X56520870Y-65711420D01*
X56600059Y-65902598D01*
X56600060Y-65902600D01*
X56600061Y-65902601D01*
X56715019Y-66074650D01*
X56715020Y-66074651D01*
X56715023Y-66074655D01*
X56861345Y-66220977D01*
X57033402Y-66335941D01*
X57224580Y-66415130D01*
X57224585Y-66415131D01*
X57224588Y-66415132D01*
X57327432Y-66435588D01*
X57427535Y-66455500D01*
X57427537Y-66455500D01*
X57634463Y-66455500D01*
X57634465Y-66455500D01*
X57767336Y-66429070D01*
X57837411Y-66415132D01*
X57837412Y-66415131D01*
X57837420Y-66415130D01*
X58028598Y-66335941D01*
X58200655Y-66220977D01*
X58346977Y-66074655D01*
X58461941Y-65902598D01*
X58541130Y-65711420D01*
X58581500Y-65508465D01*
X58581500Y-65301535D01*
X58541130Y-65098580D01*
X58461941Y-64907402D01*
X58346977Y-64735345D01*
X58200655Y-64589023D01*
X58200651Y-64589020D01*
X58200650Y-64589019D01*
X58028601Y-64474061D01*
X58028600Y-64474060D01*
X58028598Y-64474059D01*
X57837420Y-64394870D01*
X57837416Y-64394869D01*
X57837411Y-64394867D01*
X57684684Y-64364489D01*
X57634465Y-64354500D01*
X57427535Y-64354500D01*
X57382844Y-64363389D01*
X57224588Y-64394867D01*
X57224583Y-64394869D01*
X57224581Y-64394869D01*
X57224580Y-64394870D01*
X57033402Y-64474059D01*
X57033400Y-64474059D01*
X57033398Y-64474061D01*
X56861349Y-64589019D01*
X56715019Y-64735349D01*
X56600061Y-64907398D01*
X56520869Y-65098583D01*
X56520867Y-65098588D01*
X56480500Y-65301536D01*
X56041500Y-65301536D01*
X56041500Y-65301535D01*
X56001130Y-65098580D01*
X55921941Y-64907402D01*
X55806977Y-64735345D01*
X55660655Y-64589023D01*
X55660651Y-64589020D01*
X55660650Y-64589019D01*
X55488601Y-64474061D01*
X55488600Y-64474060D01*
X55488598Y-64474059D01*
X55297420Y-64394870D01*
X55297416Y-64394869D01*
X55297411Y-64394867D01*
X55144684Y-64364489D01*
X55094465Y-64354500D01*
X54887535Y-64354500D01*
X54842844Y-64363389D01*
X54684588Y-64394867D01*
X54684583Y-64394869D01*
X54684581Y-64394869D01*
X54684580Y-64394870D01*
X54493402Y-64474059D01*
X54493400Y-64474059D01*
X54493398Y-64474061D01*
X54321349Y-64589019D01*
X54175019Y-64735349D01*
X54060061Y-64907398D01*
X53980869Y-65098583D01*
X53980867Y-65098588D01*
X53940500Y-65301536D01*
X51838700Y-65301536D01*
X51838700Y-62761536D01*
X53940500Y-62761536D01*
X53940500Y-62968463D01*
X53980867Y-63171411D01*
X53980869Y-63171416D01*
X53980870Y-63171420D01*
X54060059Y-63362598D01*
X54060060Y-63362600D01*
X54060061Y-63362601D01*
X54175019Y-63534650D01*
X54175020Y-63534651D01*
X54175023Y-63534655D01*
X54321345Y-63680977D01*
X54493402Y-63795941D01*
X54684580Y-63875130D01*
X54684585Y-63875131D01*
X54684588Y-63875132D01*
X54787432Y-63895588D01*
X54887535Y-63915500D01*
X54887537Y-63915500D01*
X55094463Y-63915500D01*
X55094465Y-63915500D01*
X55227336Y-63889070D01*
X55297411Y-63875132D01*
X55297412Y-63875131D01*
X55297420Y-63875130D01*
X55488598Y-63795941D01*
X55660655Y-63680977D01*
X55806977Y-63534655D01*
X55921941Y-63362598D01*
X56001130Y-63171420D01*
X56041500Y-62968465D01*
X56041500Y-62761536D01*
X56480500Y-62761536D01*
X56480500Y-62968463D01*
X56520867Y-63171411D01*
X56520869Y-63171416D01*
X56520870Y-63171420D01*
X56600059Y-63362598D01*
X56600060Y-63362600D01*
X56600061Y-63362601D01*
X56715019Y-63534650D01*
X56715020Y-63534651D01*
X56715023Y-63534655D01*
X56861345Y-63680977D01*
X57033402Y-63795941D01*
X57224580Y-63875130D01*
X57224585Y-63875131D01*
X57224588Y-63875132D01*
X57327432Y-63895588D01*
X57427535Y-63915500D01*
X57427537Y-63915500D01*
X57634463Y-63915500D01*
X57634465Y-63915500D01*
X57767336Y-63889070D01*
X57837411Y-63875132D01*
X57837412Y-63875131D01*
X57837420Y-63875130D01*
X58028598Y-63795941D01*
X58200655Y-63680977D01*
X58346977Y-63534655D01*
X58461941Y-63362598D01*
X58541130Y-63171420D01*
X58581500Y-62968465D01*
X58581500Y-62761535D01*
X58541130Y-62558580D01*
X58461941Y-62367402D01*
X58346977Y-62195345D01*
X58200655Y-62049023D01*
X58200651Y-62049020D01*
X58200650Y-62049019D01*
X58028601Y-61934061D01*
X58028600Y-61934060D01*
X58028598Y-61934059D01*
X57837420Y-61854870D01*
X57837416Y-61854869D01*
X57837411Y-61854867D01*
X57684684Y-61824489D01*
X57634465Y-61814500D01*
X57427535Y-61814500D01*
X57382844Y-61823389D01*
X57224588Y-61854867D01*
X57224583Y-61854869D01*
X57224581Y-61854869D01*
X57224580Y-61854870D01*
X57033402Y-61934059D01*
X57033400Y-61934059D01*
X57033398Y-61934061D01*
X56861349Y-62049019D01*
X56715019Y-62195349D01*
X56600061Y-62367398D01*
X56520869Y-62558583D01*
X56520867Y-62558588D01*
X56480500Y-62761536D01*
X56041500Y-62761536D01*
X56041500Y-62761535D01*
X56001130Y-62558580D01*
X55921941Y-62367402D01*
X55806977Y-62195345D01*
X55660655Y-62049023D01*
X55660651Y-62049020D01*
X55660650Y-62049019D01*
X55488601Y-61934061D01*
X55488600Y-61934060D01*
X55488598Y-61934059D01*
X55297420Y-61854870D01*
X55297416Y-61854869D01*
X55297411Y-61854867D01*
X55144684Y-61824489D01*
X55094465Y-61814500D01*
X54887535Y-61814500D01*
X54842844Y-61823389D01*
X54684588Y-61854867D01*
X54684583Y-61854869D01*
X54684581Y-61854869D01*
X54684580Y-61854870D01*
X54493402Y-61934059D01*
X54493400Y-61934059D01*
X54493398Y-61934061D01*
X54321349Y-62049019D01*
X54175019Y-62195349D01*
X54060061Y-62367398D01*
X53980869Y-62558583D01*
X53980867Y-62558588D01*
X53940500Y-62761536D01*
X51838700Y-62761536D01*
X51838700Y-60221536D01*
X53940500Y-60221536D01*
X53940500Y-60428463D01*
X53980867Y-60631411D01*
X53980869Y-60631416D01*
X53980870Y-60631420D01*
X54060059Y-60822598D01*
X54060060Y-60822600D01*
X54060061Y-60822601D01*
X54175019Y-60994650D01*
X54175020Y-60994651D01*
X54175023Y-60994655D01*
X54321345Y-61140977D01*
X54493402Y-61255941D01*
X54684580Y-61335130D01*
X54684585Y-61335131D01*
X54684588Y-61335132D01*
X54787432Y-61355588D01*
X54887535Y-61375500D01*
X54887537Y-61375500D01*
X55094463Y-61375500D01*
X55094465Y-61375500D01*
X55227336Y-61349070D01*
X55297411Y-61335132D01*
X55297412Y-61335131D01*
X55297420Y-61335130D01*
X55488598Y-61255941D01*
X55660655Y-61140977D01*
X55806977Y-60994655D01*
X55921941Y-60822598D01*
X56001130Y-60631420D01*
X56041500Y-60428465D01*
X56041500Y-60221536D01*
X56480500Y-60221536D01*
X56480500Y-60428463D01*
X56520867Y-60631411D01*
X56520869Y-60631416D01*
X56520870Y-60631420D01*
X56600059Y-60822598D01*
X56600060Y-60822600D01*
X56600061Y-60822601D01*
X56715019Y-60994650D01*
X56715020Y-60994651D01*
X56715023Y-60994655D01*
X56861345Y-61140977D01*
X57033402Y-61255941D01*
X57224580Y-61335130D01*
X57224585Y-61335131D01*
X57224588Y-61335132D01*
X57327432Y-61355588D01*
X57427535Y-61375500D01*
X57427537Y-61375500D01*
X57634463Y-61375500D01*
X57634465Y-61375500D01*
X57767336Y-61349070D01*
X57837411Y-61335132D01*
X57837412Y-61335131D01*
X57837420Y-61335130D01*
X58028598Y-61255941D01*
X58200655Y-61140977D01*
X58346977Y-60994655D01*
X58461941Y-60822598D01*
X58541130Y-60631420D01*
X58581500Y-60428465D01*
X58581500Y-60221535D01*
X58541130Y-60018580D01*
X58461941Y-59827402D01*
X58346977Y-59655345D01*
X58200655Y-59509023D01*
X58200651Y-59509020D01*
X58200650Y-59509019D01*
X58028601Y-59394061D01*
X58028600Y-59394060D01*
X58028598Y-59394059D01*
X57837420Y-59314870D01*
X57837416Y-59314869D01*
X57837411Y-59314867D01*
X57684684Y-59284489D01*
X57634465Y-59274500D01*
X57427535Y-59274500D01*
X57382844Y-59283389D01*
X57224588Y-59314867D01*
X57224583Y-59314869D01*
X57224581Y-59314869D01*
X57224580Y-59314870D01*
X57033402Y-59394059D01*
X57033400Y-59394059D01*
X57033398Y-59394061D01*
X56861349Y-59509019D01*
X56715019Y-59655349D01*
X56600061Y-59827398D01*
X56520869Y-60018583D01*
X56520867Y-60018588D01*
X56480500Y-60221536D01*
X56041500Y-60221536D01*
X56041500Y-60221535D01*
X56001130Y-60018580D01*
X55921941Y-59827402D01*
X55806977Y-59655345D01*
X55660655Y-59509023D01*
X55660651Y-59509020D01*
X55660650Y-59509019D01*
X55488601Y-59394061D01*
X55488600Y-59394060D01*
X55488598Y-59394059D01*
X55297420Y-59314870D01*
X55297416Y-59314869D01*
X55297411Y-59314867D01*
X55144684Y-59284489D01*
X55094465Y-59274500D01*
X54887535Y-59274500D01*
X54842844Y-59283389D01*
X54684588Y-59314867D01*
X54684583Y-59314869D01*
X54684581Y-59314869D01*
X54684580Y-59314870D01*
X54493402Y-59394059D01*
X54493400Y-59394059D01*
X54493398Y-59394061D01*
X54321349Y-59509019D01*
X54175019Y-59655349D01*
X54060061Y-59827398D01*
X53980869Y-60018583D01*
X53980867Y-60018588D01*
X53940500Y-60221536D01*
X51838700Y-60221536D01*
X51838700Y-57681536D01*
X53940500Y-57681536D01*
X53940500Y-57888463D01*
X53980867Y-58091411D01*
X53980869Y-58091416D01*
X53980870Y-58091420D01*
X54060059Y-58282598D01*
X54060060Y-58282600D01*
X54060061Y-58282601D01*
X54175019Y-58454650D01*
X54175020Y-58454651D01*
X54175023Y-58454655D01*
X54321345Y-58600977D01*
X54493402Y-58715941D01*
X54684580Y-58795130D01*
X54684585Y-58795131D01*
X54684588Y-58795132D01*
X54764364Y-58811000D01*
X54887535Y-58835500D01*
X54887537Y-58835500D01*
X55094463Y-58835500D01*
X55094465Y-58835500D01*
X55227336Y-58809070D01*
X55297411Y-58795132D01*
X55297412Y-58795131D01*
X55297420Y-58795130D01*
X55488598Y-58715941D01*
X55660655Y-58600977D01*
X55806977Y-58454655D01*
X55921941Y-58282598D01*
X56001130Y-58091420D01*
X56041500Y-57888465D01*
X56041500Y-57681536D01*
X56480500Y-57681536D01*
X56480500Y-57888463D01*
X56520867Y-58091411D01*
X56520869Y-58091416D01*
X56520870Y-58091420D01*
X56600059Y-58282598D01*
X56600060Y-58282600D01*
X56600061Y-58282601D01*
X56715019Y-58454650D01*
X56715020Y-58454651D01*
X56715023Y-58454655D01*
X56861345Y-58600977D01*
X57033402Y-58715941D01*
X57224580Y-58795130D01*
X57224585Y-58795131D01*
X57224588Y-58795132D01*
X57304364Y-58811000D01*
X57427535Y-58835500D01*
X57427537Y-58835500D01*
X57634463Y-58835500D01*
X57634465Y-58835500D01*
X57767336Y-58809070D01*
X57837411Y-58795132D01*
X57837412Y-58795131D01*
X57837420Y-58795130D01*
X58028598Y-58715941D01*
X58200655Y-58600977D01*
X58346977Y-58454655D01*
X58461941Y-58282598D01*
X58541130Y-58091420D01*
X58581500Y-57888465D01*
X58581500Y-57681535D01*
X58541130Y-57478580D01*
X58461941Y-57287402D01*
X58346977Y-57115345D01*
X58200655Y-56969023D01*
X58200651Y-56969020D01*
X58200650Y-56969019D01*
X58028601Y-56854061D01*
X58028600Y-56854060D01*
X58028598Y-56854059D01*
X57837420Y-56774870D01*
X57837416Y-56774869D01*
X57837411Y-56774867D01*
X57684684Y-56744489D01*
X57634465Y-56734500D01*
X57427535Y-56734500D01*
X57382844Y-56743389D01*
X57224588Y-56774867D01*
X57224583Y-56774869D01*
X57224581Y-56774869D01*
X57224580Y-56774870D01*
X57033402Y-56854059D01*
X57033400Y-56854059D01*
X57033398Y-56854061D01*
X56861349Y-56969019D01*
X56715019Y-57115349D01*
X56600061Y-57287398D01*
X56600059Y-57287400D01*
X56600059Y-57287402D01*
X56538972Y-57434878D01*
X56520869Y-57478583D01*
X56520867Y-57478588D01*
X56480500Y-57681536D01*
X56041500Y-57681536D01*
X56041500Y-57681535D01*
X56001130Y-57478580D01*
X55921941Y-57287402D01*
X55806977Y-57115345D01*
X55660655Y-56969023D01*
X55660651Y-56969020D01*
X55660650Y-56969019D01*
X55488601Y-56854061D01*
X55488600Y-56854060D01*
X55488598Y-56854059D01*
X55297420Y-56774870D01*
X55297416Y-56774869D01*
X55297411Y-56774867D01*
X55144684Y-56744489D01*
X55094465Y-56734500D01*
X54887535Y-56734500D01*
X54842844Y-56743389D01*
X54684588Y-56774867D01*
X54684583Y-56774869D01*
X54684581Y-56774869D01*
X54684580Y-56774870D01*
X54493402Y-56854059D01*
X54493400Y-56854059D01*
X54493398Y-56854061D01*
X54321349Y-56969019D01*
X54175019Y-57115349D01*
X54060061Y-57287398D01*
X54060059Y-57287400D01*
X54060059Y-57287402D01*
X53998972Y-57434878D01*
X53980869Y-57478583D01*
X53980867Y-57478588D01*
X53940500Y-57681536D01*
X51838700Y-57681536D01*
X51838700Y-55677541D01*
X51859265Y-55621040D01*
X51864434Y-55615397D01*
X51869977Y-55609855D01*
X51984941Y-55437798D01*
X52064130Y-55246620D01*
X52085032Y-55141536D01*
X53940500Y-55141536D01*
X53940500Y-55348463D01*
X53980867Y-55551411D01*
X53980869Y-55551416D01*
X53980870Y-55551420D01*
X54060059Y-55742598D01*
X54060060Y-55742600D01*
X54060061Y-55742601D01*
X54175019Y-55914650D01*
X54175020Y-55914651D01*
X54175023Y-55914655D01*
X54321345Y-56060977D01*
X54493402Y-56175941D01*
X54684580Y-56255130D01*
X54684585Y-56255131D01*
X54684588Y-56255132D01*
X54787432Y-56275588D01*
X54887535Y-56295500D01*
X54887537Y-56295500D01*
X55094463Y-56295500D01*
X55094465Y-56295500D01*
X55227336Y-56269070D01*
X55297411Y-56255132D01*
X55297412Y-56255131D01*
X55297420Y-56255130D01*
X55488598Y-56175941D01*
X55660655Y-56060977D01*
X55806977Y-55914655D01*
X55921941Y-55742598D01*
X56001130Y-55551420D01*
X56041500Y-55348465D01*
X56041500Y-55141536D01*
X56480500Y-55141536D01*
X56480500Y-55348463D01*
X56520867Y-55551411D01*
X56520869Y-55551416D01*
X56520870Y-55551420D01*
X56600059Y-55742598D01*
X56600060Y-55742600D01*
X56600061Y-55742601D01*
X56715019Y-55914650D01*
X56715020Y-55914651D01*
X56715023Y-55914655D01*
X56861345Y-56060977D01*
X57033402Y-56175941D01*
X57224580Y-56255130D01*
X57224585Y-56255131D01*
X57224588Y-56255132D01*
X57327432Y-56275588D01*
X57427535Y-56295500D01*
X57427537Y-56295500D01*
X57634463Y-56295500D01*
X57634465Y-56295500D01*
X57767336Y-56269070D01*
X57837411Y-56255132D01*
X57837412Y-56255131D01*
X57837420Y-56255130D01*
X58028598Y-56175941D01*
X58200655Y-56060977D01*
X58346977Y-55914655D01*
X58461941Y-55742598D01*
X58541130Y-55551420D01*
X58581500Y-55348465D01*
X58581500Y-55141535D01*
X58541130Y-54938580D01*
X58461941Y-54747402D01*
X58346977Y-54575345D01*
X58200655Y-54429023D01*
X58200651Y-54429020D01*
X58200650Y-54429019D01*
X58028601Y-54314061D01*
X58028600Y-54314060D01*
X58028598Y-54314059D01*
X57837420Y-54234870D01*
X57837416Y-54234869D01*
X57837411Y-54234867D01*
X57684684Y-54204489D01*
X57634465Y-54194500D01*
X57427535Y-54194500D01*
X57385516Y-54202858D01*
X57224588Y-54234867D01*
X57224583Y-54234869D01*
X57224581Y-54234869D01*
X57224580Y-54234870D01*
X57033402Y-54314059D01*
X57033400Y-54314059D01*
X57033398Y-54314061D01*
X56861349Y-54429019D01*
X56715019Y-54575349D01*
X56600061Y-54747398D01*
X56600059Y-54747400D01*
X56600059Y-54747402D01*
X56520870Y-54938580D01*
X56520869Y-54938583D01*
X56520867Y-54938588D01*
X56480500Y-55141536D01*
X56041500Y-55141536D01*
X56041500Y-55141535D01*
X56001130Y-54938580D01*
X55921941Y-54747402D01*
X55806977Y-54575345D01*
X55660655Y-54429023D01*
X55660651Y-54429020D01*
X55660650Y-54429019D01*
X55488601Y-54314061D01*
X55488600Y-54314060D01*
X55488598Y-54314059D01*
X55297420Y-54234870D01*
X55297416Y-54234869D01*
X55297411Y-54234867D01*
X55144684Y-54204489D01*
X55094465Y-54194500D01*
X54887535Y-54194500D01*
X54845516Y-54202858D01*
X54684588Y-54234867D01*
X54684583Y-54234869D01*
X54684581Y-54234869D01*
X54684580Y-54234870D01*
X54493402Y-54314059D01*
X54493400Y-54314059D01*
X54493398Y-54314061D01*
X54321349Y-54429019D01*
X54175019Y-54575349D01*
X54060061Y-54747398D01*
X54060059Y-54747400D01*
X54060059Y-54747402D01*
X53980870Y-54938580D01*
X53980869Y-54938583D01*
X53980867Y-54938588D01*
X53940500Y-55141536D01*
X52085032Y-55141536D01*
X52104500Y-55043665D01*
X52104500Y-54836735D01*
X52075353Y-54690200D01*
X52064132Y-54633788D01*
X52064131Y-54633785D01*
X52064130Y-54633780D01*
X51984941Y-54442602D01*
X51869977Y-54270545D01*
X51869973Y-54270541D01*
X51864442Y-54265009D01*
X51839034Y-54210514D01*
X51838700Y-54202858D01*
X51838700Y-52601536D01*
X53940500Y-52601536D01*
X53940500Y-52808463D01*
X53980867Y-53011411D01*
X53980869Y-53011416D01*
X53980870Y-53011420D01*
X54060059Y-53202598D01*
X54060060Y-53202600D01*
X54060061Y-53202601D01*
X54175019Y-53374650D01*
X54175020Y-53374651D01*
X54175023Y-53374655D01*
X54321345Y-53520977D01*
X54493402Y-53635941D01*
X54684580Y-53715130D01*
X54684585Y-53715131D01*
X54684588Y-53715132D01*
X54787432Y-53735588D01*
X54887535Y-53755500D01*
X54887537Y-53755500D01*
X55094463Y-53755500D01*
X55094465Y-53755500D01*
X55227336Y-53729070D01*
X55297411Y-53715132D01*
X55297412Y-53715131D01*
X55297420Y-53715130D01*
X55488598Y-53635941D01*
X55660655Y-53520977D01*
X55806977Y-53374655D01*
X55921941Y-53202598D01*
X56001130Y-53011420D01*
X56041500Y-52808465D01*
X56041500Y-52601536D01*
X56480500Y-52601536D01*
X56480500Y-52808463D01*
X56520867Y-53011411D01*
X56520869Y-53011416D01*
X56520870Y-53011420D01*
X56600059Y-53202598D01*
X56600060Y-53202600D01*
X56600061Y-53202601D01*
X56715019Y-53374650D01*
X56715020Y-53374651D01*
X56715023Y-53374655D01*
X56861345Y-53520977D01*
X57033402Y-53635941D01*
X57224580Y-53715130D01*
X57224585Y-53715131D01*
X57224588Y-53715132D01*
X57327432Y-53735588D01*
X57427535Y-53755500D01*
X57427537Y-53755500D01*
X57634463Y-53755500D01*
X57634465Y-53755500D01*
X57767336Y-53729070D01*
X57837411Y-53715132D01*
X57837412Y-53715131D01*
X57837420Y-53715130D01*
X58028598Y-53635941D01*
X58200655Y-53520977D01*
X58346977Y-53374655D01*
X58461941Y-53202598D01*
X58541130Y-53011420D01*
X58581500Y-52808465D01*
X58581500Y-52601535D01*
X58541130Y-52398580D01*
X58461941Y-52207402D01*
X58346977Y-52035345D01*
X58200655Y-51889023D01*
X58200651Y-51889020D01*
X58200650Y-51889019D01*
X58028601Y-51774061D01*
X58028600Y-51774060D01*
X58028598Y-51774059D01*
X57837420Y-51694870D01*
X57837416Y-51694869D01*
X57837411Y-51694867D01*
X57684684Y-51664489D01*
X57634465Y-51654500D01*
X57427535Y-51654500D01*
X57382844Y-51663389D01*
X57224588Y-51694867D01*
X57224583Y-51694869D01*
X57224581Y-51694869D01*
X57224580Y-51694870D01*
X57033402Y-51774059D01*
X57033400Y-51774059D01*
X57033398Y-51774061D01*
X56861349Y-51889019D01*
X56715019Y-52035349D01*
X56600061Y-52207398D01*
X56520869Y-52398583D01*
X56520867Y-52398588D01*
X56480500Y-52601536D01*
X56041500Y-52601536D01*
X56041500Y-52601535D01*
X56001130Y-52398580D01*
X55921941Y-52207402D01*
X55806977Y-52035345D01*
X55660655Y-51889023D01*
X55660651Y-51889020D01*
X55660650Y-51889019D01*
X55488601Y-51774061D01*
X55488600Y-51774060D01*
X55488598Y-51774059D01*
X55297420Y-51694870D01*
X55297416Y-51694869D01*
X55297411Y-51694867D01*
X55144684Y-51664489D01*
X55094465Y-51654500D01*
X54887535Y-51654500D01*
X54842844Y-51663389D01*
X54684588Y-51694867D01*
X54684583Y-51694869D01*
X54684581Y-51694869D01*
X54684580Y-51694870D01*
X54493402Y-51774059D01*
X54493400Y-51774059D01*
X54493398Y-51774061D01*
X54321349Y-51889019D01*
X54175019Y-52035349D01*
X54060061Y-52207398D01*
X53980869Y-52398583D01*
X53980867Y-52398588D01*
X53940500Y-52601536D01*
X51838700Y-52601536D01*
X51838700Y-50061536D01*
X53940500Y-50061536D01*
X53940500Y-50268463D01*
X53980867Y-50471411D01*
X53980869Y-50471416D01*
X53980870Y-50471420D01*
X54060059Y-50662598D01*
X54060060Y-50662600D01*
X54060061Y-50662601D01*
X54175019Y-50834650D01*
X54175020Y-50834651D01*
X54175023Y-50834655D01*
X54321345Y-50980977D01*
X54493402Y-51095941D01*
X54684580Y-51175130D01*
X54684585Y-51175131D01*
X54684588Y-51175132D01*
X54787432Y-51195588D01*
X54887535Y-51215500D01*
X54887537Y-51215500D01*
X55094463Y-51215500D01*
X55094465Y-51215500D01*
X55227336Y-51189070D01*
X55297411Y-51175132D01*
X55297412Y-51175131D01*
X55297420Y-51175130D01*
X55488598Y-51095941D01*
X55660655Y-50980977D01*
X55806977Y-50834655D01*
X55921941Y-50662598D01*
X56001130Y-50471420D01*
X56041500Y-50268465D01*
X56041500Y-50061536D01*
X56480500Y-50061536D01*
X56480500Y-50268463D01*
X56520867Y-50471411D01*
X56520869Y-50471416D01*
X56520870Y-50471420D01*
X56600059Y-50662598D01*
X56600060Y-50662600D01*
X56600061Y-50662601D01*
X56715019Y-50834650D01*
X56715020Y-50834651D01*
X56715023Y-50834655D01*
X56861345Y-50980977D01*
X57033402Y-51095941D01*
X57224580Y-51175130D01*
X57224585Y-51175131D01*
X57224588Y-51175132D01*
X57327432Y-51195588D01*
X57427535Y-51215500D01*
X57427537Y-51215500D01*
X57634463Y-51215500D01*
X57634465Y-51215500D01*
X57767336Y-51189070D01*
X57837411Y-51175132D01*
X57837412Y-51175131D01*
X57837420Y-51175130D01*
X58028598Y-51095941D01*
X58200655Y-50980977D01*
X58346977Y-50834655D01*
X58461941Y-50662598D01*
X58541130Y-50471420D01*
X58581500Y-50268465D01*
X58581500Y-50061535D01*
X58558825Y-49947541D01*
X58541132Y-49858588D01*
X58541131Y-49858585D01*
X58541130Y-49858580D01*
X58461941Y-49667402D01*
X58346977Y-49495345D01*
X58200655Y-49349023D01*
X58200651Y-49349020D01*
X58200650Y-49349019D01*
X58028601Y-49234061D01*
X58028600Y-49234060D01*
X58028598Y-49234059D01*
X57837420Y-49154870D01*
X57837416Y-49154869D01*
X57837411Y-49154867D01*
X57684684Y-49124489D01*
X57634465Y-49114500D01*
X57427535Y-49114500D01*
X57382844Y-49123389D01*
X57224588Y-49154867D01*
X57224583Y-49154869D01*
X57224581Y-49154869D01*
X57224580Y-49154870D01*
X57033402Y-49234059D01*
X57033400Y-49234059D01*
X57033398Y-49234061D01*
X56861349Y-49349019D01*
X56715019Y-49495349D01*
X56600061Y-49667398D01*
X56600059Y-49667400D01*
X56600059Y-49667402D01*
X56528760Y-49839532D01*
X56520869Y-49858583D01*
X56520867Y-49858588D01*
X56480500Y-50061536D01*
X56041500Y-50061536D01*
X56041500Y-50061535D01*
X56018825Y-49947541D01*
X56001132Y-49858588D01*
X56001131Y-49858585D01*
X56001130Y-49858580D01*
X55921941Y-49667402D01*
X55806977Y-49495345D01*
X55660655Y-49349023D01*
X55660651Y-49349020D01*
X55660650Y-49349019D01*
X55488601Y-49234061D01*
X55488600Y-49234060D01*
X55488598Y-49234059D01*
X55297420Y-49154870D01*
X55297416Y-49154869D01*
X55297411Y-49154867D01*
X55144684Y-49124489D01*
X55094465Y-49114500D01*
X54887535Y-49114500D01*
X54842844Y-49123389D01*
X54684588Y-49154867D01*
X54684583Y-49154869D01*
X54684581Y-49154869D01*
X54684580Y-49154870D01*
X54493402Y-49234059D01*
X54493400Y-49234059D01*
X54493398Y-49234061D01*
X54321349Y-49349019D01*
X54175019Y-49495349D01*
X54060061Y-49667398D01*
X54060059Y-49667400D01*
X54060059Y-49667402D01*
X53988760Y-49839532D01*
X53980869Y-49858583D01*
X53980867Y-49858588D01*
X53940500Y-50061536D01*
X51838700Y-50061536D01*
X51838700Y-49875941D01*
X51859265Y-49819440D01*
X51864434Y-49813797D01*
X51910377Y-49767855D01*
X52025341Y-49595798D01*
X52104530Y-49404620D01*
X52144900Y-49201665D01*
X52144900Y-48994735D01*
X52115753Y-48848200D01*
X52104532Y-48791788D01*
X52104531Y-48791785D01*
X52104530Y-48791780D01*
X52025341Y-48600602D01*
X51910377Y-48428545D01*
X51910374Y-48428542D01*
X51864445Y-48382612D01*
X51839034Y-48328118D01*
X51838700Y-48320458D01*
X51838700Y-47521536D01*
X53940500Y-47521536D01*
X53940500Y-47728463D01*
X53980867Y-47931411D01*
X53980869Y-47931416D01*
X53980870Y-47931420D01*
X54060059Y-48122598D01*
X54060060Y-48122600D01*
X54060061Y-48122601D01*
X54175019Y-48294650D01*
X54175020Y-48294651D01*
X54175023Y-48294655D01*
X54321345Y-48440977D01*
X54493402Y-48555941D01*
X54684580Y-48635130D01*
X54684585Y-48635131D01*
X54684588Y-48635132D01*
X54787432Y-48655588D01*
X54887535Y-48675500D01*
X54887537Y-48675500D01*
X55094463Y-48675500D01*
X55094465Y-48675500D01*
X55227336Y-48649070D01*
X55297411Y-48635132D01*
X55297412Y-48635131D01*
X55297420Y-48635130D01*
X55488598Y-48555941D01*
X55660655Y-48440977D01*
X55806977Y-48294655D01*
X55921941Y-48122598D01*
X56001130Y-47931420D01*
X56041500Y-47728465D01*
X56041500Y-47521536D01*
X56480500Y-47521536D01*
X56480500Y-47728463D01*
X56520867Y-47931411D01*
X56520869Y-47931416D01*
X56520870Y-47931420D01*
X56600059Y-48122598D01*
X56600060Y-48122600D01*
X56600061Y-48122601D01*
X56715019Y-48294650D01*
X56715020Y-48294651D01*
X56715023Y-48294655D01*
X56861345Y-48440977D01*
X57033402Y-48555941D01*
X57224580Y-48635130D01*
X57224585Y-48635131D01*
X57224588Y-48635132D01*
X57327432Y-48655588D01*
X57427535Y-48675500D01*
X57427537Y-48675500D01*
X57634463Y-48675500D01*
X57634465Y-48675500D01*
X57767336Y-48649070D01*
X57837411Y-48635132D01*
X57837412Y-48635131D01*
X57837420Y-48635130D01*
X58028598Y-48555941D01*
X58200655Y-48440977D01*
X58346977Y-48294655D01*
X58461941Y-48122598D01*
X58541130Y-47931420D01*
X58581500Y-47728465D01*
X58581500Y-47521535D01*
X58541130Y-47318580D01*
X58461941Y-47127402D01*
X58346977Y-46955345D01*
X58200655Y-46809023D01*
X58200651Y-46809020D01*
X58200650Y-46809019D01*
X58028601Y-46694061D01*
X58028600Y-46694060D01*
X58028598Y-46694059D01*
X57837420Y-46614870D01*
X57837416Y-46614869D01*
X57837411Y-46614867D01*
X57684684Y-46584489D01*
X57634465Y-46574500D01*
X57427535Y-46574500D01*
X57382844Y-46583389D01*
X57224588Y-46614867D01*
X57224583Y-46614869D01*
X57224581Y-46614869D01*
X57224580Y-46614870D01*
X57033402Y-46694059D01*
X57033400Y-46694059D01*
X57033398Y-46694061D01*
X56861349Y-46809019D01*
X56715019Y-46955349D01*
X56600061Y-47127398D01*
X56600059Y-47127400D01*
X56600059Y-47127402D01*
X56520870Y-47318580D01*
X56520869Y-47318583D01*
X56520867Y-47318588D01*
X56480500Y-47521536D01*
X56041500Y-47521536D01*
X56041500Y-47521535D01*
X56001130Y-47318580D01*
X55921941Y-47127402D01*
X55806977Y-46955345D01*
X55660655Y-46809023D01*
X55660651Y-46809020D01*
X55660650Y-46809019D01*
X55488601Y-46694061D01*
X55488600Y-46694060D01*
X55488598Y-46694059D01*
X55297420Y-46614870D01*
X55297416Y-46614869D01*
X55297411Y-46614867D01*
X55144684Y-46584489D01*
X55094465Y-46574500D01*
X54887535Y-46574500D01*
X54842844Y-46583389D01*
X54684588Y-46614867D01*
X54684583Y-46614869D01*
X54684581Y-46614869D01*
X54684580Y-46614870D01*
X54493402Y-46694059D01*
X54493400Y-46694059D01*
X54493398Y-46694061D01*
X54321349Y-46809019D01*
X54175019Y-46955349D01*
X54060061Y-47127398D01*
X54060059Y-47127400D01*
X54060059Y-47127402D01*
X53980870Y-47318580D01*
X53980869Y-47318583D01*
X53980867Y-47318588D01*
X53940500Y-47521536D01*
X51838700Y-47521536D01*
X51838700Y-44981536D01*
X53940500Y-44981536D01*
X53940500Y-45188463D01*
X53980867Y-45391411D01*
X53980869Y-45391416D01*
X53980870Y-45391420D01*
X54060059Y-45582598D01*
X54060060Y-45582600D01*
X54060061Y-45582601D01*
X54175019Y-45754650D01*
X54175020Y-45754651D01*
X54175023Y-45754655D01*
X54321345Y-45900977D01*
X54493402Y-46015941D01*
X54684580Y-46095130D01*
X54684585Y-46095131D01*
X54684588Y-46095132D01*
X54787432Y-46115588D01*
X54887535Y-46135500D01*
X54887537Y-46135500D01*
X55094463Y-46135500D01*
X55094465Y-46135500D01*
X55227336Y-46109070D01*
X55297411Y-46095132D01*
X55297412Y-46095131D01*
X55297420Y-46095130D01*
X55488598Y-46015941D01*
X55660655Y-45900977D01*
X55806977Y-45754655D01*
X55921941Y-45582598D01*
X56001130Y-45391420D01*
X56041500Y-45188465D01*
X56041500Y-44981536D01*
X56480500Y-44981536D01*
X56480500Y-45188463D01*
X56520867Y-45391411D01*
X56520869Y-45391416D01*
X56520870Y-45391420D01*
X56600059Y-45582598D01*
X56600060Y-45582600D01*
X56600061Y-45582601D01*
X56715019Y-45754650D01*
X56715020Y-45754651D01*
X56715023Y-45754655D01*
X56861345Y-45900977D01*
X57033402Y-46015941D01*
X57224580Y-46095130D01*
X57224585Y-46095131D01*
X57224588Y-46095132D01*
X57327432Y-46115588D01*
X57427535Y-46135500D01*
X57427537Y-46135500D01*
X57634463Y-46135500D01*
X57634465Y-46135500D01*
X57767336Y-46109070D01*
X57837411Y-46095132D01*
X57837412Y-46095131D01*
X57837420Y-46095130D01*
X58028598Y-46015941D01*
X58200655Y-45900977D01*
X58346977Y-45754655D01*
X58461941Y-45582598D01*
X58541130Y-45391420D01*
X58581500Y-45188465D01*
X58581500Y-44981535D01*
X58568285Y-44915099D01*
X58541132Y-44778588D01*
X58541131Y-44778585D01*
X58541130Y-44778580D01*
X58461941Y-44587402D01*
X58346977Y-44415345D01*
X58200655Y-44269023D01*
X58200651Y-44269020D01*
X58200650Y-44269019D01*
X58028601Y-44154061D01*
X58028600Y-44154060D01*
X58028598Y-44154059D01*
X57837420Y-44074870D01*
X57837416Y-44074869D01*
X57837411Y-44074867D01*
X57684684Y-44044489D01*
X57634465Y-44034500D01*
X57427535Y-44034500D01*
X57382844Y-44043389D01*
X57224588Y-44074867D01*
X57224583Y-44074869D01*
X57224581Y-44074869D01*
X57224580Y-44074870D01*
X57033402Y-44154059D01*
X57033400Y-44154059D01*
X57033398Y-44154061D01*
X56861349Y-44269019D01*
X56715019Y-44415349D01*
X56600061Y-44587398D01*
X56600059Y-44587400D01*
X56600059Y-44587402D01*
X56525035Y-44768525D01*
X56520869Y-44778583D01*
X56520867Y-44778588D01*
X56480500Y-44981536D01*
X56041500Y-44981536D01*
X56041500Y-44981535D01*
X56028285Y-44915099D01*
X56001132Y-44778588D01*
X56001131Y-44778585D01*
X56001130Y-44778580D01*
X55921941Y-44587402D01*
X55806977Y-44415345D01*
X55660655Y-44269023D01*
X55660651Y-44269020D01*
X55660650Y-44269019D01*
X55488601Y-44154061D01*
X55488600Y-44154060D01*
X55488598Y-44154059D01*
X55297420Y-44074870D01*
X55297416Y-44074869D01*
X55297411Y-44074867D01*
X55144684Y-44044489D01*
X55094465Y-44034500D01*
X54887535Y-44034500D01*
X54842844Y-44043389D01*
X54684588Y-44074867D01*
X54684583Y-44074869D01*
X54684581Y-44074869D01*
X54684580Y-44074870D01*
X54493402Y-44154059D01*
X54493400Y-44154059D01*
X54493398Y-44154061D01*
X54321349Y-44269019D01*
X54175019Y-44415349D01*
X54060061Y-44587398D01*
X54060059Y-44587400D01*
X54060059Y-44587402D01*
X53985035Y-44768525D01*
X53980869Y-44778583D01*
X53980867Y-44778588D01*
X53940500Y-44981536D01*
X51838700Y-44981536D01*
X51838700Y-44830680D01*
X51859265Y-44774179D01*
X51864445Y-44768525D01*
X53379125Y-43253845D01*
X53433619Y-43228434D01*
X53441280Y-43228100D01*
X54152058Y-43228100D01*
X54208559Y-43248665D01*
X54214212Y-43253845D01*
X54278390Y-43318022D01*
X54321345Y-43360977D01*
X54493402Y-43475941D01*
X54684580Y-43555130D01*
X54684585Y-43555131D01*
X54684588Y-43555132D01*
X54787432Y-43575588D01*
X54887535Y-43595500D01*
X54887537Y-43595500D01*
X55094463Y-43595500D01*
X55094465Y-43595500D01*
X55227336Y-43569070D01*
X55297411Y-43555132D01*
X55297412Y-43555131D01*
X55297420Y-43555130D01*
X55488598Y-43475941D01*
X55660655Y-43360977D01*
X55806977Y-43214655D01*
X55921941Y-43042598D01*
X56001130Y-42851420D01*
X56001186Y-42851142D01*
X56015070Y-42781336D01*
X56041500Y-42648465D01*
X56041500Y-42441535D01*
X56480500Y-42441535D01*
X56480500Y-42648465D01*
X56490489Y-42698684D01*
X56520867Y-42851411D01*
X56520869Y-42851416D01*
X56520870Y-42851420D01*
X56600059Y-43042598D01*
X56600060Y-43042600D01*
X56600061Y-43042601D01*
X56715019Y-43214650D01*
X56715020Y-43214651D01*
X56715023Y-43214655D01*
X56861345Y-43360977D01*
X57033402Y-43475941D01*
X57224580Y-43555130D01*
X57224585Y-43555131D01*
X57224588Y-43555132D01*
X57327432Y-43575588D01*
X57427535Y-43595500D01*
X57427537Y-43595500D01*
X57634463Y-43595500D01*
X57634465Y-43595500D01*
X57767336Y-43569070D01*
X57837411Y-43555132D01*
X57837412Y-43555131D01*
X57837420Y-43555130D01*
X58028598Y-43475941D01*
X58200655Y-43360977D01*
X58346977Y-43214655D01*
X58461941Y-43042598D01*
X58541130Y-42851420D01*
X58541186Y-42851142D01*
X58555070Y-42781336D01*
X58581500Y-42648465D01*
X58581500Y-42441535D01*
X58541130Y-42238580D01*
X58461941Y-42047402D01*
X58396806Y-41949920D01*
X58346980Y-41875349D01*
X58346979Y-41875348D01*
X58346977Y-41875345D01*
X58200655Y-41729023D01*
X58200651Y-41729020D01*
X58200650Y-41729019D01*
X58028601Y-41614061D01*
X58028600Y-41614060D01*
X58028598Y-41614059D01*
X57837420Y-41534870D01*
X57837416Y-41534869D01*
X57837411Y-41534867D01*
X57684684Y-41504489D01*
X57634465Y-41494500D01*
X57427535Y-41494500D01*
X57382844Y-41503389D01*
X57224588Y-41534867D01*
X57224583Y-41534869D01*
X57224581Y-41534869D01*
X57224580Y-41534870D01*
X57033402Y-41614059D01*
X57033400Y-41614059D01*
X57033398Y-41614061D01*
X56861349Y-41729019D01*
X56715019Y-41875349D01*
X56600061Y-42047398D01*
X56600059Y-42047400D01*
X56600059Y-42047402D01*
X56520870Y-42238580D01*
X56520869Y-42238583D01*
X56520867Y-42238588D01*
X56485494Y-42416425D01*
X56480500Y-42441535D01*
X56041500Y-42441535D01*
X56001130Y-42238580D01*
X55921941Y-42047402D01*
X55856806Y-41949920D01*
X55806980Y-41875349D01*
X55806979Y-41875348D01*
X55806977Y-41875345D01*
X55660655Y-41729023D01*
X55660651Y-41729020D01*
X55660650Y-41729019D01*
X55488601Y-41614061D01*
X55488600Y-41614060D01*
X55488598Y-41614059D01*
X55297420Y-41534870D01*
X55297416Y-41534869D01*
X55297411Y-41534867D01*
X55144684Y-41504489D01*
X55094465Y-41494500D01*
X54887535Y-41494500D01*
X54842844Y-41503389D01*
X54684588Y-41534867D01*
X54684583Y-41534869D01*
X54684581Y-41534869D01*
X54684580Y-41534870D01*
X54493402Y-41614059D01*
X54493400Y-41614059D01*
X54493398Y-41614061D01*
X54321349Y-41729019D01*
X54321342Y-41729025D01*
X54265012Y-41785355D01*
X54210518Y-41810766D01*
X54202858Y-41811100D01*
X53041619Y-41811100D01*
X53007634Y-41817859D01*
X52904742Y-41838325D01*
X52904738Y-41838326D01*
X52880922Y-41848190D01*
X52866972Y-41853969D01*
X52829206Y-41869612D01*
X52775797Y-41891735D01*
X52659760Y-41969270D01*
X50579870Y-44049159D01*
X50502334Y-44165199D01*
X50464569Y-44256370D01*
X50464569Y-44256372D01*
X50462346Y-44261740D01*
X50448926Y-44294138D01*
X50448925Y-44294142D01*
X50421700Y-44431020D01*
X50421700Y-48248858D01*
X50401135Y-48305359D01*
X50395955Y-48311012D01*
X50278424Y-48428543D01*
X50278419Y-48428549D01*
X50163461Y-48600598D01*
X50163459Y-48600600D01*
X50163459Y-48600602D01*
X50084513Y-48791193D01*
X50084269Y-48791783D01*
X50084267Y-48791788D01*
X50043900Y-48994736D01*
X50043900Y-49201663D01*
X50084267Y-49404611D01*
X50084269Y-49404616D01*
X50084270Y-49404620D01*
X50163459Y-49595798D01*
X50163460Y-49595800D01*
X50163461Y-49595801D01*
X50278419Y-49767850D01*
X50278420Y-49767851D01*
X50278423Y-49767855D01*
X50395955Y-49885387D01*
X50421366Y-49939880D01*
X50421700Y-49947541D01*
X50421700Y-54052279D01*
X50401135Y-54108780D01*
X50387380Y-54121113D01*
X50387684Y-54121483D01*
X50384348Y-54124220D01*
X50238019Y-54270549D01*
X50123061Y-54442598D01*
X50123059Y-54442600D01*
X50123059Y-54442602D01*
X50075322Y-54557849D01*
X50043869Y-54633783D01*
X50043867Y-54633788D01*
X50003500Y-54836736D01*
X50003500Y-55043663D01*
X50043867Y-55246611D01*
X50043869Y-55246616D01*
X50043870Y-55246620D01*
X50123059Y-55437798D01*
X50123060Y-55437800D01*
X50123061Y-55437801D01*
X50238019Y-55609850D01*
X50238020Y-55609851D01*
X50238023Y-55609855D01*
X50384345Y-55756177D01*
X50384348Y-55756179D01*
X50384350Y-55756181D01*
X50387686Y-55758919D01*
X50386519Y-55760340D01*
X50418184Y-55803507D01*
X50421700Y-55828120D01*
X50421700Y-71475919D01*
X50401135Y-71532420D01*
X50395955Y-71538074D01*
X45347470Y-76586559D01*
X45269934Y-76702599D01*
X45232169Y-76793770D01*
X45232169Y-76793772D01*
X45226390Y-76807722D01*
X45216526Y-76831538D01*
X45216525Y-76831542D01*
X45189300Y-76968420D01*
X45189300Y-91515458D01*
X45168735Y-91571959D01*
X45163555Y-91577612D01*
X45081824Y-91659343D01*
X45081819Y-91659349D01*
X44966861Y-91831398D01*
X44966859Y-91831400D01*
X44966859Y-91831402D01*
X44887913Y-92021993D01*
X44887669Y-92022583D01*
X44887667Y-92022588D01*
X44847300Y-92225536D01*
X44408300Y-92225536D01*
X44408300Y-92225535D01*
X44379153Y-92079000D01*
X44367932Y-92022588D01*
X44367931Y-92022585D01*
X44367930Y-92022580D01*
X44288741Y-91831402D01*
X44173777Y-91659345D01*
X44027455Y-91513023D01*
X44027451Y-91513020D01*
X44027450Y-91513019D01*
X43855401Y-91398061D01*
X43855400Y-91398060D01*
X43855398Y-91398059D01*
X43664220Y-91318870D01*
X43664216Y-91318869D01*
X43664211Y-91318867D01*
X43511484Y-91288489D01*
X43461265Y-91278500D01*
X43254335Y-91278500D01*
X43209644Y-91287389D01*
X43051388Y-91318867D01*
X43051383Y-91318869D01*
X43051381Y-91318869D01*
X43051380Y-91318870D01*
X42860202Y-91398059D01*
X42860200Y-91398059D01*
X42860198Y-91398061D01*
X42688149Y-91513019D01*
X42541819Y-91659349D01*
X42426861Y-91831398D01*
X42426859Y-91831400D01*
X42426859Y-91831402D01*
X42347913Y-92021993D01*
X42347669Y-92022583D01*
X42347667Y-92022588D01*
X42307300Y-92225536D01*
X41868300Y-92225536D01*
X41868300Y-92225535D01*
X41839153Y-92079000D01*
X41827932Y-92022588D01*
X41827931Y-92022585D01*
X41827930Y-92022580D01*
X41748741Y-91831402D01*
X41633777Y-91659345D01*
X41487455Y-91513023D01*
X41487451Y-91513020D01*
X41487450Y-91513019D01*
X41315401Y-91398061D01*
X41315400Y-91398060D01*
X41315398Y-91398059D01*
X41124220Y-91318870D01*
X41124216Y-91318869D01*
X41124211Y-91318867D01*
X40971484Y-91288489D01*
X40921265Y-91278500D01*
X40714335Y-91278500D01*
X40669644Y-91287389D01*
X40511388Y-91318867D01*
X40511383Y-91318869D01*
X40511381Y-91318869D01*
X40511380Y-91318870D01*
X40320202Y-91398059D01*
X40320200Y-91398059D01*
X40320198Y-91398061D01*
X40148149Y-91513019D01*
X40001819Y-91659349D01*
X39886861Y-91831398D01*
X39886859Y-91831400D01*
X39886859Y-91831402D01*
X39807913Y-92021993D01*
X39807669Y-92022583D01*
X39807667Y-92022588D01*
X39767300Y-92225536D01*
X16263794Y-92225536D01*
X16287638Y-92136547D01*
X16354168Y-91759237D01*
X16387560Y-91377565D01*
X16387560Y-90994435D01*
X16354168Y-90612763D01*
X16287638Y-90235453D01*
X16188477Y-89865378D01*
X16057439Y-89505354D01*
X15895521Y-89158120D01*
X15731181Y-88873475D01*
X15719407Y-88829278D01*
X15777580Y-68789619D01*
X27079100Y-68789619D01*
X27079100Y-68793676D01*
X27079100Y-76066579D01*
X27106325Y-76203458D01*
X27106327Y-76203462D01*
X27119697Y-76235740D01*
X27123207Y-76244214D01*
X27129900Y-76277856D01*
X27129900Y-83534179D01*
X27157124Y-83671054D01*
X27157126Y-83671060D01*
X27157127Y-83671062D01*
X27210536Y-83800001D01*
X27210537Y-83800002D01*
X27210537Y-83800003D01*
X27288068Y-83916037D01*
X27288069Y-83916038D01*
X27288072Y-83916042D01*
X27386758Y-84014728D01*
X27502799Y-84092264D01*
X27631738Y-84145673D01*
X27631742Y-84145673D01*
X27631745Y-84145675D01*
X27714464Y-84162128D01*
X27768619Y-84172900D01*
X27768621Y-84172900D01*
X27908179Y-84172900D01*
X27908181Y-84172900D01*
X27975691Y-84159471D01*
X28045054Y-84145675D01*
X28045055Y-84145674D01*
X28045062Y-84145673D01*
X28174001Y-84092264D01*
X28290042Y-84014728D01*
X28388728Y-83916042D01*
X28466264Y-83800001D01*
X28519673Y-83671062D01*
X28546900Y-83534181D01*
X28546900Y-75977819D01*
X28519673Y-75840938D01*
X28502791Y-75800181D01*
X28496100Y-75766543D01*
X28496100Y-69040132D01*
X28497789Y-69022984D01*
X28521500Y-68903780D01*
X28521500Y-58102474D01*
X37048600Y-58102474D01*
X37048600Y-58229525D01*
X37073385Y-58354136D01*
X37073387Y-58354140D01*
X37122006Y-58471519D01*
X37122007Y-58471521D01*
X37122008Y-58471522D01*
X37192596Y-58577164D01*
X37282436Y-58667004D01*
X37388078Y-58737592D01*
X37505460Y-58786213D01*
X37505461Y-58786213D01*
X37505463Y-58786214D01*
X37568192Y-58798691D01*
X37630073Y-58811000D01*
X37630075Y-58811000D01*
X37757125Y-58811000D01*
X37757127Y-58811000D01*
X37839448Y-58794625D01*
X37881736Y-58786214D01*
X37881736Y-58786213D01*
X37881740Y-58786213D01*
X37999122Y-58737592D01*
X38104764Y-58667004D01*
X38194604Y-58577164D01*
X38265192Y-58471522D01*
X38313813Y-58354140D01*
X38338600Y-58229527D01*
X38338600Y-58102473D01*
X38320759Y-58012780D01*
X38313814Y-57977863D01*
X38313813Y-57977861D01*
X38313813Y-57977860D01*
X38265192Y-57860478D01*
X38194604Y-57754836D01*
X38194601Y-57754833D01*
X38173844Y-57734075D01*
X38148434Y-57679581D01*
X38148100Y-57671922D01*
X38148100Y-54072687D01*
X44946200Y-54072687D01*
X44946200Y-54690199D01*
X44946201Y-54690200D01*
X45540988Y-54690200D01*
X45508075Y-54747207D01*
X45474000Y-54874374D01*
X45474000Y-55006026D01*
X45508075Y-55133193D01*
X45540988Y-55190200D01*
X44946202Y-55190200D01*
X44946201Y-55190201D01*
X44946201Y-55807708D01*
X44956516Y-55859575D01*
X44995811Y-55918382D01*
X44995817Y-55918388D01*
X45054624Y-55957683D01*
X45106487Y-55967999D01*
X45723998Y-55967999D01*
X45724000Y-55967998D01*
X45724000Y-55373212D01*
X45781007Y-55406125D01*
X45908174Y-55440200D01*
X46039826Y-55440200D01*
X46166993Y-55406125D01*
X46224000Y-55373212D01*
X46224000Y-55967998D01*
X46224001Y-55967999D01*
X46841509Y-55967999D01*
X46893375Y-55957683D01*
X46952182Y-55918388D01*
X46952188Y-55918382D01*
X46991483Y-55859575D01*
X47001800Y-55807712D01*
X47001800Y-55190201D01*
X47001799Y-55190200D01*
X46407012Y-55190200D01*
X46439925Y-55133193D01*
X46474000Y-55006026D01*
X46474000Y-54874374D01*
X46463915Y-54836736D01*
X47463500Y-54836736D01*
X47463500Y-55043663D01*
X47503867Y-55246611D01*
X47503869Y-55246616D01*
X47503870Y-55246620D01*
X47583059Y-55437798D01*
X47583060Y-55437800D01*
X47583061Y-55437801D01*
X47698019Y-55609850D01*
X47698020Y-55609851D01*
X47698023Y-55609855D01*
X47844345Y-55756177D01*
X47844348Y-55756179D01*
X47844349Y-55756180D01*
X47881699Y-55781136D01*
X48016402Y-55871141D01*
X48207580Y-55950330D01*
X48207585Y-55950331D01*
X48207588Y-55950332D01*
X48310432Y-55970788D01*
X48410535Y-55990700D01*
X48410537Y-55990700D01*
X48617463Y-55990700D01*
X48617465Y-55990700D01*
X48792825Y-55955819D01*
X48820411Y-55950332D01*
X48820412Y-55950331D01*
X48820420Y-55950330D01*
X49011598Y-55871141D01*
X49183655Y-55756177D01*
X49329977Y-55609855D01*
X49444941Y-55437798D01*
X49524130Y-55246620D01*
X49564500Y-55043665D01*
X49564500Y-54836735D01*
X49535353Y-54690200D01*
X49524132Y-54633788D01*
X49524131Y-54633785D01*
X49524130Y-54633780D01*
X49444941Y-54442602D01*
X49329977Y-54270545D01*
X49183655Y-54124223D01*
X49183651Y-54124220D01*
X49183650Y-54124219D01*
X49011601Y-54009261D01*
X49011600Y-54009260D01*
X49011598Y-54009259D01*
X48820420Y-53930070D01*
X48820416Y-53930069D01*
X48820411Y-53930067D01*
X48667684Y-53899689D01*
X48617465Y-53889700D01*
X48410535Y-53889700D01*
X48365844Y-53898589D01*
X48207588Y-53930067D01*
X48207583Y-53930069D01*
X48207581Y-53930069D01*
X48207580Y-53930070D01*
X48016402Y-54009259D01*
X48016400Y-54009259D01*
X48016398Y-54009261D01*
X47844349Y-54124219D01*
X47698019Y-54270549D01*
X47583061Y-54442598D01*
X47583059Y-54442600D01*
X47583059Y-54442602D01*
X47535322Y-54557849D01*
X47503869Y-54633783D01*
X47503867Y-54633788D01*
X47463500Y-54836736D01*
X46463915Y-54836736D01*
X46439925Y-54747207D01*
X46407012Y-54690200D01*
X47001798Y-54690200D01*
X47001799Y-54690199D01*
X47001799Y-54072691D01*
X46991483Y-54020824D01*
X46952188Y-53962017D01*
X46952182Y-53962011D01*
X46893375Y-53922716D01*
X46841513Y-53912400D01*
X46224001Y-53912400D01*
X46224000Y-53912401D01*
X46224000Y-54507188D01*
X46166993Y-54474275D01*
X46039826Y-54440200D01*
X45908174Y-54440200D01*
X45781007Y-54474275D01*
X45724000Y-54507188D01*
X45724000Y-53912401D01*
X45723999Y-53912400D01*
X45106486Y-53912400D01*
X45106484Y-53912401D01*
X45054628Y-53922714D01*
X45054624Y-53922716D01*
X44995817Y-53962011D01*
X44995811Y-53962017D01*
X44956516Y-54020824D01*
X44946200Y-54072687D01*
X38148100Y-54072687D01*
X38148100Y-51380269D01*
X38168665Y-51323768D01*
X38173834Y-51318125D01*
X41261272Y-48230687D01*
X44986600Y-48230687D01*
X44986600Y-48848199D01*
X44986601Y-48848200D01*
X45581388Y-48848200D01*
X45548475Y-48905207D01*
X45514400Y-49032374D01*
X45514400Y-49164026D01*
X45548475Y-49291193D01*
X45581388Y-49348200D01*
X44986602Y-49348200D01*
X44986601Y-49348201D01*
X44986601Y-49965708D01*
X44996916Y-50017575D01*
X45036211Y-50076382D01*
X45036217Y-50076388D01*
X45095024Y-50115683D01*
X45146887Y-50125999D01*
X45764398Y-50125999D01*
X45764400Y-50125998D01*
X45764400Y-49531212D01*
X45821407Y-49564125D01*
X45948574Y-49598200D01*
X46080226Y-49598200D01*
X46207393Y-49564125D01*
X46264400Y-49531212D01*
X46264400Y-50125998D01*
X46264401Y-50125999D01*
X46881909Y-50125999D01*
X46933775Y-50115683D01*
X46992582Y-50076388D01*
X46992588Y-50076382D01*
X47031883Y-50017575D01*
X47042200Y-49965712D01*
X47042200Y-49348201D01*
X47042199Y-49348200D01*
X46447412Y-49348200D01*
X46480325Y-49291193D01*
X46514400Y-49164026D01*
X46514400Y-49032374D01*
X46504315Y-48994736D01*
X47503900Y-48994736D01*
X47503900Y-49201663D01*
X47544267Y-49404611D01*
X47544269Y-49404616D01*
X47544270Y-49404620D01*
X47623459Y-49595798D01*
X47623460Y-49595800D01*
X47623461Y-49595801D01*
X47738419Y-49767850D01*
X47738420Y-49767851D01*
X47738423Y-49767855D01*
X47884745Y-49914177D01*
X47884748Y-49914179D01*
X47884749Y-49914180D01*
X47934678Y-49947541D01*
X48056802Y-50029141D01*
X48247980Y-50108330D01*
X48247985Y-50108331D01*
X48247988Y-50108332D01*
X48350832Y-50128788D01*
X48450935Y-50148700D01*
X48450937Y-50148700D01*
X48657863Y-50148700D01*
X48657865Y-50148700D01*
X48823854Y-50115683D01*
X48860811Y-50108332D01*
X48860812Y-50108331D01*
X48860820Y-50108330D01*
X49051998Y-50029141D01*
X49224055Y-49914177D01*
X49370377Y-49767855D01*
X49485341Y-49595798D01*
X49564530Y-49404620D01*
X49604900Y-49201665D01*
X49604900Y-48994735D01*
X49575753Y-48848200D01*
X49564532Y-48791788D01*
X49564531Y-48791785D01*
X49564530Y-48791780D01*
X49485341Y-48600602D01*
X49370377Y-48428545D01*
X49224055Y-48282223D01*
X49224051Y-48282220D01*
X49224050Y-48282219D01*
X49052001Y-48167261D01*
X49052000Y-48167260D01*
X49051998Y-48167259D01*
X48860820Y-48088070D01*
X48860816Y-48088069D01*
X48860811Y-48088067D01*
X48708084Y-48057689D01*
X48657865Y-48047700D01*
X48450935Y-48047700D01*
X48406244Y-48056589D01*
X48247988Y-48088067D01*
X48247983Y-48088069D01*
X48247981Y-48088069D01*
X48247980Y-48088070D01*
X48056802Y-48167259D01*
X48056800Y-48167259D01*
X48056798Y-48167261D01*
X47884749Y-48282219D01*
X47738419Y-48428549D01*
X47623461Y-48600598D01*
X47623459Y-48600600D01*
X47623459Y-48600602D01*
X47544513Y-48791193D01*
X47544269Y-48791783D01*
X47544267Y-48791788D01*
X47503900Y-48994736D01*
X46504315Y-48994736D01*
X46480325Y-48905207D01*
X46447412Y-48848200D01*
X47042198Y-48848200D01*
X47042199Y-48848199D01*
X47042199Y-48230691D01*
X47031883Y-48178824D01*
X46992588Y-48120017D01*
X46992582Y-48120011D01*
X46933775Y-48080716D01*
X46881913Y-48070400D01*
X46264401Y-48070400D01*
X46264400Y-48070401D01*
X46264400Y-48665188D01*
X46207393Y-48632275D01*
X46080226Y-48598200D01*
X45948574Y-48598200D01*
X45821407Y-48632275D01*
X45764400Y-48665188D01*
X45764400Y-48070401D01*
X45764399Y-48070400D01*
X45146886Y-48070400D01*
X45146884Y-48070401D01*
X45095028Y-48080714D01*
X45095024Y-48080716D01*
X45036217Y-48120011D01*
X45036211Y-48120017D01*
X44996916Y-48178824D01*
X44986600Y-48230687D01*
X41261272Y-48230687D01*
X44671032Y-44820926D01*
X44671037Y-44820923D01*
X44678268Y-44813691D01*
X44678270Y-44813691D01*
X44762891Y-44729070D01*
X44822727Y-44625431D01*
X44853700Y-44509836D01*
X44853700Y-42658077D01*
X44874265Y-42601576D01*
X44879434Y-42595933D01*
X44900204Y-42575164D01*
X44970792Y-42469522D01*
X45019413Y-42352140D01*
X45044200Y-42227527D01*
X45044200Y-42100473D01*
X45019413Y-41975860D01*
X44970792Y-41858478D01*
X44900204Y-41752836D01*
X44810364Y-41662996D01*
X44704722Y-41592408D01*
X44704721Y-41592407D01*
X44704719Y-41592406D01*
X44587340Y-41543787D01*
X44587336Y-41543785D01*
X44493666Y-41525154D01*
X44462727Y-41519000D01*
X44335673Y-41519000D01*
X44308150Y-41524474D01*
X44211063Y-41543785D01*
X44211059Y-41543787D01*
X44093680Y-41592406D01*
X43988038Y-41662994D01*
X43898194Y-41752838D01*
X43827606Y-41858480D01*
X43778987Y-41975859D01*
X43778985Y-41975863D01*
X43754200Y-42100474D01*
X43754200Y-42227525D01*
X43778985Y-42352136D01*
X43778987Y-42352140D01*
X43827606Y-42469519D01*
X43827607Y-42469521D01*
X43827608Y-42469522D01*
X43898196Y-42575164D01*
X43918955Y-42595923D01*
X43944366Y-42650416D01*
X43944700Y-42658077D01*
X43944700Y-44225329D01*
X43924135Y-44281830D01*
X43918955Y-44287484D01*
X37329910Y-50876528D01*
X37270073Y-50980169D01*
X37270073Y-50980170D01*
X37239099Y-51095764D01*
X37239099Y-51222515D01*
X37239100Y-51222528D01*
X37239100Y-57671922D01*
X37218535Y-57728423D01*
X37213356Y-57734075D01*
X37192595Y-57754836D01*
X37122006Y-57860480D01*
X37073387Y-57977859D01*
X37073385Y-57977863D01*
X37048600Y-58102474D01*
X28521500Y-58102474D01*
X28521500Y-56355480D01*
X28542065Y-56298979D01*
X28547245Y-56293325D01*
X29013725Y-55826845D01*
X29068219Y-55801434D01*
X29075880Y-55801100D01*
X29094796Y-55801100D01*
X29094798Y-55801100D01*
X29216537Y-55776884D01*
X29280742Y-55764114D01*
X29280743Y-55764113D01*
X29280751Y-55764112D01*
X29455915Y-55691556D01*
X29613558Y-55586222D01*
X29747622Y-55452158D01*
X29852956Y-55294515D01*
X29925512Y-55119351D01*
X29962500Y-54933398D01*
X29962500Y-54845080D01*
X29983065Y-54788579D01*
X29988234Y-54782936D01*
X37329528Y-47441643D01*
X37407065Y-47325601D01*
X37460473Y-47196661D01*
X37487700Y-47059782D01*
X37487700Y-46920219D01*
X37487700Y-40804000D01*
X37508265Y-40747499D01*
X37560336Y-40717435D01*
X37575600Y-40716100D01*
X54180058Y-40716100D01*
X54236559Y-40736665D01*
X54242212Y-40741845D01*
X54303713Y-40803345D01*
X54321345Y-40820977D01*
X54493402Y-40935941D01*
X54684580Y-41015130D01*
X54684585Y-41015131D01*
X54684588Y-41015132D01*
X54787432Y-41035588D01*
X54887535Y-41055500D01*
X54887537Y-41055500D01*
X55094463Y-41055500D01*
X55094465Y-41055500D01*
X55227336Y-41029070D01*
X55297411Y-41015132D01*
X55297412Y-41015131D01*
X55297420Y-41015130D01*
X55488598Y-40935941D01*
X55660655Y-40820977D01*
X55806977Y-40674655D01*
X55921941Y-40502598D01*
X56001130Y-40311420D01*
X56041500Y-40108465D01*
X56041500Y-39901535D01*
X56012353Y-39755000D01*
X56532792Y-39755000D01*
X57097988Y-39755000D01*
X57065075Y-39812007D01*
X57031000Y-39939174D01*
X57031000Y-40070826D01*
X57065075Y-40197993D01*
X57097988Y-40255000D01*
X56532793Y-40255000D01*
X56542695Y-40304789D01*
X56542700Y-40304803D01*
X56620177Y-40491846D01*
X56732654Y-40660181D01*
X56875818Y-40803345D01*
X57044153Y-40915822D01*
X57231196Y-40993299D01*
X57231210Y-40993304D01*
X57281000Y-41003207D01*
X57281000Y-40438012D01*
X57338007Y-40470925D01*
X57465174Y-40505000D01*
X57596826Y-40505000D01*
X57723993Y-40470925D01*
X57781000Y-40438012D01*
X57781000Y-41003206D01*
X57830789Y-40993304D01*
X57830803Y-40993299D01*
X58017846Y-40915822D01*
X58186181Y-40803345D01*
X58329345Y-40660181D01*
X58441822Y-40491846D01*
X58519299Y-40304803D01*
X58519304Y-40304789D01*
X58529207Y-40255000D01*
X57964012Y-40255000D01*
X57996925Y-40197993D01*
X58031000Y-40070826D01*
X58031000Y-39939174D01*
X57996925Y-39812007D01*
X57964012Y-39755000D01*
X58529207Y-39755000D01*
X58519304Y-39705210D01*
X58519299Y-39705196D01*
X58441822Y-39518153D01*
X58329345Y-39349818D01*
X58186181Y-39206654D01*
X58017847Y-39094177D01*
X57830804Y-39016701D01*
X57830795Y-39016698D01*
X57781000Y-39006792D01*
X57781000Y-39571988D01*
X57723993Y-39539075D01*
X57596826Y-39505000D01*
X57465174Y-39505000D01*
X57338007Y-39539075D01*
X57281000Y-39571988D01*
X57281000Y-39006792D01*
X57231204Y-39016698D01*
X57231195Y-39016701D01*
X57044152Y-39094177D01*
X56875818Y-39206654D01*
X56732654Y-39349818D01*
X56620177Y-39518153D01*
X56542700Y-39705196D01*
X56542695Y-39705210D01*
X56532792Y-39755000D01*
X56012353Y-39755000D01*
X56001132Y-39698588D01*
X56001131Y-39698585D01*
X56001130Y-39698580D01*
X55921941Y-39507402D01*
X55864459Y-39421373D01*
X55806980Y-39335349D01*
X55806979Y-39335348D01*
X55806977Y-39335345D01*
X55660655Y-39189023D01*
X55660651Y-39189020D01*
X55660650Y-39189019D01*
X55488601Y-39074061D01*
X55488600Y-39074060D01*
X55488598Y-39074059D01*
X55297420Y-38994870D01*
X55297416Y-38994869D01*
X55297411Y-38994867D01*
X55144684Y-38964489D01*
X55094465Y-38954500D01*
X54887535Y-38954500D01*
X54842844Y-38963389D01*
X54684588Y-38994867D01*
X54684583Y-38994869D01*
X54684581Y-38994869D01*
X54684580Y-38994870D01*
X54493402Y-39074059D01*
X54493400Y-39074059D01*
X54493398Y-39074061D01*
X54321349Y-39189019D01*
X54321343Y-39189024D01*
X54237012Y-39273355D01*
X54182518Y-39298766D01*
X54174858Y-39299100D01*
X37575600Y-39299100D01*
X37519099Y-39278535D01*
X37489035Y-39226464D01*
X37487700Y-39211200D01*
X37487700Y-37757074D01*
X43754200Y-37757074D01*
X43754200Y-37884125D01*
X43778985Y-38008736D01*
X43778987Y-38008740D01*
X43827606Y-38126119D01*
X43827607Y-38126121D01*
X43827608Y-38126122D01*
X43898196Y-38231764D01*
X43988036Y-38321604D01*
X44093678Y-38392192D01*
X44093679Y-38392192D01*
X44093680Y-38392193D01*
X44102729Y-38395941D01*
X44211060Y-38440813D01*
X44211061Y-38440813D01*
X44211063Y-38440814D01*
X44273792Y-38453291D01*
X44335673Y-38465600D01*
X44335675Y-38465600D01*
X44462725Y-38465600D01*
X44462727Y-38465600D01*
X44545048Y-38449225D01*
X44587336Y-38440814D01*
X44587336Y-38440813D01*
X44587340Y-38440813D01*
X44704722Y-38392192D01*
X44810364Y-38321604D01*
X44900204Y-38231764D01*
X44970792Y-38126122D01*
X45019413Y-38008740D01*
X45044200Y-37884127D01*
X45044200Y-37854769D01*
X45064765Y-37798268D01*
X45069934Y-37792625D01*
X46267306Y-36595253D01*
X53940500Y-36595253D01*
X53940500Y-38334746D01*
X53952133Y-38393232D01*
X53983927Y-38440814D01*
X53996448Y-38459552D01*
X53996451Y-38459554D01*
X54062767Y-38503866D01*
X54062769Y-38503867D01*
X54121252Y-38515500D01*
X54121254Y-38515500D01*
X55860746Y-38515500D01*
X55860748Y-38515500D01*
X55919231Y-38503867D01*
X55985552Y-38459552D01*
X56029867Y-38393231D01*
X56041500Y-38334748D01*
X56041500Y-37361536D01*
X56480500Y-37361536D01*
X56480500Y-37568463D01*
X56520867Y-37771411D01*
X56520869Y-37771416D01*
X56520870Y-37771420D01*
X56600059Y-37962598D01*
X56600060Y-37962600D01*
X56600061Y-37962601D01*
X56715019Y-38134650D01*
X56715020Y-38134651D01*
X56715023Y-38134655D01*
X56861345Y-38280977D01*
X56861348Y-38280979D01*
X56861349Y-38280980D01*
X56941817Y-38334746D01*
X57033402Y-38395941D01*
X57224580Y-38475130D01*
X57224585Y-38475131D01*
X57224588Y-38475132D01*
X57327432Y-38495588D01*
X57427535Y-38515500D01*
X57427537Y-38515500D01*
X57634463Y-38515500D01*
X57634465Y-38515500D01*
X57767336Y-38489070D01*
X57837411Y-38475132D01*
X57837412Y-38475131D01*
X57837420Y-38475130D01*
X58028598Y-38395941D01*
X58200655Y-38280977D01*
X58346977Y-38134655D01*
X58461941Y-37962598D01*
X58541130Y-37771420D01*
X58581500Y-37568465D01*
X58581500Y-37361535D01*
X58549446Y-37200387D01*
X58541132Y-37158588D01*
X58541131Y-37158585D01*
X58541130Y-37158580D01*
X58461941Y-36967402D01*
X58346977Y-36795345D01*
X58200655Y-36649023D01*
X58200651Y-36649020D01*
X58200650Y-36649019D01*
X58028601Y-36534061D01*
X58028600Y-36534060D01*
X58028598Y-36534059D01*
X57837420Y-36454870D01*
X57837416Y-36454869D01*
X57837411Y-36454867D01*
X57684684Y-36424489D01*
X57634465Y-36414500D01*
X57427535Y-36414500D01*
X57382844Y-36423389D01*
X57224588Y-36454867D01*
X57224583Y-36454869D01*
X57224581Y-36454869D01*
X57224580Y-36454870D01*
X57033402Y-36534059D01*
X57033400Y-36534059D01*
X57033398Y-36534061D01*
X56861349Y-36649019D01*
X56715019Y-36795349D01*
X56600061Y-36967398D01*
X56520869Y-37158583D01*
X56520867Y-37158588D01*
X56480500Y-37361536D01*
X56041500Y-37361536D01*
X56041500Y-36595252D01*
X56029867Y-36536769D01*
X56028056Y-36534059D01*
X55985554Y-36470451D01*
X55985552Y-36470448D01*
X55985548Y-36470445D01*
X55919232Y-36426133D01*
X55899736Y-36422255D01*
X55860748Y-36414500D01*
X54121252Y-36414500D01*
X54092010Y-36420316D01*
X54062767Y-36426133D01*
X53996451Y-36470445D01*
X53996445Y-36470451D01*
X53952133Y-36536767D01*
X53940500Y-36595253D01*
X46267306Y-36595253D01*
X52155823Y-30706735D01*
X53889700Y-30706735D01*
X53889700Y-30913665D01*
X53894110Y-30935835D01*
X53930067Y-31116611D01*
X53930069Y-31116616D01*
X53930070Y-31116620D01*
X54009259Y-31307798D01*
X54009260Y-31307800D01*
X54009261Y-31307801D01*
X54124219Y-31479850D01*
X54124220Y-31479851D01*
X54124223Y-31479855D01*
X54270545Y-31626177D01*
X54442602Y-31741141D01*
X54633780Y-31820330D01*
X54633785Y-31820331D01*
X54633788Y-31820332D01*
X54736632Y-31840788D01*
X54836735Y-31860700D01*
X54836737Y-31860700D01*
X55043663Y-31860700D01*
X55043665Y-31860700D01*
X55176536Y-31834270D01*
X55246611Y-31820332D01*
X55246612Y-31820331D01*
X55246620Y-31820330D01*
X55437798Y-31741141D01*
X55609855Y-31626177D01*
X55756177Y-31479855D01*
X55871141Y-31307798D01*
X55950330Y-31116620D01*
X55990700Y-30913665D01*
X55990700Y-30706735D01*
X56429700Y-30706735D01*
X56429700Y-30913665D01*
X56434110Y-30935835D01*
X56470067Y-31116611D01*
X56470069Y-31116616D01*
X56470070Y-31116620D01*
X56549259Y-31307798D01*
X56549260Y-31307800D01*
X56549261Y-31307801D01*
X56664219Y-31479850D01*
X56664220Y-31479851D01*
X56664223Y-31479855D01*
X56810545Y-31626177D01*
X56982602Y-31741141D01*
X57173780Y-31820330D01*
X57173785Y-31820331D01*
X57173788Y-31820332D01*
X57276632Y-31840788D01*
X57376735Y-31860700D01*
X57376737Y-31860700D01*
X57583663Y-31860700D01*
X57583665Y-31860700D01*
X57716536Y-31834270D01*
X57786611Y-31820332D01*
X57786612Y-31820331D01*
X57786620Y-31820330D01*
X57977798Y-31741141D01*
X58149855Y-31626177D01*
X58296177Y-31479855D01*
X58411141Y-31307798D01*
X58490330Y-31116620D01*
X58530700Y-30913665D01*
X58530700Y-30706735D01*
X58490921Y-30506750D01*
X58490332Y-30503788D01*
X58490331Y-30503785D01*
X58490330Y-30503780D01*
X58411141Y-30312602D01*
X58296177Y-30140545D01*
X58149855Y-29994223D01*
X58149851Y-29994220D01*
X58149850Y-29994219D01*
X57977801Y-29879261D01*
X57977800Y-29879260D01*
X57977798Y-29879259D01*
X57786620Y-29800070D01*
X57786616Y-29800069D01*
X57786611Y-29800067D01*
X57633884Y-29769689D01*
X57583665Y-29759700D01*
X57376735Y-29759700D01*
X57332044Y-29768589D01*
X57173788Y-29800067D01*
X57173783Y-29800069D01*
X57173781Y-29800069D01*
X57173780Y-29800070D01*
X56982602Y-29879259D01*
X56982600Y-29879259D01*
X56982598Y-29879261D01*
X56810549Y-29994219D01*
X56664219Y-30140549D01*
X56549261Y-30312598D01*
X56470069Y-30503783D01*
X56470067Y-30503788D01*
X56442922Y-30640262D01*
X56429700Y-30706735D01*
X55990700Y-30706735D01*
X55950921Y-30506750D01*
X55950332Y-30503788D01*
X55950331Y-30503785D01*
X55950330Y-30503780D01*
X55871141Y-30312602D01*
X55756177Y-30140545D01*
X55609855Y-29994223D01*
X55609851Y-29994220D01*
X55609850Y-29994219D01*
X55437801Y-29879261D01*
X55437800Y-29879260D01*
X55437798Y-29879259D01*
X55246620Y-29800070D01*
X55246616Y-29800069D01*
X55246611Y-29800067D01*
X55093884Y-29769689D01*
X55043665Y-29759700D01*
X54836735Y-29759700D01*
X54792044Y-29768589D01*
X54633788Y-29800067D01*
X54633783Y-29800069D01*
X54633781Y-29800069D01*
X54633780Y-29800070D01*
X54442602Y-29879259D01*
X54442600Y-29879259D01*
X54442598Y-29879261D01*
X54270549Y-29994219D01*
X54124219Y-30140549D01*
X54009261Y-30312598D01*
X53930069Y-30503783D01*
X53930067Y-30503788D01*
X53902922Y-30640262D01*
X53889700Y-30706735D01*
X52155823Y-30706735D01*
X53967771Y-28894787D01*
X54022264Y-28869377D01*
X54080342Y-28884940D01*
X54103009Y-28908106D01*
X54124223Y-28939855D01*
X54270545Y-29086177D01*
X54442602Y-29201141D01*
X54633780Y-29280330D01*
X54633785Y-29280331D01*
X54633788Y-29280332D01*
X54735107Y-29300485D01*
X54836735Y-29320700D01*
X54836737Y-29320700D01*
X55043663Y-29320700D01*
X55043665Y-29320700D01*
X55176536Y-29294270D01*
X55246611Y-29280332D01*
X55246612Y-29280331D01*
X55246620Y-29280330D01*
X55437798Y-29201141D01*
X55609855Y-29086177D01*
X55756177Y-28939855D01*
X55871141Y-28767798D01*
X55950330Y-28576620D01*
X55990700Y-28373665D01*
X55990700Y-28166735D01*
X55961553Y-28020200D01*
X56481992Y-28020200D01*
X57047188Y-28020200D01*
X57014275Y-28077207D01*
X56980200Y-28204374D01*
X56980200Y-28336026D01*
X57014275Y-28463193D01*
X57047188Y-28520200D01*
X56481993Y-28520200D01*
X56491895Y-28569989D01*
X56491900Y-28570003D01*
X56569377Y-28757046D01*
X56681854Y-28925381D01*
X56825018Y-29068545D01*
X56993353Y-29181022D01*
X57180396Y-29258499D01*
X57180410Y-29258504D01*
X57230200Y-29268407D01*
X57230200Y-28703212D01*
X57287207Y-28736125D01*
X57414374Y-28770200D01*
X57546026Y-28770200D01*
X57673193Y-28736125D01*
X57730200Y-28703212D01*
X57730200Y-29268406D01*
X57779989Y-29258504D01*
X57780003Y-29258499D01*
X57967046Y-29181022D01*
X58135381Y-29068545D01*
X58278545Y-28925381D01*
X58391022Y-28757046D01*
X58468499Y-28570003D01*
X58468504Y-28569989D01*
X58478407Y-28520200D01*
X57913212Y-28520200D01*
X57946125Y-28463193D01*
X57980200Y-28336026D01*
X57980200Y-28204374D01*
X57946125Y-28077207D01*
X57913212Y-28020200D01*
X58478407Y-28020200D01*
X58468504Y-27970410D01*
X58468499Y-27970396D01*
X58391022Y-27783353D01*
X58278545Y-27615018D01*
X58135381Y-27471854D01*
X57967047Y-27359377D01*
X57780004Y-27281901D01*
X57779995Y-27281898D01*
X57730200Y-27271992D01*
X57730200Y-27837188D01*
X57673193Y-27804275D01*
X57546026Y-27770200D01*
X57414374Y-27770200D01*
X57287207Y-27804275D01*
X57230200Y-27837188D01*
X57230200Y-27271992D01*
X57180404Y-27281898D01*
X57180395Y-27281901D01*
X56993352Y-27359377D01*
X56825018Y-27471854D01*
X56681854Y-27615018D01*
X56569377Y-27783353D01*
X56491900Y-27970396D01*
X56491895Y-27970410D01*
X56481992Y-28020200D01*
X55961553Y-28020200D01*
X55950332Y-27963788D01*
X55950331Y-27963785D01*
X55950330Y-27963780D01*
X55871141Y-27772602D01*
X55813659Y-27686573D01*
X55756180Y-27600549D01*
X55756179Y-27600548D01*
X55756177Y-27600545D01*
X55609855Y-27454223D01*
X55609851Y-27454220D01*
X55609850Y-27454219D01*
X55437801Y-27339261D01*
X55437800Y-27339260D01*
X55437798Y-27339259D01*
X55246620Y-27260070D01*
X55246616Y-27260069D01*
X55246611Y-27260067D01*
X55093884Y-27229689D01*
X55043665Y-27219700D01*
X54836735Y-27219700D01*
X54792044Y-27228589D01*
X54633788Y-27260067D01*
X54633783Y-27260069D01*
X54633781Y-27260069D01*
X54633780Y-27260070D01*
X54442602Y-27339259D01*
X54442600Y-27339259D01*
X54442598Y-27339261D01*
X54270549Y-27454219D01*
X54124219Y-27600549D01*
X54006860Y-27776192D01*
X54004828Y-27774834D01*
X53966248Y-27809386D01*
X53933538Y-27815699D01*
X53889764Y-27815699D01*
X53858791Y-27823998D01*
X53774170Y-27846672D01*
X53670528Y-27906510D01*
X53585907Y-27991132D01*
X44427185Y-37149855D01*
X44372691Y-37175266D01*
X44365030Y-37175600D01*
X44335673Y-37175600D01*
X44308150Y-37181074D01*
X44211063Y-37200385D01*
X44211059Y-37200387D01*
X44093680Y-37249006D01*
X43988038Y-37319594D01*
X43898194Y-37409438D01*
X43827606Y-37515080D01*
X43778987Y-37632459D01*
X43778985Y-37632463D01*
X43754200Y-37757074D01*
X37487700Y-37757074D01*
X37487700Y-35104455D01*
X37494391Y-35070818D01*
X37496944Y-35064653D01*
X37511273Y-35030061D01*
X37538500Y-34893182D01*
X37538500Y-34753618D01*
X37538500Y-33997874D01*
X42468200Y-33997874D01*
X42468200Y-34124925D01*
X42492985Y-34249536D01*
X42492987Y-34249540D01*
X42541606Y-34366919D01*
X42541607Y-34366921D01*
X42541608Y-34366922D01*
X42612196Y-34472564D01*
X42702036Y-34562404D01*
X42807678Y-34632992D01*
X42925060Y-34681613D01*
X42925061Y-34681613D01*
X42925063Y-34681614D01*
X42987792Y-34694091D01*
X43049673Y-34706400D01*
X43049675Y-34706400D01*
X43176725Y-34706400D01*
X43176727Y-34706400D01*
X43259048Y-34690025D01*
X43301336Y-34681614D01*
X43301336Y-34681613D01*
X43301340Y-34681613D01*
X43418722Y-34632992D01*
X43524364Y-34562404D01*
X43614204Y-34472564D01*
X43684792Y-34366922D01*
X43733413Y-34249540D01*
X43758200Y-34124927D01*
X43758200Y-34095570D01*
X43778765Y-34039069D01*
X43783945Y-34033415D01*
X51581515Y-26235845D01*
X51636009Y-26210434D01*
X51643670Y-26210100D01*
X53950450Y-26210100D01*
X54006951Y-26230665D01*
X54023536Y-26249166D01*
X54124219Y-26399850D01*
X54124220Y-26399851D01*
X54124223Y-26399855D01*
X54270545Y-26546177D01*
X54442602Y-26661141D01*
X54633780Y-26740330D01*
X54633785Y-26740331D01*
X54633788Y-26740332D01*
X54736632Y-26760788D01*
X54836735Y-26780700D01*
X54836737Y-26780700D01*
X55043663Y-26780700D01*
X55043665Y-26780700D01*
X55176536Y-26754270D01*
X55246611Y-26740332D01*
X55246612Y-26740331D01*
X55246620Y-26740330D01*
X55437798Y-26661141D01*
X55609855Y-26546177D01*
X55756177Y-26399855D01*
X55871141Y-26227798D01*
X55950330Y-26036620D01*
X55990700Y-25833665D01*
X55990700Y-25626735D01*
X55961553Y-25480200D01*
X56481992Y-25480200D01*
X57047188Y-25480200D01*
X57014275Y-25537207D01*
X56980200Y-25664374D01*
X56980200Y-25796026D01*
X57014275Y-25923193D01*
X57047188Y-25980200D01*
X56481993Y-25980200D01*
X56491895Y-26029989D01*
X56491900Y-26030003D01*
X56569377Y-26217046D01*
X56681854Y-26385381D01*
X56825018Y-26528545D01*
X56993353Y-26641022D01*
X57180396Y-26718499D01*
X57180410Y-26718504D01*
X57230200Y-26728407D01*
X57230200Y-26163212D01*
X57287207Y-26196125D01*
X57414374Y-26230200D01*
X57546026Y-26230200D01*
X57673193Y-26196125D01*
X57730200Y-26163212D01*
X57730200Y-26728406D01*
X57779989Y-26718504D01*
X57780003Y-26718499D01*
X57967046Y-26641022D01*
X58135381Y-26528545D01*
X58278545Y-26385381D01*
X58391022Y-26217046D01*
X58468499Y-26030003D01*
X58468504Y-26029989D01*
X58478407Y-25980200D01*
X57913212Y-25980200D01*
X57946125Y-25923193D01*
X57980200Y-25796026D01*
X57980200Y-25664374D01*
X57946125Y-25537207D01*
X57913212Y-25480200D01*
X58478407Y-25480200D01*
X58468504Y-25430410D01*
X58468499Y-25430396D01*
X58391022Y-25243353D01*
X58278545Y-25075018D01*
X58135381Y-24931854D01*
X57967047Y-24819377D01*
X57780004Y-24741901D01*
X57779995Y-24741898D01*
X57730200Y-24731992D01*
X57730200Y-25297188D01*
X57673193Y-25264275D01*
X57546026Y-25230200D01*
X57414374Y-25230200D01*
X57287207Y-25264275D01*
X57230200Y-25297188D01*
X57230200Y-24731992D01*
X57180404Y-24741898D01*
X57180395Y-24741901D01*
X56993352Y-24819377D01*
X56825018Y-24931854D01*
X56681854Y-25075018D01*
X56569377Y-25243353D01*
X56491900Y-25430396D01*
X56491895Y-25430410D01*
X56481992Y-25480200D01*
X55961553Y-25480200D01*
X55950332Y-25423788D01*
X55950331Y-25423785D01*
X55950330Y-25423780D01*
X55871141Y-25232602D01*
X55813659Y-25146573D01*
X55756180Y-25060549D01*
X55756179Y-25060548D01*
X55756177Y-25060545D01*
X55609855Y-24914223D01*
X55609851Y-24914220D01*
X55609850Y-24914219D01*
X55437801Y-24799261D01*
X55437800Y-24799260D01*
X55437798Y-24799259D01*
X55246620Y-24720070D01*
X55246616Y-24720069D01*
X55246611Y-24720067D01*
X55093884Y-24689689D01*
X55043665Y-24679700D01*
X54836735Y-24679700D01*
X54792044Y-24688589D01*
X54633788Y-24720067D01*
X54633783Y-24720069D01*
X54633781Y-24720069D01*
X54633780Y-24720070D01*
X54442602Y-24799259D01*
X54442600Y-24799259D01*
X54442598Y-24799261D01*
X54270549Y-24914219D01*
X54124219Y-25060549D01*
X54009261Y-25232598D01*
X54009259Y-25232600D01*
X54009259Y-25232602D01*
X54003361Y-25246839D01*
X53962742Y-25291168D01*
X53922154Y-25301100D01*
X51484234Y-25301100D01*
X51484218Y-25301099D01*
X51478836Y-25301099D01*
X51359164Y-25301099D01*
X51267999Y-25325525D01*
X51268000Y-25325526D01*
X51243569Y-25332073D01*
X51243568Y-25332073D01*
X51139928Y-25391910D01*
X51055307Y-25476532D01*
X43141185Y-33390655D01*
X43086691Y-33416066D01*
X43079030Y-33416400D01*
X43049673Y-33416400D01*
X43022150Y-33421874D01*
X42925063Y-33441185D01*
X42925059Y-33441187D01*
X42807680Y-33489806D01*
X42702038Y-33560394D01*
X42612194Y-33650238D01*
X42541606Y-33755880D01*
X42492987Y-33873259D01*
X42492985Y-33873263D01*
X42468200Y-33997874D01*
X37538500Y-33997874D01*
X37538500Y-23482274D01*
X44770200Y-23482274D01*
X44770200Y-23609325D01*
X44794985Y-23733936D01*
X44794987Y-23733940D01*
X44843606Y-23851319D01*
X44843607Y-23851321D01*
X44843608Y-23851322D01*
X44914196Y-23956964D01*
X45004036Y-24046804D01*
X45109678Y-24117392D01*
X45109679Y-24117392D01*
X45109680Y-24117393D01*
X45118729Y-24121141D01*
X45227060Y-24166013D01*
X45227061Y-24166013D01*
X45227063Y-24166014D01*
X45289792Y-24178491D01*
X45351673Y-24190800D01*
X45351675Y-24190800D01*
X45478725Y-24190800D01*
X45478727Y-24190800D01*
X45561048Y-24174425D01*
X45603336Y-24166014D01*
X45603336Y-24166013D01*
X45603340Y-24166013D01*
X45720722Y-24117392D01*
X45826364Y-24046804D01*
X45849445Y-24023723D01*
X45872524Y-24000645D01*
X45927018Y-23975234D01*
X45934678Y-23974900D01*
X52538166Y-23974900D01*
X52538182Y-23974901D01*
X52543564Y-23974901D01*
X52663237Y-23974901D01*
X52663237Y-23974900D01*
X52754398Y-23950473D01*
X52754399Y-23950473D01*
X52757286Y-23949699D01*
X52778831Y-23943927D01*
X52882470Y-23884091D01*
X52967091Y-23799470D01*
X52967091Y-23799468D01*
X52974325Y-23792235D01*
X52974328Y-23792230D01*
X53096115Y-23670445D01*
X53150609Y-23645034D01*
X53158269Y-23644700D01*
X53933538Y-23644700D01*
X53990039Y-23665265D01*
X54005916Y-23684838D01*
X54006860Y-23684208D01*
X54124219Y-23859850D01*
X54124220Y-23859851D01*
X54124223Y-23859855D01*
X54270545Y-24006177D01*
X54270548Y-24006179D01*
X54270549Y-24006180D01*
X54356573Y-24063659D01*
X54442602Y-24121141D01*
X54633780Y-24200330D01*
X54633785Y-24200331D01*
X54633788Y-24200332D01*
X54736632Y-24220788D01*
X54836735Y-24240700D01*
X54836737Y-24240700D01*
X55043663Y-24240700D01*
X55043665Y-24240700D01*
X55176536Y-24214270D01*
X55246611Y-24200332D01*
X55246612Y-24200331D01*
X55246620Y-24200330D01*
X55437798Y-24121141D01*
X55609855Y-24006177D01*
X55756177Y-23859855D01*
X55871141Y-23687798D01*
X55950330Y-23496620D01*
X55990700Y-23293665D01*
X55990700Y-23086735D01*
X55961553Y-22940200D01*
X56481992Y-22940200D01*
X57047188Y-22940200D01*
X57014275Y-22997207D01*
X56980200Y-23124374D01*
X56980200Y-23256026D01*
X57014275Y-23383193D01*
X57047188Y-23440200D01*
X56481993Y-23440200D01*
X56491895Y-23489989D01*
X56491900Y-23490003D01*
X56569377Y-23677046D01*
X56681854Y-23845381D01*
X56825018Y-23988545D01*
X56993353Y-24101022D01*
X57180396Y-24178499D01*
X57180410Y-24178504D01*
X57230200Y-24188407D01*
X57230200Y-23623212D01*
X57287207Y-23656125D01*
X57414374Y-23690200D01*
X57546026Y-23690200D01*
X57673193Y-23656125D01*
X57730200Y-23623212D01*
X57730200Y-24188406D01*
X57779989Y-24178504D01*
X57780003Y-24178499D01*
X57967046Y-24101022D01*
X58135381Y-23988545D01*
X58278545Y-23845381D01*
X58391022Y-23677046D01*
X58468499Y-23490003D01*
X58468504Y-23489989D01*
X58478407Y-23440200D01*
X57913212Y-23440200D01*
X57946125Y-23383193D01*
X57980200Y-23256026D01*
X57980200Y-23124374D01*
X57946125Y-22997207D01*
X57913212Y-22940200D01*
X58478407Y-22940200D01*
X58468504Y-22890410D01*
X58468499Y-22890396D01*
X58391022Y-22703353D01*
X58278545Y-22535018D01*
X58135381Y-22391854D01*
X57967047Y-22279377D01*
X57780004Y-22201901D01*
X57779995Y-22201898D01*
X57730200Y-22191992D01*
X57730200Y-22757188D01*
X57673193Y-22724275D01*
X57546026Y-22690200D01*
X57414374Y-22690200D01*
X57287207Y-22724275D01*
X57230200Y-22757188D01*
X57230200Y-22191992D01*
X57180404Y-22201898D01*
X57180395Y-22201901D01*
X56993352Y-22279377D01*
X56825018Y-22391854D01*
X56681854Y-22535018D01*
X56569377Y-22703353D01*
X56491900Y-22890396D01*
X56491895Y-22890410D01*
X56481992Y-22940200D01*
X55961553Y-22940200D01*
X55950332Y-22883788D01*
X55950331Y-22883785D01*
X55950330Y-22883780D01*
X55871141Y-22692602D01*
X55813659Y-22606573D01*
X55756180Y-22520549D01*
X55756179Y-22520548D01*
X55756177Y-22520545D01*
X55609855Y-22374223D01*
X55609851Y-22374220D01*
X55609850Y-22374219D01*
X55437801Y-22259261D01*
X55437800Y-22259260D01*
X55437798Y-22259259D01*
X55246620Y-22180070D01*
X55246616Y-22180069D01*
X55246611Y-22180067D01*
X55093884Y-22149689D01*
X55043665Y-22139700D01*
X54836735Y-22139700D01*
X54792044Y-22148589D01*
X54633788Y-22180067D01*
X54633783Y-22180069D01*
X54633781Y-22180069D01*
X54633780Y-22180070D01*
X54442602Y-22259259D01*
X54442600Y-22259259D01*
X54442598Y-22259261D01*
X54270549Y-22374219D01*
X54124219Y-22520549D01*
X54006860Y-22696192D01*
X54004811Y-22694823D01*
X53966324Y-22729356D01*
X53933538Y-22735700D01*
X52873764Y-22735700D01*
X52758170Y-22766672D01*
X52654528Y-22826510D01*
X52569907Y-22911132D01*
X52569906Y-22911131D01*
X52440886Y-23040154D01*
X52386393Y-23065565D01*
X52378731Y-23065900D01*
X45883530Y-23065900D01*
X45830205Y-23046819D01*
X45829954Y-23047195D01*
X45828453Y-23046192D01*
X45827765Y-23045946D01*
X45826364Y-23044796D01*
X45720719Y-22974206D01*
X45603340Y-22925587D01*
X45603336Y-22925585D01*
X45509666Y-22906954D01*
X45478727Y-22900800D01*
X45351673Y-22900800D01*
X45324150Y-22906274D01*
X45227063Y-22925585D01*
X45227059Y-22925587D01*
X45109680Y-22974206D01*
X45004038Y-23044794D01*
X44914194Y-23134638D01*
X44843606Y-23240280D01*
X44794987Y-23357659D01*
X44794985Y-23357663D01*
X44770200Y-23482274D01*
X37538500Y-23482274D01*
X37538500Y-20546736D01*
X53889700Y-20546736D01*
X53889700Y-20753663D01*
X53930067Y-20956611D01*
X53930069Y-20956616D01*
X53930070Y-20956620D01*
X54009259Y-21147798D01*
X54009260Y-21147800D01*
X54009261Y-21147801D01*
X54124219Y-21319850D01*
X54124220Y-21319851D01*
X54124223Y-21319855D01*
X54270545Y-21466177D01*
X54442602Y-21581141D01*
X54633780Y-21660330D01*
X54633785Y-21660331D01*
X54633788Y-21660332D01*
X54735122Y-21680488D01*
X54836735Y-21700700D01*
X54836737Y-21700700D01*
X55043663Y-21700700D01*
X55043665Y-21700700D01*
X55176536Y-21674270D01*
X55246611Y-21660332D01*
X55246612Y-21660331D01*
X55246620Y-21660330D01*
X55437798Y-21581141D01*
X55609855Y-21466177D01*
X55756177Y-21319855D01*
X55871141Y-21147798D01*
X55950330Y-20956620D01*
X55990700Y-20753665D01*
X55990700Y-20546735D01*
X55961553Y-20400200D01*
X56481992Y-20400200D01*
X57047188Y-20400200D01*
X57014275Y-20457207D01*
X56980200Y-20584374D01*
X56980200Y-20716026D01*
X57014275Y-20843193D01*
X57047188Y-20900200D01*
X56481993Y-20900200D01*
X56491895Y-20949989D01*
X56491900Y-20950003D01*
X56569377Y-21137046D01*
X56681854Y-21305381D01*
X56825018Y-21448545D01*
X56993353Y-21561022D01*
X57180396Y-21638499D01*
X57180410Y-21638504D01*
X57230200Y-21648407D01*
X57230200Y-21083212D01*
X57287207Y-21116125D01*
X57414374Y-21150200D01*
X57546026Y-21150200D01*
X57673193Y-21116125D01*
X57730200Y-21083212D01*
X57730200Y-21648406D01*
X57779989Y-21638504D01*
X57780003Y-21638499D01*
X57967046Y-21561022D01*
X58135381Y-21448545D01*
X58278545Y-21305381D01*
X58391022Y-21137046D01*
X58468499Y-20950003D01*
X58468504Y-20949989D01*
X58478407Y-20900200D01*
X57913212Y-20900200D01*
X57946125Y-20843193D01*
X57980200Y-20716026D01*
X57980200Y-20584374D01*
X57946125Y-20457207D01*
X57913212Y-20400200D01*
X58478407Y-20400200D01*
X58468504Y-20350410D01*
X58468499Y-20350396D01*
X58391022Y-20163353D01*
X58278545Y-19995018D01*
X58135381Y-19851854D01*
X57967047Y-19739377D01*
X57780004Y-19661901D01*
X57779995Y-19661898D01*
X57730200Y-19651992D01*
X57730200Y-20217188D01*
X57673193Y-20184275D01*
X57546026Y-20150200D01*
X57414374Y-20150200D01*
X57287207Y-20184275D01*
X57230200Y-20217188D01*
X57230200Y-19651992D01*
X57180404Y-19661898D01*
X57180395Y-19661901D01*
X56993352Y-19739377D01*
X56825018Y-19851854D01*
X56681854Y-19995018D01*
X56569377Y-20163353D01*
X56491900Y-20350396D01*
X56491895Y-20350410D01*
X56481992Y-20400200D01*
X55961553Y-20400200D01*
X55950332Y-20343788D01*
X55950331Y-20343785D01*
X55950330Y-20343780D01*
X55871141Y-20152602D01*
X55813659Y-20066573D01*
X55756180Y-19980549D01*
X55756179Y-19980548D01*
X55756177Y-19980545D01*
X55609855Y-19834223D01*
X55609851Y-19834220D01*
X55609850Y-19834219D01*
X55437801Y-19719261D01*
X55437800Y-19719260D01*
X55437798Y-19719259D01*
X55246620Y-19640070D01*
X55246616Y-19640069D01*
X55246611Y-19640067D01*
X55093884Y-19609689D01*
X55043665Y-19599700D01*
X54836735Y-19599700D01*
X54792044Y-19608589D01*
X54633788Y-19640067D01*
X54633783Y-19640069D01*
X54633781Y-19640069D01*
X54633780Y-19640070D01*
X54442602Y-19719259D01*
X54442600Y-19719259D01*
X54442598Y-19719261D01*
X54270549Y-19834219D01*
X54124219Y-19980549D01*
X54009261Y-20152598D01*
X54009259Y-20152600D01*
X54009259Y-20152602D01*
X53930313Y-20343193D01*
X53930069Y-20343783D01*
X53930067Y-20343788D01*
X53889700Y-20546736D01*
X37538500Y-20546736D01*
X37538500Y-18192819D01*
X37529506Y-18147606D01*
X37511274Y-18055941D01*
X37511273Y-18055939D01*
X37511273Y-18055938D01*
X37490231Y-18005138D01*
X37457867Y-17927003D01*
X37457867Y-17927002D01*
X37380329Y-17810959D01*
X37380328Y-17810957D01*
X37230843Y-17661472D01*
X37114801Y-17583935D01*
X37023627Y-17546169D01*
X37023626Y-17546168D01*
X36985863Y-17530527D01*
X36985857Y-17530525D01*
X36917421Y-17516913D01*
X36894608Y-17512375D01*
X36848984Y-17503300D01*
X36848982Y-17503300D01*
X36848981Y-17503300D01*
X29689089Y-17503300D01*
X29632588Y-17482735D01*
X29626945Y-17477565D01*
X29613558Y-17464178D01*
X29455915Y-17358844D01*
X29280751Y-17286288D01*
X29280748Y-17286287D01*
X29280742Y-17286285D01*
X29140809Y-17258452D01*
X29094798Y-17249300D01*
X28905202Y-17249300D01*
X28864256Y-17257444D01*
X28719257Y-17286285D01*
X28719249Y-17286288D01*
X28544085Y-17358844D01*
X28386444Y-17464176D01*
X28252376Y-17598244D01*
X28147044Y-17755885D01*
X28074488Y-17931049D01*
X28074485Y-17931057D01*
X28037500Y-18117003D01*
X28037500Y-18306596D01*
X28074485Y-18492542D01*
X28074487Y-18492548D01*
X28074488Y-18492551D01*
X28147044Y-18667715D01*
X28252378Y-18825358D01*
X28386442Y-18959422D01*
X28544085Y-19064756D01*
X28719249Y-19137312D01*
X28719254Y-19137313D01*
X28719257Y-19137314D01*
X28813486Y-19156056D01*
X28905202Y-19174300D01*
X28905204Y-19174300D01*
X29094796Y-19174300D01*
X29094798Y-19174300D01*
X29221659Y-19149066D01*
X29280742Y-19137314D01*
X29280743Y-19137313D01*
X29280751Y-19137312D01*
X29455915Y-19064756D01*
X29613558Y-18959422D01*
X29626935Y-18946044D01*
X29681428Y-18920634D01*
X29689089Y-18920300D01*
X36033600Y-18920300D01*
X36090101Y-18940865D01*
X36120165Y-18992936D01*
X36121500Y-19008200D01*
X36121500Y-29429600D01*
X36100935Y-29486101D01*
X36048864Y-29516165D01*
X36033600Y-29517500D01*
X29689089Y-29517500D01*
X29632588Y-29496935D01*
X29626945Y-29491765D01*
X29613558Y-29478378D01*
X29455915Y-29373044D01*
X29280751Y-29300488D01*
X29280748Y-29300487D01*
X29280742Y-29300485D01*
X29140809Y-29272652D01*
X29094798Y-29263500D01*
X28905202Y-29263500D01*
X28880538Y-29268406D01*
X28719257Y-29300485D01*
X28719249Y-29300488D01*
X28544085Y-29373044D01*
X28386444Y-29478376D01*
X28252376Y-29612444D01*
X28147044Y-29770085D01*
X28074488Y-29945249D01*
X28074485Y-29945257D01*
X28037500Y-30131203D01*
X28037500Y-30320796D01*
X28074485Y-30506742D01*
X28074487Y-30506748D01*
X28074488Y-30506751D01*
X28147044Y-30681915D01*
X28252378Y-30839558D01*
X28252385Y-30839565D01*
X28252941Y-30840242D01*
X28253062Y-30840582D01*
X28254777Y-30843148D01*
X28254134Y-30843577D01*
X28272900Y-30896014D01*
X28272900Y-33904892D01*
X28252335Y-33961393D01*
X28202149Y-33991103D01*
X28159767Y-33999533D01*
X28093451Y-34043845D01*
X28093445Y-34043851D01*
X28049133Y-34110167D01*
X28037500Y-34168653D01*
X28037500Y-35732146D01*
X28049133Y-35790632D01*
X28093445Y-35856948D01*
X28093448Y-35856952D01*
X28093451Y-35856954D01*
X28159767Y-35901266D01*
X28159769Y-35901267D01*
X28218252Y-35912900D01*
X28218254Y-35912900D01*
X29781746Y-35912900D01*
X29781748Y-35912900D01*
X29840231Y-35901267D01*
X29906552Y-35856952D01*
X29950867Y-35790631D01*
X29962500Y-35732148D01*
X29962500Y-34168652D01*
X29950867Y-34110169D01*
X29942364Y-34097444D01*
X29906554Y-34043851D01*
X29906552Y-34043848D01*
X29899400Y-34039069D01*
X29840232Y-33999533D01*
X29820736Y-33995655D01*
X29781748Y-33987900D01*
X29781746Y-33987900D01*
X29777800Y-33987900D01*
X29721299Y-33967335D01*
X29691235Y-33915264D01*
X29689900Y-33900000D01*
X29689900Y-31022400D01*
X29710465Y-30965899D01*
X29762536Y-30935835D01*
X29777800Y-30934500D01*
X36033600Y-30934500D01*
X36090101Y-30955065D01*
X36120165Y-31007136D01*
X36121500Y-31022400D01*
X36121500Y-34593144D01*
X36114809Y-34626782D01*
X36097927Y-34667538D01*
X36097924Y-34667545D01*
X36070700Y-34804420D01*
X36070700Y-46660118D01*
X36050135Y-46716619D01*
X36044955Y-46722273D01*
X28906488Y-53860739D01*
X28861482Y-53884795D01*
X28719255Y-53913086D01*
X28719249Y-53913088D01*
X28544085Y-53985644D01*
X28386444Y-54090976D01*
X28252376Y-54225044D01*
X28147044Y-54382685D01*
X28074488Y-54557849D01*
X28074485Y-54557857D01*
X28037500Y-54743803D01*
X28037500Y-54762719D01*
X28016935Y-54819220D01*
X28011755Y-54824874D01*
X27262670Y-55573959D01*
X27185132Y-55690002D01*
X27185132Y-55690004D01*
X27163348Y-55742597D01*
X27163348Y-55742598D01*
X27131727Y-55818937D01*
X27131725Y-55818941D01*
X27111945Y-55918388D01*
X27105592Y-55950332D01*
X27104500Y-55955820D01*
X27104500Y-68653266D01*
X27102926Y-68669238D01*
X27102917Y-68669871D01*
X27102855Y-68670192D01*
X27084153Y-68764218D01*
X27079100Y-68789619D01*
X15777580Y-68789619D01*
X15808388Y-58176635D01*
X15808964Y-58166868D01*
X15826699Y-58012780D01*
X15831095Y-57993688D01*
X15836657Y-57977863D01*
X15880887Y-57852022D01*
X15889400Y-57834385D01*
X15969339Y-57707271D01*
X15981544Y-57691962D01*
X16087663Y-57585708D01*
X16102962Y-57573480D01*
X16229980Y-57493379D01*
X16247601Y-57484847D01*
X16389203Y-57434878D01*
X16408282Y-57430459D01*
X16562362Y-57412528D01*
X16572138Y-57411941D01*
X23828218Y-57381757D01*
X23997279Y-57362045D01*
X24157746Y-57305298D01*
X24301614Y-57214348D01*
X24421704Y-57093732D01*
X24512026Y-56949469D01*
X24568073Y-56788756D01*
X24587049Y-56619612D01*
X24585196Y-47325598D01*
X24585019Y-46436853D01*
X28037500Y-46436853D01*
X28037500Y-48000346D01*
X28049133Y-48058832D01*
X28091741Y-48122598D01*
X28093448Y-48125152D01*
X28093451Y-48125154D01*
X28159767Y-48169466D01*
X28159769Y-48169467D01*
X28218252Y-48181100D01*
X28218254Y-48181100D01*
X29781746Y-48181100D01*
X29781748Y-48181100D01*
X29840231Y-48169467D01*
X29906552Y-48125152D01*
X29950867Y-48058831D01*
X29962500Y-48000348D01*
X29962500Y-46436852D01*
X29950867Y-46378369D01*
X29942364Y-46365644D01*
X29906554Y-46312051D01*
X29906552Y-46312048D01*
X29906548Y-46312045D01*
X29840232Y-46267733D01*
X29820736Y-46263855D01*
X29781748Y-46256100D01*
X28218252Y-46256100D01*
X28189010Y-46261916D01*
X28159767Y-46267733D01*
X28093451Y-46312045D01*
X28093445Y-46312051D01*
X28049133Y-46378367D01*
X28037500Y-46436853D01*
X24585019Y-46436853D01*
X24585018Y-46432552D01*
X24584229Y-42475603D01*
X28037500Y-42475603D01*
X28037500Y-42665196D01*
X28074485Y-42851142D01*
X28074487Y-42851148D01*
X28074488Y-42851151D01*
X28147044Y-43026315D01*
X28252378Y-43183958D01*
X28386442Y-43318022D01*
X28544085Y-43423356D01*
X28719249Y-43495912D01*
X28719254Y-43495913D01*
X28719257Y-43495914D01*
X28813486Y-43514656D01*
X28905202Y-43532900D01*
X28905204Y-43532900D01*
X29094796Y-43532900D01*
X29094798Y-43532900D01*
X29216537Y-43508684D01*
X29280742Y-43495914D01*
X29280743Y-43495913D01*
X29280751Y-43495912D01*
X29455915Y-43423356D01*
X29613558Y-43318022D01*
X29747622Y-43183958D01*
X29852956Y-43026315D01*
X29925512Y-42851151D01*
X29962500Y-42665198D01*
X29962500Y-42475602D01*
X29937942Y-42352140D01*
X29925514Y-42289657D01*
X29925513Y-42289654D01*
X29925512Y-42289649D01*
X29852956Y-42114485D01*
X29747622Y-41956842D01*
X29613558Y-41822778D01*
X29455915Y-41717444D01*
X29280751Y-41644888D01*
X29280748Y-41644887D01*
X29280742Y-41644885D01*
X29140809Y-41617052D01*
X29094798Y-41607900D01*
X28905202Y-41607900D01*
X28864256Y-41616044D01*
X28719257Y-41644885D01*
X28719249Y-41644888D01*
X28544085Y-41717444D01*
X28386444Y-41822776D01*
X28252376Y-41956844D01*
X28147044Y-42114485D01*
X28074488Y-42289649D01*
X28074485Y-42289657D01*
X28044276Y-42441535D01*
X28038710Y-42469522D01*
X28037500Y-42475603D01*
X24584229Y-42475603D01*
X24584228Y-42471302D01*
X24583167Y-37149855D01*
X24580111Y-21824253D01*
X28037500Y-21824253D01*
X28037500Y-23387746D01*
X28049133Y-23446232D01*
X28093445Y-23512548D01*
X28093448Y-23512552D01*
X28093451Y-23512554D01*
X28159767Y-23556866D01*
X28159769Y-23556867D01*
X28218252Y-23568500D01*
X28218254Y-23568500D01*
X29781746Y-23568500D01*
X29781748Y-23568500D01*
X29840231Y-23556867D01*
X29906552Y-23512552D01*
X29950867Y-23446231D01*
X29962500Y-23387748D01*
X29962500Y-21824252D01*
X29950867Y-21765769D01*
X29942364Y-21753044D01*
X29906554Y-21699451D01*
X29906552Y-21699448D01*
X29906548Y-21699445D01*
X29840232Y-21655133D01*
X29820736Y-21651255D01*
X29781748Y-21643500D01*
X28218252Y-21643500D01*
X28193588Y-21648406D01*
X28159767Y-21655133D01*
X28093451Y-21699445D01*
X28093445Y-21699451D01*
X28049133Y-21765767D01*
X28037500Y-21824253D01*
X24580111Y-21824253D01*
X24579197Y-17240452D01*
X53889700Y-17240452D01*
X53889700Y-18979948D01*
X53895320Y-19008200D01*
X53901333Y-19038432D01*
X53918922Y-19064755D01*
X53945648Y-19104752D01*
X53945651Y-19104754D01*
X54011967Y-19149066D01*
X54011969Y-19149067D01*
X54070452Y-19160700D01*
X54070454Y-19160700D01*
X55809946Y-19160700D01*
X55809948Y-19160700D01*
X55868431Y-19149067D01*
X55934752Y-19104752D01*
X55979067Y-19038431D01*
X55990700Y-18979948D01*
X55990700Y-18006736D01*
X56429700Y-18006736D01*
X56429700Y-18213663D01*
X56470067Y-18416611D01*
X56470069Y-18416616D01*
X56470070Y-18416620D01*
X56549259Y-18607798D01*
X56549260Y-18607800D01*
X56549261Y-18607801D01*
X56664219Y-18779850D01*
X56664220Y-18779851D01*
X56664223Y-18779855D01*
X56810545Y-18926177D01*
X56810548Y-18926179D01*
X56810549Y-18926180D01*
X56891017Y-18979946D01*
X56982602Y-19041141D01*
X57173780Y-19120330D01*
X57173785Y-19120331D01*
X57173788Y-19120332D01*
X57259165Y-19137314D01*
X57376735Y-19160700D01*
X57376737Y-19160700D01*
X57583663Y-19160700D01*
X57583665Y-19160700D01*
X57716536Y-19134270D01*
X57786611Y-19120332D01*
X57786612Y-19120331D01*
X57786620Y-19120330D01*
X57977798Y-19041141D01*
X58149855Y-18926177D01*
X58296177Y-18779855D01*
X58411141Y-18607798D01*
X58490330Y-18416620D01*
X58530700Y-18213665D01*
X58530700Y-18006735D01*
X58490330Y-17803780D01*
X58411141Y-17612602D01*
X58296177Y-17440545D01*
X58149855Y-17294223D01*
X58149851Y-17294220D01*
X58149850Y-17294219D01*
X57977801Y-17179261D01*
X57977800Y-17179260D01*
X57977798Y-17179259D01*
X57786620Y-17100070D01*
X57786616Y-17100069D01*
X57786611Y-17100067D01*
X57633884Y-17069689D01*
X57583665Y-17059700D01*
X57376735Y-17059700D01*
X57332044Y-17068589D01*
X57173788Y-17100067D01*
X57173783Y-17100069D01*
X57173781Y-17100069D01*
X57173780Y-17100070D01*
X56982602Y-17179259D01*
X56982600Y-17179259D01*
X56982598Y-17179261D01*
X56810549Y-17294219D01*
X56664219Y-17440549D01*
X56549261Y-17612598D01*
X56549259Y-17612600D01*
X56549259Y-17612602D01*
X56489909Y-17755885D01*
X56470069Y-17803783D01*
X56470067Y-17803788D01*
X56429700Y-18006736D01*
X55990700Y-18006736D01*
X55990700Y-17240452D01*
X55979067Y-17181969D01*
X55977256Y-17179259D01*
X55934754Y-17115651D01*
X55934752Y-17115648D01*
X55934748Y-17115645D01*
X55868432Y-17071333D01*
X55848936Y-17067455D01*
X55809948Y-17059700D01*
X54070452Y-17059700D01*
X54041210Y-17065516D01*
X54011967Y-17071333D01*
X53945651Y-17115645D01*
X53945645Y-17115651D01*
X53901333Y-17181967D01*
X53901333Y-17181969D01*
X53889700Y-17240452D01*
X24579197Y-17240452D01*
X24579044Y-16474858D01*
X24577716Y-9810053D01*
X28037500Y-9810053D01*
X28037500Y-11373546D01*
X28049133Y-11432032D01*
X28093445Y-11498348D01*
X28093448Y-11498352D01*
X28093451Y-11498354D01*
X28159767Y-11542666D01*
X28159769Y-11542667D01*
X28218252Y-11554300D01*
X28218254Y-11554300D01*
X29781746Y-11554300D01*
X29781748Y-11554300D01*
X29840231Y-11542667D01*
X29906552Y-11498352D01*
X29950867Y-11432031D01*
X29962500Y-11373548D01*
X29962500Y-9810052D01*
X29950867Y-9751569D01*
X29942364Y-9738844D01*
X29906554Y-9685251D01*
X29906552Y-9685248D01*
X29906548Y-9685245D01*
X29840232Y-9640933D01*
X29820736Y-9637055D01*
X29781748Y-9629300D01*
X28218252Y-9629300D01*
X28189010Y-9635116D01*
X28159767Y-9640933D01*
X28093451Y-9685245D01*
X28093445Y-9685251D01*
X28049133Y-9751567D01*
X28037500Y-9810053D01*
X24577716Y-9810053D01*
X24577715Y-9805752D01*
X24575931Y-858018D01*
X24596484Y-801512D01*
X24648550Y-771438D01*
X24663831Y-770100D01*
X53055944Y-770100D01*
X53112445Y-790665D01*
G37*
%TD.AperFunction*%
%TD*%
M02*
