%TF.GenerationSoftware,KiCad,Pcbnew,9.0.6*%
%TF.CreationDate,2025-11-26T11:15:41+11:00*%
%TF.ProjectId,v7_equip_digital_out,76375f65-7175-4697-905f-646967697461,rev?*%
%TF.SameCoordinates,Original*%
%TF.FileFunction,Legend,Top*%
%TF.FilePolarity,Positive*%
%FSLAX46Y46*%
G04 Gerber Fmt 4.6, Leading zero omitted, Abs format (unit mm)*
G04 Created by KiCad (PCBNEW 9.0.6) date 2025-11-26 11:15:41*
%MOMM*%
%LPD*%
G01*
G04 APERTURE LIST*
G04 Aperture macros list*
%AMRoundRect*
0 Rectangle with rounded corners*
0 $1 Rounding radius*
0 $2 $3 $4 $5 $6 $7 $8 $9 X,Y pos of 4 corners*
0 Add a 4 corners polygon primitive as box body*
4,1,4,$2,$3,$4,$5,$6,$7,$8,$9,$2,$3,0*
0 Add four circle primitives for the rounded corners*
1,1,$1+$1,$2,$3*
1,1,$1+$1,$4,$5*
1,1,$1+$1,$6,$7*
1,1,$1+$1,$8,$9*
0 Add four rect primitives between the rounded corners*
20,1,$1+$1,$2,$3,$4,$5,0*
20,1,$1+$1,$4,$5,$6,$7,0*
20,1,$1+$1,$6,$7,$8,$9,0*
20,1,$1+$1,$8,$9,$2,$3,0*%
G04 Aperture macros list end*
%ADD10C,0.152400*%
%ADD11C,0.101600*%
%ADD12C,0.127000*%
%ADD13C,0.177800*%
%ADD14C,0.203200*%
%ADD15C,0.150000*%
%ADD16C,0.120000*%
%ADD17C,0.100000*%
%ADD18C,0.200000*%
%ADD19RoundRect,0.150000X0.587500X0.150000X-0.587500X0.150000X-0.587500X-0.150000X0.587500X-0.150000X0*%
%ADD20R,1.524000X1.524000*%
%ADD21C,1.524000*%
%ADD22RoundRect,0.250000X0.450000X-0.350000X0.450000X0.350000X-0.450000X0.350000X-0.450000X-0.350000X0*%
%ADD23C,2.100000*%
%ADD24R,2.025000X2.025000*%
%ADD25C,2.025000*%
%ADD26RoundRect,0.250000X0.337500X0.475000X-0.337500X0.475000X-0.337500X-0.475000X0.337500X-0.475000X0*%
%ADD27RoundRect,0.250000X-0.475000X0.337500X-0.475000X-0.337500X0.475000X-0.337500X0.475000X0.337500X0*%
%ADD28R,1.700000X1.700000*%
%ADD29O,1.700000X1.700000*%
%ADD30R,2.100000X1.550000*%
%ADD31C,3.500000*%
%ADD32RoundRect,0.250000X-0.350000X-0.450000X0.350000X-0.450000X0.350000X0.450000X-0.350000X0.450000X0*%
%ADD33RoundRect,0.250000X0.350000X0.450000X-0.350000X0.450000X-0.350000X-0.450000X0.350000X-0.450000X0*%
%ADD34RoundRect,0.250000X-0.337500X-0.475000X0.337500X-0.475000X0.337500X0.475000X-0.337500X0.475000X0*%
%ADD35RoundRect,0.150000X-0.587500X-0.150000X0.587500X-0.150000X0.587500X0.150000X-0.587500X0.150000X0*%
%ADD36RoundRect,0.250000X0.475000X-0.337500X0.475000X0.337500X-0.475000X0.337500X-0.475000X-0.337500X0*%
%ADD37RoundRect,0.150000X0.625000X-0.150000X0.625000X0.150000X-0.625000X0.150000X-0.625000X-0.150000X0*%
%ADD38RoundRect,0.416666X0.970834X-0.583334X0.970834X0.583334X-0.970834X0.583334X-0.970834X-0.583334X0*%
%ADD39R,0.650000X1.950000*%
G04 APERTURE END LIST*
D10*
X4789586Y-4766631D02*
X4789586Y-3953831D01*
X4789586Y-3953831D02*
X5254043Y-4766631D01*
X5254043Y-4766631D02*
X5254043Y-3953831D01*
X5795910Y-3953831D02*
X5950729Y-3953831D01*
X5950729Y-3953831D02*
X6028139Y-3992536D01*
X6028139Y-3992536D02*
X6105548Y-4069946D01*
X6105548Y-4069946D02*
X6144253Y-4224765D01*
X6144253Y-4224765D02*
X6144253Y-4495698D01*
X6144253Y-4495698D02*
X6105548Y-4650517D01*
X6105548Y-4650517D02*
X6028139Y-4727927D01*
X6028139Y-4727927D02*
X5950729Y-4766631D01*
X5950729Y-4766631D02*
X5795910Y-4766631D01*
X5795910Y-4766631D02*
X5718501Y-4727927D01*
X5718501Y-4727927D02*
X5641091Y-4650517D01*
X5641091Y-4650517D02*
X5602387Y-4495698D01*
X5602387Y-4495698D02*
X5602387Y-4224765D01*
X5602387Y-4224765D02*
X5641091Y-4069946D01*
X5641091Y-4069946D02*
X5718501Y-3992536D01*
X5718501Y-3992536D02*
X5795910Y-3953831D01*
X5254043Y-8614908D02*
X5215339Y-8653613D01*
X5215339Y-8653613D02*
X5099224Y-8692317D01*
X5099224Y-8692317D02*
X5021815Y-8692317D01*
X5021815Y-8692317D02*
X4905701Y-8653613D01*
X4905701Y-8653613D02*
X4828291Y-8576203D01*
X4828291Y-8576203D02*
X4789586Y-8498793D01*
X4789586Y-8498793D02*
X4750882Y-8343974D01*
X4750882Y-8343974D02*
X4750882Y-8227860D01*
X4750882Y-8227860D02*
X4789586Y-8073041D01*
X4789586Y-8073041D02*
X4828291Y-7995632D01*
X4828291Y-7995632D02*
X4905701Y-7918222D01*
X4905701Y-7918222D02*
X5021815Y-7879517D01*
X5021815Y-7879517D02*
X5099224Y-7879517D01*
X5099224Y-7879517D02*
X5215339Y-7918222D01*
X5215339Y-7918222D02*
X5254043Y-7956927D01*
X5757205Y-7879517D02*
X5912024Y-7879517D01*
X5912024Y-7879517D02*
X5989434Y-7918222D01*
X5989434Y-7918222D02*
X6066843Y-7995632D01*
X6066843Y-7995632D02*
X6105548Y-8150451D01*
X6105548Y-8150451D02*
X6105548Y-8421384D01*
X6105548Y-8421384D02*
X6066843Y-8576203D01*
X6066843Y-8576203D02*
X5989434Y-8653613D01*
X5989434Y-8653613D02*
X5912024Y-8692317D01*
X5912024Y-8692317D02*
X5757205Y-8692317D01*
X5757205Y-8692317D02*
X5679796Y-8653613D01*
X5679796Y-8653613D02*
X5602386Y-8576203D01*
X5602386Y-8576203D02*
X5563682Y-8421384D01*
X5563682Y-8421384D02*
X5563682Y-8150451D01*
X5563682Y-8150451D02*
X5602386Y-7995632D01*
X5602386Y-7995632D02*
X5679796Y-7918222D01*
X5679796Y-7918222D02*
X5757205Y-7879517D01*
X6453891Y-8692317D02*
X6453891Y-7879517D01*
X6453891Y-7879517D02*
X6724825Y-8460089D01*
X6724825Y-8460089D02*
X6995758Y-7879517D01*
X6995758Y-7879517D02*
X6995758Y-8692317D01*
X4789586Y-12618003D02*
X4789586Y-11805203D01*
X4789586Y-11805203D02*
X5254043Y-12618003D01*
X5254043Y-12618003D02*
X5254043Y-11805203D01*
X6105548Y-12540594D02*
X6066844Y-12579299D01*
X6066844Y-12579299D02*
X5950729Y-12618003D01*
X5950729Y-12618003D02*
X5873320Y-12618003D01*
X5873320Y-12618003D02*
X5757206Y-12579299D01*
X5757206Y-12579299D02*
X5679796Y-12501889D01*
X5679796Y-12501889D02*
X5641091Y-12424479D01*
X5641091Y-12424479D02*
X5602387Y-12269660D01*
X5602387Y-12269660D02*
X5602387Y-12153546D01*
X5602387Y-12153546D02*
X5641091Y-11998727D01*
X5641091Y-11998727D02*
X5679796Y-11921318D01*
X5679796Y-11921318D02*
X5757206Y-11843908D01*
X5757206Y-11843908D02*
X5873320Y-11805203D01*
X5873320Y-11805203D02*
X5950729Y-11805203D01*
X5950729Y-11805203D02*
X6066844Y-11843908D01*
X6066844Y-11843908D02*
X6105548Y-11882613D01*
D11*
X51183100Y-80792224D02*
X51273814Y-80822462D01*
X51273814Y-80822462D02*
X51425005Y-80822462D01*
X51425005Y-80822462D02*
X51485481Y-80792224D01*
X51485481Y-80792224D02*
X51515719Y-80761985D01*
X51515719Y-80761985D02*
X51545957Y-80701509D01*
X51545957Y-80701509D02*
X51545957Y-80641033D01*
X51545957Y-80641033D02*
X51515719Y-80580557D01*
X51515719Y-80580557D02*
X51485481Y-80550319D01*
X51485481Y-80550319D02*
X51425005Y-80520081D01*
X51425005Y-80520081D02*
X51304052Y-80489843D01*
X51304052Y-80489843D02*
X51243576Y-80459604D01*
X51243576Y-80459604D02*
X51213338Y-80429366D01*
X51213338Y-80429366D02*
X51183100Y-80368890D01*
X51183100Y-80368890D02*
X51183100Y-80308414D01*
X51183100Y-80308414D02*
X51213338Y-80247938D01*
X51213338Y-80247938D02*
X51243576Y-80217700D01*
X51243576Y-80217700D02*
X51304052Y-80187462D01*
X51304052Y-80187462D02*
X51455243Y-80187462D01*
X51455243Y-80187462D02*
X51545957Y-80217700D01*
X52180957Y-80761985D02*
X52150719Y-80792224D01*
X52150719Y-80792224D02*
X52060005Y-80822462D01*
X52060005Y-80822462D02*
X51999529Y-80822462D01*
X51999529Y-80822462D02*
X51908814Y-80792224D01*
X51908814Y-80792224D02*
X51848338Y-80731747D01*
X51848338Y-80731747D02*
X51818100Y-80671271D01*
X51818100Y-80671271D02*
X51787862Y-80550319D01*
X51787862Y-80550319D02*
X51787862Y-80459604D01*
X51787862Y-80459604D02*
X51818100Y-80338652D01*
X51818100Y-80338652D02*
X51848338Y-80278176D01*
X51848338Y-80278176D02*
X51908814Y-80217700D01*
X51908814Y-80217700D02*
X51999529Y-80187462D01*
X51999529Y-80187462D02*
X52060005Y-80187462D01*
X52060005Y-80187462D02*
X52150719Y-80217700D01*
X52150719Y-80217700D02*
X52180957Y-80247938D01*
X52755481Y-80822462D02*
X52453100Y-80822462D01*
X52453100Y-80822462D02*
X52453100Y-80187462D01*
X51152862Y-81814538D02*
X51243576Y-81844776D01*
X51243576Y-81844776D02*
X51394767Y-81844776D01*
X51394767Y-81844776D02*
X51455243Y-81814538D01*
X51455243Y-81814538D02*
X51485481Y-81784299D01*
X51485481Y-81784299D02*
X51515719Y-81723823D01*
X51515719Y-81723823D02*
X51515719Y-81663347D01*
X51515719Y-81663347D02*
X51485481Y-81602871D01*
X51485481Y-81602871D02*
X51455243Y-81572633D01*
X51455243Y-81572633D02*
X51394767Y-81542395D01*
X51394767Y-81542395D02*
X51273814Y-81512157D01*
X51273814Y-81512157D02*
X51213338Y-81481918D01*
X51213338Y-81481918D02*
X51183100Y-81451680D01*
X51183100Y-81451680D02*
X51152862Y-81391204D01*
X51152862Y-81391204D02*
X51152862Y-81330728D01*
X51152862Y-81330728D02*
X51183100Y-81270252D01*
X51183100Y-81270252D02*
X51213338Y-81240014D01*
X51213338Y-81240014D02*
X51273814Y-81209776D01*
X51273814Y-81209776D02*
X51425005Y-81209776D01*
X51425005Y-81209776D02*
X51515719Y-81240014D01*
X51787862Y-81844776D02*
X51787862Y-81209776D01*
X51787862Y-81209776D02*
X51939052Y-81209776D01*
X51939052Y-81209776D02*
X52029767Y-81240014D01*
X52029767Y-81240014D02*
X52090243Y-81300490D01*
X52090243Y-81300490D02*
X52120481Y-81360966D01*
X52120481Y-81360966D02*
X52150719Y-81481918D01*
X52150719Y-81481918D02*
X52150719Y-81572633D01*
X52150719Y-81572633D02*
X52120481Y-81693585D01*
X52120481Y-81693585D02*
X52090243Y-81754061D01*
X52090243Y-81754061D02*
X52029767Y-81814538D01*
X52029767Y-81814538D02*
X51939052Y-81844776D01*
X51939052Y-81844776D02*
X51787862Y-81844776D01*
X52392624Y-81663347D02*
X52695005Y-81663347D01*
X52332148Y-81844776D02*
X52543814Y-81209776D01*
X52543814Y-81209776D02*
X52755481Y-81844776D01*
X51152862Y-82232090D02*
X51545957Y-82232090D01*
X51545957Y-82232090D02*
X51334290Y-82473994D01*
X51334290Y-82473994D02*
X51425005Y-82473994D01*
X51425005Y-82473994D02*
X51485481Y-82504232D01*
X51485481Y-82504232D02*
X51515719Y-82534471D01*
X51515719Y-82534471D02*
X51545957Y-82594947D01*
X51545957Y-82594947D02*
X51545957Y-82746137D01*
X51545957Y-82746137D02*
X51515719Y-82806613D01*
X51515719Y-82806613D02*
X51485481Y-82836852D01*
X51485481Y-82836852D02*
X51425005Y-82867090D01*
X51425005Y-82867090D02*
X51243576Y-82867090D01*
X51243576Y-82867090D02*
X51183100Y-82836852D01*
X51183100Y-82836852D02*
X51152862Y-82806613D01*
X51727386Y-82232090D02*
X51939052Y-82867090D01*
X51939052Y-82867090D02*
X52150719Y-82232090D01*
X52301910Y-82232090D02*
X52695005Y-82232090D01*
X52695005Y-82232090D02*
X52483338Y-82473994D01*
X52483338Y-82473994D02*
X52574053Y-82473994D01*
X52574053Y-82473994D02*
X52634529Y-82504232D01*
X52634529Y-82504232D02*
X52664767Y-82534471D01*
X52664767Y-82534471D02*
X52695005Y-82594947D01*
X52695005Y-82594947D02*
X52695005Y-82746137D01*
X52695005Y-82746137D02*
X52664767Y-82806613D01*
X52664767Y-82806613D02*
X52634529Y-82836852D01*
X52634529Y-82836852D02*
X52574053Y-82867090D01*
X52574053Y-82867090D02*
X52392624Y-82867090D01*
X52392624Y-82867090D02*
X52332148Y-82836852D01*
X52332148Y-82836852D02*
X52301910Y-82806613D01*
X51364529Y-83284642D02*
X51304053Y-83254404D01*
X51304053Y-83254404D02*
X51213339Y-83254404D01*
X51213339Y-83254404D02*
X51122624Y-83284642D01*
X51122624Y-83284642D02*
X51062148Y-83345118D01*
X51062148Y-83345118D02*
X51031910Y-83405594D01*
X51031910Y-83405594D02*
X51001672Y-83526546D01*
X51001672Y-83526546D02*
X51001672Y-83617261D01*
X51001672Y-83617261D02*
X51031910Y-83738213D01*
X51031910Y-83738213D02*
X51062148Y-83798689D01*
X51062148Y-83798689D02*
X51122624Y-83859166D01*
X51122624Y-83859166D02*
X51213339Y-83889404D01*
X51213339Y-83889404D02*
X51273815Y-83889404D01*
X51273815Y-83889404D02*
X51364529Y-83859166D01*
X51364529Y-83859166D02*
X51394767Y-83828927D01*
X51394767Y-83828927D02*
X51394767Y-83617261D01*
X51394767Y-83617261D02*
X51273815Y-83617261D01*
X51666910Y-83889404D02*
X51666910Y-83254404D01*
X51666910Y-83254404D02*
X52029767Y-83889404D01*
X52029767Y-83889404D02*
X52029767Y-83254404D01*
X52332148Y-83889404D02*
X52332148Y-83254404D01*
X52332148Y-83254404D02*
X52483338Y-83254404D01*
X52483338Y-83254404D02*
X52574053Y-83284642D01*
X52574053Y-83284642D02*
X52634529Y-83345118D01*
X52634529Y-83345118D02*
X52664767Y-83405594D01*
X52664767Y-83405594D02*
X52695005Y-83526546D01*
X52695005Y-83526546D02*
X52695005Y-83617261D01*
X52695005Y-83617261D02*
X52664767Y-83738213D01*
X52664767Y-83738213D02*
X52634529Y-83798689D01*
X52634529Y-83798689D02*
X52574053Y-83859166D01*
X52574053Y-83859166D02*
X52483338Y-83889404D01*
X52483338Y-83889404D02*
X52332148Y-83889404D01*
D12*
X14461066Y-8596800D02*
X13953066Y-8596800D01*
X14207066Y-8596800D02*
X14207066Y-7707800D01*
X14207066Y-7707800D02*
X14122399Y-7834800D01*
X14122399Y-7834800D02*
X14037733Y-7919467D01*
X14037733Y-7919467D02*
X13953066Y-7961800D01*
X14799733Y-8342800D02*
X15223066Y-8342800D01*
X14715066Y-8596800D02*
X15011400Y-7707800D01*
X15011400Y-7707800D02*
X15307733Y-8596800D01*
X16239066Y-7792467D02*
X16281399Y-7750133D01*
X16281399Y-7750133D02*
X16366066Y-7707800D01*
X16366066Y-7707800D02*
X16577733Y-7707800D01*
X16577733Y-7707800D02*
X16662399Y-7750133D01*
X16662399Y-7750133D02*
X16704733Y-7792467D01*
X16704733Y-7792467D02*
X16747066Y-7877133D01*
X16747066Y-7877133D02*
X16747066Y-7961800D01*
X16747066Y-7961800D02*
X16704733Y-8088800D01*
X16704733Y-8088800D02*
X16196733Y-8596800D01*
X16196733Y-8596800D02*
X16747066Y-8596800D01*
X17509066Y-8004133D02*
X17509066Y-8596800D01*
X17297400Y-7665467D02*
X17085733Y-8300467D01*
X17085733Y-8300467D02*
X17636066Y-8300467D01*
X17847733Y-7707800D02*
X18144067Y-8596800D01*
X18144067Y-8596800D02*
X18440400Y-7707800D01*
X18736733Y-8596800D02*
X18736733Y-7707800D01*
X18736733Y-7707800D02*
X18948400Y-7707800D01*
X18948400Y-7707800D02*
X19075400Y-7750133D01*
X19075400Y-7750133D02*
X19160067Y-7834800D01*
X19160067Y-7834800D02*
X19202400Y-7919467D01*
X19202400Y-7919467D02*
X19244733Y-8088800D01*
X19244733Y-8088800D02*
X19244733Y-8215800D01*
X19244733Y-8215800D02*
X19202400Y-8385133D01*
X19202400Y-8385133D02*
X19160067Y-8469800D01*
X19160067Y-8469800D02*
X19075400Y-8554467D01*
X19075400Y-8554467D02*
X18948400Y-8596800D01*
X18948400Y-8596800D02*
X18736733Y-8596800D01*
X20133733Y-8512133D02*
X20091400Y-8554467D01*
X20091400Y-8554467D02*
X19964400Y-8596800D01*
X19964400Y-8596800D02*
X19879733Y-8596800D01*
X19879733Y-8596800D02*
X19752733Y-8554467D01*
X19752733Y-8554467D02*
X19668067Y-8469800D01*
X19668067Y-8469800D02*
X19625733Y-8385133D01*
X19625733Y-8385133D02*
X19583400Y-8215800D01*
X19583400Y-8215800D02*
X19583400Y-8088800D01*
X19583400Y-8088800D02*
X19625733Y-7919467D01*
X19625733Y-7919467D02*
X19668067Y-7834800D01*
X19668067Y-7834800D02*
X19752733Y-7750133D01*
X19752733Y-7750133D02*
X19879733Y-7707800D01*
X19879733Y-7707800D02*
X19964400Y-7707800D01*
X19964400Y-7707800D02*
X20091400Y-7750133D01*
X20091400Y-7750133D02*
X20133733Y-7792467D01*
D10*
X4840386Y-31792231D02*
X4840386Y-30979431D01*
X4840386Y-30979431D02*
X5304843Y-31792231D01*
X5304843Y-31792231D02*
X5304843Y-30979431D01*
X5846710Y-30979431D02*
X6001529Y-30979431D01*
X6001529Y-30979431D02*
X6078939Y-31018136D01*
X6078939Y-31018136D02*
X6156348Y-31095546D01*
X6156348Y-31095546D02*
X6195053Y-31250365D01*
X6195053Y-31250365D02*
X6195053Y-31521298D01*
X6195053Y-31521298D02*
X6156348Y-31676117D01*
X6156348Y-31676117D02*
X6078939Y-31753527D01*
X6078939Y-31753527D02*
X6001529Y-31792231D01*
X6001529Y-31792231D02*
X5846710Y-31792231D01*
X5846710Y-31792231D02*
X5769301Y-31753527D01*
X5769301Y-31753527D02*
X5691891Y-31676117D01*
X5691891Y-31676117D02*
X5653187Y-31521298D01*
X5653187Y-31521298D02*
X5653187Y-31250365D01*
X5653187Y-31250365D02*
X5691891Y-31095546D01*
X5691891Y-31095546D02*
X5769301Y-31018136D01*
X5769301Y-31018136D02*
X5846710Y-30979431D01*
X5304843Y-35640508D02*
X5266139Y-35679213D01*
X5266139Y-35679213D02*
X5150024Y-35717917D01*
X5150024Y-35717917D02*
X5072615Y-35717917D01*
X5072615Y-35717917D02*
X4956501Y-35679213D01*
X4956501Y-35679213D02*
X4879091Y-35601803D01*
X4879091Y-35601803D02*
X4840386Y-35524393D01*
X4840386Y-35524393D02*
X4801682Y-35369574D01*
X4801682Y-35369574D02*
X4801682Y-35253460D01*
X4801682Y-35253460D02*
X4840386Y-35098641D01*
X4840386Y-35098641D02*
X4879091Y-35021232D01*
X4879091Y-35021232D02*
X4956501Y-34943822D01*
X4956501Y-34943822D02*
X5072615Y-34905117D01*
X5072615Y-34905117D02*
X5150024Y-34905117D01*
X5150024Y-34905117D02*
X5266139Y-34943822D01*
X5266139Y-34943822D02*
X5304843Y-34982527D01*
X5808005Y-34905117D02*
X5962824Y-34905117D01*
X5962824Y-34905117D02*
X6040234Y-34943822D01*
X6040234Y-34943822D02*
X6117643Y-35021232D01*
X6117643Y-35021232D02*
X6156348Y-35176051D01*
X6156348Y-35176051D02*
X6156348Y-35446984D01*
X6156348Y-35446984D02*
X6117643Y-35601803D01*
X6117643Y-35601803D02*
X6040234Y-35679213D01*
X6040234Y-35679213D02*
X5962824Y-35717917D01*
X5962824Y-35717917D02*
X5808005Y-35717917D01*
X5808005Y-35717917D02*
X5730596Y-35679213D01*
X5730596Y-35679213D02*
X5653186Y-35601803D01*
X5653186Y-35601803D02*
X5614482Y-35446984D01*
X5614482Y-35446984D02*
X5614482Y-35176051D01*
X5614482Y-35176051D02*
X5653186Y-35021232D01*
X5653186Y-35021232D02*
X5730596Y-34943822D01*
X5730596Y-34943822D02*
X5808005Y-34905117D01*
X6504691Y-35717917D02*
X6504691Y-34905117D01*
X6504691Y-34905117D02*
X6775625Y-35485689D01*
X6775625Y-35485689D02*
X7046558Y-34905117D01*
X7046558Y-34905117D02*
X7046558Y-35717917D01*
X4840386Y-39643603D02*
X4840386Y-38830803D01*
X4840386Y-38830803D02*
X5304843Y-39643603D01*
X5304843Y-39643603D02*
X5304843Y-38830803D01*
X6156348Y-39566194D02*
X6117644Y-39604899D01*
X6117644Y-39604899D02*
X6001529Y-39643603D01*
X6001529Y-39643603D02*
X5924120Y-39643603D01*
X5924120Y-39643603D02*
X5808006Y-39604899D01*
X5808006Y-39604899D02*
X5730596Y-39527489D01*
X5730596Y-39527489D02*
X5691891Y-39450079D01*
X5691891Y-39450079D02*
X5653187Y-39295260D01*
X5653187Y-39295260D02*
X5653187Y-39179146D01*
X5653187Y-39179146D02*
X5691891Y-39024327D01*
X5691891Y-39024327D02*
X5730596Y-38946918D01*
X5730596Y-38946918D02*
X5808006Y-38869508D01*
X5808006Y-38869508D02*
X5924120Y-38830803D01*
X5924120Y-38830803D02*
X6001529Y-38830803D01*
X6001529Y-38830803D02*
X6117644Y-38869508D01*
X6117644Y-38869508D02*
X6156348Y-38908213D01*
X45851234Y-51724679D02*
X45935900Y-51724679D01*
X45935900Y-51724679D02*
X46020567Y-51767012D01*
X46020567Y-51767012D02*
X46062900Y-51809346D01*
X46062900Y-51809346D02*
X46105234Y-51894012D01*
X46105234Y-51894012D02*
X46147567Y-52063346D01*
X46147567Y-52063346D02*
X46147567Y-52275012D01*
X46147567Y-52275012D02*
X46105234Y-52444346D01*
X46105234Y-52444346D02*
X46062900Y-52529012D01*
X46062900Y-52529012D02*
X46020567Y-52571346D01*
X46020567Y-52571346D02*
X45935900Y-52613679D01*
X45935900Y-52613679D02*
X45851234Y-52613679D01*
X45851234Y-52613679D02*
X45766567Y-52571346D01*
X45766567Y-52571346D02*
X45724234Y-52529012D01*
X45724234Y-52529012D02*
X45681900Y-52444346D01*
X45681900Y-52444346D02*
X45639567Y-52275012D01*
X45639567Y-52275012D02*
X45639567Y-52063346D01*
X45639567Y-52063346D02*
X45681900Y-51894012D01*
X45681900Y-51894012D02*
X45724234Y-51809346D01*
X45724234Y-51809346D02*
X45766567Y-51767012D01*
X45766567Y-51767012D02*
X45851234Y-51724679D01*
X47713900Y-52529012D02*
X47671567Y-52571346D01*
X47671567Y-52571346D02*
X47544567Y-52613679D01*
X47544567Y-52613679D02*
X47459900Y-52613679D01*
X47459900Y-52613679D02*
X47332900Y-52571346D01*
X47332900Y-52571346D02*
X47248234Y-52486679D01*
X47248234Y-52486679D02*
X47205900Y-52402012D01*
X47205900Y-52402012D02*
X47163567Y-52232679D01*
X47163567Y-52232679D02*
X47163567Y-52105679D01*
X47163567Y-52105679D02*
X47205900Y-51936346D01*
X47205900Y-51936346D02*
X47248234Y-51851679D01*
X47248234Y-51851679D02*
X47332900Y-51767012D01*
X47332900Y-51767012D02*
X47459900Y-51724679D01*
X47459900Y-51724679D02*
X47544567Y-51724679D01*
X47544567Y-51724679D02*
X47671567Y-51767012D01*
X47671567Y-51767012D02*
X47713900Y-51809346D01*
X48264234Y-51724679D02*
X48433567Y-51724679D01*
X48433567Y-51724679D02*
X48518234Y-51767012D01*
X48518234Y-51767012D02*
X48602900Y-51851679D01*
X48602900Y-51851679D02*
X48645234Y-52021012D01*
X48645234Y-52021012D02*
X48645234Y-52317346D01*
X48645234Y-52317346D02*
X48602900Y-52486679D01*
X48602900Y-52486679D02*
X48518234Y-52571346D01*
X48518234Y-52571346D02*
X48433567Y-52613679D01*
X48433567Y-52613679D02*
X48264234Y-52613679D01*
X48264234Y-52613679D02*
X48179567Y-52571346D01*
X48179567Y-52571346D02*
X48094900Y-52486679D01*
X48094900Y-52486679D02*
X48052567Y-52317346D01*
X48052567Y-52317346D02*
X48052567Y-52021012D01*
X48052567Y-52021012D02*
X48094900Y-51851679D01*
X48094900Y-51851679D02*
X48179567Y-51767012D01*
X48179567Y-51767012D02*
X48264234Y-51724679D01*
X49026233Y-52613679D02*
X49026233Y-51724679D01*
X49026233Y-51724679D02*
X49322567Y-52359679D01*
X49322567Y-52359679D02*
X49618900Y-51724679D01*
X49618900Y-51724679D02*
X49618900Y-52613679D01*
X51185233Y-52613679D02*
X50677233Y-52613679D01*
X50931233Y-52613679D02*
X50931233Y-51724679D01*
X50931233Y-51724679D02*
X50846566Y-51851679D01*
X50846566Y-51851679D02*
X50761900Y-51936346D01*
X50761900Y-51936346D02*
X50677233Y-51978679D01*
D12*
X42549848Y-90592028D02*
X42588552Y-90475914D01*
X42588552Y-90475914D02*
X42588552Y-90282390D01*
X42588552Y-90282390D02*
X42549848Y-90204981D01*
X42549848Y-90204981D02*
X42511143Y-90166276D01*
X42511143Y-90166276D02*
X42433733Y-90127571D01*
X42433733Y-90127571D02*
X42356324Y-90127571D01*
X42356324Y-90127571D02*
X42278914Y-90166276D01*
X42278914Y-90166276D02*
X42240209Y-90204981D01*
X42240209Y-90204981D02*
X42201505Y-90282390D01*
X42201505Y-90282390D02*
X42162800Y-90437209D01*
X42162800Y-90437209D02*
X42124095Y-90514619D01*
X42124095Y-90514619D02*
X42085390Y-90553324D01*
X42085390Y-90553324D02*
X42007981Y-90592028D01*
X42007981Y-90592028D02*
X41930571Y-90592028D01*
X41930571Y-90592028D02*
X41853162Y-90553324D01*
X41853162Y-90553324D02*
X41814457Y-90514619D01*
X41814457Y-90514619D02*
X41775752Y-90437209D01*
X41775752Y-90437209D02*
X41775752Y-90243686D01*
X41775752Y-90243686D02*
X41814457Y-90127571D01*
X42511143Y-89314772D02*
X42549848Y-89353476D01*
X42549848Y-89353476D02*
X42588552Y-89469591D01*
X42588552Y-89469591D02*
X42588552Y-89547000D01*
X42588552Y-89547000D02*
X42549848Y-89663114D01*
X42549848Y-89663114D02*
X42472438Y-89740524D01*
X42472438Y-89740524D02*
X42395028Y-89779229D01*
X42395028Y-89779229D02*
X42240209Y-89817933D01*
X42240209Y-89817933D02*
X42124095Y-89817933D01*
X42124095Y-89817933D02*
X41969276Y-89779229D01*
X41969276Y-89779229D02*
X41891867Y-89740524D01*
X41891867Y-89740524D02*
X41814457Y-89663114D01*
X41814457Y-89663114D02*
X41775752Y-89547000D01*
X41775752Y-89547000D02*
X41775752Y-89469591D01*
X41775752Y-89469591D02*
X41814457Y-89353476D01*
X41814457Y-89353476D02*
X41853162Y-89314772D01*
X42588552Y-88579381D02*
X42588552Y-88966429D01*
X42588552Y-88966429D02*
X41775752Y-88966429D01*
X45166972Y-90592028D02*
X45205676Y-90475914D01*
X45205676Y-90475914D02*
X45205676Y-90282390D01*
X45205676Y-90282390D02*
X45166972Y-90204981D01*
X45166972Y-90204981D02*
X45128267Y-90166276D01*
X45128267Y-90166276D02*
X45050857Y-90127571D01*
X45050857Y-90127571D02*
X44973448Y-90127571D01*
X44973448Y-90127571D02*
X44896038Y-90166276D01*
X44896038Y-90166276D02*
X44857333Y-90204981D01*
X44857333Y-90204981D02*
X44818629Y-90282390D01*
X44818629Y-90282390D02*
X44779924Y-90437209D01*
X44779924Y-90437209D02*
X44741219Y-90514619D01*
X44741219Y-90514619D02*
X44702514Y-90553324D01*
X44702514Y-90553324D02*
X44625105Y-90592028D01*
X44625105Y-90592028D02*
X44547695Y-90592028D01*
X44547695Y-90592028D02*
X44470286Y-90553324D01*
X44470286Y-90553324D02*
X44431581Y-90514619D01*
X44431581Y-90514619D02*
X44392876Y-90437209D01*
X44392876Y-90437209D02*
X44392876Y-90243686D01*
X44392876Y-90243686D02*
X44431581Y-90127571D01*
X45205676Y-89779229D02*
X44392876Y-89779229D01*
X44392876Y-89779229D02*
X44392876Y-89585705D01*
X44392876Y-89585705D02*
X44431581Y-89469591D01*
X44431581Y-89469591D02*
X44508991Y-89392181D01*
X44508991Y-89392181D02*
X44586400Y-89353476D01*
X44586400Y-89353476D02*
X44741219Y-89314772D01*
X44741219Y-89314772D02*
X44857333Y-89314772D01*
X44857333Y-89314772D02*
X45012152Y-89353476D01*
X45012152Y-89353476D02*
X45089562Y-89392181D01*
X45089562Y-89392181D02*
X45166972Y-89469591D01*
X45166972Y-89469591D02*
X45205676Y-89585705D01*
X45205676Y-89585705D02*
X45205676Y-89779229D01*
X44973448Y-89005133D02*
X44973448Y-88618086D01*
X45205676Y-89082543D02*
X44392876Y-88811610D01*
X44392876Y-88811610D02*
X45205676Y-88540676D01*
X47010000Y-90630733D02*
X47010000Y-90127571D01*
X47010000Y-90127571D02*
X47319638Y-90398505D01*
X47319638Y-90398505D02*
X47319638Y-90282390D01*
X47319638Y-90282390D02*
X47358343Y-90204981D01*
X47358343Y-90204981D02*
X47397048Y-90166276D01*
X47397048Y-90166276D02*
X47474457Y-90127571D01*
X47474457Y-90127571D02*
X47667981Y-90127571D01*
X47667981Y-90127571D02*
X47745391Y-90166276D01*
X47745391Y-90166276D02*
X47784096Y-90204981D01*
X47784096Y-90204981D02*
X47822800Y-90282390D01*
X47822800Y-90282390D02*
X47822800Y-90514619D01*
X47822800Y-90514619D02*
X47784096Y-90592028D01*
X47784096Y-90592028D02*
X47745391Y-90630733D01*
X47010000Y-89895343D02*
X47822800Y-89624410D01*
X47822800Y-89624410D02*
X47010000Y-89353476D01*
X47010000Y-89159952D02*
X47010000Y-88656790D01*
X47010000Y-88656790D02*
X47319638Y-88927724D01*
X47319638Y-88927724D02*
X47319638Y-88811609D01*
X47319638Y-88811609D02*
X47358343Y-88734200D01*
X47358343Y-88734200D02*
X47397048Y-88695495D01*
X47397048Y-88695495D02*
X47474457Y-88656790D01*
X47474457Y-88656790D02*
X47667981Y-88656790D01*
X47667981Y-88656790D02*
X47745391Y-88695495D01*
X47745391Y-88695495D02*
X47784096Y-88734200D01*
X47784096Y-88734200D02*
X47822800Y-88811609D01*
X47822800Y-88811609D02*
X47822800Y-89043838D01*
X47822800Y-89043838D02*
X47784096Y-89121247D01*
X47784096Y-89121247D02*
X47745391Y-89159952D01*
X49665829Y-90127571D02*
X49627124Y-90204981D01*
X49627124Y-90204981D02*
X49627124Y-90321095D01*
X49627124Y-90321095D02*
X49665829Y-90437209D01*
X49665829Y-90437209D02*
X49743239Y-90514619D01*
X49743239Y-90514619D02*
X49820648Y-90553324D01*
X49820648Y-90553324D02*
X49975467Y-90592028D01*
X49975467Y-90592028D02*
X50091581Y-90592028D01*
X50091581Y-90592028D02*
X50246400Y-90553324D01*
X50246400Y-90553324D02*
X50323810Y-90514619D01*
X50323810Y-90514619D02*
X50401220Y-90437209D01*
X50401220Y-90437209D02*
X50439924Y-90321095D01*
X50439924Y-90321095D02*
X50439924Y-90243686D01*
X50439924Y-90243686D02*
X50401220Y-90127571D01*
X50401220Y-90127571D02*
X50362515Y-90088867D01*
X50362515Y-90088867D02*
X50091581Y-90088867D01*
X50091581Y-90088867D02*
X50091581Y-90243686D01*
X50439924Y-89740524D02*
X49627124Y-89740524D01*
X49627124Y-89740524D02*
X50439924Y-89276067D01*
X50439924Y-89276067D02*
X49627124Y-89276067D01*
X50439924Y-88889019D02*
X49627124Y-88889019D01*
X49627124Y-88889019D02*
X49627124Y-88695495D01*
X49627124Y-88695495D02*
X49665829Y-88579381D01*
X49665829Y-88579381D02*
X49743239Y-88501971D01*
X49743239Y-88501971D02*
X49820648Y-88463266D01*
X49820648Y-88463266D02*
X49975467Y-88424562D01*
X49975467Y-88424562D02*
X50091581Y-88424562D01*
X50091581Y-88424562D02*
X50246400Y-88463266D01*
X50246400Y-88463266D02*
X50323810Y-88501971D01*
X50323810Y-88501971D02*
X50401220Y-88579381D01*
X50401220Y-88579381D02*
X50439924Y-88695495D01*
X50439924Y-88695495D02*
X50439924Y-88889019D01*
D13*
X4785226Y-77200093D02*
X5559322Y-77200093D01*
X5172274Y-77587140D02*
X5172274Y-76813045D01*
X4785226Y-80471499D02*
X5559322Y-80471499D01*
X4785226Y-86682761D02*
X5559322Y-86682761D01*
X5172274Y-87069808D02*
X5172274Y-86295713D01*
X4785226Y-89954167D02*
X5559322Y-89954167D01*
D14*
X50501946Y-4386369D02*
X51046232Y-4005369D01*
X50501946Y-3733226D02*
X51644946Y-3733226D01*
X51644946Y-3733226D02*
X51644946Y-4168655D01*
X51644946Y-4168655D02*
X51590517Y-4277512D01*
X51590517Y-4277512D02*
X51536089Y-4331941D01*
X51536089Y-4331941D02*
X51427232Y-4386369D01*
X51427232Y-4386369D02*
X51263946Y-4386369D01*
X51263946Y-4386369D02*
X51155089Y-4331941D01*
X51155089Y-4331941D02*
X51100660Y-4277512D01*
X51100660Y-4277512D02*
X51046232Y-4168655D01*
X51046232Y-4168655D02*
X51046232Y-3733226D01*
X50556375Y-5311655D02*
X50501946Y-5202798D01*
X50501946Y-5202798D02*
X50501946Y-4985084D01*
X50501946Y-4985084D02*
X50556375Y-4876226D01*
X50556375Y-4876226D02*
X50665232Y-4821798D01*
X50665232Y-4821798D02*
X51100660Y-4821798D01*
X51100660Y-4821798D02*
X51209517Y-4876226D01*
X51209517Y-4876226D02*
X51263946Y-4985084D01*
X51263946Y-4985084D02*
X51263946Y-5202798D01*
X51263946Y-5202798D02*
X51209517Y-5311655D01*
X51209517Y-5311655D02*
X51100660Y-5366084D01*
X51100660Y-5366084D02*
X50991803Y-5366084D01*
X50991803Y-5366084D02*
X50882946Y-4821798D01*
X50501946Y-5855940D02*
X51263946Y-5855940D01*
X51155089Y-5855940D02*
X51209517Y-5910369D01*
X51209517Y-5910369D02*
X51263946Y-6019226D01*
X51263946Y-6019226D02*
X51263946Y-6182512D01*
X51263946Y-6182512D02*
X51209517Y-6291369D01*
X51209517Y-6291369D02*
X51100660Y-6345798D01*
X51100660Y-6345798D02*
X50501946Y-6345798D01*
X51100660Y-6345798D02*
X51209517Y-6400226D01*
X51209517Y-6400226D02*
X51263946Y-6509083D01*
X51263946Y-6509083D02*
X51263946Y-6672369D01*
X51263946Y-6672369D02*
X51209517Y-6781226D01*
X51209517Y-6781226D02*
X51100660Y-6835655D01*
X51100660Y-6835655D02*
X50501946Y-6835655D01*
X50501946Y-7543226D02*
X50556375Y-7434369D01*
X50556375Y-7434369D02*
X50610803Y-7379940D01*
X50610803Y-7379940D02*
X50719660Y-7325512D01*
X50719660Y-7325512D02*
X51046232Y-7325512D01*
X51046232Y-7325512D02*
X51155089Y-7379940D01*
X51155089Y-7379940D02*
X51209517Y-7434369D01*
X51209517Y-7434369D02*
X51263946Y-7543226D01*
X51263946Y-7543226D02*
X51263946Y-7706512D01*
X51263946Y-7706512D02*
X51209517Y-7815369D01*
X51209517Y-7815369D02*
X51155089Y-7869798D01*
X51155089Y-7869798D02*
X51046232Y-7924226D01*
X51046232Y-7924226D02*
X50719660Y-7924226D01*
X50719660Y-7924226D02*
X50610803Y-7869798D01*
X50610803Y-7869798D02*
X50556375Y-7815369D01*
X50556375Y-7815369D02*
X50501946Y-7706512D01*
X50501946Y-7706512D02*
X50501946Y-7543226D01*
X51263946Y-8250798D02*
X51263946Y-8686226D01*
X51644946Y-8414083D02*
X50665232Y-8414083D01*
X50665232Y-8414083D02*
X50556375Y-8468512D01*
X50556375Y-8468512D02*
X50501946Y-8577369D01*
X50501946Y-8577369D02*
X50501946Y-8686226D01*
X50556375Y-9502655D02*
X50501946Y-9393798D01*
X50501946Y-9393798D02*
X50501946Y-9176084D01*
X50501946Y-9176084D02*
X50556375Y-9067226D01*
X50556375Y-9067226D02*
X50665232Y-9012798D01*
X50665232Y-9012798D02*
X51100660Y-9012798D01*
X51100660Y-9012798D02*
X51209517Y-9067226D01*
X51209517Y-9067226D02*
X51263946Y-9176084D01*
X51263946Y-9176084D02*
X51263946Y-9393798D01*
X51263946Y-9393798D02*
X51209517Y-9502655D01*
X51209517Y-9502655D02*
X51100660Y-9557084D01*
X51100660Y-9557084D02*
X50991803Y-9557084D01*
X50991803Y-9557084D02*
X50882946Y-9012798D01*
X50501946Y-10917797D02*
X51644946Y-10917797D01*
X51644946Y-10917797D02*
X50828517Y-11298797D01*
X50828517Y-11298797D02*
X51644946Y-11679797D01*
X51644946Y-11679797D02*
X50501946Y-11679797D01*
X50501946Y-12387369D02*
X50556375Y-12278512D01*
X50556375Y-12278512D02*
X50610803Y-12224083D01*
X50610803Y-12224083D02*
X50719660Y-12169655D01*
X50719660Y-12169655D02*
X51046232Y-12169655D01*
X51046232Y-12169655D02*
X51155089Y-12224083D01*
X51155089Y-12224083D02*
X51209517Y-12278512D01*
X51209517Y-12278512D02*
X51263946Y-12387369D01*
X51263946Y-12387369D02*
X51263946Y-12550655D01*
X51263946Y-12550655D02*
X51209517Y-12659512D01*
X51209517Y-12659512D02*
X51155089Y-12713941D01*
X51155089Y-12713941D02*
X51046232Y-12768369D01*
X51046232Y-12768369D02*
X50719660Y-12768369D01*
X50719660Y-12768369D02*
X50610803Y-12713941D01*
X50610803Y-12713941D02*
X50556375Y-12659512D01*
X50556375Y-12659512D02*
X50501946Y-12550655D01*
X50501946Y-12550655D02*
X50501946Y-12387369D01*
X51263946Y-13258226D02*
X50501946Y-13258226D01*
X51155089Y-13258226D02*
X51209517Y-13312655D01*
X51209517Y-13312655D02*
X51263946Y-13421512D01*
X51263946Y-13421512D02*
X51263946Y-13584798D01*
X51263946Y-13584798D02*
X51209517Y-13693655D01*
X51209517Y-13693655D02*
X51100660Y-13748084D01*
X51100660Y-13748084D02*
X50501946Y-13748084D01*
X50501946Y-14292369D02*
X51263946Y-14292369D01*
X51644946Y-14292369D02*
X51590517Y-14237941D01*
X51590517Y-14237941D02*
X51536089Y-14292369D01*
X51536089Y-14292369D02*
X51590517Y-14346798D01*
X51590517Y-14346798D02*
X51644946Y-14292369D01*
X51644946Y-14292369D02*
X51536089Y-14292369D01*
X51263946Y-14673370D02*
X51263946Y-15108798D01*
X51644946Y-14836655D02*
X50665232Y-14836655D01*
X50665232Y-14836655D02*
X50556375Y-14891084D01*
X50556375Y-14891084D02*
X50501946Y-14999941D01*
X50501946Y-14999941D02*
X50501946Y-15108798D01*
X50501946Y-15653084D02*
X50556375Y-15544227D01*
X50556375Y-15544227D02*
X50610803Y-15489798D01*
X50610803Y-15489798D02*
X50719660Y-15435370D01*
X50719660Y-15435370D02*
X51046232Y-15435370D01*
X51046232Y-15435370D02*
X51155089Y-15489798D01*
X51155089Y-15489798D02*
X51209517Y-15544227D01*
X51209517Y-15544227D02*
X51263946Y-15653084D01*
X51263946Y-15653084D02*
X51263946Y-15816370D01*
X51263946Y-15816370D02*
X51209517Y-15925227D01*
X51209517Y-15925227D02*
X51155089Y-15979656D01*
X51155089Y-15979656D02*
X51046232Y-16034084D01*
X51046232Y-16034084D02*
X50719660Y-16034084D01*
X50719660Y-16034084D02*
X50610803Y-15979656D01*
X50610803Y-15979656D02*
X50556375Y-15925227D01*
X50556375Y-15925227D02*
X50501946Y-15816370D01*
X50501946Y-15816370D02*
X50501946Y-15653084D01*
X50501946Y-16523941D02*
X51263946Y-16523941D01*
X51046232Y-16523941D02*
X51155089Y-16578370D01*
X51155089Y-16578370D02*
X51209517Y-16632799D01*
X51209517Y-16632799D02*
X51263946Y-16741656D01*
X51263946Y-16741656D02*
X51263946Y-16850513D01*
X50501946Y-17231512D02*
X51263946Y-17231512D01*
X51644946Y-17231512D02*
X51590517Y-17177084D01*
X51590517Y-17177084D02*
X51536089Y-17231512D01*
X51536089Y-17231512D02*
X51590517Y-17285941D01*
X51590517Y-17285941D02*
X51644946Y-17231512D01*
X51644946Y-17231512D02*
X51536089Y-17231512D01*
X51263946Y-17775798D02*
X50501946Y-17775798D01*
X51155089Y-17775798D02*
X51209517Y-17830227D01*
X51209517Y-17830227D02*
X51263946Y-17939084D01*
X51263946Y-17939084D02*
X51263946Y-18102370D01*
X51263946Y-18102370D02*
X51209517Y-18211227D01*
X51209517Y-18211227D02*
X51100660Y-18265656D01*
X51100660Y-18265656D02*
X50501946Y-18265656D01*
X51263946Y-19299799D02*
X50338660Y-19299799D01*
X50338660Y-19299799D02*
X50229803Y-19245370D01*
X50229803Y-19245370D02*
X50175375Y-19190941D01*
X50175375Y-19190941D02*
X50120946Y-19082084D01*
X50120946Y-19082084D02*
X50120946Y-18918799D01*
X50120946Y-18918799D02*
X50175375Y-18809941D01*
X50556375Y-19299799D02*
X50501946Y-19190941D01*
X50501946Y-19190941D02*
X50501946Y-18973227D01*
X50501946Y-18973227D02*
X50556375Y-18864370D01*
X50556375Y-18864370D02*
X50610803Y-18809941D01*
X50610803Y-18809941D02*
X50719660Y-18755513D01*
X50719660Y-18755513D02*
X51046232Y-18755513D01*
X51046232Y-18755513D02*
X51155089Y-18809941D01*
X51155089Y-18809941D02*
X51209517Y-18864370D01*
X51209517Y-18864370D02*
X51263946Y-18973227D01*
X51263946Y-18973227D02*
X51263946Y-19190941D01*
X51263946Y-19190941D02*
X51209517Y-19299799D01*
X48661780Y-3733226D02*
X49804780Y-3733226D01*
X49804780Y-3733226D02*
X49804780Y-4005369D01*
X49804780Y-4005369D02*
X49750351Y-4168655D01*
X49750351Y-4168655D02*
X49641494Y-4277512D01*
X49641494Y-4277512D02*
X49532637Y-4331941D01*
X49532637Y-4331941D02*
X49314923Y-4386369D01*
X49314923Y-4386369D02*
X49151637Y-4386369D01*
X49151637Y-4386369D02*
X48933923Y-4331941D01*
X48933923Y-4331941D02*
X48825066Y-4277512D01*
X48825066Y-4277512D02*
X48716209Y-4168655D01*
X48716209Y-4168655D02*
X48661780Y-4005369D01*
X48661780Y-4005369D02*
X48661780Y-3733226D01*
X48661780Y-4876226D02*
X49423780Y-4876226D01*
X49804780Y-4876226D02*
X49750351Y-4821798D01*
X49750351Y-4821798D02*
X49695923Y-4876226D01*
X49695923Y-4876226D02*
X49750351Y-4930655D01*
X49750351Y-4930655D02*
X49804780Y-4876226D01*
X49804780Y-4876226D02*
X49695923Y-4876226D01*
X49423780Y-5910370D02*
X48498494Y-5910370D01*
X48498494Y-5910370D02*
X48389637Y-5855941D01*
X48389637Y-5855941D02*
X48335209Y-5801512D01*
X48335209Y-5801512D02*
X48280780Y-5692655D01*
X48280780Y-5692655D02*
X48280780Y-5529370D01*
X48280780Y-5529370D02*
X48335209Y-5420512D01*
X48716209Y-5910370D02*
X48661780Y-5801512D01*
X48661780Y-5801512D02*
X48661780Y-5583798D01*
X48661780Y-5583798D02*
X48716209Y-5474941D01*
X48716209Y-5474941D02*
X48770637Y-5420512D01*
X48770637Y-5420512D02*
X48879494Y-5366084D01*
X48879494Y-5366084D02*
X49206066Y-5366084D01*
X49206066Y-5366084D02*
X49314923Y-5420512D01*
X49314923Y-5420512D02*
X49369351Y-5474941D01*
X49369351Y-5474941D02*
X49423780Y-5583798D01*
X49423780Y-5583798D02*
X49423780Y-5801512D01*
X49423780Y-5801512D02*
X49369351Y-5910370D01*
X48661780Y-6454655D02*
X49423780Y-6454655D01*
X49804780Y-6454655D02*
X49750351Y-6400227D01*
X49750351Y-6400227D02*
X49695923Y-6454655D01*
X49695923Y-6454655D02*
X49750351Y-6509084D01*
X49750351Y-6509084D02*
X49804780Y-6454655D01*
X49804780Y-6454655D02*
X49695923Y-6454655D01*
X49423780Y-6835656D02*
X49423780Y-7271084D01*
X49804780Y-6998941D02*
X48825066Y-6998941D01*
X48825066Y-6998941D02*
X48716209Y-7053370D01*
X48716209Y-7053370D02*
X48661780Y-7162227D01*
X48661780Y-7162227D02*
X48661780Y-7271084D01*
X48661780Y-8141942D02*
X49260494Y-8141942D01*
X49260494Y-8141942D02*
X49369351Y-8087513D01*
X49369351Y-8087513D02*
X49423780Y-7978656D01*
X49423780Y-7978656D02*
X49423780Y-7760942D01*
X49423780Y-7760942D02*
X49369351Y-7652084D01*
X48716209Y-8141942D02*
X48661780Y-8033084D01*
X48661780Y-8033084D02*
X48661780Y-7760942D01*
X48661780Y-7760942D02*
X48716209Y-7652084D01*
X48716209Y-7652084D02*
X48825066Y-7597656D01*
X48825066Y-7597656D02*
X48933923Y-7597656D01*
X48933923Y-7597656D02*
X49042780Y-7652084D01*
X49042780Y-7652084D02*
X49097209Y-7760942D01*
X49097209Y-7760942D02*
X49097209Y-8033084D01*
X49097209Y-8033084D02*
X49151637Y-8141942D01*
X48661780Y-8849513D02*
X48716209Y-8740656D01*
X48716209Y-8740656D02*
X48825066Y-8686227D01*
X48825066Y-8686227D02*
X49804780Y-8686227D01*
X49804780Y-10373513D02*
X49804780Y-10591227D01*
X49804780Y-10591227D02*
X49750351Y-10700084D01*
X49750351Y-10700084D02*
X49641494Y-10808941D01*
X49641494Y-10808941D02*
X49423780Y-10863370D01*
X49423780Y-10863370D02*
X49042780Y-10863370D01*
X49042780Y-10863370D02*
X48825066Y-10808941D01*
X48825066Y-10808941D02*
X48716209Y-10700084D01*
X48716209Y-10700084D02*
X48661780Y-10591227D01*
X48661780Y-10591227D02*
X48661780Y-10373513D01*
X48661780Y-10373513D02*
X48716209Y-10264656D01*
X48716209Y-10264656D02*
X48825066Y-10155798D01*
X48825066Y-10155798D02*
X49042780Y-10101370D01*
X49042780Y-10101370D02*
X49423780Y-10101370D01*
X49423780Y-10101370D02*
X49641494Y-10155798D01*
X49641494Y-10155798D02*
X49750351Y-10264656D01*
X49750351Y-10264656D02*
X49804780Y-10373513D01*
X49423780Y-11843085D02*
X48661780Y-11843085D01*
X49423780Y-11353227D02*
X48825066Y-11353227D01*
X48825066Y-11353227D02*
X48716209Y-11407656D01*
X48716209Y-11407656D02*
X48661780Y-11516513D01*
X48661780Y-11516513D02*
X48661780Y-11679799D01*
X48661780Y-11679799D02*
X48716209Y-11788656D01*
X48716209Y-11788656D02*
X48770637Y-11843085D01*
X49423780Y-12224085D02*
X49423780Y-12659513D01*
X49804780Y-12387370D02*
X48825066Y-12387370D01*
X48825066Y-12387370D02*
X48716209Y-12441799D01*
X48716209Y-12441799D02*
X48661780Y-12550656D01*
X48661780Y-12550656D02*
X48661780Y-12659513D01*
X49423780Y-13040513D02*
X48280780Y-13040513D01*
X49369351Y-13040513D02*
X49423780Y-13149371D01*
X49423780Y-13149371D02*
X49423780Y-13367085D01*
X49423780Y-13367085D02*
X49369351Y-13475942D01*
X49369351Y-13475942D02*
X49314923Y-13530371D01*
X49314923Y-13530371D02*
X49206066Y-13584799D01*
X49206066Y-13584799D02*
X48879494Y-13584799D01*
X48879494Y-13584799D02*
X48770637Y-13530371D01*
X48770637Y-13530371D02*
X48716209Y-13475942D01*
X48716209Y-13475942D02*
X48661780Y-13367085D01*
X48661780Y-13367085D02*
X48661780Y-13149371D01*
X48661780Y-13149371D02*
X48716209Y-13040513D01*
X49423780Y-14564514D02*
X48661780Y-14564514D01*
X49423780Y-14074656D02*
X48825066Y-14074656D01*
X48825066Y-14074656D02*
X48716209Y-14129085D01*
X48716209Y-14129085D02*
X48661780Y-14237942D01*
X48661780Y-14237942D02*
X48661780Y-14401228D01*
X48661780Y-14401228D02*
X48716209Y-14510085D01*
X48716209Y-14510085D02*
X48770637Y-14564514D01*
X49423780Y-14945514D02*
X49423780Y-15380942D01*
X49804780Y-15108799D02*
X48825066Y-15108799D01*
X48825066Y-15108799D02*
X48716209Y-15163228D01*
X48716209Y-15163228D02*
X48661780Y-15272085D01*
X48661780Y-15272085D02*
X48661780Y-15380942D01*
X48716209Y-15707514D02*
X48661780Y-15816371D01*
X48661780Y-15816371D02*
X48661780Y-16034085D01*
X48661780Y-16034085D02*
X48716209Y-16142942D01*
X48716209Y-16142942D02*
X48825066Y-16197371D01*
X48825066Y-16197371D02*
X48879494Y-16197371D01*
X48879494Y-16197371D02*
X48988351Y-16142942D01*
X48988351Y-16142942D02*
X49042780Y-16034085D01*
X49042780Y-16034085D02*
X49042780Y-15870800D01*
X49042780Y-15870800D02*
X49097209Y-15761942D01*
X49097209Y-15761942D02*
X49206066Y-15707514D01*
X49206066Y-15707514D02*
X49260494Y-15707514D01*
X49260494Y-15707514D02*
X49369351Y-15761942D01*
X49369351Y-15761942D02*
X49423780Y-15870800D01*
X49423780Y-15870800D02*
X49423780Y-16034085D01*
X49423780Y-16034085D02*
X49369351Y-16142942D01*
X46821614Y-3733226D02*
X47964614Y-3733226D01*
X47964614Y-3733226D02*
X47148185Y-4114226D01*
X47148185Y-4114226D02*
X47964614Y-4495226D01*
X47964614Y-4495226D02*
X46821614Y-4495226D01*
X47964614Y-5257227D02*
X47964614Y-5474941D01*
X47964614Y-5474941D02*
X47910185Y-5583798D01*
X47910185Y-5583798D02*
X47801328Y-5692655D01*
X47801328Y-5692655D02*
X47583614Y-5747084D01*
X47583614Y-5747084D02*
X47202614Y-5747084D01*
X47202614Y-5747084D02*
X46984900Y-5692655D01*
X46984900Y-5692655D02*
X46876043Y-5583798D01*
X46876043Y-5583798D02*
X46821614Y-5474941D01*
X46821614Y-5474941D02*
X46821614Y-5257227D01*
X46821614Y-5257227D02*
X46876043Y-5148370D01*
X46876043Y-5148370D02*
X46984900Y-5039512D01*
X46984900Y-5039512D02*
X47202614Y-4985084D01*
X47202614Y-4985084D02*
X47583614Y-4985084D01*
X47583614Y-4985084D02*
X47801328Y-5039512D01*
X47801328Y-5039512D02*
X47910185Y-5148370D01*
X47910185Y-5148370D02*
X47964614Y-5257227D01*
X46821614Y-6236941D02*
X47964614Y-6236941D01*
X47964614Y-6236941D02*
X46821614Y-6890084D01*
X46821614Y-6890084D02*
X47964614Y-6890084D01*
X47257043Y-7434370D02*
X47257043Y-8305228D01*
X46821614Y-8849513D02*
X47964614Y-8849513D01*
X47964614Y-8849513D02*
X47964614Y-9121656D01*
X47964614Y-9121656D02*
X47910185Y-9284942D01*
X47910185Y-9284942D02*
X47801328Y-9393799D01*
X47801328Y-9393799D02*
X47692471Y-9448228D01*
X47692471Y-9448228D02*
X47474757Y-9502656D01*
X47474757Y-9502656D02*
X47311471Y-9502656D01*
X47311471Y-9502656D02*
X47093757Y-9448228D01*
X47093757Y-9448228D02*
X46984900Y-9393799D01*
X46984900Y-9393799D02*
X46876043Y-9284942D01*
X46876043Y-9284942D02*
X46821614Y-9121656D01*
X46821614Y-9121656D02*
X46821614Y-8849513D01*
X47964614Y-10210228D02*
X47964614Y-10427942D01*
X47964614Y-10427942D02*
X47910185Y-10536799D01*
X47910185Y-10536799D02*
X47801328Y-10645656D01*
X47801328Y-10645656D02*
X47583614Y-10700085D01*
X47583614Y-10700085D02*
X47202614Y-10700085D01*
X47202614Y-10700085D02*
X46984900Y-10645656D01*
X46984900Y-10645656D02*
X46876043Y-10536799D01*
X46876043Y-10536799D02*
X46821614Y-10427942D01*
X46821614Y-10427942D02*
X46821614Y-10210228D01*
X46821614Y-10210228D02*
X46876043Y-10101371D01*
X46876043Y-10101371D02*
X46984900Y-9992513D01*
X46984900Y-9992513D02*
X47202614Y-9938085D01*
X47202614Y-9938085D02*
X47583614Y-9938085D01*
X47583614Y-9938085D02*
X47801328Y-9992513D01*
X47801328Y-9992513D02*
X47910185Y-10101371D01*
X47910185Y-10101371D02*
X47964614Y-10210228D01*
X47257043Y-11189942D02*
X47257043Y-12060800D01*
X47964614Y-12822800D02*
X47964614Y-12931657D01*
X47964614Y-12931657D02*
X47910185Y-13040514D01*
X47910185Y-13040514D02*
X47855757Y-13094943D01*
X47855757Y-13094943D02*
X47746900Y-13149371D01*
X47746900Y-13149371D02*
X47529185Y-13203800D01*
X47529185Y-13203800D02*
X47257043Y-13203800D01*
X47257043Y-13203800D02*
X47039328Y-13149371D01*
X47039328Y-13149371D02*
X46930471Y-13094943D01*
X46930471Y-13094943D02*
X46876043Y-13040514D01*
X46876043Y-13040514D02*
X46821614Y-12931657D01*
X46821614Y-12931657D02*
X46821614Y-12822800D01*
X46821614Y-12822800D02*
X46876043Y-12713943D01*
X46876043Y-12713943D02*
X46930471Y-12659514D01*
X46930471Y-12659514D02*
X47039328Y-12605085D01*
X47039328Y-12605085D02*
X47257043Y-12550657D01*
X47257043Y-12550657D02*
X47529185Y-12550657D01*
X47529185Y-12550657D02*
X47746900Y-12605085D01*
X47746900Y-12605085D02*
X47855757Y-12659514D01*
X47855757Y-12659514D02*
X47910185Y-12713943D01*
X47910185Y-12713943D02*
X47964614Y-12822800D01*
X47964614Y-13584799D02*
X47964614Y-14346799D01*
X47964614Y-14346799D02*
X46821614Y-13856942D01*
X46124448Y-3624369D02*
X46124448Y-4331941D01*
X46124448Y-4331941D02*
X45689019Y-3950941D01*
X45689019Y-3950941D02*
X45689019Y-4114226D01*
X45689019Y-4114226D02*
X45634591Y-4223084D01*
X45634591Y-4223084D02*
X45580162Y-4277512D01*
X45580162Y-4277512D02*
X45471305Y-4331941D01*
X45471305Y-4331941D02*
X45199162Y-4331941D01*
X45199162Y-4331941D02*
X45090305Y-4277512D01*
X45090305Y-4277512D02*
X45035877Y-4223084D01*
X45035877Y-4223084D02*
X44981448Y-4114226D01*
X44981448Y-4114226D02*
X44981448Y-3787655D01*
X44981448Y-3787655D02*
X45035877Y-3678798D01*
X45035877Y-3678798D02*
X45090305Y-3624369D01*
X46070019Y-5420512D02*
X46124448Y-5311655D01*
X46124448Y-5311655D02*
X46124448Y-5148369D01*
X46124448Y-5148369D02*
X46070019Y-4985083D01*
X46070019Y-4985083D02*
X45961162Y-4876226D01*
X45961162Y-4876226D02*
X45852305Y-4821797D01*
X45852305Y-4821797D02*
X45634591Y-4767369D01*
X45634591Y-4767369D02*
X45471305Y-4767369D01*
X45471305Y-4767369D02*
X45253591Y-4821797D01*
X45253591Y-4821797D02*
X45144734Y-4876226D01*
X45144734Y-4876226D02*
X45035877Y-4985083D01*
X45035877Y-4985083D02*
X44981448Y-5148369D01*
X44981448Y-5148369D02*
X44981448Y-5257226D01*
X44981448Y-5257226D02*
X45035877Y-5420512D01*
X45035877Y-5420512D02*
X45090305Y-5474940D01*
X45090305Y-5474940D02*
X45471305Y-5474940D01*
X45471305Y-5474940D02*
X45471305Y-5257226D01*
X44981448Y-5964797D02*
X46124448Y-5964797D01*
X46124448Y-5964797D02*
X46124448Y-6236940D01*
X46124448Y-6236940D02*
X46070019Y-6400226D01*
X46070019Y-6400226D02*
X45961162Y-6509083D01*
X45961162Y-6509083D02*
X45852305Y-6563512D01*
X45852305Y-6563512D02*
X45634591Y-6617940D01*
X45634591Y-6617940D02*
X45471305Y-6617940D01*
X45471305Y-6617940D02*
X45253591Y-6563512D01*
X45253591Y-6563512D02*
X45144734Y-6509083D01*
X45144734Y-6509083D02*
X45035877Y-6400226D01*
X45035877Y-6400226D02*
X44981448Y-6236940D01*
X44981448Y-6236940D02*
X44981448Y-5964797D01*
X44981448Y-7760940D02*
X45525734Y-7379940D01*
X44981448Y-7107797D02*
X46124448Y-7107797D01*
X46124448Y-7107797D02*
X46124448Y-7543226D01*
X46124448Y-7543226D02*
X46070019Y-7652083D01*
X46070019Y-7652083D02*
X46015591Y-7706512D01*
X46015591Y-7706512D02*
X45906734Y-7760940D01*
X45906734Y-7760940D02*
X45743448Y-7760940D01*
X45743448Y-7760940D02*
X45634591Y-7706512D01*
X45634591Y-7706512D02*
X45580162Y-7652083D01*
X45580162Y-7652083D02*
X45525734Y-7543226D01*
X45525734Y-7543226D02*
X45525734Y-7107797D01*
X45416877Y-8250797D02*
X45416877Y-9121655D01*
X45580162Y-10046940D02*
X45580162Y-9665940D01*
X44981448Y-9665940D02*
X46124448Y-9665940D01*
X46124448Y-9665940D02*
X46124448Y-10210226D01*
X44981448Y-10645654D02*
X46124448Y-10645654D01*
X46124448Y-10645654D02*
X45308019Y-11026654D01*
X45308019Y-11026654D02*
X46124448Y-11407654D01*
X46124448Y-11407654D02*
X44981448Y-11407654D01*
D13*
X4785226Y-67717427D02*
X5559322Y-67717427D01*
X5172274Y-68104474D02*
X5172274Y-67330379D01*
X4785226Y-70988833D02*
X5559322Y-70988833D01*
X42642972Y-46552824D02*
X42788115Y-46601205D01*
X42788115Y-46601205D02*
X42836496Y-46649586D01*
X42836496Y-46649586D02*
X42884877Y-46746348D01*
X42884877Y-46746348D02*
X42884877Y-46891491D01*
X42884877Y-46891491D02*
X42836496Y-46988253D01*
X42836496Y-46988253D02*
X42788115Y-47036634D01*
X42788115Y-47036634D02*
X42691353Y-47085014D01*
X42691353Y-47085014D02*
X42304305Y-47085014D01*
X42304305Y-47085014D02*
X42304305Y-46069014D01*
X42304305Y-46069014D02*
X42642972Y-46069014D01*
X42642972Y-46069014D02*
X42739734Y-46117395D01*
X42739734Y-46117395D02*
X42788115Y-46165776D01*
X42788115Y-46165776D02*
X42836496Y-46262538D01*
X42836496Y-46262538D02*
X42836496Y-46359300D01*
X42836496Y-46359300D02*
X42788115Y-46456062D01*
X42788115Y-46456062D02*
X42739734Y-46504443D01*
X42739734Y-46504443D02*
X42642972Y-46552824D01*
X42642972Y-46552824D02*
X42304305Y-46552824D01*
X43513829Y-46069014D02*
X43707353Y-46069014D01*
X43707353Y-46069014D02*
X43804115Y-46117395D01*
X43804115Y-46117395D02*
X43900877Y-46214157D01*
X43900877Y-46214157D02*
X43949258Y-46407681D01*
X43949258Y-46407681D02*
X43949258Y-46746348D01*
X43949258Y-46746348D02*
X43900877Y-46939872D01*
X43900877Y-46939872D02*
X43804115Y-47036634D01*
X43804115Y-47036634D02*
X43707353Y-47085014D01*
X43707353Y-47085014D02*
X43513829Y-47085014D01*
X43513829Y-47085014D02*
X43417067Y-47036634D01*
X43417067Y-47036634D02*
X43320305Y-46939872D01*
X43320305Y-46939872D02*
X43271924Y-46746348D01*
X43271924Y-46746348D02*
X43271924Y-46407681D01*
X43271924Y-46407681D02*
X43320305Y-46214157D01*
X43320305Y-46214157D02*
X43417067Y-46117395D01*
X43417067Y-46117395D02*
X43513829Y-46069014D01*
X44336305Y-46794729D02*
X44820115Y-46794729D01*
X44239543Y-47085014D02*
X44578210Y-46069014D01*
X44578210Y-46069014D02*
X44916877Y-47085014D01*
X45836115Y-47085014D02*
X45497448Y-46601205D01*
X45255543Y-47085014D02*
X45255543Y-46069014D01*
X45255543Y-46069014D02*
X45642591Y-46069014D01*
X45642591Y-46069014D02*
X45739353Y-46117395D01*
X45739353Y-46117395D02*
X45787734Y-46165776D01*
X45787734Y-46165776D02*
X45836115Y-46262538D01*
X45836115Y-46262538D02*
X45836115Y-46407681D01*
X45836115Y-46407681D02*
X45787734Y-46504443D01*
X45787734Y-46504443D02*
X45739353Y-46552824D01*
X45739353Y-46552824D02*
X45642591Y-46601205D01*
X45642591Y-46601205D02*
X45255543Y-46601205D01*
X46271543Y-47085014D02*
X46271543Y-46069014D01*
X46271543Y-46069014D02*
X46513448Y-46069014D01*
X46513448Y-46069014D02*
X46658591Y-46117395D01*
X46658591Y-46117395D02*
X46755353Y-46214157D01*
X46755353Y-46214157D02*
X46803734Y-46310919D01*
X46803734Y-46310919D02*
X46852115Y-46504443D01*
X46852115Y-46504443D02*
X46852115Y-46649586D01*
X46852115Y-46649586D02*
X46803734Y-46843110D01*
X46803734Y-46843110D02*
X46755353Y-46939872D01*
X46755353Y-46939872D02*
X46658591Y-47036634D01*
X46658591Y-47036634D02*
X46513448Y-47085014D01*
X46513448Y-47085014D02*
X46271543Y-47085014D01*
X48013257Y-47036634D02*
X48158400Y-47085014D01*
X48158400Y-47085014D02*
X48400305Y-47085014D01*
X48400305Y-47085014D02*
X48497067Y-47036634D01*
X48497067Y-47036634D02*
X48545448Y-46988253D01*
X48545448Y-46988253D02*
X48593829Y-46891491D01*
X48593829Y-46891491D02*
X48593829Y-46794729D01*
X48593829Y-46794729D02*
X48545448Y-46697967D01*
X48545448Y-46697967D02*
X48497067Y-46649586D01*
X48497067Y-46649586D02*
X48400305Y-46601205D01*
X48400305Y-46601205D02*
X48206781Y-46552824D01*
X48206781Y-46552824D02*
X48110019Y-46504443D01*
X48110019Y-46504443D02*
X48061638Y-46456062D01*
X48061638Y-46456062D02*
X48013257Y-46359300D01*
X48013257Y-46359300D02*
X48013257Y-46262538D01*
X48013257Y-46262538D02*
X48061638Y-46165776D01*
X48061638Y-46165776D02*
X48110019Y-46117395D01*
X48110019Y-46117395D02*
X48206781Y-46069014D01*
X48206781Y-46069014D02*
X48448686Y-46069014D01*
X48448686Y-46069014D02*
X48593829Y-46117395D01*
X49029257Y-46552824D02*
X49367924Y-46552824D01*
X49513067Y-47085014D02*
X49029257Y-47085014D01*
X49029257Y-47085014D02*
X49029257Y-46069014D01*
X49029257Y-46069014D02*
X49513067Y-46069014D01*
X50432305Y-47085014D02*
X49948495Y-47085014D01*
X49948495Y-47085014D02*
X49948495Y-46069014D01*
X50770971Y-46552824D02*
X51109638Y-46552824D01*
X51254781Y-47085014D02*
X50770971Y-47085014D01*
X50770971Y-47085014D02*
X50770971Y-46069014D01*
X50770971Y-46069014D02*
X51254781Y-46069014D01*
X52270781Y-46988253D02*
X52222400Y-47036634D01*
X52222400Y-47036634D02*
X52077257Y-47085014D01*
X52077257Y-47085014D02*
X51980495Y-47085014D01*
X51980495Y-47085014D02*
X51835352Y-47036634D01*
X51835352Y-47036634D02*
X51738590Y-46939872D01*
X51738590Y-46939872D02*
X51690209Y-46843110D01*
X51690209Y-46843110D02*
X51641828Y-46649586D01*
X51641828Y-46649586D02*
X51641828Y-46504443D01*
X51641828Y-46504443D02*
X51690209Y-46310919D01*
X51690209Y-46310919D02*
X51738590Y-46214157D01*
X51738590Y-46214157D02*
X51835352Y-46117395D01*
X51835352Y-46117395D02*
X51980495Y-46069014D01*
X51980495Y-46069014D02*
X52077257Y-46069014D01*
X52077257Y-46069014D02*
X52222400Y-46117395D01*
X52222400Y-46117395D02*
X52270781Y-46165776D01*
X52561066Y-46069014D02*
X53141638Y-46069014D01*
X52851352Y-47085014D02*
X52851352Y-46069014D01*
D10*
X4814986Y-45254231D02*
X4814986Y-44441431D01*
X4814986Y-44441431D02*
X5279443Y-45254231D01*
X5279443Y-45254231D02*
X5279443Y-44441431D01*
X5821310Y-44441431D02*
X5976129Y-44441431D01*
X5976129Y-44441431D02*
X6053539Y-44480136D01*
X6053539Y-44480136D02*
X6130948Y-44557546D01*
X6130948Y-44557546D02*
X6169653Y-44712365D01*
X6169653Y-44712365D02*
X6169653Y-44983298D01*
X6169653Y-44983298D02*
X6130948Y-45138117D01*
X6130948Y-45138117D02*
X6053539Y-45215527D01*
X6053539Y-45215527D02*
X5976129Y-45254231D01*
X5976129Y-45254231D02*
X5821310Y-45254231D01*
X5821310Y-45254231D02*
X5743901Y-45215527D01*
X5743901Y-45215527D02*
X5666491Y-45138117D01*
X5666491Y-45138117D02*
X5627787Y-44983298D01*
X5627787Y-44983298D02*
X5627787Y-44712365D01*
X5627787Y-44712365D02*
X5666491Y-44557546D01*
X5666491Y-44557546D02*
X5743901Y-44480136D01*
X5743901Y-44480136D02*
X5821310Y-44441431D01*
X5279443Y-49102508D02*
X5240739Y-49141213D01*
X5240739Y-49141213D02*
X5124624Y-49179917D01*
X5124624Y-49179917D02*
X5047215Y-49179917D01*
X5047215Y-49179917D02*
X4931101Y-49141213D01*
X4931101Y-49141213D02*
X4853691Y-49063803D01*
X4853691Y-49063803D02*
X4814986Y-48986393D01*
X4814986Y-48986393D02*
X4776282Y-48831574D01*
X4776282Y-48831574D02*
X4776282Y-48715460D01*
X4776282Y-48715460D02*
X4814986Y-48560641D01*
X4814986Y-48560641D02*
X4853691Y-48483232D01*
X4853691Y-48483232D02*
X4931101Y-48405822D01*
X4931101Y-48405822D02*
X5047215Y-48367117D01*
X5047215Y-48367117D02*
X5124624Y-48367117D01*
X5124624Y-48367117D02*
X5240739Y-48405822D01*
X5240739Y-48405822D02*
X5279443Y-48444527D01*
X5782605Y-48367117D02*
X5937424Y-48367117D01*
X5937424Y-48367117D02*
X6014834Y-48405822D01*
X6014834Y-48405822D02*
X6092243Y-48483232D01*
X6092243Y-48483232D02*
X6130948Y-48638051D01*
X6130948Y-48638051D02*
X6130948Y-48908984D01*
X6130948Y-48908984D02*
X6092243Y-49063803D01*
X6092243Y-49063803D02*
X6014834Y-49141213D01*
X6014834Y-49141213D02*
X5937424Y-49179917D01*
X5937424Y-49179917D02*
X5782605Y-49179917D01*
X5782605Y-49179917D02*
X5705196Y-49141213D01*
X5705196Y-49141213D02*
X5627786Y-49063803D01*
X5627786Y-49063803D02*
X5589082Y-48908984D01*
X5589082Y-48908984D02*
X5589082Y-48638051D01*
X5589082Y-48638051D02*
X5627786Y-48483232D01*
X5627786Y-48483232D02*
X5705196Y-48405822D01*
X5705196Y-48405822D02*
X5782605Y-48367117D01*
X6479291Y-49179917D02*
X6479291Y-48367117D01*
X6479291Y-48367117D02*
X6750225Y-48947689D01*
X6750225Y-48947689D02*
X7021158Y-48367117D01*
X7021158Y-48367117D02*
X7021158Y-49179917D01*
X4814986Y-53105603D02*
X4814986Y-52292803D01*
X4814986Y-52292803D02*
X5279443Y-53105603D01*
X5279443Y-53105603D02*
X5279443Y-52292803D01*
X6130948Y-53028194D02*
X6092244Y-53066899D01*
X6092244Y-53066899D02*
X5976129Y-53105603D01*
X5976129Y-53105603D02*
X5898720Y-53105603D01*
X5898720Y-53105603D02*
X5782606Y-53066899D01*
X5782606Y-53066899D02*
X5705196Y-52989489D01*
X5705196Y-52989489D02*
X5666491Y-52912079D01*
X5666491Y-52912079D02*
X5627787Y-52757260D01*
X5627787Y-52757260D02*
X5627787Y-52641146D01*
X5627787Y-52641146D02*
X5666491Y-52486327D01*
X5666491Y-52486327D02*
X5705196Y-52408918D01*
X5705196Y-52408918D02*
X5782606Y-52331508D01*
X5782606Y-52331508D02*
X5898720Y-52292803D01*
X5898720Y-52292803D02*
X5976129Y-52292803D01*
X5976129Y-52292803D02*
X6092244Y-52331508D01*
X6092244Y-52331508D02*
X6130948Y-52370213D01*
D13*
X4785226Y-58234761D02*
X5559322Y-58234761D01*
X5172274Y-58621808D02*
X5172274Y-57847713D01*
X4785226Y-61506167D02*
X5559322Y-61506167D01*
D10*
X4764186Y-18431831D02*
X4764186Y-17619031D01*
X4764186Y-17619031D02*
X5228643Y-18431831D01*
X5228643Y-18431831D02*
X5228643Y-17619031D01*
X5770510Y-17619031D02*
X5925329Y-17619031D01*
X5925329Y-17619031D02*
X6002739Y-17657736D01*
X6002739Y-17657736D02*
X6080148Y-17735146D01*
X6080148Y-17735146D02*
X6118853Y-17889965D01*
X6118853Y-17889965D02*
X6118853Y-18160898D01*
X6118853Y-18160898D02*
X6080148Y-18315717D01*
X6080148Y-18315717D02*
X6002739Y-18393127D01*
X6002739Y-18393127D02*
X5925329Y-18431831D01*
X5925329Y-18431831D02*
X5770510Y-18431831D01*
X5770510Y-18431831D02*
X5693101Y-18393127D01*
X5693101Y-18393127D02*
X5615691Y-18315717D01*
X5615691Y-18315717D02*
X5576987Y-18160898D01*
X5576987Y-18160898D02*
X5576987Y-17889965D01*
X5576987Y-17889965D02*
X5615691Y-17735146D01*
X5615691Y-17735146D02*
X5693101Y-17657736D01*
X5693101Y-17657736D02*
X5770510Y-17619031D01*
X5228643Y-22280108D02*
X5189939Y-22318813D01*
X5189939Y-22318813D02*
X5073824Y-22357517D01*
X5073824Y-22357517D02*
X4996415Y-22357517D01*
X4996415Y-22357517D02*
X4880301Y-22318813D01*
X4880301Y-22318813D02*
X4802891Y-22241403D01*
X4802891Y-22241403D02*
X4764186Y-22163993D01*
X4764186Y-22163993D02*
X4725482Y-22009174D01*
X4725482Y-22009174D02*
X4725482Y-21893060D01*
X4725482Y-21893060D02*
X4764186Y-21738241D01*
X4764186Y-21738241D02*
X4802891Y-21660832D01*
X4802891Y-21660832D02*
X4880301Y-21583422D01*
X4880301Y-21583422D02*
X4996415Y-21544717D01*
X4996415Y-21544717D02*
X5073824Y-21544717D01*
X5073824Y-21544717D02*
X5189939Y-21583422D01*
X5189939Y-21583422D02*
X5228643Y-21622127D01*
X5731805Y-21544717D02*
X5886624Y-21544717D01*
X5886624Y-21544717D02*
X5964034Y-21583422D01*
X5964034Y-21583422D02*
X6041443Y-21660832D01*
X6041443Y-21660832D02*
X6080148Y-21815651D01*
X6080148Y-21815651D02*
X6080148Y-22086584D01*
X6080148Y-22086584D02*
X6041443Y-22241403D01*
X6041443Y-22241403D02*
X5964034Y-22318813D01*
X5964034Y-22318813D02*
X5886624Y-22357517D01*
X5886624Y-22357517D02*
X5731805Y-22357517D01*
X5731805Y-22357517D02*
X5654396Y-22318813D01*
X5654396Y-22318813D02*
X5576986Y-22241403D01*
X5576986Y-22241403D02*
X5538282Y-22086584D01*
X5538282Y-22086584D02*
X5538282Y-21815651D01*
X5538282Y-21815651D02*
X5576986Y-21660832D01*
X5576986Y-21660832D02*
X5654396Y-21583422D01*
X5654396Y-21583422D02*
X5731805Y-21544717D01*
X6428491Y-22357517D02*
X6428491Y-21544717D01*
X6428491Y-21544717D02*
X6699425Y-22125289D01*
X6699425Y-22125289D02*
X6970358Y-21544717D01*
X6970358Y-21544717D02*
X6970358Y-22357517D01*
X4764186Y-26283203D02*
X4764186Y-25470403D01*
X4764186Y-25470403D02*
X5228643Y-26283203D01*
X5228643Y-26283203D02*
X5228643Y-25470403D01*
X6080148Y-26205794D02*
X6041444Y-26244499D01*
X6041444Y-26244499D02*
X5925329Y-26283203D01*
X5925329Y-26283203D02*
X5847920Y-26283203D01*
X5847920Y-26283203D02*
X5731806Y-26244499D01*
X5731806Y-26244499D02*
X5654396Y-26167089D01*
X5654396Y-26167089D02*
X5615691Y-26089679D01*
X5615691Y-26089679D02*
X5576987Y-25934860D01*
X5576987Y-25934860D02*
X5576987Y-25818746D01*
X5576987Y-25818746D02*
X5615691Y-25663927D01*
X5615691Y-25663927D02*
X5654396Y-25586518D01*
X5654396Y-25586518D02*
X5731806Y-25509108D01*
X5731806Y-25509108D02*
X5847920Y-25470403D01*
X5847920Y-25470403D02*
X5925329Y-25470403D01*
X5925329Y-25470403D02*
X6041444Y-25509108D01*
X6041444Y-25509108D02*
X6080148Y-25547813D01*
D15*
X28505161Y-58563657D02*
X28409923Y-58516038D01*
X28409923Y-58516038D02*
X28314685Y-58420800D01*
X28314685Y-58420800D02*
X28171828Y-58277942D01*
X28171828Y-58277942D02*
X28076590Y-58230323D01*
X28076590Y-58230323D02*
X27981352Y-58230323D01*
X28028971Y-58468419D02*
X27933733Y-58420800D01*
X27933733Y-58420800D02*
X27838495Y-58325561D01*
X27838495Y-58325561D02*
X27790876Y-58135085D01*
X27790876Y-58135085D02*
X27790876Y-57801752D01*
X27790876Y-57801752D02*
X27838495Y-57611276D01*
X27838495Y-57611276D02*
X27933733Y-57516038D01*
X27933733Y-57516038D02*
X28028971Y-57468419D01*
X28028971Y-57468419D02*
X28219447Y-57468419D01*
X28219447Y-57468419D02*
X28314685Y-57516038D01*
X28314685Y-57516038D02*
X28409923Y-57611276D01*
X28409923Y-57611276D02*
X28457542Y-57801752D01*
X28457542Y-57801752D02*
X28457542Y-58135085D01*
X28457542Y-58135085D02*
X28409923Y-58325561D01*
X28409923Y-58325561D02*
X28314685Y-58420800D01*
X28314685Y-58420800D02*
X28219447Y-58468419D01*
X28219447Y-58468419D02*
X28028971Y-58468419D01*
X29409923Y-58468419D02*
X28838495Y-58468419D01*
X29124209Y-58468419D02*
X29124209Y-57468419D01*
X29124209Y-57468419D02*
X29028971Y-57611276D01*
X29028971Y-57611276D02*
X28933733Y-57706514D01*
X28933733Y-57706514D02*
X28838495Y-57754133D01*
X31954819Y-27154094D02*
X30954819Y-27154094D01*
X31954819Y-26582666D02*
X31383390Y-27011237D01*
X30954819Y-26582666D02*
X31526247Y-27154094D01*
X31050057Y-26201713D02*
X31002438Y-26154094D01*
X31002438Y-26154094D02*
X30954819Y-26058856D01*
X30954819Y-26058856D02*
X30954819Y-25820761D01*
X30954819Y-25820761D02*
X31002438Y-25725523D01*
X31002438Y-25725523D02*
X31050057Y-25677904D01*
X31050057Y-25677904D02*
X31145295Y-25630285D01*
X31145295Y-25630285D02*
X31240533Y-25630285D01*
X31240533Y-25630285D02*
X31383390Y-25677904D01*
X31383390Y-25677904D02*
X31954819Y-26249332D01*
X31954819Y-26249332D02*
X31954819Y-25630285D01*
X34936133Y-66164619D02*
X34602800Y-65688428D01*
X34364705Y-66164619D02*
X34364705Y-65164619D01*
X34364705Y-65164619D02*
X34745657Y-65164619D01*
X34745657Y-65164619D02*
X34840895Y-65212238D01*
X34840895Y-65212238D02*
X34888514Y-65259857D01*
X34888514Y-65259857D02*
X34936133Y-65355095D01*
X34936133Y-65355095D02*
X34936133Y-65497952D01*
X34936133Y-65497952D02*
X34888514Y-65593190D01*
X34888514Y-65593190D02*
X34840895Y-65640809D01*
X34840895Y-65640809D02*
X34745657Y-65688428D01*
X34745657Y-65688428D02*
X34364705Y-65688428D01*
X35793276Y-65497952D02*
X35793276Y-66164619D01*
X35555181Y-65117000D02*
X35317086Y-65831285D01*
X35317086Y-65831285D02*
X35936133Y-65831285D01*
X34532961Y-64488219D02*
X33961533Y-64488219D01*
X34247247Y-64488219D02*
X34247247Y-63488219D01*
X34247247Y-63488219D02*
X34152009Y-63631076D01*
X34152009Y-63631076D02*
X34056771Y-63726314D01*
X34056771Y-63726314D02*
X33961533Y-63773933D01*
X35152009Y-63488219D02*
X35247247Y-63488219D01*
X35247247Y-63488219D02*
X35342485Y-63535838D01*
X35342485Y-63535838D02*
X35390104Y-63583457D01*
X35390104Y-63583457D02*
X35437723Y-63678695D01*
X35437723Y-63678695D02*
X35485342Y-63869171D01*
X35485342Y-63869171D02*
X35485342Y-64107266D01*
X35485342Y-64107266D02*
X35437723Y-64297742D01*
X35437723Y-64297742D02*
X35390104Y-64392980D01*
X35390104Y-64392980D02*
X35342485Y-64440600D01*
X35342485Y-64440600D02*
X35247247Y-64488219D01*
X35247247Y-64488219D02*
X35152009Y-64488219D01*
X35152009Y-64488219D02*
X35056771Y-64440600D01*
X35056771Y-64440600D02*
X35009152Y-64392980D01*
X35009152Y-64392980D02*
X34961533Y-64297742D01*
X34961533Y-64297742D02*
X34913914Y-64107266D01*
X34913914Y-64107266D02*
X34913914Y-63869171D01*
X34913914Y-63869171D02*
X34961533Y-63678695D01*
X34961533Y-63678695D02*
X35009152Y-63583457D01*
X35009152Y-63583457D02*
X35056771Y-63535838D01*
X35056771Y-63535838D02*
X35152009Y-63488219D01*
X35913914Y-64488219D02*
X35913914Y-63488219D01*
X36009152Y-64107266D02*
X36294866Y-64488219D01*
X36294866Y-63821552D02*
X35913914Y-64202504D01*
X24674533Y-86694180D02*
X24626914Y-86741800D01*
X24626914Y-86741800D02*
X24484057Y-86789419D01*
X24484057Y-86789419D02*
X24388819Y-86789419D01*
X24388819Y-86789419D02*
X24245962Y-86741800D01*
X24245962Y-86741800D02*
X24150724Y-86646561D01*
X24150724Y-86646561D02*
X24103105Y-86551323D01*
X24103105Y-86551323D02*
X24055486Y-86360847D01*
X24055486Y-86360847D02*
X24055486Y-86217990D01*
X24055486Y-86217990D02*
X24103105Y-86027514D01*
X24103105Y-86027514D02*
X24150724Y-85932276D01*
X24150724Y-85932276D02*
X24245962Y-85837038D01*
X24245962Y-85837038D02*
X24388819Y-85789419D01*
X24388819Y-85789419D02*
X24484057Y-85789419D01*
X24484057Y-85789419D02*
X24626914Y-85837038D01*
X24626914Y-85837038D02*
X24674533Y-85884657D01*
X25531676Y-86122752D02*
X25531676Y-86789419D01*
X25293581Y-85741800D02*
X25055486Y-86456085D01*
X25055486Y-86456085D02*
X25674533Y-86456085D01*
D12*
X24642233Y-89888865D02*
X24134233Y-89888865D01*
X24388233Y-89888865D02*
X24388233Y-88999865D01*
X24388233Y-88999865D02*
X24303566Y-89126865D01*
X24303566Y-89126865D02*
X24218900Y-89211532D01*
X24218900Y-89211532D02*
X24134233Y-89253865D01*
X25404233Y-89296198D02*
X25404233Y-89888865D01*
X25023233Y-89296198D02*
X25023233Y-89761865D01*
X25023233Y-89761865D02*
X25065567Y-89846532D01*
X25065567Y-89846532D02*
X25150233Y-89888865D01*
X25150233Y-89888865D02*
X25277233Y-89888865D01*
X25277233Y-89888865D02*
X25361900Y-89846532D01*
X25361900Y-89846532D02*
X25404233Y-89804198D01*
D15*
X33894733Y-50372180D02*
X33847114Y-50419800D01*
X33847114Y-50419800D02*
X33704257Y-50467419D01*
X33704257Y-50467419D02*
X33609019Y-50467419D01*
X33609019Y-50467419D02*
X33466162Y-50419800D01*
X33466162Y-50419800D02*
X33370924Y-50324561D01*
X33370924Y-50324561D02*
X33323305Y-50229323D01*
X33323305Y-50229323D02*
X33275686Y-50038847D01*
X33275686Y-50038847D02*
X33275686Y-49895990D01*
X33275686Y-49895990D02*
X33323305Y-49705514D01*
X33323305Y-49705514D02*
X33370924Y-49610276D01*
X33370924Y-49610276D02*
X33466162Y-49515038D01*
X33466162Y-49515038D02*
X33609019Y-49467419D01*
X33609019Y-49467419D02*
X33704257Y-49467419D01*
X33704257Y-49467419D02*
X33847114Y-49515038D01*
X33847114Y-49515038D02*
X33894733Y-49562657D01*
X34275686Y-49562657D02*
X34323305Y-49515038D01*
X34323305Y-49515038D02*
X34418543Y-49467419D01*
X34418543Y-49467419D02*
X34656638Y-49467419D01*
X34656638Y-49467419D02*
X34751876Y-49515038D01*
X34751876Y-49515038D02*
X34799495Y-49562657D01*
X34799495Y-49562657D02*
X34847114Y-49657895D01*
X34847114Y-49657895D02*
X34847114Y-49753133D01*
X34847114Y-49753133D02*
X34799495Y-49895990D01*
X34799495Y-49895990D02*
X34228067Y-50467419D01*
X34228067Y-50467419D02*
X34847114Y-50467419D01*
D12*
X33489900Y-55751265D02*
X32981900Y-55751265D01*
X33235900Y-55751265D02*
X33235900Y-54862265D01*
X33235900Y-54862265D02*
X33151233Y-54989265D01*
X33151233Y-54989265D02*
X33066567Y-55073932D01*
X33066567Y-55073932D02*
X32981900Y-55116265D01*
X34040234Y-54862265D02*
X34124900Y-54862265D01*
X34124900Y-54862265D02*
X34209567Y-54904598D01*
X34209567Y-54904598D02*
X34251900Y-54946932D01*
X34251900Y-54946932D02*
X34294234Y-55031598D01*
X34294234Y-55031598D02*
X34336567Y-55200932D01*
X34336567Y-55200932D02*
X34336567Y-55412598D01*
X34336567Y-55412598D02*
X34294234Y-55581932D01*
X34294234Y-55581932D02*
X34251900Y-55666598D01*
X34251900Y-55666598D02*
X34209567Y-55708932D01*
X34209567Y-55708932D02*
X34124900Y-55751265D01*
X34124900Y-55751265D02*
X34040234Y-55751265D01*
X34040234Y-55751265D02*
X33955567Y-55708932D01*
X33955567Y-55708932D02*
X33913234Y-55666598D01*
X33913234Y-55666598D02*
X33870900Y-55581932D01*
X33870900Y-55581932D02*
X33828567Y-55412598D01*
X33828567Y-55412598D02*
X33828567Y-55200932D01*
X33828567Y-55200932D02*
X33870900Y-55031598D01*
X33870900Y-55031598D02*
X33913234Y-54946932D01*
X33913234Y-54946932D02*
X33955567Y-54904598D01*
X33955567Y-54904598D02*
X34040234Y-54862265D01*
X35098567Y-55158598D02*
X35098567Y-55751265D01*
X34717567Y-55158598D02*
X34717567Y-55624265D01*
X34717567Y-55624265D02*
X34759901Y-55708932D01*
X34759901Y-55708932D02*
X34844567Y-55751265D01*
X34844567Y-55751265D02*
X34971567Y-55751265D01*
X34971567Y-55751265D02*
X35056234Y-55708932D01*
X35056234Y-55708932D02*
X35098567Y-55666598D01*
X42773600Y-54963865D02*
X43196933Y-54963865D01*
X42688933Y-55217865D02*
X42985267Y-54328865D01*
X42985267Y-54328865D02*
X43281600Y-55217865D01*
X43747267Y-54328865D02*
X43831933Y-54328865D01*
X43831933Y-54328865D02*
X43916600Y-54371198D01*
X43916600Y-54371198D02*
X43958933Y-54413532D01*
X43958933Y-54413532D02*
X44001267Y-54498198D01*
X44001267Y-54498198D02*
X44043600Y-54667532D01*
X44043600Y-54667532D02*
X44043600Y-54879198D01*
X44043600Y-54879198D02*
X44001267Y-55048532D01*
X44001267Y-55048532D02*
X43958933Y-55133198D01*
X43958933Y-55133198D02*
X43916600Y-55175532D01*
X43916600Y-55175532D02*
X43831933Y-55217865D01*
X43831933Y-55217865D02*
X43747267Y-55217865D01*
X43747267Y-55217865D02*
X43662600Y-55175532D01*
X43662600Y-55175532D02*
X43620267Y-55133198D01*
X43620267Y-55133198D02*
X43577933Y-55048532D01*
X43577933Y-55048532D02*
X43535600Y-54879198D01*
X43535600Y-54879198D02*
X43535600Y-54667532D01*
X43535600Y-54667532D02*
X43577933Y-54498198D01*
X43577933Y-54498198D02*
X43620267Y-54413532D01*
X43620267Y-54413532D02*
X43662600Y-54371198D01*
X43662600Y-54371198D02*
X43747267Y-54328865D01*
X20404666Y-76731665D02*
X20404666Y-77451332D01*
X20404666Y-77451332D02*
X20447000Y-77535998D01*
X20447000Y-77535998D02*
X20489333Y-77578332D01*
X20489333Y-77578332D02*
X20574000Y-77620665D01*
X20574000Y-77620665D02*
X20743333Y-77620665D01*
X20743333Y-77620665D02*
X20828000Y-77578332D01*
X20828000Y-77578332D02*
X20870333Y-77535998D01*
X20870333Y-77535998D02*
X20912666Y-77451332D01*
X20912666Y-77451332D02*
X20912666Y-76731665D01*
X21251333Y-76731665D02*
X21801666Y-76731665D01*
X21801666Y-76731665D02*
X21505333Y-77070332D01*
X21505333Y-77070332D02*
X21632333Y-77070332D01*
X21632333Y-77070332D02*
X21716999Y-77112665D01*
X21716999Y-77112665D02*
X21759333Y-77154998D01*
X21759333Y-77154998D02*
X21801666Y-77239665D01*
X21801666Y-77239665D02*
X21801666Y-77451332D01*
X21801666Y-77451332D02*
X21759333Y-77535998D01*
X21759333Y-77535998D02*
X21716999Y-77578332D01*
X21716999Y-77578332D02*
X21632333Y-77620665D01*
X21632333Y-77620665D02*
X21378333Y-77620665D01*
X21378333Y-77620665D02*
X21293666Y-77578332D01*
X21293666Y-77578332D02*
X21251333Y-77535998D01*
D15*
X34834533Y-59001819D02*
X34501200Y-58525628D01*
X34263105Y-59001819D02*
X34263105Y-58001819D01*
X34263105Y-58001819D02*
X34644057Y-58001819D01*
X34644057Y-58001819D02*
X34739295Y-58049438D01*
X34739295Y-58049438D02*
X34786914Y-58097057D01*
X34786914Y-58097057D02*
X34834533Y-58192295D01*
X34834533Y-58192295D02*
X34834533Y-58335152D01*
X34834533Y-58335152D02*
X34786914Y-58430390D01*
X34786914Y-58430390D02*
X34739295Y-58478009D01*
X34739295Y-58478009D02*
X34644057Y-58525628D01*
X34644057Y-58525628D02*
X34263105Y-58525628D01*
X35215486Y-58097057D02*
X35263105Y-58049438D01*
X35263105Y-58049438D02*
X35358343Y-58001819D01*
X35358343Y-58001819D02*
X35596438Y-58001819D01*
X35596438Y-58001819D02*
X35691676Y-58049438D01*
X35691676Y-58049438D02*
X35739295Y-58097057D01*
X35739295Y-58097057D02*
X35786914Y-58192295D01*
X35786914Y-58192295D02*
X35786914Y-58287533D01*
X35786914Y-58287533D02*
X35739295Y-58430390D01*
X35739295Y-58430390D02*
X35167867Y-59001819D01*
X35167867Y-59001819D02*
X35786914Y-59001819D01*
X24598333Y-60603019D02*
X24265000Y-60126828D01*
X24026905Y-60603019D02*
X24026905Y-59603019D01*
X24026905Y-59603019D02*
X24407857Y-59603019D01*
X24407857Y-59603019D02*
X24503095Y-59650638D01*
X24503095Y-59650638D02*
X24550714Y-59698257D01*
X24550714Y-59698257D02*
X24598333Y-59793495D01*
X24598333Y-59793495D02*
X24598333Y-59936352D01*
X24598333Y-59936352D02*
X24550714Y-60031590D01*
X24550714Y-60031590D02*
X24503095Y-60079209D01*
X24503095Y-60079209D02*
X24407857Y-60126828D01*
X24407857Y-60126828D02*
X24026905Y-60126828D01*
X25550714Y-60603019D02*
X24979286Y-60603019D01*
X25265000Y-60603019D02*
X25265000Y-59603019D01*
X25265000Y-59603019D02*
X25169762Y-59745876D01*
X25169762Y-59745876D02*
X25074524Y-59841114D01*
X25074524Y-59841114D02*
X24979286Y-59888733D01*
D12*
X23715133Y-63913132D02*
X23757466Y-63870798D01*
X23757466Y-63870798D02*
X23842133Y-63828465D01*
X23842133Y-63828465D02*
X24053800Y-63828465D01*
X24053800Y-63828465D02*
X24138466Y-63870798D01*
X24138466Y-63870798D02*
X24180800Y-63913132D01*
X24180800Y-63913132D02*
X24223133Y-63997798D01*
X24223133Y-63997798D02*
X24223133Y-64082465D01*
X24223133Y-64082465D02*
X24180800Y-64209465D01*
X24180800Y-64209465D02*
X23672800Y-64717465D01*
X23672800Y-64717465D02*
X24223133Y-64717465D01*
X24561800Y-63913132D02*
X24604133Y-63870798D01*
X24604133Y-63870798D02*
X24688800Y-63828465D01*
X24688800Y-63828465D02*
X24900467Y-63828465D01*
X24900467Y-63828465D02*
X24985133Y-63870798D01*
X24985133Y-63870798D02*
X25027467Y-63913132D01*
X25027467Y-63913132D02*
X25069800Y-63997798D01*
X25069800Y-63997798D02*
X25069800Y-64082465D01*
X25069800Y-64082465D02*
X25027467Y-64209465D01*
X25027467Y-64209465D02*
X24519467Y-64717465D01*
X24519467Y-64717465D02*
X25069800Y-64717465D01*
X25620134Y-63828465D02*
X25704800Y-63828465D01*
X25704800Y-63828465D02*
X25789467Y-63870798D01*
X25789467Y-63870798D02*
X25831800Y-63913132D01*
X25831800Y-63913132D02*
X25874134Y-63997798D01*
X25874134Y-63997798D02*
X25916467Y-64167132D01*
X25916467Y-64167132D02*
X25916467Y-64378798D01*
X25916467Y-64378798D02*
X25874134Y-64548132D01*
X25874134Y-64548132D02*
X25831800Y-64632798D01*
X25831800Y-64632798D02*
X25789467Y-64675132D01*
X25789467Y-64675132D02*
X25704800Y-64717465D01*
X25704800Y-64717465D02*
X25620134Y-64717465D01*
X25620134Y-64717465D02*
X25535467Y-64675132D01*
X25535467Y-64675132D02*
X25493134Y-64632798D01*
X25493134Y-64632798D02*
X25450800Y-64548132D01*
X25450800Y-64548132D02*
X25408467Y-64378798D01*
X25408467Y-64378798D02*
X25408467Y-64167132D01*
X25408467Y-64167132D02*
X25450800Y-63997798D01*
X25450800Y-63997798D02*
X25493134Y-63913132D01*
X25493134Y-63913132D02*
X25535467Y-63870798D01*
X25535467Y-63870798D02*
X25620134Y-63828465D01*
D15*
X24598333Y-67638819D02*
X24265000Y-67162628D01*
X24026905Y-67638819D02*
X24026905Y-66638819D01*
X24026905Y-66638819D02*
X24407857Y-66638819D01*
X24407857Y-66638819D02*
X24503095Y-66686438D01*
X24503095Y-66686438D02*
X24550714Y-66734057D01*
X24550714Y-66734057D02*
X24598333Y-66829295D01*
X24598333Y-66829295D02*
X24598333Y-66972152D01*
X24598333Y-66972152D02*
X24550714Y-67067390D01*
X24550714Y-67067390D02*
X24503095Y-67115009D01*
X24503095Y-67115009D02*
X24407857Y-67162628D01*
X24407857Y-67162628D02*
X24026905Y-67162628D01*
X24931667Y-66638819D02*
X25550714Y-66638819D01*
X25550714Y-66638819D02*
X25217381Y-67019771D01*
X25217381Y-67019771D02*
X25360238Y-67019771D01*
X25360238Y-67019771D02*
X25455476Y-67067390D01*
X25455476Y-67067390D02*
X25503095Y-67115009D01*
X25503095Y-67115009D02*
X25550714Y-67210247D01*
X25550714Y-67210247D02*
X25550714Y-67448342D01*
X25550714Y-67448342D02*
X25503095Y-67543580D01*
X25503095Y-67543580D02*
X25455476Y-67591200D01*
X25455476Y-67591200D02*
X25360238Y-67638819D01*
X25360238Y-67638819D02*
X25074524Y-67638819D01*
X25074524Y-67638819D02*
X24979286Y-67591200D01*
X24979286Y-67591200D02*
X24931667Y-67543580D01*
D12*
X20404666Y-84402465D02*
X20404666Y-85122132D01*
X20404666Y-85122132D02*
X20447000Y-85206798D01*
X20447000Y-85206798D02*
X20489333Y-85249132D01*
X20489333Y-85249132D02*
X20574000Y-85291465D01*
X20574000Y-85291465D02*
X20743333Y-85291465D01*
X20743333Y-85291465D02*
X20828000Y-85249132D01*
X20828000Y-85249132D02*
X20870333Y-85206798D01*
X20870333Y-85206798D02*
X20912666Y-85122132D01*
X20912666Y-85122132D02*
X20912666Y-84402465D01*
X21716999Y-84698798D02*
X21716999Y-85291465D01*
X21505333Y-84360132D02*
X21293666Y-84995132D01*
X21293666Y-84995132D02*
X21843999Y-84995132D01*
X11827932Y-64895265D02*
X11827932Y-64006265D01*
X11827932Y-64006265D02*
X12166599Y-64006265D01*
X12166599Y-64006265D02*
X12251266Y-64048598D01*
X12251266Y-64048598D02*
X12293599Y-64090932D01*
X12293599Y-64090932D02*
X12335932Y-64175598D01*
X12335932Y-64175598D02*
X12335932Y-64302598D01*
X12335932Y-64302598D02*
X12293599Y-64387265D01*
X12293599Y-64387265D02*
X12251266Y-64429598D01*
X12251266Y-64429598D02*
X12166599Y-64471932D01*
X12166599Y-64471932D02*
X11827932Y-64471932D01*
X13224932Y-64810598D02*
X13182599Y-64852932D01*
X13182599Y-64852932D02*
X13055599Y-64895265D01*
X13055599Y-64895265D02*
X12970932Y-64895265D01*
X12970932Y-64895265D02*
X12843932Y-64852932D01*
X12843932Y-64852932D02*
X12759266Y-64768265D01*
X12759266Y-64768265D02*
X12716932Y-64683598D01*
X12716932Y-64683598D02*
X12674599Y-64514265D01*
X12674599Y-64514265D02*
X12674599Y-64387265D01*
X12674599Y-64387265D02*
X12716932Y-64217932D01*
X12716932Y-64217932D02*
X12759266Y-64133265D01*
X12759266Y-64133265D02*
X12843932Y-64048598D01*
X12843932Y-64048598D02*
X12970932Y-64006265D01*
X12970932Y-64006265D02*
X13055599Y-64006265D01*
X13055599Y-64006265D02*
X13182599Y-64048598D01*
X13182599Y-64048598D02*
X13224932Y-64090932D01*
X13605932Y-64556598D02*
X14283266Y-64556598D01*
X14833599Y-64387265D02*
X14748933Y-64344932D01*
X14748933Y-64344932D02*
X14706599Y-64302598D01*
X14706599Y-64302598D02*
X14664266Y-64217932D01*
X14664266Y-64217932D02*
X14664266Y-64175598D01*
X14664266Y-64175598D02*
X14706599Y-64090932D01*
X14706599Y-64090932D02*
X14748933Y-64048598D01*
X14748933Y-64048598D02*
X14833599Y-64006265D01*
X14833599Y-64006265D02*
X15002933Y-64006265D01*
X15002933Y-64006265D02*
X15087599Y-64048598D01*
X15087599Y-64048598D02*
X15129933Y-64090932D01*
X15129933Y-64090932D02*
X15172266Y-64175598D01*
X15172266Y-64175598D02*
X15172266Y-64217932D01*
X15172266Y-64217932D02*
X15129933Y-64302598D01*
X15129933Y-64302598D02*
X15087599Y-64344932D01*
X15087599Y-64344932D02*
X15002933Y-64387265D01*
X15002933Y-64387265D02*
X14833599Y-64387265D01*
X14833599Y-64387265D02*
X14748933Y-64429598D01*
X14748933Y-64429598D02*
X14706599Y-64471932D01*
X14706599Y-64471932D02*
X14664266Y-64556598D01*
X14664266Y-64556598D02*
X14664266Y-64725932D01*
X14664266Y-64725932D02*
X14706599Y-64810598D01*
X14706599Y-64810598D02*
X14748933Y-64852932D01*
X14748933Y-64852932D02*
X14833599Y-64895265D01*
X14833599Y-64895265D02*
X15002933Y-64895265D01*
X15002933Y-64895265D02*
X15087599Y-64852932D01*
X15087599Y-64852932D02*
X15129933Y-64810598D01*
X15129933Y-64810598D02*
X15172266Y-64725932D01*
X15172266Y-64725932D02*
X15172266Y-64556598D01*
X15172266Y-64556598D02*
X15129933Y-64471932D01*
X15129933Y-64471932D02*
X15087599Y-64429598D01*
X15087599Y-64429598D02*
X15002933Y-64387265D01*
X16018933Y-64895265D02*
X15510933Y-64895265D01*
X15764933Y-64895265D02*
X15764933Y-64006265D01*
X15764933Y-64006265D02*
X15680266Y-64133265D01*
X15680266Y-64133265D02*
X15595600Y-64217932D01*
X15595600Y-64217932D02*
X15510933Y-64260265D01*
X16315267Y-64006265D02*
X16907933Y-64006265D01*
X16907933Y-64006265D02*
X16526933Y-64895265D01*
D15*
X37025342Y-50467419D02*
X36692009Y-49991228D01*
X36453914Y-50467419D02*
X36453914Y-49467419D01*
X36453914Y-49467419D02*
X36834866Y-49467419D01*
X36834866Y-49467419D02*
X36930104Y-49515038D01*
X36930104Y-49515038D02*
X36977723Y-49562657D01*
X36977723Y-49562657D02*
X37025342Y-49657895D01*
X37025342Y-49657895D02*
X37025342Y-49800752D01*
X37025342Y-49800752D02*
X36977723Y-49895990D01*
X36977723Y-49895990D02*
X36930104Y-49943609D01*
X36930104Y-49943609D02*
X36834866Y-49991228D01*
X36834866Y-49991228D02*
X36453914Y-49991228D01*
X37977723Y-50467419D02*
X37406295Y-50467419D01*
X37692009Y-50467419D02*
X37692009Y-49467419D01*
X37692009Y-49467419D02*
X37596771Y-49610276D01*
X37596771Y-49610276D02*
X37501533Y-49705514D01*
X37501533Y-49705514D02*
X37406295Y-49753133D01*
X38358676Y-49562657D02*
X38406295Y-49515038D01*
X38406295Y-49515038D02*
X38501533Y-49467419D01*
X38501533Y-49467419D02*
X38739628Y-49467419D01*
X38739628Y-49467419D02*
X38834866Y-49515038D01*
X38834866Y-49515038D02*
X38882485Y-49562657D01*
X38882485Y-49562657D02*
X38930104Y-49657895D01*
X38930104Y-49657895D02*
X38930104Y-49753133D01*
X38930104Y-49753133D02*
X38882485Y-49895990D01*
X38882485Y-49895990D02*
X38311057Y-50467419D01*
X38311057Y-50467419D02*
X38930104Y-50467419D01*
D12*
X37240633Y-55852865D02*
X36732633Y-55852865D01*
X36986633Y-55852865D02*
X36986633Y-54963865D01*
X36986633Y-54963865D02*
X36901966Y-55090865D01*
X36901966Y-55090865D02*
X36817300Y-55175532D01*
X36817300Y-55175532D02*
X36732633Y-55217865D01*
X37790967Y-54963865D02*
X37875633Y-54963865D01*
X37875633Y-54963865D02*
X37960300Y-55006198D01*
X37960300Y-55006198D02*
X38002633Y-55048532D01*
X38002633Y-55048532D02*
X38044967Y-55133198D01*
X38044967Y-55133198D02*
X38087300Y-55302532D01*
X38087300Y-55302532D02*
X38087300Y-55514198D01*
X38087300Y-55514198D02*
X38044967Y-55683532D01*
X38044967Y-55683532D02*
X38002633Y-55768198D01*
X38002633Y-55768198D02*
X37960300Y-55810532D01*
X37960300Y-55810532D02*
X37875633Y-55852865D01*
X37875633Y-55852865D02*
X37790967Y-55852865D01*
X37790967Y-55852865D02*
X37706300Y-55810532D01*
X37706300Y-55810532D02*
X37663967Y-55768198D01*
X37663967Y-55768198D02*
X37621633Y-55683532D01*
X37621633Y-55683532D02*
X37579300Y-55514198D01*
X37579300Y-55514198D02*
X37579300Y-55302532D01*
X37579300Y-55302532D02*
X37621633Y-55133198D01*
X37621633Y-55133198D02*
X37663967Y-55048532D01*
X37663967Y-55048532D02*
X37706300Y-55006198D01*
X37706300Y-55006198D02*
X37790967Y-54963865D01*
X38468300Y-55852865D02*
X38468300Y-54963865D01*
X38552967Y-55514198D02*
X38806967Y-55852865D01*
X38806967Y-55260198D02*
X38468300Y-55598865D01*
D15*
X41997333Y-22222619D02*
X41664000Y-21746428D01*
X41425905Y-22222619D02*
X41425905Y-21222619D01*
X41425905Y-21222619D02*
X41806857Y-21222619D01*
X41806857Y-21222619D02*
X41902095Y-21270238D01*
X41902095Y-21270238D02*
X41949714Y-21317857D01*
X41949714Y-21317857D02*
X41997333Y-21413095D01*
X41997333Y-21413095D02*
X41997333Y-21555952D01*
X41997333Y-21555952D02*
X41949714Y-21651190D01*
X41949714Y-21651190D02*
X41902095Y-21698809D01*
X41902095Y-21698809D02*
X41806857Y-21746428D01*
X41806857Y-21746428D02*
X41425905Y-21746428D01*
X42902095Y-21222619D02*
X42425905Y-21222619D01*
X42425905Y-21222619D02*
X42378286Y-21698809D01*
X42378286Y-21698809D02*
X42425905Y-21651190D01*
X42425905Y-21651190D02*
X42521143Y-21603571D01*
X42521143Y-21603571D02*
X42759238Y-21603571D01*
X42759238Y-21603571D02*
X42854476Y-21651190D01*
X42854476Y-21651190D02*
X42902095Y-21698809D01*
X42902095Y-21698809D02*
X42949714Y-21794047D01*
X42949714Y-21794047D02*
X42949714Y-22032142D01*
X42949714Y-22032142D02*
X42902095Y-22127380D01*
X42902095Y-22127380D02*
X42854476Y-22175000D01*
X42854476Y-22175000D02*
X42759238Y-22222619D01*
X42759238Y-22222619D02*
X42521143Y-22222619D01*
X42521143Y-22222619D02*
X42425905Y-22175000D01*
X42425905Y-22175000D02*
X42378286Y-22127380D01*
D12*
X41660233Y-26922265D02*
X41152233Y-26922265D01*
X41406233Y-26922265D02*
X41406233Y-26033265D01*
X41406233Y-26033265D02*
X41321566Y-26160265D01*
X41321566Y-26160265D02*
X41236900Y-26244932D01*
X41236900Y-26244932D02*
X41152233Y-26287265D01*
X42210567Y-26033265D02*
X42295233Y-26033265D01*
X42295233Y-26033265D02*
X42379900Y-26075598D01*
X42379900Y-26075598D02*
X42422233Y-26117932D01*
X42422233Y-26117932D02*
X42464567Y-26202598D01*
X42464567Y-26202598D02*
X42506900Y-26371932D01*
X42506900Y-26371932D02*
X42506900Y-26583598D01*
X42506900Y-26583598D02*
X42464567Y-26752932D01*
X42464567Y-26752932D02*
X42422233Y-26837598D01*
X42422233Y-26837598D02*
X42379900Y-26879932D01*
X42379900Y-26879932D02*
X42295233Y-26922265D01*
X42295233Y-26922265D02*
X42210567Y-26922265D01*
X42210567Y-26922265D02*
X42125900Y-26879932D01*
X42125900Y-26879932D02*
X42083567Y-26837598D01*
X42083567Y-26837598D02*
X42041233Y-26752932D01*
X42041233Y-26752932D02*
X41998900Y-26583598D01*
X41998900Y-26583598D02*
X41998900Y-26371932D01*
X41998900Y-26371932D02*
X42041233Y-26202598D01*
X42041233Y-26202598D02*
X42083567Y-26117932D01*
X42083567Y-26117932D02*
X42125900Y-26075598D01*
X42125900Y-26075598D02*
X42210567Y-26033265D01*
X42887900Y-26922265D02*
X42887900Y-26033265D01*
X42972567Y-26583598D02*
X43226567Y-26922265D01*
X43226567Y-26329598D02*
X42887900Y-26668265D01*
D15*
X48728333Y-76254780D02*
X48680714Y-76302400D01*
X48680714Y-76302400D02*
X48537857Y-76350019D01*
X48537857Y-76350019D02*
X48442619Y-76350019D01*
X48442619Y-76350019D02*
X48299762Y-76302400D01*
X48299762Y-76302400D02*
X48204524Y-76207161D01*
X48204524Y-76207161D02*
X48156905Y-76111923D01*
X48156905Y-76111923D02*
X48109286Y-75921447D01*
X48109286Y-75921447D02*
X48109286Y-75778590D01*
X48109286Y-75778590D02*
X48156905Y-75588114D01*
X48156905Y-75588114D02*
X48204524Y-75492876D01*
X48204524Y-75492876D02*
X48299762Y-75397638D01*
X48299762Y-75397638D02*
X48442619Y-75350019D01*
X48442619Y-75350019D02*
X48537857Y-75350019D01*
X48537857Y-75350019D02*
X48680714Y-75397638D01*
X48680714Y-75397638D02*
X48728333Y-75445257D01*
X49061667Y-75350019D02*
X49680714Y-75350019D01*
X49680714Y-75350019D02*
X49347381Y-75730971D01*
X49347381Y-75730971D02*
X49490238Y-75730971D01*
X49490238Y-75730971D02*
X49585476Y-75778590D01*
X49585476Y-75778590D02*
X49633095Y-75826209D01*
X49633095Y-75826209D02*
X49680714Y-75921447D01*
X49680714Y-75921447D02*
X49680714Y-76159542D01*
X49680714Y-76159542D02*
X49633095Y-76254780D01*
X49633095Y-76254780D02*
X49585476Y-76302400D01*
X49585476Y-76302400D02*
X49490238Y-76350019D01*
X49490238Y-76350019D02*
X49204524Y-76350019D01*
X49204524Y-76350019D02*
X49109286Y-76302400D01*
X49109286Y-76302400D02*
X49061667Y-76254780D01*
D12*
X48746833Y-79500265D02*
X48238833Y-79500265D01*
X48492833Y-79500265D02*
X48492833Y-78611265D01*
X48492833Y-78611265D02*
X48408166Y-78738265D01*
X48408166Y-78738265D02*
X48323500Y-78822932D01*
X48323500Y-78822932D02*
X48238833Y-78865265D01*
X49508833Y-78907598D02*
X49508833Y-79500265D01*
X49127833Y-78907598D02*
X49127833Y-79373265D01*
X49127833Y-79373265D02*
X49170167Y-79457932D01*
X49170167Y-79457932D02*
X49254833Y-79500265D01*
X49254833Y-79500265D02*
X49381833Y-79500265D01*
X49381833Y-79500265D02*
X49466500Y-79457932D01*
X49466500Y-79457932D02*
X49508833Y-79415598D01*
X42849800Y-49223465D02*
X43273133Y-49223465D01*
X42765133Y-49477465D02*
X43061467Y-48588465D01*
X43061467Y-48588465D02*
X43357800Y-49477465D01*
X44119800Y-49477465D02*
X43611800Y-49477465D01*
X43865800Y-49477465D02*
X43865800Y-48588465D01*
X43865800Y-48588465D02*
X43781133Y-48715465D01*
X43781133Y-48715465D02*
X43696467Y-48800132D01*
X43696467Y-48800132D02*
X43611800Y-48842465D01*
X20404666Y-69086265D02*
X20404666Y-69805932D01*
X20404666Y-69805932D02*
X20447000Y-69890598D01*
X20447000Y-69890598D02*
X20489333Y-69932932D01*
X20489333Y-69932932D02*
X20574000Y-69975265D01*
X20574000Y-69975265D02*
X20743333Y-69975265D01*
X20743333Y-69975265D02*
X20828000Y-69932932D01*
X20828000Y-69932932D02*
X20870333Y-69890598D01*
X20870333Y-69890598D02*
X20912666Y-69805932D01*
X20912666Y-69805932D02*
X20912666Y-69086265D01*
X21293666Y-69170932D02*
X21335999Y-69128598D01*
X21335999Y-69128598D02*
X21420666Y-69086265D01*
X21420666Y-69086265D02*
X21632333Y-69086265D01*
X21632333Y-69086265D02*
X21716999Y-69128598D01*
X21716999Y-69128598D02*
X21759333Y-69170932D01*
X21759333Y-69170932D02*
X21801666Y-69255598D01*
X21801666Y-69255598D02*
X21801666Y-69340265D01*
X21801666Y-69340265D02*
X21759333Y-69467265D01*
X21759333Y-69467265D02*
X21251333Y-69975265D01*
X21251333Y-69975265D02*
X21801666Y-69975265D01*
D15*
X28657561Y-65599457D02*
X28562323Y-65551838D01*
X28562323Y-65551838D02*
X28467085Y-65456600D01*
X28467085Y-65456600D02*
X28324228Y-65313742D01*
X28324228Y-65313742D02*
X28228990Y-65266123D01*
X28228990Y-65266123D02*
X28133752Y-65266123D01*
X28181371Y-65504219D02*
X28086133Y-65456600D01*
X28086133Y-65456600D02*
X27990895Y-65361361D01*
X27990895Y-65361361D02*
X27943276Y-65170885D01*
X27943276Y-65170885D02*
X27943276Y-64837552D01*
X27943276Y-64837552D02*
X27990895Y-64647076D01*
X27990895Y-64647076D02*
X28086133Y-64551838D01*
X28086133Y-64551838D02*
X28181371Y-64504219D01*
X28181371Y-64504219D02*
X28371847Y-64504219D01*
X28371847Y-64504219D02*
X28467085Y-64551838D01*
X28467085Y-64551838D02*
X28562323Y-64647076D01*
X28562323Y-64647076D02*
X28609942Y-64837552D01*
X28609942Y-64837552D02*
X28609942Y-65170885D01*
X28609942Y-65170885D02*
X28562323Y-65361361D01*
X28562323Y-65361361D02*
X28467085Y-65456600D01*
X28467085Y-65456600D02*
X28371847Y-65504219D01*
X28371847Y-65504219D02*
X28181371Y-65504219D01*
X28990895Y-64599457D02*
X29038514Y-64551838D01*
X29038514Y-64551838D02*
X29133752Y-64504219D01*
X29133752Y-64504219D02*
X29371847Y-64504219D01*
X29371847Y-64504219D02*
X29467085Y-64551838D01*
X29467085Y-64551838D02*
X29514704Y-64599457D01*
X29514704Y-64599457D02*
X29562323Y-64694695D01*
X29562323Y-64694695D02*
X29562323Y-64789933D01*
X29562323Y-64789933D02*
X29514704Y-64932790D01*
X29514704Y-64932790D02*
X28943276Y-65504219D01*
X28943276Y-65504219D02*
X29562323Y-65504219D01*
X53618143Y-34703609D02*
X53951476Y-34703609D01*
X54094333Y-35227419D02*
X53618143Y-35227419D01*
X53618143Y-35227419D02*
X53618143Y-34227419D01*
X53618143Y-34227419D02*
X54094333Y-34227419D01*
X54427667Y-34227419D02*
X55094333Y-35227419D01*
X55094333Y-34227419D02*
X54427667Y-35227419D01*
X55475286Y-35227419D02*
X55475286Y-34227419D01*
X55475286Y-34227419D02*
X55856238Y-34227419D01*
X55856238Y-34227419D02*
X55951476Y-34275038D01*
X55951476Y-34275038D02*
X55999095Y-34322657D01*
X55999095Y-34322657D02*
X56046714Y-34417895D01*
X56046714Y-34417895D02*
X56046714Y-34560752D01*
X56046714Y-34560752D02*
X55999095Y-34655990D01*
X55999095Y-34655990D02*
X55951476Y-34703609D01*
X55951476Y-34703609D02*
X55856238Y-34751228D01*
X55856238Y-34751228D02*
X55475286Y-34751228D01*
X56427667Y-34941704D02*
X56903857Y-34941704D01*
X56332429Y-35227419D02*
X56665762Y-34227419D01*
X56665762Y-34227419D02*
X56999095Y-35227419D01*
X57332429Y-35227419D02*
X57332429Y-34227419D01*
X57332429Y-34227419D02*
X57903857Y-35227419D01*
X57903857Y-35227419D02*
X57903857Y-34227419D01*
X58380048Y-35227419D02*
X58380048Y-34227419D01*
X58380048Y-34227419D02*
X58618143Y-34227419D01*
X58618143Y-34227419D02*
X58761000Y-34275038D01*
X58761000Y-34275038D02*
X58856238Y-34370276D01*
X58856238Y-34370276D02*
X58903857Y-34465514D01*
X58903857Y-34465514D02*
X58951476Y-34655990D01*
X58951476Y-34655990D02*
X58951476Y-34798847D01*
X58951476Y-34798847D02*
X58903857Y-34989323D01*
X58903857Y-34989323D02*
X58856238Y-35084561D01*
X58856238Y-35084561D02*
X58761000Y-35179800D01*
X58761000Y-35179800D02*
X58618143Y-35227419D01*
X58618143Y-35227419D02*
X58380048Y-35227419D01*
D10*
X42739733Y-87812695D02*
X42739733Y-86796695D01*
X43175162Y-86893457D02*
X43223543Y-86845076D01*
X43223543Y-86845076D02*
X43320305Y-86796695D01*
X43320305Y-86796695D02*
X43562210Y-86796695D01*
X43562210Y-86796695D02*
X43658972Y-86845076D01*
X43658972Y-86845076D02*
X43707353Y-86893457D01*
X43707353Y-86893457D02*
X43755734Y-86990219D01*
X43755734Y-86990219D02*
X43755734Y-87086981D01*
X43755734Y-87086981D02*
X43707353Y-87232124D01*
X43707353Y-87232124D02*
X43126781Y-87812695D01*
X43126781Y-87812695D02*
X43755734Y-87812695D01*
X44771734Y-87715934D02*
X44723353Y-87764315D01*
X44723353Y-87764315D02*
X44578210Y-87812695D01*
X44578210Y-87812695D02*
X44481448Y-87812695D01*
X44481448Y-87812695D02*
X44336305Y-87764315D01*
X44336305Y-87764315D02*
X44239543Y-87667553D01*
X44239543Y-87667553D02*
X44191162Y-87570791D01*
X44191162Y-87570791D02*
X44142781Y-87377267D01*
X44142781Y-87377267D02*
X44142781Y-87232124D01*
X44142781Y-87232124D02*
X44191162Y-87038600D01*
X44191162Y-87038600D02*
X44239543Y-86941838D01*
X44239543Y-86941838D02*
X44336305Y-86845076D01*
X44336305Y-86845076D02*
X44481448Y-86796695D01*
X44481448Y-86796695D02*
X44578210Y-86796695D01*
X44578210Y-86796695D02*
X44723353Y-86845076D01*
X44723353Y-86845076D02*
X44771734Y-86893457D01*
X46174781Y-86796695D02*
X46271543Y-86796695D01*
X46271543Y-86796695D02*
X46368305Y-86845076D01*
X46368305Y-86845076D02*
X46416686Y-86893457D01*
X46416686Y-86893457D02*
X46465067Y-86990219D01*
X46465067Y-86990219D02*
X46513448Y-87183743D01*
X46513448Y-87183743D02*
X46513448Y-87425648D01*
X46513448Y-87425648D02*
X46465067Y-87619172D01*
X46465067Y-87619172D02*
X46416686Y-87715934D01*
X46416686Y-87715934D02*
X46368305Y-87764315D01*
X46368305Y-87764315D02*
X46271543Y-87812695D01*
X46271543Y-87812695D02*
X46174781Y-87812695D01*
X46174781Y-87812695D02*
X46078019Y-87764315D01*
X46078019Y-87764315D02*
X46029638Y-87715934D01*
X46029638Y-87715934D02*
X45981257Y-87619172D01*
X45981257Y-87619172D02*
X45932876Y-87425648D01*
X45932876Y-87425648D02*
X45932876Y-87183743D01*
X45932876Y-87183743D02*
X45981257Y-86990219D01*
X45981257Y-86990219D02*
X46029638Y-86893457D01*
X46029638Y-86893457D02*
X46078019Y-86845076D01*
X46078019Y-86845076D02*
X46174781Y-86796695D01*
D15*
X24598333Y-74852419D02*
X24265000Y-74376228D01*
X24026905Y-74852419D02*
X24026905Y-73852419D01*
X24026905Y-73852419D02*
X24407857Y-73852419D01*
X24407857Y-73852419D02*
X24503095Y-73900038D01*
X24503095Y-73900038D02*
X24550714Y-73947657D01*
X24550714Y-73947657D02*
X24598333Y-74042895D01*
X24598333Y-74042895D02*
X24598333Y-74185752D01*
X24598333Y-74185752D02*
X24550714Y-74280990D01*
X24550714Y-74280990D02*
X24503095Y-74328609D01*
X24503095Y-74328609D02*
X24407857Y-74376228D01*
X24407857Y-74376228D02*
X24026905Y-74376228D01*
X24931667Y-73852419D02*
X25598333Y-73852419D01*
X25598333Y-73852419D02*
X25169762Y-74852419D01*
D12*
X23715133Y-78416532D02*
X23757466Y-78374198D01*
X23757466Y-78374198D02*
X23842133Y-78331865D01*
X23842133Y-78331865D02*
X24053800Y-78331865D01*
X24053800Y-78331865D02*
X24138466Y-78374198D01*
X24138466Y-78374198D02*
X24180800Y-78416532D01*
X24180800Y-78416532D02*
X24223133Y-78501198D01*
X24223133Y-78501198D02*
X24223133Y-78585865D01*
X24223133Y-78585865D02*
X24180800Y-78712865D01*
X24180800Y-78712865D02*
X23672800Y-79220865D01*
X23672800Y-79220865D02*
X24223133Y-79220865D01*
X24561800Y-78416532D02*
X24604133Y-78374198D01*
X24604133Y-78374198D02*
X24688800Y-78331865D01*
X24688800Y-78331865D02*
X24900467Y-78331865D01*
X24900467Y-78331865D02*
X24985133Y-78374198D01*
X24985133Y-78374198D02*
X25027467Y-78416532D01*
X25027467Y-78416532D02*
X25069800Y-78501198D01*
X25069800Y-78501198D02*
X25069800Y-78585865D01*
X25069800Y-78585865D02*
X25027467Y-78712865D01*
X25027467Y-78712865D02*
X24519467Y-79220865D01*
X24519467Y-79220865D02*
X25069800Y-79220865D01*
X25620134Y-78331865D02*
X25704800Y-78331865D01*
X25704800Y-78331865D02*
X25789467Y-78374198D01*
X25789467Y-78374198D02*
X25831800Y-78416532D01*
X25831800Y-78416532D02*
X25874134Y-78501198D01*
X25874134Y-78501198D02*
X25916467Y-78670532D01*
X25916467Y-78670532D02*
X25916467Y-78882198D01*
X25916467Y-78882198D02*
X25874134Y-79051532D01*
X25874134Y-79051532D02*
X25831800Y-79136198D01*
X25831800Y-79136198D02*
X25789467Y-79178532D01*
X25789467Y-79178532D02*
X25704800Y-79220865D01*
X25704800Y-79220865D02*
X25620134Y-79220865D01*
X25620134Y-79220865D02*
X25535467Y-79178532D01*
X25535467Y-79178532D02*
X25493134Y-79136198D01*
X25493134Y-79136198D02*
X25450800Y-79051532D01*
X25450800Y-79051532D02*
X25408467Y-78882198D01*
X25408467Y-78882198D02*
X25408467Y-78670532D01*
X25408467Y-78670532D02*
X25450800Y-78501198D01*
X25450800Y-78501198D02*
X25493134Y-78416532D01*
X25493134Y-78416532D02*
X25535467Y-78374198D01*
X25535467Y-78374198D02*
X25620134Y-78331865D01*
D15*
X31954819Y-51766694D02*
X30954819Y-51766694D01*
X31954819Y-51195266D02*
X31383390Y-51623837D01*
X30954819Y-51195266D02*
X31526247Y-51766694D01*
X31288152Y-50338123D02*
X31954819Y-50338123D01*
X30907200Y-50576218D02*
X31621485Y-50814313D01*
X31621485Y-50814313D02*
X31621485Y-50195266D01*
X28708361Y-72584457D02*
X28613123Y-72536838D01*
X28613123Y-72536838D02*
X28517885Y-72441600D01*
X28517885Y-72441600D02*
X28375028Y-72298742D01*
X28375028Y-72298742D02*
X28279790Y-72251123D01*
X28279790Y-72251123D02*
X28184552Y-72251123D01*
X28232171Y-72489219D02*
X28136933Y-72441600D01*
X28136933Y-72441600D02*
X28041695Y-72346361D01*
X28041695Y-72346361D02*
X27994076Y-72155885D01*
X27994076Y-72155885D02*
X27994076Y-71822552D01*
X27994076Y-71822552D02*
X28041695Y-71632076D01*
X28041695Y-71632076D02*
X28136933Y-71536838D01*
X28136933Y-71536838D02*
X28232171Y-71489219D01*
X28232171Y-71489219D02*
X28422647Y-71489219D01*
X28422647Y-71489219D02*
X28517885Y-71536838D01*
X28517885Y-71536838D02*
X28613123Y-71632076D01*
X28613123Y-71632076D02*
X28660742Y-71822552D01*
X28660742Y-71822552D02*
X28660742Y-72155885D01*
X28660742Y-72155885D02*
X28613123Y-72346361D01*
X28613123Y-72346361D02*
X28517885Y-72441600D01*
X28517885Y-72441600D02*
X28422647Y-72489219D01*
X28422647Y-72489219D02*
X28232171Y-72489219D01*
X29565504Y-71489219D02*
X29089314Y-71489219D01*
X29089314Y-71489219D02*
X29041695Y-71965409D01*
X29041695Y-71965409D02*
X29089314Y-71917790D01*
X29089314Y-71917790D02*
X29184552Y-71870171D01*
X29184552Y-71870171D02*
X29422647Y-71870171D01*
X29422647Y-71870171D02*
X29517885Y-71917790D01*
X29517885Y-71917790D02*
X29565504Y-71965409D01*
X29565504Y-71965409D02*
X29613123Y-72060647D01*
X29613123Y-72060647D02*
X29613123Y-72298742D01*
X29613123Y-72298742D02*
X29565504Y-72393980D01*
X29565504Y-72393980D02*
X29517885Y-72441600D01*
X29517885Y-72441600D02*
X29422647Y-72489219D01*
X29422647Y-72489219D02*
X29184552Y-72489219D01*
X29184552Y-72489219D02*
X29089314Y-72441600D01*
X29089314Y-72441600D02*
X29041695Y-72393980D01*
X34847305Y-12278819D02*
X34847305Y-11278819D01*
X34847305Y-11278819D02*
X35085400Y-11278819D01*
X35085400Y-11278819D02*
X35228257Y-11326438D01*
X35228257Y-11326438D02*
X35323495Y-11421676D01*
X35323495Y-11421676D02*
X35371114Y-11516914D01*
X35371114Y-11516914D02*
X35418733Y-11707390D01*
X35418733Y-11707390D02*
X35418733Y-11850247D01*
X35418733Y-11850247D02*
X35371114Y-12040723D01*
X35371114Y-12040723D02*
X35323495Y-12135961D01*
X35323495Y-12135961D02*
X35228257Y-12231200D01*
X35228257Y-12231200D02*
X35085400Y-12278819D01*
X35085400Y-12278819D02*
X34847305Y-12278819D01*
X36371114Y-12278819D02*
X35799686Y-12278819D01*
X36085400Y-12278819D02*
X36085400Y-11278819D01*
X36085400Y-11278819D02*
X35990162Y-11421676D01*
X35990162Y-11421676D02*
X35894924Y-11516914D01*
X35894924Y-11516914D02*
X35799686Y-11564533D01*
D12*
X38260867Y-14239198D02*
X38387867Y-14281532D01*
X38387867Y-14281532D02*
X38430200Y-14323865D01*
X38430200Y-14323865D02*
X38472533Y-14408532D01*
X38472533Y-14408532D02*
X38472533Y-14535532D01*
X38472533Y-14535532D02*
X38430200Y-14620198D01*
X38430200Y-14620198D02*
X38387867Y-14662532D01*
X38387867Y-14662532D02*
X38303200Y-14704865D01*
X38303200Y-14704865D02*
X37964533Y-14704865D01*
X37964533Y-14704865D02*
X37964533Y-13815865D01*
X37964533Y-13815865D02*
X38260867Y-13815865D01*
X38260867Y-13815865D02*
X38345533Y-13858198D01*
X38345533Y-13858198D02*
X38387867Y-13900532D01*
X38387867Y-13900532D02*
X38430200Y-13985198D01*
X38430200Y-13985198D02*
X38430200Y-14069865D01*
X38430200Y-14069865D02*
X38387867Y-14154532D01*
X38387867Y-14154532D02*
X38345533Y-14196865D01*
X38345533Y-14196865D02*
X38260867Y-14239198D01*
X38260867Y-14239198D02*
X37964533Y-14239198D01*
X38811200Y-14450865D02*
X39234533Y-14450865D01*
X38726533Y-14704865D02*
X39022867Y-13815865D01*
X39022867Y-13815865D02*
X39319200Y-14704865D01*
X39488533Y-13815865D02*
X39996533Y-13815865D01*
X39742533Y-14704865D02*
X39742533Y-13815865D01*
X40716200Y-13815865D02*
X40292866Y-13815865D01*
X40292866Y-13815865D02*
X40250533Y-14239198D01*
X40250533Y-14239198D02*
X40292866Y-14196865D01*
X40292866Y-14196865D02*
X40377533Y-14154532D01*
X40377533Y-14154532D02*
X40589200Y-14154532D01*
X40589200Y-14154532D02*
X40673866Y-14196865D01*
X40673866Y-14196865D02*
X40716200Y-14239198D01*
X40716200Y-14239198D02*
X40758533Y-14323865D01*
X40758533Y-14323865D02*
X40758533Y-14535532D01*
X40758533Y-14535532D02*
X40716200Y-14620198D01*
X40716200Y-14620198D02*
X40673866Y-14662532D01*
X40673866Y-14662532D02*
X40589200Y-14704865D01*
X40589200Y-14704865D02*
X40377533Y-14704865D01*
X40377533Y-14704865D02*
X40292866Y-14662532D01*
X40292866Y-14662532D02*
X40250533Y-14620198D01*
X41520533Y-14112198D02*
X41520533Y-14704865D01*
X41308867Y-13773532D02*
X41097200Y-14408532D01*
X41097200Y-14408532D02*
X41647533Y-14408532D01*
X42494200Y-14620198D02*
X42451867Y-14662532D01*
X42451867Y-14662532D02*
X42324867Y-14704865D01*
X42324867Y-14704865D02*
X42240200Y-14704865D01*
X42240200Y-14704865D02*
X42113200Y-14662532D01*
X42113200Y-14662532D02*
X42028534Y-14577865D01*
X42028534Y-14577865D02*
X41986200Y-14493198D01*
X41986200Y-14493198D02*
X41943867Y-14323865D01*
X41943867Y-14323865D02*
X41943867Y-14196865D01*
X41943867Y-14196865D02*
X41986200Y-14027532D01*
X41986200Y-14027532D02*
X42028534Y-13942865D01*
X42028534Y-13942865D02*
X42113200Y-13858198D01*
X42113200Y-13858198D02*
X42240200Y-13815865D01*
X42240200Y-13815865D02*
X42324867Y-13815865D01*
X42324867Y-13815865D02*
X42451867Y-13858198D01*
X42451867Y-13858198D02*
X42494200Y-13900532D01*
D15*
X36683961Y-43552257D02*
X36588723Y-43504638D01*
X36588723Y-43504638D02*
X36493485Y-43409400D01*
X36493485Y-43409400D02*
X36350628Y-43266542D01*
X36350628Y-43266542D02*
X36255390Y-43218923D01*
X36255390Y-43218923D02*
X36160152Y-43218923D01*
X36207771Y-43457019D02*
X36112533Y-43409400D01*
X36112533Y-43409400D02*
X36017295Y-43314161D01*
X36017295Y-43314161D02*
X35969676Y-43123685D01*
X35969676Y-43123685D02*
X35969676Y-42790352D01*
X35969676Y-42790352D02*
X36017295Y-42599876D01*
X36017295Y-42599876D02*
X36112533Y-42504638D01*
X36112533Y-42504638D02*
X36207771Y-42457019D01*
X36207771Y-42457019D02*
X36398247Y-42457019D01*
X36398247Y-42457019D02*
X36493485Y-42504638D01*
X36493485Y-42504638D02*
X36588723Y-42599876D01*
X36588723Y-42599876D02*
X36636342Y-42790352D01*
X36636342Y-42790352D02*
X36636342Y-43123685D01*
X36636342Y-43123685D02*
X36588723Y-43314161D01*
X36588723Y-43314161D02*
X36493485Y-43409400D01*
X36493485Y-43409400D02*
X36398247Y-43457019D01*
X36398247Y-43457019D02*
X36207771Y-43457019D01*
X37207771Y-42885590D02*
X37112533Y-42837971D01*
X37112533Y-42837971D02*
X37064914Y-42790352D01*
X37064914Y-42790352D02*
X37017295Y-42695114D01*
X37017295Y-42695114D02*
X37017295Y-42647495D01*
X37017295Y-42647495D02*
X37064914Y-42552257D01*
X37064914Y-42552257D02*
X37112533Y-42504638D01*
X37112533Y-42504638D02*
X37207771Y-42457019D01*
X37207771Y-42457019D02*
X37398247Y-42457019D01*
X37398247Y-42457019D02*
X37493485Y-42504638D01*
X37493485Y-42504638D02*
X37541104Y-42552257D01*
X37541104Y-42552257D02*
X37588723Y-42647495D01*
X37588723Y-42647495D02*
X37588723Y-42695114D01*
X37588723Y-42695114D02*
X37541104Y-42790352D01*
X37541104Y-42790352D02*
X37493485Y-42837971D01*
X37493485Y-42837971D02*
X37398247Y-42885590D01*
X37398247Y-42885590D02*
X37207771Y-42885590D01*
X37207771Y-42885590D02*
X37112533Y-42933209D01*
X37112533Y-42933209D02*
X37064914Y-42980828D01*
X37064914Y-42980828D02*
X37017295Y-43076066D01*
X37017295Y-43076066D02*
X37017295Y-43266542D01*
X37017295Y-43266542D02*
X37064914Y-43361780D01*
X37064914Y-43361780D02*
X37112533Y-43409400D01*
X37112533Y-43409400D02*
X37207771Y-43457019D01*
X37207771Y-43457019D02*
X37398247Y-43457019D01*
X37398247Y-43457019D02*
X37493485Y-43409400D01*
X37493485Y-43409400D02*
X37541104Y-43361780D01*
X37541104Y-43361780D02*
X37588723Y-43266542D01*
X37588723Y-43266542D02*
X37588723Y-43076066D01*
X37588723Y-43076066D02*
X37541104Y-42980828D01*
X37541104Y-42980828D02*
X37493485Y-42933209D01*
X37493485Y-42933209D02*
X37398247Y-42885590D01*
X24598333Y-82269219D02*
X24265000Y-81793028D01*
X24026905Y-82269219D02*
X24026905Y-81269219D01*
X24026905Y-81269219D02*
X24407857Y-81269219D01*
X24407857Y-81269219D02*
X24503095Y-81316838D01*
X24503095Y-81316838D02*
X24550714Y-81364457D01*
X24550714Y-81364457D02*
X24598333Y-81459695D01*
X24598333Y-81459695D02*
X24598333Y-81602552D01*
X24598333Y-81602552D02*
X24550714Y-81697790D01*
X24550714Y-81697790D02*
X24503095Y-81745409D01*
X24503095Y-81745409D02*
X24407857Y-81793028D01*
X24407857Y-81793028D02*
X24026905Y-81793028D01*
X25074524Y-82269219D02*
X25265000Y-82269219D01*
X25265000Y-82269219D02*
X25360238Y-82221600D01*
X25360238Y-82221600D02*
X25407857Y-82173980D01*
X25407857Y-82173980D02*
X25503095Y-82031123D01*
X25503095Y-82031123D02*
X25550714Y-81840647D01*
X25550714Y-81840647D02*
X25550714Y-81459695D01*
X25550714Y-81459695D02*
X25503095Y-81364457D01*
X25503095Y-81364457D02*
X25455476Y-81316838D01*
X25455476Y-81316838D02*
X25360238Y-81269219D01*
X25360238Y-81269219D02*
X25169762Y-81269219D01*
X25169762Y-81269219D02*
X25074524Y-81316838D01*
X25074524Y-81316838D02*
X25026905Y-81364457D01*
X25026905Y-81364457D02*
X24979286Y-81459695D01*
X24979286Y-81459695D02*
X24979286Y-81697790D01*
X24979286Y-81697790D02*
X25026905Y-81793028D01*
X25026905Y-81793028D02*
X25074524Y-81840647D01*
X25074524Y-81840647D02*
X25169762Y-81888266D01*
X25169762Y-81888266D02*
X25360238Y-81888266D01*
X25360238Y-81888266D02*
X25455476Y-81840647D01*
X25455476Y-81840647D02*
X25503095Y-81793028D01*
X25503095Y-81793028D02*
X25550714Y-81697790D01*
D12*
X20430066Y-61440865D02*
X20430066Y-62160532D01*
X20430066Y-62160532D02*
X20472400Y-62245198D01*
X20472400Y-62245198D02*
X20514733Y-62287532D01*
X20514733Y-62287532D02*
X20599400Y-62329865D01*
X20599400Y-62329865D02*
X20768733Y-62329865D01*
X20768733Y-62329865D02*
X20853400Y-62287532D01*
X20853400Y-62287532D02*
X20895733Y-62245198D01*
X20895733Y-62245198D02*
X20938066Y-62160532D01*
X20938066Y-62160532D02*
X20938066Y-61440865D01*
X21827066Y-62329865D02*
X21319066Y-62329865D01*
X21573066Y-62329865D02*
X21573066Y-61440865D01*
X21573066Y-61440865D02*
X21488399Y-61567865D01*
X21488399Y-61567865D02*
X21403733Y-61652532D01*
X21403733Y-61652532D02*
X21319066Y-61694865D01*
D15*
X50150733Y-39018380D02*
X50103114Y-39066000D01*
X50103114Y-39066000D02*
X49960257Y-39113619D01*
X49960257Y-39113619D02*
X49865019Y-39113619D01*
X49865019Y-39113619D02*
X49722162Y-39066000D01*
X49722162Y-39066000D02*
X49626924Y-38970761D01*
X49626924Y-38970761D02*
X49579305Y-38875523D01*
X49579305Y-38875523D02*
X49531686Y-38685047D01*
X49531686Y-38685047D02*
X49531686Y-38542190D01*
X49531686Y-38542190D02*
X49579305Y-38351714D01*
X49579305Y-38351714D02*
X49626924Y-38256476D01*
X49626924Y-38256476D02*
X49722162Y-38161238D01*
X49722162Y-38161238D02*
X49865019Y-38113619D01*
X49865019Y-38113619D02*
X49960257Y-38113619D01*
X49960257Y-38113619D02*
X50103114Y-38161238D01*
X50103114Y-38161238D02*
X50150733Y-38208857D01*
X51103114Y-39113619D02*
X50531686Y-39113619D01*
X50817400Y-39113619D02*
X50817400Y-38113619D01*
X50817400Y-38113619D02*
X50722162Y-38256476D01*
X50722162Y-38256476D02*
X50626924Y-38351714D01*
X50626924Y-38351714D02*
X50531686Y-38399333D01*
D12*
X50169233Y-44575265D02*
X49661233Y-44575265D01*
X49915233Y-44575265D02*
X49915233Y-43686265D01*
X49915233Y-43686265D02*
X49830566Y-43813265D01*
X49830566Y-43813265D02*
X49745900Y-43897932D01*
X49745900Y-43897932D02*
X49661233Y-43940265D01*
X50931233Y-43982598D02*
X50931233Y-44575265D01*
X50550233Y-43982598D02*
X50550233Y-44448265D01*
X50550233Y-44448265D02*
X50592567Y-44532932D01*
X50592567Y-44532932D02*
X50677233Y-44575265D01*
X50677233Y-44575265D02*
X50804233Y-44575265D01*
X50804233Y-44575265D02*
X50888900Y-44532932D01*
X50888900Y-44532932D02*
X50931233Y-44490598D01*
D15*
X28809961Y-80458457D02*
X28714723Y-80410838D01*
X28714723Y-80410838D02*
X28619485Y-80315600D01*
X28619485Y-80315600D02*
X28476628Y-80172742D01*
X28476628Y-80172742D02*
X28381390Y-80125123D01*
X28381390Y-80125123D02*
X28286152Y-80125123D01*
X28333771Y-80363219D02*
X28238533Y-80315600D01*
X28238533Y-80315600D02*
X28143295Y-80220361D01*
X28143295Y-80220361D02*
X28095676Y-80029885D01*
X28095676Y-80029885D02*
X28095676Y-79696552D01*
X28095676Y-79696552D02*
X28143295Y-79506076D01*
X28143295Y-79506076D02*
X28238533Y-79410838D01*
X28238533Y-79410838D02*
X28333771Y-79363219D01*
X28333771Y-79363219D02*
X28524247Y-79363219D01*
X28524247Y-79363219D02*
X28619485Y-79410838D01*
X28619485Y-79410838D02*
X28714723Y-79506076D01*
X28714723Y-79506076D02*
X28762342Y-79696552D01*
X28762342Y-79696552D02*
X28762342Y-80029885D01*
X28762342Y-80029885D02*
X28714723Y-80220361D01*
X28714723Y-80220361D02*
X28619485Y-80315600D01*
X28619485Y-80315600D02*
X28524247Y-80363219D01*
X28524247Y-80363219D02*
X28333771Y-80363219D01*
X29619485Y-79363219D02*
X29429009Y-79363219D01*
X29429009Y-79363219D02*
X29333771Y-79410838D01*
X29333771Y-79410838D02*
X29286152Y-79458457D01*
X29286152Y-79458457D02*
X29190914Y-79601314D01*
X29190914Y-79601314D02*
X29143295Y-79791790D01*
X29143295Y-79791790D02*
X29143295Y-80172742D01*
X29143295Y-80172742D02*
X29190914Y-80267980D01*
X29190914Y-80267980D02*
X29238533Y-80315600D01*
X29238533Y-80315600D02*
X29333771Y-80363219D01*
X29333771Y-80363219D02*
X29524247Y-80363219D01*
X29524247Y-80363219D02*
X29619485Y-80315600D01*
X29619485Y-80315600D02*
X29667104Y-80267980D01*
X29667104Y-80267980D02*
X29714723Y-80172742D01*
X29714723Y-80172742D02*
X29714723Y-79934647D01*
X29714723Y-79934647D02*
X29667104Y-79839409D01*
X29667104Y-79839409D02*
X29619485Y-79791790D01*
X29619485Y-79791790D02*
X29524247Y-79744171D01*
X29524247Y-79744171D02*
X29333771Y-79744171D01*
X29333771Y-79744171D02*
X29238533Y-79791790D01*
X29238533Y-79791790D02*
X29190914Y-79839409D01*
X29190914Y-79839409D02*
X29143295Y-79934647D01*
D12*
X29387800Y-76951798D02*
X29514800Y-76994132D01*
X29514800Y-76994132D02*
X29557133Y-77036465D01*
X29557133Y-77036465D02*
X29599466Y-77121132D01*
X29599466Y-77121132D02*
X29599466Y-77248132D01*
X29599466Y-77248132D02*
X29557133Y-77332798D01*
X29557133Y-77332798D02*
X29514800Y-77375132D01*
X29514800Y-77375132D02*
X29430133Y-77417465D01*
X29430133Y-77417465D02*
X29091466Y-77417465D01*
X29091466Y-77417465D02*
X29091466Y-76528465D01*
X29091466Y-76528465D02*
X29387800Y-76528465D01*
X29387800Y-76528465D02*
X29472466Y-76570798D01*
X29472466Y-76570798D02*
X29514800Y-76613132D01*
X29514800Y-76613132D02*
X29557133Y-76697798D01*
X29557133Y-76697798D02*
X29557133Y-76782465D01*
X29557133Y-76782465D02*
X29514800Y-76867132D01*
X29514800Y-76867132D02*
X29472466Y-76909465D01*
X29472466Y-76909465D02*
X29387800Y-76951798D01*
X29387800Y-76951798D02*
X29091466Y-76951798D01*
X30488466Y-77332798D02*
X30446133Y-77375132D01*
X30446133Y-77375132D02*
X30319133Y-77417465D01*
X30319133Y-77417465D02*
X30234466Y-77417465D01*
X30234466Y-77417465D02*
X30107466Y-77375132D01*
X30107466Y-77375132D02*
X30022800Y-77290465D01*
X30022800Y-77290465D02*
X29980466Y-77205798D01*
X29980466Y-77205798D02*
X29938133Y-77036465D01*
X29938133Y-77036465D02*
X29938133Y-76909465D01*
X29938133Y-76909465D02*
X29980466Y-76740132D01*
X29980466Y-76740132D02*
X30022800Y-76655465D01*
X30022800Y-76655465D02*
X30107466Y-76570798D01*
X30107466Y-76570798D02*
X30234466Y-76528465D01*
X30234466Y-76528465D02*
X30319133Y-76528465D01*
X30319133Y-76528465D02*
X30446133Y-76570798D01*
X30446133Y-76570798D02*
X30488466Y-76613132D01*
X30996466Y-76909465D02*
X30911800Y-76867132D01*
X30911800Y-76867132D02*
X30869466Y-76824798D01*
X30869466Y-76824798D02*
X30827133Y-76740132D01*
X30827133Y-76740132D02*
X30827133Y-76697798D01*
X30827133Y-76697798D02*
X30869466Y-76613132D01*
X30869466Y-76613132D02*
X30911800Y-76570798D01*
X30911800Y-76570798D02*
X30996466Y-76528465D01*
X30996466Y-76528465D02*
X31165800Y-76528465D01*
X31165800Y-76528465D02*
X31250466Y-76570798D01*
X31250466Y-76570798D02*
X31292800Y-76613132D01*
X31292800Y-76613132D02*
X31335133Y-76697798D01*
X31335133Y-76697798D02*
X31335133Y-76740132D01*
X31335133Y-76740132D02*
X31292800Y-76824798D01*
X31292800Y-76824798D02*
X31250466Y-76867132D01*
X31250466Y-76867132D02*
X31165800Y-76909465D01*
X31165800Y-76909465D02*
X30996466Y-76909465D01*
X30996466Y-76909465D02*
X30911800Y-76951798D01*
X30911800Y-76951798D02*
X30869466Y-76994132D01*
X30869466Y-76994132D02*
X30827133Y-77078798D01*
X30827133Y-77078798D02*
X30827133Y-77248132D01*
X30827133Y-77248132D02*
X30869466Y-77332798D01*
X30869466Y-77332798D02*
X30911800Y-77375132D01*
X30911800Y-77375132D02*
X30996466Y-77417465D01*
X30996466Y-77417465D02*
X31165800Y-77417465D01*
X31165800Y-77417465D02*
X31250466Y-77375132D01*
X31250466Y-77375132D02*
X31292800Y-77332798D01*
X31292800Y-77332798D02*
X31335133Y-77248132D01*
X31335133Y-77248132D02*
X31335133Y-77078798D01*
X31335133Y-77078798D02*
X31292800Y-76994132D01*
X31292800Y-76994132D02*
X31250466Y-76951798D01*
X31250466Y-76951798D02*
X31165800Y-76909465D01*
X32181800Y-77417465D02*
X31673800Y-77417465D01*
X31927800Y-77417465D02*
X31927800Y-76528465D01*
X31927800Y-76528465D02*
X31843133Y-76655465D01*
X31843133Y-76655465D02*
X31758467Y-76740132D01*
X31758467Y-76740132D02*
X31673800Y-76782465D01*
X32478134Y-76528465D02*
X33070800Y-76528465D01*
X33070800Y-76528465D02*
X32689800Y-77417465D01*
D15*
X36683961Y-28337657D02*
X36588723Y-28290038D01*
X36588723Y-28290038D02*
X36493485Y-28194800D01*
X36493485Y-28194800D02*
X36350628Y-28051942D01*
X36350628Y-28051942D02*
X36255390Y-28004323D01*
X36255390Y-28004323D02*
X36160152Y-28004323D01*
X36207771Y-28242419D02*
X36112533Y-28194800D01*
X36112533Y-28194800D02*
X36017295Y-28099561D01*
X36017295Y-28099561D02*
X35969676Y-27909085D01*
X35969676Y-27909085D02*
X35969676Y-27575752D01*
X35969676Y-27575752D02*
X36017295Y-27385276D01*
X36017295Y-27385276D02*
X36112533Y-27290038D01*
X36112533Y-27290038D02*
X36207771Y-27242419D01*
X36207771Y-27242419D02*
X36398247Y-27242419D01*
X36398247Y-27242419D02*
X36493485Y-27290038D01*
X36493485Y-27290038D02*
X36588723Y-27385276D01*
X36588723Y-27385276D02*
X36636342Y-27575752D01*
X36636342Y-27575752D02*
X36636342Y-27909085D01*
X36636342Y-27909085D02*
X36588723Y-28099561D01*
X36588723Y-28099561D02*
X36493485Y-28194800D01*
X36493485Y-28194800D02*
X36398247Y-28242419D01*
X36398247Y-28242419D02*
X36207771Y-28242419D01*
X36969676Y-27242419D02*
X37636342Y-27242419D01*
X37636342Y-27242419D02*
X37207771Y-28242419D01*
D12*
X54783566Y-16051065D02*
X54487233Y-15627732D01*
X54275566Y-16051065D02*
X54275566Y-15162065D01*
X54275566Y-15162065D02*
X54614233Y-15162065D01*
X54614233Y-15162065D02*
X54698900Y-15204398D01*
X54698900Y-15204398D02*
X54741233Y-15246732D01*
X54741233Y-15246732D02*
X54783566Y-15331398D01*
X54783566Y-15331398D02*
X54783566Y-15458398D01*
X54783566Y-15458398D02*
X54741233Y-15543065D01*
X54741233Y-15543065D02*
X54698900Y-15585398D01*
X54698900Y-15585398D02*
X54614233Y-15627732D01*
X54614233Y-15627732D02*
X54275566Y-15627732D01*
X55164566Y-15585398D02*
X55460900Y-15585398D01*
X55587900Y-16051065D02*
X55164566Y-16051065D01*
X55164566Y-16051065D02*
X55164566Y-15162065D01*
X55164566Y-15162065D02*
X55587900Y-15162065D01*
X56392233Y-16051065D02*
X55968899Y-16051065D01*
X55968899Y-16051065D02*
X55968899Y-15162065D01*
X56646233Y-15797065D02*
X57069566Y-15797065D01*
X56561566Y-16051065D02*
X56857900Y-15162065D01*
X56857900Y-15162065D02*
X57154233Y-16051065D01*
X57619900Y-15627732D02*
X57619900Y-16051065D01*
X57323566Y-15162065D02*
X57619900Y-15627732D01*
X57619900Y-15627732D02*
X57916233Y-15162065D01*
D15*
X36734761Y-20730657D02*
X36639523Y-20683038D01*
X36639523Y-20683038D02*
X36544285Y-20587800D01*
X36544285Y-20587800D02*
X36401428Y-20444942D01*
X36401428Y-20444942D02*
X36306190Y-20397323D01*
X36306190Y-20397323D02*
X36210952Y-20397323D01*
X36258571Y-20635419D02*
X36163333Y-20587800D01*
X36163333Y-20587800D02*
X36068095Y-20492561D01*
X36068095Y-20492561D02*
X36020476Y-20302085D01*
X36020476Y-20302085D02*
X36020476Y-19968752D01*
X36020476Y-19968752D02*
X36068095Y-19778276D01*
X36068095Y-19778276D02*
X36163333Y-19683038D01*
X36163333Y-19683038D02*
X36258571Y-19635419D01*
X36258571Y-19635419D02*
X36449047Y-19635419D01*
X36449047Y-19635419D02*
X36544285Y-19683038D01*
X36544285Y-19683038D02*
X36639523Y-19778276D01*
X36639523Y-19778276D02*
X36687142Y-19968752D01*
X36687142Y-19968752D02*
X36687142Y-20302085D01*
X36687142Y-20302085D02*
X36639523Y-20492561D01*
X36639523Y-20492561D02*
X36544285Y-20587800D01*
X36544285Y-20587800D02*
X36449047Y-20635419D01*
X36449047Y-20635419D02*
X36258571Y-20635419D01*
X37020476Y-19635419D02*
X37639523Y-19635419D01*
X37639523Y-19635419D02*
X37306190Y-20016371D01*
X37306190Y-20016371D02*
X37449047Y-20016371D01*
X37449047Y-20016371D02*
X37544285Y-20063990D01*
X37544285Y-20063990D02*
X37591904Y-20111609D01*
X37591904Y-20111609D02*
X37639523Y-20206847D01*
X37639523Y-20206847D02*
X37639523Y-20444942D01*
X37639523Y-20444942D02*
X37591904Y-20540180D01*
X37591904Y-20540180D02*
X37544285Y-20587800D01*
X37544285Y-20587800D02*
X37449047Y-20635419D01*
X37449047Y-20635419D02*
X37163333Y-20635419D01*
X37163333Y-20635419D02*
X37068095Y-20587800D01*
X37068095Y-20587800D02*
X37020476Y-20540180D01*
X31954819Y-39498494D02*
X30954819Y-39498494D01*
X31954819Y-38927066D02*
X31383390Y-39355637D01*
X30954819Y-38927066D02*
X31526247Y-39498494D01*
X30954819Y-38593732D02*
X30954819Y-37974685D01*
X30954819Y-37974685D02*
X31335771Y-38308018D01*
X31335771Y-38308018D02*
X31335771Y-38165161D01*
X31335771Y-38165161D02*
X31383390Y-38069923D01*
X31383390Y-38069923D02*
X31431009Y-38022304D01*
X31431009Y-38022304D02*
X31526247Y-37974685D01*
X31526247Y-37974685D02*
X31764342Y-37974685D01*
X31764342Y-37974685D02*
X31859580Y-38022304D01*
X31859580Y-38022304D02*
X31907200Y-38069923D01*
X31907200Y-38069923D02*
X31954819Y-38165161D01*
X31954819Y-38165161D02*
X31954819Y-38450875D01*
X31954819Y-38450875D02*
X31907200Y-38546113D01*
X31907200Y-38546113D02*
X31859580Y-38593732D01*
X41870333Y-16945780D02*
X41822714Y-16993400D01*
X41822714Y-16993400D02*
X41679857Y-17041019D01*
X41679857Y-17041019D02*
X41584619Y-17041019D01*
X41584619Y-17041019D02*
X41441762Y-16993400D01*
X41441762Y-16993400D02*
X41346524Y-16898161D01*
X41346524Y-16898161D02*
X41298905Y-16802923D01*
X41298905Y-16802923D02*
X41251286Y-16612447D01*
X41251286Y-16612447D02*
X41251286Y-16469590D01*
X41251286Y-16469590D02*
X41298905Y-16279114D01*
X41298905Y-16279114D02*
X41346524Y-16183876D01*
X41346524Y-16183876D02*
X41441762Y-16088638D01*
X41441762Y-16088638D02*
X41584619Y-16041019D01*
X41584619Y-16041019D02*
X41679857Y-16041019D01*
X41679857Y-16041019D02*
X41822714Y-16088638D01*
X41822714Y-16088638D02*
X41870333Y-16136257D01*
X42775095Y-16041019D02*
X42298905Y-16041019D01*
X42298905Y-16041019D02*
X42251286Y-16517209D01*
X42251286Y-16517209D02*
X42298905Y-16469590D01*
X42298905Y-16469590D02*
X42394143Y-16421971D01*
X42394143Y-16421971D02*
X42632238Y-16421971D01*
X42632238Y-16421971D02*
X42727476Y-16469590D01*
X42727476Y-16469590D02*
X42775095Y-16517209D01*
X42775095Y-16517209D02*
X42822714Y-16612447D01*
X42822714Y-16612447D02*
X42822714Y-16850542D01*
X42822714Y-16850542D02*
X42775095Y-16945780D01*
X42775095Y-16945780D02*
X42727476Y-16993400D01*
X42727476Y-16993400D02*
X42632238Y-17041019D01*
X42632238Y-17041019D02*
X42394143Y-17041019D01*
X42394143Y-17041019D02*
X42298905Y-16993400D01*
X42298905Y-16993400D02*
X42251286Y-16945780D01*
D12*
X41516300Y-20496065D02*
X41008300Y-20496065D01*
X41262300Y-20496065D02*
X41262300Y-19607065D01*
X41262300Y-19607065D02*
X41177633Y-19734065D01*
X41177633Y-19734065D02*
X41092967Y-19818732D01*
X41092967Y-19818732D02*
X41008300Y-19861065D01*
X42066634Y-19607065D02*
X42151300Y-19607065D01*
X42151300Y-19607065D02*
X42235967Y-19649398D01*
X42235967Y-19649398D02*
X42278300Y-19691732D01*
X42278300Y-19691732D02*
X42320634Y-19776398D01*
X42320634Y-19776398D02*
X42362967Y-19945732D01*
X42362967Y-19945732D02*
X42362967Y-20157398D01*
X42362967Y-20157398D02*
X42320634Y-20326732D01*
X42320634Y-20326732D02*
X42278300Y-20411398D01*
X42278300Y-20411398D02*
X42235967Y-20453732D01*
X42235967Y-20453732D02*
X42151300Y-20496065D01*
X42151300Y-20496065D02*
X42066634Y-20496065D01*
X42066634Y-20496065D02*
X41981967Y-20453732D01*
X41981967Y-20453732D02*
X41939634Y-20411398D01*
X41939634Y-20411398D02*
X41897300Y-20326732D01*
X41897300Y-20326732D02*
X41854967Y-20157398D01*
X41854967Y-20157398D02*
X41854967Y-19945732D01*
X41854967Y-19945732D02*
X41897300Y-19776398D01*
X41897300Y-19776398D02*
X41939634Y-19691732D01*
X41939634Y-19691732D02*
X41981967Y-19649398D01*
X41981967Y-19649398D02*
X42066634Y-19607065D01*
X43124967Y-19903398D02*
X43124967Y-20496065D01*
X42743967Y-19903398D02*
X42743967Y-20369065D01*
X42743967Y-20369065D02*
X42786301Y-20453732D01*
X42786301Y-20453732D02*
X42870967Y-20496065D01*
X42870967Y-20496065D02*
X42997967Y-20496065D01*
X42997967Y-20496065D02*
X43082634Y-20453732D01*
X43082634Y-20453732D02*
X43124967Y-20411398D01*
D15*
X31954819Y-15139894D02*
X30954819Y-15139894D01*
X31954819Y-14568466D02*
X31383390Y-14997037D01*
X30954819Y-14568466D02*
X31526247Y-15139894D01*
X31954819Y-13616085D02*
X31954819Y-14187513D01*
X31954819Y-13901799D02*
X30954819Y-13901799D01*
X30954819Y-13901799D02*
X31097676Y-13997037D01*
X31097676Y-13997037D02*
X31192914Y-14092275D01*
X31192914Y-14092275D02*
X31240533Y-14187513D01*
X23525552Y-7681238D02*
X23430314Y-7633619D01*
X23430314Y-7633619D02*
X23287457Y-7633619D01*
X23287457Y-7633619D02*
X23144600Y-7681238D01*
X23144600Y-7681238D02*
X23049362Y-7776476D01*
X23049362Y-7776476D02*
X23001743Y-7871714D01*
X23001743Y-7871714D02*
X22954124Y-8062190D01*
X22954124Y-8062190D02*
X22954124Y-8205047D01*
X22954124Y-8205047D02*
X23001743Y-8395523D01*
X23001743Y-8395523D02*
X23049362Y-8490761D01*
X23049362Y-8490761D02*
X23144600Y-8586000D01*
X23144600Y-8586000D02*
X23287457Y-8633619D01*
X23287457Y-8633619D02*
X23382695Y-8633619D01*
X23382695Y-8633619D02*
X23525552Y-8586000D01*
X23525552Y-8586000D02*
X23573171Y-8538380D01*
X23573171Y-8538380D02*
X23573171Y-8205047D01*
X23573171Y-8205047D02*
X23382695Y-8205047D01*
X24477933Y-7633619D02*
X24001743Y-7633619D01*
X24001743Y-7633619D02*
X23954124Y-8109809D01*
X23954124Y-8109809D02*
X24001743Y-8062190D01*
X24001743Y-8062190D02*
X24096981Y-8014571D01*
X24096981Y-8014571D02*
X24335076Y-8014571D01*
X24335076Y-8014571D02*
X24430314Y-8062190D01*
X24430314Y-8062190D02*
X24477933Y-8109809D01*
X24477933Y-8109809D02*
X24525552Y-8205047D01*
X24525552Y-8205047D02*
X24525552Y-8443142D01*
X24525552Y-8443142D02*
X24477933Y-8538380D01*
X24477933Y-8538380D02*
X24430314Y-8586000D01*
X24430314Y-8586000D02*
X24335076Y-8633619D01*
X24335076Y-8633619D02*
X24096981Y-8633619D01*
X24096981Y-8633619D02*
X24001743Y-8586000D01*
X24001743Y-8586000D02*
X23954124Y-8538380D01*
X24811267Y-7633619D02*
X25144600Y-8633619D01*
X25144600Y-8633619D02*
X25477933Y-7633619D01*
X25811267Y-8252666D02*
X26573172Y-8252666D01*
X27001743Y-7728857D02*
X27049362Y-7681238D01*
X27049362Y-7681238D02*
X27144600Y-7633619D01*
X27144600Y-7633619D02*
X27382695Y-7633619D01*
X27382695Y-7633619D02*
X27477933Y-7681238D01*
X27477933Y-7681238D02*
X27525552Y-7728857D01*
X27525552Y-7728857D02*
X27573171Y-7824095D01*
X27573171Y-7824095D02*
X27573171Y-7919333D01*
X27573171Y-7919333D02*
X27525552Y-8062190D01*
X27525552Y-8062190D02*
X26954124Y-8633619D01*
X26954124Y-8633619D02*
X27573171Y-8633619D01*
X27763648Y-8728857D02*
X28525552Y-8728857D01*
X28763648Y-8633619D02*
X28763648Y-7633619D01*
X28763648Y-8109809D02*
X29335076Y-8109809D01*
X29335076Y-8633619D02*
X29335076Y-7633619D01*
X30335076Y-8633619D02*
X29763648Y-8633619D01*
X30049362Y-8633619D02*
X30049362Y-7633619D01*
X30049362Y-7633619D02*
X29954124Y-7776476D01*
X29954124Y-7776476D02*
X29858886Y-7871714D01*
X29858886Y-7871714D02*
X29763648Y-7919333D01*
X41444942Y-29817219D02*
X41111609Y-29341028D01*
X40873514Y-29817219D02*
X40873514Y-28817219D01*
X40873514Y-28817219D02*
X41254466Y-28817219D01*
X41254466Y-28817219D02*
X41349704Y-28864838D01*
X41349704Y-28864838D02*
X41397323Y-28912457D01*
X41397323Y-28912457D02*
X41444942Y-29007695D01*
X41444942Y-29007695D02*
X41444942Y-29150552D01*
X41444942Y-29150552D02*
X41397323Y-29245790D01*
X41397323Y-29245790D02*
X41349704Y-29293409D01*
X41349704Y-29293409D02*
X41254466Y-29341028D01*
X41254466Y-29341028D02*
X40873514Y-29341028D01*
X42397323Y-29817219D02*
X41825895Y-29817219D01*
X42111609Y-29817219D02*
X42111609Y-28817219D01*
X42111609Y-28817219D02*
X42016371Y-28960076D01*
X42016371Y-28960076D02*
X41921133Y-29055314D01*
X41921133Y-29055314D02*
X41825895Y-29102933D01*
X43349704Y-29817219D02*
X42778276Y-29817219D01*
X43063990Y-29817219D02*
X43063990Y-28817219D01*
X43063990Y-28817219D02*
X42968752Y-28960076D01*
X42968752Y-28960076D02*
X42873514Y-29055314D01*
X42873514Y-29055314D02*
X42778276Y-29102933D01*
X36009342Y-80769619D02*
X35676009Y-80293428D01*
X35437914Y-80769619D02*
X35437914Y-79769619D01*
X35437914Y-79769619D02*
X35818866Y-79769619D01*
X35818866Y-79769619D02*
X35914104Y-79817238D01*
X35914104Y-79817238D02*
X35961723Y-79864857D01*
X35961723Y-79864857D02*
X36009342Y-79960095D01*
X36009342Y-79960095D02*
X36009342Y-80102952D01*
X36009342Y-80102952D02*
X35961723Y-80198190D01*
X35961723Y-80198190D02*
X35914104Y-80245809D01*
X35914104Y-80245809D02*
X35818866Y-80293428D01*
X35818866Y-80293428D02*
X35437914Y-80293428D01*
X36961723Y-80769619D02*
X36390295Y-80769619D01*
X36676009Y-80769619D02*
X36676009Y-79769619D01*
X36676009Y-79769619D02*
X36580771Y-79912476D01*
X36580771Y-79912476D02*
X36485533Y-80007714D01*
X36485533Y-80007714D02*
X36390295Y-80055333D01*
X37580771Y-79769619D02*
X37676009Y-79769619D01*
X37676009Y-79769619D02*
X37771247Y-79817238D01*
X37771247Y-79817238D02*
X37818866Y-79864857D01*
X37818866Y-79864857D02*
X37866485Y-79960095D01*
X37866485Y-79960095D02*
X37914104Y-80150571D01*
X37914104Y-80150571D02*
X37914104Y-80388666D01*
X37914104Y-80388666D02*
X37866485Y-80579142D01*
X37866485Y-80579142D02*
X37818866Y-80674380D01*
X37818866Y-80674380D02*
X37771247Y-80722000D01*
X37771247Y-80722000D02*
X37676009Y-80769619D01*
X37676009Y-80769619D02*
X37580771Y-80769619D01*
X37580771Y-80769619D02*
X37485533Y-80722000D01*
X37485533Y-80722000D02*
X37437914Y-80674380D01*
X37437914Y-80674380D02*
X37390295Y-80579142D01*
X37390295Y-80579142D02*
X37342676Y-80388666D01*
X37342676Y-80388666D02*
X37342676Y-80150571D01*
X37342676Y-80150571D02*
X37390295Y-79960095D01*
X37390295Y-79960095D02*
X37437914Y-79864857D01*
X37437914Y-79864857D02*
X37485533Y-79817238D01*
X37485533Y-79817238D02*
X37580771Y-79769619D01*
D12*
X39272633Y-79881265D02*
X38764633Y-79881265D01*
X39018633Y-79881265D02*
X39018633Y-78992265D01*
X39018633Y-78992265D02*
X38933966Y-79119265D01*
X38933966Y-79119265D02*
X38849300Y-79203932D01*
X38849300Y-79203932D02*
X38764633Y-79246265D01*
X39822967Y-78992265D02*
X39907633Y-78992265D01*
X39907633Y-78992265D02*
X39992300Y-79034598D01*
X39992300Y-79034598D02*
X40034633Y-79076932D01*
X40034633Y-79076932D02*
X40076967Y-79161598D01*
X40076967Y-79161598D02*
X40119300Y-79330932D01*
X40119300Y-79330932D02*
X40119300Y-79542598D01*
X40119300Y-79542598D02*
X40076967Y-79711932D01*
X40076967Y-79711932D02*
X40034633Y-79796598D01*
X40034633Y-79796598D02*
X39992300Y-79838932D01*
X39992300Y-79838932D02*
X39907633Y-79881265D01*
X39907633Y-79881265D02*
X39822967Y-79881265D01*
X39822967Y-79881265D02*
X39738300Y-79838932D01*
X39738300Y-79838932D02*
X39695967Y-79796598D01*
X39695967Y-79796598D02*
X39653633Y-79711932D01*
X39653633Y-79711932D02*
X39611300Y-79542598D01*
X39611300Y-79542598D02*
X39611300Y-79330932D01*
X39611300Y-79330932D02*
X39653633Y-79161598D01*
X39653633Y-79161598D02*
X39695967Y-79076932D01*
X39695967Y-79076932D02*
X39738300Y-79034598D01*
X39738300Y-79034598D02*
X39822967Y-78992265D01*
X40500300Y-79881265D02*
X40500300Y-78992265D01*
X40584967Y-79542598D02*
X40838967Y-79881265D01*
X40838967Y-79288598D02*
X40500300Y-79627265D01*
X46706366Y-82446665D02*
X46706366Y-81557665D01*
X47087366Y-81642332D02*
X47129699Y-81599998D01*
X47129699Y-81599998D02*
X47214366Y-81557665D01*
X47214366Y-81557665D02*
X47426033Y-81557665D01*
X47426033Y-81557665D02*
X47510699Y-81599998D01*
X47510699Y-81599998D02*
X47553033Y-81642332D01*
X47553033Y-81642332D02*
X47595366Y-81726998D01*
X47595366Y-81726998D02*
X47595366Y-81811665D01*
X47595366Y-81811665D02*
X47553033Y-81938665D01*
X47553033Y-81938665D02*
X47045033Y-82446665D01*
X47045033Y-82446665D02*
X47595366Y-82446665D01*
X48484366Y-82361998D02*
X48442033Y-82404332D01*
X48442033Y-82404332D02*
X48315033Y-82446665D01*
X48315033Y-82446665D02*
X48230366Y-82446665D01*
X48230366Y-82446665D02*
X48103366Y-82404332D01*
X48103366Y-82404332D02*
X48018700Y-82319665D01*
X48018700Y-82319665D02*
X47976366Y-82234998D01*
X47976366Y-82234998D02*
X47934033Y-82065665D01*
X47934033Y-82065665D02*
X47934033Y-81938665D01*
X47934033Y-81938665D02*
X47976366Y-81769332D01*
X47976366Y-81769332D02*
X48018700Y-81684665D01*
X48018700Y-81684665D02*
X48103366Y-81599998D01*
X48103366Y-81599998D02*
X48230366Y-81557665D01*
X48230366Y-81557665D02*
X48315033Y-81557665D01*
X48315033Y-81557665D02*
X48442033Y-81599998D01*
X48442033Y-81599998D02*
X48484366Y-81642332D01*
X49712033Y-81557665D02*
X49796699Y-81557665D01*
X49796699Y-81557665D02*
X49881366Y-81599998D01*
X49881366Y-81599998D02*
X49923699Y-81642332D01*
X49923699Y-81642332D02*
X49966033Y-81726998D01*
X49966033Y-81726998D02*
X50008366Y-81896332D01*
X50008366Y-81896332D02*
X50008366Y-82107998D01*
X50008366Y-82107998D02*
X49966033Y-82277332D01*
X49966033Y-82277332D02*
X49923699Y-82361998D01*
X49923699Y-82361998D02*
X49881366Y-82404332D01*
X49881366Y-82404332D02*
X49796699Y-82446665D01*
X49796699Y-82446665D02*
X49712033Y-82446665D01*
X49712033Y-82446665D02*
X49627366Y-82404332D01*
X49627366Y-82404332D02*
X49585033Y-82361998D01*
X49585033Y-82361998D02*
X49542699Y-82277332D01*
X49542699Y-82277332D02*
X49500366Y-82107998D01*
X49500366Y-82107998D02*
X49500366Y-81896332D01*
X49500366Y-81896332D02*
X49542699Y-81726998D01*
X49542699Y-81726998D02*
X49585033Y-81642332D01*
X49585033Y-81642332D02*
X49627366Y-81599998D01*
X49627366Y-81599998D02*
X49712033Y-81557665D01*
D15*
X41997333Y-6220619D02*
X41664000Y-5744428D01*
X41425905Y-6220619D02*
X41425905Y-5220619D01*
X41425905Y-5220619D02*
X41806857Y-5220619D01*
X41806857Y-5220619D02*
X41902095Y-5268238D01*
X41902095Y-5268238D02*
X41949714Y-5315857D01*
X41949714Y-5315857D02*
X41997333Y-5411095D01*
X41997333Y-5411095D02*
X41997333Y-5553952D01*
X41997333Y-5553952D02*
X41949714Y-5649190D01*
X41949714Y-5649190D02*
X41902095Y-5696809D01*
X41902095Y-5696809D02*
X41806857Y-5744428D01*
X41806857Y-5744428D02*
X41425905Y-5744428D01*
X42854476Y-5220619D02*
X42664000Y-5220619D01*
X42664000Y-5220619D02*
X42568762Y-5268238D01*
X42568762Y-5268238D02*
X42521143Y-5315857D01*
X42521143Y-5315857D02*
X42425905Y-5458714D01*
X42425905Y-5458714D02*
X42378286Y-5649190D01*
X42378286Y-5649190D02*
X42378286Y-6030142D01*
X42378286Y-6030142D02*
X42425905Y-6125380D01*
X42425905Y-6125380D02*
X42473524Y-6173000D01*
X42473524Y-6173000D02*
X42568762Y-6220619D01*
X42568762Y-6220619D02*
X42759238Y-6220619D01*
X42759238Y-6220619D02*
X42854476Y-6173000D01*
X42854476Y-6173000D02*
X42902095Y-6125380D01*
X42902095Y-6125380D02*
X42949714Y-6030142D01*
X42949714Y-6030142D02*
X42949714Y-5792047D01*
X42949714Y-5792047D02*
X42902095Y-5696809D01*
X42902095Y-5696809D02*
X42854476Y-5649190D01*
X42854476Y-5649190D02*
X42759238Y-5601571D01*
X42759238Y-5601571D02*
X42568762Y-5601571D01*
X42568762Y-5601571D02*
X42473524Y-5649190D01*
X42473524Y-5649190D02*
X42425905Y-5696809D01*
X42425905Y-5696809D02*
X42378286Y-5792047D01*
D12*
X41711033Y-9878865D02*
X41203033Y-9878865D01*
X41457033Y-9878865D02*
X41457033Y-8989865D01*
X41457033Y-8989865D02*
X41372366Y-9116865D01*
X41372366Y-9116865D02*
X41287700Y-9201532D01*
X41287700Y-9201532D02*
X41203033Y-9243865D01*
X42261367Y-8989865D02*
X42346033Y-8989865D01*
X42346033Y-8989865D02*
X42430700Y-9032198D01*
X42430700Y-9032198D02*
X42473033Y-9074532D01*
X42473033Y-9074532D02*
X42515367Y-9159198D01*
X42515367Y-9159198D02*
X42557700Y-9328532D01*
X42557700Y-9328532D02*
X42557700Y-9540198D01*
X42557700Y-9540198D02*
X42515367Y-9709532D01*
X42515367Y-9709532D02*
X42473033Y-9794198D01*
X42473033Y-9794198D02*
X42430700Y-9836532D01*
X42430700Y-9836532D02*
X42346033Y-9878865D01*
X42346033Y-9878865D02*
X42261367Y-9878865D01*
X42261367Y-9878865D02*
X42176700Y-9836532D01*
X42176700Y-9836532D02*
X42134367Y-9794198D01*
X42134367Y-9794198D02*
X42092033Y-9709532D01*
X42092033Y-9709532D02*
X42049700Y-9540198D01*
X42049700Y-9540198D02*
X42049700Y-9328532D01*
X42049700Y-9328532D02*
X42092033Y-9159198D01*
X42092033Y-9159198D02*
X42134367Y-9074532D01*
X42134367Y-9074532D02*
X42176700Y-9032198D01*
X42176700Y-9032198D02*
X42261367Y-8989865D01*
X42938700Y-9878865D02*
X42938700Y-8989865D01*
X43023367Y-9540198D02*
X43277367Y-9878865D01*
X43277367Y-9286198D02*
X42938700Y-9624865D01*
D15*
X34288505Y-36256419D02*
X34288505Y-35256419D01*
X34288505Y-35256419D02*
X34526600Y-35256419D01*
X34526600Y-35256419D02*
X34669457Y-35304038D01*
X34669457Y-35304038D02*
X34764695Y-35399276D01*
X34764695Y-35399276D02*
X34812314Y-35494514D01*
X34812314Y-35494514D02*
X34859933Y-35684990D01*
X34859933Y-35684990D02*
X34859933Y-35827847D01*
X34859933Y-35827847D02*
X34812314Y-36018323D01*
X34812314Y-36018323D02*
X34764695Y-36113561D01*
X34764695Y-36113561D02*
X34669457Y-36208800D01*
X34669457Y-36208800D02*
X34526600Y-36256419D01*
X34526600Y-36256419D02*
X34288505Y-36256419D01*
X35240886Y-35351657D02*
X35288505Y-35304038D01*
X35288505Y-35304038D02*
X35383743Y-35256419D01*
X35383743Y-35256419D02*
X35621838Y-35256419D01*
X35621838Y-35256419D02*
X35717076Y-35304038D01*
X35717076Y-35304038D02*
X35764695Y-35351657D01*
X35764695Y-35351657D02*
X35812314Y-35446895D01*
X35812314Y-35446895D02*
X35812314Y-35542133D01*
X35812314Y-35542133D02*
X35764695Y-35684990D01*
X35764695Y-35684990D02*
X35193267Y-36256419D01*
X35193267Y-36256419D02*
X35812314Y-36256419D01*
D12*
X37575067Y-39512198D02*
X37702067Y-39554532D01*
X37702067Y-39554532D02*
X37744400Y-39596865D01*
X37744400Y-39596865D02*
X37786733Y-39681532D01*
X37786733Y-39681532D02*
X37786733Y-39808532D01*
X37786733Y-39808532D02*
X37744400Y-39893198D01*
X37744400Y-39893198D02*
X37702067Y-39935532D01*
X37702067Y-39935532D02*
X37617400Y-39977865D01*
X37617400Y-39977865D02*
X37278733Y-39977865D01*
X37278733Y-39977865D02*
X37278733Y-39088865D01*
X37278733Y-39088865D02*
X37575067Y-39088865D01*
X37575067Y-39088865D02*
X37659733Y-39131198D01*
X37659733Y-39131198D02*
X37702067Y-39173532D01*
X37702067Y-39173532D02*
X37744400Y-39258198D01*
X37744400Y-39258198D02*
X37744400Y-39342865D01*
X37744400Y-39342865D02*
X37702067Y-39427532D01*
X37702067Y-39427532D02*
X37659733Y-39469865D01*
X37659733Y-39469865D02*
X37575067Y-39512198D01*
X37575067Y-39512198D02*
X37278733Y-39512198D01*
X38125400Y-39723865D02*
X38548733Y-39723865D01*
X38040733Y-39977865D02*
X38337067Y-39088865D01*
X38337067Y-39088865D02*
X38633400Y-39977865D01*
X38802733Y-39088865D02*
X39310733Y-39088865D01*
X39056733Y-39977865D02*
X39056733Y-39088865D01*
X40030400Y-39088865D02*
X39607066Y-39088865D01*
X39607066Y-39088865D02*
X39564733Y-39512198D01*
X39564733Y-39512198D02*
X39607066Y-39469865D01*
X39607066Y-39469865D02*
X39691733Y-39427532D01*
X39691733Y-39427532D02*
X39903400Y-39427532D01*
X39903400Y-39427532D02*
X39988066Y-39469865D01*
X39988066Y-39469865D02*
X40030400Y-39512198D01*
X40030400Y-39512198D02*
X40072733Y-39596865D01*
X40072733Y-39596865D02*
X40072733Y-39808532D01*
X40072733Y-39808532D02*
X40030400Y-39893198D01*
X40030400Y-39893198D02*
X39988066Y-39935532D01*
X39988066Y-39935532D02*
X39903400Y-39977865D01*
X39903400Y-39977865D02*
X39691733Y-39977865D01*
X39691733Y-39977865D02*
X39607066Y-39935532D01*
X39607066Y-39935532D02*
X39564733Y-39893198D01*
X40834733Y-39385198D02*
X40834733Y-39977865D01*
X40623067Y-39046532D02*
X40411400Y-39681532D01*
X40411400Y-39681532D02*
X40961733Y-39681532D01*
X41808400Y-39893198D02*
X41766067Y-39935532D01*
X41766067Y-39935532D02*
X41639067Y-39977865D01*
X41639067Y-39977865D02*
X41554400Y-39977865D01*
X41554400Y-39977865D02*
X41427400Y-39935532D01*
X41427400Y-39935532D02*
X41342734Y-39850865D01*
X41342734Y-39850865D02*
X41300400Y-39766198D01*
X41300400Y-39766198D02*
X41258067Y-39596865D01*
X41258067Y-39596865D02*
X41258067Y-39469865D01*
X41258067Y-39469865D02*
X41300400Y-39300532D01*
X41300400Y-39300532D02*
X41342734Y-39215865D01*
X41342734Y-39215865D02*
X41427400Y-39131198D01*
X41427400Y-39131198D02*
X41554400Y-39088865D01*
X41554400Y-39088865D02*
X41639067Y-39088865D01*
X41639067Y-39088865D02*
X41766067Y-39131198D01*
X41766067Y-39131198D02*
X41808400Y-39173532D01*
D14*
X49020790Y-63451453D02*
X49020790Y-62435453D01*
X50085172Y-63354692D02*
X50036791Y-63403073D01*
X50036791Y-63403073D02*
X49891648Y-63451453D01*
X49891648Y-63451453D02*
X49794886Y-63451453D01*
X49794886Y-63451453D02*
X49649743Y-63403073D01*
X49649743Y-63403073D02*
X49552981Y-63306311D01*
X49552981Y-63306311D02*
X49504600Y-63209549D01*
X49504600Y-63209549D02*
X49456219Y-63016025D01*
X49456219Y-63016025D02*
X49456219Y-62870882D01*
X49456219Y-62870882D02*
X49504600Y-62677358D01*
X49504600Y-62677358D02*
X49552981Y-62580596D01*
X49552981Y-62580596D02*
X49649743Y-62483834D01*
X49649743Y-62483834D02*
X49794886Y-62435453D01*
X49794886Y-62435453D02*
X49891648Y-62435453D01*
X49891648Y-62435453D02*
X50036791Y-62483834D01*
X50036791Y-62483834D02*
X50085172Y-62532215D01*
X51052791Y-63451453D02*
X50472219Y-63451453D01*
X50762505Y-63451453D02*
X50762505Y-62435453D01*
X50762505Y-62435453D02*
X50665743Y-62580596D01*
X50665743Y-62580596D02*
X50568981Y-62677358D01*
X50568981Y-62677358D02*
X50472219Y-62725739D01*
D12*
X38277799Y-74826665D02*
X38277799Y-73937665D01*
X38277799Y-73937665D02*
X38616466Y-73937665D01*
X38616466Y-73937665D02*
X38701133Y-73979998D01*
X38701133Y-73979998D02*
X38743466Y-74022332D01*
X38743466Y-74022332D02*
X38785799Y-74106998D01*
X38785799Y-74106998D02*
X38785799Y-74233998D01*
X38785799Y-74233998D02*
X38743466Y-74318665D01*
X38743466Y-74318665D02*
X38701133Y-74360998D01*
X38701133Y-74360998D02*
X38616466Y-74403332D01*
X38616466Y-74403332D02*
X38277799Y-74403332D01*
X39674799Y-74741998D02*
X39632466Y-74784332D01*
X39632466Y-74784332D02*
X39505466Y-74826665D01*
X39505466Y-74826665D02*
X39420799Y-74826665D01*
X39420799Y-74826665D02*
X39293799Y-74784332D01*
X39293799Y-74784332D02*
X39209133Y-74699665D01*
X39209133Y-74699665D02*
X39166799Y-74614998D01*
X39166799Y-74614998D02*
X39124466Y-74445665D01*
X39124466Y-74445665D02*
X39124466Y-74318665D01*
X39124466Y-74318665D02*
X39166799Y-74149332D01*
X39166799Y-74149332D02*
X39209133Y-74064665D01*
X39209133Y-74064665D02*
X39293799Y-73979998D01*
X39293799Y-73979998D02*
X39420799Y-73937665D01*
X39420799Y-73937665D02*
X39505466Y-73937665D01*
X39505466Y-73937665D02*
X39632466Y-73979998D01*
X39632466Y-73979998D02*
X39674799Y-74022332D01*
X40013466Y-74572665D02*
X40436799Y-74572665D01*
X39928799Y-74826665D02*
X40225133Y-73937665D01*
X40225133Y-73937665D02*
X40521466Y-74826665D01*
X40860133Y-74826665D02*
X41029466Y-74826665D01*
X41029466Y-74826665D02*
X41114133Y-74784332D01*
X41114133Y-74784332D02*
X41156466Y-74741998D01*
X41156466Y-74741998D02*
X41241133Y-74614998D01*
X41241133Y-74614998D02*
X41283466Y-74445665D01*
X41283466Y-74445665D02*
X41283466Y-74106998D01*
X41283466Y-74106998D02*
X41241133Y-74022332D01*
X41241133Y-74022332D02*
X41198799Y-73979998D01*
X41198799Y-73979998D02*
X41114133Y-73937665D01*
X41114133Y-73937665D02*
X40944799Y-73937665D01*
X40944799Y-73937665D02*
X40860133Y-73979998D01*
X40860133Y-73979998D02*
X40817799Y-74022332D01*
X40817799Y-74022332D02*
X40775466Y-74106998D01*
X40775466Y-74106998D02*
X40775466Y-74318665D01*
X40775466Y-74318665D02*
X40817799Y-74403332D01*
X40817799Y-74403332D02*
X40860133Y-74445665D01*
X40860133Y-74445665D02*
X40944799Y-74487998D01*
X40944799Y-74487998D02*
X41114133Y-74487998D01*
X41114133Y-74487998D02*
X41198799Y-74445665D01*
X41198799Y-74445665D02*
X41241133Y-74403332D01*
X41241133Y-74403332D02*
X41283466Y-74318665D01*
X42087800Y-73937665D02*
X41664466Y-73937665D01*
X41664466Y-73937665D02*
X41622133Y-74360998D01*
X41622133Y-74360998D02*
X41664466Y-74318665D01*
X41664466Y-74318665D02*
X41749133Y-74276332D01*
X41749133Y-74276332D02*
X41960800Y-74276332D01*
X41960800Y-74276332D02*
X42045466Y-74318665D01*
X42045466Y-74318665D02*
X42087800Y-74360998D01*
X42087800Y-74360998D02*
X42130133Y-74445665D01*
X42130133Y-74445665D02*
X42130133Y-74657332D01*
X42130133Y-74657332D02*
X42087800Y-74741998D01*
X42087800Y-74741998D02*
X42045466Y-74784332D01*
X42045466Y-74784332D02*
X41960800Y-74826665D01*
X41960800Y-74826665D02*
X41749133Y-74826665D01*
X41749133Y-74826665D02*
X41664466Y-74784332D01*
X41664466Y-74784332D02*
X41622133Y-74741998D01*
X42934467Y-73937665D02*
X42511133Y-73937665D01*
X42511133Y-73937665D02*
X42468800Y-74360998D01*
X42468800Y-74360998D02*
X42511133Y-74318665D01*
X42511133Y-74318665D02*
X42595800Y-74276332D01*
X42595800Y-74276332D02*
X42807467Y-74276332D01*
X42807467Y-74276332D02*
X42892133Y-74318665D01*
X42892133Y-74318665D02*
X42934467Y-74360998D01*
X42934467Y-74360998D02*
X42976800Y-74445665D01*
X42976800Y-74445665D02*
X42976800Y-74657332D01*
X42976800Y-74657332D02*
X42934467Y-74741998D01*
X42934467Y-74741998D02*
X42892133Y-74784332D01*
X42892133Y-74784332D02*
X42807467Y-74826665D01*
X42807467Y-74826665D02*
X42595800Y-74826665D01*
X42595800Y-74826665D02*
X42511133Y-74784332D01*
X42511133Y-74784332D02*
X42468800Y-74741998D01*
X43738800Y-74233998D02*
X43738800Y-74826665D01*
X43527134Y-73895332D02*
X43315467Y-74530332D01*
X43315467Y-74530332D02*
X43865800Y-74530332D01*
X44204467Y-74487998D02*
X44881801Y-74487998D01*
X45305134Y-74826665D02*
X45305134Y-73937665D01*
X45305134Y-73937665D02*
X45516801Y-73937665D01*
X45516801Y-73937665D02*
X45643801Y-73979998D01*
X45643801Y-73979998D02*
X45728468Y-74064665D01*
X45728468Y-74064665D02*
X45770801Y-74149332D01*
X45770801Y-74149332D02*
X45813134Y-74318665D01*
X45813134Y-74318665D02*
X45813134Y-74445665D01*
X45813134Y-74445665D02*
X45770801Y-74614998D01*
X45770801Y-74614998D02*
X45728468Y-74699665D01*
X45728468Y-74699665D02*
X45643801Y-74784332D01*
X45643801Y-74784332D02*
X45516801Y-74826665D01*
X45516801Y-74826665D02*
X45305134Y-74826665D01*
X46109468Y-73937665D02*
X46321134Y-74826665D01*
X46321134Y-74826665D02*
X46490468Y-74191665D01*
X46490468Y-74191665D02*
X46659801Y-74826665D01*
X46659801Y-74826665D02*
X46871468Y-73937665D01*
X47718134Y-74826665D02*
X47421801Y-74403332D01*
X47210134Y-74826665D02*
X47210134Y-73937665D01*
X47210134Y-73937665D02*
X47548801Y-73937665D01*
X47548801Y-73937665D02*
X47633468Y-73979998D01*
X47633468Y-73979998D02*
X47675801Y-74022332D01*
X47675801Y-74022332D02*
X47718134Y-74106998D01*
X47718134Y-74106998D02*
X47718134Y-74233998D01*
X47718134Y-74233998D02*
X47675801Y-74318665D01*
X47675801Y-74318665D02*
X47633468Y-74360998D01*
X47633468Y-74360998D02*
X47548801Y-74403332D01*
X47548801Y-74403332D02*
X47210134Y-74403332D01*
D15*
X36383933Y-76553219D02*
X36050600Y-76077028D01*
X35812505Y-76553219D02*
X35812505Y-75553219D01*
X35812505Y-75553219D02*
X36193457Y-75553219D01*
X36193457Y-75553219D02*
X36288695Y-75600838D01*
X36288695Y-75600838D02*
X36336314Y-75648457D01*
X36336314Y-75648457D02*
X36383933Y-75743695D01*
X36383933Y-75743695D02*
X36383933Y-75886552D01*
X36383933Y-75886552D02*
X36336314Y-75981790D01*
X36336314Y-75981790D02*
X36288695Y-76029409D01*
X36288695Y-76029409D02*
X36193457Y-76077028D01*
X36193457Y-76077028D02*
X35812505Y-76077028D01*
X36955362Y-75981790D02*
X36860124Y-75934171D01*
X36860124Y-75934171D02*
X36812505Y-75886552D01*
X36812505Y-75886552D02*
X36764886Y-75791314D01*
X36764886Y-75791314D02*
X36764886Y-75743695D01*
X36764886Y-75743695D02*
X36812505Y-75648457D01*
X36812505Y-75648457D02*
X36860124Y-75600838D01*
X36860124Y-75600838D02*
X36955362Y-75553219D01*
X36955362Y-75553219D02*
X37145838Y-75553219D01*
X37145838Y-75553219D02*
X37241076Y-75600838D01*
X37241076Y-75600838D02*
X37288695Y-75648457D01*
X37288695Y-75648457D02*
X37336314Y-75743695D01*
X37336314Y-75743695D02*
X37336314Y-75791314D01*
X37336314Y-75791314D02*
X37288695Y-75886552D01*
X37288695Y-75886552D02*
X37241076Y-75934171D01*
X37241076Y-75934171D02*
X37145838Y-75981790D01*
X37145838Y-75981790D02*
X36955362Y-75981790D01*
X36955362Y-75981790D02*
X36860124Y-76029409D01*
X36860124Y-76029409D02*
X36812505Y-76077028D01*
X36812505Y-76077028D02*
X36764886Y-76172266D01*
X36764886Y-76172266D02*
X36764886Y-76362742D01*
X36764886Y-76362742D02*
X36812505Y-76457980D01*
X36812505Y-76457980D02*
X36860124Y-76505600D01*
X36860124Y-76505600D02*
X36955362Y-76553219D01*
X36955362Y-76553219D02*
X37145838Y-76553219D01*
X37145838Y-76553219D02*
X37241076Y-76505600D01*
X37241076Y-76505600D02*
X37288695Y-76457980D01*
X37288695Y-76457980D02*
X37336314Y-76362742D01*
X37336314Y-76362742D02*
X37336314Y-76172266D01*
X37336314Y-76172266D02*
X37288695Y-76077028D01*
X37288695Y-76077028D02*
X37241076Y-76029409D01*
X37241076Y-76029409D02*
X37145838Y-75981790D01*
X36582361Y-4588657D02*
X36487123Y-4541038D01*
X36487123Y-4541038D02*
X36391885Y-4445800D01*
X36391885Y-4445800D02*
X36249028Y-4302942D01*
X36249028Y-4302942D02*
X36153790Y-4255323D01*
X36153790Y-4255323D02*
X36058552Y-4255323D01*
X36106171Y-4493419D02*
X36010933Y-4445800D01*
X36010933Y-4445800D02*
X35915695Y-4350561D01*
X35915695Y-4350561D02*
X35868076Y-4160085D01*
X35868076Y-4160085D02*
X35868076Y-3826752D01*
X35868076Y-3826752D02*
X35915695Y-3636276D01*
X35915695Y-3636276D02*
X36010933Y-3541038D01*
X36010933Y-3541038D02*
X36106171Y-3493419D01*
X36106171Y-3493419D02*
X36296647Y-3493419D01*
X36296647Y-3493419D02*
X36391885Y-3541038D01*
X36391885Y-3541038D02*
X36487123Y-3636276D01*
X36487123Y-3636276D02*
X36534742Y-3826752D01*
X36534742Y-3826752D02*
X36534742Y-4160085D01*
X36534742Y-4160085D02*
X36487123Y-4350561D01*
X36487123Y-4350561D02*
X36391885Y-4445800D01*
X36391885Y-4445800D02*
X36296647Y-4493419D01*
X36296647Y-4493419D02*
X36106171Y-4493419D01*
X37391885Y-3826752D02*
X37391885Y-4493419D01*
X37153790Y-3445800D02*
X36915695Y-4160085D01*
X36915695Y-4160085D02*
X37534742Y-4160085D01*
D12*
X35204400Y-9336998D02*
X35331400Y-9379332D01*
X35331400Y-9379332D02*
X35373733Y-9421665D01*
X35373733Y-9421665D02*
X35416066Y-9506332D01*
X35416066Y-9506332D02*
X35416066Y-9633332D01*
X35416066Y-9633332D02*
X35373733Y-9717998D01*
X35373733Y-9717998D02*
X35331400Y-9760332D01*
X35331400Y-9760332D02*
X35246733Y-9802665D01*
X35246733Y-9802665D02*
X34908066Y-9802665D01*
X34908066Y-9802665D02*
X34908066Y-8913665D01*
X34908066Y-8913665D02*
X35204400Y-8913665D01*
X35204400Y-8913665D02*
X35289066Y-8955998D01*
X35289066Y-8955998D02*
X35331400Y-8998332D01*
X35331400Y-8998332D02*
X35373733Y-9082998D01*
X35373733Y-9082998D02*
X35373733Y-9167665D01*
X35373733Y-9167665D02*
X35331400Y-9252332D01*
X35331400Y-9252332D02*
X35289066Y-9294665D01*
X35289066Y-9294665D02*
X35204400Y-9336998D01*
X35204400Y-9336998D02*
X34908066Y-9336998D01*
X36305066Y-9717998D02*
X36262733Y-9760332D01*
X36262733Y-9760332D02*
X36135733Y-9802665D01*
X36135733Y-9802665D02*
X36051066Y-9802665D01*
X36051066Y-9802665D02*
X35924066Y-9760332D01*
X35924066Y-9760332D02*
X35839400Y-9675665D01*
X35839400Y-9675665D02*
X35797066Y-9590998D01*
X35797066Y-9590998D02*
X35754733Y-9421665D01*
X35754733Y-9421665D02*
X35754733Y-9294665D01*
X35754733Y-9294665D02*
X35797066Y-9125332D01*
X35797066Y-9125332D02*
X35839400Y-9040665D01*
X35839400Y-9040665D02*
X35924066Y-8955998D01*
X35924066Y-8955998D02*
X36051066Y-8913665D01*
X36051066Y-8913665D02*
X36135733Y-8913665D01*
X36135733Y-8913665D02*
X36262733Y-8955998D01*
X36262733Y-8955998D02*
X36305066Y-8998332D01*
X36813066Y-9294665D02*
X36728400Y-9252332D01*
X36728400Y-9252332D02*
X36686066Y-9209998D01*
X36686066Y-9209998D02*
X36643733Y-9125332D01*
X36643733Y-9125332D02*
X36643733Y-9082998D01*
X36643733Y-9082998D02*
X36686066Y-8998332D01*
X36686066Y-8998332D02*
X36728400Y-8955998D01*
X36728400Y-8955998D02*
X36813066Y-8913665D01*
X36813066Y-8913665D02*
X36982400Y-8913665D01*
X36982400Y-8913665D02*
X37067066Y-8955998D01*
X37067066Y-8955998D02*
X37109400Y-8998332D01*
X37109400Y-8998332D02*
X37151733Y-9082998D01*
X37151733Y-9082998D02*
X37151733Y-9125332D01*
X37151733Y-9125332D02*
X37109400Y-9209998D01*
X37109400Y-9209998D02*
X37067066Y-9252332D01*
X37067066Y-9252332D02*
X36982400Y-9294665D01*
X36982400Y-9294665D02*
X36813066Y-9294665D01*
X36813066Y-9294665D02*
X36728400Y-9336998D01*
X36728400Y-9336998D02*
X36686066Y-9379332D01*
X36686066Y-9379332D02*
X36643733Y-9463998D01*
X36643733Y-9463998D02*
X36643733Y-9633332D01*
X36643733Y-9633332D02*
X36686066Y-9717998D01*
X36686066Y-9717998D02*
X36728400Y-9760332D01*
X36728400Y-9760332D02*
X36813066Y-9802665D01*
X36813066Y-9802665D02*
X36982400Y-9802665D01*
X36982400Y-9802665D02*
X37067066Y-9760332D01*
X37067066Y-9760332D02*
X37109400Y-9717998D01*
X37109400Y-9717998D02*
X37151733Y-9633332D01*
X37151733Y-9633332D02*
X37151733Y-9463998D01*
X37151733Y-9463998D02*
X37109400Y-9379332D01*
X37109400Y-9379332D02*
X37067066Y-9336998D01*
X37067066Y-9336998D02*
X36982400Y-9294665D01*
X37998400Y-9802665D02*
X37490400Y-9802665D01*
X37744400Y-9802665D02*
X37744400Y-8913665D01*
X37744400Y-8913665D02*
X37659733Y-9040665D01*
X37659733Y-9040665D02*
X37575067Y-9125332D01*
X37575067Y-9125332D02*
X37490400Y-9167665D01*
X38294734Y-8913665D02*
X38887400Y-8913665D01*
X38887400Y-8913665D02*
X38506400Y-9802665D01*
D16*
%TO.C,Q1*%
X30863300Y-57698200D02*
X30213300Y-57698200D01*
X30863300Y-57698200D02*
X31513300Y-57698200D01*
X30863300Y-60818200D02*
X30213300Y-60818200D01*
X30863300Y-60818200D02*
X31513300Y-60818200D01*
X32265800Y-61098200D02*
X31785800Y-61098200D01*
X32025800Y-60768200D01*
X32265800Y-61098200D01*
G36*
X32265800Y-61098200D02*
G01*
X31785800Y-61098200D01*
X32025800Y-60768200D01*
X32265800Y-61098200D01*
G37*
%TO.C,K2*%
X9810000Y-21226000D02*
X9810000Y-31606000D01*
X9810000Y-31606000D02*
X30400000Y-31606000D01*
X27990000Y-26076000D02*
X27990000Y-26776000D01*
X27990000Y-26776000D02*
X29190000Y-26776000D01*
X28390000Y-26076000D02*
X28790000Y-26776000D01*
X28560000Y-26076000D02*
X28560000Y-24976000D01*
X28560000Y-26776000D02*
X28560000Y-27876000D01*
X29190000Y-26076000D02*
X27990000Y-26076000D01*
X29190000Y-26776000D02*
X29190000Y-26076000D01*
X29250000Y-21066000D02*
X30550000Y-21066000D01*
X29340000Y-24906000D02*
X29340000Y-27906000D01*
X29340000Y-27906000D02*
X30400000Y-27906000D01*
X30400000Y-21226000D02*
X9810000Y-21226000D01*
X30400000Y-24906000D02*
X29360000Y-24906000D01*
X30400000Y-31606000D02*
X30400000Y-21226000D01*
X30550000Y-21066000D02*
X30550000Y-22276000D01*
%TO.C,R4*%
X34317000Y-68553064D02*
X34317000Y-68098936D01*
X35787000Y-68553064D02*
X35787000Y-68098936D01*
D17*
%TO.C,J5*%
X-4990000Y-65190000D02*
X4210000Y-65190000D01*
X-4990000Y-74000000D02*
X-4990000Y-65190000D01*
X4210000Y-65190000D02*
X4210000Y-74000000D01*
X4210000Y-74000000D02*
X-4990000Y-74000000D01*
%TO.C,J3*%
X-4990000Y-55690000D02*
X4210000Y-55690000D01*
X-4990000Y-64500000D02*
X-4990000Y-55690000D01*
X4210000Y-55690000D02*
X4210000Y-64500000D01*
X4210000Y-64500000D02*
X-4990000Y-64500000D01*
D18*
%TO.C,J1*%
X-5000000Y-1880000D02*
X4200000Y-1880000D01*
X-5000000Y-14500000D02*
X-5000000Y-1880000D01*
X3000000Y-14500000D02*
X-5000000Y-14500000D01*
D16*
%TO.C,C4*%
X25077052Y-87225200D02*
X24554548Y-87225200D01*
X25077052Y-88695200D02*
X24554548Y-88695200D01*
%TO.C,C2*%
X33351800Y-52443748D02*
X33351800Y-52966252D01*
X34821800Y-52443748D02*
X34821800Y-52966252D01*
D17*
%TO.C,J10*%
X-4990000Y-84190000D02*
X4210000Y-84190000D01*
X-4990000Y-93000000D02*
X-4990000Y-84190000D01*
X4210000Y-84190000D02*
X4210000Y-93000000D01*
X4210000Y-93000000D02*
X-4990000Y-93000000D01*
D16*
%TO.C,JP1*%
X44644000Y-56270200D02*
X44644000Y-54940200D01*
X45974000Y-56270200D02*
X44644000Y-56270200D01*
X47244000Y-53610200D02*
X52384000Y-53610200D01*
X47244000Y-56270200D02*
X47244000Y-53610200D01*
X47244000Y-56270200D02*
X52384000Y-56270200D01*
X52384000Y-56270200D02*
X52384000Y-53610200D01*
D18*
%TO.C,U3*%
X11324000Y-73434332D02*
X17124000Y-73434332D01*
X11324000Y-78034332D02*
X11324000Y-73434332D01*
X17124000Y-73434332D02*
X17124000Y-78034332D01*
X17124000Y-78034332D02*
X11324000Y-78034332D01*
X19574000Y-78129332D02*
X17474000Y-78129332D01*
D16*
%TO.C,R2*%
X34342400Y-61415664D02*
X34342400Y-60961536D01*
X35812400Y-61415664D02*
X35812400Y-60961536D01*
%TO.C,H4*%
X56184801Y-91287600D02*
X56184801Y-91287600D01*
X56184801Y-91287600D01*
X56184801Y-91287600D01*
X56184801Y-91287600D01*
X56184801Y-91287600D01*
X56184801Y-91287601D01*
X56184801Y-91287601D01*
X56184801Y-91287601D01*
X56184801Y-91287601D01*
X56184801Y-91287601D01*
X56184801Y-91287601D01*
X56184801Y-91287601D01*
X56184800Y-91287601D01*
X56184800Y-91287601D01*
X56184800Y-91287601D01*
X56184800Y-91287601D01*
X56184800Y-91287601D01*
X56184800Y-91287601D01*
X56184800Y-91287601D01*
X56184800Y-91287601D01*
X56184800Y-91287601D01*
X56184800Y-91287601D01*
X56184800Y-91287601D01*
X56184800Y-91287601D01*
X56184799Y-91287601D01*
X56184799Y-91287601D01*
X56184799Y-91287601D01*
X56184799Y-91287601D01*
X56184799Y-91287601D01*
X56184799Y-91287601D01*
X56184799Y-91287600D01*
X56184799Y-91287600D01*
X56184799Y-91287600D01*
X56184799Y-91287600D01*
X56184799Y-91287600D01*
X56184799Y-91287600D01*
X56184799Y-91287600D02*
X56184799Y-91287600D01*
X56184799Y-91287600D01*
X56184799Y-91287600D01*
X56184799Y-91287600D01*
X56184799Y-91287600D01*
X56184799Y-91287600D01*
X56184799Y-91287599D01*
X56184799Y-91287599D01*
X56184799Y-91287599D01*
X56184799Y-91287599D01*
X56184799Y-91287599D01*
X56184800Y-91287599D01*
X56184800Y-91287599D01*
X56184800Y-91287599D01*
X56184800Y-91287599D01*
X56184800Y-91287599D01*
X56184800Y-91287599D01*
X56184800Y-91287599D01*
X56184800Y-91287599D01*
X56184800Y-91287599D01*
X56184800Y-91287599D01*
X56184800Y-91287599D01*
X56184800Y-91287599D01*
X56184801Y-91287599D01*
X56184801Y-91287599D01*
X56184801Y-91287599D01*
X56184801Y-91287599D01*
X56184801Y-91287599D01*
X56184801Y-91287599D01*
X56184801Y-91287600D01*
X56184801Y-91287600D01*
X56184801Y-91287600D01*
X56184801Y-91287600D01*
X56184801Y-91287600D01*
X56184801Y-91287600D01*
X56184801Y-91287600D01*
%TO.C,R1*%
X24537936Y-61063200D02*
X24992064Y-61063200D01*
X24537936Y-62533200D02*
X24992064Y-62533200D01*
%TO.C,R3*%
X24537936Y-68099000D02*
X24992064Y-68099000D01*
X24537936Y-69569000D02*
X24992064Y-69569000D01*
D18*
%TO.C,U4*%
X11324000Y-81062800D02*
X17124000Y-81062800D01*
X11324000Y-85662800D02*
X11324000Y-81062800D01*
X17124000Y-81062800D02*
X17124000Y-85662800D01*
X17124000Y-85662800D02*
X11324000Y-85662800D01*
X19574000Y-85757800D02*
X17474000Y-85757800D01*
D16*
%TO.C,R12*%
X36958600Y-52932064D02*
X36958600Y-52477936D01*
X38428600Y-52932064D02*
X38428600Y-52477936D01*
%TO.C,R5*%
X42365664Y-22810800D02*
X41911536Y-22810800D01*
X42365664Y-24280800D02*
X41911536Y-24280800D01*
%TO.C,C3*%
X48608348Y-76785800D02*
X49130852Y-76785800D01*
X48608348Y-78255800D02*
X49130852Y-78255800D01*
%TO.C,JP2*%
X44684400Y-50428200D02*
X44684400Y-49098200D01*
X46014400Y-50428200D02*
X44684400Y-50428200D01*
X47284400Y-47768200D02*
X52424400Y-47768200D01*
X47284400Y-50428200D02*
X47284400Y-47768200D01*
X47284400Y-50428200D02*
X52424400Y-50428200D01*
X52424400Y-50428200D02*
X52424400Y-47768200D01*
D18*
%TO.C,U2*%
X11324000Y-65805866D02*
X17124000Y-65805866D01*
X11324000Y-70405866D02*
X11324000Y-65805866D01*
X17124000Y-65805866D02*
X17124000Y-70405866D01*
X17124000Y-70405866D02*
X11324000Y-70405866D01*
X19574000Y-70500866D02*
X17474000Y-70500866D01*
D16*
%TO.C,Q2*%
X30962600Y-64798900D02*
X30312600Y-64798900D01*
X30962600Y-64798900D02*
X31612600Y-64798900D01*
X30962600Y-67918900D02*
X30312600Y-67918900D01*
X30962600Y-67918900D02*
X31612600Y-67918900D01*
X32365100Y-68198900D02*
X31885100Y-68198900D01*
X32125100Y-67868900D01*
X32365100Y-68198900D01*
G36*
X32365100Y-68198900D02*
G01*
X31885100Y-68198900D01*
X32125100Y-67868900D01*
X32365100Y-68198900D01*
G37*
%TO.C,J6*%
X53661000Y-36135000D02*
X54991000Y-36135000D01*
X53661000Y-37465000D02*
X53661000Y-36135000D01*
X53661000Y-38735000D02*
X53661000Y-74355000D01*
X53661000Y-38735000D02*
X56261000Y-38735000D01*
X53661000Y-74355000D02*
X58861000Y-74355000D01*
X56261000Y-36135000D02*
X58861000Y-36135000D01*
X56261000Y-38735000D02*
X56261000Y-36135000D01*
X58861000Y-36135000D02*
X58861000Y-74355000D01*
%TO.C,CON1*%
X39487800Y-90999000D02*
X39487800Y-93659000D01*
X47167800Y-90999000D02*
X39487800Y-90999000D01*
X47167800Y-90999000D02*
X47167800Y-93659000D01*
X47167800Y-93659000D02*
X39487800Y-93659000D01*
X49767800Y-92329000D02*
X49767800Y-93659000D01*
X49767800Y-93659000D02*
X48437800Y-93659000D01*
%TO.C,R7*%
X24537936Y-75312600D02*
X24992064Y-75312600D01*
X24537936Y-76782600D02*
X24992064Y-76782600D01*
D18*
%TO.C,J2*%
X-5000000Y-15380000D02*
X4200000Y-15380000D01*
X-5000000Y-28000000D02*
X-5000000Y-15380000D01*
X3000000Y-28000000D02*
X-5000000Y-28000000D01*
D16*
%TO.C,K4*%
X9810000Y-45838600D02*
X9810000Y-56218600D01*
X9810000Y-56218600D02*
X30400000Y-56218600D01*
X27990000Y-50688600D02*
X27990000Y-51388600D01*
X27990000Y-51388600D02*
X29190000Y-51388600D01*
X28390000Y-50688600D02*
X28790000Y-51388600D01*
X28560000Y-50688600D02*
X28560000Y-49588600D01*
X28560000Y-51388600D02*
X28560000Y-52488600D01*
X29190000Y-50688600D02*
X27990000Y-50688600D01*
X29190000Y-51388600D02*
X29190000Y-50688600D01*
X29250000Y-45678600D02*
X30550000Y-45678600D01*
X29340000Y-49518600D02*
X29340000Y-52518600D01*
X29340000Y-52518600D02*
X30400000Y-52518600D01*
X30400000Y-45838600D02*
X9810000Y-45838600D01*
X30400000Y-49518600D02*
X29360000Y-49518600D01*
X30400000Y-56218600D02*
X30400000Y-45838600D01*
X30550000Y-45678600D02*
X30550000Y-46888600D01*
%TO.C,Q5*%
X30988000Y-71795200D02*
X30338000Y-71795200D01*
X30988000Y-71795200D02*
X31638000Y-71795200D01*
X30988000Y-74915200D02*
X30338000Y-74915200D01*
X30988000Y-74915200D02*
X31638000Y-74915200D01*
X32390500Y-75195200D02*
X31910500Y-75195200D01*
X32150500Y-74865200D01*
X32390500Y-75195200D01*
G36*
X32390500Y-75195200D02*
G01*
X31910500Y-75195200D01*
X32150500Y-74865200D01*
X32390500Y-75195200D01*
G37*
D18*
%TO.C,J9*%
X-5000000Y-42380000D02*
X4200000Y-42380000D01*
X-5000000Y-55000000D02*
X-5000000Y-42380000D01*
X3000000Y-55000000D02*
X-5000000Y-55000000D01*
D16*
%TO.C,D1*%
X35585400Y-12664000D02*
X34935400Y-12664000D01*
X35585400Y-12664000D02*
X36235400Y-12664000D01*
X35585400Y-15784000D02*
X34935400Y-15784000D01*
X35585400Y-15784000D02*
X36235400Y-15784000D01*
X34422900Y-12714000D02*
X34182900Y-12384000D01*
X34662900Y-12384000D01*
X34422900Y-12714000D01*
G36*
X34422900Y-12714000D02*
G01*
X34182900Y-12384000D01*
X34662900Y-12384000D01*
X34422900Y-12714000D01*
G37*
%TO.C,Q8*%
X36753800Y-43906000D02*
X36103800Y-43906000D01*
X36753800Y-43906000D02*
X37403800Y-43906000D01*
X36753800Y-47026000D02*
X36103800Y-47026000D01*
X36753800Y-47026000D02*
X37403800Y-47026000D01*
X38156300Y-47306000D02*
X37676300Y-47306000D01*
X37916300Y-46976000D01*
X38156300Y-47306000D01*
G36*
X38156300Y-47306000D02*
G01*
X37676300Y-47306000D01*
X37916300Y-46976000D01*
X38156300Y-47306000D01*
G37*
%TO.C,R9*%
X24537936Y-82729400D02*
X24992064Y-82729400D01*
X24537936Y-84199400D02*
X24992064Y-84199400D01*
%TO.C,H3*%
X56235601Y-4007600D02*
X56235601Y-4007600D01*
X56235601Y-4007600D01*
X56235601Y-4007600D01*
X56235601Y-4007600D01*
X56235601Y-4007600D01*
X56235601Y-4007601D01*
X56235601Y-4007601D01*
X56235601Y-4007601D01*
X56235601Y-4007601D01*
X56235601Y-4007601D01*
X56235601Y-4007601D01*
X56235601Y-4007601D01*
X56235600Y-4007601D01*
X56235600Y-4007601D01*
X56235600Y-4007601D01*
X56235600Y-4007601D01*
X56235600Y-4007601D01*
X56235600Y-4007601D01*
X56235600Y-4007601D01*
X56235600Y-4007601D01*
X56235600Y-4007601D01*
X56235600Y-4007601D01*
X56235600Y-4007601D01*
X56235600Y-4007601D01*
X56235599Y-4007601D01*
X56235599Y-4007601D01*
X56235599Y-4007601D01*
X56235599Y-4007601D01*
X56235599Y-4007601D01*
X56235599Y-4007601D01*
X56235599Y-4007600D01*
X56235599Y-4007600D01*
X56235599Y-4007600D01*
X56235599Y-4007600D01*
X56235599Y-4007600D01*
X56235599Y-4007600D01*
X56235599Y-4007600D02*
X56235599Y-4007600D01*
X56235599Y-4007600D01*
X56235599Y-4007600D01*
X56235599Y-4007600D01*
X56235599Y-4007600D01*
X56235599Y-4007600D01*
X56235599Y-4007599D01*
X56235599Y-4007599D01*
X56235599Y-4007599D01*
X56235599Y-4007599D01*
X56235599Y-4007599D01*
X56235600Y-4007599D01*
X56235600Y-4007599D01*
X56235600Y-4007599D01*
X56235600Y-4007599D01*
X56235600Y-4007599D01*
X56235600Y-4007599D01*
X56235600Y-4007599D01*
X56235600Y-4007599D01*
X56235600Y-4007599D01*
X56235600Y-4007599D01*
X56235600Y-4007599D01*
X56235600Y-4007599D01*
X56235601Y-4007599D01*
X56235601Y-4007599D01*
X56235601Y-4007599D01*
X56235601Y-4007599D01*
X56235601Y-4007599D01*
X56235601Y-4007599D01*
X56235601Y-4007600D01*
X56235601Y-4007600D01*
X56235601Y-4007600D01*
X56235601Y-4007600D01*
X56235601Y-4007600D01*
X56235601Y-4007600D01*
X56235601Y-4007600D01*
D18*
%TO.C,U1*%
X11324000Y-58177400D02*
X17124000Y-58177400D01*
X11324000Y-62777400D02*
X11324000Y-58177400D01*
X17124000Y-58177400D02*
X17124000Y-62777400D01*
X17124000Y-62777400D02*
X11324000Y-62777400D01*
X19574000Y-62872400D02*
X17474000Y-62872400D01*
D16*
%TO.C,C1*%
X49582400Y-41815652D02*
X49582400Y-41293148D01*
X51052400Y-41815652D02*
X51052400Y-41293148D01*
D17*
%TO.C,J7*%
X-4990000Y-74690000D02*
X4210000Y-74690000D01*
X-4990000Y-83500000D02*
X-4990000Y-74690000D01*
X4210000Y-74690000D02*
X4210000Y-83500000D01*
X4210000Y-83500000D02*
X-4990000Y-83500000D01*
D16*
%TO.C,Q6*%
X31038800Y-79440600D02*
X30388800Y-79440600D01*
X31038800Y-79440600D02*
X31688800Y-79440600D01*
X31038800Y-82560600D02*
X30388800Y-82560600D01*
X31038800Y-82560600D02*
X31688800Y-82560600D01*
X32441300Y-82840600D02*
X31961300Y-82840600D01*
X32201300Y-82510600D01*
X32441300Y-82840600D01*
G36*
X32441300Y-82840600D02*
G01*
X31961300Y-82840600D01*
X32201300Y-82510600D01*
X32441300Y-82840600D01*
G37*
D18*
%TO.C,J8*%
X-5000000Y-28880000D02*
X4200000Y-28880000D01*
X-5000000Y-41500000D02*
X-5000000Y-28880000D01*
X3000000Y-41500000D02*
X-5000000Y-41500000D01*
D16*
%TO.C,Q7*%
X36626800Y-28767600D02*
X35976800Y-28767600D01*
X36626800Y-28767600D02*
X37276800Y-28767600D01*
X36626800Y-31887600D02*
X35976800Y-31887600D01*
X36626800Y-31887600D02*
X37276800Y-31887600D01*
X38029300Y-32167600D02*
X37549300Y-32167600D01*
X37789300Y-31837600D01*
X38029300Y-32167600D01*
G36*
X38029300Y-32167600D02*
G01*
X37549300Y-32167600D01*
X37789300Y-31837600D01*
X38029300Y-32167600D01*
G37*
%TO.C,J11*%
X53610200Y-16780200D02*
X54940200Y-16780200D01*
X53610200Y-18110200D02*
X53610200Y-16780200D01*
X53610200Y-19380200D02*
X53610200Y-32140200D01*
X53610200Y-19380200D02*
X56210200Y-19380200D01*
X53610200Y-32140200D02*
X58810200Y-32140200D01*
X56210200Y-16780200D02*
X58810200Y-16780200D01*
X56210200Y-19380200D02*
X56210200Y-16780200D01*
X58810200Y-16780200D02*
X58810200Y-32140200D01*
%TO.C,Q3*%
X36830000Y-21020600D02*
X36180000Y-21020600D01*
X36830000Y-21020600D02*
X37480000Y-21020600D01*
X36830000Y-24140600D02*
X36180000Y-24140600D01*
X36830000Y-24140600D02*
X37480000Y-24140600D01*
X38232500Y-24420600D02*
X37752500Y-24420600D01*
X37992500Y-24090600D01*
X38232500Y-24420600D01*
G36*
X38232500Y-24420600D02*
G01*
X37752500Y-24420600D01*
X37992500Y-24090600D01*
X38232500Y-24420600D01*
G37*
%TO.C,K3*%
X9810000Y-33570400D02*
X9810000Y-43950400D01*
X9810000Y-43950400D02*
X30400000Y-43950400D01*
X27990000Y-38420400D02*
X27990000Y-39120400D01*
X27990000Y-39120400D02*
X29190000Y-39120400D01*
X28390000Y-38420400D02*
X28790000Y-39120400D01*
X28560000Y-38420400D02*
X28560000Y-37320400D01*
X28560000Y-39120400D02*
X28560000Y-40220400D01*
X29190000Y-38420400D02*
X27990000Y-38420400D01*
X29190000Y-39120400D02*
X29190000Y-38420400D01*
X29250000Y-33410400D02*
X30550000Y-33410400D01*
X29340000Y-37250400D02*
X29340000Y-40250400D01*
X29340000Y-40250400D02*
X30400000Y-40250400D01*
X30400000Y-33570400D02*
X9810000Y-33570400D01*
X30400000Y-37250400D02*
X29360000Y-37250400D01*
X30400000Y-43950400D02*
X30400000Y-33570400D01*
X30550000Y-33410400D02*
X30550000Y-34620400D01*
%TO.C,C5*%
X41877348Y-17553000D02*
X42399852Y-17553000D01*
X41877348Y-19023000D02*
X42399852Y-19023000D01*
%TO.C,H1*%
X12000001Y-4007600D02*
X12000001Y-4007600D01*
X12000001Y-4007600D01*
X12000001Y-4007600D01*
X12000001Y-4007600D01*
X12000001Y-4007600D01*
X12000001Y-4007601D01*
X12000001Y-4007601D01*
X12000001Y-4007601D01*
X12000001Y-4007601D01*
X12000001Y-4007601D01*
X12000001Y-4007601D01*
X12000001Y-4007601D01*
X12000000Y-4007601D01*
X12000000Y-4007601D01*
X12000000Y-4007601D01*
X12000000Y-4007601D01*
X12000000Y-4007601D01*
X12000000Y-4007601D01*
X12000000Y-4007601D01*
X12000000Y-4007601D01*
X12000000Y-4007601D01*
X12000000Y-4007601D01*
X12000000Y-4007601D01*
X12000000Y-4007601D01*
X11999999Y-4007601D01*
X11999999Y-4007601D01*
X11999999Y-4007601D01*
X11999999Y-4007601D01*
X11999999Y-4007601D01*
X11999999Y-4007601D01*
X11999999Y-4007600D01*
X11999999Y-4007600D01*
X11999999Y-4007600D01*
X11999999Y-4007600D01*
X11999999Y-4007600D01*
X11999999Y-4007600D01*
X11999999Y-4007600D02*
X11999999Y-4007600D01*
X11999999Y-4007600D01*
X11999999Y-4007600D01*
X11999999Y-4007600D01*
X11999999Y-4007600D01*
X11999999Y-4007600D01*
X11999999Y-4007599D01*
X11999999Y-4007599D01*
X11999999Y-4007599D01*
X11999999Y-4007599D01*
X11999999Y-4007599D01*
X12000000Y-4007599D01*
X12000000Y-4007599D01*
X12000000Y-4007599D01*
X12000000Y-4007599D01*
X12000000Y-4007599D01*
X12000000Y-4007599D01*
X12000000Y-4007599D01*
X12000000Y-4007599D01*
X12000000Y-4007599D01*
X12000000Y-4007599D01*
X12000000Y-4007599D01*
X12000000Y-4007599D01*
X12000001Y-4007599D01*
X12000001Y-4007599D01*
X12000001Y-4007599D01*
X12000001Y-4007599D01*
X12000001Y-4007599D01*
X12000001Y-4007599D01*
X12000001Y-4007600D01*
X12000001Y-4007600D01*
X12000001Y-4007600D01*
X12000001Y-4007600D01*
X12000001Y-4007600D01*
X12000001Y-4007600D01*
X12000001Y-4007600D01*
%TO.C,H2*%
X12000001Y-91186000D02*
X12000001Y-91186000D01*
X12000001Y-91186000D01*
X12000001Y-91186000D01*
X12000001Y-91186000D01*
X12000001Y-91186000D01*
X12000001Y-91186001D01*
X12000001Y-91186001D01*
X12000001Y-91186001D01*
X12000001Y-91186001D01*
X12000001Y-91186001D01*
X12000001Y-91186001D01*
X12000001Y-91186001D01*
X12000000Y-91186001D01*
X12000000Y-91186001D01*
X12000000Y-91186001D01*
X12000000Y-91186001D01*
X12000000Y-91186001D01*
X12000000Y-91186001D01*
X12000000Y-91186001D01*
X12000000Y-91186001D01*
X12000000Y-91186001D01*
X12000000Y-91186001D01*
X12000000Y-91186001D01*
X12000000Y-91186001D01*
X11999999Y-91186001D01*
X11999999Y-91186001D01*
X11999999Y-91186001D01*
X11999999Y-91186001D01*
X11999999Y-91186001D01*
X11999999Y-91186001D01*
X11999999Y-91186000D01*
X11999999Y-91186000D01*
X11999999Y-91186000D01*
X11999999Y-91186000D01*
X11999999Y-91186000D01*
X11999999Y-91186000D01*
X11999999Y-91186000D02*
X11999999Y-91186000D01*
X11999999Y-91186000D01*
X11999999Y-91186000D01*
X11999999Y-91186000D01*
X11999999Y-91186000D01*
X11999999Y-91186000D01*
X11999999Y-91185999D01*
X11999999Y-91185999D01*
X11999999Y-91185999D01*
X11999999Y-91185999D01*
X11999999Y-91185999D01*
X12000000Y-91185999D01*
X12000000Y-91185999D01*
X12000000Y-91185999D01*
X12000000Y-91185999D01*
X12000000Y-91185999D01*
X12000000Y-91185999D01*
X12000000Y-91185999D01*
X12000000Y-91185999D01*
X12000000Y-91185999D01*
X12000000Y-91185999D01*
X12000000Y-91185999D01*
X12000000Y-91185999D01*
X12000001Y-91185999D01*
X12000001Y-91185999D01*
X12000001Y-91185999D01*
X12000001Y-91185999D01*
X12000001Y-91185999D01*
X12000001Y-91185999D01*
X12000001Y-91186000D01*
X12000001Y-91186000D01*
X12000001Y-91186000D01*
X12000001Y-91186000D01*
X12000001Y-91186000D01*
X12000001Y-91186000D01*
X12000001Y-91186000D01*
%TO.C,K1*%
X9810000Y-9211800D02*
X9810000Y-19591800D01*
X9810000Y-19591800D02*
X30400000Y-19591800D01*
X27990000Y-14061800D02*
X27990000Y-14761800D01*
X27990000Y-14761800D02*
X29190000Y-14761800D01*
X28390000Y-14061800D02*
X28790000Y-14761800D01*
X28560000Y-14061800D02*
X28560000Y-12961800D01*
X28560000Y-14761800D02*
X28560000Y-15861800D01*
X29190000Y-14061800D02*
X27990000Y-14061800D01*
X29190000Y-14761800D02*
X29190000Y-14061800D01*
X29250000Y-9051800D02*
X30550000Y-9051800D01*
X29340000Y-12891800D02*
X29340000Y-15891800D01*
X29340000Y-15891800D02*
X30400000Y-15891800D01*
X30400000Y-9211800D02*
X9810000Y-9211800D01*
X30400000Y-12891800D02*
X29360000Y-12891800D01*
X30400000Y-19591800D02*
X30400000Y-9211800D01*
X30550000Y-9051800D02*
X30550000Y-10261800D01*
%TO.C,R11*%
X42289464Y-30557800D02*
X41835336Y-30557800D01*
X42289464Y-32027800D02*
X41835336Y-32027800D01*
%TO.C,R10*%
X36777664Y-81230800D02*
X36323536Y-81230800D01*
X36777664Y-82700800D02*
X36323536Y-82700800D01*
%TO.C,CON2*%
X54603000Y-78881200D02*
X54603000Y-79931200D01*
X54603000Y-84051200D02*
X53613000Y-84051200D01*
X54603000Y-85101200D02*
X54603000Y-84051200D01*
X56235600Y-78881200D02*
X54603000Y-78881200D01*
X56235600Y-85101200D02*
X54603000Y-85101200D01*
X59073000Y-83931200D02*
X59073000Y-80051200D01*
%TO.C,R6*%
X42391064Y-6885000D02*
X41936936Y-6885000D01*
X42391064Y-8355000D02*
X41936936Y-8355000D01*
%TO.C,D2*%
X35026600Y-36641600D02*
X34376600Y-36641600D01*
X35026600Y-36641600D02*
X35676600Y-36641600D01*
X35026600Y-39761600D02*
X34376600Y-39761600D01*
X35026600Y-39761600D02*
X35676600Y-39761600D01*
X33864100Y-36691600D02*
X33624100Y-36361600D01*
X34104100Y-36361600D01*
X33864100Y-36691600D01*
G36*
X33864100Y-36691600D02*
G01*
X33624100Y-36361600D01*
X34104100Y-36361600D01*
X33864100Y-36691600D01*
G37*
D18*
%TO.C,IC1*%
X38207800Y-64265600D02*
X48507800Y-64265600D01*
X38207800Y-71065600D02*
X38207800Y-64265600D01*
X48477800Y-61965600D02*
X48477800Y-63915600D01*
X48507800Y-64265600D02*
X48507800Y-71065600D01*
X48507800Y-71065600D02*
X38207800Y-71065600D01*
D16*
%TO.C,R8*%
X36803064Y-77090600D02*
X36348936Y-77090600D01*
X36803064Y-78560600D02*
X36348936Y-78560600D01*
%TO.C,Q4*%
X36677600Y-5069400D02*
X36027600Y-5069400D01*
X36677600Y-5069400D02*
X37327600Y-5069400D01*
X36677600Y-8189400D02*
X36027600Y-8189400D01*
X36677600Y-8189400D02*
X37327600Y-8189400D01*
X38080100Y-8469400D02*
X37600100Y-8469400D01*
X37840100Y-8139400D01*
X38080100Y-8469400D01*
G36*
X38080100Y-8469400D02*
G01*
X37600100Y-8469400D01*
X37840100Y-8139400D01*
X38080100Y-8469400D01*
G37*
%TD*%
%LPC*%
D19*
%TO.C,Q1*%
X31800800Y-60208200D03*
X31800800Y-58308200D03*
X29925800Y-59258200D03*
%TD*%
D20*
%TO.C,K2*%
X29000000Y-22606000D03*
D21*
X21380000Y-22606000D03*
X16300000Y-22606000D03*
X11220000Y-22606000D03*
X11220000Y-30226000D03*
X16300000Y-30226000D03*
X21380000Y-30226000D03*
X29000000Y-30226000D03*
%TD*%
D22*
%TO.C,R4*%
X35052000Y-69326000D03*
X35052000Y-67326000D03*
%TD*%
D23*
%TO.C,J5*%
X3000000Y-71500000D03*
X3000000Y-67690000D03*
%TD*%
%TO.C,J3*%
X3000000Y-62000000D03*
X3000000Y-58190000D03*
%TD*%
D24*
%TO.C,J1*%
X3000000Y-12000000D03*
D25*
X3000000Y-8190000D03*
X3000000Y-4380000D03*
%TD*%
D26*
%TO.C,C4*%
X25853300Y-87960200D03*
X23778300Y-87960200D03*
%TD*%
D27*
%TO.C,C2*%
X34086800Y-51667500D03*
X34086800Y-53742500D03*
%TD*%
D23*
%TO.C,J10*%
X3000000Y-90500000D03*
X3000000Y-86690000D03*
%TD*%
D28*
%TO.C,JP1*%
X45974000Y-54940200D03*
D29*
X48514000Y-54940200D03*
X51054000Y-54940200D03*
%TD*%
D30*
%TO.C,U3*%
X18524000Y-77004332D03*
X18524000Y-74464332D03*
X9924000Y-74464332D03*
X9924000Y-77004332D03*
%TD*%
D22*
%TO.C,R2*%
X35077400Y-62188600D03*
X35077400Y-60188600D03*
%TD*%
D31*
%TO.C,H4*%
X56184800Y-91287600D03*
%TD*%
D32*
%TO.C,R1*%
X23765000Y-61798200D03*
X25765000Y-61798200D03*
%TD*%
%TO.C,R3*%
X23765000Y-68834000D03*
X25765000Y-68834000D03*
%TD*%
D30*
%TO.C,U4*%
X18524000Y-84632800D03*
X18524000Y-82092800D03*
X9924000Y-82092800D03*
X9924000Y-84632800D03*
%TD*%
D22*
%TO.C,R12*%
X37693600Y-53705000D03*
X37693600Y-51705000D03*
%TD*%
D33*
%TO.C,R5*%
X43138600Y-23545800D03*
X41138600Y-23545800D03*
%TD*%
D34*
%TO.C,C3*%
X47832100Y-77520800D03*
X49907100Y-77520800D03*
%TD*%
D28*
%TO.C,JP2*%
X46014400Y-49098200D03*
D29*
X48554400Y-49098200D03*
X51094400Y-49098200D03*
%TD*%
D30*
%TO.C,U2*%
X18524000Y-69375866D03*
X18524000Y-66835866D03*
X9924000Y-66835866D03*
X9924000Y-69375866D03*
%TD*%
D19*
%TO.C,Q2*%
X31900100Y-67308900D03*
X31900100Y-65408900D03*
X30025100Y-66358900D03*
%TD*%
D28*
%TO.C,J6*%
X54991000Y-37465000D03*
D29*
X57531000Y-37465000D03*
X54991000Y-40005000D03*
X57531000Y-40005000D03*
X54991000Y-42545000D03*
X57531000Y-42545000D03*
X54991000Y-45085000D03*
X57531000Y-45085000D03*
X54991000Y-47625000D03*
X57531000Y-47625000D03*
X54991000Y-50165000D03*
X57531000Y-50165000D03*
X54991000Y-52705000D03*
X57531000Y-52705000D03*
X54991000Y-55245000D03*
X57531000Y-55245000D03*
X54991000Y-57785000D03*
X57531000Y-57785000D03*
X54991000Y-60325000D03*
X57531000Y-60325000D03*
X54991000Y-62865000D03*
X57531000Y-62865000D03*
X54991000Y-65405000D03*
X57531000Y-65405000D03*
X54991000Y-67945000D03*
X57531000Y-67945000D03*
X54991000Y-70485000D03*
X57531000Y-70485000D03*
X54991000Y-73025000D03*
X57531000Y-73025000D03*
%TD*%
D28*
%TO.C,CON1*%
X48437800Y-92329000D03*
D29*
X45897800Y-92329000D03*
X43357800Y-92329000D03*
X40817800Y-92329000D03*
%TD*%
D32*
%TO.C,R7*%
X23765000Y-76047600D03*
X25765000Y-76047600D03*
%TD*%
D24*
%TO.C,J2*%
X3000000Y-25500000D03*
D25*
X3000000Y-21690000D03*
X3000000Y-17880000D03*
%TD*%
D20*
%TO.C,K4*%
X29000000Y-47218600D03*
D21*
X21380000Y-47218600D03*
X16300000Y-47218600D03*
X11220000Y-47218600D03*
X11220000Y-54838600D03*
X16300000Y-54838600D03*
X21380000Y-54838600D03*
X29000000Y-54838600D03*
%TD*%
D19*
%TO.C,Q5*%
X31925500Y-74305200D03*
X31925500Y-72405200D03*
X30050500Y-73355200D03*
%TD*%
D24*
%TO.C,J9*%
X3000000Y-52500000D03*
D25*
X3000000Y-48690000D03*
X3000000Y-44880000D03*
%TD*%
D35*
%TO.C,D1*%
X34647900Y-13274000D03*
X34647900Y-15174000D03*
X36522900Y-14224000D03*
%TD*%
D19*
%TO.C,Q8*%
X37691300Y-46416000D03*
X37691300Y-44516000D03*
X35816300Y-45466000D03*
%TD*%
D32*
%TO.C,R9*%
X23765000Y-83464400D03*
X25765000Y-83464400D03*
%TD*%
D31*
%TO.C,H3*%
X56235600Y-4007600D03*
%TD*%
D30*
%TO.C,U1*%
X18524000Y-61747400D03*
X18524000Y-59207400D03*
X9924000Y-59207400D03*
X9924000Y-61747400D03*
%TD*%
D36*
%TO.C,C1*%
X50317400Y-42591900D03*
X50317400Y-40516900D03*
%TD*%
D23*
%TO.C,J7*%
X3000000Y-81000000D03*
X3000000Y-77190000D03*
%TD*%
D19*
%TO.C,Q6*%
X31976300Y-81950600D03*
X31976300Y-80050600D03*
X30101300Y-81000600D03*
%TD*%
D24*
%TO.C,J8*%
X3000000Y-39000000D03*
D25*
X3000000Y-35190000D03*
X3000000Y-31380000D03*
%TD*%
D19*
%TO.C,Q7*%
X37564300Y-31277600D03*
X37564300Y-29377600D03*
X35689300Y-30327600D03*
%TD*%
D28*
%TO.C,J11*%
X54940200Y-18110200D03*
D29*
X57480200Y-18110200D03*
X54940200Y-20650200D03*
X57480200Y-20650200D03*
X54940200Y-23190200D03*
X57480200Y-23190200D03*
X54940200Y-25730200D03*
X57480200Y-25730200D03*
X54940200Y-28270200D03*
X57480200Y-28270200D03*
X54940200Y-30810200D03*
X57480200Y-30810200D03*
%TD*%
D19*
%TO.C,Q3*%
X37767500Y-23530600D03*
X37767500Y-21630600D03*
X35892500Y-22580600D03*
%TD*%
D20*
%TO.C,K3*%
X29000000Y-34950400D03*
D21*
X21380000Y-34950400D03*
X16300000Y-34950400D03*
X11220000Y-34950400D03*
X11220000Y-42570400D03*
X16300000Y-42570400D03*
X21380000Y-42570400D03*
X29000000Y-42570400D03*
%TD*%
D34*
%TO.C,C5*%
X41101100Y-18288000D03*
X43176100Y-18288000D03*
%TD*%
D31*
%TO.C,H1*%
X12000000Y-4007600D03*
%TD*%
%TO.C,H2*%
X12000000Y-91186000D03*
%TD*%
D20*
%TO.C,K1*%
X29000000Y-10591800D03*
D21*
X21380000Y-10591800D03*
X16300000Y-10591800D03*
X11220000Y-10591800D03*
X11220000Y-18211800D03*
X16300000Y-18211800D03*
X21380000Y-18211800D03*
X29000000Y-18211800D03*
%TD*%
D33*
%TO.C,R11*%
X43062400Y-31292800D03*
X41062400Y-31292800D03*
%TD*%
%TO.C,R10*%
X37550600Y-81965800D03*
X35550600Y-81965800D03*
%TD*%
D37*
%TO.C,CON2*%
X54388000Y-83491200D03*
X54388000Y-82491200D03*
X54388000Y-81491200D03*
X54388000Y-80491200D03*
D38*
X57810400Y-85191600D03*
X57810400Y-78740000D03*
%TD*%
D33*
%TO.C,R6*%
X43164000Y-7620000D03*
X41164000Y-7620000D03*
%TD*%
D35*
%TO.C,D2*%
X34089100Y-37251600D03*
X34089100Y-39151600D03*
X35964100Y-38201600D03*
%TD*%
D39*
%TO.C,IC1*%
X47802800Y-62940600D03*
X46532800Y-62940600D03*
X45262800Y-62940600D03*
X43992800Y-62940600D03*
X42722800Y-62940600D03*
X41452800Y-62940600D03*
X40182800Y-62940600D03*
X38912800Y-62940600D03*
X38912800Y-72390600D03*
X40182800Y-72390600D03*
X41452800Y-72390600D03*
X42722800Y-72390600D03*
X43992800Y-72390600D03*
X45262800Y-72390600D03*
X46532800Y-72390600D03*
X47802800Y-72390600D03*
%TD*%
D33*
%TO.C,R8*%
X37576000Y-77825600D03*
X35576000Y-77825600D03*
%TD*%
D19*
%TO.C,Q4*%
X37615100Y-7579400D03*
X37615100Y-5679400D03*
X35740100Y-6629400D03*
%TD*%
%LPD*%
M02*
