%TF.GenerationSoftware,KiCad,Pcbnew,9.0.6*%
%TF.CreationDate,2025-11-26T11:15:41+11:00*%
%TF.ProjectId,v7_equip_digital_out,76375f65-7175-4697-905f-646967697461,rev?*%
%TF.SameCoordinates,Original*%
%TF.FileFunction,Soldermask,Top*%
%TF.FilePolarity,Negative*%
%FSLAX46Y46*%
G04 Gerber Fmt 4.6, Leading zero omitted, Abs format (unit mm)*
G04 Created by KiCad (PCBNEW 9.0.6) date 2025-11-26 11:15:41*
%MOMM*%
%LPD*%
G01*
G04 APERTURE LIST*
G04 Aperture macros list*
%AMRoundRect*
0 Rectangle with rounded corners*
0 $1 Rounding radius*
0 $2 $3 $4 $5 $6 $7 $8 $9 X,Y pos of 4 corners*
0 Add a 4 corners polygon primitive as box body*
4,1,4,$2,$3,$4,$5,$6,$7,$8,$9,$2,$3,0*
0 Add four circle primitives for the rounded corners*
1,1,$1+$1,$2,$3*
1,1,$1+$1,$4,$5*
1,1,$1+$1,$6,$7*
1,1,$1+$1,$8,$9*
0 Add four rect primitives between the rounded corners*
20,1,$1+$1,$2,$3,$4,$5,0*
20,1,$1+$1,$4,$5,$6,$7,0*
20,1,$1+$1,$6,$7,$8,$9,0*
20,1,$1+$1,$8,$9,$2,$3,0*%
G04 Aperture macros list end*
%ADD10RoundRect,0.150000X0.587500X0.150000X-0.587500X0.150000X-0.587500X-0.150000X0.587500X-0.150000X0*%
%ADD11R,1.524000X1.524000*%
%ADD12C,1.524000*%
%ADD13RoundRect,0.250000X0.450000X-0.350000X0.450000X0.350000X-0.450000X0.350000X-0.450000X-0.350000X0*%
%ADD14C,2.100000*%
%ADD15R,2.025000X2.025000*%
%ADD16C,2.025000*%
%ADD17RoundRect,0.250000X0.337500X0.475000X-0.337500X0.475000X-0.337500X-0.475000X0.337500X-0.475000X0*%
%ADD18RoundRect,0.250000X-0.475000X0.337500X-0.475000X-0.337500X0.475000X-0.337500X0.475000X0.337500X0*%
%ADD19R,1.700000X1.700000*%
%ADD20O,1.700000X1.700000*%
%ADD21R,2.100000X1.550000*%
%ADD22RoundRect,0.250000X-0.350000X-0.450000X0.350000X-0.450000X0.350000X0.450000X-0.350000X0.450000X0*%
%ADD23RoundRect,0.250000X0.350000X0.450000X-0.350000X0.450000X-0.350000X-0.450000X0.350000X-0.450000X0*%
%ADD24RoundRect,0.250000X-0.337500X-0.475000X0.337500X-0.475000X0.337500X0.475000X-0.337500X0.475000X0*%
%ADD25RoundRect,0.150000X-0.587500X-0.150000X0.587500X-0.150000X0.587500X0.150000X-0.587500X0.150000X0*%
%ADD26RoundRect,0.250000X0.475000X-0.337500X0.475000X0.337500X-0.475000X0.337500X-0.475000X-0.337500X0*%
%ADD27RoundRect,0.150000X0.625000X-0.150000X0.625000X0.150000X-0.625000X0.150000X-0.625000X-0.150000X0*%
%ADD28RoundRect,0.416666X0.970834X-0.583334X0.970834X0.583334X-0.970834X0.583334X-0.970834X-0.583334X0*%
%ADD29R,0.650000X1.950000*%
G04 APERTURE END LIST*
D10*
%TO.C,Q1*%
X31800800Y-60208200D03*
X31800800Y-58308200D03*
X29925800Y-59258200D03*
%TD*%
D11*
%TO.C,K2*%
X29000000Y-22606000D03*
D12*
X21380000Y-22606000D03*
X16300000Y-22606000D03*
X11220000Y-22606000D03*
X11220000Y-30226000D03*
X16300000Y-30226000D03*
X21380000Y-30226000D03*
X29000000Y-30226000D03*
%TD*%
D13*
%TO.C,R4*%
X35052000Y-69326000D03*
X35052000Y-67326000D03*
%TD*%
D14*
%TO.C,J5*%
X3000000Y-71500000D03*
X3000000Y-67690000D03*
%TD*%
%TO.C,J3*%
X3000000Y-62000000D03*
X3000000Y-58190000D03*
%TD*%
D15*
%TO.C,J1*%
X3000000Y-12000000D03*
D16*
X3000000Y-8190000D03*
X3000000Y-4380000D03*
%TD*%
D17*
%TO.C,C4*%
X25853300Y-87960200D03*
X23778300Y-87960200D03*
%TD*%
D18*
%TO.C,C2*%
X34086800Y-51667500D03*
X34086800Y-53742500D03*
%TD*%
D14*
%TO.C,J10*%
X3000000Y-90500000D03*
X3000000Y-86690000D03*
%TD*%
D19*
%TO.C,JP1*%
X45974000Y-54940200D03*
D20*
X48514000Y-54940200D03*
X51054000Y-54940200D03*
%TD*%
D21*
%TO.C,U3*%
X18524000Y-77004332D03*
X18524000Y-74464332D03*
X9924000Y-74464332D03*
X9924000Y-77004332D03*
%TD*%
D13*
%TO.C,R2*%
X35077400Y-62188600D03*
X35077400Y-60188600D03*
%TD*%
D22*
%TO.C,R1*%
X23765000Y-61798200D03*
X25765000Y-61798200D03*
%TD*%
%TO.C,R3*%
X23765000Y-68834000D03*
X25765000Y-68834000D03*
%TD*%
D21*
%TO.C,U4*%
X18524000Y-84632800D03*
X18524000Y-82092800D03*
X9924000Y-82092800D03*
X9924000Y-84632800D03*
%TD*%
D13*
%TO.C,R12*%
X37693600Y-53705000D03*
X37693600Y-51705000D03*
%TD*%
D23*
%TO.C,R5*%
X43138600Y-23545800D03*
X41138600Y-23545800D03*
%TD*%
D24*
%TO.C,C3*%
X47832100Y-77520800D03*
X49907100Y-77520800D03*
%TD*%
D19*
%TO.C,JP2*%
X46014400Y-49098200D03*
D20*
X48554400Y-49098200D03*
X51094400Y-49098200D03*
%TD*%
D21*
%TO.C,U2*%
X18524000Y-69375866D03*
X18524000Y-66835866D03*
X9924000Y-66835866D03*
X9924000Y-69375866D03*
%TD*%
D10*
%TO.C,Q2*%
X31900100Y-67308900D03*
X31900100Y-65408900D03*
X30025100Y-66358900D03*
%TD*%
D19*
%TO.C,J6*%
X54991000Y-37465000D03*
D20*
X57531000Y-37465000D03*
X54991000Y-40005000D03*
X57531000Y-40005000D03*
X54991000Y-42545000D03*
X57531000Y-42545000D03*
X54991000Y-45085000D03*
X57531000Y-45085000D03*
X54991000Y-47625000D03*
X57531000Y-47625000D03*
X54991000Y-50165000D03*
X57531000Y-50165000D03*
X54991000Y-52705000D03*
X57531000Y-52705000D03*
X54991000Y-55245000D03*
X57531000Y-55245000D03*
X54991000Y-57785000D03*
X57531000Y-57785000D03*
X54991000Y-60325000D03*
X57531000Y-60325000D03*
X54991000Y-62865000D03*
X57531000Y-62865000D03*
X54991000Y-65405000D03*
X57531000Y-65405000D03*
X54991000Y-67945000D03*
X57531000Y-67945000D03*
X54991000Y-70485000D03*
X57531000Y-70485000D03*
X54991000Y-73025000D03*
X57531000Y-73025000D03*
%TD*%
D19*
%TO.C,CON1*%
X48437800Y-92329000D03*
D20*
X45897800Y-92329000D03*
X43357800Y-92329000D03*
X40817800Y-92329000D03*
%TD*%
D22*
%TO.C,R7*%
X23765000Y-76047600D03*
X25765000Y-76047600D03*
%TD*%
D15*
%TO.C,J2*%
X3000000Y-25500000D03*
D16*
X3000000Y-21690000D03*
X3000000Y-17880000D03*
%TD*%
D11*
%TO.C,K4*%
X29000000Y-47218600D03*
D12*
X21380000Y-47218600D03*
X16300000Y-47218600D03*
X11220000Y-47218600D03*
X11220000Y-54838600D03*
X16300000Y-54838600D03*
X21380000Y-54838600D03*
X29000000Y-54838600D03*
%TD*%
D10*
%TO.C,Q5*%
X31925500Y-74305200D03*
X31925500Y-72405200D03*
X30050500Y-73355200D03*
%TD*%
D15*
%TO.C,J9*%
X3000000Y-52500000D03*
D16*
X3000000Y-48690000D03*
X3000000Y-44880000D03*
%TD*%
D25*
%TO.C,D1*%
X34647900Y-13274000D03*
X34647900Y-15174000D03*
X36522900Y-14224000D03*
%TD*%
D10*
%TO.C,Q8*%
X37691300Y-46416000D03*
X37691300Y-44516000D03*
X35816300Y-45466000D03*
%TD*%
D22*
%TO.C,R9*%
X23765000Y-83464400D03*
X25765000Y-83464400D03*
%TD*%
D21*
%TO.C,U1*%
X18524000Y-61747400D03*
X18524000Y-59207400D03*
X9924000Y-59207400D03*
X9924000Y-61747400D03*
%TD*%
D26*
%TO.C,C1*%
X50317400Y-42591900D03*
X50317400Y-40516900D03*
%TD*%
D14*
%TO.C,J7*%
X3000000Y-81000000D03*
X3000000Y-77190000D03*
%TD*%
D10*
%TO.C,Q6*%
X31976300Y-81950600D03*
X31976300Y-80050600D03*
X30101300Y-81000600D03*
%TD*%
D15*
%TO.C,J8*%
X3000000Y-39000000D03*
D16*
X3000000Y-35190000D03*
X3000000Y-31380000D03*
%TD*%
D10*
%TO.C,Q7*%
X37564300Y-31277600D03*
X37564300Y-29377600D03*
X35689300Y-30327600D03*
%TD*%
D19*
%TO.C,J11*%
X54940200Y-18110200D03*
D20*
X57480200Y-18110200D03*
X54940200Y-20650200D03*
X57480200Y-20650200D03*
X54940200Y-23190200D03*
X57480200Y-23190200D03*
X54940200Y-25730200D03*
X57480200Y-25730200D03*
X54940200Y-28270200D03*
X57480200Y-28270200D03*
X54940200Y-30810200D03*
X57480200Y-30810200D03*
%TD*%
D10*
%TO.C,Q3*%
X37767500Y-23530600D03*
X37767500Y-21630600D03*
X35892500Y-22580600D03*
%TD*%
D11*
%TO.C,K3*%
X29000000Y-34950400D03*
D12*
X21380000Y-34950400D03*
X16300000Y-34950400D03*
X11220000Y-34950400D03*
X11220000Y-42570400D03*
X16300000Y-42570400D03*
X21380000Y-42570400D03*
X29000000Y-42570400D03*
%TD*%
D24*
%TO.C,C5*%
X41101100Y-18288000D03*
X43176100Y-18288000D03*
%TD*%
D11*
%TO.C,K1*%
X29000000Y-10591800D03*
D12*
X21380000Y-10591800D03*
X16300000Y-10591800D03*
X11220000Y-10591800D03*
X11220000Y-18211800D03*
X16300000Y-18211800D03*
X21380000Y-18211800D03*
X29000000Y-18211800D03*
%TD*%
D23*
%TO.C,R11*%
X43062400Y-31292800D03*
X41062400Y-31292800D03*
%TD*%
%TO.C,R10*%
X37550600Y-81965800D03*
X35550600Y-81965800D03*
%TD*%
D27*
%TO.C,CON2*%
X54388000Y-83491200D03*
X54388000Y-82491200D03*
X54388000Y-81491200D03*
X54388000Y-80491200D03*
D28*
X57810400Y-85191600D03*
X57810400Y-78740000D03*
%TD*%
D23*
%TO.C,R6*%
X43164000Y-7620000D03*
X41164000Y-7620000D03*
%TD*%
D25*
%TO.C,D2*%
X34089100Y-37251600D03*
X34089100Y-39151600D03*
X35964100Y-38201600D03*
%TD*%
D29*
%TO.C,IC1*%
X47802800Y-62940600D03*
X46532800Y-62940600D03*
X45262800Y-62940600D03*
X43992800Y-62940600D03*
X42722800Y-62940600D03*
X41452800Y-62940600D03*
X40182800Y-62940600D03*
X38912800Y-62940600D03*
X38912800Y-72390600D03*
X40182800Y-72390600D03*
X41452800Y-72390600D03*
X42722800Y-72390600D03*
X43992800Y-72390600D03*
X45262800Y-72390600D03*
X46532800Y-72390600D03*
X47802800Y-72390600D03*
%TD*%
D23*
%TO.C,R8*%
X37576000Y-77825600D03*
X35576000Y-77825600D03*
%TD*%
D10*
%TO.C,Q4*%
X37615100Y-7579400D03*
X37615100Y-5679400D03*
X35740100Y-6629400D03*
%TD*%
M02*
