M48
; DRILL file {KiCad 9.0.6} date 2025-11-26T11:15:41+1100
; FORMAT={-:-/ absolute / inch / decimal}
; #@! TF.CreationDate,2025-11-26T11:15:41+11:00
; #@! TF.GenerationSoftware,Kicad,Pcbnew,9.0.6
; #@! TF.FileFunction,Plated,1,2,PTH
FMAT,2
INCH
; #@! TA.AperFunction,Plated,PTH,ViaDrill
T1C0.0150
; #@! TA.AperFunction,Plated,PTH,ComponentDrill
T2C0.0320
; #@! TA.AperFunction,Plated,PTH,ComponentDrill
T3C0.0394
; #@! TA.AperFunction,Plated,PTH,ComponentDrill
T4C0.0472
%
G90
G05
T1
X0.322Y-2.331
X0.322Y-2.6313
X0.323Y-2.9317
X0.324Y-3.232
X0.722Y-3.452
X0.724Y-2.538
X0.724Y-2.839
X0.724Y-3.137
X1.01Y-1.042
X1.011Y-0.567
X1.012Y-1.525
X1.014Y-0.136
X1.016Y-2.009
X1.094Y-2.711
X1.095Y-2.433
X1.096Y-2.994
X1.096Y-3.286
X1.245Y-2.216
X1.245Y-2.47
X1.245Y-2.746
X1.248Y-3.05
X1.448Y-0.717
X1.45Y-1.371
X1.471Y-2.482
X1.484Y-2.29
X1.514Y-1.647
X1.566Y-1.36
X1.567Y-0.818
X1.567Y-1.1
X1.612Y-3.244
X1.66Y-0.136
X1.6974Y-1.341
X1.734Y-2.667
X1.748Y-1.489
X1.748Y-1.66
X1.788Y-0.927
X1.882Y-2.958
X1.8945Y-3.2745
X1.933Y-2.57
X1.934Y-2.675
X2.026Y-1.425
X2.049Y-3.053
X2.125Y-3.39
X2.259Y-0.411
T2
X0.4417Y-0.417
X0.4417Y-0.717
X0.4417Y-0.89
X0.4417Y-1.19
X0.4417Y-1.376
X0.4417Y-1.676
X0.4417Y-1.859
X0.4417Y-2.159
X0.6417Y-0.417
X0.6417Y-0.717
X0.6417Y-0.89
X0.6417Y-1.19
X0.6417Y-1.376
X0.6417Y-1.676
X0.6417Y-1.859
X0.6417Y-2.159
X0.8417Y-0.417
X0.8417Y-0.717
X0.8417Y-0.89
X0.8417Y-1.19
X0.8417Y-1.376
X0.8417Y-1.676
X0.8417Y-1.859
X0.8417Y-2.159
X1.1417Y-0.417
X1.1417Y-0.717
X1.1417Y-0.89
X1.1417Y-1.19
X1.1417Y-1.376
X1.1417Y-1.676
X1.1417Y-1.859
X1.1417Y-2.159
T3
X1.607Y-3.635
X1.707Y-3.635
X1.807Y-3.635
X1.81Y-2.163
X1.8116Y-1.933
X1.907Y-3.635
X1.91Y-2.163
X1.9116Y-1.933
X2.01Y-2.163
X2.0116Y-1.933
X2.163Y-0.713
X2.163Y-0.813
X2.163Y-0.913
X2.163Y-1.013
X2.163Y-1.113
X2.163Y-1.213
X2.165Y-1.475
X2.165Y-1.575
X2.165Y-1.675
X2.165Y-1.775
X2.165Y-1.875
X2.165Y-1.975
X2.165Y-2.075
X2.165Y-2.175
X2.165Y-2.275
X2.165Y-2.375
X2.165Y-2.475
X2.165Y-2.575
X2.165Y-2.675
X2.165Y-2.775
X2.165Y-2.875
X2.263Y-0.713
X2.263Y-0.813
X2.263Y-0.913
X2.263Y-1.013
X2.263Y-1.113
X2.263Y-1.213
X2.265Y-1.475
X2.265Y-1.575
X2.265Y-1.675
X2.265Y-1.775
X2.265Y-1.875
X2.265Y-1.975
X2.265Y-2.075
X2.265Y-2.175
X2.265Y-2.275
X2.265Y-2.375
X2.265Y-2.475
X2.265Y-2.575
X2.265Y-2.675
X2.265Y-2.775
X2.265Y-2.875
T4
X0.1181Y-0.1724
X0.1181Y-0.3224
X0.1181Y-0.4724
X0.1181Y-0.7039
X0.1181Y-0.8539
X0.1181Y-1.0039
X0.1181Y-1.2354
X0.1181Y-1.3854
X0.1181Y-1.5354
X0.1181Y-1.7669
X0.1181Y-1.9169
X0.1181Y-2.0669
X0.1181Y-2.2909
X0.1181Y-2.4409
X0.1181Y-2.665
X0.1181Y-2.815
X0.1181Y-3.039
X0.1181Y-3.189
X0.1181Y-3.413
X0.1181Y-3.563
M30
