%TF.GenerationSoftware,KiCad,Pcbnew,9.0.2*%
%TF.CreationDate,2025-07-04T16:10:04+10:00*%
%TF.ProjectId,v8_equip_dig_in_non_iso_IDC_pwr,76385f65-7175-4697-905f-6469675f696e,rev?*%
%TF.SameCoordinates,Original*%
%TF.FileFunction,Legend,Top*%
%TF.FilePolarity,Positive*%
%FSLAX46Y46*%
G04 Gerber Fmt 4.6, Leading zero omitted, Abs format (unit mm)*
G04 Created by KiCad (PCBNEW 9.0.2) date 2025-07-04 16:10:04*
%MOMM*%
%LPD*%
G01*
G04 APERTURE LIST*
G04 Aperture macros list*
%AMRoundRect*
0 Rectangle with rounded corners*
0 $1 Rounding radius*
0 $2 $3 $4 $5 $6 $7 $8 $9 X,Y pos of 4 corners*
0 Add a 4 corners polygon primitive as box body*
4,1,4,$2,$3,$4,$5,$6,$7,$8,$9,$2,$3,0*
0 Add four circle primitives for the rounded corners*
1,1,$1+$1,$2,$3*
1,1,$1+$1,$4,$5*
1,1,$1+$1,$6,$7*
1,1,$1+$1,$8,$9*
0 Add four rect primitives between the rounded corners*
20,1,$1+$1,$2,$3,$4,$5,0*
20,1,$1+$1,$4,$5,$6,$7,0*
20,1,$1+$1,$6,$7,$8,$9,0*
20,1,$1+$1,$8,$9,$2,$3,0*%
G04 Aperture macros list end*
%ADD10C,0.254000*%
%ADD11C,0.101600*%
%ADD12C,0.127000*%
%ADD13C,0.152400*%
%ADD14C,0.177800*%
%ADD15C,0.304800*%
%ADD16C,0.150000*%
%ADD17C,0.120000*%
%ADD18C,0.200000*%
%ADD19RoundRect,0.250000X0.350000X0.450000X-0.350000X0.450000X-0.350000X-0.450000X0.350000X-0.450000X0*%
%ADD20RoundRect,0.150000X0.587500X0.150000X-0.587500X0.150000X-0.587500X-0.150000X0.587500X-0.150000X0*%
%ADD21RoundRect,0.250000X-0.475000X0.337500X-0.475000X-0.337500X0.475000X-0.337500X0.475000X0.337500X0*%
%ADD22R,1.700000X1.700000*%
%ADD23RoundRect,0.250000X0.475000X-0.337500X0.475000X0.337500X-0.475000X0.337500X-0.475000X-0.337500X0*%
%ADD24C,1.700000*%
%ADD25C,3.500000*%
%ADD26R,1.650000X1.650000*%
%ADD27C,1.650000*%
%ADD28RoundRect,0.150000X-0.150000X-0.625000X0.150000X-0.625000X0.150000X0.625000X-0.150000X0.625000X0*%
%ADD29RoundRect,0.416666X-0.583334X-0.970834X0.583334X-0.970834X0.583334X0.970834X-0.583334X0.970834X0*%
%ADD30RoundRect,0.250000X-0.337500X-0.475000X0.337500X-0.475000X0.337500X0.475000X-0.337500X0.475000X0*%
%ADD31RoundRect,0.150000X0.625000X-0.150000X0.625000X0.150000X-0.625000X0.150000X-0.625000X-0.150000X0*%
%ADD32RoundRect,0.416666X0.970834X-0.583334X0.970834X0.583334X-0.970834X0.583334X-0.970834X-0.583334X0*%
%ADD33R,0.650000X1.950000*%
G04 APERTURE END LIST*
D10*
X11268114Y-52002968D02*
X11268114Y-52305349D01*
X10965733Y-52184396D02*
X11268114Y-52305349D01*
X11268114Y-52305349D02*
X11570495Y-52184396D01*
X11086685Y-52547253D02*
X11268114Y-52305349D01*
X11268114Y-52305349D02*
X11449543Y-52547253D01*
X11268114Y-70189368D02*
X11268114Y-70491749D01*
X10965733Y-70370796D02*
X11268114Y-70491749D01*
X11268114Y-70491749D02*
X11570495Y-70370796D01*
X11086685Y-70733653D02*
X11268114Y-70491749D01*
X11268114Y-70491749D02*
X11449543Y-70733653D01*
X11268114Y-79638168D02*
X11268114Y-79940549D01*
X10965733Y-79819596D02*
X11268114Y-79940549D01*
X11268114Y-79940549D02*
X11570495Y-79819596D01*
X11086685Y-80182453D02*
X11268114Y-79940549D01*
X11268114Y-79940549D02*
X11449543Y-80182453D01*
D11*
X51183100Y-80792224D02*
X51273814Y-80822462D01*
X51273814Y-80822462D02*
X51425005Y-80822462D01*
X51425005Y-80822462D02*
X51485481Y-80792224D01*
X51485481Y-80792224D02*
X51515719Y-80761985D01*
X51515719Y-80761985D02*
X51545957Y-80701509D01*
X51545957Y-80701509D02*
X51545957Y-80641033D01*
X51545957Y-80641033D02*
X51515719Y-80580557D01*
X51515719Y-80580557D02*
X51485481Y-80550319D01*
X51485481Y-80550319D02*
X51425005Y-80520081D01*
X51425005Y-80520081D02*
X51304052Y-80489843D01*
X51304052Y-80489843D02*
X51243576Y-80459604D01*
X51243576Y-80459604D02*
X51213338Y-80429366D01*
X51213338Y-80429366D02*
X51183100Y-80368890D01*
X51183100Y-80368890D02*
X51183100Y-80308414D01*
X51183100Y-80308414D02*
X51213338Y-80247938D01*
X51213338Y-80247938D02*
X51243576Y-80217700D01*
X51243576Y-80217700D02*
X51304052Y-80187462D01*
X51304052Y-80187462D02*
X51455243Y-80187462D01*
X51455243Y-80187462D02*
X51545957Y-80217700D01*
X52180957Y-80761985D02*
X52150719Y-80792224D01*
X52150719Y-80792224D02*
X52060005Y-80822462D01*
X52060005Y-80822462D02*
X51999529Y-80822462D01*
X51999529Y-80822462D02*
X51908814Y-80792224D01*
X51908814Y-80792224D02*
X51848338Y-80731747D01*
X51848338Y-80731747D02*
X51818100Y-80671271D01*
X51818100Y-80671271D02*
X51787862Y-80550319D01*
X51787862Y-80550319D02*
X51787862Y-80459604D01*
X51787862Y-80459604D02*
X51818100Y-80338652D01*
X51818100Y-80338652D02*
X51848338Y-80278176D01*
X51848338Y-80278176D02*
X51908814Y-80217700D01*
X51908814Y-80217700D02*
X51999529Y-80187462D01*
X51999529Y-80187462D02*
X52060005Y-80187462D01*
X52060005Y-80187462D02*
X52150719Y-80217700D01*
X52150719Y-80217700D02*
X52180957Y-80247938D01*
X52755481Y-80822462D02*
X52453100Y-80822462D01*
X52453100Y-80822462D02*
X52453100Y-80187462D01*
X51152862Y-81814538D02*
X51243576Y-81844776D01*
X51243576Y-81844776D02*
X51394767Y-81844776D01*
X51394767Y-81844776D02*
X51455243Y-81814538D01*
X51455243Y-81814538D02*
X51485481Y-81784299D01*
X51485481Y-81784299D02*
X51515719Y-81723823D01*
X51515719Y-81723823D02*
X51515719Y-81663347D01*
X51515719Y-81663347D02*
X51485481Y-81602871D01*
X51485481Y-81602871D02*
X51455243Y-81572633D01*
X51455243Y-81572633D02*
X51394767Y-81542395D01*
X51394767Y-81542395D02*
X51273814Y-81512157D01*
X51273814Y-81512157D02*
X51213338Y-81481918D01*
X51213338Y-81481918D02*
X51183100Y-81451680D01*
X51183100Y-81451680D02*
X51152862Y-81391204D01*
X51152862Y-81391204D02*
X51152862Y-81330728D01*
X51152862Y-81330728D02*
X51183100Y-81270252D01*
X51183100Y-81270252D02*
X51213338Y-81240014D01*
X51213338Y-81240014D02*
X51273814Y-81209776D01*
X51273814Y-81209776D02*
X51425005Y-81209776D01*
X51425005Y-81209776D02*
X51515719Y-81240014D01*
X51787862Y-81844776D02*
X51787862Y-81209776D01*
X51787862Y-81209776D02*
X51939052Y-81209776D01*
X51939052Y-81209776D02*
X52029767Y-81240014D01*
X52029767Y-81240014D02*
X52090243Y-81300490D01*
X52090243Y-81300490D02*
X52120481Y-81360966D01*
X52120481Y-81360966D02*
X52150719Y-81481918D01*
X52150719Y-81481918D02*
X52150719Y-81572633D01*
X52150719Y-81572633D02*
X52120481Y-81693585D01*
X52120481Y-81693585D02*
X52090243Y-81754061D01*
X52090243Y-81754061D02*
X52029767Y-81814538D01*
X52029767Y-81814538D02*
X51939052Y-81844776D01*
X51939052Y-81844776D02*
X51787862Y-81844776D01*
X52392624Y-81663347D02*
X52695005Y-81663347D01*
X52332148Y-81844776D02*
X52543814Y-81209776D01*
X52543814Y-81209776D02*
X52755481Y-81844776D01*
X51152862Y-82232090D02*
X51545957Y-82232090D01*
X51545957Y-82232090D02*
X51334290Y-82473994D01*
X51334290Y-82473994D02*
X51425005Y-82473994D01*
X51425005Y-82473994D02*
X51485481Y-82504232D01*
X51485481Y-82504232D02*
X51515719Y-82534471D01*
X51515719Y-82534471D02*
X51545957Y-82594947D01*
X51545957Y-82594947D02*
X51545957Y-82746137D01*
X51545957Y-82746137D02*
X51515719Y-82806613D01*
X51515719Y-82806613D02*
X51485481Y-82836852D01*
X51485481Y-82836852D02*
X51425005Y-82867090D01*
X51425005Y-82867090D02*
X51243576Y-82867090D01*
X51243576Y-82867090D02*
X51183100Y-82836852D01*
X51183100Y-82836852D02*
X51152862Y-82806613D01*
X51727386Y-82232090D02*
X51939052Y-82867090D01*
X51939052Y-82867090D02*
X52150719Y-82232090D01*
X52301910Y-82232090D02*
X52695005Y-82232090D01*
X52695005Y-82232090D02*
X52483338Y-82473994D01*
X52483338Y-82473994D02*
X52574053Y-82473994D01*
X52574053Y-82473994D02*
X52634529Y-82504232D01*
X52634529Y-82504232D02*
X52664767Y-82534471D01*
X52664767Y-82534471D02*
X52695005Y-82594947D01*
X52695005Y-82594947D02*
X52695005Y-82746137D01*
X52695005Y-82746137D02*
X52664767Y-82806613D01*
X52664767Y-82806613D02*
X52634529Y-82836852D01*
X52634529Y-82836852D02*
X52574053Y-82867090D01*
X52574053Y-82867090D02*
X52392624Y-82867090D01*
X52392624Y-82867090D02*
X52332148Y-82836852D01*
X52332148Y-82836852D02*
X52301910Y-82806613D01*
X51364529Y-83284642D02*
X51304053Y-83254404D01*
X51304053Y-83254404D02*
X51213339Y-83254404D01*
X51213339Y-83254404D02*
X51122624Y-83284642D01*
X51122624Y-83284642D02*
X51062148Y-83345118D01*
X51062148Y-83345118D02*
X51031910Y-83405594D01*
X51031910Y-83405594D02*
X51001672Y-83526546D01*
X51001672Y-83526546D02*
X51001672Y-83617261D01*
X51001672Y-83617261D02*
X51031910Y-83738213D01*
X51031910Y-83738213D02*
X51062148Y-83798689D01*
X51062148Y-83798689D02*
X51122624Y-83859166D01*
X51122624Y-83859166D02*
X51213339Y-83889404D01*
X51213339Y-83889404D02*
X51273815Y-83889404D01*
X51273815Y-83889404D02*
X51364529Y-83859166D01*
X51364529Y-83859166D02*
X51394767Y-83828927D01*
X51394767Y-83828927D02*
X51394767Y-83617261D01*
X51394767Y-83617261D02*
X51273815Y-83617261D01*
X51666910Y-83889404D02*
X51666910Y-83254404D01*
X51666910Y-83254404D02*
X52029767Y-83889404D01*
X52029767Y-83889404D02*
X52029767Y-83254404D01*
X52332148Y-83889404D02*
X52332148Y-83254404D01*
X52332148Y-83254404D02*
X52483338Y-83254404D01*
X52483338Y-83254404D02*
X52574053Y-83284642D01*
X52574053Y-83284642D02*
X52634529Y-83345118D01*
X52634529Y-83345118D02*
X52664767Y-83405594D01*
X52664767Y-83405594D02*
X52695005Y-83526546D01*
X52695005Y-83526546D02*
X52695005Y-83617261D01*
X52695005Y-83617261D02*
X52664767Y-83738213D01*
X52664767Y-83738213D02*
X52634529Y-83798689D01*
X52634529Y-83798689D02*
X52574053Y-83859166D01*
X52574053Y-83859166D02*
X52483338Y-83889404D01*
X52483338Y-83889404D02*
X52332148Y-83889404D01*
D10*
X11268114Y-24367768D02*
X11268114Y-24670149D01*
X10965733Y-24549196D02*
X11268114Y-24670149D01*
X11268114Y-24670149D02*
X11570495Y-24549196D01*
X11086685Y-24912053D02*
X11268114Y-24670149D01*
X11268114Y-24670149D02*
X11449543Y-24912053D01*
D12*
X42473648Y-90388828D02*
X42512352Y-90272714D01*
X42512352Y-90272714D02*
X42512352Y-90079190D01*
X42512352Y-90079190D02*
X42473648Y-90001781D01*
X42473648Y-90001781D02*
X42434943Y-89963076D01*
X42434943Y-89963076D02*
X42357533Y-89924371D01*
X42357533Y-89924371D02*
X42280124Y-89924371D01*
X42280124Y-89924371D02*
X42202714Y-89963076D01*
X42202714Y-89963076D02*
X42164009Y-90001781D01*
X42164009Y-90001781D02*
X42125305Y-90079190D01*
X42125305Y-90079190D02*
X42086600Y-90234009D01*
X42086600Y-90234009D02*
X42047895Y-90311419D01*
X42047895Y-90311419D02*
X42009190Y-90350124D01*
X42009190Y-90350124D02*
X41931781Y-90388828D01*
X41931781Y-90388828D02*
X41854371Y-90388828D01*
X41854371Y-90388828D02*
X41776962Y-90350124D01*
X41776962Y-90350124D02*
X41738257Y-90311419D01*
X41738257Y-90311419D02*
X41699552Y-90234009D01*
X41699552Y-90234009D02*
X41699552Y-90040486D01*
X41699552Y-90040486D02*
X41738257Y-89924371D01*
X42434943Y-89111572D02*
X42473648Y-89150276D01*
X42473648Y-89150276D02*
X42512352Y-89266391D01*
X42512352Y-89266391D02*
X42512352Y-89343800D01*
X42512352Y-89343800D02*
X42473648Y-89459914D01*
X42473648Y-89459914D02*
X42396238Y-89537324D01*
X42396238Y-89537324D02*
X42318828Y-89576029D01*
X42318828Y-89576029D02*
X42164009Y-89614733D01*
X42164009Y-89614733D02*
X42047895Y-89614733D01*
X42047895Y-89614733D02*
X41893076Y-89576029D01*
X41893076Y-89576029D02*
X41815667Y-89537324D01*
X41815667Y-89537324D02*
X41738257Y-89459914D01*
X41738257Y-89459914D02*
X41699552Y-89343800D01*
X41699552Y-89343800D02*
X41699552Y-89266391D01*
X41699552Y-89266391D02*
X41738257Y-89150276D01*
X41738257Y-89150276D02*
X41776962Y-89111572D01*
X42512352Y-88376181D02*
X42512352Y-88763229D01*
X42512352Y-88763229D02*
X41699552Y-88763229D01*
X45090772Y-90388828D02*
X45129476Y-90272714D01*
X45129476Y-90272714D02*
X45129476Y-90079190D01*
X45129476Y-90079190D02*
X45090772Y-90001781D01*
X45090772Y-90001781D02*
X45052067Y-89963076D01*
X45052067Y-89963076D02*
X44974657Y-89924371D01*
X44974657Y-89924371D02*
X44897248Y-89924371D01*
X44897248Y-89924371D02*
X44819838Y-89963076D01*
X44819838Y-89963076D02*
X44781133Y-90001781D01*
X44781133Y-90001781D02*
X44742429Y-90079190D01*
X44742429Y-90079190D02*
X44703724Y-90234009D01*
X44703724Y-90234009D02*
X44665019Y-90311419D01*
X44665019Y-90311419D02*
X44626314Y-90350124D01*
X44626314Y-90350124D02*
X44548905Y-90388828D01*
X44548905Y-90388828D02*
X44471495Y-90388828D01*
X44471495Y-90388828D02*
X44394086Y-90350124D01*
X44394086Y-90350124D02*
X44355381Y-90311419D01*
X44355381Y-90311419D02*
X44316676Y-90234009D01*
X44316676Y-90234009D02*
X44316676Y-90040486D01*
X44316676Y-90040486D02*
X44355381Y-89924371D01*
X45129476Y-89576029D02*
X44316676Y-89576029D01*
X44316676Y-89576029D02*
X44316676Y-89382505D01*
X44316676Y-89382505D02*
X44355381Y-89266391D01*
X44355381Y-89266391D02*
X44432791Y-89188981D01*
X44432791Y-89188981D02*
X44510200Y-89150276D01*
X44510200Y-89150276D02*
X44665019Y-89111572D01*
X44665019Y-89111572D02*
X44781133Y-89111572D01*
X44781133Y-89111572D02*
X44935952Y-89150276D01*
X44935952Y-89150276D02*
X45013362Y-89188981D01*
X45013362Y-89188981D02*
X45090772Y-89266391D01*
X45090772Y-89266391D02*
X45129476Y-89382505D01*
X45129476Y-89382505D02*
X45129476Y-89576029D01*
X44897248Y-88801933D02*
X44897248Y-88414886D01*
X45129476Y-88879343D02*
X44316676Y-88608410D01*
X44316676Y-88608410D02*
X45129476Y-88337476D01*
X46933800Y-90427533D02*
X46933800Y-89924371D01*
X46933800Y-89924371D02*
X47243438Y-90195305D01*
X47243438Y-90195305D02*
X47243438Y-90079190D01*
X47243438Y-90079190D02*
X47282143Y-90001781D01*
X47282143Y-90001781D02*
X47320848Y-89963076D01*
X47320848Y-89963076D02*
X47398257Y-89924371D01*
X47398257Y-89924371D02*
X47591781Y-89924371D01*
X47591781Y-89924371D02*
X47669191Y-89963076D01*
X47669191Y-89963076D02*
X47707896Y-90001781D01*
X47707896Y-90001781D02*
X47746600Y-90079190D01*
X47746600Y-90079190D02*
X47746600Y-90311419D01*
X47746600Y-90311419D02*
X47707896Y-90388828D01*
X47707896Y-90388828D02*
X47669191Y-90427533D01*
X46933800Y-89692143D02*
X47746600Y-89421210D01*
X47746600Y-89421210D02*
X46933800Y-89150276D01*
X46933800Y-88956752D02*
X46933800Y-88453590D01*
X46933800Y-88453590D02*
X47243438Y-88724524D01*
X47243438Y-88724524D02*
X47243438Y-88608409D01*
X47243438Y-88608409D02*
X47282143Y-88531000D01*
X47282143Y-88531000D02*
X47320848Y-88492295D01*
X47320848Y-88492295D02*
X47398257Y-88453590D01*
X47398257Y-88453590D02*
X47591781Y-88453590D01*
X47591781Y-88453590D02*
X47669191Y-88492295D01*
X47669191Y-88492295D02*
X47707896Y-88531000D01*
X47707896Y-88531000D02*
X47746600Y-88608409D01*
X47746600Y-88608409D02*
X47746600Y-88840638D01*
X47746600Y-88840638D02*
X47707896Y-88918047D01*
X47707896Y-88918047D02*
X47669191Y-88956752D01*
X49589629Y-89924371D02*
X49550924Y-90001781D01*
X49550924Y-90001781D02*
X49550924Y-90117895D01*
X49550924Y-90117895D02*
X49589629Y-90234009D01*
X49589629Y-90234009D02*
X49667039Y-90311419D01*
X49667039Y-90311419D02*
X49744448Y-90350124D01*
X49744448Y-90350124D02*
X49899267Y-90388828D01*
X49899267Y-90388828D02*
X50015381Y-90388828D01*
X50015381Y-90388828D02*
X50170200Y-90350124D01*
X50170200Y-90350124D02*
X50247610Y-90311419D01*
X50247610Y-90311419D02*
X50325020Y-90234009D01*
X50325020Y-90234009D02*
X50363724Y-90117895D01*
X50363724Y-90117895D02*
X50363724Y-90040486D01*
X50363724Y-90040486D02*
X50325020Y-89924371D01*
X50325020Y-89924371D02*
X50286315Y-89885667D01*
X50286315Y-89885667D02*
X50015381Y-89885667D01*
X50015381Y-89885667D02*
X50015381Y-90040486D01*
X50363724Y-89537324D02*
X49550924Y-89537324D01*
X49550924Y-89537324D02*
X50363724Y-89072867D01*
X50363724Y-89072867D02*
X49550924Y-89072867D01*
X50363724Y-88685819D02*
X49550924Y-88685819D01*
X49550924Y-88685819D02*
X49550924Y-88492295D01*
X49550924Y-88492295D02*
X49589629Y-88376181D01*
X49589629Y-88376181D02*
X49667039Y-88298771D01*
X49667039Y-88298771D02*
X49744448Y-88260066D01*
X49744448Y-88260066D02*
X49899267Y-88221362D01*
X49899267Y-88221362D02*
X50015381Y-88221362D01*
X50015381Y-88221362D02*
X50170200Y-88260066D01*
X50170200Y-88260066D02*
X50247610Y-88298771D01*
X50247610Y-88298771D02*
X50325020Y-88376181D01*
X50325020Y-88376181D02*
X50363724Y-88492295D01*
X50363724Y-88492295D02*
X50363724Y-88685819D01*
D13*
X49586064Y-80275967D02*
X50602064Y-80275967D01*
X50505302Y-80711396D02*
X50553683Y-80759777D01*
X50553683Y-80759777D02*
X50602064Y-80856539D01*
X50602064Y-80856539D02*
X50602064Y-81098444D01*
X50602064Y-81098444D02*
X50553683Y-81195206D01*
X50553683Y-81195206D02*
X50505302Y-81243587D01*
X50505302Y-81243587D02*
X50408540Y-81291968D01*
X50408540Y-81291968D02*
X50311778Y-81291968D01*
X50311778Y-81291968D02*
X50166635Y-81243587D01*
X50166635Y-81243587D02*
X49586064Y-80663015D01*
X49586064Y-80663015D02*
X49586064Y-81291968D01*
X49682825Y-82307968D02*
X49634445Y-82259587D01*
X49634445Y-82259587D02*
X49586064Y-82114444D01*
X49586064Y-82114444D02*
X49586064Y-82017682D01*
X49586064Y-82017682D02*
X49634445Y-81872539D01*
X49634445Y-81872539D02*
X49731206Y-81775777D01*
X49731206Y-81775777D02*
X49827968Y-81727396D01*
X49827968Y-81727396D02*
X50021492Y-81679015D01*
X50021492Y-81679015D02*
X50166635Y-81679015D01*
X50166635Y-81679015D02*
X50360159Y-81727396D01*
X50360159Y-81727396D02*
X50456921Y-81775777D01*
X50456921Y-81775777D02*
X50553683Y-81872539D01*
X50553683Y-81872539D02*
X50602064Y-82017682D01*
X50602064Y-82017682D02*
X50602064Y-82114444D01*
X50602064Y-82114444D02*
X50553683Y-82259587D01*
X50553683Y-82259587D02*
X50505302Y-82307968D01*
X50602064Y-83711015D02*
X50602064Y-83807777D01*
X50602064Y-83807777D02*
X50553683Y-83904539D01*
X50553683Y-83904539D02*
X50505302Y-83952920D01*
X50505302Y-83952920D02*
X50408540Y-84001301D01*
X50408540Y-84001301D02*
X50215016Y-84049682D01*
X50215016Y-84049682D02*
X49973111Y-84049682D01*
X49973111Y-84049682D02*
X49779587Y-84001301D01*
X49779587Y-84001301D02*
X49682825Y-83952920D01*
X49682825Y-83952920D02*
X49634445Y-83904539D01*
X49634445Y-83904539D02*
X49586064Y-83807777D01*
X49586064Y-83807777D02*
X49586064Y-83711015D01*
X49586064Y-83711015D02*
X49634445Y-83614253D01*
X49634445Y-83614253D02*
X49682825Y-83565872D01*
X49682825Y-83565872D02*
X49779587Y-83517491D01*
X49779587Y-83517491D02*
X49973111Y-83469110D01*
X49973111Y-83469110D02*
X50215016Y-83469110D01*
X50215016Y-83469110D02*
X50408540Y-83517491D01*
X50408540Y-83517491D02*
X50505302Y-83565872D01*
X50505302Y-83565872D02*
X50553683Y-83614253D01*
X50553683Y-83614253D02*
X50602064Y-83711015D01*
D14*
X41017372Y-40634624D02*
X41162515Y-40683005D01*
X41162515Y-40683005D02*
X41210896Y-40731386D01*
X41210896Y-40731386D02*
X41259277Y-40828148D01*
X41259277Y-40828148D02*
X41259277Y-40973291D01*
X41259277Y-40973291D02*
X41210896Y-41070053D01*
X41210896Y-41070053D02*
X41162515Y-41118434D01*
X41162515Y-41118434D02*
X41065753Y-41166814D01*
X41065753Y-41166814D02*
X40678705Y-41166814D01*
X40678705Y-41166814D02*
X40678705Y-40150814D01*
X40678705Y-40150814D02*
X41017372Y-40150814D01*
X41017372Y-40150814D02*
X41114134Y-40199195D01*
X41114134Y-40199195D02*
X41162515Y-40247576D01*
X41162515Y-40247576D02*
X41210896Y-40344338D01*
X41210896Y-40344338D02*
X41210896Y-40441100D01*
X41210896Y-40441100D02*
X41162515Y-40537862D01*
X41162515Y-40537862D02*
X41114134Y-40586243D01*
X41114134Y-40586243D02*
X41017372Y-40634624D01*
X41017372Y-40634624D02*
X40678705Y-40634624D01*
X41888229Y-40150814D02*
X42081753Y-40150814D01*
X42081753Y-40150814D02*
X42178515Y-40199195D01*
X42178515Y-40199195D02*
X42275277Y-40295957D01*
X42275277Y-40295957D02*
X42323658Y-40489481D01*
X42323658Y-40489481D02*
X42323658Y-40828148D01*
X42323658Y-40828148D02*
X42275277Y-41021672D01*
X42275277Y-41021672D02*
X42178515Y-41118434D01*
X42178515Y-41118434D02*
X42081753Y-41166814D01*
X42081753Y-41166814D02*
X41888229Y-41166814D01*
X41888229Y-41166814D02*
X41791467Y-41118434D01*
X41791467Y-41118434D02*
X41694705Y-41021672D01*
X41694705Y-41021672D02*
X41646324Y-40828148D01*
X41646324Y-40828148D02*
X41646324Y-40489481D01*
X41646324Y-40489481D02*
X41694705Y-40295957D01*
X41694705Y-40295957D02*
X41791467Y-40199195D01*
X41791467Y-40199195D02*
X41888229Y-40150814D01*
X42710705Y-40876529D02*
X43194515Y-40876529D01*
X42613943Y-41166814D02*
X42952610Y-40150814D01*
X42952610Y-40150814D02*
X43291277Y-41166814D01*
X44210515Y-41166814D02*
X43871848Y-40683005D01*
X43629943Y-41166814D02*
X43629943Y-40150814D01*
X43629943Y-40150814D02*
X44016991Y-40150814D01*
X44016991Y-40150814D02*
X44113753Y-40199195D01*
X44113753Y-40199195D02*
X44162134Y-40247576D01*
X44162134Y-40247576D02*
X44210515Y-40344338D01*
X44210515Y-40344338D02*
X44210515Y-40489481D01*
X44210515Y-40489481D02*
X44162134Y-40586243D01*
X44162134Y-40586243D02*
X44113753Y-40634624D01*
X44113753Y-40634624D02*
X44016991Y-40683005D01*
X44016991Y-40683005D02*
X43629943Y-40683005D01*
X44645943Y-41166814D02*
X44645943Y-40150814D01*
X44645943Y-40150814D02*
X44887848Y-40150814D01*
X44887848Y-40150814D02*
X45032991Y-40199195D01*
X45032991Y-40199195D02*
X45129753Y-40295957D01*
X45129753Y-40295957D02*
X45178134Y-40392719D01*
X45178134Y-40392719D02*
X45226515Y-40586243D01*
X45226515Y-40586243D02*
X45226515Y-40731386D01*
X45226515Y-40731386D02*
X45178134Y-40924910D01*
X45178134Y-40924910D02*
X45129753Y-41021672D01*
X45129753Y-41021672D02*
X45032991Y-41118434D01*
X45032991Y-41118434D02*
X44887848Y-41166814D01*
X44887848Y-41166814D02*
X44645943Y-41166814D01*
X46387657Y-41118434D02*
X46532800Y-41166814D01*
X46532800Y-41166814D02*
X46774705Y-41166814D01*
X46774705Y-41166814D02*
X46871467Y-41118434D01*
X46871467Y-41118434D02*
X46919848Y-41070053D01*
X46919848Y-41070053D02*
X46968229Y-40973291D01*
X46968229Y-40973291D02*
X46968229Y-40876529D01*
X46968229Y-40876529D02*
X46919848Y-40779767D01*
X46919848Y-40779767D02*
X46871467Y-40731386D01*
X46871467Y-40731386D02*
X46774705Y-40683005D01*
X46774705Y-40683005D02*
X46581181Y-40634624D01*
X46581181Y-40634624D02*
X46484419Y-40586243D01*
X46484419Y-40586243D02*
X46436038Y-40537862D01*
X46436038Y-40537862D02*
X46387657Y-40441100D01*
X46387657Y-40441100D02*
X46387657Y-40344338D01*
X46387657Y-40344338D02*
X46436038Y-40247576D01*
X46436038Y-40247576D02*
X46484419Y-40199195D01*
X46484419Y-40199195D02*
X46581181Y-40150814D01*
X46581181Y-40150814D02*
X46823086Y-40150814D01*
X46823086Y-40150814D02*
X46968229Y-40199195D01*
X47403657Y-40634624D02*
X47742324Y-40634624D01*
X47887467Y-41166814D02*
X47403657Y-41166814D01*
X47403657Y-41166814D02*
X47403657Y-40150814D01*
X47403657Y-40150814D02*
X47887467Y-40150814D01*
X48806705Y-41166814D02*
X48322895Y-41166814D01*
X48322895Y-41166814D02*
X48322895Y-40150814D01*
X49145371Y-40634624D02*
X49484038Y-40634624D01*
X49629181Y-41166814D02*
X49145371Y-41166814D01*
X49145371Y-41166814D02*
X49145371Y-40150814D01*
X49145371Y-40150814D02*
X49629181Y-40150814D01*
X50645181Y-41070053D02*
X50596800Y-41118434D01*
X50596800Y-41118434D02*
X50451657Y-41166814D01*
X50451657Y-41166814D02*
X50354895Y-41166814D01*
X50354895Y-41166814D02*
X50209752Y-41118434D01*
X50209752Y-41118434D02*
X50112990Y-41021672D01*
X50112990Y-41021672D02*
X50064609Y-40924910D01*
X50064609Y-40924910D02*
X50016228Y-40731386D01*
X50016228Y-40731386D02*
X50016228Y-40586243D01*
X50016228Y-40586243D02*
X50064609Y-40392719D01*
X50064609Y-40392719D02*
X50112990Y-40295957D01*
X50112990Y-40295957D02*
X50209752Y-40199195D01*
X50209752Y-40199195D02*
X50354895Y-40150814D01*
X50354895Y-40150814D02*
X50451657Y-40150814D01*
X50451657Y-40150814D02*
X50596800Y-40199195D01*
X50596800Y-40199195D02*
X50645181Y-40247576D01*
X50935466Y-40150814D02*
X51516038Y-40150814D01*
X51225752Y-41166814D02*
X51225752Y-40150814D01*
D15*
X48380823Y-4634640D02*
X49106537Y-4126640D01*
X48380823Y-3763783D02*
X49904823Y-3763783D01*
X49904823Y-3763783D02*
X49904823Y-4344354D01*
X49904823Y-4344354D02*
X49832252Y-4489497D01*
X49832252Y-4489497D02*
X49759680Y-4562068D01*
X49759680Y-4562068D02*
X49614537Y-4634640D01*
X49614537Y-4634640D02*
X49396823Y-4634640D01*
X49396823Y-4634640D02*
X49251680Y-4562068D01*
X49251680Y-4562068D02*
X49179109Y-4489497D01*
X49179109Y-4489497D02*
X49106537Y-4344354D01*
X49106537Y-4344354D02*
X49106537Y-3763783D01*
X48453395Y-5868354D02*
X48380823Y-5723211D01*
X48380823Y-5723211D02*
X48380823Y-5432926D01*
X48380823Y-5432926D02*
X48453395Y-5287783D01*
X48453395Y-5287783D02*
X48598537Y-5215211D01*
X48598537Y-5215211D02*
X49179109Y-5215211D01*
X49179109Y-5215211D02*
X49324252Y-5287783D01*
X49324252Y-5287783D02*
X49396823Y-5432926D01*
X49396823Y-5432926D02*
X49396823Y-5723211D01*
X49396823Y-5723211D02*
X49324252Y-5868354D01*
X49324252Y-5868354D02*
X49179109Y-5940926D01*
X49179109Y-5940926D02*
X49033966Y-5940926D01*
X49033966Y-5940926D02*
X48888823Y-5215211D01*
X48380823Y-6594069D02*
X49396823Y-6594069D01*
X49251680Y-6594069D02*
X49324252Y-6666640D01*
X49324252Y-6666640D02*
X49396823Y-6811783D01*
X49396823Y-6811783D02*
X49396823Y-7029497D01*
X49396823Y-7029497D02*
X49324252Y-7174640D01*
X49324252Y-7174640D02*
X49179109Y-7247212D01*
X49179109Y-7247212D02*
X48380823Y-7247212D01*
X49179109Y-7247212D02*
X49324252Y-7319783D01*
X49324252Y-7319783D02*
X49396823Y-7464926D01*
X49396823Y-7464926D02*
X49396823Y-7682640D01*
X49396823Y-7682640D02*
X49324252Y-7827783D01*
X49324252Y-7827783D02*
X49179109Y-7900354D01*
X49179109Y-7900354D02*
X48380823Y-7900354D01*
X48380823Y-8843783D02*
X48453395Y-8698640D01*
X48453395Y-8698640D02*
X48525966Y-8626069D01*
X48525966Y-8626069D02*
X48671109Y-8553497D01*
X48671109Y-8553497D02*
X49106537Y-8553497D01*
X49106537Y-8553497D02*
X49251680Y-8626069D01*
X49251680Y-8626069D02*
X49324252Y-8698640D01*
X49324252Y-8698640D02*
X49396823Y-8843783D01*
X49396823Y-8843783D02*
X49396823Y-9061497D01*
X49396823Y-9061497D02*
X49324252Y-9206640D01*
X49324252Y-9206640D02*
X49251680Y-9279212D01*
X49251680Y-9279212D02*
X49106537Y-9351783D01*
X49106537Y-9351783D02*
X48671109Y-9351783D01*
X48671109Y-9351783D02*
X48525966Y-9279212D01*
X48525966Y-9279212D02*
X48453395Y-9206640D01*
X48453395Y-9206640D02*
X48380823Y-9061497D01*
X48380823Y-9061497D02*
X48380823Y-8843783D01*
X49396823Y-9787211D02*
X49396823Y-10367783D01*
X49904823Y-10004926D02*
X48598537Y-10004926D01*
X48598537Y-10004926D02*
X48453395Y-10077497D01*
X48453395Y-10077497D02*
X48380823Y-10222640D01*
X48380823Y-10222640D02*
X48380823Y-10367783D01*
X48453395Y-11456354D02*
X48380823Y-11311211D01*
X48380823Y-11311211D02*
X48380823Y-11020926D01*
X48380823Y-11020926D02*
X48453395Y-10875783D01*
X48453395Y-10875783D02*
X48598537Y-10803211D01*
X48598537Y-10803211D02*
X49179109Y-10803211D01*
X49179109Y-10803211D02*
X49324252Y-10875783D01*
X49324252Y-10875783D02*
X49396823Y-11020926D01*
X49396823Y-11020926D02*
X49396823Y-11311211D01*
X49396823Y-11311211D02*
X49324252Y-11456354D01*
X49324252Y-11456354D02*
X49179109Y-11528926D01*
X49179109Y-11528926D02*
X49033966Y-11528926D01*
X49033966Y-11528926D02*
X48888823Y-10803211D01*
X48380823Y-13343212D02*
X49904823Y-13343212D01*
X49904823Y-13343212D02*
X48816252Y-13851212D01*
X48816252Y-13851212D02*
X49904823Y-14359212D01*
X49904823Y-14359212D02*
X48380823Y-14359212D01*
X48380823Y-15302640D02*
X48453395Y-15157497D01*
X48453395Y-15157497D02*
X48525966Y-15084926D01*
X48525966Y-15084926D02*
X48671109Y-15012354D01*
X48671109Y-15012354D02*
X49106537Y-15012354D01*
X49106537Y-15012354D02*
X49251680Y-15084926D01*
X49251680Y-15084926D02*
X49324252Y-15157497D01*
X49324252Y-15157497D02*
X49396823Y-15302640D01*
X49396823Y-15302640D02*
X49396823Y-15520354D01*
X49396823Y-15520354D02*
X49324252Y-15665497D01*
X49324252Y-15665497D02*
X49251680Y-15738069D01*
X49251680Y-15738069D02*
X49106537Y-15810640D01*
X49106537Y-15810640D02*
X48671109Y-15810640D01*
X48671109Y-15810640D02*
X48525966Y-15738069D01*
X48525966Y-15738069D02*
X48453395Y-15665497D01*
X48453395Y-15665497D02*
X48380823Y-15520354D01*
X48380823Y-15520354D02*
X48380823Y-15302640D01*
X49396823Y-16463783D02*
X48380823Y-16463783D01*
X49251680Y-16463783D02*
X49324252Y-16536354D01*
X49324252Y-16536354D02*
X49396823Y-16681497D01*
X49396823Y-16681497D02*
X49396823Y-16899211D01*
X49396823Y-16899211D02*
X49324252Y-17044354D01*
X49324252Y-17044354D02*
X49179109Y-17116926D01*
X49179109Y-17116926D02*
X48380823Y-17116926D01*
X48380823Y-17842640D02*
X49396823Y-17842640D01*
X49904823Y-17842640D02*
X49832252Y-17770068D01*
X49832252Y-17770068D02*
X49759680Y-17842640D01*
X49759680Y-17842640D02*
X49832252Y-17915211D01*
X49832252Y-17915211D02*
X49904823Y-17842640D01*
X49904823Y-17842640D02*
X49759680Y-17842640D01*
X49396823Y-18350639D02*
X49396823Y-18931211D01*
X49904823Y-18568354D02*
X48598537Y-18568354D01*
X48598537Y-18568354D02*
X48453395Y-18640925D01*
X48453395Y-18640925D02*
X48380823Y-18786068D01*
X48380823Y-18786068D02*
X48380823Y-18931211D01*
X48380823Y-19656925D02*
X48453395Y-19511782D01*
X48453395Y-19511782D02*
X48525966Y-19439211D01*
X48525966Y-19439211D02*
X48671109Y-19366639D01*
X48671109Y-19366639D02*
X49106537Y-19366639D01*
X49106537Y-19366639D02*
X49251680Y-19439211D01*
X49251680Y-19439211D02*
X49324252Y-19511782D01*
X49324252Y-19511782D02*
X49396823Y-19656925D01*
X49396823Y-19656925D02*
X49396823Y-19874639D01*
X49396823Y-19874639D02*
X49324252Y-20019782D01*
X49324252Y-20019782D02*
X49251680Y-20092354D01*
X49251680Y-20092354D02*
X49106537Y-20164925D01*
X49106537Y-20164925D02*
X48671109Y-20164925D01*
X48671109Y-20164925D02*
X48525966Y-20092354D01*
X48525966Y-20092354D02*
X48453395Y-20019782D01*
X48453395Y-20019782D02*
X48380823Y-19874639D01*
X48380823Y-19874639D02*
X48380823Y-19656925D01*
X48380823Y-20818068D02*
X49396823Y-20818068D01*
X49106537Y-20818068D02*
X49251680Y-20890639D01*
X49251680Y-20890639D02*
X49324252Y-20963211D01*
X49324252Y-20963211D02*
X49396823Y-21108353D01*
X49396823Y-21108353D02*
X49396823Y-21253496D01*
X48380823Y-21761497D02*
X49396823Y-21761497D01*
X49904823Y-21761497D02*
X49832252Y-21688925D01*
X49832252Y-21688925D02*
X49759680Y-21761497D01*
X49759680Y-21761497D02*
X49832252Y-21834068D01*
X49832252Y-21834068D02*
X49904823Y-21761497D01*
X49904823Y-21761497D02*
X49759680Y-21761497D01*
X49396823Y-22487211D02*
X48380823Y-22487211D01*
X49251680Y-22487211D02*
X49324252Y-22559782D01*
X49324252Y-22559782D02*
X49396823Y-22704925D01*
X49396823Y-22704925D02*
X49396823Y-22922639D01*
X49396823Y-22922639D02*
X49324252Y-23067782D01*
X49324252Y-23067782D02*
X49179109Y-23140354D01*
X49179109Y-23140354D02*
X48380823Y-23140354D01*
X49396823Y-24519211D02*
X48163109Y-24519211D01*
X48163109Y-24519211D02*
X48017966Y-24446639D01*
X48017966Y-24446639D02*
X47945395Y-24374068D01*
X47945395Y-24374068D02*
X47872823Y-24228925D01*
X47872823Y-24228925D02*
X47872823Y-24011211D01*
X47872823Y-24011211D02*
X47945395Y-23866068D01*
X48453395Y-24519211D02*
X48380823Y-24374068D01*
X48380823Y-24374068D02*
X48380823Y-24083782D01*
X48380823Y-24083782D02*
X48453395Y-23938639D01*
X48453395Y-23938639D02*
X48525966Y-23866068D01*
X48525966Y-23866068D02*
X48671109Y-23793496D01*
X48671109Y-23793496D02*
X49106537Y-23793496D01*
X49106537Y-23793496D02*
X49251680Y-23866068D01*
X49251680Y-23866068D02*
X49324252Y-23938639D01*
X49324252Y-23938639D02*
X49396823Y-24083782D01*
X49396823Y-24083782D02*
X49396823Y-24374068D01*
X49396823Y-24374068D02*
X49324252Y-24519211D01*
X45927268Y-3763783D02*
X47451268Y-3763783D01*
X47451268Y-3763783D02*
X47451268Y-4126640D01*
X47451268Y-4126640D02*
X47378697Y-4344354D01*
X47378697Y-4344354D02*
X47233554Y-4489497D01*
X47233554Y-4489497D02*
X47088411Y-4562068D01*
X47088411Y-4562068D02*
X46798125Y-4634640D01*
X46798125Y-4634640D02*
X46580411Y-4634640D01*
X46580411Y-4634640D02*
X46290125Y-4562068D01*
X46290125Y-4562068D02*
X46144982Y-4489497D01*
X46144982Y-4489497D02*
X45999840Y-4344354D01*
X45999840Y-4344354D02*
X45927268Y-4126640D01*
X45927268Y-4126640D02*
X45927268Y-3763783D01*
X45927268Y-5287783D02*
X46943268Y-5287783D01*
X47451268Y-5287783D02*
X47378697Y-5215211D01*
X47378697Y-5215211D02*
X47306125Y-5287783D01*
X47306125Y-5287783D02*
X47378697Y-5360354D01*
X47378697Y-5360354D02*
X47451268Y-5287783D01*
X47451268Y-5287783D02*
X47306125Y-5287783D01*
X46943268Y-6666640D02*
X45709554Y-6666640D01*
X45709554Y-6666640D02*
X45564411Y-6594068D01*
X45564411Y-6594068D02*
X45491840Y-6521497D01*
X45491840Y-6521497D02*
X45419268Y-6376354D01*
X45419268Y-6376354D02*
X45419268Y-6158640D01*
X45419268Y-6158640D02*
X45491840Y-6013497D01*
X45999840Y-6666640D02*
X45927268Y-6521497D01*
X45927268Y-6521497D02*
X45927268Y-6231211D01*
X45927268Y-6231211D02*
X45999840Y-6086068D01*
X45999840Y-6086068D02*
X46072411Y-6013497D01*
X46072411Y-6013497D02*
X46217554Y-5940925D01*
X46217554Y-5940925D02*
X46652982Y-5940925D01*
X46652982Y-5940925D02*
X46798125Y-6013497D01*
X46798125Y-6013497D02*
X46870697Y-6086068D01*
X46870697Y-6086068D02*
X46943268Y-6231211D01*
X46943268Y-6231211D02*
X46943268Y-6521497D01*
X46943268Y-6521497D02*
X46870697Y-6666640D01*
X45927268Y-7392354D02*
X46943268Y-7392354D01*
X47451268Y-7392354D02*
X47378697Y-7319782D01*
X47378697Y-7319782D02*
X47306125Y-7392354D01*
X47306125Y-7392354D02*
X47378697Y-7464925D01*
X47378697Y-7464925D02*
X47451268Y-7392354D01*
X47451268Y-7392354D02*
X47306125Y-7392354D01*
X46943268Y-7900353D02*
X46943268Y-8480925D01*
X47451268Y-8118068D02*
X46144982Y-8118068D01*
X46144982Y-8118068D02*
X45999840Y-8190639D01*
X45999840Y-8190639D02*
X45927268Y-8335782D01*
X45927268Y-8335782D02*
X45927268Y-8480925D01*
X45927268Y-9642068D02*
X46725554Y-9642068D01*
X46725554Y-9642068D02*
X46870697Y-9569496D01*
X46870697Y-9569496D02*
X46943268Y-9424353D01*
X46943268Y-9424353D02*
X46943268Y-9134068D01*
X46943268Y-9134068D02*
X46870697Y-8988925D01*
X45999840Y-9642068D02*
X45927268Y-9496925D01*
X45927268Y-9496925D02*
X45927268Y-9134068D01*
X45927268Y-9134068D02*
X45999840Y-8988925D01*
X45999840Y-8988925D02*
X46144982Y-8916353D01*
X46144982Y-8916353D02*
X46290125Y-8916353D01*
X46290125Y-8916353D02*
X46435268Y-8988925D01*
X46435268Y-8988925D02*
X46507840Y-9134068D01*
X46507840Y-9134068D02*
X46507840Y-9496925D01*
X46507840Y-9496925D02*
X46580411Y-9642068D01*
X45927268Y-10585496D02*
X45999840Y-10440353D01*
X45999840Y-10440353D02*
X46144982Y-10367782D01*
X46144982Y-10367782D02*
X47451268Y-10367782D01*
X45927268Y-12327211D02*
X47451268Y-12327211D01*
X46943268Y-13052925D02*
X45927268Y-13052925D01*
X46798125Y-13052925D02*
X46870697Y-13125496D01*
X46870697Y-13125496D02*
X46943268Y-13270639D01*
X46943268Y-13270639D02*
X46943268Y-13488353D01*
X46943268Y-13488353D02*
X46870697Y-13633496D01*
X46870697Y-13633496D02*
X46725554Y-13706068D01*
X46725554Y-13706068D02*
X45927268Y-13706068D01*
X46943268Y-14431782D02*
X45419268Y-14431782D01*
X46870697Y-14431782D02*
X46943268Y-14576925D01*
X46943268Y-14576925D02*
X46943268Y-14867210D01*
X46943268Y-14867210D02*
X46870697Y-15012353D01*
X46870697Y-15012353D02*
X46798125Y-15084925D01*
X46798125Y-15084925D02*
X46652982Y-15157496D01*
X46652982Y-15157496D02*
X46217554Y-15157496D01*
X46217554Y-15157496D02*
X46072411Y-15084925D01*
X46072411Y-15084925D02*
X45999840Y-15012353D01*
X45999840Y-15012353D02*
X45927268Y-14867210D01*
X45927268Y-14867210D02*
X45927268Y-14576925D01*
X45927268Y-14576925D02*
X45999840Y-14431782D01*
X46943268Y-16463782D02*
X45927268Y-16463782D01*
X46943268Y-15810639D02*
X46144982Y-15810639D01*
X46144982Y-15810639D02*
X45999840Y-15883210D01*
X45999840Y-15883210D02*
X45927268Y-16028353D01*
X45927268Y-16028353D02*
X45927268Y-16246067D01*
X45927268Y-16246067D02*
X45999840Y-16391210D01*
X45999840Y-16391210D02*
X46072411Y-16463782D01*
X46943268Y-16971781D02*
X46943268Y-17552353D01*
X47451268Y-17189496D02*
X46144982Y-17189496D01*
X46144982Y-17189496D02*
X45999840Y-17262067D01*
X45999840Y-17262067D02*
X45927268Y-17407210D01*
X45927268Y-17407210D02*
X45927268Y-17552353D01*
X46725554Y-19729496D02*
X46652982Y-19947210D01*
X46652982Y-19947210D02*
X46580411Y-20019781D01*
X46580411Y-20019781D02*
X46435268Y-20092353D01*
X46435268Y-20092353D02*
X46217554Y-20092353D01*
X46217554Y-20092353D02*
X46072411Y-20019781D01*
X46072411Y-20019781D02*
X45999840Y-19947210D01*
X45999840Y-19947210D02*
X45927268Y-19802067D01*
X45927268Y-19802067D02*
X45927268Y-19221496D01*
X45927268Y-19221496D02*
X47451268Y-19221496D01*
X47451268Y-19221496D02*
X47451268Y-19729496D01*
X47451268Y-19729496D02*
X47378697Y-19874639D01*
X47378697Y-19874639D02*
X47306125Y-19947210D01*
X47306125Y-19947210D02*
X47160982Y-20019781D01*
X47160982Y-20019781D02*
X47015840Y-20019781D01*
X47015840Y-20019781D02*
X46870697Y-19947210D01*
X46870697Y-19947210D02*
X46798125Y-19874639D01*
X46798125Y-19874639D02*
X46725554Y-19729496D01*
X46725554Y-19729496D02*
X46725554Y-19221496D01*
X45927268Y-20963210D02*
X45999840Y-20818067D01*
X45999840Y-20818067D02*
X46072411Y-20745496D01*
X46072411Y-20745496D02*
X46217554Y-20672924D01*
X46217554Y-20672924D02*
X46652982Y-20672924D01*
X46652982Y-20672924D02*
X46798125Y-20745496D01*
X46798125Y-20745496D02*
X46870697Y-20818067D01*
X46870697Y-20818067D02*
X46943268Y-20963210D01*
X46943268Y-20963210D02*
X46943268Y-21180924D01*
X46943268Y-21180924D02*
X46870697Y-21326067D01*
X46870697Y-21326067D02*
X46798125Y-21398639D01*
X46798125Y-21398639D02*
X46652982Y-21471210D01*
X46652982Y-21471210D02*
X46217554Y-21471210D01*
X46217554Y-21471210D02*
X46072411Y-21398639D01*
X46072411Y-21398639D02*
X45999840Y-21326067D01*
X45999840Y-21326067D02*
X45927268Y-21180924D01*
X45927268Y-21180924D02*
X45927268Y-20963210D01*
X45927268Y-22777496D02*
X46725554Y-22777496D01*
X46725554Y-22777496D02*
X46870697Y-22704924D01*
X46870697Y-22704924D02*
X46943268Y-22559781D01*
X46943268Y-22559781D02*
X46943268Y-22269496D01*
X46943268Y-22269496D02*
X46870697Y-22124353D01*
X45999840Y-22777496D02*
X45927268Y-22632353D01*
X45927268Y-22632353D02*
X45927268Y-22269496D01*
X45927268Y-22269496D02*
X45999840Y-22124353D01*
X45999840Y-22124353D02*
X46144982Y-22051781D01*
X46144982Y-22051781D02*
X46290125Y-22051781D01*
X46290125Y-22051781D02*
X46435268Y-22124353D01*
X46435268Y-22124353D02*
X46507840Y-22269496D01*
X46507840Y-22269496D02*
X46507840Y-22632353D01*
X46507840Y-22632353D02*
X46580411Y-22777496D01*
X45927268Y-23503210D02*
X46943268Y-23503210D01*
X46652982Y-23503210D02*
X46798125Y-23575781D01*
X46798125Y-23575781D02*
X46870697Y-23648353D01*
X46870697Y-23648353D02*
X46943268Y-23793495D01*
X46943268Y-23793495D02*
X46943268Y-23938638D01*
X45927268Y-25099782D02*
X47451268Y-25099782D01*
X45999840Y-25099782D02*
X45927268Y-24954639D01*
X45927268Y-24954639D02*
X45927268Y-24664353D01*
X45927268Y-24664353D02*
X45999840Y-24519210D01*
X45999840Y-24519210D02*
X46072411Y-24446639D01*
X46072411Y-24446639D02*
X46217554Y-24374067D01*
X46217554Y-24374067D02*
X46652982Y-24374067D01*
X46652982Y-24374067D02*
X46798125Y-24446639D01*
X46798125Y-24446639D02*
X46870697Y-24519210D01*
X46870697Y-24519210D02*
X46943268Y-24664353D01*
X46943268Y-24664353D02*
X46943268Y-24954639D01*
X46943268Y-24954639D02*
X46870697Y-25099782D01*
X43473713Y-3763783D02*
X44997713Y-3763783D01*
X44997713Y-3763783D02*
X43909142Y-4271783D01*
X43909142Y-4271783D02*
X44997713Y-4779783D01*
X44997713Y-4779783D02*
X43473713Y-4779783D01*
X44997713Y-5795782D02*
X44997713Y-6086068D01*
X44997713Y-6086068D02*
X44925142Y-6231211D01*
X44925142Y-6231211D02*
X44779999Y-6376354D01*
X44779999Y-6376354D02*
X44489713Y-6448925D01*
X44489713Y-6448925D02*
X43981713Y-6448925D01*
X43981713Y-6448925D02*
X43691427Y-6376354D01*
X43691427Y-6376354D02*
X43546285Y-6231211D01*
X43546285Y-6231211D02*
X43473713Y-6086068D01*
X43473713Y-6086068D02*
X43473713Y-5795782D01*
X43473713Y-5795782D02*
X43546285Y-5650640D01*
X43546285Y-5650640D02*
X43691427Y-5505497D01*
X43691427Y-5505497D02*
X43981713Y-5432925D01*
X43981713Y-5432925D02*
X44489713Y-5432925D01*
X44489713Y-5432925D02*
X44779999Y-5505497D01*
X44779999Y-5505497D02*
X44925142Y-5650640D01*
X44925142Y-5650640D02*
X44997713Y-5795782D01*
X43473713Y-7102068D02*
X44997713Y-7102068D01*
X44997713Y-7102068D02*
X43473713Y-7972925D01*
X43473713Y-7972925D02*
X44997713Y-7972925D01*
X44054285Y-8698639D02*
X44054285Y-9859782D01*
X43473713Y-10585496D02*
X44997713Y-10585496D01*
X44997713Y-10585496D02*
X44997713Y-10948353D01*
X44997713Y-10948353D02*
X44925142Y-11166067D01*
X44925142Y-11166067D02*
X44779999Y-11311210D01*
X44779999Y-11311210D02*
X44634856Y-11383781D01*
X44634856Y-11383781D02*
X44344570Y-11456353D01*
X44344570Y-11456353D02*
X44126856Y-11456353D01*
X44126856Y-11456353D02*
X43836570Y-11383781D01*
X43836570Y-11383781D02*
X43691427Y-11311210D01*
X43691427Y-11311210D02*
X43546285Y-11166067D01*
X43546285Y-11166067D02*
X43473713Y-10948353D01*
X43473713Y-10948353D02*
X43473713Y-10585496D01*
X43473713Y-12109496D02*
X44997713Y-12109496D01*
X44997713Y-12690067D02*
X43473713Y-13706067D01*
X44997713Y-13706067D02*
X43473713Y-12690067D01*
X44054285Y-14286639D02*
X44054285Y-15447782D01*
X44997713Y-16463781D02*
X44997713Y-16608924D01*
X44997713Y-16608924D02*
X44925142Y-16754067D01*
X44925142Y-16754067D02*
X44852570Y-16826639D01*
X44852570Y-16826639D02*
X44707427Y-16899210D01*
X44707427Y-16899210D02*
X44417142Y-16971781D01*
X44417142Y-16971781D02*
X44054285Y-16971781D01*
X44054285Y-16971781D02*
X43763999Y-16899210D01*
X43763999Y-16899210D02*
X43618856Y-16826639D01*
X43618856Y-16826639D02*
X43546285Y-16754067D01*
X43546285Y-16754067D02*
X43473713Y-16608924D01*
X43473713Y-16608924D02*
X43473713Y-16463781D01*
X43473713Y-16463781D02*
X43546285Y-16318639D01*
X43546285Y-16318639D02*
X43618856Y-16246067D01*
X43618856Y-16246067D02*
X43763999Y-16173496D01*
X43763999Y-16173496D02*
X44054285Y-16100924D01*
X44054285Y-16100924D02*
X44417142Y-16100924D01*
X44417142Y-16100924D02*
X44707427Y-16173496D01*
X44707427Y-16173496D02*
X44852570Y-16246067D01*
X44852570Y-16246067D02*
X44925142Y-16318639D01*
X44925142Y-16318639D02*
X44997713Y-16463781D01*
X44344570Y-17842639D02*
X44417142Y-17697496D01*
X44417142Y-17697496D02*
X44489713Y-17624925D01*
X44489713Y-17624925D02*
X44634856Y-17552353D01*
X44634856Y-17552353D02*
X44707427Y-17552353D01*
X44707427Y-17552353D02*
X44852570Y-17624925D01*
X44852570Y-17624925D02*
X44925142Y-17697496D01*
X44925142Y-17697496D02*
X44997713Y-17842639D01*
X44997713Y-17842639D02*
X44997713Y-18132925D01*
X44997713Y-18132925D02*
X44925142Y-18278068D01*
X44925142Y-18278068D02*
X44852570Y-18350639D01*
X44852570Y-18350639D02*
X44707427Y-18423210D01*
X44707427Y-18423210D02*
X44634856Y-18423210D01*
X44634856Y-18423210D02*
X44489713Y-18350639D01*
X44489713Y-18350639D02*
X44417142Y-18278068D01*
X44417142Y-18278068D02*
X44344570Y-18132925D01*
X44344570Y-18132925D02*
X44344570Y-17842639D01*
X44344570Y-17842639D02*
X44271999Y-17697496D01*
X44271999Y-17697496D02*
X44199427Y-17624925D01*
X44199427Y-17624925D02*
X44054285Y-17552353D01*
X44054285Y-17552353D02*
X43763999Y-17552353D01*
X43763999Y-17552353D02*
X43618856Y-17624925D01*
X43618856Y-17624925D02*
X43546285Y-17697496D01*
X43546285Y-17697496D02*
X43473713Y-17842639D01*
X43473713Y-17842639D02*
X43473713Y-18132925D01*
X43473713Y-18132925D02*
X43546285Y-18278068D01*
X43546285Y-18278068D02*
X43618856Y-18350639D01*
X43618856Y-18350639D02*
X43763999Y-18423210D01*
X43763999Y-18423210D02*
X44054285Y-18423210D01*
X44054285Y-18423210D02*
X44199427Y-18350639D01*
X44199427Y-18350639D02*
X44271999Y-18278068D01*
X44271999Y-18278068D02*
X44344570Y-18132925D01*
X42544158Y-3618640D02*
X42544158Y-4562068D01*
X42544158Y-4562068D02*
X41963587Y-4054068D01*
X41963587Y-4054068D02*
X41963587Y-4271783D01*
X41963587Y-4271783D02*
X41891015Y-4416926D01*
X41891015Y-4416926D02*
X41818444Y-4489497D01*
X41818444Y-4489497D02*
X41673301Y-4562068D01*
X41673301Y-4562068D02*
X41310444Y-4562068D01*
X41310444Y-4562068D02*
X41165301Y-4489497D01*
X41165301Y-4489497D02*
X41092730Y-4416926D01*
X41092730Y-4416926D02*
X41020158Y-4271783D01*
X41020158Y-4271783D02*
X41020158Y-3836354D01*
X41020158Y-3836354D02*
X41092730Y-3691211D01*
X41092730Y-3691211D02*
X41165301Y-3618640D01*
X42471587Y-6013497D02*
X42544158Y-5868355D01*
X42544158Y-5868355D02*
X42544158Y-5650640D01*
X42544158Y-5650640D02*
X42471587Y-5432926D01*
X42471587Y-5432926D02*
X42326444Y-5287783D01*
X42326444Y-5287783D02*
X42181301Y-5215212D01*
X42181301Y-5215212D02*
X41891015Y-5142640D01*
X41891015Y-5142640D02*
X41673301Y-5142640D01*
X41673301Y-5142640D02*
X41383015Y-5215212D01*
X41383015Y-5215212D02*
X41237872Y-5287783D01*
X41237872Y-5287783D02*
X41092730Y-5432926D01*
X41092730Y-5432926D02*
X41020158Y-5650640D01*
X41020158Y-5650640D02*
X41020158Y-5795783D01*
X41020158Y-5795783D02*
X41092730Y-6013497D01*
X41092730Y-6013497D02*
X41165301Y-6086069D01*
X41165301Y-6086069D02*
X41673301Y-6086069D01*
X41673301Y-6086069D02*
X41673301Y-5795783D01*
X41020158Y-6739212D02*
X42544158Y-6739212D01*
X42544158Y-6739212D02*
X42544158Y-7102069D01*
X42544158Y-7102069D02*
X42471587Y-7319783D01*
X42471587Y-7319783D02*
X42326444Y-7464926D01*
X42326444Y-7464926D02*
X42181301Y-7537497D01*
X42181301Y-7537497D02*
X41891015Y-7610069D01*
X41891015Y-7610069D02*
X41673301Y-7610069D01*
X41673301Y-7610069D02*
X41383015Y-7537497D01*
X41383015Y-7537497D02*
X41237872Y-7464926D01*
X41237872Y-7464926D02*
X41092730Y-7319783D01*
X41092730Y-7319783D02*
X41020158Y-7102069D01*
X41020158Y-7102069D02*
X41020158Y-6739212D01*
X41020158Y-9134069D02*
X41745872Y-8626069D01*
X41020158Y-8263212D02*
X42544158Y-8263212D01*
X42544158Y-8263212D02*
X42544158Y-8843783D01*
X42544158Y-8843783D02*
X42471587Y-8988926D01*
X42471587Y-8988926D02*
X42399015Y-9061497D01*
X42399015Y-9061497D02*
X42253872Y-9134069D01*
X42253872Y-9134069D02*
X42036158Y-9134069D01*
X42036158Y-9134069D02*
X41891015Y-9061497D01*
X41891015Y-9061497D02*
X41818444Y-8988926D01*
X41818444Y-8988926D02*
X41745872Y-8843783D01*
X41745872Y-8843783D02*
X41745872Y-8263212D01*
X41600730Y-9787212D02*
X41600730Y-10948355D01*
X41818444Y-12182069D02*
X41818444Y-11674069D01*
X41020158Y-11674069D02*
X42544158Y-11674069D01*
X42544158Y-11674069D02*
X42544158Y-12399783D01*
X41020158Y-12980355D02*
X42544158Y-12980355D01*
X42544158Y-12980355D02*
X41455587Y-13488355D01*
X41455587Y-13488355D02*
X42544158Y-13996355D01*
X42544158Y-13996355D02*
X41020158Y-13996355D01*
D10*
X11268114Y-61045368D02*
X11268114Y-61347749D01*
X10965733Y-61226796D02*
X11268114Y-61347749D01*
X11268114Y-61347749D02*
X11570495Y-61226796D01*
X11086685Y-61589653D02*
X11268114Y-61347749D01*
X11268114Y-61347749D02*
X11449543Y-61589653D01*
D12*
X20223248Y-90134828D02*
X20261952Y-90018714D01*
X20261952Y-90018714D02*
X20261952Y-89825190D01*
X20261952Y-89825190D02*
X20223248Y-89747781D01*
X20223248Y-89747781D02*
X20184543Y-89709076D01*
X20184543Y-89709076D02*
X20107133Y-89670371D01*
X20107133Y-89670371D02*
X20029724Y-89670371D01*
X20029724Y-89670371D02*
X19952314Y-89709076D01*
X19952314Y-89709076D02*
X19913609Y-89747781D01*
X19913609Y-89747781D02*
X19874905Y-89825190D01*
X19874905Y-89825190D02*
X19836200Y-89980009D01*
X19836200Y-89980009D02*
X19797495Y-90057419D01*
X19797495Y-90057419D02*
X19758790Y-90096124D01*
X19758790Y-90096124D02*
X19681381Y-90134828D01*
X19681381Y-90134828D02*
X19603971Y-90134828D01*
X19603971Y-90134828D02*
X19526562Y-90096124D01*
X19526562Y-90096124D02*
X19487857Y-90057419D01*
X19487857Y-90057419D02*
X19449152Y-89980009D01*
X19449152Y-89980009D02*
X19449152Y-89786486D01*
X19449152Y-89786486D02*
X19487857Y-89670371D01*
X20184543Y-88857572D02*
X20223248Y-88896276D01*
X20223248Y-88896276D02*
X20261952Y-89012391D01*
X20261952Y-89012391D02*
X20261952Y-89089800D01*
X20261952Y-89089800D02*
X20223248Y-89205914D01*
X20223248Y-89205914D02*
X20145838Y-89283324D01*
X20145838Y-89283324D02*
X20068428Y-89322029D01*
X20068428Y-89322029D02*
X19913609Y-89360733D01*
X19913609Y-89360733D02*
X19797495Y-89360733D01*
X19797495Y-89360733D02*
X19642676Y-89322029D01*
X19642676Y-89322029D02*
X19565267Y-89283324D01*
X19565267Y-89283324D02*
X19487857Y-89205914D01*
X19487857Y-89205914D02*
X19449152Y-89089800D01*
X19449152Y-89089800D02*
X19449152Y-89012391D01*
X19449152Y-89012391D02*
X19487857Y-88896276D01*
X19487857Y-88896276D02*
X19526562Y-88857572D01*
X20261952Y-88122181D02*
X20261952Y-88509229D01*
X20261952Y-88509229D02*
X19449152Y-88509229D01*
X22840372Y-90134828D02*
X22879076Y-90018714D01*
X22879076Y-90018714D02*
X22879076Y-89825190D01*
X22879076Y-89825190D02*
X22840372Y-89747781D01*
X22840372Y-89747781D02*
X22801667Y-89709076D01*
X22801667Y-89709076D02*
X22724257Y-89670371D01*
X22724257Y-89670371D02*
X22646848Y-89670371D01*
X22646848Y-89670371D02*
X22569438Y-89709076D01*
X22569438Y-89709076D02*
X22530733Y-89747781D01*
X22530733Y-89747781D02*
X22492029Y-89825190D01*
X22492029Y-89825190D02*
X22453324Y-89980009D01*
X22453324Y-89980009D02*
X22414619Y-90057419D01*
X22414619Y-90057419D02*
X22375914Y-90096124D01*
X22375914Y-90096124D02*
X22298505Y-90134828D01*
X22298505Y-90134828D02*
X22221095Y-90134828D01*
X22221095Y-90134828D02*
X22143686Y-90096124D01*
X22143686Y-90096124D02*
X22104981Y-90057419D01*
X22104981Y-90057419D02*
X22066276Y-89980009D01*
X22066276Y-89980009D02*
X22066276Y-89786486D01*
X22066276Y-89786486D02*
X22104981Y-89670371D01*
X22879076Y-89322029D02*
X22066276Y-89322029D01*
X22066276Y-89322029D02*
X22066276Y-89128505D01*
X22066276Y-89128505D02*
X22104981Y-89012391D01*
X22104981Y-89012391D02*
X22182391Y-88934981D01*
X22182391Y-88934981D02*
X22259800Y-88896276D01*
X22259800Y-88896276D02*
X22414619Y-88857572D01*
X22414619Y-88857572D02*
X22530733Y-88857572D01*
X22530733Y-88857572D02*
X22685552Y-88896276D01*
X22685552Y-88896276D02*
X22762962Y-88934981D01*
X22762962Y-88934981D02*
X22840372Y-89012391D01*
X22840372Y-89012391D02*
X22879076Y-89128505D01*
X22879076Y-89128505D02*
X22879076Y-89322029D01*
X22646848Y-88547933D02*
X22646848Y-88160886D01*
X22879076Y-88625343D02*
X22066276Y-88354410D01*
X22066276Y-88354410D02*
X22879076Y-88083476D01*
X24683400Y-90173533D02*
X24683400Y-89670371D01*
X24683400Y-89670371D02*
X24993038Y-89941305D01*
X24993038Y-89941305D02*
X24993038Y-89825190D01*
X24993038Y-89825190D02*
X25031743Y-89747781D01*
X25031743Y-89747781D02*
X25070448Y-89709076D01*
X25070448Y-89709076D02*
X25147857Y-89670371D01*
X25147857Y-89670371D02*
X25341381Y-89670371D01*
X25341381Y-89670371D02*
X25418791Y-89709076D01*
X25418791Y-89709076D02*
X25457496Y-89747781D01*
X25457496Y-89747781D02*
X25496200Y-89825190D01*
X25496200Y-89825190D02*
X25496200Y-90057419D01*
X25496200Y-90057419D02*
X25457496Y-90134828D01*
X25457496Y-90134828D02*
X25418791Y-90173533D01*
X24683400Y-89438143D02*
X25496200Y-89167210D01*
X25496200Y-89167210D02*
X24683400Y-88896276D01*
X24683400Y-88702752D02*
X24683400Y-88199590D01*
X24683400Y-88199590D02*
X24993038Y-88470524D01*
X24993038Y-88470524D02*
X24993038Y-88354409D01*
X24993038Y-88354409D02*
X25031743Y-88277000D01*
X25031743Y-88277000D02*
X25070448Y-88238295D01*
X25070448Y-88238295D02*
X25147857Y-88199590D01*
X25147857Y-88199590D02*
X25341381Y-88199590D01*
X25341381Y-88199590D02*
X25418791Y-88238295D01*
X25418791Y-88238295D02*
X25457496Y-88277000D01*
X25457496Y-88277000D02*
X25496200Y-88354409D01*
X25496200Y-88354409D02*
X25496200Y-88586638D01*
X25496200Y-88586638D02*
X25457496Y-88664047D01*
X25457496Y-88664047D02*
X25418791Y-88702752D01*
X27339229Y-89670371D02*
X27300524Y-89747781D01*
X27300524Y-89747781D02*
X27300524Y-89863895D01*
X27300524Y-89863895D02*
X27339229Y-89980009D01*
X27339229Y-89980009D02*
X27416639Y-90057419D01*
X27416639Y-90057419D02*
X27494048Y-90096124D01*
X27494048Y-90096124D02*
X27648867Y-90134828D01*
X27648867Y-90134828D02*
X27764981Y-90134828D01*
X27764981Y-90134828D02*
X27919800Y-90096124D01*
X27919800Y-90096124D02*
X27997210Y-90057419D01*
X27997210Y-90057419D02*
X28074620Y-89980009D01*
X28074620Y-89980009D02*
X28113324Y-89863895D01*
X28113324Y-89863895D02*
X28113324Y-89786486D01*
X28113324Y-89786486D02*
X28074620Y-89670371D01*
X28074620Y-89670371D02*
X28035915Y-89631667D01*
X28035915Y-89631667D02*
X27764981Y-89631667D01*
X27764981Y-89631667D02*
X27764981Y-89786486D01*
X28113324Y-89283324D02*
X27300524Y-89283324D01*
X27300524Y-89283324D02*
X28113324Y-88818867D01*
X28113324Y-88818867D02*
X27300524Y-88818867D01*
X28113324Y-88431819D02*
X27300524Y-88431819D01*
X27300524Y-88431819D02*
X27300524Y-88238295D01*
X27300524Y-88238295D02*
X27339229Y-88122181D01*
X27339229Y-88122181D02*
X27416639Y-88044771D01*
X27416639Y-88044771D02*
X27494048Y-88006066D01*
X27494048Y-88006066D02*
X27648867Y-87967362D01*
X27648867Y-87967362D02*
X27764981Y-87967362D01*
X27764981Y-87967362D02*
X27919800Y-88006066D01*
X27919800Y-88006066D02*
X27997210Y-88044771D01*
X27997210Y-88044771D02*
X28074620Y-88122181D01*
X28074620Y-88122181D02*
X28113324Y-88238295D01*
X28113324Y-88238295D02*
X28113324Y-88431819D01*
D10*
X11268114Y-43519368D02*
X11268114Y-43821749D01*
X10965733Y-43700796D02*
X11268114Y-43821749D01*
X11268114Y-43821749D02*
X11570495Y-43700796D01*
X11086685Y-44063653D02*
X11268114Y-43821749D01*
X11268114Y-43821749D02*
X11449543Y-44063653D01*
X11242714Y-15503168D02*
X11242714Y-15805549D01*
X10940333Y-15684596D02*
X11242714Y-15805549D01*
X11242714Y-15805549D02*
X11545095Y-15684596D01*
X11061285Y-16047453D02*
X11242714Y-15805549D01*
X11242714Y-15805549D02*
X11424143Y-16047453D01*
D13*
X43387434Y-34300279D02*
X43472100Y-34300279D01*
X43472100Y-34300279D02*
X43556767Y-34342612D01*
X43556767Y-34342612D02*
X43599100Y-34384946D01*
X43599100Y-34384946D02*
X43641434Y-34469612D01*
X43641434Y-34469612D02*
X43683767Y-34638946D01*
X43683767Y-34638946D02*
X43683767Y-34850612D01*
X43683767Y-34850612D02*
X43641434Y-35019946D01*
X43641434Y-35019946D02*
X43599100Y-35104612D01*
X43599100Y-35104612D02*
X43556767Y-35146946D01*
X43556767Y-35146946D02*
X43472100Y-35189279D01*
X43472100Y-35189279D02*
X43387434Y-35189279D01*
X43387434Y-35189279D02*
X43302767Y-35146946D01*
X43302767Y-35146946D02*
X43260434Y-35104612D01*
X43260434Y-35104612D02*
X43218100Y-35019946D01*
X43218100Y-35019946D02*
X43175767Y-34850612D01*
X43175767Y-34850612D02*
X43175767Y-34638946D01*
X43175767Y-34638946D02*
X43218100Y-34469612D01*
X43218100Y-34469612D02*
X43260434Y-34384946D01*
X43260434Y-34384946D02*
X43302767Y-34342612D01*
X43302767Y-34342612D02*
X43387434Y-34300279D01*
X45250100Y-35104612D02*
X45207767Y-35146946D01*
X45207767Y-35146946D02*
X45080767Y-35189279D01*
X45080767Y-35189279D02*
X44996100Y-35189279D01*
X44996100Y-35189279D02*
X44869100Y-35146946D01*
X44869100Y-35146946D02*
X44784434Y-35062279D01*
X44784434Y-35062279D02*
X44742100Y-34977612D01*
X44742100Y-34977612D02*
X44699767Y-34808279D01*
X44699767Y-34808279D02*
X44699767Y-34681279D01*
X44699767Y-34681279D02*
X44742100Y-34511946D01*
X44742100Y-34511946D02*
X44784434Y-34427279D01*
X44784434Y-34427279D02*
X44869100Y-34342612D01*
X44869100Y-34342612D02*
X44996100Y-34300279D01*
X44996100Y-34300279D02*
X45080767Y-34300279D01*
X45080767Y-34300279D02*
X45207767Y-34342612D01*
X45207767Y-34342612D02*
X45250100Y-34384946D01*
X45800434Y-34300279D02*
X45969767Y-34300279D01*
X45969767Y-34300279D02*
X46054434Y-34342612D01*
X46054434Y-34342612D02*
X46139100Y-34427279D01*
X46139100Y-34427279D02*
X46181434Y-34596612D01*
X46181434Y-34596612D02*
X46181434Y-34892946D01*
X46181434Y-34892946D02*
X46139100Y-35062279D01*
X46139100Y-35062279D02*
X46054434Y-35146946D01*
X46054434Y-35146946D02*
X45969767Y-35189279D01*
X45969767Y-35189279D02*
X45800434Y-35189279D01*
X45800434Y-35189279D02*
X45715767Y-35146946D01*
X45715767Y-35146946D02*
X45631100Y-35062279D01*
X45631100Y-35062279D02*
X45588767Y-34892946D01*
X45588767Y-34892946D02*
X45588767Y-34596612D01*
X45588767Y-34596612D02*
X45631100Y-34427279D01*
X45631100Y-34427279D02*
X45715767Y-34342612D01*
X45715767Y-34342612D02*
X45800434Y-34300279D01*
X46562433Y-35189279D02*
X46562433Y-34300279D01*
X46562433Y-34300279D02*
X46858767Y-34935279D01*
X46858767Y-34935279D02*
X47155100Y-34300279D01*
X47155100Y-34300279D02*
X47155100Y-35189279D01*
X48721433Y-35189279D02*
X48213433Y-35189279D01*
X48467433Y-35189279D02*
X48467433Y-34300279D01*
X48467433Y-34300279D02*
X48382766Y-34427279D01*
X48382766Y-34427279D02*
X48298100Y-34511946D01*
X48298100Y-34511946D02*
X48213433Y-34554279D01*
D10*
X11268114Y-34222968D02*
X11268114Y-34525349D01*
X10965733Y-34404396D02*
X11268114Y-34525349D01*
X11268114Y-34525349D02*
X11570495Y-34404396D01*
X11086685Y-34767253D02*
X11268114Y-34525349D01*
X11268114Y-34525349D02*
X11449543Y-34767253D01*
D16*
X13174742Y-42542619D02*
X12841409Y-42066428D01*
X12603314Y-42542619D02*
X12603314Y-41542619D01*
X12603314Y-41542619D02*
X12984266Y-41542619D01*
X12984266Y-41542619D02*
X13079504Y-41590238D01*
X13079504Y-41590238D02*
X13127123Y-41637857D01*
X13127123Y-41637857D02*
X13174742Y-41733095D01*
X13174742Y-41733095D02*
X13174742Y-41875952D01*
X13174742Y-41875952D02*
X13127123Y-41971190D01*
X13127123Y-41971190D02*
X13079504Y-42018809D01*
X13079504Y-42018809D02*
X12984266Y-42066428D01*
X12984266Y-42066428D02*
X12603314Y-42066428D01*
X14127123Y-42542619D02*
X13555695Y-42542619D01*
X13841409Y-42542619D02*
X13841409Y-41542619D01*
X13841409Y-41542619D02*
X13746171Y-41685476D01*
X13746171Y-41685476D02*
X13650933Y-41780714D01*
X13650933Y-41780714D02*
X13555695Y-41828333D01*
X14508076Y-41637857D02*
X14555695Y-41590238D01*
X14555695Y-41590238D02*
X14650933Y-41542619D01*
X14650933Y-41542619D02*
X14889028Y-41542619D01*
X14889028Y-41542619D02*
X14984266Y-41590238D01*
X14984266Y-41590238D02*
X15031885Y-41637857D01*
X15031885Y-41637857D02*
X15079504Y-41733095D01*
X15079504Y-41733095D02*
X15079504Y-41828333D01*
X15079504Y-41828333D02*
X15031885Y-41971190D01*
X15031885Y-41971190D02*
X14460457Y-42542619D01*
X14460457Y-42542619D02*
X15079504Y-42542619D01*
X19228605Y-32828649D02*
X19228605Y-31828649D01*
X19228605Y-31828649D02*
X19466700Y-31828649D01*
X19466700Y-31828649D02*
X19609557Y-31876268D01*
X19609557Y-31876268D02*
X19704795Y-31971506D01*
X19704795Y-31971506D02*
X19752414Y-32066744D01*
X19752414Y-32066744D02*
X19800033Y-32257220D01*
X19800033Y-32257220D02*
X19800033Y-32400077D01*
X19800033Y-32400077D02*
X19752414Y-32590553D01*
X19752414Y-32590553D02*
X19704795Y-32685791D01*
X19704795Y-32685791D02*
X19609557Y-32781030D01*
X19609557Y-32781030D02*
X19466700Y-32828649D01*
X19466700Y-32828649D02*
X19228605Y-32828649D01*
X20133367Y-31828649D02*
X20752414Y-31828649D01*
X20752414Y-31828649D02*
X20419081Y-32209601D01*
X20419081Y-32209601D02*
X20561938Y-32209601D01*
X20561938Y-32209601D02*
X20657176Y-32257220D01*
X20657176Y-32257220D02*
X20704795Y-32304839D01*
X20704795Y-32304839D02*
X20752414Y-32400077D01*
X20752414Y-32400077D02*
X20752414Y-32638172D01*
X20752414Y-32638172D02*
X20704795Y-32733410D01*
X20704795Y-32733410D02*
X20657176Y-32781030D01*
X20657176Y-32781030D02*
X20561938Y-32828649D01*
X20561938Y-32828649D02*
X20276224Y-32828649D01*
X20276224Y-32828649D02*
X20180986Y-32781030D01*
X20180986Y-32781030D02*
X20133367Y-32733410D01*
X24168833Y-74567080D02*
X24121214Y-74614700D01*
X24121214Y-74614700D02*
X23978357Y-74662319D01*
X23978357Y-74662319D02*
X23883119Y-74662319D01*
X23883119Y-74662319D02*
X23740262Y-74614700D01*
X23740262Y-74614700D02*
X23645024Y-74519461D01*
X23645024Y-74519461D02*
X23597405Y-74424223D01*
X23597405Y-74424223D02*
X23549786Y-74233747D01*
X23549786Y-74233747D02*
X23549786Y-74090890D01*
X23549786Y-74090890D02*
X23597405Y-73900414D01*
X23597405Y-73900414D02*
X23645024Y-73805176D01*
X23645024Y-73805176D02*
X23740262Y-73709938D01*
X23740262Y-73709938D02*
X23883119Y-73662319D01*
X23883119Y-73662319D02*
X23978357Y-73662319D01*
X23978357Y-73662319D02*
X24121214Y-73709938D01*
X24121214Y-73709938D02*
X24168833Y-73757557D01*
X24645024Y-74662319D02*
X24835500Y-74662319D01*
X24835500Y-74662319D02*
X24930738Y-74614700D01*
X24930738Y-74614700D02*
X24978357Y-74567080D01*
X24978357Y-74567080D02*
X25073595Y-74424223D01*
X25073595Y-74424223D02*
X25121214Y-74233747D01*
X25121214Y-74233747D02*
X25121214Y-73852795D01*
X25121214Y-73852795D02*
X25073595Y-73757557D01*
X25073595Y-73757557D02*
X25025976Y-73709938D01*
X25025976Y-73709938D02*
X24930738Y-73662319D01*
X24930738Y-73662319D02*
X24740262Y-73662319D01*
X24740262Y-73662319D02*
X24645024Y-73709938D01*
X24645024Y-73709938D02*
X24597405Y-73757557D01*
X24597405Y-73757557D02*
X24549786Y-73852795D01*
X24549786Y-73852795D02*
X24549786Y-74090890D01*
X24549786Y-74090890D02*
X24597405Y-74186128D01*
X24597405Y-74186128D02*
X24645024Y-74233747D01*
X24645024Y-74233747D02*
X24740262Y-74281366D01*
X24740262Y-74281366D02*
X24930738Y-74281366D01*
X24930738Y-74281366D02*
X25025976Y-74233747D01*
X25025976Y-74233747D02*
X25073595Y-74186128D01*
X25073595Y-74186128D02*
X25121214Y-74090890D01*
D12*
X23366066Y-72021365D02*
X22858066Y-72021365D01*
X23112066Y-72021365D02*
X23112066Y-71132365D01*
X23112066Y-71132365D02*
X23027399Y-71259365D01*
X23027399Y-71259365D02*
X22942733Y-71344032D01*
X22942733Y-71344032D02*
X22858066Y-71386365D01*
X23916400Y-71132365D02*
X24001066Y-71132365D01*
X24001066Y-71132365D02*
X24085733Y-71174698D01*
X24085733Y-71174698D02*
X24128066Y-71217032D01*
X24128066Y-71217032D02*
X24170400Y-71301698D01*
X24170400Y-71301698D02*
X24212733Y-71471032D01*
X24212733Y-71471032D02*
X24212733Y-71682698D01*
X24212733Y-71682698D02*
X24170400Y-71852032D01*
X24170400Y-71852032D02*
X24128066Y-71936698D01*
X24128066Y-71936698D02*
X24085733Y-71979032D01*
X24085733Y-71979032D02*
X24001066Y-72021365D01*
X24001066Y-72021365D02*
X23916400Y-72021365D01*
X23916400Y-72021365D02*
X23831733Y-71979032D01*
X23831733Y-71979032D02*
X23789400Y-71936698D01*
X23789400Y-71936698D02*
X23747066Y-71852032D01*
X23747066Y-71852032D02*
X23704733Y-71682698D01*
X23704733Y-71682698D02*
X23704733Y-71471032D01*
X23704733Y-71471032D02*
X23747066Y-71301698D01*
X23747066Y-71301698D02*
X23789400Y-71217032D01*
X23789400Y-71217032D02*
X23831733Y-71174698D01*
X23831733Y-71174698D02*
X23916400Y-71132365D01*
X24763067Y-71132365D02*
X24847733Y-71132365D01*
X24847733Y-71132365D02*
X24932400Y-71174698D01*
X24932400Y-71174698D02*
X24974733Y-71217032D01*
X24974733Y-71217032D02*
X25017067Y-71301698D01*
X25017067Y-71301698D02*
X25059400Y-71471032D01*
X25059400Y-71471032D02*
X25059400Y-71682698D01*
X25059400Y-71682698D02*
X25017067Y-71852032D01*
X25017067Y-71852032D02*
X24974733Y-71936698D01*
X24974733Y-71936698D02*
X24932400Y-71979032D01*
X24932400Y-71979032D02*
X24847733Y-72021365D01*
X24847733Y-72021365D02*
X24763067Y-72021365D01*
X24763067Y-72021365D02*
X24678400Y-71979032D01*
X24678400Y-71979032D02*
X24636067Y-71936698D01*
X24636067Y-71936698D02*
X24593733Y-71852032D01*
X24593733Y-71852032D02*
X24551400Y-71682698D01*
X24551400Y-71682698D02*
X24551400Y-71471032D01*
X24551400Y-71471032D02*
X24593733Y-71301698D01*
X24593733Y-71301698D02*
X24636067Y-71217032D01*
X24636067Y-71217032D02*
X24678400Y-71174698D01*
X24678400Y-71174698D02*
X24763067Y-71132365D01*
X25440400Y-71428698D02*
X25440400Y-72021365D01*
X25440400Y-71513365D02*
X25482734Y-71471032D01*
X25482734Y-71471032D02*
X25567400Y-71428698D01*
X25567400Y-71428698D02*
X25694400Y-71428698D01*
X25694400Y-71428698D02*
X25779067Y-71471032D01*
X25779067Y-71471032D02*
X25821400Y-71555698D01*
X25821400Y-71555698D02*
X25821400Y-72021365D01*
X28579233Y-74344065D02*
X28579233Y-73455065D01*
X28579233Y-73455065D02*
X28917900Y-73455065D01*
X28917900Y-73455065D02*
X29002567Y-73497398D01*
X29002567Y-73497398D02*
X29044900Y-73539732D01*
X29044900Y-73539732D02*
X29087233Y-73624398D01*
X29087233Y-73624398D02*
X29087233Y-73751398D01*
X29087233Y-73751398D02*
X29044900Y-73836065D01*
X29044900Y-73836065D02*
X29002567Y-73878398D01*
X29002567Y-73878398D02*
X28917900Y-73920732D01*
X28917900Y-73920732D02*
X28579233Y-73920732D01*
X29383567Y-73455065D02*
X29976233Y-73455065D01*
X29976233Y-73455065D02*
X29595233Y-74344065D01*
D16*
X24477742Y-82045980D02*
X24430123Y-82093600D01*
X24430123Y-82093600D02*
X24287266Y-82141219D01*
X24287266Y-82141219D02*
X24192028Y-82141219D01*
X24192028Y-82141219D02*
X24049171Y-82093600D01*
X24049171Y-82093600D02*
X23953933Y-81998361D01*
X23953933Y-81998361D02*
X23906314Y-81903123D01*
X23906314Y-81903123D02*
X23858695Y-81712647D01*
X23858695Y-81712647D02*
X23858695Y-81569790D01*
X23858695Y-81569790D02*
X23906314Y-81379314D01*
X23906314Y-81379314D02*
X23953933Y-81284076D01*
X23953933Y-81284076D02*
X24049171Y-81188838D01*
X24049171Y-81188838D02*
X24192028Y-81141219D01*
X24192028Y-81141219D02*
X24287266Y-81141219D01*
X24287266Y-81141219D02*
X24430123Y-81188838D01*
X24430123Y-81188838D02*
X24477742Y-81236457D01*
X25430123Y-82141219D02*
X24858695Y-82141219D01*
X25144409Y-82141219D02*
X25144409Y-81141219D01*
X25144409Y-81141219D02*
X25049171Y-81284076D01*
X25049171Y-81284076D02*
X24953933Y-81379314D01*
X24953933Y-81379314D02*
X24858695Y-81426933D01*
X26049171Y-81141219D02*
X26144409Y-81141219D01*
X26144409Y-81141219D02*
X26239647Y-81188838D01*
X26239647Y-81188838D02*
X26287266Y-81236457D01*
X26287266Y-81236457D02*
X26334885Y-81331695D01*
X26334885Y-81331695D02*
X26382504Y-81522171D01*
X26382504Y-81522171D02*
X26382504Y-81760266D01*
X26382504Y-81760266D02*
X26334885Y-81950742D01*
X26334885Y-81950742D02*
X26287266Y-82045980D01*
X26287266Y-82045980D02*
X26239647Y-82093600D01*
X26239647Y-82093600D02*
X26144409Y-82141219D01*
X26144409Y-82141219D02*
X26049171Y-82141219D01*
X26049171Y-82141219D02*
X25953933Y-82093600D01*
X25953933Y-82093600D02*
X25906314Y-82045980D01*
X25906314Y-82045980D02*
X25858695Y-81950742D01*
X25858695Y-81950742D02*
X25811076Y-81760266D01*
X25811076Y-81760266D02*
X25811076Y-81522171D01*
X25811076Y-81522171D02*
X25858695Y-81331695D01*
X25858695Y-81331695D02*
X25906314Y-81236457D01*
X25906314Y-81236457D02*
X25953933Y-81188838D01*
X25953933Y-81188838D02*
X26049171Y-81141219D01*
D12*
X26437166Y-84326265D02*
X25929166Y-84326265D01*
X26183166Y-84326265D02*
X26183166Y-83437265D01*
X26183166Y-83437265D02*
X26098499Y-83564265D01*
X26098499Y-83564265D02*
X26013833Y-83648932D01*
X26013833Y-83648932D02*
X25929166Y-83691265D01*
X26987500Y-83437265D02*
X27072166Y-83437265D01*
X27072166Y-83437265D02*
X27156833Y-83479598D01*
X27156833Y-83479598D02*
X27199166Y-83521932D01*
X27199166Y-83521932D02*
X27241500Y-83606598D01*
X27241500Y-83606598D02*
X27283833Y-83775932D01*
X27283833Y-83775932D02*
X27283833Y-83987598D01*
X27283833Y-83987598D02*
X27241500Y-84156932D01*
X27241500Y-84156932D02*
X27199166Y-84241598D01*
X27199166Y-84241598D02*
X27156833Y-84283932D01*
X27156833Y-84283932D02*
X27072166Y-84326265D01*
X27072166Y-84326265D02*
X26987500Y-84326265D01*
X26987500Y-84326265D02*
X26902833Y-84283932D01*
X26902833Y-84283932D02*
X26860500Y-84241598D01*
X26860500Y-84241598D02*
X26818166Y-84156932D01*
X26818166Y-84156932D02*
X26775833Y-83987598D01*
X26775833Y-83987598D02*
X26775833Y-83775932D01*
X26775833Y-83775932D02*
X26818166Y-83606598D01*
X26818166Y-83606598D02*
X26860500Y-83521932D01*
X26860500Y-83521932D02*
X26902833Y-83479598D01*
X26902833Y-83479598D02*
X26987500Y-83437265D01*
X27834167Y-83437265D02*
X27918833Y-83437265D01*
X27918833Y-83437265D02*
X28003500Y-83479598D01*
X28003500Y-83479598D02*
X28045833Y-83521932D01*
X28045833Y-83521932D02*
X28088167Y-83606598D01*
X28088167Y-83606598D02*
X28130500Y-83775932D01*
X28130500Y-83775932D02*
X28130500Y-83987598D01*
X28130500Y-83987598D02*
X28088167Y-84156932D01*
X28088167Y-84156932D02*
X28045833Y-84241598D01*
X28045833Y-84241598D02*
X28003500Y-84283932D01*
X28003500Y-84283932D02*
X27918833Y-84326265D01*
X27918833Y-84326265D02*
X27834167Y-84326265D01*
X27834167Y-84326265D02*
X27749500Y-84283932D01*
X27749500Y-84283932D02*
X27707167Y-84241598D01*
X27707167Y-84241598D02*
X27664833Y-84156932D01*
X27664833Y-84156932D02*
X27622500Y-83987598D01*
X27622500Y-83987598D02*
X27622500Y-83775932D01*
X27622500Y-83775932D02*
X27664833Y-83606598D01*
X27664833Y-83606598D02*
X27707167Y-83521932D01*
X27707167Y-83521932D02*
X27749500Y-83479598D01*
X27749500Y-83479598D02*
X27834167Y-83437265D01*
X28511500Y-83733598D02*
X28511500Y-84326265D01*
X28511500Y-83818265D02*
X28553834Y-83775932D01*
X28553834Y-83775932D02*
X28638500Y-83733598D01*
X28638500Y-83733598D02*
X28765500Y-83733598D01*
X28765500Y-83733598D02*
X28850167Y-83775932D01*
X28850167Y-83775932D02*
X28892500Y-83860598D01*
X28892500Y-83860598D02*
X28892500Y-84326265D01*
X50393600Y-38022065D02*
X50816933Y-38022065D01*
X50308933Y-38276065D02*
X50605267Y-37387065D01*
X50605267Y-37387065D02*
X50901600Y-38276065D01*
X51367267Y-37387065D02*
X51451933Y-37387065D01*
X51451933Y-37387065D02*
X51536600Y-37429398D01*
X51536600Y-37429398D02*
X51578933Y-37471732D01*
X51578933Y-37471732D02*
X51621267Y-37556398D01*
X51621267Y-37556398D02*
X51663600Y-37725732D01*
X51663600Y-37725732D02*
X51663600Y-37937398D01*
X51663600Y-37937398D02*
X51621267Y-38106732D01*
X51621267Y-38106732D02*
X51578933Y-38191398D01*
X51578933Y-38191398D02*
X51536600Y-38233732D01*
X51536600Y-38233732D02*
X51451933Y-38276065D01*
X51451933Y-38276065D02*
X51367267Y-38276065D01*
X51367267Y-38276065D02*
X51282600Y-38233732D01*
X51282600Y-38233732D02*
X51240267Y-38191398D01*
X51240267Y-38191398D02*
X51197933Y-38106732D01*
X51197933Y-38106732D02*
X51155600Y-37937398D01*
X51155600Y-37937398D02*
X51155600Y-37725732D01*
X51155600Y-37725732D02*
X51197933Y-37556398D01*
X51197933Y-37556398D02*
X51240267Y-37471732D01*
X51240267Y-37471732D02*
X51282600Y-37429398D01*
X51282600Y-37429398D02*
X51367267Y-37387065D01*
D16*
X53719743Y-34957609D02*
X54053076Y-34957609D01*
X54195933Y-35481419D02*
X53719743Y-35481419D01*
X53719743Y-35481419D02*
X53719743Y-34481419D01*
X53719743Y-34481419D02*
X54195933Y-34481419D01*
X54529267Y-34481419D02*
X55195933Y-35481419D01*
X55195933Y-34481419D02*
X54529267Y-35481419D01*
X55576886Y-35481419D02*
X55576886Y-34481419D01*
X55576886Y-34481419D02*
X55957838Y-34481419D01*
X55957838Y-34481419D02*
X56053076Y-34529038D01*
X56053076Y-34529038D02*
X56100695Y-34576657D01*
X56100695Y-34576657D02*
X56148314Y-34671895D01*
X56148314Y-34671895D02*
X56148314Y-34814752D01*
X56148314Y-34814752D02*
X56100695Y-34909990D01*
X56100695Y-34909990D02*
X56053076Y-34957609D01*
X56053076Y-34957609D02*
X55957838Y-35005228D01*
X55957838Y-35005228D02*
X55576886Y-35005228D01*
X56529267Y-35195704D02*
X57005457Y-35195704D01*
X56434029Y-35481419D02*
X56767362Y-34481419D01*
X56767362Y-34481419D02*
X57100695Y-35481419D01*
X57434029Y-35481419D02*
X57434029Y-34481419D01*
X57434029Y-34481419D02*
X58005457Y-35481419D01*
X58005457Y-35481419D02*
X58005457Y-34481419D01*
X58481648Y-35481419D02*
X58481648Y-34481419D01*
X58481648Y-34481419D02*
X58719743Y-34481419D01*
X58719743Y-34481419D02*
X58862600Y-34529038D01*
X58862600Y-34529038D02*
X58957838Y-34624276D01*
X58957838Y-34624276D02*
X59005457Y-34719514D01*
X59005457Y-34719514D02*
X59053076Y-34909990D01*
X59053076Y-34909990D02*
X59053076Y-35052847D01*
X59053076Y-35052847D02*
X59005457Y-35243323D01*
X59005457Y-35243323D02*
X58957838Y-35338561D01*
X58957838Y-35338561D02*
X58862600Y-35433800D01*
X58862600Y-35433800D02*
X58719743Y-35481419D01*
X58719743Y-35481419D02*
X58481648Y-35481419D01*
X19177805Y-51406779D02*
X19177805Y-50406779D01*
X19177805Y-50406779D02*
X19415900Y-50406779D01*
X19415900Y-50406779D02*
X19558757Y-50454398D01*
X19558757Y-50454398D02*
X19653995Y-50549636D01*
X19653995Y-50549636D02*
X19701614Y-50644874D01*
X19701614Y-50644874D02*
X19749233Y-50835350D01*
X19749233Y-50835350D02*
X19749233Y-50978207D01*
X19749233Y-50978207D02*
X19701614Y-51168683D01*
X19701614Y-51168683D02*
X19653995Y-51263921D01*
X19653995Y-51263921D02*
X19558757Y-51359160D01*
X19558757Y-51359160D02*
X19415900Y-51406779D01*
X19415900Y-51406779D02*
X19177805Y-51406779D01*
X20653995Y-50406779D02*
X20177805Y-50406779D01*
X20177805Y-50406779D02*
X20130186Y-50882969D01*
X20130186Y-50882969D02*
X20177805Y-50835350D01*
X20177805Y-50835350D02*
X20273043Y-50787731D01*
X20273043Y-50787731D02*
X20511138Y-50787731D01*
X20511138Y-50787731D02*
X20606376Y-50835350D01*
X20606376Y-50835350D02*
X20653995Y-50882969D01*
X20653995Y-50882969D02*
X20701614Y-50978207D01*
X20701614Y-50978207D02*
X20701614Y-51216302D01*
X20701614Y-51216302D02*
X20653995Y-51311540D01*
X20653995Y-51311540D02*
X20606376Y-51359160D01*
X20606376Y-51359160D02*
X20511138Y-51406779D01*
X20511138Y-51406779D02*
X20273043Y-51406779D01*
X20273043Y-51406779D02*
X20177805Y-51359160D01*
X20177805Y-51359160D02*
X20130186Y-51311540D01*
X13200142Y-33424019D02*
X12866809Y-32947828D01*
X12628714Y-33424019D02*
X12628714Y-32424019D01*
X12628714Y-32424019D02*
X13009666Y-32424019D01*
X13009666Y-32424019D02*
X13104904Y-32471638D01*
X13104904Y-32471638D02*
X13152523Y-32519257D01*
X13152523Y-32519257D02*
X13200142Y-32614495D01*
X13200142Y-32614495D02*
X13200142Y-32757352D01*
X13200142Y-32757352D02*
X13152523Y-32852590D01*
X13152523Y-32852590D02*
X13104904Y-32900209D01*
X13104904Y-32900209D02*
X13009666Y-32947828D01*
X13009666Y-32947828D02*
X12628714Y-32947828D01*
X14152523Y-33424019D02*
X13581095Y-33424019D01*
X13866809Y-33424019D02*
X13866809Y-32424019D01*
X13866809Y-32424019D02*
X13771571Y-32566876D01*
X13771571Y-32566876D02*
X13676333Y-32662114D01*
X13676333Y-32662114D02*
X13581095Y-32709733D01*
X15104904Y-33424019D02*
X14533476Y-33424019D01*
X14819190Y-33424019D02*
X14819190Y-32424019D01*
X14819190Y-32424019D02*
X14723952Y-32566876D01*
X14723952Y-32566876D02*
X14628714Y-32662114D01*
X14628714Y-32662114D02*
X14533476Y-32709733D01*
X13748628Y-47063819D02*
X13415295Y-46587628D01*
X13177200Y-47063819D02*
X13177200Y-46063819D01*
X13177200Y-46063819D02*
X13558152Y-46063819D01*
X13558152Y-46063819D02*
X13653390Y-46111438D01*
X13653390Y-46111438D02*
X13701009Y-46159057D01*
X13701009Y-46159057D02*
X13748628Y-46254295D01*
X13748628Y-46254295D02*
X13748628Y-46397152D01*
X13748628Y-46397152D02*
X13701009Y-46492390D01*
X13701009Y-46492390D02*
X13653390Y-46540009D01*
X13653390Y-46540009D02*
X13558152Y-46587628D01*
X13558152Y-46587628D02*
X13177200Y-46587628D01*
X14653390Y-46063819D02*
X14177200Y-46063819D01*
X14177200Y-46063819D02*
X14129581Y-46540009D01*
X14129581Y-46540009D02*
X14177200Y-46492390D01*
X14177200Y-46492390D02*
X14272438Y-46444771D01*
X14272438Y-46444771D02*
X14510533Y-46444771D01*
X14510533Y-46444771D02*
X14605771Y-46492390D01*
X14605771Y-46492390D02*
X14653390Y-46540009D01*
X14653390Y-46540009D02*
X14701009Y-46635247D01*
X14701009Y-46635247D02*
X14701009Y-46873342D01*
X14701009Y-46873342D02*
X14653390Y-46968580D01*
X14653390Y-46968580D02*
X14605771Y-47016200D01*
X14605771Y-47016200D02*
X14510533Y-47063819D01*
X14510533Y-47063819D02*
X14272438Y-47063819D01*
X14272438Y-47063819D02*
X14177200Y-47016200D01*
X14177200Y-47016200D02*
X14129581Y-46968580D01*
X13723228Y-56411019D02*
X13389895Y-55934828D01*
X13151800Y-56411019D02*
X13151800Y-55411019D01*
X13151800Y-55411019D02*
X13532752Y-55411019D01*
X13532752Y-55411019D02*
X13627990Y-55458638D01*
X13627990Y-55458638D02*
X13675609Y-55506257D01*
X13675609Y-55506257D02*
X13723228Y-55601495D01*
X13723228Y-55601495D02*
X13723228Y-55744352D01*
X13723228Y-55744352D02*
X13675609Y-55839590D01*
X13675609Y-55839590D02*
X13627990Y-55887209D01*
X13627990Y-55887209D02*
X13532752Y-55934828D01*
X13532752Y-55934828D02*
X13151800Y-55934828D01*
X14580371Y-55411019D02*
X14389895Y-55411019D01*
X14389895Y-55411019D02*
X14294657Y-55458638D01*
X14294657Y-55458638D02*
X14247038Y-55506257D01*
X14247038Y-55506257D02*
X14151800Y-55649114D01*
X14151800Y-55649114D02*
X14104181Y-55839590D01*
X14104181Y-55839590D02*
X14104181Y-56220542D01*
X14104181Y-56220542D02*
X14151800Y-56315780D01*
X14151800Y-56315780D02*
X14199419Y-56363400D01*
X14199419Y-56363400D02*
X14294657Y-56411019D01*
X14294657Y-56411019D02*
X14485133Y-56411019D01*
X14485133Y-56411019D02*
X14580371Y-56363400D01*
X14580371Y-56363400D02*
X14627990Y-56315780D01*
X14627990Y-56315780D02*
X14675609Y-56220542D01*
X14675609Y-56220542D02*
X14675609Y-55982447D01*
X14675609Y-55982447D02*
X14627990Y-55887209D01*
X14627990Y-55887209D02*
X14580371Y-55839590D01*
X14580371Y-55839590D02*
X14485133Y-55791971D01*
X14485133Y-55791971D02*
X14294657Y-55791971D01*
X14294657Y-55791971D02*
X14199419Y-55839590D01*
X14199419Y-55839590D02*
X14151800Y-55887209D01*
X14151800Y-55887209D02*
X14104181Y-55982447D01*
X28400476Y-17547219D02*
X28400476Y-18261504D01*
X28400476Y-18261504D02*
X28352857Y-18404361D01*
X28352857Y-18404361D02*
X28257619Y-18499600D01*
X28257619Y-18499600D02*
X28114762Y-18547219D01*
X28114762Y-18547219D02*
X28019524Y-18547219D01*
X29400476Y-18547219D02*
X28829048Y-18547219D01*
X29114762Y-18547219D02*
X29114762Y-17547219D01*
X29114762Y-17547219D02*
X29019524Y-17690076D01*
X29019524Y-17690076D02*
X28924286Y-17785314D01*
X28924286Y-17785314D02*
X28829048Y-17832933D01*
X30019524Y-17547219D02*
X30114762Y-17547219D01*
X30114762Y-17547219D02*
X30210000Y-17594838D01*
X30210000Y-17594838D02*
X30257619Y-17642457D01*
X30257619Y-17642457D02*
X30305238Y-17737695D01*
X30305238Y-17737695D02*
X30352857Y-17928171D01*
X30352857Y-17928171D02*
X30352857Y-18166266D01*
X30352857Y-18166266D02*
X30305238Y-18356742D01*
X30305238Y-18356742D02*
X30257619Y-18451980D01*
X30257619Y-18451980D02*
X30210000Y-18499600D01*
X30210000Y-18499600D02*
X30114762Y-18547219D01*
X30114762Y-18547219D02*
X30019524Y-18547219D01*
X30019524Y-18547219D02*
X29924286Y-18499600D01*
X29924286Y-18499600D02*
X29876667Y-18451980D01*
X29876667Y-18451980D02*
X29829048Y-18356742D01*
X29829048Y-18356742D02*
X29781429Y-18166266D01*
X29781429Y-18166266D02*
X29781429Y-17928171D01*
X29781429Y-17928171D02*
X29829048Y-17737695D01*
X29829048Y-17737695D02*
X29876667Y-17642457D01*
X29876667Y-17642457D02*
X29924286Y-17594838D01*
X29924286Y-17594838D02*
X30019524Y-17547219D01*
X24092633Y-37584680D02*
X24045014Y-37632300D01*
X24045014Y-37632300D02*
X23902157Y-37679919D01*
X23902157Y-37679919D02*
X23806919Y-37679919D01*
X23806919Y-37679919D02*
X23664062Y-37632300D01*
X23664062Y-37632300D02*
X23568824Y-37537061D01*
X23568824Y-37537061D02*
X23521205Y-37441823D01*
X23521205Y-37441823D02*
X23473586Y-37251347D01*
X23473586Y-37251347D02*
X23473586Y-37108490D01*
X23473586Y-37108490D02*
X23521205Y-36918014D01*
X23521205Y-36918014D02*
X23568824Y-36822776D01*
X23568824Y-36822776D02*
X23664062Y-36727538D01*
X23664062Y-36727538D02*
X23806919Y-36679919D01*
X23806919Y-36679919D02*
X23902157Y-36679919D01*
X23902157Y-36679919D02*
X24045014Y-36727538D01*
X24045014Y-36727538D02*
X24092633Y-36775157D01*
X24997395Y-36679919D02*
X24521205Y-36679919D01*
X24521205Y-36679919D02*
X24473586Y-37156109D01*
X24473586Y-37156109D02*
X24521205Y-37108490D01*
X24521205Y-37108490D02*
X24616443Y-37060871D01*
X24616443Y-37060871D02*
X24854538Y-37060871D01*
X24854538Y-37060871D02*
X24949776Y-37108490D01*
X24949776Y-37108490D02*
X24997395Y-37156109D01*
X24997395Y-37156109D02*
X25045014Y-37251347D01*
X25045014Y-37251347D02*
X25045014Y-37489442D01*
X25045014Y-37489442D02*
X24997395Y-37584680D01*
X24997395Y-37584680D02*
X24949776Y-37632300D01*
X24949776Y-37632300D02*
X24854538Y-37679919D01*
X24854538Y-37679919D02*
X24616443Y-37679919D01*
X24616443Y-37679919D02*
X24521205Y-37632300D01*
X24521205Y-37632300D02*
X24473586Y-37584680D01*
X19103905Y-23657234D02*
X19103905Y-22657234D01*
X19103905Y-22657234D02*
X19342000Y-22657234D01*
X19342000Y-22657234D02*
X19484857Y-22704853D01*
X19484857Y-22704853D02*
X19580095Y-22800091D01*
X19580095Y-22800091D02*
X19627714Y-22895329D01*
X19627714Y-22895329D02*
X19675333Y-23085805D01*
X19675333Y-23085805D02*
X19675333Y-23228662D01*
X19675333Y-23228662D02*
X19627714Y-23419138D01*
X19627714Y-23419138D02*
X19580095Y-23514376D01*
X19580095Y-23514376D02*
X19484857Y-23609615D01*
X19484857Y-23609615D02*
X19342000Y-23657234D01*
X19342000Y-23657234D02*
X19103905Y-23657234D01*
X20056286Y-22752472D02*
X20103905Y-22704853D01*
X20103905Y-22704853D02*
X20199143Y-22657234D01*
X20199143Y-22657234D02*
X20437238Y-22657234D01*
X20437238Y-22657234D02*
X20532476Y-22704853D01*
X20532476Y-22704853D02*
X20580095Y-22752472D01*
X20580095Y-22752472D02*
X20627714Y-22847710D01*
X20627714Y-22847710D02*
X20627714Y-22942948D01*
X20627714Y-22942948D02*
X20580095Y-23085805D01*
X20580095Y-23085805D02*
X20008667Y-23657234D01*
X20008667Y-23657234D02*
X20627714Y-23657234D01*
X28876666Y-8276219D02*
X28876666Y-8990504D01*
X28876666Y-8990504D02*
X28829047Y-9133361D01*
X28829047Y-9133361D02*
X28733809Y-9228600D01*
X28733809Y-9228600D02*
X28590952Y-9276219D01*
X28590952Y-9276219D02*
X28495714Y-9276219D01*
X29400476Y-9276219D02*
X29590952Y-9276219D01*
X29590952Y-9276219D02*
X29686190Y-9228600D01*
X29686190Y-9228600D02*
X29733809Y-9180980D01*
X29733809Y-9180980D02*
X29829047Y-9038123D01*
X29829047Y-9038123D02*
X29876666Y-8847647D01*
X29876666Y-8847647D02*
X29876666Y-8466695D01*
X29876666Y-8466695D02*
X29829047Y-8371457D01*
X29829047Y-8371457D02*
X29781428Y-8323838D01*
X29781428Y-8323838D02*
X29686190Y-8276219D01*
X29686190Y-8276219D02*
X29495714Y-8276219D01*
X29495714Y-8276219D02*
X29400476Y-8323838D01*
X29400476Y-8323838D02*
X29352857Y-8371457D01*
X29352857Y-8371457D02*
X29305238Y-8466695D01*
X29305238Y-8466695D02*
X29305238Y-8704790D01*
X29305238Y-8704790D02*
X29352857Y-8800028D01*
X29352857Y-8800028D02*
X29400476Y-8847647D01*
X29400476Y-8847647D02*
X29495714Y-8895266D01*
X29495714Y-8895266D02*
X29686190Y-8895266D01*
X29686190Y-8895266D02*
X29781428Y-8847647D01*
X29781428Y-8847647D02*
X29829047Y-8800028D01*
X29829047Y-8800028D02*
X29876666Y-8704790D01*
X48988742Y-51718380D02*
X48941123Y-51766000D01*
X48941123Y-51766000D02*
X48798266Y-51813619D01*
X48798266Y-51813619D02*
X48703028Y-51813619D01*
X48703028Y-51813619D02*
X48560171Y-51766000D01*
X48560171Y-51766000D02*
X48464933Y-51670761D01*
X48464933Y-51670761D02*
X48417314Y-51575523D01*
X48417314Y-51575523D02*
X48369695Y-51385047D01*
X48369695Y-51385047D02*
X48369695Y-51242190D01*
X48369695Y-51242190D02*
X48417314Y-51051714D01*
X48417314Y-51051714D02*
X48464933Y-50956476D01*
X48464933Y-50956476D02*
X48560171Y-50861238D01*
X48560171Y-50861238D02*
X48703028Y-50813619D01*
X48703028Y-50813619D02*
X48798266Y-50813619D01*
X48798266Y-50813619D02*
X48941123Y-50861238D01*
X48941123Y-50861238D02*
X48988742Y-50908857D01*
X49941123Y-51813619D02*
X49369695Y-51813619D01*
X49655409Y-51813619D02*
X49655409Y-50813619D01*
X49655409Y-50813619D02*
X49560171Y-50956476D01*
X49560171Y-50956476D02*
X49464933Y-51051714D01*
X49464933Y-51051714D02*
X49369695Y-51099333D01*
X50893504Y-51813619D02*
X50322076Y-51813619D01*
X50607790Y-51813619D02*
X50607790Y-50813619D01*
X50607790Y-50813619D02*
X50512552Y-50956476D01*
X50512552Y-50956476D02*
X50417314Y-51051714D01*
X50417314Y-51051714D02*
X50322076Y-51099333D01*
D12*
X49432633Y-57072065D02*
X48924633Y-57072065D01*
X49178633Y-57072065D02*
X49178633Y-56183065D01*
X49178633Y-56183065D02*
X49093966Y-56310065D01*
X49093966Y-56310065D02*
X49009300Y-56394732D01*
X49009300Y-56394732D02*
X48924633Y-56437065D01*
X50194633Y-56479398D02*
X50194633Y-57072065D01*
X49813633Y-56479398D02*
X49813633Y-56945065D01*
X49813633Y-56945065D02*
X49855967Y-57029732D01*
X49855967Y-57029732D02*
X49940633Y-57072065D01*
X49940633Y-57072065D02*
X50067633Y-57072065D01*
X50067633Y-57072065D02*
X50152300Y-57029732D01*
X50152300Y-57029732D02*
X50194633Y-56987398D01*
X50393600Y-31316465D02*
X50816933Y-31316465D01*
X50308933Y-31570465D02*
X50605267Y-30681465D01*
X50605267Y-30681465D02*
X50901600Y-31570465D01*
X51663600Y-31570465D02*
X51155600Y-31570465D01*
X51409600Y-31570465D02*
X51409600Y-30681465D01*
X51409600Y-30681465D02*
X51324933Y-30808465D01*
X51324933Y-30808465D02*
X51240267Y-30893132D01*
X51240267Y-30893132D02*
X51155600Y-30935465D01*
D16*
X19152405Y-79081919D02*
X19152405Y-78081919D01*
X19152405Y-78081919D02*
X19390500Y-78081919D01*
X19390500Y-78081919D02*
X19533357Y-78129538D01*
X19533357Y-78129538D02*
X19628595Y-78224776D01*
X19628595Y-78224776D02*
X19676214Y-78320014D01*
X19676214Y-78320014D02*
X19723833Y-78510490D01*
X19723833Y-78510490D02*
X19723833Y-78653347D01*
X19723833Y-78653347D02*
X19676214Y-78843823D01*
X19676214Y-78843823D02*
X19628595Y-78939061D01*
X19628595Y-78939061D02*
X19533357Y-79034300D01*
X19533357Y-79034300D02*
X19390500Y-79081919D01*
X19390500Y-79081919D02*
X19152405Y-79081919D01*
X20295262Y-78510490D02*
X20200024Y-78462871D01*
X20200024Y-78462871D02*
X20152405Y-78415252D01*
X20152405Y-78415252D02*
X20104786Y-78320014D01*
X20104786Y-78320014D02*
X20104786Y-78272395D01*
X20104786Y-78272395D02*
X20152405Y-78177157D01*
X20152405Y-78177157D02*
X20200024Y-78129538D01*
X20200024Y-78129538D02*
X20295262Y-78081919D01*
X20295262Y-78081919D02*
X20485738Y-78081919D01*
X20485738Y-78081919D02*
X20580976Y-78129538D01*
X20580976Y-78129538D02*
X20628595Y-78177157D01*
X20628595Y-78177157D02*
X20676214Y-78272395D01*
X20676214Y-78272395D02*
X20676214Y-78320014D01*
X20676214Y-78320014D02*
X20628595Y-78415252D01*
X20628595Y-78415252D02*
X20580976Y-78462871D01*
X20580976Y-78462871D02*
X20485738Y-78510490D01*
X20485738Y-78510490D02*
X20295262Y-78510490D01*
X20295262Y-78510490D02*
X20200024Y-78558109D01*
X20200024Y-78558109D02*
X20152405Y-78605728D01*
X20152405Y-78605728D02*
X20104786Y-78700966D01*
X20104786Y-78700966D02*
X20104786Y-78891442D01*
X20104786Y-78891442D02*
X20152405Y-78986680D01*
X20152405Y-78986680D02*
X20200024Y-79034300D01*
X20200024Y-79034300D02*
X20295262Y-79081919D01*
X20295262Y-79081919D02*
X20485738Y-79081919D01*
X20485738Y-79081919D02*
X20580976Y-79034300D01*
X20580976Y-79034300D02*
X20628595Y-78986680D01*
X20628595Y-78986680D02*
X20676214Y-78891442D01*
X20676214Y-78891442D02*
X20676214Y-78700966D01*
X20676214Y-78700966D02*
X20628595Y-78605728D01*
X20628595Y-78605728D02*
X20580976Y-78558109D01*
X20580976Y-78558109D02*
X20485738Y-78510490D01*
X24016433Y-19068080D02*
X23968814Y-19115700D01*
X23968814Y-19115700D02*
X23825957Y-19163319D01*
X23825957Y-19163319D02*
X23730719Y-19163319D01*
X23730719Y-19163319D02*
X23587862Y-19115700D01*
X23587862Y-19115700D02*
X23492624Y-19020461D01*
X23492624Y-19020461D02*
X23445005Y-18925223D01*
X23445005Y-18925223D02*
X23397386Y-18734747D01*
X23397386Y-18734747D02*
X23397386Y-18591890D01*
X23397386Y-18591890D02*
X23445005Y-18401414D01*
X23445005Y-18401414D02*
X23492624Y-18306176D01*
X23492624Y-18306176D02*
X23587862Y-18210938D01*
X23587862Y-18210938D02*
X23730719Y-18163319D01*
X23730719Y-18163319D02*
X23825957Y-18163319D01*
X23825957Y-18163319D02*
X23968814Y-18210938D01*
X23968814Y-18210938D02*
X24016433Y-18258557D01*
X24349767Y-18163319D02*
X24968814Y-18163319D01*
X24968814Y-18163319D02*
X24635481Y-18544271D01*
X24635481Y-18544271D02*
X24778338Y-18544271D01*
X24778338Y-18544271D02*
X24873576Y-18591890D01*
X24873576Y-18591890D02*
X24921195Y-18639509D01*
X24921195Y-18639509D02*
X24968814Y-18734747D01*
X24968814Y-18734747D02*
X24968814Y-18972842D01*
X24968814Y-18972842D02*
X24921195Y-19068080D01*
X24921195Y-19068080D02*
X24873576Y-19115700D01*
X24873576Y-19115700D02*
X24778338Y-19163319D01*
X24778338Y-19163319D02*
X24492624Y-19163319D01*
X24492624Y-19163319D02*
X24397386Y-19115700D01*
X24397386Y-19115700D02*
X24349767Y-19068080D01*
D13*
X32986133Y-87985895D02*
X32986133Y-86969895D01*
X33421562Y-87066657D02*
X33469943Y-87018276D01*
X33469943Y-87018276D02*
X33566705Y-86969895D01*
X33566705Y-86969895D02*
X33808610Y-86969895D01*
X33808610Y-86969895D02*
X33905372Y-87018276D01*
X33905372Y-87018276D02*
X33953753Y-87066657D01*
X33953753Y-87066657D02*
X34002134Y-87163419D01*
X34002134Y-87163419D02*
X34002134Y-87260181D01*
X34002134Y-87260181D02*
X33953753Y-87405324D01*
X33953753Y-87405324D02*
X33373181Y-87985895D01*
X33373181Y-87985895D02*
X34002134Y-87985895D01*
X35018134Y-87889134D02*
X34969753Y-87937515D01*
X34969753Y-87937515D02*
X34824610Y-87985895D01*
X34824610Y-87985895D02*
X34727848Y-87985895D01*
X34727848Y-87985895D02*
X34582705Y-87937515D01*
X34582705Y-87937515D02*
X34485943Y-87840753D01*
X34485943Y-87840753D02*
X34437562Y-87743991D01*
X34437562Y-87743991D02*
X34389181Y-87550467D01*
X34389181Y-87550467D02*
X34389181Y-87405324D01*
X34389181Y-87405324D02*
X34437562Y-87211800D01*
X34437562Y-87211800D02*
X34485943Y-87115038D01*
X34485943Y-87115038D02*
X34582705Y-87018276D01*
X34582705Y-87018276D02*
X34727848Y-86969895D01*
X34727848Y-86969895D02*
X34824610Y-86969895D01*
X34824610Y-86969895D02*
X34969753Y-87018276D01*
X34969753Y-87018276D02*
X35018134Y-87066657D01*
X36759848Y-87985895D02*
X36179276Y-87985895D01*
X36469562Y-87985895D02*
X36469562Y-86969895D01*
X36469562Y-86969895D02*
X36372800Y-87115038D01*
X36372800Y-87115038D02*
X36276038Y-87211800D01*
X36276038Y-87211800D02*
X36179276Y-87260181D01*
D16*
X28400476Y-36063819D02*
X28400476Y-36778104D01*
X28400476Y-36778104D02*
X28352857Y-36920961D01*
X28352857Y-36920961D02*
X28257619Y-37016200D01*
X28257619Y-37016200D02*
X28114762Y-37063819D01*
X28114762Y-37063819D02*
X28019524Y-37063819D01*
X29400476Y-37063819D02*
X28829048Y-37063819D01*
X29114762Y-37063819D02*
X29114762Y-36063819D01*
X29114762Y-36063819D02*
X29019524Y-36206676D01*
X29019524Y-36206676D02*
X28924286Y-36301914D01*
X28924286Y-36301914D02*
X28829048Y-36349533D01*
X29781429Y-36159057D02*
X29829048Y-36111438D01*
X29829048Y-36111438D02*
X29924286Y-36063819D01*
X29924286Y-36063819D02*
X30162381Y-36063819D01*
X30162381Y-36063819D02*
X30257619Y-36111438D01*
X30257619Y-36111438D02*
X30305238Y-36159057D01*
X30305238Y-36159057D02*
X30352857Y-36254295D01*
X30352857Y-36254295D02*
X30352857Y-36349533D01*
X30352857Y-36349533D02*
X30305238Y-36492390D01*
X30305238Y-36492390D02*
X29733810Y-37063819D01*
X29733810Y-37063819D02*
X30352857Y-37063819D01*
X19152405Y-69887119D02*
X19152405Y-68887119D01*
X19152405Y-68887119D02*
X19390500Y-68887119D01*
X19390500Y-68887119D02*
X19533357Y-68934738D01*
X19533357Y-68934738D02*
X19628595Y-69029976D01*
X19628595Y-69029976D02*
X19676214Y-69125214D01*
X19676214Y-69125214D02*
X19723833Y-69315690D01*
X19723833Y-69315690D02*
X19723833Y-69458547D01*
X19723833Y-69458547D02*
X19676214Y-69649023D01*
X19676214Y-69649023D02*
X19628595Y-69744261D01*
X19628595Y-69744261D02*
X19533357Y-69839500D01*
X19533357Y-69839500D02*
X19390500Y-69887119D01*
X19390500Y-69887119D02*
X19152405Y-69887119D01*
X20057167Y-68887119D02*
X20723833Y-68887119D01*
X20723833Y-68887119D02*
X20295262Y-69887119D01*
X28400476Y-26818219D02*
X28400476Y-27532504D01*
X28400476Y-27532504D02*
X28352857Y-27675361D01*
X28352857Y-27675361D02*
X28257619Y-27770600D01*
X28257619Y-27770600D02*
X28114762Y-27818219D01*
X28114762Y-27818219D02*
X28019524Y-27818219D01*
X29400476Y-27818219D02*
X28829048Y-27818219D01*
X29114762Y-27818219D02*
X29114762Y-26818219D01*
X29114762Y-26818219D02*
X29019524Y-26961076D01*
X29019524Y-26961076D02*
X28924286Y-27056314D01*
X28924286Y-27056314D02*
X28829048Y-27103933D01*
X30352857Y-27818219D02*
X29781429Y-27818219D01*
X30067143Y-27818219D02*
X30067143Y-26818219D01*
X30067143Y-26818219D02*
X29971905Y-26961076D01*
X29971905Y-26961076D02*
X29876667Y-27056314D01*
X29876667Y-27056314D02*
X29781429Y-27103933D01*
X13266942Y-60170219D02*
X12933609Y-59694028D01*
X12695514Y-60170219D02*
X12695514Y-59170219D01*
X12695514Y-59170219D02*
X13076466Y-59170219D01*
X13076466Y-59170219D02*
X13171704Y-59217838D01*
X13171704Y-59217838D02*
X13219323Y-59265457D01*
X13219323Y-59265457D02*
X13266942Y-59360695D01*
X13266942Y-59360695D02*
X13266942Y-59503552D01*
X13266942Y-59503552D02*
X13219323Y-59598790D01*
X13219323Y-59598790D02*
X13171704Y-59646409D01*
X13171704Y-59646409D02*
X13076466Y-59694028D01*
X13076466Y-59694028D02*
X12695514Y-59694028D01*
X14219323Y-60170219D02*
X13647895Y-60170219D01*
X13933609Y-60170219D02*
X13933609Y-59170219D01*
X13933609Y-59170219D02*
X13838371Y-59313076D01*
X13838371Y-59313076D02*
X13743133Y-59408314D01*
X13743133Y-59408314D02*
X13647895Y-59455933D01*
X15076466Y-59503552D02*
X15076466Y-60170219D01*
X14838371Y-59122600D02*
X14600276Y-59836885D01*
X14600276Y-59836885D02*
X15219323Y-59836885D01*
X13850228Y-37792819D02*
X13516895Y-37316628D01*
X13278800Y-37792819D02*
X13278800Y-36792819D01*
X13278800Y-36792819D02*
X13659752Y-36792819D01*
X13659752Y-36792819D02*
X13754990Y-36840438D01*
X13754990Y-36840438D02*
X13802609Y-36888057D01*
X13802609Y-36888057D02*
X13850228Y-36983295D01*
X13850228Y-36983295D02*
X13850228Y-37126152D01*
X13850228Y-37126152D02*
X13802609Y-37221390D01*
X13802609Y-37221390D02*
X13754990Y-37269009D01*
X13754990Y-37269009D02*
X13659752Y-37316628D01*
X13659752Y-37316628D02*
X13278800Y-37316628D01*
X14707371Y-37126152D02*
X14707371Y-37792819D01*
X14469276Y-36745200D02*
X14231181Y-37459485D01*
X14231181Y-37459485D02*
X14850228Y-37459485D01*
X24168833Y-65397680D02*
X24121214Y-65445300D01*
X24121214Y-65445300D02*
X23978357Y-65492919D01*
X23978357Y-65492919D02*
X23883119Y-65492919D01*
X23883119Y-65492919D02*
X23740262Y-65445300D01*
X23740262Y-65445300D02*
X23645024Y-65350061D01*
X23645024Y-65350061D02*
X23597405Y-65254823D01*
X23597405Y-65254823D02*
X23549786Y-65064347D01*
X23549786Y-65064347D02*
X23549786Y-64921490D01*
X23549786Y-64921490D02*
X23597405Y-64731014D01*
X23597405Y-64731014D02*
X23645024Y-64635776D01*
X23645024Y-64635776D02*
X23740262Y-64540538D01*
X23740262Y-64540538D02*
X23883119Y-64492919D01*
X23883119Y-64492919D02*
X23978357Y-64492919D01*
X23978357Y-64492919D02*
X24121214Y-64540538D01*
X24121214Y-64540538D02*
X24168833Y-64588157D01*
X24740262Y-64921490D02*
X24645024Y-64873871D01*
X24645024Y-64873871D02*
X24597405Y-64826252D01*
X24597405Y-64826252D02*
X24549786Y-64731014D01*
X24549786Y-64731014D02*
X24549786Y-64683395D01*
X24549786Y-64683395D02*
X24597405Y-64588157D01*
X24597405Y-64588157D02*
X24645024Y-64540538D01*
X24645024Y-64540538D02*
X24740262Y-64492919D01*
X24740262Y-64492919D02*
X24930738Y-64492919D01*
X24930738Y-64492919D02*
X25025976Y-64540538D01*
X25025976Y-64540538D02*
X25073595Y-64588157D01*
X25073595Y-64588157D02*
X25121214Y-64683395D01*
X25121214Y-64683395D02*
X25121214Y-64731014D01*
X25121214Y-64731014D02*
X25073595Y-64826252D01*
X25073595Y-64826252D02*
X25025976Y-64873871D01*
X25025976Y-64873871D02*
X24930738Y-64921490D01*
X24930738Y-64921490D02*
X24740262Y-64921490D01*
X24740262Y-64921490D02*
X24645024Y-64969109D01*
X24645024Y-64969109D02*
X24597405Y-65016728D01*
X24597405Y-65016728D02*
X24549786Y-65111966D01*
X24549786Y-65111966D02*
X24549786Y-65302442D01*
X24549786Y-65302442D02*
X24597405Y-65397680D01*
X24597405Y-65397680D02*
X24645024Y-65445300D01*
X24645024Y-65445300D02*
X24740262Y-65492919D01*
X24740262Y-65492919D02*
X24930738Y-65492919D01*
X24930738Y-65492919D02*
X25025976Y-65445300D01*
X25025976Y-65445300D02*
X25073595Y-65397680D01*
X25073595Y-65397680D02*
X25121214Y-65302442D01*
X25121214Y-65302442D02*
X25121214Y-65111966D01*
X25121214Y-65111966D02*
X25073595Y-65016728D01*
X25073595Y-65016728D02*
X25025976Y-64969109D01*
X25025976Y-64969109D02*
X24930738Y-64921490D01*
D13*
X44111333Y-87711095D02*
X44111333Y-86695095D01*
X44546762Y-86791857D02*
X44595143Y-86743476D01*
X44595143Y-86743476D02*
X44691905Y-86695095D01*
X44691905Y-86695095D02*
X44933810Y-86695095D01*
X44933810Y-86695095D02*
X45030572Y-86743476D01*
X45030572Y-86743476D02*
X45078953Y-86791857D01*
X45078953Y-86791857D02*
X45127334Y-86888619D01*
X45127334Y-86888619D02*
X45127334Y-86985381D01*
X45127334Y-86985381D02*
X45078953Y-87130524D01*
X45078953Y-87130524D02*
X44498381Y-87711095D01*
X44498381Y-87711095D02*
X45127334Y-87711095D01*
X46143334Y-87614334D02*
X46094953Y-87662715D01*
X46094953Y-87662715D02*
X45949810Y-87711095D01*
X45949810Y-87711095D02*
X45853048Y-87711095D01*
X45853048Y-87711095D02*
X45707905Y-87662715D01*
X45707905Y-87662715D02*
X45611143Y-87565953D01*
X45611143Y-87565953D02*
X45562762Y-87469191D01*
X45562762Y-87469191D02*
X45514381Y-87275667D01*
X45514381Y-87275667D02*
X45514381Y-87130524D01*
X45514381Y-87130524D02*
X45562762Y-86937000D01*
X45562762Y-86937000D02*
X45611143Y-86840238D01*
X45611143Y-86840238D02*
X45707905Y-86743476D01*
X45707905Y-86743476D02*
X45853048Y-86695095D01*
X45853048Y-86695095D02*
X45949810Y-86695095D01*
X45949810Y-86695095D02*
X46094953Y-86743476D01*
X46094953Y-86743476D02*
X46143334Y-86791857D01*
X47546381Y-86695095D02*
X47643143Y-86695095D01*
X47643143Y-86695095D02*
X47739905Y-86743476D01*
X47739905Y-86743476D02*
X47788286Y-86791857D01*
X47788286Y-86791857D02*
X47836667Y-86888619D01*
X47836667Y-86888619D02*
X47885048Y-87082143D01*
X47885048Y-87082143D02*
X47885048Y-87324048D01*
X47885048Y-87324048D02*
X47836667Y-87517572D01*
X47836667Y-87517572D02*
X47788286Y-87614334D01*
X47788286Y-87614334D02*
X47739905Y-87662715D01*
X47739905Y-87662715D02*
X47643143Y-87711095D01*
X47643143Y-87711095D02*
X47546381Y-87711095D01*
X47546381Y-87711095D02*
X47449619Y-87662715D01*
X47449619Y-87662715D02*
X47401238Y-87614334D01*
X47401238Y-87614334D02*
X47352857Y-87517572D01*
X47352857Y-87517572D02*
X47304476Y-87324048D01*
X47304476Y-87324048D02*
X47304476Y-87082143D01*
X47304476Y-87082143D02*
X47352857Y-86888619D01*
X47352857Y-86888619D02*
X47401238Y-86791857D01*
X47401238Y-86791857D02*
X47449619Y-86743476D01*
X47449619Y-86743476D02*
X47546381Y-86695095D01*
D16*
X13824828Y-65631219D02*
X13491495Y-65155028D01*
X13253400Y-65631219D02*
X13253400Y-64631219D01*
X13253400Y-64631219D02*
X13634352Y-64631219D01*
X13634352Y-64631219D02*
X13729590Y-64678838D01*
X13729590Y-64678838D02*
X13777209Y-64726457D01*
X13777209Y-64726457D02*
X13824828Y-64821695D01*
X13824828Y-64821695D02*
X13824828Y-64964552D01*
X13824828Y-64964552D02*
X13777209Y-65059790D01*
X13777209Y-65059790D02*
X13729590Y-65107409D01*
X13729590Y-65107409D02*
X13634352Y-65155028D01*
X13634352Y-65155028D02*
X13253400Y-65155028D01*
X14158162Y-64631219D02*
X14824828Y-64631219D01*
X14824828Y-64631219D02*
X14396257Y-65631219D01*
X13748628Y-9979819D02*
X13415295Y-9503628D01*
X13177200Y-9979819D02*
X13177200Y-8979819D01*
X13177200Y-8979819D02*
X13558152Y-8979819D01*
X13558152Y-8979819D02*
X13653390Y-9027438D01*
X13653390Y-9027438D02*
X13701009Y-9075057D01*
X13701009Y-9075057D02*
X13748628Y-9170295D01*
X13748628Y-9170295D02*
X13748628Y-9313152D01*
X13748628Y-9313152D02*
X13701009Y-9408390D01*
X13701009Y-9408390D02*
X13653390Y-9456009D01*
X13653390Y-9456009D02*
X13558152Y-9503628D01*
X13558152Y-9503628D02*
X13177200Y-9503628D01*
X14701009Y-9979819D02*
X14129581Y-9979819D01*
X14415295Y-9979819D02*
X14415295Y-8979819D01*
X14415295Y-8979819D02*
X14320057Y-9122676D01*
X14320057Y-9122676D02*
X14224819Y-9217914D01*
X14224819Y-9217914D02*
X14129581Y-9265533D01*
D12*
X9935633Y-13765065D02*
X9427633Y-13765065D01*
X9681633Y-13765065D02*
X9681633Y-12876065D01*
X9681633Y-12876065D02*
X9596966Y-13003065D01*
X9596966Y-13003065D02*
X9512300Y-13087732D01*
X9512300Y-13087732D02*
X9427633Y-13130065D01*
X10485967Y-12876065D02*
X10570633Y-12876065D01*
X10570633Y-12876065D02*
X10655300Y-12918398D01*
X10655300Y-12918398D02*
X10697633Y-12960732D01*
X10697633Y-12960732D02*
X10739967Y-13045398D01*
X10739967Y-13045398D02*
X10782300Y-13214732D01*
X10782300Y-13214732D02*
X10782300Y-13426398D01*
X10782300Y-13426398D02*
X10739967Y-13595732D01*
X10739967Y-13595732D02*
X10697633Y-13680398D01*
X10697633Y-13680398D02*
X10655300Y-13722732D01*
X10655300Y-13722732D02*
X10570633Y-13765065D01*
X10570633Y-13765065D02*
X10485967Y-13765065D01*
X10485967Y-13765065D02*
X10401300Y-13722732D01*
X10401300Y-13722732D02*
X10358967Y-13680398D01*
X10358967Y-13680398D02*
X10316633Y-13595732D01*
X10316633Y-13595732D02*
X10274300Y-13426398D01*
X10274300Y-13426398D02*
X10274300Y-13214732D01*
X10274300Y-13214732D02*
X10316633Y-13045398D01*
X10316633Y-13045398D02*
X10358967Y-12960732D01*
X10358967Y-12960732D02*
X10401300Y-12918398D01*
X10401300Y-12918398D02*
X10485967Y-12876065D01*
X11163300Y-13765065D02*
X11163300Y-12876065D01*
X11247967Y-13426398D02*
X11501967Y-13765065D01*
X11501967Y-13172398D02*
X11163300Y-13511065D01*
D16*
X13697828Y-28471019D02*
X13364495Y-27994828D01*
X13126400Y-28471019D02*
X13126400Y-27471019D01*
X13126400Y-27471019D02*
X13507352Y-27471019D01*
X13507352Y-27471019D02*
X13602590Y-27518638D01*
X13602590Y-27518638D02*
X13650209Y-27566257D01*
X13650209Y-27566257D02*
X13697828Y-27661495D01*
X13697828Y-27661495D02*
X13697828Y-27804352D01*
X13697828Y-27804352D02*
X13650209Y-27899590D01*
X13650209Y-27899590D02*
X13602590Y-27947209D01*
X13602590Y-27947209D02*
X13507352Y-27994828D01*
X13507352Y-27994828D02*
X13126400Y-27994828D01*
X14031162Y-27471019D02*
X14650209Y-27471019D01*
X14650209Y-27471019D02*
X14316876Y-27851971D01*
X14316876Y-27851971D02*
X14459733Y-27851971D01*
X14459733Y-27851971D02*
X14554971Y-27899590D01*
X14554971Y-27899590D02*
X14602590Y-27947209D01*
X14602590Y-27947209D02*
X14650209Y-28042447D01*
X14650209Y-28042447D02*
X14650209Y-28280542D01*
X14650209Y-28280542D02*
X14602590Y-28375780D01*
X14602590Y-28375780D02*
X14554971Y-28423400D01*
X14554971Y-28423400D02*
X14459733Y-28471019D01*
X14459733Y-28471019D02*
X14174019Y-28471019D01*
X14174019Y-28471019D02*
X14078781Y-28423400D01*
X14078781Y-28423400D02*
X14031162Y-28375780D01*
D13*
X21911733Y-87584095D02*
X21911733Y-86568095D01*
X22347162Y-86664857D02*
X22395543Y-86616476D01*
X22395543Y-86616476D02*
X22492305Y-86568095D01*
X22492305Y-86568095D02*
X22734210Y-86568095D01*
X22734210Y-86568095D02*
X22830972Y-86616476D01*
X22830972Y-86616476D02*
X22879353Y-86664857D01*
X22879353Y-86664857D02*
X22927734Y-86761619D01*
X22927734Y-86761619D02*
X22927734Y-86858381D01*
X22927734Y-86858381D02*
X22879353Y-87003524D01*
X22879353Y-87003524D02*
X22298781Y-87584095D01*
X22298781Y-87584095D02*
X22927734Y-87584095D01*
X23943734Y-87487334D02*
X23895353Y-87535715D01*
X23895353Y-87535715D02*
X23750210Y-87584095D01*
X23750210Y-87584095D02*
X23653448Y-87584095D01*
X23653448Y-87584095D02*
X23508305Y-87535715D01*
X23508305Y-87535715D02*
X23411543Y-87438953D01*
X23411543Y-87438953D02*
X23363162Y-87342191D01*
X23363162Y-87342191D02*
X23314781Y-87148667D01*
X23314781Y-87148667D02*
X23314781Y-87003524D01*
X23314781Y-87003524D02*
X23363162Y-86810000D01*
X23363162Y-86810000D02*
X23411543Y-86713238D01*
X23411543Y-86713238D02*
X23508305Y-86616476D01*
X23508305Y-86616476D02*
X23653448Y-86568095D01*
X23653448Y-86568095D02*
X23750210Y-86568095D01*
X23750210Y-86568095D02*
X23895353Y-86616476D01*
X23895353Y-86616476D02*
X23943734Y-86664857D01*
X25685448Y-87584095D02*
X25104876Y-87584095D01*
X25395162Y-87584095D02*
X25395162Y-86568095D01*
X25395162Y-86568095D02*
X25298400Y-86713238D01*
X25298400Y-86713238D02*
X25201638Y-86810000D01*
X25201638Y-86810000D02*
X25104876Y-86858381D01*
D16*
X19127005Y-60622294D02*
X19127005Y-59622294D01*
X19127005Y-59622294D02*
X19365100Y-59622294D01*
X19365100Y-59622294D02*
X19507957Y-59669913D01*
X19507957Y-59669913D02*
X19603195Y-59765151D01*
X19603195Y-59765151D02*
X19650814Y-59860389D01*
X19650814Y-59860389D02*
X19698433Y-60050865D01*
X19698433Y-60050865D02*
X19698433Y-60193722D01*
X19698433Y-60193722D02*
X19650814Y-60384198D01*
X19650814Y-60384198D02*
X19603195Y-60479436D01*
X19603195Y-60479436D02*
X19507957Y-60574675D01*
X19507957Y-60574675D02*
X19365100Y-60622294D01*
X19365100Y-60622294D02*
X19127005Y-60622294D01*
X20555576Y-59622294D02*
X20365100Y-59622294D01*
X20365100Y-59622294D02*
X20269862Y-59669913D01*
X20269862Y-59669913D02*
X20222243Y-59717532D01*
X20222243Y-59717532D02*
X20127005Y-59860389D01*
X20127005Y-59860389D02*
X20079386Y-60050865D01*
X20079386Y-60050865D02*
X20079386Y-60431817D01*
X20079386Y-60431817D02*
X20127005Y-60527055D01*
X20127005Y-60527055D02*
X20174624Y-60574675D01*
X20174624Y-60574675D02*
X20269862Y-60622294D01*
X20269862Y-60622294D02*
X20460338Y-60622294D01*
X20460338Y-60622294D02*
X20555576Y-60574675D01*
X20555576Y-60574675D02*
X20603195Y-60527055D01*
X20603195Y-60527055D02*
X20650814Y-60431817D01*
X20650814Y-60431817D02*
X20650814Y-60193722D01*
X20650814Y-60193722D02*
X20603195Y-60098484D01*
X20603195Y-60098484D02*
X20555576Y-60050865D01*
X20555576Y-60050865D02*
X20460338Y-60003246D01*
X20460338Y-60003246D02*
X20269862Y-60003246D01*
X20269862Y-60003246D02*
X20174624Y-60050865D01*
X20174624Y-60050865D02*
X20127005Y-60098484D01*
X20127005Y-60098484D02*
X20079386Y-60193722D01*
D12*
X28503033Y-55802065D02*
X28503033Y-54913065D01*
X28503033Y-54913065D02*
X28841700Y-54913065D01*
X28841700Y-54913065D02*
X28926367Y-54955398D01*
X28926367Y-54955398D02*
X28968700Y-54997732D01*
X28968700Y-54997732D02*
X29011033Y-55082398D01*
X29011033Y-55082398D02*
X29011033Y-55209398D01*
X29011033Y-55209398D02*
X28968700Y-55294065D01*
X28968700Y-55294065D02*
X28926367Y-55336398D01*
X28926367Y-55336398D02*
X28841700Y-55378732D01*
X28841700Y-55378732D02*
X28503033Y-55378732D01*
X29815367Y-54913065D02*
X29392033Y-54913065D01*
X29392033Y-54913065D02*
X29349700Y-55336398D01*
X29349700Y-55336398D02*
X29392033Y-55294065D01*
X29392033Y-55294065D02*
X29476700Y-55251732D01*
X29476700Y-55251732D02*
X29688367Y-55251732D01*
X29688367Y-55251732D02*
X29773033Y-55294065D01*
X29773033Y-55294065D02*
X29815367Y-55336398D01*
X29815367Y-55336398D02*
X29857700Y-55421065D01*
X29857700Y-55421065D02*
X29857700Y-55632732D01*
X29857700Y-55632732D02*
X29815367Y-55717398D01*
X29815367Y-55717398D02*
X29773033Y-55759732D01*
X29773033Y-55759732D02*
X29688367Y-55802065D01*
X29688367Y-55802065D02*
X29476700Y-55802065D01*
X29476700Y-55802065D02*
X29392033Y-55759732D01*
X29392033Y-55759732D02*
X29349700Y-55717398D01*
X28553833Y-65073065D02*
X28553833Y-64184065D01*
X28553833Y-64184065D02*
X28892500Y-64184065D01*
X28892500Y-64184065D02*
X28977167Y-64226398D01*
X28977167Y-64226398D02*
X29019500Y-64268732D01*
X29019500Y-64268732D02*
X29061833Y-64353398D01*
X29061833Y-64353398D02*
X29061833Y-64480398D01*
X29061833Y-64480398D02*
X29019500Y-64565065D01*
X29019500Y-64565065D02*
X28977167Y-64607398D01*
X28977167Y-64607398D02*
X28892500Y-64649732D01*
X28892500Y-64649732D02*
X28553833Y-64649732D01*
X29823833Y-64184065D02*
X29654500Y-64184065D01*
X29654500Y-64184065D02*
X29569833Y-64226398D01*
X29569833Y-64226398D02*
X29527500Y-64268732D01*
X29527500Y-64268732D02*
X29442833Y-64395732D01*
X29442833Y-64395732D02*
X29400500Y-64565065D01*
X29400500Y-64565065D02*
X29400500Y-64903732D01*
X29400500Y-64903732D02*
X29442833Y-64988398D01*
X29442833Y-64988398D02*
X29485167Y-65030732D01*
X29485167Y-65030732D02*
X29569833Y-65073065D01*
X29569833Y-65073065D02*
X29739167Y-65073065D01*
X29739167Y-65073065D02*
X29823833Y-65030732D01*
X29823833Y-65030732D02*
X29866167Y-64988398D01*
X29866167Y-64988398D02*
X29908500Y-64903732D01*
X29908500Y-64903732D02*
X29908500Y-64692065D01*
X29908500Y-64692065D02*
X29866167Y-64607398D01*
X29866167Y-64607398D02*
X29823833Y-64565065D01*
X29823833Y-64565065D02*
X29739167Y-64522732D01*
X29739167Y-64522732D02*
X29569833Y-64522732D01*
X29569833Y-64522732D02*
X29485167Y-64565065D01*
X29485167Y-64565065D02*
X29442833Y-64607398D01*
X29442833Y-64607398D02*
X29400500Y-64692065D01*
D16*
X13276342Y-78661419D02*
X12943009Y-78185228D01*
X12704914Y-78661419D02*
X12704914Y-77661419D01*
X12704914Y-77661419D02*
X13085866Y-77661419D01*
X13085866Y-77661419D02*
X13181104Y-77709038D01*
X13181104Y-77709038D02*
X13228723Y-77756657D01*
X13228723Y-77756657D02*
X13276342Y-77851895D01*
X13276342Y-77851895D02*
X13276342Y-77994752D01*
X13276342Y-77994752D02*
X13228723Y-78089990D01*
X13228723Y-78089990D02*
X13181104Y-78137609D01*
X13181104Y-78137609D02*
X13085866Y-78185228D01*
X13085866Y-78185228D02*
X12704914Y-78185228D01*
X14228723Y-78661419D02*
X13657295Y-78661419D01*
X13943009Y-78661419D02*
X13943009Y-77661419D01*
X13943009Y-77661419D02*
X13847771Y-77804276D01*
X13847771Y-77804276D02*
X13752533Y-77899514D01*
X13752533Y-77899514D02*
X13657295Y-77947133D01*
X15085866Y-77661419D02*
X14895390Y-77661419D01*
X14895390Y-77661419D02*
X14800152Y-77709038D01*
X14800152Y-77709038D02*
X14752533Y-77756657D01*
X14752533Y-77756657D02*
X14657295Y-77899514D01*
X14657295Y-77899514D02*
X14609676Y-78089990D01*
X14609676Y-78089990D02*
X14609676Y-78470942D01*
X14609676Y-78470942D02*
X14657295Y-78566180D01*
X14657295Y-78566180D02*
X14704914Y-78613800D01*
X14704914Y-78613800D02*
X14800152Y-78661419D01*
X14800152Y-78661419D02*
X14990628Y-78661419D01*
X14990628Y-78661419D02*
X15085866Y-78613800D01*
X15085866Y-78613800D02*
X15133485Y-78566180D01*
X15133485Y-78566180D02*
X15181104Y-78470942D01*
X15181104Y-78470942D02*
X15181104Y-78232847D01*
X15181104Y-78232847D02*
X15133485Y-78137609D01*
X15133485Y-78137609D02*
X15085866Y-78089990D01*
X15085866Y-78089990D02*
X14990628Y-78042371D01*
X14990628Y-78042371D02*
X14800152Y-78042371D01*
X14800152Y-78042371D02*
X14704914Y-78089990D01*
X14704914Y-78089990D02*
X14657295Y-78137609D01*
X14657295Y-78137609D02*
X14609676Y-78232847D01*
X13752533Y-14602619D02*
X13419200Y-14126428D01*
X13181105Y-14602619D02*
X13181105Y-13602619D01*
X13181105Y-13602619D02*
X13562057Y-13602619D01*
X13562057Y-13602619D02*
X13657295Y-13650238D01*
X13657295Y-13650238D02*
X13704914Y-13697857D01*
X13704914Y-13697857D02*
X13752533Y-13793095D01*
X13752533Y-13793095D02*
X13752533Y-13935952D01*
X13752533Y-13935952D02*
X13704914Y-14031190D01*
X13704914Y-14031190D02*
X13657295Y-14078809D01*
X13657295Y-14078809D02*
X13562057Y-14126428D01*
X13562057Y-14126428D02*
X13181105Y-14126428D01*
X14228724Y-14602619D02*
X14419200Y-14602619D01*
X14419200Y-14602619D02*
X14514438Y-14555000D01*
X14514438Y-14555000D02*
X14562057Y-14507380D01*
X14562057Y-14507380D02*
X14657295Y-14364523D01*
X14657295Y-14364523D02*
X14704914Y-14174047D01*
X14704914Y-14174047D02*
X14704914Y-13793095D01*
X14704914Y-13793095D02*
X14657295Y-13697857D01*
X14657295Y-13697857D02*
X14609676Y-13650238D01*
X14609676Y-13650238D02*
X14514438Y-13602619D01*
X14514438Y-13602619D02*
X14323962Y-13602619D01*
X14323962Y-13602619D02*
X14228724Y-13650238D01*
X14228724Y-13650238D02*
X14181105Y-13697857D01*
X14181105Y-13697857D02*
X14133486Y-13793095D01*
X14133486Y-13793095D02*
X14133486Y-14031190D01*
X14133486Y-14031190D02*
X14181105Y-14126428D01*
X14181105Y-14126428D02*
X14228724Y-14174047D01*
X14228724Y-14174047D02*
X14323962Y-14221666D01*
X14323962Y-14221666D02*
X14514438Y-14221666D01*
X14514438Y-14221666D02*
X14609676Y-14174047D01*
X14609676Y-14174047D02*
X14657295Y-14126428D01*
X14657295Y-14126428D02*
X14704914Y-14031190D01*
X13824828Y-74902219D02*
X13491495Y-74426028D01*
X13253400Y-74902219D02*
X13253400Y-73902219D01*
X13253400Y-73902219D02*
X13634352Y-73902219D01*
X13634352Y-73902219D02*
X13729590Y-73949838D01*
X13729590Y-73949838D02*
X13777209Y-73997457D01*
X13777209Y-73997457D02*
X13824828Y-74092695D01*
X13824828Y-74092695D02*
X13824828Y-74235552D01*
X13824828Y-74235552D02*
X13777209Y-74330790D01*
X13777209Y-74330790D02*
X13729590Y-74378409D01*
X13729590Y-74378409D02*
X13634352Y-74426028D01*
X13634352Y-74426028D02*
X13253400Y-74426028D01*
X14396257Y-74330790D02*
X14301019Y-74283171D01*
X14301019Y-74283171D02*
X14253400Y-74235552D01*
X14253400Y-74235552D02*
X14205781Y-74140314D01*
X14205781Y-74140314D02*
X14205781Y-74092695D01*
X14205781Y-74092695D02*
X14253400Y-73997457D01*
X14253400Y-73997457D02*
X14301019Y-73949838D01*
X14301019Y-73949838D02*
X14396257Y-73902219D01*
X14396257Y-73902219D02*
X14586733Y-73902219D01*
X14586733Y-73902219D02*
X14681971Y-73949838D01*
X14681971Y-73949838D02*
X14729590Y-73997457D01*
X14729590Y-73997457D02*
X14777209Y-74092695D01*
X14777209Y-74092695D02*
X14777209Y-74140314D01*
X14777209Y-74140314D02*
X14729590Y-74235552D01*
X14729590Y-74235552D02*
X14681971Y-74283171D01*
X14681971Y-74283171D02*
X14586733Y-74330790D01*
X14586733Y-74330790D02*
X14396257Y-74330790D01*
X14396257Y-74330790D02*
X14301019Y-74378409D01*
X14301019Y-74378409D02*
X14253400Y-74426028D01*
X14253400Y-74426028D02*
X14205781Y-74521266D01*
X14205781Y-74521266D02*
X14205781Y-74711742D01*
X14205781Y-74711742D02*
X14253400Y-74806980D01*
X14253400Y-74806980D02*
X14301019Y-74854600D01*
X14301019Y-74854600D02*
X14396257Y-74902219D01*
X14396257Y-74902219D02*
X14586733Y-74902219D01*
X14586733Y-74902219D02*
X14681971Y-74854600D01*
X14681971Y-74854600D02*
X14729590Y-74806980D01*
X14729590Y-74806980D02*
X14777209Y-74711742D01*
X14777209Y-74711742D02*
X14777209Y-74521266D01*
X14777209Y-74521266D02*
X14729590Y-74426028D01*
X14729590Y-74426028D02*
X14681971Y-74378409D01*
X14681971Y-74378409D02*
X14586733Y-74330790D01*
D12*
X9605433Y-73480465D02*
X9097433Y-73480465D01*
X9351433Y-73480465D02*
X9351433Y-72591465D01*
X9351433Y-72591465D02*
X9266766Y-72718465D01*
X9266766Y-72718465D02*
X9182100Y-72803132D01*
X9182100Y-72803132D02*
X9097433Y-72845465D01*
X10155767Y-72591465D02*
X10240433Y-72591465D01*
X10240433Y-72591465D02*
X10325100Y-72633798D01*
X10325100Y-72633798D02*
X10367433Y-72676132D01*
X10367433Y-72676132D02*
X10409767Y-72760798D01*
X10409767Y-72760798D02*
X10452100Y-72930132D01*
X10452100Y-72930132D02*
X10452100Y-73141798D01*
X10452100Y-73141798D02*
X10409767Y-73311132D01*
X10409767Y-73311132D02*
X10367433Y-73395798D01*
X10367433Y-73395798D02*
X10325100Y-73438132D01*
X10325100Y-73438132D02*
X10240433Y-73480465D01*
X10240433Y-73480465D02*
X10155767Y-73480465D01*
X10155767Y-73480465D02*
X10071100Y-73438132D01*
X10071100Y-73438132D02*
X10028767Y-73395798D01*
X10028767Y-73395798D02*
X9986433Y-73311132D01*
X9986433Y-73311132D02*
X9944100Y-73141798D01*
X9944100Y-73141798D02*
X9944100Y-72930132D01*
X9944100Y-72930132D02*
X9986433Y-72760798D01*
X9986433Y-72760798D02*
X10028767Y-72676132D01*
X10028767Y-72676132D02*
X10071100Y-72633798D01*
X10071100Y-72633798D02*
X10155767Y-72591465D01*
X10833100Y-73480465D02*
X10833100Y-72591465D01*
X10917767Y-73141798D02*
X11171767Y-73480465D01*
X11171767Y-72887798D02*
X10833100Y-73226465D01*
D16*
X13225542Y-23543419D02*
X12892209Y-23067228D01*
X12654114Y-23543419D02*
X12654114Y-22543419D01*
X12654114Y-22543419D02*
X13035066Y-22543419D01*
X13035066Y-22543419D02*
X13130304Y-22591038D01*
X13130304Y-22591038D02*
X13177923Y-22638657D01*
X13177923Y-22638657D02*
X13225542Y-22733895D01*
X13225542Y-22733895D02*
X13225542Y-22876752D01*
X13225542Y-22876752D02*
X13177923Y-22971990D01*
X13177923Y-22971990D02*
X13130304Y-23019609D01*
X13130304Y-23019609D02*
X13035066Y-23067228D01*
X13035066Y-23067228D02*
X12654114Y-23067228D01*
X14177923Y-23543419D02*
X13606495Y-23543419D01*
X13892209Y-23543419D02*
X13892209Y-22543419D01*
X13892209Y-22543419D02*
X13796971Y-22686276D01*
X13796971Y-22686276D02*
X13701733Y-22781514D01*
X13701733Y-22781514D02*
X13606495Y-22829133D01*
X14796971Y-22543419D02*
X14892209Y-22543419D01*
X14892209Y-22543419D02*
X14987447Y-22591038D01*
X14987447Y-22591038D02*
X15035066Y-22638657D01*
X15035066Y-22638657D02*
X15082685Y-22733895D01*
X15082685Y-22733895D02*
X15130304Y-22924371D01*
X15130304Y-22924371D02*
X15130304Y-23162466D01*
X15130304Y-23162466D02*
X15082685Y-23352942D01*
X15082685Y-23352942D02*
X15035066Y-23448180D01*
X15035066Y-23448180D02*
X14987447Y-23495800D01*
X14987447Y-23495800D02*
X14892209Y-23543419D01*
X14892209Y-23543419D02*
X14796971Y-23543419D01*
X14796971Y-23543419D02*
X14701733Y-23495800D01*
X14701733Y-23495800D02*
X14654114Y-23448180D01*
X14654114Y-23448180D02*
X14606495Y-23352942D01*
X14606495Y-23352942D02*
X14558876Y-23162466D01*
X14558876Y-23162466D02*
X14558876Y-22924371D01*
X14558876Y-22924371D02*
X14606495Y-22733895D01*
X14606495Y-22733895D02*
X14654114Y-22638657D01*
X14654114Y-22638657D02*
X14701733Y-22591038D01*
X14701733Y-22591038D02*
X14796971Y-22543419D01*
X24067233Y-28389880D02*
X24019614Y-28437500D01*
X24019614Y-28437500D02*
X23876757Y-28485119D01*
X23876757Y-28485119D02*
X23781519Y-28485119D01*
X23781519Y-28485119D02*
X23638662Y-28437500D01*
X23638662Y-28437500D02*
X23543424Y-28342261D01*
X23543424Y-28342261D02*
X23495805Y-28247023D01*
X23495805Y-28247023D02*
X23448186Y-28056547D01*
X23448186Y-28056547D02*
X23448186Y-27913690D01*
X23448186Y-27913690D02*
X23495805Y-27723214D01*
X23495805Y-27723214D02*
X23543424Y-27627976D01*
X23543424Y-27627976D02*
X23638662Y-27532738D01*
X23638662Y-27532738D02*
X23781519Y-27485119D01*
X23781519Y-27485119D02*
X23876757Y-27485119D01*
X23876757Y-27485119D02*
X24019614Y-27532738D01*
X24019614Y-27532738D02*
X24067233Y-27580357D01*
X24924376Y-27818452D02*
X24924376Y-28485119D01*
X24686281Y-27437500D02*
X24448186Y-28151785D01*
X24448186Y-28151785D02*
X25067233Y-28151785D01*
X13276342Y-51102419D02*
X12943009Y-50626228D01*
X12704914Y-51102419D02*
X12704914Y-50102419D01*
X12704914Y-50102419D02*
X13085866Y-50102419D01*
X13085866Y-50102419D02*
X13181104Y-50150038D01*
X13181104Y-50150038D02*
X13228723Y-50197657D01*
X13228723Y-50197657D02*
X13276342Y-50292895D01*
X13276342Y-50292895D02*
X13276342Y-50435752D01*
X13276342Y-50435752D02*
X13228723Y-50530990D01*
X13228723Y-50530990D02*
X13181104Y-50578609D01*
X13181104Y-50578609D02*
X13085866Y-50626228D01*
X13085866Y-50626228D02*
X12704914Y-50626228D01*
X14228723Y-51102419D02*
X13657295Y-51102419D01*
X13943009Y-51102419D02*
X13943009Y-50102419D01*
X13943009Y-50102419D02*
X13847771Y-50245276D01*
X13847771Y-50245276D02*
X13752533Y-50340514D01*
X13752533Y-50340514D02*
X13657295Y-50388133D01*
X14562057Y-50102419D02*
X15181104Y-50102419D01*
X15181104Y-50102419D02*
X14847771Y-50483371D01*
X14847771Y-50483371D02*
X14990628Y-50483371D01*
X14990628Y-50483371D02*
X15085866Y-50530990D01*
X15085866Y-50530990D02*
X15133485Y-50578609D01*
X15133485Y-50578609D02*
X15181104Y-50673847D01*
X15181104Y-50673847D02*
X15181104Y-50911942D01*
X15181104Y-50911942D02*
X15133485Y-51007180D01*
X15133485Y-51007180D02*
X15085866Y-51054800D01*
X15085866Y-51054800D02*
X14990628Y-51102419D01*
X14990628Y-51102419D02*
X14704914Y-51102419D01*
X14704914Y-51102419D02*
X14609676Y-51054800D01*
X14609676Y-51054800D02*
X14562057Y-51007180D01*
X19203205Y-42157464D02*
X19203205Y-41157464D01*
X19203205Y-41157464D02*
X19441300Y-41157464D01*
X19441300Y-41157464D02*
X19584157Y-41205083D01*
X19584157Y-41205083D02*
X19679395Y-41300321D01*
X19679395Y-41300321D02*
X19727014Y-41395559D01*
X19727014Y-41395559D02*
X19774633Y-41586035D01*
X19774633Y-41586035D02*
X19774633Y-41728892D01*
X19774633Y-41728892D02*
X19727014Y-41919368D01*
X19727014Y-41919368D02*
X19679395Y-42014606D01*
X19679395Y-42014606D02*
X19584157Y-42109845D01*
X19584157Y-42109845D02*
X19441300Y-42157464D01*
X19441300Y-42157464D02*
X19203205Y-42157464D01*
X20631776Y-41490797D02*
X20631776Y-42157464D01*
X20393681Y-41109845D02*
X20155586Y-41824130D01*
X20155586Y-41824130D02*
X20774633Y-41824130D01*
X24168833Y-9771680D02*
X24121214Y-9819300D01*
X24121214Y-9819300D02*
X23978357Y-9866919D01*
X23978357Y-9866919D02*
X23883119Y-9866919D01*
X23883119Y-9866919D02*
X23740262Y-9819300D01*
X23740262Y-9819300D02*
X23645024Y-9724061D01*
X23645024Y-9724061D02*
X23597405Y-9628823D01*
X23597405Y-9628823D02*
X23549786Y-9438347D01*
X23549786Y-9438347D02*
X23549786Y-9295490D01*
X23549786Y-9295490D02*
X23597405Y-9105014D01*
X23597405Y-9105014D02*
X23645024Y-9009776D01*
X23645024Y-9009776D02*
X23740262Y-8914538D01*
X23740262Y-8914538D02*
X23883119Y-8866919D01*
X23883119Y-8866919D02*
X23978357Y-8866919D01*
X23978357Y-8866919D02*
X24121214Y-8914538D01*
X24121214Y-8914538D02*
X24168833Y-8962157D01*
X24549786Y-8962157D02*
X24597405Y-8914538D01*
X24597405Y-8914538D02*
X24692643Y-8866919D01*
X24692643Y-8866919D02*
X24930738Y-8866919D01*
X24930738Y-8866919D02*
X25025976Y-8914538D01*
X25025976Y-8914538D02*
X25073595Y-8962157D01*
X25073595Y-8962157D02*
X25121214Y-9057395D01*
X25121214Y-9057395D02*
X25121214Y-9152633D01*
X25121214Y-9152633D02*
X25073595Y-9295490D01*
X25073595Y-9295490D02*
X24502167Y-9866919D01*
X24502167Y-9866919D02*
X25121214Y-9866919D01*
D12*
X23366066Y-15912765D02*
X22858066Y-15912765D01*
X23112066Y-15912765D02*
X23112066Y-15023765D01*
X23112066Y-15023765D02*
X23027399Y-15150765D01*
X23027399Y-15150765D02*
X22942733Y-15235432D01*
X22942733Y-15235432D02*
X22858066Y-15277765D01*
X23916400Y-15023765D02*
X24001066Y-15023765D01*
X24001066Y-15023765D02*
X24085733Y-15066098D01*
X24085733Y-15066098D02*
X24128066Y-15108432D01*
X24128066Y-15108432D02*
X24170400Y-15193098D01*
X24170400Y-15193098D02*
X24212733Y-15362432D01*
X24212733Y-15362432D02*
X24212733Y-15574098D01*
X24212733Y-15574098D02*
X24170400Y-15743432D01*
X24170400Y-15743432D02*
X24128066Y-15828098D01*
X24128066Y-15828098D02*
X24085733Y-15870432D01*
X24085733Y-15870432D02*
X24001066Y-15912765D01*
X24001066Y-15912765D02*
X23916400Y-15912765D01*
X23916400Y-15912765D02*
X23831733Y-15870432D01*
X23831733Y-15870432D02*
X23789400Y-15828098D01*
X23789400Y-15828098D02*
X23747066Y-15743432D01*
X23747066Y-15743432D02*
X23704733Y-15574098D01*
X23704733Y-15574098D02*
X23704733Y-15362432D01*
X23704733Y-15362432D02*
X23747066Y-15193098D01*
X23747066Y-15193098D02*
X23789400Y-15108432D01*
X23789400Y-15108432D02*
X23831733Y-15066098D01*
X23831733Y-15066098D02*
X23916400Y-15023765D01*
X24763067Y-15023765D02*
X24847733Y-15023765D01*
X24847733Y-15023765D02*
X24932400Y-15066098D01*
X24932400Y-15066098D02*
X24974733Y-15108432D01*
X24974733Y-15108432D02*
X25017067Y-15193098D01*
X25017067Y-15193098D02*
X25059400Y-15362432D01*
X25059400Y-15362432D02*
X25059400Y-15574098D01*
X25059400Y-15574098D02*
X25017067Y-15743432D01*
X25017067Y-15743432D02*
X24974733Y-15828098D01*
X24974733Y-15828098D02*
X24932400Y-15870432D01*
X24932400Y-15870432D02*
X24847733Y-15912765D01*
X24847733Y-15912765D02*
X24763067Y-15912765D01*
X24763067Y-15912765D02*
X24678400Y-15870432D01*
X24678400Y-15870432D02*
X24636067Y-15828098D01*
X24636067Y-15828098D02*
X24593733Y-15743432D01*
X24593733Y-15743432D02*
X24551400Y-15574098D01*
X24551400Y-15574098D02*
X24551400Y-15362432D01*
X24551400Y-15362432D02*
X24593733Y-15193098D01*
X24593733Y-15193098D02*
X24636067Y-15108432D01*
X24636067Y-15108432D02*
X24678400Y-15066098D01*
X24678400Y-15066098D02*
X24763067Y-15023765D01*
X25440400Y-15320098D02*
X25440400Y-15912765D01*
X25440400Y-15404765D02*
X25482734Y-15362432D01*
X25482734Y-15362432D02*
X25567400Y-15320098D01*
X25567400Y-15320098D02*
X25694400Y-15320098D01*
X25694400Y-15320098D02*
X25779067Y-15362432D01*
X25779067Y-15362432D02*
X25821400Y-15447098D01*
X25821400Y-15447098D02*
X25821400Y-15912765D01*
D16*
X24242733Y-2848780D02*
X24195114Y-2896400D01*
X24195114Y-2896400D02*
X24052257Y-2944019D01*
X24052257Y-2944019D02*
X23957019Y-2944019D01*
X23957019Y-2944019D02*
X23814162Y-2896400D01*
X23814162Y-2896400D02*
X23718924Y-2801161D01*
X23718924Y-2801161D02*
X23671305Y-2705923D01*
X23671305Y-2705923D02*
X23623686Y-2515447D01*
X23623686Y-2515447D02*
X23623686Y-2372590D01*
X23623686Y-2372590D02*
X23671305Y-2182114D01*
X23671305Y-2182114D02*
X23718924Y-2086876D01*
X23718924Y-2086876D02*
X23814162Y-1991638D01*
X23814162Y-1991638D02*
X23957019Y-1944019D01*
X23957019Y-1944019D02*
X24052257Y-1944019D01*
X24052257Y-1944019D02*
X24195114Y-1991638D01*
X24195114Y-1991638D02*
X24242733Y-2039257D01*
X25195114Y-2944019D02*
X24623686Y-2944019D01*
X24909400Y-2944019D02*
X24909400Y-1944019D01*
X24909400Y-1944019D02*
X24814162Y-2086876D01*
X24814162Y-2086876D02*
X24718924Y-2182114D01*
X24718924Y-2182114D02*
X24623686Y-2229733D01*
D12*
X26411766Y-4570265D02*
X25903766Y-4570265D01*
X26157766Y-4570265D02*
X26157766Y-3681265D01*
X26157766Y-3681265D02*
X26073099Y-3808265D01*
X26073099Y-3808265D02*
X25988433Y-3892932D01*
X25988433Y-3892932D02*
X25903766Y-3935265D01*
X26962100Y-3681265D02*
X27046766Y-3681265D01*
X27046766Y-3681265D02*
X27131433Y-3723598D01*
X27131433Y-3723598D02*
X27173766Y-3765932D01*
X27173766Y-3765932D02*
X27216100Y-3850598D01*
X27216100Y-3850598D02*
X27258433Y-4019932D01*
X27258433Y-4019932D02*
X27258433Y-4231598D01*
X27258433Y-4231598D02*
X27216100Y-4400932D01*
X27216100Y-4400932D02*
X27173766Y-4485598D01*
X27173766Y-4485598D02*
X27131433Y-4527932D01*
X27131433Y-4527932D02*
X27046766Y-4570265D01*
X27046766Y-4570265D02*
X26962100Y-4570265D01*
X26962100Y-4570265D02*
X26877433Y-4527932D01*
X26877433Y-4527932D02*
X26835100Y-4485598D01*
X26835100Y-4485598D02*
X26792766Y-4400932D01*
X26792766Y-4400932D02*
X26750433Y-4231598D01*
X26750433Y-4231598D02*
X26750433Y-4019932D01*
X26750433Y-4019932D02*
X26792766Y-3850598D01*
X26792766Y-3850598D02*
X26835100Y-3765932D01*
X26835100Y-3765932D02*
X26877433Y-3723598D01*
X26877433Y-3723598D02*
X26962100Y-3681265D01*
X27808767Y-3681265D02*
X27893433Y-3681265D01*
X27893433Y-3681265D02*
X27978100Y-3723598D01*
X27978100Y-3723598D02*
X28020433Y-3765932D01*
X28020433Y-3765932D02*
X28062767Y-3850598D01*
X28062767Y-3850598D02*
X28105100Y-4019932D01*
X28105100Y-4019932D02*
X28105100Y-4231598D01*
X28105100Y-4231598D02*
X28062767Y-4400932D01*
X28062767Y-4400932D02*
X28020433Y-4485598D01*
X28020433Y-4485598D02*
X27978100Y-4527932D01*
X27978100Y-4527932D02*
X27893433Y-4570265D01*
X27893433Y-4570265D02*
X27808767Y-4570265D01*
X27808767Y-4570265D02*
X27724100Y-4527932D01*
X27724100Y-4527932D02*
X27681767Y-4485598D01*
X27681767Y-4485598D02*
X27639433Y-4400932D01*
X27639433Y-4400932D02*
X27597100Y-4231598D01*
X27597100Y-4231598D02*
X27597100Y-4019932D01*
X27597100Y-4019932D02*
X27639433Y-3850598D01*
X27639433Y-3850598D02*
X27681767Y-3765932D01*
X27681767Y-3765932D02*
X27724100Y-3723598D01*
X27724100Y-3723598D02*
X27808767Y-3681265D01*
X28486100Y-3977598D02*
X28486100Y-4570265D01*
X28486100Y-4062265D02*
X28528434Y-4019932D01*
X28528434Y-4019932D02*
X28613100Y-3977598D01*
X28613100Y-3977598D02*
X28740100Y-3977598D01*
X28740100Y-3977598D02*
X28824767Y-4019932D01*
X28824767Y-4019932D02*
X28867100Y-4104598D01*
X28867100Y-4104598D02*
X28867100Y-4570265D01*
D16*
X13723228Y-19301619D02*
X13389895Y-18825428D01*
X13151800Y-19301619D02*
X13151800Y-18301619D01*
X13151800Y-18301619D02*
X13532752Y-18301619D01*
X13532752Y-18301619D02*
X13627990Y-18349238D01*
X13627990Y-18349238D02*
X13675609Y-18396857D01*
X13675609Y-18396857D02*
X13723228Y-18492095D01*
X13723228Y-18492095D02*
X13723228Y-18634952D01*
X13723228Y-18634952D02*
X13675609Y-18730190D01*
X13675609Y-18730190D02*
X13627990Y-18777809D01*
X13627990Y-18777809D02*
X13532752Y-18825428D01*
X13532752Y-18825428D02*
X13151800Y-18825428D01*
X14104181Y-18396857D02*
X14151800Y-18349238D01*
X14151800Y-18349238D02*
X14247038Y-18301619D01*
X14247038Y-18301619D02*
X14485133Y-18301619D01*
X14485133Y-18301619D02*
X14580371Y-18349238D01*
X14580371Y-18349238D02*
X14627990Y-18396857D01*
X14627990Y-18396857D02*
X14675609Y-18492095D01*
X14675609Y-18492095D02*
X14675609Y-18587333D01*
X14675609Y-18587333D02*
X14627990Y-18730190D01*
X14627990Y-18730190D02*
X14056562Y-19301619D01*
X14056562Y-19301619D02*
X14675609Y-19301619D01*
D12*
X28553833Y-46454865D02*
X28553833Y-45565865D01*
X28553833Y-45565865D02*
X28892500Y-45565865D01*
X28892500Y-45565865D02*
X28977167Y-45608198D01*
X28977167Y-45608198D02*
X29019500Y-45650532D01*
X29019500Y-45650532D02*
X29061833Y-45735198D01*
X29061833Y-45735198D02*
X29061833Y-45862198D01*
X29061833Y-45862198D02*
X29019500Y-45946865D01*
X29019500Y-45946865D02*
X28977167Y-45989198D01*
X28977167Y-45989198D02*
X28892500Y-46031532D01*
X28892500Y-46031532D02*
X28553833Y-46031532D01*
X29823833Y-45862198D02*
X29823833Y-46454865D01*
X29612167Y-45523532D02*
X29400500Y-46158532D01*
X29400500Y-46158532D02*
X29950833Y-46158532D01*
D16*
X19302505Y-14450219D02*
X19302505Y-13450219D01*
X19302505Y-13450219D02*
X19540600Y-13450219D01*
X19540600Y-13450219D02*
X19683457Y-13497838D01*
X19683457Y-13497838D02*
X19778695Y-13593076D01*
X19778695Y-13593076D02*
X19826314Y-13688314D01*
X19826314Y-13688314D02*
X19873933Y-13878790D01*
X19873933Y-13878790D02*
X19873933Y-14021647D01*
X19873933Y-14021647D02*
X19826314Y-14212123D01*
X19826314Y-14212123D02*
X19778695Y-14307361D01*
X19778695Y-14307361D02*
X19683457Y-14402600D01*
X19683457Y-14402600D02*
X19540600Y-14450219D01*
X19540600Y-14450219D02*
X19302505Y-14450219D01*
X20826314Y-14450219D02*
X20254886Y-14450219D01*
X20540600Y-14450219D02*
X20540600Y-13450219D01*
X20540600Y-13450219D02*
X20445362Y-13593076D01*
X20445362Y-13593076D02*
X20350124Y-13688314D01*
X20350124Y-13688314D02*
X20254886Y-13735933D01*
X13225542Y-69238019D02*
X12892209Y-68761828D01*
X12654114Y-69238019D02*
X12654114Y-68238019D01*
X12654114Y-68238019D02*
X13035066Y-68238019D01*
X13035066Y-68238019D02*
X13130304Y-68285638D01*
X13130304Y-68285638D02*
X13177923Y-68333257D01*
X13177923Y-68333257D02*
X13225542Y-68428495D01*
X13225542Y-68428495D02*
X13225542Y-68571352D01*
X13225542Y-68571352D02*
X13177923Y-68666590D01*
X13177923Y-68666590D02*
X13130304Y-68714209D01*
X13130304Y-68714209D02*
X13035066Y-68761828D01*
X13035066Y-68761828D02*
X12654114Y-68761828D01*
X14177923Y-69238019D02*
X13606495Y-69238019D01*
X13892209Y-69238019D02*
X13892209Y-68238019D01*
X13892209Y-68238019D02*
X13796971Y-68380876D01*
X13796971Y-68380876D02*
X13701733Y-68476114D01*
X13701733Y-68476114D02*
X13606495Y-68523733D01*
X15082685Y-68238019D02*
X14606495Y-68238019D01*
X14606495Y-68238019D02*
X14558876Y-68714209D01*
X14558876Y-68714209D02*
X14606495Y-68666590D01*
X14606495Y-68666590D02*
X14701733Y-68618971D01*
X14701733Y-68618971D02*
X14939828Y-68618971D01*
X14939828Y-68618971D02*
X15035066Y-68666590D01*
X15035066Y-68666590D02*
X15082685Y-68714209D01*
X15082685Y-68714209D02*
X15130304Y-68809447D01*
X15130304Y-68809447D02*
X15130304Y-69047542D01*
X15130304Y-69047542D02*
X15082685Y-69142780D01*
X15082685Y-69142780D02*
X15035066Y-69190400D01*
X15035066Y-69190400D02*
X14939828Y-69238019D01*
X14939828Y-69238019D02*
X14701733Y-69238019D01*
X14701733Y-69238019D02*
X14606495Y-69190400D01*
X14606495Y-69190400D02*
X14558876Y-69142780D01*
X24143433Y-46855680D02*
X24095814Y-46903300D01*
X24095814Y-46903300D02*
X23952957Y-46950919D01*
X23952957Y-46950919D02*
X23857719Y-46950919D01*
X23857719Y-46950919D02*
X23714862Y-46903300D01*
X23714862Y-46903300D02*
X23619624Y-46808061D01*
X23619624Y-46808061D02*
X23572005Y-46712823D01*
X23572005Y-46712823D02*
X23524386Y-46522347D01*
X23524386Y-46522347D02*
X23524386Y-46379490D01*
X23524386Y-46379490D02*
X23572005Y-46189014D01*
X23572005Y-46189014D02*
X23619624Y-46093776D01*
X23619624Y-46093776D02*
X23714862Y-45998538D01*
X23714862Y-45998538D02*
X23857719Y-45950919D01*
X23857719Y-45950919D02*
X23952957Y-45950919D01*
X23952957Y-45950919D02*
X24095814Y-45998538D01*
X24095814Y-45998538D02*
X24143433Y-46046157D01*
X25000576Y-45950919D02*
X24810100Y-45950919D01*
X24810100Y-45950919D02*
X24714862Y-45998538D01*
X24714862Y-45998538D02*
X24667243Y-46046157D01*
X24667243Y-46046157D02*
X24572005Y-46189014D01*
X24572005Y-46189014D02*
X24524386Y-46379490D01*
X24524386Y-46379490D02*
X24524386Y-46760442D01*
X24524386Y-46760442D02*
X24572005Y-46855680D01*
X24572005Y-46855680D02*
X24619624Y-46903300D01*
X24619624Y-46903300D02*
X24714862Y-46950919D01*
X24714862Y-46950919D02*
X24905338Y-46950919D01*
X24905338Y-46950919D02*
X25000576Y-46903300D01*
X25000576Y-46903300D02*
X25048195Y-46855680D01*
X25048195Y-46855680D02*
X25095814Y-46760442D01*
X25095814Y-46760442D02*
X25095814Y-46522347D01*
X25095814Y-46522347D02*
X25048195Y-46427109D01*
X25048195Y-46427109D02*
X25000576Y-46379490D01*
X25000576Y-46379490D02*
X24905338Y-46331871D01*
X24905338Y-46331871D02*
X24714862Y-46331871D01*
X24714862Y-46331871D02*
X24619624Y-46379490D01*
X24619624Y-46379490D02*
X24572005Y-46427109D01*
X24572005Y-46427109D02*
X24524386Y-46522347D01*
D14*
X47166590Y-49254174D02*
X47166590Y-48238174D01*
X48230972Y-49157413D02*
X48182591Y-49205794D01*
X48182591Y-49205794D02*
X48037448Y-49254174D01*
X48037448Y-49254174D02*
X47940686Y-49254174D01*
X47940686Y-49254174D02*
X47795543Y-49205794D01*
X47795543Y-49205794D02*
X47698781Y-49109032D01*
X47698781Y-49109032D02*
X47650400Y-49012270D01*
X47650400Y-49012270D02*
X47602019Y-48818746D01*
X47602019Y-48818746D02*
X47602019Y-48673603D01*
X47602019Y-48673603D02*
X47650400Y-48480079D01*
X47650400Y-48480079D02*
X47698781Y-48383317D01*
X47698781Y-48383317D02*
X47795543Y-48286555D01*
X47795543Y-48286555D02*
X47940686Y-48238174D01*
X47940686Y-48238174D02*
X48037448Y-48238174D01*
X48037448Y-48238174D02*
X48182591Y-48286555D01*
X48182591Y-48286555D02*
X48230972Y-48334936D01*
X49198591Y-49254174D02*
X48618019Y-49254174D01*
X48908305Y-49254174D02*
X48908305Y-48238174D01*
X48908305Y-48238174D02*
X48811543Y-48383317D01*
X48811543Y-48383317D02*
X48714781Y-48480079D01*
X48714781Y-48480079D02*
X48618019Y-48528460D01*
D12*
X37227932Y-60907465D02*
X37227932Y-60018465D01*
X37227932Y-60018465D02*
X37566599Y-60018465D01*
X37566599Y-60018465D02*
X37651266Y-60060798D01*
X37651266Y-60060798D02*
X37693599Y-60103132D01*
X37693599Y-60103132D02*
X37735932Y-60187798D01*
X37735932Y-60187798D02*
X37735932Y-60314798D01*
X37735932Y-60314798D02*
X37693599Y-60399465D01*
X37693599Y-60399465D02*
X37651266Y-60441798D01*
X37651266Y-60441798D02*
X37566599Y-60484132D01*
X37566599Y-60484132D02*
X37227932Y-60484132D01*
X38624932Y-60822798D02*
X38582599Y-60865132D01*
X38582599Y-60865132D02*
X38455599Y-60907465D01*
X38455599Y-60907465D02*
X38370932Y-60907465D01*
X38370932Y-60907465D02*
X38243932Y-60865132D01*
X38243932Y-60865132D02*
X38159266Y-60780465D01*
X38159266Y-60780465D02*
X38116932Y-60695798D01*
X38116932Y-60695798D02*
X38074599Y-60526465D01*
X38074599Y-60526465D02*
X38074599Y-60399465D01*
X38074599Y-60399465D02*
X38116932Y-60230132D01*
X38116932Y-60230132D02*
X38159266Y-60145465D01*
X38159266Y-60145465D02*
X38243932Y-60060798D01*
X38243932Y-60060798D02*
X38370932Y-60018465D01*
X38370932Y-60018465D02*
X38455599Y-60018465D01*
X38455599Y-60018465D02*
X38582599Y-60060798D01*
X38582599Y-60060798D02*
X38624932Y-60103132D01*
X38963599Y-60653465D02*
X39386932Y-60653465D01*
X38878932Y-60907465D02*
X39175266Y-60018465D01*
X39175266Y-60018465D02*
X39471599Y-60907465D01*
X39810266Y-60907465D02*
X39979599Y-60907465D01*
X39979599Y-60907465D02*
X40064266Y-60865132D01*
X40064266Y-60865132D02*
X40106599Y-60822798D01*
X40106599Y-60822798D02*
X40191266Y-60695798D01*
X40191266Y-60695798D02*
X40233599Y-60526465D01*
X40233599Y-60526465D02*
X40233599Y-60187798D01*
X40233599Y-60187798D02*
X40191266Y-60103132D01*
X40191266Y-60103132D02*
X40148932Y-60060798D01*
X40148932Y-60060798D02*
X40064266Y-60018465D01*
X40064266Y-60018465D02*
X39894932Y-60018465D01*
X39894932Y-60018465D02*
X39810266Y-60060798D01*
X39810266Y-60060798D02*
X39767932Y-60103132D01*
X39767932Y-60103132D02*
X39725599Y-60187798D01*
X39725599Y-60187798D02*
X39725599Y-60399465D01*
X39725599Y-60399465D02*
X39767932Y-60484132D01*
X39767932Y-60484132D02*
X39810266Y-60526465D01*
X39810266Y-60526465D02*
X39894932Y-60568798D01*
X39894932Y-60568798D02*
X40064266Y-60568798D01*
X40064266Y-60568798D02*
X40148932Y-60526465D01*
X40148932Y-60526465D02*
X40191266Y-60484132D01*
X40191266Y-60484132D02*
X40233599Y-60399465D01*
X41037933Y-60018465D02*
X40614599Y-60018465D01*
X40614599Y-60018465D02*
X40572266Y-60441798D01*
X40572266Y-60441798D02*
X40614599Y-60399465D01*
X40614599Y-60399465D02*
X40699266Y-60357132D01*
X40699266Y-60357132D02*
X40910933Y-60357132D01*
X40910933Y-60357132D02*
X40995599Y-60399465D01*
X40995599Y-60399465D02*
X41037933Y-60441798D01*
X41037933Y-60441798D02*
X41080266Y-60526465D01*
X41080266Y-60526465D02*
X41080266Y-60738132D01*
X41080266Y-60738132D02*
X41037933Y-60822798D01*
X41037933Y-60822798D02*
X40995599Y-60865132D01*
X40995599Y-60865132D02*
X40910933Y-60907465D01*
X40910933Y-60907465D02*
X40699266Y-60907465D01*
X40699266Y-60907465D02*
X40614599Y-60865132D01*
X40614599Y-60865132D02*
X40572266Y-60822798D01*
X41884600Y-60018465D02*
X41461266Y-60018465D01*
X41461266Y-60018465D02*
X41418933Y-60441798D01*
X41418933Y-60441798D02*
X41461266Y-60399465D01*
X41461266Y-60399465D02*
X41545933Y-60357132D01*
X41545933Y-60357132D02*
X41757600Y-60357132D01*
X41757600Y-60357132D02*
X41842266Y-60399465D01*
X41842266Y-60399465D02*
X41884600Y-60441798D01*
X41884600Y-60441798D02*
X41926933Y-60526465D01*
X41926933Y-60526465D02*
X41926933Y-60738132D01*
X41926933Y-60738132D02*
X41884600Y-60822798D01*
X41884600Y-60822798D02*
X41842266Y-60865132D01*
X41842266Y-60865132D02*
X41757600Y-60907465D01*
X41757600Y-60907465D02*
X41545933Y-60907465D01*
X41545933Y-60907465D02*
X41461266Y-60865132D01*
X41461266Y-60865132D02*
X41418933Y-60822798D01*
X42688933Y-60314798D02*
X42688933Y-60907465D01*
X42477267Y-59976132D02*
X42265600Y-60611132D01*
X42265600Y-60611132D02*
X42815933Y-60611132D01*
X43154600Y-60907465D02*
X43154600Y-60018465D01*
X43154600Y-60018465D02*
X43366267Y-60018465D01*
X43366267Y-60018465D02*
X43493267Y-60060798D01*
X43493267Y-60060798D02*
X43577934Y-60145465D01*
X43577934Y-60145465D02*
X43620267Y-60230132D01*
X43620267Y-60230132D02*
X43662600Y-60399465D01*
X43662600Y-60399465D02*
X43662600Y-60526465D01*
X43662600Y-60526465D02*
X43620267Y-60695798D01*
X43620267Y-60695798D02*
X43577934Y-60780465D01*
X43577934Y-60780465D02*
X43493267Y-60865132D01*
X43493267Y-60865132D02*
X43366267Y-60907465D01*
X43366267Y-60907465D02*
X43154600Y-60907465D01*
X43958934Y-60018465D02*
X44170600Y-60907465D01*
X44170600Y-60907465D02*
X44339934Y-60272465D01*
X44339934Y-60272465D02*
X44509267Y-60907465D01*
X44509267Y-60907465D02*
X44720934Y-60018465D01*
X45567600Y-60907465D02*
X45271267Y-60484132D01*
X45059600Y-60907465D02*
X45059600Y-60018465D01*
X45059600Y-60018465D02*
X45398267Y-60018465D01*
X45398267Y-60018465D02*
X45482934Y-60060798D01*
X45482934Y-60060798D02*
X45525267Y-60103132D01*
X45525267Y-60103132D02*
X45567600Y-60187798D01*
X45567600Y-60187798D02*
X45567600Y-60314798D01*
X45567600Y-60314798D02*
X45525267Y-60399465D01*
X45525267Y-60399465D02*
X45482934Y-60441798D01*
X45482934Y-60441798D02*
X45398267Y-60484132D01*
X45398267Y-60484132D02*
X45059600Y-60484132D01*
D16*
X24143433Y-56025080D02*
X24095814Y-56072700D01*
X24095814Y-56072700D02*
X23952957Y-56120319D01*
X23952957Y-56120319D02*
X23857719Y-56120319D01*
X23857719Y-56120319D02*
X23714862Y-56072700D01*
X23714862Y-56072700D02*
X23619624Y-55977461D01*
X23619624Y-55977461D02*
X23572005Y-55882223D01*
X23572005Y-55882223D02*
X23524386Y-55691747D01*
X23524386Y-55691747D02*
X23524386Y-55548890D01*
X23524386Y-55548890D02*
X23572005Y-55358414D01*
X23572005Y-55358414D02*
X23619624Y-55263176D01*
X23619624Y-55263176D02*
X23714862Y-55167938D01*
X23714862Y-55167938D02*
X23857719Y-55120319D01*
X23857719Y-55120319D02*
X23952957Y-55120319D01*
X23952957Y-55120319D02*
X24095814Y-55167938D01*
X24095814Y-55167938D02*
X24143433Y-55215557D01*
X24476767Y-55120319D02*
X25143433Y-55120319D01*
X25143433Y-55120319D02*
X24714862Y-56120319D01*
D17*
%TO.C,R12*%
X14044664Y-43080000D02*
X13590536Y-43080000D01*
X14044664Y-44550000D02*
X13590536Y-44550000D01*
%TO.C,D3*%
X19280900Y-28156900D02*
X18630900Y-28156900D01*
X19280900Y-28156900D02*
X19930900Y-28156900D01*
X19280900Y-31276900D02*
X18630900Y-31276900D01*
X19280900Y-31276900D02*
X19930900Y-31276900D01*
X20683400Y-31556900D02*
X20203400Y-31556900D01*
X20443400Y-31226900D01*
X20683400Y-31556900D01*
G36*
X20683400Y-31556900D02*
G01*
X20203400Y-31556900D01*
X20443400Y-31226900D01*
X20683400Y-31556900D01*
G37*
%TO.C,C9*%
X23625900Y-76714848D02*
X23625900Y-77237352D01*
X25095900Y-76714848D02*
X25095900Y-77237352D01*
%TO.C,J16*%
X27830000Y-74616800D02*
X29210000Y-74616800D01*
X27830000Y-75996800D02*
X27830000Y-74616800D01*
X27830000Y-77266800D02*
X27830000Y-77376800D01*
X27830000Y-77266800D02*
X30590000Y-77266800D01*
X27830000Y-77376800D02*
X30590000Y-77376800D01*
X30590000Y-77266800D02*
X30590000Y-77376800D01*
%TO.C,C10*%
X24284000Y-84436852D02*
X24284000Y-83914348D01*
X25754000Y-84436852D02*
X25754000Y-83914348D01*
%TO.C,JP2*%
X42028600Y-39226000D02*
X42028600Y-37846000D01*
X43408600Y-39226000D02*
X42028600Y-39226000D01*
X44678600Y-36466000D02*
X49868600Y-36466000D01*
X44678600Y-39226000D02*
X44678600Y-36466000D01*
X44678600Y-39226000D02*
X49868600Y-39226000D01*
X49868600Y-39226000D02*
X49868600Y-36466000D01*
%TO.C,J17*%
X53611000Y-36085000D02*
X54991000Y-36085000D01*
X53611000Y-37465000D02*
X53611000Y-36085000D01*
X53611000Y-38735000D02*
X53611000Y-74405000D01*
X53611000Y-38735000D02*
X56261000Y-38735000D01*
X53611000Y-74405000D02*
X58911000Y-74405000D01*
X56261000Y-36085000D02*
X58911000Y-36085000D01*
X56261000Y-38735000D02*
X56261000Y-36085000D01*
X58911000Y-36085000D02*
X58911000Y-74405000D01*
%TO.C,H4*%
X56184801Y-91287600D02*
X56184801Y-91287600D01*
X56184801Y-91287600D01*
X56184801Y-91287600D01*
X56184801Y-91287600D01*
X56184801Y-91287600D01*
X56184801Y-91287601D01*
X56184801Y-91287601D01*
X56184801Y-91287601D01*
X56184801Y-91287601D01*
X56184801Y-91287601D01*
X56184801Y-91287601D01*
X56184801Y-91287601D01*
X56184800Y-91287601D01*
X56184800Y-91287601D01*
X56184800Y-91287601D01*
X56184800Y-91287601D01*
X56184800Y-91287601D01*
X56184800Y-91287601D01*
X56184800Y-91287601D01*
X56184800Y-91287601D01*
X56184800Y-91287601D01*
X56184800Y-91287601D01*
X56184800Y-91287601D01*
X56184800Y-91287601D01*
X56184799Y-91287601D01*
X56184799Y-91287601D01*
X56184799Y-91287601D01*
X56184799Y-91287601D01*
X56184799Y-91287601D01*
X56184799Y-91287601D01*
X56184799Y-91287600D01*
X56184799Y-91287600D01*
X56184799Y-91287600D01*
X56184799Y-91287600D01*
X56184799Y-91287600D01*
X56184799Y-91287600D01*
X56184799Y-91287600D02*
X56184799Y-91287600D01*
X56184799Y-91287600D01*
X56184799Y-91287600D01*
X56184799Y-91287600D01*
X56184799Y-91287600D01*
X56184799Y-91287600D01*
X56184799Y-91287599D01*
X56184799Y-91287599D01*
X56184799Y-91287599D01*
X56184799Y-91287599D01*
X56184799Y-91287599D01*
X56184800Y-91287599D01*
X56184800Y-91287599D01*
X56184800Y-91287599D01*
X56184800Y-91287599D01*
X56184800Y-91287599D01*
X56184800Y-91287599D01*
X56184800Y-91287599D01*
X56184800Y-91287599D01*
X56184800Y-91287599D01*
X56184800Y-91287599D01*
X56184800Y-91287599D01*
X56184800Y-91287599D01*
X56184801Y-91287599D01*
X56184801Y-91287599D01*
X56184801Y-91287599D01*
X56184801Y-91287599D01*
X56184801Y-91287599D01*
X56184801Y-91287599D01*
X56184801Y-91287600D01*
X56184801Y-91287600D01*
X56184801Y-91287600D01*
X56184801Y-91287600D01*
X56184801Y-91287600D01*
X56184801Y-91287600D01*
X56184801Y-91287600D01*
%TO.C,D5*%
X19280900Y-46728200D02*
X18630900Y-46728200D01*
X19280900Y-46728200D02*
X19930900Y-46728200D01*
X19280900Y-49848200D02*
X18630900Y-49848200D01*
X19280900Y-49848200D02*
X19930900Y-49848200D01*
X20683400Y-50128200D02*
X20203400Y-50128200D01*
X20443400Y-49798200D01*
X20683400Y-50128200D01*
G36*
X20683400Y-50128200D02*
G01*
X20203400Y-50128200D01*
X20443400Y-49798200D01*
X20683400Y-50128200D01*
G37*
%TO.C,R11*%
X14095464Y-33834400D02*
X13641336Y-33834400D01*
X14095464Y-35304400D02*
X13641336Y-35304400D01*
%TO.C,R5*%
X14142359Y-47525000D02*
X13688231Y-47525000D01*
X14142359Y-48995000D02*
X13688231Y-48995000D01*
%TO.C,R6*%
X14142359Y-56796000D02*
X13688231Y-56796000D01*
X14142359Y-58266000D02*
X13688231Y-58266000D01*
%TO.C,J10*%
X27830000Y-19092400D02*
X29210000Y-19092400D01*
X27830000Y-20472400D02*
X27830000Y-19092400D01*
X27830000Y-21742400D02*
X27830000Y-21852400D01*
X27830000Y-21742400D02*
X30590000Y-21742400D01*
X27830000Y-21852400D02*
X30590000Y-21852400D01*
X30590000Y-21742400D02*
X30590000Y-21852400D01*
%TO.C,C5*%
X23625900Y-39674390D02*
X23625900Y-40196894D01*
X25095900Y-39674390D02*
X25095900Y-40196894D01*
%TO.C,D2*%
X19257800Y-18987500D02*
X18607800Y-18987500D01*
X19257800Y-18987500D02*
X19907800Y-18987500D01*
X19257800Y-22107500D02*
X18607800Y-22107500D01*
X19257800Y-22107500D02*
X19907800Y-22107500D01*
X20660300Y-22387500D02*
X20180300Y-22387500D01*
X20420300Y-22057500D01*
X20660300Y-22387500D01*
G36*
X20660300Y-22387500D02*
G01*
X20180300Y-22387500D01*
X20420300Y-22057500D01*
X20660300Y-22387500D01*
G37*
D18*
%TO.C,J20*%
X-5302400Y-38635000D02*
X5797600Y-38635000D01*
X-5302400Y-56415000D02*
X-5302400Y-38635000D01*
X7975600Y-56415000D02*
X-5302400Y-56415000D01*
D17*
%TO.C,J9*%
X27830000Y-9821400D02*
X29210000Y-9821400D01*
X27830000Y-11201400D02*
X27830000Y-9821400D01*
X27830000Y-12471400D02*
X27830000Y-12581400D01*
X27830000Y-12471400D02*
X30590000Y-12471400D01*
X27830000Y-12581400D02*
X30590000Y-12581400D01*
X30590000Y-12471400D02*
X30590000Y-12581400D01*
%TO.C,C11*%
X48947400Y-54210852D02*
X48947400Y-53688348D01*
X50417400Y-54210852D02*
X50417400Y-53688348D01*
%TO.C,JP1*%
X42028600Y-32520400D02*
X42028600Y-31140400D01*
X43408600Y-32520400D02*
X42028600Y-32520400D01*
X44678600Y-29760400D02*
X49868600Y-29760400D01*
X44678600Y-32520400D02*
X44678600Y-29760400D01*
X44678600Y-32520400D02*
X49868600Y-32520400D01*
X49868600Y-32520400D02*
X49868600Y-29760400D01*
%TO.C,D8*%
X19280900Y-74450900D02*
X18630900Y-74450900D01*
X19280900Y-74450900D02*
X19930900Y-74450900D01*
X19280900Y-77570900D02*
X18630900Y-77570900D01*
X19280900Y-77570900D02*
X19930900Y-77570900D01*
X20683400Y-77850900D02*
X20203400Y-77850900D01*
X20443400Y-77520900D01*
X20683400Y-77850900D01*
G36*
X20683400Y-77850900D02*
G01*
X20203400Y-77850900D01*
X20443400Y-77520900D01*
X20683400Y-77850900D01*
G37*
%TO.C,C3*%
X23625900Y-21154162D02*
X23625900Y-21676666D01*
X25095900Y-21154162D02*
X25095900Y-21676666D01*
%TO.C,CON2*%
X31916600Y-89528000D02*
X32966600Y-89528000D01*
X31916600Y-91160600D02*
X31916600Y-89528000D01*
X32966600Y-89528000D02*
X32966600Y-88538000D01*
X33086600Y-93998000D02*
X36966600Y-93998000D01*
X38136600Y-89528000D02*
X37086600Y-89528000D01*
X38136600Y-91160600D02*
X38136600Y-89528000D01*
%TO.C,J12*%
X27830000Y-37609000D02*
X29210000Y-37609000D01*
X27830000Y-38989000D02*
X27830000Y-37609000D01*
X27830000Y-40259000D02*
X27830000Y-40369000D01*
X27830000Y-40259000D02*
X30590000Y-40259000D01*
X27830000Y-40369000D02*
X30590000Y-40369000D01*
X30590000Y-40259000D02*
X30590000Y-40369000D01*
%TO.C,D7*%
X19280900Y-65181910D02*
X18630900Y-65181910D01*
X19280900Y-65181910D02*
X19930900Y-65181910D01*
X19280900Y-68301910D02*
X18630900Y-68301910D01*
X19280900Y-68301910D02*
X19930900Y-68301910D01*
X20683400Y-68581910D02*
X20203400Y-68581910D01*
X20443400Y-68251910D01*
X20683400Y-68581910D01*
G36*
X20683400Y-68581910D02*
G01*
X20203400Y-68581910D01*
X20443400Y-68251910D01*
X20683400Y-68581910D01*
G37*
%TO.C,J11*%
X27830000Y-28363400D02*
X29210000Y-28363400D01*
X27830000Y-29743400D02*
X27830000Y-28363400D01*
X27830000Y-31013400D02*
X27830000Y-31123400D01*
X27830000Y-31013400D02*
X30590000Y-31013400D01*
X27830000Y-31123400D02*
X30590000Y-31123400D01*
X30590000Y-31013400D02*
X30590000Y-31123400D01*
%TO.C,R14*%
X14136864Y-60656800D02*
X13682736Y-60656800D01*
X14136864Y-62126800D02*
X13682736Y-62126800D01*
%TO.C,R4*%
X14142359Y-38254000D02*
X13688231Y-38254000D01*
X14142359Y-39724000D02*
X13688231Y-39724000D01*
%TO.C,C8*%
X23625900Y-67454732D02*
X23625900Y-67977236D01*
X25095900Y-67454732D02*
X25095900Y-67977236D01*
%TO.C,CON3*%
X40783200Y-90872000D02*
X40783200Y-93532000D01*
X48463200Y-90872000D02*
X40783200Y-90872000D01*
X48463200Y-90872000D02*
X48463200Y-93532000D01*
X48463200Y-93532000D02*
X40783200Y-93532000D01*
X51063200Y-92202000D02*
X51063200Y-93532000D01*
X51063200Y-93532000D02*
X49733200Y-93532000D01*
%TO.C,R7*%
X14142359Y-65990800D02*
X13688231Y-65990800D01*
X14142359Y-67460800D02*
X13688231Y-67460800D01*
%TO.C,R1*%
X14142359Y-10517200D02*
X13688231Y-10517200D01*
X14142359Y-11987200D02*
X13688231Y-11987200D01*
%TO.C,R3*%
X14142359Y-28983000D02*
X13688231Y-28983000D01*
X14142359Y-30453000D02*
X13688231Y-30453000D01*
%TO.C,CON1*%
X18685200Y-90897400D02*
X18685200Y-93557400D01*
X26365200Y-90897400D02*
X18685200Y-90897400D01*
X26365200Y-90897400D02*
X26365200Y-93557400D01*
X26365200Y-93557400D02*
X18685200Y-93557400D01*
X28965200Y-92227400D02*
X28965200Y-93557400D01*
X28965200Y-93557400D02*
X27635200Y-93557400D01*
%TO.C,D6*%
X19280900Y-55969900D02*
X18630900Y-55969900D01*
X19280900Y-55969900D02*
X19930900Y-55969900D01*
X19280900Y-59089900D02*
X18630900Y-59089900D01*
X19280900Y-59089900D02*
X19930900Y-59089900D01*
X20683400Y-59369900D02*
X20203400Y-59369900D01*
X20443400Y-59039900D01*
X20683400Y-59369900D01*
G36*
X20683400Y-59369900D02*
G01*
X20203400Y-59369900D01*
X20443400Y-59039900D01*
X20683400Y-59369900D01*
G37*
%TO.C,H3*%
X56235601Y-4007600D02*
X56235601Y-4007600D01*
X56235601Y-4007600D01*
X56235601Y-4007600D01*
X56235601Y-4007600D01*
X56235601Y-4007600D01*
X56235601Y-4007601D01*
X56235601Y-4007601D01*
X56235601Y-4007601D01*
X56235601Y-4007601D01*
X56235601Y-4007601D01*
X56235601Y-4007601D01*
X56235601Y-4007601D01*
X56235600Y-4007601D01*
X56235600Y-4007601D01*
X56235600Y-4007601D01*
X56235600Y-4007601D01*
X56235600Y-4007601D01*
X56235600Y-4007601D01*
X56235600Y-4007601D01*
X56235600Y-4007601D01*
X56235600Y-4007601D01*
X56235600Y-4007601D01*
X56235600Y-4007601D01*
X56235600Y-4007601D01*
X56235599Y-4007601D01*
X56235599Y-4007601D01*
X56235599Y-4007601D01*
X56235599Y-4007601D01*
X56235599Y-4007601D01*
X56235599Y-4007601D01*
X56235599Y-4007600D01*
X56235599Y-4007600D01*
X56235599Y-4007600D01*
X56235599Y-4007600D01*
X56235599Y-4007600D01*
X56235599Y-4007600D01*
X56235599Y-4007600D02*
X56235599Y-4007600D01*
X56235599Y-4007600D01*
X56235599Y-4007600D01*
X56235599Y-4007600D01*
X56235599Y-4007600D01*
X56235599Y-4007600D01*
X56235599Y-4007599D01*
X56235599Y-4007599D01*
X56235599Y-4007599D01*
X56235599Y-4007599D01*
X56235599Y-4007599D01*
X56235600Y-4007599D01*
X56235600Y-4007599D01*
X56235600Y-4007599D01*
X56235600Y-4007599D01*
X56235600Y-4007599D01*
X56235600Y-4007599D01*
X56235600Y-4007599D01*
X56235600Y-4007599D01*
X56235600Y-4007599D01*
X56235600Y-4007599D01*
X56235600Y-4007599D01*
X56235600Y-4007599D01*
X56235601Y-4007599D01*
X56235601Y-4007599D01*
X56235601Y-4007599D01*
X56235601Y-4007599D01*
X56235601Y-4007599D01*
X56235601Y-4007599D01*
X56235601Y-4007600D01*
X56235601Y-4007600D01*
X56235601Y-4007600D01*
X56235601Y-4007600D01*
X56235601Y-4007600D01*
X56235601Y-4007600D01*
X56235601Y-4007600D01*
%TO.C,J14*%
X27830000Y-56125600D02*
X29210000Y-56125600D01*
X27830000Y-57505600D02*
X27830000Y-56125600D01*
X27830000Y-58775600D02*
X27830000Y-58885600D01*
X27830000Y-58775600D02*
X30590000Y-58775600D01*
X27830000Y-58885600D02*
X30590000Y-58885600D01*
X30590000Y-58775600D02*
X30590000Y-58885600D01*
%TO.C,J15*%
X27830000Y-65371200D02*
X29210000Y-65371200D01*
X27830000Y-66751200D02*
X27830000Y-65371200D01*
X27830000Y-68021200D02*
X27830000Y-68131200D01*
X27830000Y-68021200D02*
X30590000Y-68021200D01*
X27830000Y-68131200D02*
X30590000Y-68131200D01*
X30590000Y-68021200D02*
X30590000Y-68131200D01*
%TO.C,R16*%
X14146264Y-79249600D02*
X13692136Y-79249600D01*
X14146264Y-80719600D02*
X13692136Y-80719600D01*
%TO.C,R9*%
X14146264Y-15013000D02*
X13692136Y-15013000D01*
X14146264Y-16483000D02*
X13692136Y-16483000D01*
%TO.C,R8*%
X14142359Y-75261800D02*
X13688231Y-75261800D01*
X14142359Y-76731800D02*
X13688231Y-76731800D01*
%TO.C,R10*%
X14120864Y-23928400D02*
X13666736Y-23928400D01*
X14120864Y-25398400D02*
X13666736Y-25398400D01*
%TO.C,C4*%
X23625900Y-30414276D02*
X23625900Y-30936780D01*
X25095900Y-30414276D02*
X25095900Y-30936780D01*
%TO.C,R13*%
X14146264Y-51639800D02*
X13692136Y-51639800D01*
X14146264Y-53109800D02*
X13692136Y-53109800D01*
%TO.C,D4*%
X19280900Y-37407500D02*
X18630900Y-37407500D01*
X19280900Y-37407500D02*
X19930900Y-37407500D01*
X19280900Y-40527500D02*
X18630900Y-40527500D01*
X19280900Y-40527500D02*
X19930900Y-40527500D01*
X20683400Y-40807500D02*
X20203400Y-40807500D01*
X20443400Y-40477500D01*
X20683400Y-40807500D01*
G36*
X20683400Y-40807500D02*
G01*
X20203400Y-40807500D01*
X20443400Y-40477500D01*
X20683400Y-40807500D01*
G37*
%TO.C,C2*%
X23625900Y-11894048D02*
X23625900Y-12416552D01*
X25095900Y-11894048D02*
X25095900Y-12416552D01*
%TO.C,H1*%
X12000001Y-4007600D02*
X12000001Y-4007600D01*
X12000001Y-4007600D01*
X12000001Y-4007600D01*
X12000001Y-4007600D01*
X12000001Y-4007600D01*
X12000001Y-4007601D01*
X12000001Y-4007601D01*
X12000001Y-4007601D01*
X12000001Y-4007601D01*
X12000001Y-4007601D01*
X12000001Y-4007601D01*
X12000001Y-4007601D01*
X12000000Y-4007601D01*
X12000000Y-4007601D01*
X12000000Y-4007601D01*
X12000000Y-4007601D01*
X12000000Y-4007601D01*
X12000000Y-4007601D01*
X12000000Y-4007601D01*
X12000000Y-4007601D01*
X12000000Y-4007601D01*
X12000000Y-4007601D01*
X12000000Y-4007601D01*
X12000000Y-4007601D01*
X11999999Y-4007601D01*
X11999999Y-4007601D01*
X11999999Y-4007601D01*
X11999999Y-4007601D01*
X11999999Y-4007601D01*
X11999999Y-4007601D01*
X11999999Y-4007600D01*
X11999999Y-4007600D01*
X11999999Y-4007600D01*
X11999999Y-4007600D01*
X11999999Y-4007600D01*
X11999999Y-4007600D01*
X11999999Y-4007600D02*
X11999999Y-4007600D01*
X11999999Y-4007600D01*
X11999999Y-4007600D01*
X11999999Y-4007600D01*
X11999999Y-4007600D01*
X11999999Y-4007600D01*
X11999999Y-4007599D01*
X11999999Y-4007599D01*
X11999999Y-4007599D01*
X11999999Y-4007599D01*
X11999999Y-4007599D01*
X12000000Y-4007599D01*
X12000000Y-4007599D01*
X12000000Y-4007599D01*
X12000000Y-4007599D01*
X12000000Y-4007599D01*
X12000000Y-4007599D01*
X12000000Y-4007599D01*
X12000000Y-4007599D01*
X12000000Y-4007599D01*
X12000000Y-4007599D01*
X12000000Y-4007599D01*
X12000000Y-4007599D01*
X12000001Y-4007599D01*
X12000001Y-4007599D01*
X12000001Y-4007599D01*
X12000001Y-4007599D01*
X12000001Y-4007599D01*
X12000001Y-4007599D01*
X12000001Y-4007600D01*
X12000001Y-4007600D01*
X12000001Y-4007600D01*
X12000001Y-4007600D01*
X12000001Y-4007600D01*
X12000001Y-4007600D01*
X12000001Y-4007600D01*
%TO.C,H2*%
X12000001Y-91287600D02*
X12000001Y-91287600D01*
X12000001Y-91287600D01*
X12000001Y-91287600D01*
X12000001Y-91287600D01*
X12000001Y-91287600D01*
X12000001Y-91287601D01*
X12000001Y-91287601D01*
X12000001Y-91287601D01*
X12000001Y-91287601D01*
X12000001Y-91287601D01*
X12000001Y-91287601D01*
X12000001Y-91287601D01*
X12000000Y-91287601D01*
X12000000Y-91287601D01*
X12000000Y-91287601D01*
X12000000Y-91287601D01*
X12000000Y-91287601D01*
X12000000Y-91287601D01*
X12000000Y-91287601D01*
X12000000Y-91287601D01*
X12000000Y-91287601D01*
X12000000Y-91287601D01*
X12000000Y-91287601D01*
X12000000Y-91287601D01*
X11999999Y-91287601D01*
X11999999Y-91287601D01*
X11999999Y-91287601D01*
X11999999Y-91287601D01*
X11999999Y-91287601D01*
X11999999Y-91287601D01*
X11999999Y-91287600D01*
X11999999Y-91287600D01*
X11999999Y-91287600D01*
X11999999Y-91287600D01*
X11999999Y-91287600D01*
X11999999Y-91287600D01*
X11999999Y-91287600D02*
X11999999Y-91287600D01*
X11999999Y-91287600D01*
X11999999Y-91287600D01*
X11999999Y-91287600D01*
X11999999Y-91287600D01*
X11999999Y-91287600D01*
X11999999Y-91287599D01*
X11999999Y-91287599D01*
X11999999Y-91287599D01*
X11999999Y-91287599D01*
X11999999Y-91287599D01*
X12000000Y-91287599D01*
X12000000Y-91287599D01*
X12000000Y-91287599D01*
X12000000Y-91287599D01*
X12000000Y-91287599D01*
X12000000Y-91287599D01*
X12000000Y-91287599D01*
X12000000Y-91287599D01*
X12000000Y-91287599D01*
X12000000Y-91287599D01*
X12000000Y-91287599D01*
X12000000Y-91287599D01*
X12000001Y-91287599D01*
X12000001Y-91287599D01*
X12000001Y-91287599D01*
X12000001Y-91287599D01*
X12000001Y-91287599D01*
X12000001Y-91287599D01*
X12000001Y-91287600D01*
X12000001Y-91287600D01*
X12000001Y-91287600D01*
X12000001Y-91287600D01*
X12000001Y-91287600D01*
X12000001Y-91287600D01*
X12000001Y-91287600D01*
%TO.C,C1*%
X24071948Y-3481400D02*
X24594452Y-3481400D01*
X24071948Y-4951400D02*
X24594452Y-4951400D01*
%TO.C,R2*%
X14142359Y-19788200D02*
X13688231Y-19788200D01*
X14142359Y-21258200D02*
X13688231Y-21258200D01*
%TO.C,CON4*%
X54603000Y-78881200D02*
X54603000Y-79931200D01*
X54603000Y-84051200D02*
X53613000Y-84051200D01*
X54603000Y-85101200D02*
X54603000Y-84051200D01*
X56235600Y-78881200D02*
X54603000Y-78881200D01*
X56235600Y-85101200D02*
X54603000Y-85101200D01*
X59073000Y-83931200D02*
X59073000Y-80051200D01*
%TO.C,J13*%
X27830000Y-46880000D02*
X29210000Y-46880000D01*
X27830000Y-48260000D02*
X27830000Y-46880000D01*
X27830000Y-49530000D02*
X27830000Y-49640000D01*
X27830000Y-49530000D02*
X30590000Y-49530000D01*
X27830000Y-49640000D02*
X30590000Y-49640000D01*
X30590000Y-49530000D02*
X30590000Y-49640000D01*
%TO.C,D1*%
X19278600Y-9655500D02*
X18628600Y-9655500D01*
X19278600Y-9655500D02*
X19928600Y-9655500D01*
X19278600Y-12775500D02*
X18628600Y-12775500D01*
X19278600Y-12775500D02*
X19928600Y-12775500D01*
X20681100Y-13055500D02*
X20201100Y-13055500D01*
X20441100Y-12725500D01*
X20681100Y-13055500D01*
G36*
X20681100Y-13055500D02*
G01*
X20201100Y-13055500D01*
X20441100Y-12725500D01*
X20681100Y-13055500D01*
G37*
%TO.C,R15*%
X14095464Y-69826200D02*
X13641336Y-69826200D01*
X14095464Y-71296200D02*
X13641336Y-71296200D01*
%TO.C,C6*%
X23625900Y-48934504D02*
X23625900Y-49457008D01*
X25095900Y-48934504D02*
X25095900Y-49457008D01*
D18*
%TO.C,IC1*%
X36353600Y-50067000D02*
X46653600Y-50067000D01*
X36353600Y-56867000D02*
X36353600Y-50067000D01*
X46623600Y-47767000D02*
X46623600Y-49717000D01*
X46653600Y-50067000D02*
X46653600Y-56867000D01*
X46653600Y-56867000D02*
X36353600Y-56867000D01*
D17*
%TO.C,C7*%
X23625900Y-58194618D02*
X23625900Y-58717122D01*
X25095900Y-58194618D02*
X25095900Y-58717122D01*
%TD*%
%LPC*%
D19*
%TO.C,R12*%
X14817600Y-43815000D03*
X12817600Y-43815000D03*
%TD*%
D20*
%TO.C,D3*%
X20218400Y-30666900D03*
X20218400Y-28766900D03*
X18343400Y-29716900D03*
%TD*%
D21*
%TO.C,C9*%
X24360900Y-75938600D03*
X24360900Y-78013600D03*
%TD*%
D22*
%TO.C,J16*%
X29210000Y-75996800D03*
%TD*%
D23*
%TO.C,C10*%
X25019000Y-85213100D03*
X25019000Y-83138100D03*
%TD*%
D22*
%TO.C,JP2*%
X43408600Y-37846000D03*
D24*
X45948600Y-37846000D03*
X48488600Y-37846000D03*
%TD*%
D22*
%TO.C,J17*%
X54991000Y-37465000D03*
D24*
X57531000Y-37465000D03*
X54991000Y-40005000D03*
X57531000Y-40005000D03*
X54991000Y-42545000D03*
X57531000Y-42545000D03*
X54991000Y-45085000D03*
X57531000Y-45085000D03*
X54991000Y-47625000D03*
X57531000Y-47625000D03*
X54991000Y-50165000D03*
X57531000Y-50165000D03*
X54991000Y-52705000D03*
X57531000Y-52705000D03*
X54991000Y-55245000D03*
X57531000Y-55245000D03*
X54991000Y-57785000D03*
X57531000Y-57785000D03*
X54991000Y-60325000D03*
X57531000Y-60325000D03*
X54991000Y-62865000D03*
X57531000Y-62865000D03*
X54991000Y-65405000D03*
X57531000Y-65405000D03*
X54991000Y-67945000D03*
X57531000Y-67945000D03*
X54991000Y-70485000D03*
X57531000Y-70485000D03*
X54991000Y-73025000D03*
X57531000Y-73025000D03*
%TD*%
D25*
%TO.C,H4*%
X56184800Y-91287600D03*
%TD*%
D20*
%TO.C,D5*%
X20218400Y-49238200D03*
X20218400Y-47338200D03*
X18343400Y-48288200D03*
%TD*%
D19*
%TO.C,R11*%
X14868400Y-34569400D03*
X12868400Y-34569400D03*
%TD*%
%TO.C,R5*%
X14915295Y-48260000D03*
X12915295Y-48260000D03*
%TD*%
%TO.C,R6*%
X14915295Y-57531000D03*
X12915295Y-57531000D03*
%TD*%
D22*
%TO.C,J10*%
X29210000Y-20472400D03*
%TD*%
D21*
%TO.C,C5*%
X24360900Y-38898142D03*
X24360900Y-40973142D03*
%TD*%
D20*
%TO.C,D2*%
X20195300Y-21497500D03*
X20195300Y-19597500D03*
X18320300Y-20547500D03*
%TD*%
D26*
%TO.C,J20*%
X7975600Y-53975000D03*
D27*
X5435600Y-53975000D03*
X7975600Y-51435000D03*
X5435600Y-51435000D03*
X7975600Y-48895000D03*
X5435600Y-48895000D03*
X7975600Y-46355000D03*
X5435600Y-46355000D03*
X7975600Y-43815000D03*
X5435600Y-43815000D03*
X7975600Y-41275000D03*
X5435600Y-41275000D03*
%TD*%
D22*
%TO.C,J9*%
X29210000Y-11201400D03*
%TD*%
D23*
%TO.C,C11*%
X49682400Y-54987100D03*
X49682400Y-52912100D03*
%TD*%
D22*
%TO.C,JP1*%
X43408600Y-31140400D03*
D24*
X45948600Y-31140400D03*
X48488600Y-31140400D03*
%TD*%
D20*
%TO.C,D8*%
X20218400Y-76960900D03*
X20218400Y-75060900D03*
X18343400Y-76010900D03*
%TD*%
D21*
%TO.C,C3*%
X24360900Y-20377914D03*
X24360900Y-22452914D03*
%TD*%
D28*
%TO.C,CON2*%
X33526600Y-89313000D03*
X34526600Y-89313000D03*
X35526600Y-89313000D03*
X36526600Y-89313000D03*
D29*
X31826200Y-92735400D03*
X38277800Y-92735400D03*
%TD*%
D22*
%TO.C,J12*%
X29210000Y-38989000D03*
%TD*%
D20*
%TO.C,D7*%
X20218400Y-67691910D03*
X20218400Y-65791910D03*
X18343400Y-66741910D03*
%TD*%
D22*
%TO.C,J11*%
X29210000Y-29743400D03*
%TD*%
D19*
%TO.C,R14*%
X14909800Y-61391800D03*
X12909800Y-61391800D03*
%TD*%
%TO.C,R4*%
X14915295Y-38989000D03*
X12915295Y-38989000D03*
%TD*%
D21*
%TO.C,C8*%
X24360900Y-66678484D03*
X24360900Y-68753484D03*
%TD*%
D22*
%TO.C,CON3*%
X49733200Y-92202000D03*
D24*
X47193200Y-92202000D03*
X44653200Y-92202000D03*
X42113200Y-92202000D03*
%TD*%
D19*
%TO.C,R7*%
X14915295Y-66725800D03*
X12915295Y-66725800D03*
%TD*%
%TO.C,R1*%
X14915295Y-11252200D03*
X12915295Y-11252200D03*
%TD*%
%TO.C,R3*%
X14915295Y-29718000D03*
X12915295Y-29718000D03*
%TD*%
D22*
%TO.C,CON1*%
X27635200Y-92227400D03*
D24*
X25095200Y-92227400D03*
X22555200Y-92227400D03*
X20015200Y-92227400D03*
%TD*%
D20*
%TO.C,D6*%
X20218400Y-58479900D03*
X20218400Y-56579900D03*
X18343400Y-57529900D03*
%TD*%
D25*
%TO.C,H3*%
X56235600Y-4007600D03*
%TD*%
D22*
%TO.C,J14*%
X29210000Y-57505600D03*
%TD*%
%TO.C,J15*%
X29210000Y-66751200D03*
%TD*%
D19*
%TO.C,R16*%
X14919200Y-79984600D03*
X12919200Y-79984600D03*
%TD*%
%TO.C,R9*%
X14919200Y-15748000D03*
X12919200Y-15748000D03*
%TD*%
%TO.C,R8*%
X14915295Y-75996800D03*
X12915295Y-75996800D03*
%TD*%
%TO.C,R10*%
X14893800Y-24663400D03*
X12893800Y-24663400D03*
%TD*%
D21*
%TO.C,C4*%
X24360900Y-29638028D03*
X24360900Y-31713028D03*
%TD*%
D19*
%TO.C,R13*%
X14919200Y-52374800D03*
X12919200Y-52374800D03*
%TD*%
D20*
%TO.C,D4*%
X20218400Y-39917500D03*
X20218400Y-38017500D03*
X18343400Y-38967500D03*
%TD*%
D21*
%TO.C,C2*%
X24360900Y-11117800D03*
X24360900Y-13192800D03*
%TD*%
D25*
%TO.C,H1*%
X12000000Y-4007600D03*
%TD*%
%TO.C,H2*%
X12000000Y-91287600D03*
%TD*%
D30*
%TO.C,C1*%
X23295700Y-4216400D03*
X25370700Y-4216400D03*
%TD*%
D19*
%TO.C,R2*%
X14915295Y-20523200D03*
X12915295Y-20523200D03*
%TD*%
D31*
%TO.C,CON4*%
X54388000Y-83491200D03*
X54388000Y-82491200D03*
X54388000Y-81491200D03*
X54388000Y-80491200D03*
D32*
X57810400Y-85191600D03*
X57810400Y-78740000D03*
%TD*%
D22*
%TO.C,J13*%
X29210000Y-48260000D03*
%TD*%
D20*
%TO.C,D1*%
X20216100Y-12165500D03*
X20216100Y-10265500D03*
X18341100Y-11215500D03*
%TD*%
D19*
%TO.C,R15*%
X14868400Y-70561200D03*
X12868400Y-70561200D03*
%TD*%
D21*
%TO.C,C6*%
X24360900Y-48158256D03*
X24360900Y-50233256D03*
%TD*%
D33*
%TO.C,IC1*%
X45948600Y-48742000D03*
X44678600Y-48742000D03*
X43408600Y-48742000D03*
X42138600Y-48742000D03*
X40868600Y-48742000D03*
X39598600Y-48742000D03*
X38328600Y-48742000D03*
X37058600Y-48742000D03*
X37058600Y-58192000D03*
X38328600Y-58192000D03*
X39598600Y-58192000D03*
X40868600Y-58192000D03*
X42138600Y-58192000D03*
X43408600Y-58192000D03*
X44678600Y-58192000D03*
X45948600Y-58192000D03*
%TD*%
D21*
%TO.C,C7*%
X24360900Y-57418370D03*
X24360900Y-59493370D03*
%TD*%
%LPD*%
M02*
