%TF.GenerationSoftware,KiCad,Pcbnew,9.0.2*%
%TF.CreationDate,2025-07-04T16:10:04+10:00*%
%TF.ProjectId,v8_equip_dig_in_non_iso_IDC_pwr,76385f65-7175-4697-905f-6469675f696e,rev?*%
%TF.SameCoordinates,Original*%
%TF.FileFunction,Soldermask,Top*%
%TF.FilePolarity,Negative*%
%FSLAX46Y46*%
G04 Gerber Fmt 4.6, Leading zero omitted, Abs format (unit mm)*
G04 Created by KiCad (PCBNEW 9.0.2) date 2025-07-04 16:10:04*
%MOMM*%
%LPD*%
G01*
G04 APERTURE LIST*
G04 Aperture macros list*
%AMRoundRect*
0 Rectangle with rounded corners*
0 $1 Rounding radius*
0 $2 $3 $4 $5 $6 $7 $8 $9 X,Y pos of 4 corners*
0 Add a 4 corners polygon primitive as box body*
4,1,4,$2,$3,$4,$5,$6,$7,$8,$9,$2,$3,0*
0 Add four circle primitives for the rounded corners*
1,1,$1+$1,$2,$3*
1,1,$1+$1,$4,$5*
1,1,$1+$1,$6,$7*
1,1,$1+$1,$8,$9*
0 Add four rect primitives between the rounded corners*
20,1,$1+$1,$2,$3,$4,$5,0*
20,1,$1+$1,$4,$5,$6,$7,0*
20,1,$1+$1,$6,$7,$8,$9,0*
20,1,$1+$1,$8,$9,$2,$3,0*%
G04 Aperture macros list end*
%ADD10RoundRect,0.250000X0.350000X0.450000X-0.350000X0.450000X-0.350000X-0.450000X0.350000X-0.450000X0*%
%ADD11RoundRect,0.150000X0.587500X0.150000X-0.587500X0.150000X-0.587500X-0.150000X0.587500X-0.150000X0*%
%ADD12RoundRect,0.250000X-0.475000X0.337500X-0.475000X-0.337500X0.475000X-0.337500X0.475000X0.337500X0*%
%ADD13R,1.700000X1.700000*%
%ADD14RoundRect,0.250000X0.475000X-0.337500X0.475000X0.337500X-0.475000X0.337500X-0.475000X-0.337500X0*%
%ADD15C,1.700000*%
%ADD16R,1.650000X1.650000*%
%ADD17C,1.650000*%
%ADD18RoundRect,0.150000X-0.150000X-0.625000X0.150000X-0.625000X0.150000X0.625000X-0.150000X0.625000X0*%
%ADD19RoundRect,0.416666X-0.583334X-0.970834X0.583334X-0.970834X0.583334X0.970834X-0.583334X0.970834X0*%
%ADD20RoundRect,0.250000X-0.337500X-0.475000X0.337500X-0.475000X0.337500X0.475000X-0.337500X0.475000X0*%
%ADD21RoundRect,0.150000X0.625000X-0.150000X0.625000X0.150000X-0.625000X0.150000X-0.625000X-0.150000X0*%
%ADD22RoundRect,0.416666X0.970834X-0.583334X0.970834X0.583334X-0.970834X0.583334X-0.970834X-0.583334X0*%
%ADD23R,0.650000X1.950000*%
G04 APERTURE END LIST*
D10*
%TO.C,R12*%
X14817600Y-43815000D03*
X12817600Y-43815000D03*
%TD*%
D11*
%TO.C,D3*%
X20218400Y-30666900D03*
X20218400Y-28766900D03*
X18343400Y-29716900D03*
%TD*%
D12*
%TO.C,C9*%
X24360900Y-75938600D03*
X24360900Y-78013600D03*
%TD*%
D13*
%TO.C,J16*%
X29210000Y-75996800D03*
%TD*%
D14*
%TO.C,C10*%
X25019000Y-85213100D03*
X25019000Y-83138100D03*
%TD*%
D13*
%TO.C,JP2*%
X43408600Y-37846000D03*
D15*
X45948600Y-37846000D03*
X48488600Y-37846000D03*
%TD*%
D13*
%TO.C,J17*%
X54991000Y-37465000D03*
D15*
X57531000Y-37465000D03*
X54991000Y-40005000D03*
X57531000Y-40005000D03*
X54991000Y-42545000D03*
X57531000Y-42545000D03*
X54991000Y-45085000D03*
X57531000Y-45085000D03*
X54991000Y-47625000D03*
X57531000Y-47625000D03*
X54991000Y-50165000D03*
X57531000Y-50165000D03*
X54991000Y-52705000D03*
X57531000Y-52705000D03*
X54991000Y-55245000D03*
X57531000Y-55245000D03*
X54991000Y-57785000D03*
X57531000Y-57785000D03*
X54991000Y-60325000D03*
X57531000Y-60325000D03*
X54991000Y-62865000D03*
X57531000Y-62865000D03*
X54991000Y-65405000D03*
X57531000Y-65405000D03*
X54991000Y-67945000D03*
X57531000Y-67945000D03*
X54991000Y-70485000D03*
X57531000Y-70485000D03*
X54991000Y-73025000D03*
X57531000Y-73025000D03*
%TD*%
D11*
%TO.C,D5*%
X20218400Y-49238200D03*
X20218400Y-47338200D03*
X18343400Y-48288200D03*
%TD*%
D10*
%TO.C,R11*%
X14868400Y-34569400D03*
X12868400Y-34569400D03*
%TD*%
%TO.C,R5*%
X14915295Y-48260000D03*
X12915295Y-48260000D03*
%TD*%
%TO.C,R6*%
X14915295Y-57531000D03*
X12915295Y-57531000D03*
%TD*%
D13*
%TO.C,J10*%
X29210000Y-20472400D03*
%TD*%
D12*
%TO.C,C5*%
X24360900Y-38898142D03*
X24360900Y-40973142D03*
%TD*%
D11*
%TO.C,D2*%
X20195300Y-21497500D03*
X20195300Y-19597500D03*
X18320300Y-20547500D03*
%TD*%
D16*
%TO.C,J20*%
X7975600Y-53975000D03*
D17*
X5435600Y-53975000D03*
X7975600Y-51435000D03*
X5435600Y-51435000D03*
X7975600Y-48895000D03*
X5435600Y-48895000D03*
X7975600Y-46355000D03*
X5435600Y-46355000D03*
X7975600Y-43815000D03*
X5435600Y-43815000D03*
X7975600Y-41275000D03*
X5435600Y-41275000D03*
%TD*%
D13*
%TO.C,J9*%
X29210000Y-11201400D03*
%TD*%
D14*
%TO.C,C11*%
X49682400Y-54987100D03*
X49682400Y-52912100D03*
%TD*%
D13*
%TO.C,JP1*%
X43408600Y-31140400D03*
D15*
X45948600Y-31140400D03*
X48488600Y-31140400D03*
%TD*%
D11*
%TO.C,D8*%
X20218400Y-76960900D03*
X20218400Y-75060900D03*
X18343400Y-76010900D03*
%TD*%
D12*
%TO.C,C3*%
X24360900Y-20377914D03*
X24360900Y-22452914D03*
%TD*%
D18*
%TO.C,CON2*%
X33526600Y-89313000D03*
X34526600Y-89313000D03*
X35526600Y-89313000D03*
X36526600Y-89313000D03*
D19*
X31826200Y-92735400D03*
X38277800Y-92735400D03*
%TD*%
D13*
%TO.C,J12*%
X29210000Y-38989000D03*
%TD*%
D11*
%TO.C,D7*%
X20218400Y-67691910D03*
X20218400Y-65791910D03*
X18343400Y-66741910D03*
%TD*%
D13*
%TO.C,J11*%
X29210000Y-29743400D03*
%TD*%
D10*
%TO.C,R14*%
X14909800Y-61391800D03*
X12909800Y-61391800D03*
%TD*%
%TO.C,R4*%
X14915295Y-38989000D03*
X12915295Y-38989000D03*
%TD*%
D12*
%TO.C,C8*%
X24360900Y-66678484D03*
X24360900Y-68753484D03*
%TD*%
D13*
%TO.C,CON3*%
X49733200Y-92202000D03*
D15*
X47193200Y-92202000D03*
X44653200Y-92202000D03*
X42113200Y-92202000D03*
%TD*%
D10*
%TO.C,R7*%
X14915295Y-66725800D03*
X12915295Y-66725800D03*
%TD*%
%TO.C,R1*%
X14915295Y-11252200D03*
X12915295Y-11252200D03*
%TD*%
%TO.C,R3*%
X14915295Y-29718000D03*
X12915295Y-29718000D03*
%TD*%
D13*
%TO.C,CON1*%
X27635200Y-92227400D03*
D15*
X25095200Y-92227400D03*
X22555200Y-92227400D03*
X20015200Y-92227400D03*
%TD*%
D11*
%TO.C,D6*%
X20218400Y-58479900D03*
X20218400Y-56579900D03*
X18343400Y-57529900D03*
%TD*%
D13*
%TO.C,J14*%
X29210000Y-57505600D03*
%TD*%
%TO.C,J15*%
X29210000Y-66751200D03*
%TD*%
D10*
%TO.C,R16*%
X14919200Y-79984600D03*
X12919200Y-79984600D03*
%TD*%
%TO.C,R9*%
X14919200Y-15748000D03*
X12919200Y-15748000D03*
%TD*%
%TO.C,R8*%
X14915295Y-75996800D03*
X12915295Y-75996800D03*
%TD*%
%TO.C,R10*%
X14893800Y-24663400D03*
X12893800Y-24663400D03*
%TD*%
D12*
%TO.C,C4*%
X24360900Y-29638028D03*
X24360900Y-31713028D03*
%TD*%
D10*
%TO.C,R13*%
X14919200Y-52374800D03*
X12919200Y-52374800D03*
%TD*%
D11*
%TO.C,D4*%
X20218400Y-39917500D03*
X20218400Y-38017500D03*
X18343400Y-38967500D03*
%TD*%
D12*
%TO.C,C2*%
X24360900Y-11117800D03*
X24360900Y-13192800D03*
%TD*%
D20*
%TO.C,C1*%
X23295700Y-4216400D03*
X25370700Y-4216400D03*
%TD*%
D10*
%TO.C,R2*%
X14915295Y-20523200D03*
X12915295Y-20523200D03*
%TD*%
D21*
%TO.C,CON4*%
X54388000Y-83491200D03*
X54388000Y-82491200D03*
X54388000Y-81491200D03*
X54388000Y-80491200D03*
D22*
X57810400Y-85191600D03*
X57810400Y-78740000D03*
%TD*%
D13*
%TO.C,J13*%
X29210000Y-48260000D03*
%TD*%
D11*
%TO.C,D1*%
X20216100Y-12165500D03*
X20216100Y-10265500D03*
X18341100Y-11215500D03*
%TD*%
D10*
%TO.C,R15*%
X14868400Y-70561200D03*
X12868400Y-70561200D03*
%TD*%
D12*
%TO.C,C6*%
X24360900Y-48158256D03*
X24360900Y-50233256D03*
%TD*%
D23*
%TO.C,IC1*%
X45948600Y-48742000D03*
X44678600Y-48742000D03*
X43408600Y-48742000D03*
X42138600Y-48742000D03*
X40868600Y-48742000D03*
X39598600Y-48742000D03*
X38328600Y-48742000D03*
X37058600Y-48742000D03*
X37058600Y-58192000D03*
X38328600Y-58192000D03*
X39598600Y-58192000D03*
X40868600Y-58192000D03*
X42138600Y-58192000D03*
X43408600Y-58192000D03*
X44678600Y-58192000D03*
X45948600Y-58192000D03*
%TD*%
D12*
%TO.C,C7*%
X24360900Y-57418370D03*
X24360900Y-59493370D03*
%TD*%
M02*
