M48
; DRILL file {KiCad 9.0.2} date 2025-07-04T16:10:04+1000
; FORMAT={-:-/ absolute / inch / decimal}
; #@! TF.CreationDate,2025-07-04T16:10:04+10:00
; #@! TF.GenerationSoftware,Kicad,Pcbnew,9.0.2
; #@! TF.FileFunction,Plated,1,2,PTH
FMAT,2
INCH
; #@! TA.AperFunction,Plated,PTH,ViaDrill
T1C0.0150
; #@! TA.AperFunction,Plated,PTH,ComponentDrill
T2C0.0394
; #@! TA.AperFunction,Plated,PTH,ComponentDrill
T3C0.0433
%
G90
G05
T1
X0.419Y-0.443
X0.421Y-0.809
X0.507Y-1.25
X0.507Y-1.605
X0.794Y-0.6759
X0.794Y-1.0289
X0.794Y-1.4009
X0.794Y-1.7699
X0.794Y-2.1279
X0.794Y-2.4969
X0.794Y-2.8559
X0.794Y-3.149
X0.7942Y-0.3109
X0.957Y-2.412
X0.958Y-2.776
X0.96Y-0.961
X0.96Y-1.737
X0.961Y-1.393
X0.961Y-3.147
X0.963Y-0.303
X0.963Y-0.672
X0.963Y-2.055
X1.225Y-3.499
X1.366Y-3.387
X1.372Y-1.918
X1.438Y-3.2
X1.554Y-3.387
X1.634Y-2.11
X1.707Y-1.789
X1.71Y-2.625
X1.792Y-2.725
X1.9215Y-3.3355
X1.922Y-3.244
X1.956Y-2.292
X2.049Y-2.085
X2.094Y-3.384
X2.228Y-0.424
T2
X0.788Y-3.631
X0.888Y-3.631
X0.988Y-3.631
X1.088Y-3.631
X1.15Y-0.441
X1.15Y-0.806
X1.15Y-1.171
X1.15Y-1.535
X1.15Y-1.9
X1.15Y-2.264
X1.15Y-2.628
X1.15Y-2.992
X1.658Y-3.63
X1.709Y-1.226
X1.709Y-1.49
X1.758Y-3.63
X1.809Y-1.226
X1.809Y-1.49
X1.858Y-3.63
X1.909Y-1.226
X1.909Y-1.49
X1.958Y-3.63
X2.165Y-1.475
X2.165Y-1.575
X2.165Y-1.675
X2.165Y-1.775
X2.165Y-1.875
X2.165Y-1.975
X2.165Y-2.075
X2.165Y-2.175
X2.165Y-2.275
X2.165Y-2.375
X2.165Y-2.475
X2.165Y-2.575
X2.165Y-2.675
X2.165Y-2.775
X2.165Y-2.875
X2.265Y-1.475
X2.265Y-1.575
X2.265Y-1.675
X2.265Y-1.775
X2.265Y-1.875
X2.265Y-1.975
X2.265Y-2.075
X2.265Y-2.175
X2.265Y-2.275
X2.265Y-2.375
X2.265Y-2.475
X2.265Y-2.575
X2.265Y-2.675
X2.265Y-2.775
X2.265Y-2.875
T3
X0.214Y-1.625
X0.214Y-1.725
X0.214Y-1.825
X0.214Y-1.925
X0.214Y-2.025
X0.214Y-2.125
X0.314Y-1.625
X0.314Y-1.725
X0.314Y-1.825
X0.314Y-1.925
X0.314Y-2.025
X0.314Y-2.125
M30
