%TF.GenerationSoftware,KiCad,Pcbnew,9.0.2*%
%TF.CreationDate,2025-07-04T16:10:04+10:00*%
%TF.ProjectId,v8_equip_dig_in_non_iso_IDC_pwr,76385f65-7175-4697-905f-6469675f696e,rev?*%
%TF.SameCoordinates,Original*%
%TF.FileFunction,Copper,L2,Bot*%
%TF.FilePolarity,Positive*%
%FSLAX46Y46*%
G04 Gerber Fmt 4.6, Leading zero omitted, Abs format (unit mm)*
G04 Created by KiCad (PCBNEW 9.0.2) date 2025-07-04 16:10:04*
%MOMM*%
%LPD*%
G01*
G04 APERTURE LIST*
%TA.AperFunction,ComponentPad*%
%ADD10R,1.700000X1.700000*%
%TD*%
%TA.AperFunction,ComponentPad*%
%ADD11C,1.700000*%
%TD*%
%TA.AperFunction,ComponentPad*%
%ADD12R,1.650000X1.650000*%
%TD*%
%TA.AperFunction,ComponentPad*%
%ADD13C,1.650000*%
%TD*%
%TA.AperFunction,ViaPad*%
%ADD14C,0.889000*%
%TD*%
%TA.AperFunction,Conductor*%
%ADD15C,1.016000*%
%TD*%
%TA.AperFunction,Conductor*%
%ADD16C,0.812800*%
%TD*%
%TA.AperFunction,Conductor*%
%ADD17C,0.508000*%
%TD*%
%TA.AperFunction,Conductor*%
%ADD18C,0.406400*%
%TD*%
G04 APERTURE END LIST*
D10*
%TO.P,J16,1,Pin_1*%
%TO.N,/P7*%
X29210000Y-75996800D03*
%TD*%
%TO.P,JP2,1,A*%
%TO.N,GND*%
X43408600Y-37846000D03*
D11*
%TO.P,JP2,2,C*%
%TO.N,/A0*%
X45948600Y-37846000D03*
%TO.P,JP2,3,B*%
%TO.N,+3V3*%
X48488600Y-37846000D03*
%TD*%
D10*
%TO.P,J17,1,Pin_1*%
%TO.N,+5V*%
X54991000Y-37465000D03*
D11*
%TO.P,J17,2,Pin_2*%
X57531000Y-37465000D03*
%TO.P,J17,3,Pin_3*%
X54991000Y-40005000D03*
%TO.P,J17,4,Pin_4*%
%TO.N,GND*%
X57531000Y-40005000D03*
%TO.P,J17,5,Pin_5*%
%TO.N,+3V3*%
X54991000Y-42545000D03*
%TO.P,J17,6,Pin_6*%
%TO.N,/GP15*%
X57531000Y-42545000D03*
%TO.P,J17,7,Pin_7*%
%TO.N,/GP16*%
X54991000Y-45085000D03*
%TO.P,J17,8,Pin_8*%
%TO.N,/GP14*%
X57531000Y-45085000D03*
%TO.P,J17,9,Pin_9*%
%TO.N,/GP17*%
X54991000Y-47625000D03*
%TO.P,J17,10,Pin_10*%
%TO.N,/GP13*%
X57531000Y-47625000D03*
%TO.P,J17,11,Pin_11*%
%TO.N,/AN_CS0*%
X54991000Y-50165000D03*
%TO.P,J17,12,Pin_12*%
%TO.N,/GP12*%
X57531000Y-50165000D03*
%TO.P,J17,13,Pin_13*%
%TO.N,/AN_CS1*%
X54991000Y-52705000D03*
%TO.P,J17,14,Pin_14*%
%TO.N,/GP11*%
X57531000Y-52705000D03*
%TO.P,J17,15,Pin_15*%
%TO.N,/AN_CS2*%
X54991000Y-55245000D03*
%TO.P,J17,16,Pin_16*%
%TO.N,/GP10*%
X57531000Y-55245000D03*
%TO.P,J17,17,Pin_17*%
%TO.N,/AN_CS3*%
X54991000Y-57785000D03*
%TO.P,J17,18,Pin_18*%
%TO.N,/GP9*%
X57531000Y-57785000D03*
%TO.P,J17,19,Pin_19*%
%TO.N,/GP3*%
X54991000Y-60325000D03*
%TO.P,J17,20,Pin_20*%
%TO.N,/GP8*%
X57531000Y-60325000D03*
%TO.P,J17,21,Pin_21*%
%TO.N,/GP2*%
X54991000Y-62865000D03*
%TO.P,J17,22,Pin_22*%
%TO.N,/SCL1*%
X57531000Y-62865000D03*
%TO.P,J17,23,Pin_23*%
%TO.N,/GP1*%
X54991000Y-65405000D03*
%TO.P,J17,24,Pin_24*%
%TO.N,/SDA1*%
X57531000Y-65405000D03*
%TO.P,J17,25,Pin_25*%
%TO.N,/GP0*%
X54991000Y-67945000D03*
%TO.P,J17,26,Pin_26*%
%TO.N,/SCL0*%
X57531000Y-67945000D03*
%TO.P,J17,27,Pin_27*%
%TO.N,GND*%
X54991000Y-70485000D03*
%TO.P,J17,28,Pin_28*%
%TO.N,/SDA0*%
X57531000Y-70485000D03*
%TO.P,J17,29,Pin_29*%
%TO.N,GND*%
X54991000Y-73025000D03*
%TO.P,J17,30,Pin_30*%
X57531000Y-73025000D03*
%TD*%
D10*
%TO.P,J10,1,Pin_1*%
%TO.N,/P1*%
X29210000Y-20472400D03*
%TD*%
D12*
%TO.P,J20,1,1*%
%TO.N,unconnected-(J20-Pad1)*%
X7975600Y-53975000D03*
D13*
%TO.P,J20,2,2*%
%TO.N,+3V3*%
X5435600Y-53975000D03*
%TO.P,J20,3,3*%
%TO.N,/IN0+*%
X7975600Y-51435000D03*
%TO.P,J20,4,4*%
%TO.N,/IN1+*%
X5435600Y-51435000D03*
%TO.P,J20,5,5*%
%TO.N,/IN2+*%
X7975600Y-48895000D03*
%TO.P,J20,6,6*%
%TO.N,/IN3+*%
X5435600Y-48895000D03*
%TO.P,J20,7,7*%
%TO.N,/IN4+*%
X7975600Y-46355000D03*
%TO.P,J20,8,8*%
%TO.N,/IN5+*%
X5435600Y-46355000D03*
%TO.P,J20,9,9*%
%TO.N,/IN6+*%
X7975600Y-43815000D03*
%TO.P,J20,10,10*%
%TO.N,/IN7+*%
X5435600Y-43815000D03*
%TO.P,J20,11,11*%
%TO.N,GND*%
X7975600Y-41275000D03*
%TO.P,J20,12,12*%
X5435600Y-41275000D03*
%TD*%
D10*
%TO.P,J9,1,Pin_1*%
%TO.N,/P0*%
X29210000Y-11201400D03*
%TD*%
%TO.P,JP1,1,A*%
%TO.N,GND*%
X43408600Y-31140400D03*
D11*
%TO.P,JP1,2,C*%
%TO.N,/A1*%
X45948600Y-31140400D03*
%TO.P,JP1,3,B*%
%TO.N,+3V3*%
X48488600Y-31140400D03*
%TD*%
D10*
%TO.P,J12,1,Pin_1*%
%TO.N,/P3*%
X29210000Y-38989000D03*
%TD*%
%TO.P,J11,1,Pin_1*%
%TO.N,/P2*%
X29210000Y-29743400D03*
%TD*%
%TO.P,CON3,1,Pin_1*%
%TO.N,GND*%
X49733200Y-92202000D03*
D11*
%TO.P,CON3,2,Pin_2*%
%TO.N,+3V3*%
X47193200Y-92202000D03*
%TO.P,CON3,3,Pin_3*%
%TO.N,/SDA0*%
X44653200Y-92202000D03*
%TO.P,CON3,4,Pin_4*%
%TO.N,/SCL0*%
X42113200Y-92202000D03*
%TD*%
D10*
%TO.P,CON1,1,Pin_1*%
%TO.N,GND*%
X27635200Y-92227400D03*
D11*
%TO.P,CON1,2,Pin_2*%
%TO.N,+3V3*%
X25095200Y-92227400D03*
%TO.P,CON1,3,Pin_3*%
%TO.N,/SDA1*%
X22555200Y-92227400D03*
%TO.P,CON1,4,Pin_4*%
%TO.N,/SCL1*%
X20015200Y-92227400D03*
%TD*%
D10*
%TO.P,J14,1,Pin_1*%
%TO.N,/P5*%
X29210000Y-57505600D03*
%TD*%
%TO.P,J15,1,Pin_1*%
%TO.N,/P6*%
X29210000Y-66751200D03*
%TD*%
%TO.P,J13,1,Pin_1*%
%TO.N,/P4*%
X29210000Y-48260000D03*
%TD*%
D14*
%TO.N,GND*%
X24333200Y-70510400D03*
X24409400Y-79933800D03*
X41503600Y-53594000D03*
X24307800Y-61264800D03*
X24460200Y-52197000D03*
X43357800Y-45440600D03*
X34848800Y-48717200D03*
X52044600Y-52959000D03*
X24384000Y-44119800D03*
X24409400Y-35382200D03*
X24460200Y-7696200D03*
X24460200Y-17068800D03*
X24384000Y-24409400D03*
X31115000Y-88874600D03*
X53187600Y-85953600D03*
X56591200Y-10769600D03*
%TO.N,+3V3*%
X20167600Y-63421850D03*
X20167600Y-26134650D03*
X20167600Y-54049250D03*
X20167600Y-72540450D03*
X20167600Y-35583450D03*
X20171500Y-7897450D03*
X20167600Y-44956050D03*
X20167600Y-79984600D03*
X49682400Y-58216800D03*
X20167600Y-17168450D03*
%TO.N,/SDA1*%
X34696400Y-86029800D03*
X39471600Y-86029800D03*
%TO.N,/SCL1*%
X36525200Y-81280000D03*
%TO.N,/IN0+*%
X10642600Y-11252200D03*
%TO.N,/IN1+*%
X10693400Y-20548600D03*
%TO.N,/IN2+*%
X12877800Y-31750000D03*
%TO.N,/IN3+*%
X12877800Y-40767000D03*
%TO.N,/SDA0*%
X48806100Y-84721700D03*
X45516800Y-69215000D03*
%TO.N,/SCL0*%
X48818800Y-82397600D03*
X43434000Y-66675000D03*
%TD*%
D15*
%TO.N,+3V3*%
X20167600Y-72540450D02*
X33678450Y-72540450D01*
X5435600Y-55295800D02*
X6959600Y-56819800D01*
X48488600Y-57023000D02*
X49682400Y-58216800D01*
X20171500Y-9388250D02*
X20171500Y-7897450D01*
X54991000Y-42545000D02*
X20218400Y-42545000D01*
X33678450Y-72540450D02*
X47193200Y-86055200D01*
X47193200Y-86055200D02*
X47193200Y-92202000D01*
D16*
X48488600Y-31140400D02*
X48488600Y-37846000D01*
D15*
X6959600Y-56819800D02*
X20142200Y-56819800D01*
X48488600Y-37846000D02*
X48488600Y-57023000D01*
X20167600Y-56794400D02*
X20167600Y-9392150D01*
X20142200Y-56819800D02*
X20167600Y-56794400D01*
X20167600Y-79984600D02*
X20167600Y-56794400D01*
X5435600Y-53975000D02*
X5435600Y-55295800D01*
X20167600Y-9392150D02*
X20171500Y-9388250D01*
D17*
%TO.N,/SDA1*%
X39471600Y-86029800D02*
X34696400Y-86029800D01*
X22555200Y-89662000D02*
X22555200Y-92227400D01*
X34696400Y-86029800D02*
X26187400Y-86029800D01*
X26187400Y-86029800D02*
X22555200Y-89662000D01*
%TO.N,/SCL1*%
X20015200Y-88163400D02*
X20015200Y-92227400D01*
X36525200Y-81280000D02*
X26898600Y-81280000D01*
X26898600Y-81280000D02*
X20015200Y-88163400D01*
D18*
%TO.N,/IN0+*%
X6731000Y-52679600D02*
X7975600Y-51435000D01*
X10642600Y-11252200D02*
X7772400Y-11252200D01*
X3530600Y-52679600D02*
X6731000Y-52679600D01*
X1803400Y-17221200D02*
X1803400Y-50952400D01*
X7772400Y-11252200D02*
X1803400Y-17221200D01*
X1803400Y-50952400D02*
X3530600Y-52679600D01*
%TO.N,/IN1+*%
X2819400Y-50139600D02*
X4114800Y-51435000D01*
X10693400Y-20548600D02*
X8382000Y-20548600D01*
X2819400Y-26111200D02*
X2819400Y-50139600D01*
X8382000Y-20548600D02*
X2819400Y-26111200D01*
X4114800Y-51435000D02*
X5435600Y-51435000D01*
%TO.N,/IN2+*%
X14706600Y-45897800D02*
X11709400Y-48895000D01*
X12877800Y-31750000D02*
X14706600Y-33578800D01*
X11709400Y-48895000D02*
X7975600Y-48895000D01*
X14706600Y-33578800D02*
X14706600Y-45897800D01*
%TO.N,/IN3+*%
X12903200Y-40792400D02*
X12903200Y-45161200D01*
X12903200Y-45161200D02*
X10439400Y-47625000D01*
X5461000Y-48895000D02*
X5435600Y-48895000D01*
X10439400Y-47625000D02*
X6731000Y-47625000D01*
X6731000Y-47625000D02*
X5461000Y-48895000D01*
X12877800Y-40767000D02*
X12903200Y-40792400D01*
%TO.N,/SDA0*%
X48806100Y-84721700D02*
X51206400Y-82321400D01*
X56819800Y-69748400D02*
X56286400Y-69215000D01*
X57531000Y-70485000D02*
X56819800Y-69773800D01*
X56286400Y-69215000D02*
X45516800Y-69215000D01*
X56819800Y-69773800D02*
X56819800Y-69748400D01*
X51206400Y-82321400D02*
X51206400Y-69215000D01*
D17*
%TO.N,/SCL0*%
X43434000Y-77038200D02*
X43434000Y-66675000D01*
X48793400Y-82397600D02*
X43434000Y-77038200D01*
D18*
X43434000Y-66675000D02*
X56267400Y-66675000D01*
X56267400Y-66675000D02*
X57540000Y-67947600D01*
D17*
X48818800Y-82397600D02*
X48793400Y-82397600D01*
%TD*%
%TA.AperFunction,Conductor*%
%TO.N,GND*%
G36*
X8876845Y-790665D02*
G01*
X8906909Y-842736D01*
X8896468Y-901950D01*
X8882502Y-920150D01*
X8762070Y-1040583D01*
X8762069Y-1040584D01*
X8762065Y-1040589D01*
X8515802Y-1334072D01*
X8515797Y-1334079D01*
X8296048Y-1647911D01*
X8104479Y-1979718D01*
X8104474Y-1979729D01*
X7942565Y-2326943D01*
X7942562Y-2326951D01*
X7811524Y-2686975D01*
X7712361Y-3057056D01*
X7645833Y-3434354D01*
X7612440Y-3816034D01*
X7612440Y-4199165D01*
X7645833Y-4580845D01*
X7712361Y-4958143D01*
X7811524Y-5328224D01*
X7942562Y-5688248D01*
X7942565Y-5688256D01*
X8104474Y-6035470D01*
X8104479Y-6035481D01*
X8296048Y-6367288D01*
X8471847Y-6618353D01*
X8515798Y-6681122D01*
X8762070Y-6974617D01*
X9032983Y-7245530D01*
X9326478Y-7491802D01*
X9426513Y-7561847D01*
X9640311Y-7711551D01*
X9640320Y-7711556D01*
X9972120Y-7903121D01*
X10319354Y-8065039D01*
X10679378Y-8196077D01*
X11049453Y-8295238D01*
X11426763Y-8361768D01*
X11808435Y-8395160D01*
X11808439Y-8395160D01*
X12191561Y-8395160D01*
X12191565Y-8395160D01*
X12573237Y-8361768D01*
X12950547Y-8295238D01*
X13320622Y-8196077D01*
X13680646Y-8065039D01*
X14027880Y-7903121D01*
X14359680Y-7711556D01*
X14359683Y-7711553D01*
X14359688Y-7711551D01*
X14453998Y-7645513D01*
X14673522Y-7491802D01*
X14967017Y-7245530D01*
X15237930Y-6974617D01*
X15484202Y-6681122D01*
X15637913Y-6461598D01*
X15703951Y-6367288D01*
X15895520Y-6035481D01*
X15895521Y-6035480D01*
X16057439Y-5688246D01*
X16188477Y-5328222D01*
X16287638Y-4958147D01*
X16354168Y-4580837D01*
X16387560Y-4199165D01*
X16387560Y-3816035D01*
X16354168Y-3434363D01*
X16287638Y-3057053D01*
X16188477Y-2686978D01*
X16057439Y-2326954D01*
X15895521Y-1979720D01*
X15703956Y-1647920D01*
X15703951Y-1647911D01*
X15561057Y-1443839D01*
X15484202Y-1334078D01*
X15237930Y-1040583D01*
X15117500Y-920153D01*
X15092090Y-865661D01*
X15107653Y-807583D01*
X15156906Y-773095D01*
X15179656Y-770100D01*
X53055944Y-770100D01*
X53112445Y-790665D01*
X53142509Y-842736D01*
X53132068Y-901950D01*
X53118102Y-920150D01*
X52997670Y-1040583D01*
X52997669Y-1040584D01*
X52997665Y-1040589D01*
X52751402Y-1334072D01*
X52751397Y-1334079D01*
X52531648Y-1647911D01*
X52340079Y-1979718D01*
X52340074Y-1979729D01*
X52178165Y-2326943D01*
X52178162Y-2326951D01*
X52047124Y-2686975D01*
X51947961Y-3057056D01*
X51881433Y-3434354D01*
X51848040Y-3816034D01*
X51848040Y-4199165D01*
X51881433Y-4580845D01*
X51947961Y-4958143D01*
X52047124Y-5328224D01*
X52178162Y-5688248D01*
X52178165Y-5688256D01*
X52340074Y-6035470D01*
X52340079Y-6035481D01*
X52531648Y-6367288D01*
X52707447Y-6618353D01*
X52751398Y-6681122D01*
X52997670Y-6974617D01*
X53268583Y-7245530D01*
X53562078Y-7491802D01*
X53662113Y-7561847D01*
X53875911Y-7711551D01*
X53875920Y-7711556D01*
X54207720Y-7903121D01*
X54554954Y-8065039D01*
X54914978Y-8196077D01*
X55285053Y-8295238D01*
X55662363Y-8361768D01*
X56044035Y-8395160D01*
X56044039Y-8395160D01*
X56427161Y-8395160D01*
X56427165Y-8395160D01*
X56808837Y-8361768D01*
X57186147Y-8295238D01*
X57556222Y-8196077D01*
X57916246Y-8065039D01*
X58263480Y-7903121D01*
X58595280Y-7711556D01*
X58595283Y-7711553D01*
X58595288Y-7711551D01*
X58689598Y-7645513D01*
X58909122Y-7491802D01*
X59093100Y-7337425D01*
X59149600Y-7316861D01*
X59206101Y-7337425D01*
X59236165Y-7389497D01*
X59237500Y-7404761D01*
X59237500Y-87933064D01*
X59216935Y-87989565D01*
X59164864Y-88019629D01*
X59105650Y-88009188D01*
X59093099Y-88000399D01*
X58858327Y-87803402D01*
X58858325Y-87803400D01*
X58858322Y-87803398D01*
X58795553Y-87759447D01*
X58544488Y-87583648D01*
X58212681Y-87392079D01*
X58212670Y-87392074D01*
X57865456Y-87230165D01*
X57865448Y-87230162D01*
X57865446Y-87230161D01*
X57505422Y-87099123D01*
X57135347Y-86999962D01*
X57135346Y-86999961D01*
X57135343Y-86999961D01*
X56758045Y-86933433D01*
X56758040Y-86933432D01*
X56758037Y-86933432D01*
X56376365Y-86900040D01*
X55993235Y-86900040D01*
X55993234Y-86900040D01*
X55881958Y-86909775D01*
X55611563Y-86933432D01*
X55611560Y-86933432D01*
X55611554Y-86933433D01*
X55234256Y-86999961D01*
X55049215Y-87049542D01*
X54864178Y-87099123D01*
X54864175Y-87099123D01*
X54864175Y-87099124D01*
X54504151Y-87230162D01*
X54504143Y-87230165D01*
X54156929Y-87392074D01*
X54156918Y-87392079D01*
X53825111Y-87583648D01*
X53511279Y-87803397D01*
X53511272Y-87803402D01*
X53217789Y-88049665D01*
X53217784Y-88049669D01*
X52946869Y-88320584D01*
X52946865Y-88320589D01*
X52700602Y-88614072D01*
X52700597Y-88614079D01*
X52480848Y-88927911D01*
X52289279Y-89259718D01*
X52289274Y-89259729D01*
X52127365Y-89606943D01*
X52127362Y-89606951D01*
X51996324Y-89966975D01*
X51897161Y-90337056D01*
X51830633Y-90714354D01*
X51830632Y-90714360D01*
X51830632Y-90714363D01*
X51797240Y-91096035D01*
X51797240Y-91479165D01*
X51816945Y-91704398D01*
X51830633Y-91860845D01*
X51873570Y-92104352D01*
X51897162Y-92238147D01*
X51996323Y-92608222D01*
X52039701Y-92727400D01*
X52127362Y-92968248D01*
X52127365Y-92968256D01*
X52289274Y-93315470D01*
X52289279Y-93315481D01*
X52480848Y-93647288D01*
X52700597Y-93961120D01*
X52700602Y-93961127D01*
X52817717Y-94100699D01*
X52838282Y-94157200D01*
X52817717Y-94213701D01*
X52765646Y-94243765D01*
X52750382Y-94245100D01*
X15434418Y-94245100D01*
X15377917Y-94224535D01*
X15347853Y-94172464D01*
X15358294Y-94113250D01*
X15367083Y-94100699D01*
X15378900Y-94086615D01*
X15484202Y-93961122D01*
X15637913Y-93741598D01*
X15703951Y-93647288D01*
X15895520Y-93315481D01*
X15895521Y-93315480D01*
X16057439Y-92968246D01*
X16188477Y-92608222D01*
X16287638Y-92238147D01*
X16307777Y-92123936D01*
X18964700Y-92123936D01*
X18964700Y-92330863D01*
X19005067Y-92533811D01*
X19005069Y-92533816D01*
X19005070Y-92533820D01*
X19084259Y-92724998D01*
X19084260Y-92725000D01*
X19084261Y-92725001D01*
X19199219Y-92897050D01*
X19199220Y-92897051D01*
X19199223Y-92897055D01*
X19345545Y-93043377D01*
X19517602Y-93158341D01*
X19708780Y-93237530D01*
X19708785Y-93237531D01*
X19708788Y-93237532D01*
X19811632Y-93257988D01*
X19911735Y-93277900D01*
X19911737Y-93277900D01*
X20118663Y-93277900D01*
X20118665Y-93277900D01*
X20284654Y-93244883D01*
X20321611Y-93237532D01*
X20321612Y-93237531D01*
X20321620Y-93237530D01*
X20512798Y-93158341D01*
X20684855Y-93043377D01*
X20831177Y-92897055D01*
X20946141Y-92724998D01*
X21025330Y-92533820D01*
X21065700Y-92330865D01*
X21065700Y-92123936D01*
X21504700Y-92123936D01*
X21504700Y-92330863D01*
X21545067Y-92533811D01*
X21545069Y-92533816D01*
X21545070Y-92533820D01*
X21624259Y-92724998D01*
X21624260Y-92725000D01*
X21624261Y-92725001D01*
X21739219Y-92897050D01*
X21739220Y-92897051D01*
X21739223Y-92897055D01*
X21885545Y-93043377D01*
X22057602Y-93158341D01*
X22248780Y-93237530D01*
X22248785Y-93237531D01*
X22248788Y-93237532D01*
X22351632Y-93257988D01*
X22451735Y-93277900D01*
X22451737Y-93277900D01*
X22658663Y-93277900D01*
X22658665Y-93277900D01*
X22824654Y-93244883D01*
X22861611Y-93237532D01*
X22861612Y-93237531D01*
X22861620Y-93237530D01*
X23052798Y-93158341D01*
X23224855Y-93043377D01*
X23371177Y-92897055D01*
X23486141Y-92724998D01*
X23565330Y-92533820D01*
X23605700Y-92330865D01*
X23605700Y-92123936D01*
X24044700Y-92123936D01*
X24044700Y-92330863D01*
X24085067Y-92533811D01*
X24085069Y-92533816D01*
X24085070Y-92533820D01*
X24164259Y-92724998D01*
X24164260Y-92725000D01*
X24164261Y-92725001D01*
X24279219Y-92897050D01*
X24279220Y-92897051D01*
X24279223Y-92897055D01*
X24425545Y-93043377D01*
X24597602Y-93158341D01*
X24788780Y-93237530D01*
X24788785Y-93237531D01*
X24788788Y-93237532D01*
X24891632Y-93257988D01*
X24991735Y-93277900D01*
X24991737Y-93277900D01*
X25198663Y-93277900D01*
X25198665Y-93277900D01*
X25364654Y-93244883D01*
X25401611Y-93237532D01*
X25401612Y-93237531D01*
X25401620Y-93237530D01*
X25592798Y-93158341D01*
X25764855Y-93043377D01*
X25911177Y-92897055D01*
X26026141Y-92724998D01*
X26105330Y-92533820D01*
X26110266Y-92509007D01*
X26127206Y-92423843D01*
X26145700Y-92330863D01*
X26145700Y-92123939D01*
X26145700Y-92123935D01*
X26105330Y-91920980D01*
X26026141Y-91729802D01*
X25911177Y-91557745D01*
X25764855Y-91411423D01*
X25764851Y-91411420D01*
X25764850Y-91411419D01*
X25687726Y-91359887D01*
X26607400Y-91359887D01*
X26607400Y-91977399D01*
X26607401Y-91977400D01*
X27202188Y-91977400D01*
X27169275Y-92034407D01*
X27135200Y-92161574D01*
X27135200Y-92293226D01*
X27169275Y-92420393D01*
X27202188Y-92477400D01*
X26607402Y-92477400D01*
X26607401Y-92477401D01*
X26607401Y-93094908D01*
X26617716Y-93146775D01*
X26657011Y-93205582D01*
X26657017Y-93205588D01*
X26715824Y-93244883D01*
X26767687Y-93255199D01*
X27385198Y-93255199D01*
X27385200Y-93255198D01*
X27385200Y-92660412D01*
X27442207Y-92693325D01*
X27569374Y-92727400D01*
X27701026Y-92727400D01*
X27828193Y-92693325D01*
X27885200Y-92660412D01*
X27885200Y-93255198D01*
X27885201Y-93255199D01*
X28502709Y-93255199D01*
X28554575Y-93244883D01*
X28613382Y-93205588D01*
X28613388Y-93205582D01*
X28652683Y-93146775D01*
X28663000Y-93094912D01*
X28663000Y-92477401D01*
X28662999Y-92477400D01*
X28068212Y-92477400D01*
X28101125Y-92420393D01*
X28135200Y-92293226D01*
X28135200Y-92161574D01*
X28118308Y-92098535D01*
X41062700Y-92098535D01*
X41062700Y-92305465D01*
X41072689Y-92355684D01*
X41103067Y-92508411D01*
X41103069Y-92508416D01*
X41103070Y-92508420D01*
X41182259Y-92699598D01*
X41182260Y-92699600D01*
X41182261Y-92699601D01*
X41297219Y-92871650D01*
X41297220Y-92871651D01*
X41297223Y-92871655D01*
X41443545Y-93017977D01*
X41443548Y-93017979D01*
X41443549Y-93017980D01*
X41520667Y-93069508D01*
X41615602Y-93132941D01*
X41806780Y-93212130D01*
X41806785Y-93212131D01*
X41806788Y-93212132D01*
X41909632Y-93232588D01*
X42009735Y-93252500D01*
X42009737Y-93252500D01*
X42216663Y-93252500D01*
X42216665Y-93252500D01*
X42382654Y-93219483D01*
X42419611Y-93212132D01*
X42419612Y-93212131D01*
X42419620Y-93212130D01*
X42610798Y-93132941D01*
X42782855Y-93017977D01*
X42929177Y-92871655D01*
X43044141Y-92699598D01*
X43123330Y-92508420D01*
X43163700Y-92305465D01*
X43163700Y-92098535D01*
X43602700Y-92098535D01*
X43602700Y-92305465D01*
X43612689Y-92355684D01*
X43643067Y-92508411D01*
X43643069Y-92508416D01*
X43643070Y-92508420D01*
X43722259Y-92699598D01*
X43722260Y-92699600D01*
X43722261Y-92699601D01*
X43837219Y-92871650D01*
X43837220Y-92871651D01*
X43837223Y-92871655D01*
X43983545Y-93017977D01*
X43983548Y-93017979D01*
X43983549Y-93017980D01*
X44060667Y-93069508D01*
X44155602Y-93132941D01*
X44346780Y-93212130D01*
X44346785Y-93212131D01*
X44346788Y-93212132D01*
X44449632Y-93232588D01*
X44549735Y-93252500D01*
X44549737Y-93252500D01*
X44756663Y-93252500D01*
X44756665Y-93252500D01*
X44922654Y-93219483D01*
X44959611Y-93212132D01*
X44959612Y-93212131D01*
X44959620Y-93212130D01*
X45150798Y-93132941D01*
X45322855Y-93017977D01*
X45469177Y-92871655D01*
X45584141Y-92699598D01*
X45663330Y-92508420D01*
X45703700Y-92305465D01*
X45703700Y-92098535D01*
X45674553Y-91952000D01*
X45663332Y-91895588D01*
X45663331Y-91895585D01*
X45663330Y-91895580D01*
X45584141Y-91704402D01*
X45526659Y-91618373D01*
X45469180Y-91532349D01*
X45469179Y-91532348D01*
X45469177Y-91532345D01*
X45322855Y-91386023D01*
X45322851Y-91386020D01*
X45322850Y-91386019D01*
X45150801Y-91271061D01*
X45150800Y-91271060D01*
X45150798Y-91271059D01*
X44959620Y-91191870D01*
X44959616Y-91191869D01*
X44959611Y-91191867D01*
X44806884Y-91161489D01*
X44756665Y-91151500D01*
X44549735Y-91151500D01*
X44505044Y-91160389D01*
X44346788Y-91191867D01*
X44346783Y-91191869D01*
X44346781Y-91191869D01*
X44346780Y-91191870D01*
X44155602Y-91271059D01*
X44155600Y-91271059D01*
X44155598Y-91271061D01*
X43983549Y-91386019D01*
X43837219Y-91532349D01*
X43722261Y-91704398D01*
X43722259Y-91704400D01*
X43722259Y-91704402D01*
X43657461Y-91860837D01*
X43643069Y-91895583D01*
X43643067Y-91895588D01*
X43607694Y-92073425D01*
X43602700Y-92098535D01*
X43163700Y-92098535D01*
X43134553Y-91952000D01*
X43123332Y-91895588D01*
X43123331Y-91895585D01*
X43123330Y-91895580D01*
X43044141Y-91704402D01*
X42986659Y-91618373D01*
X42929180Y-91532349D01*
X42929179Y-91532348D01*
X42929177Y-91532345D01*
X42782855Y-91386023D01*
X42782851Y-91386020D01*
X42782850Y-91386019D01*
X42610801Y-91271061D01*
X42610800Y-91271060D01*
X42610798Y-91271059D01*
X42419620Y-91191870D01*
X42419616Y-91191869D01*
X42419611Y-91191867D01*
X42266884Y-91161489D01*
X42216665Y-91151500D01*
X42009735Y-91151500D01*
X41965044Y-91160389D01*
X41806788Y-91191867D01*
X41806783Y-91191869D01*
X41806781Y-91191869D01*
X41806780Y-91191870D01*
X41615602Y-91271059D01*
X41615600Y-91271059D01*
X41615598Y-91271061D01*
X41443549Y-91386019D01*
X41297219Y-91532349D01*
X41182261Y-91704398D01*
X41182259Y-91704400D01*
X41182259Y-91704402D01*
X41117461Y-91860837D01*
X41103069Y-91895583D01*
X41103067Y-91895588D01*
X41067694Y-92073425D01*
X41062700Y-92098535D01*
X28118308Y-92098535D01*
X28101125Y-92034407D01*
X28068212Y-91977400D01*
X28662998Y-91977400D01*
X28662999Y-91977399D01*
X28662999Y-91359891D01*
X28652683Y-91308024D01*
X28613388Y-91249217D01*
X28613382Y-91249211D01*
X28554575Y-91209916D01*
X28502713Y-91199600D01*
X27885201Y-91199600D01*
X27885200Y-91199601D01*
X27885200Y-91794388D01*
X27828193Y-91761475D01*
X27701026Y-91727400D01*
X27569374Y-91727400D01*
X27442207Y-91761475D01*
X27385200Y-91794388D01*
X27385200Y-91199601D01*
X27385199Y-91199600D01*
X26767686Y-91199600D01*
X26767684Y-91199601D01*
X26715828Y-91209914D01*
X26715824Y-91209916D01*
X26657017Y-91249211D01*
X26657011Y-91249217D01*
X26617716Y-91308024D01*
X26607400Y-91359887D01*
X25687726Y-91359887D01*
X25592801Y-91296461D01*
X25592800Y-91296460D01*
X25592798Y-91296459D01*
X25401620Y-91217270D01*
X25401616Y-91217269D01*
X25401611Y-91217267D01*
X25236943Y-91184514D01*
X25198665Y-91176900D01*
X24991735Y-91176900D01*
X24953457Y-91184514D01*
X24788788Y-91217267D01*
X24788783Y-91217269D01*
X24788781Y-91217269D01*
X24788780Y-91217270D01*
X24597602Y-91296459D01*
X24597600Y-91296459D01*
X24597598Y-91296461D01*
X24425549Y-91411419D01*
X24279219Y-91557749D01*
X24164261Y-91729798D01*
X24164259Y-91729800D01*
X24164259Y-91729802D01*
X24109982Y-91860837D01*
X24085069Y-91920983D01*
X24085067Y-91920988D01*
X24044700Y-92123936D01*
X23605700Y-92123936D01*
X23605700Y-92123935D01*
X23576553Y-91977400D01*
X23565332Y-91920988D01*
X23565331Y-91920985D01*
X23565330Y-91920980D01*
X23486141Y-91729802D01*
X23371177Y-91557745D01*
X23224855Y-91411423D01*
X23224851Y-91411420D01*
X23224850Y-91411419D01*
X23049208Y-91294060D01*
X23050555Y-91292043D01*
X23015986Y-91253380D01*
X23009700Y-91220737D01*
X23009700Y-89886670D01*
X23030265Y-89830169D01*
X23035445Y-89824515D01*
X26349915Y-86510045D01*
X26404409Y-86484634D01*
X26412070Y-86484300D01*
X34202323Y-86484300D01*
X34258824Y-86504865D01*
X34264466Y-86510034D01*
X34285236Y-86530804D01*
X34390878Y-86601392D01*
X34508260Y-86650013D01*
X34508261Y-86650013D01*
X34508263Y-86650014D01*
X34570992Y-86662491D01*
X34632873Y-86674800D01*
X34632875Y-86674800D01*
X34759925Y-86674800D01*
X34759927Y-86674800D01*
X34842248Y-86658425D01*
X34884536Y-86650014D01*
X34884536Y-86650013D01*
X34884540Y-86650013D01*
X35001922Y-86601392D01*
X35107564Y-86530804D01*
X35128323Y-86510044D01*
X35182816Y-86484634D01*
X35190477Y-86484300D01*
X38977523Y-86484300D01*
X39034024Y-86504865D01*
X39039666Y-86510034D01*
X39060436Y-86530804D01*
X39166078Y-86601392D01*
X39283460Y-86650013D01*
X39283461Y-86650013D01*
X39283463Y-86650014D01*
X39346192Y-86662491D01*
X39408073Y-86674800D01*
X39408075Y-86674800D01*
X39535125Y-86674800D01*
X39535127Y-86674800D01*
X39617448Y-86658425D01*
X39659736Y-86650014D01*
X39659736Y-86650013D01*
X39659740Y-86650013D01*
X39777122Y-86601392D01*
X39882764Y-86530804D01*
X39972604Y-86440964D01*
X40043192Y-86335322D01*
X40091813Y-86217940D01*
X40116600Y-86093327D01*
X40116600Y-85966273D01*
X40091813Y-85841660D01*
X40043192Y-85724278D01*
X39972604Y-85618636D01*
X39882764Y-85528796D01*
X39777122Y-85458208D01*
X39777121Y-85458207D01*
X39777119Y-85458206D01*
X39659740Y-85409587D01*
X39659736Y-85409585D01*
X39566066Y-85390954D01*
X39535127Y-85384800D01*
X39408073Y-85384800D01*
X39380550Y-85390274D01*
X39283463Y-85409585D01*
X39283459Y-85409587D01*
X39166080Y-85458206D01*
X39060438Y-85528794D01*
X39060436Y-85528795D01*
X39060436Y-85528796D01*
X39039676Y-85549555D01*
X38985184Y-85574966D01*
X38977523Y-85575300D01*
X35190477Y-85575300D01*
X35133976Y-85554735D01*
X35128333Y-85549565D01*
X35107564Y-85528796D01*
X35001922Y-85458208D01*
X35001921Y-85458207D01*
X35001919Y-85458206D01*
X34884540Y-85409587D01*
X34884536Y-85409585D01*
X34790866Y-85390954D01*
X34759927Y-85384800D01*
X34632873Y-85384800D01*
X34605350Y-85390274D01*
X34508263Y-85409585D01*
X34508259Y-85409587D01*
X34390880Y-85458206D01*
X34285238Y-85528794D01*
X34285236Y-85528795D01*
X34285236Y-85528796D01*
X34264476Y-85549555D01*
X34209984Y-85574966D01*
X34202323Y-85575300D01*
X26252634Y-85575300D01*
X26252618Y-85575299D01*
X26247236Y-85575299D01*
X26127564Y-85575299D01*
X26011971Y-85606271D01*
X25990178Y-85618854D01*
X25990177Y-85618853D01*
X25908331Y-85666107D01*
X22191510Y-89382928D01*
X22131673Y-89486568D01*
X22131673Y-89486569D01*
X22125126Y-89511000D01*
X22100699Y-89602164D01*
X22100699Y-89728915D01*
X22100700Y-89728928D01*
X22100700Y-91220737D01*
X22080135Y-91277238D01*
X22060573Y-91293134D01*
X22061192Y-91294060D01*
X21885549Y-91411419D01*
X21739219Y-91557749D01*
X21624261Y-91729798D01*
X21624259Y-91729800D01*
X21624259Y-91729802D01*
X21569982Y-91860837D01*
X21545069Y-91920983D01*
X21545067Y-91920988D01*
X21504700Y-92123936D01*
X21065700Y-92123936D01*
X21065700Y-92123935D01*
X21036553Y-91977400D01*
X21025332Y-91920988D01*
X21025331Y-91920985D01*
X21025330Y-91920980D01*
X20946141Y-91729802D01*
X20831177Y-91557745D01*
X20684855Y-91411423D01*
X20684851Y-91411420D01*
X20684850Y-91411419D01*
X20509208Y-91294060D01*
X20510555Y-91292043D01*
X20475986Y-91253380D01*
X20469700Y-91220737D01*
X20469700Y-88388070D01*
X20490265Y-88331569D01*
X20495445Y-88325915D01*
X27061115Y-81760245D01*
X27115609Y-81734834D01*
X27123270Y-81734500D01*
X36031123Y-81734500D01*
X36087624Y-81755065D01*
X36093266Y-81760234D01*
X36114036Y-81781004D01*
X36219678Y-81851592D01*
X36337060Y-81900213D01*
X36337061Y-81900213D01*
X36337063Y-81900214D01*
X36399792Y-81912691D01*
X36461673Y-81925000D01*
X36461675Y-81925000D01*
X36588725Y-81925000D01*
X36588727Y-81925000D01*
X36671048Y-81908625D01*
X36713336Y-81900214D01*
X36713336Y-81900213D01*
X36713340Y-81900213D01*
X36830722Y-81851592D01*
X36936364Y-81781004D01*
X37026204Y-81691164D01*
X37096792Y-81585522D01*
X37145413Y-81468140D01*
X37170200Y-81343527D01*
X37170200Y-81216473D01*
X37145413Y-81091860D01*
X37096792Y-80974478D01*
X37026204Y-80868836D01*
X36936364Y-80778996D01*
X36830722Y-80708408D01*
X36830721Y-80708407D01*
X36830719Y-80708406D01*
X36713340Y-80659787D01*
X36713336Y-80659785D01*
X36619666Y-80641154D01*
X36588727Y-80635000D01*
X36461673Y-80635000D01*
X36434150Y-80640474D01*
X36337063Y-80659785D01*
X36337059Y-80659787D01*
X36219680Y-80708406D01*
X36114038Y-80778994D01*
X36114036Y-80778995D01*
X36114036Y-80778996D01*
X36093276Y-80799755D01*
X36038784Y-80825166D01*
X36031123Y-80825500D01*
X26963834Y-80825500D01*
X26963818Y-80825499D01*
X26958436Y-80825499D01*
X26838764Y-80825499D01*
X26723171Y-80856471D01*
X26701378Y-80869054D01*
X26701377Y-80869053D01*
X26619531Y-80916307D01*
X19651510Y-87884328D01*
X19591673Y-87987969D01*
X19591673Y-87987970D01*
X19560699Y-88103564D01*
X19560699Y-88230315D01*
X19560700Y-88230328D01*
X19560700Y-91220737D01*
X19540135Y-91277238D01*
X19520573Y-91293134D01*
X19521192Y-91294060D01*
X19345549Y-91411419D01*
X19199219Y-91557749D01*
X19084261Y-91729798D01*
X19084259Y-91729800D01*
X19084259Y-91729802D01*
X19029982Y-91860837D01*
X19005069Y-91920983D01*
X19005067Y-91920988D01*
X18964700Y-92123936D01*
X16307777Y-92123936D01*
X16309993Y-92111367D01*
X16311230Y-92104353D01*
X16311230Y-92104352D01*
X16354166Y-91860847D01*
X16354168Y-91860837D01*
X16387560Y-91479165D01*
X16387560Y-91096035D01*
X16354168Y-90714363D01*
X16287638Y-90337053D01*
X16188477Y-89966978D01*
X16057439Y-89606954D01*
X16055205Y-89602164D01*
X15895525Y-89259729D01*
X15895520Y-89259718D01*
X15703951Y-88927911D01*
X15561057Y-88723839D01*
X15484202Y-88614078D01*
X15237930Y-88320583D01*
X14967017Y-88049670D01*
X14673522Y-87803398D01*
X14610753Y-87759447D01*
X14359688Y-87583648D01*
X14027881Y-87392079D01*
X14027870Y-87392074D01*
X13680656Y-87230165D01*
X13680648Y-87230162D01*
X13680646Y-87230161D01*
X13320622Y-87099123D01*
X12950547Y-86999962D01*
X12950546Y-86999961D01*
X12950543Y-86999961D01*
X12573245Y-86933433D01*
X12573240Y-86933432D01*
X12573237Y-86933432D01*
X12191565Y-86900040D01*
X11808435Y-86900040D01*
X11808434Y-86900040D01*
X11697158Y-86909775D01*
X11426763Y-86933432D01*
X11426760Y-86933432D01*
X11426754Y-86933433D01*
X11049456Y-86999961D01*
X10864415Y-87049542D01*
X10679378Y-87099123D01*
X10679375Y-87099123D01*
X10679375Y-87099124D01*
X10319351Y-87230162D01*
X10319343Y-87230165D01*
X9972129Y-87392074D01*
X9972118Y-87392079D01*
X9640311Y-87583648D01*
X9326479Y-87803397D01*
X9326472Y-87803402D01*
X9032989Y-88049665D01*
X9032984Y-88049669D01*
X8762069Y-88320584D01*
X8762065Y-88320589D01*
X8515802Y-88614072D01*
X8515797Y-88614079D01*
X8296048Y-88927911D01*
X8104479Y-89259718D01*
X8104474Y-89259729D01*
X7942565Y-89606943D01*
X7942562Y-89606951D01*
X7811524Y-89966975D01*
X7712361Y-90337056D01*
X7645833Y-90714354D01*
X7645832Y-90714360D01*
X7645832Y-90714363D01*
X7612440Y-91096035D01*
X7612440Y-91479165D01*
X7632145Y-91704398D01*
X7645833Y-91860845D01*
X7688770Y-92104352D01*
X7712362Y-92238147D01*
X7811523Y-92608222D01*
X7854901Y-92727400D01*
X7942562Y-92968248D01*
X7942565Y-92968256D01*
X8104474Y-93315470D01*
X8104479Y-93315481D01*
X8296048Y-93647288D01*
X8515797Y-93961120D01*
X8515802Y-93961127D01*
X8632917Y-94100699D01*
X8653482Y-94157200D01*
X8632917Y-94213701D01*
X8580846Y-94243765D01*
X8565582Y-94245100D01*
X850400Y-94245100D01*
X793899Y-94224535D01*
X763835Y-94172464D01*
X762500Y-94157200D01*
X762500Y-17168052D01*
X1399699Y-17168052D01*
X1399699Y-17274348D01*
X1399699Y-17274350D01*
X1399700Y-17281434D01*
X1399700Y-50893853D01*
X1399699Y-50893871D01*
X1399699Y-50899252D01*
X1399699Y-51005548D01*
X1413170Y-51055821D01*
X1427211Y-51108223D01*
X1443179Y-51135881D01*
X1480361Y-51200281D01*
X1555523Y-51275442D01*
X1555524Y-51275442D01*
X3207557Y-52927475D01*
X3207559Y-52927478D01*
X3282722Y-53002641D01*
X3297928Y-53011420D01*
X3374778Y-53055790D01*
X3477452Y-53083301D01*
X3589131Y-53083301D01*
X3589147Y-53083300D01*
X4664815Y-53083300D01*
X4721316Y-53103865D01*
X4751380Y-53155936D01*
X4740939Y-53215150D01*
X4726973Y-53233350D01*
X4639042Y-53321282D01*
X4639039Y-53321285D01*
X4639038Y-53321286D01*
X4526815Y-53489241D01*
X4526815Y-53489242D01*
X4526814Y-53489244D01*
X4466051Y-53635938D01*
X4449509Y-53675873D01*
X4449506Y-53675881D01*
X4410100Y-53873998D01*
X4410100Y-54076001D01*
X4449506Y-54274118D01*
X4449508Y-54274124D01*
X4449509Y-54274127D01*
X4526814Y-54460756D01*
X4526815Y-54460757D01*
X4526815Y-54460758D01*
X4639038Y-54628713D01*
X4639039Y-54628714D01*
X4639042Y-54628718D01*
X4701355Y-54691031D01*
X4726766Y-54745524D01*
X4727100Y-54753185D01*
X4727100Y-55365580D01*
X4754325Y-55502457D01*
X4754327Y-55502462D01*
X4807733Y-55631398D01*
X4807734Y-55631400D01*
X4807735Y-55631401D01*
X4885272Y-55747443D01*
X6507957Y-57370127D01*
X6623999Y-57447665D01*
X6677405Y-57469785D01*
X6677406Y-57469786D01*
X6689125Y-57474640D01*
X6752938Y-57501073D01*
X6752942Y-57501073D01*
X6752945Y-57501075D01*
X6835664Y-57517528D01*
X6889819Y-57528300D01*
X19371200Y-57528300D01*
X19427701Y-57548865D01*
X19457765Y-57600936D01*
X19459100Y-57616200D01*
X19459100Y-80054379D01*
X19486324Y-80191254D01*
X19486326Y-80191260D01*
X19486327Y-80191262D01*
X19539736Y-80320201D01*
X19539737Y-80320202D01*
X19539737Y-80320203D01*
X19617268Y-80436237D01*
X19617269Y-80436238D01*
X19617272Y-80436242D01*
X19715958Y-80534928D01*
X19831999Y-80612464D01*
X19960938Y-80665873D01*
X19960942Y-80665873D01*
X19960945Y-80665875D01*
X20043664Y-80682328D01*
X20097819Y-80693100D01*
X20097821Y-80693100D01*
X20237379Y-80693100D01*
X20237381Y-80693100D01*
X20304891Y-80679671D01*
X20374254Y-80665875D01*
X20374255Y-80665874D01*
X20374262Y-80665873D01*
X20503201Y-80612464D01*
X20619242Y-80534928D01*
X20717928Y-80436242D01*
X20795464Y-80320201D01*
X20848873Y-80191262D01*
X20876100Y-80054381D01*
X20876100Y-75127052D01*
X28159500Y-75127052D01*
X28159500Y-76866548D01*
X28167255Y-76905536D01*
X28171133Y-76925032D01*
X28215445Y-76991348D01*
X28215448Y-76991352D01*
X28215451Y-76991354D01*
X28281767Y-77035666D01*
X28281769Y-77035667D01*
X28340252Y-77047300D01*
X28340254Y-77047300D01*
X30079746Y-77047300D01*
X30079748Y-77047300D01*
X30138231Y-77035667D01*
X30204552Y-76991352D01*
X30248867Y-76925031D01*
X30260500Y-76866548D01*
X30260500Y-75127052D01*
X30248867Y-75068569D01*
X30204552Y-75002248D01*
X30204548Y-75002245D01*
X30138232Y-74957933D01*
X30118736Y-74954055D01*
X30079748Y-74946300D01*
X28340252Y-74946300D01*
X28311010Y-74952116D01*
X28281767Y-74957933D01*
X28215451Y-75002245D01*
X28215445Y-75002251D01*
X28171133Y-75068567D01*
X28171133Y-75068569D01*
X28159500Y-75127052D01*
X20876100Y-75127052D01*
X20876100Y-73336850D01*
X20896665Y-73280349D01*
X20948736Y-73250285D01*
X20964000Y-73248950D01*
X33348569Y-73248950D01*
X33405070Y-73269515D01*
X33410724Y-73274695D01*
X46458955Y-86322925D01*
X46484366Y-86377419D01*
X46484700Y-86385080D01*
X46484700Y-91388458D01*
X46464135Y-91444959D01*
X46458955Y-91450612D01*
X46377224Y-91532343D01*
X46377219Y-91532349D01*
X46262261Y-91704398D01*
X46262259Y-91704400D01*
X46262259Y-91704402D01*
X46197461Y-91860837D01*
X46183069Y-91895583D01*
X46183067Y-91895588D01*
X46147694Y-92073425D01*
X46142700Y-92098535D01*
X46142700Y-92305465D01*
X46152689Y-92355684D01*
X46183067Y-92508411D01*
X46183069Y-92508416D01*
X46183070Y-92508420D01*
X46262259Y-92699598D01*
X46262260Y-92699600D01*
X46262261Y-92699601D01*
X46377219Y-92871650D01*
X46377220Y-92871651D01*
X46377223Y-92871655D01*
X46523545Y-93017977D01*
X46523548Y-93017979D01*
X46523549Y-93017980D01*
X46600667Y-93069508D01*
X46695602Y-93132941D01*
X46886780Y-93212130D01*
X46886785Y-93212131D01*
X46886788Y-93212132D01*
X46989632Y-93232588D01*
X47089735Y-93252500D01*
X47089737Y-93252500D01*
X47296663Y-93252500D01*
X47296665Y-93252500D01*
X47462654Y-93219483D01*
X47499611Y-93212132D01*
X47499612Y-93212131D01*
X47499620Y-93212130D01*
X47690798Y-93132941D01*
X47862855Y-93017977D01*
X48009177Y-92871655D01*
X48124141Y-92699598D01*
X48203330Y-92508420D01*
X48209500Y-92477400D01*
X48225206Y-92398443D01*
X48233929Y-92354584D01*
X48243700Y-92305465D01*
X48243700Y-92098535D01*
X48214553Y-91952000D01*
X48203332Y-91895588D01*
X48203331Y-91895585D01*
X48203330Y-91895580D01*
X48124141Y-91704402D01*
X48066659Y-91618373D01*
X48009180Y-91532349D01*
X48009175Y-91532343D01*
X47927445Y-91450612D01*
X47919336Y-91433222D01*
X47907001Y-91418522D01*
X47903668Y-91399623D01*
X47902034Y-91396118D01*
X47901700Y-91388458D01*
X47901700Y-91334487D01*
X48705400Y-91334487D01*
X48705400Y-91951999D01*
X48705401Y-91952000D01*
X49300188Y-91952000D01*
X49267275Y-92009007D01*
X49233200Y-92136174D01*
X49233200Y-92267826D01*
X49267275Y-92394993D01*
X49300188Y-92452000D01*
X48705402Y-92452000D01*
X48705401Y-92452001D01*
X48705401Y-93069508D01*
X48715716Y-93121375D01*
X48755011Y-93180182D01*
X48755017Y-93180188D01*
X48813824Y-93219483D01*
X48865687Y-93229799D01*
X49483198Y-93229799D01*
X49483200Y-93229798D01*
X49483200Y-92635012D01*
X49540207Y-92667925D01*
X49667374Y-92702000D01*
X49799026Y-92702000D01*
X49926193Y-92667925D01*
X49983200Y-92635012D01*
X49983200Y-93229798D01*
X49983201Y-93229799D01*
X50600709Y-93229799D01*
X50652575Y-93219483D01*
X50711382Y-93180188D01*
X50711388Y-93180182D01*
X50750683Y-93121375D01*
X50761000Y-93069512D01*
X50761000Y-92452001D01*
X50760999Y-92452000D01*
X50166212Y-92452000D01*
X50199125Y-92394993D01*
X50233200Y-92267826D01*
X50233200Y-92136174D01*
X50199125Y-92009007D01*
X50166212Y-91952000D01*
X50760998Y-91952000D01*
X50760999Y-91951999D01*
X50760999Y-91334491D01*
X50750683Y-91282624D01*
X50711388Y-91223817D01*
X50711382Y-91223811D01*
X50652575Y-91184516D01*
X50600713Y-91174200D01*
X49983201Y-91174200D01*
X49983200Y-91174201D01*
X49983200Y-91768988D01*
X49926193Y-91736075D01*
X49799026Y-91702000D01*
X49667374Y-91702000D01*
X49540207Y-91736075D01*
X49483200Y-91768988D01*
X49483200Y-91174201D01*
X49483199Y-91174200D01*
X48865686Y-91174200D01*
X48865684Y-91174201D01*
X48813828Y-91184514D01*
X48813824Y-91184516D01*
X48755017Y-91223811D01*
X48755011Y-91223817D01*
X48715716Y-91282624D01*
X48705400Y-91334487D01*
X47901700Y-91334487D01*
X47901700Y-85985420D01*
X47874475Y-85848545D01*
X47874473Y-85848542D01*
X47874473Y-85848538D01*
X47833959Y-85750730D01*
X47821065Y-85719600D01*
X47743528Y-85603558D01*
X34130093Y-71990122D01*
X34014051Y-71912585D01*
X33922877Y-71874819D01*
X33922876Y-71874818D01*
X33885113Y-71859177D01*
X33885107Y-71859175D01*
X33816671Y-71845563D01*
X33793858Y-71841025D01*
X33748234Y-71831950D01*
X33748232Y-71831950D01*
X33748231Y-71831950D01*
X20964000Y-71831950D01*
X20907499Y-71811385D01*
X20877435Y-71759314D01*
X20876100Y-71744050D01*
X20876100Y-65881453D01*
X28159500Y-65881453D01*
X28159500Y-67620946D01*
X28171133Y-67679432D01*
X28215445Y-67745748D01*
X28215448Y-67745752D01*
X28215451Y-67745754D01*
X28281767Y-67790066D01*
X28281769Y-67790067D01*
X28340252Y-67801700D01*
X28340254Y-67801700D01*
X30079746Y-67801700D01*
X30079748Y-67801700D01*
X30138231Y-67790067D01*
X30204552Y-67745752D01*
X30248867Y-67679431D01*
X30260500Y-67620948D01*
X30260500Y-66611474D01*
X42789000Y-66611474D01*
X42789000Y-66738525D01*
X42813785Y-66863136D01*
X42813787Y-66863140D01*
X42862406Y-66980519D01*
X42862407Y-66980521D01*
X42862408Y-66980522D01*
X42932996Y-67086164D01*
X42953755Y-67106923D01*
X42979166Y-67161416D01*
X42979500Y-67169077D01*
X42979500Y-76972965D01*
X42979499Y-76972983D01*
X42979499Y-77098035D01*
X43003927Y-77189202D01*
X43010472Y-77213629D01*
X43070311Y-77317273D01*
X43154931Y-77401892D01*
X43154932Y-77401892D01*
X48148055Y-82395015D01*
X48173466Y-82449509D01*
X48173800Y-82457170D01*
X48173800Y-82461125D01*
X48198585Y-82585736D01*
X48198587Y-82585740D01*
X48247206Y-82703119D01*
X48247207Y-82703121D01*
X48247208Y-82703122D01*
X48317796Y-82808764D01*
X48407636Y-82898604D01*
X48513278Y-82969192D01*
X48630660Y-83017813D01*
X48630661Y-83017813D01*
X48630663Y-83017814D01*
X48693392Y-83030291D01*
X48755273Y-83042600D01*
X48755275Y-83042600D01*
X48882325Y-83042600D01*
X48882327Y-83042600D01*
X48964648Y-83026225D01*
X49006936Y-83017814D01*
X49006936Y-83017813D01*
X49006940Y-83017813D01*
X49124322Y-82969192D01*
X49229964Y-82898604D01*
X49319804Y-82808764D01*
X49390392Y-82703122D01*
X49439013Y-82585740D01*
X49442288Y-82569278D01*
X49463800Y-82461125D01*
X49463800Y-82334074D01*
X49439014Y-82209463D01*
X49439013Y-82209461D01*
X49439013Y-82209460D01*
X49390392Y-82092078D01*
X49319804Y-81986436D01*
X49229964Y-81896596D01*
X49124322Y-81826008D01*
X49124321Y-81826007D01*
X49124319Y-81826006D01*
X49006940Y-81777387D01*
X49006936Y-81777385D01*
X48913266Y-81758754D01*
X48882327Y-81752600D01*
X48882325Y-81752600D01*
X48827570Y-81752600D01*
X48771069Y-81732035D01*
X48765415Y-81726855D01*
X43914245Y-76875685D01*
X43888834Y-76821191D01*
X43888500Y-76813530D01*
X43888500Y-67169078D01*
X43895063Y-67151045D01*
X43896736Y-67131930D01*
X43907742Y-67116209D01*
X43909065Y-67112577D01*
X43914245Y-67106923D01*
X43916723Y-67104445D01*
X43971217Y-67079034D01*
X43978878Y-67078700D01*
X54159459Y-67078700D01*
X54215960Y-67099265D01*
X54246024Y-67151336D01*
X54235583Y-67210550D01*
X54221617Y-67228750D01*
X54175023Y-67275345D01*
X54175020Y-67275348D01*
X54175019Y-67275349D01*
X54060061Y-67447398D01*
X54060059Y-67447400D01*
X54060059Y-67447402D01*
X53980870Y-67638580D01*
X53980869Y-67638583D01*
X53980867Y-67638588D01*
X53940500Y-67841536D01*
X53940500Y-68048463D01*
X53980867Y-68251411D01*
X53980869Y-68251416D01*
X53980870Y-68251420D01*
X54060059Y-68442598D01*
X54060060Y-68442600D01*
X54060061Y-68442601D01*
X54175019Y-68614650D01*
X54175020Y-68614651D01*
X54175023Y-68614655D01*
X54221614Y-68661246D01*
X54247025Y-68715739D01*
X54231462Y-68773817D01*
X54182209Y-68808305D01*
X54159459Y-68811300D01*
X46061678Y-68811300D01*
X46005177Y-68790735D01*
X45999524Y-68785555D01*
X45927966Y-68713997D01*
X45927963Y-68713995D01*
X45822319Y-68643406D01*
X45704940Y-68594787D01*
X45704936Y-68594785D01*
X45611266Y-68576154D01*
X45580327Y-68570000D01*
X45453273Y-68570000D01*
X45425750Y-68575474D01*
X45328663Y-68594785D01*
X45328659Y-68594787D01*
X45211280Y-68643406D01*
X45105638Y-68713994D01*
X45015794Y-68803838D01*
X44945206Y-68909480D01*
X44896587Y-69026859D01*
X44896585Y-69026863D01*
X44871800Y-69151474D01*
X44871800Y-69278525D01*
X44896585Y-69403136D01*
X44896587Y-69403140D01*
X44945206Y-69520519D01*
X44945207Y-69520521D01*
X44945208Y-69520522D01*
X45015796Y-69626164D01*
X45105636Y-69716004D01*
X45211278Y-69786592D01*
X45328660Y-69835213D01*
X45328661Y-69835213D01*
X45328663Y-69835214D01*
X45391392Y-69847691D01*
X45453273Y-69860000D01*
X45453275Y-69860000D01*
X45580325Y-69860000D01*
X45580327Y-69860000D01*
X45662648Y-69843625D01*
X45704936Y-69835214D01*
X45704936Y-69835213D01*
X45704940Y-69835213D01*
X45822322Y-69786592D01*
X45927964Y-69716004D01*
X45952632Y-69691336D01*
X45999524Y-69644445D01*
X46054018Y-69619034D01*
X46061678Y-69618700D01*
X50714800Y-69618700D01*
X50771301Y-69639265D01*
X50801365Y-69691336D01*
X50802700Y-69706600D01*
X50802700Y-82117771D01*
X50782135Y-82174272D01*
X50776955Y-82179926D01*
X48905926Y-84050955D01*
X48851432Y-84076366D01*
X48843771Y-84076700D01*
X48742573Y-84076700D01*
X48715050Y-84082174D01*
X48617963Y-84101485D01*
X48617959Y-84101487D01*
X48500580Y-84150106D01*
X48394938Y-84220694D01*
X48305094Y-84310538D01*
X48234506Y-84416180D01*
X48185887Y-84533559D01*
X48185885Y-84533563D01*
X48161100Y-84658174D01*
X48161100Y-84785225D01*
X48185885Y-84909836D01*
X48185887Y-84909840D01*
X48234506Y-85027219D01*
X48234507Y-85027221D01*
X48234508Y-85027222D01*
X48305096Y-85132864D01*
X48394936Y-85222704D01*
X48500578Y-85293292D01*
X48617960Y-85341913D01*
X48617961Y-85341913D01*
X48617963Y-85341914D01*
X48680692Y-85354391D01*
X48742573Y-85366700D01*
X48742575Y-85366700D01*
X48869625Y-85366700D01*
X48869627Y-85366700D01*
X48951948Y-85350325D01*
X48994236Y-85341914D01*
X48994236Y-85341913D01*
X48994240Y-85341913D01*
X49111622Y-85293292D01*
X49217264Y-85222704D01*
X49307104Y-85132864D01*
X49377692Y-85027222D01*
X49426313Y-84909840D01*
X49451100Y-84785227D01*
X49451100Y-84684027D01*
X49471665Y-84627526D01*
X49476845Y-84621872D01*
X50047762Y-84050955D01*
X51447040Y-82651677D01*
X51447045Y-82651673D01*
X51454276Y-82644441D01*
X51454278Y-82644441D01*
X51529441Y-82569278D01*
X51582589Y-82477223D01*
X51588402Y-82455524D01*
X51610101Y-82374548D01*
X51610101Y-82268252D01*
X51610101Y-82262871D01*
X51610100Y-82262853D01*
X51610100Y-72923772D01*
X53963200Y-72923772D01*
X53963200Y-73126227D01*
X54002696Y-73324794D01*
X54002698Y-73324798D01*
X54080176Y-73511845D01*
X54108383Y-73554060D01*
X54508036Y-73154406D01*
X54525075Y-73217993D01*
X54590901Y-73332007D01*
X54683993Y-73425099D01*
X54798007Y-73490925D01*
X54861589Y-73507962D01*
X54461937Y-73907615D01*
X54504152Y-73935822D01*
X54691201Y-74013301D01*
X54691205Y-74013303D01*
X54889773Y-74052800D01*
X55092227Y-74052800D01*
X55290794Y-74013303D01*
X55290798Y-74013301D01*
X55477848Y-73935822D01*
X55520061Y-73907615D01*
X55120408Y-73507962D01*
X55183993Y-73490925D01*
X55298007Y-73425099D01*
X55391099Y-73332007D01*
X55456925Y-73217993D01*
X55473962Y-73154408D01*
X55873615Y-73554061D01*
X55901822Y-73511848D01*
X55979301Y-73324798D01*
X55979303Y-73324794D01*
X56018800Y-73126227D01*
X56018800Y-72923772D01*
X56503200Y-72923772D01*
X56503200Y-73126227D01*
X56542696Y-73324794D01*
X56542698Y-73324798D01*
X56620176Y-73511845D01*
X56648383Y-73554060D01*
X57048036Y-73154406D01*
X57065075Y-73217993D01*
X57130901Y-73332007D01*
X57223993Y-73425099D01*
X57338007Y-73490925D01*
X57401589Y-73507962D01*
X57001937Y-73907615D01*
X57044152Y-73935822D01*
X57231201Y-74013301D01*
X57231205Y-74013303D01*
X57429773Y-74052800D01*
X57632227Y-74052800D01*
X57830794Y-74013303D01*
X57830798Y-74013301D01*
X58017848Y-73935822D01*
X58060061Y-73907615D01*
X57660408Y-73507962D01*
X57723993Y-73490925D01*
X57838007Y-73425099D01*
X57931099Y-73332007D01*
X57996925Y-73217993D01*
X58013962Y-73154408D01*
X58413615Y-73554061D01*
X58441822Y-73511848D01*
X58519301Y-73324798D01*
X58519303Y-73324794D01*
X58558800Y-73126227D01*
X58558800Y-72923772D01*
X58519303Y-72725205D01*
X58519301Y-72725201D01*
X58441822Y-72538152D01*
X58413615Y-72495937D01*
X58013962Y-72895589D01*
X57996925Y-72832007D01*
X57931099Y-72717993D01*
X57838007Y-72624901D01*
X57723993Y-72559075D01*
X57660407Y-72542036D01*
X58060061Y-72142384D01*
X58017845Y-72114176D01*
X57830798Y-72036698D01*
X57830794Y-72036696D01*
X57632227Y-71997200D01*
X57429773Y-71997200D01*
X57231205Y-72036696D01*
X57231201Y-72036698D01*
X57044154Y-72114175D01*
X57001937Y-72142383D01*
X57401591Y-72542037D01*
X57338007Y-72559075D01*
X57223993Y-72624901D01*
X57130901Y-72717993D01*
X57065075Y-72832007D01*
X57048037Y-72895591D01*
X56648383Y-72495937D01*
X56620175Y-72538154D01*
X56542698Y-72725201D01*
X56542696Y-72725205D01*
X56503200Y-72923772D01*
X56018800Y-72923772D01*
X55979303Y-72725205D01*
X55979301Y-72725201D01*
X55901822Y-72538152D01*
X55873615Y-72495937D01*
X55473962Y-72895589D01*
X55456925Y-72832007D01*
X55391099Y-72717993D01*
X55298007Y-72624901D01*
X55183993Y-72559075D01*
X55120407Y-72542036D01*
X55520061Y-72142384D01*
X55477845Y-72114176D01*
X55290798Y-72036698D01*
X55290794Y-72036696D01*
X55092227Y-71997200D01*
X54889773Y-71997200D01*
X54691205Y-72036696D01*
X54691201Y-72036698D01*
X54504154Y-72114175D01*
X54461937Y-72142383D01*
X54861591Y-72542037D01*
X54798007Y-72559075D01*
X54683993Y-72624901D01*
X54590901Y-72717993D01*
X54525075Y-72832007D01*
X54508037Y-72895591D01*
X54108383Y-72495937D01*
X54080175Y-72538154D01*
X54002698Y-72725201D01*
X54002696Y-72725205D01*
X53963200Y-72923772D01*
X51610100Y-72923772D01*
X51610100Y-69706600D01*
X51630665Y-69650099D01*
X51682736Y-69620035D01*
X51698000Y-69618700D01*
X54441843Y-69618700D01*
X54498344Y-69639265D01*
X54503998Y-69644445D01*
X54861591Y-70002037D01*
X54798007Y-70019075D01*
X54683993Y-70084901D01*
X54590901Y-70177993D01*
X54525075Y-70292007D01*
X54508037Y-70355591D01*
X54108383Y-69955937D01*
X54080175Y-69998154D01*
X54002698Y-70185201D01*
X54002696Y-70185205D01*
X53963200Y-70383772D01*
X53963200Y-70586227D01*
X54002696Y-70784794D01*
X54002698Y-70784798D01*
X54080176Y-70971845D01*
X54108383Y-71014060D01*
X54508036Y-70614406D01*
X54525075Y-70677993D01*
X54590901Y-70792007D01*
X54683993Y-70885099D01*
X54798007Y-70950925D01*
X54861589Y-70967962D01*
X54461937Y-71367615D01*
X54504152Y-71395822D01*
X54691201Y-71473301D01*
X54691205Y-71473303D01*
X54889773Y-71512800D01*
X55092227Y-71512800D01*
X55290794Y-71473303D01*
X55290798Y-71473301D01*
X55477848Y-71395822D01*
X55520061Y-71367615D01*
X55120408Y-70967962D01*
X55183993Y-70950925D01*
X55298007Y-70885099D01*
X55391099Y-70792007D01*
X55456925Y-70677993D01*
X55473962Y-70614408D01*
X55873615Y-71014061D01*
X55901822Y-70971848D01*
X55979301Y-70784798D01*
X55979303Y-70784794D01*
X56018800Y-70586227D01*
X56018800Y-70383772D01*
X55979303Y-70185205D01*
X55979301Y-70185201D01*
X55901822Y-69998152D01*
X55873615Y-69955937D01*
X55473962Y-70355589D01*
X55456925Y-70292007D01*
X55391099Y-70177993D01*
X55298007Y-70084901D01*
X55183993Y-70019075D01*
X55120408Y-70002037D01*
X55478002Y-69644445D01*
X55532496Y-69619034D01*
X55540157Y-69618700D01*
X56082772Y-69618700D01*
X56139273Y-69639265D01*
X56144927Y-69644445D01*
X56453879Y-69953397D01*
X56463159Y-69964333D01*
X56465683Y-69967853D01*
X56496759Y-70021678D01*
X56523319Y-70048238D01*
X56527513Y-70054087D01*
X56533794Y-70076523D01*
X56543644Y-70097645D01*
X56542247Y-70106714D01*
X56543724Y-70111987D01*
X56540257Y-70119642D01*
X56537287Y-70138943D01*
X56520873Y-70178570D01*
X56520868Y-70178586D01*
X56480500Y-70381536D01*
X56480500Y-70588463D01*
X56520867Y-70791411D01*
X56520869Y-70791416D01*
X56520870Y-70791420D01*
X56600059Y-70982598D01*
X56600060Y-70982600D01*
X56600061Y-70982601D01*
X56715019Y-71154650D01*
X56715020Y-71154651D01*
X56715023Y-71154655D01*
X56861345Y-71300977D01*
X57033402Y-71415941D01*
X57224580Y-71495130D01*
X57224585Y-71495131D01*
X57224588Y-71495132D01*
X57327432Y-71515588D01*
X57427535Y-71535500D01*
X57427537Y-71535500D01*
X57634463Y-71535500D01*
X57634465Y-71535500D01*
X57767336Y-71509070D01*
X57837411Y-71495132D01*
X57837412Y-71495131D01*
X57837420Y-71495130D01*
X58028598Y-71415941D01*
X58200655Y-71300977D01*
X58346977Y-71154655D01*
X58461941Y-70982598D01*
X58541130Y-70791420D01*
X58581500Y-70588465D01*
X58581500Y-70381535D01*
X58541130Y-70178580D01*
X58461941Y-69987402D01*
X58360253Y-69835214D01*
X58346980Y-69815349D01*
X58346979Y-69815348D01*
X58346977Y-69815345D01*
X58200655Y-69669023D01*
X58200651Y-69669020D01*
X58200650Y-69669019D01*
X58028601Y-69554061D01*
X58028600Y-69554060D01*
X58028598Y-69554059D01*
X57837420Y-69474870D01*
X57837416Y-69474869D01*
X57837411Y-69474867D01*
X57684684Y-69444489D01*
X57634465Y-69434500D01*
X57427535Y-69434500D01*
X57360498Y-69447834D01*
X57224586Y-69474868D01*
X57224570Y-69474873D01*
X57202901Y-69483848D01*
X57142831Y-69486469D01*
X57107113Y-69464794D01*
X57067678Y-69425359D01*
X57067675Y-69425357D01*
X56609442Y-68967124D01*
X56609441Y-68967122D01*
X56597449Y-68955130D01*
X56534281Y-68891961D01*
X56534278Y-68891959D01*
X56442223Y-68838811D01*
X56442220Y-68838810D01*
X56442218Y-68838809D01*
X56420525Y-68832997D01*
X56420524Y-68832996D01*
X56420524Y-68832997D01*
X56339548Y-68811299D01*
X56233252Y-68811299D01*
X56227870Y-68811299D01*
X56227854Y-68811300D01*
X55822541Y-68811300D01*
X55766040Y-68790735D01*
X55735976Y-68738664D01*
X55746417Y-68679450D01*
X55760382Y-68661249D01*
X55806977Y-68614655D01*
X55921941Y-68442598D01*
X56001130Y-68251420D01*
X56041500Y-68048465D01*
X56041500Y-67841535D01*
X56001130Y-67638580D01*
X55921941Y-67447402D01*
X55806977Y-67275345D01*
X55760385Y-67228753D01*
X55734975Y-67174261D01*
X55750538Y-67116183D01*
X55799791Y-67081695D01*
X55822541Y-67078700D01*
X56063772Y-67078700D01*
X56120273Y-67099265D01*
X56125927Y-67104445D01*
X56520107Y-67498625D01*
X56545518Y-67553119D01*
X56539162Y-67594416D01*
X56520869Y-67638579D01*
X56520868Y-67638583D01*
X56480500Y-67841536D01*
X56480500Y-68048463D01*
X56520867Y-68251411D01*
X56520869Y-68251416D01*
X56520870Y-68251420D01*
X56600059Y-68442598D01*
X56600060Y-68442600D01*
X56600061Y-68442601D01*
X56715019Y-68614650D01*
X56715020Y-68614651D01*
X56715023Y-68614655D01*
X56861345Y-68760977D01*
X56861348Y-68760979D01*
X56861349Y-68760980D01*
X56898129Y-68785555D01*
X57033402Y-68875941D01*
X57224580Y-68955130D01*
X57224585Y-68955131D01*
X57224588Y-68955132D01*
X57327432Y-68975588D01*
X57427535Y-68995500D01*
X57427537Y-68995500D01*
X57634463Y-68995500D01*
X57634465Y-68995500D01*
X57777132Y-68967122D01*
X57837411Y-68955132D01*
X57837412Y-68955131D01*
X57837420Y-68955130D01*
X58028598Y-68875941D01*
X58200655Y-68760977D01*
X58346977Y-68614655D01*
X58461941Y-68442598D01*
X58541130Y-68251420D01*
X58581500Y-68048465D01*
X58581500Y-67841535D01*
X58541130Y-67638580D01*
X58461941Y-67447402D01*
X58346977Y-67275345D01*
X58200655Y-67129023D01*
X58200651Y-67129020D01*
X58200650Y-67129019D01*
X58028601Y-67014061D01*
X58028600Y-67014060D01*
X58028598Y-67014059D01*
X57837420Y-66934870D01*
X57837416Y-66934869D01*
X57837411Y-66934867D01*
X57684684Y-66904489D01*
X57634465Y-66894500D01*
X57427535Y-66894500D01*
X57382708Y-66903416D01*
X57224583Y-66934868D01*
X57224579Y-66934869D01*
X57189467Y-66949413D01*
X57129397Y-66952034D01*
X57093676Y-66930358D01*
X56590442Y-66427124D01*
X56590442Y-66427123D01*
X56515281Y-66351961D01*
X56515278Y-66351959D01*
X56423223Y-66298811D01*
X56423220Y-66298810D01*
X56423218Y-66298809D01*
X56401525Y-66292997D01*
X56401524Y-66292996D01*
X56401524Y-66292997D01*
X56320548Y-66271299D01*
X56214252Y-66271299D01*
X56208870Y-66271299D01*
X56208854Y-66271300D01*
X55822541Y-66271300D01*
X55766040Y-66250735D01*
X55735976Y-66198664D01*
X55746417Y-66139450D01*
X55760382Y-66121249D01*
X55806977Y-66074655D01*
X55921941Y-65902598D01*
X56001130Y-65711420D01*
X56003263Y-65700700D01*
X56041500Y-65508463D01*
X56041500Y-65301536D01*
X56480500Y-65301536D01*
X56480500Y-65508463D01*
X56520867Y-65711411D01*
X56520869Y-65711416D01*
X56520870Y-65711420D01*
X56600059Y-65902598D01*
X56600060Y-65902600D01*
X56600061Y-65902601D01*
X56715019Y-66074650D01*
X56715020Y-66074651D01*
X56715023Y-66074655D01*
X56861345Y-66220977D01*
X56861348Y-66220979D01*
X56861349Y-66220980D01*
X56898129Y-66245555D01*
X57033402Y-66335941D01*
X57224580Y-66415130D01*
X57224585Y-66415131D01*
X57224588Y-66415132D01*
X57327432Y-66435588D01*
X57427535Y-66455500D01*
X57427537Y-66455500D01*
X57634463Y-66455500D01*
X57634465Y-66455500D01*
X57777132Y-66427122D01*
X57837411Y-66415132D01*
X57837412Y-66415131D01*
X57837420Y-66415130D01*
X58028598Y-66335941D01*
X58200655Y-66220977D01*
X58346977Y-66074655D01*
X58461941Y-65902598D01*
X58541130Y-65711420D01*
X58543263Y-65700700D01*
X58581500Y-65508463D01*
X58581500Y-65301536D01*
X58541132Y-65098588D01*
X58541131Y-65098585D01*
X58541130Y-65098580D01*
X58461941Y-64907402D01*
X58346977Y-64735345D01*
X58200655Y-64589023D01*
X58200651Y-64589020D01*
X58200650Y-64589019D01*
X58028601Y-64474061D01*
X58028600Y-64474060D01*
X58028598Y-64474059D01*
X57837420Y-64394870D01*
X57837416Y-64394869D01*
X57837411Y-64394867D01*
X57684684Y-64364489D01*
X57634465Y-64354500D01*
X57427535Y-64354500D01*
X57382844Y-64363389D01*
X57224588Y-64394867D01*
X57224583Y-64394869D01*
X57224581Y-64394869D01*
X57224580Y-64394870D01*
X57033402Y-64474059D01*
X57033400Y-64474059D01*
X57033398Y-64474061D01*
X56861349Y-64589019D01*
X56715019Y-64735349D01*
X56600061Y-64907398D01*
X56520869Y-65098583D01*
X56520867Y-65098588D01*
X56480500Y-65301536D01*
X56041500Y-65301536D01*
X56001132Y-65098588D01*
X56001131Y-65098585D01*
X56001130Y-65098580D01*
X55921941Y-64907402D01*
X55806977Y-64735345D01*
X55660655Y-64589023D01*
X55660651Y-64589020D01*
X55660650Y-64589019D01*
X55488601Y-64474061D01*
X55488600Y-64474060D01*
X55488598Y-64474059D01*
X55297420Y-64394870D01*
X55297416Y-64394869D01*
X55297411Y-64394867D01*
X55144684Y-64364489D01*
X55094465Y-64354500D01*
X54887535Y-64354500D01*
X54842844Y-64363389D01*
X54684588Y-64394867D01*
X54684583Y-64394869D01*
X54684581Y-64394869D01*
X54684580Y-64394870D01*
X54493402Y-64474059D01*
X54493400Y-64474059D01*
X54493398Y-64474061D01*
X54321349Y-64589019D01*
X54175019Y-64735349D01*
X54060061Y-64907398D01*
X53980869Y-65098583D01*
X53980867Y-65098588D01*
X53940500Y-65301536D01*
X53940500Y-65508463D01*
X53980867Y-65711411D01*
X53980869Y-65711416D01*
X53980870Y-65711420D01*
X54060059Y-65902598D01*
X54060060Y-65902600D01*
X54060061Y-65902601D01*
X54175019Y-66074650D01*
X54175020Y-66074651D01*
X54175023Y-66074655D01*
X54221614Y-66121246D01*
X54247025Y-66175739D01*
X54231462Y-66233817D01*
X54182209Y-66268305D01*
X54159459Y-66271300D01*
X43978878Y-66271300D01*
X43922377Y-66250735D01*
X43916724Y-66245555D01*
X43845166Y-66173997D01*
X43845163Y-66173995D01*
X43739519Y-66103406D01*
X43622140Y-66054787D01*
X43622136Y-66054785D01*
X43528466Y-66036154D01*
X43497527Y-66030000D01*
X43370473Y-66030000D01*
X43342950Y-66035474D01*
X43245863Y-66054785D01*
X43245859Y-66054787D01*
X43128480Y-66103406D01*
X43022838Y-66173994D01*
X42932994Y-66263838D01*
X42862406Y-66369480D01*
X42813787Y-66486859D01*
X42813785Y-66486863D01*
X42789000Y-66611474D01*
X30260500Y-66611474D01*
X30260500Y-65881452D01*
X30248867Y-65822969D01*
X30204552Y-65756648D01*
X30204548Y-65756645D01*
X30138232Y-65712333D01*
X30118736Y-65708455D01*
X30079748Y-65700700D01*
X28340252Y-65700700D01*
X28311010Y-65706516D01*
X28281767Y-65712333D01*
X28215451Y-65756645D01*
X28215445Y-65756651D01*
X28171133Y-65822967D01*
X28159500Y-65881453D01*
X20876100Y-65881453D01*
X20876100Y-62761536D01*
X53940500Y-62761536D01*
X53940500Y-62968463D01*
X53980867Y-63171411D01*
X53980869Y-63171416D01*
X53980870Y-63171420D01*
X54060059Y-63362598D01*
X54060060Y-63362600D01*
X54060061Y-63362601D01*
X54175019Y-63534650D01*
X54175020Y-63534651D01*
X54175023Y-63534655D01*
X54321345Y-63680977D01*
X54493402Y-63795941D01*
X54684580Y-63875130D01*
X54684585Y-63875131D01*
X54684588Y-63875132D01*
X54787432Y-63895588D01*
X54887535Y-63915500D01*
X54887537Y-63915500D01*
X55094463Y-63915500D01*
X55094465Y-63915500D01*
X55227336Y-63889070D01*
X55297411Y-63875132D01*
X55297412Y-63875131D01*
X55297420Y-63875130D01*
X55488598Y-63795941D01*
X55660655Y-63680977D01*
X55806977Y-63534655D01*
X55921941Y-63362598D01*
X56001130Y-63171420D01*
X56041500Y-62968465D01*
X56041500Y-62761536D01*
X56480500Y-62761536D01*
X56480500Y-62968463D01*
X56520867Y-63171411D01*
X56520869Y-63171416D01*
X56520870Y-63171420D01*
X56600059Y-63362598D01*
X56600060Y-63362600D01*
X56600061Y-63362601D01*
X56715019Y-63534650D01*
X56715020Y-63534651D01*
X56715023Y-63534655D01*
X56861345Y-63680977D01*
X57033402Y-63795941D01*
X57224580Y-63875130D01*
X57224585Y-63875131D01*
X57224588Y-63875132D01*
X57327432Y-63895588D01*
X57427535Y-63915500D01*
X57427537Y-63915500D01*
X57634463Y-63915500D01*
X57634465Y-63915500D01*
X57767336Y-63889070D01*
X57837411Y-63875132D01*
X57837412Y-63875131D01*
X57837420Y-63875130D01*
X58028598Y-63795941D01*
X58200655Y-63680977D01*
X58346977Y-63534655D01*
X58461941Y-63362598D01*
X58541130Y-63171420D01*
X58581500Y-62968465D01*
X58581500Y-62761535D01*
X58541130Y-62558580D01*
X58461941Y-62367402D01*
X58346977Y-62195345D01*
X58200655Y-62049023D01*
X58200651Y-62049020D01*
X58200650Y-62049019D01*
X58028601Y-61934061D01*
X58028600Y-61934060D01*
X58028598Y-61934059D01*
X57837420Y-61854870D01*
X57837416Y-61854869D01*
X57837411Y-61854867D01*
X57684684Y-61824489D01*
X57634465Y-61814500D01*
X57427535Y-61814500D01*
X57382844Y-61823389D01*
X57224588Y-61854867D01*
X57224583Y-61854869D01*
X57224581Y-61854869D01*
X57224580Y-61854870D01*
X57033402Y-61934059D01*
X57033400Y-61934059D01*
X57033398Y-61934061D01*
X56861349Y-62049019D01*
X56715019Y-62195349D01*
X56600061Y-62367398D01*
X56520869Y-62558583D01*
X56520867Y-62558588D01*
X56480500Y-62761536D01*
X56041500Y-62761536D01*
X56041500Y-62761535D01*
X56001130Y-62558580D01*
X55921941Y-62367402D01*
X55806977Y-62195345D01*
X55660655Y-62049023D01*
X55660651Y-62049020D01*
X55660650Y-62049019D01*
X55488601Y-61934061D01*
X55488600Y-61934060D01*
X55488598Y-61934059D01*
X55297420Y-61854870D01*
X55297416Y-61854869D01*
X55297411Y-61854867D01*
X55144684Y-61824489D01*
X55094465Y-61814500D01*
X54887535Y-61814500D01*
X54842844Y-61823389D01*
X54684588Y-61854867D01*
X54684583Y-61854869D01*
X54684581Y-61854869D01*
X54684580Y-61854870D01*
X54493402Y-61934059D01*
X54493400Y-61934059D01*
X54493398Y-61934061D01*
X54321349Y-62049019D01*
X54175019Y-62195349D01*
X54060061Y-62367398D01*
X53980869Y-62558583D01*
X53980867Y-62558588D01*
X53940500Y-62761536D01*
X20876100Y-62761536D01*
X20876100Y-60221536D01*
X53940500Y-60221536D01*
X53940500Y-60428463D01*
X53980867Y-60631411D01*
X53980869Y-60631416D01*
X53980870Y-60631420D01*
X54060059Y-60822598D01*
X54060060Y-60822600D01*
X54060061Y-60822601D01*
X54175019Y-60994650D01*
X54175020Y-60994651D01*
X54175023Y-60994655D01*
X54321345Y-61140977D01*
X54493402Y-61255941D01*
X54684580Y-61335130D01*
X54684585Y-61335131D01*
X54684588Y-61335132D01*
X54787432Y-61355588D01*
X54887535Y-61375500D01*
X54887537Y-61375500D01*
X55094463Y-61375500D01*
X55094465Y-61375500D01*
X55227336Y-61349070D01*
X55297411Y-61335132D01*
X55297412Y-61335131D01*
X55297420Y-61335130D01*
X55488598Y-61255941D01*
X55660655Y-61140977D01*
X55806977Y-60994655D01*
X55921941Y-60822598D01*
X56001130Y-60631420D01*
X56041500Y-60428465D01*
X56041500Y-60221536D01*
X56480500Y-60221536D01*
X56480500Y-60428463D01*
X56520867Y-60631411D01*
X56520869Y-60631416D01*
X56520870Y-60631420D01*
X56600059Y-60822598D01*
X56600060Y-60822600D01*
X56600061Y-60822601D01*
X56715019Y-60994650D01*
X56715020Y-60994651D01*
X56715023Y-60994655D01*
X56861345Y-61140977D01*
X57033402Y-61255941D01*
X57224580Y-61335130D01*
X57224585Y-61335131D01*
X57224588Y-61335132D01*
X57327432Y-61355588D01*
X57427535Y-61375500D01*
X57427537Y-61375500D01*
X57634463Y-61375500D01*
X57634465Y-61375500D01*
X57767336Y-61349070D01*
X57837411Y-61335132D01*
X57837412Y-61335131D01*
X57837420Y-61335130D01*
X58028598Y-61255941D01*
X58200655Y-61140977D01*
X58346977Y-60994655D01*
X58461941Y-60822598D01*
X58541130Y-60631420D01*
X58581500Y-60428465D01*
X58581500Y-60221535D01*
X58541130Y-60018580D01*
X58461941Y-59827402D01*
X58346977Y-59655345D01*
X58200655Y-59509023D01*
X58200651Y-59509020D01*
X58200650Y-59509019D01*
X58028601Y-59394061D01*
X58028600Y-59394060D01*
X58028598Y-59394059D01*
X57837420Y-59314870D01*
X57837416Y-59314869D01*
X57837411Y-59314867D01*
X57684684Y-59284489D01*
X57634465Y-59274500D01*
X57427535Y-59274500D01*
X57382844Y-59283389D01*
X57224588Y-59314867D01*
X57224583Y-59314869D01*
X57224581Y-59314869D01*
X57224580Y-59314870D01*
X57033402Y-59394059D01*
X57033400Y-59394059D01*
X57033398Y-59394061D01*
X56861349Y-59509019D01*
X56715019Y-59655349D01*
X56600061Y-59827398D01*
X56520869Y-60018583D01*
X56520867Y-60018588D01*
X56480500Y-60221536D01*
X56041500Y-60221536D01*
X56041500Y-60221535D01*
X56001130Y-60018580D01*
X55921941Y-59827402D01*
X55806977Y-59655345D01*
X55660655Y-59509023D01*
X55660651Y-59509020D01*
X55660650Y-59509019D01*
X55488601Y-59394061D01*
X55488600Y-59394060D01*
X55488598Y-59394059D01*
X55297420Y-59314870D01*
X55297416Y-59314869D01*
X55297411Y-59314867D01*
X55144684Y-59284489D01*
X55094465Y-59274500D01*
X54887535Y-59274500D01*
X54842844Y-59283389D01*
X54684588Y-59314867D01*
X54684583Y-59314869D01*
X54684581Y-59314869D01*
X54684580Y-59314870D01*
X54493402Y-59394059D01*
X54493400Y-59394059D01*
X54493398Y-59394061D01*
X54321349Y-59509019D01*
X54175019Y-59655349D01*
X54060061Y-59827398D01*
X53980869Y-60018583D01*
X53980867Y-60018588D01*
X53940500Y-60221536D01*
X20876100Y-60221536D01*
X20876100Y-56635853D01*
X28159500Y-56635853D01*
X28159500Y-58375346D01*
X28171133Y-58433832D01*
X28185047Y-58454655D01*
X28215448Y-58500152D01*
X28215451Y-58500154D01*
X28281767Y-58544466D01*
X28281769Y-58544467D01*
X28340252Y-58556100D01*
X28340254Y-58556100D01*
X30079746Y-58556100D01*
X30079748Y-58556100D01*
X30138231Y-58544467D01*
X30204552Y-58500152D01*
X30248867Y-58433831D01*
X30260500Y-58375348D01*
X30260500Y-56635852D01*
X30248867Y-56577369D01*
X30204552Y-56511048D01*
X30204548Y-56511045D01*
X30138232Y-56466733D01*
X30118736Y-56462855D01*
X30079748Y-56455100D01*
X28340252Y-56455100D01*
X28311010Y-56460916D01*
X28281767Y-56466733D01*
X28215451Y-56511045D01*
X28215445Y-56511051D01*
X28171133Y-56577367D01*
X28159500Y-56635853D01*
X20876100Y-56635853D01*
X20876100Y-47390252D01*
X28159500Y-47390252D01*
X28159500Y-49129748D01*
X28164497Y-49154869D01*
X28171133Y-49188232D01*
X28201756Y-49234061D01*
X28215448Y-49254552D01*
X28215451Y-49254554D01*
X28281767Y-49298866D01*
X28281769Y-49298867D01*
X28340252Y-49310500D01*
X28340254Y-49310500D01*
X30079746Y-49310500D01*
X30079748Y-49310500D01*
X30138231Y-49298867D01*
X30204552Y-49254552D01*
X30248867Y-49188231D01*
X30260500Y-49129748D01*
X30260500Y-47390252D01*
X30248867Y-47331769D01*
X30240056Y-47318583D01*
X30204554Y-47265451D01*
X30204552Y-47265448D01*
X30202062Y-47263784D01*
X30138232Y-47221133D01*
X30118736Y-47217255D01*
X30079748Y-47209500D01*
X28340252Y-47209500D01*
X28311010Y-47215316D01*
X28281767Y-47221133D01*
X28215451Y-47265445D01*
X28215445Y-47265451D01*
X28171133Y-47331767D01*
X28169278Y-47341093D01*
X28159500Y-47390252D01*
X20876100Y-47390252D01*
X20876100Y-43341400D01*
X20896665Y-43284899D01*
X20948736Y-43254835D01*
X20964000Y-43253500D01*
X47692200Y-43253500D01*
X47748701Y-43274065D01*
X47778765Y-43326136D01*
X47780100Y-43341400D01*
X47780100Y-57092779D01*
X47807325Y-57229657D01*
X47807327Y-57229662D01*
X47822969Y-57267427D01*
X47860735Y-57358601D01*
X47938272Y-57474643D01*
X49230757Y-58767128D01*
X49346799Y-58844665D01*
X49475739Y-58898073D01*
X49475742Y-58898074D01*
X49544645Y-58911779D01*
X49612618Y-58925300D01*
X49612620Y-58925300D01*
X49752179Y-58925300D01*
X49752181Y-58925300D01*
X49842606Y-58907313D01*
X49889057Y-58898074D01*
X49889058Y-58898073D01*
X49889061Y-58898073D01*
X50018001Y-58844665D01*
X50134042Y-58767128D01*
X50232728Y-58668442D01*
X50310265Y-58552401D01*
X50363673Y-58423461D01*
X50390900Y-58286581D01*
X50390900Y-58147018D01*
X50363673Y-58010139D01*
X50310265Y-57881199D01*
X50232728Y-57765157D01*
X50149107Y-57681536D01*
X53940500Y-57681536D01*
X53940500Y-57888463D01*
X53980867Y-58091411D01*
X53980869Y-58091416D01*
X53980870Y-58091420D01*
X54060059Y-58282598D01*
X54060060Y-58282600D01*
X54060061Y-58282601D01*
X54175019Y-58454650D01*
X54175020Y-58454651D01*
X54175023Y-58454655D01*
X54321345Y-58600977D01*
X54493402Y-58715941D01*
X54684580Y-58795130D01*
X54684585Y-58795131D01*
X54684588Y-58795132D01*
X54787432Y-58815588D01*
X54887535Y-58835500D01*
X54887537Y-58835500D01*
X55094463Y-58835500D01*
X55094465Y-58835500D01*
X55227336Y-58809070D01*
X55297411Y-58795132D01*
X55297412Y-58795131D01*
X55297420Y-58795130D01*
X55488598Y-58715941D01*
X55660655Y-58600977D01*
X55806977Y-58454655D01*
X55921941Y-58282598D01*
X56001130Y-58091420D01*
X56041500Y-57888465D01*
X56041500Y-57681536D01*
X56480500Y-57681536D01*
X56480500Y-57888463D01*
X56520867Y-58091411D01*
X56520869Y-58091416D01*
X56520870Y-58091420D01*
X56600059Y-58282598D01*
X56600060Y-58282600D01*
X56600061Y-58282601D01*
X56715019Y-58454650D01*
X56715020Y-58454651D01*
X56715023Y-58454655D01*
X56861345Y-58600977D01*
X57033402Y-58715941D01*
X57224580Y-58795130D01*
X57224585Y-58795131D01*
X57224588Y-58795132D01*
X57327432Y-58815588D01*
X57427535Y-58835500D01*
X57427537Y-58835500D01*
X57634463Y-58835500D01*
X57634465Y-58835500D01*
X57767336Y-58809070D01*
X57837411Y-58795132D01*
X57837412Y-58795131D01*
X57837420Y-58795130D01*
X58028598Y-58715941D01*
X58200655Y-58600977D01*
X58346977Y-58454655D01*
X58461941Y-58282598D01*
X58541130Y-58091420D01*
X58581500Y-57888465D01*
X58581500Y-57681535D01*
X58565468Y-57600936D01*
X58541132Y-57478588D01*
X58541131Y-57478585D01*
X58541130Y-57478580D01*
X58461941Y-57287402D01*
X58346977Y-57115345D01*
X58200655Y-56969023D01*
X58200651Y-56969020D01*
X58200650Y-56969019D01*
X58028601Y-56854061D01*
X58028600Y-56854060D01*
X58028598Y-56854059D01*
X57837420Y-56774870D01*
X57837416Y-56774869D01*
X57837411Y-56774867D01*
X57684684Y-56744489D01*
X57634465Y-56734500D01*
X57427535Y-56734500D01*
X57382844Y-56743389D01*
X57224588Y-56774867D01*
X57224583Y-56774869D01*
X57224581Y-56774869D01*
X57224580Y-56774870D01*
X57033402Y-56854059D01*
X57033400Y-56854059D01*
X57033398Y-56854061D01*
X56861349Y-56969019D01*
X56715019Y-57115349D01*
X56600061Y-57287398D01*
X56600059Y-57287400D01*
X56600059Y-57287402D01*
X56524513Y-57469786D01*
X56520869Y-57478583D01*
X56520867Y-57478588D01*
X56480500Y-57681536D01*
X56041500Y-57681536D01*
X56041500Y-57681535D01*
X56025468Y-57600936D01*
X56001132Y-57478588D01*
X56001131Y-57478585D01*
X56001130Y-57478580D01*
X55921941Y-57287402D01*
X55806977Y-57115345D01*
X55660655Y-56969023D01*
X55660651Y-56969020D01*
X55660650Y-56969019D01*
X55488601Y-56854061D01*
X55488600Y-56854060D01*
X55488598Y-56854059D01*
X55297420Y-56774870D01*
X55297416Y-56774869D01*
X55297411Y-56774867D01*
X55144684Y-56744489D01*
X55094465Y-56734500D01*
X54887535Y-56734500D01*
X54842844Y-56743389D01*
X54684588Y-56774867D01*
X54684583Y-56774869D01*
X54684581Y-56774869D01*
X54684580Y-56774870D01*
X54493402Y-56854059D01*
X54493400Y-56854059D01*
X54493398Y-56854061D01*
X54321349Y-56969019D01*
X54175019Y-57115349D01*
X54060061Y-57287398D01*
X54060059Y-57287400D01*
X54060059Y-57287402D01*
X53984513Y-57469786D01*
X53980869Y-57478583D01*
X53980867Y-57478588D01*
X53940500Y-57681536D01*
X50149107Y-57681536D01*
X49222845Y-56755274D01*
X49197434Y-56700780D01*
X49197100Y-56693119D01*
X49197100Y-55141535D01*
X53940500Y-55141535D01*
X53940500Y-55348465D01*
X53943905Y-55365582D01*
X53980867Y-55551411D01*
X53980869Y-55551416D01*
X53980870Y-55551420D01*
X54060059Y-55742598D01*
X54060060Y-55742600D01*
X54060061Y-55742601D01*
X54175019Y-55914650D01*
X54175020Y-55914651D01*
X54175023Y-55914655D01*
X54321345Y-56060977D01*
X54493402Y-56175941D01*
X54684580Y-56255130D01*
X54684585Y-56255131D01*
X54684588Y-56255132D01*
X54787432Y-56275588D01*
X54887535Y-56295500D01*
X54887537Y-56295500D01*
X55094463Y-56295500D01*
X55094465Y-56295500D01*
X55227336Y-56269070D01*
X55297411Y-56255132D01*
X55297412Y-56255131D01*
X55297420Y-56255130D01*
X55488598Y-56175941D01*
X55660655Y-56060977D01*
X55806977Y-55914655D01*
X55921941Y-55742598D01*
X56001130Y-55551420D01*
X56010869Y-55502461D01*
X56038095Y-55365582D01*
X56041500Y-55348465D01*
X56041500Y-55141535D01*
X56480500Y-55141535D01*
X56480500Y-55348465D01*
X56483905Y-55365582D01*
X56520867Y-55551411D01*
X56520869Y-55551416D01*
X56520870Y-55551420D01*
X56600059Y-55742598D01*
X56600060Y-55742600D01*
X56600061Y-55742601D01*
X56715019Y-55914650D01*
X56715020Y-55914651D01*
X56715023Y-55914655D01*
X56861345Y-56060977D01*
X57033402Y-56175941D01*
X57224580Y-56255130D01*
X57224585Y-56255131D01*
X57224588Y-56255132D01*
X57327432Y-56275588D01*
X57427535Y-56295500D01*
X57427537Y-56295500D01*
X57634463Y-56295500D01*
X57634465Y-56295500D01*
X57767336Y-56269070D01*
X57837411Y-56255132D01*
X57837412Y-56255131D01*
X57837420Y-56255130D01*
X58028598Y-56175941D01*
X58200655Y-56060977D01*
X58346977Y-55914655D01*
X58461941Y-55742598D01*
X58541130Y-55551420D01*
X58550869Y-55502461D01*
X58578095Y-55365582D01*
X58581500Y-55348465D01*
X58581500Y-55141535D01*
X58558931Y-55028074D01*
X58541132Y-54938588D01*
X58541131Y-54938585D01*
X58541130Y-54938580D01*
X58461941Y-54747402D01*
X58404459Y-54661373D01*
X58346980Y-54575349D01*
X58346979Y-54575348D01*
X58346977Y-54575345D01*
X58200655Y-54429023D01*
X58200651Y-54429020D01*
X58200650Y-54429019D01*
X58028601Y-54314061D01*
X58028600Y-54314060D01*
X58028598Y-54314059D01*
X57837420Y-54234870D01*
X57837416Y-54234869D01*
X57837411Y-54234867D01*
X57684684Y-54204489D01*
X57634465Y-54194500D01*
X57427535Y-54194500D01*
X57382844Y-54203389D01*
X57224588Y-54234867D01*
X57224583Y-54234869D01*
X57224581Y-54234869D01*
X57224580Y-54234870D01*
X57033402Y-54314059D01*
X57033400Y-54314059D01*
X57033398Y-54314061D01*
X56861349Y-54429019D01*
X56715019Y-54575349D01*
X56600061Y-54747398D01*
X56520869Y-54938583D01*
X56520867Y-54938588D01*
X56485494Y-55116425D01*
X56480500Y-55141535D01*
X56041500Y-55141535D01*
X56018931Y-55028074D01*
X56001132Y-54938588D01*
X56001131Y-54938585D01*
X56001130Y-54938580D01*
X55921941Y-54747402D01*
X55864459Y-54661373D01*
X55806980Y-54575349D01*
X55806979Y-54575348D01*
X55806977Y-54575345D01*
X55660655Y-54429023D01*
X55660651Y-54429020D01*
X55660650Y-54429019D01*
X55488601Y-54314061D01*
X55488600Y-54314060D01*
X55488598Y-54314059D01*
X55297420Y-54234870D01*
X55297416Y-54234869D01*
X55297411Y-54234867D01*
X55144684Y-54204489D01*
X55094465Y-54194500D01*
X54887535Y-54194500D01*
X54842844Y-54203389D01*
X54684588Y-54234867D01*
X54684583Y-54234869D01*
X54684581Y-54234869D01*
X54684580Y-54234870D01*
X54493402Y-54314059D01*
X54493400Y-54314059D01*
X54493398Y-54314061D01*
X54321349Y-54429019D01*
X54175019Y-54575349D01*
X54060061Y-54747398D01*
X53980869Y-54938583D01*
X53980867Y-54938588D01*
X53945494Y-55116425D01*
X53940500Y-55141535D01*
X49197100Y-55141535D01*
X49197100Y-52601536D01*
X53940500Y-52601536D01*
X53940500Y-52808463D01*
X53980867Y-53011411D01*
X53980869Y-53011416D01*
X53980870Y-53011420D01*
X54060059Y-53202598D01*
X54060060Y-53202600D01*
X54060061Y-53202601D01*
X54175019Y-53374650D01*
X54175020Y-53374651D01*
X54175023Y-53374655D01*
X54321345Y-53520977D01*
X54493402Y-53635941D01*
X54684580Y-53715130D01*
X54684585Y-53715131D01*
X54684588Y-53715132D01*
X54787432Y-53735588D01*
X54887535Y-53755500D01*
X54887537Y-53755500D01*
X55094463Y-53755500D01*
X55094465Y-53755500D01*
X55227336Y-53729070D01*
X55297411Y-53715132D01*
X55297412Y-53715131D01*
X55297420Y-53715130D01*
X55488598Y-53635941D01*
X55660655Y-53520977D01*
X55806977Y-53374655D01*
X55921941Y-53202598D01*
X56001130Y-53011420D01*
X56002319Y-53005445D01*
X56018146Y-52925876D01*
X56041500Y-52808465D01*
X56041500Y-52601536D01*
X56480500Y-52601536D01*
X56480500Y-52808463D01*
X56520867Y-53011411D01*
X56520869Y-53011416D01*
X56520870Y-53011420D01*
X56600059Y-53202598D01*
X56600060Y-53202600D01*
X56600061Y-53202601D01*
X56715019Y-53374650D01*
X56715020Y-53374651D01*
X56715023Y-53374655D01*
X56861345Y-53520977D01*
X57033402Y-53635941D01*
X57224580Y-53715130D01*
X57224585Y-53715131D01*
X57224588Y-53715132D01*
X57327432Y-53735588D01*
X57427535Y-53755500D01*
X57427537Y-53755500D01*
X57634463Y-53755500D01*
X57634465Y-53755500D01*
X57767336Y-53729070D01*
X57837411Y-53715132D01*
X57837412Y-53715131D01*
X57837420Y-53715130D01*
X58028598Y-53635941D01*
X58200655Y-53520977D01*
X58346977Y-53374655D01*
X58461941Y-53202598D01*
X58541130Y-53011420D01*
X58542319Y-53005445D01*
X58558146Y-52925876D01*
X58581500Y-52808465D01*
X58581500Y-52601535D01*
X58553447Y-52460500D01*
X58541132Y-52398588D01*
X58541131Y-52398585D01*
X58541130Y-52398580D01*
X58461941Y-52207402D01*
X58404459Y-52121373D01*
X58346980Y-52035349D01*
X58346979Y-52035348D01*
X58346977Y-52035345D01*
X58200655Y-51889023D01*
X58200651Y-51889020D01*
X58200650Y-51889019D01*
X58028601Y-51774061D01*
X58028600Y-51774060D01*
X58028598Y-51774059D01*
X57837420Y-51694870D01*
X57837416Y-51694869D01*
X57837411Y-51694867D01*
X57684684Y-51664489D01*
X57634465Y-51654500D01*
X57427535Y-51654500D01*
X57382844Y-51663389D01*
X57224588Y-51694867D01*
X57224583Y-51694869D01*
X57224581Y-51694869D01*
X57224580Y-51694870D01*
X57033402Y-51774059D01*
X57033400Y-51774059D01*
X57033398Y-51774061D01*
X56861349Y-51889019D01*
X56715019Y-52035349D01*
X56600061Y-52207398D01*
X56600059Y-52207400D01*
X56600059Y-52207402D01*
X56543567Y-52343786D01*
X56520869Y-52398583D01*
X56520867Y-52398588D01*
X56480500Y-52601536D01*
X56041500Y-52601536D01*
X56041500Y-52601535D01*
X56013447Y-52460500D01*
X56001132Y-52398588D01*
X56001131Y-52398585D01*
X56001130Y-52398580D01*
X55921941Y-52207402D01*
X55864459Y-52121373D01*
X55806980Y-52035349D01*
X55806979Y-52035348D01*
X55806977Y-52035345D01*
X55660655Y-51889023D01*
X55660651Y-51889020D01*
X55660650Y-51889019D01*
X55488601Y-51774061D01*
X55488600Y-51774060D01*
X55488598Y-51774059D01*
X55297420Y-51694870D01*
X55297416Y-51694869D01*
X55297411Y-51694867D01*
X55144684Y-51664489D01*
X55094465Y-51654500D01*
X54887535Y-51654500D01*
X54842844Y-51663389D01*
X54684588Y-51694867D01*
X54684583Y-51694869D01*
X54684581Y-51694869D01*
X54684580Y-51694870D01*
X54493402Y-51774059D01*
X54493400Y-51774059D01*
X54493398Y-51774061D01*
X54321349Y-51889019D01*
X54175019Y-52035349D01*
X54060061Y-52207398D01*
X54060059Y-52207400D01*
X54060059Y-52207402D01*
X54003567Y-52343786D01*
X53980869Y-52398583D01*
X53980867Y-52398588D01*
X53940500Y-52601536D01*
X49197100Y-52601536D01*
X49197100Y-50061536D01*
X53940500Y-50061536D01*
X53940500Y-50268463D01*
X53980867Y-50471411D01*
X53980869Y-50471416D01*
X53980870Y-50471420D01*
X54060059Y-50662598D01*
X54060060Y-50662600D01*
X54060061Y-50662601D01*
X54175019Y-50834650D01*
X54175020Y-50834651D01*
X54175023Y-50834655D01*
X54321345Y-50980977D01*
X54321348Y-50980979D01*
X54321349Y-50980980D01*
X54330883Y-50987350D01*
X54493402Y-51095941D01*
X54684580Y-51175130D01*
X54684585Y-51175131D01*
X54684588Y-51175132D01*
X54787432Y-51195588D01*
X54887535Y-51215500D01*
X54887537Y-51215500D01*
X55094463Y-51215500D01*
X55094465Y-51215500D01*
X55227336Y-51189070D01*
X55297411Y-51175132D01*
X55297412Y-51175131D01*
X55297420Y-51175130D01*
X55488598Y-51095941D01*
X55660655Y-50980977D01*
X55806977Y-50834655D01*
X55921941Y-50662598D01*
X56001130Y-50471420D01*
X56041500Y-50268465D01*
X56041500Y-50061536D01*
X56480500Y-50061536D01*
X56480500Y-50268463D01*
X56520867Y-50471411D01*
X56520869Y-50471416D01*
X56520870Y-50471420D01*
X56600059Y-50662598D01*
X56600060Y-50662600D01*
X56600061Y-50662601D01*
X56715019Y-50834650D01*
X56715020Y-50834651D01*
X56715023Y-50834655D01*
X56861345Y-50980977D01*
X56861348Y-50980979D01*
X56861349Y-50980980D01*
X56870883Y-50987350D01*
X57033402Y-51095941D01*
X57224580Y-51175130D01*
X57224585Y-51175131D01*
X57224588Y-51175132D01*
X57327432Y-51195588D01*
X57427535Y-51215500D01*
X57427537Y-51215500D01*
X57634463Y-51215500D01*
X57634465Y-51215500D01*
X57767336Y-51189070D01*
X57837411Y-51175132D01*
X57837412Y-51175131D01*
X57837420Y-51175130D01*
X58028598Y-51095941D01*
X58200655Y-50980977D01*
X58346977Y-50834655D01*
X58461941Y-50662598D01*
X58541130Y-50471420D01*
X58581500Y-50268465D01*
X58581500Y-50061535D01*
X58568285Y-49995099D01*
X58541132Y-49858588D01*
X58541131Y-49858585D01*
X58541130Y-49858580D01*
X58461941Y-49667402D01*
X58404459Y-49581373D01*
X58346980Y-49495349D01*
X58346979Y-49495348D01*
X58346977Y-49495345D01*
X58200655Y-49349023D01*
X58200651Y-49349020D01*
X58200650Y-49349019D01*
X58028601Y-49234061D01*
X58028600Y-49234060D01*
X58028598Y-49234059D01*
X57837420Y-49154870D01*
X57837416Y-49154869D01*
X57837411Y-49154867D01*
X57684684Y-49124489D01*
X57634465Y-49114500D01*
X57427535Y-49114500D01*
X57382844Y-49123389D01*
X57224588Y-49154867D01*
X57224583Y-49154869D01*
X57224581Y-49154869D01*
X57224580Y-49154870D01*
X57033402Y-49234059D01*
X57033400Y-49234059D01*
X57033398Y-49234061D01*
X56861349Y-49349019D01*
X56715019Y-49495349D01*
X56600061Y-49667398D01*
X56600059Y-49667400D01*
X56600059Y-49667402D01*
X56543567Y-49803786D01*
X56520869Y-49858583D01*
X56520867Y-49858588D01*
X56480500Y-50061536D01*
X56041500Y-50061536D01*
X56041500Y-50061535D01*
X56028285Y-49995099D01*
X56001132Y-49858588D01*
X56001131Y-49858585D01*
X56001130Y-49858580D01*
X55921941Y-49667402D01*
X55864459Y-49581373D01*
X55806980Y-49495349D01*
X55806979Y-49495348D01*
X55806977Y-49495345D01*
X55660655Y-49349023D01*
X55660651Y-49349020D01*
X55660650Y-49349019D01*
X55488601Y-49234061D01*
X55488600Y-49234060D01*
X55488598Y-49234059D01*
X55297420Y-49154870D01*
X55297416Y-49154869D01*
X55297411Y-49154867D01*
X55144684Y-49124489D01*
X55094465Y-49114500D01*
X54887535Y-49114500D01*
X54842844Y-49123389D01*
X54684588Y-49154867D01*
X54684583Y-49154869D01*
X54684581Y-49154869D01*
X54684580Y-49154870D01*
X54493402Y-49234059D01*
X54493400Y-49234059D01*
X54493398Y-49234061D01*
X54321349Y-49349019D01*
X54175019Y-49495349D01*
X54060061Y-49667398D01*
X54060059Y-49667400D01*
X54060059Y-49667402D01*
X54003567Y-49803786D01*
X53980869Y-49858583D01*
X53980867Y-49858588D01*
X53940500Y-50061536D01*
X49197100Y-50061536D01*
X49197100Y-47521536D01*
X53940500Y-47521536D01*
X53940500Y-47728463D01*
X53980867Y-47931411D01*
X53980869Y-47931416D01*
X53980870Y-47931420D01*
X54060059Y-48122598D01*
X54060060Y-48122600D01*
X54060061Y-48122601D01*
X54175019Y-48294650D01*
X54175020Y-48294651D01*
X54175023Y-48294655D01*
X54321345Y-48440977D01*
X54493402Y-48555941D01*
X54684580Y-48635130D01*
X54684585Y-48635131D01*
X54684588Y-48635132D01*
X54787432Y-48655588D01*
X54887535Y-48675500D01*
X54887537Y-48675500D01*
X55094463Y-48675500D01*
X55094465Y-48675500D01*
X55227336Y-48649070D01*
X55297411Y-48635132D01*
X55297412Y-48635131D01*
X55297420Y-48635130D01*
X55488598Y-48555941D01*
X55660655Y-48440977D01*
X55806977Y-48294655D01*
X55921941Y-48122598D01*
X56001130Y-47931420D01*
X56005608Y-47908910D01*
X56041500Y-47728463D01*
X56041500Y-47521536D01*
X56480500Y-47521536D01*
X56480500Y-47728463D01*
X56520867Y-47931411D01*
X56520869Y-47931416D01*
X56520870Y-47931420D01*
X56600059Y-48122598D01*
X56600060Y-48122600D01*
X56600061Y-48122601D01*
X56715019Y-48294650D01*
X56715020Y-48294651D01*
X56715023Y-48294655D01*
X56861345Y-48440977D01*
X57033402Y-48555941D01*
X57224580Y-48635130D01*
X57224585Y-48635131D01*
X57224588Y-48635132D01*
X57327432Y-48655588D01*
X57427535Y-48675500D01*
X57427537Y-48675500D01*
X57634463Y-48675500D01*
X57634465Y-48675500D01*
X57767336Y-48649070D01*
X57837411Y-48635132D01*
X57837412Y-48635131D01*
X57837420Y-48635130D01*
X58028598Y-48555941D01*
X58200655Y-48440977D01*
X58346977Y-48294655D01*
X58461941Y-48122598D01*
X58541130Y-47931420D01*
X58545608Y-47908910D01*
X58581500Y-47728463D01*
X58581500Y-47521536D01*
X58541132Y-47318588D01*
X58541131Y-47318585D01*
X58541130Y-47318580D01*
X58461941Y-47127402D01*
X58404459Y-47041373D01*
X58346980Y-46955349D01*
X58346979Y-46955348D01*
X58346977Y-46955345D01*
X58200655Y-46809023D01*
X58200651Y-46809020D01*
X58200650Y-46809019D01*
X58028601Y-46694061D01*
X58028600Y-46694060D01*
X58028598Y-46694059D01*
X57837420Y-46614870D01*
X57837416Y-46614869D01*
X57837411Y-46614867D01*
X57684684Y-46584489D01*
X57634465Y-46574500D01*
X57427535Y-46574500D01*
X57382844Y-46583389D01*
X57224588Y-46614867D01*
X57224583Y-46614869D01*
X57224581Y-46614869D01*
X57224580Y-46614870D01*
X57033402Y-46694059D01*
X57033400Y-46694059D01*
X57033398Y-46694061D01*
X56861349Y-46809019D01*
X56715019Y-46955349D01*
X56600061Y-47127398D01*
X56600059Y-47127400D01*
X56600059Y-47127402D01*
X56520870Y-47318580D01*
X56520869Y-47318583D01*
X56520867Y-47318588D01*
X56480500Y-47521536D01*
X56041500Y-47521536D01*
X56001132Y-47318588D01*
X56001131Y-47318585D01*
X56001130Y-47318580D01*
X55921941Y-47127402D01*
X55864459Y-47041373D01*
X55806980Y-46955349D01*
X55806979Y-46955348D01*
X55806977Y-46955345D01*
X55660655Y-46809023D01*
X55660651Y-46809020D01*
X55660650Y-46809019D01*
X55488601Y-46694061D01*
X55488600Y-46694060D01*
X55488598Y-46694059D01*
X55297420Y-46614870D01*
X55297416Y-46614869D01*
X55297411Y-46614867D01*
X55144684Y-46584489D01*
X55094465Y-46574500D01*
X54887535Y-46574500D01*
X54842844Y-46583389D01*
X54684588Y-46614867D01*
X54684583Y-46614869D01*
X54684581Y-46614869D01*
X54684580Y-46614870D01*
X54493402Y-46694059D01*
X54493400Y-46694059D01*
X54493398Y-46694061D01*
X54321349Y-46809019D01*
X54175019Y-46955349D01*
X54060061Y-47127398D01*
X54060059Y-47127400D01*
X54060059Y-47127402D01*
X53980870Y-47318580D01*
X53980869Y-47318583D01*
X53980867Y-47318588D01*
X53940500Y-47521536D01*
X49197100Y-47521536D01*
X49197100Y-44981535D01*
X53940500Y-44981535D01*
X53940500Y-45188465D01*
X53950489Y-45238684D01*
X53980867Y-45391411D01*
X53980869Y-45391416D01*
X53980870Y-45391420D01*
X54060059Y-45582598D01*
X54060060Y-45582600D01*
X54060061Y-45582601D01*
X54175019Y-45754650D01*
X54175020Y-45754651D01*
X54175023Y-45754655D01*
X54321345Y-45900977D01*
X54493402Y-46015941D01*
X54684580Y-46095130D01*
X54684585Y-46095131D01*
X54684588Y-46095132D01*
X54787432Y-46115588D01*
X54887535Y-46135500D01*
X54887537Y-46135500D01*
X55094463Y-46135500D01*
X55094465Y-46135500D01*
X55227336Y-46109070D01*
X55297411Y-46095132D01*
X55297412Y-46095131D01*
X55297420Y-46095130D01*
X55488598Y-46015941D01*
X55660655Y-45900977D01*
X55806977Y-45754655D01*
X55921941Y-45582598D01*
X56001130Y-45391420D01*
X56041500Y-45188465D01*
X56041500Y-44981535D01*
X56480500Y-44981535D01*
X56480500Y-45188465D01*
X56490489Y-45238684D01*
X56520867Y-45391411D01*
X56520869Y-45391416D01*
X56520870Y-45391420D01*
X56600059Y-45582598D01*
X56600060Y-45582600D01*
X56600061Y-45582601D01*
X56715019Y-45754650D01*
X56715020Y-45754651D01*
X56715023Y-45754655D01*
X56861345Y-45900977D01*
X57033402Y-46015941D01*
X57224580Y-46095130D01*
X57224585Y-46095131D01*
X57224588Y-46095132D01*
X57327432Y-46115588D01*
X57427535Y-46135500D01*
X57427537Y-46135500D01*
X57634463Y-46135500D01*
X57634465Y-46135500D01*
X57767336Y-46109070D01*
X57837411Y-46095132D01*
X57837412Y-46095131D01*
X57837420Y-46095130D01*
X58028598Y-46015941D01*
X58200655Y-45900977D01*
X58346977Y-45754655D01*
X58461941Y-45582598D01*
X58541130Y-45391420D01*
X58581500Y-45188465D01*
X58581500Y-44981535D01*
X58545608Y-44801091D01*
X58541132Y-44778588D01*
X58541131Y-44778585D01*
X58541130Y-44778580D01*
X58461941Y-44587402D01*
X58404459Y-44501373D01*
X58346980Y-44415349D01*
X58346979Y-44415348D01*
X58346977Y-44415345D01*
X58200655Y-44269023D01*
X58200651Y-44269020D01*
X58200650Y-44269019D01*
X58028601Y-44154061D01*
X58028600Y-44154060D01*
X58028598Y-44154059D01*
X57837420Y-44074870D01*
X57837416Y-44074869D01*
X57837411Y-44074867D01*
X57684684Y-44044489D01*
X57634465Y-44034500D01*
X57427535Y-44034500D01*
X57382844Y-44043389D01*
X57224588Y-44074867D01*
X57224583Y-44074869D01*
X57224581Y-44074869D01*
X57224580Y-44074870D01*
X57033402Y-44154059D01*
X57033400Y-44154059D01*
X57033398Y-44154061D01*
X56861349Y-44269019D01*
X56715019Y-44415349D01*
X56600061Y-44587398D01*
X56600059Y-44587400D01*
X56600059Y-44587402D01*
X56543567Y-44723786D01*
X56520869Y-44778583D01*
X56520867Y-44778588D01*
X56508553Y-44840500D01*
X56480500Y-44981535D01*
X56041500Y-44981535D01*
X56005608Y-44801091D01*
X56001132Y-44778588D01*
X56001131Y-44778585D01*
X56001130Y-44778580D01*
X55921941Y-44587402D01*
X55864459Y-44501373D01*
X55806980Y-44415349D01*
X55806979Y-44415348D01*
X55806977Y-44415345D01*
X55660655Y-44269023D01*
X55660651Y-44269020D01*
X55660650Y-44269019D01*
X55488601Y-44154061D01*
X55488600Y-44154060D01*
X55488598Y-44154059D01*
X55297420Y-44074870D01*
X55297416Y-44074869D01*
X55297411Y-44074867D01*
X55144684Y-44044489D01*
X55094465Y-44034500D01*
X54887535Y-44034500D01*
X54842844Y-44043389D01*
X54684588Y-44074867D01*
X54684583Y-44074869D01*
X54684581Y-44074869D01*
X54684580Y-44074870D01*
X54493402Y-44154059D01*
X54493400Y-44154059D01*
X54493398Y-44154061D01*
X54321349Y-44269019D01*
X54175019Y-44415349D01*
X54060061Y-44587398D01*
X54060059Y-44587400D01*
X54060059Y-44587402D01*
X54003567Y-44723786D01*
X53980869Y-44778583D01*
X53980867Y-44778588D01*
X53968553Y-44840500D01*
X53940500Y-44981535D01*
X49197100Y-44981535D01*
X49197100Y-43341400D01*
X49217665Y-43284899D01*
X49269736Y-43254835D01*
X49285000Y-43253500D01*
X54177458Y-43253500D01*
X54233959Y-43274065D01*
X54239612Y-43279245D01*
X54286504Y-43326136D01*
X54321345Y-43360977D01*
X54493402Y-43475941D01*
X54684580Y-43555130D01*
X54684585Y-43555131D01*
X54684588Y-43555132D01*
X54787432Y-43575588D01*
X54887535Y-43595500D01*
X54887537Y-43595500D01*
X55094463Y-43595500D01*
X55094465Y-43595500D01*
X55227336Y-43569070D01*
X55297411Y-43555132D01*
X55297412Y-43555131D01*
X55297420Y-43555130D01*
X55488598Y-43475941D01*
X55660655Y-43360977D01*
X55806977Y-43214655D01*
X55921941Y-43042598D01*
X56001130Y-42851420D01*
X56041500Y-42648465D01*
X56041500Y-42441536D01*
X56480500Y-42441536D01*
X56480500Y-42648463D01*
X56520867Y-42851411D01*
X56520869Y-42851416D01*
X56520870Y-42851420D01*
X56600059Y-43042598D01*
X56600060Y-43042600D01*
X56600061Y-43042601D01*
X56715019Y-43214650D01*
X56715020Y-43214651D01*
X56715023Y-43214655D01*
X56861345Y-43360977D01*
X57033402Y-43475941D01*
X57224580Y-43555130D01*
X57224585Y-43555131D01*
X57224588Y-43555132D01*
X57327432Y-43575588D01*
X57427535Y-43595500D01*
X57427537Y-43595500D01*
X57634463Y-43595500D01*
X57634465Y-43595500D01*
X57767336Y-43569070D01*
X57837411Y-43555132D01*
X57837412Y-43555131D01*
X57837420Y-43555130D01*
X58028598Y-43475941D01*
X58200655Y-43360977D01*
X58346977Y-43214655D01*
X58461941Y-43042598D01*
X58541130Y-42851420D01*
X58581500Y-42648465D01*
X58581500Y-42441535D01*
X58568285Y-42375099D01*
X58541132Y-42238588D01*
X58541131Y-42238585D01*
X58541130Y-42238580D01*
X58461941Y-42047402D01*
X58346977Y-41875345D01*
X58200655Y-41729023D01*
X58200651Y-41729020D01*
X58200650Y-41729019D01*
X58028601Y-41614061D01*
X58028600Y-41614060D01*
X58028598Y-41614059D01*
X57837420Y-41534870D01*
X57837416Y-41534869D01*
X57837411Y-41534867D01*
X57684684Y-41504489D01*
X57634465Y-41494500D01*
X57427535Y-41494500D01*
X57382844Y-41503389D01*
X57224588Y-41534867D01*
X57224583Y-41534869D01*
X57224581Y-41534869D01*
X57224580Y-41534870D01*
X57033402Y-41614059D01*
X57033400Y-41614059D01*
X57033398Y-41614061D01*
X56861349Y-41729019D01*
X56715019Y-41875349D01*
X56600061Y-42047398D01*
X56600059Y-42047400D01*
X56600059Y-42047402D01*
X56551900Y-42163668D01*
X56520869Y-42238583D01*
X56520867Y-42238588D01*
X56480500Y-42441536D01*
X56041500Y-42441536D01*
X56041500Y-42441535D01*
X56028285Y-42375099D01*
X56001132Y-42238588D01*
X56001131Y-42238585D01*
X56001130Y-42238580D01*
X55921941Y-42047402D01*
X55806977Y-41875345D01*
X55660655Y-41729023D01*
X55660651Y-41729020D01*
X55660650Y-41729019D01*
X55488601Y-41614061D01*
X55488600Y-41614060D01*
X55488598Y-41614059D01*
X55297420Y-41534870D01*
X55297416Y-41534869D01*
X55297411Y-41534867D01*
X55144684Y-41504489D01*
X55094465Y-41494500D01*
X54887535Y-41494500D01*
X54842844Y-41503389D01*
X54684588Y-41534867D01*
X54684583Y-41534869D01*
X54684581Y-41534869D01*
X54684580Y-41534870D01*
X54493402Y-41614059D01*
X54493400Y-41614059D01*
X54493398Y-41614061D01*
X54321349Y-41729019D01*
X54321343Y-41729024D01*
X54239612Y-41810755D01*
X54185118Y-41836166D01*
X54177458Y-41836500D01*
X49285000Y-41836500D01*
X49228499Y-41815935D01*
X49198435Y-41763864D01*
X49197100Y-41748600D01*
X49197100Y-39901535D01*
X53940500Y-39901535D01*
X53940500Y-40108465D01*
X53948122Y-40146785D01*
X53980867Y-40311411D01*
X53980869Y-40311416D01*
X53980870Y-40311420D01*
X54060059Y-40502598D01*
X54060060Y-40502600D01*
X54060061Y-40502601D01*
X54175019Y-40674650D01*
X54175020Y-40674651D01*
X54175023Y-40674655D01*
X54321345Y-40820977D01*
X54321348Y-40820979D01*
X54321349Y-40820980D01*
X54342167Y-40834890D01*
X54493402Y-40935941D01*
X54684580Y-41015130D01*
X54684585Y-41015131D01*
X54684588Y-41015132D01*
X54787432Y-41035588D01*
X54887535Y-41055500D01*
X54887537Y-41055500D01*
X55094463Y-41055500D01*
X55094465Y-41055500D01*
X55227336Y-41029070D01*
X55297411Y-41015132D01*
X55297412Y-41015131D01*
X55297420Y-41015130D01*
X55488598Y-40935941D01*
X55660655Y-40820977D01*
X55806977Y-40674655D01*
X55921941Y-40502598D01*
X56001130Y-40311420D01*
X56041500Y-40108465D01*
X56041500Y-39903772D01*
X56503200Y-39903772D01*
X56503200Y-40106227D01*
X56542696Y-40304794D01*
X56542698Y-40304798D01*
X56620176Y-40491845D01*
X56648383Y-40534060D01*
X57048036Y-40134406D01*
X57065075Y-40197993D01*
X57130901Y-40312007D01*
X57223993Y-40405099D01*
X57338007Y-40470925D01*
X57401589Y-40487962D01*
X57001937Y-40887615D01*
X57044152Y-40915822D01*
X57231201Y-40993301D01*
X57231205Y-40993303D01*
X57429773Y-41032800D01*
X57632227Y-41032800D01*
X57830794Y-40993303D01*
X57830798Y-40993301D01*
X58017848Y-40915822D01*
X58060061Y-40887615D01*
X57660408Y-40487962D01*
X57723993Y-40470925D01*
X57838007Y-40405099D01*
X57931099Y-40312007D01*
X57996925Y-40197993D01*
X58013962Y-40134408D01*
X58413615Y-40534061D01*
X58441822Y-40491848D01*
X58519301Y-40304798D01*
X58519303Y-40304794D01*
X58558800Y-40106227D01*
X58558800Y-39903772D01*
X58519303Y-39705205D01*
X58519301Y-39705201D01*
X58441822Y-39518152D01*
X58413615Y-39475937D01*
X58013962Y-39875589D01*
X57996925Y-39812007D01*
X57931099Y-39697993D01*
X57838007Y-39604901D01*
X57723993Y-39539075D01*
X57660407Y-39522036D01*
X58060061Y-39122384D01*
X58017845Y-39094176D01*
X57830798Y-39016698D01*
X57830794Y-39016696D01*
X57632227Y-38977200D01*
X57429773Y-38977200D01*
X57231205Y-39016696D01*
X57231201Y-39016698D01*
X57044154Y-39094175D01*
X57001937Y-39122383D01*
X57401591Y-39522037D01*
X57338007Y-39539075D01*
X57223993Y-39604901D01*
X57130901Y-39697993D01*
X57065075Y-39812007D01*
X57048037Y-39875591D01*
X56648383Y-39475937D01*
X56620175Y-39518154D01*
X56542698Y-39705201D01*
X56542696Y-39705205D01*
X56503200Y-39903772D01*
X56041500Y-39903772D01*
X56041500Y-39901535D01*
X56001130Y-39698580D01*
X55921941Y-39507402D01*
X55806977Y-39335345D01*
X55660655Y-39189023D01*
X55660651Y-39189020D01*
X55660650Y-39189019D01*
X55488601Y-39074061D01*
X55488600Y-39074060D01*
X55488598Y-39074059D01*
X55297420Y-38994870D01*
X55297416Y-38994869D01*
X55297411Y-38994867D01*
X55144684Y-38964489D01*
X55094465Y-38954500D01*
X54887535Y-38954500D01*
X54842844Y-38963389D01*
X54684588Y-38994867D01*
X54684583Y-38994869D01*
X54684581Y-38994869D01*
X54684580Y-38994870D01*
X54493402Y-39074059D01*
X54493400Y-39074059D01*
X54493398Y-39074061D01*
X54321349Y-39189019D01*
X54175019Y-39335349D01*
X54060061Y-39507398D01*
X54060059Y-39507400D01*
X54060059Y-39507402D01*
X54000394Y-39651445D01*
X53980869Y-39698583D01*
X53980867Y-39698588D01*
X53958308Y-39812007D01*
X53940500Y-39901535D01*
X49197100Y-39901535D01*
X49197100Y-38659541D01*
X49217665Y-38603040D01*
X49222834Y-38597397D01*
X49304577Y-38515655D01*
X49419541Y-38343598D01*
X49498730Y-38152420D01*
X49505328Y-38119252D01*
X49536487Y-37962601D01*
X49539100Y-37949465D01*
X49539100Y-37742535D01*
X49509953Y-37596000D01*
X49498732Y-37539588D01*
X49498731Y-37539585D01*
X49498730Y-37539580D01*
X49419541Y-37348402D01*
X49304577Y-37176345D01*
X49158255Y-37030023D01*
X49146505Y-37022172D01*
X49134563Y-37014192D01*
X49099011Y-36965702D01*
X49095500Y-36941107D01*
X49095500Y-36595252D01*
X53940500Y-36595252D01*
X53940500Y-38334748D01*
X53942261Y-38343601D01*
X53952133Y-38393232D01*
X53996445Y-38459548D01*
X53996448Y-38459552D01*
X53996451Y-38459554D01*
X54062767Y-38503866D01*
X54062769Y-38503867D01*
X54121252Y-38515500D01*
X54121254Y-38515500D01*
X55860746Y-38515500D01*
X55860748Y-38515500D01*
X55919231Y-38503867D01*
X55985552Y-38459552D01*
X56029867Y-38393231D01*
X56041500Y-38334748D01*
X56041500Y-37361536D01*
X56480500Y-37361536D01*
X56480500Y-37568463D01*
X56520867Y-37771411D01*
X56520869Y-37771416D01*
X56520870Y-37771420D01*
X56600059Y-37962598D01*
X56600060Y-37962600D01*
X56600061Y-37962601D01*
X56715019Y-38134650D01*
X56715020Y-38134651D01*
X56715023Y-38134655D01*
X56861345Y-38280977D01*
X57033402Y-38395941D01*
X57224580Y-38475130D01*
X57224585Y-38475131D01*
X57224588Y-38475132D01*
X57327432Y-38495588D01*
X57427535Y-38515500D01*
X57427537Y-38515500D01*
X57634463Y-38515500D01*
X57634465Y-38515500D01*
X57767336Y-38489070D01*
X57837411Y-38475132D01*
X57837412Y-38475131D01*
X57837420Y-38475130D01*
X58028598Y-38395941D01*
X58200655Y-38280977D01*
X58346977Y-38134655D01*
X58461941Y-37962598D01*
X58541130Y-37771420D01*
X58581500Y-37568465D01*
X58581500Y-37361535D01*
X58568285Y-37295099D01*
X58541132Y-37158588D01*
X58541131Y-37158585D01*
X58541130Y-37158580D01*
X58461941Y-36967402D01*
X58346977Y-36795345D01*
X58200655Y-36649023D01*
X58200651Y-36649020D01*
X58200650Y-36649019D01*
X58028601Y-36534061D01*
X58028600Y-36534060D01*
X58028598Y-36534059D01*
X57837420Y-36454870D01*
X57837416Y-36454869D01*
X57837411Y-36454867D01*
X57684684Y-36424489D01*
X57634465Y-36414500D01*
X57427535Y-36414500D01*
X57382844Y-36423389D01*
X57224588Y-36454867D01*
X57224583Y-36454869D01*
X57224581Y-36454869D01*
X57224580Y-36454870D01*
X57033402Y-36534059D01*
X57033400Y-36534059D01*
X57033398Y-36534061D01*
X56861349Y-36649019D01*
X56715019Y-36795349D01*
X56600061Y-36967398D01*
X56600059Y-36967400D01*
X56600059Y-36967402D01*
X56520870Y-37158580D01*
X56520869Y-37158583D01*
X56520867Y-37158588D01*
X56480500Y-37361536D01*
X56041500Y-37361536D01*
X56041500Y-36595252D01*
X56029867Y-36536769D01*
X56028056Y-36534059D01*
X55985554Y-36470451D01*
X55985552Y-36470448D01*
X55985548Y-36470445D01*
X55919232Y-36426133D01*
X55899736Y-36422255D01*
X55860748Y-36414500D01*
X54121252Y-36414500D01*
X54092010Y-36420316D01*
X54062767Y-36426133D01*
X53996451Y-36470445D01*
X53996445Y-36470451D01*
X53952133Y-36536767D01*
X53952133Y-36536769D01*
X53940500Y-36595252D01*
X49095500Y-36595252D01*
X49095500Y-32045291D01*
X49116065Y-31988790D01*
X49134564Y-31972206D01*
X49158255Y-31956377D01*
X49304577Y-31810055D01*
X49419541Y-31637998D01*
X49498730Y-31446820D01*
X49499196Y-31444480D01*
X49538079Y-31248996D01*
X49539100Y-31243865D01*
X49539100Y-31036935D01*
X49509953Y-30890400D01*
X49498732Y-30833988D01*
X49498731Y-30833985D01*
X49498730Y-30833980D01*
X49419541Y-30642802D01*
X49304577Y-30470745D01*
X49158255Y-30324423D01*
X49158251Y-30324420D01*
X49158250Y-30324419D01*
X48986201Y-30209461D01*
X48986200Y-30209460D01*
X48986198Y-30209459D01*
X48795020Y-30130270D01*
X48795016Y-30130269D01*
X48795011Y-30130267D01*
X48642284Y-30099889D01*
X48592065Y-30089900D01*
X48385135Y-30089900D01*
X48340444Y-30098789D01*
X48182188Y-30130267D01*
X48182183Y-30130269D01*
X48182181Y-30130269D01*
X48182180Y-30130270D01*
X47991002Y-30209459D01*
X47991000Y-30209459D01*
X47990998Y-30209461D01*
X47818949Y-30324419D01*
X47672619Y-30470749D01*
X47557661Y-30642798D01*
X47557659Y-30642800D01*
X47557659Y-30642802D01*
X47495072Y-30793900D01*
X47478469Y-30833983D01*
X47478467Y-30833988D01*
X47455908Y-30947407D01*
X47438100Y-31036935D01*
X47438100Y-31243865D01*
X47439121Y-31248996D01*
X47478467Y-31446811D01*
X47478469Y-31446816D01*
X47478470Y-31446820D01*
X47557659Y-31637998D01*
X47557660Y-31638000D01*
X47557661Y-31638001D01*
X47672619Y-31810050D01*
X47672620Y-31810051D01*
X47672623Y-31810055D01*
X47818945Y-31956377D01*
X47842633Y-31972205D01*
X47878188Y-32020692D01*
X47881700Y-32045291D01*
X47881700Y-36941107D01*
X47861135Y-36997608D01*
X47842637Y-37014192D01*
X47818946Y-37030022D01*
X47672619Y-37176349D01*
X47557661Y-37348398D01*
X47557659Y-37348400D01*
X47557659Y-37348402D01*
X47478713Y-37538993D01*
X47478469Y-37539583D01*
X47478467Y-37539588D01*
X47455908Y-37653007D01*
X47438100Y-37742535D01*
X47438100Y-37949465D01*
X47440713Y-37962601D01*
X47478467Y-38152411D01*
X47478469Y-38152416D01*
X47478470Y-38152420D01*
X47557659Y-38343598D01*
X47557660Y-38343600D01*
X47557661Y-38343601D01*
X47672619Y-38515650D01*
X47672620Y-38515651D01*
X47672623Y-38515655D01*
X47754355Y-38597387D01*
X47779766Y-38651880D01*
X47780100Y-38659541D01*
X47780100Y-41748600D01*
X47759535Y-41805101D01*
X47707464Y-41835165D01*
X47692200Y-41836500D01*
X20964000Y-41836500D01*
X20907499Y-41815935D01*
X20877435Y-41763864D01*
X20876100Y-41748600D01*
X20876100Y-38119253D01*
X28159500Y-38119253D01*
X28159500Y-39858746D01*
X28171133Y-39917232D01*
X28185795Y-39939174D01*
X28215448Y-39983552D01*
X28215451Y-39983554D01*
X28281767Y-40027866D01*
X28281769Y-40027867D01*
X28340252Y-40039500D01*
X28340254Y-40039500D01*
X30079746Y-40039500D01*
X30079748Y-40039500D01*
X30138231Y-40027867D01*
X30204552Y-39983552D01*
X30248867Y-39917231D01*
X30260500Y-39858748D01*
X30260500Y-38119252D01*
X30255875Y-38096000D01*
X30252044Y-38076738D01*
X30250503Y-38068998D01*
X30248867Y-38060769D01*
X30204552Y-37994448D01*
X30204548Y-37994445D01*
X30138232Y-37950133D01*
X30118736Y-37946255D01*
X30079748Y-37938500D01*
X28340252Y-37938500D01*
X28311010Y-37944316D01*
X28281767Y-37950133D01*
X28215451Y-37994445D01*
X28215445Y-37994451D01*
X28171133Y-38060767D01*
X28159500Y-38119253D01*
X20876100Y-38119253D01*
X20876100Y-36978487D01*
X42380800Y-36978487D01*
X42380800Y-37595999D01*
X42380801Y-37596000D01*
X42975588Y-37596000D01*
X42942675Y-37653007D01*
X42908600Y-37780174D01*
X42908600Y-37911826D01*
X42942675Y-38038993D01*
X42975588Y-38096000D01*
X42380802Y-38096000D01*
X42380801Y-38096001D01*
X42380801Y-38713508D01*
X42391116Y-38765375D01*
X42430411Y-38824182D01*
X42430417Y-38824188D01*
X42489224Y-38863483D01*
X42541087Y-38873799D01*
X43158598Y-38873799D01*
X43158600Y-38873798D01*
X43158600Y-38279012D01*
X43215607Y-38311925D01*
X43342774Y-38346000D01*
X43474426Y-38346000D01*
X43601593Y-38311925D01*
X43658600Y-38279012D01*
X43658600Y-38873798D01*
X43658601Y-38873799D01*
X44276109Y-38873799D01*
X44327975Y-38863483D01*
X44386782Y-38824188D01*
X44386788Y-38824182D01*
X44426083Y-38765375D01*
X44436400Y-38713512D01*
X44436400Y-38096001D01*
X44436399Y-38096000D01*
X43841612Y-38096000D01*
X43874525Y-38038993D01*
X43908600Y-37911826D01*
X43908600Y-37780174D01*
X43898514Y-37742535D01*
X44898100Y-37742535D01*
X44898100Y-37949465D01*
X44900713Y-37962601D01*
X44938467Y-38152411D01*
X44938469Y-38152416D01*
X44938470Y-38152420D01*
X45017659Y-38343598D01*
X45017660Y-38343600D01*
X45017661Y-38343601D01*
X45132619Y-38515650D01*
X45132620Y-38515651D01*
X45132623Y-38515655D01*
X45278945Y-38661977D01*
X45451002Y-38776941D01*
X45642180Y-38856130D01*
X45642185Y-38856131D01*
X45642188Y-38856132D01*
X45745032Y-38876588D01*
X45845135Y-38896500D01*
X45845137Y-38896500D01*
X46052063Y-38896500D01*
X46052065Y-38896500D01*
X46218054Y-38863483D01*
X46255011Y-38856132D01*
X46255012Y-38856131D01*
X46255020Y-38856130D01*
X46446198Y-38776941D01*
X46618255Y-38661977D01*
X46764577Y-38515655D01*
X46879541Y-38343598D01*
X46958730Y-38152420D01*
X46965328Y-38119252D01*
X46996487Y-37962601D01*
X46999100Y-37949465D01*
X46999100Y-37742535D01*
X46969953Y-37596000D01*
X46958732Y-37539588D01*
X46958731Y-37539585D01*
X46958730Y-37539580D01*
X46879541Y-37348402D01*
X46764577Y-37176345D01*
X46618255Y-37030023D01*
X46618251Y-37030020D01*
X46618250Y-37030019D01*
X46446201Y-36915061D01*
X46446200Y-36915060D01*
X46446198Y-36915059D01*
X46255020Y-36835870D01*
X46255016Y-36835869D01*
X46255011Y-36835867D01*
X46102284Y-36805489D01*
X46052065Y-36795500D01*
X45845135Y-36795500D01*
X45800444Y-36804389D01*
X45642188Y-36835867D01*
X45642183Y-36835869D01*
X45642181Y-36835869D01*
X45642180Y-36835870D01*
X45451002Y-36915059D01*
X45451000Y-36915059D01*
X45450998Y-36915061D01*
X45278949Y-37030019D01*
X45132619Y-37176349D01*
X45017661Y-37348398D01*
X45017659Y-37348400D01*
X45017659Y-37348402D01*
X44938713Y-37538993D01*
X44938469Y-37539583D01*
X44938467Y-37539588D01*
X44915908Y-37653007D01*
X44898100Y-37742535D01*
X43898514Y-37742535D01*
X43874525Y-37653007D01*
X43841612Y-37596000D01*
X44436398Y-37596000D01*
X44436399Y-37595999D01*
X44436399Y-36978491D01*
X44426083Y-36926624D01*
X44386788Y-36867817D01*
X44386782Y-36867811D01*
X44327975Y-36828516D01*
X44276113Y-36818200D01*
X43658601Y-36818200D01*
X43658600Y-36818201D01*
X43658600Y-37412988D01*
X43601593Y-37380075D01*
X43474426Y-37346000D01*
X43342774Y-37346000D01*
X43215607Y-37380075D01*
X43158600Y-37412988D01*
X43158600Y-36818201D01*
X43158599Y-36818200D01*
X42541086Y-36818200D01*
X42541084Y-36818201D01*
X42489228Y-36828514D01*
X42489224Y-36828516D01*
X42430417Y-36867811D01*
X42430411Y-36867817D01*
X42391116Y-36926624D01*
X42380800Y-36978487D01*
X20876100Y-36978487D01*
X20876100Y-28873653D01*
X28159500Y-28873653D01*
X28159500Y-30613146D01*
X28171133Y-30671632D01*
X28173033Y-30674475D01*
X28215448Y-30737952D01*
X28215451Y-30737954D01*
X28281767Y-30782266D01*
X28281769Y-30782267D01*
X28340252Y-30793900D01*
X28340254Y-30793900D01*
X30079746Y-30793900D01*
X30079748Y-30793900D01*
X30138231Y-30782267D01*
X30204552Y-30737952D01*
X30248867Y-30671631D01*
X30260500Y-30613148D01*
X30260500Y-30272887D01*
X42380800Y-30272887D01*
X42380800Y-30890399D01*
X42380801Y-30890400D01*
X42975588Y-30890400D01*
X42942675Y-30947407D01*
X42908600Y-31074574D01*
X42908600Y-31206226D01*
X42942675Y-31333393D01*
X42975588Y-31390400D01*
X42380802Y-31390400D01*
X42380801Y-31390401D01*
X42380801Y-32007908D01*
X42391116Y-32059775D01*
X42430411Y-32118582D01*
X42430417Y-32118588D01*
X42489224Y-32157883D01*
X42541087Y-32168199D01*
X43158598Y-32168199D01*
X43158600Y-32168198D01*
X43158600Y-31573412D01*
X43215607Y-31606325D01*
X43342774Y-31640400D01*
X43474426Y-31640400D01*
X43601593Y-31606325D01*
X43658600Y-31573412D01*
X43658600Y-32168198D01*
X43658601Y-32168199D01*
X44276109Y-32168199D01*
X44327975Y-32157883D01*
X44386782Y-32118588D01*
X44386788Y-32118582D01*
X44426083Y-32059775D01*
X44436400Y-32007912D01*
X44436400Y-31390401D01*
X44436399Y-31390400D01*
X43841612Y-31390400D01*
X43874525Y-31333393D01*
X43908600Y-31206226D01*
X43908600Y-31074574D01*
X43898514Y-31036935D01*
X44898100Y-31036935D01*
X44898100Y-31243865D01*
X44899121Y-31248996D01*
X44938467Y-31446811D01*
X44938469Y-31446816D01*
X44938470Y-31446820D01*
X45017659Y-31637998D01*
X45017660Y-31638000D01*
X45017661Y-31638001D01*
X45132619Y-31810050D01*
X45132620Y-31810051D01*
X45132623Y-31810055D01*
X45278945Y-31956377D01*
X45278948Y-31956379D01*
X45278949Y-31956380D01*
X45356067Y-32007908D01*
X45451002Y-32071341D01*
X45642180Y-32150530D01*
X45642185Y-32150531D01*
X45642188Y-32150532D01*
X45745032Y-32170988D01*
X45845135Y-32190900D01*
X45845137Y-32190900D01*
X46052063Y-32190900D01*
X46052065Y-32190900D01*
X46218054Y-32157883D01*
X46255011Y-32150532D01*
X46255012Y-32150531D01*
X46255020Y-32150530D01*
X46446198Y-32071341D01*
X46618255Y-31956377D01*
X46764577Y-31810055D01*
X46879541Y-31637998D01*
X46958730Y-31446820D01*
X46959196Y-31444480D01*
X46998079Y-31248996D01*
X46999100Y-31243865D01*
X46999100Y-31036935D01*
X46969953Y-30890400D01*
X46958732Y-30833988D01*
X46958731Y-30833985D01*
X46958730Y-30833980D01*
X46879541Y-30642802D01*
X46764577Y-30470745D01*
X46618255Y-30324423D01*
X46618251Y-30324420D01*
X46618250Y-30324419D01*
X46446201Y-30209461D01*
X46446200Y-30209460D01*
X46446198Y-30209459D01*
X46255020Y-30130270D01*
X46255016Y-30130269D01*
X46255011Y-30130267D01*
X46102284Y-30099889D01*
X46052065Y-30089900D01*
X45845135Y-30089900D01*
X45800444Y-30098789D01*
X45642188Y-30130267D01*
X45642183Y-30130269D01*
X45642181Y-30130269D01*
X45642180Y-30130270D01*
X45451002Y-30209459D01*
X45451000Y-30209459D01*
X45450998Y-30209461D01*
X45278949Y-30324419D01*
X45132619Y-30470749D01*
X45017661Y-30642798D01*
X45017659Y-30642800D01*
X45017659Y-30642802D01*
X44955072Y-30793900D01*
X44938469Y-30833983D01*
X44938467Y-30833988D01*
X44915908Y-30947407D01*
X44898100Y-31036935D01*
X43898514Y-31036935D01*
X43874525Y-30947407D01*
X43841612Y-30890400D01*
X44436398Y-30890400D01*
X44436399Y-30890399D01*
X44436399Y-30272891D01*
X44426083Y-30221024D01*
X44386788Y-30162217D01*
X44386782Y-30162211D01*
X44327975Y-30122916D01*
X44276113Y-30112600D01*
X43658601Y-30112600D01*
X43658600Y-30112601D01*
X43658600Y-30707388D01*
X43601593Y-30674475D01*
X43474426Y-30640400D01*
X43342774Y-30640400D01*
X43215607Y-30674475D01*
X43158600Y-30707388D01*
X43158600Y-30112601D01*
X43158599Y-30112600D01*
X42541086Y-30112600D01*
X42541084Y-30112601D01*
X42489228Y-30122914D01*
X42489224Y-30122916D01*
X42430417Y-30162211D01*
X42430411Y-30162217D01*
X42391116Y-30221024D01*
X42380800Y-30272887D01*
X30260500Y-30272887D01*
X30260500Y-28873652D01*
X30248867Y-28815169D01*
X30204552Y-28748848D01*
X30204548Y-28748845D01*
X30138232Y-28704533D01*
X30118736Y-28700655D01*
X30079748Y-28692900D01*
X28340252Y-28692900D01*
X28311010Y-28698716D01*
X28281767Y-28704533D01*
X28215451Y-28748845D01*
X28215445Y-28748851D01*
X28171133Y-28815167D01*
X28159500Y-28873653D01*
X20876100Y-28873653D01*
X20876100Y-19602653D01*
X28159500Y-19602653D01*
X28159500Y-21342146D01*
X28171133Y-21400632D01*
X28215445Y-21466948D01*
X28215448Y-21466952D01*
X28215451Y-21466954D01*
X28281767Y-21511266D01*
X28281769Y-21511267D01*
X28340252Y-21522900D01*
X28340254Y-21522900D01*
X30079746Y-21522900D01*
X30079748Y-21522900D01*
X30138231Y-21511267D01*
X30204552Y-21466952D01*
X30248867Y-21400631D01*
X30260500Y-21342148D01*
X30260500Y-19602652D01*
X30248867Y-19544169D01*
X30204552Y-19477848D01*
X30204548Y-19477845D01*
X30138232Y-19433533D01*
X30118736Y-19429655D01*
X30079748Y-19421900D01*
X28340252Y-19421900D01*
X28311010Y-19427716D01*
X28281767Y-19433533D01*
X28215451Y-19477845D01*
X28215445Y-19477851D01*
X28171133Y-19544167D01*
X28159500Y-19602653D01*
X20876100Y-19602653D01*
X20876100Y-10331653D01*
X28159500Y-10331653D01*
X28159500Y-12071146D01*
X28171133Y-12129632D01*
X28215445Y-12195948D01*
X28215448Y-12195952D01*
X28215451Y-12195954D01*
X28281767Y-12240266D01*
X28281769Y-12240267D01*
X28340252Y-12251900D01*
X28340254Y-12251900D01*
X30079746Y-12251900D01*
X30079748Y-12251900D01*
X30138231Y-12240267D01*
X30204552Y-12195952D01*
X30248867Y-12129631D01*
X30260500Y-12071148D01*
X30260500Y-10331652D01*
X30248867Y-10273169D01*
X30204552Y-10206848D01*
X30204548Y-10206845D01*
X30138232Y-10162533D01*
X30118736Y-10158655D01*
X30079748Y-10150900D01*
X28340252Y-10150900D01*
X28311010Y-10156716D01*
X28281767Y-10162533D01*
X28215451Y-10206845D01*
X28215445Y-10206851D01*
X28171133Y-10273167D01*
X28159500Y-10331653D01*
X20876100Y-10331653D01*
X20876100Y-9486294D01*
X20877789Y-9469146D01*
X20880000Y-9458030D01*
X20880000Y-7827670D01*
X20852775Y-7690795D01*
X20852773Y-7690792D01*
X20852773Y-7690788D01*
X20799364Y-7561849D01*
X20721828Y-7445808D01*
X20623142Y-7347122D01*
X20623138Y-7347119D01*
X20623137Y-7347118D01*
X20507103Y-7269587D01*
X20507101Y-7269586D01*
X20378162Y-7216177D01*
X20378160Y-7216176D01*
X20378154Y-7216174D01*
X20271420Y-7194945D01*
X20241281Y-7188950D01*
X20101719Y-7188950D01*
X20074568Y-7194350D01*
X19964845Y-7216174D01*
X19964838Y-7216177D01*
X19835897Y-7269587D01*
X19835896Y-7269587D01*
X19719862Y-7347118D01*
X19621168Y-7445812D01*
X19543637Y-7561846D01*
X19543637Y-7561847D01*
X19490227Y-7690788D01*
X19490224Y-7690795D01*
X19463000Y-7827670D01*
X19463000Y-9294104D01*
X19461311Y-9311254D01*
X19459100Y-9322368D01*
X19459100Y-56023400D01*
X19438535Y-56079901D01*
X19386464Y-56109965D01*
X19371200Y-56111300D01*
X7289480Y-56111300D01*
X7232979Y-56090735D01*
X7227325Y-56085555D01*
X6169845Y-55028074D01*
X6144434Y-54973580D01*
X6144100Y-54965919D01*
X6144100Y-54753185D01*
X6164665Y-54696684D01*
X6169834Y-54691041D01*
X6232158Y-54628718D01*
X6344386Y-54460756D01*
X6421691Y-54274127D01*
X6461100Y-54076003D01*
X6461100Y-53873997D01*
X6421691Y-53675873D01*
X6344386Y-53489244D01*
X6232158Y-53321282D01*
X6144229Y-53233353D01*
X6118819Y-53178861D01*
X6134382Y-53120783D01*
X6183635Y-53086295D01*
X6206385Y-53083300D01*
X6672454Y-53083300D01*
X6672470Y-53083301D01*
X6677852Y-53083301D01*
X6784148Y-53083301D01*
X6839448Y-53068482D01*
X6899346Y-53073720D01*
X6941863Y-53116235D01*
X6950100Y-53153386D01*
X6950100Y-54819746D01*
X6961733Y-54878232D01*
X7002063Y-54938588D01*
X7006048Y-54944552D01*
X7006051Y-54944554D01*
X7072367Y-54988866D01*
X7072369Y-54988867D01*
X7130852Y-55000500D01*
X7130854Y-55000500D01*
X8820346Y-55000500D01*
X8820348Y-55000500D01*
X8878831Y-54988867D01*
X8945152Y-54944552D01*
X8989467Y-54878231D01*
X9001100Y-54819748D01*
X9001100Y-53130252D01*
X8989467Y-53071769D01*
X8978789Y-53055789D01*
X8945154Y-53005451D01*
X8945152Y-53005448D01*
X8945148Y-53005445D01*
X8878832Y-52961133D01*
X8859336Y-52957255D01*
X8820348Y-52949500D01*
X7244227Y-52949500D01*
X7187726Y-52928935D01*
X7157662Y-52876864D01*
X7168103Y-52817650D01*
X7182072Y-52799445D01*
X7552886Y-52428630D01*
X7607379Y-52403220D01*
X7648678Y-52409577D01*
X7676473Y-52421091D01*
X7676477Y-52421091D01*
X7676481Y-52421093D01*
X7776877Y-52441062D01*
X7874597Y-52460500D01*
X7874599Y-52460500D01*
X8076601Y-52460500D01*
X8076603Y-52460500D01*
X8236821Y-52428631D01*
X8274718Y-52421093D01*
X8274719Y-52421092D01*
X8274727Y-52421091D01*
X8461356Y-52343786D01*
X8629318Y-52231558D01*
X8772158Y-52088718D01*
X8884386Y-51920756D01*
X8961691Y-51734127D01*
X9001100Y-51536003D01*
X9001100Y-51333997D01*
X8977530Y-51215500D01*
X8961693Y-51135881D01*
X8961692Y-51135878D01*
X8961691Y-51135873D01*
X8884386Y-50949244D01*
X8772158Y-50781282D01*
X8629318Y-50638442D01*
X8629314Y-50638439D01*
X8629313Y-50638438D01*
X8461358Y-50526215D01*
X8461356Y-50526214D01*
X8274727Y-50448909D01*
X8274724Y-50448908D01*
X8274718Y-50448906D01*
X8125626Y-50419251D01*
X8076603Y-50409500D01*
X7874597Y-50409500D01*
X7830970Y-50418177D01*
X7676481Y-50448906D01*
X7676473Y-50448909D01*
X7489842Y-50526215D01*
X7489841Y-50526215D01*
X7321886Y-50638438D01*
X7179038Y-50781286D01*
X7066815Y-50949241D01*
X7066815Y-50949242D01*
X7066814Y-50949244D01*
X7053473Y-50981452D01*
X6989509Y-51135873D01*
X6989506Y-51135881D01*
X6950100Y-51333998D01*
X6950100Y-51536001D01*
X6989506Y-51734118D01*
X6989508Y-51734123D01*
X6989509Y-51734127D01*
X6998712Y-51756345D01*
X7001022Y-51761922D01*
X7003643Y-51821992D01*
X6981967Y-51857713D01*
X6589527Y-52250155D01*
X6535033Y-52275565D01*
X6527372Y-52275900D01*
X6257185Y-52275900D01*
X6200684Y-52255335D01*
X6170620Y-52203264D01*
X6181061Y-52144050D01*
X6195026Y-52125849D01*
X6232158Y-52088718D01*
X6344386Y-51920756D01*
X6421691Y-51734127D01*
X6461100Y-51536003D01*
X6461100Y-51333997D01*
X6437530Y-51215500D01*
X6421693Y-51135881D01*
X6421692Y-51135878D01*
X6421691Y-51135873D01*
X6344386Y-50949244D01*
X6232158Y-50781282D01*
X6089318Y-50638442D01*
X6089314Y-50638439D01*
X6089313Y-50638438D01*
X5921358Y-50526215D01*
X5921356Y-50526214D01*
X5734727Y-50448909D01*
X5734724Y-50448908D01*
X5734718Y-50448906D01*
X5585626Y-50419251D01*
X5536603Y-50409500D01*
X5334597Y-50409500D01*
X5290970Y-50418177D01*
X5136481Y-50448906D01*
X5136473Y-50448909D01*
X4949842Y-50526215D01*
X4949841Y-50526215D01*
X4781886Y-50638438D01*
X4639038Y-50781286D01*
X4526815Y-50949241D01*
X4526812Y-50949247D01*
X4515300Y-50977039D01*
X4511255Y-50981452D01*
X4510216Y-50987350D01*
X4491328Y-51003198D01*
X4474678Y-51021369D01*
X4467613Y-51023097D01*
X4464156Y-51025999D01*
X4434092Y-51031300D01*
X4318428Y-51031300D01*
X4261927Y-51010735D01*
X4256273Y-51005555D01*
X3248845Y-49998127D01*
X3223434Y-49943633D01*
X3223100Y-49935972D01*
X3223100Y-48793998D01*
X4410100Y-48793998D01*
X4410100Y-48996001D01*
X4449506Y-49194118D01*
X4449508Y-49194124D01*
X4449509Y-49194127D01*
X4526814Y-49380756D01*
X4526815Y-49380757D01*
X4526815Y-49380758D01*
X4639038Y-49548713D01*
X4639039Y-49548714D01*
X4639042Y-49548718D01*
X4781882Y-49691558D01*
X4949844Y-49803786D01*
X5136473Y-49881091D01*
X5136478Y-49881092D01*
X5136481Y-49881093D01*
X5236877Y-49901062D01*
X5334597Y-49920500D01*
X5334599Y-49920500D01*
X5536601Y-49920500D01*
X5536603Y-49920500D01*
X5666311Y-49894699D01*
X5734718Y-49881093D01*
X5734719Y-49881092D01*
X5734727Y-49881091D01*
X5921356Y-49803786D01*
X6089318Y-49691558D01*
X6232158Y-49548718D01*
X6344386Y-49380756D01*
X6421691Y-49194127D01*
X6461100Y-48996003D01*
X6461100Y-48793997D01*
X6421691Y-48595873D01*
X6417617Y-48586039D01*
X6414993Y-48525971D01*
X6436669Y-48490247D01*
X6872473Y-48054445D01*
X6926967Y-48029034D01*
X6934628Y-48028700D01*
X7179415Y-48028700D01*
X7235916Y-48049265D01*
X7265980Y-48101336D01*
X7255539Y-48160550D01*
X7241573Y-48178750D01*
X7179042Y-48241282D01*
X7179039Y-48241285D01*
X7179038Y-48241286D01*
X7066815Y-48409241D01*
X7066815Y-48409242D01*
X7066814Y-48409244D01*
X7043489Y-48465555D01*
X6989509Y-48595873D01*
X6989506Y-48595881D01*
X6950100Y-48793998D01*
X6950100Y-48996001D01*
X6989506Y-49194118D01*
X6989508Y-49194124D01*
X6989509Y-49194127D01*
X7066814Y-49380756D01*
X7066815Y-49380757D01*
X7066815Y-49380758D01*
X7179038Y-49548713D01*
X7179039Y-49548714D01*
X7179042Y-49548718D01*
X7321882Y-49691558D01*
X7489844Y-49803786D01*
X7676473Y-49881091D01*
X7676478Y-49881092D01*
X7676481Y-49881093D01*
X7776877Y-49901062D01*
X7874597Y-49920500D01*
X7874599Y-49920500D01*
X8076601Y-49920500D01*
X8076603Y-49920500D01*
X8206311Y-49894699D01*
X8274718Y-49881093D01*
X8274719Y-49881092D01*
X8274727Y-49881091D01*
X8461356Y-49803786D01*
X8629318Y-49691558D01*
X8772158Y-49548718D01*
X8884386Y-49380756D01*
X8889455Y-49368516D01*
X8895900Y-49352961D01*
X8936522Y-49308631D01*
X8977108Y-49298700D01*
X11650854Y-49298700D01*
X11650870Y-49298701D01*
X11656252Y-49298701D01*
X11762548Y-49298701D01*
X11843520Y-49277003D01*
X11843525Y-49277003D01*
X11843525Y-49277002D01*
X11851465Y-49274874D01*
X11865223Y-49271189D01*
X11957278Y-49218041D01*
X12032441Y-49142878D01*
X12032441Y-49142876D01*
X12039673Y-49135645D01*
X12039677Y-49135640D01*
X14947240Y-46228077D01*
X14947245Y-46228073D01*
X14954476Y-46220841D01*
X14954478Y-46220841D01*
X15029641Y-46145678D01*
X15082789Y-46053623D01*
X15092886Y-46015941D01*
X15110301Y-45950948D01*
X15110301Y-45844652D01*
X15110301Y-45839271D01*
X15110300Y-45839253D01*
X15110300Y-33639040D01*
X15110301Y-33639027D01*
X15110301Y-33525652D01*
X15082789Y-33422978D01*
X15082789Y-33422977D01*
X15029641Y-33330922D01*
X15029639Y-33330920D01*
X15029638Y-33330918D01*
X14951409Y-33252690D01*
X14951408Y-33252690D01*
X13548545Y-31849827D01*
X13523134Y-31795333D01*
X13522800Y-31787672D01*
X13522800Y-31686474D01*
X13498014Y-31561863D01*
X13498013Y-31561861D01*
X13498013Y-31561860D01*
X13450362Y-31446820D01*
X13449393Y-31444480D01*
X13413259Y-31390401D01*
X13378804Y-31338836D01*
X13288964Y-31248996D01*
X13183322Y-31178408D01*
X13183321Y-31178407D01*
X13183319Y-31178406D01*
X13065940Y-31129787D01*
X13065936Y-31129785D01*
X12972266Y-31111154D01*
X12941327Y-31105000D01*
X12814273Y-31105000D01*
X12786750Y-31110474D01*
X12689663Y-31129785D01*
X12689659Y-31129787D01*
X12572280Y-31178406D01*
X12466638Y-31248994D01*
X12376794Y-31338838D01*
X12306206Y-31444480D01*
X12257587Y-31561859D01*
X12257585Y-31561863D01*
X12232800Y-31686474D01*
X12232800Y-31813525D01*
X12257585Y-31938136D01*
X12257587Y-31938140D01*
X12306206Y-32055519D01*
X12306207Y-32055521D01*
X12306208Y-32055522D01*
X12376796Y-32161164D01*
X12466636Y-32251004D01*
X12572278Y-32321592D01*
X12689660Y-32370213D01*
X12689661Y-32370213D01*
X12689663Y-32370214D01*
X12752392Y-32382691D01*
X12814273Y-32395000D01*
X12814275Y-32395000D01*
X12915472Y-32395000D01*
X12971973Y-32415565D01*
X12977627Y-32420745D01*
X14277155Y-33720273D01*
X14302566Y-33774767D01*
X14302900Y-33782428D01*
X14302900Y-45694172D01*
X14282335Y-45750673D01*
X14277155Y-45756327D01*
X11567927Y-48465555D01*
X11513433Y-48490966D01*
X11505772Y-48491300D01*
X8977108Y-48491300D01*
X8920607Y-48470735D01*
X8895900Y-48437039D01*
X8884387Y-48409247D01*
X8884386Y-48409244D01*
X8772158Y-48241282D01*
X8709629Y-48178753D01*
X8684219Y-48124261D01*
X8699782Y-48066183D01*
X8749035Y-48031695D01*
X8771785Y-48028700D01*
X10380854Y-48028700D01*
X10380870Y-48028701D01*
X10386252Y-48028701D01*
X10492548Y-48028701D01*
X10573520Y-48007003D01*
X10573525Y-48007003D01*
X10573525Y-48007002D01*
X10581465Y-48004874D01*
X10595223Y-48001189D01*
X10621161Y-47986214D01*
X10687276Y-47948042D01*
X10687275Y-47948042D01*
X10687278Y-47948041D01*
X10762441Y-47872878D01*
X10762441Y-47872876D01*
X10769673Y-47865645D01*
X10769677Y-47865640D01*
X13143840Y-45491477D01*
X13143845Y-45491473D01*
X13151076Y-45484241D01*
X13151078Y-45484241D01*
X13226241Y-45409078D01*
X13279389Y-45317023D01*
X13306900Y-45214348D01*
X13306900Y-41286477D01*
X13327465Y-41229976D01*
X13332634Y-41224333D01*
X13378804Y-41178164D01*
X13449392Y-41072522D01*
X13498013Y-40955140D01*
X13522800Y-40830527D01*
X13522800Y-40703473D01*
X13498013Y-40578860D01*
X13449392Y-40461478D01*
X13378804Y-40355836D01*
X13288964Y-40265996D01*
X13183322Y-40195408D01*
X13183321Y-40195407D01*
X13183319Y-40195406D01*
X13065940Y-40146787D01*
X13065936Y-40146785D01*
X12972266Y-40128154D01*
X12941327Y-40122000D01*
X12814273Y-40122000D01*
X12786750Y-40127474D01*
X12689663Y-40146785D01*
X12689659Y-40146787D01*
X12572280Y-40195406D01*
X12466638Y-40265994D01*
X12376794Y-40355838D01*
X12306206Y-40461480D01*
X12257587Y-40578859D01*
X12257585Y-40578863D01*
X12232800Y-40703474D01*
X12232800Y-40830525D01*
X12257585Y-40955136D01*
X12257587Y-40955140D01*
X12306206Y-41072519D01*
X12306207Y-41072521D01*
X12306208Y-41072522D01*
X12376796Y-41178164D01*
X12466636Y-41268004D01*
X12466640Y-41268006D01*
X12467363Y-41268600D01*
X12467551Y-41268918D01*
X12469690Y-41271057D01*
X12469141Y-41271605D01*
X12497993Y-41320340D01*
X12499500Y-41336548D01*
X12499500Y-44957572D01*
X12478935Y-45014073D01*
X12473755Y-45019727D01*
X10297927Y-47195555D01*
X10243433Y-47220966D01*
X10235772Y-47221300D01*
X8771785Y-47221300D01*
X8715284Y-47200735D01*
X8685220Y-47148664D01*
X8695661Y-47089450D01*
X8709626Y-47071249D01*
X8772158Y-47008718D01*
X8884386Y-46840756D01*
X8961691Y-46654127D01*
X9001100Y-46456003D01*
X9001100Y-46253997D01*
X8988199Y-46189142D01*
X8961693Y-46055881D01*
X8961692Y-46055878D01*
X8961691Y-46055873D01*
X8884386Y-45869244D01*
X8772158Y-45701282D01*
X8629318Y-45558442D01*
X8629314Y-45558439D01*
X8629313Y-45558438D01*
X8461358Y-45446215D01*
X8461356Y-45446214D01*
X8274727Y-45368909D01*
X8274724Y-45368908D01*
X8274718Y-45368906D01*
X8125626Y-45339251D01*
X8076603Y-45329500D01*
X7874597Y-45329500D01*
X7830970Y-45338177D01*
X7676481Y-45368906D01*
X7676473Y-45368909D01*
X7579498Y-45409078D01*
X7489842Y-45446215D01*
X7489841Y-45446215D01*
X7321886Y-45558438D01*
X7179038Y-45701286D01*
X7066815Y-45869241D01*
X7066815Y-45869242D01*
X7066814Y-45869244D01*
X7032971Y-45950947D01*
X6989509Y-46055873D01*
X6989506Y-46055881D01*
X6950100Y-46253998D01*
X6950100Y-46456001D01*
X6989506Y-46654118D01*
X6989508Y-46654124D01*
X6989509Y-46654127D01*
X7066814Y-46840756D01*
X7066815Y-46840757D01*
X7066815Y-46840758D01*
X7179038Y-47008713D01*
X7179039Y-47008714D01*
X7179042Y-47008718D01*
X7241570Y-47071246D01*
X7266981Y-47125739D01*
X7251418Y-47183817D01*
X7202165Y-47218305D01*
X7179415Y-47221300D01*
X6789546Y-47221300D01*
X6789530Y-47221299D01*
X6784148Y-47221299D01*
X6677852Y-47221299D01*
X6596875Y-47242997D01*
X6575178Y-47248810D01*
X6483120Y-47301960D01*
X6407957Y-47377124D01*
X5876274Y-47908806D01*
X5821780Y-47934217D01*
X5780482Y-47927860D01*
X5734732Y-47908910D01*
X5734723Y-47908907D01*
X5585794Y-47879284D01*
X5536603Y-47869500D01*
X5334597Y-47869500D01*
X5290970Y-47878177D01*
X5136481Y-47908906D01*
X5136473Y-47908909D01*
X5041999Y-47948042D01*
X4949842Y-47986215D01*
X4949841Y-47986215D01*
X4781886Y-48098438D01*
X4639038Y-48241286D01*
X4526815Y-48409241D01*
X4526815Y-48409242D01*
X4526814Y-48409244D01*
X4503489Y-48465555D01*
X4449509Y-48595873D01*
X4449506Y-48595881D01*
X4410100Y-48793998D01*
X3223100Y-48793998D01*
X3223100Y-46253998D01*
X4410100Y-46253998D01*
X4410100Y-46456001D01*
X4449506Y-46654118D01*
X4449508Y-46654124D01*
X4449509Y-46654127D01*
X4526814Y-46840756D01*
X4526815Y-46840757D01*
X4526815Y-46840758D01*
X4639038Y-47008713D01*
X4639039Y-47008714D01*
X4639042Y-47008718D01*
X4781882Y-47151558D01*
X4781885Y-47151560D01*
X4781886Y-47151561D01*
X4855481Y-47200735D01*
X4949844Y-47263786D01*
X5136473Y-47341091D01*
X5136478Y-47341092D01*
X5136481Y-47341093D01*
X5236877Y-47361062D01*
X5334597Y-47380500D01*
X5334599Y-47380500D01*
X5536601Y-47380500D01*
X5536603Y-47380500D01*
X5666311Y-47354699D01*
X5734718Y-47341093D01*
X5734719Y-47341092D01*
X5734727Y-47341091D01*
X5921356Y-47263786D01*
X6089318Y-47151558D01*
X6232158Y-47008718D01*
X6344386Y-46840756D01*
X6421691Y-46654127D01*
X6461100Y-46456003D01*
X6461100Y-46253997D01*
X6448199Y-46189142D01*
X6421693Y-46055881D01*
X6421692Y-46055878D01*
X6421691Y-46055873D01*
X6344386Y-45869244D01*
X6232158Y-45701282D01*
X6089318Y-45558442D01*
X6089314Y-45558439D01*
X6089313Y-45558438D01*
X5921358Y-45446215D01*
X5921356Y-45446214D01*
X5734727Y-45368909D01*
X5734724Y-45368908D01*
X5734718Y-45368906D01*
X5585626Y-45339251D01*
X5536603Y-45329500D01*
X5334597Y-45329500D01*
X5290970Y-45338177D01*
X5136481Y-45368906D01*
X5136473Y-45368909D01*
X5039498Y-45409078D01*
X4949842Y-45446215D01*
X4949841Y-45446215D01*
X4781886Y-45558438D01*
X4639038Y-45701286D01*
X4526815Y-45869241D01*
X4526815Y-45869242D01*
X4526814Y-45869244D01*
X4492971Y-45950947D01*
X4449509Y-46055873D01*
X4449506Y-46055881D01*
X4410100Y-46253998D01*
X3223100Y-46253998D01*
X3223100Y-43713998D01*
X4410100Y-43713998D01*
X4410100Y-43916001D01*
X4449506Y-44114118D01*
X4449508Y-44114124D01*
X4449509Y-44114127D01*
X4526814Y-44300756D01*
X4526815Y-44300757D01*
X4526815Y-44300758D01*
X4639038Y-44468713D01*
X4639039Y-44468714D01*
X4639042Y-44468718D01*
X4781882Y-44611558D01*
X4949844Y-44723786D01*
X5136473Y-44801091D01*
X5136478Y-44801092D01*
X5136481Y-44801093D01*
X5236877Y-44821062D01*
X5334597Y-44840500D01*
X5334599Y-44840500D01*
X5536601Y-44840500D01*
X5536603Y-44840500D01*
X5666311Y-44814699D01*
X5734718Y-44801093D01*
X5734719Y-44801092D01*
X5734727Y-44801091D01*
X5921356Y-44723786D01*
X6089318Y-44611558D01*
X6232158Y-44468718D01*
X6344386Y-44300756D01*
X6421691Y-44114127D01*
X6461100Y-43916003D01*
X6461100Y-43713998D01*
X6950100Y-43713998D01*
X6950100Y-43916001D01*
X6989506Y-44114118D01*
X6989508Y-44114124D01*
X6989509Y-44114127D01*
X7066814Y-44300756D01*
X7066815Y-44300757D01*
X7066815Y-44300758D01*
X7179038Y-44468713D01*
X7179039Y-44468714D01*
X7179042Y-44468718D01*
X7321882Y-44611558D01*
X7489844Y-44723786D01*
X7676473Y-44801091D01*
X7676478Y-44801092D01*
X7676481Y-44801093D01*
X7776877Y-44821062D01*
X7874597Y-44840500D01*
X7874599Y-44840500D01*
X8076601Y-44840500D01*
X8076603Y-44840500D01*
X8206311Y-44814699D01*
X8274718Y-44801093D01*
X8274719Y-44801092D01*
X8274727Y-44801091D01*
X8461356Y-44723786D01*
X8629318Y-44611558D01*
X8772158Y-44468718D01*
X8884386Y-44300756D01*
X8961691Y-44114127D01*
X9001100Y-43916003D01*
X9001100Y-43713997D01*
X8961691Y-43515873D01*
X8884386Y-43329244D01*
X8772158Y-43161282D01*
X8629318Y-43018442D01*
X8629314Y-43018439D01*
X8629313Y-43018438D01*
X8461358Y-42906215D01*
X8461356Y-42906214D01*
X8274727Y-42828909D01*
X8274724Y-42828908D01*
X8274718Y-42828906D01*
X8125626Y-42799251D01*
X8076603Y-42789500D01*
X7874597Y-42789500D01*
X7830970Y-42798177D01*
X7676481Y-42828906D01*
X7676473Y-42828909D01*
X7489842Y-42906215D01*
X7489841Y-42906215D01*
X7321886Y-43018438D01*
X7179038Y-43161286D01*
X7066815Y-43329241D01*
X7066815Y-43329242D01*
X7066814Y-43329244D01*
X7006051Y-43475938D01*
X6989509Y-43515873D01*
X6989506Y-43515881D01*
X6950100Y-43713998D01*
X6461100Y-43713998D01*
X6461100Y-43713997D01*
X6421691Y-43515873D01*
X6344386Y-43329244D01*
X6232158Y-43161282D01*
X6089318Y-43018442D01*
X6089314Y-43018439D01*
X6089313Y-43018438D01*
X5921358Y-42906215D01*
X5921356Y-42906214D01*
X5734727Y-42828909D01*
X5734724Y-42828908D01*
X5734718Y-42828906D01*
X5585626Y-42799251D01*
X5536603Y-42789500D01*
X5334597Y-42789500D01*
X5290970Y-42798177D01*
X5136481Y-42828906D01*
X5136473Y-42828909D01*
X4949842Y-42906215D01*
X4949841Y-42906215D01*
X4781886Y-43018438D01*
X4639038Y-43161286D01*
X4526815Y-43329241D01*
X4526815Y-43329242D01*
X4526814Y-43329244D01*
X4466051Y-43475938D01*
X4449509Y-43515873D01*
X4449506Y-43515881D01*
X4410100Y-43713998D01*
X3223100Y-43713998D01*
X3223100Y-41176234D01*
X4432800Y-41176234D01*
X4432800Y-41373765D01*
X4471335Y-41567502D01*
X4471337Y-41567506D01*
X4546928Y-41750002D01*
X4546930Y-41750005D01*
X4571006Y-41786037D01*
X4571007Y-41786037D01*
X4911812Y-41445232D01*
X4923082Y-41487292D01*
X4995490Y-41612708D01*
X5097892Y-41715110D01*
X5223308Y-41787518D01*
X5265365Y-41798787D01*
X4924561Y-42139591D01*
X4960594Y-42163668D01*
X5143093Y-42239262D01*
X5143097Y-42239264D01*
X5336835Y-42277800D01*
X5534365Y-42277800D01*
X5728102Y-42239264D01*
X5728106Y-42239262D01*
X5910606Y-42163668D01*
X5946637Y-42139592D01*
X5605832Y-41798787D01*
X5647892Y-41787518D01*
X5773308Y-41715110D01*
X5875710Y-41612708D01*
X5948118Y-41487292D01*
X5959387Y-41445232D01*
X6300192Y-41786037D01*
X6324268Y-41750006D01*
X6399862Y-41567506D01*
X6399864Y-41567502D01*
X6438400Y-41373765D01*
X6438400Y-41176234D01*
X6972800Y-41176234D01*
X6972800Y-41373765D01*
X7011335Y-41567502D01*
X7011337Y-41567506D01*
X7086928Y-41750002D01*
X7086930Y-41750005D01*
X7111006Y-41786037D01*
X7111007Y-41786037D01*
X7451812Y-41445232D01*
X7463082Y-41487292D01*
X7535490Y-41612708D01*
X7637892Y-41715110D01*
X7763308Y-41787518D01*
X7805365Y-41798787D01*
X7464561Y-42139591D01*
X7500594Y-42163668D01*
X7683093Y-42239262D01*
X7683097Y-42239264D01*
X7876835Y-42277800D01*
X8074365Y-42277800D01*
X8268102Y-42239264D01*
X8268106Y-42239262D01*
X8450606Y-42163668D01*
X8486637Y-42139592D01*
X8145832Y-41798787D01*
X8187892Y-41787518D01*
X8313308Y-41715110D01*
X8415710Y-41612708D01*
X8488118Y-41487292D01*
X8499387Y-41445232D01*
X8840192Y-41786037D01*
X8864268Y-41750006D01*
X8939862Y-41567506D01*
X8939864Y-41567502D01*
X8978400Y-41373765D01*
X8978400Y-41176234D01*
X8939864Y-40982497D01*
X8939862Y-40982493D01*
X8864268Y-40799994D01*
X8840191Y-40763961D01*
X8499387Y-41104765D01*
X8488118Y-41062708D01*
X8415710Y-40937292D01*
X8313308Y-40834890D01*
X8187892Y-40762482D01*
X8145832Y-40751212D01*
X8486637Y-40410407D01*
X8486637Y-40410406D01*
X8450605Y-40386330D01*
X8450602Y-40386328D01*
X8268106Y-40310737D01*
X8268102Y-40310735D01*
X8074365Y-40272200D01*
X7876835Y-40272200D01*
X7683097Y-40310735D01*
X7683093Y-40310737D01*
X7500598Y-40386328D01*
X7464561Y-40410406D01*
X7805367Y-40751212D01*
X7763308Y-40762482D01*
X7637892Y-40834890D01*
X7535490Y-40937292D01*
X7463082Y-41062708D01*
X7451812Y-41104767D01*
X7111006Y-40763961D01*
X7086928Y-40799998D01*
X7011337Y-40982493D01*
X7011335Y-40982497D01*
X6972800Y-41176234D01*
X6438400Y-41176234D01*
X6399864Y-40982497D01*
X6399862Y-40982493D01*
X6324268Y-40799994D01*
X6300191Y-40763961D01*
X5959387Y-41104765D01*
X5948118Y-41062708D01*
X5875710Y-40937292D01*
X5773308Y-40834890D01*
X5647892Y-40762482D01*
X5605832Y-40751212D01*
X5946638Y-40410407D01*
X5946637Y-40410406D01*
X5910605Y-40386330D01*
X5910602Y-40386328D01*
X5728106Y-40310737D01*
X5728102Y-40310735D01*
X5534365Y-40272200D01*
X5336835Y-40272200D01*
X5143097Y-40310735D01*
X5143093Y-40310737D01*
X4960598Y-40386328D01*
X4924561Y-40410406D01*
X5265367Y-40751212D01*
X5223308Y-40762482D01*
X5097892Y-40834890D01*
X4995490Y-40937292D01*
X4923082Y-41062708D01*
X4911812Y-41104767D01*
X4571006Y-40763961D01*
X4546928Y-40799998D01*
X4471337Y-40982493D01*
X4471335Y-40982497D01*
X4432800Y-41176234D01*
X3223100Y-41176234D01*
X3223100Y-26314828D01*
X3243665Y-26258327D01*
X3248845Y-26252673D01*
X8523473Y-20978045D01*
X8577967Y-20952634D01*
X8585628Y-20952300D01*
X10148522Y-20952300D01*
X10205023Y-20972865D01*
X10210676Y-20978045D01*
X10282233Y-21049602D01*
X10282236Y-21049604D01*
X10387878Y-21120192D01*
X10505260Y-21168813D01*
X10505261Y-21168813D01*
X10505263Y-21168814D01*
X10567992Y-21181291D01*
X10629873Y-21193600D01*
X10629875Y-21193600D01*
X10756925Y-21193600D01*
X10756927Y-21193600D01*
X10839248Y-21177225D01*
X10881536Y-21168814D01*
X10881536Y-21168813D01*
X10881540Y-21168813D01*
X10998922Y-21120192D01*
X11104564Y-21049604D01*
X11194404Y-20959764D01*
X11264992Y-20854122D01*
X11313613Y-20736740D01*
X11338400Y-20612127D01*
X11338400Y-20485073D01*
X11313613Y-20360460D01*
X11264992Y-20243078D01*
X11194404Y-20137436D01*
X11104564Y-20047596D01*
X10998922Y-19977008D01*
X10998921Y-19977007D01*
X10998919Y-19977006D01*
X10881540Y-19928387D01*
X10881536Y-19928385D01*
X10787866Y-19909754D01*
X10756927Y-19903600D01*
X10629873Y-19903600D01*
X10602350Y-19909074D01*
X10505263Y-19928385D01*
X10505259Y-19928387D01*
X10387880Y-19977006D01*
X10282236Y-20047595D01*
X10282233Y-20047597D01*
X10210676Y-20119155D01*
X10156182Y-20144566D01*
X10148522Y-20144900D01*
X8328851Y-20144900D01*
X8226178Y-20172410D01*
X8134120Y-20225560D01*
X2496360Y-25863320D01*
X2443211Y-25955377D01*
X2443211Y-25955378D01*
X2415699Y-26058052D01*
X2415699Y-26171427D01*
X2415700Y-26171440D01*
X2415700Y-50081053D01*
X2415699Y-50081071D01*
X2415699Y-50086452D01*
X2415699Y-50192748D01*
X2435988Y-50268465D01*
X2443211Y-50295423D01*
X2496359Y-50387478D01*
X2496361Y-50387481D01*
X2571523Y-50462642D01*
X2571524Y-50462642D01*
X3791757Y-51682875D01*
X3791757Y-51682876D01*
X3866918Y-51758038D01*
X3866923Y-51758042D01*
X3958972Y-51811187D01*
X3958974Y-51811187D01*
X3958977Y-51811189D01*
X3980670Y-51817000D01*
X3980674Y-51817003D01*
X3980675Y-51817002D01*
X4061652Y-51838701D01*
X4061653Y-51838701D01*
X4173330Y-51838701D01*
X4173346Y-51838700D01*
X4434092Y-51838700D01*
X4490593Y-51859265D01*
X4515300Y-51892961D01*
X4526812Y-51920752D01*
X4526815Y-51920758D01*
X4639038Y-52088713D01*
X4639039Y-52088714D01*
X4639042Y-52088718D01*
X4676170Y-52125846D01*
X4701581Y-52180339D01*
X4686018Y-52238417D01*
X4636765Y-52272905D01*
X4614015Y-52275900D01*
X3734228Y-52275900D01*
X3677727Y-52255335D01*
X3672073Y-52250155D01*
X2232845Y-50810927D01*
X2207434Y-50756433D01*
X2207100Y-50748772D01*
X2207100Y-17424828D01*
X2227665Y-17368327D01*
X2232845Y-17362673D01*
X7913873Y-11681645D01*
X7968367Y-11656234D01*
X7976028Y-11655900D01*
X10097722Y-11655900D01*
X10154223Y-11676465D01*
X10159876Y-11681645D01*
X10231433Y-11753202D01*
X10231436Y-11753204D01*
X10337078Y-11823792D01*
X10454460Y-11872413D01*
X10454461Y-11872413D01*
X10454463Y-11872414D01*
X10517192Y-11884891D01*
X10579073Y-11897200D01*
X10579075Y-11897200D01*
X10706125Y-11897200D01*
X10706127Y-11897200D01*
X10788448Y-11880825D01*
X10830736Y-11872414D01*
X10830736Y-11872413D01*
X10830740Y-11872413D01*
X10948122Y-11823792D01*
X11053764Y-11753204D01*
X11143604Y-11663364D01*
X11214192Y-11557722D01*
X11262813Y-11440340D01*
X11287600Y-11315727D01*
X11287600Y-11188673D01*
X11262813Y-11064060D01*
X11214192Y-10946678D01*
X11143604Y-10841036D01*
X11053764Y-10751196D01*
X10948122Y-10680608D01*
X10948121Y-10680607D01*
X10948119Y-10680606D01*
X10830740Y-10631987D01*
X10830736Y-10631985D01*
X10737066Y-10613354D01*
X10706127Y-10607200D01*
X10579073Y-10607200D01*
X10551550Y-10612674D01*
X10454463Y-10631985D01*
X10454459Y-10631987D01*
X10337080Y-10680606D01*
X10231436Y-10751195D01*
X10231433Y-10751197D01*
X10159876Y-10822755D01*
X10105382Y-10848166D01*
X10097722Y-10848500D01*
X7830946Y-10848500D01*
X7830930Y-10848499D01*
X7825548Y-10848499D01*
X7719252Y-10848499D01*
X7638275Y-10870197D01*
X7616578Y-10876010D01*
X7524520Y-10929160D01*
X1480360Y-16973320D01*
X1480359Y-16973322D01*
X1427211Y-17065377D01*
X1427211Y-17065378D01*
X1399699Y-17168052D01*
X762500Y-17168052D01*
X762500Y-858000D01*
X783065Y-801499D01*
X835136Y-771435D01*
X850400Y-770100D01*
X8820344Y-770100D01*
X8876845Y-790665D01*
G37*
%TD.AperFunction*%
%TD*%
M02*
