%TF.GenerationSoftware,KiCad,Pcbnew,9.0.2*%
%TF.CreationDate,2025-07-04T16:10:04+10:00*%
%TF.ProjectId,v8_equip_dig_in_non_iso_IDC_pwr,76385f65-7175-4697-905f-6469675f696e,rev?*%
%TF.SameCoordinates,Original*%
%TF.FileFunction,Legend,Bot*%
%TF.FilePolarity,Positive*%
%FSLAX46Y46*%
G04 Gerber Fmt 4.6, Leading zero omitted, Abs format (unit mm)*
G04 Created by KiCad (PCBNEW 9.0.2) date 2025-07-04 16:10:04*
%MOMM*%
%LPD*%
G01*
G04 APERTURE LIST*
%ADD10C,0.066145*%
%ADD11C,0.053477*%
%ADD12C,0.127000*%
%ADD13C,0.203200*%
%ADD14C,0.100000*%
%ADD15R,1.700000X1.700000*%
%ADD16C,1.700000*%
%ADD17C,3.500000*%
%ADD18R,1.650000X1.650000*%
%ADD19C,1.650000*%
G04 APERTURE END LIST*
D10*
X28699669Y-4113377D02*
X28825574Y-4119676D01*
X28957313Y-4131119D01*
X29093919Y-4147854D01*
X29234425Y-4170033D01*
X29377862Y-4197806D01*
X29523264Y-4231321D01*
X29669662Y-4270731D01*
X29816090Y-4316184D01*
X29961580Y-4367831D01*
X30105164Y-4425822D01*
X30245875Y-4490306D01*
X30382745Y-4561435D01*
X30438905Y-4593708D01*
X30492112Y-4626305D01*
X30542551Y-4659184D01*
X30590407Y-4692305D01*
X30679109Y-4759104D01*
X30759693Y-4826368D01*
X30833637Y-4893763D01*
X30902417Y-4960957D01*
X31030394Y-5093409D01*
X31092545Y-5158001D01*
X31155440Y-5221058D01*
X31220555Y-5282249D01*
X31289368Y-5341240D01*
X31363356Y-5397698D01*
X31402752Y-5424873D01*
X31443995Y-5451290D01*
X31487270Y-5476906D01*
X31532762Y-5501682D01*
X31580656Y-5525574D01*
X31631135Y-5548542D01*
X31575614Y-5541401D01*
X31521628Y-5537691D01*
X31469174Y-5537266D01*
X31418249Y-5539985D01*
X31368848Y-5545704D01*
X31320968Y-5554279D01*
X31274605Y-5565568D01*
X31229755Y-5579427D01*
X31186416Y-5595713D01*
X31144583Y-5614283D01*
X31104252Y-5634993D01*
X31065420Y-5657701D01*
X31028083Y-5682263D01*
X30992238Y-5708535D01*
X30957880Y-5736376D01*
X30925007Y-5765641D01*
X30863699Y-5827871D01*
X30808283Y-5894080D01*
X30758731Y-5963123D01*
X30715014Y-6033853D01*
X30677101Y-6105125D01*
X30644963Y-6175793D01*
X30618572Y-6244711D01*
X30597898Y-6310733D01*
X30579554Y-6380304D01*
X30564080Y-6450281D01*
X30551706Y-6520603D01*
X30542663Y-6591206D01*
X30537182Y-6662029D01*
X30535495Y-6733010D01*
X30537831Y-6804085D01*
X30544422Y-6875194D01*
X30555499Y-6946273D01*
X30571292Y-7017261D01*
X30592032Y-7088095D01*
X30617951Y-7158712D01*
X30649280Y-7229052D01*
X30686248Y-7299051D01*
X30729087Y-7368647D01*
X30778028Y-7437778D01*
X30760360Y-7477317D01*
X30742230Y-7513840D01*
X30723881Y-7547903D01*
X30705553Y-7580063D01*
X30669932Y-7640898D01*
X30653122Y-7670686D01*
X30637301Y-7700796D01*
X30622712Y-7731785D01*
X30609596Y-7764209D01*
X30603666Y-7781132D01*
X30598195Y-7798624D01*
X30593213Y-7816752D01*
X30588751Y-7835587D01*
X30584839Y-7855197D01*
X30581506Y-7875654D01*
X30578784Y-7897025D01*
X30576702Y-7919382D01*
X30575290Y-7942792D01*
X30574580Y-7967327D01*
X30574600Y-7993055D01*
X30575382Y-8020045D01*
X30514645Y-8025964D01*
X30460065Y-8030358D01*
X30408886Y-8032878D01*
X30383710Y-8033325D01*
X30358351Y-8033171D01*
X30332465Y-8032372D01*
X30305706Y-8030885D01*
X30277731Y-8028666D01*
X30248194Y-8025670D01*
X30216752Y-8021854D01*
X30183060Y-8017174D01*
X30107547Y-8005046D01*
X30098008Y-7977772D01*
X30087728Y-7951204D01*
X30065212Y-7899960D01*
X30040526Y-7850870D01*
X30014199Y-7803485D01*
X29986757Y-7757360D01*
X29958729Y-7712047D01*
X29903026Y-7622074D01*
X29876405Y-7576520D01*
X29851309Y-7529993D01*
X29828266Y-7482045D01*
X29807802Y-7432230D01*
X29798703Y-7406483D01*
X29790446Y-7380102D01*
X29783098Y-7353031D01*
X29776726Y-7325214D01*
X29771393Y-7296595D01*
X29767168Y-7267119D01*
X29764116Y-7236730D01*
X29762302Y-7205371D01*
X29719688Y-7186594D01*
X29665900Y-7167148D01*
X29602254Y-7147533D01*
X29530065Y-7128251D01*
X29450650Y-7109805D01*
X29365323Y-7092694D01*
X29275401Y-7077421D01*
X29182199Y-7064488D01*
X29087033Y-7054395D01*
X28991218Y-7047644D01*
X28896070Y-7044737D01*
X28802905Y-7046176D01*
X28713038Y-7052461D01*
X28627784Y-7064094D01*
X28548460Y-7081577D01*
X28511433Y-7092669D01*
X28476382Y-7105411D01*
X28476384Y-7105418D01*
X28453813Y-7177547D01*
X28427868Y-7245983D01*
X28399276Y-7310896D01*
X28368768Y-7372460D01*
X28337073Y-7430847D01*
X28304920Y-7486228D01*
X28242155Y-7588662D01*
X28186310Y-7681139D01*
X28162805Y-7724074D01*
X28143218Y-7765036D01*
X28128277Y-7804196D01*
X28122777Y-7823155D01*
X28118713Y-7841728D01*
X28116174Y-7859937D01*
X28115254Y-7877803D01*
X28116041Y-7895348D01*
X28118629Y-7912593D01*
X28016682Y-7940551D01*
X27962952Y-7954061D01*
X27934732Y-7960186D01*
X27905353Y-7965696D01*
X27874625Y-7970445D01*
X27842358Y-7974286D01*
X27808362Y-7977072D01*
X27772445Y-7978658D01*
X27734418Y-7978896D01*
X27694089Y-7977641D01*
X27651268Y-7974746D01*
X27605764Y-7970065D01*
X27604480Y-7958069D01*
X27602087Y-7945522D01*
X27598662Y-7932443D01*
X27594283Y-7918851D01*
X27582975Y-7890211D01*
X27568787Y-7859759D01*
X27552341Y-7827653D01*
X27534260Y-7794049D01*
X27495687Y-7722979D01*
X27476441Y-7685827D01*
X27458052Y-7647808D01*
X27441144Y-7609079D01*
X27426339Y-7569797D01*
X27419921Y-7549998D01*
X27414261Y-7530119D01*
X27409439Y-7510182D01*
X27405533Y-7490204D01*
X27402619Y-7470206D01*
X27400777Y-7450208D01*
X27400083Y-7430229D01*
X27400616Y-7410289D01*
X27363239Y-7414909D01*
X27327816Y-7418435D01*
X27294012Y-7420826D01*
X27261494Y-7422043D01*
X27229930Y-7422044D01*
X27198984Y-7420789D01*
X27168324Y-7418239D01*
X27137617Y-7414352D01*
X27106528Y-7409090D01*
X27074725Y-7402410D01*
X27041874Y-7394273D01*
X27007641Y-7384639D01*
X26971693Y-7373468D01*
X26933697Y-7360719D01*
X26893318Y-7346351D01*
X26850224Y-7330325D01*
X26819901Y-7317263D01*
X26789060Y-7301558D01*
X26757828Y-7283288D01*
X26726332Y-7262536D01*
X26694698Y-7239380D01*
X26663054Y-7213902D01*
X26631526Y-7186180D01*
X26600241Y-7156295D01*
X26569327Y-7124327D01*
X26538909Y-7090356D01*
X26509116Y-7054463D01*
X26480073Y-7016727D01*
X26451908Y-6977228D01*
X26424747Y-6936047D01*
X26398718Y-6893263D01*
X26373947Y-6848957D01*
X26350562Y-6803209D01*
X26328689Y-6756098D01*
X26308454Y-6707706D01*
X26289986Y-6658111D01*
X26273411Y-6607394D01*
X26258855Y-6555636D01*
X26246446Y-6502915D01*
X26236310Y-6449313D01*
X26228575Y-6394909D01*
X26223367Y-6339784D01*
X26220813Y-6284017D01*
X26221041Y-6227689D01*
X26224176Y-6170879D01*
X26230346Y-6113668D01*
X26239678Y-6056136D01*
X26252299Y-5998363D01*
X26288578Y-5863956D01*
X26332385Y-5725874D01*
X26384680Y-5585420D01*
X26446422Y-5443897D01*
X26518572Y-5302608D01*
X26602089Y-5162857D01*
X26697935Y-5025947D01*
X26750781Y-4958964D01*
X26807069Y-4893180D01*
X26866920Y-4828758D01*
X26930452Y-4765861D01*
X26997787Y-4704651D01*
X27069043Y-4645292D01*
X27144342Y-4587946D01*
X27223803Y-4532776D01*
X27307547Y-4479945D01*
X27395692Y-4429616D01*
X27488360Y-4381953D01*
X27585670Y-4337117D01*
X27687743Y-4295272D01*
X27794697Y-4256580D01*
X27906655Y-4221205D01*
X28023734Y-4189309D01*
X28146056Y-4161056D01*
X28273740Y-4136608D01*
X28366633Y-4123836D01*
X28469231Y-4115607D01*
X28580565Y-4112070D01*
X28699669Y-4113377D01*
X28121968Y-7928987D02*
X28131028Y-7942582D01*
X28151171Y-7968933D01*
X28173807Y-7994289D01*
X28198686Y-8018795D01*
X28225558Y-8042599D01*
X28254175Y-8065846D01*
X28284287Y-8088683D01*
X28315645Y-8111257D01*
X28448552Y-8201844D01*
X28516003Y-8249364D01*
X28549106Y-8274193D01*
X28581460Y-8299930D01*
X28596990Y-8313379D01*
X28612142Y-8327896D01*
X28626908Y-8343394D01*
X28641278Y-8359783D01*
X28668786Y-8394885D01*
X28694586Y-8432493D01*
X28718598Y-8471903D01*
X28740741Y-8512408D01*
X28760934Y-8553301D01*
X28779097Y-8593875D01*
X28795150Y-8633424D01*
X28809011Y-8671242D01*
X28820600Y-8706622D01*
X28829836Y-8738857D01*
X28836640Y-8767241D01*
X28840930Y-8791068D01*
X28842625Y-8809631D01*
X28842475Y-8816717D01*
X28841646Y-8822223D01*
X28839473Y-8826491D01*
X28836725Y-8829958D01*
X28833427Y-8832668D01*
X28829606Y-8834669D01*
X28825286Y-8836007D01*
X28820493Y-8836729D01*
X28815253Y-8836882D01*
X28809591Y-8836513D01*
X28797107Y-8834393D01*
X28783244Y-8830742D01*
X28768209Y-8825935D01*
X28752207Y-8820345D01*
X28718120Y-8808308D01*
X28700446Y-8802608D01*
X28682626Y-8797618D01*
X28664864Y-8793712D01*
X28647367Y-8791264D01*
X28638781Y-8790703D01*
X28630338Y-8790646D01*
X28622064Y-8791140D01*
X28613984Y-8792232D01*
X28606363Y-8794309D01*
X28599430Y-8797227D01*
X28593152Y-8800930D01*
X28587500Y-8805366D01*
X28582441Y-8810481D01*
X28577944Y-8816222D01*
X28573979Y-8822534D01*
X28570514Y-8829365D01*
X28567518Y-8836661D01*
X28564960Y-8844369D01*
X28562809Y-8852434D01*
X28561034Y-8860803D01*
X28558485Y-8878240D01*
X28557065Y-8896253D01*
X28556524Y-8914411D01*
X28556614Y-8932288D01*
X28557689Y-8965483D01*
X28558296Y-8992411D01*
X28557801Y-9002455D01*
X28556441Y-9009646D01*
X28553964Y-9011296D01*
X28551228Y-9012064D01*
X28548238Y-9012006D01*
X28544997Y-9011179D01*
X28541511Y-9009638D01*
X28537784Y-9007439D01*
X28529625Y-9001291D01*
X28520557Y-8993180D01*
X28510617Y-8983554D01*
X28488267Y-8961542D01*
X28475931Y-8950049D01*
X28462869Y-8938827D01*
X28449118Y-8928323D01*
X28441995Y-8923479D01*
X28434714Y-8918982D01*
X28427279Y-8914888D01*
X28419695Y-8911253D01*
X28411966Y-8908131D01*
X28404097Y-8905580D01*
X28396092Y-8903655D01*
X28387957Y-8902412D01*
X28379695Y-8901906D01*
X28371311Y-8902194D01*
X28362886Y-8903569D01*
X28354954Y-8905783D01*
X28347494Y-8908781D01*
X28340488Y-8912509D01*
X28333913Y-8916912D01*
X28327751Y-8921936D01*
X28321981Y-8927526D01*
X28316584Y-8933628D01*
X28311538Y-8940188D01*
X28306823Y-8947151D01*
X28302420Y-8954463D01*
X28298309Y-8962069D01*
X28290879Y-8977945D01*
X28284373Y-8994345D01*
X28278629Y-9010832D01*
X28273487Y-9026972D01*
X28264359Y-9056467D01*
X28260052Y-9068951D01*
X28255701Y-9079345D01*
X28253458Y-9083622D01*
X28251144Y-9087213D01*
X28248738Y-9090064D01*
X28246221Y-9092120D01*
X28242607Y-9093938D01*
X28238799Y-9094303D01*
X28234793Y-9093316D01*
X28230585Y-9091076D01*
X28226172Y-9087682D01*
X28221550Y-9083236D01*
X28211665Y-9071581D01*
X28163036Y-9002781D01*
X28148461Y-8984025D01*
X28132859Y-8966243D01*
X28124664Y-8957966D01*
X28116201Y-8950232D01*
X28107468Y-8943141D01*
X28098459Y-8936791D01*
X28089172Y-8931284D01*
X28079603Y-8926718D01*
X28069748Y-8923194D01*
X28059603Y-8920811D01*
X28049166Y-8919669D01*
X28038431Y-8919867D01*
X28027396Y-8921506D01*
X28016057Y-8924685D01*
X28005088Y-8929068D01*
X27994684Y-8934208D01*
X27984822Y-8940045D01*
X27975481Y-8946517D01*
X27966638Y-8953562D01*
X27958272Y-8961117D01*
X27950360Y-8969123D01*
X27942880Y-8977515D01*
X27935811Y-8986234D01*
X27929130Y-8995217D01*
X27916846Y-9013727D01*
X27905851Y-9032552D01*
X27895971Y-9051198D01*
X27878850Y-9085975D01*
X27871256Y-9101117D01*
X27864074Y-9114103D01*
X27860581Y-9119633D01*
X27857125Y-9124439D01*
X27853684Y-9128458D01*
X27850236Y-9131630D01*
X27846758Y-9133891D01*
X27843229Y-9135182D01*
X27839627Y-9135439D01*
X27835929Y-9134601D01*
X27815756Y-9123805D01*
X27796952Y-9108916D01*
X27779462Y-9090175D01*
X27763233Y-9067824D01*
X27748212Y-9042103D01*
X27734345Y-9013254D01*
X27709859Y-8947134D01*
X27689346Y-8871395D01*
X27672376Y-8787965D01*
X27658522Y-8698773D01*
X27647354Y-8605748D01*
X27631362Y-8415918D01*
X27620969Y-8233906D01*
X27612746Y-8075147D01*
X27603262Y-7955073D01*
X27640545Y-7957534D01*
X27677317Y-7959300D01*
X27713532Y-7960377D01*
X27749146Y-7960773D01*
X27784114Y-7960496D01*
X27818394Y-7959553D01*
X27851941Y-7957951D01*
X27884711Y-7955697D01*
X27916661Y-7952799D01*
X27947745Y-7949264D01*
X27977920Y-7945100D01*
X28007143Y-7940313D01*
X28035369Y-7934911D01*
X28062554Y-7928901D01*
X28088654Y-7922291D01*
X28113625Y-7915088D01*
X28121968Y-7928987D01*
D11*
X28998208Y-7045594D02*
X29094016Y-7052347D01*
X29189174Y-7062443D01*
X29282369Y-7075379D01*
X29372284Y-7090655D01*
X29457603Y-7107768D01*
X29537012Y-7126217D01*
X29609196Y-7145501D01*
X29672838Y-7165117D01*
X29726623Y-7184565D01*
X29769236Y-7203342D01*
X29771050Y-7234701D01*
X29774103Y-7265090D01*
X29778330Y-7294565D01*
X29783663Y-7323182D01*
X29790038Y-7350997D01*
X29797388Y-7378066D01*
X29805647Y-7404444D01*
X29814749Y-7430187D01*
X29835219Y-7479994D01*
X29858269Y-7527933D01*
X29883372Y-7574451D01*
X29910000Y-7619994D01*
X29965719Y-7709947D01*
X29993753Y-7755250D01*
X30021200Y-7801367D01*
X30047532Y-7848744D01*
X30072221Y-7897829D01*
X30094739Y-7949069D01*
X30105019Y-7975636D01*
X30114558Y-8002910D01*
X30115364Y-8003074D01*
X30116106Y-8003204D01*
X30116803Y-8003311D01*
X30117478Y-8003407D01*
X30118152Y-8003502D01*
X30118845Y-8003610D01*
X30119580Y-8003742D01*
X30120376Y-8003909D01*
X30127644Y-8048442D01*
X30132600Y-8094117D01*
X30135490Y-8140673D01*
X30136559Y-8187851D01*
X30136055Y-8235390D01*
X30134222Y-8283030D01*
X30127557Y-8377573D01*
X30109119Y-8556422D01*
X30101283Y-8636564D01*
X30098572Y-8673404D01*
X30096994Y-8707744D01*
X30097041Y-8741847D01*
X30098072Y-8778156D01*
X30100013Y-8816062D01*
X30102792Y-8854957D01*
X30106334Y-8894234D01*
X30110565Y-8933284D01*
X30115413Y-8971499D01*
X30120803Y-9008273D01*
X30126663Y-9042997D01*
X30132918Y-9075063D01*
X30139495Y-9103863D01*
X30146320Y-9128790D01*
X30153320Y-9149236D01*
X30160421Y-9164593D01*
X30163986Y-9170173D01*
X30167550Y-9174253D01*
X30171101Y-9176756D01*
X30174632Y-9177608D01*
X30179033Y-9178414D01*
X30183333Y-9178522D01*
X30187549Y-9177979D01*
X30191698Y-9176834D01*
X30195798Y-9175134D01*
X30199865Y-9172928D01*
X30203915Y-9170263D01*
X30207967Y-9167188D01*
X30216143Y-9160000D01*
X30224526Y-9151746D01*
X30242460Y-9133581D01*
X30252283Y-9124438D01*
X30257468Y-9120020D01*
X30262857Y-9115768D01*
X30268469Y-9111730D01*
X30274319Y-9107954D01*
X30280425Y-9104488D01*
X30286803Y-9101380D01*
X30293472Y-9098679D01*
X30300447Y-9096432D01*
X30307745Y-9094687D01*
X30315385Y-9093493D01*
X30323382Y-9092897D01*
X30331753Y-9092947D01*
X30340516Y-9093692D01*
X30349688Y-9095180D01*
X30359181Y-9097320D01*
X30368437Y-9099969D01*
X30377464Y-9103095D01*
X30386274Y-9106666D01*
X30394877Y-9110648D01*
X30403284Y-9115010D01*
X30411505Y-9119718D01*
X30419550Y-9124741D01*
X30427431Y-9130046D01*
X30435158Y-9135600D01*
X30450190Y-9147326D01*
X30464731Y-9159660D01*
X30478866Y-9172341D01*
X30506252Y-9197708D01*
X30519671Y-9209873D01*
X30533020Y-9221346D01*
X30546384Y-9231868D01*
X30553097Y-9236690D01*
X30559845Y-9241178D01*
X30566639Y-9245297D01*
X30573489Y-9249016D01*
X30580406Y-9252302D01*
X30587400Y-9255122D01*
X30593661Y-9253952D01*
X30599342Y-9251886D01*
X30604494Y-9248979D01*
X30609169Y-9245287D01*
X30613417Y-9240866D01*
X30617288Y-9235772D01*
X30620834Y-9230061D01*
X30624106Y-9223789D01*
X30630029Y-9209783D01*
X30635465Y-9194203D01*
X30646501Y-9160106D01*
X30652915Y-9142482D01*
X30660469Y-9125071D01*
X30664800Y-9116585D01*
X30669569Y-9108320D01*
X30674827Y-9100331D01*
X30680623Y-9092675D01*
X30687010Y-9085407D01*
X30694037Y-9078583D01*
X30701756Y-9072259D01*
X30710218Y-9066492D01*
X30719474Y-9061336D01*
X30729573Y-9056848D01*
X30740568Y-9053083D01*
X30752509Y-9050097D01*
X30759165Y-9049298D01*
X30766440Y-9049211D01*
X30774291Y-9049785D01*
X30782678Y-9050971D01*
X30800896Y-9054979D01*
X30820763Y-9060835D01*
X30841949Y-9068142D01*
X30864124Y-9076499D01*
X30910124Y-9094769D01*
X30956123Y-9112452D01*
X30978298Y-9120076D01*
X30999483Y-9126357D01*
X31019349Y-9130895D01*
X31028684Y-9132385D01*
X31037565Y-9133291D01*
X31045952Y-9133561D01*
X31053803Y-9133146D01*
X31061077Y-9131996D01*
X31067732Y-9130061D01*
X31071085Y-9128315D01*
X31073680Y-9125903D01*
X31075580Y-9122846D01*
X31076848Y-9119165D01*
X31077548Y-9114883D01*
X31077743Y-9110020D01*
X31076870Y-9098638D01*
X31065821Y-9034191D01*
X31063700Y-9014209D01*
X31062847Y-8993021D01*
X31063768Y-8970802D01*
X31065052Y-8959358D01*
X31066969Y-8947721D01*
X31069583Y-8935912D01*
X31072956Y-8923952D01*
X31077153Y-8911863D01*
X31082236Y-8899666D01*
X31088268Y-8887383D01*
X31095313Y-8875035D01*
X31103435Y-8862643D01*
X31112695Y-8850230D01*
X31116083Y-8846273D01*
X31119536Y-8842532D01*
X31123051Y-8839002D01*
X31126625Y-8835676D01*
X31130254Y-8832550D01*
X31133936Y-8829616D01*
X31141446Y-8824305D01*
X31149130Y-8819696D01*
X31156964Y-8815742D01*
X31164922Y-8812397D01*
X31172982Y-8809612D01*
X31181117Y-8807342D01*
X31189304Y-8805539D01*
X31197518Y-8804157D01*
X31205735Y-8803149D01*
X31213930Y-8802467D01*
X31222079Y-8802065D01*
X31230158Y-8801896D01*
X31238141Y-8801913D01*
X31141632Y-9002154D01*
X30850822Y-9599277D01*
X27319952Y-9600413D01*
X27216771Y-9404684D01*
X27164898Y-9298000D01*
X27139521Y-9240889D01*
X27114757Y-9180668D01*
X27090786Y-9116891D01*
X27067788Y-9049111D01*
X27045943Y-8976880D01*
X27025431Y-8899753D01*
X27006431Y-8817281D01*
X26989125Y-8729017D01*
X26973691Y-8634515D01*
X26960310Y-8533328D01*
X26955117Y-8481000D01*
X26951762Y-8428764D01*
X26950135Y-8376723D01*
X26950125Y-8324979D01*
X26951623Y-8273636D01*
X26954519Y-8222796D01*
X26958704Y-8172563D01*
X26964069Y-8123039D01*
X26977896Y-8026531D01*
X26995124Y-7934096D01*
X27014875Y-7846556D01*
X27036271Y-7764735D01*
X27058436Y-7689457D01*
X27080493Y-7621544D01*
X27101562Y-7561821D01*
X27120769Y-7511110D01*
X27150081Y-7440019D01*
X27161412Y-7414859D01*
X27190952Y-7418379D01*
X27219670Y-7420495D01*
X27248154Y-7421289D01*
X27276992Y-7420840D01*
X27306770Y-7419230D01*
X27338077Y-7416539D01*
X27371499Y-7412848D01*
X27407625Y-7408236D01*
X27407085Y-7427677D01*
X27407706Y-7447151D01*
X27409416Y-7466642D01*
X27412144Y-7486129D01*
X27415817Y-7505597D01*
X27420364Y-7525026D01*
X27425713Y-7544399D01*
X27431793Y-7563698D01*
X27445858Y-7602001D01*
X27461984Y-7639791D01*
X27479598Y-7676924D01*
X27498127Y-7713257D01*
X27569918Y-7847699D01*
X27584416Y-7877868D01*
X27596387Y-7906373D01*
X27605258Y-7933069D01*
X27608351Y-7945694D01*
X27610454Y-7957812D01*
X27619808Y-8078788D01*
X27628022Y-8237556D01*
X27638481Y-8418916D01*
X27654569Y-8607667D01*
X27665780Y-8700063D01*
X27679667Y-8788606D01*
X27696653Y-8871396D01*
X27717160Y-8946532D01*
X27728867Y-8980637D01*
X27741613Y-9012115D01*
X27755450Y-9040730D01*
X27770432Y-9066244D01*
X27786612Y-9088420D01*
X27804043Y-9107020D01*
X27822776Y-9121806D01*
X27842866Y-9132541D01*
X27846564Y-9133379D01*
X27850167Y-9133122D01*
X27853697Y-9131831D01*
X27857176Y-9129569D01*
X27860627Y-9126397D01*
X27864070Y-9122377D01*
X27871025Y-9112040D01*
X27878214Y-9099052D01*
X27885816Y-9083907D01*
X27902955Y-9049127D01*
X27912844Y-9030479D01*
X27923846Y-9011651D01*
X27936138Y-8993139D01*
X27942823Y-8984156D01*
X27949895Y-8975436D01*
X27957378Y-8967043D01*
X27965293Y-8959037D01*
X27973662Y-8951480D01*
X27982507Y-8944435D01*
X27991850Y-8937963D01*
X28001713Y-8932126D01*
X28012118Y-8926985D01*
X28023086Y-8922603D01*
X28034425Y-8919423D01*
X28045460Y-8917784D01*
X28056193Y-8917586D01*
X28066630Y-8918728D01*
X28076773Y-8921111D01*
X28086626Y-8924635D01*
X28096193Y-8929201D01*
X28105477Y-8934708D01*
X28114483Y-8941058D01*
X28123214Y-8948149D01*
X28131673Y-8955883D01*
X28139865Y-8964160D01*
X28155460Y-8981942D01*
X28170029Y-9000698D01*
X28218633Y-9069499D01*
X28228513Y-9081153D01*
X28233133Y-9085600D01*
X28237545Y-9088993D01*
X28241751Y-9091233D01*
X28245756Y-9092220D01*
X28249564Y-9091855D01*
X28253178Y-9090037D01*
X28255695Y-9087982D01*
X28258100Y-9085132D01*
X28260414Y-9081541D01*
X28262656Y-9077265D01*
X28267005Y-9066873D01*
X28271310Y-9054391D01*
X28280433Y-9024900D01*
X28285573Y-9008762D01*
X28291313Y-8992276D01*
X28297816Y-8975878D01*
X28305243Y-8960003D01*
X28309353Y-8952398D01*
X28313755Y-8945088D01*
X28318468Y-8938125D01*
X28323513Y-8931566D01*
X28328909Y-8925464D01*
X28334678Y-8919874D01*
X28340839Y-8914851D01*
X28347412Y-8910448D01*
X28354418Y-8906721D01*
X28361877Y-8903723D01*
X28369809Y-8901509D01*
X28378233Y-8900134D01*
X28386617Y-8899846D01*
X28394879Y-8900352D01*
X28403015Y-8901596D01*
X28411019Y-8903522D01*
X28418888Y-8906074D01*
X28426617Y-8909196D01*
X28434202Y-8912833D01*
X28441636Y-8916928D01*
X28448917Y-8921426D01*
X28456040Y-8926271D01*
X28462999Y-8931408D01*
X28469791Y-8936779D01*
X28482854Y-8948004D01*
X28495190Y-8959500D01*
X28517540Y-8981519D01*
X28527480Y-8991147D01*
X28536548Y-8999260D01*
X28540743Y-9002608D01*
X28544707Y-9005410D01*
X28548434Y-9007609D01*
X28551920Y-9009151D01*
X28555160Y-9009978D01*
X28558151Y-9010035D01*
X28560886Y-9009267D01*
X28563363Y-9007617D01*
X28564167Y-9004404D01*
X28564724Y-9000425D01*
X28565222Y-8990381D01*
X28564624Y-8963452D01*
X28563562Y-8930256D01*
X28563479Y-8912378D01*
X28564026Y-8894218D01*
X28565453Y-8876205D01*
X28568009Y-8858767D01*
X28569787Y-8850397D01*
X28571942Y-8842331D01*
X28574502Y-8834623D01*
X28577501Y-8827326D01*
X28580968Y-8820495D01*
X28584936Y-8814181D01*
X28589434Y-8808440D01*
X28594495Y-8803324D01*
X28600149Y-8798888D01*
X28606427Y-8795183D01*
X28613361Y-8792265D01*
X28620982Y-8790187D01*
X28629062Y-8789096D01*
X28637336Y-8788602D01*
X28645778Y-8788659D01*
X28654363Y-8789221D01*
X28663066Y-8790239D01*
X28671860Y-8791669D01*
X28680720Y-8793463D01*
X28689620Y-8795574D01*
X28707438Y-8800563D01*
X28725110Y-8806262D01*
X28759193Y-8818295D01*
X28775193Y-8823884D01*
X28790226Y-8828689D01*
X28804086Y-8832338D01*
X28810513Y-8833612D01*
X28816569Y-8834456D01*
X28822230Y-8834825D01*
X28827469Y-8834671D01*
X28832261Y-8833948D01*
X28836581Y-8832610D01*
X28840402Y-8830608D01*
X28843699Y-8827898D01*
X28846447Y-8824432D01*
X28848619Y-8820163D01*
X28849598Y-8807570D01*
X28847903Y-8789007D01*
X28843613Y-8765179D01*
X28836809Y-8736793D01*
X28827572Y-8704556D01*
X28815982Y-8669174D01*
X28802121Y-8631354D01*
X28786068Y-8591803D01*
X28767904Y-8551226D01*
X28747710Y-8510331D01*
X28725566Y-8469823D01*
X28701554Y-8430411D01*
X28675753Y-8392800D01*
X28648244Y-8357696D01*
X28619109Y-8325807D01*
X28603956Y-8311289D01*
X28588426Y-8297839D01*
X28556073Y-8272103D01*
X28522972Y-8247274D01*
X28489373Y-8223206D01*
X28455526Y-8199753D01*
X28322630Y-8109158D01*
X28291275Y-8086583D01*
X28261166Y-8063744D01*
X28232552Y-8040495D01*
X28205682Y-8016690D01*
X28180805Y-7992183D01*
X28158170Y-7966826D01*
X28147771Y-7953784D01*
X28138026Y-7940475D01*
X28128967Y-7926880D01*
X28120623Y-7912982D01*
X28117177Y-7913967D01*
X28113586Y-7914875D01*
X28109892Y-7915729D01*
X28106135Y-7916552D01*
X28098598Y-7918187D01*
X28094900Y-7919043D01*
X28091303Y-7919955D01*
X28108472Y-7915181D01*
X28117092Y-7912812D01*
X28125667Y-7910533D01*
X28123079Y-7893288D01*
X28122291Y-7875744D01*
X28123211Y-7857878D01*
X28125749Y-7839670D01*
X28129812Y-7821097D01*
X28135311Y-7802138D01*
X28150250Y-7762978D01*
X28169835Y-7722016D01*
X28193338Y-7679080D01*
X28249178Y-7586601D01*
X28311938Y-7484165D01*
X28344090Y-7428783D01*
X28375784Y-7370395D01*
X28406291Y-7308830D01*
X28434881Y-7243916D01*
X28460826Y-7175480D01*
X28483397Y-7103351D01*
X28518448Y-7090609D01*
X28555475Y-7079517D01*
X28634796Y-7062035D01*
X28720045Y-7050403D01*
X28809907Y-7044120D01*
X28903067Y-7042684D01*
X28998208Y-7045594D01*
G36*
X28998208Y-7045594D02*
G01*
X29094016Y-7052347D01*
X29189174Y-7062443D01*
X29282369Y-7075379D01*
X29372284Y-7090655D01*
X29457603Y-7107768D01*
X29537012Y-7126217D01*
X29609196Y-7145501D01*
X29672838Y-7165117D01*
X29726623Y-7184565D01*
X29769236Y-7203342D01*
X29771050Y-7234701D01*
X29774103Y-7265090D01*
X29778330Y-7294565D01*
X29783663Y-7323182D01*
X29790038Y-7350997D01*
X29797388Y-7378066D01*
X29805647Y-7404444D01*
X29814749Y-7430187D01*
X29835219Y-7479994D01*
X29858269Y-7527933D01*
X29883372Y-7574451D01*
X29910000Y-7619994D01*
X29965719Y-7709947D01*
X29993753Y-7755250D01*
X30021200Y-7801367D01*
X30047532Y-7848744D01*
X30072221Y-7897829D01*
X30094739Y-7949069D01*
X30105019Y-7975636D01*
X30114558Y-8002910D01*
X30115364Y-8003074D01*
X30116106Y-8003204D01*
X30116803Y-8003311D01*
X30117478Y-8003407D01*
X30118152Y-8003502D01*
X30118845Y-8003610D01*
X30119580Y-8003742D01*
X30120376Y-8003909D01*
X30127644Y-8048442D01*
X30132600Y-8094117D01*
X30135490Y-8140673D01*
X30136559Y-8187851D01*
X30136055Y-8235390D01*
X30134222Y-8283030D01*
X30127557Y-8377573D01*
X30109119Y-8556422D01*
X30101283Y-8636564D01*
X30098572Y-8673404D01*
X30096994Y-8707744D01*
X30097041Y-8741847D01*
X30098072Y-8778156D01*
X30100013Y-8816062D01*
X30102792Y-8854957D01*
X30106334Y-8894234D01*
X30110565Y-8933284D01*
X30115413Y-8971499D01*
X30120803Y-9008273D01*
X30126663Y-9042997D01*
X30132918Y-9075063D01*
X30139495Y-9103863D01*
X30146320Y-9128790D01*
X30153320Y-9149236D01*
X30160421Y-9164593D01*
X30163986Y-9170173D01*
X30167550Y-9174253D01*
X30171101Y-9176756D01*
X30174632Y-9177608D01*
X30179033Y-9178414D01*
X30183333Y-9178522D01*
X30187549Y-9177979D01*
X30191698Y-9176834D01*
X30195798Y-9175134D01*
X30199865Y-9172928D01*
X30203915Y-9170263D01*
X30207967Y-9167188D01*
X30216143Y-9160000D01*
X30224526Y-9151746D01*
X30242460Y-9133581D01*
X30252283Y-9124438D01*
X30257468Y-9120020D01*
X30262857Y-9115768D01*
X30268469Y-9111730D01*
X30274319Y-9107954D01*
X30280425Y-9104488D01*
X30286803Y-9101380D01*
X30293472Y-9098679D01*
X30300447Y-9096432D01*
X30307745Y-9094687D01*
X30315385Y-9093493D01*
X30323382Y-9092897D01*
X30331753Y-9092947D01*
X30340516Y-9093692D01*
X30349688Y-9095180D01*
X30359181Y-9097320D01*
X30368437Y-9099969D01*
X30377464Y-9103095D01*
X30386274Y-9106666D01*
X30394877Y-9110648D01*
X30403284Y-9115010D01*
X30411505Y-9119718D01*
X30419550Y-9124741D01*
X30427431Y-9130046D01*
X30435158Y-9135600D01*
X30450190Y-9147326D01*
X30464731Y-9159660D01*
X30478866Y-9172341D01*
X30506252Y-9197708D01*
X30519671Y-9209873D01*
X30533020Y-9221346D01*
X30546384Y-9231868D01*
X30553097Y-9236690D01*
X30559845Y-9241178D01*
X30566639Y-9245297D01*
X30573489Y-9249016D01*
X30580406Y-9252302D01*
X30587400Y-9255122D01*
X30593661Y-9253952D01*
X30599342Y-9251886D01*
X30604494Y-9248979D01*
X30609169Y-9245287D01*
X30613417Y-9240866D01*
X30617288Y-9235772D01*
X30620834Y-9230061D01*
X30624106Y-9223789D01*
X30630029Y-9209783D01*
X30635465Y-9194203D01*
X30646501Y-9160106D01*
X30652915Y-9142482D01*
X30660469Y-9125071D01*
X30664800Y-9116585D01*
X30669569Y-9108320D01*
X30674827Y-9100331D01*
X30680623Y-9092675D01*
X30687010Y-9085407D01*
X30694037Y-9078583D01*
X30701756Y-9072259D01*
X30710218Y-9066492D01*
X30719474Y-9061336D01*
X30729573Y-9056848D01*
X30740568Y-9053083D01*
X30752509Y-9050097D01*
X30759165Y-9049298D01*
X30766440Y-9049211D01*
X30774291Y-9049785D01*
X30782678Y-9050971D01*
X30800896Y-9054979D01*
X30820763Y-9060835D01*
X30841949Y-9068142D01*
X30864124Y-9076499D01*
X30910124Y-9094769D01*
X30956123Y-9112452D01*
X30978298Y-9120076D01*
X30999483Y-9126357D01*
X31019349Y-9130895D01*
X31028684Y-9132385D01*
X31037565Y-9133291D01*
X31045952Y-9133561D01*
X31053803Y-9133146D01*
X31061077Y-9131996D01*
X31067732Y-9130061D01*
X31071085Y-9128315D01*
X31073680Y-9125903D01*
X31075580Y-9122846D01*
X31076848Y-9119165D01*
X31077548Y-9114883D01*
X31077743Y-9110020D01*
X31076870Y-9098638D01*
X31065821Y-9034191D01*
X31063700Y-9014209D01*
X31062847Y-8993021D01*
X31063768Y-8970802D01*
X31065052Y-8959358D01*
X31066969Y-8947721D01*
X31069583Y-8935912D01*
X31072956Y-8923952D01*
X31077153Y-8911863D01*
X31082236Y-8899666D01*
X31088268Y-8887383D01*
X31095313Y-8875035D01*
X31103435Y-8862643D01*
X31112695Y-8850230D01*
X31116083Y-8846273D01*
X31119536Y-8842532D01*
X31123051Y-8839002D01*
X31126625Y-8835676D01*
X31130254Y-8832550D01*
X31133936Y-8829616D01*
X31141446Y-8824305D01*
X31149130Y-8819696D01*
X31156964Y-8815742D01*
X31164922Y-8812397D01*
X31172982Y-8809612D01*
X31181117Y-8807342D01*
X31189304Y-8805539D01*
X31197518Y-8804157D01*
X31205735Y-8803149D01*
X31213930Y-8802467D01*
X31222079Y-8802065D01*
X31230158Y-8801896D01*
X31238141Y-8801913D01*
X31141632Y-9002154D01*
X30850822Y-9599277D01*
X27319952Y-9600413D01*
X27216771Y-9404684D01*
X27164898Y-9298000D01*
X27139521Y-9240889D01*
X27114757Y-9180668D01*
X27090786Y-9116891D01*
X27067788Y-9049111D01*
X27045943Y-8976880D01*
X27025431Y-8899753D01*
X27006431Y-8817281D01*
X26989125Y-8729017D01*
X26973691Y-8634515D01*
X26960310Y-8533328D01*
X26955117Y-8481000D01*
X26951762Y-8428764D01*
X26950135Y-8376723D01*
X26950125Y-8324979D01*
X26951623Y-8273636D01*
X26954519Y-8222796D01*
X26958704Y-8172563D01*
X26964069Y-8123039D01*
X26977896Y-8026531D01*
X26995124Y-7934096D01*
X27014875Y-7846556D01*
X27036271Y-7764735D01*
X27058436Y-7689457D01*
X27080493Y-7621544D01*
X27101562Y-7561821D01*
X27120769Y-7511110D01*
X27150081Y-7440019D01*
X27161412Y-7414859D01*
X27190952Y-7418379D01*
X27219670Y-7420495D01*
X27248154Y-7421289D01*
X27276992Y-7420840D01*
X27306770Y-7419230D01*
X27338077Y-7416539D01*
X27371499Y-7412848D01*
X27407625Y-7408236D01*
X27407085Y-7427677D01*
X27407706Y-7447151D01*
X27409416Y-7466642D01*
X27412144Y-7486129D01*
X27415817Y-7505597D01*
X27420364Y-7525026D01*
X27425713Y-7544399D01*
X27431793Y-7563698D01*
X27445858Y-7602001D01*
X27461984Y-7639791D01*
X27479598Y-7676924D01*
X27498127Y-7713257D01*
X27569918Y-7847699D01*
X27584416Y-7877868D01*
X27596387Y-7906373D01*
X27605258Y-7933069D01*
X27608351Y-7945694D01*
X27610454Y-7957812D01*
X27619808Y-8078788D01*
X27628022Y-8237556D01*
X27638481Y-8418916D01*
X27654569Y-8607667D01*
X27665780Y-8700063D01*
X27679667Y-8788606D01*
X27696653Y-8871396D01*
X27717160Y-8946532D01*
X27728867Y-8980637D01*
X27741613Y-9012115D01*
X27755450Y-9040730D01*
X27770432Y-9066244D01*
X27786612Y-9088420D01*
X27804043Y-9107020D01*
X27822776Y-9121806D01*
X27842866Y-9132541D01*
X27846564Y-9133379D01*
X27850167Y-9133122D01*
X27853697Y-9131831D01*
X27857176Y-9129569D01*
X27860627Y-9126397D01*
X27864070Y-9122377D01*
X27871025Y-9112040D01*
X27878214Y-9099052D01*
X27885816Y-9083907D01*
X27902955Y-9049127D01*
X27912844Y-9030479D01*
X27923846Y-9011651D01*
X27936138Y-8993139D01*
X27942823Y-8984156D01*
X27949895Y-8975436D01*
X27957378Y-8967043D01*
X27965293Y-8959037D01*
X27973662Y-8951480D01*
X27982507Y-8944435D01*
X27991850Y-8937963D01*
X28001713Y-8932126D01*
X28012118Y-8926985D01*
X28023086Y-8922603D01*
X28034425Y-8919423D01*
X28045460Y-8917784D01*
X28056193Y-8917586D01*
X28066630Y-8918728D01*
X28076773Y-8921111D01*
X28086626Y-8924635D01*
X28096193Y-8929201D01*
X28105477Y-8934708D01*
X28114483Y-8941058D01*
X28123214Y-8948149D01*
X28131673Y-8955883D01*
X28139865Y-8964160D01*
X28155460Y-8981942D01*
X28170029Y-9000698D01*
X28218633Y-9069499D01*
X28228513Y-9081153D01*
X28233133Y-9085600D01*
X28237545Y-9088993D01*
X28241751Y-9091233D01*
X28245756Y-9092220D01*
X28249564Y-9091855D01*
X28253178Y-9090037D01*
X28255695Y-9087982D01*
X28258100Y-9085132D01*
X28260414Y-9081541D01*
X28262656Y-9077265D01*
X28267005Y-9066873D01*
X28271310Y-9054391D01*
X28280433Y-9024900D01*
X28285573Y-9008762D01*
X28291313Y-8992276D01*
X28297816Y-8975878D01*
X28305243Y-8960003D01*
X28309353Y-8952398D01*
X28313755Y-8945088D01*
X28318468Y-8938125D01*
X28323513Y-8931566D01*
X28328909Y-8925464D01*
X28334678Y-8919874D01*
X28340839Y-8914851D01*
X28347412Y-8910448D01*
X28354418Y-8906721D01*
X28361877Y-8903723D01*
X28369809Y-8901509D01*
X28378233Y-8900134D01*
X28386617Y-8899846D01*
X28394879Y-8900352D01*
X28403015Y-8901596D01*
X28411019Y-8903522D01*
X28418888Y-8906074D01*
X28426617Y-8909196D01*
X28434202Y-8912833D01*
X28441636Y-8916928D01*
X28448917Y-8921426D01*
X28456040Y-8926271D01*
X28462999Y-8931408D01*
X28469791Y-8936779D01*
X28482854Y-8948004D01*
X28495190Y-8959500D01*
X28517540Y-8981519D01*
X28527480Y-8991147D01*
X28536548Y-8999260D01*
X28540743Y-9002608D01*
X28544707Y-9005410D01*
X28548434Y-9007609D01*
X28551920Y-9009151D01*
X28555160Y-9009978D01*
X28558151Y-9010035D01*
X28560886Y-9009267D01*
X28563363Y-9007617D01*
X28564167Y-9004404D01*
X28564724Y-9000425D01*
X28565222Y-8990381D01*
X28564624Y-8963452D01*
X28563562Y-8930256D01*
X28563479Y-8912378D01*
X28564026Y-8894218D01*
X28565453Y-8876205D01*
X28568009Y-8858767D01*
X28569787Y-8850397D01*
X28571942Y-8842331D01*
X28574502Y-8834623D01*
X28577501Y-8827326D01*
X28580968Y-8820495D01*
X28584936Y-8814181D01*
X28589434Y-8808440D01*
X28594495Y-8803324D01*
X28600149Y-8798888D01*
X28606427Y-8795183D01*
X28613361Y-8792265D01*
X28620982Y-8790187D01*
X28629062Y-8789096D01*
X28637336Y-8788602D01*
X28645778Y-8788659D01*
X28654363Y-8789221D01*
X28663066Y-8790239D01*
X28671860Y-8791669D01*
X28680720Y-8793463D01*
X28689620Y-8795574D01*
X28707438Y-8800563D01*
X28725110Y-8806262D01*
X28759193Y-8818295D01*
X28775193Y-8823884D01*
X28790226Y-8828689D01*
X28804086Y-8832338D01*
X28810513Y-8833612D01*
X28816569Y-8834456D01*
X28822230Y-8834825D01*
X28827469Y-8834671D01*
X28832261Y-8833948D01*
X28836581Y-8832610D01*
X28840402Y-8830608D01*
X28843699Y-8827898D01*
X28846447Y-8824432D01*
X28848619Y-8820163D01*
X28849598Y-8807570D01*
X28847903Y-8789007D01*
X28843613Y-8765179D01*
X28836809Y-8736793D01*
X28827572Y-8704556D01*
X28815982Y-8669174D01*
X28802121Y-8631354D01*
X28786068Y-8591803D01*
X28767904Y-8551226D01*
X28747710Y-8510331D01*
X28725566Y-8469823D01*
X28701554Y-8430411D01*
X28675753Y-8392800D01*
X28648244Y-8357696D01*
X28619109Y-8325807D01*
X28603956Y-8311289D01*
X28588426Y-8297839D01*
X28556073Y-8272103D01*
X28522972Y-8247274D01*
X28489373Y-8223206D01*
X28455526Y-8199753D01*
X28322630Y-8109158D01*
X28291275Y-8086583D01*
X28261166Y-8063744D01*
X28232552Y-8040495D01*
X28205682Y-8016690D01*
X28180805Y-7992183D01*
X28158170Y-7966826D01*
X28147771Y-7953784D01*
X28138026Y-7940475D01*
X28128967Y-7926880D01*
X28120623Y-7912982D01*
X28117177Y-7913967D01*
X28113586Y-7914875D01*
X28109892Y-7915729D01*
X28106135Y-7916552D01*
X28098598Y-7918187D01*
X28094900Y-7919043D01*
X28091303Y-7919955D01*
X28108472Y-7915181D01*
X28117092Y-7912812D01*
X28125667Y-7910533D01*
X28123079Y-7893288D01*
X28122291Y-7875744D01*
X28123211Y-7857878D01*
X28125749Y-7839670D01*
X28129812Y-7821097D01*
X28135311Y-7802138D01*
X28150250Y-7762978D01*
X28169835Y-7722016D01*
X28193338Y-7679080D01*
X28249178Y-7586601D01*
X28311938Y-7484165D01*
X28344090Y-7428783D01*
X28375784Y-7370395D01*
X28406291Y-7308830D01*
X28434881Y-7243916D01*
X28460826Y-7175480D01*
X28483397Y-7103351D01*
X28518448Y-7090609D01*
X28555475Y-7079517D01*
X28634796Y-7062035D01*
X28720045Y-7050403D01*
X28809907Y-7044120D01*
X28903067Y-7042684D01*
X28998208Y-7045594D01*
G37*
X26971704Y-4714496D02*
X26971696Y-4714496D01*
X26971704Y-4714489D01*
X26971704Y-4714496D01*
G36*
X26971704Y-4714496D02*
G01*
X26971696Y-4714496D01*
X26971704Y-4714489D01*
X26971704Y-4714496D01*
G37*
D10*
X31614248Y-5536245D02*
X31673346Y-5539417D01*
X31732699Y-5545151D01*
X31792181Y-5553445D01*
X31851664Y-5564296D01*
X31911022Y-5577700D01*
X31970130Y-5593654D01*
X32028860Y-5612155D01*
X32087086Y-5633199D01*
X32144682Y-5656784D01*
X32201520Y-5682906D01*
X32257476Y-5711563D01*
X32312422Y-5742750D01*
X32366232Y-5776464D01*
X32418780Y-5812704D01*
X32469939Y-5851464D01*
X32519582Y-5892743D01*
X32567583Y-5936536D01*
X32613817Y-5982841D01*
X32658155Y-6031654D01*
X32700473Y-6082973D01*
X32740643Y-6136793D01*
X32778538Y-6193113D01*
X32814034Y-6251928D01*
X32847003Y-6313236D01*
X32881343Y-6382108D01*
X32912861Y-6449422D01*
X32941257Y-6515666D01*
X32966229Y-6581332D01*
X32987479Y-6646909D01*
X33004704Y-6712890D01*
X33017606Y-6779763D01*
X33025882Y-6848021D01*
X33029233Y-6918152D01*
X33027357Y-6990649D01*
X33019956Y-7066000D01*
X33006727Y-7144698D01*
X32987372Y-7227232D01*
X32961588Y-7314092D01*
X32929076Y-7405771D01*
X32889535Y-7502757D01*
X32883799Y-7488652D01*
X32877395Y-7475374D01*
X32870341Y-7462899D01*
X32862660Y-7451205D01*
X32854370Y-7440269D01*
X32845492Y-7430067D01*
X32836045Y-7420578D01*
X32826051Y-7411777D01*
X32815530Y-7403643D01*
X32804500Y-7396152D01*
X32792984Y-7389282D01*
X32781000Y-7383009D01*
X32755711Y-7372164D01*
X32728794Y-7363436D01*
X32700412Y-7356640D01*
X32670726Y-7351595D01*
X32639895Y-7348116D01*
X32608083Y-7346021D01*
X32575450Y-7345127D01*
X32542157Y-7345250D01*
X32474238Y-7347820D01*
X32378197Y-7355045D01*
X32287928Y-7363683D01*
X32203281Y-7373859D01*
X32124105Y-7385696D01*
X32050250Y-7399320D01*
X31981567Y-7414855D01*
X31949117Y-7423378D01*
X31917904Y-7432425D01*
X31887908Y-7442012D01*
X31859111Y-7452155D01*
X31831494Y-7462869D01*
X31805039Y-7474169D01*
X31779726Y-7486072D01*
X31755536Y-7498592D01*
X31732452Y-7511745D01*
X31710454Y-7525547D01*
X31689523Y-7540014D01*
X31669640Y-7555161D01*
X31650788Y-7571003D01*
X31632946Y-7587556D01*
X31616097Y-7604835D01*
X31600221Y-7622857D01*
X31585299Y-7641637D01*
X31571314Y-7661190D01*
X31558246Y-7681532D01*
X31546076Y-7702678D01*
X31541086Y-7708975D01*
X31536886Y-7715221D01*
X31533442Y-7721422D01*
X31530723Y-7727585D01*
X31528697Y-7733717D01*
X31527331Y-7739824D01*
X31526594Y-7745914D01*
X31526453Y-7751994D01*
X31526876Y-7758070D01*
X31527832Y-7764149D01*
X31529288Y-7770238D01*
X31531212Y-7776344D01*
X31533572Y-7782474D01*
X31536337Y-7788635D01*
X31542949Y-7801075D01*
X31550793Y-7813720D01*
X31559611Y-7826626D01*
X31579147Y-7853436D01*
X31589350Y-7867451D01*
X31599503Y-7881945D01*
X31609348Y-7896974D01*
X31618628Y-7912593D01*
X31542209Y-7890646D01*
X31469119Y-7867016D01*
X31399301Y-7841762D01*
X31332697Y-7814945D01*
X31269250Y-7786623D01*
X31208904Y-7756856D01*
X31151599Y-7725704D01*
X31097281Y-7693226D01*
X31045890Y-7659481D01*
X30997370Y-7624529D01*
X30951664Y-7588429D01*
X30908714Y-7551242D01*
X30868464Y-7513025D01*
X30830855Y-7473840D01*
X30795830Y-7433745D01*
X30763333Y-7392799D01*
X30733306Y-7351064D01*
X30705692Y-7308596D01*
X30680433Y-7265457D01*
X30657472Y-7221706D01*
X30636752Y-7177402D01*
X30618216Y-7132605D01*
X30601806Y-7087374D01*
X30587466Y-7041769D01*
X30564763Y-6949673D01*
X30549650Y-6856794D01*
X30541668Y-6763607D01*
X30540359Y-6670589D01*
X30540358Y-6670589D01*
X30542379Y-6624753D01*
X30546062Y-6579124D01*
X30551354Y-6533761D01*
X30558202Y-6488725D01*
X30566553Y-6444074D01*
X30576352Y-6399870D01*
X30587548Y-6356171D01*
X30600087Y-6313039D01*
X30613917Y-6270533D01*
X30628983Y-6228712D01*
X30645232Y-6187638D01*
X30662613Y-6147369D01*
X30681070Y-6107966D01*
X30700552Y-6069489D01*
X30721006Y-6031997D01*
X30742377Y-5995550D01*
X30764613Y-5960210D01*
X30787661Y-5926034D01*
X30811467Y-5893084D01*
X30835979Y-5861420D01*
X30861143Y-5831100D01*
X30886906Y-5802186D01*
X30913216Y-5774737D01*
X30940018Y-5748813D01*
X30967260Y-5724475D01*
X30994889Y-5701781D01*
X31022851Y-5680792D01*
X31051093Y-5661568D01*
X31079563Y-5644168D01*
X31108206Y-5628654D01*
X31136971Y-5615084D01*
X31165803Y-5603519D01*
X31218312Y-5586072D01*
X31272087Y-5571214D01*
X31327002Y-5558942D01*
X31382931Y-5549251D01*
X31439746Y-5542139D01*
X31497321Y-5537603D01*
X31555531Y-5535639D01*
X31614248Y-5536245D01*
X26232514Y-6368906D02*
X26250220Y-6477818D01*
X26274684Y-6582507D01*
X26305790Y-6682679D01*
X26343421Y-6778038D01*
X26387463Y-6868289D01*
X26437800Y-6953135D01*
X26494315Y-7032282D01*
X26524854Y-7069626D01*
X26556894Y-7105434D01*
X26590422Y-7139669D01*
X26625421Y-7172295D01*
X26661879Y-7203275D01*
X26699781Y-7232571D01*
X26739111Y-7260146D01*
X26779856Y-7285965D01*
X26822002Y-7309989D01*
X26865533Y-7332182D01*
X26910436Y-7352506D01*
X26956696Y-7370926D01*
X27004298Y-7387404D01*
X27053228Y-7401902D01*
X27103471Y-7414385D01*
X27155014Y-7424815D01*
X27155013Y-7424823D01*
X27118084Y-7509997D01*
X27085273Y-7594286D01*
X27031424Y-7760071D01*
X26992300Y-7921906D01*
X26966732Y-8079521D01*
X26953555Y-8232645D01*
X26951599Y-8381006D01*
X26959698Y-8524333D01*
X26976683Y-8662356D01*
X27001389Y-8794804D01*
X27032646Y-8921405D01*
X27069288Y-9041889D01*
X27110148Y-9155985D01*
X27154057Y-9263421D01*
X27199848Y-9363927D01*
X27292407Y-9543063D01*
X27324174Y-9603688D01*
X27356704Y-9671938D01*
X27388536Y-9746850D01*
X27418206Y-9827464D01*
X27444251Y-9912818D01*
X27465210Y-10001949D01*
X27479619Y-10093897D01*
X27483910Y-10140627D01*
X27486015Y-10187700D01*
X27485751Y-10234997D01*
X27482936Y-10282396D01*
X27477386Y-10329779D01*
X27468919Y-10377024D01*
X27457352Y-10424012D01*
X27442502Y-10470622D01*
X27424185Y-10516734D01*
X27402220Y-10562228D01*
X27376424Y-10606984D01*
X27346613Y-10650881D01*
X27312605Y-10693800D01*
X27274217Y-10735620D01*
X27231266Y-10776220D01*
X27183569Y-10815482D01*
X27130943Y-10853284D01*
X27073206Y-10889506D01*
X27038344Y-10908441D01*
X27002212Y-10925071D01*
X26964899Y-10939440D01*
X26926494Y-10951593D01*
X26887087Y-10961573D01*
X26846769Y-10969423D01*
X26805627Y-10975189D01*
X26763752Y-10978912D01*
X26721232Y-10980638D01*
X26678159Y-10980411D01*
X26590707Y-10974269D01*
X26502112Y-10960838D01*
X26413089Y-10940468D01*
X26324355Y-10913511D01*
X26236625Y-10880316D01*
X26150616Y-10841234D01*
X26067044Y-10796616D01*
X25986624Y-10746812D01*
X25910074Y-10692174D01*
X25838108Y-10633052D01*
X25771442Y-10569797D01*
X25721872Y-10516558D01*
X25674891Y-10461285D01*
X25630454Y-10404113D01*
X25588511Y-10345175D01*
X25511924Y-10222543D01*
X25444751Y-10094471D01*
X25386616Y-9962036D01*
X25337141Y-9826319D01*
X25295946Y-9688398D01*
X25262656Y-9549353D01*
X25236891Y-9410262D01*
X25218274Y-9272206D01*
X25206428Y-9136263D01*
X25200974Y-9003512D01*
X25201534Y-8875033D01*
X25207731Y-8751905D01*
X25219187Y-8635207D01*
X25235523Y-8526019D01*
X25282795Y-8296938D01*
X25336822Y-8086030D01*
X25396566Y-7891892D01*
X25460991Y-7713122D01*
X25529060Y-7548317D01*
X25599736Y-7396075D01*
X25671980Y-7254993D01*
X25744757Y-7123670D01*
X26020446Y-6667905D01*
X26080327Y-6564334D01*
X26134518Y-6462106D01*
X26181981Y-6359818D01*
X26221680Y-6256068D01*
X26232514Y-6368906D01*
X31606883Y-6862007D02*
X31611876Y-6862520D01*
X31617019Y-6863299D01*
X31622305Y-6864344D01*
X31627725Y-6865657D01*
X31633270Y-6867237D01*
X31638931Y-6869087D01*
X31644700Y-6871206D01*
X31650568Y-6873597D01*
X31656526Y-6876259D01*
X31662565Y-6879194D01*
X31668677Y-6882402D01*
X31674854Y-6885885D01*
X31681086Y-6889644D01*
X31687364Y-6893678D01*
X31693680Y-6897990D01*
X31693680Y-6897998D01*
X31706074Y-6906740D01*
X31717892Y-6916043D01*
X31729087Y-6925821D01*
X31739612Y-6935991D01*
X31749418Y-6946469D01*
X31758458Y-6957169D01*
X31766685Y-6968009D01*
X31774050Y-6978904D01*
X31780507Y-6989769D01*
X31786007Y-7000521D01*
X31790503Y-7011075D01*
X31793947Y-7021348D01*
X31795260Y-7026352D01*
X31796292Y-7031254D01*
X31797037Y-7036043D01*
X31797489Y-7040709D01*
X31797643Y-7045242D01*
X31797492Y-7049631D01*
X31797031Y-7053864D01*
X31796253Y-7057933D01*
X31795163Y-7062018D01*
X31793774Y-7065840D01*
X31792094Y-7069396D01*
X31790132Y-7072688D01*
X31787898Y-7075715D01*
X31785399Y-7078475D01*
X31782644Y-7080969D01*
X31779643Y-7083197D01*
X31776403Y-7085157D01*
X31772933Y-7086850D01*
X31769243Y-7088274D01*
X31765341Y-7089430D01*
X31761235Y-7090316D01*
X31756935Y-7090934D01*
X31752448Y-7091281D01*
X31747784Y-7091357D01*
X31742952Y-7091163D01*
X31737959Y-7090698D01*
X31732816Y-7089960D01*
X31727530Y-7088951D01*
X31722110Y-7087668D01*
X31716565Y-7086113D01*
X31710904Y-7084284D01*
X31705135Y-7082180D01*
X31699267Y-7079802D01*
X31693309Y-7077149D01*
X31687270Y-7074221D01*
X31681157Y-7071017D01*
X31674981Y-7067536D01*
X31668749Y-7063778D01*
X31662470Y-7059743D01*
X31656153Y-7055431D01*
X31643760Y-7046688D01*
X31631942Y-7037381D01*
X31620747Y-7027591D01*
X31610222Y-7017398D01*
X31600416Y-7006884D01*
X31591376Y-6996127D01*
X31583149Y-6985210D01*
X31575784Y-6974212D01*
X31569327Y-6963214D01*
X31563827Y-6952297D01*
X31559331Y-6941540D01*
X31555887Y-6931025D01*
X31554574Y-6925884D01*
X31553542Y-6920833D01*
X31552797Y-6915883D01*
X31552345Y-6911043D01*
X31552191Y-6906324D01*
X31552342Y-6901736D01*
X31552803Y-6897289D01*
X31553581Y-6892993D01*
X31554671Y-6889135D01*
X31556060Y-6885527D01*
X31557740Y-6882170D01*
X31559702Y-6879064D01*
X31561936Y-6876211D01*
X31564435Y-6873611D01*
X31567190Y-6871266D01*
X31570192Y-6869176D01*
X31573432Y-6867342D01*
X31576901Y-6865766D01*
X31580591Y-6864447D01*
X31584494Y-6863388D01*
X31588600Y-6862588D01*
X31592900Y-6862049D01*
X31597387Y-6861772D01*
X31602051Y-6861757D01*
X31606883Y-6862007D01*
D11*
X32605725Y-5974101D02*
X32553332Y-5922864D01*
X32498772Y-5874788D01*
X32442221Y-5829879D01*
X32383857Y-5788141D01*
X32323858Y-5749580D01*
X32262400Y-5714200D01*
X32199663Y-5682006D01*
X32135822Y-5653002D01*
X32071056Y-5627194D01*
X32005542Y-5604586D01*
X31939457Y-5585182D01*
X31872979Y-5568988D01*
X31806286Y-5556009D01*
X31739555Y-5546248D01*
X31672964Y-5539711D01*
X31606689Y-5536403D01*
X31606689Y-5536411D01*
X31565823Y-5517052D01*
X31526675Y-5497070D01*
X31489141Y-5476489D01*
X31453117Y-5455332D01*
X31385183Y-5411387D01*
X31322040Y-5365422D01*
X31262855Y-5317625D01*
X31206794Y-5268185D01*
X31153025Y-5217291D01*
X31100714Y-5165129D01*
X30889399Y-4947583D01*
X30831887Y-4891913D01*
X30770835Y-4836106D01*
X30705411Y-4780350D01*
X30634782Y-4724834D01*
X33214469Y-4720562D01*
X32605725Y-5974101D01*
G36*
X32605725Y-5974101D02*
G01*
X32553332Y-5922864D01*
X32498772Y-5874788D01*
X32442221Y-5829879D01*
X32383857Y-5788141D01*
X32323858Y-5749580D01*
X32262400Y-5714200D01*
X32199663Y-5682006D01*
X32135822Y-5653002D01*
X32071056Y-5627194D01*
X32005542Y-5604586D01*
X31939457Y-5585182D01*
X31872979Y-5568988D01*
X31806286Y-5556009D01*
X31739555Y-5546248D01*
X31672964Y-5539711D01*
X31606689Y-5536403D01*
X31606689Y-5536411D01*
X31565823Y-5517052D01*
X31526675Y-5497070D01*
X31489141Y-5476489D01*
X31453117Y-5455332D01*
X31385183Y-5411387D01*
X31322040Y-5365422D01*
X31262855Y-5317625D01*
X31206794Y-5268185D01*
X31153025Y-5217291D01*
X31100714Y-5165129D01*
X30889399Y-4947583D01*
X30831887Y-4891913D01*
X30770835Y-4836106D01*
X30705411Y-4780350D01*
X30634782Y-4724834D01*
X33214469Y-4720562D01*
X32605725Y-5974101D01*
G37*
D10*
X30173654Y-8008878D02*
X30230262Y-8017669D01*
X30283762Y-8025229D01*
X30309777Y-8028173D01*
X30335532Y-8030358D01*
X30361199Y-8031636D01*
X30386951Y-8031856D01*
X30412958Y-8030868D01*
X30439395Y-8028522D01*
X30466433Y-8024668D01*
X30494243Y-8019156D01*
X30523000Y-8011837D01*
X30552874Y-8002559D01*
X30594235Y-8046762D01*
X30644883Y-8096251D01*
X30766855Y-8207163D01*
X31043224Y-8449253D01*
X31168890Y-8564734D01*
X31222308Y-8617650D01*
X31267055Y-8666042D01*
X31301336Y-8708928D01*
X31313991Y-8727999D01*
X31323355Y-8745327D01*
X31329205Y-8760788D01*
X31331316Y-8774259D01*
X31329464Y-8785618D01*
X31323424Y-8794742D01*
X31320137Y-8797524D01*
X31316389Y-8799807D01*
X31312205Y-8801636D01*
X31307607Y-8803053D01*
X31302619Y-8804103D01*
X31297263Y-8804828D01*
X31285545Y-8805479D01*
X31228669Y-8803801D01*
X31212883Y-8804049D01*
X31196844Y-8805260D01*
X31188789Y-8806336D01*
X31180740Y-8807782D01*
X31172721Y-8809643D01*
X31164756Y-8811962D01*
X31156868Y-8814783D01*
X31149080Y-8818149D01*
X31141416Y-8822103D01*
X31133899Y-8826689D01*
X31126552Y-8831950D01*
X31119399Y-8837930D01*
X31112464Y-8844673D01*
X31105768Y-8852221D01*
X31096508Y-8864635D01*
X31088387Y-8877026D01*
X31081341Y-8889375D01*
X31075307Y-8901659D01*
X31070223Y-8913858D01*
X31066025Y-8925948D01*
X31062649Y-8937910D01*
X31060033Y-8949721D01*
X31058113Y-8961360D01*
X31056827Y-8972805D01*
X31055900Y-8995030D01*
X31056747Y-9016222D01*
X31058861Y-9036209D01*
X31069885Y-9100674D01*
X31070753Y-9112059D01*
X31070556Y-9116924D01*
X31069855Y-9121208D01*
X31068585Y-9124889D01*
X31066684Y-9127947D01*
X31064089Y-9130360D01*
X31060736Y-9132106D01*
X31054080Y-9134041D01*
X31046806Y-9135191D01*
X31038955Y-9135606D01*
X31030568Y-9135335D01*
X31021686Y-9134430D01*
X31012351Y-9132939D01*
X30992485Y-9128402D01*
X30971299Y-9122121D01*
X30949124Y-9114497D01*
X30903124Y-9096813D01*
X30857125Y-9078544D01*
X30834950Y-9070187D01*
X30813764Y-9062880D01*
X30793897Y-9057023D01*
X30775680Y-9053016D01*
X30767292Y-9051830D01*
X30759441Y-9051255D01*
X30752167Y-9051343D01*
X30745511Y-9052142D01*
X30733570Y-9055127D01*
X30722576Y-9058891D01*
X30712476Y-9063378D01*
X30703220Y-9068532D01*
X30694758Y-9074297D01*
X30687039Y-9080618D01*
X30680011Y-9087438D01*
X30673624Y-9094703D01*
X30667827Y-9102355D01*
X30662569Y-9110340D01*
X30657800Y-9118600D01*
X30653468Y-9127082D01*
X30645913Y-9144483D01*
X30639498Y-9162097D01*
X30628460Y-9196175D01*
X30623023Y-9211746D01*
X30617099Y-9225743D01*
X30613828Y-9232012D01*
X30610281Y-9237720D01*
X30606410Y-9242811D01*
X30602162Y-9247229D01*
X30597488Y-9250919D01*
X30592335Y-9253825D01*
X30586654Y-9255890D01*
X30580394Y-9257060D01*
X30573400Y-9254239D01*
X30566484Y-9250953D01*
X30559634Y-9247235D01*
X30552841Y-9243115D01*
X30546093Y-9238628D01*
X30539381Y-9233806D01*
X30526020Y-9223284D01*
X30512674Y-9211811D01*
X30499258Y-9199646D01*
X30471880Y-9174280D01*
X30457750Y-9161599D01*
X30443212Y-9149266D01*
X30428184Y-9137540D01*
X30420459Y-9131986D01*
X30412580Y-9126682D01*
X30404536Y-9121660D01*
X30396316Y-9116952D01*
X30387911Y-9112591D01*
X30379308Y-9108609D01*
X30370499Y-9105039D01*
X30361473Y-9101913D01*
X30352218Y-9099264D01*
X30342724Y-9097125D01*
X30333552Y-9095638D01*
X30324789Y-9094893D01*
X30316416Y-9094843D01*
X30308418Y-9095440D01*
X30300777Y-9096635D01*
X30293476Y-9098381D01*
X30286499Y-9100629D01*
X30279828Y-9103332D01*
X30273447Y-9106441D01*
X30267338Y-9109908D01*
X30261485Y-9113686D01*
X30255871Y-9117725D01*
X30250478Y-9121979D01*
X30245290Y-9126399D01*
X30235461Y-9135546D01*
X30217513Y-9153718D01*
X30209124Y-9161974D01*
X30200944Y-9169166D01*
X30196889Y-9172242D01*
X30192837Y-9174908D01*
X30188768Y-9177115D01*
X30184667Y-9178816D01*
X30180517Y-9179961D01*
X30176300Y-9180505D01*
X30172000Y-9180397D01*
X30167599Y-9179591D01*
X30167591Y-9179584D01*
X30164060Y-9178732D01*
X30160509Y-9176229D01*
X30156947Y-9172150D01*
X30153382Y-9166571D01*
X30146285Y-9151217D01*
X30139291Y-9130775D01*
X30132472Y-9105852D01*
X30125903Y-9077056D01*
X30119656Y-9044995D01*
X30113804Y-9010276D01*
X30108422Y-8973507D01*
X30103582Y-8935296D01*
X30099358Y-8896251D01*
X30095823Y-8856978D01*
X30093050Y-8818087D01*
X30091112Y-8780183D01*
X30090083Y-8743876D01*
X30090037Y-8709773D01*
X30091636Y-8675144D01*
X30094389Y-8637971D01*
X30102349Y-8557061D01*
X30120996Y-8376470D01*
X30127638Y-8281064D01*
X30129403Y-8233018D01*
X30129795Y-8185101D01*
X30128559Y-8137579D01*
X30125444Y-8090719D01*
X30120195Y-8044789D01*
X30112561Y-8000056D01*
X30173654Y-8008878D01*
D11*
X30826499Y-7471352D02*
X30861441Y-7508575D01*
X30898727Y-7544946D01*
X30938405Y-7580417D01*
X30980522Y-7614936D01*
X31025128Y-7648455D01*
X31072269Y-7680923D01*
X31121995Y-7712289D01*
X31174354Y-7742504D01*
X31229394Y-7771517D01*
X31287163Y-7799279D01*
X31347709Y-7825739D01*
X31411081Y-7850847D01*
X31477327Y-7874553D01*
X31546495Y-7896808D01*
X31618633Y-7917560D01*
X31618183Y-7922918D01*
X31618103Y-7923591D01*
X31618005Y-7924266D01*
X31617885Y-7924944D01*
X31617740Y-7925627D01*
X31617567Y-7926314D01*
X31617360Y-7927006D01*
X31617117Y-7927704D01*
X31616833Y-7928409D01*
X31564982Y-8041115D01*
X31541913Y-8092338D01*
X31521418Y-8140649D01*
X31512294Y-8163831D01*
X31504001Y-8186427D01*
X31496604Y-8208485D01*
X31490164Y-8230052D01*
X31484745Y-8251176D01*
X31480410Y-8271905D01*
X31477221Y-8292285D01*
X31475241Y-8312366D01*
X31315175Y-8642062D01*
X31289331Y-8695804D01*
X31260556Y-8661754D01*
X31226024Y-8624681D01*
X31186513Y-8585010D01*
X31142801Y-8543167D01*
X31045886Y-8454663D01*
X30941502Y-8362570D01*
X30735220Y-8181222D01*
X30645769Y-8098769D01*
X30607189Y-8061086D01*
X30573856Y-8026450D01*
X30574374Y-8026370D01*
X30574975Y-8026291D01*
X30575550Y-8026227D01*
X30576114Y-8026175D01*
X30577259Y-8026080D01*
X30577867Y-8026028D01*
X30578517Y-8025966D01*
X30577772Y-7998947D01*
X30577859Y-7973136D01*
X30578743Y-7948469D01*
X30580389Y-7924878D01*
X30582762Y-7902299D01*
X30585827Y-7880664D01*
X30589549Y-7859908D01*
X30593894Y-7839966D01*
X30598826Y-7820770D01*
X30604310Y-7802256D01*
X30610312Y-7784357D01*
X30616797Y-7767008D01*
X30631073Y-7733693D01*
X30646860Y-7701784D01*
X30663879Y-7670754D01*
X30681849Y-7640075D01*
X30719528Y-7577660D01*
X30738676Y-7544869D01*
X30757659Y-7510320D01*
X30776196Y-7473483D01*
X30794008Y-7433833D01*
X30793851Y-7433330D01*
X30826499Y-7471352D01*
G36*
X30826499Y-7471352D02*
G01*
X30861441Y-7508575D01*
X30898727Y-7544946D01*
X30938405Y-7580417D01*
X30980522Y-7614936D01*
X31025128Y-7648455D01*
X31072269Y-7680923D01*
X31121995Y-7712289D01*
X31174354Y-7742504D01*
X31229394Y-7771517D01*
X31287163Y-7799279D01*
X31347709Y-7825739D01*
X31411081Y-7850847D01*
X31477327Y-7874553D01*
X31546495Y-7896808D01*
X31618633Y-7917560D01*
X31618183Y-7922918D01*
X31618103Y-7923591D01*
X31618005Y-7924266D01*
X31617885Y-7924944D01*
X31617740Y-7925627D01*
X31617567Y-7926314D01*
X31617360Y-7927006D01*
X31617117Y-7927704D01*
X31616833Y-7928409D01*
X31564982Y-8041115D01*
X31541913Y-8092338D01*
X31521418Y-8140649D01*
X31512294Y-8163831D01*
X31504001Y-8186427D01*
X31496604Y-8208485D01*
X31490164Y-8230052D01*
X31484745Y-8251176D01*
X31480410Y-8271905D01*
X31477221Y-8292285D01*
X31475241Y-8312366D01*
X31315175Y-8642062D01*
X31289331Y-8695804D01*
X31260556Y-8661754D01*
X31226024Y-8624681D01*
X31186513Y-8585010D01*
X31142801Y-8543167D01*
X31045886Y-8454663D01*
X30941502Y-8362570D01*
X30735220Y-8181222D01*
X30645769Y-8098769D01*
X30607189Y-8061086D01*
X30573856Y-8026450D01*
X30574374Y-8026370D01*
X30574975Y-8026291D01*
X30575550Y-8026227D01*
X30576114Y-8026175D01*
X30577259Y-8026080D01*
X30577867Y-8026028D01*
X30578517Y-8025966D01*
X30577772Y-7998947D01*
X30577859Y-7973136D01*
X30578743Y-7948469D01*
X30580389Y-7924878D01*
X30582762Y-7902299D01*
X30585827Y-7880664D01*
X30589549Y-7859908D01*
X30593894Y-7839966D01*
X30598826Y-7820770D01*
X30604310Y-7802256D01*
X30610312Y-7784357D01*
X30616797Y-7767008D01*
X30631073Y-7733693D01*
X30646860Y-7701784D01*
X30663879Y-7670754D01*
X30681849Y-7640075D01*
X30719528Y-7577660D01*
X30738676Y-7544869D01*
X30757659Y-7510320D01*
X30776196Y-7473483D01*
X30794008Y-7433833D01*
X30793851Y-7433330D01*
X30826499Y-7471352D01*
G37*
D10*
X32525832Y-7348510D02*
X32610941Y-7354545D01*
X32689391Y-7365314D01*
X32707369Y-7368711D01*
X32724265Y-7372346D01*
X32740113Y-7376221D01*
X32754947Y-7380340D01*
X32768798Y-7384707D01*
X32781699Y-7389324D01*
X32793685Y-7394194D01*
X32804787Y-7399321D01*
X32815039Y-7404708D01*
X32824474Y-7410358D01*
X32833125Y-7416275D01*
X32841024Y-7422461D01*
X32848205Y-7428920D01*
X32854700Y-7435654D01*
X32860544Y-7442668D01*
X32865768Y-7449965D01*
X32870405Y-7457546D01*
X32874489Y-7465417D01*
X32878053Y-7473579D01*
X32881130Y-7482037D01*
X32883752Y-7490793D01*
X32885952Y-7499850D01*
X32889221Y-7518883D01*
X32891200Y-7539160D01*
X32892152Y-7560707D01*
X32892343Y-7583550D01*
X32892035Y-7607715D01*
X32892474Y-7642151D01*
X32896599Y-7680435D01*
X32904404Y-7722020D01*
X32915880Y-7766363D01*
X32931022Y-7812916D01*
X32949821Y-7861134D01*
X32972270Y-7910473D01*
X32998362Y-7960386D01*
X33028089Y-8010329D01*
X33061444Y-8059755D01*
X33098420Y-8108120D01*
X33139009Y-8154878D01*
X33183204Y-8199483D01*
X33206652Y-8220808D01*
X33230998Y-8241390D01*
X33256243Y-8261162D01*
X33282384Y-8280054D01*
X33309421Y-8297999D01*
X33337353Y-8314929D01*
X33337354Y-8314929D01*
X33337355Y-8314930D01*
X33337355Y-8314931D01*
X33337356Y-8314931D01*
X33337357Y-8314933D01*
X33337357Y-8314934D01*
X33337358Y-8314935D01*
X33337359Y-8314935D01*
X33337359Y-8314936D01*
X33337360Y-8314936D01*
X33337360Y-8314937D01*
X33337361Y-8314937D01*
X33372675Y-8336840D01*
X33403187Y-8358471D01*
X33429035Y-8379776D01*
X33450356Y-8400702D01*
X33467289Y-8421196D01*
X33479972Y-8441205D01*
X33488541Y-8460676D01*
X33493136Y-8479556D01*
X33493894Y-8497792D01*
X33490953Y-8515330D01*
X33484450Y-8532118D01*
X33474524Y-8548103D01*
X33461313Y-8563231D01*
X33444954Y-8577449D01*
X33425586Y-8590705D01*
X33403346Y-8602944D01*
X33378372Y-8614115D01*
X33350802Y-8624164D01*
X33288425Y-8640683D01*
X33217319Y-8652078D01*
X33138587Y-8657922D01*
X33053331Y-8657793D01*
X32962655Y-8651265D01*
X32867663Y-8637913D01*
X32769456Y-8617312D01*
X32738045Y-8610116D01*
X32707594Y-8603955D01*
X32678079Y-8598782D01*
X32649478Y-8594551D01*
X32621767Y-8591212D01*
X32594923Y-8588719D01*
X32568925Y-8587024D01*
X32543748Y-8586079D01*
X32519370Y-8585837D01*
X32495768Y-8586251D01*
X32450801Y-8588852D01*
X32408663Y-8593504D01*
X32369171Y-8599825D01*
X32332141Y-8607434D01*
X32297391Y-8615951D01*
X32264737Y-8624995D01*
X32233996Y-8634186D01*
X32177521Y-8651483D01*
X32151419Y-8658829D01*
X32126498Y-8664798D01*
X32092975Y-8671035D01*
X32059086Y-8676510D01*
X32024934Y-8681049D01*
X31990619Y-8684475D01*
X31956247Y-8686613D01*
X31921918Y-8687287D01*
X31887736Y-8686320D01*
X31853803Y-8683538D01*
X31820222Y-8678765D01*
X31787095Y-8671825D01*
X31754526Y-8662542D01*
X31722615Y-8650740D01*
X31706940Y-8643839D01*
X31691468Y-8636244D01*
X31676212Y-8627930D01*
X31661184Y-8618877D01*
X31646399Y-8609063D01*
X31631869Y-8598465D01*
X31617606Y-8587062D01*
X31603623Y-8574832D01*
X31583238Y-8555776D01*
X31564732Y-8537005D01*
X31548053Y-8518482D01*
X31533146Y-8500169D01*
X31519955Y-8482031D01*
X31508427Y-8464030D01*
X31498507Y-8446128D01*
X31490140Y-8428289D01*
X31483272Y-8410476D01*
X31477849Y-8392651D01*
X31473815Y-8374778D01*
X31471117Y-8356819D01*
X31469699Y-8338737D01*
X31469508Y-8320496D01*
X31470489Y-8302058D01*
X31472587Y-8283386D01*
X31475748Y-8264444D01*
X31479917Y-8245193D01*
X31491062Y-8205620D01*
X31505585Y-8164370D01*
X31523052Y-8121147D01*
X31565069Y-8027596D01*
X31613623Y-7922595D01*
X31615382Y-7917725D01*
X31616463Y-7912952D01*
X31616908Y-7908271D01*
X31616756Y-7903676D01*
X31616049Y-7899161D01*
X31614828Y-7894721D01*
X31613133Y-7890351D01*
X31611005Y-7886045D01*
X31608485Y-7881797D01*
X31605614Y-7877603D01*
X31602432Y-7873456D01*
X31598980Y-7869351D01*
X31591430Y-7861246D01*
X31583290Y-7853244D01*
X31566545Y-7837371D01*
X31558592Y-7829413D01*
X31551353Y-7821381D01*
X31548104Y-7817324D01*
X31545155Y-7813233D01*
X31542549Y-7809101D01*
X31540325Y-7804924D01*
X31538524Y-7800695D01*
X31537187Y-7796409D01*
X31536355Y-7792062D01*
X31536069Y-7787646D01*
X31538689Y-7754355D01*
X31545476Y-7722420D01*
X31556229Y-7691834D01*
X31570747Y-7662593D01*
X31588829Y-7634689D01*
X31610274Y-7608118D01*
X31634881Y-7582873D01*
X31662449Y-7558948D01*
X31692775Y-7536337D01*
X31725661Y-7515034D01*
X31798302Y-7476329D01*
X31878764Y-7442786D01*
X31965438Y-7414357D01*
X32056715Y-7390995D01*
X32150985Y-7372651D01*
X32246641Y-7359278D01*
X32342074Y-7350828D01*
X32435674Y-7347255D01*
X32525832Y-7348510D01*
X33095626Y-6958292D02*
X33146671Y-6977329D01*
X33201843Y-6995525D01*
X33260214Y-7013307D01*
X33382846Y-7049343D01*
X33445252Y-7068453D01*
X33507148Y-7088864D01*
X33567608Y-7111002D01*
X33625705Y-7135296D01*
X33680510Y-7162174D01*
X33706389Y-7176716D01*
X33731097Y-7192065D01*
X33754519Y-7208274D01*
X33776539Y-7225397D01*
X33797041Y-7243487D01*
X33815909Y-7262598D01*
X33833026Y-7282784D01*
X33848278Y-7304097D01*
X33861549Y-7326592D01*
X33872721Y-7350322D01*
X33874009Y-7353655D01*
X33874610Y-7356194D01*
X33874556Y-7357997D01*
X33873879Y-7359120D01*
X33872610Y-7359619D01*
X33870780Y-7359550D01*
X33865567Y-7357933D01*
X33828627Y-7340009D01*
X33816634Y-7334915D01*
X33804044Y-7330477D01*
X33797604Y-7328644D01*
X33791109Y-7327144D01*
X33784592Y-7326033D01*
X33778083Y-7325367D01*
X33771614Y-7325202D01*
X33765218Y-7325596D01*
X33758925Y-7326603D01*
X33752767Y-7328281D01*
X33746776Y-7330686D01*
X33740983Y-7333873D01*
X33735420Y-7337900D01*
X33730118Y-7342822D01*
X33725248Y-7348372D01*
X33720937Y-7353779D01*
X33717159Y-7359048D01*
X33713888Y-7364180D01*
X33711097Y-7369181D01*
X33708760Y-7374054D01*
X33706849Y-7378802D01*
X33705339Y-7383429D01*
X33704203Y-7387940D01*
X33703413Y-7392336D01*
X33702945Y-7396623D01*
X33702770Y-7400804D01*
X33702863Y-7404883D01*
X33703197Y-7408862D01*
X33703745Y-7412746D01*
X33704481Y-7416539D01*
X33705378Y-7420244D01*
X33706410Y-7423865D01*
X33708772Y-7430869D01*
X33713942Y-7444027D01*
X33716325Y-7450241D01*
X33718291Y-7456249D01*
X33719050Y-7459186D01*
X33719626Y-7462082D01*
X33719991Y-7464942D01*
X33720118Y-7467769D01*
X33720092Y-7470237D01*
X33719560Y-7472051D01*
X33718542Y-7473259D01*
X33717059Y-7473910D01*
X33715133Y-7474052D01*
X33712785Y-7473733D01*
X33706905Y-7471909D01*
X33670707Y-7455900D01*
X33659330Y-7451660D01*
X33647360Y-7448100D01*
X33641205Y-7446697D01*
X33634965Y-7445610D01*
X33628661Y-7444887D01*
X33622313Y-7444576D01*
X33615944Y-7444727D01*
X33609573Y-7445387D01*
X33603223Y-7446606D01*
X33596914Y-7448432D01*
X33590668Y-7450912D01*
X33584504Y-7454097D01*
X33578446Y-7458034D01*
X33572512Y-7462771D01*
X33566783Y-7468159D01*
X33561764Y-7473542D01*
X33557420Y-7478915D01*
X33553713Y-7484272D01*
X33550607Y-7489610D01*
X33548065Y-7494922D01*
X33546051Y-7500204D01*
X33544528Y-7505451D01*
X33543460Y-7510657D01*
X33542809Y-7515818D01*
X33542539Y-7520929D01*
X33542614Y-7525984D01*
X33542996Y-7530979D01*
X33543650Y-7535909D01*
X33544538Y-7540768D01*
X33545624Y-7545551D01*
X33548243Y-7554872D01*
X33551214Y-7563830D01*
X33557039Y-7580498D01*
X33559307Y-7588127D01*
X33560152Y-7591748D01*
X33560754Y-7595233D01*
X33561078Y-7598578D01*
X33561087Y-7601776D01*
X33560745Y-7604823D01*
X33560013Y-7607715D01*
X33558531Y-7610827D01*
X33556455Y-7613170D01*
X33553819Y-7614794D01*
X33550661Y-7615748D01*
X33547015Y-7616084D01*
X33542917Y-7615852D01*
X33538403Y-7615101D01*
X33533510Y-7613884D01*
X33522724Y-7610246D01*
X33510847Y-7605342D01*
X33484959Y-7593346D01*
X33458134Y-7581115D01*
X33445084Y-7575918D01*
X33432657Y-7571871D01*
X33426766Y-7570404D01*
X33421139Y-7569375D01*
X33415810Y-7568836D01*
X33410815Y-7568835D01*
X33406191Y-7569424D01*
X33401973Y-7570652D01*
X33398196Y-7572570D01*
X33394896Y-7575229D01*
X33391776Y-7578346D01*
X33388972Y-7581597D01*
X33386463Y-7584973D01*
X33384226Y-7588460D01*
X33382240Y-7592048D01*
X33380483Y-7595726D01*
X33378935Y-7599481D01*
X33377573Y-7603302D01*
X33375324Y-7611098D01*
X33373561Y-7619023D01*
X33370811Y-7634890D01*
X33369478Y-7642649D01*
X33367944Y-7650171D01*
X33366036Y-7657364D01*
X33364888Y-7660808D01*
X33363582Y-7664135D01*
X33362096Y-7667335D01*
X33360409Y-7670395D01*
X33358500Y-7673304D01*
X33356346Y-7676050D01*
X33353927Y-7678623D01*
X33351220Y-7681010D01*
X33348205Y-7683201D01*
X33344859Y-7685184D01*
X33339572Y-7686684D01*
X33333140Y-7686558D01*
X33325637Y-7684893D01*
X33317134Y-7681776D01*
X33307704Y-7677293D01*
X33297419Y-7671532D01*
X33274575Y-7656522D01*
X33249179Y-7637441D01*
X33221813Y-7614986D01*
X33193053Y-7589851D01*
X33163480Y-7562732D01*
X33104210Y-7505324D01*
X33048633Y-7448325D01*
X33001383Y-7397301D01*
X32967091Y-7357814D01*
X32967076Y-7357814D01*
X32974902Y-7336902D01*
X32982424Y-7314561D01*
X32989631Y-7290947D01*
X32996512Y-7266212D01*
X33009251Y-7213997D01*
X33020554Y-7159146D01*
X33030331Y-7102888D01*
X33038496Y-7046456D01*
X33044960Y-6991077D01*
X33049634Y-6937984D01*
X33095626Y-6958292D01*
D11*
X30573856Y-8026450D02*
X30573734Y-8026469D01*
X30573742Y-8026332D01*
X30573856Y-8026450D01*
G36*
X30573856Y-8026450D02*
G01*
X30573734Y-8026469D01*
X30573742Y-8026332D01*
X30573856Y-8026450D01*
G37*
X26895733Y-4786559D02*
X26824759Y-4860762D01*
X26758600Y-4936843D01*
X26697072Y-5014551D01*
X26639993Y-5093632D01*
X26587179Y-5173833D01*
X26538448Y-5254902D01*
X26493617Y-5336586D01*
X26452502Y-5418632D01*
X26414922Y-5500788D01*
X26380692Y-5582799D01*
X26349629Y-5664414D01*
X26321552Y-5745380D01*
X26296276Y-5825444D01*
X26273620Y-5904352D01*
X26253399Y-5981853D01*
X26245922Y-6014434D01*
X26239585Y-6046934D01*
X26234340Y-6079345D01*
X26230138Y-6111655D01*
X26226930Y-6143858D01*
X26224667Y-6175942D01*
X26223300Y-6207898D01*
X26222780Y-6239719D01*
X26210309Y-6274965D01*
X26196850Y-6309977D01*
X26182446Y-6344800D01*
X26167142Y-6379486D01*
X26150980Y-6414082D01*
X26134005Y-6448636D01*
X26097789Y-6517815D01*
X26058844Y-6587412D01*
X26017520Y-6657816D01*
X25929131Y-6802600D01*
X24928415Y-4717846D01*
X26971696Y-4714496D01*
X26895733Y-4786559D01*
G36*
X26895733Y-4786559D02*
G01*
X26824759Y-4860762D01*
X26758600Y-4936843D01*
X26697072Y-5014551D01*
X26639993Y-5093632D01*
X26587179Y-5173833D01*
X26538448Y-5254902D01*
X26493617Y-5336586D01*
X26452502Y-5418632D01*
X26414922Y-5500788D01*
X26380692Y-5582799D01*
X26349629Y-5664414D01*
X26321552Y-5745380D01*
X26296276Y-5825444D01*
X26273620Y-5904352D01*
X26253399Y-5981853D01*
X26245922Y-6014434D01*
X26239585Y-6046934D01*
X26234340Y-6079345D01*
X26230138Y-6111655D01*
X26226930Y-6143858D01*
X26224667Y-6175942D01*
X26223300Y-6207898D01*
X26222780Y-6239719D01*
X26210309Y-6274965D01*
X26196850Y-6309977D01*
X26182446Y-6344800D01*
X26167142Y-6379486D01*
X26150980Y-6414082D01*
X26134005Y-6448636D01*
X26097789Y-6517815D01*
X26058844Y-6587412D01*
X26017520Y-6657816D01*
X25929131Y-6802600D01*
X24928415Y-4717846D01*
X26971696Y-4714496D01*
X26895733Y-4786559D01*
G37*
D12*
X16428962Y-57953314D02*
X16428962Y-58255695D01*
X16731343Y-58134742D02*
X16428962Y-58255695D01*
X16428962Y-58255695D02*
X16126581Y-58134742D01*
X16610391Y-58497599D02*
X16428962Y-58255695D01*
X16428962Y-58255695D02*
X16247533Y-58497599D01*
X14675153Y-59223314D02*
X14675153Y-57953314D01*
X14070391Y-58376647D02*
X14070391Y-59223314D01*
X14070391Y-58497599D02*
X14009914Y-58437123D01*
X14009914Y-58437123D02*
X13888962Y-58376647D01*
X13888962Y-58376647D02*
X13707533Y-58376647D01*
X13707533Y-58376647D02*
X13586581Y-58437123D01*
X13586581Y-58437123D02*
X13526105Y-58558076D01*
X13526105Y-58558076D02*
X13526105Y-59223314D01*
X12921343Y-58376647D02*
X12921343Y-59646647D01*
X12921343Y-58437123D02*
X12800390Y-58376647D01*
X12800390Y-58376647D02*
X12558485Y-58376647D01*
X12558485Y-58376647D02*
X12437533Y-58437123D01*
X12437533Y-58437123D02*
X12377057Y-58497599D01*
X12377057Y-58497599D02*
X12316581Y-58618552D01*
X12316581Y-58618552D02*
X12316581Y-58981409D01*
X12316581Y-58981409D02*
X12377057Y-59102361D01*
X12377057Y-59102361D02*
X12437533Y-59162838D01*
X12437533Y-59162838D02*
X12558485Y-59223314D01*
X12558485Y-59223314D02*
X12800390Y-59223314D01*
X12800390Y-59223314D02*
X12921343Y-59162838D01*
X11228009Y-58376647D02*
X11228009Y-59223314D01*
X11772295Y-58376647D02*
X11772295Y-59041885D01*
X11772295Y-59041885D02*
X11711818Y-59162838D01*
X11711818Y-59162838D02*
X11590866Y-59223314D01*
X11590866Y-59223314D02*
X11409437Y-59223314D01*
X11409437Y-59223314D02*
X11288485Y-59162838D01*
X11288485Y-59162838D02*
X11228009Y-59102361D01*
X10804675Y-58376647D02*
X10320866Y-58376647D01*
X10623247Y-57953314D02*
X10623247Y-59041885D01*
X10623247Y-59041885D02*
X10562770Y-59162838D01*
X10562770Y-59162838D02*
X10441818Y-59223314D01*
X10441818Y-59223314D02*
X10320866Y-59223314D01*
X8929914Y-58376647D02*
X8929914Y-59646647D01*
X8929914Y-58437123D02*
X8808961Y-58376647D01*
X8808961Y-58376647D02*
X8567056Y-58376647D01*
X8567056Y-58376647D02*
X8446104Y-58437123D01*
X8446104Y-58437123D02*
X8385628Y-58497599D01*
X8385628Y-58497599D02*
X8325152Y-58618552D01*
X8325152Y-58618552D02*
X8325152Y-58981409D01*
X8325152Y-58981409D02*
X8385628Y-59102361D01*
X8385628Y-59102361D02*
X8446104Y-59162838D01*
X8446104Y-59162838D02*
X8567056Y-59223314D01*
X8567056Y-59223314D02*
X8808961Y-59223314D01*
X8808961Y-59223314D02*
X8929914Y-59162838D01*
X7236580Y-58376647D02*
X7236580Y-59223314D01*
X7780866Y-58376647D02*
X7780866Y-59041885D01*
X7780866Y-59041885D02*
X7720389Y-59162838D01*
X7720389Y-59162838D02*
X7599437Y-59223314D01*
X7599437Y-59223314D02*
X7418008Y-59223314D01*
X7418008Y-59223314D02*
X7297056Y-59162838D01*
X7297056Y-59162838D02*
X7236580Y-59102361D01*
X6450389Y-59223314D02*
X6571341Y-59162838D01*
X6571341Y-59162838D02*
X6631818Y-59041885D01*
X6631818Y-59041885D02*
X6631818Y-57953314D01*
X5785151Y-59223314D02*
X5906103Y-59162838D01*
X5906103Y-59162838D02*
X5966580Y-59041885D01*
X5966580Y-59041885D02*
X5966580Y-57953314D01*
X5301342Y-58739504D02*
X4333723Y-58739504D01*
X3184675Y-58376647D02*
X3184675Y-59223314D01*
X3728961Y-58376647D02*
X3728961Y-59041885D01*
X3728961Y-59041885D02*
X3668484Y-59162838D01*
X3668484Y-59162838D02*
X3547532Y-59223314D01*
X3547532Y-59223314D02*
X3366103Y-59223314D01*
X3366103Y-59223314D02*
X3245151Y-59162838D01*
X3245151Y-59162838D02*
X3184675Y-59102361D01*
X2579913Y-58376647D02*
X2579913Y-59646647D01*
X2579913Y-58437123D02*
X2458960Y-58376647D01*
X2458960Y-58376647D02*
X2217055Y-58376647D01*
X2217055Y-58376647D02*
X2096103Y-58437123D01*
X2096103Y-58437123D02*
X2035627Y-58497599D01*
X2035627Y-58497599D02*
X1975151Y-58618552D01*
X1975151Y-58618552D02*
X1975151Y-58981409D01*
X1975151Y-58981409D02*
X2035627Y-59102361D01*
X2035627Y-59102361D02*
X2096103Y-59162838D01*
X2096103Y-59162838D02*
X2217055Y-59223314D01*
X2217055Y-59223314D02*
X2458960Y-59223314D01*
X2458960Y-59223314D02*
X2579913Y-59162838D01*
X12649199Y-61267943D02*
X12649199Y-60421276D01*
X12649199Y-60663181D02*
X12588722Y-60542228D01*
X12588722Y-60542228D02*
X12528246Y-60481752D01*
X12528246Y-60481752D02*
X12407294Y-60421276D01*
X12407294Y-60421276D02*
X12286341Y-60421276D01*
X11379199Y-61207467D02*
X11500151Y-61267943D01*
X11500151Y-61267943D02*
X11742056Y-61267943D01*
X11742056Y-61267943D02*
X11863009Y-61207467D01*
X11863009Y-61207467D02*
X11923485Y-61086514D01*
X11923485Y-61086514D02*
X11923485Y-60602705D01*
X11923485Y-60602705D02*
X11863009Y-60481752D01*
X11863009Y-60481752D02*
X11742056Y-60421276D01*
X11742056Y-60421276D02*
X11500151Y-60421276D01*
X11500151Y-60421276D02*
X11379199Y-60481752D01*
X11379199Y-60481752D02*
X11318723Y-60602705D01*
X11318723Y-60602705D02*
X11318723Y-60723657D01*
X11318723Y-60723657D02*
X11923485Y-60844609D01*
X10834914Y-61207467D02*
X10713961Y-61267943D01*
X10713961Y-61267943D02*
X10472057Y-61267943D01*
X10472057Y-61267943D02*
X10351104Y-61207467D01*
X10351104Y-61207467D02*
X10290628Y-61086514D01*
X10290628Y-61086514D02*
X10290628Y-61026038D01*
X10290628Y-61026038D02*
X10351104Y-60905086D01*
X10351104Y-60905086D02*
X10472057Y-60844609D01*
X10472057Y-60844609D02*
X10653485Y-60844609D01*
X10653485Y-60844609D02*
X10774438Y-60784133D01*
X10774438Y-60784133D02*
X10834914Y-60663181D01*
X10834914Y-60663181D02*
X10834914Y-60602705D01*
X10834914Y-60602705D02*
X10774438Y-60481752D01*
X10774438Y-60481752D02*
X10653485Y-60421276D01*
X10653485Y-60421276D02*
X10472057Y-60421276D01*
X10472057Y-60421276D02*
X10351104Y-60481752D01*
X9746343Y-61267943D02*
X9746343Y-60421276D01*
X9746343Y-59997943D02*
X9806819Y-60058419D01*
X9806819Y-60058419D02*
X9746343Y-60118895D01*
X9746343Y-60118895D02*
X9685866Y-60058419D01*
X9685866Y-60058419D02*
X9746343Y-59997943D01*
X9746343Y-59997943D02*
X9746343Y-60118895D01*
X9202057Y-61207467D02*
X9081104Y-61267943D01*
X9081104Y-61267943D02*
X8839200Y-61267943D01*
X8839200Y-61267943D02*
X8718247Y-61207467D01*
X8718247Y-61207467D02*
X8657771Y-61086514D01*
X8657771Y-61086514D02*
X8657771Y-61026038D01*
X8657771Y-61026038D02*
X8718247Y-60905086D01*
X8718247Y-60905086D02*
X8839200Y-60844609D01*
X8839200Y-60844609D02*
X9020628Y-60844609D01*
X9020628Y-60844609D02*
X9141581Y-60784133D01*
X9141581Y-60784133D02*
X9202057Y-60663181D01*
X9202057Y-60663181D02*
X9202057Y-60602705D01*
X9202057Y-60602705D02*
X9141581Y-60481752D01*
X9141581Y-60481752D02*
X9020628Y-60421276D01*
X9020628Y-60421276D02*
X8839200Y-60421276D01*
X8839200Y-60421276D02*
X8718247Y-60481752D01*
X8294914Y-60421276D02*
X7811105Y-60421276D01*
X8113486Y-59997943D02*
X8113486Y-61086514D01*
X8113486Y-61086514D02*
X8053009Y-61207467D01*
X8053009Y-61207467D02*
X7932057Y-61267943D01*
X7932057Y-61267943D02*
X7811105Y-61267943D01*
X7206343Y-61267943D02*
X7327295Y-61207467D01*
X7327295Y-61207467D02*
X7387772Y-61146990D01*
X7387772Y-61146990D02*
X7448248Y-61026038D01*
X7448248Y-61026038D02*
X7448248Y-60663181D01*
X7448248Y-60663181D02*
X7387772Y-60542228D01*
X7387772Y-60542228D02*
X7327295Y-60481752D01*
X7327295Y-60481752D02*
X7206343Y-60421276D01*
X7206343Y-60421276D02*
X7024914Y-60421276D01*
X7024914Y-60421276D02*
X6903962Y-60481752D01*
X6903962Y-60481752D02*
X6843486Y-60542228D01*
X6843486Y-60542228D02*
X6783010Y-60663181D01*
X6783010Y-60663181D02*
X6783010Y-61026038D01*
X6783010Y-61026038D02*
X6843486Y-61146990D01*
X6843486Y-61146990D02*
X6903962Y-61207467D01*
X6903962Y-61207467D02*
X7024914Y-61267943D01*
X7024914Y-61267943D02*
X7206343Y-61267943D01*
X6238724Y-61267943D02*
X6238724Y-60421276D01*
X6238724Y-60663181D02*
X6178247Y-60542228D01*
X6178247Y-60542228D02*
X6117771Y-60481752D01*
X6117771Y-60481752D02*
X5996819Y-60421276D01*
X5996819Y-60421276D02*
X5875866Y-60421276D01*
X5513010Y-61207467D02*
X5392057Y-61267943D01*
X5392057Y-61267943D02*
X5150153Y-61267943D01*
X5150153Y-61267943D02*
X5029200Y-61207467D01*
X5029200Y-61207467D02*
X4968724Y-61086514D01*
X4968724Y-61086514D02*
X4968724Y-61026038D01*
X4968724Y-61026038D02*
X5029200Y-60905086D01*
X5029200Y-60905086D02*
X5150153Y-60844609D01*
X5150153Y-60844609D02*
X5331581Y-60844609D01*
X5331581Y-60844609D02*
X5452534Y-60784133D01*
X5452534Y-60784133D02*
X5513010Y-60663181D01*
X5513010Y-60663181D02*
X5513010Y-60602705D01*
X5513010Y-60602705D02*
X5452534Y-60481752D01*
X5452534Y-60481752D02*
X5331581Y-60421276D01*
X5331581Y-60421276D02*
X5150153Y-60421276D01*
X5150153Y-60421276D02*
X5029200Y-60481752D01*
X13858724Y-63312572D02*
X13858724Y-62647334D01*
X13858724Y-62647334D02*
X13919200Y-62526381D01*
X13919200Y-62526381D02*
X14040152Y-62465905D01*
X14040152Y-62465905D02*
X14282057Y-62465905D01*
X14282057Y-62465905D02*
X14403010Y-62526381D01*
X13858724Y-63252096D02*
X13979676Y-63312572D01*
X13979676Y-63312572D02*
X14282057Y-63312572D01*
X14282057Y-63312572D02*
X14403010Y-63252096D01*
X14403010Y-63252096D02*
X14463486Y-63131143D01*
X14463486Y-63131143D02*
X14463486Y-63010191D01*
X14463486Y-63010191D02*
X14403010Y-62889238D01*
X14403010Y-62889238D02*
X14282057Y-62828762D01*
X14282057Y-62828762D02*
X13979676Y-62828762D01*
X13979676Y-62828762D02*
X13858724Y-62768286D01*
X13253962Y-63312572D02*
X13253962Y-62465905D01*
X13253962Y-62707810D02*
X13193485Y-62586857D01*
X13193485Y-62586857D02*
X13133009Y-62526381D01*
X13133009Y-62526381D02*
X13012057Y-62465905D01*
X13012057Y-62465905D02*
X12891104Y-62465905D01*
X11983962Y-63252096D02*
X12104914Y-63312572D01*
X12104914Y-63312572D02*
X12346819Y-63312572D01*
X12346819Y-63312572D02*
X12467772Y-63252096D01*
X12467772Y-63252096D02*
X12528248Y-63131143D01*
X12528248Y-63131143D02*
X12528248Y-62647334D01*
X12528248Y-62647334D02*
X12467772Y-62526381D01*
X12467772Y-62526381D02*
X12346819Y-62465905D01*
X12346819Y-62465905D02*
X12104914Y-62465905D01*
X12104914Y-62465905D02*
X11983962Y-62526381D01*
X11983962Y-62526381D02*
X11923486Y-62647334D01*
X11923486Y-62647334D02*
X11923486Y-62768286D01*
X11923486Y-62768286D02*
X12528248Y-62889238D01*
X10230153Y-63312572D02*
X10351105Y-63252096D01*
X10351105Y-63252096D02*
X10411582Y-63191619D01*
X10411582Y-63191619D02*
X10472058Y-63070667D01*
X10472058Y-63070667D02*
X10472058Y-62707810D01*
X10472058Y-62707810D02*
X10411582Y-62586857D01*
X10411582Y-62586857D02*
X10351105Y-62526381D01*
X10351105Y-62526381D02*
X10230153Y-62465905D01*
X10230153Y-62465905D02*
X10048724Y-62465905D01*
X10048724Y-62465905D02*
X9927772Y-62526381D01*
X9927772Y-62526381D02*
X9867296Y-62586857D01*
X9867296Y-62586857D02*
X9806820Y-62707810D01*
X9806820Y-62707810D02*
X9806820Y-63070667D01*
X9806820Y-63070667D02*
X9867296Y-63191619D01*
X9867296Y-63191619D02*
X9927772Y-63252096D01*
X9927772Y-63252096D02*
X10048724Y-63312572D01*
X10048724Y-63312572D02*
X10230153Y-63312572D01*
X9262534Y-62465905D02*
X9262534Y-63735905D01*
X9262534Y-62526381D02*
X9141581Y-62465905D01*
X9141581Y-62465905D02*
X8899676Y-62465905D01*
X8899676Y-62465905D02*
X8778724Y-62526381D01*
X8778724Y-62526381D02*
X8718248Y-62586857D01*
X8718248Y-62586857D02*
X8657772Y-62707810D01*
X8657772Y-62707810D02*
X8657772Y-63070667D01*
X8657772Y-63070667D02*
X8718248Y-63191619D01*
X8718248Y-63191619D02*
X8778724Y-63252096D01*
X8778724Y-63252096D02*
X8899676Y-63312572D01*
X8899676Y-63312572D02*
X9141581Y-63312572D01*
X9141581Y-63312572D02*
X9262534Y-63252096D01*
X8294914Y-62465905D02*
X7811105Y-62465905D01*
X8113486Y-62042572D02*
X8113486Y-63131143D01*
X8113486Y-63131143D02*
X8053009Y-63252096D01*
X8053009Y-63252096D02*
X7932057Y-63312572D01*
X7932057Y-63312572D02*
X7811105Y-63312572D01*
X7387772Y-63312572D02*
X7387772Y-62465905D01*
X7387772Y-62042572D02*
X7448248Y-62103048D01*
X7448248Y-62103048D02*
X7387772Y-62163524D01*
X7387772Y-62163524D02*
X7327295Y-62103048D01*
X7327295Y-62103048D02*
X7387772Y-62042572D01*
X7387772Y-62042572D02*
X7387772Y-62163524D01*
X6601581Y-63312572D02*
X6722533Y-63252096D01*
X6722533Y-63252096D02*
X6783010Y-63191619D01*
X6783010Y-63191619D02*
X6843486Y-63070667D01*
X6843486Y-63070667D02*
X6843486Y-62707810D01*
X6843486Y-62707810D02*
X6783010Y-62586857D01*
X6783010Y-62586857D02*
X6722533Y-62526381D01*
X6722533Y-62526381D02*
X6601581Y-62465905D01*
X6601581Y-62465905D02*
X6420152Y-62465905D01*
X6420152Y-62465905D02*
X6299200Y-62526381D01*
X6299200Y-62526381D02*
X6238724Y-62586857D01*
X6238724Y-62586857D02*
X6178248Y-62707810D01*
X6178248Y-62707810D02*
X6178248Y-63070667D01*
X6178248Y-63070667D02*
X6238724Y-63191619D01*
X6238724Y-63191619D02*
X6299200Y-63252096D01*
X6299200Y-63252096D02*
X6420152Y-63312572D01*
X6420152Y-63312572D02*
X6601581Y-63312572D01*
X5633962Y-62465905D02*
X5633962Y-63312572D01*
X5633962Y-62586857D02*
X5573485Y-62526381D01*
X5573485Y-62526381D02*
X5452533Y-62465905D01*
X5452533Y-62465905D02*
X5271104Y-62465905D01*
X5271104Y-62465905D02*
X5150152Y-62526381D01*
X5150152Y-62526381D02*
X5089676Y-62647334D01*
X5089676Y-62647334D02*
X5089676Y-63312572D01*
X3940628Y-63312572D02*
X3940628Y-62647334D01*
X3940628Y-62647334D02*
X4001104Y-62526381D01*
X4001104Y-62526381D02*
X4122056Y-62465905D01*
X4122056Y-62465905D02*
X4363961Y-62465905D01*
X4363961Y-62465905D02*
X4484914Y-62526381D01*
X3940628Y-63252096D02*
X4061580Y-63312572D01*
X4061580Y-63312572D02*
X4363961Y-63312572D01*
X4363961Y-63312572D02*
X4484914Y-63252096D01*
X4484914Y-63252096D02*
X4545390Y-63131143D01*
X4545390Y-63131143D02*
X4545390Y-63010191D01*
X4545390Y-63010191D02*
X4484914Y-62889238D01*
X4484914Y-62889238D02*
X4363961Y-62828762D01*
X4363961Y-62828762D02*
X4061580Y-62828762D01*
X4061580Y-62828762D02*
X3940628Y-62768286D01*
X3154437Y-63312572D02*
X3275389Y-63252096D01*
X3275389Y-63252096D02*
X3335866Y-63131143D01*
X3335866Y-63131143D02*
X3335866Y-62042572D01*
D13*
X35890200Y-16696837D02*
X36245800Y-16188837D01*
X36499800Y-16696837D02*
X36499800Y-15630037D01*
X36499800Y-15630037D02*
X36093400Y-15630037D01*
X36093400Y-15630037D02*
X35991800Y-15680837D01*
X35991800Y-15680837D02*
X35941000Y-15731637D01*
X35941000Y-15731637D02*
X35890200Y-15833237D01*
X35890200Y-15833237D02*
X35890200Y-15985637D01*
X35890200Y-15985637D02*
X35941000Y-16087237D01*
X35941000Y-16087237D02*
X35991800Y-16138037D01*
X35991800Y-16138037D02*
X36093400Y-16188837D01*
X36093400Y-16188837D02*
X36499800Y-16188837D01*
X35026600Y-16646037D02*
X35128200Y-16696837D01*
X35128200Y-16696837D02*
X35331400Y-16696837D01*
X35331400Y-16696837D02*
X35433000Y-16646037D01*
X35433000Y-16646037D02*
X35483800Y-16544437D01*
X35483800Y-16544437D02*
X35483800Y-16138037D01*
X35483800Y-16138037D02*
X35433000Y-16036437D01*
X35433000Y-16036437D02*
X35331400Y-15985637D01*
X35331400Y-15985637D02*
X35128200Y-15985637D01*
X35128200Y-15985637D02*
X35026600Y-16036437D01*
X35026600Y-16036437D02*
X34975800Y-16138037D01*
X34975800Y-16138037D02*
X34975800Y-16239637D01*
X34975800Y-16239637D02*
X35483800Y-16341237D01*
X34518600Y-16696837D02*
X34518600Y-15985637D01*
X34518600Y-16087237D02*
X34467800Y-16036437D01*
X34467800Y-16036437D02*
X34366200Y-15985637D01*
X34366200Y-15985637D02*
X34213800Y-15985637D01*
X34213800Y-15985637D02*
X34112200Y-16036437D01*
X34112200Y-16036437D02*
X34061400Y-16138037D01*
X34061400Y-16138037D02*
X34061400Y-16696837D01*
X34061400Y-16138037D02*
X34010600Y-16036437D01*
X34010600Y-16036437D02*
X33909000Y-15985637D01*
X33909000Y-15985637D02*
X33756600Y-15985637D01*
X33756600Y-15985637D02*
X33655000Y-16036437D01*
X33655000Y-16036437D02*
X33604200Y-16138037D01*
X33604200Y-16138037D02*
X33604200Y-16696837D01*
X32943800Y-16696837D02*
X33045400Y-16646037D01*
X33045400Y-16646037D02*
X33096200Y-16595237D01*
X33096200Y-16595237D02*
X33147000Y-16493637D01*
X33147000Y-16493637D02*
X33147000Y-16188837D01*
X33147000Y-16188837D02*
X33096200Y-16087237D01*
X33096200Y-16087237D02*
X33045400Y-16036437D01*
X33045400Y-16036437D02*
X32943800Y-15985637D01*
X32943800Y-15985637D02*
X32791400Y-15985637D01*
X32791400Y-15985637D02*
X32689800Y-16036437D01*
X32689800Y-16036437D02*
X32639000Y-16087237D01*
X32639000Y-16087237D02*
X32588200Y-16188837D01*
X32588200Y-16188837D02*
X32588200Y-16493637D01*
X32588200Y-16493637D02*
X32639000Y-16595237D01*
X32639000Y-16595237D02*
X32689800Y-16646037D01*
X32689800Y-16646037D02*
X32791400Y-16696837D01*
X32791400Y-16696837D02*
X32943800Y-16696837D01*
X32283400Y-15985637D02*
X31877000Y-15985637D01*
X32131000Y-15630037D02*
X32131000Y-16544437D01*
X32131000Y-16544437D02*
X32080200Y-16646037D01*
X32080200Y-16646037D02*
X31978600Y-16696837D01*
X31978600Y-16696837D02*
X31877000Y-16696837D01*
X31115000Y-16646037D02*
X31216600Y-16696837D01*
X31216600Y-16696837D02*
X31419800Y-16696837D01*
X31419800Y-16696837D02*
X31521400Y-16646037D01*
X31521400Y-16646037D02*
X31572200Y-16544437D01*
X31572200Y-16544437D02*
X31572200Y-16138037D01*
X31572200Y-16138037D02*
X31521400Y-16036437D01*
X31521400Y-16036437D02*
X31419800Y-15985637D01*
X31419800Y-15985637D02*
X31216600Y-15985637D01*
X31216600Y-15985637D02*
X31115000Y-16036437D01*
X31115000Y-16036437D02*
X31064200Y-16138037D01*
X31064200Y-16138037D02*
X31064200Y-16239637D01*
X31064200Y-16239637D02*
X31572200Y-16341237D01*
X29794200Y-16696837D02*
X29794200Y-15630037D01*
X29794200Y-15630037D02*
X29438600Y-16392037D01*
X29438600Y-16392037D02*
X29083000Y-15630037D01*
X29083000Y-15630037D02*
X29083000Y-16696837D01*
X28422600Y-16696837D02*
X28524200Y-16646037D01*
X28524200Y-16646037D02*
X28575000Y-16595237D01*
X28575000Y-16595237D02*
X28625800Y-16493637D01*
X28625800Y-16493637D02*
X28625800Y-16188837D01*
X28625800Y-16188837D02*
X28575000Y-16087237D01*
X28575000Y-16087237D02*
X28524200Y-16036437D01*
X28524200Y-16036437D02*
X28422600Y-15985637D01*
X28422600Y-15985637D02*
X28270200Y-15985637D01*
X28270200Y-15985637D02*
X28168600Y-16036437D01*
X28168600Y-16036437D02*
X28117800Y-16087237D01*
X28117800Y-16087237D02*
X28067000Y-16188837D01*
X28067000Y-16188837D02*
X28067000Y-16493637D01*
X28067000Y-16493637D02*
X28117800Y-16595237D01*
X28117800Y-16595237D02*
X28168600Y-16646037D01*
X28168600Y-16646037D02*
X28270200Y-16696837D01*
X28270200Y-16696837D02*
X28422600Y-16696837D01*
X27609800Y-15985637D02*
X27609800Y-16696837D01*
X27609800Y-16087237D02*
X27559000Y-16036437D01*
X27559000Y-16036437D02*
X27457400Y-15985637D01*
X27457400Y-15985637D02*
X27305000Y-15985637D01*
X27305000Y-15985637D02*
X27203400Y-16036437D01*
X27203400Y-16036437D02*
X27152600Y-16138037D01*
X27152600Y-16138037D02*
X27152600Y-16696837D01*
X26644600Y-16696837D02*
X26644600Y-15985637D01*
X26644600Y-15630037D02*
X26695400Y-15680837D01*
X26695400Y-15680837D02*
X26644600Y-15731637D01*
X26644600Y-15731637D02*
X26593800Y-15680837D01*
X26593800Y-15680837D02*
X26644600Y-15630037D01*
X26644600Y-15630037D02*
X26644600Y-15731637D01*
X26289000Y-15985637D02*
X25882600Y-15985637D01*
X26136600Y-15630037D02*
X26136600Y-16544437D01*
X26136600Y-16544437D02*
X26085800Y-16646037D01*
X26085800Y-16646037D02*
X25984200Y-16696837D01*
X25984200Y-16696837D02*
X25882600Y-16696837D01*
X25374600Y-16696837D02*
X25476200Y-16646037D01*
X25476200Y-16646037D02*
X25527000Y-16595237D01*
X25527000Y-16595237D02*
X25577800Y-16493637D01*
X25577800Y-16493637D02*
X25577800Y-16188837D01*
X25577800Y-16188837D02*
X25527000Y-16087237D01*
X25527000Y-16087237D02*
X25476200Y-16036437D01*
X25476200Y-16036437D02*
X25374600Y-15985637D01*
X25374600Y-15985637D02*
X25222200Y-15985637D01*
X25222200Y-15985637D02*
X25120600Y-16036437D01*
X25120600Y-16036437D02*
X25069800Y-16087237D01*
X25069800Y-16087237D02*
X25019000Y-16188837D01*
X25019000Y-16188837D02*
X25019000Y-16493637D01*
X25019000Y-16493637D02*
X25069800Y-16595237D01*
X25069800Y-16595237D02*
X25120600Y-16646037D01*
X25120600Y-16646037D02*
X25222200Y-16696837D01*
X25222200Y-16696837D02*
X25374600Y-16696837D01*
X24561800Y-16696837D02*
X24561800Y-15985637D01*
X24561800Y-16188837D02*
X24511000Y-16087237D01*
X24511000Y-16087237D02*
X24460200Y-16036437D01*
X24460200Y-16036437D02*
X24358600Y-15985637D01*
X24358600Y-15985637D02*
X24257000Y-15985637D01*
X23901400Y-16696837D02*
X23901400Y-15985637D01*
X23901400Y-15630037D02*
X23952200Y-15680837D01*
X23952200Y-15680837D02*
X23901400Y-15731637D01*
X23901400Y-15731637D02*
X23850600Y-15680837D01*
X23850600Y-15680837D02*
X23901400Y-15630037D01*
X23901400Y-15630037D02*
X23901400Y-15731637D01*
X23393400Y-15985637D02*
X23393400Y-16696837D01*
X23393400Y-16087237D02*
X23342600Y-16036437D01*
X23342600Y-16036437D02*
X23241000Y-15985637D01*
X23241000Y-15985637D02*
X23088600Y-15985637D01*
X23088600Y-15985637D02*
X22987000Y-16036437D01*
X22987000Y-16036437D02*
X22936200Y-16138037D01*
X22936200Y-16138037D02*
X22936200Y-16696837D01*
X21971000Y-15985637D02*
X21971000Y-16849237D01*
X21971000Y-16849237D02*
X22021800Y-16950837D01*
X22021800Y-16950837D02*
X22072600Y-17001637D01*
X22072600Y-17001637D02*
X22174200Y-17052437D01*
X22174200Y-17052437D02*
X22326600Y-17052437D01*
X22326600Y-17052437D02*
X22428200Y-17001637D01*
X21971000Y-16646037D02*
X22072600Y-16696837D01*
X22072600Y-16696837D02*
X22275800Y-16696837D01*
X22275800Y-16696837D02*
X22377400Y-16646037D01*
X22377400Y-16646037D02*
X22428200Y-16595237D01*
X22428200Y-16595237D02*
X22479000Y-16493637D01*
X22479000Y-16493637D02*
X22479000Y-16188837D01*
X22479000Y-16188837D02*
X22428200Y-16087237D01*
X22428200Y-16087237D02*
X22377400Y-16036437D01*
X22377400Y-16036437D02*
X22275800Y-15985637D01*
X22275800Y-15985637D02*
X22072600Y-15985637D01*
X22072600Y-15985637D02*
X21971000Y-16036437D01*
X39141400Y-18414325D02*
X39141400Y-17347525D01*
X39141400Y-17347525D02*
X38887400Y-17347525D01*
X38887400Y-17347525D02*
X38735000Y-17398325D01*
X38735000Y-17398325D02*
X38633400Y-17499925D01*
X38633400Y-17499925D02*
X38582600Y-17601525D01*
X38582600Y-17601525D02*
X38531800Y-17804725D01*
X38531800Y-17804725D02*
X38531800Y-17957125D01*
X38531800Y-17957125D02*
X38582600Y-18160325D01*
X38582600Y-18160325D02*
X38633400Y-18261925D01*
X38633400Y-18261925D02*
X38735000Y-18363525D01*
X38735000Y-18363525D02*
X38887400Y-18414325D01*
X38887400Y-18414325D02*
X39141400Y-18414325D01*
X38074600Y-18414325D02*
X38074600Y-17703125D01*
X38074600Y-17347525D02*
X38125400Y-17398325D01*
X38125400Y-17398325D02*
X38074600Y-17449125D01*
X38074600Y-17449125D02*
X38023800Y-17398325D01*
X38023800Y-17398325D02*
X38074600Y-17347525D01*
X38074600Y-17347525D02*
X38074600Y-17449125D01*
X37109400Y-17703125D02*
X37109400Y-18566725D01*
X37109400Y-18566725D02*
X37160200Y-18668325D01*
X37160200Y-18668325D02*
X37211000Y-18719125D01*
X37211000Y-18719125D02*
X37312600Y-18769925D01*
X37312600Y-18769925D02*
X37465000Y-18769925D01*
X37465000Y-18769925D02*
X37566600Y-18719125D01*
X37109400Y-18363525D02*
X37211000Y-18414325D01*
X37211000Y-18414325D02*
X37414200Y-18414325D01*
X37414200Y-18414325D02*
X37515800Y-18363525D01*
X37515800Y-18363525D02*
X37566600Y-18312725D01*
X37566600Y-18312725D02*
X37617400Y-18211125D01*
X37617400Y-18211125D02*
X37617400Y-17906325D01*
X37617400Y-17906325D02*
X37566600Y-17804725D01*
X37566600Y-17804725D02*
X37515800Y-17753925D01*
X37515800Y-17753925D02*
X37414200Y-17703125D01*
X37414200Y-17703125D02*
X37211000Y-17703125D01*
X37211000Y-17703125D02*
X37109400Y-17753925D01*
X36601400Y-18414325D02*
X36601400Y-17703125D01*
X36601400Y-17347525D02*
X36652200Y-17398325D01*
X36652200Y-17398325D02*
X36601400Y-17449125D01*
X36601400Y-17449125D02*
X36550600Y-17398325D01*
X36550600Y-17398325D02*
X36601400Y-17347525D01*
X36601400Y-17347525D02*
X36601400Y-17449125D01*
X36245800Y-17703125D02*
X35839400Y-17703125D01*
X36093400Y-17347525D02*
X36093400Y-18261925D01*
X36093400Y-18261925D02*
X36042600Y-18363525D01*
X36042600Y-18363525D02*
X35941000Y-18414325D01*
X35941000Y-18414325D02*
X35839400Y-18414325D01*
X35026600Y-18414325D02*
X35026600Y-17855525D01*
X35026600Y-17855525D02*
X35077400Y-17753925D01*
X35077400Y-17753925D02*
X35179000Y-17703125D01*
X35179000Y-17703125D02*
X35382200Y-17703125D01*
X35382200Y-17703125D02*
X35483800Y-17753925D01*
X35026600Y-18363525D02*
X35128200Y-18414325D01*
X35128200Y-18414325D02*
X35382200Y-18414325D01*
X35382200Y-18414325D02*
X35483800Y-18363525D01*
X35483800Y-18363525D02*
X35534600Y-18261925D01*
X35534600Y-18261925D02*
X35534600Y-18160325D01*
X35534600Y-18160325D02*
X35483800Y-18058725D01*
X35483800Y-18058725D02*
X35382200Y-18007925D01*
X35382200Y-18007925D02*
X35128200Y-18007925D01*
X35128200Y-18007925D02*
X35026600Y-17957125D01*
X34366200Y-18414325D02*
X34467800Y-18363525D01*
X34467800Y-18363525D02*
X34518600Y-18261925D01*
X34518600Y-18261925D02*
X34518600Y-17347525D01*
X33147000Y-18414325D02*
X33147000Y-17347525D01*
X32639000Y-17703125D02*
X32639000Y-18414325D01*
X32639000Y-17804725D02*
X32588200Y-17753925D01*
X32588200Y-17753925D02*
X32486600Y-17703125D01*
X32486600Y-17703125D02*
X32334200Y-17703125D01*
X32334200Y-17703125D02*
X32232600Y-17753925D01*
X32232600Y-17753925D02*
X32181800Y-17855525D01*
X32181800Y-17855525D02*
X32181800Y-18414325D01*
X31673800Y-17703125D02*
X31673800Y-18769925D01*
X31673800Y-17753925D02*
X31572200Y-17703125D01*
X31572200Y-17703125D02*
X31369000Y-17703125D01*
X31369000Y-17703125D02*
X31267400Y-17753925D01*
X31267400Y-17753925D02*
X31216600Y-17804725D01*
X31216600Y-17804725D02*
X31165800Y-17906325D01*
X31165800Y-17906325D02*
X31165800Y-18211125D01*
X31165800Y-18211125D02*
X31216600Y-18312725D01*
X31216600Y-18312725D02*
X31267400Y-18363525D01*
X31267400Y-18363525D02*
X31369000Y-18414325D01*
X31369000Y-18414325D02*
X31572200Y-18414325D01*
X31572200Y-18414325D02*
X31673800Y-18363525D01*
X30251400Y-17703125D02*
X30251400Y-18414325D01*
X30708600Y-17703125D02*
X30708600Y-18261925D01*
X30708600Y-18261925D02*
X30657800Y-18363525D01*
X30657800Y-18363525D02*
X30556200Y-18414325D01*
X30556200Y-18414325D02*
X30403800Y-18414325D01*
X30403800Y-18414325D02*
X30302200Y-18363525D01*
X30302200Y-18363525D02*
X30251400Y-18312725D01*
X29895800Y-17703125D02*
X29489400Y-17703125D01*
X29743400Y-17347525D02*
X29743400Y-18261925D01*
X29743400Y-18261925D02*
X29692600Y-18363525D01*
X29692600Y-18363525D02*
X29591000Y-18414325D01*
X29591000Y-18414325D02*
X29489400Y-18414325D01*
X27965400Y-17855525D02*
X27813000Y-17906325D01*
X27813000Y-17906325D02*
X27762200Y-17957125D01*
X27762200Y-17957125D02*
X27711400Y-18058725D01*
X27711400Y-18058725D02*
X27711400Y-18211125D01*
X27711400Y-18211125D02*
X27762200Y-18312725D01*
X27762200Y-18312725D02*
X27813000Y-18363525D01*
X27813000Y-18363525D02*
X27914600Y-18414325D01*
X27914600Y-18414325D02*
X28321000Y-18414325D01*
X28321000Y-18414325D02*
X28321000Y-17347525D01*
X28321000Y-17347525D02*
X27965400Y-17347525D01*
X27965400Y-17347525D02*
X27863800Y-17398325D01*
X27863800Y-17398325D02*
X27813000Y-17449125D01*
X27813000Y-17449125D02*
X27762200Y-17550725D01*
X27762200Y-17550725D02*
X27762200Y-17652325D01*
X27762200Y-17652325D02*
X27813000Y-17753925D01*
X27813000Y-17753925D02*
X27863800Y-17804725D01*
X27863800Y-17804725D02*
X27965400Y-17855525D01*
X27965400Y-17855525D02*
X28321000Y-17855525D01*
X27101800Y-18414325D02*
X27203400Y-18363525D01*
X27203400Y-18363525D02*
X27254200Y-18312725D01*
X27254200Y-18312725D02*
X27305000Y-18211125D01*
X27305000Y-18211125D02*
X27305000Y-17906325D01*
X27305000Y-17906325D02*
X27254200Y-17804725D01*
X27254200Y-17804725D02*
X27203400Y-17753925D01*
X27203400Y-17753925D02*
X27101800Y-17703125D01*
X27101800Y-17703125D02*
X26949400Y-17703125D01*
X26949400Y-17703125D02*
X26847800Y-17753925D01*
X26847800Y-17753925D02*
X26797000Y-17804725D01*
X26797000Y-17804725D02*
X26746200Y-17906325D01*
X26746200Y-17906325D02*
X26746200Y-18211125D01*
X26746200Y-18211125D02*
X26797000Y-18312725D01*
X26797000Y-18312725D02*
X26847800Y-18363525D01*
X26847800Y-18363525D02*
X26949400Y-18414325D01*
X26949400Y-18414325D02*
X27101800Y-18414325D01*
X25831800Y-18414325D02*
X25831800Y-17855525D01*
X25831800Y-17855525D02*
X25882600Y-17753925D01*
X25882600Y-17753925D02*
X25984200Y-17703125D01*
X25984200Y-17703125D02*
X26187400Y-17703125D01*
X26187400Y-17703125D02*
X26289000Y-17753925D01*
X25831800Y-18363525D02*
X25933400Y-18414325D01*
X25933400Y-18414325D02*
X26187400Y-18414325D01*
X26187400Y-18414325D02*
X26289000Y-18363525D01*
X26289000Y-18363525D02*
X26339800Y-18261925D01*
X26339800Y-18261925D02*
X26339800Y-18160325D01*
X26339800Y-18160325D02*
X26289000Y-18058725D01*
X26289000Y-18058725D02*
X26187400Y-18007925D01*
X26187400Y-18007925D02*
X25933400Y-18007925D01*
X25933400Y-18007925D02*
X25831800Y-17957125D01*
X25323800Y-18414325D02*
X25323800Y-17703125D01*
X25323800Y-17906325D02*
X25273000Y-17804725D01*
X25273000Y-17804725D02*
X25222200Y-17753925D01*
X25222200Y-17753925D02*
X25120600Y-17703125D01*
X25120600Y-17703125D02*
X25019000Y-17703125D01*
X24206200Y-18414325D02*
X24206200Y-17347525D01*
X24206200Y-18363525D02*
X24307800Y-18414325D01*
X24307800Y-18414325D02*
X24511000Y-18414325D01*
X24511000Y-18414325D02*
X24612600Y-18363525D01*
X24612600Y-18363525D02*
X24663400Y-18312725D01*
X24663400Y-18312725D02*
X24714200Y-18211125D01*
X24714200Y-18211125D02*
X24714200Y-17906325D01*
X24714200Y-17906325D02*
X24663400Y-17804725D01*
X24663400Y-17804725D02*
X24612600Y-17753925D01*
X24612600Y-17753925D02*
X24511000Y-17703125D01*
X24511000Y-17703125D02*
X24307800Y-17703125D01*
X24307800Y-17703125D02*
X24206200Y-17753925D01*
X22580600Y-18820725D02*
X22631400Y-18769925D01*
X22631400Y-18769925D02*
X22733000Y-18617525D01*
X22733000Y-18617525D02*
X22783800Y-18515925D01*
X22783800Y-18515925D02*
X22834600Y-18363525D01*
X22834600Y-18363525D02*
X22885400Y-18109525D01*
X22885400Y-18109525D02*
X22885400Y-17906325D01*
X22885400Y-17906325D02*
X22834600Y-17652325D01*
X22834600Y-17652325D02*
X22783800Y-17499925D01*
X22783800Y-17499925D02*
X22733000Y-17398325D01*
X22733000Y-17398325D02*
X22631400Y-17245925D01*
X22631400Y-17245925D02*
X22580600Y-17195125D01*
X22174200Y-18414325D02*
X22174200Y-17347525D01*
X21666200Y-18414325D02*
X21666200Y-17347525D01*
X21666200Y-17347525D02*
X21412200Y-17347525D01*
X21412200Y-17347525D02*
X21259800Y-17398325D01*
X21259800Y-17398325D02*
X21158200Y-17499925D01*
X21158200Y-17499925D02*
X21107400Y-17601525D01*
X21107400Y-17601525D02*
X21056600Y-17804725D01*
X21056600Y-17804725D02*
X21056600Y-17957125D01*
X21056600Y-17957125D02*
X21107400Y-18160325D01*
X21107400Y-18160325D02*
X21158200Y-18261925D01*
X21158200Y-18261925D02*
X21259800Y-18363525D01*
X21259800Y-18363525D02*
X21412200Y-18414325D01*
X21412200Y-18414325D02*
X21666200Y-18414325D01*
X19989800Y-18312725D02*
X20040600Y-18363525D01*
X20040600Y-18363525D02*
X20193000Y-18414325D01*
X20193000Y-18414325D02*
X20294600Y-18414325D01*
X20294600Y-18414325D02*
X20447000Y-18363525D01*
X20447000Y-18363525D02*
X20548600Y-18261925D01*
X20548600Y-18261925D02*
X20599400Y-18160325D01*
X20599400Y-18160325D02*
X20650200Y-17957125D01*
X20650200Y-17957125D02*
X20650200Y-17804725D01*
X20650200Y-17804725D02*
X20599400Y-17601525D01*
X20599400Y-17601525D02*
X20548600Y-17499925D01*
X20548600Y-17499925D02*
X20447000Y-17398325D01*
X20447000Y-17398325D02*
X20294600Y-17347525D01*
X20294600Y-17347525D02*
X20193000Y-17347525D01*
X20193000Y-17347525D02*
X20040600Y-17398325D01*
X20040600Y-17398325D02*
X19989800Y-17449125D01*
X19634200Y-18820725D02*
X19583400Y-18769925D01*
X19583400Y-18769925D02*
X19481800Y-18617525D01*
X19481800Y-18617525D02*
X19431000Y-18515925D01*
X19431000Y-18515925D02*
X19380200Y-18363525D01*
X19380200Y-18363525D02*
X19329400Y-18109525D01*
X19329400Y-18109525D02*
X19329400Y-17906325D01*
X19329400Y-17906325D02*
X19380200Y-17652325D01*
X19380200Y-17652325D02*
X19431000Y-17499925D01*
X19431000Y-17499925D02*
X19481800Y-17398325D01*
X19481800Y-17398325D02*
X19583400Y-17245925D01*
X19583400Y-17245925D02*
X19634200Y-17195125D01*
X34340800Y-23566789D02*
X34340800Y-22499989D01*
X34340800Y-22499989D02*
X33985200Y-23261989D01*
X33985200Y-23261989D02*
X33629600Y-22499989D01*
X33629600Y-22499989D02*
X33629600Y-23566789D01*
X32918400Y-22499989D02*
X32715200Y-22499989D01*
X32715200Y-22499989D02*
X32613600Y-22550789D01*
X32613600Y-22550789D02*
X32512000Y-22652389D01*
X32512000Y-22652389D02*
X32461200Y-22855589D01*
X32461200Y-22855589D02*
X32461200Y-23211189D01*
X32461200Y-23211189D02*
X32512000Y-23414389D01*
X32512000Y-23414389D02*
X32613600Y-23515989D01*
X32613600Y-23515989D02*
X32715200Y-23566789D01*
X32715200Y-23566789D02*
X32918400Y-23566789D01*
X32918400Y-23566789D02*
X33020000Y-23515989D01*
X33020000Y-23515989D02*
X33121600Y-23414389D01*
X33121600Y-23414389D02*
X33172400Y-23211189D01*
X33172400Y-23211189D02*
X33172400Y-22855589D01*
X33172400Y-22855589D02*
X33121600Y-22652389D01*
X33121600Y-22652389D02*
X33020000Y-22550789D01*
X33020000Y-22550789D02*
X32918400Y-22499989D01*
X32004000Y-23566789D02*
X32004000Y-22499989D01*
X32004000Y-22499989D02*
X31394400Y-23566789D01*
X31394400Y-23566789D02*
X31394400Y-22499989D01*
X30886400Y-23160389D02*
X30073600Y-23160389D01*
X29565600Y-23566789D02*
X29565600Y-22499989D01*
X29565600Y-22499989D02*
X29311600Y-22499989D01*
X29311600Y-22499989D02*
X29159200Y-22550789D01*
X29159200Y-22550789D02*
X29057600Y-22652389D01*
X29057600Y-22652389D02*
X29006800Y-22753989D01*
X29006800Y-22753989D02*
X28956000Y-22957189D01*
X28956000Y-22957189D02*
X28956000Y-23109589D01*
X28956000Y-23109589D02*
X29006800Y-23312789D01*
X29006800Y-23312789D02*
X29057600Y-23414389D01*
X29057600Y-23414389D02*
X29159200Y-23515989D01*
X29159200Y-23515989D02*
X29311600Y-23566789D01*
X29311600Y-23566789D02*
X29565600Y-23566789D01*
X28498800Y-23566789D02*
X28498800Y-22499989D01*
X28092400Y-22499989D02*
X27381200Y-23566789D01*
X27381200Y-22499989D02*
X28092400Y-23566789D01*
X26974800Y-23160389D02*
X26162000Y-23160389D01*
X25450800Y-22499989D02*
X25349200Y-22499989D01*
X25349200Y-22499989D02*
X25247600Y-22550789D01*
X25247600Y-22550789D02*
X25196800Y-22601589D01*
X25196800Y-22601589D02*
X25146000Y-22703189D01*
X25146000Y-22703189D02*
X25095200Y-22906389D01*
X25095200Y-22906389D02*
X25095200Y-23160389D01*
X25095200Y-23160389D02*
X25146000Y-23363589D01*
X25146000Y-23363589D02*
X25196800Y-23465189D01*
X25196800Y-23465189D02*
X25247600Y-23515989D01*
X25247600Y-23515989D02*
X25349200Y-23566789D01*
X25349200Y-23566789D02*
X25450800Y-23566789D01*
X25450800Y-23566789D02*
X25552400Y-23515989D01*
X25552400Y-23515989D02*
X25603200Y-23465189D01*
X25603200Y-23465189D02*
X25654000Y-23363589D01*
X25654000Y-23363589D02*
X25704800Y-23160389D01*
X25704800Y-23160389D02*
X25704800Y-22906389D01*
X25704800Y-22906389D02*
X25654000Y-22703189D01*
X25654000Y-22703189D02*
X25603200Y-22601589D01*
X25603200Y-22601589D02*
X25552400Y-22550789D01*
X25552400Y-22550789D02*
X25450800Y-22499989D01*
X24485600Y-22957189D02*
X24587200Y-22906389D01*
X24587200Y-22906389D02*
X24638000Y-22855589D01*
X24638000Y-22855589D02*
X24688800Y-22753989D01*
X24688800Y-22753989D02*
X24688800Y-22703189D01*
X24688800Y-22703189D02*
X24638000Y-22601589D01*
X24638000Y-22601589D02*
X24587200Y-22550789D01*
X24587200Y-22550789D02*
X24485600Y-22499989D01*
X24485600Y-22499989D02*
X24282400Y-22499989D01*
X24282400Y-22499989D02*
X24180800Y-22550789D01*
X24180800Y-22550789D02*
X24130000Y-22601589D01*
X24130000Y-22601589D02*
X24079200Y-22703189D01*
X24079200Y-22703189D02*
X24079200Y-22753989D01*
X24079200Y-22753989D02*
X24130000Y-22855589D01*
X24130000Y-22855589D02*
X24180800Y-22906389D01*
X24180800Y-22906389D02*
X24282400Y-22957189D01*
X24282400Y-22957189D02*
X24485600Y-22957189D01*
X24485600Y-22957189D02*
X24587200Y-23007989D01*
X24587200Y-23007989D02*
X24638000Y-23058789D01*
X24638000Y-23058789D02*
X24688800Y-23160389D01*
X24688800Y-23160389D02*
X24688800Y-23363589D01*
X24688800Y-23363589D02*
X24638000Y-23465189D01*
X24638000Y-23465189D02*
X24587200Y-23515989D01*
X24587200Y-23515989D02*
X24485600Y-23566789D01*
X24485600Y-23566789D02*
X24282400Y-23566789D01*
X24282400Y-23566789D02*
X24180800Y-23515989D01*
X24180800Y-23515989D02*
X24130000Y-23465189D01*
X24130000Y-23465189D02*
X24079200Y-23363589D01*
X24079200Y-23363589D02*
X24079200Y-23160389D01*
X24079200Y-23160389D02*
X24130000Y-23058789D01*
X24130000Y-23058789D02*
X24180800Y-23007989D01*
X24180800Y-23007989D02*
X24282400Y-22957189D01*
X32918400Y-24217477D02*
X32258000Y-24217477D01*
X32258000Y-24217477D02*
X32613600Y-24623877D01*
X32613600Y-24623877D02*
X32461200Y-24623877D01*
X32461200Y-24623877D02*
X32359600Y-24674677D01*
X32359600Y-24674677D02*
X32308800Y-24725477D01*
X32308800Y-24725477D02*
X32258000Y-24827077D01*
X32258000Y-24827077D02*
X32258000Y-25081077D01*
X32258000Y-25081077D02*
X32308800Y-25182677D01*
X32308800Y-25182677D02*
X32359600Y-25233477D01*
X32359600Y-25233477D02*
X32461200Y-25284277D01*
X32461200Y-25284277D02*
X32766000Y-25284277D01*
X32766000Y-25284277D02*
X32867600Y-25233477D01*
X32867600Y-25233477D02*
X32918400Y-25182677D01*
X31242000Y-24268277D02*
X31343600Y-24217477D01*
X31343600Y-24217477D02*
X31496000Y-24217477D01*
X31496000Y-24217477D02*
X31648400Y-24268277D01*
X31648400Y-24268277D02*
X31750000Y-24369877D01*
X31750000Y-24369877D02*
X31800800Y-24471477D01*
X31800800Y-24471477D02*
X31851600Y-24674677D01*
X31851600Y-24674677D02*
X31851600Y-24827077D01*
X31851600Y-24827077D02*
X31800800Y-25030277D01*
X31800800Y-25030277D02*
X31750000Y-25131877D01*
X31750000Y-25131877D02*
X31648400Y-25233477D01*
X31648400Y-25233477D02*
X31496000Y-25284277D01*
X31496000Y-25284277D02*
X31394400Y-25284277D01*
X31394400Y-25284277D02*
X31242000Y-25233477D01*
X31242000Y-25233477D02*
X31191200Y-25182677D01*
X31191200Y-25182677D02*
X31191200Y-24827077D01*
X31191200Y-24827077D02*
X31394400Y-24827077D01*
X30734000Y-25284277D02*
X30734000Y-24217477D01*
X30734000Y-24217477D02*
X30480000Y-24217477D01*
X30480000Y-24217477D02*
X30327600Y-24268277D01*
X30327600Y-24268277D02*
X30226000Y-24369877D01*
X30226000Y-24369877D02*
X30175200Y-24471477D01*
X30175200Y-24471477D02*
X30124400Y-24674677D01*
X30124400Y-24674677D02*
X30124400Y-24827077D01*
X30124400Y-24827077D02*
X30175200Y-25030277D01*
X30175200Y-25030277D02*
X30226000Y-25131877D01*
X30226000Y-25131877D02*
X30327600Y-25233477D01*
X30327600Y-25233477D02*
X30480000Y-25284277D01*
X30480000Y-25284277D02*
X30734000Y-25284277D01*
X29057600Y-25284277D02*
X29413200Y-24776277D01*
X29667200Y-25284277D02*
X29667200Y-24217477D01*
X29667200Y-24217477D02*
X29260800Y-24217477D01*
X29260800Y-24217477D02*
X29159200Y-24268277D01*
X29159200Y-24268277D02*
X29108400Y-24319077D01*
X29108400Y-24319077D02*
X29057600Y-24420677D01*
X29057600Y-24420677D02*
X29057600Y-24573077D01*
X29057600Y-24573077D02*
X29108400Y-24674677D01*
X29108400Y-24674677D02*
X29159200Y-24725477D01*
X29159200Y-24725477D02*
X29260800Y-24776277D01*
X29260800Y-24776277D02*
X29667200Y-24776277D01*
X28600400Y-24877877D02*
X27787600Y-24877877D01*
X26924000Y-24725477D02*
X27279600Y-24725477D01*
X27279600Y-25284277D02*
X27279600Y-24217477D01*
X27279600Y-24217477D02*
X26771600Y-24217477D01*
X26365200Y-25284277D02*
X26365200Y-24217477D01*
X26365200Y-24217477D02*
X26009600Y-24979477D01*
X26009600Y-24979477D02*
X25654000Y-24217477D01*
X25654000Y-24217477D02*
X25654000Y-25284277D01*
D14*
G36*
X33526289Y-2523579D02*
G01*
X33531640Y-2533853D01*
X33522514Y-2544878D01*
X33474410Y-2558900D01*
X33441430Y-2569070D01*
X33418462Y-2584652D01*
X33403222Y-2605584D01*
X33391008Y-2654628D01*
X33384998Y-2776187D01*
X33387635Y-3027595D01*
X33384998Y-3260624D01*
X33390194Y-3473181D01*
X33401674Y-3556413D01*
X33418421Y-3593146D01*
X33447510Y-3615975D01*
X33499535Y-3634168D01*
X33526551Y-3643272D01*
X33532493Y-3652625D01*
X33525979Y-3663016D01*
X33418809Y-3665653D01*
X33180274Y-3665653D01*
X33088303Y-3663791D01*
X33079014Y-3659635D01*
X33076128Y-3651539D01*
X33083019Y-3642321D01*
X33116065Y-3635874D01*
X33150104Y-3628953D01*
X33182445Y-3611292D01*
X33208803Y-3586807D01*
X33222382Y-3563833D01*
X33228930Y-3530085D01*
X33234479Y-3440301D01*
X33237504Y-3311495D01*
X33234945Y-3233250D01*
X33229749Y-3114603D01*
X33090940Y-3119721D01*
X32963061Y-3113838D01*
X32861628Y-3097871D01*
X32782098Y-3073944D01*
X32720497Y-3043570D01*
X32666225Y-3000415D01*
X32628456Y-2949285D01*
X32605380Y-2888699D01*
X32597275Y-2815969D01*
X32599678Y-2791386D01*
X32768189Y-2791386D01*
X32776941Y-2867311D01*
X32804248Y-2946403D01*
X32833266Y-2993704D01*
X32870915Y-3029413D01*
X32918320Y-3054892D01*
X32998388Y-3077352D01*
X33084891Y-3084980D01*
X33229749Y-3080637D01*
X33230602Y-3025501D01*
X33227112Y-2814573D01*
X33230602Y-2616595D01*
X33229749Y-2577822D01*
X33159898Y-2563949D01*
X33073569Y-2558900D01*
X32984405Y-2564312D01*
X32917966Y-2578667D01*
X32869347Y-2599790D01*
X32834569Y-2626521D01*
X32797663Y-2674908D01*
X32775717Y-2729215D01*
X32768189Y-2791386D01*
X32599678Y-2791386D01*
X32603299Y-2754341D01*
X32620835Y-2699342D01*
X32649866Y-2649556D01*
X32691417Y-2604033D01*
X32739780Y-2571655D01*
X32811620Y-2545027D01*
X32914621Y-2526370D01*
X33057982Y-2519196D01*
X33333817Y-2520127D01*
X33505584Y-2519196D01*
X33526289Y-2523579D01*
G37*
G36*
X31504559Y-3672709D02*
G01*
X31553103Y-3675579D01*
X31669424Y-3670616D01*
X32019006Y-3665653D01*
X32239395Y-3665653D01*
X32327876Y-3670616D01*
X32420700Y-3675579D01*
X32476446Y-3669631D01*
X32486615Y-3659449D01*
X32481491Y-3650411D01*
X32460559Y-3645800D01*
X32405030Y-3638322D01*
X32367625Y-3625735D01*
X32343463Y-3609586D01*
X32316508Y-3573355D01*
X32298408Y-3520562D01*
X32290418Y-3438680D01*
X32286233Y-3206806D01*
X32285303Y-2894291D01*
X32289467Y-2753879D01*
X32298796Y-2682278D01*
X32320002Y-2628201D01*
X32354397Y-2590152D01*
X32399107Y-2565176D01*
X32449315Y-2553937D01*
X32471236Y-2546954D01*
X32477077Y-2534706D01*
X32471645Y-2523027D01*
X32451952Y-2518343D01*
X32429385Y-2519196D01*
X32285534Y-2526458D01*
X32106634Y-2529122D01*
X31953944Y-2524159D01*
X31935924Y-2529126D01*
X31930525Y-2542538D01*
X31935983Y-2554402D01*
X31955650Y-2559133D01*
X32013843Y-2565621D01*
X32058478Y-2583483D01*
X32093884Y-2610810D01*
X32113148Y-2639472D01*
X32122314Y-2678745D01*
X32126564Y-2763314D01*
X32133543Y-3174237D01*
X32131837Y-3403543D01*
X32128880Y-3501215D01*
X32122764Y-3542585D01*
X32109080Y-3572570D01*
X32084999Y-3600358D01*
X32049266Y-3618331D01*
X31980853Y-3625948D01*
X31825526Y-3620830D01*
X31750312Y-3601422D01*
X31679676Y-3564002D01*
X31612194Y-3506448D01*
X31551915Y-3437898D01*
X31511299Y-3379815D01*
X31486335Y-3330494D01*
X31474756Y-3313018D01*
X31462838Y-3308315D01*
X31452210Y-3312931D01*
X31448104Y-3329021D01*
X31473307Y-3502183D01*
X31504559Y-3672709D01*
G37*
G36*
X30977178Y-2777611D02*
G01*
X31085029Y-3061638D01*
X31191017Y-3354147D01*
X31249894Y-3503734D01*
X31281851Y-3563136D01*
X31317699Y-3603766D01*
X31357542Y-3629463D01*
X31402584Y-3642233D01*
X31421794Y-3649200D01*
X31426856Y-3659836D01*
X31421139Y-3670882D01*
X31399095Y-3675579D01*
X31336932Y-3668801D01*
X31203055Y-3665653D01*
X31035554Y-3675579D01*
X31025162Y-3663791D01*
X31031466Y-3652528D01*
X31057267Y-3645800D01*
X31099964Y-3637445D01*
X31145360Y-3616488D01*
X31170172Y-3595546D01*
X31184855Y-3568906D01*
X31190028Y-3534675D01*
X31183959Y-3489143D01*
X31158381Y-3396129D01*
X31099763Y-3229140D01*
X30696363Y-3223944D01*
X30645182Y-3373222D01*
X30601308Y-3510047D01*
X30592217Y-3560886D01*
X30599607Y-3596448D01*
X30620444Y-3619900D01*
X30654841Y-3634382D01*
X30722419Y-3645800D01*
X30738208Y-3651265D01*
X30742348Y-3659836D01*
X30736745Y-3670925D01*
X30715439Y-3675579D01*
X30645106Y-3668924D01*
X30472562Y-3665653D01*
X30354777Y-3668408D01*
X30269543Y-3675579D01*
X30257369Y-3676432D01*
X30246069Y-3673237D01*
X30242635Y-3664489D01*
X30248544Y-3652632D01*
X30271249Y-3645800D01*
X30327209Y-3632906D01*
X30369928Y-3606646D01*
X30402304Y-3566315D01*
X30448545Y-3465113D01*
X30553211Y-3187342D01*
X30558088Y-3174314D01*
X30711950Y-3174314D01*
X30955758Y-3169971D01*
X31084176Y-3174314D01*
X30976491Y-2881014D01*
X30895891Y-2696624D01*
X30802214Y-2935469D01*
X30711950Y-3174314D01*
X30558088Y-3174314D01*
X30719040Y-2744401D01*
X30821291Y-2509270D01*
X30861228Y-2509270D01*
X30977178Y-2777611D01*
G37*
G36*
X29735399Y-2578752D02*
G01*
X29830859Y-2573789D01*
X29926664Y-2579765D01*
X30001226Y-2595935D01*
X30058686Y-2620295D01*
X30102429Y-2651802D01*
X30155172Y-2707228D01*
X30185922Y-2752673D01*
X30200449Y-2790378D01*
X30208737Y-2806843D01*
X30223868Y-2812014D01*
X30240386Y-2805655D01*
X30230852Y-2694470D01*
X30206498Y-2529122D01*
X30153610Y-2529122D01*
X29972228Y-2534085D01*
X29597520Y-2539048D01*
X29260888Y-2534395D01*
X29065702Y-2529122D01*
X29051821Y-2658703D01*
X29041352Y-2766649D01*
X29040499Y-2781383D01*
X29045248Y-2797126D01*
X29058723Y-2802088D01*
X29077412Y-2794721D01*
X29110835Y-2745634D01*
X29158762Y-2681575D01*
X29204511Y-2639161D01*
X29255855Y-2609533D01*
X29312922Y-2592711D01*
X29387958Y-2584936D01*
X29554947Y-2578752D01*
X29562631Y-2714528D01*
X29565416Y-2878394D01*
X29561193Y-3266959D01*
X29551869Y-3459289D01*
X29541609Y-3535994D01*
X29523280Y-3577888D01*
X29491530Y-3608148D01*
X29443010Y-3628184D01*
X29371083Y-3635874D01*
X29341878Y-3640408D01*
X29335489Y-3649523D01*
X29342041Y-3660598D01*
X29369299Y-3665653D01*
X29902901Y-3665653D01*
X29918998Y-3661438D01*
X29923683Y-3650376D01*
X29916408Y-3640145D01*
X29882894Y-3635021D01*
X29838684Y-3630410D01*
X29802390Y-3617404D01*
X29772311Y-3596403D01*
X29748605Y-3568219D01*
X29732361Y-3533821D01*
X29723689Y-3491714D01*
X29719453Y-3396076D01*
X29717175Y-3110338D01*
X29721757Y-2842059D01*
X29735399Y-2578752D01*
G37*
G36*
X28398564Y-3073735D02*
G01*
X28344861Y-3007750D01*
X28250605Y-2878084D01*
X28133508Y-2702052D01*
X28119446Y-2668785D01*
X28115750Y-2647459D01*
X28124379Y-2615859D01*
X28151810Y-2590229D01*
X28188648Y-2574024D01*
X28225092Y-2568826D01*
X28248786Y-2564321D01*
X28254559Y-2554325D01*
X28246315Y-2544398D01*
X28205084Y-2539048D01*
X27877991Y-2539048D01*
X27840907Y-2544716D01*
X27832858Y-2556031D01*
X27837251Y-2565894D01*
X27852788Y-2569757D01*
X27902873Y-2575606D01*
X27951350Y-2593331D01*
X27998425Y-2626765D01*
X28066275Y-2698950D01*
X28217182Y-2904217D01*
X28321598Y-3051016D01*
X28345600Y-3092890D01*
X28354733Y-3150305D01*
X28359481Y-3310409D01*
X28352569Y-3521797D01*
X28340016Y-3588183D01*
X28321654Y-3610413D01*
X28283348Y-3628903D01*
X28213770Y-3641458D01*
X28191593Y-3647912D01*
X28186008Y-3658518D01*
X28192246Y-3670474D01*
X28216406Y-3675579D01*
X28449746Y-3665653D01*
X28587702Y-3670616D01*
X28643226Y-3675579D01*
X28669738Y-3670560D01*
X28676183Y-3659449D01*
X28671289Y-3650327D01*
X28651911Y-3645800D01*
X28600091Y-3636408D01*
X28564462Y-3615397D01*
X28540786Y-3582910D01*
X28526620Y-3542130D01*
X28516778Y-3485105D01*
X28513024Y-3407343D01*
X28517424Y-3285928D01*
X28528688Y-3201223D01*
X28541556Y-3170257D01*
X28603366Y-3058459D01*
X28679724Y-2933363D01*
X28777304Y-2786811D01*
X28875950Y-2654304D01*
X28924334Y-2605584D01*
X28969384Y-2579846D01*
X29010178Y-2569757D01*
X29035511Y-2563430D01*
X29041430Y-2553627D01*
X29033210Y-2541917D01*
X28984200Y-2539048D01*
X28604995Y-2539048D01*
X28558156Y-2541452D01*
X28552427Y-2545642D01*
X28550324Y-2554325D01*
X28554884Y-2563762D01*
X28572037Y-2568826D01*
X28627312Y-2578332D01*
X28659324Y-2593307D01*
X28675958Y-2611970D01*
X28681379Y-2635207D01*
X28673708Y-2667832D01*
X28641520Y-2728728D01*
X28398564Y-3073735D01*
G37*
G36*
X27722043Y-2523579D02*
G01*
X27727394Y-2533853D01*
X27718268Y-2544878D01*
X27670164Y-2558900D01*
X27637185Y-2569070D01*
X27614217Y-2584652D01*
X27598976Y-2605584D01*
X27586763Y-2654628D01*
X27580753Y-2776187D01*
X27583389Y-3027595D01*
X27580753Y-3260624D01*
X27585948Y-3473181D01*
X27597428Y-3556413D01*
X27614175Y-3593146D01*
X27643265Y-3615975D01*
X27695290Y-3634168D01*
X27722305Y-3643272D01*
X27728247Y-3652625D01*
X27721733Y-3663016D01*
X27614563Y-3665653D01*
X27376028Y-3665653D01*
X27284057Y-3663791D01*
X27274768Y-3659635D01*
X27271883Y-3651539D01*
X27278773Y-3642321D01*
X27311819Y-3635874D01*
X27345858Y-3628953D01*
X27378200Y-3611292D01*
X27404557Y-3586807D01*
X27418136Y-3563833D01*
X27424684Y-3530085D01*
X27430234Y-3440301D01*
X27433258Y-3311495D01*
X27430699Y-3233250D01*
X27425503Y-3114603D01*
X27286694Y-3119721D01*
X27158815Y-3113838D01*
X27057382Y-3097871D01*
X26977853Y-3073944D01*
X26916252Y-3043570D01*
X26861979Y-3000415D01*
X26824210Y-2949285D01*
X26801134Y-2888699D01*
X26793029Y-2815969D01*
X26795432Y-2791386D01*
X26963943Y-2791386D01*
X26972695Y-2867311D01*
X27000002Y-2946403D01*
X27029020Y-2993704D01*
X27066670Y-3029413D01*
X27114074Y-3054892D01*
X27194142Y-3077352D01*
X27280645Y-3084980D01*
X27425503Y-3080637D01*
X27426356Y-3025501D01*
X27422867Y-2814573D01*
X27426356Y-2616595D01*
X27425503Y-2577822D01*
X27355653Y-2563949D01*
X27269324Y-2558900D01*
X27180160Y-2564312D01*
X27113720Y-2578667D01*
X27065102Y-2599790D01*
X27030323Y-2626521D01*
X26993418Y-2674908D01*
X26971471Y-2729215D01*
X26963943Y-2791386D01*
X26795432Y-2791386D01*
X26799053Y-2754341D01*
X26816589Y-2699342D01*
X26845620Y-2649556D01*
X26887171Y-2604033D01*
X26935534Y-2571655D01*
X27007375Y-2545027D01*
X27110375Y-2526370D01*
X27253737Y-2519196D01*
X27529572Y-2520127D01*
X27701338Y-2519196D01*
X27722043Y-2523579D01*
G37*
G36*
X26627699Y-2529122D02*
G01*
X26193047Y-2529122D01*
X26162348Y-2533729D01*
X26155747Y-2542848D01*
X26161226Y-2552794D01*
X26183509Y-2558900D01*
X26239641Y-2571423D01*
X26274627Y-2592866D01*
X26298787Y-2627645D01*
X26319294Y-2691196D01*
X26329550Y-2781511D01*
X26334493Y-2993164D01*
X26329515Y-3249486D01*
X26318441Y-3377875D01*
X26299864Y-3444953D01*
X26266629Y-3500981D01*
X26217785Y-3548014D01*
X26158204Y-3581567D01*
X26082797Y-3603191D01*
X25987470Y-3611059D01*
X25886950Y-3603487D01*
X25811297Y-3583193D01*
X25754984Y-3552666D01*
X25708963Y-3508693D01*
X25674391Y-3451824D01*
X25651303Y-3379193D01*
X25635212Y-3230983D01*
X25627419Y-2879713D01*
X25633688Y-2745517D01*
X25648762Y-2664820D01*
X25668208Y-2620395D01*
X25699568Y-2586360D01*
X25738891Y-2566057D01*
X25788794Y-2558900D01*
X25814683Y-2554110D01*
X25820899Y-2543623D01*
X25813572Y-2534081D01*
X25778403Y-2529122D01*
X25431302Y-2529122D01*
X25412820Y-2533274D01*
X25407883Y-2543313D01*
X25411729Y-2550702D01*
X25426959Y-2555411D01*
X25486638Y-2571807D01*
X25523738Y-2597286D01*
X25540112Y-2620989D01*
X25553982Y-2658284D01*
X25564063Y-2714150D01*
X25570820Y-2808779D01*
X25573601Y-2962688D01*
X25577748Y-3159980D01*
X25588800Y-3310797D01*
X25604535Y-3405324D01*
X25626959Y-3474577D01*
X25654328Y-3524051D01*
X25691775Y-3566275D01*
X25741483Y-3604096D01*
X25805699Y-3637425D01*
X25874412Y-3660424D01*
X25956464Y-3675235D01*
X26054238Y-3680542D01*
X26154060Y-3674673D01*
X26239087Y-3658157D01*
X26311539Y-3632230D01*
X26377704Y-3594450D01*
X26424520Y-3551892D01*
X26455544Y-3504355D01*
X26474731Y-3449617D01*
X26488112Y-3372406D01*
X26493232Y-3266362D01*
X26489742Y-3025346D01*
X26494359Y-2803654D01*
X26504873Y-2685665D01*
X26517117Y-2632415D01*
X26534478Y-2601173D01*
X26558800Y-2578994D01*
X26591331Y-2564708D01*
X26634678Y-2558900D01*
X26658540Y-2554660D01*
X26664146Y-2545562D01*
X26657221Y-2534354D01*
X26627699Y-2529122D01*
G37*
G36*
X24678785Y-2592633D02*
G01*
X24658800Y-2568383D01*
X24647533Y-2544709D01*
X24638296Y-2528546D01*
X24627604Y-2524159D01*
X24611939Y-2532844D01*
X24594569Y-2658393D01*
X24573786Y-2821242D01*
X24578245Y-2832670D01*
X24592863Y-2836829D01*
X24601831Y-2833246D01*
X24611086Y-2819691D01*
X24646988Y-2748436D01*
X24692264Y-2686407D01*
X24747337Y-2632648D01*
X24810519Y-2591052D01*
X24875635Y-2566924D01*
X24944229Y-2558900D01*
X25011398Y-2566594D01*
X25062937Y-2587818D01*
X25102580Y-2621713D01*
X25132950Y-2665805D01*
X25150260Y-2709898D01*
X25155932Y-2755094D01*
X25149015Y-2809608D01*
X25129591Y-2852549D01*
X25097772Y-2886692D01*
X25055543Y-2913233D01*
X24980286Y-2947305D01*
X24858384Y-2990450D01*
X24734021Y-3034539D01*
X24658390Y-3071176D01*
X24597900Y-3117468D01*
X24546955Y-3180518D01*
X24521710Y-3228940D01*
X24506811Y-3278983D01*
X24501822Y-3331502D01*
X24508701Y-3397220D01*
X24529242Y-3459267D01*
X24564209Y-3518929D01*
X24615507Y-3577094D01*
X24675499Y-3624518D01*
X24741047Y-3658065D01*
X24813315Y-3678479D01*
X24893901Y-3685505D01*
X24966098Y-3680001D01*
X25039406Y-3663217D01*
X25114597Y-3634386D01*
X25192379Y-3592293D01*
X25216953Y-3618658D01*
X25230533Y-3648359D01*
X25240680Y-3669926D01*
X25253099Y-3675579D01*
X25263552Y-3669084D01*
X25273106Y-3640062D01*
X25298231Y-3303818D01*
X25292320Y-3296254D01*
X25280008Y-3293426D01*
X25268988Y-3297608D01*
X25259147Y-3312658D01*
X25204890Y-3428337D01*
X25147578Y-3514355D01*
X25087704Y-3576161D01*
X25024997Y-3617969D01*
X24958399Y-3642503D01*
X24886146Y-3650763D01*
X24809969Y-3642153D01*
X24749093Y-3618025D01*
X24700033Y-3579032D01*
X24662241Y-3528074D01*
X24640207Y-3473704D01*
X24632800Y-3414322D01*
X24641780Y-3352625D01*
X24668781Y-3296063D01*
X24710353Y-3247642D01*
X24764242Y-3209133D01*
X24832969Y-3177311D01*
X24952061Y-3135308D01*
X25062362Y-3095825D01*
X25133638Y-3062678D01*
X25176327Y-3035117D01*
X25228612Y-2983814D01*
X25263490Y-2928412D01*
X25284599Y-2868720D01*
X25291252Y-2813410D01*
X25285008Y-2758528D01*
X25266311Y-2706842D01*
X25234252Y-2657130D01*
X25186718Y-2608608D01*
X25132133Y-2569858D01*
X25071970Y-2542115D01*
X25005169Y-2525085D01*
X24930348Y-2519196D01*
X24872708Y-2523582D01*
X24810227Y-2537342D01*
X24747405Y-2559616D01*
X24678785Y-2592633D01*
G37*
%LPC*%
D15*
%TO.C,J16*%
X29210000Y-75996800D03*
%TD*%
%TO.C,JP2*%
X43408600Y-37846000D03*
D16*
X45948600Y-37846000D03*
X48488600Y-37846000D03*
%TD*%
D15*
%TO.C,J17*%
X54991000Y-37465000D03*
D16*
X57531000Y-37465000D03*
X54991000Y-40005000D03*
X57531000Y-40005000D03*
X54991000Y-42545000D03*
X57531000Y-42545000D03*
X54991000Y-45085000D03*
X57531000Y-45085000D03*
X54991000Y-47625000D03*
X57531000Y-47625000D03*
X54991000Y-50165000D03*
X57531000Y-50165000D03*
X54991000Y-52705000D03*
X57531000Y-52705000D03*
X54991000Y-55245000D03*
X57531000Y-55245000D03*
X54991000Y-57785000D03*
X57531000Y-57785000D03*
X54991000Y-60325000D03*
X57531000Y-60325000D03*
X54991000Y-62865000D03*
X57531000Y-62865000D03*
X54991000Y-65405000D03*
X57531000Y-65405000D03*
X54991000Y-67945000D03*
X57531000Y-67945000D03*
X54991000Y-70485000D03*
X57531000Y-70485000D03*
X54991000Y-73025000D03*
X57531000Y-73025000D03*
%TD*%
D17*
%TO.C,H4*%
X56184800Y-91287600D03*
%TD*%
D15*
%TO.C,J10*%
X29210000Y-20472400D03*
%TD*%
D18*
%TO.C,J20*%
X7975600Y-53975000D03*
D19*
X5435600Y-53975000D03*
X7975600Y-51435000D03*
X5435600Y-51435000D03*
X7975600Y-48895000D03*
X5435600Y-48895000D03*
X7975600Y-46355000D03*
X5435600Y-46355000D03*
X7975600Y-43815000D03*
X5435600Y-43815000D03*
X7975600Y-41275000D03*
X5435600Y-41275000D03*
%TD*%
D15*
%TO.C,J9*%
X29210000Y-11201400D03*
%TD*%
%TO.C,JP1*%
X43408600Y-31140400D03*
D16*
X45948600Y-31140400D03*
X48488600Y-31140400D03*
%TD*%
D15*
%TO.C,J12*%
X29210000Y-38989000D03*
%TD*%
%TO.C,J11*%
X29210000Y-29743400D03*
%TD*%
%TO.C,CON3*%
X49733200Y-92202000D03*
D16*
X47193200Y-92202000D03*
X44653200Y-92202000D03*
X42113200Y-92202000D03*
%TD*%
D15*
%TO.C,CON1*%
X27635200Y-92227400D03*
D16*
X25095200Y-92227400D03*
X22555200Y-92227400D03*
X20015200Y-92227400D03*
%TD*%
D17*
%TO.C,H3*%
X56235600Y-4007600D03*
%TD*%
D15*
%TO.C,J14*%
X29210000Y-57505600D03*
%TD*%
%TO.C,J15*%
X29210000Y-66751200D03*
%TD*%
D17*
%TO.C,H1*%
X12000000Y-4007600D03*
%TD*%
%TO.C,H2*%
X12000000Y-91287600D03*
%TD*%
D15*
%TO.C,J13*%
X29210000Y-48260000D03*
%TD*%
%LPD*%
M02*
