%TF.GenerationSoftware,KiCad,Pcbnew,9.0.6*%
%TF.CreationDate,2025-11-26T11:14:55+11:00*%
%TF.ProjectId,v8_equip_dig_in_non_iso,76385f65-7175-4697-905f-6469675f696e,rev?*%
%TF.SameCoordinates,Original*%
%TF.FileFunction,Legend,Bot*%
%TF.FilePolarity,Positive*%
%FSLAX46Y46*%
G04 Gerber Fmt 4.6, Leading zero omitted, Abs format (unit mm)*
G04 Created by KiCad (PCBNEW 9.0.6) date 2025-11-26 11:14:55*
%MOMM*%
%LPD*%
G01*
G04 APERTURE LIST*
G04 Aperture macros list*
%AMFreePoly0*
4,1,23,0.500000,-0.750000,0.000000,-0.750000,0.000000,-0.745722,-0.065263,-0.745722,-0.191342,-0.711940,-0.304381,-0.646677,-0.396677,-0.554381,-0.461940,-0.441342,-0.495722,-0.315263,-0.495722,-0.250000,-0.500000,-0.250000,-0.500000,0.250000,-0.495722,0.250000,-0.495722,0.315263,-0.461940,0.441342,-0.396677,0.554381,-0.304381,0.646677,-0.191342,0.711940,-0.065263,0.745722,0.000000,0.745722,
0.000000,0.750000,0.500000,0.750000,0.500000,-0.750000,0.500000,-0.750000,$1*%
%AMFreePoly1*
4,1,23,0.000000,0.745722,0.065263,0.745722,0.191342,0.711940,0.304381,0.646677,0.396677,0.554381,0.461940,0.441342,0.495722,0.315263,0.495722,0.250000,0.500000,0.250000,0.500000,-0.250000,0.495722,-0.250000,0.495722,-0.315263,0.461940,-0.441342,0.396677,-0.554381,0.304381,-0.646677,0.191342,-0.711940,0.065263,-0.745722,0.000000,-0.745722,0.000000,-0.750000,-0.500000,-0.750000,
-0.500000,0.750000,0.000000,0.750000,0.000000,0.745722,0.000000,0.745722,$1*%
G04 Aperture macros list end*
%ADD10C,0.066145*%
%ADD11C,0.053477*%
%ADD12C,0.127000*%
%ADD13C,0.152400*%
%ADD14C,0.254000*%
%ADD15C,0.100000*%
%ADD16C,0.120000*%
%ADD17R,1.700000X1.700000*%
%ADD18C,2.100000*%
%ADD19O,1.700000X1.700000*%
%ADD20C,3.500000*%
%ADD21FreePoly0,270.000000*%
%ADD22FreePoly1,270.000000*%
G04 APERTURE END LIST*
D10*
X37391080Y-4619406D02*
X37516985Y-4625705D01*
X37648724Y-4637148D01*
X37785330Y-4653883D01*
X37925836Y-4676062D01*
X38069273Y-4703835D01*
X38214675Y-4737350D01*
X38361073Y-4776760D01*
X38507501Y-4822213D01*
X38652991Y-4873860D01*
X38796575Y-4931851D01*
X38937286Y-4996335D01*
X39074156Y-5067464D01*
X39130316Y-5099737D01*
X39183523Y-5132334D01*
X39233962Y-5165213D01*
X39281818Y-5198334D01*
X39370520Y-5265133D01*
X39451104Y-5332397D01*
X39525048Y-5399792D01*
X39593828Y-5466986D01*
X39721805Y-5599438D01*
X39783956Y-5664030D01*
X39846851Y-5727087D01*
X39911966Y-5788278D01*
X39980779Y-5847269D01*
X40054767Y-5903727D01*
X40094163Y-5930902D01*
X40135406Y-5957319D01*
X40178681Y-5982935D01*
X40224173Y-6007711D01*
X40272067Y-6031603D01*
X40322546Y-6054571D01*
X40267025Y-6047430D01*
X40213039Y-6043720D01*
X40160585Y-6043295D01*
X40109660Y-6046014D01*
X40060259Y-6051733D01*
X40012379Y-6060308D01*
X39966016Y-6071597D01*
X39921166Y-6085456D01*
X39877827Y-6101742D01*
X39835994Y-6120312D01*
X39795663Y-6141022D01*
X39756831Y-6163730D01*
X39719494Y-6188292D01*
X39683649Y-6214564D01*
X39649291Y-6242405D01*
X39616418Y-6271670D01*
X39555110Y-6333900D01*
X39499694Y-6400109D01*
X39450142Y-6469152D01*
X39406425Y-6539882D01*
X39368512Y-6611154D01*
X39336374Y-6681822D01*
X39309983Y-6750740D01*
X39289309Y-6816762D01*
X39270965Y-6886333D01*
X39255491Y-6956310D01*
X39243117Y-7026632D01*
X39234074Y-7097235D01*
X39228593Y-7168058D01*
X39226906Y-7239039D01*
X39229242Y-7310114D01*
X39235833Y-7381223D01*
X39246910Y-7452302D01*
X39262703Y-7523290D01*
X39283443Y-7594124D01*
X39309362Y-7664741D01*
X39340691Y-7735081D01*
X39377659Y-7805080D01*
X39420498Y-7874676D01*
X39469439Y-7943807D01*
X39451771Y-7983346D01*
X39433641Y-8019869D01*
X39415292Y-8053932D01*
X39396964Y-8086092D01*
X39361343Y-8146927D01*
X39344533Y-8176715D01*
X39328712Y-8206825D01*
X39314123Y-8237814D01*
X39301007Y-8270238D01*
X39295077Y-8287161D01*
X39289606Y-8304653D01*
X39284624Y-8322781D01*
X39280162Y-8341616D01*
X39276250Y-8361226D01*
X39272917Y-8381683D01*
X39270195Y-8403054D01*
X39268113Y-8425411D01*
X39266701Y-8448821D01*
X39265991Y-8473356D01*
X39266011Y-8499084D01*
X39266793Y-8526074D01*
X39206056Y-8531993D01*
X39151476Y-8536387D01*
X39100297Y-8538907D01*
X39075121Y-8539354D01*
X39049762Y-8539200D01*
X39023876Y-8538401D01*
X38997117Y-8536914D01*
X38969142Y-8534695D01*
X38939605Y-8531699D01*
X38908163Y-8527883D01*
X38874471Y-8523203D01*
X38798958Y-8511075D01*
X38789419Y-8483801D01*
X38779139Y-8457233D01*
X38756623Y-8405989D01*
X38731937Y-8356899D01*
X38705610Y-8309514D01*
X38678168Y-8263389D01*
X38650140Y-8218076D01*
X38594437Y-8128103D01*
X38567816Y-8082549D01*
X38542720Y-8036022D01*
X38519677Y-7988074D01*
X38499213Y-7938259D01*
X38490114Y-7912512D01*
X38481857Y-7886131D01*
X38474509Y-7859060D01*
X38468137Y-7831243D01*
X38462804Y-7802624D01*
X38458579Y-7773148D01*
X38455527Y-7742759D01*
X38453713Y-7711400D01*
X38411099Y-7692623D01*
X38357311Y-7673177D01*
X38293665Y-7653562D01*
X38221476Y-7634280D01*
X38142061Y-7615834D01*
X38056734Y-7598723D01*
X37966812Y-7583450D01*
X37873610Y-7570517D01*
X37778444Y-7560424D01*
X37682629Y-7553673D01*
X37587481Y-7550766D01*
X37494316Y-7552205D01*
X37404449Y-7558490D01*
X37319195Y-7570123D01*
X37239871Y-7587606D01*
X37202844Y-7598698D01*
X37167793Y-7611440D01*
X37167795Y-7611447D01*
X37145224Y-7683576D01*
X37119279Y-7752012D01*
X37090687Y-7816925D01*
X37060179Y-7878489D01*
X37028484Y-7936876D01*
X36996331Y-7992257D01*
X36933566Y-8094691D01*
X36877721Y-8187168D01*
X36854216Y-8230103D01*
X36834629Y-8271065D01*
X36819688Y-8310225D01*
X36814188Y-8329184D01*
X36810124Y-8347757D01*
X36807585Y-8365966D01*
X36806665Y-8383832D01*
X36807452Y-8401377D01*
X36810040Y-8418622D01*
X36708093Y-8446580D01*
X36654363Y-8460090D01*
X36626143Y-8466215D01*
X36596764Y-8471725D01*
X36566036Y-8476474D01*
X36533769Y-8480315D01*
X36499773Y-8483101D01*
X36463856Y-8484687D01*
X36425829Y-8484925D01*
X36385500Y-8483670D01*
X36342679Y-8480775D01*
X36297175Y-8476094D01*
X36295891Y-8464098D01*
X36293498Y-8451551D01*
X36290073Y-8438472D01*
X36285694Y-8424880D01*
X36274386Y-8396240D01*
X36260198Y-8365788D01*
X36243752Y-8333682D01*
X36225671Y-8300078D01*
X36187098Y-8229008D01*
X36167852Y-8191856D01*
X36149463Y-8153837D01*
X36132555Y-8115108D01*
X36117750Y-8075826D01*
X36111332Y-8056027D01*
X36105672Y-8036148D01*
X36100850Y-8016211D01*
X36096944Y-7996233D01*
X36094030Y-7976235D01*
X36092188Y-7956237D01*
X36091494Y-7936258D01*
X36092027Y-7916318D01*
X36054650Y-7920938D01*
X36019227Y-7924464D01*
X35985423Y-7926855D01*
X35952905Y-7928072D01*
X35921341Y-7928073D01*
X35890395Y-7926818D01*
X35859735Y-7924268D01*
X35829028Y-7920381D01*
X35797939Y-7915119D01*
X35766136Y-7908439D01*
X35733285Y-7900302D01*
X35699052Y-7890668D01*
X35663104Y-7879497D01*
X35625108Y-7866748D01*
X35584729Y-7852380D01*
X35541635Y-7836354D01*
X35511312Y-7823292D01*
X35480471Y-7807587D01*
X35449239Y-7789317D01*
X35417743Y-7768565D01*
X35386109Y-7745409D01*
X35354465Y-7719931D01*
X35322937Y-7692209D01*
X35291652Y-7662324D01*
X35260738Y-7630356D01*
X35230320Y-7596385D01*
X35200527Y-7560492D01*
X35171484Y-7522756D01*
X35143319Y-7483257D01*
X35116158Y-7442076D01*
X35090129Y-7399292D01*
X35065358Y-7354986D01*
X35041973Y-7309238D01*
X35020100Y-7262127D01*
X34999865Y-7213735D01*
X34981397Y-7164140D01*
X34964822Y-7113423D01*
X34950266Y-7061665D01*
X34937857Y-7008944D01*
X34927721Y-6955342D01*
X34919986Y-6900938D01*
X34914778Y-6845813D01*
X34912224Y-6790046D01*
X34912452Y-6733718D01*
X34915587Y-6676908D01*
X34921757Y-6619697D01*
X34931089Y-6562165D01*
X34943710Y-6504392D01*
X34979989Y-6369985D01*
X35023796Y-6231903D01*
X35076091Y-6091449D01*
X35137833Y-5949926D01*
X35209983Y-5808637D01*
X35293500Y-5668886D01*
X35389346Y-5531976D01*
X35442192Y-5464993D01*
X35498480Y-5399209D01*
X35558331Y-5334787D01*
X35621863Y-5271890D01*
X35689198Y-5210680D01*
X35760454Y-5151321D01*
X35835753Y-5093975D01*
X35915214Y-5038805D01*
X35998958Y-4985974D01*
X36087103Y-4935645D01*
X36179771Y-4887982D01*
X36277081Y-4843146D01*
X36379154Y-4801301D01*
X36486108Y-4762609D01*
X36598066Y-4727234D01*
X36715145Y-4695338D01*
X36837467Y-4667085D01*
X36965151Y-4642637D01*
X37058044Y-4629865D01*
X37160642Y-4621636D01*
X37271976Y-4618099D01*
X37391080Y-4619406D01*
X36813379Y-8435016D02*
X36822439Y-8448611D01*
X36842582Y-8474962D01*
X36865218Y-8500318D01*
X36890097Y-8524824D01*
X36916969Y-8548628D01*
X36945586Y-8571875D01*
X36975698Y-8594712D01*
X37007056Y-8617286D01*
X37139963Y-8707873D01*
X37207414Y-8755393D01*
X37240517Y-8780222D01*
X37272871Y-8805959D01*
X37288401Y-8819408D01*
X37303553Y-8833925D01*
X37318319Y-8849423D01*
X37332689Y-8865812D01*
X37360197Y-8900914D01*
X37385997Y-8938522D01*
X37410009Y-8977932D01*
X37432152Y-9018437D01*
X37452345Y-9059330D01*
X37470508Y-9099904D01*
X37486561Y-9139453D01*
X37500422Y-9177271D01*
X37512011Y-9212651D01*
X37521247Y-9244886D01*
X37528051Y-9273270D01*
X37532341Y-9297097D01*
X37534036Y-9315660D01*
X37533886Y-9322746D01*
X37533057Y-9328252D01*
X37530884Y-9332520D01*
X37528136Y-9335987D01*
X37524838Y-9338697D01*
X37521017Y-9340698D01*
X37516697Y-9342036D01*
X37511904Y-9342758D01*
X37506664Y-9342911D01*
X37501002Y-9342542D01*
X37488518Y-9340422D01*
X37474655Y-9336771D01*
X37459620Y-9331964D01*
X37443618Y-9326374D01*
X37409531Y-9314337D01*
X37391857Y-9308637D01*
X37374037Y-9303647D01*
X37356275Y-9299741D01*
X37338778Y-9297293D01*
X37330192Y-9296732D01*
X37321749Y-9296675D01*
X37313475Y-9297169D01*
X37305395Y-9298261D01*
X37297774Y-9300338D01*
X37290841Y-9303256D01*
X37284563Y-9306959D01*
X37278911Y-9311395D01*
X37273852Y-9316510D01*
X37269355Y-9322251D01*
X37265390Y-9328563D01*
X37261925Y-9335394D01*
X37258929Y-9342690D01*
X37256371Y-9350398D01*
X37254220Y-9358463D01*
X37252445Y-9366832D01*
X37249896Y-9384269D01*
X37248476Y-9402282D01*
X37247935Y-9420440D01*
X37248025Y-9438317D01*
X37249100Y-9471512D01*
X37249707Y-9498440D01*
X37249212Y-9508484D01*
X37247852Y-9515675D01*
X37245375Y-9517325D01*
X37242639Y-9518093D01*
X37239649Y-9518035D01*
X37236408Y-9517208D01*
X37232922Y-9515667D01*
X37229195Y-9513468D01*
X37221036Y-9507320D01*
X37211968Y-9499209D01*
X37202028Y-9489583D01*
X37179678Y-9467571D01*
X37167342Y-9456078D01*
X37154280Y-9444856D01*
X37140529Y-9434352D01*
X37133406Y-9429508D01*
X37126125Y-9425011D01*
X37118690Y-9420917D01*
X37111106Y-9417282D01*
X37103377Y-9414160D01*
X37095508Y-9411609D01*
X37087503Y-9409684D01*
X37079368Y-9408441D01*
X37071106Y-9407935D01*
X37062722Y-9408223D01*
X37054297Y-9409598D01*
X37046365Y-9411812D01*
X37038905Y-9414810D01*
X37031899Y-9418538D01*
X37025324Y-9422941D01*
X37019162Y-9427965D01*
X37013392Y-9433555D01*
X37007995Y-9439657D01*
X37002949Y-9446217D01*
X36998234Y-9453180D01*
X36993831Y-9460492D01*
X36989720Y-9468098D01*
X36982290Y-9483974D01*
X36975784Y-9500374D01*
X36970040Y-9516861D01*
X36964898Y-9533001D01*
X36955770Y-9562496D01*
X36951463Y-9574980D01*
X36947112Y-9585374D01*
X36944869Y-9589651D01*
X36942555Y-9593242D01*
X36940149Y-9596093D01*
X36937632Y-9598149D01*
X36934018Y-9599967D01*
X36930210Y-9600332D01*
X36926204Y-9599345D01*
X36921996Y-9597105D01*
X36917583Y-9593711D01*
X36912961Y-9589265D01*
X36903076Y-9577610D01*
X36854447Y-9508810D01*
X36839872Y-9490054D01*
X36824270Y-9472272D01*
X36816075Y-9463995D01*
X36807612Y-9456261D01*
X36798879Y-9449170D01*
X36789870Y-9442820D01*
X36780583Y-9437313D01*
X36771014Y-9432747D01*
X36761159Y-9429223D01*
X36751014Y-9426840D01*
X36740577Y-9425698D01*
X36729842Y-9425896D01*
X36718807Y-9427535D01*
X36707468Y-9430714D01*
X36696499Y-9435097D01*
X36686095Y-9440237D01*
X36676233Y-9446074D01*
X36666892Y-9452546D01*
X36658049Y-9459591D01*
X36649683Y-9467146D01*
X36641771Y-9475152D01*
X36634291Y-9483544D01*
X36627222Y-9492263D01*
X36620541Y-9501246D01*
X36608257Y-9519756D01*
X36597262Y-9538581D01*
X36587382Y-9557227D01*
X36570261Y-9592004D01*
X36562667Y-9607146D01*
X36555485Y-9620132D01*
X36551992Y-9625662D01*
X36548536Y-9630468D01*
X36545095Y-9634487D01*
X36541647Y-9637659D01*
X36538169Y-9639920D01*
X36534640Y-9641211D01*
X36531038Y-9641468D01*
X36527340Y-9640630D01*
X36507167Y-9629834D01*
X36488363Y-9614945D01*
X36470873Y-9596204D01*
X36454644Y-9573853D01*
X36439623Y-9548132D01*
X36425756Y-9519283D01*
X36401270Y-9453163D01*
X36380757Y-9377424D01*
X36363787Y-9293994D01*
X36349933Y-9204802D01*
X36338765Y-9111777D01*
X36322773Y-8921947D01*
X36312380Y-8739935D01*
X36304157Y-8581176D01*
X36294673Y-8461102D01*
X36331956Y-8463563D01*
X36368728Y-8465329D01*
X36404943Y-8466406D01*
X36440557Y-8466802D01*
X36475525Y-8466525D01*
X36509805Y-8465582D01*
X36543352Y-8463980D01*
X36576122Y-8461726D01*
X36608072Y-8458828D01*
X36639156Y-8455293D01*
X36669331Y-8451129D01*
X36698554Y-8446342D01*
X36726780Y-8440940D01*
X36753965Y-8434930D01*
X36780065Y-8428320D01*
X36805036Y-8421117D01*
X36813379Y-8435016D01*
D11*
X37689619Y-7551623D02*
X37785427Y-7558376D01*
X37880585Y-7568472D01*
X37973780Y-7581408D01*
X38063695Y-7596684D01*
X38149014Y-7613797D01*
X38228423Y-7632246D01*
X38300607Y-7651530D01*
X38364249Y-7671146D01*
X38418034Y-7690594D01*
X38460647Y-7709371D01*
X38462461Y-7740730D01*
X38465514Y-7771119D01*
X38469741Y-7800594D01*
X38475074Y-7829211D01*
X38481449Y-7857026D01*
X38488799Y-7884095D01*
X38497058Y-7910473D01*
X38506160Y-7936216D01*
X38526630Y-7986023D01*
X38549680Y-8033962D01*
X38574783Y-8080480D01*
X38601411Y-8126023D01*
X38657130Y-8215976D01*
X38685164Y-8261279D01*
X38712611Y-8307396D01*
X38738943Y-8354773D01*
X38763632Y-8403858D01*
X38786150Y-8455098D01*
X38796430Y-8481665D01*
X38805969Y-8508939D01*
X38806775Y-8509103D01*
X38807517Y-8509233D01*
X38808214Y-8509340D01*
X38808889Y-8509436D01*
X38809563Y-8509531D01*
X38810256Y-8509639D01*
X38810991Y-8509771D01*
X38811787Y-8509938D01*
X38819055Y-8554471D01*
X38824011Y-8600146D01*
X38826901Y-8646702D01*
X38827970Y-8693880D01*
X38827466Y-8741419D01*
X38825633Y-8789059D01*
X38818968Y-8883602D01*
X38800530Y-9062451D01*
X38792694Y-9142593D01*
X38789983Y-9179433D01*
X38788405Y-9213773D01*
X38788452Y-9247876D01*
X38789483Y-9284185D01*
X38791424Y-9322091D01*
X38794203Y-9360986D01*
X38797745Y-9400263D01*
X38801976Y-9439313D01*
X38806824Y-9477528D01*
X38812214Y-9514302D01*
X38818074Y-9549026D01*
X38824329Y-9581092D01*
X38830906Y-9609892D01*
X38837731Y-9634819D01*
X38844731Y-9655265D01*
X38851832Y-9670622D01*
X38855397Y-9676202D01*
X38858961Y-9680282D01*
X38862512Y-9682785D01*
X38866043Y-9683637D01*
X38870444Y-9684443D01*
X38874744Y-9684551D01*
X38878960Y-9684008D01*
X38883109Y-9682863D01*
X38887209Y-9681163D01*
X38891276Y-9678957D01*
X38895326Y-9676292D01*
X38899378Y-9673217D01*
X38907554Y-9666029D01*
X38915937Y-9657775D01*
X38933871Y-9639610D01*
X38943694Y-9630467D01*
X38948879Y-9626049D01*
X38954268Y-9621797D01*
X38959880Y-9617759D01*
X38965730Y-9613983D01*
X38971836Y-9610517D01*
X38978214Y-9607409D01*
X38984883Y-9604708D01*
X38991858Y-9602461D01*
X38999156Y-9600716D01*
X39006796Y-9599522D01*
X39014793Y-9598926D01*
X39023164Y-9598976D01*
X39031927Y-9599721D01*
X39041099Y-9601209D01*
X39050592Y-9603349D01*
X39059848Y-9605998D01*
X39068875Y-9609124D01*
X39077685Y-9612695D01*
X39086288Y-9616677D01*
X39094695Y-9621039D01*
X39102916Y-9625747D01*
X39110961Y-9630770D01*
X39118842Y-9636075D01*
X39126569Y-9641629D01*
X39141601Y-9653355D01*
X39156142Y-9665689D01*
X39170277Y-9678370D01*
X39197663Y-9703737D01*
X39211082Y-9715902D01*
X39224431Y-9727375D01*
X39237795Y-9737897D01*
X39244508Y-9742719D01*
X39251256Y-9747207D01*
X39258050Y-9751326D01*
X39264900Y-9755045D01*
X39271817Y-9758331D01*
X39278811Y-9761151D01*
X39285072Y-9759981D01*
X39290753Y-9757915D01*
X39295905Y-9755008D01*
X39300580Y-9751316D01*
X39304828Y-9746895D01*
X39308699Y-9741801D01*
X39312245Y-9736090D01*
X39315517Y-9729818D01*
X39321440Y-9715812D01*
X39326876Y-9700232D01*
X39337912Y-9666135D01*
X39344326Y-9648511D01*
X39351880Y-9631100D01*
X39356211Y-9622614D01*
X39360980Y-9614349D01*
X39366238Y-9606360D01*
X39372034Y-9598704D01*
X39378421Y-9591436D01*
X39385448Y-9584612D01*
X39393167Y-9578288D01*
X39401629Y-9572521D01*
X39410885Y-9567365D01*
X39420984Y-9562877D01*
X39431979Y-9559112D01*
X39443920Y-9556126D01*
X39450576Y-9555327D01*
X39457851Y-9555240D01*
X39465702Y-9555814D01*
X39474089Y-9557000D01*
X39492307Y-9561008D01*
X39512174Y-9566864D01*
X39533360Y-9574171D01*
X39555535Y-9582528D01*
X39601535Y-9600798D01*
X39647534Y-9618481D01*
X39669709Y-9626105D01*
X39690894Y-9632386D01*
X39710760Y-9636924D01*
X39720095Y-9638414D01*
X39728976Y-9639320D01*
X39737363Y-9639590D01*
X39745214Y-9639175D01*
X39752488Y-9638025D01*
X39759143Y-9636090D01*
X39762496Y-9634344D01*
X39765091Y-9631932D01*
X39766991Y-9628875D01*
X39768259Y-9625194D01*
X39768959Y-9620912D01*
X39769154Y-9616049D01*
X39768281Y-9604667D01*
X39757232Y-9540220D01*
X39755111Y-9520238D01*
X39754258Y-9499050D01*
X39755179Y-9476831D01*
X39756463Y-9465387D01*
X39758380Y-9453750D01*
X39760994Y-9441941D01*
X39764367Y-9429981D01*
X39768564Y-9417892D01*
X39773647Y-9405695D01*
X39779679Y-9393412D01*
X39786724Y-9381064D01*
X39794846Y-9368672D01*
X39804106Y-9356259D01*
X39807494Y-9352302D01*
X39810947Y-9348561D01*
X39814462Y-9345031D01*
X39818036Y-9341705D01*
X39821665Y-9338579D01*
X39825347Y-9335645D01*
X39832857Y-9330334D01*
X39840541Y-9325725D01*
X39848375Y-9321771D01*
X39856333Y-9318426D01*
X39864393Y-9315641D01*
X39872528Y-9313371D01*
X39880715Y-9311568D01*
X39888929Y-9310186D01*
X39897146Y-9309178D01*
X39905341Y-9308496D01*
X39913490Y-9308094D01*
X39921569Y-9307925D01*
X39929552Y-9307942D01*
X39833043Y-9508183D01*
X39542233Y-10105306D01*
X36011363Y-10106442D01*
X35908182Y-9910713D01*
X35856309Y-9804029D01*
X35830932Y-9746918D01*
X35806168Y-9686697D01*
X35782197Y-9622920D01*
X35759199Y-9555140D01*
X35737354Y-9482909D01*
X35716842Y-9405782D01*
X35697842Y-9323310D01*
X35680536Y-9235046D01*
X35665102Y-9140544D01*
X35651721Y-9039357D01*
X35646528Y-8987029D01*
X35643173Y-8934793D01*
X35641546Y-8882752D01*
X35641536Y-8831008D01*
X35643034Y-8779665D01*
X35645930Y-8728825D01*
X35650115Y-8678592D01*
X35655480Y-8629068D01*
X35669307Y-8532560D01*
X35686535Y-8440125D01*
X35706286Y-8352585D01*
X35727682Y-8270764D01*
X35749847Y-8195486D01*
X35771904Y-8127573D01*
X35792973Y-8067850D01*
X35812180Y-8017139D01*
X35841492Y-7946048D01*
X35852823Y-7920888D01*
X35882363Y-7924408D01*
X35911081Y-7926524D01*
X35939565Y-7927318D01*
X35968403Y-7926869D01*
X35998181Y-7925259D01*
X36029488Y-7922568D01*
X36062910Y-7918877D01*
X36099036Y-7914265D01*
X36098496Y-7933706D01*
X36099117Y-7953180D01*
X36100827Y-7972671D01*
X36103555Y-7992158D01*
X36107228Y-8011626D01*
X36111775Y-8031055D01*
X36117124Y-8050428D01*
X36123204Y-8069727D01*
X36137269Y-8108030D01*
X36153395Y-8145820D01*
X36171009Y-8182953D01*
X36189538Y-8219286D01*
X36261329Y-8353728D01*
X36275827Y-8383897D01*
X36287798Y-8412402D01*
X36296669Y-8439098D01*
X36299762Y-8451723D01*
X36301865Y-8463841D01*
X36311219Y-8584817D01*
X36319433Y-8743585D01*
X36329892Y-8924945D01*
X36345980Y-9113696D01*
X36357191Y-9206092D01*
X36371078Y-9294635D01*
X36388064Y-9377425D01*
X36408571Y-9452561D01*
X36420278Y-9486666D01*
X36433024Y-9518144D01*
X36446861Y-9546759D01*
X36461843Y-9572273D01*
X36478023Y-9594449D01*
X36495454Y-9613049D01*
X36514187Y-9627835D01*
X36534277Y-9638570D01*
X36537975Y-9639408D01*
X36541578Y-9639151D01*
X36545108Y-9637860D01*
X36548587Y-9635598D01*
X36552038Y-9632426D01*
X36555481Y-9628406D01*
X36562436Y-9618069D01*
X36569625Y-9605081D01*
X36577227Y-9589936D01*
X36594366Y-9555156D01*
X36604255Y-9536508D01*
X36615257Y-9517680D01*
X36627549Y-9499168D01*
X36634234Y-9490185D01*
X36641306Y-9481465D01*
X36648789Y-9473072D01*
X36656704Y-9465066D01*
X36665073Y-9457509D01*
X36673918Y-9450464D01*
X36683261Y-9443992D01*
X36693124Y-9438155D01*
X36703529Y-9433014D01*
X36714497Y-9428632D01*
X36725836Y-9425452D01*
X36736871Y-9423813D01*
X36747604Y-9423615D01*
X36758041Y-9424757D01*
X36768184Y-9427140D01*
X36778037Y-9430664D01*
X36787604Y-9435230D01*
X36796888Y-9440737D01*
X36805894Y-9447087D01*
X36814625Y-9454178D01*
X36823084Y-9461912D01*
X36831276Y-9470189D01*
X36846871Y-9487971D01*
X36861440Y-9506727D01*
X36910044Y-9575528D01*
X36919924Y-9587182D01*
X36924544Y-9591629D01*
X36928956Y-9595022D01*
X36933162Y-9597262D01*
X36937167Y-9598249D01*
X36940975Y-9597884D01*
X36944589Y-9596066D01*
X36947106Y-9594011D01*
X36949511Y-9591161D01*
X36951825Y-9587570D01*
X36954067Y-9583294D01*
X36958416Y-9572902D01*
X36962721Y-9560420D01*
X36971844Y-9530929D01*
X36976984Y-9514791D01*
X36982724Y-9498305D01*
X36989227Y-9481907D01*
X36996654Y-9466032D01*
X37000764Y-9458427D01*
X37005166Y-9451117D01*
X37009879Y-9444154D01*
X37014924Y-9437595D01*
X37020320Y-9431493D01*
X37026089Y-9425903D01*
X37032250Y-9420880D01*
X37038823Y-9416477D01*
X37045829Y-9412750D01*
X37053288Y-9409752D01*
X37061220Y-9407538D01*
X37069644Y-9406163D01*
X37078028Y-9405875D01*
X37086290Y-9406381D01*
X37094426Y-9407625D01*
X37102430Y-9409551D01*
X37110299Y-9412103D01*
X37118028Y-9415225D01*
X37125613Y-9418862D01*
X37133047Y-9422957D01*
X37140328Y-9427455D01*
X37147451Y-9432300D01*
X37154410Y-9437437D01*
X37161202Y-9442808D01*
X37174265Y-9454033D01*
X37186601Y-9465529D01*
X37208951Y-9487548D01*
X37218891Y-9497176D01*
X37227959Y-9505289D01*
X37232154Y-9508637D01*
X37236118Y-9511439D01*
X37239845Y-9513638D01*
X37243331Y-9515180D01*
X37246571Y-9516007D01*
X37249562Y-9516064D01*
X37252297Y-9515296D01*
X37254774Y-9513646D01*
X37255578Y-9510433D01*
X37256135Y-9506454D01*
X37256633Y-9496410D01*
X37256035Y-9469481D01*
X37254973Y-9436285D01*
X37254890Y-9418407D01*
X37255437Y-9400247D01*
X37256864Y-9382234D01*
X37259420Y-9364796D01*
X37261198Y-9356426D01*
X37263353Y-9348360D01*
X37265913Y-9340652D01*
X37268912Y-9333355D01*
X37272379Y-9326524D01*
X37276347Y-9320210D01*
X37280845Y-9314469D01*
X37285906Y-9309353D01*
X37291560Y-9304917D01*
X37297838Y-9301212D01*
X37304772Y-9298294D01*
X37312393Y-9296216D01*
X37320473Y-9295125D01*
X37328747Y-9294631D01*
X37337189Y-9294688D01*
X37345774Y-9295250D01*
X37354477Y-9296268D01*
X37363271Y-9297698D01*
X37372131Y-9299492D01*
X37381031Y-9301603D01*
X37398849Y-9306592D01*
X37416521Y-9312291D01*
X37450604Y-9324324D01*
X37466604Y-9329913D01*
X37481637Y-9334718D01*
X37495497Y-9338367D01*
X37501924Y-9339641D01*
X37507980Y-9340485D01*
X37513641Y-9340854D01*
X37518880Y-9340700D01*
X37523672Y-9339977D01*
X37527992Y-9338639D01*
X37531813Y-9336637D01*
X37535110Y-9333927D01*
X37537858Y-9330461D01*
X37540030Y-9326192D01*
X37541009Y-9313599D01*
X37539314Y-9295036D01*
X37535024Y-9271208D01*
X37528220Y-9242822D01*
X37518983Y-9210585D01*
X37507393Y-9175203D01*
X37493532Y-9137383D01*
X37477479Y-9097832D01*
X37459315Y-9057255D01*
X37439121Y-9016360D01*
X37416977Y-8975852D01*
X37392965Y-8936440D01*
X37367164Y-8898829D01*
X37339655Y-8863725D01*
X37310520Y-8831836D01*
X37295367Y-8817318D01*
X37279837Y-8803868D01*
X37247484Y-8778132D01*
X37214383Y-8753303D01*
X37180784Y-8729235D01*
X37146937Y-8705782D01*
X37014041Y-8615187D01*
X36982686Y-8592612D01*
X36952577Y-8569773D01*
X36923963Y-8546524D01*
X36897093Y-8522719D01*
X36872216Y-8498212D01*
X36849581Y-8472855D01*
X36839182Y-8459813D01*
X36829437Y-8446504D01*
X36820378Y-8432909D01*
X36812034Y-8419011D01*
X36808588Y-8419996D01*
X36804997Y-8420904D01*
X36801303Y-8421758D01*
X36797546Y-8422581D01*
X36790009Y-8424216D01*
X36786311Y-8425072D01*
X36782714Y-8425984D01*
X36799883Y-8421210D01*
X36808503Y-8418841D01*
X36817078Y-8416562D01*
X36814490Y-8399317D01*
X36813702Y-8381773D01*
X36814622Y-8363907D01*
X36817160Y-8345699D01*
X36821223Y-8327126D01*
X36826722Y-8308167D01*
X36841661Y-8269007D01*
X36861246Y-8228045D01*
X36884749Y-8185109D01*
X36940589Y-8092630D01*
X37003349Y-7990194D01*
X37035501Y-7934812D01*
X37067195Y-7876424D01*
X37097702Y-7814859D01*
X37126292Y-7749945D01*
X37152237Y-7681509D01*
X37174808Y-7609380D01*
X37209859Y-7596638D01*
X37246886Y-7585546D01*
X37326207Y-7568064D01*
X37411456Y-7556432D01*
X37501318Y-7550149D01*
X37594478Y-7548713D01*
X37689619Y-7551623D01*
G36*
X37689619Y-7551623D02*
G01*
X37785427Y-7558376D01*
X37880585Y-7568472D01*
X37973780Y-7581408D01*
X38063695Y-7596684D01*
X38149014Y-7613797D01*
X38228423Y-7632246D01*
X38300607Y-7651530D01*
X38364249Y-7671146D01*
X38418034Y-7690594D01*
X38460647Y-7709371D01*
X38462461Y-7740730D01*
X38465514Y-7771119D01*
X38469741Y-7800594D01*
X38475074Y-7829211D01*
X38481449Y-7857026D01*
X38488799Y-7884095D01*
X38497058Y-7910473D01*
X38506160Y-7936216D01*
X38526630Y-7986023D01*
X38549680Y-8033962D01*
X38574783Y-8080480D01*
X38601411Y-8126023D01*
X38657130Y-8215976D01*
X38685164Y-8261279D01*
X38712611Y-8307396D01*
X38738943Y-8354773D01*
X38763632Y-8403858D01*
X38786150Y-8455098D01*
X38796430Y-8481665D01*
X38805969Y-8508939D01*
X38806775Y-8509103D01*
X38807517Y-8509233D01*
X38808214Y-8509340D01*
X38808889Y-8509436D01*
X38809563Y-8509531D01*
X38810256Y-8509639D01*
X38810991Y-8509771D01*
X38811787Y-8509938D01*
X38819055Y-8554471D01*
X38824011Y-8600146D01*
X38826901Y-8646702D01*
X38827970Y-8693880D01*
X38827466Y-8741419D01*
X38825633Y-8789059D01*
X38818968Y-8883602D01*
X38800530Y-9062451D01*
X38792694Y-9142593D01*
X38789983Y-9179433D01*
X38788405Y-9213773D01*
X38788452Y-9247876D01*
X38789483Y-9284185D01*
X38791424Y-9322091D01*
X38794203Y-9360986D01*
X38797745Y-9400263D01*
X38801976Y-9439313D01*
X38806824Y-9477528D01*
X38812214Y-9514302D01*
X38818074Y-9549026D01*
X38824329Y-9581092D01*
X38830906Y-9609892D01*
X38837731Y-9634819D01*
X38844731Y-9655265D01*
X38851832Y-9670622D01*
X38855397Y-9676202D01*
X38858961Y-9680282D01*
X38862512Y-9682785D01*
X38866043Y-9683637D01*
X38870444Y-9684443D01*
X38874744Y-9684551D01*
X38878960Y-9684008D01*
X38883109Y-9682863D01*
X38887209Y-9681163D01*
X38891276Y-9678957D01*
X38895326Y-9676292D01*
X38899378Y-9673217D01*
X38907554Y-9666029D01*
X38915937Y-9657775D01*
X38933871Y-9639610D01*
X38943694Y-9630467D01*
X38948879Y-9626049D01*
X38954268Y-9621797D01*
X38959880Y-9617759D01*
X38965730Y-9613983D01*
X38971836Y-9610517D01*
X38978214Y-9607409D01*
X38984883Y-9604708D01*
X38991858Y-9602461D01*
X38999156Y-9600716D01*
X39006796Y-9599522D01*
X39014793Y-9598926D01*
X39023164Y-9598976D01*
X39031927Y-9599721D01*
X39041099Y-9601209D01*
X39050592Y-9603349D01*
X39059848Y-9605998D01*
X39068875Y-9609124D01*
X39077685Y-9612695D01*
X39086288Y-9616677D01*
X39094695Y-9621039D01*
X39102916Y-9625747D01*
X39110961Y-9630770D01*
X39118842Y-9636075D01*
X39126569Y-9641629D01*
X39141601Y-9653355D01*
X39156142Y-9665689D01*
X39170277Y-9678370D01*
X39197663Y-9703737D01*
X39211082Y-9715902D01*
X39224431Y-9727375D01*
X39237795Y-9737897D01*
X39244508Y-9742719D01*
X39251256Y-9747207D01*
X39258050Y-9751326D01*
X39264900Y-9755045D01*
X39271817Y-9758331D01*
X39278811Y-9761151D01*
X39285072Y-9759981D01*
X39290753Y-9757915D01*
X39295905Y-9755008D01*
X39300580Y-9751316D01*
X39304828Y-9746895D01*
X39308699Y-9741801D01*
X39312245Y-9736090D01*
X39315517Y-9729818D01*
X39321440Y-9715812D01*
X39326876Y-9700232D01*
X39337912Y-9666135D01*
X39344326Y-9648511D01*
X39351880Y-9631100D01*
X39356211Y-9622614D01*
X39360980Y-9614349D01*
X39366238Y-9606360D01*
X39372034Y-9598704D01*
X39378421Y-9591436D01*
X39385448Y-9584612D01*
X39393167Y-9578288D01*
X39401629Y-9572521D01*
X39410885Y-9567365D01*
X39420984Y-9562877D01*
X39431979Y-9559112D01*
X39443920Y-9556126D01*
X39450576Y-9555327D01*
X39457851Y-9555240D01*
X39465702Y-9555814D01*
X39474089Y-9557000D01*
X39492307Y-9561008D01*
X39512174Y-9566864D01*
X39533360Y-9574171D01*
X39555535Y-9582528D01*
X39601535Y-9600798D01*
X39647534Y-9618481D01*
X39669709Y-9626105D01*
X39690894Y-9632386D01*
X39710760Y-9636924D01*
X39720095Y-9638414D01*
X39728976Y-9639320D01*
X39737363Y-9639590D01*
X39745214Y-9639175D01*
X39752488Y-9638025D01*
X39759143Y-9636090D01*
X39762496Y-9634344D01*
X39765091Y-9631932D01*
X39766991Y-9628875D01*
X39768259Y-9625194D01*
X39768959Y-9620912D01*
X39769154Y-9616049D01*
X39768281Y-9604667D01*
X39757232Y-9540220D01*
X39755111Y-9520238D01*
X39754258Y-9499050D01*
X39755179Y-9476831D01*
X39756463Y-9465387D01*
X39758380Y-9453750D01*
X39760994Y-9441941D01*
X39764367Y-9429981D01*
X39768564Y-9417892D01*
X39773647Y-9405695D01*
X39779679Y-9393412D01*
X39786724Y-9381064D01*
X39794846Y-9368672D01*
X39804106Y-9356259D01*
X39807494Y-9352302D01*
X39810947Y-9348561D01*
X39814462Y-9345031D01*
X39818036Y-9341705D01*
X39821665Y-9338579D01*
X39825347Y-9335645D01*
X39832857Y-9330334D01*
X39840541Y-9325725D01*
X39848375Y-9321771D01*
X39856333Y-9318426D01*
X39864393Y-9315641D01*
X39872528Y-9313371D01*
X39880715Y-9311568D01*
X39888929Y-9310186D01*
X39897146Y-9309178D01*
X39905341Y-9308496D01*
X39913490Y-9308094D01*
X39921569Y-9307925D01*
X39929552Y-9307942D01*
X39833043Y-9508183D01*
X39542233Y-10105306D01*
X36011363Y-10106442D01*
X35908182Y-9910713D01*
X35856309Y-9804029D01*
X35830932Y-9746918D01*
X35806168Y-9686697D01*
X35782197Y-9622920D01*
X35759199Y-9555140D01*
X35737354Y-9482909D01*
X35716842Y-9405782D01*
X35697842Y-9323310D01*
X35680536Y-9235046D01*
X35665102Y-9140544D01*
X35651721Y-9039357D01*
X35646528Y-8987029D01*
X35643173Y-8934793D01*
X35641546Y-8882752D01*
X35641536Y-8831008D01*
X35643034Y-8779665D01*
X35645930Y-8728825D01*
X35650115Y-8678592D01*
X35655480Y-8629068D01*
X35669307Y-8532560D01*
X35686535Y-8440125D01*
X35706286Y-8352585D01*
X35727682Y-8270764D01*
X35749847Y-8195486D01*
X35771904Y-8127573D01*
X35792973Y-8067850D01*
X35812180Y-8017139D01*
X35841492Y-7946048D01*
X35852823Y-7920888D01*
X35882363Y-7924408D01*
X35911081Y-7926524D01*
X35939565Y-7927318D01*
X35968403Y-7926869D01*
X35998181Y-7925259D01*
X36029488Y-7922568D01*
X36062910Y-7918877D01*
X36099036Y-7914265D01*
X36098496Y-7933706D01*
X36099117Y-7953180D01*
X36100827Y-7972671D01*
X36103555Y-7992158D01*
X36107228Y-8011626D01*
X36111775Y-8031055D01*
X36117124Y-8050428D01*
X36123204Y-8069727D01*
X36137269Y-8108030D01*
X36153395Y-8145820D01*
X36171009Y-8182953D01*
X36189538Y-8219286D01*
X36261329Y-8353728D01*
X36275827Y-8383897D01*
X36287798Y-8412402D01*
X36296669Y-8439098D01*
X36299762Y-8451723D01*
X36301865Y-8463841D01*
X36311219Y-8584817D01*
X36319433Y-8743585D01*
X36329892Y-8924945D01*
X36345980Y-9113696D01*
X36357191Y-9206092D01*
X36371078Y-9294635D01*
X36388064Y-9377425D01*
X36408571Y-9452561D01*
X36420278Y-9486666D01*
X36433024Y-9518144D01*
X36446861Y-9546759D01*
X36461843Y-9572273D01*
X36478023Y-9594449D01*
X36495454Y-9613049D01*
X36514187Y-9627835D01*
X36534277Y-9638570D01*
X36537975Y-9639408D01*
X36541578Y-9639151D01*
X36545108Y-9637860D01*
X36548587Y-9635598D01*
X36552038Y-9632426D01*
X36555481Y-9628406D01*
X36562436Y-9618069D01*
X36569625Y-9605081D01*
X36577227Y-9589936D01*
X36594366Y-9555156D01*
X36604255Y-9536508D01*
X36615257Y-9517680D01*
X36627549Y-9499168D01*
X36634234Y-9490185D01*
X36641306Y-9481465D01*
X36648789Y-9473072D01*
X36656704Y-9465066D01*
X36665073Y-9457509D01*
X36673918Y-9450464D01*
X36683261Y-9443992D01*
X36693124Y-9438155D01*
X36703529Y-9433014D01*
X36714497Y-9428632D01*
X36725836Y-9425452D01*
X36736871Y-9423813D01*
X36747604Y-9423615D01*
X36758041Y-9424757D01*
X36768184Y-9427140D01*
X36778037Y-9430664D01*
X36787604Y-9435230D01*
X36796888Y-9440737D01*
X36805894Y-9447087D01*
X36814625Y-9454178D01*
X36823084Y-9461912D01*
X36831276Y-9470189D01*
X36846871Y-9487971D01*
X36861440Y-9506727D01*
X36910044Y-9575528D01*
X36919924Y-9587182D01*
X36924544Y-9591629D01*
X36928956Y-9595022D01*
X36933162Y-9597262D01*
X36937167Y-9598249D01*
X36940975Y-9597884D01*
X36944589Y-9596066D01*
X36947106Y-9594011D01*
X36949511Y-9591161D01*
X36951825Y-9587570D01*
X36954067Y-9583294D01*
X36958416Y-9572902D01*
X36962721Y-9560420D01*
X36971844Y-9530929D01*
X36976984Y-9514791D01*
X36982724Y-9498305D01*
X36989227Y-9481907D01*
X36996654Y-9466032D01*
X37000764Y-9458427D01*
X37005166Y-9451117D01*
X37009879Y-9444154D01*
X37014924Y-9437595D01*
X37020320Y-9431493D01*
X37026089Y-9425903D01*
X37032250Y-9420880D01*
X37038823Y-9416477D01*
X37045829Y-9412750D01*
X37053288Y-9409752D01*
X37061220Y-9407538D01*
X37069644Y-9406163D01*
X37078028Y-9405875D01*
X37086290Y-9406381D01*
X37094426Y-9407625D01*
X37102430Y-9409551D01*
X37110299Y-9412103D01*
X37118028Y-9415225D01*
X37125613Y-9418862D01*
X37133047Y-9422957D01*
X37140328Y-9427455D01*
X37147451Y-9432300D01*
X37154410Y-9437437D01*
X37161202Y-9442808D01*
X37174265Y-9454033D01*
X37186601Y-9465529D01*
X37208951Y-9487548D01*
X37218891Y-9497176D01*
X37227959Y-9505289D01*
X37232154Y-9508637D01*
X37236118Y-9511439D01*
X37239845Y-9513638D01*
X37243331Y-9515180D01*
X37246571Y-9516007D01*
X37249562Y-9516064D01*
X37252297Y-9515296D01*
X37254774Y-9513646D01*
X37255578Y-9510433D01*
X37256135Y-9506454D01*
X37256633Y-9496410D01*
X37256035Y-9469481D01*
X37254973Y-9436285D01*
X37254890Y-9418407D01*
X37255437Y-9400247D01*
X37256864Y-9382234D01*
X37259420Y-9364796D01*
X37261198Y-9356426D01*
X37263353Y-9348360D01*
X37265913Y-9340652D01*
X37268912Y-9333355D01*
X37272379Y-9326524D01*
X37276347Y-9320210D01*
X37280845Y-9314469D01*
X37285906Y-9309353D01*
X37291560Y-9304917D01*
X37297838Y-9301212D01*
X37304772Y-9298294D01*
X37312393Y-9296216D01*
X37320473Y-9295125D01*
X37328747Y-9294631D01*
X37337189Y-9294688D01*
X37345774Y-9295250D01*
X37354477Y-9296268D01*
X37363271Y-9297698D01*
X37372131Y-9299492D01*
X37381031Y-9301603D01*
X37398849Y-9306592D01*
X37416521Y-9312291D01*
X37450604Y-9324324D01*
X37466604Y-9329913D01*
X37481637Y-9334718D01*
X37495497Y-9338367D01*
X37501924Y-9339641D01*
X37507980Y-9340485D01*
X37513641Y-9340854D01*
X37518880Y-9340700D01*
X37523672Y-9339977D01*
X37527992Y-9338639D01*
X37531813Y-9336637D01*
X37535110Y-9333927D01*
X37537858Y-9330461D01*
X37540030Y-9326192D01*
X37541009Y-9313599D01*
X37539314Y-9295036D01*
X37535024Y-9271208D01*
X37528220Y-9242822D01*
X37518983Y-9210585D01*
X37507393Y-9175203D01*
X37493532Y-9137383D01*
X37477479Y-9097832D01*
X37459315Y-9057255D01*
X37439121Y-9016360D01*
X37416977Y-8975852D01*
X37392965Y-8936440D01*
X37367164Y-8898829D01*
X37339655Y-8863725D01*
X37310520Y-8831836D01*
X37295367Y-8817318D01*
X37279837Y-8803868D01*
X37247484Y-8778132D01*
X37214383Y-8753303D01*
X37180784Y-8729235D01*
X37146937Y-8705782D01*
X37014041Y-8615187D01*
X36982686Y-8592612D01*
X36952577Y-8569773D01*
X36923963Y-8546524D01*
X36897093Y-8522719D01*
X36872216Y-8498212D01*
X36849581Y-8472855D01*
X36839182Y-8459813D01*
X36829437Y-8446504D01*
X36820378Y-8432909D01*
X36812034Y-8419011D01*
X36808588Y-8419996D01*
X36804997Y-8420904D01*
X36801303Y-8421758D01*
X36797546Y-8422581D01*
X36790009Y-8424216D01*
X36786311Y-8425072D01*
X36782714Y-8425984D01*
X36799883Y-8421210D01*
X36808503Y-8418841D01*
X36817078Y-8416562D01*
X36814490Y-8399317D01*
X36813702Y-8381773D01*
X36814622Y-8363907D01*
X36817160Y-8345699D01*
X36821223Y-8327126D01*
X36826722Y-8308167D01*
X36841661Y-8269007D01*
X36861246Y-8228045D01*
X36884749Y-8185109D01*
X36940589Y-8092630D01*
X37003349Y-7990194D01*
X37035501Y-7934812D01*
X37067195Y-7876424D01*
X37097702Y-7814859D01*
X37126292Y-7749945D01*
X37152237Y-7681509D01*
X37174808Y-7609380D01*
X37209859Y-7596638D01*
X37246886Y-7585546D01*
X37326207Y-7568064D01*
X37411456Y-7556432D01*
X37501318Y-7550149D01*
X37594478Y-7548713D01*
X37689619Y-7551623D01*
G37*
X35663115Y-5220525D02*
X35663107Y-5220525D01*
X35663115Y-5220518D01*
X35663115Y-5220525D01*
G36*
X35663115Y-5220525D02*
G01*
X35663107Y-5220525D01*
X35663115Y-5220518D01*
X35663115Y-5220525D01*
G37*
D10*
X40305659Y-6042274D02*
X40364757Y-6045446D01*
X40424110Y-6051180D01*
X40483592Y-6059474D01*
X40543075Y-6070325D01*
X40602433Y-6083729D01*
X40661541Y-6099683D01*
X40720271Y-6118184D01*
X40778497Y-6139228D01*
X40836093Y-6162813D01*
X40892931Y-6188935D01*
X40948887Y-6217592D01*
X41003833Y-6248779D01*
X41057643Y-6282493D01*
X41110191Y-6318733D01*
X41161350Y-6357493D01*
X41210993Y-6398772D01*
X41258994Y-6442565D01*
X41305228Y-6488870D01*
X41349566Y-6537683D01*
X41391884Y-6589002D01*
X41432054Y-6642822D01*
X41469949Y-6699142D01*
X41505445Y-6757957D01*
X41538414Y-6819265D01*
X41572754Y-6888137D01*
X41604272Y-6955451D01*
X41632668Y-7021695D01*
X41657640Y-7087361D01*
X41678890Y-7152938D01*
X41696115Y-7218919D01*
X41709017Y-7285792D01*
X41717293Y-7354050D01*
X41720644Y-7424181D01*
X41718768Y-7496678D01*
X41711367Y-7572029D01*
X41698138Y-7650727D01*
X41678783Y-7733261D01*
X41652999Y-7820121D01*
X41620487Y-7911800D01*
X41580946Y-8008786D01*
X41575210Y-7994681D01*
X41568806Y-7981403D01*
X41561752Y-7968928D01*
X41554071Y-7957234D01*
X41545781Y-7946298D01*
X41536903Y-7936096D01*
X41527456Y-7926607D01*
X41517462Y-7917806D01*
X41506941Y-7909672D01*
X41495911Y-7902181D01*
X41484395Y-7895311D01*
X41472411Y-7889038D01*
X41447122Y-7878193D01*
X41420205Y-7869465D01*
X41391823Y-7862669D01*
X41362137Y-7857624D01*
X41331306Y-7854145D01*
X41299494Y-7852050D01*
X41266861Y-7851156D01*
X41233568Y-7851279D01*
X41165649Y-7853849D01*
X41069608Y-7861074D01*
X40979339Y-7869712D01*
X40894692Y-7879888D01*
X40815516Y-7891725D01*
X40741661Y-7905349D01*
X40672978Y-7920884D01*
X40640528Y-7929407D01*
X40609315Y-7938454D01*
X40579319Y-7948041D01*
X40550522Y-7958184D01*
X40522905Y-7968898D01*
X40496450Y-7980198D01*
X40471137Y-7992101D01*
X40446947Y-8004621D01*
X40423863Y-8017774D01*
X40401865Y-8031576D01*
X40380934Y-8046043D01*
X40361051Y-8061190D01*
X40342199Y-8077032D01*
X40324357Y-8093585D01*
X40307508Y-8110864D01*
X40291632Y-8128886D01*
X40276710Y-8147666D01*
X40262725Y-8167219D01*
X40249657Y-8187561D01*
X40237487Y-8208707D01*
X40232497Y-8215004D01*
X40228297Y-8221250D01*
X40224853Y-8227451D01*
X40222134Y-8233614D01*
X40220108Y-8239746D01*
X40218742Y-8245853D01*
X40218005Y-8251943D01*
X40217864Y-8258023D01*
X40218287Y-8264099D01*
X40219243Y-8270178D01*
X40220699Y-8276267D01*
X40222623Y-8282373D01*
X40224983Y-8288503D01*
X40227748Y-8294664D01*
X40234360Y-8307104D01*
X40242204Y-8319749D01*
X40251022Y-8332655D01*
X40270558Y-8359465D01*
X40280761Y-8373480D01*
X40290914Y-8387974D01*
X40300759Y-8403003D01*
X40310039Y-8418622D01*
X40233620Y-8396675D01*
X40160530Y-8373045D01*
X40090712Y-8347791D01*
X40024108Y-8320974D01*
X39960661Y-8292652D01*
X39900315Y-8262885D01*
X39843010Y-8231733D01*
X39788692Y-8199255D01*
X39737301Y-8165510D01*
X39688781Y-8130558D01*
X39643075Y-8094458D01*
X39600125Y-8057271D01*
X39559875Y-8019054D01*
X39522266Y-7979869D01*
X39487241Y-7939774D01*
X39454744Y-7898828D01*
X39424717Y-7857093D01*
X39397103Y-7814625D01*
X39371844Y-7771486D01*
X39348883Y-7727735D01*
X39328163Y-7683431D01*
X39309627Y-7638634D01*
X39293217Y-7593403D01*
X39278877Y-7547798D01*
X39256174Y-7455702D01*
X39241061Y-7362823D01*
X39233079Y-7269636D01*
X39231770Y-7176618D01*
X39231769Y-7176618D01*
X39233790Y-7130782D01*
X39237473Y-7085153D01*
X39242765Y-7039790D01*
X39249613Y-6994754D01*
X39257964Y-6950103D01*
X39267763Y-6905899D01*
X39278959Y-6862200D01*
X39291498Y-6819068D01*
X39305328Y-6776562D01*
X39320394Y-6734741D01*
X39336643Y-6693667D01*
X39354024Y-6653398D01*
X39372481Y-6613995D01*
X39391963Y-6575518D01*
X39412417Y-6538026D01*
X39433788Y-6501579D01*
X39456024Y-6466239D01*
X39479072Y-6432063D01*
X39502878Y-6399113D01*
X39527390Y-6367449D01*
X39552554Y-6337129D01*
X39578317Y-6308215D01*
X39604627Y-6280766D01*
X39631429Y-6254842D01*
X39658671Y-6230504D01*
X39686300Y-6207810D01*
X39714262Y-6186821D01*
X39742504Y-6167597D01*
X39770974Y-6150197D01*
X39799617Y-6134683D01*
X39828382Y-6121113D01*
X39857214Y-6109548D01*
X39909723Y-6092101D01*
X39963498Y-6077243D01*
X40018413Y-6064971D01*
X40074342Y-6055280D01*
X40131157Y-6048168D01*
X40188732Y-6043632D01*
X40246942Y-6041668D01*
X40305659Y-6042274D01*
X34923925Y-6874935D02*
X34941631Y-6983847D01*
X34966095Y-7088536D01*
X34997201Y-7188708D01*
X35034832Y-7284067D01*
X35078874Y-7374318D01*
X35129211Y-7459164D01*
X35185726Y-7538311D01*
X35216265Y-7575655D01*
X35248305Y-7611463D01*
X35281833Y-7645698D01*
X35316832Y-7678324D01*
X35353290Y-7709304D01*
X35391192Y-7738600D01*
X35430522Y-7766175D01*
X35471267Y-7791994D01*
X35513413Y-7816018D01*
X35556944Y-7838211D01*
X35601847Y-7858535D01*
X35648107Y-7876955D01*
X35695709Y-7893433D01*
X35744639Y-7907931D01*
X35794882Y-7920414D01*
X35846425Y-7930844D01*
X35846424Y-7930852D01*
X35809495Y-8016026D01*
X35776684Y-8100315D01*
X35722835Y-8266100D01*
X35683711Y-8427935D01*
X35658143Y-8585550D01*
X35644966Y-8738674D01*
X35643010Y-8887035D01*
X35651109Y-9030362D01*
X35668094Y-9168385D01*
X35692800Y-9300833D01*
X35724057Y-9427434D01*
X35760699Y-9547918D01*
X35801559Y-9662014D01*
X35845468Y-9769450D01*
X35891259Y-9869956D01*
X35983818Y-10049092D01*
X36015585Y-10109717D01*
X36048115Y-10177967D01*
X36079947Y-10252879D01*
X36109617Y-10333493D01*
X36135662Y-10418847D01*
X36156621Y-10507978D01*
X36171030Y-10599926D01*
X36175321Y-10646656D01*
X36177426Y-10693729D01*
X36177162Y-10741026D01*
X36174347Y-10788425D01*
X36168797Y-10835808D01*
X36160330Y-10883053D01*
X36148763Y-10930041D01*
X36133913Y-10976651D01*
X36115596Y-11022763D01*
X36093631Y-11068257D01*
X36067835Y-11113013D01*
X36038024Y-11156910D01*
X36004016Y-11199829D01*
X35965628Y-11241649D01*
X35922677Y-11282249D01*
X35874980Y-11321511D01*
X35822354Y-11359313D01*
X35764617Y-11395535D01*
X35729755Y-11414470D01*
X35693623Y-11431100D01*
X35656310Y-11445469D01*
X35617905Y-11457622D01*
X35578498Y-11467602D01*
X35538180Y-11475452D01*
X35497038Y-11481218D01*
X35455163Y-11484941D01*
X35412643Y-11486667D01*
X35369570Y-11486440D01*
X35282118Y-11480298D01*
X35193523Y-11466867D01*
X35104500Y-11446497D01*
X35015766Y-11419540D01*
X34928036Y-11386345D01*
X34842027Y-11347263D01*
X34758455Y-11302645D01*
X34678035Y-11252841D01*
X34601485Y-11198203D01*
X34529519Y-11139081D01*
X34462853Y-11075826D01*
X34413283Y-11022587D01*
X34366302Y-10967314D01*
X34321865Y-10910142D01*
X34279922Y-10851204D01*
X34203335Y-10728572D01*
X34136162Y-10600500D01*
X34078027Y-10468065D01*
X34028552Y-10332348D01*
X33987357Y-10194427D01*
X33954067Y-10055382D01*
X33928302Y-9916291D01*
X33909685Y-9778235D01*
X33897839Y-9642292D01*
X33892385Y-9509541D01*
X33892945Y-9381062D01*
X33899142Y-9257934D01*
X33910598Y-9141236D01*
X33926934Y-9032048D01*
X33974206Y-8802967D01*
X34028233Y-8592059D01*
X34087977Y-8397921D01*
X34152402Y-8219151D01*
X34220471Y-8054346D01*
X34291147Y-7902104D01*
X34363391Y-7761022D01*
X34436168Y-7629699D01*
X34711857Y-7173934D01*
X34771738Y-7070363D01*
X34825929Y-6968135D01*
X34873392Y-6865847D01*
X34913091Y-6762097D01*
X34923925Y-6874935D01*
X40298294Y-7368036D02*
X40303287Y-7368549D01*
X40308430Y-7369328D01*
X40313716Y-7370373D01*
X40319136Y-7371686D01*
X40324681Y-7373266D01*
X40330342Y-7375116D01*
X40336111Y-7377235D01*
X40341979Y-7379626D01*
X40347937Y-7382288D01*
X40353976Y-7385223D01*
X40360088Y-7388431D01*
X40366265Y-7391914D01*
X40372497Y-7395673D01*
X40378775Y-7399707D01*
X40385091Y-7404019D01*
X40385091Y-7404027D01*
X40397485Y-7412769D01*
X40409303Y-7422072D01*
X40420498Y-7431850D01*
X40431023Y-7442020D01*
X40440829Y-7452498D01*
X40449869Y-7463198D01*
X40458096Y-7474038D01*
X40465461Y-7484933D01*
X40471918Y-7495798D01*
X40477418Y-7506550D01*
X40481914Y-7517104D01*
X40485358Y-7527377D01*
X40486671Y-7532381D01*
X40487703Y-7537283D01*
X40488448Y-7542072D01*
X40488900Y-7546738D01*
X40489054Y-7551271D01*
X40488903Y-7555660D01*
X40488442Y-7559893D01*
X40487664Y-7563962D01*
X40486574Y-7568047D01*
X40485185Y-7571869D01*
X40483505Y-7575425D01*
X40481543Y-7578717D01*
X40479309Y-7581744D01*
X40476810Y-7584504D01*
X40474055Y-7586998D01*
X40471054Y-7589226D01*
X40467814Y-7591186D01*
X40464344Y-7592879D01*
X40460654Y-7594303D01*
X40456752Y-7595459D01*
X40452646Y-7596345D01*
X40448346Y-7596963D01*
X40443859Y-7597310D01*
X40439195Y-7597386D01*
X40434363Y-7597192D01*
X40429370Y-7596727D01*
X40424227Y-7595989D01*
X40418941Y-7594980D01*
X40413521Y-7593697D01*
X40407976Y-7592142D01*
X40402315Y-7590313D01*
X40396546Y-7588209D01*
X40390678Y-7585831D01*
X40384720Y-7583178D01*
X40378681Y-7580250D01*
X40372568Y-7577046D01*
X40366392Y-7573565D01*
X40360160Y-7569807D01*
X40353881Y-7565772D01*
X40347564Y-7561460D01*
X40335171Y-7552717D01*
X40323353Y-7543410D01*
X40312158Y-7533620D01*
X40301633Y-7523427D01*
X40291827Y-7512913D01*
X40282787Y-7502156D01*
X40274560Y-7491239D01*
X40267195Y-7480241D01*
X40260738Y-7469243D01*
X40255238Y-7458326D01*
X40250742Y-7447569D01*
X40247298Y-7437054D01*
X40245985Y-7431913D01*
X40244953Y-7426862D01*
X40244208Y-7421912D01*
X40243756Y-7417072D01*
X40243602Y-7412353D01*
X40243753Y-7407765D01*
X40244214Y-7403318D01*
X40244992Y-7399022D01*
X40246082Y-7395164D01*
X40247471Y-7391556D01*
X40249151Y-7388199D01*
X40251113Y-7385093D01*
X40253347Y-7382240D01*
X40255846Y-7379640D01*
X40258601Y-7377295D01*
X40261603Y-7375205D01*
X40264843Y-7373371D01*
X40268312Y-7371795D01*
X40272002Y-7370476D01*
X40275905Y-7369417D01*
X40280011Y-7368617D01*
X40284311Y-7368078D01*
X40288798Y-7367801D01*
X40293462Y-7367786D01*
X40298294Y-7368036D01*
D11*
X41297136Y-6480130D02*
X41244743Y-6428893D01*
X41190183Y-6380817D01*
X41133632Y-6335908D01*
X41075268Y-6294170D01*
X41015269Y-6255609D01*
X40953811Y-6220229D01*
X40891074Y-6188035D01*
X40827233Y-6159031D01*
X40762467Y-6133223D01*
X40696953Y-6110615D01*
X40630868Y-6091211D01*
X40564390Y-6075017D01*
X40497697Y-6062038D01*
X40430966Y-6052277D01*
X40364375Y-6045740D01*
X40298100Y-6042432D01*
X40298100Y-6042440D01*
X40257234Y-6023081D01*
X40218086Y-6003099D01*
X40180552Y-5982518D01*
X40144528Y-5961361D01*
X40076594Y-5917416D01*
X40013451Y-5871451D01*
X39954266Y-5823654D01*
X39898205Y-5774214D01*
X39844436Y-5723320D01*
X39792125Y-5671158D01*
X39580810Y-5453612D01*
X39523298Y-5397942D01*
X39462246Y-5342135D01*
X39396822Y-5286379D01*
X39326193Y-5230863D01*
X41905880Y-5226591D01*
X41297136Y-6480130D01*
G36*
X41297136Y-6480130D02*
G01*
X41244743Y-6428893D01*
X41190183Y-6380817D01*
X41133632Y-6335908D01*
X41075268Y-6294170D01*
X41015269Y-6255609D01*
X40953811Y-6220229D01*
X40891074Y-6188035D01*
X40827233Y-6159031D01*
X40762467Y-6133223D01*
X40696953Y-6110615D01*
X40630868Y-6091211D01*
X40564390Y-6075017D01*
X40497697Y-6062038D01*
X40430966Y-6052277D01*
X40364375Y-6045740D01*
X40298100Y-6042432D01*
X40298100Y-6042440D01*
X40257234Y-6023081D01*
X40218086Y-6003099D01*
X40180552Y-5982518D01*
X40144528Y-5961361D01*
X40076594Y-5917416D01*
X40013451Y-5871451D01*
X39954266Y-5823654D01*
X39898205Y-5774214D01*
X39844436Y-5723320D01*
X39792125Y-5671158D01*
X39580810Y-5453612D01*
X39523298Y-5397942D01*
X39462246Y-5342135D01*
X39396822Y-5286379D01*
X39326193Y-5230863D01*
X41905880Y-5226591D01*
X41297136Y-6480130D01*
G37*
D10*
X38865065Y-8514907D02*
X38921673Y-8523698D01*
X38975173Y-8531258D01*
X39001188Y-8534202D01*
X39026943Y-8536387D01*
X39052610Y-8537665D01*
X39078362Y-8537885D01*
X39104369Y-8536897D01*
X39130806Y-8534551D01*
X39157844Y-8530697D01*
X39185654Y-8525185D01*
X39214411Y-8517866D01*
X39244285Y-8508588D01*
X39285646Y-8552791D01*
X39336294Y-8602280D01*
X39458266Y-8713192D01*
X39734635Y-8955282D01*
X39860301Y-9070763D01*
X39913719Y-9123679D01*
X39958466Y-9172071D01*
X39992747Y-9214957D01*
X40005402Y-9234028D01*
X40014766Y-9251356D01*
X40020616Y-9266817D01*
X40022727Y-9280288D01*
X40020875Y-9291647D01*
X40014835Y-9300771D01*
X40011548Y-9303553D01*
X40007800Y-9305836D01*
X40003616Y-9307665D01*
X39999018Y-9309082D01*
X39994030Y-9310132D01*
X39988674Y-9310857D01*
X39976956Y-9311508D01*
X39920080Y-9309830D01*
X39904294Y-9310078D01*
X39888255Y-9311289D01*
X39880200Y-9312365D01*
X39872151Y-9313811D01*
X39864132Y-9315672D01*
X39856167Y-9317991D01*
X39848279Y-9320812D01*
X39840491Y-9324178D01*
X39832827Y-9328132D01*
X39825310Y-9332718D01*
X39817963Y-9337979D01*
X39810810Y-9343959D01*
X39803875Y-9350702D01*
X39797179Y-9358250D01*
X39787919Y-9370664D01*
X39779798Y-9383055D01*
X39772752Y-9395404D01*
X39766718Y-9407688D01*
X39761634Y-9419887D01*
X39757436Y-9431977D01*
X39754060Y-9443939D01*
X39751444Y-9455750D01*
X39749524Y-9467389D01*
X39748238Y-9478834D01*
X39747311Y-9501059D01*
X39748158Y-9522251D01*
X39750272Y-9542238D01*
X39761296Y-9606703D01*
X39762164Y-9618088D01*
X39761967Y-9622953D01*
X39761266Y-9627237D01*
X39759996Y-9630918D01*
X39758095Y-9633976D01*
X39755500Y-9636389D01*
X39752147Y-9638135D01*
X39745491Y-9640070D01*
X39738217Y-9641220D01*
X39730366Y-9641635D01*
X39721979Y-9641364D01*
X39713097Y-9640459D01*
X39703762Y-9638968D01*
X39683896Y-9634431D01*
X39662710Y-9628150D01*
X39640535Y-9620526D01*
X39594535Y-9602842D01*
X39548536Y-9584573D01*
X39526361Y-9576216D01*
X39505175Y-9568909D01*
X39485308Y-9563052D01*
X39467091Y-9559045D01*
X39458703Y-9557859D01*
X39450852Y-9557284D01*
X39443578Y-9557372D01*
X39436922Y-9558171D01*
X39424981Y-9561156D01*
X39413987Y-9564920D01*
X39403887Y-9569407D01*
X39394631Y-9574561D01*
X39386169Y-9580326D01*
X39378450Y-9586647D01*
X39371422Y-9593467D01*
X39365035Y-9600732D01*
X39359238Y-9608384D01*
X39353980Y-9616369D01*
X39349211Y-9624629D01*
X39344879Y-9633111D01*
X39337324Y-9650512D01*
X39330909Y-9668126D01*
X39319871Y-9702204D01*
X39314434Y-9717775D01*
X39308510Y-9731772D01*
X39305239Y-9738041D01*
X39301692Y-9743749D01*
X39297821Y-9748840D01*
X39293573Y-9753258D01*
X39288899Y-9756948D01*
X39283746Y-9759854D01*
X39278065Y-9761919D01*
X39271805Y-9763089D01*
X39264811Y-9760268D01*
X39257895Y-9756982D01*
X39251045Y-9753264D01*
X39244252Y-9749144D01*
X39237504Y-9744657D01*
X39230792Y-9739835D01*
X39217431Y-9729313D01*
X39204085Y-9717840D01*
X39190669Y-9705675D01*
X39163291Y-9680309D01*
X39149161Y-9667628D01*
X39134623Y-9655295D01*
X39119595Y-9643569D01*
X39111870Y-9638015D01*
X39103991Y-9632711D01*
X39095947Y-9627689D01*
X39087727Y-9622981D01*
X39079322Y-9618620D01*
X39070719Y-9614638D01*
X39061910Y-9611068D01*
X39052884Y-9607942D01*
X39043629Y-9605293D01*
X39034135Y-9603154D01*
X39024963Y-9601667D01*
X39016200Y-9600922D01*
X39007827Y-9600872D01*
X38999829Y-9601469D01*
X38992188Y-9602664D01*
X38984887Y-9604410D01*
X38977910Y-9606658D01*
X38971239Y-9609361D01*
X38964858Y-9612470D01*
X38958749Y-9615937D01*
X38952896Y-9619715D01*
X38947282Y-9623754D01*
X38941889Y-9628008D01*
X38936701Y-9632428D01*
X38926872Y-9641575D01*
X38908924Y-9659747D01*
X38900535Y-9668003D01*
X38892355Y-9675195D01*
X38888300Y-9678271D01*
X38884248Y-9680937D01*
X38880179Y-9683144D01*
X38876078Y-9684845D01*
X38871928Y-9685990D01*
X38867711Y-9686534D01*
X38863411Y-9686426D01*
X38859010Y-9685620D01*
X38859002Y-9685613D01*
X38855471Y-9684761D01*
X38851920Y-9682258D01*
X38848358Y-9678179D01*
X38844793Y-9672600D01*
X38837696Y-9657246D01*
X38830702Y-9636804D01*
X38823883Y-9611881D01*
X38817314Y-9583085D01*
X38811067Y-9551024D01*
X38805215Y-9516305D01*
X38799833Y-9479536D01*
X38794993Y-9441325D01*
X38790769Y-9402280D01*
X38787234Y-9363007D01*
X38784461Y-9324116D01*
X38782523Y-9286212D01*
X38781494Y-9249905D01*
X38781448Y-9215802D01*
X38783047Y-9181173D01*
X38785800Y-9144000D01*
X38793760Y-9063090D01*
X38812407Y-8882499D01*
X38819049Y-8787093D01*
X38820814Y-8739047D01*
X38821206Y-8691130D01*
X38819970Y-8643608D01*
X38816855Y-8596748D01*
X38811606Y-8550818D01*
X38803972Y-8506085D01*
X38865065Y-8514907D01*
D11*
X39517910Y-7977381D02*
X39552852Y-8014604D01*
X39590138Y-8050975D01*
X39629816Y-8086446D01*
X39671933Y-8120965D01*
X39716539Y-8154484D01*
X39763680Y-8186952D01*
X39813406Y-8218318D01*
X39865765Y-8248533D01*
X39920805Y-8277546D01*
X39978574Y-8305308D01*
X40039120Y-8331768D01*
X40102492Y-8356876D01*
X40168738Y-8380582D01*
X40237906Y-8402837D01*
X40310044Y-8423589D01*
X40309594Y-8428947D01*
X40309514Y-8429620D01*
X40309416Y-8430295D01*
X40309296Y-8430973D01*
X40309151Y-8431656D01*
X40308978Y-8432343D01*
X40308771Y-8433035D01*
X40308528Y-8433733D01*
X40308244Y-8434438D01*
X40256393Y-8547144D01*
X40233324Y-8598367D01*
X40212829Y-8646678D01*
X40203705Y-8669860D01*
X40195412Y-8692456D01*
X40188015Y-8714514D01*
X40181575Y-8736081D01*
X40176156Y-8757205D01*
X40171821Y-8777934D01*
X40168632Y-8798314D01*
X40166652Y-8818395D01*
X40006586Y-9148091D01*
X39980742Y-9201833D01*
X39951967Y-9167783D01*
X39917435Y-9130710D01*
X39877924Y-9091039D01*
X39834212Y-9049196D01*
X39737297Y-8960692D01*
X39632913Y-8868599D01*
X39426631Y-8687251D01*
X39337180Y-8604798D01*
X39298600Y-8567115D01*
X39265267Y-8532479D01*
X39265785Y-8532399D01*
X39266386Y-8532320D01*
X39266961Y-8532256D01*
X39267525Y-8532204D01*
X39268670Y-8532109D01*
X39269278Y-8532057D01*
X39269928Y-8531995D01*
X39269183Y-8504976D01*
X39269270Y-8479165D01*
X39270154Y-8454498D01*
X39271800Y-8430907D01*
X39274173Y-8408328D01*
X39277238Y-8386693D01*
X39280960Y-8365937D01*
X39285305Y-8345995D01*
X39290237Y-8326799D01*
X39295721Y-8308285D01*
X39301723Y-8290386D01*
X39308208Y-8273037D01*
X39322484Y-8239722D01*
X39338271Y-8207813D01*
X39355290Y-8176783D01*
X39373260Y-8146104D01*
X39410939Y-8083689D01*
X39430087Y-8050898D01*
X39449070Y-8016349D01*
X39467607Y-7979512D01*
X39485419Y-7939862D01*
X39485262Y-7939359D01*
X39517910Y-7977381D01*
G36*
X39517910Y-7977381D02*
G01*
X39552852Y-8014604D01*
X39590138Y-8050975D01*
X39629816Y-8086446D01*
X39671933Y-8120965D01*
X39716539Y-8154484D01*
X39763680Y-8186952D01*
X39813406Y-8218318D01*
X39865765Y-8248533D01*
X39920805Y-8277546D01*
X39978574Y-8305308D01*
X40039120Y-8331768D01*
X40102492Y-8356876D01*
X40168738Y-8380582D01*
X40237906Y-8402837D01*
X40310044Y-8423589D01*
X40309594Y-8428947D01*
X40309514Y-8429620D01*
X40309416Y-8430295D01*
X40309296Y-8430973D01*
X40309151Y-8431656D01*
X40308978Y-8432343D01*
X40308771Y-8433035D01*
X40308528Y-8433733D01*
X40308244Y-8434438D01*
X40256393Y-8547144D01*
X40233324Y-8598367D01*
X40212829Y-8646678D01*
X40203705Y-8669860D01*
X40195412Y-8692456D01*
X40188015Y-8714514D01*
X40181575Y-8736081D01*
X40176156Y-8757205D01*
X40171821Y-8777934D01*
X40168632Y-8798314D01*
X40166652Y-8818395D01*
X40006586Y-9148091D01*
X39980742Y-9201833D01*
X39951967Y-9167783D01*
X39917435Y-9130710D01*
X39877924Y-9091039D01*
X39834212Y-9049196D01*
X39737297Y-8960692D01*
X39632913Y-8868599D01*
X39426631Y-8687251D01*
X39337180Y-8604798D01*
X39298600Y-8567115D01*
X39265267Y-8532479D01*
X39265785Y-8532399D01*
X39266386Y-8532320D01*
X39266961Y-8532256D01*
X39267525Y-8532204D01*
X39268670Y-8532109D01*
X39269278Y-8532057D01*
X39269928Y-8531995D01*
X39269183Y-8504976D01*
X39269270Y-8479165D01*
X39270154Y-8454498D01*
X39271800Y-8430907D01*
X39274173Y-8408328D01*
X39277238Y-8386693D01*
X39280960Y-8365937D01*
X39285305Y-8345995D01*
X39290237Y-8326799D01*
X39295721Y-8308285D01*
X39301723Y-8290386D01*
X39308208Y-8273037D01*
X39322484Y-8239722D01*
X39338271Y-8207813D01*
X39355290Y-8176783D01*
X39373260Y-8146104D01*
X39410939Y-8083689D01*
X39430087Y-8050898D01*
X39449070Y-8016349D01*
X39467607Y-7979512D01*
X39485419Y-7939862D01*
X39485262Y-7939359D01*
X39517910Y-7977381D01*
G37*
D10*
X41217243Y-7854539D02*
X41302352Y-7860574D01*
X41380802Y-7871343D01*
X41398780Y-7874740D01*
X41415676Y-7878375D01*
X41431524Y-7882250D01*
X41446358Y-7886369D01*
X41460209Y-7890736D01*
X41473110Y-7895353D01*
X41485096Y-7900223D01*
X41496198Y-7905350D01*
X41506450Y-7910737D01*
X41515885Y-7916387D01*
X41524536Y-7922304D01*
X41532435Y-7928490D01*
X41539616Y-7934949D01*
X41546111Y-7941683D01*
X41551955Y-7948697D01*
X41557179Y-7955994D01*
X41561816Y-7963575D01*
X41565900Y-7971446D01*
X41569464Y-7979608D01*
X41572541Y-7988066D01*
X41575163Y-7996822D01*
X41577363Y-8005879D01*
X41580632Y-8024912D01*
X41582611Y-8045189D01*
X41583563Y-8066736D01*
X41583754Y-8089579D01*
X41583446Y-8113744D01*
X41583885Y-8148180D01*
X41588010Y-8186464D01*
X41595815Y-8228049D01*
X41607291Y-8272392D01*
X41622433Y-8318945D01*
X41641232Y-8367163D01*
X41663681Y-8416502D01*
X41689773Y-8466415D01*
X41719500Y-8516358D01*
X41752855Y-8565784D01*
X41789831Y-8614149D01*
X41830420Y-8660907D01*
X41874615Y-8705512D01*
X41898063Y-8726837D01*
X41922409Y-8747419D01*
X41947654Y-8767191D01*
X41973795Y-8786083D01*
X42000832Y-8804028D01*
X42028764Y-8820958D01*
X42028765Y-8820958D01*
X42028766Y-8820959D01*
X42028766Y-8820960D01*
X42028767Y-8820960D01*
X42028768Y-8820962D01*
X42028768Y-8820963D01*
X42028769Y-8820964D01*
X42028770Y-8820964D01*
X42028770Y-8820965D01*
X42028771Y-8820965D01*
X42028771Y-8820966D01*
X42028772Y-8820966D01*
X42064086Y-8842869D01*
X42094598Y-8864500D01*
X42120446Y-8885805D01*
X42141767Y-8906731D01*
X42158700Y-8927225D01*
X42171383Y-8947234D01*
X42179952Y-8966705D01*
X42184547Y-8985585D01*
X42185305Y-9003821D01*
X42182364Y-9021359D01*
X42175861Y-9038147D01*
X42165935Y-9054132D01*
X42152724Y-9069260D01*
X42136365Y-9083478D01*
X42116997Y-9096734D01*
X42094757Y-9108973D01*
X42069783Y-9120144D01*
X42042213Y-9130193D01*
X41979836Y-9146712D01*
X41908730Y-9158107D01*
X41829998Y-9163951D01*
X41744742Y-9163822D01*
X41654066Y-9157294D01*
X41559074Y-9143942D01*
X41460867Y-9123341D01*
X41429456Y-9116145D01*
X41399005Y-9109984D01*
X41369490Y-9104811D01*
X41340889Y-9100580D01*
X41313178Y-9097241D01*
X41286334Y-9094748D01*
X41260336Y-9093053D01*
X41235159Y-9092108D01*
X41210781Y-9091866D01*
X41187179Y-9092280D01*
X41142212Y-9094881D01*
X41100074Y-9099533D01*
X41060582Y-9105854D01*
X41023552Y-9113463D01*
X40988802Y-9121980D01*
X40956148Y-9131024D01*
X40925407Y-9140215D01*
X40868932Y-9157512D01*
X40842830Y-9164858D01*
X40817909Y-9170827D01*
X40784386Y-9177064D01*
X40750497Y-9182539D01*
X40716345Y-9187078D01*
X40682030Y-9190504D01*
X40647658Y-9192642D01*
X40613329Y-9193316D01*
X40579147Y-9192349D01*
X40545214Y-9189567D01*
X40511633Y-9184794D01*
X40478506Y-9177854D01*
X40445937Y-9168571D01*
X40414026Y-9156769D01*
X40398351Y-9149868D01*
X40382879Y-9142273D01*
X40367623Y-9133959D01*
X40352595Y-9124906D01*
X40337810Y-9115092D01*
X40323280Y-9104494D01*
X40309017Y-9093091D01*
X40295034Y-9080861D01*
X40274649Y-9061805D01*
X40256143Y-9043034D01*
X40239464Y-9024511D01*
X40224557Y-9006198D01*
X40211366Y-8988060D01*
X40199838Y-8970059D01*
X40189918Y-8952157D01*
X40181551Y-8934318D01*
X40174683Y-8916505D01*
X40169260Y-8898680D01*
X40165226Y-8880807D01*
X40162528Y-8862848D01*
X40161110Y-8844766D01*
X40160919Y-8826525D01*
X40161900Y-8808087D01*
X40163998Y-8789415D01*
X40167159Y-8770473D01*
X40171328Y-8751222D01*
X40182473Y-8711649D01*
X40196996Y-8670399D01*
X40214463Y-8627176D01*
X40256480Y-8533625D01*
X40305034Y-8428624D01*
X40306793Y-8423754D01*
X40307874Y-8418981D01*
X40308319Y-8414300D01*
X40308167Y-8409705D01*
X40307460Y-8405190D01*
X40306239Y-8400750D01*
X40304544Y-8396380D01*
X40302416Y-8392074D01*
X40299896Y-8387826D01*
X40297025Y-8383632D01*
X40293843Y-8379485D01*
X40290391Y-8375380D01*
X40282841Y-8367275D01*
X40274701Y-8359273D01*
X40257956Y-8343400D01*
X40250003Y-8335442D01*
X40242764Y-8327410D01*
X40239515Y-8323353D01*
X40236566Y-8319262D01*
X40233960Y-8315130D01*
X40231736Y-8310953D01*
X40229935Y-8306724D01*
X40228598Y-8302438D01*
X40227766Y-8298091D01*
X40227480Y-8293675D01*
X40230100Y-8260384D01*
X40236887Y-8228449D01*
X40247640Y-8197863D01*
X40262158Y-8168622D01*
X40280240Y-8140718D01*
X40301685Y-8114147D01*
X40326292Y-8088902D01*
X40353860Y-8064977D01*
X40384186Y-8042366D01*
X40417072Y-8021063D01*
X40489713Y-7982358D01*
X40570175Y-7948815D01*
X40656849Y-7920386D01*
X40748126Y-7897024D01*
X40842396Y-7878680D01*
X40938052Y-7865307D01*
X41033485Y-7856857D01*
X41127085Y-7853284D01*
X41217243Y-7854539D01*
X41787037Y-7464321D02*
X41838082Y-7483358D01*
X41893254Y-7501554D01*
X41951625Y-7519336D01*
X42074257Y-7555372D01*
X42136663Y-7574482D01*
X42198559Y-7594893D01*
X42259019Y-7617031D01*
X42317116Y-7641325D01*
X42371921Y-7668203D01*
X42397800Y-7682745D01*
X42422508Y-7698094D01*
X42445930Y-7714303D01*
X42467950Y-7731426D01*
X42488452Y-7749516D01*
X42507320Y-7768627D01*
X42524437Y-7788813D01*
X42539689Y-7810126D01*
X42552960Y-7832621D01*
X42564132Y-7856351D01*
X42565420Y-7859684D01*
X42566021Y-7862223D01*
X42565967Y-7864026D01*
X42565290Y-7865149D01*
X42564021Y-7865648D01*
X42562191Y-7865579D01*
X42556978Y-7863962D01*
X42520038Y-7846038D01*
X42508045Y-7840944D01*
X42495455Y-7836506D01*
X42489015Y-7834673D01*
X42482520Y-7833173D01*
X42476003Y-7832062D01*
X42469494Y-7831396D01*
X42463025Y-7831231D01*
X42456629Y-7831625D01*
X42450336Y-7832632D01*
X42444178Y-7834310D01*
X42438187Y-7836715D01*
X42432394Y-7839902D01*
X42426831Y-7843929D01*
X42421529Y-7848851D01*
X42416659Y-7854401D01*
X42412348Y-7859808D01*
X42408570Y-7865077D01*
X42405299Y-7870209D01*
X42402508Y-7875210D01*
X42400171Y-7880083D01*
X42398260Y-7884831D01*
X42396750Y-7889458D01*
X42395614Y-7893969D01*
X42394824Y-7898365D01*
X42394356Y-7902652D01*
X42394181Y-7906833D01*
X42394274Y-7910912D01*
X42394608Y-7914891D01*
X42395156Y-7918775D01*
X42395892Y-7922568D01*
X42396789Y-7926273D01*
X42397821Y-7929894D01*
X42400183Y-7936898D01*
X42405353Y-7950056D01*
X42407736Y-7956270D01*
X42409702Y-7962278D01*
X42410461Y-7965215D01*
X42411037Y-7968111D01*
X42411402Y-7970971D01*
X42411529Y-7973798D01*
X42411503Y-7976266D01*
X42410971Y-7978080D01*
X42409953Y-7979288D01*
X42408470Y-7979939D01*
X42406544Y-7980081D01*
X42404196Y-7979762D01*
X42398316Y-7977938D01*
X42362118Y-7961929D01*
X42350741Y-7957689D01*
X42338771Y-7954129D01*
X42332616Y-7952726D01*
X42326376Y-7951639D01*
X42320072Y-7950916D01*
X42313724Y-7950605D01*
X42307355Y-7950756D01*
X42300984Y-7951416D01*
X42294634Y-7952635D01*
X42288325Y-7954461D01*
X42282079Y-7956941D01*
X42275915Y-7960126D01*
X42269857Y-7964063D01*
X42263923Y-7968800D01*
X42258194Y-7974188D01*
X42253175Y-7979571D01*
X42248831Y-7984944D01*
X42245124Y-7990301D01*
X42242018Y-7995639D01*
X42239476Y-8000951D01*
X42237462Y-8006233D01*
X42235939Y-8011480D01*
X42234871Y-8016686D01*
X42234220Y-8021847D01*
X42233950Y-8026958D01*
X42234025Y-8032013D01*
X42234407Y-8037008D01*
X42235061Y-8041938D01*
X42235949Y-8046797D01*
X42237035Y-8051580D01*
X42239654Y-8060901D01*
X42242625Y-8069859D01*
X42248450Y-8086527D01*
X42250718Y-8094156D01*
X42251563Y-8097777D01*
X42252165Y-8101262D01*
X42252489Y-8104607D01*
X42252498Y-8107805D01*
X42252156Y-8110852D01*
X42251424Y-8113744D01*
X42249942Y-8116856D01*
X42247866Y-8119199D01*
X42245230Y-8120823D01*
X42242072Y-8121777D01*
X42238426Y-8122113D01*
X42234328Y-8121881D01*
X42229814Y-8121130D01*
X42224921Y-8119913D01*
X42214135Y-8116275D01*
X42202258Y-8111371D01*
X42176370Y-8099375D01*
X42149545Y-8087144D01*
X42136495Y-8081947D01*
X42124068Y-8077900D01*
X42118177Y-8076433D01*
X42112550Y-8075404D01*
X42107221Y-8074865D01*
X42102226Y-8074864D01*
X42097602Y-8075453D01*
X42093384Y-8076681D01*
X42089607Y-8078599D01*
X42086307Y-8081258D01*
X42083187Y-8084375D01*
X42080383Y-8087626D01*
X42077874Y-8091002D01*
X42075637Y-8094489D01*
X42073651Y-8098077D01*
X42071894Y-8101755D01*
X42070346Y-8105510D01*
X42068984Y-8109331D01*
X42066735Y-8117127D01*
X42064972Y-8125052D01*
X42062222Y-8140919D01*
X42060889Y-8148678D01*
X42059355Y-8156200D01*
X42057447Y-8163393D01*
X42056299Y-8166837D01*
X42054993Y-8170164D01*
X42053507Y-8173364D01*
X42051820Y-8176424D01*
X42049911Y-8179333D01*
X42047757Y-8182079D01*
X42045338Y-8184652D01*
X42042631Y-8187039D01*
X42039616Y-8189230D01*
X42036270Y-8191213D01*
X42030983Y-8192713D01*
X42024551Y-8192587D01*
X42017048Y-8190922D01*
X42008545Y-8187805D01*
X41999115Y-8183322D01*
X41988830Y-8177561D01*
X41965986Y-8162551D01*
X41940590Y-8143470D01*
X41913224Y-8121015D01*
X41884464Y-8095880D01*
X41854891Y-8068761D01*
X41795621Y-8011353D01*
X41740044Y-7954354D01*
X41692794Y-7903330D01*
X41658502Y-7863843D01*
X41658487Y-7863843D01*
X41666313Y-7842931D01*
X41673835Y-7820590D01*
X41681042Y-7796976D01*
X41687923Y-7772241D01*
X41700662Y-7720026D01*
X41711965Y-7665175D01*
X41721742Y-7608917D01*
X41729907Y-7552485D01*
X41736371Y-7497106D01*
X41741045Y-7444013D01*
X41787037Y-7464321D01*
D11*
X39265267Y-8532479D02*
X39265145Y-8532498D01*
X39265153Y-8532361D01*
X39265267Y-8532479D01*
G36*
X39265267Y-8532479D02*
G01*
X39265145Y-8532498D01*
X39265153Y-8532361D01*
X39265267Y-8532479D01*
G37*
X35587144Y-5292588D02*
X35516170Y-5366791D01*
X35450011Y-5442872D01*
X35388483Y-5520580D01*
X35331404Y-5599661D01*
X35278590Y-5679862D01*
X35229859Y-5760931D01*
X35185028Y-5842615D01*
X35143913Y-5924661D01*
X35106333Y-6006817D01*
X35072103Y-6088828D01*
X35041040Y-6170443D01*
X35012963Y-6251409D01*
X34987687Y-6331473D01*
X34965031Y-6410381D01*
X34944810Y-6487882D01*
X34937333Y-6520463D01*
X34930996Y-6552963D01*
X34925751Y-6585374D01*
X34921549Y-6617684D01*
X34918341Y-6649887D01*
X34916078Y-6681971D01*
X34914711Y-6713927D01*
X34914191Y-6745748D01*
X34901720Y-6780994D01*
X34888261Y-6816006D01*
X34873857Y-6850829D01*
X34858553Y-6885515D01*
X34842391Y-6920111D01*
X34825416Y-6954665D01*
X34789200Y-7023844D01*
X34750255Y-7093441D01*
X34708931Y-7163845D01*
X34620542Y-7308629D01*
X33619826Y-5223875D01*
X35663107Y-5220525D01*
X35587144Y-5292588D01*
G36*
X35587144Y-5292588D02*
G01*
X35516170Y-5366791D01*
X35450011Y-5442872D01*
X35388483Y-5520580D01*
X35331404Y-5599661D01*
X35278590Y-5679862D01*
X35229859Y-5760931D01*
X35185028Y-5842615D01*
X35143913Y-5924661D01*
X35106333Y-6006817D01*
X35072103Y-6088828D01*
X35041040Y-6170443D01*
X35012963Y-6251409D01*
X34987687Y-6331473D01*
X34965031Y-6410381D01*
X34944810Y-6487882D01*
X34937333Y-6520463D01*
X34930996Y-6552963D01*
X34925751Y-6585374D01*
X34921549Y-6617684D01*
X34918341Y-6649887D01*
X34916078Y-6681971D01*
X34914711Y-6713927D01*
X34914191Y-6745748D01*
X34901720Y-6780994D01*
X34888261Y-6816006D01*
X34873857Y-6850829D01*
X34858553Y-6885515D01*
X34842391Y-6920111D01*
X34825416Y-6954665D01*
X34789200Y-7023844D01*
X34750255Y-7093441D01*
X34708931Y-7163845D01*
X34620542Y-7308629D01*
X33619826Y-5223875D01*
X35663107Y-5220525D01*
X35587144Y-5292588D01*
G37*
D12*
X16163743Y-60477400D02*
X15861362Y-60477400D01*
X15982315Y-60779781D02*
X15861362Y-60477400D01*
X15861362Y-60477400D02*
X15982315Y-60175019D01*
X15619458Y-60658829D02*
X15861362Y-60477400D01*
X15861362Y-60477400D02*
X15619458Y-60295971D01*
X14893743Y-58723591D02*
X16163743Y-58723591D01*
X15740410Y-58118829D02*
X14893743Y-58118829D01*
X15619458Y-58118829D02*
X15679934Y-58058352D01*
X15679934Y-58058352D02*
X15740410Y-57937400D01*
X15740410Y-57937400D02*
X15740410Y-57755971D01*
X15740410Y-57755971D02*
X15679934Y-57635019D01*
X15679934Y-57635019D02*
X15558981Y-57574543D01*
X15558981Y-57574543D02*
X14893743Y-57574543D01*
X15740410Y-56969781D02*
X14470410Y-56969781D01*
X15679934Y-56969781D02*
X15740410Y-56848828D01*
X15740410Y-56848828D02*
X15740410Y-56606923D01*
X15740410Y-56606923D02*
X15679934Y-56485971D01*
X15679934Y-56485971D02*
X15619458Y-56425495D01*
X15619458Y-56425495D02*
X15498505Y-56365019D01*
X15498505Y-56365019D02*
X15135648Y-56365019D01*
X15135648Y-56365019D02*
X15014696Y-56425495D01*
X15014696Y-56425495D02*
X14954220Y-56485971D01*
X14954220Y-56485971D02*
X14893743Y-56606923D01*
X14893743Y-56606923D02*
X14893743Y-56848828D01*
X14893743Y-56848828D02*
X14954220Y-56969781D01*
X15740410Y-55276447D02*
X14893743Y-55276447D01*
X15740410Y-55820733D02*
X15075172Y-55820733D01*
X15075172Y-55820733D02*
X14954220Y-55760256D01*
X14954220Y-55760256D02*
X14893743Y-55639304D01*
X14893743Y-55639304D02*
X14893743Y-55457875D01*
X14893743Y-55457875D02*
X14954220Y-55336923D01*
X14954220Y-55336923D02*
X15014696Y-55276447D01*
X15740410Y-54853113D02*
X15740410Y-54369304D01*
X16163743Y-54671685D02*
X15075172Y-54671685D01*
X15075172Y-54671685D02*
X14954220Y-54611208D01*
X14954220Y-54611208D02*
X14893743Y-54490256D01*
X14893743Y-54490256D02*
X14893743Y-54369304D01*
X15740410Y-52978352D02*
X14470410Y-52978352D01*
X15679934Y-52978352D02*
X15740410Y-52857399D01*
X15740410Y-52857399D02*
X15740410Y-52615494D01*
X15740410Y-52615494D02*
X15679934Y-52494542D01*
X15679934Y-52494542D02*
X15619458Y-52434066D01*
X15619458Y-52434066D02*
X15498505Y-52373590D01*
X15498505Y-52373590D02*
X15135648Y-52373590D01*
X15135648Y-52373590D02*
X15014696Y-52434066D01*
X15014696Y-52434066D02*
X14954220Y-52494542D01*
X14954220Y-52494542D02*
X14893743Y-52615494D01*
X14893743Y-52615494D02*
X14893743Y-52857399D01*
X14893743Y-52857399D02*
X14954220Y-52978352D01*
X15740410Y-51285018D02*
X14893743Y-51285018D01*
X15740410Y-51829304D02*
X15075172Y-51829304D01*
X15075172Y-51829304D02*
X14954220Y-51768827D01*
X14954220Y-51768827D02*
X14893743Y-51647875D01*
X14893743Y-51647875D02*
X14893743Y-51466446D01*
X14893743Y-51466446D02*
X14954220Y-51345494D01*
X14954220Y-51345494D02*
X15014696Y-51285018D01*
X14893743Y-50498827D02*
X14954220Y-50619779D01*
X14954220Y-50619779D02*
X15075172Y-50680256D01*
X15075172Y-50680256D02*
X16163743Y-50680256D01*
X14893743Y-49833589D02*
X14954220Y-49954541D01*
X14954220Y-49954541D02*
X15075172Y-50015018D01*
X15075172Y-50015018D02*
X16163743Y-50015018D01*
X15377553Y-49349780D02*
X15377553Y-48382161D01*
X15740410Y-47233113D02*
X14893743Y-47233113D01*
X15740410Y-47777399D02*
X15075172Y-47777399D01*
X15075172Y-47777399D02*
X14954220Y-47716922D01*
X14954220Y-47716922D02*
X14893743Y-47595970D01*
X14893743Y-47595970D02*
X14893743Y-47414541D01*
X14893743Y-47414541D02*
X14954220Y-47293589D01*
X14954220Y-47293589D02*
X15014696Y-47233113D01*
X15740410Y-46628351D02*
X14470410Y-46628351D01*
X15679934Y-46628351D02*
X15740410Y-46507398D01*
X15740410Y-46507398D02*
X15740410Y-46265493D01*
X15740410Y-46265493D02*
X15679934Y-46144541D01*
X15679934Y-46144541D02*
X15619458Y-46084065D01*
X15619458Y-46084065D02*
X15498505Y-46023589D01*
X15498505Y-46023589D02*
X15135648Y-46023589D01*
X15135648Y-46023589D02*
X15014696Y-46084065D01*
X15014696Y-46084065D02*
X14954220Y-46144541D01*
X14954220Y-46144541D02*
X14893743Y-46265493D01*
X14893743Y-46265493D02*
X14893743Y-46507398D01*
X14893743Y-46507398D02*
X14954220Y-46628351D01*
X14954220Y-45539779D02*
X14893743Y-45418826D01*
X14893743Y-45418826D02*
X14893743Y-45176922D01*
X14893743Y-45176922D02*
X14954220Y-45055969D01*
X14954220Y-45055969D02*
X15075172Y-44995493D01*
X15075172Y-44995493D02*
X15135648Y-44995493D01*
X15135648Y-44995493D02*
X15256600Y-45055969D01*
X15256600Y-45055969D02*
X15317077Y-45176922D01*
X15317077Y-45176922D02*
X15317077Y-45358350D01*
X15317077Y-45358350D02*
X15377553Y-45479303D01*
X15377553Y-45479303D02*
X15498505Y-45539779D01*
X15498505Y-45539779D02*
X15558981Y-45539779D01*
X15558981Y-45539779D02*
X15679934Y-45479303D01*
X15679934Y-45479303D02*
X15740410Y-45358350D01*
X15740410Y-45358350D02*
X15740410Y-45176922D01*
X15740410Y-45176922D02*
X15679934Y-45055969D01*
X12849114Y-67825255D02*
X12909591Y-67946207D01*
X12909591Y-67946207D02*
X12970067Y-68006684D01*
X12970067Y-68006684D02*
X13091019Y-68067160D01*
X13091019Y-68067160D02*
X13453876Y-68067160D01*
X13453876Y-68067160D02*
X13574829Y-68006684D01*
X13574829Y-68006684D02*
X13635305Y-67946207D01*
X13635305Y-67946207D02*
X13695781Y-67825255D01*
X13695781Y-67825255D02*
X13695781Y-67643826D01*
X13695781Y-67643826D02*
X13635305Y-67522874D01*
X13635305Y-67522874D02*
X13574829Y-67462398D01*
X13574829Y-67462398D02*
X13453876Y-67401922D01*
X13453876Y-67401922D02*
X13091019Y-67401922D01*
X13091019Y-67401922D02*
X12970067Y-67462398D01*
X12970067Y-67462398D02*
X12909591Y-67522874D01*
X12909591Y-67522874D02*
X12849114Y-67643826D01*
X12849114Y-67643826D02*
X12849114Y-67825255D01*
X13695781Y-66857636D02*
X12849114Y-66857636D01*
X13574829Y-66857636D02*
X13635305Y-66797159D01*
X13635305Y-66797159D02*
X13695781Y-66676207D01*
X13695781Y-66676207D02*
X13695781Y-66494778D01*
X13695781Y-66494778D02*
X13635305Y-66373826D01*
X13635305Y-66373826D02*
X13514352Y-66313350D01*
X13514352Y-66313350D02*
X12849114Y-66313350D01*
X12849114Y-65527159D02*
X12909591Y-65648111D01*
X12909591Y-65648111D02*
X13030543Y-65708588D01*
X13030543Y-65708588D02*
X14119114Y-65708588D01*
X13695781Y-65164302D02*
X12849114Y-64861921D01*
X13695781Y-64559540D02*
X12849114Y-64861921D01*
X12849114Y-64861921D02*
X12546733Y-64982873D01*
X12546733Y-64982873D02*
X12486257Y-65043350D01*
X12486257Y-65043350D02*
X12425781Y-65164302D01*
X12849114Y-63108112D02*
X13695781Y-63108112D01*
X13453876Y-63108112D02*
X13574829Y-63047635D01*
X13574829Y-63047635D02*
X13635305Y-62987159D01*
X13635305Y-62987159D02*
X13695781Y-62866207D01*
X13695781Y-62866207D02*
X13695781Y-62745254D01*
X12909591Y-61838112D02*
X12849114Y-61959064D01*
X12849114Y-61959064D02*
X12849114Y-62200969D01*
X12849114Y-62200969D02*
X12909591Y-62321922D01*
X12909591Y-62321922D02*
X13030543Y-62382398D01*
X13030543Y-62382398D02*
X13514352Y-62382398D01*
X13514352Y-62382398D02*
X13635305Y-62321922D01*
X13635305Y-62321922D02*
X13695781Y-62200969D01*
X13695781Y-62200969D02*
X13695781Y-61959064D01*
X13695781Y-61959064D02*
X13635305Y-61838112D01*
X13635305Y-61838112D02*
X13514352Y-61777636D01*
X13514352Y-61777636D02*
X13393400Y-61777636D01*
X13393400Y-61777636D02*
X13272448Y-62382398D01*
X13695781Y-60689065D02*
X12425781Y-60689065D01*
X12909591Y-60689065D02*
X12849114Y-60810017D01*
X12849114Y-60810017D02*
X12849114Y-61051922D01*
X12849114Y-61051922D02*
X12909591Y-61172874D01*
X12909591Y-61172874D02*
X12970067Y-61233351D01*
X12970067Y-61233351D02*
X13091019Y-61293827D01*
X13091019Y-61293827D02*
X13453876Y-61293827D01*
X13453876Y-61293827D02*
X13574829Y-61233351D01*
X13574829Y-61233351D02*
X13635305Y-61172874D01*
X13635305Y-61172874D02*
X13695781Y-61051922D01*
X13695781Y-61051922D02*
X13695781Y-60810017D01*
X13695781Y-60810017D02*
X13635305Y-60689065D01*
X13695781Y-59540017D02*
X12849114Y-59540017D01*
X13695781Y-60084303D02*
X13030543Y-60084303D01*
X13030543Y-60084303D02*
X12909591Y-60023826D01*
X12909591Y-60023826D02*
X12849114Y-59902874D01*
X12849114Y-59902874D02*
X12849114Y-59721445D01*
X12849114Y-59721445D02*
X12909591Y-59600493D01*
X12909591Y-59600493D02*
X12970067Y-59540017D01*
X12849114Y-58935255D02*
X13695781Y-58935255D01*
X14119114Y-58935255D02*
X14058638Y-58995731D01*
X14058638Y-58995731D02*
X13998162Y-58935255D01*
X13998162Y-58935255D02*
X14058638Y-58874778D01*
X14058638Y-58874778D02*
X14119114Y-58935255D01*
X14119114Y-58935255D02*
X13998162Y-58935255D01*
X12849114Y-58330493D02*
X13695781Y-58330493D01*
X13453876Y-58330493D02*
X13574829Y-58270016D01*
X13574829Y-58270016D02*
X13635305Y-58209540D01*
X13635305Y-58209540D02*
X13695781Y-58088588D01*
X13695781Y-58088588D02*
X13695781Y-57967635D01*
X12909591Y-57060493D02*
X12849114Y-57181445D01*
X12849114Y-57181445D02*
X12849114Y-57423350D01*
X12849114Y-57423350D02*
X12909591Y-57544303D01*
X12909591Y-57544303D02*
X13030543Y-57604779D01*
X13030543Y-57604779D02*
X13514352Y-57604779D01*
X13514352Y-57604779D02*
X13635305Y-57544303D01*
X13635305Y-57544303D02*
X13695781Y-57423350D01*
X13695781Y-57423350D02*
X13695781Y-57181445D01*
X13695781Y-57181445D02*
X13635305Y-57060493D01*
X13635305Y-57060493D02*
X13514352Y-57000017D01*
X13514352Y-57000017D02*
X13393400Y-57000017D01*
X13393400Y-57000017D02*
X13272448Y-57604779D01*
X12849114Y-55911446D02*
X14119114Y-55911446D01*
X12909591Y-55911446D02*
X12849114Y-56032398D01*
X12849114Y-56032398D02*
X12849114Y-56274303D01*
X12849114Y-56274303D02*
X12909591Y-56395255D01*
X12909591Y-56395255D02*
X12970067Y-56455732D01*
X12970067Y-56455732D02*
X13091019Y-56516208D01*
X13091019Y-56516208D02*
X13453876Y-56516208D01*
X13453876Y-56516208D02*
X13574829Y-56455732D01*
X13574829Y-56455732D02*
X13635305Y-56395255D01*
X13635305Y-56395255D02*
X13695781Y-56274303D01*
X13695781Y-56274303D02*
X13695781Y-56032398D01*
X13695781Y-56032398D02*
X13635305Y-55911446D01*
X13695781Y-54520493D02*
X13695781Y-54036684D01*
X12849114Y-54339065D02*
X13937686Y-54339065D01*
X13937686Y-54339065D02*
X14058638Y-54278588D01*
X14058638Y-54278588D02*
X14119114Y-54157636D01*
X14119114Y-54157636D02*
X14119114Y-54036684D01*
X12849114Y-53431922D02*
X12909591Y-53552874D01*
X12909591Y-53552874D02*
X12970067Y-53613351D01*
X12970067Y-53613351D02*
X13091019Y-53673827D01*
X13091019Y-53673827D02*
X13453876Y-53673827D01*
X13453876Y-53673827D02*
X13574829Y-53613351D01*
X13574829Y-53613351D02*
X13635305Y-53552874D01*
X13635305Y-53552874D02*
X13695781Y-53431922D01*
X13695781Y-53431922D02*
X13695781Y-53250493D01*
X13695781Y-53250493D02*
X13635305Y-53129541D01*
X13635305Y-53129541D02*
X13574829Y-53069065D01*
X13574829Y-53069065D02*
X13453876Y-53008589D01*
X13453876Y-53008589D02*
X13091019Y-53008589D01*
X13091019Y-53008589D02*
X12970067Y-53069065D01*
X12970067Y-53069065D02*
X12909591Y-53129541D01*
X12909591Y-53129541D02*
X12849114Y-53250493D01*
X12849114Y-53250493D02*
X12849114Y-53431922D01*
X12849114Y-52464303D02*
X13695781Y-52464303D01*
X13453876Y-52464303D02*
X13574829Y-52403826D01*
X13574829Y-52403826D02*
X13635305Y-52343350D01*
X13635305Y-52343350D02*
X13695781Y-52222398D01*
X13695781Y-52222398D02*
X13695781Y-52101445D01*
X12849114Y-50710494D02*
X13695781Y-50710494D01*
X13453876Y-50710494D02*
X13574829Y-50650017D01*
X13574829Y-50650017D02*
X13635305Y-50589541D01*
X13635305Y-50589541D02*
X13695781Y-50468589D01*
X13695781Y-50468589D02*
X13695781Y-50347636D01*
X12909591Y-49440494D02*
X12849114Y-49561446D01*
X12849114Y-49561446D02*
X12849114Y-49803351D01*
X12849114Y-49803351D02*
X12909591Y-49924304D01*
X12909591Y-49924304D02*
X13030543Y-49984780D01*
X13030543Y-49984780D02*
X13514352Y-49984780D01*
X13514352Y-49984780D02*
X13635305Y-49924304D01*
X13635305Y-49924304D02*
X13695781Y-49803351D01*
X13695781Y-49803351D02*
X13695781Y-49561446D01*
X13695781Y-49561446D02*
X13635305Y-49440494D01*
X13635305Y-49440494D02*
X13514352Y-49380018D01*
X13514352Y-49380018D02*
X13393400Y-49380018D01*
X13393400Y-49380018D02*
X13272448Y-49984780D01*
X12849114Y-48654304D02*
X12909591Y-48775256D01*
X12909591Y-48775256D02*
X13030543Y-48835733D01*
X13030543Y-48835733D02*
X14119114Y-48835733D01*
X12849114Y-47626209D02*
X13514352Y-47626209D01*
X13514352Y-47626209D02*
X13635305Y-47686685D01*
X13635305Y-47686685D02*
X13695781Y-47807637D01*
X13695781Y-47807637D02*
X13695781Y-48049542D01*
X13695781Y-48049542D02*
X13635305Y-48170495D01*
X12909591Y-47626209D02*
X12849114Y-47747161D01*
X12849114Y-47747161D02*
X12849114Y-48049542D01*
X12849114Y-48049542D02*
X12909591Y-48170495D01*
X12909591Y-48170495D02*
X13030543Y-48230971D01*
X13030543Y-48230971D02*
X13151495Y-48230971D01*
X13151495Y-48230971D02*
X13272448Y-48170495D01*
X13272448Y-48170495D02*
X13332924Y-48049542D01*
X13332924Y-48049542D02*
X13332924Y-47747161D01*
X13332924Y-47747161D02*
X13393400Y-47626209D01*
X13695781Y-47142399D02*
X12849114Y-46840018D01*
X13695781Y-46537637D02*
X12849114Y-46840018D01*
X12849114Y-46840018D02*
X12546733Y-46960970D01*
X12546733Y-46960970D02*
X12486257Y-47021447D01*
X12486257Y-47021447D02*
X12425781Y-47142399D01*
X12909591Y-44541923D02*
X12849114Y-44662875D01*
X12849114Y-44662875D02*
X12849114Y-44904780D01*
X12849114Y-44904780D02*
X12909591Y-45025732D01*
X12909591Y-45025732D02*
X12970067Y-45086209D01*
X12970067Y-45086209D02*
X13091019Y-45146685D01*
X13091019Y-45146685D02*
X13453876Y-45146685D01*
X13453876Y-45146685D02*
X13574829Y-45086209D01*
X13574829Y-45086209D02*
X13635305Y-45025732D01*
X13635305Y-45025732D02*
X13695781Y-44904780D01*
X13695781Y-44904780D02*
X13695781Y-44662875D01*
X13695781Y-44662875D02*
X13635305Y-44541923D01*
X12849114Y-43816209D02*
X12909591Y-43937161D01*
X12909591Y-43937161D02*
X13030543Y-43997638D01*
X13030543Y-43997638D02*
X14119114Y-43997638D01*
X12849114Y-43150971D02*
X12909591Y-43271923D01*
X12909591Y-43271923D02*
X12970067Y-43332400D01*
X12970067Y-43332400D02*
X13091019Y-43392876D01*
X13091019Y-43392876D02*
X13453876Y-43392876D01*
X13453876Y-43392876D02*
X13574829Y-43332400D01*
X13574829Y-43332400D02*
X13635305Y-43271923D01*
X13635305Y-43271923D02*
X13695781Y-43150971D01*
X13695781Y-43150971D02*
X13695781Y-42969542D01*
X13695781Y-42969542D02*
X13635305Y-42848590D01*
X13635305Y-42848590D02*
X13574829Y-42788114D01*
X13574829Y-42788114D02*
X13453876Y-42727638D01*
X13453876Y-42727638D02*
X13091019Y-42727638D01*
X13091019Y-42727638D02*
X12970067Y-42788114D01*
X12970067Y-42788114D02*
X12909591Y-42848590D01*
X12909591Y-42848590D02*
X12849114Y-42969542D01*
X12849114Y-42969542D02*
X12849114Y-43150971D01*
X12909591Y-42243828D02*
X12849114Y-42122875D01*
X12849114Y-42122875D02*
X12849114Y-41880971D01*
X12849114Y-41880971D02*
X12909591Y-41760018D01*
X12909591Y-41760018D02*
X13030543Y-41699542D01*
X13030543Y-41699542D02*
X13091019Y-41699542D01*
X13091019Y-41699542D02*
X13211971Y-41760018D01*
X13211971Y-41760018D02*
X13272448Y-41880971D01*
X13272448Y-41880971D02*
X13272448Y-42062399D01*
X13272448Y-42062399D02*
X13332924Y-42183352D01*
X13332924Y-42183352D02*
X13453876Y-42243828D01*
X13453876Y-42243828D02*
X13514352Y-42243828D01*
X13514352Y-42243828D02*
X13635305Y-42183352D01*
X13635305Y-42183352D02*
X13695781Y-42062399D01*
X13695781Y-42062399D02*
X13695781Y-41880971D01*
X13695781Y-41880971D02*
X13635305Y-41760018D01*
X13695781Y-40610971D02*
X12849114Y-40610971D01*
X13695781Y-41155257D02*
X13030543Y-41155257D01*
X13030543Y-41155257D02*
X12909591Y-41094780D01*
X12909591Y-41094780D02*
X12849114Y-40973828D01*
X12849114Y-40973828D02*
X12849114Y-40792399D01*
X12849114Y-40792399D02*
X12909591Y-40671447D01*
X12909591Y-40671447D02*
X12970067Y-40610971D01*
X12849114Y-40006209D02*
X13695781Y-40006209D01*
X13453876Y-40006209D02*
X13574829Y-39945732D01*
X13574829Y-39945732D02*
X13635305Y-39885256D01*
X13635305Y-39885256D02*
X13695781Y-39764304D01*
X13695781Y-39764304D02*
X13695781Y-39643351D01*
X12909591Y-38736209D02*
X12849114Y-38857161D01*
X12849114Y-38857161D02*
X12849114Y-39099066D01*
X12849114Y-39099066D02*
X12909591Y-39220019D01*
X12909591Y-39220019D02*
X13030543Y-39280495D01*
X13030543Y-39280495D02*
X13514352Y-39280495D01*
X13514352Y-39280495D02*
X13635305Y-39220019D01*
X13635305Y-39220019D02*
X13695781Y-39099066D01*
X13695781Y-39099066D02*
X13695781Y-38857161D01*
X13695781Y-38857161D02*
X13635305Y-38736209D01*
X13635305Y-38736209D02*
X13514352Y-38675733D01*
X13514352Y-38675733D02*
X13393400Y-38675733D01*
X13393400Y-38675733D02*
X13272448Y-39280495D01*
X12909591Y-38191924D02*
X12849114Y-38070971D01*
X12849114Y-38070971D02*
X12849114Y-37829067D01*
X12849114Y-37829067D02*
X12909591Y-37708114D01*
X12909591Y-37708114D02*
X13030543Y-37647638D01*
X13030543Y-37647638D02*
X13091019Y-37647638D01*
X13091019Y-37647638D02*
X13211971Y-37708114D01*
X13211971Y-37708114D02*
X13272448Y-37829067D01*
X13272448Y-37829067D02*
X13272448Y-38010495D01*
X13272448Y-38010495D02*
X13332924Y-38131448D01*
X13332924Y-38131448D02*
X13453876Y-38191924D01*
X13453876Y-38191924D02*
X13514352Y-38191924D01*
X13514352Y-38191924D02*
X13635305Y-38131448D01*
X13635305Y-38131448D02*
X13695781Y-38010495D01*
X13695781Y-38010495D02*
X13695781Y-37829067D01*
X13695781Y-37829067D02*
X13635305Y-37708114D01*
X11651152Y-67553113D02*
X10804485Y-67311208D01*
X10804485Y-67311208D02*
X11409247Y-67069303D01*
X11409247Y-67069303D02*
X10804485Y-66827399D01*
X10804485Y-66827399D02*
X11651152Y-66585494D01*
X10804485Y-66101685D02*
X12074485Y-66101685D01*
X10804485Y-65557399D02*
X11469723Y-65557399D01*
X11469723Y-65557399D02*
X11590676Y-65617875D01*
X11590676Y-65617875D02*
X11651152Y-65738827D01*
X11651152Y-65738827D02*
X11651152Y-65920256D01*
X11651152Y-65920256D02*
X11590676Y-66041208D01*
X11590676Y-66041208D02*
X11530200Y-66101685D01*
X10864962Y-64468827D02*
X10804485Y-64589779D01*
X10804485Y-64589779D02*
X10804485Y-64831684D01*
X10804485Y-64831684D02*
X10864962Y-64952637D01*
X10864962Y-64952637D02*
X10985914Y-65013113D01*
X10985914Y-65013113D02*
X11469723Y-65013113D01*
X11469723Y-65013113D02*
X11590676Y-64952637D01*
X11590676Y-64952637D02*
X11651152Y-64831684D01*
X11651152Y-64831684D02*
X11651152Y-64589779D01*
X11651152Y-64589779D02*
X11590676Y-64468827D01*
X11590676Y-64468827D02*
X11469723Y-64408351D01*
X11469723Y-64408351D02*
X11348771Y-64408351D01*
X11348771Y-64408351D02*
X11227819Y-65013113D01*
X10804485Y-63864066D02*
X11651152Y-63864066D01*
X11409247Y-63864066D02*
X11530200Y-63803589D01*
X11530200Y-63803589D02*
X11590676Y-63743113D01*
X11590676Y-63743113D02*
X11651152Y-63622161D01*
X11651152Y-63622161D02*
X11651152Y-63501208D01*
X10864962Y-62594066D02*
X10804485Y-62715018D01*
X10804485Y-62715018D02*
X10804485Y-62956923D01*
X10804485Y-62956923D02*
X10864962Y-63077876D01*
X10864962Y-63077876D02*
X10985914Y-63138352D01*
X10985914Y-63138352D02*
X11469723Y-63138352D01*
X11469723Y-63138352D02*
X11590676Y-63077876D01*
X11590676Y-63077876D02*
X11651152Y-62956923D01*
X11651152Y-62956923D02*
X11651152Y-62715018D01*
X11651152Y-62715018D02*
X11590676Y-62594066D01*
X11590676Y-62594066D02*
X11469723Y-62533590D01*
X11469723Y-62533590D02*
X11348771Y-62533590D01*
X11348771Y-62533590D02*
X11227819Y-63138352D01*
X10804485Y-61021686D02*
X12074485Y-61021686D01*
X12074485Y-61021686D02*
X12074485Y-60537876D01*
X12074485Y-60537876D02*
X12014009Y-60416924D01*
X12014009Y-60416924D02*
X11953533Y-60356447D01*
X11953533Y-60356447D02*
X11832581Y-60295971D01*
X11832581Y-60295971D02*
X11651152Y-60295971D01*
X11651152Y-60295971D02*
X11530200Y-60356447D01*
X11530200Y-60356447D02*
X11469723Y-60416924D01*
X11469723Y-60416924D02*
X11409247Y-60537876D01*
X11409247Y-60537876D02*
X11409247Y-61021686D01*
X10925438Y-59025971D02*
X10864962Y-59086447D01*
X10864962Y-59086447D02*
X10804485Y-59267876D01*
X10804485Y-59267876D02*
X10804485Y-59388828D01*
X10804485Y-59388828D02*
X10864962Y-59570257D01*
X10864962Y-59570257D02*
X10985914Y-59691209D01*
X10985914Y-59691209D02*
X11106866Y-59751686D01*
X11106866Y-59751686D02*
X11348771Y-59812162D01*
X11348771Y-59812162D02*
X11530200Y-59812162D01*
X11530200Y-59812162D02*
X11772104Y-59751686D01*
X11772104Y-59751686D02*
X11893057Y-59691209D01*
X11893057Y-59691209D02*
X12014009Y-59570257D01*
X12014009Y-59570257D02*
X12074485Y-59388828D01*
X12074485Y-59388828D02*
X12074485Y-59267876D01*
X12074485Y-59267876D02*
X12014009Y-59086447D01*
X12014009Y-59086447D02*
X11953533Y-59025971D01*
X11167342Y-58542162D02*
X11167342Y-57937400D01*
X10804485Y-58663114D02*
X12074485Y-58239781D01*
X12074485Y-58239781D02*
X10804485Y-57816447D01*
X10804485Y-57332638D02*
X10804485Y-57090734D01*
X10804485Y-57090734D02*
X10864962Y-56969781D01*
X10864962Y-56969781D02*
X10925438Y-56909305D01*
X10925438Y-56909305D02*
X11106866Y-56788353D01*
X11106866Y-56788353D02*
X11348771Y-56727876D01*
X11348771Y-56727876D02*
X11832581Y-56727876D01*
X11832581Y-56727876D02*
X11953533Y-56788353D01*
X11953533Y-56788353D02*
X12014009Y-56848829D01*
X12014009Y-56848829D02*
X12074485Y-56969781D01*
X12074485Y-56969781D02*
X12074485Y-57211686D01*
X12074485Y-57211686D02*
X12014009Y-57332638D01*
X12014009Y-57332638D02*
X11953533Y-57393115D01*
X11953533Y-57393115D02*
X11832581Y-57453591D01*
X11832581Y-57453591D02*
X11530200Y-57453591D01*
X11530200Y-57453591D02*
X11409247Y-57393115D01*
X11409247Y-57393115D02*
X11348771Y-57332638D01*
X11348771Y-57332638D02*
X11288295Y-57211686D01*
X11288295Y-57211686D02*
X11288295Y-56969781D01*
X11288295Y-56969781D02*
X11348771Y-56848829D01*
X11348771Y-56848829D02*
X11409247Y-56788353D01*
X11409247Y-56788353D02*
X11530200Y-56727876D01*
X12074485Y-55578829D02*
X12074485Y-56183591D01*
X12074485Y-56183591D02*
X11469723Y-56244067D01*
X11469723Y-56244067D02*
X11530200Y-56183591D01*
X11530200Y-56183591D02*
X11590676Y-56062638D01*
X11590676Y-56062638D02*
X11590676Y-55760257D01*
X11590676Y-55760257D02*
X11530200Y-55639305D01*
X11530200Y-55639305D02*
X11469723Y-55578829D01*
X11469723Y-55578829D02*
X11348771Y-55518352D01*
X11348771Y-55518352D02*
X11046390Y-55518352D01*
X11046390Y-55518352D02*
X10925438Y-55578829D01*
X10925438Y-55578829D02*
X10864962Y-55639305D01*
X10864962Y-55639305D02*
X10804485Y-55760257D01*
X10804485Y-55760257D02*
X10804485Y-56062638D01*
X10804485Y-56062638D02*
X10864962Y-56183591D01*
X10864962Y-56183591D02*
X10925438Y-56244067D01*
X12074485Y-54369305D02*
X12074485Y-54974067D01*
X12074485Y-54974067D02*
X11469723Y-55034543D01*
X11469723Y-55034543D02*
X11530200Y-54974067D01*
X11530200Y-54974067D02*
X11590676Y-54853114D01*
X11590676Y-54853114D02*
X11590676Y-54550733D01*
X11590676Y-54550733D02*
X11530200Y-54429781D01*
X11530200Y-54429781D02*
X11469723Y-54369305D01*
X11469723Y-54369305D02*
X11348771Y-54308828D01*
X11348771Y-54308828D02*
X11046390Y-54308828D01*
X11046390Y-54308828D02*
X10925438Y-54369305D01*
X10925438Y-54369305D02*
X10864962Y-54429781D01*
X10864962Y-54429781D02*
X10804485Y-54550733D01*
X10804485Y-54550733D02*
X10804485Y-54853114D01*
X10804485Y-54853114D02*
X10864962Y-54974067D01*
X10864962Y-54974067D02*
X10925438Y-55034543D01*
X11651152Y-53220257D02*
X10804485Y-53220257D01*
X12134962Y-53522638D02*
X11227819Y-53825019D01*
X11227819Y-53825019D02*
X11227819Y-53038828D01*
X10804485Y-51587400D02*
X11651152Y-51587400D01*
X12074485Y-51587400D02*
X12014009Y-51647876D01*
X12014009Y-51647876D02*
X11953533Y-51587400D01*
X11953533Y-51587400D02*
X12014009Y-51526923D01*
X12014009Y-51526923D02*
X12074485Y-51587400D01*
X12074485Y-51587400D02*
X11953533Y-51587400D01*
X11651152Y-50982638D02*
X10804485Y-50982638D01*
X11530200Y-50982638D02*
X11590676Y-50922161D01*
X11590676Y-50922161D02*
X11651152Y-50801209D01*
X11651152Y-50801209D02*
X11651152Y-50619780D01*
X11651152Y-50619780D02*
X11590676Y-50498828D01*
X11590676Y-50498828D02*
X11469723Y-50438352D01*
X11469723Y-50438352D02*
X10804485Y-50438352D01*
X11651152Y-50015018D02*
X11651152Y-49531209D01*
X12074485Y-49833590D02*
X10985914Y-49833590D01*
X10985914Y-49833590D02*
X10864962Y-49773113D01*
X10864962Y-49773113D02*
X10804485Y-49652161D01*
X10804485Y-49652161D02*
X10804485Y-49531209D01*
X10864962Y-48624066D02*
X10804485Y-48745018D01*
X10804485Y-48745018D02*
X10804485Y-48986923D01*
X10804485Y-48986923D02*
X10864962Y-49107876D01*
X10864962Y-49107876D02*
X10985914Y-49168352D01*
X10985914Y-49168352D02*
X11469723Y-49168352D01*
X11469723Y-49168352D02*
X11590676Y-49107876D01*
X11590676Y-49107876D02*
X11651152Y-48986923D01*
X11651152Y-48986923D02*
X11651152Y-48745018D01*
X11651152Y-48745018D02*
X11590676Y-48624066D01*
X11590676Y-48624066D02*
X11469723Y-48563590D01*
X11469723Y-48563590D02*
X11348771Y-48563590D01*
X11348771Y-48563590D02*
X11227819Y-49168352D01*
X10804485Y-48019305D02*
X11651152Y-48019305D01*
X11409247Y-48019305D02*
X11530200Y-47958828D01*
X11530200Y-47958828D02*
X11590676Y-47898352D01*
X11590676Y-47898352D02*
X11651152Y-47777400D01*
X11651152Y-47777400D02*
X11651152Y-47656447D01*
X11651152Y-47233115D02*
X10804485Y-47233115D01*
X11530200Y-47233115D02*
X11590676Y-47172638D01*
X11590676Y-47172638D02*
X11651152Y-47051686D01*
X11651152Y-47051686D02*
X11651152Y-46870257D01*
X11651152Y-46870257D02*
X11590676Y-46749305D01*
X11590676Y-46749305D02*
X11469723Y-46688829D01*
X11469723Y-46688829D02*
X10804485Y-46688829D01*
X10804485Y-45539781D02*
X11469723Y-45539781D01*
X11469723Y-45539781D02*
X11590676Y-45600257D01*
X11590676Y-45600257D02*
X11651152Y-45721209D01*
X11651152Y-45721209D02*
X11651152Y-45963114D01*
X11651152Y-45963114D02*
X11590676Y-46084067D01*
X10864962Y-45539781D02*
X10804485Y-45660733D01*
X10804485Y-45660733D02*
X10804485Y-45963114D01*
X10804485Y-45963114D02*
X10864962Y-46084067D01*
X10864962Y-46084067D02*
X10985914Y-46144543D01*
X10985914Y-46144543D02*
X11106866Y-46144543D01*
X11106866Y-46144543D02*
X11227819Y-46084067D01*
X11227819Y-46084067D02*
X11288295Y-45963114D01*
X11288295Y-45963114D02*
X11288295Y-45660733D01*
X11288295Y-45660733D02*
X11348771Y-45539781D01*
X10804485Y-44753590D02*
X10864962Y-44874542D01*
X10864962Y-44874542D02*
X10985914Y-44935019D01*
X10985914Y-44935019D02*
X12074485Y-44935019D01*
X10804485Y-42636923D02*
X10804485Y-43362638D01*
X10804485Y-42999781D02*
X12074485Y-42999781D01*
X12074485Y-42999781D02*
X11893057Y-43120733D01*
X11893057Y-43120733D02*
X11772104Y-43241685D01*
X11772104Y-43241685D02*
X11711628Y-43362638D01*
X12074485Y-41850733D02*
X12074485Y-41729780D01*
X12074485Y-41729780D02*
X12014009Y-41608828D01*
X12014009Y-41608828D02*
X11953533Y-41548352D01*
X11953533Y-41548352D02*
X11832581Y-41487876D01*
X11832581Y-41487876D02*
X11590676Y-41427399D01*
X11590676Y-41427399D02*
X11288295Y-41427399D01*
X11288295Y-41427399D02*
X11046390Y-41487876D01*
X11046390Y-41487876D02*
X10925438Y-41548352D01*
X10925438Y-41548352D02*
X10864962Y-41608828D01*
X10864962Y-41608828D02*
X10804485Y-41729780D01*
X10804485Y-41729780D02*
X10804485Y-41850733D01*
X10804485Y-41850733D02*
X10864962Y-41971685D01*
X10864962Y-41971685D02*
X10925438Y-42032161D01*
X10925438Y-42032161D02*
X11046390Y-42092638D01*
X11046390Y-42092638D02*
X11288295Y-42153114D01*
X11288295Y-42153114D02*
X11590676Y-42153114D01*
X11590676Y-42153114D02*
X11832581Y-42092638D01*
X11832581Y-42092638D02*
X11953533Y-42032161D01*
X11953533Y-42032161D02*
X12014009Y-41971685D01*
X12014009Y-41971685D02*
X12074485Y-41850733D01*
X12074485Y-40641209D02*
X12074485Y-40520256D01*
X12074485Y-40520256D02*
X12014009Y-40399304D01*
X12014009Y-40399304D02*
X11953533Y-40338828D01*
X11953533Y-40338828D02*
X11832581Y-40278352D01*
X11832581Y-40278352D02*
X11590676Y-40217875D01*
X11590676Y-40217875D02*
X11288295Y-40217875D01*
X11288295Y-40217875D02*
X11046390Y-40278352D01*
X11046390Y-40278352D02*
X10925438Y-40338828D01*
X10925438Y-40338828D02*
X10864962Y-40399304D01*
X10864962Y-40399304D02*
X10804485Y-40520256D01*
X10804485Y-40520256D02*
X10804485Y-40641209D01*
X10804485Y-40641209D02*
X10864962Y-40762161D01*
X10864962Y-40762161D02*
X10925438Y-40822637D01*
X10925438Y-40822637D02*
X11046390Y-40883114D01*
X11046390Y-40883114D02*
X11288295Y-40943590D01*
X11288295Y-40943590D02*
X11590676Y-40943590D01*
X11590676Y-40943590D02*
X11832581Y-40883114D01*
X11832581Y-40883114D02*
X11953533Y-40822637D01*
X11953533Y-40822637D02*
X12014009Y-40762161D01*
X12014009Y-40762161D02*
X12074485Y-40641209D01*
X10804485Y-38705971D02*
X12074485Y-38705971D01*
X11288295Y-38585018D02*
X10804485Y-38222161D01*
X11651152Y-38222161D02*
X11167342Y-38705971D01*
X8759856Y-66283112D02*
X9606523Y-66283112D01*
X9364618Y-66283112D02*
X9485571Y-66222635D01*
X9485571Y-66222635D02*
X9546047Y-66162159D01*
X9546047Y-66162159D02*
X9606523Y-66041207D01*
X9606523Y-66041207D02*
X9606523Y-65920254D01*
X8820333Y-65013112D02*
X8759856Y-65134064D01*
X8759856Y-65134064D02*
X8759856Y-65375969D01*
X8759856Y-65375969D02*
X8820333Y-65496922D01*
X8820333Y-65496922D02*
X8941285Y-65557398D01*
X8941285Y-65557398D02*
X9425094Y-65557398D01*
X9425094Y-65557398D02*
X9546047Y-65496922D01*
X9546047Y-65496922D02*
X9606523Y-65375969D01*
X9606523Y-65375969D02*
X9606523Y-65134064D01*
X9606523Y-65134064D02*
X9546047Y-65013112D01*
X9546047Y-65013112D02*
X9425094Y-64952636D01*
X9425094Y-64952636D02*
X9304142Y-64952636D01*
X9304142Y-64952636D02*
X9183190Y-65557398D01*
X8820333Y-64468827D02*
X8759856Y-64347874D01*
X8759856Y-64347874D02*
X8759856Y-64105970D01*
X8759856Y-64105970D02*
X8820333Y-63985017D01*
X8820333Y-63985017D02*
X8941285Y-63924541D01*
X8941285Y-63924541D02*
X9001761Y-63924541D01*
X9001761Y-63924541D02*
X9122713Y-63985017D01*
X9122713Y-63985017D02*
X9183190Y-64105970D01*
X9183190Y-64105970D02*
X9183190Y-64287398D01*
X9183190Y-64287398D02*
X9243666Y-64408351D01*
X9243666Y-64408351D02*
X9364618Y-64468827D01*
X9364618Y-64468827D02*
X9425094Y-64468827D01*
X9425094Y-64468827D02*
X9546047Y-64408351D01*
X9546047Y-64408351D02*
X9606523Y-64287398D01*
X9606523Y-64287398D02*
X9606523Y-64105970D01*
X9606523Y-64105970D02*
X9546047Y-63985017D01*
X8759856Y-63380256D02*
X9606523Y-63380256D01*
X10029856Y-63380256D02*
X9969380Y-63440732D01*
X9969380Y-63440732D02*
X9908904Y-63380256D01*
X9908904Y-63380256D02*
X9969380Y-63319779D01*
X9969380Y-63319779D02*
X10029856Y-63380256D01*
X10029856Y-63380256D02*
X9908904Y-63380256D01*
X8820333Y-62835970D02*
X8759856Y-62715017D01*
X8759856Y-62715017D02*
X8759856Y-62473113D01*
X8759856Y-62473113D02*
X8820333Y-62352160D01*
X8820333Y-62352160D02*
X8941285Y-62291684D01*
X8941285Y-62291684D02*
X9001761Y-62291684D01*
X9001761Y-62291684D02*
X9122713Y-62352160D01*
X9122713Y-62352160D02*
X9183190Y-62473113D01*
X9183190Y-62473113D02*
X9183190Y-62654541D01*
X9183190Y-62654541D02*
X9243666Y-62775494D01*
X9243666Y-62775494D02*
X9364618Y-62835970D01*
X9364618Y-62835970D02*
X9425094Y-62835970D01*
X9425094Y-62835970D02*
X9546047Y-62775494D01*
X9546047Y-62775494D02*
X9606523Y-62654541D01*
X9606523Y-62654541D02*
X9606523Y-62473113D01*
X9606523Y-62473113D02*
X9546047Y-62352160D01*
X9606523Y-61928827D02*
X9606523Y-61445018D01*
X10029856Y-61747399D02*
X8941285Y-61747399D01*
X8941285Y-61747399D02*
X8820333Y-61686922D01*
X8820333Y-61686922D02*
X8759856Y-61565970D01*
X8759856Y-61565970D02*
X8759856Y-61445018D01*
X8759856Y-60840256D02*
X8820333Y-60961208D01*
X8820333Y-60961208D02*
X8880809Y-61021685D01*
X8880809Y-61021685D02*
X9001761Y-61082161D01*
X9001761Y-61082161D02*
X9364618Y-61082161D01*
X9364618Y-61082161D02*
X9485571Y-61021685D01*
X9485571Y-61021685D02*
X9546047Y-60961208D01*
X9546047Y-60961208D02*
X9606523Y-60840256D01*
X9606523Y-60840256D02*
X9606523Y-60658827D01*
X9606523Y-60658827D02*
X9546047Y-60537875D01*
X9546047Y-60537875D02*
X9485571Y-60477399D01*
X9485571Y-60477399D02*
X9364618Y-60416923D01*
X9364618Y-60416923D02*
X9001761Y-60416923D01*
X9001761Y-60416923D02*
X8880809Y-60477399D01*
X8880809Y-60477399D02*
X8820333Y-60537875D01*
X8820333Y-60537875D02*
X8759856Y-60658827D01*
X8759856Y-60658827D02*
X8759856Y-60840256D01*
X8759856Y-59872637D02*
X9606523Y-59872637D01*
X9364618Y-59872637D02*
X9485571Y-59812160D01*
X9485571Y-59812160D02*
X9546047Y-59751684D01*
X9546047Y-59751684D02*
X9606523Y-59630732D01*
X9606523Y-59630732D02*
X9606523Y-59509779D01*
X8820333Y-59146923D02*
X8759856Y-59025970D01*
X8759856Y-59025970D02*
X8759856Y-58784066D01*
X8759856Y-58784066D02*
X8820333Y-58663113D01*
X8820333Y-58663113D02*
X8941285Y-58602637D01*
X8941285Y-58602637D02*
X9001761Y-58602637D01*
X9001761Y-58602637D02*
X9122713Y-58663113D01*
X9122713Y-58663113D02*
X9183190Y-58784066D01*
X9183190Y-58784066D02*
X9183190Y-58965494D01*
X9183190Y-58965494D02*
X9243666Y-59086447D01*
X9243666Y-59086447D02*
X9364618Y-59146923D01*
X9364618Y-59146923D02*
X9425094Y-59146923D01*
X9425094Y-59146923D02*
X9546047Y-59086447D01*
X9546047Y-59086447D02*
X9606523Y-58965494D01*
X9606523Y-58965494D02*
X9606523Y-58784066D01*
X9606523Y-58784066D02*
X9546047Y-58663113D01*
X8759856Y-56546447D02*
X9425094Y-56546447D01*
X9425094Y-56546447D02*
X9546047Y-56606923D01*
X9546047Y-56606923D02*
X9606523Y-56727875D01*
X9606523Y-56727875D02*
X9606523Y-56969780D01*
X9606523Y-56969780D02*
X9546047Y-57090733D01*
X8820333Y-56546447D02*
X8759856Y-56667399D01*
X8759856Y-56667399D02*
X8759856Y-56969780D01*
X8759856Y-56969780D02*
X8820333Y-57090733D01*
X8820333Y-57090733D02*
X8941285Y-57151209D01*
X8941285Y-57151209D02*
X9062237Y-57151209D01*
X9062237Y-57151209D02*
X9183190Y-57090733D01*
X9183190Y-57090733D02*
X9243666Y-56969780D01*
X9243666Y-56969780D02*
X9243666Y-56667399D01*
X9243666Y-56667399D02*
X9304142Y-56546447D01*
X8759856Y-55941685D02*
X9606523Y-55941685D01*
X9364618Y-55941685D02*
X9485571Y-55881208D01*
X9485571Y-55881208D02*
X9546047Y-55820732D01*
X9546047Y-55820732D02*
X9606523Y-55699780D01*
X9606523Y-55699780D02*
X9606523Y-55578827D01*
X8820333Y-54671685D02*
X8759856Y-54792637D01*
X8759856Y-54792637D02*
X8759856Y-55034542D01*
X8759856Y-55034542D02*
X8820333Y-55155495D01*
X8820333Y-55155495D02*
X8941285Y-55215971D01*
X8941285Y-55215971D02*
X9425094Y-55215971D01*
X9425094Y-55215971D02*
X9546047Y-55155495D01*
X9546047Y-55155495D02*
X9606523Y-55034542D01*
X9606523Y-55034542D02*
X9606523Y-54792637D01*
X9606523Y-54792637D02*
X9546047Y-54671685D01*
X9546047Y-54671685D02*
X9425094Y-54611209D01*
X9425094Y-54611209D02*
X9304142Y-54611209D01*
X9304142Y-54611209D02*
X9183190Y-55215971D01*
X8759856Y-53099305D02*
X9606523Y-53099305D01*
X10029856Y-53099305D02*
X9969380Y-53159781D01*
X9969380Y-53159781D02*
X9908904Y-53099305D01*
X9908904Y-53099305D02*
X9969380Y-53038828D01*
X9969380Y-53038828D02*
X10029856Y-53099305D01*
X10029856Y-53099305D02*
X9908904Y-53099305D01*
X9606523Y-52494543D02*
X8759856Y-52494543D01*
X9485571Y-52494543D02*
X9546047Y-52434066D01*
X9546047Y-52434066D02*
X9606523Y-52313114D01*
X9606523Y-52313114D02*
X9606523Y-52131685D01*
X9606523Y-52131685D02*
X9546047Y-52010733D01*
X9546047Y-52010733D02*
X9425094Y-51950257D01*
X9425094Y-51950257D02*
X8759856Y-51950257D01*
X8820333Y-51405971D02*
X8759856Y-51285018D01*
X8759856Y-51285018D02*
X8759856Y-51043114D01*
X8759856Y-51043114D02*
X8820333Y-50922161D01*
X8820333Y-50922161D02*
X8941285Y-50861685D01*
X8941285Y-50861685D02*
X9001761Y-50861685D01*
X9001761Y-50861685D02*
X9122713Y-50922161D01*
X9122713Y-50922161D02*
X9183190Y-51043114D01*
X9183190Y-51043114D02*
X9183190Y-51224542D01*
X9183190Y-51224542D02*
X9243666Y-51345495D01*
X9243666Y-51345495D02*
X9364618Y-51405971D01*
X9364618Y-51405971D02*
X9425094Y-51405971D01*
X9425094Y-51405971D02*
X9546047Y-51345495D01*
X9546047Y-51345495D02*
X9606523Y-51224542D01*
X9606523Y-51224542D02*
X9606523Y-51043114D01*
X9606523Y-51043114D02*
X9546047Y-50922161D01*
X9606523Y-49773114D02*
X8759856Y-49773114D01*
X9606523Y-50317400D02*
X8941285Y-50317400D01*
X8941285Y-50317400D02*
X8820333Y-50256923D01*
X8820333Y-50256923D02*
X8759856Y-50135971D01*
X8759856Y-50135971D02*
X8759856Y-49954542D01*
X8759856Y-49954542D02*
X8820333Y-49833590D01*
X8820333Y-49833590D02*
X8880809Y-49773114D01*
X9606523Y-49349780D02*
X9606523Y-48865971D01*
X8759856Y-49168352D02*
X9848428Y-49168352D01*
X9848428Y-49168352D02*
X9969380Y-49107875D01*
X9969380Y-49107875D02*
X10029856Y-48986923D01*
X10029856Y-48986923D02*
X10029856Y-48865971D01*
X9606523Y-48624066D02*
X9606523Y-48140257D01*
X8759856Y-48442638D02*
X9848428Y-48442638D01*
X9848428Y-48442638D02*
X9969380Y-48382161D01*
X9969380Y-48382161D02*
X10029856Y-48261209D01*
X10029856Y-48261209D02*
X10029856Y-48140257D01*
X8759856Y-47716924D02*
X9606523Y-47716924D01*
X10029856Y-47716924D02*
X9969380Y-47777400D01*
X9969380Y-47777400D02*
X9908904Y-47716924D01*
X9908904Y-47716924D02*
X9969380Y-47656447D01*
X9969380Y-47656447D02*
X10029856Y-47716924D01*
X10029856Y-47716924D02*
X9908904Y-47716924D01*
X8820333Y-46567876D02*
X8759856Y-46688828D01*
X8759856Y-46688828D02*
X8759856Y-46930733D01*
X8759856Y-46930733D02*
X8820333Y-47051685D01*
X8820333Y-47051685D02*
X8880809Y-47112162D01*
X8880809Y-47112162D02*
X9001761Y-47172638D01*
X9001761Y-47172638D02*
X9364618Y-47172638D01*
X9364618Y-47172638D02*
X9485571Y-47112162D01*
X9485571Y-47112162D02*
X9546047Y-47051685D01*
X9546047Y-47051685D02*
X9606523Y-46930733D01*
X9606523Y-46930733D02*
X9606523Y-46688828D01*
X9606523Y-46688828D02*
X9546047Y-46567876D01*
X8759856Y-46023591D02*
X9606523Y-46023591D01*
X10029856Y-46023591D02*
X9969380Y-46084067D01*
X9969380Y-46084067D02*
X9908904Y-46023591D01*
X9908904Y-46023591D02*
X9969380Y-45963114D01*
X9969380Y-45963114D02*
X10029856Y-46023591D01*
X10029856Y-46023591D02*
X9908904Y-46023591D01*
X8820333Y-44935019D02*
X8759856Y-45055971D01*
X8759856Y-45055971D02*
X8759856Y-45297876D01*
X8759856Y-45297876D02*
X8820333Y-45418829D01*
X8820333Y-45418829D02*
X8941285Y-45479305D01*
X8941285Y-45479305D02*
X9425094Y-45479305D01*
X9425094Y-45479305D02*
X9546047Y-45418829D01*
X9546047Y-45418829D02*
X9606523Y-45297876D01*
X9606523Y-45297876D02*
X9606523Y-45055971D01*
X9606523Y-45055971D02*
X9546047Y-44935019D01*
X9546047Y-44935019D02*
X9425094Y-44874543D01*
X9425094Y-44874543D02*
X9304142Y-44874543D01*
X9304142Y-44874543D02*
X9183190Y-45479305D01*
X9606523Y-44330258D02*
X8759856Y-44330258D01*
X9485571Y-44330258D02*
X9546047Y-44269781D01*
X9546047Y-44269781D02*
X9606523Y-44148829D01*
X9606523Y-44148829D02*
X9606523Y-43967400D01*
X9606523Y-43967400D02*
X9546047Y-43846448D01*
X9546047Y-43846448D02*
X9425094Y-43785972D01*
X9425094Y-43785972D02*
X8759856Y-43785972D01*
X9606523Y-43362638D02*
X9606523Y-42878829D01*
X10029856Y-43181210D02*
X8941285Y-43181210D01*
X8941285Y-43181210D02*
X8820333Y-43120733D01*
X8820333Y-43120733D02*
X8759856Y-42999781D01*
X8759856Y-42999781D02*
X8759856Y-42878829D01*
X9606523Y-41669305D02*
X9606523Y-41185496D01*
X8759856Y-41487877D02*
X9848428Y-41487877D01*
X9848428Y-41487877D02*
X9969380Y-41427400D01*
X9969380Y-41427400D02*
X10029856Y-41306448D01*
X10029856Y-41306448D02*
X10029856Y-41185496D01*
X8759856Y-40580734D02*
X8820333Y-40701686D01*
X8820333Y-40701686D02*
X8880809Y-40762163D01*
X8880809Y-40762163D02*
X9001761Y-40822639D01*
X9001761Y-40822639D02*
X9364618Y-40822639D01*
X9364618Y-40822639D02*
X9485571Y-40762163D01*
X9485571Y-40762163D02*
X9546047Y-40701686D01*
X9546047Y-40701686D02*
X9606523Y-40580734D01*
X9606523Y-40580734D02*
X9606523Y-40399305D01*
X9606523Y-40399305D02*
X9546047Y-40278353D01*
X9546047Y-40278353D02*
X9485571Y-40217877D01*
X9485571Y-40217877D02*
X9364618Y-40157401D01*
X9364618Y-40157401D02*
X9001761Y-40157401D01*
X9001761Y-40157401D02*
X8880809Y-40217877D01*
X8880809Y-40217877D02*
X8820333Y-40278353D01*
X8820333Y-40278353D02*
X8759856Y-40399305D01*
X8759856Y-40399305D02*
X8759856Y-40580734D01*
X8759856Y-39613115D02*
X9606523Y-39613115D01*
X9364618Y-39613115D02*
X9485571Y-39552638D01*
X9485571Y-39552638D02*
X9546047Y-39492162D01*
X9546047Y-39492162D02*
X9606523Y-39371210D01*
X9606523Y-39371210D02*
X9606523Y-39250257D01*
X6715227Y-64105971D02*
X7380465Y-64105971D01*
X7380465Y-64105971D02*
X7501418Y-64166447D01*
X7501418Y-64166447D02*
X7561894Y-64287399D01*
X7561894Y-64287399D02*
X7561894Y-64529304D01*
X7561894Y-64529304D02*
X7501418Y-64650257D01*
X6775704Y-64105971D02*
X6715227Y-64226923D01*
X6715227Y-64226923D02*
X6715227Y-64529304D01*
X6715227Y-64529304D02*
X6775704Y-64650257D01*
X6775704Y-64650257D02*
X6896656Y-64710733D01*
X6896656Y-64710733D02*
X7017608Y-64710733D01*
X7017608Y-64710733D02*
X7138561Y-64650257D01*
X7138561Y-64650257D02*
X7199037Y-64529304D01*
X7199037Y-64529304D02*
X7199037Y-64226923D01*
X7199037Y-64226923D02*
X7259513Y-64105971D01*
X6715227Y-62956923D02*
X7985227Y-62956923D01*
X6775704Y-62956923D02*
X6715227Y-63077875D01*
X6715227Y-63077875D02*
X6715227Y-63319780D01*
X6715227Y-63319780D02*
X6775704Y-63440732D01*
X6775704Y-63440732D02*
X6836180Y-63501209D01*
X6836180Y-63501209D02*
X6957132Y-63561685D01*
X6957132Y-63561685D02*
X7319989Y-63561685D01*
X7319989Y-63561685D02*
X7440942Y-63501209D01*
X7440942Y-63501209D02*
X7501418Y-63440732D01*
X7501418Y-63440732D02*
X7561894Y-63319780D01*
X7561894Y-63319780D02*
X7561894Y-63077875D01*
X7561894Y-63077875D02*
X7501418Y-62956923D01*
X6775704Y-61868351D02*
X6715227Y-61989303D01*
X6715227Y-61989303D02*
X6715227Y-62231208D01*
X6715227Y-62231208D02*
X6775704Y-62352161D01*
X6775704Y-62352161D02*
X6896656Y-62412637D01*
X6896656Y-62412637D02*
X7380465Y-62412637D01*
X7380465Y-62412637D02*
X7501418Y-62352161D01*
X7501418Y-62352161D02*
X7561894Y-62231208D01*
X7561894Y-62231208D02*
X7561894Y-61989303D01*
X7561894Y-61989303D02*
X7501418Y-61868351D01*
X7501418Y-61868351D02*
X7380465Y-61807875D01*
X7380465Y-61807875D02*
X7259513Y-61807875D01*
X7259513Y-61807875D02*
X7138561Y-62412637D01*
X7561894Y-60719304D02*
X6291894Y-60719304D01*
X6775704Y-60719304D02*
X6715227Y-60840256D01*
X6715227Y-60840256D02*
X6715227Y-61082161D01*
X6715227Y-61082161D02*
X6775704Y-61203113D01*
X6775704Y-61203113D02*
X6836180Y-61263590D01*
X6836180Y-61263590D02*
X6957132Y-61324066D01*
X6957132Y-61324066D02*
X7319989Y-61324066D01*
X7319989Y-61324066D02*
X7440942Y-61263590D01*
X7440942Y-61263590D02*
X7501418Y-61203113D01*
X7501418Y-61203113D02*
X7561894Y-61082161D01*
X7561894Y-61082161D02*
X7561894Y-60840256D01*
X7561894Y-60840256D02*
X7501418Y-60719304D01*
X7561894Y-59570256D02*
X6715227Y-59570256D01*
X7561894Y-60114542D02*
X6896656Y-60114542D01*
X6896656Y-60114542D02*
X6775704Y-60054065D01*
X6775704Y-60054065D02*
X6715227Y-59933113D01*
X6715227Y-59933113D02*
X6715227Y-59751684D01*
X6715227Y-59751684D02*
X6775704Y-59630732D01*
X6775704Y-59630732D02*
X6836180Y-59570256D01*
X6715227Y-58421208D02*
X7380465Y-58421208D01*
X7380465Y-58421208D02*
X7501418Y-58481684D01*
X7501418Y-58481684D02*
X7561894Y-58602636D01*
X7561894Y-58602636D02*
X7561894Y-58844541D01*
X7561894Y-58844541D02*
X7501418Y-58965494D01*
X6775704Y-58421208D02*
X6715227Y-58542160D01*
X6715227Y-58542160D02*
X6715227Y-58844541D01*
X6715227Y-58844541D02*
X6775704Y-58965494D01*
X6775704Y-58965494D02*
X6896656Y-59025970D01*
X6896656Y-59025970D02*
X7017608Y-59025970D01*
X7017608Y-59025970D02*
X7138561Y-58965494D01*
X7138561Y-58965494D02*
X7199037Y-58844541D01*
X7199037Y-58844541D02*
X7199037Y-58542160D01*
X7199037Y-58542160D02*
X7259513Y-58421208D01*
X7561894Y-57997874D02*
X7561894Y-57514065D01*
X7985227Y-57816446D02*
X6896656Y-57816446D01*
X6896656Y-57816446D02*
X6775704Y-57755969D01*
X6775704Y-57755969D02*
X6715227Y-57635017D01*
X6715227Y-57635017D02*
X6715227Y-57514065D01*
X6775704Y-56606922D02*
X6715227Y-56727874D01*
X6715227Y-56727874D02*
X6715227Y-56969779D01*
X6715227Y-56969779D02*
X6775704Y-57090732D01*
X6775704Y-57090732D02*
X6896656Y-57151208D01*
X6896656Y-57151208D02*
X7380465Y-57151208D01*
X7380465Y-57151208D02*
X7501418Y-57090732D01*
X7501418Y-57090732D02*
X7561894Y-56969779D01*
X7561894Y-56969779D02*
X7561894Y-56727874D01*
X7561894Y-56727874D02*
X7501418Y-56606922D01*
X7501418Y-56606922D02*
X7380465Y-56546446D01*
X7380465Y-56546446D02*
X7259513Y-56546446D01*
X7259513Y-56546446D02*
X7138561Y-57151208D01*
X7561894Y-55034542D02*
X6715227Y-55034542D01*
X7440942Y-55034542D02*
X7501418Y-54974065D01*
X7501418Y-54974065D02*
X7561894Y-54853113D01*
X7561894Y-54853113D02*
X7561894Y-54671684D01*
X7561894Y-54671684D02*
X7501418Y-54550732D01*
X7501418Y-54550732D02*
X7380465Y-54490256D01*
X7380465Y-54490256D02*
X6715227Y-54490256D01*
X6715227Y-53704065D02*
X6775704Y-53825017D01*
X6775704Y-53825017D02*
X6836180Y-53885494D01*
X6836180Y-53885494D02*
X6957132Y-53945970D01*
X6957132Y-53945970D02*
X7319989Y-53945970D01*
X7319989Y-53945970D02*
X7440942Y-53885494D01*
X7440942Y-53885494D02*
X7501418Y-53825017D01*
X7501418Y-53825017D02*
X7561894Y-53704065D01*
X7561894Y-53704065D02*
X7561894Y-53522636D01*
X7561894Y-53522636D02*
X7501418Y-53401684D01*
X7501418Y-53401684D02*
X7440942Y-53341208D01*
X7440942Y-53341208D02*
X7319989Y-53280732D01*
X7319989Y-53280732D02*
X6957132Y-53280732D01*
X6957132Y-53280732D02*
X6836180Y-53341208D01*
X6836180Y-53341208D02*
X6775704Y-53401684D01*
X6775704Y-53401684D02*
X6715227Y-53522636D01*
X6715227Y-53522636D02*
X6715227Y-53704065D01*
X6715227Y-52736446D02*
X7561894Y-52736446D01*
X7985227Y-52736446D02*
X7924751Y-52796922D01*
X7924751Y-52796922D02*
X7864275Y-52736446D01*
X7864275Y-52736446D02*
X7924751Y-52675969D01*
X7924751Y-52675969D02*
X7985227Y-52736446D01*
X7985227Y-52736446D02*
X7864275Y-52736446D01*
X6775704Y-52192160D02*
X6715227Y-52071207D01*
X6715227Y-52071207D02*
X6715227Y-51829303D01*
X6715227Y-51829303D02*
X6775704Y-51708350D01*
X6775704Y-51708350D02*
X6896656Y-51647874D01*
X6896656Y-51647874D02*
X6957132Y-51647874D01*
X6957132Y-51647874D02*
X7078084Y-51708350D01*
X7078084Y-51708350D02*
X7138561Y-51829303D01*
X7138561Y-51829303D02*
X7138561Y-52010731D01*
X7138561Y-52010731D02*
X7199037Y-52131684D01*
X7199037Y-52131684D02*
X7319989Y-52192160D01*
X7319989Y-52192160D02*
X7380465Y-52192160D01*
X7380465Y-52192160D02*
X7501418Y-52131684D01*
X7501418Y-52131684D02*
X7561894Y-52010731D01*
X7561894Y-52010731D02*
X7561894Y-51829303D01*
X7561894Y-51829303D02*
X7501418Y-51708350D01*
X6775704Y-50619779D02*
X6715227Y-50740731D01*
X6715227Y-50740731D02*
X6715227Y-50982636D01*
X6715227Y-50982636D02*
X6775704Y-51103589D01*
X6775704Y-51103589D02*
X6896656Y-51164065D01*
X6896656Y-51164065D02*
X7380465Y-51164065D01*
X7380465Y-51164065D02*
X7501418Y-51103589D01*
X7501418Y-51103589D02*
X7561894Y-50982636D01*
X7561894Y-50982636D02*
X7561894Y-50740731D01*
X7561894Y-50740731D02*
X7501418Y-50619779D01*
X7501418Y-50619779D02*
X7380465Y-50559303D01*
X7380465Y-50559303D02*
X7259513Y-50559303D01*
X7259513Y-50559303D02*
X7138561Y-51164065D01*
X6715227Y-49047399D02*
X7561894Y-49047399D01*
X7985227Y-49047399D02*
X7924751Y-49107875D01*
X7924751Y-49107875D02*
X7864275Y-49047399D01*
X7864275Y-49047399D02*
X7924751Y-48986922D01*
X7924751Y-48986922D02*
X7985227Y-49047399D01*
X7985227Y-49047399D02*
X7864275Y-49047399D01*
X6715227Y-48442637D02*
X7561894Y-48442637D01*
X7440942Y-48442637D02*
X7501418Y-48382160D01*
X7501418Y-48382160D02*
X7561894Y-48261208D01*
X7561894Y-48261208D02*
X7561894Y-48079779D01*
X7561894Y-48079779D02*
X7501418Y-47958827D01*
X7501418Y-47958827D02*
X7380465Y-47898351D01*
X7380465Y-47898351D02*
X6715227Y-47898351D01*
X7380465Y-47898351D02*
X7501418Y-47837875D01*
X7501418Y-47837875D02*
X7561894Y-47716922D01*
X7561894Y-47716922D02*
X7561894Y-47535494D01*
X7561894Y-47535494D02*
X7501418Y-47414541D01*
X7501418Y-47414541D02*
X7380465Y-47354065D01*
X7380465Y-47354065D02*
X6715227Y-47354065D01*
X6715227Y-46749304D02*
X7561894Y-46749304D01*
X7440942Y-46749304D02*
X7501418Y-46688827D01*
X7501418Y-46688827D02*
X7561894Y-46567875D01*
X7561894Y-46567875D02*
X7561894Y-46386446D01*
X7561894Y-46386446D02*
X7501418Y-46265494D01*
X7501418Y-46265494D02*
X7380465Y-46205018D01*
X7380465Y-46205018D02*
X6715227Y-46205018D01*
X7380465Y-46205018D02*
X7501418Y-46144542D01*
X7501418Y-46144542D02*
X7561894Y-46023589D01*
X7561894Y-46023589D02*
X7561894Y-45842161D01*
X7561894Y-45842161D02*
X7501418Y-45721208D01*
X7501418Y-45721208D02*
X7380465Y-45660732D01*
X7380465Y-45660732D02*
X6715227Y-45660732D01*
X7561894Y-44511685D02*
X6715227Y-44511685D01*
X7561894Y-45055971D02*
X6896656Y-45055971D01*
X6896656Y-45055971D02*
X6775704Y-44995494D01*
X6775704Y-44995494D02*
X6715227Y-44874542D01*
X6715227Y-44874542D02*
X6715227Y-44693113D01*
X6715227Y-44693113D02*
X6775704Y-44572161D01*
X6775704Y-44572161D02*
X6836180Y-44511685D01*
X7561894Y-43906923D02*
X6715227Y-43906923D01*
X7440942Y-43906923D02*
X7501418Y-43846446D01*
X7501418Y-43846446D02*
X7561894Y-43725494D01*
X7561894Y-43725494D02*
X7561894Y-43544065D01*
X7561894Y-43544065D02*
X7501418Y-43423113D01*
X7501418Y-43423113D02*
X7380465Y-43362637D01*
X7380465Y-43362637D02*
X6715227Y-43362637D01*
X6715227Y-42757875D02*
X7561894Y-42757875D01*
X7985227Y-42757875D02*
X7924751Y-42818351D01*
X7924751Y-42818351D02*
X7864275Y-42757875D01*
X7864275Y-42757875D02*
X7924751Y-42697398D01*
X7924751Y-42697398D02*
X7985227Y-42757875D01*
X7985227Y-42757875D02*
X7864275Y-42757875D01*
X7561894Y-42334541D02*
X7561894Y-41850732D01*
X7985227Y-42153113D02*
X6896656Y-42153113D01*
X6896656Y-42153113D02*
X6775704Y-42092636D01*
X6775704Y-42092636D02*
X6715227Y-41971684D01*
X6715227Y-41971684D02*
X6715227Y-41850732D01*
X7561894Y-41548351D02*
X6715227Y-41245970D01*
X7561894Y-40943589D02*
X6715227Y-41245970D01*
X6715227Y-41245970D02*
X6412846Y-41366922D01*
X6412846Y-41366922D02*
X6352370Y-41427399D01*
X6352370Y-41427399D02*
X6291894Y-41548351D01*
D13*
X58532486Y-28747015D02*
X58626829Y-28699844D01*
X58626829Y-28699844D02*
X58768343Y-28699844D01*
X58768343Y-28699844D02*
X58909857Y-28747015D01*
X58909857Y-28747015D02*
X59004200Y-28841358D01*
X59004200Y-28841358D02*
X59051371Y-28935701D01*
X59051371Y-28935701D02*
X59098543Y-29124387D01*
X59098543Y-29124387D02*
X59098543Y-29265901D01*
X59098543Y-29265901D02*
X59051371Y-29454587D01*
X59051371Y-29454587D02*
X59004200Y-29548930D01*
X59004200Y-29548930D02*
X58909857Y-29643273D01*
X58909857Y-29643273D02*
X58768343Y-29690444D01*
X58768343Y-29690444D02*
X58674000Y-29690444D01*
X58674000Y-29690444D02*
X58532486Y-29643273D01*
X58532486Y-29643273D02*
X58485314Y-29596101D01*
X58485314Y-29596101D02*
X58485314Y-29265901D01*
X58485314Y-29265901D02*
X58674000Y-29265901D01*
X58060771Y-29690444D02*
X58060771Y-28699844D01*
X58060771Y-28699844D02*
X57683400Y-28699844D01*
X57683400Y-28699844D02*
X57589057Y-28747015D01*
X57589057Y-28747015D02*
X57541886Y-28794187D01*
X57541886Y-28794187D02*
X57494714Y-28888530D01*
X57494714Y-28888530D02*
X57494714Y-29030044D01*
X57494714Y-29030044D02*
X57541886Y-29124387D01*
X57541886Y-29124387D02*
X57589057Y-29171558D01*
X57589057Y-29171558D02*
X57683400Y-29218730D01*
X57683400Y-29218730D02*
X58060771Y-29218730D01*
X56551286Y-29690444D02*
X57117343Y-29690444D01*
X56834314Y-29690444D02*
X56834314Y-28699844D01*
X56834314Y-28699844D02*
X56928657Y-28841358D01*
X56928657Y-28841358D02*
X57023000Y-28935701D01*
X57023000Y-28935701D02*
X57117343Y-28982873D01*
X55702200Y-29030044D02*
X55702200Y-29690444D01*
X55938057Y-28652673D02*
X56173914Y-29360244D01*
X56173914Y-29360244D02*
X55560685Y-29360244D01*
D14*
X45819180Y-15338281D02*
X46242514Y-14733519D01*
X46544895Y-15338281D02*
X46544895Y-14068281D01*
X46544895Y-14068281D02*
X46061085Y-14068281D01*
X46061085Y-14068281D02*
X45940133Y-14128757D01*
X45940133Y-14128757D02*
X45879656Y-14189233D01*
X45879656Y-14189233D02*
X45819180Y-14310185D01*
X45819180Y-14310185D02*
X45819180Y-14491614D01*
X45819180Y-14491614D02*
X45879656Y-14612566D01*
X45879656Y-14612566D02*
X45940133Y-14673043D01*
X45940133Y-14673043D02*
X46061085Y-14733519D01*
X46061085Y-14733519D02*
X46544895Y-14733519D01*
X44791085Y-15277805D02*
X44912037Y-15338281D01*
X44912037Y-15338281D02*
X45153942Y-15338281D01*
X45153942Y-15338281D02*
X45274895Y-15277805D01*
X45274895Y-15277805D02*
X45335371Y-15156852D01*
X45335371Y-15156852D02*
X45335371Y-14673043D01*
X45335371Y-14673043D02*
X45274895Y-14552090D01*
X45274895Y-14552090D02*
X45153942Y-14491614D01*
X45153942Y-14491614D02*
X44912037Y-14491614D01*
X44912037Y-14491614D02*
X44791085Y-14552090D01*
X44791085Y-14552090D02*
X44730609Y-14673043D01*
X44730609Y-14673043D02*
X44730609Y-14793995D01*
X44730609Y-14793995D02*
X45335371Y-14914947D01*
X44186324Y-15338281D02*
X44186324Y-14491614D01*
X44186324Y-14612566D02*
X44125847Y-14552090D01*
X44125847Y-14552090D02*
X44004895Y-14491614D01*
X44004895Y-14491614D02*
X43823466Y-14491614D01*
X43823466Y-14491614D02*
X43702514Y-14552090D01*
X43702514Y-14552090D02*
X43642038Y-14673043D01*
X43642038Y-14673043D02*
X43642038Y-15338281D01*
X43642038Y-14673043D02*
X43581562Y-14552090D01*
X43581562Y-14552090D02*
X43460609Y-14491614D01*
X43460609Y-14491614D02*
X43279181Y-14491614D01*
X43279181Y-14491614D02*
X43158228Y-14552090D01*
X43158228Y-14552090D02*
X43097752Y-14673043D01*
X43097752Y-14673043D02*
X43097752Y-15338281D01*
X42311562Y-15338281D02*
X42432514Y-15277805D01*
X42432514Y-15277805D02*
X42492991Y-15217328D01*
X42492991Y-15217328D02*
X42553467Y-15096376D01*
X42553467Y-15096376D02*
X42553467Y-14733519D01*
X42553467Y-14733519D02*
X42492991Y-14612566D01*
X42492991Y-14612566D02*
X42432514Y-14552090D01*
X42432514Y-14552090D02*
X42311562Y-14491614D01*
X42311562Y-14491614D02*
X42130133Y-14491614D01*
X42130133Y-14491614D02*
X42009181Y-14552090D01*
X42009181Y-14552090D02*
X41948705Y-14612566D01*
X41948705Y-14612566D02*
X41888229Y-14733519D01*
X41888229Y-14733519D02*
X41888229Y-15096376D01*
X41888229Y-15096376D02*
X41948705Y-15217328D01*
X41948705Y-15217328D02*
X42009181Y-15277805D01*
X42009181Y-15277805D02*
X42130133Y-15338281D01*
X42130133Y-15338281D02*
X42311562Y-15338281D01*
X41525371Y-14491614D02*
X41041562Y-14491614D01*
X41343943Y-14068281D02*
X41343943Y-15156852D01*
X41343943Y-15156852D02*
X41283466Y-15277805D01*
X41283466Y-15277805D02*
X41162514Y-15338281D01*
X41162514Y-15338281D02*
X41041562Y-15338281D01*
X40134419Y-15277805D02*
X40255371Y-15338281D01*
X40255371Y-15338281D02*
X40497276Y-15338281D01*
X40497276Y-15338281D02*
X40618229Y-15277805D01*
X40618229Y-15277805D02*
X40678705Y-15156852D01*
X40678705Y-15156852D02*
X40678705Y-14673043D01*
X40678705Y-14673043D02*
X40618229Y-14552090D01*
X40618229Y-14552090D02*
X40497276Y-14491614D01*
X40497276Y-14491614D02*
X40255371Y-14491614D01*
X40255371Y-14491614D02*
X40134419Y-14552090D01*
X40134419Y-14552090D02*
X40073943Y-14673043D01*
X40073943Y-14673043D02*
X40073943Y-14793995D01*
X40073943Y-14793995D02*
X40678705Y-14914947D01*
X38562039Y-15338281D02*
X38562039Y-14068281D01*
X38562039Y-14068281D02*
X38138705Y-14975424D01*
X38138705Y-14975424D02*
X37715372Y-14068281D01*
X37715372Y-14068281D02*
X37715372Y-15338281D01*
X36929181Y-15338281D02*
X37050133Y-15277805D01*
X37050133Y-15277805D02*
X37110610Y-15217328D01*
X37110610Y-15217328D02*
X37171086Y-15096376D01*
X37171086Y-15096376D02*
X37171086Y-14733519D01*
X37171086Y-14733519D02*
X37110610Y-14612566D01*
X37110610Y-14612566D02*
X37050133Y-14552090D01*
X37050133Y-14552090D02*
X36929181Y-14491614D01*
X36929181Y-14491614D02*
X36747752Y-14491614D01*
X36747752Y-14491614D02*
X36626800Y-14552090D01*
X36626800Y-14552090D02*
X36566324Y-14612566D01*
X36566324Y-14612566D02*
X36505848Y-14733519D01*
X36505848Y-14733519D02*
X36505848Y-15096376D01*
X36505848Y-15096376D02*
X36566324Y-15217328D01*
X36566324Y-15217328D02*
X36626800Y-15277805D01*
X36626800Y-15277805D02*
X36747752Y-15338281D01*
X36747752Y-15338281D02*
X36929181Y-15338281D01*
X35961562Y-14491614D02*
X35961562Y-15338281D01*
X35961562Y-14612566D02*
X35901085Y-14552090D01*
X35901085Y-14552090D02*
X35780133Y-14491614D01*
X35780133Y-14491614D02*
X35598704Y-14491614D01*
X35598704Y-14491614D02*
X35477752Y-14552090D01*
X35477752Y-14552090D02*
X35417276Y-14673043D01*
X35417276Y-14673043D02*
X35417276Y-15338281D01*
X34812514Y-15338281D02*
X34812514Y-14491614D01*
X34812514Y-14068281D02*
X34872990Y-14128757D01*
X34872990Y-14128757D02*
X34812514Y-14189233D01*
X34812514Y-14189233D02*
X34752037Y-14128757D01*
X34752037Y-14128757D02*
X34812514Y-14068281D01*
X34812514Y-14068281D02*
X34812514Y-14189233D01*
X34389180Y-14491614D02*
X33905371Y-14491614D01*
X34207752Y-14068281D02*
X34207752Y-15156852D01*
X34207752Y-15156852D02*
X34147275Y-15277805D01*
X34147275Y-15277805D02*
X34026323Y-15338281D01*
X34026323Y-15338281D02*
X33905371Y-15338281D01*
X33300609Y-15338281D02*
X33421561Y-15277805D01*
X33421561Y-15277805D02*
X33482038Y-15217328D01*
X33482038Y-15217328D02*
X33542514Y-15096376D01*
X33542514Y-15096376D02*
X33542514Y-14733519D01*
X33542514Y-14733519D02*
X33482038Y-14612566D01*
X33482038Y-14612566D02*
X33421561Y-14552090D01*
X33421561Y-14552090D02*
X33300609Y-14491614D01*
X33300609Y-14491614D02*
X33119180Y-14491614D01*
X33119180Y-14491614D02*
X32998228Y-14552090D01*
X32998228Y-14552090D02*
X32937752Y-14612566D01*
X32937752Y-14612566D02*
X32877276Y-14733519D01*
X32877276Y-14733519D02*
X32877276Y-15096376D01*
X32877276Y-15096376D02*
X32937752Y-15217328D01*
X32937752Y-15217328D02*
X32998228Y-15277805D01*
X32998228Y-15277805D02*
X33119180Y-15338281D01*
X33119180Y-15338281D02*
X33300609Y-15338281D01*
X32332990Y-15338281D02*
X32332990Y-14491614D01*
X32332990Y-14733519D02*
X32272513Y-14612566D01*
X32272513Y-14612566D02*
X32212037Y-14552090D01*
X32212037Y-14552090D02*
X32091085Y-14491614D01*
X32091085Y-14491614D02*
X31970132Y-14491614D01*
X31546800Y-15338281D02*
X31546800Y-14491614D01*
X31546800Y-14068281D02*
X31607276Y-14128757D01*
X31607276Y-14128757D02*
X31546800Y-14189233D01*
X31546800Y-14189233D02*
X31486323Y-14128757D01*
X31486323Y-14128757D02*
X31546800Y-14068281D01*
X31546800Y-14068281D02*
X31546800Y-14189233D01*
X30942038Y-14491614D02*
X30942038Y-15338281D01*
X30942038Y-14612566D02*
X30881561Y-14552090D01*
X30881561Y-14552090D02*
X30760609Y-14491614D01*
X30760609Y-14491614D02*
X30579180Y-14491614D01*
X30579180Y-14491614D02*
X30458228Y-14552090D01*
X30458228Y-14552090D02*
X30397752Y-14673043D01*
X30397752Y-14673043D02*
X30397752Y-15338281D01*
X29248704Y-14491614D02*
X29248704Y-15519709D01*
X29248704Y-15519709D02*
X29309180Y-15640662D01*
X29309180Y-15640662D02*
X29369656Y-15701138D01*
X29369656Y-15701138D02*
X29490609Y-15761614D01*
X29490609Y-15761614D02*
X29672037Y-15761614D01*
X29672037Y-15761614D02*
X29792990Y-15701138D01*
X29248704Y-15277805D02*
X29369656Y-15338281D01*
X29369656Y-15338281D02*
X29611561Y-15338281D01*
X29611561Y-15338281D02*
X29732513Y-15277805D01*
X29732513Y-15277805D02*
X29792990Y-15217328D01*
X29792990Y-15217328D02*
X29853466Y-15096376D01*
X29853466Y-15096376D02*
X29853466Y-14733519D01*
X29853466Y-14733519D02*
X29792990Y-14612566D01*
X29792990Y-14612566D02*
X29732513Y-14552090D01*
X29732513Y-14552090D02*
X29611561Y-14491614D01*
X29611561Y-14491614D02*
X29369656Y-14491614D01*
X29369656Y-14491614D02*
X29248704Y-14552090D01*
X46786801Y-17382910D02*
X46786801Y-16112910D01*
X46786801Y-16112910D02*
X46484420Y-16112910D01*
X46484420Y-16112910D02*
X46302991Y-16173386D01*
X46302991Y-16173386D02*
X46182039Y-16294338D01*
X46182039Y-16294338D02*
X46121562Y-16415291D01*
X46121562Y-16415291D02*
X46061086Y-16657195D01*
X46061086Y-16657195D02*
X46061086Y-16838624D01*
X46061086Y-16838624D02*
X46121562Y-17080529D01*
X46121562Y-17080529D02*
X46182039Y-17201481D01*
X46182039Y-17201481D02*
X46302991Y-17322434D01*
X46302991Y-17322434D02*
X46484420Y-17382910D01*
X46484420Y-17382910D02*
X46786801Y-17382910D01*
X45516801Y-17382910D02*
X45516801Y-16536243D01*
X45516801Y-16112910D02*
X45577277Y-16173386D01*
X45577277Y-16173386D02*
X45516801Y-16233862D01*
X45516801Y-16233862D02*
X45456324Y-16173386D01*
X45456324Y-16173386D02*
X45516801Y-16112910D01*
X45516801Y-16112910D02*
X45516801Y-16233862D01*
X44367753Y-16536243D02*
X44367753Y-17564338D01*
X44367753Y-17564338D02*
X44428229Y-17685291D01*
X44428229Y-17685291D02*
X44488705Y-17745767D01*
X44488705Y-17745767D02*
X44609658Y-17806243D01*
X44609658Y-17806243D02*
X44791086Y-17806243D01*
X44791086Y-17806243D02*
X44912039Y-17745767D01*
X44367753Y-17322434D02*
X44488705Y-17382910D01*
X44488705Y-17382910D02*
X44730610Y-17382910D01*
X44730610Y-17382910D02*
X44851562Y-17322434D01*
X44851562Y-17322434D02*
X44912039Y-17261957D01*
X44912039Y-17261957D02*
X44972515Y-17141005D01*
X44972515Y-17141005D02*
X44972515Y-16778148D01*
X44972515Y-16778148D02*
X44912039Y-16657195D01*
X44912039Y-16657195D02*
X44851562Y-16596719D01*
X44851562Y-16596719D02*
X44730610Y-16536243D01*
X44730610Y-16536243D02*
X44488705Y-16536243D01*
X44488705Y-16536243D02*
X44367753Y-16596719D01*
X43762991Y-17382910D02*
X43762991Y-16536243D01*
X43762991Y-16112910D02*
X43823467Y-16173386D01*
X43823467Y-16173386D02*
X43762991Y-16233862D01*
X43762991Y-16233862D02*
X43702514Y-16173386D01*
X43702514Y-16173386D02*
X43762991Y-16112910D01*
X43762991Y-16112910D02*
X43762991Y-16233862D01*
X43339657Y-16536243D02*
X42855848Y-16536243D01*
X43158229Y-16112910D02*
X43158229Y-17201481D01*
X43158229Y-17201481D02*
X43097752Y-17322434D01*
X43097752Y-17322434D02*
X42976800Y-17382910D01*
X42976800Y-17382910D02*
X42855848Y-17382910D01*
X41888229Y-17382910D02*
X41888229Y-16717672D01*
X41888229Y-16717672D02*
X41948705Y-16596719D01*
X41948705Y-16596719D02*
X42069657Y-16536243D01*
X42069657Y-16536243D02*
X42311562Y-16536243D01*
X42311562Y-16536243D02*
X42432515Y-16596719D01*
X41888229Y-17322434D02*
X42009181Y-17382910D01*
X42009181Y-17382910D02*
X42311562Y-17382910D01*
X42311562Y-17382910D02*
X42432515Y-17322434D01*
X42432515Y-17322434D02*
X42492991Y-17201481D01*
X42492991Y-17201481D02*
X42492991Y-17080529D01*
X42492991Y-17080529D02*
X42432515Y-16959576D01*
X42432515Y-16959576D02*
X42311562Y-16899100D01*
X42311562Y-16899100D02*
X42009181Y-16899100D01*
X42009181Y-16899100D02*
X41888229Y-16838624D01*
X41102038Y-17382910D02*
X41222990Y-17322434D01*
X41222990Y-17322434D02*
X41283467Y-17201481D01*
X41283467Y-17201481D02*
X41283467Y-16112910D01*
X39650610Y-17382910D02*
X39650610Y-16112910D01*
X39045848Y-16536243D02*
X39045848Y-17382910D01*
X39045848Y-16657195D02*
X38985371Y-16596719D01*
X38985371Y-16596719D02*
X38864419Y-16536243D01*
X38864419Y-16536243D02*
X38682990Y-16536243D01*
X38682990Y-16536243D02*
X38562038Y-16596719D01*
X38562038Y-16596719D02*
X38501562Y-16717672D01*
X38501562Y-16717672D02*
X38501562Y-17382910D01*
X37896800Y-16536243D02*
X37896800Y-17806243D01*
X37896800Y-16596719D02*
X37775847Y-16536243D01*
X37775847Y-16536243D02*
X37533942Y-16536243D01*
X37533942Y-16536243D02*
X37412990Y-16596719D01*
X37412990Y-16596719D02*
X37352514Y-16657195D01*
X37352514Y-16657195D02*
X37292038Y-16778148D01*
X37292038Y-16778148D02*
X37292038Y-17141005D01*
X37292038Y-17141005D02*
X37352514Y-17261957D01*
X37352514Y-17261957D02*
X37412990Y-17322434D01*
X37412990Y-17322434D02*
X37533942Y-17382910D01*
X37533942Y-17382910D02*
X37775847Y-17382910D01*
X37775847Y-17382910D02*
X37896800Y-17322434D01*
X36203466Y-16536243D02*
X36203466Y-17382910D01*
X36747752Y-16536243D02*
X36747752Y-17201481D01*
X36747752Y-17201481D02*
X36687275Y-17322434D01*
X36687275Y-17322434D02*
X36566323Y-17382910D01*
X36566323Y-17382910D02*
X36384894Y-17382910D01*
X36384894Y-17382910D02*
X36263942Y-17322434D01*
X36263942Y-17322434D02*
X36203466Y-17261957D01*
X35780132Y-16536243D02*
X35296323Y-16536243D01*
X35598704Y-16112910D02*
X35598704Y-17201481D01*
X35598704Y-17201481D02*
X35538227Y-17322434D01*
X35538227Y-17322434D02*
X35417275Y-17382910D01*
X35417275Y-17382910D02*
X35296323Y-17382910D01*
X33482037Y-16717672D02*
X33300609Y-16778148D01*
X33300609Y-16778148D02*
X33240132Y-16838624D01*
X33240132Y-16838624D02*
X33179656Y-16959576D01*
X33179656Y-16959576D02*
X33179656Y-17141005D01*
X33179656Y-17141005D02*
X33240132Y-17261957D01*
X33240132Y-17261957D02*
X33300609Y-17322434D01*
X33300609Y-17322434D02*
X33421561Y-17382910D01*
X33421561Y-17382910D02*
X33905371Y-17382910D01*
X33905371Y-17382910D02*
X33905371Y-16112910D01*
X33905371Y-16112910D02*
X33482037Y-16112910D01*
X33482037Y-16112910D02*
X33361085Y-16173386D01*
X33361085Y-16173386D02*
X33300609Y-16233862D01*
X33300609Y-16233862D02*
X33240132Y-16354814D01*
X33240132Y-16354814D02*
X33240132Y-16475767D01*
X33240132Y-16475767D02*
X33300609Y-16596719D01*
X33300609Y-16596719D02*
X33361085Y-16657195D01*
X33361085Y-16657195D02*
X33482037Y-16717672D01*
X33482037Y-16717672D02*
X33905371Y-16717672D01*
X32453942Y-17382910D02*
X32574894Y-17322434D01*
X32574894Y-17322434D02*
X32635371Y-17261957D01*
X32635371Y-17261957D02*
X32695847Y-17141005D01*
X32695847Y-17141005D02*
X32695847Y-16778148D01*
X32695847Y-16778148D02*
X32635371Y-16657195D01*
X32635371Y-16657195D02*
X32574894Y-16596719D01*
X32574894Y-16596719D02*
X32453942Y-16536243D01*
X32453942Y-16536243D02*
X32272513Y-16536243D01*
X32272513Y-16536243D02*
X32151561Y-16596719D01*
X32151561Y-16596719D02*
X32091085Y-16657195D01*
X32091085Y-16657195D02*
X32030609Y-16778148D01*
X32030609Y-16778148D02*
X32030609Y-17141005D01*
X32030609Y-17141005D02*
X32091085Y-17261957D01*
X32091085Y-17261957D02*
X32151561Y-17322434D01*
X32151561Y-17322434D02*
X32272513Y-17382910D01*
X32272513Y-17382910D02*
X32453942Y-17382910D01*
X30942037Y-17382910D02*
X30942037Y-16717672D01*
X30942037Y-16717672D02*
X31002513Y-16596719D01*
X31002513Y-16596719D02*
X31123465Y-16536243D01*
X31123465Y-16536243D02*
X31365370Y-16536243D01*
X31365370Y-16536243D02*
X31486323Y-16596719D01*
X30942037Y-17322434D02*
X31062989Y-17382910D01*
X31062989Y-17382910D02*
X31365370Y-17382910D01*
X31365370Y-17382910D02*
X31486323Y-17322434D01*
X31486323Y-17322434D02*
X31546799Y-17201481D01*
X31546799Y-17201481D02*
X31546799Y-17080529D01*
X31546799Y-17080529D02*
X31486323Y-16959576D01*
X31486323Y-16959576D02*
X31365370Y-16899100D01*
X31365370Y-16899100D02*
X31062989Y-16899100D01*
X31062989Y-16899100D02*
X30942037Y-16838624D01*
X30337275Y-17382910D02*
X30337275Y-16536243D01*
X30337275Y-16778148D02*
X30276798Y-16657195D01*
X30276798Y-16657195D02*
X30216322Y-16596719D01*
X30216322Y-16596719D02*
X30095370Y-16536243D01*
X30095370Y-16536243D02*
X29974417Y-16536243D01*
X29006799Y-17382910D02*
X29006799Y-16112910D01*
X29006799Y-17322434D02*
X29127751Y-17382910D01*
X29127751Y-17382910D02*
X29369656Y-17382910D01*
X29369656Y-17382910D02*
X29490608Y-17322434D01*
X29490608Y-17322434D02*
X29551085Y-17261957D01*
X29551085Y-17261957D02*
X29611561Y-17141005D01*
X29611561Y-17141005D02*
X29611561Y-16778148D01*
X29611561Y-16778148D02*
X29551085Y-16657195D01*
X29551085Y-16657195D02*
X29490608Y-16596719D01*
X29490608Y-16596719D02*
X29369656Y-16536243D01*
X29369656Y-16536243D02*
X29127751Y-16536243D01*
X29127751Y-16536243D02*
X29006799Y-16596719D01*
X43369895Y-19427539D02*
X43369895Y-18157539D01*
X43369895Y-18157539D02*
X42946561Y-19064682D01*
X42946561Y-19064682D02*
X42523228Y-18157539D01*
X42523228Y-18157539D02*
X42523228Y-19427539D01*
X41676561Y-18157539D02*
X41434656Y-18157539D01*
X41434656Y-18157539D02*
X41313704Y-18218015D01*
X41313704Y-18218015D02*
X41192751Y-18338967D01*
X41192751Y-18338967D02*
X41132275Y-18580872D01*
X41132275Y-18580872D02*
X41132275Y-19004205D01*
X41132275Y-19004205D02*
X41192751Y-19246110D01*
X41192751Y-19246110D02*
X41313704Y-19367063D01*
X41313704Y-19367063D02*
X41434656Y-19427539D01*
X41434656Y-19427539D02*
X41676561Y-19427539D01*
X41676561Y-19427539D02*
X41797513Y-19367063D01*
X41797513Y-19367063D02*
X41918466Y-19246110D01*
X41918466Y-19246110D02*
X41978942Y-19004205D01*
X41978942Y-19004205D02*
X41978942Y-18580872D01*
X41978942Y-18580872D02*
X41918466Y-18338967D01*
X41918466Y-18338967D02*
X41797513Y-18218015D01*
X41797513Y-18218015D02*
X41676561Y-18157539D01*
X40587990Y-19427539D02*
X40587990Y-18157539D01*
X40587990Y-18157539D02*
X39862275Y-19427539D01*
X39862275Y-19427539D02*
X39862275Y-18157539D01*
X39257514Y-18943729D02*
X38289895Y-18943729D01*
X37685133Y-19427539D02*
X37685133Y-18157539D01*
X37685133Y-18157539D02*
X37382752Y-18157539D01*
X37382752Y-18157539D02*
X37201323Y-18218015D01*
X37201323Y-18218015D02*
X37080371Y-18338967D01*
X37080371Y-18338967D02*
X37019894Y-18459920D01*
X37019894Y-18459920D02*
X36959418Y-18701824D01*
X36959418Y-18701824D02*
X36959418Y-18883253D01*
X36959418Y-18883253D02*
X37019894Y-19125158D01*
X37019894Y-19125158D02*
X37080371Y-19246110D01*
X37080371Y-19246110D02*
X37201323Y-19367063D01*
X37201323Y-19367063D02*
X37382752Y-19427539D01*
X37382752Y-19427539D02*
X37685133Y-19427539D01*
X36415133Y-19427539D02*
X36415133Y-18157539D01*
X35810371Y-18943729D02*
X34842752Y-18943729D01*
X33996085Y-18157539D02*
X33875132Y-18157539D01*
X33875132Y-18157539D02*
X33754180Y-18218015D01*
X33754180Y-18218015D02*
X33693704Y-18278491D01*
X33693704Y-18278491D02*
X33633228Y-18399443D01*
X33633228Y-18399443D02*
X33572751Y-18641348D01*
X33572751Y-18641348D02*
X33572751Y-18943729D01*
X33572751Y-18943729D02*
X33633228Y-19185634D01*
X33633228Y-19185634D02*
X33693704Y-19306586D01*
X33693704Y-19306586D02*
X33754180Y-19367063D01*
X33754180Y-19367063D02*
X33875132Y-19427539D01*
X33875132Y-19427539D02*
X33996085Y-19427539D01*
X33996085Y-19427539D02*
X34117037Y-19367063D01*
X34117037Y-19367063D02*
X34177513Y-19306586D01*
X34177513Y-19306586D02*
X34237990Y-19185634D01*
X34237990Y-19185634D02*
X34298466Y-18943729D01*
X34298466Y-18943729D02*
X34298466Y-18641348D01*
X34298466Y-18641348D02*
X34237990Y-18399443D01*
X34237990Y-18399443D02*
X34177513Y-18278491D01*
X34177513Y-18278491D02*
X34117037Y-18218015D01*
X34117037Y-18218015D02*
X33996085Y-18157539D01*
X32847037Y-18701824D02*
X32967989Y-18641348D01*
X32967989Y-18641348D02*
X33028466Y-18580872D01*
X33028466Y-18580872D02*
X33088942Y-18459920D01*
X33088942Y-18459920D02*
X33088942Y-18399443D01*
X33088942Y-18399443D02*
X33028466Y-18278491D01*
X33028466Y-18278491D02*
X32967989Y-18218015D01*
X32967989Y-18218015D02*
X32847037Y-18157539D01*
X32847037Y-18157539D02*
X32605132Y-18157539D01*
X32605132Y-18157539D02*
X32484180Y-18218015D01*
X32484180Y-18218015D02*
X32423704Y-18278491D01*
X32423704Y-18278491D02*
X32363227Y-18399443D01*
X32363227Y-18399443D02*
X32363227Y-18459920D01*
X32363227Y-18459920D02*
X32423704Y-18580872D01*
X32423704Y-18580872D02*
X32484180Y-18641348D01*
X32484180Y-18641348D02*
X32605132Y-18701824D01*
X32605132Y-18701824D02*
X32847037Y-18701824D01*
X32847037Y-18701824D02*
X32967989Y-18762301D01*
X32967989Y-18762301D02*
X33028466Y-18822777D01*
X33028466Y-18822777D02*
X33088942Y-18943729D01*
X33088942Y-18943729D02*
X33088942Y-19185634D01*
X33088942Y-19185634D02*
X33028466Y-19306586D01*
X33028466Y-19306586D02*
X32967989Y-19367063D01*
X32967989Y-19367063D02*
X32847037Y-19427539D01*
X32847037Y-19427539D02*
X32605132Y-19427539D01*
X32605132Y-19427539D02*
X32484180Y-19367063D01*
X32484180Y-19367063D02*
X32423704Y-19306586D01*
X32423704Y-19306586D02*
X32363227Y-19185634D01*
X32363227Y-19185634D02*
X32363227Y-18943729D01*
X32363227Y-18943729D02*
X32423704Y-18822777D01*
X32423704Y-18822777D02*
X32484180Y-18762301D01*
X32484180Y-18762301D02*
X32605132Y-18701824D01*
X42281323Y-20202168D02*
X41495132Y-20202168D01*
X41495132Y-20202168D02*
X41918466Y-20685977D01*
X41918466Y-20685977D02*
X41737037Y-20685977D01*
X41737037Y-20685977D02*
X41616085Y-20746453D01*
X41616085Y-20746453D02*
X41555609Y-20806930D01*
X41555609Y-20806930D02*
X41495132Y-20927882D01*
X41495132Y-20927882D02*
X41495132Y-21230263D01*
X41495132Y-21230263D02*
X41555609Y-21351215D01*
X41555609Y-21351215D02*
X41616085Y-21411692D01*
X41616085Y-21411692D02*
X41737037Y-21472168D01*
X41737037Y-21472168D02*
X42099894Y-21472168D01*
X42099894Y-21472168D02*
X42220847Y-21411692D01*
X42220847Y-21411692D02*
X42281323Y-21351215D01*
X40285608Y-20262644D02*
X40406561Y-20202168D01*
X40406561Y-20202168D02*
X40587989Y-20202168D01*
X40587989Y-20202168D02*
X40769418Y-20262644D01*
X40769418Y-20262644D02*
X40890370Y-20383596D01*
X40890370Y-20383596D02*
X40950847Y-20504549D01*
X40950847Y-20504549D02*
X41011323Y-20746453D01*
X41011323Y-20746453D02*
X41011323Y-20927882D01*
X41011323Y-20927882D02*
X40950847Y-21169787D01*
X40950847Y-21169787D02*
X40890370Y-21290739D01*
X40890370Y-21290739D02*
X40769418Y-21411692D01*
X40769418Y-21411692D02*
X40587989Y-21472168D01*
X40587989Y-21472168D02*
X40467037Y-21472168D01*
X40467037Y-21472168D02*
X40285608Y-21411692D01*
X40285608Y-21411692D02*
X40225132Y-21351215D01*
X40225132Y-21351215D02*
X40225132Y-20927882D01*
X40225132Y-20927882D02*
X40467037Y-20927882D01*
X39680847Y-21472168D02*
X39680847Y-20202168D01*
X39680847Y-20202168D02*
X39378466Y-20202168D01*
X39378466Y-20202168D02*
X39197037Y-20262644D01*
X39197037Y-20262644D02*
X39076085Y-20383596D01*
X39076085Y-20383596D02*
X39015608Y-20504549D01*
X39015608Y-20504549D02*
X38955132Y-20746453D01*
X38955132Y-20746453D02*
X38955132Y-20927882D01*
X38955132Y-20927882D02*
X39015608Y-21169787D01*
X39015608Y-21169787D02*
X39076085Y-21290739D01*
X39076085Y-21290739D02*
X39197037Y-21411692D01*
X39197037Y-21411692D02*
X39378466Y-21472168D01*
X39378466Y-21472168D02*
X39680847Y-21472168D01*
X37685132Y-21472168D02*
X38108466Y-20867406D01*
X38410847Y-21472168D02*
X38410847Y-20202168D01*
X38410847Y-20202168D02*
X37927037Y-20202168D01*
X37927037Y-20202168D02*
X37806085Y-20262644D01*
X37806085Y-20262644D02*
X37745608Y-20323120D01*
X37745608Y-20323120D02*
X37685132Y-20444072D01*
X37685132Y-20444072D02*
X37685132Y-20625501D01*
X37685132Y-20625501D02*
X37745608Y-20746453D01*
X37745608Y-20746453D02*
X37806085Y-20806930D01*
X37806085Y-20806930D02*
X37927037Y-20867406D01*
X37927037Y-20867406D02*
X38410847Y-20867406D01*
X37140847Y-20988358D02*
X36173228Y-20988358D01*
X35145132Y-20806930D02*
X35568466Y-20806930D01*
X35568466Y-21472168D02*
X35568466Y-20202168D01*
X35568466Y-20202168D02*
X34963704Y-20202168D01*
X34479895Y-21472168D02*
X34479895Y-20202168D01*
X34479895Y-20202168D02*
X34056561Y-21109311D01*
X34056561Y-21109311D02*
X33633228Y-20202168D01*
X33633228Y-20202168D02*
X33633228Y-21472168D01*
D15*
G36*
X42217700Y-3029608D02*
G01*
X42223051Y-3039882D01*
X42213925Y-3050907D01*
X42165821Y-3064929D01*
X42132841Y-3075099D01*
X42109873Y-3090681D01*
X42094633Y-3111613D01*
X42082419Y-3160657D01*
X42076409Y-3282216D01*
X42079046Y-3533624D01*
X42076409Y-3766653D01*
X42081605Y-3979210D01*
X42093085Y-4062442D01*
X42109832Y-4099175D01*
X42138921Y-4122004D01*
X42190946Y-4140197D01*
X42217962Y-4149301D01*
X42223904Y-4158654D01*
X42217390Y-4169045D01*
X42110220Y-4171682D01*
X41871685Y-4171682D01*
X41779714Y-4169820D01*
X41770425Y-4165664D01*
X41767539Y-4157568D01*
X41774430Y-4148350D01*
X41807476Y-4141903D01*
X41841515Y-4134982D01*
X41873856Y-4117321D01*
X41900214Y-4092836D01*
X41913793Y-4069862D01*
X41920341Y-4036114D01*
X41925890Y-3946330D01*
X41928915Y-3817524D01*
X41926356Y-3739279D01*
X41921160Y-3620632D01*
X41782351Y-3625750D01*
X41654472Y-3619867D01*
X41553039Y-3603900D01*
X41473509Y-3579973D01*
X41411908Y-3549599D01*
X41357636Y-3506444D01*
X41319867Y-3455314D01*
X41296791Y-3394728D01*
X41288686Y-3321998D01*
X41291089Y-3297415D01*
X41459600Y-3297415D01*
X41468352Y-3373340D01*
X41495659Y-3452432D01*
X41524677Y-3499733D01*
X41562326Y-3535442D01*
X41609731Y-3560921D01*
X41689799Y-3583381D01*
X41776302Y-3591009D01*
X41921160Y-3586666D01*
X41922013Y-3531530D01*
X41918523Y-3320602D01*
X41922013Y-3122624D01*
X41921160Y-3083851D01*
X41851309Y-3069978D01*
X41764980Y-3064929D01*
X41675816Y-3070341D01*
X41609377Y-3084696D01*
X41560758Y-3105819D01*
X41525980Y-3132550D01*
X41489074Y-3180937D01*
X41467128Y-3235244D01*
X41459600Y-3297415D01*
X41291089Y-3297415D01*
X41294710Y-3260370D01*
X41312246Y-3205371D01*
X41341277Y-3155585D01*
X41382828Y-3110062D01*
X41431191Y-3077684D01*
X41503031Y-3051056D01*
X41606032Y-3032399D01*
X41749393Y-3025225D01*
X42025228Y-3026156D01*
X42196995Y-3025225D01*
X42217700Y-3029608D01*
G37*
G36*
X40195970Y-4178738D02*
G01*
X40244514Y-4181608D01*
X40360835Y-4176645D01*
X40710417Y-4171682D01*
X40930806Y-4171682D01*
X41019287Y-4176645D01*
X41112111Y-4181608D01*
X41167857Y-4175660D01*
X41178026Y-4165478D01*
X41172902Y-4156440D01*
X41151970Y-4151829D01*
X41096441Y-4144351D01*
X41059036Y-4131764D01*
X41034874Y-4115615D01*
X41007919Y-4079384D01*
X40989819Y-4026591D01*
X40981829Y-3944709D01*
X40977644Y-3712835D01*
X40976714Y-3400320D01*
X40980878Y-3259908D01*
X40990207Y-3188307D01*
X41011413Y-3134230D01*
X41045808Y-3096181D01*
X41090518Y-3071205D01*
X41140726Y-3059966D01*
X41162647Y-3052983D01*
X41168488Y-3040735D01*
X41163056Y-3029056D01*
X41143363Y-3024372D01*
X41120796Y-3025225D01*
X40976945Y-3032487D01*
X40798045Y-3035151D01*
X40645355Y-3030188D01*
X40627335Y-3035155D01*
X40621936Y-3048567D01*
X40627394Y-3060431D01*
X40647061Y-3065162D01*
X40705254Y-3071650D01*
X40749889Y-3089512D01*
X40785295Y-3116839D01*
X40804559Y-3145501D01*
X40813725Y-3184774D01*
X40817975Y-3269343D01*
X40824954Y-3680266D01*
X40823248Y-3909572D01*
X40820291Y-4007244D01*
X40814175Y-4048614D01*
X40800491Y-4078599D01*
X40776410Y-4106387D01*
X40740677Y-4124360D01*
X40672264Y-4131977D01*
X40516937Y-4126859D01*
X40441723Y-4107451D01*
X40371087Y-4070031D01*
X40303605Y-4012477D01*
X40243326Y-3943927D01*
X40202710Y-3885844D01*
X40177746Y-3836523D01*
X40166167Y-3819047D01*
X40154249Y-3814344D01*
X40143621Y-3818960D01*
X40139515Y-3835050D01*
X40164718Y-4008212D01*
X40195970Y-4178738D01*
G37*
G36*
X39668589Y-3283640D02*
G01*
X39776440Y-3567667D01*
X39882428Y-3860176D01*
X39941305Y-4009763D01*
X39973262Y-4069165D01*
X40009110Y-4109795D01*
X40048953Y-4135492D01*
X40093995Y-4148262D01*
X40113205Y-4155229D01*
X40118267Y-4165865D01*
X40112550Y-4176911D01*
X40090506Y-4181608D01*
X40028343Y-4174830D01*
X39894466Y-4171682D01*
X39726965Y-4181608D01*
X39716573Y-4169820D01*
X39722877Y-4158557D01*
X39748678Y-4151829D01*
X39791375Y-4143474D01*
X39836771Y-4122517D01*
X39861583Y-4101575D01*
X39876266Y-4074935D01*
X39881439Y-4040704D01*
X39875370Y-3995172D01*
X39849792Y-3902158D01*
X39791174Y-3735169D01*
X39387774Y-3729973D01*
X39336593Y-3879251D01*
X39292719Y-4016076D01*
X39283628Y-4066915D01*
X39291018Y-4102477D01*
X39311855Y-4125929D01*
X39346252Y-4140411D01*
X39413830Y-4151829D01*
X39429619Y-4157294D01*
X39433759Y-4165865D01*
X39428156Y-4176954D01*
X39406850Y-4181608D01*
X39336517Y-4174953D01*
X39163973Y-4171682D01*
X39046188Y-4174437D01*
X38960954Y-4181608D01*
X38948780Y-4182461D01*
X38937480Y-4179266D01*
X38934046Y-4170518D01*
X38939955Y-4158661D01*
X38962660Y-4151829D01*
X39018620Y-4138935D01*
X39061339Y-4112675D01*
X39093715Y-4072344D01*
X39139956Y-3971142D01*
X39244622Y-3693371D01*
X39249499Y-3680343D01*
X39403361Y-3680343D01*
X39647169Y-3676000D01*
X39775587Y-3680343D01*
X39667902Y-3387043D01*
X39587302Y-3202653D01*
X39493625Y-3441498D01*
X39403361Y-3680343D01*
X39249499Y-3680343D01*
X39410451Y-3250430D01*
X39512702Y-3015299D01*
X39552639Y-3015299D01*
X39668589Y-3283640D01*
G37*
G36*
X38426810Y-3084781D02*
G01*
X38522270Y-3079818D01*
X38618075Y-3085794D01*
X38692637Y-3101964D01*
X38750097Y-3126324D01*
X38793840Y-3157831D01*
X38846583Y-3213257D01*
X38877333Y-3258702D01*
X38891860Y-3296407D01*
X38900148Y-3312872D01*
X38915279Y-3318043D01*
X38931797Y-3311684D01*
X38922263Y-3200499D01*
X38897909Y-3035151D01*
X38845021Y-3035151D01*
X38663639Y-3040114D01*
X38288931Y-3045077D01*
X37952299Y-3040424D01*
X37757113Y-3035151D01*
X37743232Y-3164732D01*
X37732763Y-3272678D01*
X37731910Y-3287412D01*
X37736659Y-3303155D01*
X37750134Y-3308117D01*
X37768823Y-3300750D01*
X37802246Y-3251663D01*
X37850173Y-3187604D01*
X37895922Y-3145190D01*
X37947266Y-3115562D01*
X38004333Y-3098740D01*
X38079369Y-3090965D01*
X38246358Y-3084781D01*
X38254042Y-3220557D01*
X38256827Y-3384423D01*
X38252604Y-3772988D01*
X38243280Y-3965318D01*
X38233020Y-4042023D01*
X38214691Y-4083917D01*
X38182941Y-4114177D01*
X38134421Y-4134213D01*
X38062494Y-4141903D01*
X38033289Y-4146437D01*
X38026900Y-4155552D01*
X38033452Y-4166627D01*
X38060710Y-4171682D01*
X38594312Y-4171682D01*
X38610409Y-4167467D01*
X38615094Y-4156405D01*
X38607819Y-4146174D01*
X38574305Y-4141050D01*
X38530095Y-4136439D01*
X38493801Y-4123433D01*
X38463722Y-4102432D01*
X38440016Y-4074248D01*
X38423772Y-4039850D01*
X38415100Y-3997743D01*
X38410864Y-3902105D01*
X38408586Y-3616367D01*
X38413168Y-3348088D01*
X38426810Y-3084781D01*
G37*
G36*
X37089975Y-3579764D02*
G01*
X37036272Y-3513779D01*
X36942016Y-3384113D01*
X36824919Y-3208081D01*
X36810857Y-3174814D01*
X36807161Y-3153488D01*
X36815790Y-3121888D01*
X36843221Y-3096258D01*
X36880059Y-3080053D01*
X36916503Y-3074855D01*
X36940197Y-3070350D01*
X36945970Y-3060354D01*
X36937726Y-3050427D01*
X36896495Y-3045077D01*
X36569402Y-3045077D01*
X36532318Y-3050745D01*
X36524269Y-3062060D01*
X36528662Y-3071923D01*
X36544199Y-3075786D01*
X36594284Y-3081635D01*
X36642761Y-3099360D01*
X36689836Y-3132794D01*
X36757686Y-3204979D01*
X36908593Y-3410246D01*
X37013009Y-3557045D01*
X37037011Y-3598919D01*
X37046144Y-3656334D01*
X37050892Y-3816438D01*
X37043980Y-4027826D01*
X37031427Y-4094212D01*
X37013065Y-4116442D01*
X36974759Y-4134932D01*
X36905181Y-4147487D01*
X36883004Y-4153941D01*
X36877419Y-4164547D01*
X36883657Y-4176503D01*
X36907817Y-4181608D01*
X37141157Y-4171682D01*
X37279113Y-4176645D01*
X37334637Y-4181608D01*
X37361149Y-4176589D01*
X37367594Y-4165478D01*
X37362700Y-4156356D01*
X37343322Y-4151829D01*
X37291502Y-4142437D01*
X37255873Y-4121426D01*
X37232197Y-4088939D01*
X37218031Y-4048159D01*
X37208189Y-3991134D01*
X37204435Y-3913372D01*
X37208835Y-3791957D01*
X37220099Y-3707252D01*
X37232967Y-3676286D01*
X37294777Y-3564488D01*
X37371135Y-3439392D01*
X37468715Y-3292840D01*
X37567361Y-3160333D01*
X37615745Y-3111613D01*
X37660795Y-3085875D01*
X37701589Y-3075786D01*
X37726922Y-3069459D01*
X37732841Y-3059656D01*
X37724621Y-3047946D01*
X37675611Y-3045077D01*
X37296406Y-3045077D01*
X37249567Y-3047481D01*
X37243838Y-3051671D01*
X37241735Y-3060354D01*
X37246295Y-3069791D01*
X37263448Y-3074855D01*
X37318723Y-3084361D01*
X37350735Y-3099336D01*
X37367369Y-3117999D01*
X37372790Y-3141236D01*
X37365119Y-3173861D01*
X37332931Y-3234757D01*
X37089975Y-3579764D01*
G37*
G36*
X36413454Y-3029608D02*
G01*
X36418805Y-3039882D01*
X36409679Y-3050907D01*
X36361575Y-3064929D01*
X36328596Y-3075099D01*
X36305628Y-3090681D01*
X36290387Y-3111613D01*
X36278174Y-3160657D01*
X36272164Y-3282216D01*
X36274800Y-3533624D01*
X36272164Y-3766653D01*
X36277359Y-3979210D01*
X36288839Y-4062442D01*
X36305586Y-4099175D01*
X36334676Y-4122004D01*
X36386701Y-4140197D01*
X36413716Y-4149301D01*
X36419658Y-4158654D01*
X36413144Y-4169045D01*
X36305974Y-4171682D01*
X36067439Y-4171682D01*
X35975468Y-4169820D01*
X35966179Y-4165664D01*
X35963294Y-4157568D01*
X35970184Y-4148350D01*
X36003230Y-4141903D01*
X36037269Y-4134982D01*
X36069611Y-4117321D01*
X36095968Y-4092836D01*
X36109547Y-4069862D01*
X36116095Y-4036114D01*
X36121645Y-3946330D01*
X36124669Y-3817524D01*
X36122110Y-3739279D01*
X36116914Y-3620632D01*
X35978105Y-3625750D01*
X35850226Y-3619867D01*
X35748793Y-3603900D01*
X35669264Y-3579973D01*
X35607663Y-3549599D01*
X35553390Y-3506444D01*
X35515621Y-3455314D01*
X35492545Y-3394728D01*
X35484440Y-3321998D01*
X35486843Y-3297415D01*
X35655354Y-3297415D01*
X35664106Y-3373340D01*
X35691413Y-3452432D01*
X35720431Y-3499733D01*
X35758081Y-3535442D01*
X35805485Y-3560921D01*
X35885553Y-3583381D01*
X35972056Y-3591009D01*
X36116914Y-3586666D01*
X36117767Y-3531530D01*
X36114278Y-3320602D01*
X36117767Y-3122624D01*
X36116914Y-3083851D01*
X36047064Y-3069978D01*
X35960735Y-3064929D01*
X35871571Y-3070341D01*
X35805131Y-3084696D01*
X35756513Y-3105819D01*
X35721734Y-3132550D01*
X35684829Y-3180937D01*
X35662882Y-3235244D01*
X35655354Y-3297415D01*
X35486843Y-3297415D01*
X35490464Y-3260370D01*
X35508000Y-3205371D01*
X35537031Y-3155585D01*
X35578582Y-3110062D01*
X35626945Y-3077684D01*
X35698786Y-3051056D01*
X35801786Y-3032399D01*
X35945148Y-3025225D01*
X36220983Y-3026156D01*
X36392749Y-3025225D01*
X36413454Y-3029608D01*
G37*
G36*
X35319110Y-3035151D02*
G01*
X34884458Y-3035151D01*
X34853759Y-3039758D01*
X34847158Y-3048877D01*
X34852637Y-3058823D01*
X34874920Y-3064929D01*
X34931052Y-3077452D01*
X34966038Y-3098895D01*
X34990198Y-3133674D01*
X35010705Y-3197225D01*
X35020961Y-3287540D01*
X35025904Y-3499193D01*
X35020926Y-3755515D01*
X35009852Y-3883904D01*
X34991275Y-3950982D01*
X34958040Y-4007010D01*
X34909196Y-4054043D01*
X34849615Y-4087596D01*
X34774208Y-4109220D01*
X34678881Y-4117088D01*
X34578361Y-4109516D01*
X34502708Y-4089222D01*
X34446395Y-4058695D01*
X34400374Y-4014722D01*
X34365802Y-3957853D01*
X34342714Y-3885222D01*
X34326623Y-3737012D01*
X34318830Y-3385742D01*
X34325099Y-3251546D01*
X34340173Y-3170849D01*
X34359619Y-3126424D01*
X34390979Y-3092389D01*
X34430302Y-3072086D01*
X34480205Y-3064929D01*
X34506094Y-3060139D01*
X34512310Y-3049652D01*
X34504983Y-3040110D01*
X34469814Y-3035151D01*
X34122713Y-3035151D01*
X34104231Y-3039303D01*
X34099294Y-3049342D01*
X34103140Y-3056731D01*
X34118370Y-3061440D01*
X34178049Y-3077836D01*
X34215149Y-3103315D01*
X34231523Y-3127018D01*
X34245393Y-3164313D01*
X34255474Y-3220179D01*
X34262231Y-3314808D01*
X34265012Y-3468717D01*
X34269159Y-3666009D01*
X34280211Y-3816826D01*
X34295946Y-3911353D01*
X34318370Y-3980606D01*
X34345739Y-4030080D01*
X34383186Y-4072304D01*
X34432894Y-4110125D01*
X34497110Y-4143454D01*
X34565823Y-4166453D01*
X34647875Y-4181264D01*
X34745649Y-4186571D01*
X34845471Y-4180702D01*
X34930498Y-4164186D01*
X35002950Y-4138259D01*
X35069115Y-4100479D01*
X35115931Y-4057921D01*
X35146955Y-4010384D01*
X35166142Y-3955646D01*
X35179523Y-3878435D01*
X35184643Y-3772391D01*
X35181153Y-3531375D01*
X35185770Y-3309683D01*
X35196284Y-3191694D01*
X35208528Y-3138444D01*
X35225889Y-3107202D01*
X35250211Y-3085023D01*
X35282742Y-3070737D01*
X35326089Y-3064929D01*
X35349951Y-3060689D01*
X35355557Y-3051591D01*
X35348632Y-3040383D01*
X35319110Y-3035151D01*
G37*
G36*
X33370196Y-3098662D02*
G01*
X33350211Y-3074412D01*
X33338944Y-3050738D01*
X33329707Y-3034575D01*
X33319015Y-3030188D01*
X33303350Y-3038873D01*
X33285980Y-3164422D01*
X33265197Y-3327271D01*
X33269656Y-3338699D01*
X33284274Y-3342858D01*
X33293242Y-3339275D01*
X33302497Y-3325720D01*
X33338399Y-3254465D01*
X33383675Y-3192436D01*
X33438748Y-3138677D01*
X33501930Y-3097081D01*
X33567046Y-3072953D01*
X33635640Y-3064929D01*
X33702809Y-3072623D01*
X33754348Y-3093847D01*
X33793991Y-3127742D01*
X33824361Y-3171834D01*
X33841671Y-3215927D01*
X33847343Y-3261123D01*
X33840426Y-3315637D01*
X33821002Y-3358578D01*
X33789183Y-3392721D01*
X33746954Y-3419262D01*
X33671697Y-3453334D01*
X33549795Y-3496479D01*
X33425432Y-3540568D01*
X33349801Y-3577205D01*
X33289311Y-3623497D01*
X33238366Y-3686547D01*
X33213121Y-3734969D01*
X33198222Y-3785012D01*
X33193233Y-3837531D01*
X33200112Y-3903249D01*
X33220653Y-3965296D01*
X33255620Y-4024958D01*
X33306918Y-4083123D01*
X33366910Y-4130547D01*
X33432458Y-4164094D01*
X33504726Y-4184508D01*
X33585312Y-4191534D01*
X33657509Y-4186030D01*
X33730817Y-4169246D01*
X33806008Y-4140415D01*
X33883790Y-4098322D01*
X33908364Y-4124687D01*
X33921944Y-4154388D01*
X33932091Y-4175955D01*
X33944510Y-4181608D01*
X33954963Y-4175113D01*
X33964517Y-4146091D01*
X33989642Y-3809847D01*
X33983731Y-3802283D01*
X33971419Y-3799455D01*
X33960399Y-3803637D01*
X33950558Y-3818687D01*
X33896301Y-3934366D01*
X33838989Y-4020384D01*
X33779115Y-4082190D01*
X33716408Y-4123998D01*
X33649810Y-4148532D01*
X33577557Y-4156792D01*
X33501380Y-4148182D01*
X33440504Y-4124054D01*
X33391444Y-4085061D01*
X33353652Y-4034103D01*
X33331618Y-3979733D01*
X33324211Y-3920351D01*
X33333191Y-3858654D01*
X33360192Y-3802092D01*
X33401764Y-3753671D01*
X33455653Y-3715162D01*
X33524380Y-3683340D01*
X33643472Y-3641337D01*
X33753773Y-3601854D01*
X33825049Y-3568707D01*
X33867738Y-3541146D01*
X33920023Y-3489843D01*
X33954901Y-3434441D01*
X33976010Y-3374749D01*
X33982663Y-3319439D01*
X33976419Y-3264557D01*
X33957722Y-3212871D01*
X33925663Y-3163159D01*
X33878129Y-3114637D01*
X33823544Y-3075887D01*
X33763381Y-3048144D01*
X33696580Y-3031114D01*
X33621759Y-3025225D01*
X33564119Y-3029611D01*
X33501638Y-3043371D01*
X33438816Y-3065645D01*
X33370196Y-3098662D01*
G37*
D16*
%TO.C,JP4*%
X56759600Y-32424600D02*
X56759600Y-31024600D01*
X57459600Y-30324600D02*
X58059600Y-30324600D01*
X58059600Y-33124600D02*
X57459600Y-33124600D01*
X58759600Y-31024600D02*
X58759600Y-32424600D01*
X56759600Y-31024600D02*
G75*
G02*
X57459600Y-30324600I699999J1D01*
G01*
X57459600Y-33124600D02*
G75*
G02*
X56759600Y-32424600I0J700000D01*
G01*
X58059600Y-30324600D02*
G75*
G02*
X58759600Y-31024600I1J-699999D01*
G01*
X58759600Y-32424600D02*
G75*
G02*
X58059600Y-33124600I-700000J0D01*
G01*
%TD*%
%LPC*%
D17*
%TO.C,J16*%
X29210000Y-75996800D03*
%TD*%
%TO.C,J9*%
X29210000Y-11192332D03*
%TD*%
D18*
%TO.C,J3*%
X3000000Y-31873370D03*
X3000000Y-28063370D03*
%TD*%
D17*
%TO.C,JP2*%
X43408600Y-37846000D03*
D19*
X45948600Y-37846000D03*
X48488600Y-37846000D03*
%TD*%
D17*
%TO.C,J17*%
X54991000Y-37465000D03*
D19*
X57531000Y-37465000D03*
X54991000Y-40005000D03*
X57531000Y-40005000D03*
X54991000Y-42545000D03*
X57531000Y-42545000D03*
X54991000Y-45085000D03*
X57531000Y-45085000D03*
X54991000Y-47625000D03*
X57531000Y-47625000D03*
X54991000Y-50165000D03*
X57531000Y-50165000D03*
X54991000Y-52705000D03*
X57531000Y-52705000D03*
X54991000Y-55245000D03*
X57531000Y-55245000D03*
X54991000Y-57785000D03*
X57531000Y-57785000D03*
X54991000Y-60325000D03*
X57531000Y-60325000D03*
X54991000Y-62865000D03*
X57531000Y-62865000D03*
X54991000Y-65405000D03*
X57531000Y-65405000D03*
X54991000Y-67945000D03*
X57531000Y-67945000D03*
X54991000Y-70485000D03*
X57531000Y-70485000D03*
X54991000Y-73025000D03*
X57531000Y-73025000D03*
%TD*%
D20*
%TO.C,H4*%
X56184800Y-91287600D03*
%TD*%
D17*
%TO.C,J10*%
X29210000Y-20472400D03*
%TD*%
%TO.C,J11*%
X29210000Y-29743400D03*
%TD*%
D18*
%TO.C,J8*%
X3000000Y-88950800D03*
X3000000Y-85140800D03*
%TD*%
%TO.C,J4*%
X3000000Y-43288855D03*
X3000000Y-39478855D03*
%TD*%
D17*
%TO.C,JP1*%
X43408600Y-31140400D03*
D19*
X45948600Y-31140400D03*
X48488600Y-31140400D03*
%TD*%
D18*
%TO.C,J1*%
X3000000Y-9042400D03*
X3000000Y-5232400D03*
%TD*%
%TO.C,J6*%
X3000000Y-66119825D03*
X3000000Y-62309825D03*
%TD*%
D17*
%TO.C,CON3*%
X49733200Y-92202000D03*
D19*
X47193200Y-92202000D03*
X44653200Y-92202000D03*
X42113200Y-92202000D03*
%TD*%
D17*
%TO.C,J12*%
X29210000Y-38989000D03*
%TD*%
D18*
%TO.C,J7*%
X3000000Y-77535310D03*
X3000000Y-73725310D03*
%TD*%
D17*
%TO.C,CON1*%
X27635200Y-92227400D03*
D19*
X25095200Y-92227400D03*
X22555200Y-92227400D03*
X20015200Y-92227400D03*
%TD*%
D17*
%TO.C,J19*%
X57785000Y-26568400D03*
%TD*%
D20*
%TO.C,H3*%
X56235600Y-4007600D03*
%TD*%
D17*
%TO.C,J14*%
X29210000Y-57505600D03*
%TD*%
%TO.C,J15*%
X29210000Y-66751200D03*
%TD*%
D18*
%TO.C,J2*%
X3000000Y-20457885D03*
X3000000Y-16647885D03*
%TD*%
D17*
%TO.C,J18*%
X57734200Y-15976600D03*
D19*
X57734200Y-13436600D03*
%TD*%
D20*
%TO.C,H1*%
X12000000Y-4007600D03*
%TD*%
%TO.C,H2*%
X12000000Y-91287600D03*
%TD*%
D17*
%TO.C,J13*%
X29210000Y-48260000D03*
%TD*%
D18*
%TO.C,J5*%
X3000000Y-54704340D03*
X3000000Y-50894340D03*
%TD*%
D21*
%TO.C,JP4*%
X57759600Y-31074600D03*
D22*
X57759600Y-32374600D03*
%TD*%
%LPD*%
M02*
