M48
; DRILL file {KiCad 9.0.6} date 2025-11-26T11:14:55+1100
; FORMAT={-:-/ absolute / inch / decimal}
; #@! TF.CreationDate,2025-11-26T11:14:55+11:00
; #@! TF.GenerationSoftware,Kicad,Pcbnew,9.0.6
; #@! TF.FileFunction,Plated,1,2,PTH
FMAT,2
INCH
; #@! TA.AperFunction,Plated,PTH,ViaDrill
T1C0.0150
; #@! TA.AperFunction,Plated,PTH,ComponentDrill
T2C0.0394
; #@! TA.AperFunction,Plated,PTH,ComponentDrill
T3C0.0472
%
G90
G05
T1
X0.735Y-0.6759
X0.735Y-1.0289
X0.735Y-1.4009
X0.735Y-1.7699
X0.735Y-2.1279
X0.735Y-2.4969
X0.735Y-2.8559
X0.735Y-3.181
X0.7352Y-0.3109
X0.899Y-3.16
X0.992Y-2.493
X0.992Y-2.78
X0.994Y-1.033
X0.994Y-1.778
X0.994Y-2.128
X0.995Y-1.397
X0.997Y-0.307
X0.997Y-0.676
X1.225Y-3.499
X1.366Y-3.387
X1.372Y-1.918
X1.438Y-3.2
X1.554Y-3.387
X1.634Y-2.11
X1.707Y-1.789
X1.71Y-2.625
X1.792Y-2.725
X1.876Y-0.811
X1.9215Y-3.3355
X1.922Y-3.244
X1.956Y-2.292
X2.049Y-2.085
X2.094Y-3.384
T2
X0.788Y-3.631
X0.888Y-3.631
X0.988Y-3.631
X1.088Y-3.631
X1.15Y-0.4406
X1.15Y-0.806
X1.15Y-1.171
X1.15Y-1.535
X1.15Y-1.9
X1.15Y-2.264
X1.15Y-2.628
X1.15Y-2.992
X1.658Y-3.63
X1.709Y-1.226
X1.709Y-1.49
X1.758Y-3.63
X1.809Y-1.226
X1.809Y-1.49
X1.858Y-3.63
X1.909Y-1.226
X1.909Y-1.49
X1.958Y-3.63
X2.165Y-1.475
X2.165Y-1.575
X2.165Y-1.675
X2.165Y-1.775
X2.165Y-1.875
X2.165Y-1.975
X2.165Y-2.075
X2.165Y-2.175
X2.165Y-2.275
X2.165Y-2.375
X2.165Y-2.475
X2.165Y-2.575
X2.165Y-2.675
X2.165Y-2.775
X2.165Y-2.875
X2.265Y-1.475
X2.265Y-1.575
X2.265Y-1.675
X2.265Y-1.775
X2.265Y-1.875
X2.265Y-1.975
X2.265Y-2.075
X2.265Y-2.175
X2.265Y-2.275
X2.265Y-2.375
X2.265Y-2.475
X2.265Y-2.575
X2.265Y-2.675
X2.265Y-2.775
X2.265Y-2.875
X2.273Y-0.529
X2.273Y-0.629
X2.275Y-1.046
T3
X0.1181Y-0.206
X0.1181Y-0.356
X0.1181Y-0.6554
X0.1181Y-0.8054
X0.1181Y-1.1049
X0.1181Y-1.2549
X0.1181Y-1.5543
X0.1181Y-1.7043
X0.1181Y-2.0037
X0.1181Y-2.1537
X0.1181Y-2.4531
X0.1181Y-2.6031
X0.1181Y-2.9026
X0.1181Y-3.0526
X0.1181Y-3.352
X0.1181Y-3.502
M30
