%TF.GenerationSoftware,KiCad,Pcbnew,9.0.6*%
%TF.CreationDate,2025-11-26T11:14:55+11:00*%
%TF.ProjectId,v8_equip_dig_in_non_iso,76385f65-7175-4697-905f-6469675f696e,rev?*%
%TF.SameCoordinates,Original*%
%TF.FileFunction,Soldermask,Top*%
%TF.FilePolarity,Negative*%
%FSLAX46Y46*%
G04 Gerber Fmt 4.6, Leading zero omitted, Abs format (unit mm)*
G04 Created by KiCad (PCBNEW 9.0.6) date 2025-11-26 11:14:55*
%MOMM*%
%LPD*%
G01*
G04 APERTURE LIST*
G04 Aperture macros list*
%AMRoundRect*
0 Rectangle with rounded corners*
0 $1 Rounding radius*
0 $2 $3 $4 $5 $6 $7 $8 $9 X,Y pos of 4 corners*
0 Add a 4 corners polygon primitive as box body*
4,1,4,$2,$3,$4,$5,$6,$7,$8,$9,$2,$3,0*
0 Add four circle primitives for the rounded corners*
1,1,$1+$1,$2,$3*
1,1,$1+$1,$4,$5*
1,1,$1+$1,$6,$7*
1,1,$1+$1,$8,$9*
0 Add four rect primitives between the rounded corners*
20,1,$1+$1,$2,$3,$4,$5,0*
20,1,$1+$1,$4,$5,$6,$7,0*
20,1,$1+$1,$6,$7,$8,$9,0*
20,1,$1+$1,$8,$9,$2,$3,0*%
%AMFreePoly0*
4,1,23,0.500000,-0.750000,0.000000,-0.750000,0.000000,-0.745722,-0.065263,-0.745722,-0.191342,-0.711940,-0.304381,-0.646677,-0.396677,-0.554381,-0.461940,-0.441342,-0.495722,-0.315263,-0.495722,-0.250000,-0.500000,-0.250000,-0.500000,0.250000,-0.495722,0.250000,-0.495722,0.315263,-0.461940,0.441342,-0.396677,0.554381,-0.304381,0.646677,-0.191342,0.711940,-0.065263,0.745722,0.000000,0.745722,
0.000000,0.750000,0.500000,0.750000,0.500000,-0.750000,0.500000,-0.750000,$1*%
%AMFreePoly1*
4,1,23,0.000000,0.745722,0.065263,0.745722,0.191342,0.711940,0.304381,0.646677,0.396677,0.554381,0.461940,0.441342,0.495722,0.315263,0.495722,0.250000,0.500000,0.250000,0.500000,-0.250000,0.495722,-0.250000,0.495722,-0.315263,0.461940,-0.441342,0.396677,-0.554381,0.304381,-0.646677,0.191342,-0.711940,0.065263,-0.745722,0.000000,-0.745722,0.000000,-0.750000,-0.500000,-0.750000,
-0.500000,0.750000,0.000000,0.750000,0.000000,0.745722,0.000000,0.745722,$1*%
G04 Aperture macros list end*
%ADD10RoundRect,0.250000X0.350000X0.450000X-0.350000X0.450000X-0.350000X-0.450000X0.350000X-0.450000X0*%
%ADD11RoundRect,0.150000X0.587500X0.150000X-0.587500X0.150000X-0.587500X-0.150000X0.587500X-0.150000X0*%
%ADD12FreePoly0,270.000000*%
%ADD13FreePoly1,270.000000*%
%ADD14RoundRect,0.150000X-0.587500X-0.150000X0.587500X-0.150000X0.587500X0.150000X-0.587500X0.150000X0*%
%ADD15RoundRect,0.250000X-0.475000X0.337500X-0.475000X-0.337500X0.475000X-0.337500X0.475000X0.337500X0*%
%ADD16R,1.700000X1.700000*%
%ADD17C,2.100000*%
%ADD18RoundRect,0.250000X0.475000X-0.337500X0.475000X0.337500X-0.475000X0.337500X-0.475000X-0.337500X0*%
%ADD19O,1.700000X1.700000*%
%ADD20RoundRect,0.150000X-0.150000X-0.625000X0.150000X-0.625000X0.150000X0.625000X-0.150000X0.625000X0*%
%ADD21RoundRect,0.416666X-0.583334X-0.970834X0.583334X-0.970834X0.583334X0.970834X-0.583334X0.970834X0*%
%ADD22RoundRect,0.250000X0.450000X-0.350000X0.450000X0.350000X-0.450000X0.350000X-0.450000X-0.350000X0*%
%ADD23RoundRect,0.250000X-0.337500X-0.475000X0.337500X-0.475000X0.337500X0.475000X-0.337500X0.475000X0*%
%ADD24RoundRect,0.150000X0.625000X-0.150000X0.625000X0.150000X-0.625000X0.150000X-0.625000X-0.150000X0*%
%ADD25RoundRect,0.416666X0.970834X-0.583334X0.970834X0.583334X-0.970834X0.583334X-0.970834X-0.583334X0*%
%ADD26R,0.650000X1.950000*%
G04 APERTURE END LIST*
D10*
%TO.C,R15*%
X12607800Y-52730400D03*
X10607800Y-52730400D03*
%TD*%
D11*
%TO.C,D3*%
X18717500Y-30678200D03*
X18717500Y-28778200D03*
X16842500Y-29728200D03*
%TD*%
D12*
%TO.C,JP3*%
X57810400Y-31100000D03*
D13*
X57810400Y-32400000D03*
%TD*%
D14*
%TO.C,D9*%
X51335700Y-20538400D03*
X51335700Y-22438400D03*
X53210700Y-21488400D03*
%TD*%
D15*
%TO.C,C9*%
X22860000Y-75949900D03*
X22860000Y-78024900D03*
%TD*%
D16*
%TO.C,J16*%
X29210000Y-75996800D03*
%TD*%
%TO.C,J9*%
X29210000Y-11192332D03*
%TD*%
D17*
%TO.C,J3*%
X3000000Y-31873370D03*
X3000000Y-28063370D03*
%TD*%
D18*
%TO.C,C10*%
X22885400Y-84882900D03*
X22885400Y-82807900D03*
%TD*%
D16*
%TO.C,JP2*%
X43408600Y-37846000D03*
D19*
X45948600Y-37846000D03*
X48488600Y-37846000D03*
%TD*%
D16*
%TO.C,J17*%
X54991000Y-37465000D03*
D19*
X57531000Y-37465000D03*
X54991000Y-40005000D03*
X57531000Y-40005000D03*
X54991000Y-42545000D03*
X57531000Y-42545000D03*
X54991000Y-45085000D03*
X57531000Y-45085000D03*
X54991000Y-47625000D03*
X57531000Y-47625000D03*
X54991000Y-50165000D03*
X57531000Y-50165000D03*
X54991000Y-52705000D03*
X57531000Y-52705000D03*
X54991000Y-55245000D03*
X57531000Y-55245000D03*
X54991000Y-57785000D03*
X57531000Y-57785000D03*
X54991000Y-60325000D03*
X57531000Y-60325000D03*
X54991000Y-62865000D03*
X57531000Y-62865000D03*
X54991000Y-65405000D03*
X57531000Y-65405000D03*
X54991000Y-67945000D03*
X57531000Y-67945000D03*
X54991000Y-70485000D03*
X57531000Y-70485000D03*
X54991000Y-73025000D03*
X57531000Y-73025000D03*
%TD*%
D10*
%TO.C,R12*%
X12633200Y-24739600D03*
X10633200Y-24739600D03*
%TD*%
D16*
%TO.C,J10*%
X29210000Y-20472400D03*
%TD*%
D11*
%TO.C,D5*%
X18717500Y-49249500D03*
X18717500Y-47349500D03*
X16842500Y-48299500D03*
%TD*%
D16*
%TO.C,J11*%
X29210000Y-29743400D03*
%TD*%
D10*
%TO.C,R5*%
X12633200Y-48285400D03*
X10633200Y-48285400D03*
%TD*%
%TO.C,R6*%
X12633200Y-57556400D03*
X10633200Y-57556400D03*
%TD*%
D17*
%TO.C,J8*%
X3000000Y-88950800D03*
X3000000Y-85140800D03*
%TD*%
D10*
%TO.C,R14*%
X12633200Y-43307000D03*
X10633200Y-43307000D03*
%TD*%
D15*
%TO.C,C5*%
X22860000Y-38909442D03*
X22860000Y-40984442D03*
%TD*%
D11*
%TO.C,D2*%
X18694400Y-21508800D03*
X18694400Y-19608800D03*
X16819400Y-20558800D03*
%TD*%
D18*
%TO.C,C11*%
X49682400Y-54987100D03*
X49682400Y-52912100D03*
%TD*%
D17*
%TO.C,J4*%
X3000000Y-43288855D03*
X3000000Y-39478855D03*
%TD*%
D16*
%TO.C,JP1*%
X43408600Y-31140400D03*
D19*
X45948600Y-31140400D03*
X48488600Y-31140400D03*
%TD*%
D17*
%TO.C,J1*%
X3000000Y-9042400D03*
X3000000Y-5232400D03*
%TD*%
D11*
%TO.C,D8*%
X18717500Y-76972200D03*
X18717500Y-75072200D03*
X16842500Y-76022200D03*
%TD*%
D15*
%TO.C,C3*%
X22860000Y-20389214D03*
X22860000Y-22464214D03*
%TD*%
D20*
%TO.C,CON2*%
X33526600Y-89313000D03*
X34526600Y-89313000D03*
X35526600Y-89313000D03*
X36526600Y-89313000D03*
D21*
X31826200Y-92735400D03*
X38277800Y-92735400D03*
%TD*%
D10*
%TO.C,R11*%
X12607800Y-15646400D03*
X10607800Y-15646400D03*
%TD*%
D17*
%TO.C,J6*%
X3000000Y-66119825D03*
X3000000Y-62309825D03*
%TD*%
D11*
%TO.C,D7*%
X18717500Y-67703210D03*
X18717500Y-65803210D03*
X16842500Y-66753210D03*
%TD*%
D10*
%TO.C,R13*%
X12684000Y-34010600D03*
X10684000Y-34010600D03*
%TD*%
%TO.C,R18*%
X12658600Y-80772000D03*
X10658600Y-80772000D03*
%TD*%
%TO.C,R4*%
X12633200Y-39014400D03*
X10633200Y-39014400D03*
%TD*%
D15*
%TO.C,C8*%
X22860000Y-66689784D03*
X22860000Y-68764784D03*
%TD*%
D16*
%TO.C,CON3*%
X49733200Y-92202000D03*
D19*
X47193200Y-92202000D03*
X44653200Y-92202000D03*
X42113200Y-92202000D03*
%TD*%
D10*
%TO.C,R7*%
X12633200Y-66751200D03*
X10633200Y-66751200D03*
%TD*%
%TO.C,R1*%
X12633200Y-11277600D03*
X10633200Y-11277600D03*
%TD*%
%TO.C,R3*%
X12633200Y-29743400D03*
X10633200Y-29743400D03*
%TD*%
D16*
%TO.C,J12*%
X29210000Y-38989000D03*
%TD*%
D17*
%TO.C,J7*%
X3000000Y-77535310D03*
X3000000Y-73725310D03*
%TD*%
D16*
%TO.C,CON1*%
X27635200Y-92227400D03*
D19*
X25095200Y-92227400D03*
X22555200Y-92227400D03*
X20015200Y-92227400D03*
%TD*%
D11*
%TO.C,D6*%
X18717500Y-58491200D03*
X18717500Y-56591200D03*
X16842500Y-57541200D03*
%TD*%
D16*
%TO.C,J19*%
X57785000Y-26568400D03*
%TD*%
%TO.C,J14*%
X29210000Y-57505600D03*
%TD*%
%TO.C,J15*%
X29210000Y-66751200D03*
%TD*%
D10*
%TO.C,R8*%
X12633200Y-76022200D03*
X10633200Y-76022200D03*
%TD*%
D22*
%TO.C,R10*%
X57708800Y-22336000D03*
X57708800Y-20336000D03*
%TD*%
D10*
%TO.C,R17*%
X12607800Y-70942200D03*
X10607800Y-70942200D03*
%TD*%
D17*
%TO.C,J2*%
X3000000Y-20457885D03*
X3000000Y-16647885D03*
%TD*%
D16*
%TO.C,J18*%
X57734200Y-15976600D03*
D19*
X57734200Y-13436600D03*
%TD*%
D15*
%TO.C,C4*%
X22860000Y-29649328D03*
X22860000Y-31724328D03*
%TD*%
D11*
%TO.C,D4*%
X18717500Y-39928800D03*
X18717500Y-38028800D03*
X16842500Y-38978800D03*
%TD*%
D22*
%TO.C,R9*%
X52273200Y-15300200D03*
X52273200Y-13300200D03*
%TD*%
D10*
%TO.C,R16*%
X12633200Y-62001400D03*
X10633200Y-62001400D03*
%TD*%
D15*
%TO.C,C2*%
X22860000Y-11129100D03*
X22860000Y-13204100D03*
%TD*%
D23*
%TO.C,C1*%
X22635300Y-4191000D03*
X24710300Y-4191000D03*
%TD*%
D10*
%TO.C,R2*%
X12633200Y-20548600D03*
X10633200Y-20548600D03*
%TD*%
D24*
%TO.C,CON4*%
X54388000Y-83491200D03*
X54388000Y-82491200D03*
X54388000Y-81491200D03*
X54388000Y-80491200D03*
D25*
X57810400Y-85191600D03*
X57810400Y-78740000D03*
%TD*%
D16*
%TO.C,J13*%
X29210000Y-48260000D03*
%TD*%
D11*
%TO.C,D1*%
X18715200Y-12176800D03*
X18715200Y-10276800D03*
X16840200Y-11226800D03*
%TD*%
D15*
%TO.C,C6*%
X22860000Y-48169556D03*
X22860000Y-50244556D03*
%TD*%
D26*
%TO.C,IC1*%
X45948600Y-48742000D03*
X44678600Y-48742000D03*
X43408600Y-48742000D03*
X42138600Y-48742000D03*
X40868600Y-48742000D03*
X39598600Y-48742000D03*
X38328600Y-48742000D03*
X37058600Y-48742000D03*
X37058600Y-58192000D03*
X38328600Y-58192000D03*
X39598600Y-58192000D03*
X40868600Y-58192000D03*
X42138600Y-58192000D03*
X43408600Y-58192000D03*
X44678600Y-58192000D03*
X45948600Y-58192000D03*
%TD*%
D17*
%TO.C,J5*%
X3000000Y-54704340D03*
X3000000Y-50894340D03*
%TD*%
D15*
%TO.C,C7*%
X22860000Y-57429670D03*
X22860000Y-59504670D03*
%TD*%
M02*
