%TF.GenerationSoftware,KiCad,Pcbnew,9.0.6*%
%TF.CreationDate,2025-11-26T11:14:55+11:00*%
%TF.ProjectId,v8_equip_dig_in_non_iso,76385f65-7175-4697-905f-6469675f696e,rev?*%
%TF.SameCoordinates,Original*%
%TF.FileFunction,Legend,Top*%
%TF.FilePolarity,Positive*%
%FSLAX46Y46*%
G04 Gerber Fmt 4.6, Leading zero omitted, Abs format (unit mm)*
G04 Created by KiCad (PCBNEW 9.0.6) date 2025-11-26 11:14:55*
%MOMM*%
%LPD*%
G01*
G04 APERTURE LIST*
G04 Aperture macros list*
%AMRoundRect*
0 Rectangle with rounded corners*
0 $1 Rounding radius*
0 $2 $3 $4 $5 $6 $7 $8 $9 X,Y pos of 4 corners*
0 Add a 4 corners polygon primitive as box body*
4,1,4,$2,$3,$4,$5,$6,$7,$8,$9,$2,$3,0*
0 Add four circle primitives for the rounded corners*
1,1,$1+$1,$2,$3*
1,1,$1+$1,$4,$5*
1,1,$1+$1,$6,$7*
1,1,$1+$1,$8,$9*
0 Add four rect primitives between the rounded corners*
20,1,$1+$1,$2,$3,$4,$5,0*
20,1,$1+$1,$4,$5,$6,$7,0*
20,1,$1+$1,$6,$7,$8,$9,0*
20,1,$1+$1,$8,$9,$2,$3,0*%
%AMFreePoly0*
4,1,23,0.500000,-0.750000,0.000000,-0.750000,0.000000,-0.745722,-0.065263,-0.745722,-0.191342,-0.711940,-0.304381,-0.646677,-0.396677,-0.554381,-0.461940,-0.441342,-0.495722,-0.315263,-0.495722,-0.250000,-0.500000,-0.250000,-0.500000,0.250000,-0.495722,0.250000,-0.495722,0.315263,-0.461940,0.441342,-0.396677,0.554381,-0.304381,0.646677,-0.191342,0.711940,-0.065263,0.745722,0.000000,0.745722,
0.000000,0.750000,0.500000,0.750000,0.500000,-0.750000,0.500000,-0.750000,$1*%
%AMFreePoly1*
4,1,23,0.000000,0.745722,0.065263,0.745722,0.191342,0.711940,0.304381,0.646677,0.396677,0.554381,0.461940,0.441342,0.495722,0.315263,0.495722,0.250000,0.500000,0.250000,0.500000,-0.250000,0.495722,-0.250000,0.495722,-0.315263,0.461940,-0.441342,0.396677,-0.554381,0.304381,-0.646677,0.191342,-0.711940,0.065263,-0.745722,0.000000,-0.745722,0.000000,-0.750000,-0.500000,-0.750000,
-0.500000,0.750000,0.000000,0.750000,0.000000,0.745722,0.000000,0.745722,$1*%
G04 Aperture macros list end*
%ADD10C,0.101600*%
%ADD11C,0.127000*%
%ADD12C,0.203200*%
%ADD13C,0.152400*%
%ADD14C,0.177800*%
%ADD15C,0.150000*%
%ADD16C,0.120000*%
%ADD17C,0.100000*%
%ADD18C,0.200000*%
%ADD19RoundRect,0.250000X0.350000X0.450000X-0.350000X0.450000X-0.350000X-0.450000X0.350000X-0.450000X0*%
%ADD20RoundRect,0.150000X0.587500X0.150000X-0.587500X0.150000X-0.587500X-0.150000X0.587500X-0.150000X0*%
%ADD21FreePoly0,270.000000*%
%ADD22FreePoly1,270.000000*%
%ADD23RoundRect,0.150000X-0.587500X-0.150000X0.587500X-0.150000X0.587500X0.150000X-0.587500X0.150000X0*%
%ADD24RoundRect,0.250000X-0.475000X0.337500X-0.475000X-0.337500X0.475000X-0.337500X0.475000X0.337500X0*%
%ADD25R,1.700000X1.700000*%
%ADD26C,2.100000*%
%ADD27RoundRect,0.250000X0.475000X-0.337500X0.475000X0.337500X-0.475000X0.337500X-0.475000X-0.337500X0*%
%ADD28O,1.700000X1.700000*%
%ADD29C,3.500000*%
%ADD30RoundRect,0.150000X-0.150000X-0.625000X0.150000X-0.625000X0.150000X0.625000X-0.150000X0.625000X0*%
%ADD31RoundRect,0.416666X-0.583334X-0.970834X0.583334X-0.970834X0.583334X0.970834X-0.583334X0.970834X0*%
%ADD32RoundRect,0.250000X0.450000X-0.350000X0.450000X0.350000X-0.450000X0.350000X-0.450000X-0.350000X0*%
%ADD33RoundRect,0.250000X-0.337500X-0.475000X0.337500X-0.475000X0.337500X0.475000X-0.337500X0.475000X0*%
%ADD34RoundRect,0.150000X0.625000X-0.150000X0.625000X0.150000X-0.625000X0.150000X-0.625000X-0.150000X0*%
%ADD35RoundRect,0.416666X0.970834X-0.583334X0.970834X0.583334X-0.970834X0.583334X-0.970834X-0.583334X0*%
%ADD36R,0.650000X1.950000*%
G04 APERTURE END LIST*
D10*
X48717200Y-8686800D02*
X49834800Y-8686800D01*
X50241200Y-8686800D02*
X51358800Y-8686800D01*
X51765200Y-8686800D02*
X52882800Y-8686800D01*
X53289200Y-8686800D02*
X54406800Y-8686800D01*
X54813200Y-8686800D02*
X55930800Y-8686800D01*
X56337200Y-8686800D02*
X57454800Y-8686800D01*
X57861200Y-8686800D02*
X58978800Y-8686800D01*
X48704500Y-26581100D02*
X48706054Y-25463501D01*
X48706620Y-25057101D02*
X48708174Y-23939503D01*
X48708739Y-23533103D02*
X48710294Y-22415504D01*
X48710859Y-22009104D02*
X48712413Y-20891506D01*
X48712978Y-20485106D02*
X48714533Y-19367507D01*
X48715098Y-18961107D02*
X48716652Y-17843508D01*
X48717218Y-17437109D02*
X48718772Y-16319510D01*
X48719337Y-15913110D02*
X48720892Y-14795511D01*
X48721457Y-14389112D02*
X48723011Y-13271513D01*
X48723576Y-12865113D02*
X48725131Y-11747514D01*
X48725696Y-11341115D02*
X48727250Y-10223516D01*
X48727816Y-9817116D02*
X48729370Y-8699517D01*
X59169300Y-33832800D02*
X58051700Y-33832800D01*
X57645300Y-33832800D02*
X56527700Y-33832800D01*
X56121300Y-33832800D02*
X55003700Y-33832800D01*
X54597300Y-33832800D02*
X53479700Y-33832800D01*
X53073300Y-33832800D02*
X52997100Y-33832800D01*
X52984400Y-33832800D02*
X52984400Y-32715200D01*
X52984400Y-32308800D02*
X52984400Y-31191200D01*
X52984400Y-30784800D02*
X52984400Y-29667200D01*
X52984400Y-29260800D02*
X52984400Y-28143200D01*
X52984400Y-27736800D02*
X52984400Y-26619200D01*
X52959000Y-26568400D02*
X51841400Y-26568400D01*
X51435000Y-26568400D02*
X50317400Y-26568400D01*
X49911000Y-26568400D02*
X48793400Y-26568400D01*
D11*
X54501047Y-13854987D02*
X54501047Y-13092987D01*
X55408190Y-13056702D02*
X54755047Y-14036416D01*
X55807333Y-13092987D02*
X55952476Y-13092987D01*
X55952476Y-13092987D02*
X56025047Y-13129273D01*
X56025047Y-13129273D02*
X56097619Y-13201844D01*
X56097619Y-13201844D02*
X56133904Y-13346987D01*
X56133904Y-13346987D02*
X56133904Y-13600987D01*
X56133904Y-13600987D02*
X56097619Y-13746130D01*
X56097619Y-13746130D02*
X56025047Y-13818702D01*
X56025047Y-13818702D02*
X55952476Y-13854987D01*
X55952476Y-13854987D02*
X55807333Y-13854987D01*
X55807333Y-13854987D02*
X55734762Y-13818702D01*
X55734762Y-13818702D02*
X55662190Y-13746130D01*
X55662190Y-13746130D02*
X55625904Y-13600987D01*
X55625904Y-13600987D02*
X55625904Y-13346987D01*
X55625904Y-13346987D02*
X55662190Y-13201844D01*
X55662190Y-13201844D02*
X55734762Y-13129273D01*
X55734762Y-13129273D02*
X55807333Y-13092987D01*
X54537333Y-15582827D02*
X54464762Y-15546541D01*
X54464762Y-15546541D02*
X54355904Y-15546541D01*
X54355904Y-15546541D02*
X54247047Y-15582827D01*
X54247047Y-15582827D02*
X54174476Y-15655398D01*
X54174476Y-15655398D02*
X54138190Y-15727970D01*
X54138190Y-15727970D02*
X54101904Y-15873113D01*
X54101904Y-15873113D02*
X54101904Y-15981970D01*
X54101904Y-15981970D02*
X54138190Y-16127113D01*
X54138190Y-16127113D02*
X54174476Y-16199684D01*
X54174476Y-16199684D02*
X54247047Y-16272256D01*
X54247047Y-16272256D02*
X54355904Y-16308541D01*
X54355904Y-16308541D02*
X54428476Y-16308541D01*
X54428476Y-16308541D02*
X54537333Y-16272256D01*
X54537333Y-16272256D02*
X54573619Y-16235970D01*
X54573619Y-16235970D02*
X54573619Y-15981970D01*
X54573619Y-15981970D02*
X54428476Y-15981970D01*
X54900190Y-16308541D02*
X54900190Y-15546541D01*
X54900190Y-15546541D02*
X55335619Y-16308541D01*
X55335619Y-16308541D02*
X55335619Y-15546541D01*
X55698476Y-16308541D02*
X55698476Y-15546541D01*
X55698476Y-15546541D02*
X55879905Y-15546541D01*
X55879905Y-15546541D02*
X55988762Y-15582827D01*
X55988762Y-15582827D02*
X56061333Y-15655398D01*
X56061333Y-15655398D02*
X56097619Y-15727970D01*
X56097619Y-15727970D02*
X56133905Y-15873113D01*
X56133905Y-15873113D02*
X56133905Y-15981970D01*
X56133905Y-15981970D02*
X56097619Y-16127113D01*
X56097619Y-16127113D02*
X56061333Y-16199684D01*
X56061333Y-16199684D02*
X55988762Y-16272256D01*
X55988762Y-16272256D02*
X55879905Y-16308541D01*
X55879905Y-16308541D02*
X55698476Y-16308541D01*
D12*
X8923293Y-15074009D02*
X8923293Y-15376390D01*
X8620912Y-15255437D02*
X8923293Y-15376390D01*
X8923293Y-15376390D02*
X9225674Y-15255437D01*
X8741864Y-15618294D02*
X8923293Y-15376390D01*
X8923293Y-15376390D02*
X9104722Y-15618294D01*
D10*
X51183100Y-80792224D02*
X51273814Y-80822462D01*
X51273814Y-80822462D02*
X51425005Y-80822462D01*
X51425005Y-80822462D02*
X51485481Y-80792224D01*
X51485481Y-80792224D02*
X51515719Y-80761985D01*
X51515719Y-80761985D02*
X51545957Y-80701509D01*
X51545957Y-80701509D02*
X51545957Y-80641033D01*
X51545957Y-80641033D02*
X51515719Y-80580557D01*
X51515719Y-80580557D02*
X51485481Y-80550319D01*
X51485481Y-80550319D02*
X51425005Y-80520081D01*
X51425005Y-80520081D02*
X51304052Y-80489843D01*
X51304052Y-80489843D02*
X51243576Y-80459604D01*
X51243576Y-80459604D02*
X51213338Y-80429366D01*
X51213338Y-80429366D02*
X51183100Y-80368890D01*
X51183100Y-80368890D02*
X51183100Y-80308414D01*
X51183100Y-80308414D02*
X51213338Y-80247938D01*
X51213338Y-80247938D02*
X51243576Y-80217700D01*
X51243576Y-80217700D02*
X51304052Y-80187462D01*
X51304052Y-80187462D02*
X51455243Y-80187462D01*
X51455243Y-80187462D02*
X51545957Y-80217700D01*
X52180957Y-80761985D02*
X52150719Y-80792224D01*
X52150719Y-80792224D02*
X52060005Y-80822462D01*
X52060005Y-80822462D02*
X51999529Y-80822462D01*
X51999529Y-80822462D02*
X51908814Y-80792224D01*
X51908814Y-80792224D02*
X51848338Y-80731747D01*
X51848338Y-80731747D02*
X51818100Y-80671271D01*
X51818100Y-80671271D02*
X51787862Y-80550319D01*
X51787862Y-80550319D02*
X51787862Y-80459604D01*
X51787862Y-80459604D02*
X51818100Y-80338652D01*
X51818100Y-80338652D02*
X51848338Y-80278176D01*
X51848338Y-80278176D02*
X51908814Y-80217700D01*
X51908814Y-80217700D02*
X51999529Y-80187462D01*
X51999529Y-80187462D02*
X52060005Y-80187462D01*
X52060005Y-80187462D02*
X52150719Y-80217700D01*
X52150719Y-80217700D02*
X52180957Y-80247938D01*
X52755481Y-80822462D02*
X52453100Y-80822462D01*
X52453100Y-80822462D02*
X52453100Y-80187462D01*
X51152862Y-81814538D02*
X51243576Y-81844776D01*
X51243576Y-81844776D02*
X51394767Y-81844776D01*
X51394767Y-81844776D02*
X51455243Y-81814538D01*
X51455243Y-81814538D02*
X51485481Y-81784299D01*
X51485481Y-81784299D02*
X51515719Y-81723823D01*
X51515719Y-81723823D02*
X51515719Y-81663347D01*
X51515719Y-81663347D02*
X51485481Y-81602871D01*
X51485481Y-81602871D02*
X51455243Y-81572633D01*
X51455243Y-81572633D02*
X51394767Y-81542395D01*
X51394767Y-81542395D02*
X51273814Y-81512157D01*
X51273814Y-81512157D02*
X51213338Y-81481918D01*
X51213338Y-81481918D02*
X51183100Y-81451680D01*
X51183100Y-81451680D02*
X51152862Y-81391204D01*
X51152862Y-81391204D02*
X51152862Y-81330728D01*
X51152862Y-81330728D02*
X51183100Y-81270252D01*
X51183100Y-81270252D02*
X51213338Y-81240014D01*
X51213338Y-81240014D02*
X51273814Y-81209776D01*
X51273814Y-81209776D02*
X51425005Y-81209776D01*
X51425005Y-81209776D02*
X51515719Y-81240014D01*
X51787862Y-81844776D02*
X51787862Y-81209776D01*
X51787862Y-81209776D02*
X51939052Y-81209776D01*
X51939052Y-81209776D02*
X52029767Y-81240014D01*
X52029767Y-81240014D02*
X52090243Y-81300490D01*
X52090243Y-81300490D02*
X52120481Y-81360966D01*
X52120481Y-81360966D02*
X52150719Y-81481918D01*
X52150719Y-81481918D02*
X52150719Y-81572633D01*
X52150719Y-81572633D02*
X52120481Y-81693585D01*
X52120481Y-81693585D02*
X52090243Y-81754061D01*
X52090243Y-81754061D02*
X52029767Y-81814538D01*
X52029767Y-81814538D02*
X51939052Y-81844776D01*
X51939052Y-81844776D02*
X51787862Y-81844776D01*
X52392624Y-81663347D02*
X52695005Y-81663347D01*
X52332148Y-81844776D02*
X52543814Y-81209776D01*
X52543814Y-81209776D02*
X52755481Y-81844776D01*
X51152862Y-82232090D02*
X51545957Y-82232090D01*
X51545957Y-82232090D02*
X51334290Y-82473994D01*
X51334290Y-82473994D02*
X51425005Y-82473994D01*
X51425005Y-82473994D02*
X51485481Y-82504232D01*
X51485481Y-82504232D02*
X51515719Y-82534471D01*
X51515719Y-82534471D02*
X51545957Y-82594947D01*
X51545957Y-82594947D02*
X51545957Y-82746137D01*
X51545957Y-82746137D02*
X51515719Y-82806613D01*
X51515719Y-82806613D02*
X51485481Y-82836852D01*
X51485481Y-82836852D02*
X51425005Y-82867090D01*
X51425005Y-82867090D02*
X51243576Y-82867090D01*
X51243576Y-82867090D02*
X51183100Y-82836852D01*
X51183100Y-82836852D02*
X51152862Y-82806613D01*
X51727386Y-82232090D02*
X51939052Y-82867090D01*
X51939052Y-82867090D02*
X52150719Y-82232090D01*
X52301910Y-82232090D02*
X52695005Y-82232090D01*
X52695005Y-82232090D02*
X52483338Y-82473994D01*
X52483338Y-82473994D02*
X52574053Y-82473994D01*
X52574053Y-82473994D02*
X52634529Y-82504232D01*
X52634529Y-82504232D02*
X52664767Y-82534471D01*
X52664767Y-82534471D02*
X52695005Y-82594947D01*
X52695005Y-82594947D02*
X52695005Y-82746137D01*
X52695005Y-82746137D02*
X52664767Y-82806613D01*
X52664767Y-82806613D02*
X52634529Y-82836852D01*
X52634529Y-82836852D02*
X52574053Y-82867090D01*
X52574053Y-82867090D02*
X52392624Y-82867090D01*
X52392624Y-82867090D02*
X52332148Y-82836852D01*
X52332148Y-82836852D02*
X52301910Y-82806613D01*
X51364529Y-83284642D02*
X51304053Y-83254404D01*
X51304053Y-83254404D02*
X51213339Y-83254404D01*
X51213339Y-83254404D02*
X51122624Y-83284642D01*
X51122624Y-83284642D02*
X51062148Y-83345118D01*
X51062148Y-83345118D02*
X51031910Y-83405594D01*
X51031910Y-83405594D02*
X51001672Y-83526546D01*
X51001672Y-83526546D02*
X51001672Y-83617261D01*
X51001672Y-83617261D02*
X51031910Y-83738213D01*
X51031910Y-83738213D02*
X51062148Y-83798689D01*
X51062148Y-83798689D02*
X51122624Y-83859166D01*
X51122624Y-83859166D02*
X51213339Y-83889404D01*
X51213339Y-83889404D02*
X51273815Y-83889404D01*
X51273815Y-83889404D02*
X51364529Y-83859166D01*
X51364529Y-83859166D02*
X51394767Y-83828927D01*
X51394767Y-83828927D02*
X51394767Y-83617261D01*
X51394767Y-83617261D02*
X51273815Y-83617261D01*
X51666910Y-83889404D02*
X51666910Y-83254404D01*
X51666910Y-83254404D02*
X52029767Y-83889404D01*
X52029767Y-83889404D02*
X52029767Y-83254404D01*
X52332148Y-83889404D02*
X52332148Y-83254404D01*
X52332148Y-83254404D02*
X52483338Y-83254404D01*
X52483338Y-83254404D02*
X52574053Y-83284642D01*
X52574053Y-83284642D02*
X52634529Y-83345118D01*
X52634529Y-83345118D02*
X52664767Y-83405594D01*
X52664767Y-83405594D02*
X52695005Y-83526546D01*
X52695005Y-83526546D02*
X52695005Y-83617261D01*
X52695005Y-83617261D02*
X52664767Y-83738213D01*
X52664767Y-83738213D02*
X52634529Y-83798689D01*
X52634529Y-83798689D02*
X52574053Y-83859166D01*
X52574053Y-83859166D02*
X52483338Y-83889404D01*
X52483338Y-83889404D02*
X52332148Y-83889404D01*
D12*
X8923293Y-70522209D02*
X8923293Y-70824590D01*
X8620912Y-70703637D02*
X8923293Y-70824590D01*
X8923293Y-70824590D02*
X9225674Y-70703637D01*
X8741864Y-71066494D02*
X8923293Y-70824590D01*
X8923293Y-70824590D02*
X9104722Y-71066494D01*
X8923293Y-33692209D02*
X8923293Y-33994590D01*
X8620912Y-33873637D02*
X8923293Y-33994590D01*
X8923293Y-33994590D02*
X9225674Y-33873637D01*
X8741864Y-34236494D02*
X8923293Y-33994590D01*
X8923293Y-33994590D02*
X9104722Y-34236494D01*
X8923293Y-42836209D02*
X8923293Y-43138590D01*
X8620912Y-43017637D02*
X8923293Y-43138590D01*
X8923293Y-43138590D02*
X9225674Y-43017637D01*
X8741864Y-43380494D02*
X8923293Y-43138590D01*
X8923293Y-43138590D02*
X9104722Y-43380494D01*
X8923293Y-51980209D02*
X8923293Y-52282590D01*
X8620912Y-52161637D02*
X8923293Y-52282590D01*
X8923293Y-52282590D02*
X9225674Y-52161637D01*
X8741864Y-52524494D02*
X8923293Y-52282590D01*
X8923293Y-52282590D02*
X9104722Y-52524494D01*
D11*
X42473648Y-90388828D02*
X42512352Y-90272714D01*
X42512352Y-90272714D02*
X42512352Y-90079190D01*
X42512352Y-90079190D02*
X42473648Y-90001781D01*
X42473648Y-90001781D02*
X42434943Y-89963076D01*
X42434943Y-89963076D02*
X42357533Y-89924371D01*
X42357533Y-89924371D02*
X42280124Y-89924371D01*
X42280124Y-89924371D02*
X42202714Y-89963076D01*
X42202714Y-89963076D02*
X42164009Y-90001781D01*
X42164009Y-90001781D02*
X42125305Y-90079190D01*
X42125305Y-90079190D02*
X42086600Y-90234009D01*
X42086600Y-90234009D02*
X42047895Y-90311419D01*
X42047895Y-90311419D02*
X42009190Y-90350124D01*
X42009190Y-90350124D02*
X41931781Y-90388828D01*
X41931781Y-90388828D02*
X41854371Y-90388828D01*
X41854371Y-90388828D02*
X41776962Y-90350124D01*
X41776962Y-90350124D02*
X41738257Y-90311419D01*
X41738257Y-90311419D02*
X41699552Y-90234009D01*
X41699552Y-90234009D02*
X41699552Y-90040486D01*
X41699552Y-90040486D02*
X41738257Y-89924371D01*
X42434943Y-89111572D02*
X42473648Y-89150276D01*
X42473648Y-89150276D02*
X42512352Y-89266391D01*
X42512352Y-89266391D02*
X42512352Y-89343800D01*
X42512352Y-89343800D02*
X42473648Y-89459914D01*
X42473648Y-89459914D02*
X42396238Y-89537324D01*
X42396238Y-89537324D02*
X42318828Y-89576029D01*
X42318828Y-89576029D02*
X42164009Y-89614733D01*
X42164009Y-89614733D02*
X42047895Y-89614733D01*
X42047895Y-89614733D02*
X41893076Y-89576029D01*
X41893076Y-89576029D02*
X41815667Y-89537324D01*
X41815667Y-89537324D02*
X41738257Y-89459914D01*
X41738257Y-89459914D02*
X41699552Y-89343800D01*
X41699552Y-89343800D02*
X41699552Y-89266391D01*
X41699552Y-89266391D02*
X41738257Y-89150276D01*
X41738257Y-89150276D02*
X41776962Y-89111572D01*
X42512352Y-88376181D02*
X42512352Y-88763229D01*
X42512352Y-88763229D02*
X41699552Y-88763229D01*
X45090772Y-90388828D02*
X45129476Y-90272714D01*
X45129476Y-90272714D02*
X45129476Y-90079190D01*
X45129476Y-90079190D02*
X45090772Y-90001781D01*
X45090772Y-90001781D02*
X45052067Y-89963076D01*
X45052067Y-89963076D02*
X44974657Y-89924371D01*
X44974657Y-89924371D02*
X44897248Y-89924371D01*
X44897248Y-89924371D02*
X44819838Y-89963076D01*
X44819838Y-89963076D02*
X44781133Y-90001781D01*
X44781133Y-90001781D02*
X44742429Y-90079190D01*
X44742429Y-90079190D02*
X44703724Y-90234009D01*
X44703724Y-90234009D02*
X44665019Y-90311419D01*
X44665019Y-90311419D02*
X44626314Y-90350124D01*
X44626314Y-90350124D02*
X44548905Y-90388828D01*
X44548905Y-90388828D02*
X44471495Y-90388828D01*
X44471495Y-90388828D02*
X44394086Y-90350124D01*
X44394086Y-90350124D02*
X44355381Y-90311419D01*
X44355381Y-90311419D02*
X44316676Y-90234009D01*
X44316676Y-90234009D02*
X44316676Y-90040486D01*
X44316676Y-90040486D02*
X44355381Y-89924371D01*
X45129476Y-89576029D02*
X44316676Y-89576029D01*
X44316676Y-89576029D02*
X44316676Y-89382505D01*
X44316676Y-89382505D02*
X44355381Y-89266391D01*
X44355381Y-89266391D02*
X44432791Y-89188981D01*
X44432791Y-89188981D02*
X44510200Y-89150276D01*
X44510200Y-89150276D02*
X44665019Y-89111572D01*
X44665019Y-89111572D02*
X44781133Y-89111572D01*
X44781133Y-89111572D02*
X44935952Y-89150276D01*
X44935952Y-89150276D02*
X45013362Y-89188981D01*
X45013362Y-89188981D02*
X45090772Y-89266391D01*
X45090772Y-89266391D02*
X45129476Y-89382505D01*
X45129476Y-89382505D02*
X45129476Y-89576029D01*
X44897248Y-88801933D02*
X44897248Y-88414886D01*
X45129476Y-88879343D02*
X44316676Y-88608410D01*
X44316676Y-88608410D02*
X45129476Y-88337476D01*
X46933800Y-90427533D02*
X46933800Y-89924371D01*
X46933800Y-89924371D02*
X47243438Y-90195305D01*
X47243438Y-90195305D02*
X47243438Y-90079190D01*
X47243438Y-90079190D02*
X47282143Y-90001781D01*
X47282143Y-90001781D02*
X47320848Y-89963076D01*
X47320848Y-89963076D02*
X47398257Y-89924371D01*
X47398257Y-89924371D02*
X47591781Y-89924371D01*
X47591781Y-89924371D02*
X47669191Y-89963076D01*
X47669191Y-89963076D02*
X47707896Y-90001781D01*
X47707896Y-90001781D02*
X47746600Y-90079190D01*
X47746600Y-90079190D02*
X47746600Y-90311419D01*
X47746600Y-90311419D02*
X47707896Y-90388828D01*
X47707896Y-90388828D02*
X47669191Y-90427533D01*
X46933800Y-89692143D02*
X47746600Y-89421210D01*
X47746600Y-89421210D02*
X46933800Y-89150276D01*
X46933800Y-88956752D02*
X46933800Y-88453590D01*
X46933800Y-88453590D02*
X47243438Y-88724524D01*
X47243438Y-88724524D02*
X47243438Y-88608409D01*
X47243438Y-88608409D02*
X47282143Y-88531000D01*
X47282143Y-88531000D02*
X47320848Y-88492295D01*
X47320848Y-88492295D02*
X47398257Y-88453590D01*
X47398257Y-88453590D02*
X47591781Y-88453590D01*
X47591781Y-88453590D02*
X47669191Y-88492295D01*
X47669191Y-88492295D02*
X47707896Y-88531000D01*
X47707896Y-88531000D02*
X47746600Y-88608409D01*
X47746600Y-88608409D02*
X47746600Y-88840638D01*
X47746600Y-88840638D02*
X47707896Y-88918047D01*
X47707896Y-88918047D02*
X47669191Y-88956752D01*
X49589629Y-89924371D02*
X49550924Y-90001781D01*
X49550924Y-90001781D02*
X49550924Y-90117895D01*
X49550924Y-90117895D02*
X49589629Y-90234009D01*
X49589629Y-90234009D02*
X49667039Y-90311419D01*
X49667039Y-90311419D02*
X49744448Y-90350124D01*
X49744448Y-90350124D02*
X49899267Y-90388828D01*
X49899267Y-90388828D02*
X50015381Y-90388828D01*
X50015381Y-90388828D02*
X50170200Y-90350124D01*
X50170200Y-90350124D02*
X50247610Y-90311419D01*
X50247610Y-90311419D02*
X50325020Y-90234009D01*
X50325020Y-90234009D02*
X50363724Y-90117895D01*
X50363724Y-90117895D02*
X50363724Y-90040486D01*
X50363724Y-90040486D02*
X50325020Y-89924371D01*
X50325020Y-89924371D02*
X50286315Y-89885667D01*
X50286315Y-89885667D02*
X50015381Y-89885667D01*
X50015381Y-89885667D02*
X50015381Y-90040486D01*
X50363724Y-89537324D02*
X49550924Y-89537324D01*
X49550924Y-89537324D02*
X50363724Y-89072867D01*
X50363724Y-89072867D02*
X49550924Y-89072867D01*
X50363724Y-88685819D02*
X49550924Y-88685819D01*
X49550924Y-88685819D02*
X49550924Y-88492295D01*
X49550924Y-88492295D02*
X49589629Y-88376181D01*
X49589629Y-88376181D02*
X49667039Y-88298771D01*
X49667039Y-88298771D02*
X49744448Y-88260066D01*
X49744448Y-88260066D02*
X49899267Y-88221362D01*
X49899267Y-88221362D02*
X50015381Y-88221362D01*
X50015381Y-88221362D02*
X50170200Y-88260066D01*
X50170200Y-88260066D02*
X50247610Y-88298771D01*
X50247610Y-88298771D02*
X50325020Y-88376181D01*
X50325020Y-88376181D02*
X50363724Y-88492295D01*
X50363724Y-88492295D02*
X50363724Y-88685819D01*
D13*
X49586064Y-80275967D02*
X50602064Y-80275967D01*
X50505302Y-80711396D02*
X50553683Y-80759777D01*
X50553683Y-80759777D02*
X50602064Y-80856539D01*
X50602064Y-80856539D02*
X50602064Y-81098444D01*
X50602064Y-81098444D02*
X50553683Y-81195206D01*
X50553683Y-81195206D02*
X50505302Y-81243587D01*
X50505302Y-81243587D02*
X50408540Y-81291968D01*
X50408540Y-81291968D02*
X50311778Y-81291968D01*
X50311778Y-81291968D02*
X50166635Y-81243587D01*
X50166635Y-81243587D02*
X49586064Y-80663015D01*
X49586064Y-80663015D02*
X49586064Y-81291968D01*
X49682825Y-82307968D02*
X49634445Y-82259587D01*
X49634445Y-82259587D02*
X49586064Y-82114444D01*
X49586064Y-82114444D02*
X49586064Y-82017682D01*
X49586064Y-82017682D02*
X49634445Y-81872539D01*
X49634445Y-81872539D02*
X49731206Y-81775777D01*
X49731206Y-81775777D02*
X49827968Y-81727396D01*
X49827968Y-81727396D02*
X50021492Y-81679015D01*
X50021492Y-81679015D02*
X50166635Y-81679015D01*
X50166635Y-81679015D02*
X50360159Y-81727396D01*
X50360159Y-81727396D02*
X50456921Y-81775777D01*
X50456921Y-81775777D02*
X50553683Y-81872539D01*
X50553683Y-81872539D02*
X50602064Y-82017682D01*
X50602064Y-82017682D02*
X50602064Y-82114444D01*
X50602064Y-82114444D02*
X50553683Y-82259587D01*
X50553683Y-82259587D02*
X50505302Y-82307968D01*
X50602064Y-83711015D02*
X50602064Y-83807777D01*
X50602064Y-83807777D02*
X50553683Y-83904539D01*
X50553683Y-83904539D02*
X50505302Y-83952920D01*
X50505302Y-83952920D02*
X50408540Y-84001301D01*
X50408540Y-84001301D02*
X50215016Y-84049682D01*
X50215016Y-84049682D02*
X49973111Y-84049682D01*
X49973111Y-84049682D02*
X49779587Y-84001301D01*
X49779587Y-84001301D02*
X49682825Y-83952920D01*
X49682825Y-83952920D02*
X49634445Y-83904539D01*
X49634445Y-83904539D02*
X49586064Y-83807777D01*
X49586064Y-83807777D02*
X49586064Y-83711015D01*
X49586064Y-83711015D02*
X49634445Y-83614253D01*
X49634445Y-83614253D02*
X49682825Y-83565872D01*
X49682825Y-83565872D02*
X49779587Y-83517491D01*
X49779587Y-83517491D02*
X49973111Y-83469110D01*
X49973111Y-83469110D02*
X50215016Y-83469110D01*
X50215016Y-83469110D02*
X50408540Y-83517491D01*
X50408540Y-83517491D02*
X50505302Y-83565872D01*
X50505302Y-83565872D02*
X50553683Y-83614253D01*
X50553683Y-83614253D02*
X50602064Y-83711015D01*
D14*
X41017372Y-40634624D02*
X41162515Y-40683005D01*
X41162515Y-40683005D02*
X41210896Y-40731386D01*
X41210896Y-40731386D02*
X41259277Y-40828148D01*
X41259277Y-40828148D02*
X41259277Y-40973291D01*
X41259277Y-40973291D02*
X41210896Y-41070053D01*
X41210896Y-41070053D02*
X41162515Y-41118434D01*
X41162515Y-41118434D02*
X41065753Y-41166814D01*
X41065753Y-41166814D02*
X40678705Y-41166814D01*
X40678705Y-41166814D02*
X40678705Y-40150814D01*
X40678705Y-40150814D02*
X41017372Y-40150814D01*
X41017372Y-40150814D02*
X41114134Y-40199195D01*
X41114134Y-40199195D02*
X41162515Y-40247576D01*
X41162515Y-40247576D02*
X41210896Y-40344338D01*
X41210896Y-40344338D02*
X41210896Y-40441100D01*
X41210896Y-40441100D02*
X41162515Y-40537862D01*
X41162515Y-40537862D02*
X41114134Y-40586243D01*
X41114134Y-40586243D02*
X41017372Y-40634624D01*
X41017372Y-40634624D02*
X40678705Y-40634624D01*
X41888229Y-40150814D02*
X42081753Y-40150814D01*
X42081753Y-40150814D02*
X42178515Y-40199195D01*
X42178515Y-40199195D02*
X42275277Y-40295957D01*
X42275277Y-40295957D02*
X42323658Y-40489481D01*
X42323658Y-40489481D02*
X42323658Y-40828148D01*
X42323658Y-40828148D02*
X42275277Y-41021672D01*
X42275277Y-41021672D02*
X42178515Y-41118434D01*
X42178515Y-41118434D02*
X42081753Y-41166814D01*
X42081753Y-41166814D02*
X41888229Y-41166814D01*
X41888229Y-41166814D02*
X41791467Y-41118434D01*
X41791467Y-41118434D02*
X41694705Y-41021672D01*
X41694705Y-41021672D02*
X41646324Y-40828148D01*
X41646324Y-40828148D02*
X41646324Y-40489481D01*
X41646324Y-40489481D02*
X41694705Y-40295957D01*
X41694705Y-40295957D02*
X41791467Y-40199195D01*
X41791467Y-40199195D02*
X41888229Y-40150814D01*
X42710705Y-40876529D02*
X43194515Y-40876529D01*
X42613943Y-41166814D02*
X42952610Y-40150814D01*
X42952610Y-40150814D02*
X43291277Y-41166814D01*
X44210515Y-41166814D02*
X43871848Y-40683005D01*
X43629943Y-41166814D02*
X43629943Y-40150814D01*
X43629943Y-40150814D02*
X44016991Y-40150814D01*
X44016991Y-40150814D02*
X44113753Y-40199195D01*
X44113753Y-40199195D02*
X44162134Y-40247576D01*
X44162134Y-40247576D02*
X44210515Y-40344338D01*
X44210515Y-40344338D02*
X44210515Y-40489481D01*
X44210515Y-40489481D02*
X44162134Y-40586243D01*
X44162134Y-40586243D02*
X44113753Y-40634624D01*
X44113753Y-40634624D02*
X44016991Y-40683005D01*
X44016991Y-40683005D02*
X43629943Y-40683005D01*
X44645943Y-41166814D02*
X44645943Y-40150814D01*
X44645943Y-40150814D02*
X44887848Y-40150814D01*
X44887848Y-40150814D02*
X45032991Y-40199195D01*
X45032991Y-40199195D02*
X45129753Y-40295957D01*
X45129753Y-40295957D02*
X45178134Y-40392719D01*
X45178134Y-40392719D02*
X45226515Y-40586243D01*
X45226515Y-40586243D02*
X45226515Y-40731386D01*
X45226515Y-40731386D02*
X45178134Y-40924910D01*
X45178134Y-40924910D02*
X45129753Y-41021672D01*
X45129753Y-41021672D02*
X45032991Y-41118434D01*
X45032991Y-41118434D02*
X44887848Y-41166814D01*
X44887848Y-41166814D02*
X44645943Y-41166814D01*
X46387657Y-41118434D02*
X46532800Y-41166814D01*
X46532800Y-41166814D02*
X46774705Y-41166814D01*
X46774705Y-41166814D02*
X46871467Y-41118434D01*
X46871467Y-41118434D02*
X46919848Y-41070053D01*
X46919848Y-41070053D02*
X46968229Y-40973291D01*
X46968229Y-40973291D02*
X46968229Y-40876529D01*
X46968229Y-40876529D02*
X46919848Y-40779767D01*
X46919848Y-40779767D02*
X46871467Y-40731386D01*
X46871467Y-40731386D02*
X46774705Y-40683005D01*
X46774705Y-40683005D02*
X46581181Y-40634624D01*
X46581181Y-40634624D02*
X46484419Y-40586243D01*
X46484419Y-40586243D02*
X46436038Y-40537862D01*
X46436038Y-40537862D02*
X46387657Y-40441100D01*
X46387657Y-40441100D02*
X46387657Y-40344338D01*
X46387657Y-40344338D02*
X46436038Y-40247576D01*
X46436038Y-40247576D02*
X46484419Y-40199195D01*
X46484419Y-40199195D02*
X46581181Y-40150814D01*
X46581181Y-40150814D02*
X46823086Y-40150814D01*
X46823086Y-40150814D02*
X46968229Y-40199195D01*
X47403657Y-40634624D02*
X47742324Y-40634624D01*
X47887467Y-41166814D02*
X47403657Y-41166814D01*
X47403657Y-41166814D02*
X47403657Y-40150814D01*
X47403657Y-40150814D02*
X47887467Y-40150814D01*
X48806705Y-41166814D02*
X48322895Y-41166814D01*
X48322895Y-41166814D02*
X48322895Y-40150814D01*
X49145371Y-40634624D02*
X49484038Y-40634624D01*
X49629181Y-41166814D02*
X49145371Y-41166814D01*
X49145371Y-41166814D02*
X49145371Y-40150814D01*
X49145371Y-40150814D02*
X49629181Y-40150814D01*
X50645181Y-41070053D02*
X50596800Y-41118434D01*
X50596800Y-41118434D02*
X50451657Y-41166814D01*
X50451657Y-41166814D02*
X50354895Y-41166814D01*
X50354895Y-41166814D02*
X50209752Y-41118434D01*
X50209752Y-41118434D02*
X50112990Y-41021672D01*
X50112990Y-41021672D02*
X50064609Y-40924910D01*
X50064609Y-40924910D02*
X50016228Y-40731386D01*
X50016228Y-40731386D02*
X50016228Y-40586243D01*
X50016228Y-40586243D02*
X50064609Y-40392719D01*
X50064609Y-40392719D02*
X50112990Y-40295957D01*
X50112990Y-40295957D02*
X50209752Y-40199195D01*
X50209752Y-40199195D02*
X50354895Y-40150814D01*
X50354895Y-40150814D02*
X50451657Y-40150814D01*
X50451657Y-40150814D02*
X50596800Y-40199195D01*
X50596800Y-40199195D02*
X50645181Y-40247576D01*
X50935466Y-40150814D02*
X51516038Y-40150814D01*
X51225752Y-41166814D02*
X51225752Y-40150814D01*
D12*
X8923293Y-24370409D02*
X8923293Y-24672790D01*
X8620912Y-24551837D02*
X8923293Y-24672790D01*
X8923293Y-24672790D02*
X9225674Y-24551837D01*
X8741864Y-24914694D02*
X8923293Y-24672790D01*
X8923293Y-24672790D02*
X9104722Y-24914694D01*
X44460387Y-6483684D02*
X44968387Y-6128084D01*
X44460387Y-5874084D02*
X45527187Y-5874084D01*
X45527187Y-5874084D02*
X45527187Y-6280484D01*
X45527187Y-6280484D02*
X45476387Y-6382084D01*
X45476387Y-6382084D02*
X45425587Y-6432884D01*
X45425587Y-6432884D02*
X45323987Y-6483684D01*
X45323987Y-6483684D02*
X45171587Y-6483684D01*
X45171587Y-6483684D02*
X45069987Y-6432884D01*
X45069987Y-6432884D02*
X45019187Y-6382084D01*
X45019187Y-6382084D02*
X44968387Y-6280484D01*
X44968387Y-6280484D02*
X44968387Y-5874084D01*
X44511187Y-7347284D02*
X44460387Y-7245684D01*
X44460387Y-7245684D02*
X44460387Y-7042484D01*
X44460387Y-7042484D02*
X44511187Y-6940884D01*
X44511187Y-6940884D02*
X44612787Y-6890084D01*
X44612787Y-6890084D02*
X45019187Y-6890084D01*
X45019187Y-6890084D02*
X45120787Y-6940884D01*
X45120787Y-6940884D02*
X45171587Y-7042484D01*
X45171587Y-7042484D02*
X45171587Y-7245684D01*
X45171587Y-7245684D02*
X45120787Y-7347284D01*
X45120787Y-7347284D02*
X45019187Y-7398084D01*
X45019187Y-7398084D02*
X44917587Y-7398084D01*
X44917587Y-7398084D02*
X44815987Y-6890084D01*
X44460387Y-7855284D02*
X45171587Y-7855284D01*
X45069987Y-7855284D02*
X45120787Y-7906084D01*
X45120787Y-7906084D02*
X45171587Y-8007684D01*
X45171587Y-8007684D02*
X45171587Y-8160084D01*
X45171587Y-8160084D02*
X45120787Y-8261684D01*
X45120787Y-8261684D02*
X45019187Y-8312484D01*
X45019187Y-8312484D02*
X44460387Y-8312484D01*
X45019187Y-8312484D02*
X45120787Y-8363284D01*
X45120787Y-8363284D02*
X45171587Y-8464884D01*
X45171587Y-8464884D02*
X45171587Y-8617284D01*
X45171587Y-8617284D02*
X45120787Y-8718884D01*
X45120787Y-8718884D02*
X45019187Y-8769684D01*
X45019187Y-8769684D02*
X44460387Y-8769684D01*
X44460387Y-9430084D02*
X44511187Y-9328484D01*
X44511187Y-9328484D02*
X44561987Y-9277684D01*
X44561987Y-9277684D02*
X44663587Y-9226884D01*
X44663587Y-9226884D02*
X44968387Y-9226884D01*
X44968387Y-9226884D02*
X45069987Y-9277684D01*
X45069987Y-9277684D02*
X45120787Y-9328484D01*
X45120787Y-9328484D02*
X45171587Y-9430084D01*
X45171587Y-9430084D02*
X45171587Y-9582484D01*
X45171587Y-9582484D02*
X45120787Y-9684084D01*
X45120787Y-9684084D02*
X45069987Y-9734884D01*
X45069987Y-9734884D02*
X44968387Y-9785684D01*
X44968387Y-9785684D02*
X44663587Y-9785684D01*
X44663587Y-9785684D02*
X44561987Y-9734884D01*
X44561987Y-9734884D02*
X44511187Y-9684084D01*
X44511187Y-9684084D02*
X44460387Y-9582484D01*
X44460387Y-9582484D02*
X44460387Y-9430084D01*
X45171587Y-10090484D02*
X45171587Y-10496884D01*
X45527187Y-10242884D02*
X44612787Y-10242884D01*
X44612787Y-10242884D02*
X44511187Y-10293684D01*
X44511187Y-10293684D02*
X44460387Y-10395284D01*
X44460387Y-10395284D02*
X44460387Y-10496884D01*
X44511187Y-11258884D02*
X44460387Y-11157284D01*
X44460387Y-11157284D02*
X44460387Y-10954084D01*
X44460387Y-10954084D02*
X44511187Y-10852484D01*
X44511187Y-10852484D02*
X44612787Y-10801684D01*
X44612787Y-10801684D02*
X45019187Y-10801684D01*
X45019187Y-10801684D02*
X45120787Y-10852484D01*
X45120787Y-10852484D02*
X45171587Y-10954084D01*
X45171587Y-10954084D02*
X45171587Y-11157284D01*
X45171587Y-11157284D02*
X45120787Y-11258884D01*
X45120787Y-11258884D02*
X45019187Y-11309684D01*
X45019187Y-11309684D02*
X44917587Y-11309684D01*
X44917587Y-11309684D02*
X44815987Y-10801684D01*
X44460387Y-12579684D02*
X45527187Y-12579684D01*
X45527187Y-12579684D02*
X44765187Y-12935284D01*
X44765187Y-12935284D02*
X45527187Y-13290884D01*
X45527187Y-13290884D02*
X44460387Y-13290884D01*
X44460387Y-13951284D02*
X44511187Y-13849684D01*
X44511187Y-13849684D02*
X44561987Y-13798884D01*
X44561987Y-13798884D02*
X44663587Y-13748084D01*
X44663587Y-13748084D02*
X44968387Y-13748084D01*
X44968387Y-13748084D02*
X45069987Y-13798884D01*
X45069987Y-13798884D02*
X45120787Y-13849684D01*
X45120787Y-13849684D02*
X45171587Y-13951284D01*
X45171587Y-13951284D02*
X45171587Y-14103684D01*
X45171587Y-14103684D02*
X45120787Y-14205284D01*
X45120787Y-14205284D02*
X45069987Y-14256084D01*
X45069987Y-14256084D02*
X44968387Y-14306884D01*
X44968387Y-14306884D02*
X44663587Y-14306884D01*
X44663587Y-14306884D02*
X44561987Y-14256084D01*
X44561987Y-14256084D02*
X44511187Y-14205284D01*
X44511187Y-14205284D02*
X44460387Y-14103684D01*
X44460387Y-14103684D02*
X44460387Y-13951284D01*
X45171587Y-14764084D02*
X44460387Y-14764084D01*
X45069987Y-14764084D02*
X45120787Y-14814884D01*
X45120787Y-14814884D02*
X45171587Y-14916484D01*
X45171587Y-14916484D02*
X45171587Y-15068884D01*
X45171587Y-15068884D02*
X45120787Y-15170484D01*
X45120787Y-15170484D02*
X45019187Y-15221284D01*
X45019187Y-15221284D02*
X44460387Y-15221284D01*
X44460387Y-15729284D02*
X45171587Y-15729284D01*
X45527187Y-15729284D02*
X45476387Y-15678484D01*
X45476387Y-15678484D02*
X45425587Y-15729284D01*
X45425587Y-15729284D02*
X45476387Y-15780084D01*
X45476387Y-15780084D02*
X45527187Y-15729284D01*
X45527187Y-15729284D02*
X45425587Y-15729284D01*
X45171587Y-16084884D02*
X45171587Y-16491284D01*
X45527187Y-16237284D02*
X44612787Y-16237284D01*
X44612787Y-16237284D02*
X44511187Y-16288084D01*
X44511187Y-16288084D02*
X44460387Y-16389684D01*
X44460387Y-16389684D02*
X44460387Y-16491284D01*
X44460387Y-16999284D02*
X44511187Y-16897684D01*
X44511187Y-16897684D02*
X44561987Y-16846884D01*
X44561987Y-16846884D02*
X44663587Y-16796084D01*
X44663587Y-16796084D02*
X44968387Y-16796084D01*
X44968387Y-16796084D02*
X45069987Y-16846884D01*
X45069987Y-16846884D02*
X45120787Y-16897684D01*
X45120787Y-16897684D02*
X45171587Y-16999284D01*
X45171587Y-16999284D02*
X45171587Y-17151684D01*
X45171587Y-17151684D02*
X45120787Y-17253284D01*
X45120787Y-17253284D02*
X45069987Y-17304084D01*
X45069987Y-17304084D02*
X44968387Y-17354884D01*
X44968387Y-17354884D02*
X44663587Y-17354884D01*
X44663587Y-17354884D02*
X44561987Y-17304084D01*
X44561987Y-17304084D02*
X44511187Y-17253284D01*
X44511187Y-17253284D02*
X44460387Y-17151684D01*
X44460387Y-17151684D02*
X44460387Y-16999284D01*
X44460387Y-17812084D02*
X45171587Y-17812084D01*
X44968387Y-17812084D02*
X45069987Y-17862884D01*
X45069987Y-17862884D02*
X45120787Y-17913684D01*
X45120787Y-17913684D02*
X45171587Y-18015284D01*
X45171587Y-18015284D02*
X45171587Y-18116884D01*
X44460387Y-18472484D02*
X45171587Y-18472484D01*
X45527187Y-18472484D02*
X45476387Y-18421684D01*
X45476387Y-18421684D02*
X45425587Y-18472484D01*
X45425587Y-18472484D02*
X45476387Y-18523284D01*
X45476387Y-18523284D02*
X45527187Y-18472484D01*
X45527187Y-18472484D02*
X45425587Y-18472484D01*
X45171587Y-18980484D02*
X44460387Y-18980484D01*
X45069987Y-18980484D02*
X45120787Y-19031284D01*
X45120787Y-19031284D02*
X45171587Y-19132884D01*
X45171587Y-19132884D02*
X45171587Y-19285284D01*
X45171587Y-19285284D02*
X45120787Y-19386884D01*
X45120787Y-19386884D02*
X45019187Y-19437684D01*
X45019187Y-19437684D02*
X44460387Y-19437684D01*
X45171587Y-20402884D02*
X44307987Y-20402884D01*
X44307987Y-20402884D02*
X44206387Y-20352084D01*
X44206387Y-20352084D02*
X44155587Y-20301284D01*
X44155587Y-20301284D02*
X44104787Y-20199684D01*
X44104787Y-20199684D02*
X44104787Y-20047284D01*
X44104787Y-20047284D02*
X44155587Y-19945684D01*
X44511187Y-20402884D02*
X44460387Y-20301284D01*
X44460387Y-20301284D02*
X44460387Y-20098084D01*
X44460387Y-20098084D02*
X44511187Y-19996484D01*
X44511187Y-19996484D02*
X44561987Y-19945684D01*
X44561987Y-19945684D02*
X44663587Y-19894884D01*
X44663587Y-19894884D02*
X44968387Y-19894884D01*
X44968387Y-19894884D02*
X45069987Y-19945684D01*
X45069987Y-19945684D02*
X45120787Y-19996484D01*
X45120787Y-19996484D02*
X45171587Y-20098084D01*
X45171587Y-20098084D02*
X45171587Y-20301284D01*
X45171587Y-20301284D02*
X45120787Y-20402884D01*
X42742899Y-5874084D02*
X43809699Y-5874084D01*
X43809699Y-5874084D02*
X43809699Y-6128084D01*
X43809699Y-6128084D02*
X43758899Y-6280484D01*
X43758899Y-6280484D02*
X43657299Y-6382084D01*
X43657299Y-6382084D02*
X43555699Y-6432884D01*
X43555699Y-6432884D02*
X43352499Y-6483684D01*
X43352499Y-6483684D02*
X43200099Y-6483684D01*
X43200099Y-6483684D02*
X42996899Y-6432884D01*
X42996899Y-6432884D02*
X42895299Y-6382084D01*
X42895299Y-6382084D02*
X42793699Y-6280484D01*
X42793699Y-6280484D02*
X42742899Y-6128084D01*
X42742899Y-6128084D02*
X42742899Y-5874084D01*
X42742899Y-6940884D02*
X43454099Y-6940884D01*
X43809699Y-6940884D02*
X43758899Y-6890084D01*
X43758899Y-6890084D02*
X43708099Y-6940884D01*
X43708099Y-6940884D02*
X43758899Y-6991684D01*
X43758899Y-6991684D02*
X43809699Y-6940884D01*
X43809699Y-6940884D02*
X43708099Y-6940884D01*
X43454099Y-7906084D02*
X42590499Y-7906084D01*
X42590499Y-7906084D02*
X42488899Y-7855284D01*
X42488899Y-7855284D02*
X42438099Y-7804484D01*
X42438099Y-7804484D02*
X42387299Y-7702884D01*
X42387299Y-7702884D02*
X42387299Y-7550484D01*
X42387299Y-7550484D02*
X42438099Y-7448884D01*
X42793699Y-7906084D02*
X42742899Y-7804484D01*
X42742899Y-7804484D02*
X42742899Y-7601284D01*
X42742899Y-7601284D02*
X42793699Y-7499684D01*
X42793699Y-7499684D02*
X42844499Y-7448884D01*
X42844499Y-7448884D02*
X42946099Y-7398084D01*
X42946099Y-7398084D02*
X43250899Y-7398084D01*
X43250899Y-7398084D02*
X43352499Y-7448884D01*
X43352499Y-7448884D02*
X43403299Y-7499684D01*
X43403299Y-7499684D02*
X43454099Y-7601284D01*
X43454099Y-7601284D02*
X43454099Y-7804484D01*
X43454099Y-7804484D02*
X43403299Y-7906084D01*
X42742899Y-8414084D02*
X43454099Y-8414084D01*
X43809699Y-8414084D02*
X43758899Y-8363284D01*
X43758899Y-8363284D02*
X43708099Y-8414084D01*
X43708099Y-8414084D02*
X43758899Y-8464884D01*
X43758899Y-8464884D02*
X43809699Y-8414084D01*
X43809699Y-8414084D02*
X43708099Y-8414084D01*
X43454099Y-8769684D02*
X43454099Y-9176084D01*
X43809699Y-8922084D02*
X42895299Y-8922084D01*
X42895299Y-8922084D02*
X42793699Y-8972884D01*
X42793699Y-8972884D02*
X42742899Y-9074484D01*
X42742899Y-9074484D02*
X42742899Y-9176084D01*
X42742899Y-9988884D02*
X43301699Y-9988884D01*
X43301699Y-9988884D02*
X43403299Y-9938084D01*
X43403299Y-9938084D02*
X43454099Y-9836484D01*
X43454099Y-9836484D02*
X43454099Y-9633284D01*
X43454099Y-9633284D02*
X43403299Y-9531684D01*
X42793699Y-9988884D02*
X42742899Y-9887284D01*
X42742899Y-9887284D02*
X42742899Y-9633284D01*
X42742899Y-9633284D02*
X42793699Y-9531684D01*
X42793699Y-9531684D02*
X42895299Y-9480884D01*
X42895299Y-9480884D02*
X42996899Y-9480884D01*
X42996899Y-9480884D02*
X43098499Y-9531684D01*
X43098499Y-9531684D02*
X43149299Y-9633284D01*
X43149299Y-9633284D02*
X43149299Y-9887284D01*
X43149299Y-9887284D02*
X43200099Y-9988884D01*
X42742899Y-10649284D02*
X42793699Y-10547684D01*
X42793699Y-10547684D02*
X42895299Y-10496884D01*
X42895299Y-10496884D02*
X43809699Y-10496884D01*
X42742899Y-11868484D02*
X43809699Y-11868484D01*
X43454099Y-12376484D02*
X42742899Y-12376484D01*
X43352499Y-12376484D02*
X43403299Y-12427284D01*
X43403299Y-12427284D02*
X43454099Y-12528884D01*
X43454099Y-12528884D02*
X43454099Y-12681284D01*
X43454099Y-12681284D02*
X43403299Y-12782884D01*
X43403299Y-12782884D02*
X43301699Y-12833684D01*
X43301699Y-12833684D02*
X42742899Y-12833684D01*
X43454099Y-13341684D02*
X42387299Y-13341684D01*
X43403299Y-13341684D02*
X43454099Y-13443284D01*
X43454099Y-13443284D02*
X43454099Y-13646484D01*
X43454099Y-13646484D02*
X43403299Y-13748084D01*
X43403299Y-13748084D02*
X43352499Y-13798884D01*
X43352499Y-13798884D02*
X43250899Y-13849684D01*
X43250899Y-13849684D02*
X42946099Y-13849684D01*
X42946099Y-13849684D02*
X42844499Y-13798884D01*
X42844499Y-13798884D02*
X42793699Y-13748084D01*
X42793699Y-13748084D02*
X42742899Y-13646484D01*
X42742899Y-13646484D02*
X42742899Y-13443284D01*
X42742899Y-13443284D02*
X42793699Y-13341684D01*
X43454099Y-14764084D02*
X42742899Y-14764084D01*
X43454099Y-14306884D02*
X42895299Y-14306884D01*
X42895299Y-14306884D02*
X42793699Y-14357684D01*
X42793699Y-14357684D02*
X42742899Y-14459284D01*
X42742899Y-14459284D02*
X42742899Y-14611684D01*
X42742899Y-14611684D02*
X42793699Y-14713284D01*
X42793699Y-14713284D02*
X42844499Y-14764084D01*
X43454099Y-15119684D02*
X43454099Y-15526084D01*
X43809699Y-15272084D02*
X42895299Y-15272084D01*
X42895299Y-15272084D02*
X42793699Y-15322884D01*
X42793699Y-15322884D02*
X42742899Y-15424484D01*
X42742899Y-15424484D02*
X42742899Y-15526084D01*
X43301699Y-17050084D02*
X43250899Y-17202484D01*
X43250899Y-17202484D02*
X43200099Y-17253284D01*
X43200099Y-17253284D02*
X43098499Y-17304084D01*
X43098499Y-17304084D02*
X42946099Y-17304084D01*
X42946099Y-17304084D02*
X42844499Y-17253284D01*
X42844499Y-17253284D02*
X42793699Y-17202484D01*
X42793699Y-17202484D02*
X42742899Y-17100884D01*
X42742899Y-17100884D02*
X42742899Y-16694484D01*
X42742899Y-16694484D02*
X43809699Y-16694484D01*
X43809699Y-16694484D02*
X43809699Y-17050084D01*
X43809699Y-17050084D02*
X43758899Y-17151684D01*
X43758899Y-17151684D02*
X43708099Y-17202484D01*
X43708099Y-17202484D02*
X43606499Y-17253284D01*
X43606499Y-17253284D02*
X43504899Y-17253284D01*
X43504899Y-17253284D02*
X43403299Y-17202484D01*
X43403299Y-17202484D02*
X43352499Y-17151684D01*
X43352499Y-17151684D02*
X43301699Y-17050084D01*
X43301699Y-17050084D02*
X43301699Y-16694484D01*
X42742899Y-17913684D02*
X42793699Y-17812084D01*
X42793699Y-17812084D02*
X42844499Y-17761284D01*
X42844499Y-17761284D02*
X42946099Y-17710484D01*
X42946099Y-17710484D02*
X43250899Y-17710484D01*
X43250899Y-17710484D02*
X43352499Y-17761284D01*
X43352499Y-17761284D02*
X43403299Y-17812084D01*
X43403299Y-17812084D02*
X43454099Y-17913684D01*
X43454099Y-17913684D02*
X43454099Y-18066084D01*
X43454099Y-18066084D02*
X43403299Y-18167684D01*
X43403299Y-18167684D02*
X43352499Y-18218484D01*
X43352499Y-18218484D02*
X43250899Y-18269284D01*
X43250899Y-18269284D02*
X42946099Y-18269284D01*
X42946099Y-18269284D02*
X42844499Y-18218484D01*
X42844499Y-18218484D02*
X42793699Y-18167684D01*
X42793699Y-18167684D02*
X42742899Y-18066084D01*
X42742899Y-18066084D02*
X42742899Y-17913684D01*
X42742899Y-19183684D02*
X43301699Y-19183684D01*
X43301699Y-19183684D02*
X43403299Y-19132884D01*
X43403299Y-19132884D02*
X43454099Y-19031284D01*
X43454099Y-19031284D02*
X43454099Y-18828084D01*
X43454099Y-18828084D02*
X43403299Y-18726484D01*
X42793699Y-19183684D02*
X42742899Y-19082084D01*
X42742899Y-19082084D02*
X42742899Y-18828084D01*
X42742899Y-18828084D02*
X42793699Y-18726484D01*
X42793699Y-18726484D02*
X42895299Y-18675684D01*
X42895299Y-18675684D02*
X42996899Y-18675684D01*
X42996899Y-18675684D02*
X43098499Y-18726484D01*
X43098499Y-18726484D02*
X43149299Y-18828084D01*
X43149299Y-18828084D02*
X43149299Y-19082084D01*
X43149299Y-19082084D02*
X43200099Y-19183684D01*
X42742899Y-19691684D02*
X43454099Y-19691684D01*
X43250899Y-19691684D02*
X43352499Y-19742484D01*
X43352499Y-19742484D02*
X43403299Y-19793284D01*
X43403299Y-19793284D02*
X43454099Y-19894884D01*
X43454099Y-19894884D02*
X43454099Y-19996484D01*
X42742899Y-20809284D02*
X43809699Y-20809284D01*
X42793699Y-20809284D02*
X42742899Y-20707684D01*
X42742899Y-20707684D02*
X42742899Y-20504484D01*
X42742899Y-20504484D02*
X42793699Y-20402884D01*
X42793699Y-20402884D02*
X42844499Y-20352084D01*
X42844499Y-20352084D02*
X42946099Y-20301284D01*
X42946099Y-20301284D02*
X43250899Y-20301284D01*
X43250899Y-20301284D02*
X43352499Y-20352084D01*
X43352499Y-20352084D02*
X43403299Y-20402884D01*
X43403299Y-20402884D02*
X43454099Y-20504484D01*
X43454099Y-20504484D02*
X43454099Y-20707684D01*
X43454099Y-20707684D02*
X43403299Y-20809284D01*
X41025411Y-5874084D02*
X42092211Y-5874084D01*
X42092211Y-5874084D02*
X41330211Y-6229684D01*
X41330211Y-6229684D02*
X42092211Y-6585284D01*
X42092211Y-6585284D02*
X41025411Y-6585284D01*
X42092211Y-7296484D02*
X42092211Y-7499684D01*
X42092211Y-7499684D02*
X42041411Y-7601284D01*
X42041411Y-7601284D02*
X41939811Y-7702884D01*
X41939811Y-7702884D02*
X41736611Y-7753684D01*
X41736611Y-7753684D02*
X41381011Y-7753684D01*
X41381011Y-7753684D02*
X41177811Y-7702884D01*
X41177811Y-7702884D02*
X41076211Y-7601284D01*
X41076211Y-7601284D02*
X41025411Y-7499684D01*
X41025411Y-7499684D02*
X41025411Y-7296484D01*
X41025411Y-7296484D02*
X41076211Y-7194884D01*
X41076211Y-7194884D02*
X41177811Y-7093284D01*
X41177811Y-7093284D02*
X41381011Y-7042484D01*
X41381011Y-7042484D02*
X41736611Y-7042484D01*
X41736611Y-7042484D02*
X41939811Y-7093284D01*
X41939811Y-7093284D02*
X42041411Y-7194884D01*
X42041411Y-7194884D02*
X42092211Y-7296484D01*
X41025411Y-8210884D02*
X42092211Y-8210884D01*
X42092211Y-8210884D02*
X41025411Y-8820484D01*
X41025411Y-8820484D02*
X42092211Y-8820484D01*
X41431811Y-9328484D02*
X41431811Y-10141284D01*
X41025411Y-10649284D02*
X42092211Y-10649284D01*
X42092211Y-10649284D02*
X42092211Y-10903284D01*
X42092211Y-10903284D02*
X42041411Y-11055684D01*
X42041411Y-11055684D02*
X41939811Y-11157284D01*
X41939811Y-11157284D02*
X41838211Y-11208084D01*
X41838211Y-11208084D02*
X41635011Y-11258884D01*
X41635011Y-11258884D02*
X41482611Y-11258884D01*
X41482611Y-11258884D02*
X41279411Y-11208084D01*
X41279411Y-11208084D02*
X41177811Y-11157284D01*
X41177811Y-11157284D02*
X41076211Y-11055684D01*
X41076211Y-11055684D02*
X41025411Y-10903284D01*
X41025411Y-10903284D02*
X41025411Y-10649284D01*
X41025411Y-11716084D02*
X42092211Y-11716084D01*
X41431811Y-12224084D02*
X41431811Y-13036884D01*
X42092211Y-13748084D02*
X42092211Y-13849684D01*
X42092211Y-13849684D02*
X42041411Y-13951284D01*
X42041411Y-13951284D02*
X41990611Y-14002084D01*
X41990611Y-14002084D02*
X41889011Y-14052884D01*
X41889011Y-14052884D02*
X41685811Y-14103684D01*
X41685811Y-14103684D02*
X41431811Y-14103684D01*
X41431811Y-14103684D02*
X41228611Y-14052884D01*
X41228611Y-14052884D02*
X41127011Y-14002084D01*
X41127011Y-14002084D02*
X41076211Y-13951284D01*
X41076211Y-13951284D02*
X41025411Y-13849684D01*
X41025411Y-13849684D02*
X41025411Y-13748084D01*
X41025411Y-13748084D02*
X41076211Y-13646484D01*
X41076211Y-13646484D02*
X41127011Y-13595684D01*
X41127011Y-13595684D02*
X41228611Y-13544884D01*
X41228611Y-13544884D02*
X41431811Y-13494084D01*
X41431811Y-13494084D02*
X41685811Y-13494084D01*
X41685811Y-13494084D02*
X41889011Y-13544884D01*
X41889011Y-13544884D02*
X41990611Y-13595684D01*
X41990611Y-13595684D02*
X42041411Y-13646484D01*
X42041411Y-13646484D02*
X42092211Y-13748084D01*
X41635011Y-14713284D02*
X41685811Y-14611684D01*
X41685811Y-14611684D02*
X41736611Y-14560884D01*
X41736611Y-14560884D02*
X41838211Y-14510084D01*
X41838211Y-14510084D02*
X41889011Y-14510084D01*
X41889011Y-14510084D02*
X41990611Y-14560884D01*
X41990611Y-14560884D02*
X42041411Y-14611684D01*
X42041411Y-14611684D02*
X42092211Y-14713284D01*
X42092211Y-14713284D02*
X42092211Y-14916484D01*
X42092211Y-14916484D02*
X42041411Y-15018084D01*
X42041411Y-15018084D02*
X41990611Y-15068884D01*
X41990611Y-15068884D02*
X41889011Y-15119684D01*
X41889011Y-15119684D02*
X41838211Y-15119684D01*
X41838211Y-15119684D02*
X41736611Y-15068884D01*
X41736611Y-15068884D02*
X41685811Y-15018084D01*
X41685811Y-15018084D02*
X41635011Y-14916484D01*
X41635011Y-14916484D02*
X41635011Y-14713284D01*
X41635011Y-14713284D02*
X41584211Y-14611684D01*
X41584211Y-14611684D02*
X41533411Y-14560884D01*
X41533411Y-14560884D02*
X41431811Y-14510084D01*
X41431811Y-14510084D02*
X41228611Y-14510084D01*
X41228611Y-14510084D02*
X41127011Y-14560884D01*
X41127011Y-14560884D02*
X41076211Y-14611684D01*
X41076211Y-14611684D02*
X41025411Y-14713284D01*
X41025411Y-14713284D02*
X41025411Y-14916484D01*
X41025411Y-14916484D02*
X41076211Y-15018084D01*
X41076211Y-15018084D02*
X41127011Y-15068884D01*
X41127011Y-15068884D02*
X41228611Y-15119684D01*
X41228611Y-15119684D02*
X41431811Y-15119684D01*
X41431811Y-15119684D02*
X41533411Y-15068884D01*
X41533411Y-15068884D02*
X41584211Y-15018084D01*
X41584211Y-15018084D02*
X41635011Y-14916484D01*
X40374723Y-5772484D02*
X40374723Y-6432884D01*
X40374723Y-6432884D02*
X39968323Y-6077284D01*
X39968323Y-6077284D02*
X39968323Y-6229684D01*
X39968323Y-6229684D02*
X39917523Y-6331284D01*
X39917523Y-6331284D02*
X39866723Y-6382084D01*
X39866723Y-6382084D02*
X39765123Y-6432884D01*
X39765123Y-6432884D02*
X39511123Y-6432884D01*
X39511123Y-6432884D02*
X39409523Y-6382084D01*
X39409523Y-6382084D02*
X39358723Y-6331284D01*
X39358723Y-6331284D02*
X39307923Y-6229684D01*
X39307923Y-6229684D02*
X39307923Y-5924884D01*
X39307923Y-5924884D02*
X39358723Y-5823284D01*
X39358723Y-5823284D02*
X39409523Y-5772484D01*
X40323923Y-7448884D02*
X40374723Y-7347284D01*
X40374723Y-7347284D02*
X40374723Y-7194884D01*
X40374723Y-7194884D02*
X40323923Y-7042484D01*
X40323923Y-7042484D02*
X40222323Y-6940884D01*
X40222323Y-6940884D02*
X40120723Y-6890084D01*
X40120723Y-6890084D02*
X39917523Y-6839284D01*
X39917523Y-6839284D02*
X39765123Y-6839284D01*
X39765123Y-6839284D02*
X39561923Y-6890084D01*
X39561923Y-6890084D02*
X39460323Y-6940884D01*
X39460323Y-6940884D02*
X39358723Y-7042484D01*
X39358723Y-7042484D02*
X39307923Y-7194884D01*
X39307923Y-7194884D02*
X39307923Y-7296484D01*
X39307923Y-7296484D02*
X39358723Y-7448884D01*
X39358723Y-7448884D02*
X39409523Y-7499684D01*
X39409523Y-7499684D02*
X39765123Y-7499684D01*
X39765123Y-7499684D02*
X39765123Y-7296484D01*
X39307923Y-7956884D02*
X40374723Y-7956884D01*
X40374723Y-7956884D02*
X40374723Y-8210884D01*
X40374723Y-8210884D02*
X40323923Y-8363284D01*
X40323923Y-8363284D02*
X40222323Y-8464884D01*
X40222323Y-8464884D02*
X40120723Y-8515684D01*
X40120723Y-8515684D02*
X39917523Y-8566484D01*
X39917523Y-8566484D02*
X39765123Y-8566484D01*
X39765123Y-8566484D02*
X39561923Y-8515684D01*
X39561923Y-8515684D02*
X39460323Y-8464884D01*
X39460323Y-8464884D02*
X39358723Y-8363284D01*
X39358723Y-8363284D02*
X39307923Y-8210884D01*
X39307923Y-8210884D02*
X39307923Y-7956884D01*
X39307923Y-9633284D02*
X39815923Y-9277684D01*
X39307923Y-9023684D02*
X40374723Y-9023684D01*
X40374723Y-9023684D02*
X40374723Y-9430084D01*
X40374723Y-9430084D02*
X40323923Y-9531684D01*
X40323923Y-9531684D02*
X40273123Y-9582484D01*
X40273123Y-9582484D02*
X40171523Y-9633284D01*
X40171523Y-9633284D02*
X40019123Y-9633284D01*
X40019123Y-9633284D02*
X39917523Y-9582484D01*
X39917523Y-9582484D02*
X39866723Y-9531684D01*
X39866723Y-9531684D02*
X39815923Y-9430084D01*
X39815923Y-9430084D02*
X39815923Y-9023684D01*
X39714323Y-10090484D02*
X39714323Y-10903284D01*
X39866723Y-11766884D02*
X39866723Y-11411284D01*
X39307923Y-11411284D02*
X40374723Y-11411284D01*
X40374723Y-11411284D02*
X40374723Y-11919284D01*
X39307923Y-12325684D02*
X40374723Y-12325684D01*
X40374723Y-12325684D02*
X39612723Y-12681284D01*
X39612723Y-12681284D02*
X40374723Y-13036884D01*
X40374723Y-13036884D02*
X39307923Y-13036884D01*
X8923293Y-61530609D02*
X8923293Y-61832990D01*
X8620912Y-61712037D02*
X8923293Y-61832990D01*
X8923293Y-61832990D02*
X9225674Y-61712037D01*
X8741864Y-62074894D02*
X8923293Y-61832990D01*
X8923293Y-61832990D02*
X9104722Y-62074894D01*
D11*
X20223248Y-90134828D02*
X20261952Y-90018714D01*
X20261952Y-90018714D02*
X20261952Y-89825190D01*
X20261952Y-89825190D02*
X20223248Y-89747781D01*
X20223248Y-89747781D02*
X20184543Y-89709076D01*
X20184543Y-89709076D02*
X20107133Y-89670371D01*
X20107133Y-89670371D02*
X20029724Y-89670371D01*
X20029724Y-89670371D02*
X19952314Y-89709076D01*
X19952314Y-89709076D02*
X19913609Y-89747781D01*
X19913609Y-89747781D02*
X19874905Y-89825190D01*
X19874905Y-89825190D02*
X19836200Y-89980009D01*
X19836200Y-89980009D02*
X19797495Y-90057419D01*
X19797495Y-90057419D02*
X19758790Y-90096124D01*
X19758790Y-90096124D02*
X19681381Y-90134828D01*
X19681381Y-90134828D02*
X19603971Y-90134828D01*
X19603971Y-90134828D02*
X19526562Y-90096124D01*
X19526562Y-90096124D02*
X19487857Y-90057419D01*
X19487857Y-90057419D02*
X19449152Y-89980009D01*
X19449152Y-89980009D02*
X19449152Y-89786486D01*
X19449152Y-89786486D02*
X19487857Y-89670371D01*
X20184543Y-88857572D02*
X20223248Y-88896276D01*
X20223248Y-88896276D02*
X20261952Y-89012391D01*
X20261952Y-89012391D02*
X20261952Y-89089800D01*
X20261952Y-89089800D02*
X20223248Y-89205914D01*
X20223248Y-89205914D02*
X20145838Y-89283324D01*
X20145838Y-89283324D02*
X20068428Y-89322029D01*
X20068428Y-89322029D02*
X19913609Y-89360733D01*
X19913609Y-89360733D02*
X19797495Y-89360733D01*
X19797495Y-89360733D02*
X19642676Y-89322029D01*
X19642676Y-89322029D02*
X19565267Y-89283324D01*
X19565267Y-89283324D02*
X19487857Y-89205914D01*
X19487857Y-89205914D02*
X19449152Y-89089800D01*
X19449152Y-89089800D02*
X19449152Y-89012391D01*
X19449152Y-89012391D02*
X19487857Y-88896276D01*
X19487857Y-88896276D02*
X19526562Y-88857572D01*
X20261952Y-88122181D02*
X20261952Y-88509229D01*
X20261952Y-88509229D02*
X19449152Y-88509229D01*
X22840372Y-90134828D02*
X22879076Y-90018714D01*
X22879076Y-90018714D02*
X22879076Y-89825190D01*
X22879076Y-89825190D02*
X22840372Y-89747781D01*
X22840372Y-89747781D02*
X22801667Y-89709076D01*
X22801667Y-89709076D02*
X22724257Y-89670371D01*
X22724257Y-89670371D02*
X22646848Y-89670371D01*
X22646848Y-89670371D02*
X22569438Y-89709076D01*
X22569438Y-89709076D02*
X22530733Y-89747781D01*
X22530733Y-89747781D02*
X22492029Y-89825190D01*
X22492029Y-89825190D02*
X22453324Y-89980009D01*
X22453324Y-89980009D02*
X22414619Y-90057419D01*
X22414619Y-90057419D02*
X22375914Y-90096124D01*
X22375914Y-90096124D02*
X22298505Y-90134828D01*
X22298505Y-90134828D02*
X22221095Y-90134828D01*
X22221095Y-90134828D02*
X22143686Y-90096124D01*
X22143686Y-90096124D02*
X22104981Y-90057419D01*
X22104981Y-90057419D02*
X22066276Y-89980009D01*
X22066276Y-89980009D02*
X22066276Y-89786486D01*
X22066276Y-89786486D02*
X22104981Y-89670371D01*
X22879076Y-89322029D02*
X22066276Y-89322029D01*
X22066276Y-89322029D02*
X22066276Y-89128505D01*
X22066276Y-89128505D02*
X22104981Y-89012391D01*
X22104981Y-89012391D02*
X22182391Y-88934981D01*
X22182391Y-88934981D02*
X22259800Y-88896276D01*
X22259800Y-88896276D02*
X22414619Y-88857572D01*
X22414619Y-88857572D02*
X22530733Y-88857572D01*
X22530733Y-88857572D02*
X22685552Y-88896276D01*
X22685552Y-88896276D02*
X22762962Y-88934981D01*
X22762962Y-88934981D02*
X22840372Y-89012391D01*
X22840372Y-89012391D02*
X22879076Y-89128505D01*
X22879076Y-89128505D02*
X22879076Y-89322029D01*
X22646848Y-88547933D02*
X22646848Y-88160886D01*
X22879076Y-88625343D02*
X22066276Y-88354410D01*
X22066276Y-88354410D02*
X22879076Y-88083476D01*
X24683400Y-90173533D02*
X24683400Y-89670371D01*
X24683400Y-89670371D02*
X24993038Y-89941305D01*
X24993038Y-89941305D02*
X24993038Y-89825190D01*
X24993038Y-89825190D02*
X25031743Y-89747781D01*
X25031743Y-89747781D02*
X25070448Y-89709076D01*
X25070448Y-89709076D02*
X25147857Y-89670371D01*
X25147857Y-89670371D02*
X25341381Y-89670371D01*
X25341381Y-89670371D02*
X25418791Y-89709076D01*
X25418791Y-89709076D02*
X25457496Y-89747781D01*
X25457496Y-89747781D02*
X25496200Y-89825190D01*
X25496200Y-89825190D02*
X25496200Y-90057419D01*
X25496200Y-90057419D02*
X25457496Y-90134828D01*
X25457496Y-90134828D02*
X25418791Y-90173533D01*
X24683400Y-89438143D02*
X25496200Y-89167210D01*
X25496200Y-89167210D02*
X24683400Y-88896276D01*
X24683400Y-88702752D02*
X24683400Y-88199590D01*
X24683400Y-88199590D02*
X24993038Y-88470524D01*
X24993038Y-88470524D02*
X24993038Y-88354409D01*
X24993038Y-88354409D02*
X25031743Y-88277000D01*
X25031743Y-88277000D02*
X25070448Y-88238295D01*
X25070448Y-88238295D02*
X25147857Y-88199590D01*
X25147857Y-88199590D02*
X25341381Y-88199590D01*
X25341381Y-88199590D02*
X25418791Y-88238295D01*
X25418791Y-88238295D02*
X25457496Y-88277000D01*
X25457496Y-88277000D02*
X25496200Y-88354409D01*
X25496200Y-88354409D02*
X25496200Y-88586638D01*
X25496200Y-88586638D02*
X25457496Y-88664047D01*
X25457496Y-88664047D02*
X25418791Y-88702752D01*
X27339229Y-89670371D02*
X27300524Y-89747781D01*
X27300524Y-89747781D02*
X27300524Y-89863895D01*
X27300524Y-89863895D02*
X27339229Y-89980009D01*
X27339229Y-89980009D02*
X27416639Y-90057419D01*
X27416639Y-90057419D02*
X27494048Y-90096124D01*
X27494048Y-90096124D02*
X27648867Y-90134828D01*
X27648867Y-90134828D02*
X27764981Y-90134828D01*
X27764981Y-90134828D02*
X27919800Y-90096124D01*
X27919800Y-90096124D02*
X27997210Y-90057419D01*
X27997210Y-90057419D02*
X28074620Y-89980009D01*
X28074620Y-89980009D02*
X28113324Y-89863895D01*
X28113324Y-89863895D02*
X28113324Y-89786486D01*
X28113324Y-89786486D02*
X28074620Y-89670371D01*
X28074620Y-89670371D02*
X28035915Y-89631667D01*
X28035915Y-89631667D02*
X27764981Y-89631667D01*
X27764981Y-89631667D02*
X27764981Y-89786486D01*
X28113324Y-89283324D02*
X27300524Y-89283324D01*
X27300524Y-89283324D02*
X28113324Y-88818867D01*
X28113324Y-88818867D02*
X27300524Y-88818867D01*
X28113324Y-88431819D02*
X27300524Y-88431819D01*
X27300524Y-88431819D02*
X27300524Y-88238295D01*
X27300524Y-88238295D02*
X27339229Y-88122181D01*
X27339229Y-88122181D02*
X27416639Y-88044771D01*
X27416639Y-88044771D02*
X27494048Y-88006066D01*
X27494048Y-88006066D02*
X27648867Y-87967362D01*
X27648867Y-87967362D02*
X27764981Y-87967362D01*
X27764981Y-87967362D02*
X27919800Y-88006066D01*
X27919800Y-88006066D02*
X27997210Y-88044771D01*
X27997210Y-88044771D02*
X28074620Y-88122181D01*
X28074620Y-88122181D02*
X28113324Y-88238295D01*
X28113324Y-88238295D02*
X28113324Y-88431819D01*
D13*
X49122263Y-7528679D02*
X49291596Y-7528679D01*
X49291596Y-7528679D02*
X49376263Y-7571012D01*
X49376263Y-7571012D02*
X49460929Y-7655679D01*
X49460929Y-7655679D02*
X49503263Y-7825012D01*
X49503263Y-7825012D02*
X49503263Y-8121346D01*
X49503263Y-8121346D02*
X49460929Y-8290679D01*
X49460929Y-8290679D02*
X49376263Y-8375346D01*
X49376263Y-8375346D02*
X49291596Y-8417679D01*
X49291596Y-8417679D02*
X49122263Y-8417679D01*
X49122263Y-8417679D02*
X49037596Y-8375346D01*
X49037596Y-8375346D02*
X48952929Y-8290679D01*
X48952929Y-8290679D02*
X48910596Y-8121346D01*
X48910596Y-8121346D02*
X48910596Y-7825012D01*
X48910596Y-7825012D02*
X48952929Y-7655679D01*
X48952929Y-7655679D02*
X49037596Y-7571012D01*
X49037596Y-7571012D02*
X49122263Y-7528679D01*
X49884262Y-8417679D02*
X49884262Y-7528679D01*
X49884262Y-7528679D02*
X50222929Y-7528679D01*
X50222929Y-7528679D02*
X50307596Y-7571012D01*
X50307596Y-7571012D02*
X50349929Y-7613346D01*
X50349929Y-7613346D02*
X50392262Y-7698012D01*
X50392262Y-7698012D02*
X50392262Y-7825012D01*
X50392262Y-7825012D02*
X50349929Y-7909679D01*
X50349929Y-7909679D02*
X50307596Y-7952012D01*
X50307596Y-7952012D02*
X50222929Y-7994346D01*
X50222929Y-7994346D02*
X49884262Y-7994346D01*
X50646262Y-7528679D02*
X51154262Y-7528679D01*
X50900262Y-8417679D02*
X50900262Y-7528679D01*
X51450595Y-8417679D02*
X51450595Y-7528679D01*
X52043262Y-7528679D02*
X52212595Y-7528679D01*
X52212595Y-7528679D02*
X52297262Y-7571012D01*
X52297262Y-7571012D02*
X52381928Y-7655679D01*
X52381928Y-7655679D02*
X52424262Y-7825012D01*
X52424262Y-7825012D02*
X52424262Y-8121346D01*
X52424262Y-8121346D02*
X52381928Y-8290679D01*
X52381928Y-8290679D02*
X52297262Y-8375346D01*
X52297262Y-8375346D02*
X52212595Y-8417679D01*
X52212595Y-8417679D02*
X52043262Y-8417679D01*
X52043262Y-8417679D02*
X51958595Y-8375346D01*
X51958595Y-8375346D02*
X51873928Y-8290679D01*
X51873928Y-8290679D02*
X51831595Y-8121346D01*
X51831595Y-8121346D02*
X51831595Y-7825012D01*
X51831595Y-7825012D02*
X51873928Y-7655679D01*
X51873928Y-7655679D02*
X51958595Y-7571012D01*
X51958595Y-7571012D02*
X52043262Y-7528679D01*
X52805261Y-8417679D02*
X52805261Y-7528679D01*
X52805261Y-7528679D02*
X53313261Y-8417679D01*
X53313261Y-8417679D02*
X53313261Y-7528679D01*
X43387434Y-34300279D02*
X43472100Y-34300279D01*
X43472100Y-34300279D02*
X43556767Y-34342612D01*
X43556767Y-34342612D02*
X43599100Y-34384946D01*
X43599100Y-34384946D02*
X43641434Y-34469612D01*
X43641434Y-34469612D02*
X43683767Y-34638946D01*
X43683767Y-34638946D02*
X43683767Y-34850612D01*
X43683767Y-34850612D02*
X43641434Y-35019946D01*
X43641434Y-35019946D02*
X43599100Y-35104612D01*
X43599100Y-35104612D02*
X43556767Y-35146946D01*
X43556767Y-35146946D02*
X43472100Y-35189279D01*
X43472100Y-35189279D02*
X43387434Y-35189279D01*
X43387434Y-35189279D02*
X43302767Y-35146946D01*
X43302767Y-35146946D02*
X43260434Y-35104612D01*
X43260434Y-35104612D02*
X43218100Y-35019946D01*
X43218100Y-35019946D02*
X43175767Y-34850612D01*
X43175767Y-34850612D02*
X43175767Y-34638946D01*
X43175767Y-34638946D02*
X43218100Y-34469612D01*
X43218100Y-34469612D02*
X43260434Y-34384946D01*
X43260434Y-34384946D02*
X43302767Y-34342612D01*
X43302767Y-34342612D02*
X43387434Y-34300279D01*
X45250100Y-35104612D02*
X45207767Y-35146946D01*
X45207767Y-35146946D02*
X45080767Y-35189279D01*
X45080767Y-35189279D02*
X44996100Y-35189279D01*
X44996100Y-35189279D02*
X44869100Y-35146946D01*
X44869100Y-35146946D02*
X44784434Y-35062279D01*
X44784434Y-35062279D02*
X44742100Y-34977612D01*
X44742100Y-34977612D02*
X44699767Y-34808279D01*
X44699767Y-34808279D02*
X44699767Y-34681279D01*
X44699767Y-34681279D02*
X44742100Y-34511946D01*
X44742100Y-34511946D02*
X44784434Y-34427279D01*
X44784434Y-34427279D02*
X44869100Y-34342612D01*
X44869100Y-34342612D02*
X44996100Y-34300279D01*
X44996100Y-34300279D02*
X45080767Y-34300279D01*
X45080767Y-34300279D02*
X45207767Y-34342612D01*
X45207767Y-34342612D02*
X45250100Y-34384946D01*
X45800434Y-34300279D02*
X45969767Y-34300279D01*
X45969767Y-34300279D02*
X46054434Y-34342612D01*
X46054434Y-34342612D02*
X46139100Y-34427279D01*
X46139100Y-34427279D02*
X46181434Y-34596612D01*
X46181434Y-34596612D02*
X46181434Y-34892946D01*
X46181434Y-34892946D02*
X46139100Y-35062279D01*
X46139100Y-35062279D02*
X46054434Y-35146946D01*
X46054434Y-35146946D02*
X45969767Y-35189279D01*
X45969767Y-35189279D02*
X45800434Y-35189279D01*
X45800434Y-35189279D02*
X45715767Y-35146946D01*
X45715767Y-35146946D02*
X45631100Y-35062279D01*
X45631100Y-35062279D02*
X45588767Y-34892946D01*
X45588767Y-34892946D02*
X45588767Y-34596612D01*
X45588767Y-34596612D02*
X45631100Y-34427279D01*
X45631100Y-34427279D02*
X45715767Y-34342612D01*
X45715767Y-34342612D02*
X45800434Y-34300279D01*
X46562433Y-35189279D02*
X46562433Y-34300279D01*
X46562433Y-34300279D02*
X46858767Y-34935279D01*
X46858767Y-34935279D02*
X47155100Y-34300279D01*
X47155100Y-34300279D02*
X47155100Y-35189279D01*
X48721433Y-35189279D02*
X48213433Y-35189279D01*
X48467433Y-35189279D02*
X48467433Y-34300279D01*
X48467433Y-34300279D02*
X48382766Y-34427279D01*
X48382766Y-34427279D02*
X48298100Y-34511946D01*
X48298100Y-34511946D02*
X48213433Y-34554279D01*
D12*
X8923293Y-80275809D02*
X8923293Y-80578190D01*
X8620912Y-80457237D02*
X8923293Y-80578190D01*
X8923293Y-80578190D02*
X9225674Y-80457237D01*
X8741864Y-80820094D02*
X8923293Y-80578190D01*
X8923293Y-80578190D02*
X9104722Y-80820094D01*
D15*
X10964942Y-51585019D02*
X10631609Y-51108828D01*
X10393514Y-51585019D02*
X10393514Y-50585019D01*
X10393514Y-50585019D02*
X10774466Y-50585019D01*
X10774466Y-50585019D02*
X10869704Y-50632638D01*
X10869704Y-50632638D02*
X10917323Y-50680257D01*
X10917323Y-50680257D02*
X10964942Y-50775495D01*
X10964942Y-50775495D02*
X10964942Y-50918352D01*
X10964942Y-50918352D02*
X10917323Y-51013590D01*
X10917323Y-51013590D02*
X10869704Y-51061209D01*
X10869704Y-51061209D02*
X10774466Y-51108828D01*
X10774466Y-51108828D02*
X10393514Y-51108828D01*
X11917323Y-51585019D02*
X11345895Y-51585019D01*
X11631609Y-51585019D02*
X11631609Y-50585019D01*
X11631609Y-50585019D02*
X11536371Y-50727876D01*
X11536371Y-50727876D02*
X11441133Y-50823114D01*
X11441133Y-50823114D02*
X11345895Y-50870733D01*
X12822085Y-50585019D02*
X12345895Y-50585019D01*
X12345895Y-50585019D02*
X12298276Y-51061209D01*
X12298276Y-51061209D02*
X12345895Y-51013590D01*
X12345895Y-51013590D02*
X12441133Y-50965971D01*
X12441133Y-50965971D02*
X12679228Y-50965971D01*
X12679228Y-50965971D02*
X12774466Y-51013590D01*
X12774466Y-51013590D02*
X12822085Y-51061209D01*
X12822085Y-51061209D02*
X12869704Y-51156447D01*
X12869704Y-51156447D02*
X12869704Y-51394542D01*
X12869704Y-51394542D02*
X12822085Y-51489780D01*
X12822085Y-51489780D02*
X12774466Y-51537400D01*
X12774466Y-51537400D02*
X12679228Y-51585019D01*
X12679228Y-51585019D02*
X12441133Y-51585019D01*
X12441133Y-51585019D02*
X12345895Y-51537400D01*
X12345895Y-51537400D02*
X12298276Y-51489780D01*
X17727705Y-32839949D02*
X17727705Y-31839949D01*
X17727705Y-31839949D02*
X17965800Y-31839949D01*
X17965800Y-31839949D02*
X18108657Y-31887568D01*
X18108657Y-31887568D02*
X18203895Y-31982806D01*
X18203895Y-31982806D02*
X18251514Y-32078044D01*
X18251514Y-32078044D02*
X18299133Y-32268520D01*
X18299133Y-32268520D02*
X18299133Y-32411377D01*
X18299133Y-32411377D02*
X18251514Y-32601853D01*
X18251514Y-32601853D02*
X18203895Y-32697091D01*
X18203895Y-32697091D02*
X18108657Y-32792330D01*
X18108657Y-32792330D02*
X17965800Y-32839949D01*
X17965800Y-32839949D02*
X17727705Y-32839949D01*
X18632467Y-31839949D02*
X19251514Y-31839949D01*
X19251514Y-31839949D02*
X18918181Y-32220901D01*
X18918181Y-32220901D02*
X19061038Y-32220901D01*
X19061038Y-32220901D02*
X19156276Y-32268520D01*
X19156276Y-32268520D02*
X19203895Y-32316139D01*
X19203895Y-32316139D02*
X19251514Y-32411377D01*
X19251514Y-32411377D02*
X19251514Y-32649472D01*
X19251514Y-32649472D02*
X19203895Y-32744710D01*
X19203895Y-32744710D02*
X19156276Y-32792330D01*
X19156276Y-32792330D02*
X19061038Y-32839949D01*
X19061038Y-32839949D02*
X18775324Y-32839949D01*
X18775324Y-32839949D02*
X18680086Y-32792330D01*
X18680086Y-32792330D02*
X18632467Y-32744710D01*
X51535105Y-19543219D02*
X51535105Y-18543219D01*
X51535105Y-18543219D02*
X51773200Y-18543219D01*
X51773200Y-18543219D02*
X51916057Y-18590838D01*
X51916057Y-18590838D02*
X52011295Y-18686076D01*
X52011295Y-18686076D02*
X52058914Y-18781314D01*
X52058914Y-18781314D02*
X52106533Y-18971790D01*
X52106533Y-18971790D02*
X52106533Y-19114647D01*
X52106533Y-19114647D02*
X52058914Y-19305123D01*
X52058914Y-19305123D02*
X52011295Y-19400361D01*
X52011295Y-19400361D02*
X51916057Y-19495600D01*
X51916057Y-19495600D02*
X51773200Y-19543219D01*
X51773200Y-19543219D02*
X51535105Y-19543219D01*
X52582724Y-19543219D02*
X52773200Y-19543219D01*
X52773200Y-19543219D02*
X52868438Y-19495600D01*
X52868438Y-19495600D02*
X52916057Y-19447980D01*
X52916057Y-19447980D02*
X53011295Y-19305123D01*
X53011295Y-19305123D02*
X53058914Y-19114647D01*
X53058914Y-19114647D02*
X53058914Y-18733695D01*
X53058914Y-18733695D02*
X53011295Y-18638457D01*
X53011295Y-18638457D02*
X52963676Y-18590838D01*
X52963676Y-18590838D02*
X52868438Y-18543219D01*
X52868438Y-18543219D02*
X52677962Y-18543219D01*
X52677962Y-18543219D02*
X52582724Y-18590838D01*
X52582724Y-18590838D02*
X52535105Y-18638457D01*
X52535105Y-18638457D02*
X52487486Y-18733695D01*
X52487486Y-18733695D02*
X52487486Y-18971790D01*
X52487486Y-18971790D02*
X52535105Y-19067028D01*
X52535105Y-19067028D02*
X52582724Y-19114647D01*
X52582724Y-19114647D02*
X52677962Y-19162266D01*
X52677962Y-19162266D02*
X52868438Y-19162266D01*
X52868438Y-19162266D02*
X52963676Y-19114647D01*
X52963676Y-19114647D02*
X53011295Y-19067028D01*
X53011295Y-19067028D02*
X53058914Y-18971790D01*
D11*
X49591001Y-19943233D02*
X49548668Y-20070233D01*
X49548668Y-20070233D02*
X49506334Y-20112566D01*
X49506334Y-20112566D02*
X49421668Y-20154899D01*
X49421668Y-20154899D02*
X49294668Y-20154899D01*
X49294668Y-20154899D02*
X49210001Y-20112566D01*
X49210001Y-20112566D02*
X49167668Y-20070233D01*
X49167668Y-20070233D02*
X49125334Y-19985566D01*
X49125334Y-19985566D02*
X49125334Y-19646899D01*
X49125334Y-19646899D02*
X50014334Y-19646899D01*
X50014334Y-19646899D02*
X50014334Y-19943233D01*
X50014334Y-19943233D02*
X49972001Y-20027899D01*
X49972001Y-20027899D02*
X49929668Y-20070233D01*
X49929668Y-20070233D02*
X49845001Y-20112566D01*
X49845001Y-20112566D02*
X49760334Y-20112566D01*
X49760334Y-20112566D02*
X49675668Y-20070233D01*
X49675668Y-20070233D02*
X49633334Y-20027899D01*
X49633334Y-20027899D02*
X49591001Y-19943233D01*
X49591001Y-19943233D02*
X49591001Y-19646899D01*
X49379334Y-20493566D02*
X49379334Y-20916899D01*
X49125334Y-20408899D02*
X50014334Y-20705233D01*
X50014334Y-20705233D02*
X49125334Y-21001566D01*
X50014334Y-21170899D02*
X49125334Y-21467233D01*
X49125334Y-21467233D02*
X50014334Y-21763566D01*
X49125334Y-22102233D02*
X49125334Y-22271566D01*
X49125334Y-22271566D02*
X49167668Y-22356233D01*
X49167668Y-22356233D02*
X49210001Y-22398566D01*
X49210001Y-22398566D02*
X49337001Y-22483233D01*
X49337001Y-22483233D02*
X49506334Y-22525566D01*
X49506334Y-22525566D02*
X49845001Y-22525566D01*
X49845001Y-22525566D02*
X49929668Y-22483233D01*
X49929668Y-22483233D02*
X49972001Y-22440899D01*
X49972001Y-22440899D02*
X50014334Y-22356233D01*
X50014334Y-22356233D02*
X50014334Y-22186899D01*
X50014334Y-22186899D02*
X49972001Y-22102233D01*
X49972001Y-22102233D02*
X49929668Y-22059899D01*
X49929668Y-22059899D02*
X49845001Y-22017566D01*
X49845001Y-22017566D02*
X49633334Y-22017566D01*
X49633334Y-22017566D02*
X49548668Y-22059899D01*
X49548668Y-22059899D02*
X49506334Y-22102233D01*
X49506334Y-22102233D02*
X49464001Y-22186899D01*
X49464001Y-22186899D02*
X49464001Y-22356233D01*
X49464001Y-22356233D02*
X49506334Y-22440899D01*
X49506334Y-22440899D02*
X49548668Y-22483233D01*
X49548668Y-22483233D02*
X49633334Y-22525566D01*
X49125334Y-22948900D02*
X49125334Y-23118233D01*
X49125334Y-23118233D02*
X49167668Y-23202900D01*
X49167668Y-23202900D02*
X49210001Y-23245233D01*
X49210001Y-23245233D02*
X49337001Y-23329900D01*
X49337001Y-23329900D02*
X49506334Y-23372233D01*
X49506334Y-23372233D02*
X49845001Y-23372233D01*
X49845001Y-23372233D02*
X49929668Y-23329900D01*
X49929668Y-23329900D02*
X49972001Y-23287566D01*
X49972001Y-23287566D02*
X50014334Y-23202900D01*
X50014334Y-23202900D02*
X50014334Y-23033566D01*
X50014334Y-23033566D02*
X49972001Y-22948900D01*
X49972001Y-22948900D02*
X49929668Y-22906566D01*
X49929668Y-22906566D02*
X49845001Y-22864233D01*
X49845001Y-22864233D02*
X49633334Y-22864233D01*
X49633334Y-22864233D02*
X49548668Y-22906566D01*
X49548668Y-22906566D02*
X49506334Y-22948900D01*
X49506334Y-22948900D02*
X49464001Y-23033566D01*
X49464001Y-23033566D02*
X49464001Y-23202900D01*
X49464001Y-23202900D02*
X49506334Y-23287566D01*
X49506334Y-23287566D02*
X49548668Y-23329900D01*
X49548668Y-23329900D02*
X49633334Y-23372233D01*
D15*
X22667933Y-74578380D02*
X22620314Y-74626000D01*
X22620314Y-74626000D02*
X22477457Y-74673619D01*
X22477457Y-74673619D02*
X22382219Y-74673619D01*
X22382219Y-74673619D02*
X22239362Y-74626000D01*
X22239362Y-74626000D02*
X22144124Y-74530761D01*
X22144124Y-74530761D02*
X22096505Y-74435523D01*
X22096505Y-74435523D02*
X22048886Y-74245047D01*
X22048886Y-74245047D02*
X22048886Y-74102190D01*
X22048886Y-74102190D02*
X22096505Y-73911714D01*
X22096505Y-73911714D02*
X22144124Y-73816476D01*
X22144124Y-73816476D02*
X22239362Y-73721238D01*
X22239362Y-73721238D02*
X22382219Y-73673619D01*
X22382219Y-73673619D02*
X22477457Y-73673619D01*
X22477457Y-73673619D02*
X22620314Y-73721238D01*
X22620314Y-73721238D02*
X22667933Y-73768857D01*
X23144124Y-74673619D02*
X23334600Y-74673619D01*
X23334600Y-74673619D02*
X23429838Y-74626000D01*
X23429838Y-74626000D02*
X23477457Y-74578380D01*
X23477457Y-74578380D02*
X23572695Y-74435523D01*
X23572695Y-74435523D02*
X23620314Y-74245047D01*
X23620314Y-74245047D02*
X23620314Y-73864095D01*
X23620314Y-73864095D02*
X23572695Y-73768857D01*
X23572695Y-73768857D02*
X23525076Y-73721238D01*
X23525076Y-73721238D02*
X23429838Y-73673619D01*
X23429838Y-73673619D02*
X23239362Y-73673619D01*
X23239362Y-73673619D02*
X23144124Y-73721238D01*
X23144124Y-73721238D02*
X23096505Y-73768857D01*
X23096505Y-73768857D02*
X23048886Y-73864095D01*
X23048886Y-73864095D02*
X23048886Y-74102190D01*
X23048886Y-74102190D02*
X23096505Y-74197428D01*
X23096505Y-74197428D02*
X23144124Y-74245047D01*
X23144124Y-74245047D02*
X23239362Y-74292666D01*
X23239362Y-74292666D02*
X23429838Y-74292666D01*
X23429838Y-74292666D02*
X23525076Y-74245047D01*
X23525076Y-74245047D02*
X23572695Y-74197428D01*
X23572695Y-74197428D02*
X23620314Y-74102190D01*
D11*
X21865166Y-72032665D02*
X21357166Y-72032665D01*
X21611166Y-72032665D02*
X21611166Y-71143665D01*
X21611166Y-71143665D02*
X21526499Y-71270665D01*
X21526499Y-71270665D02*
X21441833Y-71355332D01*
X21441833Y-71355332D02*
X21357166Y-71397665D01*
X22415500Y-71143665D02*
X22500166Y-71143665D01*
X22500166Y-71143665D02*
X22584833Y-71185998D01*
X22584833Y-71185998D02*
X22627166Y-71228332D01*
X22627166Y-71228332D02*
X22669500Y-71312998D01*
X22669500Y-71312998D02*
X22711833Y-71482332D01*
X22711833Y-71482332D02*
X22711833Y-71693998D01*
X22711833Y-71693998D02*
X22669500Y-71863332D01*
X22669500Y-71863332D02*
X22627166Y-71947998D01*
X22627166Y-71947998D02*
X22584833Y-71990332D01*
X22584833Y-71990332D02*
X22500166Y-72032665D01*
X22500166Y-72032665D02*
X22415500Y-72032665D01*
X22415500Y-72032665D02*
X22330833Y-71990332D01*
X22330833Y-71990332D02*
X22288500Y-71947998D01*
X22288500Y-71947998D02*
X22246166Y-71863332D01*
X22246166Y-71863332D02*
X22203833Y-71693998D01*
X22203833Y-71693998D02*
X22203833Y-71482332D01*
X22203833Y-71482332D02*
X22246166Y-71312998D01*
X22246166Y-71312998D02*
X22288500Y-71228332D01*
X22288500Y-71228332D02*
X22330833Y-71185998D01*
X22330833Y-71185998D02*
X22415500Y-71143665D01*
X23262167Y-71143665D02*
X23346833Y-71143665D01*
X23346833Y-71143665D02*
X23431500Y-71185998D01*
X23431500Y-71185998D02*
X23473833Y-71228332D01*
X23473833Y-71228332D02*
X23516167Y-71312998D01*
X23516167Y-71312998D02*
X23558500Y-71482332D01*
X23558500Y-71482332D02*
X23558500Y-71693998D01*
X23558500Y-71693998D02*
X23516167Y-71863332D01*
X23516167Y-71863332D02*
X23473833Y-71947998D01*
X23473833Y-71947998D02*
X23431500Y-71990332D01*
X23431500Y-71990332D02*
X23346833Y-72032665D01*
X23346833Y-72032665D02*
X23262167Y-72032665D01*
X23262167Y-72032665D02*
X23177500Y-71990332D01*
X23177500Y-71990332D02*
X23135167Y-71947998D01*
X23135167Y-71947998D02*
X23092833Y-71863332D01*
X23092833Y-71863332D02*
X23050500Y-71693998D01*
X23050500Y-71693998D02*
X23050500Y-71482332D01*
X23050500Y-71482332D02*
X23092833Y-71312998D01*
X23092833Y-71312998D02*
X23135167Y-71228332D01*
X23135167Y-71228332D02*
X23177500Y-71185998D01*
X23177500Y-71185998D02*
X23262167Y-71143665D01*
X23939500Y-71439998D02*
X23939500Y-72032665D01*
X23939500Y-71524665D02*
X23981834Y-71482332D01*
X23981834Y-71482332D02*
X24066500Y-71439998D01*
X24066500Y-71439998D02*
X24193500Y-71439998D01*
X24193500Y-71439998D02*
X24278167Y-71482332D01*
X24278167Y-71482332D02*
X24320500Y-71566998D01*
X24320500Y-71566998D02*
X24320500Y-72032665D01*
X28579233Y-74344065D02*
X28579233Y-73455065D01*
X28579233Y-73455065D02*
X28917900Y-73455065D01*
X28917900Y-73455065D02*
X29002567Y-73497398D01*
X29002567Y-73497398D02*
X29044900Y-73539732D01*
X29044900Y-73539732D02*
X29087233Y-73624398D01*
X29087233Y-73624398D02*
X29087233Y-73751398D01*
X29087233Y-73751398D02*
X29044900Y-73836065D01*
X29044900Y-73836065D02*
X29002567Y-73878398D01*
X29002567Y-73878398D02*
X28917900Y-73920732D01*
X28917900Y-73920732D02*
X28579233Y-73920732D01*
X29383567Y-73455065D02*
X29976233Y-73455065D01*
X29976233Y-73455065D02*
X29595233Y-74344065D01*
X28553833Y-9437997D02*
X28553833Y-8548997D01*
X28553833Y-8548997D02*
X28892500Y-8548997D01*
X28892500Y-8548997D02*
X28977167Y-8591330D01*
X28977167Y-8591330D02*
X29019500Y-8633664D01*
X29019500Y-8633664D02*
X29061833Y-8718330D01*
X29061833Y-8718330D02*
X29061833Y-8845330D01*
X29061833Y-8845330D02*
X29019500Y-8929997D01*
X29019500Y-8929997D02*
X28977167Y-8972330D01*
X28977167Y-8972330D02*
X28892500Y-9014664D01*
X28892500Y-9014664D02*
X28553833Y-9014664D01*
X29612167Y-8548997D02*
X29696833Y-8548997D01*
X29696833Y-8548997D02*
X29781500Y-8591330D01*
X29781500Y-8591330D02*
X29823833Y-8633664D01*
X29823833Y-8633664D02*
X29866167Y-8718330D01*
X29866167Y-8718330D02*
X29908500Y-8887664D01*
X29908500Y-8887664D02*
X29908500Y-9099330D01*
X29908500Y-9099330D02*
X29866167Y-9268664D01*
X29866167Y-9268664D02*
X29823833Y-9353330D01*
X29823833Y-9353330D02*
X29781500Y-9395664D01*
X29781500Y-9395664D02*
X29696833Y-9437997D01*
X29696833Y-9437997D02*
X29612167Y-9437997D01*
X29612167Y-9437997D02*
X29527500Y-9395664D01*
X29527500Y-9395664D02*
X29485167Y-9353330D01*
X29485167Y-9353330D02*
X29442833Y-9268664D01*
X29442833Y-9268664D02*
X29400500Y-9099330D01*
X29400500Y-9099330D02*
X29400500Y-8887664D01*
X29400500Y-8887664D02*
X29442833Y-8718330D01*
X29442833Y-8718330D02*
X29485167Y-8633664D01*
X29485167Y-8633664D02*
X29527500Y-8591330D01*
X29527500Y-8591330D02*
X29612167Y-8548997D01*
D15*
X22344142Y-81715780D02*
X22296523Y-81763400D01*
X22296523Y-81763400D02*
X22153666Y-81811019D01*
X22153666Y-81811019D02*
X22058428Y-81811019D01*
X22058428Y-81811019D02*
X21915571Y-81763400D01*
X21915571Y-81763400D02*
X21820333Y-81668161D01*
X21820333Y-81668161D02*
X21772714Y-81572923D01*
X21772714Y-81572923D02*
X21725095Y-81382447D01*
X21725095Y-81382447D02*
X21725095Y-81239590D01*
X21725095Y-81239590D02*
X21772714Y-81049114D01*
X21772714Y-81049114D02*
X21820333Y-80953876D01*
X21820333Y-80953876D02*
X21915571Y-80858638D01*
X21915571Y-80858638D02*
X22058428Y-80811019D01*
X22058428Y-80811019D02*
X22153666Y-80811019D01*
X22153666Y-80811019D02*
X22296523Y-80858638D01*
X22296523Y-80858638D02*
X22344142Y-80906257D01*
X23296523Y-81811019D02*
X22725095Y-81811019D01*
X23010809Y-81811019D02*
X23010809Y-80811019D01*
X23010809Y-80811019D02*
X22915571Y-80953876D01*
X22915571Y-80953876D02*
X22820333Y-81049114D01*
X22820333Y-81049114D02*
X22725095Y-81096733D01*
X23915571Y-80811019D02*
X24010809Y-80811019D01*
X24010809Y-80811019D02*
X24106047Y-80858638D01*
X24106047Y-80858638D02*
X24153666Y-80906257D01*
X24153666Y-80906257D02*
X24201285Y-81001495D01*
X24201285Y-81001495D02*
X24248904Y-81191971D01*
X24248904Y-81191971D02*
X24248904Y-81430066D01*
X24248904Y-81430066D02*
X24201285Y-81620542D01*
X24201285Y-81620542D02*
X24153666Y-81715780D01*
X24153666Y-81715780D02*
X24106047Y-81763400D01*
X24106047Y-81763400D02*
X24010809Y-81811019D01*
X24010809Y-81811019D02*
X23915571Y-81811019D01*
X23915571Y-81811019D02*
X23820333Y-81763400D01*
X23820333Y-81763400D02*
X23772714Y-81715780D01*
X23772714Y-81715780D02*
X23725095Y-81620542D01*
X23725095Y-81620542D02*
X23677476Y-81430066D01*
X23677476Y-81430066D02*
X23677476Y-81191971D01*
X23677476Y-81191971D02*
X23725095Y-81001495D01*
X23725095Y-81001495D02*
X23772714Y-80906257D01*
X23772714Y-80906257D02*
X23820333Y-80858638D01*
X23820333Y-80858638D02*
X23915571Y-80811019D01*
D11*
X24726900Y-83996065D02*
X24218900Y-83996065D01*
X24472900Y-83996065D02*
X24472900Y-83107065D01*
X24472900Y-83107065D02*
X24388233Y-83234065D01*
X24388233Y-83234065D02*
X24303567Y-83318732D01*
X24303567Y-83318732D02*
X24218900Y-83361065D01*
X25277234Y-83107065D02*
X25361900Y-83107065D01*
X25361900Y-83107065D02*
X25446567Y-83149398D01*
X25446567Y-83149398D02*
X25488900Y-83191732D01*
X25488900Y-83191732D02*
X25531234Y-83276398D01*
X25531234Y-83276398D02*
X25573567Y-83445732D01*
X25573567Y-83445732D02*
X25573567Y-83657398D01*
X25573567Y-83657398D02*
X25531234Y-83826732D01*
X25531234Y-83826732D02*
X25488900Y-83911398D01*
X25488900Y-83911398D02*
X25446567Y-83953732D01*
X25446567Y-83953732D02*
X25361900Y-83996065D01*
X25361900Y-83996065D02*
X25277234Y-83996065D01*
X25277234Y-83996065D02*
X25192567Y-83953732D01*
X25192567Y-83953732D02*
X25150234Y-83911398D01*
X25150234Y-83911398D02*
X25107900Y-83826732D01*
X25107900Y-83826732D02*
X25065567Y-83657398D01*
X25065567Y-83657398D02*
X25065567Y-83445732D01*
X25065567Y-83445732D02*
X25107900Y-83276398D01*
X25107900Y-83276398D02*
X25150234Y-83191732D01*
X25150234Y-83191732D02*
X25192567Y-83149398D01*
X25192567Y-83149398D02*
X25277234Y-83107065D01*
X26335567Y-83403398D02*
X26335567Y-83996065D01*
X25954567Y-83403398D02*
X25954567Y-83869065D01*
X25954567Y-83869065D02*
X25996901Y-83953732D01*
X25996901Y-83953732D02*
X26081567Y-83996065D01*
X26081567Y-83996065D02*
X26208567Y-83996065D01*
X26208567Y-83996065D02*
X26293234Y-83953732D01*
X26293234Y-83953732D02*
X26335567Y-83911398D01*
X50393600Y-38022065D02*
X50816933Y-38022065D01*
X50308933Y-38276065D02*
X50605267Y-37387065D01*
X50605267Y-37387065D02*
X50901600Y-38276065D01*
X51367267Y-37387065D02*
X51451933Y-37387065D01*
X51451933Y-37387065D02*
X51536600Y-37429398D01*
X51536600Y-37429398D02*
X51578933Y-37471732D01*
X51578933Y-37471732D02*
X51621267Y-37556398D01*
X51621267Y-37556398D02*
X51663600Y-37725732D01*
X51663600Y-37725732D02*
X51663600Y-37937398D01*
X51663600Y-37937398D02*
X51621267Y-38106732D01*
X51621267Y-38106732D02*
X51578933Y-38191398D01*
X51578933Y-38191398D02*
X51536600Y-38233732D01*
X51536600Y-38233732D02*
X51451933Y-38276065D01*
X51451933Y-38276065D02*
X51367267Y-38276065D01*
X51367267Y-38276065D02*
X51282600Y-38233732D01*
X51282600Y-38233732D02*
X51240267Y-38191398D01*
X51240267Y-38191398D02*
X51197933Y-38106732D01*
X51197933Y-38106732D02*
X51155600Y-37937398D01*
X51155600Y-37937398D02*
X51155600Y-37725732D01*
X51155600Y-37725732D02*
X51197933Y-37556398D01*
X51197933Y-37556398D02*
X51240267Y-37471732D01*
X51240267Y-37471732D02*
X51282600Y-37429398D01*
X51282600Y-37429398D02*
X51367267Y-37387065D01*
D15*
X53719743Y-34957609D02*
X54053076Y-34957609D01*
X54195933Y-35481419D02*
X53719743Y-35481419D01*
X53719743Y-35481419D02*
X53719743Y-34481419D01*
X53719743Y-34481419D02*
X54195933Y-34481419D01*
X54529267Y-34481419D02*
X55195933Y-35481419D01*
X55195933Y-34481419D02*
X54529267Y-35481419D01*
X55576886Y-35481419D02*
X55576886Y-34481419D01*
X55576886Y-34481419D02*
X55957838Y-34481419D01*
X55957838Y-34481419D02*
X56053076Y-34529038D01*
X56053076Y-34529038D02*
X56100695Y-34576657D01*
X56100695Y-34576657D02*
X56148314Y-34671895D01*
X56148314Y-34671895D02*
X56148314Y-34814752D01*
X56148314Y-34814752D02*
X56100695Y-34909990D01*
X56100695Y-34909990D02*
X56053076Y-34957609D01*
X56053076Y-34957609D02*
X55957838Y-35005228D01*
X55957838Y-35005228D02*
X55576886Y-35005228D01*
X56529267Y-35195704D02*
X57005457Y-35195704D01*
X56434029Y-35481419D02*
X56767362Y-34481419D01*
X56767362Y-34481419D02*
X57100695Y-35481419D01*
X57434029Y-35481419D02*
X57434029Y-34481419D01*
X57434029Y-34481419D02*
X58005457Y-35481419D01*
X58005457Y-35481419D02*
X58005457Y-34481419D01*
X58481648Y-35481419D02*
X58481648Y-34481419D01*
X58481648Y-34481419D02*
X58719743Y-34481419D01*
X58719743Y-34481419D02*
X58862600Y-34529038D01*
X58862600Y-34529038D02*
X58957838Y-34624276D01*
X58957838Y-34624276D02*
X59005457Y-34719514D01*
X59005457Y-34719514D02*
X59053076Y-34909990D01*
X59053076Y-34909990D02*
X59053076Y-35052847D01*
X59053076Y-35052847D02*
X59005457Y-35243323D01*
X59005457Y-35243323D02*
X58957838Y-35338561D01*
X58957838Y-35338561D02*
X58862600Y-35433800D01*
X58862600Y-35433800D02*
X58719743Y-35481419D01*
X58719743Y-35481419D02*
X58481648Y-35481419D01*
X10990342Y-23518019D02*
X10657009Y-23041828D01*
X10418914Y-23518019D02*
X10418914Y-22518019D01*
X10418914Y-22518019D02*
X10799866Y-22518019D01*
X10799866Y-22518019D02*
X10895104Y-22565638D01*
X10895104Y-22565638D02*
X10942723Y-22613257D01*
X10942723Y-22613257D02*
X10990342Y-22708495D01*
X10990342Y-22708495D02*
X10990342Y-22851352D01*
X10990342Y-22851352D02*
X10942723Y-22946590D01*
X10942723Y-22946590D02*
X10895104Y-22994209D01*
X10895104Y-22994209D02*
X10799866Y-23041828D01*
X10799866Y-23041828D02*
X10418914Y-23041828D01*
X11942723Y-23518019D02*
X11371295Y-23518019D01*
X11657009Y-23518019D02*
X11657009Y-22518019D01*
X11657009Y-22518019D02*
X11561771Y-22660876D01*
X11561771Y-22660876D02*
X11466533Y-22756114D01*
X11466533Y-22756114D02*
X11371295Y-22803733D01*
X12323676Y-22613257D02*
X12371295Y-22565638D01*
X12371295Y-22565638D02*
X12466533Y-22518019D01*
X12466533Y-22518019D02*
X12704628Y-22518019D01*
X12704628Y-22518019D02*
X12799866Y-22565638D01*
X12799866Y-22565638D02*
X12847485Y-22613257D01*
X12847485Y-22613257D02*
X12895104Y-22708495D01*
X12895104Y-22708495D02*
X12895104Y-22803733D01*
X12895104Y-22803733D02*
X12847485Y-22946590D01*
X12847485Y-22946590D02*
X12276057Y-23518019D01*
X12276057Y-23518019D02*
X12895104Y-23518019D01*
D11*
X28655433Y-18565665D02*
X28655433Y-17676665D01*
X28655433Y-17676665D02*
X28994100Y-17676665D01*
X28994100Y-17676665D02*
X29078767Y-17718998D01*
X29078767Y-17718998D02*
X29121100Y-17761332D01*
X29121100Y-17761332D02*
X29163433Y-17845998D01*
X29163433Y-17845998D02*
X29163433Y-17972998D01*
X29163433Y-17972998D02*
X29121100Y-18057665D01*
X29121100Y-18057665D02*
X29078767Y-18099998D01*
X29078767Y-18099998D02*
X28994100Y-18142332D01*
X28994100Y-18142332D02*
X28655433Y-18142332D01*
X30010100Y-18565665D02*
X29502100Y-18565665D01*
X29756100Y-18565665D02*
X29756100Y-17676665D01*
X29756100Y-17676665D02*
X29671433Y-17803665D01*
X29671433Y-17803665D02*
X29586767Y-17888332D01*
X29586767Y-17888332D02*
X29502100Y-17930665D01*
D15*
X17676905Y-51418079D02*
X17676905Y-50418079D01*
X17676905Y-50418079D02*
X17915000Y-50418079D01*
X17915000Y-50418079D02*
X18057857Y-50465698D01*
X18057857Y-50465698D02*
X18153095Y-50560936D01*
X18153095Y-50560936D02*
X18200714Y-50656174D01*
X18200714Y-50656174D02*
X18248333Y-50846650D01*
X18248333Y-50846650D02*
X18248333Y-50989507D01*
X18248333Y-50989507D02*
X18200714Y-51179983D01*
X18200714Y-51179983D02*
X18153095Y-51275221D01*
X18153095Y-51275221D02*
X18057857Y-51370460D01*
X18057857Y-51370460D02*
X17915000Y-51418079D01*
X17915000Y-51418079D02*
X17676905Y-51418079D01*
X19153095Y-50418079D02*
X18676905Y-50418079D01*
X18676905Y-50418079D02*
X18629286Y-50894269D01*
X18629286Y-50894269D02*
X18676905Y-50846650D01*
X18676905Y-50846650D02*
X18772143Y-50799031D01*
X18772143Y-50799031D02*
X19010238Y-50799031D01*
X19010238Y-50799031D02*
X19105476Y-50846650D01*
X19105476Y-50846650D02*
X19153095Y-50894269D01*
X19153095Y-50894269D02*
X19200714Y-50989507D01*
X19200714Y-50989507D02*
X19200714Y-51227602D01*
X19200714Y-51227602D02*
X19153095Y-51322840D01*
X19153095Y-51322840D02*
X19105476Y-51370460D01*
X19105476Y-51370460D02*
X19010238Y-51418079D01*
X19010238Y-51418079D02*
X18772143Y-51418079D01*
X18772143Y-51418079D02*
X18676905Y-51370460D01*
X18676905Y-51370460D02*
X18629286Y-51322840D01*
D11*
X28655433Y-27862065D02*
X28655433Y-26973065D01*
X28655433Y-26973065D02*
X28994100Y-26973065D01*
X28994100Y-26973065D02*
X29078767Y-27015398D01*
X29078767Y-27015398D02*
X29121100Y-27057732D01*
X29121100Y-27057732D02*
X29163433Y-27142398D01*
X29163433Y-27142398D02*
X29163433Y-27269398D01*
X29163433Y-27269398D02*
X29121100Y-27354065D01*
X29121100Y-27354065D02*
X29078767Y-27396398D01*
X29078767Y-27396398D02*
X28994100Y-27438732D01*
X28994100Y-27438732D02*
X28655433Y-27438732D01*
X29502100Y-27057732D02*
X29544433Y-27015398D01*
X29544433Y-27015398D02*
X29629100Y-26973065D01*
X29629100Y-26973065D02*
X29840767Y-26973065D01*
X29840767Y-26973065D02*
X29925433Y-27015398D01*
X29925433Y-27015398D02*
X29967767Y-27057732D01*
X29967767Y-27057732D02*
X30010100Y-27142398D01*
X30010100Y-27142398D02*
X30010100Y-27227065D01*
X30010100Y-27227065D02*
X29967767Y-27354065D01*
X29967767Y-27354065D02*
X29459767Y-27862065D01*
X29459767Y-27862065D02*
X30010100Y-27862065D01*
D15*
X11466533Y-47089219D02*
X11133200Y-46613028D01*
X10895105Y-47089219D02*
X10895105Y-46089219D01*
X10895105Y-46089219D02*
X11276057Y-46089219D01*
X11276057Y-46089219D02*
X11371295Y-46136838D01*
X11371295Y-46136838D02*
X11418914Y-46184457D01*
X11418914Y-46184457D02*
X11466533Y-46279695D01*
X11466533Y-46279695D02*
X11466533Y-46422552D01*
X11466533Y-46422552D02*
X11418914Y-46517790D01*
X11418914Y-46517790D02*
X11371295Y-46565409D01*
X11371295Y-46565409D02*
X11276057Y-46613028D01*
X11276057Y-46613028D02*
X10895105Y-46613028D01*
X12371295Y-46089219D02*
X11895105Y-46089219D01*
X11895105Y-46089219D02*
X11847486Y-46565409D01*
X11847486Y-46565409D02*
X11895105Y-46517790D01*
X11895105Y-46517790D02*
X11990343Y-46470171D01*
X11990343Y-46470171D02*
X12228438Y-46470171D01*
X12228438Y-46470171D02*
X12323676Y-46517790D01*
X12323676Y-46517790D02*
X12371295Y-46565409D01*
X12371295Y-46565409D02*
X12418914Y-46660647D01*
X12418914Y-46660647D02*
X12418914Y-46898742D01*
X12418914Y-46898742D02*
X12371295Y-46993980D01*
X12371295Y-46993980D02*
X12323676Y-47041600D01*
X12323676Y-47041600D02*
X12228438Y-47089219D01*
X12228438Y-47089219D02*
X11990343Y-47089219D01*
X11990343Y-47089219D02*
X11895105Y-47041600D01*
X11895105Y-47041600D02*
X11847486Y-46993980D01*
X11441133Y-56436419D02*
X11107800Y-55960228D01*
X10869705Y-56436419D02*
X10869705Y-55436419D01*
X10869705Y-55436419D02*
X11250657Y-55436419D01*
X11250657Y-55436419D02*
X11345895Y-55484038D01*
X11345895Y-55484038D02*
X11393514Y-55531657D01*
X11393514Y-55531657D02*
X11441133Y-55626895D01*
X11441133Y-55626895D02*
X11441133Y-55769752D01*
X11441133Y-55769752D02*
X11393514Y-55864990D01*
X11393514Y-55864990D02*
X11345895Y-55912609D01*
X11345895Y-55912609D02*
X11250657Y-55960228D01*
X11250657Y-55960228D02*
X10869705Y-55960228D01*
X12298276Y-55436419D02*
X12107800Y-55436419D01*
X12107800Y-55436419D02*
X12012562Y-55484038D01*
X12012562Y-55484038D02*
X11964943Y-55531657D01*
X11964943Y-55531657D02*
X11869705Y-55674514D01*
X11869705Y-55674514D02*
X11822086Y-55864990D01*
X11822086Y-55864990D02*
X11822086Y-56245942D01*
X11822086Y-56245942D02*
X11869705Y-56341180D01*
X11869705Y-56341180D02*
X11917324Y-56388800D01*
X11917324Y-56388800D02*
X12012562Y-56436419D01*
X12012562Y-56436419D02*
X12203038Y-56436419D01*
X12203038Y-56436419D02*
X12298276Y-56388800D01*
X12298276Y-56388800D02*
X12345895Y-56341180D01*
X12345895Y-56341180D02*
X12393514Y-56245942D01*
X12393514Y-56245942D02*
X12393514Y-56007847D01*
X12393514Y-56007847D02*
X12345895Y-55912609D01*
X12345895Y-55912609D02*
X12298276Y-55864990D01*
X12298276Y-55864990D02*
X12203038Y-55817371D01*
X12203038Y-55817371D02*
X12012562Y-55817371D01*
X12012562Y-55817371D02*
X11917324Y-55864990D01*
X11917324Y-55864990D02*
X11869705Y-55912609D01*
X11869705Y-55912609D02*
X11822086Y-56007847D01*
X10990342Y-42085419D02*
X10657009Y-41609228D01*
X10418914Y-42085419D02*
X10418914Y-41085419D01*
X10418914Y-41085419D02*
X10799866Y-41085419D01*
X10799866Y-41085419D02*
X10895104Y-41133038D01*
X10895104Y-41133038D02*
X10942723Y-41180657D01*
X10942723Y-41180657D02*
X10990342Y-41275895D01*
X10990342Y-41275895D02*
X10990342Y-41418752D01*
X10990342Y-41418752D02*
X10942723Y-41513990D01*
X10942723Y-41513990D02*
X10895104Y-41561609D01*
X10895104Y-41561609D02*
X10799866Y-41609228D01*
X10799866Y-41609228D02*
X10418914Y-41609228D01*
X11942723Y-42085419D02*
X11371295Y-42085419D01*
X11657009Y-42085419D02*
X11657009Y-41085419D01*
X11657009Y-41085419D02*
X11561771Y-41228276D01*
X11561771Y-41228276D02*
X11466533Y-41323514D01*
X11466533Y-41323514D02*
X11371295Y-41371133D01*
X12799866Y-41418752D02*
X12799866Y-42085419D01*
X12561771Y-41037800D02*
X12323676Y-41752085D01*
X12323676Y-41752085D02*
X12942723Y-41752085D01*
X22591733Y-37595980D02*
X22544114Y-37643600D01*
X22544114Y-37643600D02*
X22401257Y-37691219D01*
X22401257Y-37691219D02*
X22306019Y-37691219D01*
X22306019Y-37691219D02*
X22163162Y-37643600D01*
X22163162Y-37643600D02*
X22067924Y-37548361D01*
X22067924Y-37548361D02*
X22020305Y-37453123D01*
X22020305Y-37453123D02*
X21972686Y-37262647D01*
X21972686Y-37262647D02*
X21972686Y-37119790D01*
X21972686Y-37119790D02*
X22020305Y-36929314D01*
X22020305Y-36929314D02*
X22067924Y-36834076D01*
X22067924Y-36834076D02*
X22163162Y-36738838D01*
X22163162Y-36738838D02*
X22306019Y-36691219D01*
X22306019Y-36691219D02*
X22401257Y-36691219D01*
X22401257Y-36691219D02*
X22544114Y-36738838D01*
X22544114Y-36738838D02*
X22591733Y-36786457D01*
X23496495Y-36691219D02*
X23020305Y-36691219D01*
X23020305Y-36691219D02*
X22972686Y-37167409D01*
X22972686Y-37167409D02*
X23020305Y-37119790D01*
X23020305Y-37119790D02*
X23115543Y-37072171D01*
X23115543Y-37072171D02*
X23353638Y-37072171D01*
X23353638Y-37072171D02*
X23448876Y-37119790D01*
X23448876Y-37119790D02*
X23496495Y-37167409D01*
X23496495Y-37167409D02*
X23544114Y-37262647D01*
X23544114Y-37262647D02*
X23544114Y-37500742D01*
X23544114Y-37500742D02*
X23496495Y-37595980D01*
X23496495Y-37595980D02*
X23448876Y-37643600D01*
X23448876Y-37643600D02*
X23353638Y-37691219D01*
X23353638Y-37691219D02*
X23115543Y-37691219D01*
X23115543Y-37691219D02*
X23020305Y-37643600D01*
X23020305Y-37643600D02*
X22972686Y-37595980D01*
X17603005Y-23668534D02*
X17603005Y-22668534D01*
X17603005Y-22668534D02*
X17841100Y-22668534D01*
X17841100Y-22668534D02*
X17983957Y-22716153D01*
X17983957Y-22716153D02*
X18079195Y-22811391D01*
X18079195Y-22811391D02*
X18126814Y-22906629D01*
X18126814Y-22906629D02*
X18174433Y-23097105D01*
X18174433Y-23097105D02*
X18174433Y-23239962D01*
X18174433Y-23239962D02*
X18126814Y-23430438D01*
X18126814Y-23430438D02*
X18079195Y-23525676D01*
X18079195Y-23525676D02*
X17983957Y-23620915D01*
X17983957Y-23620915D02*
X17841100Y-23668534D01*
X17841100Y-23668534D02*
X17603005Y-23668534D01*
X18555386Y-22763772D02*
X18603005Y-22716153D01*
X18603005Y-22716153D02*
X18698243Y-22668534D01*
X18698243Y-22668534D02*
X18936338Y-22668534D01*
X18936338Y-22668534D02*
X19031576Y-22716153D01*
X19031576Y-22716153D02*
X19079195Y-22763772D01*
X19079195Y-22763772D02*
X19126814Y-22859010D01*
X19126814Y-22859010D02*
X19126814Y-22954248D01*
X19126814Y-22954248D02*
X19079195Y-23097105D01*
X19079195Y-23097105D02*
X18507767Y-23668534D01*
X18507767Y-23668534D02*
X19126814Y-23668534D01*
X48988742Y-51718380D02*
X48941123Y-51766000D01*
X48941123Y-51766000D02*
X48798266Y-51813619D01*
X48798266Y-51813619D02*
X48703028Y-51813619D01*
X48703028Y-51813619D02*
X48560171Y-51766000D01*
X48560171Y-51766000D02*
X48464933Y-51670761D01*
X48464933Y-51670761D02*
X48417314Y-51575523D01*
X48417314Y-51575523D02*
X48369695Y-51385047D01*
X48369695Y-51385047D02*
X48369695Y-51242190D01*
X48369695Y-51242190D02*
X48417314Y-51051714D01*
X48417314Y-51051714D02*
X48464933Y-50956476D01*
X48464933Y-50956476D02*
X48560171Y-50861238D01*
X48560171Y-50861238D02*
X48703028Y-50813619D01*
X48703028Y-50813619D02*
X48798266Y-50813619D01*
X48798266Y-50813619D02*
X48941123Y-50861238D01*
X48941123Y-50861238D02*
X48988742Y-50908857D01*
X49941123Y-51813619D02*
X49369695Y-51813619D01*
X49655409Y-51813619D02*
X49655409Y-50813619D01*
X49655409Y-50813619D02*
X49560171Y-50956476D01*
X49560171Y-50956476D02*
X49464933Y-51051714D01*
X49464933Y-51051714D02*
X49369695Y-51099333D01*
X50893504Y-51813619D02*
X50322076Y-51813619D01*
X50607790Y-51813619D02*
X50607790Y-50813619D01*
X50607790Y-50813619D02*
X50512552Y-50956476D01*
X50512552Y-50956476D02*
X50417314Y-51051714D01*
X50417314Y-51051714D02*
X50322076Y-51099333D01*
D11*
X49432633Y-57072065D02*
X48924633Y-57072065D01*
X49178633Y-57072065D02*
X49178633Y-56183065D01*
X49178633Y-56183065D02*
X49093966Y-56310065D01*
X49093966Y-56310065D02*
X49009300Y-56394732D01*
X49009300Y-56394732D02*
X48924633Y-56437065D01*
X50194633Y-56479398D02*
X50194633Y-57072065D01*
X49813633Y-56479398D02*
X49813633Y-56945065D01*
X49813633Y-56945065D02*
X49855967Y-57029732D01*
X49855967Y-57029732D02*
X49940633Y-57072065D01*
X49940633Y-57072065D02*
X50067633Y-57072065D01*
X50067633Y-57072065D02*
X50152300Y-57029732D01*
X50152300Y-57029732D02*
X50194633Y-56987398D01*
X50393600Y-31316465D02*
X50816933Y-31316465D01*
X50308933Y-31570465D02*
X50605267Y-30681465D01*
X50605267Y-30681465D02*
X50901600Y-31570465D01*
X51663600Y-31570465D02*
X51155600Y-31570465D01*
X51409600Y-31570465D02*
X51409600Y-30681465D01*
X51409600Y-30681465D02*
X51324933Y-30808465D01*
X51324933Y-30808465D02*
X51240267Y-30893132D01*
X51240267Y-30893132D02*
X51155600Y-30935465D01*
D15*
X17651505Y-79093219D02*
X17651505Y-78093219D01*
X17651505Y-78093219D02*
X17889600Y-78093219D01*
X17889600Y-78093219D02*
X18032457Y-78140838D01*
X18032457Y-78140838D02*
X18127695Y-78236076D01*
X18127695Y-78236076D02*
X18175314Y-78331314D01*
X18175314Y-78331314D02*
X18222933Y-78521790D01*
X18222933Y-78521790D02*
X18222933Y-78664647D01*
X18222933Y-78664647D02*
X18175314Y-78855123D01*
X18175314Y-78855123D02*
X18127695Y-78950361D01*
X18127695Y-78950361D02*
X18032457Y-79045600D01*
X18032457Y-79045600D02*
X17889600Y-79093219D01*
X17889600Y-79093219D02*
X17651505Y-79093219D01*
X18794362Y-78521790D02*
X18699124Y-78474171D01*
X18699124Y-78474171D02*
X18651505Y-78426552D01*
X18651505Y-78426552D02*
X18603886Y-78331314D01*
X18603886Y-78331314D02*
X18603886Y-78283695D01*
X18603886Y-78283695D02*
X18651505Y-78188457D01*
X18651505Y-78188457D02*
X18699124Y-78140838D01*
X18699124Y-78140838D02*
X18794362Y-78093219D01*
X18794362Y-78093219D02*
X18984838Y-78093219D01*
X18984838Y-78093219D02*
X19080076Y-78140838D01*
X19080076Y-78140838D02*
X19127695Y-78188457D01*
X19127695Y-78188457D02*
X19175314Y-78283695D01*
X19175314Y-78283695D02*
X19175314Y-78331314D01*
X19175314Y-78331314D02*
X19127695Y-78426552D01*
X19127695Y-78426552D02*
X19080076Y-78474171D01*
X19080076Y-78474171D02*
X18984838Y-78521790D01*
X18984838Y-78521790D02*
X18794362Y-78521790D01*
X18794362Y-78521790D02*
X18699124Y-78569409D01*
X18699124Y-78569409D02*
X18651505Y-78617028D01*
X18651505Y-78617028D02*
X18603886Y-78712266D01*
X18603886Y-78712266D02*
X18603886Y-78902742D01*
X18603886Y-78902742D02*
X18651505Y-78997980D01*
X18651505Y-78997980D02*
X18699124Y-79045600D01*
X18699124Y-79045600D02*
X18794362Y-79093219D01*
X18794362Y-79093219D02*
X18984838Y-79093219D01*
X18984838Y-79093219D02*
X19080076Y-79045600D01*
X19080076Y-79045600D02*
X19127695Y-78997980D01*
X19127695Y-78997980D02*
X19175314Y-78902742D01*
X19175314Y-78902742D02*
X19175314Y-78712266D01*
X19175314Y-78712266D02*
X19127695Y-78617028D01*
X19127695Y-78617028D02*
X19080076Y-78569409D01*
X19080076Y-78569409D02*
X18984838Y-78521790D01*
X22515533Y-19079380D02*
X22467914Y-19127000D01*
X22467914Y-19127000D02*
X22325057Y-19174619D01*
X22325057Y-19174619D02*
X22229819Y-19174619D01*
X22229819Y-19174619D02*
X22086962Y-19127000D01*
X22086962Y-19127000D02*
X21991724Y-19031761D01*
X21991724Y-19031761D02*
X21944105Y-18936523D01*
X21944105Y-18936523D02*
X21896486Y-18746047D01*
X21896486Y-18746047D02*
X21896486Y-18603190D01*
X21896486Y-18603190D02*
X21944105Y-18412714D01*
X21944105Y-18412714D02*
X21991724Y-18317476D01*
X21991724Y-18317476D02*
X22086962Y-18222238D01*
X22086962Y-18222238D02*
X22229819Y-18174619D01*
X22229819Y-18174619D02*
X22325057Y-18174619D01*
X22325057Y-18174619D02*
X22467914Y-18222238D01*
X22467914Y-18222238D02*
X22515533Y-18269857D01*
X22848867Y-18174619D02*
X23467914Y-18174619D01*
X23467914Y-18174619D02*
X23134581Y-18555571D01*
X23134581Y-18555571D02*
X23277438Y-18555571D01*
X23277438Y-18555571D02*
X23372676Y-18603190D01*
X23372676Y-18603190D02*
X23420295Y-18650809D01*
X23420295Y-18650809D02*
X23467914Y-18746047D01*
X23467914Y-18746047D02*
X23467914Y-18984142D01*
X23467914Y-18984142D02*
X23420295Y-19079380D01*
X23420295Y-19079380D02*
X23372676Y-19127000D01*
X23372676Y-19127000D02*
X23277438Y-19174619D01*
X23277438Y-19174619D02*
X22991724Y-19174619D01*
X22991724Y-19174619D02*
X22896486Y-19127000D01*
X22896486Y-19127000D02*
X22848867Y-19079380D01*
D13*
X32986133Y-87985895D02*
X32986133Y-86969895D01*
X33421562Y-87066657D02*
X33469943Y-87018276D01*
X33469943Y-87018276D02*
X33566705Y-86969895D01*
X33566705Y-86969895D02*
X33808610Y-86969895D01*
X33808610Y-86969895D02*
X33905372Y-87018276D01*
X33905372Y-87018276D02*
X33953753Y-87066657D01*
X33953753Y-87066657D02*
X34002134Y-87163419D01*
X34002134Y-87163419D02*
X34002134Y-87260181D01*
X34002134Y-87260181D02*
X33953753Y-87405324D01*
X33953753Y-87405324D02*
X33373181Y-87985895D01*
X33373181Y-87985895D02*
X34002134Y-87985895D01*
X35018134Y-87889134D02*
X34969753Y-87937515D01*
X34969753Y-87937515D02*
X34824610Y-87985895D01*
X34824610Y-87985895D02*
X34727848Y-87985895D01*
X34727848Y-87985895D02*
X34582705Y-87937515D01*
X34582705Y-87937515D02*
X34485943Y-87840753D01*
X34485943Y-87840753D02*
X34437562Y-87743991D01*
X34437562Y-87743991D02*
X34389181Y-87550467D01*
X34389181Y-87550467D02*
X34389181Y-87405324D01*
X34389181Y-87405324D02*
X34437562Y-87211800D01*
X34437562Y-87211800D02*
X34485943Y-87115038D01*
X34485943Y-87115038D02*
X34582705Y-87018276D01*
X34582705Y-87018276D02*
X34727848Y-86969895D01*
X34727848Y-86969895D02*
X34824610Y-86969895D01*
X34824610Y-86969895D02*
X34969753Y-87018276D01*
X34969753Y-87018276D02*
X35018134Y-87066657D01*
X36759848Y-87985895D02*
X36179276Y-87985895D01*
X36469562Y-87985895D02*
X36469562Y-86969895D01*
X36469562Y-86969895D02*
X36372800Y-87115038D01*
X36372800Y-87115038D02*
X36276038Y-87211800D01*
X36276038Y-87211800D02*
X36179276Y-87260181D01*
D15*
X10964942Y-14424819D02*
X10631609Y-13948628D01*
X10393514Y-14424819D02*
X10393514Y-13424819D01*
X10393514Y-13424819D02*
X10774466Y-13424819D01*
X10774466Y-13424819D02*
X10869704Y-13472438D01*
X10869704Y-13472438D02*
X10917323Y-13520057D01*
X10917323Y-13520057D02*
X10964942Y-13615295D01*
X10964942Y-13615295D02*
X10964942Y-13758152D01*
X10964942Y-13758152D02*
X10917323Y-13853390D01*
X10917323Y-13853390D02*
X10869704Y-13901009D01*
X10869704Y-13901009D02*
X10774466Y-13948628D01*
X10774466Y-13948628D02*
X10393514Y-13948628D01*
X11917323Y-14424819D02*
X11345895Y-14424819D01*
X11631609Y-14424819D02*
X11631609Y-13424819D01*
X11631609Y-13424819D02*
X11536371Y-13567676D01*
X11536371Y-13567676D02*
X11441133Y-13662914D01*
X11441133Y-13662914D02*
X11345895Y-13710533D01*
X12869704Y-14424819D02*
X12298276Y-14424819D01*
X12583990Y-14424819D02*
X12583990Y-13424819D01*
X12583990Y-13424819D02*
X12488752Y-13567676D01*
X12488752Y-13567676D02*
X12393514Y-13662914D01*
X12393514Y-13662914D02*
X12298276Y-13710533D01*
X17651505Y-69898419D02*
X17651505Y-68898419D01*
X17651505Y-68898419D02*
X17889600Y-68898419D01*
X17889600Y-68898419D02*
X18032457Y-68946038D01*
X18032457Y-68946038D02*
X18127695Y-69041276D01*
X18127695Y-69041276D02*
X18175314Y-69136514D01*
X18175314Y-69136514D02*
X18222933Y-69326990D01*
X18222933Y-69326990D02*
X18222933Y-69469847D01*
X18222933Y-69469847D02*
X18175314Y-69660323D01*
X18175314Y-69660323D02*
X18127695Y-69755561D01*
X18127695Y-69755561D02*
X18032457Y-69850800D01*
X18032457Y-69850800D02*
X17889600Y-69898419D01*
X17889600Y-69898419D02*
X17651505Y-69898419D01*
X18556267Y-68898419D02*
X19222933Y-68898419D01*
X19222933Y-68898419D02*
X18794362Y-69898419D01*
X11041142Y-32865219D02*
X10707809Y-32389028D01*
X10469714Y-32865219D02*
X10469714Y-31865219D01*
X10469714Y-31865219D02*
X10850666Y-31865219D01*
X10850666Y-31865219D02*
X10945904Y-31912838D01*
X10945904Y-31912838D02*
X10993523Y-31960457D01*
X10993523Y-31960457D02*
X11041142Y-32055695D01*
X11041142Y-32055695D02*
X11041142Y-32198552D01*
X11041142Y-32198552D02*
X10993523Y-32293790D01*
X10993523Y-32293790D02*
X10945904Y-32341409D01*
X10945904Y-32341409D02*
X10850666Y-32389028D01*
X10850666Y-32389028D02*
X10469714Y-32389028D01*
X11993523Y-32865219D02*
X11422095Y-32865219D01*
X11707809Y-32865219D02*
X11707809Y-31865219D01*
X11707809Y-31865219D02*
X11612571Y-32008076D01*
X11612571Y-32008076D02*
X11517333Y-32103314D01*
X11517333Y-32103314D02*
X11422095Y-32150933D01*
X12326857Y-31865219D02*
X12945904Y-31865219D01*
X12945904Y-31865219D02*
X12612571Y-32246171D01*
X12612571Y-32246171D02*
X12755428Y-32246171D01*
X12755428Y-32246171D02*
X12850666Y-32293790D01*
X12850666Y-32293790D02*
X12898285Y-32341409D01*
X12898285Y-32341409D02*
X12945904Y-32436647D01*
X12945904Y-32436647D02*
X12945904Y-32674742D01*
X12945904Y-32674742D02*
X12898285Y-32769980D01*
X12898285Y-32769980D02*
X12850666Y-32817600D01*
X12850666Y-32817600D02*
X12755428Y-32865219D01*
X12755428Y-32865219D02*
X12469714Y-32865219D01*
X12469714Y-32865219D02*
X12374476Y-32817600D01*
X12374476Y-32817600D02*
X12326857Y-32769980D01*
X11015742Y-79525019D02*
X10682409Y-79048828D01*
X10444314Y-79525019D02*
X10444314Y-78525019D01*
X10444314Y-78525019D02*
X10825266Y-78525019D01*
X10825266Y-78525019D02*
X10920504Y-78572638D01*
X10920504Y-78572638D02*
X10968123Y-78620257D01*
X10968123Y-78620257D02*
X11015742Y-78715495D01*
X11015742Y-78715495D02*
X11015742Y-78858352D01*
X11015742Y-78858352D02*
X10968123Y-78953590D01*
X10968123Y-78953590D02*
X10920504Y-79001209D01*
X10920504Y-79001209D02*
X10825266Y-79048828D01*
X10825266Y-79048828D02*
X10444314Y-79048828D01*
X11968123Y-79525019D02*
X11396695Y-79525019D01*
X11682409Y-79525019D02*
X11682409Y-78525019D01*
X11682409Y-78525019D02*
X11587171Y-78667876D01*
X11587171Y-78667876D02*
X11491933Y-78763114D01*
X11491933Y-78763114D02*
X11396695Y-78810733D01*
X12539552Y-78953590D02*
X12444314Y-78905971D01*
X12444314Y-78905971D02*
X12396695Y-78858352D01*
X12396695Y-78858352D02*
X12349076Y-78763114D01*
X12349076Y-78763114D02*
X12349076Y-78715495D01*
X12349076Y-78715495D02*
X12396695Y-78620257D01*
X12396695Y-78620257D02*
X12444314Y-78572638D01*
X12444314Y-78572638D02*
X12539552Y-78525019D01*
X12539552Y-78525019D02*
X12730028Y-78525019D01*
X12730028Y-78525019D02*
X12825266Y-78572638D01*
X12825266Y-78572638D02*
X12872885Y-78620257D01*
X12872885Y-78620257D02*
X12920504Y-78715495D01*
X12920504Y-78715495D02*
X12920504Y-78763114D01*
X12920504Y-78763114D02*
X12872885Y-78858352D01*
X12872885Y-78858352D02*
X12825266Y-78905971D01*
X12825266Y-78905971D02*
X12730028Y-78953590D01*
X12730028Y-78953590D02*
X12539552Y-78953590D01*
X12539552Y-78953590D02*
X12444314Y-79001209D01*
X12444314Y-79001209D02*
X12396695Y-79048828D01*
X12396695Y-79048828D02*
X12349076Y-79144066D01*
X12349076Y-79144066D02*
X12349076Y-79334542D01*
X12349076Y-79334542D02*
X12396695Y-79429780D01*
X12396695Y-79429780D02*
X12444314Y-79477400D01*
X12444314Y-79477400D02*
X12539552Y-79525019D01*
X12539552Y-79525019D02*
X12730028Y-79525019D01*
X12730028Y-79525019D02*
X12825266Y-79477400D01*
X12825266Y-79477400D02*
X12872885Y-79429780D01*
X12872885Y-79429780D02*
X12920504Y-79334542D01*
X12920504Y-79334542D02*
X12920504Y-79144066D01*
X12920504Y-79144066D02*
X12872885Y-79048828D01*
X12872885Y-79048828D02*
X12825266Y-79001209D01*
X12825266Y-79001209D02*
X12730028Y-78953590D01*
X11568133Y-37818219D02*
X11234800Y-37342028D01*
X10996705Y-37818219D02*
X10996705Y-36818219D01*
X10996705Y-36818219D02*
X11377657Y-36818219D01*
X11377657Y-36818219D02*
X11472895Y-36865838D01*
X11472895Y-36865838D02*
X11520514Y-36913457D01*
X11520514Y-36913457D02*
X11568133Y-37008695D01*
X11568133Y-37008695D02*
X11568133Y-37151552D01*
X11568133Y-37151552D02*
X11520514Y-37246790D01*
X11520514Y-37246790D02*
X11472895Y-37294409D01*
X11472895Y-37294409D02*
X11377657Y-37342028D01*
X11377657Y-37342028D02*
X10996705Y-37342028D01*
X12425276Y-37151552D02*
X12425276Y-37818219D01*
X12187181Y-36770600D02*
X11949086Y-37484885D01*
X11949086Y-37484885D02*
X12568133Y-37484885D01*
X22667933Y-65408980D02*
X22620314Y-65456600D01*
X22620314Y-65456600D02*
X22477457Y-65504219D01*
X22477457Y-65504219D02*
X22382219Y-65504219D01*
X22382219Y-65504219D02*
X22239362Y-65456600D01*
X22239362Y-65456600D02*
X22144124Y-65361361D01*
X22144124Y-65361361D02*
X22096505Y-65266123D01*
X22096505Y-65266123D02*
X22048886Y-65075647D01*
X22048886Y-65075647D02*
X22048886Y-64932790D01*
X22048886Y-64932790D02*
X22096505Y-64742314D01*
X22096505Y-64742314D02*
X22144124Y-64647076D01*
X22144124Y-64647076D02*
X22239362Y-64551838D01*
X22239362Y-64551838D02*
X22382219Y-64504219D01*
X22382219Y-64504219D02*
X22477457Y-64504219D01*
X22477457Y-64504219D02*
X22620314Y-64551838D01*
X22620314Y-64551838D02*
X22667933Y-64599457D01*
X23239362Y-64932790D02*
X23144124Y-64885171D01*
X23144124Y-64885171D02*
X23096505Y-64837552D01*
X23096505Y-64837552D02*
X23048886Y-64742314D01*
X23048886Y-64742314D02*
X23048886Y-64694695D01*
X23048886Y-64694695D02*
X23096505Y-64599457D01*
X23096505Y-64599457D02*
X23144124Y-64551838D01*
X23144124Y-64551838D02*
X23239362Y-64504219D01*
X23239362Y-64504219D02*
X23429838Y-64504219D01*
X23429838Y-64504219D02*
X23525076Y-64551838D01*
X23525076Y-64551838D02*
X23572695Y-64599457D01*
X23572695Y-64599457D02*
X23620314Y-64694695D01*
X23620314Y-64694695D02*
X23620314Y-64742314D01*
X23620314Y-64742314D02*
X23572695Y-64837552D01*
X23572695Y-64837552D02*
X23525076Y-64885171D01*
X23525076Y-64885171D02*
X23429838Y-64932790D01*
X23429838Y-64932790D02*
X23239362Y-64932790D01*
X23239362Y-64932790D02*
X23144124Y-64980409D01*
X23144124Y-64980409D02*
X23096505Y-65028028D01*
X23096505Y-65028028D02*
X23048886Y-65123266D01*
X23048886Y-65123266D02*
X23048886Y-65313742D01*
X23048886Y-65313742D02*
X23096505Y-65408980D01*
X23096505Y-65408980D02*
X23144124Y-65456600D01*
X23144124Y-65456600D02*
X23239362Y-65504219D01*
X23239362Y-65504219D02*
X23429838Y-65504219D01*
X23429838Y-65504219D02*
X23525076Y-65456600D01*
X23525076Y-65456600D02*
X23572695Y-65408980D01*
X23572695Y-65408980D02*
X23620314Y-65313742D01*
X23620314Y-65313742D02*
X23620314Y-65123266D01*
X23620314Y-65123266D02*
X23572695Y-65028028D01*
X23572695Y-65028028D02*
X23525076Y-64980409D01*
X23525076Y-64980409D02*
X23429838Y-64932790D01*
D13*
X44111333Y-87711095D02*
X44111333Y-86695095D01*
X44546762Y-86791857D02*
X44595143Y-86743476D01*
X44595143Y-86743476D02*
X44691905Y-86695095D01*
X44691905Y-86695095D02*
X44933810Y-86695095D01*
X44933810Y-86695095D02*
X45030572Y-86743476D01*
X45030572Y-86743476D02*
X45078953Y-86791857D01*
X45078953Y-86791857D02*
X45127334Y-86888619D01*
X45127334Y-86888619D02*
X45127334Y-86985381D01*
X45127334Y-86985381D02*
X45078953Y-87130524D01*
X45078953Y-87130524D02*
X44498381Y-87711095D01*
X44498381Y-87711095D02*
X45127334Y-87711095D01*
X46143334Y-87614334D02*
X46094953Y-87662715D01*
X46094953Y-87662715D02*
X45949810Y-87711095D01*
X45949810Y-87711095D02*
X45853048Y-87711095D01*
X45853048Y-87711095D02*
X45707905Y-87662715D01*
X45707905Y-87662715D02*
X45611143Y-87565953D01*
X45611143Y-87565953D02*
X45562762Y-87469191D01*
X45562762Y-87469191D02*
X45514381Y-87275667D01*
X45514381Y-87275667D02*
X45514381Y-87130524D01*
X45514381Y-87130524D02*
X45562762Y-86937000D01*
X45562762Y-86937000D02*
X45611143Y-86840238D01*
X45611143Y-86840238D02*
X45707905Y-86743476D01*
X45707905Y-86743476D02*
X45853048Y-86695095D01*
X45853048Y-86695095D02*
X45949810Y-86695095D01*
X45949810Y-86695095D02*
X46094953Y-86743476D01*
X46094953Y-86743476D02*
X46143334Y-86791857D01*
X47546381Y-86695095D02*
X47643143Y-86695095D01*
X47643143Y-86695095D02*
X47739905Y-86743476D01*
X47739905Y-86743476D02*
X47788286Y-86791857D01*
X47788286Y-86791857D02*
X47836667Y-86888619D01*
X47836667Y-86888619D02*
X47885048Y-87082143D01*
X47885048Y-87082143D02*
X47885048Y-87324048D01*
X47885048Y-87324048D02*
X47836667Y-87517572D01*
X47836667Y-87517572D02*
X47788286Y-87614334D01*
X47788286Y-87614334D02*
X47739905Y-87662715D01*
X47739905Y-87662715D02*
X47643143Y-87711095D01*
X47643143Y-87711095D02*
X47546381Y-87711095D01*
X47546381Y-87711095D02*
X47449619Y-87662715D01*
X47449619Y-87662715D02*
X47401238Y-87614334D01*
X47401238Y-87614334D02*
X47352857Y-87517572D01*
X47352857Y-87517572D02*
X47304476Y-87324048D01*
X47304476Y-87324048D02*
X47304476Y-87082143D01*
X47304476Y-87082143D02*
X47352857Y-86888619D01*
X47352857Y-86888619D02*
X47401238Y-86791857D01*
X47401238Y-86791857D02*
X47449619Y-86743476D01*
X47449619Y-86743476D02*
X47546381Y-86695095D01*
D15*
X11542733Y-65656619D02*
X11209400Y-65180428D01*
X10971305Y-65656619D02*
X10971305Y-64656619D01*
X10971305Y-64656619D02*
X11352257Y-64656619D01*
X11352257Y-64656619D02*
X11447495Y-64704238D01*
X11447495Y-64704238D02*
X11495114Y-64751857D01*
X11495114Y-64751857D02*
X11542733Y-64847095D01*
X11542733Y-64847095D02*
X11542733Y-64989952D01*
X11542733Y-64989952D02*
X11495114Y-65085190D01*
X11495114Y-65085190D02*
X11447495Y-65132809D01*
X11447495Y-65132809D02*
X11352257Y-65180428D01*
X11352257Y-65180428D02*
X10971305Y-65180428D01*
X11876067Y-64656619D02*
X12542733Y-64656619D01*
X12542733Y-64656619D02*
X12114162Y-65656619D01*
X11466533Y-10005219D02*
X11133200Y-9529028D01*
X10895105Y-10005219D02*
X10895105Y-9005219D01*
X10895105Y-9005219D02*
X11276057Y-9005219D01*
X11276057Y-9005219D02*
X11371295Y-9052838D01*
X11371295Y-9052838D02*
X11418914Y-9100457D01*
X11418914Y-9100457D02*
X11466533Y-9195695D01*
X11466533Y-9195695D02*
X11466533Y-9338552D01*
X11466533Y-9338552D02*
X11418914Y-9433790D01*
X11418914Y-9433790D02*
X11371295Y-9481409D01*
X11371295Y-9481409D02*
X11276057Y-9529028D01*
X11276057Y-9529028D02*
X10895105Y-9529028D01*
X12418914Y-10005219D02*
X11847486Y-10005219D01*
X12133200Y-10005219D02*
X12133200Y-9005219D01*
X12133200Y-9005219D02*
X12037962Y-9148076D01*
X12037962Y-9148076D02*
X11942724Y-9243314D01*
X11942724Y-9243314D02*
X11847486Y-9290933D01*
D11*
X7192433Y-13739665D02*
X6684433Y-13739665D01*
X6938433Y-13739665D02*
X6938433Y-12850665D01*
X6938433Y-12850665D02*
X6853766Y-12977665D01*
X6853766Y-12977665D02*
X6769100Y-13062332D01*
X6769100Y-13062332D02*
X6684433Y-13104665D01*
X7742767Y-12850665D02*
X7827433Y-12850665D01*
X7827433Y-12850665D02*
X7912100Y-12892998D01*
X7912100Y-12892998D02*
X7954433Y-12935332D01*
X7954433Y-12935332D02*
X7996767Y-13019998D01*
X7996767Y-13019998D02*
X8039100Y-13189332D01*
X8039100Y-13189332D02*
X8039100Y-13400998D01*
X8039100Y-13400998D02*
X7996767Y-13570332D01*
X7996767Y-13570332D02*
X7954433Y-13654998D01*
X7954433Y-13654998D02*
X7912100Y-13697332D01*
X7912100Y-13697332D02*
X7827433Y-13739665D01*
X7827433Y-13739665D02*
X7742767Y-13739665D01*
X7742767Y-13739665D02*
X7658100Y-13697332D01*
X7658100Y-13697332D02*
X7615767Y-13654998D01*
X7615767Y-13654998D02*
X7573433Y-13570332D01*
X7573433Y-13570332D02*
X7531100Y-13400998D01*
X7531100Y-13400998D02*
X7531100Y-13189332D01*
X7531100Y-13189332D02*
X7573433Y-13019998D01*
X7573433Y-13019998D02*
X7615767Y-12935332D01*
X7615767Y-12935332D02*
X7658100Y-12892998D01*
X7658100Y-12892998D02*
X7742767Y-12850665D01*
X8420100Y-13739665D02*
X8420100Y-12850665D01*
X8504767Y-13400998D02*
X8758767Y-13739665D01*
X8758767Y-13146998D02*
X8420100Y-13485665D01*
D15*
X11415733Y-28496419D02*
X11082400Y-28020228D01*
X10844305Y-28496419D02*
X10844305Y-27496419D01*
X10844305Y-27496419D02*
X11225257Y-27496419D01*
X11225257Y-27496419D02*
X11320495Y-27544038D01*
X11320495Y-27544038D02*
X11368114Y-27591657D01*
X11368114Y-27591657D02*
X11415733Y-27686895D01*
X11415733Y-27686895D02*
X11415733Y-27829752D01*
X11415733Y-27829752D02*
X11368114Y-27924990D01*
X11368114Y-27924990D02*
X11320495Y-27972609D01*
X11320495Y-27972609D02*
X11225257Y-28020228D01*
X11225257Y-28020228D02*
X10844305Y-28020228D01*
X11749067Y-27496419D02*
X12368114Y-27496419D01*
X12368114Y-27496419D02*
X12034781Y-27877371D01*
X12034781Y-27877371D02*
X12177638Y-27877371D01*
X12177638Y-27877371D02*
X12272876Y-27924990D01*
X12272876Y-27924990D02*
X12320495Y-27972609D01*
X12320495Y-27972609D02*
X12368114Y-28067847D01*
X12368114Y-28067847D02*
X12368114Y-28305942D01*
X12368114Y-28305942D02*
X12320495Y-28401180D01*
X12320495Y-28401180D02*
X12272876Y-28448800D01*
X12272876Y-28448800D02*
X12177638Y-28496419D01*
X12177638Y-28496419D02*
X11891924Y-28496419D01*
X11891924Y-28496419D02*
X11796686Y-28448800D01*
X11796686Y-28448800D02*
X11749067Y-28401180D01*
D11*
X28553833Y-37183865D02*
X28553833Y-36294865D01*
X28553833Y-36294865D02*
X28892500Y-36294865D01*
X28892500Y-36294865D02*
X28977167Y-36337198D01*
X28977167Y-36337198D02*
X29019500Y-36379532D01*
X29019500Y-36379532D02*
X29061833Y-36464198D01*
X29061833Y-36464198D02*
X29061833Y-36591198D01*
X29061833Y-36591198D02*
X29019500Y-36675865D01*
X29019500Y-36675865D02*
X28977167Y-36718198D01*
X28977167Y-36718198D02*
X28892500Y-36760532D01*
X28892500Y-36760532D02*
X28553833Y-36760532D01*
X29358167Y-36294865D02*
X29908500Y-36294865D01*
X29908500Y-36294865D02*
X29612167Y-36633532D01*
X29612167Y-36633532D02*
X29739167Y-36633532D01*
X29739167Y-36633532D02*
X29823833Y-36675865D01*
X29823833Y-36675865D02*
X29866167Y-36718198D01*
X29866167Y-36718198D02*
X29908500Y-36802865D01*
X29908500Y-36802865D02*
X29908500Y-37014532D01*
X29908500Y-37014532D02*
X29866167Y-37099198D01*
X29866167Y-37099198D02*
X29823833Y-37141532D01*
X29823833Y-37141532D02*
X29739167Y-37183865D01*
X29739167Y-37183865D02*
X29485167Y-37183865D01*
X29485167Y-37183865D02*
X29400500Y-37141532D01*
X29400500Y-37141532D02*
X29358167Y-37099198D01*
D13*
X21911733Y-87584095D02*
X21911733Y-86568095D01*
X22347162Y-86664857D02*
X22395543Y-86616476D01*
X22395543Y-86616476D02*
X22492305Y-86568095D01*
X22492305Y-86568095D02*
X22734210Y-86568095D01*
X22734210Y-86568095D02*
X22830972Y-86616476D01*
X22830972Y-86616476D02*
X22879353Y-86664857D01*
X22879353Y-86664857D02*
X22927734Y-86761619D01*
X22927734Y-86761619D02*
X22927734Y-86858381D01*
X22927734Y-86858381D02*
X22879353Y-87003524D01*
X22879353Y-87003524D02*
X22298781Y-87584095D01*
X22298781Y-87584095D02*
X22927734Y-87584095D01*
X23943734Y-87487334D02*
X23895353Y-87535715D01*
X23895353Y-87535715D02*
X23750210Y-87584095D01*
X23750210Y-87584095D02*
X23653448Y-87584095D01*
X23653448Y-87584095D02*
X23508305Y-87535715D01*
X23508305Y-87535715D02*
X23411543Y-87438953D01*
X23411543Y-87438953D02*
X23363162Y-87342191D01*
X23363162Y-87342191D02*
X23314781Y-87148667D01*
X23314781Y-87148667D02*
X23314781Y-87003524D01*
X23314781Y-87003524D02*
X23363162Y-86810000D01*
X23363162Y-86810000D02*
X23411543Y-86713238D01*
X23411543Y-86713238D02*
X23508305Y-86616476D01*
X23508305Y-86616476D02*
X23653448Y-86568095D01*
X23653448Y-86568095D02*
X23750210Y-86568095D01*
X23750210Y-86568095D02*
X23895353Y-86616476D01*
X23895353Y-86616476D02*
X23943734Y-86664857D01*
X25685448Y-87584095D02*
X25104876Y-87584095D01*
X25395162Y-87584095D02*
X25395162Y-86568095D01*
X25395162Y-86568095D02*
X25298400Y-86713238D01*
X25298400Y-86713238D02*
X25201638Y-86810000D01*
X25201638Y-86810000D02*
X25104876Y-86858381D01*
D15*
X17626105Y-60633594D02*
X17626105Y-59633594D01*
X17626105Y-59633594D02*
X17864200Y-59633594D01*
X17864200Y-59633594D02*
X18007057Y-59681213D01*
X18007057Y-59681213D02*
X18102295Y-59776451D01*
X18102295Y-59776451D02*
X18149914Y-59871689D01*
X18149914Y-59871689D02*
X18197533Y-60062165D01*
X18197533Y-60062165D02*
X18197533Y-60205022D01*
X18197533Y-60205022D02*
X18149914Y-60395498D01*
X18149914Y-60395498D02*
X18102295Y-60490736D01*
X18102295Y-60490736D02*
X18007057Y-60585975D01*
X18007057Y-60585975D02*
X17864200Y-60633594D01*
X17864200Y-60633594D02*
X17626105Y-60633594D01*
X19054676Y-59633594D02*
X18864200Y-59633594D01*
X18864200Y-59633594D02*
X18768962Y-59681213D01*
X18768962Y-59681213D02*
X18721343Y-59728832D01*
X18721343Y-59728832D02*
X18626105Y-59871689D01*
X18626105Y-59871689D02*
X18578486Y-60062165D01*
X18578486Y-60062165D02*
X18578486Y-60443117D01*
X18578486Y-60443117D02*
X18626105Y-60538355D01*
X18626105Y-60538355D02*
X18673724Y-60585975D01*
X18673724Y-60585975D02*
X18768962Y-60633594D01*
X18768962Y-60633594D02*
X18959438Y-60633594D01*
X18959438Y-60633594D02*
X19054676Y-60585975D01*
X19054676Y-60585975D02*
X19102295Y-60538355D01*
X19102295Y-60538355D02*
X19149914Y-60443117D01*
X19149914Y-60443117D02*
X19149914Y-60205022D01*
X19149914Y-60205022D02*
X19102295Y-60109784D01*
X19102295Y-60109784D02*
X19054676Y-60062165D01*
X19054676Y-60062165D02*
X18959438Y-60014546D01*
X18959438Y-60014546D02*
X18768962Y-60014546D01*
X18768962Y-60014546D02*
X18673724Y-60062165D01*
X18673724Y-60062165D02*
X18626105Y-60109784D01*
X18626105Y-60109784D02*
X18578486Y-60205022D01*
X56137323Y-28788638D02*
X56042085Y-28741019D01*
X56042085Y-28741019D02*
X55899228Y-28741019D01*
X55899228Y-28741019D02*
X55756371Y-28788638D01*
X55756371Y-28788638D02*
X55661133Y-28883876D01*
X55661133Y-28883876D02*
X55613514Y-28979114D01*
X55613514Y-28979114D02*
X55565895Y-29169590D01*
X55565895Y-29169590D02*
X55565895Y-29312447D01*
X55565895Y-29312447D02*
X55613514Y-29502923D01*
X55613514Y-29502923D02*
X55661133Y-29598161D01*
X55661133Y-29598161D02*
X55756371Y-29693400D01*
X55756371Y-29693400D02*
X55899228Y-29741019D01*
X55899228Y-29741019D02*
X55994466Y-29741019D01*
X55994466Y-29741019D02*
X56137323Y-29693400D01*
X56137323Y-29693400D02*
X56184942Y-29645780D01*
X56184942Y-29645780D02*
X56184942Y-29312447D01*
X56184942Y-29312447D02*
X55994466Y-29312447D01*
X56613514Y-29741019D02*
X56613514Y-28741019D01*
X56613514Y-28741019D02*
X56994466Y-28741019D01*
X56994466Y-28741019D02*
X57089704Y-28788638D01*
X57089704Y-28788638D02*
X57137323Y-28836257D01*
X57137323Y-28836257D02*
X57184942Y-28931495D01*
X57184942Y-28931495D02*
X57184942Y-29074352D01*
X57184942Y-29074352D02*
X57137323Y-29169590D01*
X57137323Y-29169590D02*
X57089704Y-29217209D01*
X57089704Y-29217209D02*
X56994466Y-29264828D01*
X56994466Y-29264828D02*
X56613514Y-29264828D01*
X58137323Y-29741019D02*
X57565895Y-29741019D01*
X57851609Y-29741019D02*
X57851609Y-28741019D01*
X57851609Y-28741019D02*
X57756371Y-28883876D01*
X57756371Y-28883876D02*
X57661133Y-28979114D01*
X57661133Y-28979114D02*
X57565895Y-29026733D01*
X59042085Y-28741019D02*
X58565895Y-28741019D01*
X58565895Y-28741019D02*
X58518276Y-29217209D01*
X58518276Y-29217209D02*
X58565895Y-29169590D01*
X58565895Y-29169590D02*
X58661133Y-29121971D01*
X58661133Y-29121971D02*
X58899228Y-29121971D01*
X58899228Y-29121971D02*
X58994466Y-29169590D01*
X58994466Y-29169590D02*
X59042085Y-29217209D01*
X59042085Y-29217209D02*
X59089704Y-29312447D01*
X59089704Y-29312447D02*
X59089704Y-29550542D01*
X59089704Y-29550542D02*
X59042085Y-29645780D01*
X59042085Y-29645780D02*
X58994466Y-29693400D01*
X58994466Y-29693400D02*
X58899228Y-29741019D01*
X58899228Y-29741019D02*
X58661133Y-29741019D01*
X58661133Y-29741019D02*
X58565895Y-29693400D01*
X58565895Y-29693400D02*
X58518276Y-29645780D01*
D11*
X28503033Y-55802065D02*
X28503033Y-54913065D01*
X28503033Y-54913065D02*
X28841700Y-54913065D01*
X28841700Y-54913065D02*
X28926367Y-54955398D01*
X28926367Y-54955398D02*
X28968700Y-54997732D01*
X28968700Y-54997732D02*
X29011033Y-55082398D01*
X29011033Y-55082398D02*
X29011033Y-55209398D01*
X29011033Y-55209398D02*
X28968700Y-55294065D01*
X28968700Y-55294065D02*
X28926367Y-55336398D01*
X28926367Y-55336398D02*
X28841700Y-55378732D01*
X28841700Y-55378732D02*
X28503033Y-55378732D01*
X29815367Y-54913065D02*
X29392033Y-54913065D01*
X29392033Y-54913065D02*
X29349700Y-55336398D01*
X29349700Y-55336398D02*
X29392033Y-55294065D01*
X29392033Y-55294065D02*
X29476700Y-55251732D01*
X29476700Y-55251732D02*
X29688367Y-55251732D01*
X29688367Y-55251732D02*
X29773033Y-55294065D01*
X29773033Y-55294065D02*
X29815367Y-55336398D01*
X29815367Y-55336398D02*
X29857700Y-55421065D01*
X29857700Y-55421065D02*
X29857700Y-55632732D01*
X29857700Y-55632732D02*
X29815367Y-55717398D01*
X29815367Y-55717398D02*
X29773033Y-55759732D01*
X29773033Y-55759732D02*
X29688367Y-55802065D01*
X29688367Y-55802065D02*
X29476700Y-55802065D01*
X29476700Y-55802065D02*
X29392033Y-55759732D01*
X29392033Y-55759732D02*
X29349700Y-55717398D01*
X28553833Y-65073065D02*
X28553833Y-64184065D01*
X28553833Y-64184065D02*
X28892500Y-64184065D01*
X28892500Y-64184065D02*
X28977167Y-64226398D01*
X28977167Y-64226398D02*
X29019500Y-64268732D01*
X29019500Y-64268732D02*
X29061833Y-64353398D01*
X29061833Y-64353398D02*
X29061833Y-64480398D01*
X29061833Y-64480398D02*
X29019500Y-64565065D01*
X29019500Y-64565065D02*
X28977167Y-64607398D01*
X28977167Y-64607398D02*
X28892500Y-64649732D01*
X28892500Y-64649732D02*
X28553833Y-64649732D01*
X29823833Y-64184065D02*
X29654500Y-64184065D01*
X29654500Y-64184065D02*
X29569833Y-64226398D01*
X29569833Y-64226398D02*
X29527500Y-64268732D01*
X29527500Y-64268732D02*
X29442833Y-64395732D01*
X29442833Y-64395732D02*
X29400500Y-64565065D01*
X29400500Y-64565065D02*
X29400500Y-64903732D01*
X29400500Y-64903732D02*
X29442833Y-64988398D01*
X29442833Y-64988398D02*
X29485167Y-65030732D01*
X29485167Y-65030732D02*
X29569833Y-65073065D01*
X29569833Y-65073065D02*
X29739167Y-65073065D01*
X29739167Y-65073065D02*
X29823833Y-65030732D01*
X29823833Y-65030732D02*
X29866167Y-64988398D01*
X29866167Y-64988398D02*
X29908500Y-64903732D01*
X29908500Y-64903732D02*
X29908500Y-64692065D01*
X29908500Y-64692065D02*
X29866167Y-64607398D01*
X29866167Y-64607398D02*
X29823833Y-64565065D01*
X29823833Y-64565065D02*
X29739167Y-64522732D01*
X29739167Y-64522732D02*
X29569833Y-64522732D01*
X29569833Y-64522732D02*
X29485167Y-64565065D01*
X29485167Y-64565065D02*
X29442833Y-64607398D01*
X29442833Y-64607398D02*
X29400500Y-64692065D01*
D15*
X11542733Y-74927619D02*
X11209400Y-74451428D01*
X10971305Y-74927619D02*
X10971305Y-73927619D01*
X10971305Y-73927619D02*
X11352257Y-73927619D01*
X11352257Y-73927619D02*
X11447495Y-73975238D01*
X11447495Y-73975238D02*
X11495114Y-74022857D01*
X11495114Y-74022857D02*
X11542733Y-74118095D01*
X11542733Y-74118095D02*
X11542733Y-74260952D01*
X11542733Y-74260952D02*
X11495114Y-74356190D01*
X11495114Y-74356190D02*
X11447495Y-74403809D01*
X11447495Y-74403809D02*
X11352257Y-74451428D01*
X11352257Y-74451428D02*
X10971305Y-74451428D01*
X12114162Y-74356190D02*
X12018924Y-74308571D01*
X12018924Y-74308571D02*
X11971305Y-74260952D01*
X11971305Y-74260952D02*
X11923686Y-74165714D01*
X11923686Y-74165714D02*
X11923686Y-74118095D01*
X11923686Y-74118095D02*
X11971305Y-74022857D01*
X11971305Y-74022857D02*
X12018924Y-73975238D01*
X12018924Y-73975238D02*
X12114162Y-73927619D01*
X12114162Y-73927619D02*
X12304638Y-73927619D01*
X12304638Y-73927619D02*
X12399876Y-73975238D01*
X12399876Y-73975238D02*
X12447495Y-74022857D01*
X12447495Y-74022857D02*
X12495114Y-74118095D01*
X12495114Y-74118095D02*
X12495114Y-74165714D01*
X12495114Y-74165714D02*
X12447495Y-74260952D01*
X12447495Y-74260952D02*
X12399876Y-74308571D01*
X12399876Y-74308571D02*
X12304638Y-74356190D01*
X12304638Y-74356190D02*
X12114162Y-74356190D01*
X12114162Y-74356190D02*
X12018924Y-74403809D01*
X12018924Y-74403809D02*
X11971305Y-74451428D01*
X11971305Y-74451428D02*
X11923686Y-74546666D01*
X11923686Y-74546666D02*
X11923686Y-74737142D01*
X11923686Y-74737142D02*
X11971305Y-74832380D01*
X11971305Y-74832380D02*
X12018924Y-74880000D01*
X12018924Y-74880000D02*
X12114162Y-74927619D01*
X12114162Y-74927619D02*
X12304638Y-74927619D01*
X12304638Y-74927619D02*
X12399876Y-74880000D01*
X12399876Y-74880000D02*
X12447495Y-74832380D01*
X12447495Y-74832380D02*
X12495114Y-74737142D01*
X12495114Y-74737142D02*
X12495114Y-74546666D01*
X12495114Y-74546666D02*
X12447495Y-74451428D01*
X12447495Y-74451428D02*
X12399876Y-74403809D01*
X12399876Y-74403809D02*
X12304638Y-74356190D01*
D11*
X7446433Y-73759865D02*
X6938433Y-73759865D01*
X7192433Y-73759865D02*
X7192433Y-72870865D01*
X7192433Y-72870865D02*
X7107766Y-72997865D01*
X7107766Y-72997865D02*
X7023100Y-73082532D01*
X7023100Y-73082532D02*
X6938433Y-73124865D01*
X7996767Y-72870865D02*
X8081433Y-72870865D01*
X8081433Y-72870865D02*
X8166100Y-72913198D01*
X8166100Y-72913198D02*
X8208433Y-72955532D01*
X8208433Y-72955532D02*
X8250767Y-73040198D01*
X8250767Y-73040198D02*
X8293100Y-73209532D01*
X8293100Y-73209532D02*
X8293100Y-73421198D01*
X8293100Y-73421198D02*
X8250767Y-73590532D01*
X8250767Y-73590532D02*
X8208433Y-73675198D01*
X8208433Y-73675198D02*
X8166100Y-73717532D01*
X8166100Y-73717532D02*
X8081433Y-73759865D01*
X8081433Y-73759865D02*
X7996767Y-73759865D01*
X7996767Y-73759865D02*
X7912100Y-73717532D01*
X7912100Y-73717532D02*
X7869767Y-73675198D01*
X7869767Y-73675198D02*
X7827433Y-73590532D01*
X7827433Y-73590532D02*
X7785100Y-73421198D01*
X7785100Y-73421198D02*
X7785100Y-73209532D01*
X7785100Y-73209532D02*
X7827433Y-73040198D01*
X7827433Y-73040198D02*
X7869767Y-72955532D01*
X7869767Y-72955532D02*
X7912100Y-72913198D01*
X7912100Y-72913198D02*
X7996767Y-72870865D01*
X8674100Y-73759865D02*
X8674100Y-72870865D01*
X8758767Y-73421198D02*
X9012767Y-73759865D01*
X9012767Y-73167198D02*
X8674100Y-73505865D01*
D15*
X57040542Y-19123819D02*
X56707209Y-18647628D01*
X56469114Y-19123819D02*
X56469114Y-18123819D01*
X56469114Y-18123819D02*
X56850066Y-18123819D01*
X56850066Y-18123819D02*
X56945304Y-18171438D01*
X56945304Y-18171438D02*
X56992923Y-18219057D01*
X56992923Y-18219057D02*
X57040542Y-18314295D01*
X57040542Y-18314295D02*
X57040542Y-18457152D01*
X57040542Y-18457152D02*
X56992923Y-18552390D01*
X56992923Y-18552390D02*
X56945304Y-18600009D01*
X56945304Y-18600009D02*
X56850066Y-18647628D01*
X56850066Y-18647628D02*
X56469114Y-18647628D01*
X57992923Y-19123819D02*
X57421495Y-19123819D01*
X57707209Y-19123819D02*
X57707209Y-18123819D01*
X57707209Y-18123819D02*
X57611971Y-18266676D01*
X57611971Y-18266676D02*
X57516733Y-18361914D01*
X57516733Y-18361914D02*
X57421495Y-18409533D01*
X58611971Y-18123819D02*
X58707209Y-18123819D01*
X58707209Y-18123819D02*
X58802447Y-18171438D01*
X58802447Y-18171438D02*
X58850066Y-18219057D01*
X58850066Y-18219057D02*
X58897685Y-18314295D01*
X58897685Y-18314295D02*
X58945304Y-18504771D01*
X58945304Y-18504771D02*
X58945304Y-18742866D01*
X58945304Y-18742866D02*
X58897685Y-18933342D01*
X58897685Y-18933342D02*
X58850066Y-19028580D01*
X58850066Y-19028580D02*
X58802447Y-19076200D01*
X58802447Y-19076200D02*
X58707209Y-19123819D01*
X58707209Y-19123819D02*
X58611971Y-19123819D01*
X58611971Y-19123819D02*
X58516733Y-19076200D01*
X58516733Y-19076200D02*
X58469114Y-19028580D01*
X58469114Y-19028580D02*
X58421495Y-18933342D01*
X58421495Y-18933342D02*
X58373876Y-18742866D01*
X58373876Y-18742866D02*
X58373876Y-18504771D01*
X58373876Y-18504771D02*
X58421495Y-18314295D01*
X58421495Y-18314295D02*
X58469114Y-18219057D01*
X58469114Y-18219057D02*
X58516733Y-18171438D01*
X58516733Y-18171438D02*
X58611971Y-18123819D01*
D11*
X57039933Y-23493265D02*
X57590266Y-23493265D01*
X57590266Y-23493265D02*
X57293933Y-23831932D01*
X57293933Y-23831932D02*
X57420933Y-23831932D01*
X57420933Y-23831932D02*
X57505599Y-23874265D01*
X57505599Y-23874265D02*
X57547933Y-23916598D01*
X57547933Y-23916598D02*
X57590266Y-24001265D01*
X57590266Y-24001265D02*
X57590266Y-24212932D01*
X57590266Y-24212932D02*
X57547933Y-24297598D01*
X57547933Y-24297598D02*
X57505599Y-24339932D01*
X57505599Y-24339932D02*
X57420933Y-24382265D01*
X57420933Y-24382265D02*
X57166933Y-24382265D01*
X57166933Y-24382265D02*
X57082266Y-24339932D01*
X57082266Y-24339932D02*
X57039933Y-24297598D01*
X58013600Y-24382265D02*
X58182933Y-24382265D01*
X58182933Y-24382265D02*
X58267600Y-24339932D01*
X58267600Y-24339932D02*
X58309933Y-24297598D01*
X58309933Y-24297598D02*
X58394600Y-24170598D01*
X58394600Y-24170598D02*
X58436933Y-24001265D01*
X58436933Y-24001265D02*
X58436933Y-23662598D01*
X58436933Y-23662598D02*
X58394600Y-23577932D01*
X58394600Y-23577932D02*
X58352266Y-23535598D01*
X58352266Y-23535598D02*
X58267600Y-23493265D01*
X58267600Y-23493265D02*
X58098266Y-23493265D01*
X58098266Y-23493265D02*
X58013600Y-23535598D01*
X58013600Y-23535598D02*
X57971266Y-23577932D01*
X57971266Y-23577932D02*
X57928933Y-23662598D01*
X57928933Y-23662598D02*
X57928933Y-23874265D01*
X57928933Y-23874265D02*
X57971266Y-23958932D01*
X57971266Y-23958932D02*
X58013600Y-24001265D01*
X58013600Y-24001265D02*
X58098266Y-24043598D01*
X58098266Y-24043598D02*
X58267600Y-24043598D01*
X58267600Y-24043598D02*
X58352266Y-24001265D01*
X58352266Y-24001265D02*
X58394600Y-23958932D01*
X58394600Y-23958932D02*
X58436933Y-23874265D01*
D15*
X10964942Y-69771419D02*
X10631609Y-69295228D01*
X10393514Y-69771419D02*
X10393514Y-68771419D01*
X10393514Y-68771419D02*
X10774466Y-68771419D01*
X10774466Y-68771419D02*
X10869704Y-68819038D01*
X10869704Y-68819038D02*
X10917323Y-68866657D01*
X10917323Y-68866657D02*
X10964942Y-68961895D01*
X10964942Y-68961895D02*
X10964942Y-69104752D01*
X10964942Y-69104752D02*
X10917323Y-69199990D01*
X10917323Y-69199990D02*
X10869704Y-69247609D01*
X10869704Y-69247609D02*
X10774466Y-69295228D01*
X10774466Y-69295228D02*
X10393514Y-69295228D01*
X11917323Y-69771419D02*
X11345895Y-69771419D01*
X11631609Y-69771419D02*
X11631609Y-68771419D01*
X11631609Y-68771419D02*
X11536371Y-68914276D01*
X11536371Y-68914276D02*
X11441133Y-69009514D01*
X11441133Y-69009514D02*
X11345895Y-69057133D01*
X12250657Y-68771419D02*
X12917323Y-68771419D01*
X12917323Y-68771419D02*
X12488752Y-69771419D01*
X52292667Y-10132219D02*
X52292667Y-9132219D01*
X52959333Y-9132219D02*
X53149809Y-9132219D01*
X53149809Y-9132219D02*
X53245047Y-9179838D01*
X53245047Y-9179838D02*
X53340285Y-9275076D01*
X53340285Y-9275076D02*
X53387904Y-9465552D01*
X53387904Y-9465552D02*
X53387904Y-9798885D01*
X53387904Y-9798885D02*
X53340285Y-9989361D01*
X53340285Y-9989361D02*
X53245047Y-10084600D01*
X53245047Y-10084600D02*
X53149809Y-10132219D01*
X53149809Y-10132219D02*
X52959333Y-10132219D01*
X52959333Y-10132219D02*
X52864095Y-10084600D01*
X52864095Y-10084600D02*
X52768857Y-9989361D01*
X52768857Y-9989361D02*
X52721238Y-9798885D01*
X52721238Y-9798885D02*
X52721238Y-9465552D01*
X52721238Y-9465552D02*
X52768857Y-9275076D01*
X52768857Y-9275076D02*
X52864095Y-9179838D01*
X52864095Y-9179838D02*
X52959333Y-9132219D01*
X53578381Y-10227457D02*
X54340285Y-10227457D01*
X55102190Y-10132219D02*
X54530762Y-10132219D01*
X54816476Y-10132219D02*
X54816476Y-9132219D01*
X54816476Y-9132219D02*
X54721238Y-9275076D01*
X54721238Y-9275076D02*
X54626000Y-9370314D01*
X54626000Y-9370314D02*
X54530762Y-9417933D01*
X55959333Y-9465552D02*
X55959333Y-10132219D01*
X55721238Y-9084600D02*
X55483143Y-9798885D01*
X55483143Y-9798885D02*
X56102190Y-9798885D01*
X57197428Y-9084600D02*
X56340286Y-10370314D01*
X58054571Y-10132219D02*
X57483143Y-10132219D01*
X57768857Y-10132219D02*
X57768857Y-9132219D01*
X57768857Y-9132219D02*
X57673619Y-9275076D01*
X57673619Y-9275076D02*
X57578381Y-9370314D01*
X57578381Y-9370314D02*
X57483143Y-9417933D01*
X58959333Y-9132219D02*
X58483143Y-9132219D01*
X58483143Y-9132219D02*
X58435524Y-9608409D01*
X58435524Y-9608409D02*
X58483143Y-9560790D01*
X58483143Y-9560790D02*
X58578381Y-9513171D01*
X58578381Y-9513171D02*
X58816476Y-9513171D01*
X58816476Y-9513171D02*
X58911714Y-9560790D01*
X58911714Y-9560790D02*
X58959333Y-9608409D01*
X58959333Y-9608409D02*
X59006952Y-9703647D01*
X59006952Y-9703647D02*
X59006952Y-9941742D01*
X59006952Y-9941742D02*
X58959333Y-10036980D01*
X58959333Y-10036980D02*
X58911714Y-10084600D01*
X58911714Y-10084600D02*
X58816476Y-10132219D01*
X58816476Y-10132219D02*
X58578381Y-10132219D01*
X58578381Y-10132219D02*
X58483143Y-10084600D01*
X58483143Y-10084600D02*
X58435524Y-10036980D01*
X22566333Y-28401180D02*
X22518714Y-28448800D01*
X22518714Y-28448800D02*
X22375857Y-28496419D01*
X22375857Y-28496419D02*
X22280619Y-28496419D01*
X22280619Y-28496419D02*
X22137762Y-28448800D01*
X22137762Y-28448800D02*
X22042524Y-28353561D01*
X22042524Y-28353561D02*
X21994905Y-28258323D01*
X21994905Y-28258323D02*
X21947286Y-28067847D01*
X21947286Y-28067847D02*
X21947286Y-27924990D01*
X21947286Y-27924990D02*
X21994905Y-27734514D01*
X21994905Y-27734514D02*
X22042524Y-27639276D01*
X22042524Y-27639276D02*
X22137762Y-27544038D01*
X22137762Y-27544038D02*
X22280619Y-27496419D01*
X22280619Y-27496419D02*
X22375857Y-27496419D01*
X22375857Y-27496419D02*
X22518714Y-27544038D01*
X22518714Y-27544038D02*
X22566333Y-27591657D01*
X23423476Y-27829752D02*
X23423476Y-28496419D01*
X23185381Y-27448800D02*
X22947286Y-28163085D01*
X22947286Y-28163085D02*
X23566333Y-28163085D01*
X17702305Y-42168764D02*
X17702305Y-41168764D01*
X17702305Y-41168764D02*
X17940400Y-41168764D01*
X17940400Y-41168764D02*
X18083257Y-41216383D01*
X18083257Y-41216383D02*
X18178495Y-41311621D01*
X18178495Y-41311621D02*
X18226114Y-41406859D01*
X18226114Y-41406859D02*
X18273733Y-41597335D01*
X18273733Y-41597335D02*
X18273733Y-41740192D01*
X18273733Y-41740192D02*
X18226114Y-41930668D01*
X18226114Y-41930668D02*
X18178495Y-42025906D01*
X18178495Y-42025906D02*
X18083257Y-42121145D01*
X18083257Y-42121145D02*
X17940400Y-42168764D01*
X17940400Y-42168764D02*
X17702305Y-42168764D01*
X19130876Y-41502097D02*
X19130876Y-42168764D01*
X18892781Y-41121145D02*
X18654686Y-41835430D01*
X18654686Y-41835430D02*
X19273733Y-41835430D01*
X52106533Y-12113419D02*
X51773200Y-11637228D01*
X51535105Y-12113419D02*
X51535105Y-11113419D01*
X51535105Y-11113419D02*
X51916057Y-11113419D01*
X51916057Y-11113419D02*
X52011295Y-11161038D01*
X52011295Y-11161038D02*
X52058914Y-11208657D01*
X52058914Y-11208657D02*
X52106533Y-11303895D01*
X52106533Y-11303895D02*
X52106533Y-11446752D01*
X52106533Y-11446752D02*
X52058914Y-11541990D01*
X52058914Y-11541990D02*
X52011295Y-11589609D01*
X52011295Y-11589609D02*
X51916057Y-11637228D01*
X51916057Y-11637228D02*
X51535105Y-11637228D01*
X52582724Y-12113419D02*
X52773200Y-12113419D01*
X52773200Y-12113419D02*
X52868438Y-12065800D01*
X52868438Y-12065800D02*
X52916057Y-12018180D01*
X52916057Y-12018180D02*
X53011295Y-11875323D01*
X53011295Y-11875323D02*
X53058914Y-11684847D01*
X53058914Y-11684847D02*
X53058914Y-11303895D01*
X53058914Y-11303895D02*
X53011295Y-11208657D01*
X53011295Y-11208657D02*
X52963676Y-11161038D01*
X52963676Y-11161038D02*
X52868438Y-11113419D01*
X52868438Y-11113419D02*
X52677962Y-11113419D01*
X52677962Y-11113419D02*
X52582724Y-11161038D01*
X52582724Y-11161038D02*
X52535105Y-11208657D01*
X52535105Y-11208657D02*
X52487486Y-11303895D01*
X52487486Y-11303895D02*
X52487486Y-11541990D01*
X52487486Y-11541990D02*
X52535105Y-11637228D01*
X52535105Y-11637228D02*
X52582724Y-11684847D01*
X52582724Y-11684847D02*
X52677962Y-11732466D01*
X52677962Y-11732466D02*
X52868438Y-11732466D01*
X52868438Y-11732466D02*
X52963676Y-11684847D01*
X52963676Y-11684847D02*
X53011295Y-11637228D01*
X53011295Y-11637228D02*
X53058914Y-11541990D01*
D11*
X51896433Y-17422665D02*
X51388433Y-17422665D01*
X51642433Y-17422665D02*
X51642433Y-16533665D01*
X51642433Y-16533665D02*
X51557766Y-16660665D01*
X51557766Y-16660665D02*
X51473100Y-16745332D01*
X51473100Y-16745332D02*
X51388433Y-16787665D01*
X52446767Y-16533665D02*
X52531433Y-16533665D01*
X52531433Y-16533665D02*
X52616100Y-16575998D01*
X52616100Y-16575998D02*
X52658433Y-16618332D01*
X52658433Y-16618332D02*
X52700767Y-16702998D01*
X52700767Y-16702998D02*
X52743100Y-16872332D01*
X52743100Y-16872332D02*
X52743100Y-17083998D01*
X52743100Y-17083998D02*
X52700767Y-17253332D01*
X52700767Y-17253332D02*
X52658433Y-17337998D01*
X52658433Y-17337998D02*
X52616100Y-17380332D01*
X52616100Y-17380332D02*
X52531433Y-17422665D01*
X52531433Y-17422665D02*
X52446767Y-17422665D01*
X52446767Y-17422665D02*
X52362100Y-17380332D01*
X52362100Y-17380332D02*
X52319767Y-17337998D01*
X52319767Y-17337998D02*
X52277433Y-17253332D01*
X52277433Y-17253332D02*
X52235100Y-17083998D01*
X52235100Y-17083998D02*
X52235100Y-16872332D01*
X52235100Y-16872332D02*
X52277433Y-16702998D01*
X52277433Y-16702998D02*
X52319767Y-16618332D01*
X52319767Y-16618332D02*
X52362100Y-16575998D01*
X52362100Y-16575998D02*
X52446767Y-16533665D01*
X53124100Y-17422665D02*
X53124100Y-16533665D01*
X53208767Y-17083998D02*
X53462767Y-17422665D01*
X53462767Y-16829998D02*
X53124100Y-17168665D01*
D15*
X10990342Y-64106219D02*
X10657009Y-63630028D01*
X10418914Y-64106219D02*
X10418914Y-63106219D01*
X10418914Y-63106219D02*
X10799866Y-63106219D01*
X10799866Y-63106219D02*
X10895104Y-63153838D01*
X10895104Y-63153838D02*
X10942723Y-63201457D01*
X10942723Y-63201457D02*
X10990342Y-63296695D01*
X10990342Y-63296695D02*
X10990342Y-63439552D01*
X10990342Y-63439552D02*
X10942723Y-63534790D01*
X10942723Y-63534790D02*
X10895104Y-63582409D01*
X10895104Y-63582409D02*
X10799866Y-63630028D01*
X10799866Y-63630028D02*
X10418914Y-63630028D01*
X11942723Y-64106219D02*
X11371295Y-64106219D01*
X11657009Y-64106219D02*
X11657009Y-63106219D01*
X11657009Y-63106219D02*
X11561771Y-63249076D01*
X11561771Y-63249076D02*
X11466533Y-63344314D01*
X11466533Y-63344314D02*
X11371295Y-63391933D01*
X12799866Y-63106219D02*
X12609390Y-63106219D01*
X12609390Y-63106219D02*
X12514152Y-63153838D01*
X12514152Y-63153838D02*
X12466533Y-63201457D01*
X12466533Y-63201457D02*
X12371295Y-63344314D01*
X12371295Y-63344314D02*
X12323676Y-63534790D01*
X12323676Y-63534790D02*
X12323676Y-63915742D01*
X12323676Y-63915742D02*
X12371295Y-64010980D01*
X12371295Y-64010980D02*
X12418914Y-64058600D01*
X12418914Y-64058600D02*
X12514152Y-64106219D01*
X12514152Y-64106219D02*
X12704628Y-64106219D01*
X12704628Y-64106219D02*
X12799866Y-64058600D01*
X12799866Y-64058600D02*
X12847485Y-64010980D01*
X12847485Y-64010980D02*
X12895104Y-63915742D01*
X12895104Y-63915742D02*
X12895104Y-63677647D01*
X12895104Y-63677647D02*
X12847485Y-63582409D01*
X12847485Y-63582409D02*
X12799866Y-63534790D01*
X12799866Y-63534790D02*
X12704628Y-63487171D01*
X12704628Y-63487171D02*
X12514152Y-63487171D01*
X12514152Y-63487171D02*
X12418914Y-63534790D01*
X12418914Y-63534790D02*
X12371295Y-63582409D01*
X12371295Y-63582409D02*
X12323676Y-63677647D01*
X22667933Y-9782980D02*
X22620314Y-9830600D01*
X22620314Y-9830600D02*
X22477457Y-9878219D01*
X22477457Y-9878219D02*
X22382219Y-9878219D01*
X22382219Y-9878219D02*
X22239362Y-9830600D01*
X22239362Y-9830600D02*
X22144124Y-9735361D01*
X22144124Y-9735361D02*
X22096505Y-9640123D01*
X22096505Y-9640123D02*
X22048886Y-9449647D01*
X22048886Y-9449647D02*
X22048886Y-9306790D01*
X22048886Y-9306790D02*
X22096505Y-9116314D01*
X22096505Y-9116314D02*
X22144124Y-9021076D01*
X22144124Y-9021076D02*
X22239362Y-8925838D01*
X22239362Y-8925838D02*
X22382219Y-8878219D01*
X22382219Y-8878219D02*
X22477457Y-8878219D01*
X22477457Y-8878219D02*
X22620314Y-8925838D01*
X22620314Y-8925838D02*
X22667933Y-8973457D01*
X23048886Y-8973457D02*
X23096505Y-8925838D01*
X23096505Y-8925838D02*
X23191743Y-8878219D01*
X23191743Y-8878219D02*
X23429838Y-8878219D01*
X23429838Y-8878219D02*
X23525076Y-8925838D01*
X23525076Y-8925838D02*
X23572695Y-8973457D01*
X23572695Y-8973457D02*
X23620314Y-9068695D01*
X23620314Y-9068695D02*
X23620314Y-9163933D01*
X23620314Y-9163933D02*
X23572695Y-9306790D01*
X23572695Y-9306790D02*
X23001267Y-9878219D01*
X23001267Y-9878219D02*
X23620314Y-9878219D01*
D11*
X21865166Y-15924065D02*
X21357166Y-15924065D01*
X21611166Y-15924065D02*
X21611166Y-15035065D01*
X21611166Y-15035065D02*
X21526499Y-15162065D01*
X21526499Y-15162065D02*
X21441833Y-15246732D01*
X21441833Y-15246732D02*
X21357166Y-15289065D01*
X22415500Y-15035065D02*
X22500166Y-15035065D01*
X22500166Y-15035065D02*
X22584833Y-15077398D01*
X22584833Y-15077398D02*
X22627166Y-15119732D01*
X22627166Y-15119732D02*
X22669500Y-15204398D01*
X22669500Y-15204398D02*
X22711833Y-15373732D01*
X22711833Y-15373732D02*
X22711833Y-15585398D01*
X22711833Y-15585398D02*
X22669500Y-15754732D01*
X22669500Y-15754732D02*
X22627166Y-15839398D01*
X22627166Y-15839398D02*
X22584833Y-15881732D01*
X22584833Y-15881732D02*
X22500166Y-15924065D01*
X22500166Y-15924065D02*
X22415500Y-15924065D01*
X22415500Y-15924065D02*
X22330833Y-15881732D01*
X22330833Y-15881732D02*
X22288500Y-15839398D01*
X22288500Y-15839398D02*
X22246166Y-15754732D01*
X22246166Y-15754732D02*
X22203833Y-15585398D01*
X22203833Y-15585398D02*
X22203833Y-15373732D01*
X22203833Y-15373732D02*
X22246166Y-15204398D01*
X22246166Y-15204398D02*
X22288500Y-15119732D01*
X22288500Y-15119732D02*
X22330833Y-15077398D01*
X22330833Y-15077398D02*
X22415500Y-15035065D01*
X23262167Y-15035065D02*
X23346833Y-15035065D01*
X23346833Y-15035065D02*
X23431500Y-15077398D01*
X23431500Y-15077398D02*
X23473833Y-15119732D01*
X23473833Y-15119732D02*
X23516167Y-15204398D01*
X23516167Y-15204398D02*
X23558500Y-15373732D01*
X23558500Y-15373732D02*
X23558500Y-15585398D01*
X23558500Y-15585398D02*
X23516167Y-15754732D01*
X23516167Y-15754732D02*
X23473833Y-15839398D01*
X23473833Y-15839398D02*
X23431500Y-15881732D01*
X23431500Y-15881732D02*
X23346833Y-15924065D01*
X23346833Y-15924065D02*
X23262167Y-15924065D01*
X23262167Y-15924065D02*
X23177500Y-15881732D01*
X23177500Y-15881732D02*
X23135167Y-15839398D01*
X23135167Y-15839398D02*
X23092833Y-15754732D01*
X23092833Y-15754732D02*
X23050500Y-15585398D01*
X23050500Y-15585398D02*
X23050500Y-15373732D01*
X23050500Y-15373732D02*
X23092833Y-15204398D01*
X23092833Y-15204398D02*
X23135167Y-15119732D01*
X23135167Y-15119732D02*
X23177500Y-15077398D01*
X23177500Y-15077398D02*
X23262167Y-15035065D01*
X23939500Y-15331398D02*
X23939500Y-15924065D01*
X23939500Y-15416065D02*
X23981834Y-15373732D01*
X23981834Y-15373732D02*
X24066500Y-15331398D01*
X24066500Y-15331398D02*
X24193500Y-15331398D01*
X24193500Y-15331398D02*
X24278167Y-15373732D01*
X24278167Y-15373732D02*
X24320500Y-15458398D01*
X24320500Y-15458398D02*
X24320500Y-15924065D01*
D15*
X23582333Y-2823380D02*
X23534714Y-2871000D01*
X23534714Y-2871000D02*
X23391857Y-2918619D01*
X23391857Y-2918619D02*
X23296619Y-2918619D01*
X23296619Y-2918619D02*
X23153762Y-2871000D01*
X23153762Y-2871000D02*
X23058524Y-2775761D01*
X23058524Y-2775761D02*
X23010905Y-2680523D01*
X23010905Y-2680523D02*
X22963286Y-2490047D01*
X22963286Y-2490047D02*
X22963286Y-2347190D01*
X22963286Y-2347190D02*
X23010905Y-2156714D01*
X23010905Y-2156714D02*
X23058524Y-2061476D01*
X23058524Y-2061476D02*
X23153762Y-1966238D01*
X23153762Y-1966238D02*
X23296619Y-1918619D01*
X23296619Y-1918619D02*
X23391857Y-1918619D01*
X23391857Y-1918619D02*
X23534714Y-1966238D01*
X23534714Y-1966238D02*
X23582333Y-2013857D01*
X24534714Y-2918619D02*
X23963286Y-2918619D01*
X24249000Y-2918619D02*
X24249000Y-1918619D01*
X24249000Y-1918619D02*
X24153762Y-2061476D01*
X24153762Y-2061476D02*
X24058524Y-2156714D01*
X24058524Y-2156714D02*
X23963286Y-2204333D01*
D11*
X26598033Y-4544865D02*
X26090033Y-4544865D01*
X26344033Y-4544865D02*
X26344033Y-3655865D01*
X26344033Y-3655865D02*
X26259366Y-3782865D01*
X26259366Y-3782865D02*
X26174700Y-3867532D01*
X26174700Y-3867532D02*
X26090033Y-3909865D01*
X27360033Y-3952198D02*
X27360033Y-4544865D01*
X26979033Y-3952198D02*
X26979033Y-4417865D01*
X26979033Y-4417865D02*
X27021367Y-4502532D01*
X27021367Y-4502532D02*
X27106033Y-4544865D01*
X27106033Y-4544865D02*
X27233033Y-4544865D01*
X27233033Y-4544865D02*
X27317700Y-4502532D01*
X27317700Y-4502532D02*
X27360033Y-4460198D01*
D15*
X11441133Y-19327019D02*
X11107800Y-18850828D01*
X10869705Y-19327019D02*
X10869705Y-18327019D01*
X10869705Y-18327019D02*
X11250657Y-18327019D01*
X11250657Y-18327019D02*
X11345895Y-18374638D01*
X11345895Y-18374638D02*
X11393514Y-18422257D01*
X11393514Y-18422257D02*
X11441133Y-18517495D01*
X11441133Y-18517495D02*
X11441133Y-18660352D01*
X11441133Y-18660352D02*
X11393514Y-18755590D01*
X11393514Y-18755590D02*
X11345895Y-18803209D01*
X11345895Y-18803209D02*
X11250657Y-18850828D01*
X11250657Y-18850828D02*
X10869705Y-18850828D01*
X11822086Y-18422257D02*
X11869705Y-18374638D01*
X11869705Y-18374638D02*
X11964943Y-18327019D01*
X11964943Y-18327019D02*
X12203038Y-18327019D01*
X12203038Y-18327019D02*
X12298276Y-18374638D01*
X12298276Y-18374638D02*
X12345895Y-18422257D01*
X12345895Y-18422257D02*
X12393514Y-18517495D01*
X12393514Y-18517495D02*
X12393514Y-18612733D01*
X12393514Y-18612733D02*
X12345895Y-18755590D01*
X12345895Y-18755590D02*
X11774467Y-19327019D01*
X11774467Y-19327019D02*
X12393514Y-19327019D01*
D11*
X28553833Y-46454865D02*
X28553833Y-45565865D01*
X28553833Y-45565865D02*
X28892500Y-45565865D01*
X28892500Y-45565865D02*
X28977167Y-45608198D01*
X28977167Y-45608198D02*
X29019500Y-45650532D01*
X29019500Y-45650532D02*
X29061833Y-45735198D01*
X29061833Y-45735198D02*
X29061833Y-45862198D01*
X29061833Y-45862198D02*
X29019500Y-45946865D01*
X29019500Y-45946865D02*
X28977167Y-45989198D01*
X28977167Y-45989198D02*
X28892500Y-46031532D01*
X28892500Y-46031532D02*
X28553833Y-46031532D01*
X29823833Y-45862198D02*
X29823833Y-46454865D01*
X29612167Y-45523532D02*
X29400500Y-46158532D01*
X29400500Y-46158532D02*
X29950833Y-46158532D01*
D15*
X17801605Y-14461519D02*
X17801605Y-13461519D01*
X17801605Y-13461519D02*
X18039700Y-13461519D01*
X18039700Y-13461519D02*
X18182557Y-13509138D01*
X18182557Y-13509138D02*
X18277795Y-13604376D01*
X18277795Y-13604376D02*
X18325414Y-13699614D01*
X18325414Y-13699614D02*
X18373033Y-13890090D01*
X18373033Y-13890090D02*
X18373033Y-14032947D01*
X18373033Y-14032947D02*
X18325414Y-14223423D01*
X18325414Y-14223423D02*
X18277795Y-14318661D01*
X18277795Y-14318661D02*
X18182557Y-14413900D01*
X18182557Y-14413900D02*
X18039700Y-14461519D01*
X18039700Y-14461519D02*
X17801605Y-14461519D01*
X19325414Y-14461519D02*
X18753986Y-14461519D01*
X19039700Y-14461519D02*
X19039700Y-13461519D01*
X19039700Y-13461519D02*
X18944462Y-13604376D01*
X18944462Y-13604376D02*
X18849224Y-13699614D01*
X18849224Y-13699614D02*
X18753986Y-13747233D01*
X22642533Y-46866980D02*
X22594914Y-46914600D01*
X22594914Y-46914600D02*
X22452057Y-46962219D01*
X22452057Y-46962219D02*
X22356819Y-46962219D01*
X22356819Y-46962219D02*
X22213962Y-46914600D01*
X22213962Y-46914600D02*
X22118724Y-46819361D01*
X22118724Y-46819361D02*
X22071105Y-46724123D01*
X22071105Y-46724123D02*
X22023486Y-46533647D01*
X22023486Y-46533647D02*
X22023486Y-46390790D01*
X22023486Y-46390790D02*
X22071105Y-46200314D01*
X22071105Y-46200314D02*
X22118724Y-46105076D01*
X22118724Y-46105076D02*
X22213962Y-46009838D01*
X22213962Y-46009838D02*
X22356819Y-45962219D01*
X22356819Y-45962219D02*
X22452057Y-45962219D01*
X22452057Y-45962219D02*
X22594914Y-46009838D01*
X22594914Y-46009838D02*
X22642533Y-46057457D01*
X23499676Y-45962219D02*
X23309200Y-45962219D01*
X23309200Y-45962219D02*
X23213962Y-46009838D01*
X23213962Y-46009838D02*
X23166343Y-46057457D01*
X23166343Y-46057457D02*
X23071105Y-46200314D01*
X23071105Y-46200314D02*
X23023486Y-46390790D01*
X23023486Y-46390790D02*
X23023486Y-46771742D01*
X23023486Y-46771742D02*
X23071105Y-46866980D01*
X23071105Y-46866980D02*
X23118724Y-46914600D01*
X23118724Y-46914600D02*
X23213962Y-46962219D01*
X23213962Y-46962219D02*
X23404438Y-46962219D01*
X23404438Y-46962219D02*
X23499676Y-46914600D01*
X23499676Y-46914600D02*
X23547295Y-46866980D01*
X23547295Y-46866980D02*
X23594914Y-46771742D01*
X23594914Y-46771742D02*
X23594914Y-46533647D01*
X23594914Y-46533647D02*
X23547295Y-46438409D01*
X23547295Y-46438409D02*
X23499676Y-46390790D01*
X23499676Y-46390790D02*
X23404438Y-46343171D01*
X23404438Y-46343171D02*
X23213962Y-46343171D01*
X23213962Y-46343171D02*
X23118724Y-46390790D01*
X23118724Y-46390790D02*
X23071105Y-46438409D01*
X23071105Y-46438409D02*
X23023486Y-46533647D01*
D14*
X47166590Y-49254174D02*
X47166590Y-48238174D01*
X48230972Y-49157413D02*
X48182591Y-49205794D01*
X48182591Y-49205794D02*
X48037448Y-49254174D01*
X48037448Y-49254174D02*
X47940686Y-49254174D01*
X47940686Y-49254174D02*
X47795543Y-49205794D01*
X47795543Y-49205794D02*
X47698781Y-49109032D01*
X47698781Y-49109032D02*
X47650400Y-49012270D01*
X47650400Y-49012270D02*
X47602019Y-48818746D01*
X47602019Y-48818746D02*
X47602019Y-48673603D01*
X47602019Y-48673603D02*
X47650400Y-48480079D01*
X47650400Y-48480079D02*
X47698781Y-48383317D01*
X47698781Y-48383317D02*
X47795543Y-48286555D01*
X47795543Y-48286555D02*
X47940686Y-48238174D01*
X47940686Y-48238174D02*
X48037448Y-48238174D01*
X48037448Y-48238174D02*
X48182591Y-48286555D01*
X48182591Y-48286555D02*
X48230972Y-48334936D01*
X49198591Y-49254174D02*
X48618019Y-49254174D01*
X48908305Y-49254174D02*
X48908305Y-48238174D01*
X48908305Y-48238174D02*
X48811543Y-48383317D01*
X48811543Y-48383317D02*
X48714781Y-48480079D01*
X48714781Y-48480079D02*
X48618019Y-48528460D01*
D11*
X37227932Y-60907465D02*
X37227932Y-60018465D01*
X37227932Y-60018465D02*
X37566599Y-60018465D01*
X37566599Y-60018465D02*
X37651266Y-60060798D01*
X37651266Y-60060798D02*
X37693599Y-60103132D01*
X37693599Y-60103132D02*
X37735932Y-60187798D01*
X37735932Y-60187798D02*
X37735932Y-60314798D01*
X37735932Y-60314798D02*
X37693599Y-60399465D01*
X37693599Y-60399465D02*
X37651266Y-60441798D01*
X37651266Y-60441798D02*
X37566599Y-60484132D01*
X37566599Y-60484132D02*
X37227932Y-60484132D01*
X38624932Y-60822798D02*
X38582599Y-60865132D01*
X38582599Y-60865132D02*
X38455599Y-60907465D01*
X38455599Y-60907465D02*
X38370932Y-60907465D01*
X38370932Y-60907465D02*
X38243932Y-60865132D01*
X38243932Y-60865132D02*
X38159266Y-60780465D01*
X38159266Y-60780465D02*
X38116932Y-60695798D01*
X38116932Y-60695798D02*
X38074599Y-60526465D01*
X38074599Y-60526465D02*
X38074599Y-60399465D01*
X38074599Y-60399465D02*
X38116932Y-60230132D01*
X38116932Y-60230132D02*
X38159266Y-60145465D01*
X38159266Y-60145465D02*
X38243932Y-60060798D01*
X38243932Y-60060798D02*
X38370932Y-60018465D01*
X38370932Y-60018465D02*
X38455599Y-60018465D01*
X38455599Y-60018465D02*
X38582599Y-60060798D01*
X38582599Y-60060798D02*
X38624932Y-60103132D01*
X38963599Y-60653465D02*
X39386932Y-60653465D01*
X38878932Y-60907465D02*
X39175266Y-60018465D01*
X39175266Y-60018465D02*
X39471599Y-60907465D01*
X39810266Y-60907465D02*
X39979599Y-60907465D01*
X39979599Y-60907465D02*
X40064266Y-60865132D01*
X40064266Y-60865132D02*
X40106599Y-60822798D01*
X40106599Y-60822798D02*
X40191266Y-60695798D01*
X40191266Y-60695798D02*
X40233599Y-60526465D01*
X40233599Y-60526465D02*
X40233599Y-60187798D01*
X40233599Y-60187798D02*
X40191266Y-60103132D01*
X40191266Y-60103132D02*
X40148932Y-60060798D01*
X40148932Y-60060798D02*
X40064266Y-60018465D01*
X40064266Y-60018465D02*
X39894932Y-60018465D01*
X39894932Y-60018465D02*
X39810266Y-60060798D01*
X39810266Y-60060798D02*
X39767932Y-60103132D01*
X39767932Y-60103132D02*
X39725599Y-60187798D01*
X39725599Y-60187798D02*
X39725599Y-60399465D01*
X39725599Y-60399465D02*
X39767932Y-60484132D01*
X39767932Y-60484132D02*
X39810266Y-60526465D01*
X39810266Y-60526465D02*
X39894932Y-60568798D01*
X39894932Y-60568798D02*
X40064266Y-60568798D01*
X40064266Y-60568798D02*
X40148932Y-60526465D01*
X40148932Y-60526465D02*
X40191266Y-60484132D01*
X40191266Y-60484132D02*
X40233599Y-60399465D01*
X41037933Y-60018465D02*
X40614599Y-60018465D01*
X40614599Y-60018465D02*
X40572266Y-60441798D01*
X40572266Y-60441798D02*
X40614599Y-60399465D01*
X40614599Y-60399465D02*
X40699266Y-60357132D01*
X40699266Y-60357132D02*
X40910933Y-60357132D01*
X40910933Y-60357132D02*
X40995599Y-60399465D01*
X40995599Y-60399465D02*
X41037933Y-60441798D01*
X41037933Y-60441798D02*
X41080266Y-60526465D01*
X41080266Y-60526465D02*
X41080266Y-60738132D01*
X41080266Y-60738132D02*
X41037933Y-60822798D01*
X41037933Y-60822798D02*
X40995599Y-60865132D01*
X40995599Y-60865132D02*
X40910933Y-60907465D01*
X40910933Y-60907465D02*
X40699266Y-60907465D01*
X40699266Y-60907465D02*
X40614599Y-60865132D01*
X40614599Y-60865132D02*
X40572266Y-60822798D01*
X41884600Y-60018465D02*
X41461266Y-60018465D01*
X41461266Y-60018465D02*
X41418933Y-60441798D01*
X41418933Y-60441798D02*
X41461266Y-60399465D01*
X41461266Y-60399465D02*
X41545933Y-60357132D01*
X41545933Y-60357132D02*
X41757600Y-60357132D01*
X41757600Y-60357132D02*
X41842266Y-60399465D01*
X41842266Y-60399465D02*
X41884600Y-60441798D01*
X41884600Y-60441798D02*
X41926933Y-60526465D01*
X41926933Y-60526465D02*
X41926933Y-60738132D01*
X41926933Y-60738132D02*
X41884600Y-60822798D01*
X41884600Y-60822798D02*
X41842266Y-60865132D01*
X41842266Y-60865132D02*
X41757600Y-60907465D01*
X41757600Y-60907465D02*
X41545933Y-60907465D01*
X41545933Y-60907465D02*
X41461266Y-60865132D01*
X41461266Y-60865132D02*
X41418933Y-60822798D01*
X42688933Y-60314798D02*
X42688933Y-60907465D01*
X42477267Y-59976132D02*
X42265600Y-60611132D01*
X42265600Y-60611132D02*
X42815933Y-60611132D01*
X43154600Y-60907465D02*
X43154600Y-60018465D01*
X43154600Y-60018465D02*
X43366267Y-60018465D01*
X43366267Y-60018465D02*
X43493267Y-60060798D01*
X43493267Y-60060798D02*
X43577934Y-60145465D01*
X43577934Y-60145465D02*
X43620267Y-60230132D01*
X43620267Y-60230132D02*
X43662600Y-60399465D01*
X43662600Y-60399465D02*
X43662600Y-60526465D01*
X43662600Y-60526465D02*
X43620267Y-60695798D01*
X43620267Y-60695798D02*
X43577934Y-60780465D01*
X43577934Y-60780465D02*
X43493267Y-60865132D01*
X43493267Y-60865132D02*
X43366267Y-60907465D01*
X43366267Y-60907465D02*
X43154600Y-60907465D01*
X43958934Y-60018465D02*
X44170600Y-60907465D01*
X44170600Y-60907465D02*
X44339934Y-60272465D01*
X44339934Y-60272465D02*
X44509267Y-60907465D01*
X44509267Y-60907465D02*
X44720934Y-60018465D01*
X45567600Y-60907465D02*
X45271267Y-60484132D01*
X45059600Y-60907465D02*
X45059600Y-60018465D01*
X45059600Y-60018465D02*
X45398267Y-60018465D01*
X45398267Y-60018465D02*
X45482934Y-60060798D01*
X45482934Y-60060798D02*
X45525267Y-60103132D01*
X45525267Y-60103132D02*
X45567600Y-60187798D01*
X45567600Y-60187798D02*
X45567600Y-60314798D01*
X45567600Y-60314798D02*
X45525267Y-60399465D01*
X45525267Y-60399465D02*
X45482934Y-60441798D01*
X45482934Y-60441798D02*
X45398267Y-60484132D01*
X45398267Y-60484132D02*
X45059600Y-60484132D01*
D15*
X22642533Y-56036380D02*
X22594914Y-56084000D01*
X22594914Y-56084000D02*
X22452057Y-56131619D01*
X22452057Y-56131619D02*
X22356819Y-56131619D01*
X22356819Y-56131619D02*
X22213962Y-56084000D01*
X22213962Y-56084000D02*
X22118724Y-55988761D01*
X22118724Y-55988761D02*
X22071105Y-55893523D01*
X22071105Y-55893523D02*
X22023486Y-55703047D01*
X22023486Y-55703047D02*
X22023486Y-55560190D01*
X22023486Y-55560190D02*
X22071105Y-55369714D01*
X22071105Y-55369714D02*
X22118724Y-55274476D01*
X22118724Y-55274476D02*
X22213962Y-55179238D01*
X22213962Y-55179238D02*
X22356819Y-55131619D01*
X22356819Y-55131619D02*
X22452057Y-55131619D01*
X22452057Y-55131619D02*
X22594914Y-55179238D01*
X22594914Y-55179238D02*
X22642533Y-55226857D01*
X22975867Y-55131619D02*
X23642533Y-55131619D01*
X23642533Y-55131619D02*
X23213962Y-56131619D01*
D16*
%TO.C,R15*%
X11834864Y-51995400D02*
X11380736Y-51995400D01*
X11834864Y-53465400D02*
X11380736Y-53465400D01*
%TO.C,D3*%
X17780000Y-28168200D02*
X17130000Y-28168200D01*
X17780000Y-28168200D02*
X18430000Y-28168200D01*
X17780000Y-31288200D02*
X17130000Y-31288200D01*
X17780000Y-31288200D02*
X18430000Y-31288200D01*
X19182500Y-31568200D02*
X18702500Y-31568200D01*
X18942500Y-31238200D01*
X19182500Y-31568200D01*
G36*
X19182500Y-31568200D02*
G01*
X18702500Y-31568200D01*
X18942500Y-31238200D01*
X19182500Y-31568200D01*
G37*
%TO.C,JP3*%
X56810400Y-32450000D02*
X56810400Y-31050000D01*
X57510400Y-30350000D02*
X58110400Y-30350000D01*
X58110400Y-33150000D02*
X57510400Y-33150000D01*
X58810400Y-31050000D02*
X58810400Y-32450000D01*
X56810400Y-31050000D02*
G75*
G02*
X57510400Y-30350000I699999J1D01*
G01*
X57510400Y-33150000D02*
G75*
G02*
X56810400Y-32450000I0J700000D01*
G01*
X58110400Y-30350000D02*
G75*
G02*
X58810400Y-31050000I1J-699999D01*
G01*
X58810400Y-32450000D02*
G75*
G02*
X58110400Y-33150000I-700000J0D01*
G01*
%TO.C,D9*%
X52273200Y-19928400D02*
X51623200Y-19928400D01*
X52273200Y-19928400D02*
X52923200Y-19928400D01*
X52273200Y-23048400D02*
X51623200Y-23048400D01*
X52273200Y-23048400D02*
X52923200Y-23048400D01*
X51110700Y-19978400D02*
X50870700Y-19648400D01*
X51350700Y-19648400D01*
X51110700Y-19978400D01*
G36*
X51110700Y-19978400D02*
G01*
X50870700Y-19648400D01*
X51350700Y-19648400D01*
X51110700Y-19978400D01*
G37*
%TO.C,C9*%
X22125000Y-76726148D02*
X22125000Y-77248652D01*
X23595000Y-76726148D02*
X23595000Y-77248652D01*
%TO.C,J16*%
X27880000Y-74666800D02*
X29210000Y-74666800D01*
X27880000Y-75996800D02*
X27880000Y-74666800D01*
X27880000Y-77266800D02*
X27880000Y-77326800D01*
X27880000Y-77266800D02*
X30540000Y-77266800D01*
X27880000Y-77326800D02*
X30540000Y-77326800D01*
X30540000Y-77266800D02*
X30540000Y-77326800D01*
%TO.C,J9*%
X27880000Y-9862332D02*
X29210000Y-9862332D01*
X27880000Y-11192332D02*
X27880000Y-9862332D01*
X27880000Y-12462332D02*
X27880000Y-12522332D01*
X27880000Y-12462332D02*
X30540000Y-12462332D01*
X27880000Y-12522332D02*
X30540000Y-12522332D01*
X30540000Y-12462332D02*
X30540000Y-12522332D01*
D17*
%TO.C,J3*%
X-4990000Y-25563370D02*
X4210000Y-25563370D01*
X-4990000Y-34373370D02*
X-4990000Y-25563370D01*
X4210000Y-25563370D02*
X4210000Y-34373370D01*
X4210000Y-34373370D02*
X-4990000Y-34373370D01*
D16*
%TO.C,C10*%
X22150400Y-84106652D02*
X22150400Y-83584148D01*
X23620400Y-84106652D02*
X23620400Y-83584148D01*
%TO.C,JP2*%
X42078600Y-39176000D02*
X42078600Y-37846000D01*
X43408600Y-39176000D02*
X42078600Y-39176000D01*
X44678600Y-36516000D02*
X49818600Y-36516000D01*
X44678600Y-39176000D02*
X44678600Y-36516000D01*
X44678600Y-39176000D02*
X49818600Y-39176000D01*
X49818600Y-39176000D02*
X49818600Y-36516000D01*
%TO.C,J17*%
X53661000Y-36135000D02*
X54991000Y-36135000D01*
X53661000Y-37465000D02*
X53661000Y-36135000D01*
X53661000Y-38735000D02*
X53661000Y-74355000D01*
X53661000Y-38735000D02*
X56261000Y-38735000D01*
X53661000Y-74355000D02*
X58861000Y-74355000D01*
X56261000Y-36135000D02*
X58861000Y-36135000D01*
X56261000Y-38735000D02*
X56261000Y-36135000D01*
X58861000Y-36135000D02*
X58861000Y-74355000D01*
%TO.C,R12*%
X11860264Y-24004600D02*
X11406136Y-24004600D01*
X11860264Y-25474600D02*
X11406136Y-25474600D01*
%TO.C,H4*%
X56184801Y-91287600D02*
X56184801Y-91287600D01*
X56184801Y-91287600D01*
X56184801Y-91287600D01*
X56184801Y-91287600D01*
X56184801Y-91287600D01*
X56184801Y-91287601D01*
X56184801Y-91287601D01*
X56184801Y-91287601D01*
X56184801Y-91287601D01*
X56184801Y-91287601D01*
X56184801Y-91287601D01*
X56184801Y-91287601D01*
X56184800Y-91287601D01*
X56184800Y-91287601D01*
X56184800Y-91287601D01*
X56184800Y-91287601D01*
X56184800Y-91287601D01*
X56184800Y-91287601D01*
X56184800Y-91287601D01*
X56184800Y-91287601D01*
X56184800Y-91287601D01*
X56184800Y-91287601D01*
X56184800Y-91287601D01*
X56184800Y-91287601D01*
X56184799Y-91287601D01*
X56184799Y-91287601D01*
X56184799Y-91287601D01*
X56184799Y-91287601D01*
X56184799Y-91287601D01*
X56184799Y-91287601D01*
X56184799Y-91287600D01*
X56184799Y-91287600D01*
X56184799Y-91287600D01*
X56184799Y-91287600D01*
X56184799Y-91287600D01*
X56184799Y-91287600D01*
X56184799Y-91287600D02*
X56184799Y-91287600D01*
X56184799Y-91287600D01*
X56184799Y-91287600D01*
X56184799Y-91287600D01*
X56184799Y-91287600D01*
X56184799Y-91287600D01*
X56184799Y-91287599D01*
X56184799Y-91287599D01*
X56184799Y-91287599D01*
X56184799Y-91287599D01*
X56184799Y-91287599D01*
X56184800Y-91287599D01*
X56184800Y-91287599D01*
X56184800Y-91287599D01*
X56184800Y-91287599D01*
X56184800Y-91287599D01*
X56184800Y-91287599D01*
X56184800Y-91287599D01*
X56184800Y-91287599D01*
X56184800Y-91287599D01*
X56184800Y-91287599D01*
X56184800Y-91287599D01*
X56184800Y-91287599D01*
X56184801Y-91287599D01*
X56184801Y-91287599D01*
X56184801Y-91287599D01*
X56184801Y-91287599D01*
X56184801Y-91287599D01*
X56184801Y-91287599D01*
X56184801Y-91287600D01*
X56184801Y-91287600D01*
X56184801Y-91287600D01*
X56184801Y-91287600D01*
X56184801Y-91287600D01*
X56184801Y-91287600D01*
X56184801Y-91287600D01*
%TO.C,J10*%
X27880000Y-19142400D02*
X29210000Y-19142400D01*
X27880000Y-20472400D02*
X27880000Y-19142400D01*
X27880000Y-21742400D02*
X27880000Y-21802400D01*
X27880000Y-21742400D02*
X30540000Y-21742400D01*
X27880000Y-21802400D02*
X30540000Y-21802400D01*
X30540000Y-21742400D02*
X30540000Y-21802400D01*
%TO.C,D5*%
X17780000Y-46739500D02*
X17130000Y-46739500D01*
X17780000Y-46739500D02*
X18430000Y-46739500D01*
X17780000Y-49859500D02*
X17130000Y-49859500D01*
X17780000Y-49859500D02*
X18430000Y-49859500D01*
X19182500Y-50139500D02*
X18702500Y-50139500D01*
X18942500Y-49809500D01*
X19182500Y-50139500D01*
G36*
X19182500Y-50139500D02*
G01*
X18702500Y-50139500D01*
X18942500Y-49809500D01*
X19182500Y-50139500D01*
G37*
%TO.C,J11*%
X27880000Y-28413400D02*
X29210000Y-28413400D01*
X27880000Y-29743400D02*
X27880000Y-28413400D01*
X27880000Y-31013400D02*
X27880000Y-31073400D01*
X27880000Y-31013400D02*
X30540000Y-31013400D01*
X27880000Y-31073400D02*
X30540000Y-31073400D01*
X30540000Y-31013400D02*
X30540000Y-31073400D01*
%TO.C,R5*%
X11860264Y-47550400D02*
X11406136Y-47550400D01*
X11860264Y-49020400D02*
X11406136Y-49020400D01*
%TO.C,R6*%
X11860264Y-56821400D02*
X11406136Y-56821400D01*
X11860264Y-58291400D02*
X11406136Y-58291400D01*
D17*
%TO.C,J8*%
X-4990000Y-82640800D02*
X4210000Y-82640800D01*
X-4990000Y-91450800D02*
X-4990000Y-82640800D01*
X4210000Y-82640800D02*
X4210000Y-91450800D01*
X4210000Y-91450800D02*
X-4990000Y-91450800D01*
D16*
%TO.C,R14*%
X11860264Y-42572000D02*
X11406136Y-42572000D01*
X11860264Y-44042000D02*
X11406136Y-44042000D01*
%TO.C,C5*%
X22125000Y-39685690D02*
X22125000Y-40208194D01*
X23595000Y-39685690D02*
X23595000Y-40208194D01*
%TO.C,D2*%
X17756900Y-18998800D02*
X17106900Y-18998800D01*
X17756900Y-18998800D02*
X18406900Y-18998800D01*
X17756900Y-22118800D02*
X17106900Y-22118800D01*
X17756900Y-22118800D02*
X18406900Y-22118800D01*
X19159400Y-22398800D02*
X18679400Y-22398800D01*
X18919400Y-22068800D01*
X19159400Y-22398800D01*
G36*
X19159400Y-22398800D02*
G01*
X18679400Y-22398800D01*
X18919400Y-22068800D01*
X19159400Y-22398800D01*
G37*
%TO.C,C11*%
X48947400Y-54210852D02*
X48947400Y-53688348D01*
X50417400Y-54210852D02*
X50417400Y-53688348D01*
D17*
%TO.C,J4*%
X-4990000Y-36978855D02*
X4210000Y-36978855D01*
X-4990000Y-45788855D02*
X-4990000Y-36978855D01*
X4210000Y-36978855D02*
X4210000Y-45788855D01*
X4210000Y-45788855D02*
X-4990000Y-45788855D01*
D16*
%TO.C,JP1*%
X42078600Y-32470400D02*
X42078600Y-31140400D01*
X43408600Y-32470400D02*
X42078600Y-32470400D01*
X44678600Y-29810400D02*
X49818600Y-29810400D01*
X44678600Y-32470400D02*
X44678600Y-29810400D01*
X44678600Y-32470400D02*
X49818600Y-32470400D01*
X49818600Y-32470400D02*
X49818600Y-29810400D01*
D17*
%TO.C,J1*%
X-4990000Y-2732400D02*
X4210000Y-2732400D01*
X-4990000Y-11542400D02*
X-4990000Y-2732400D01*
X4210000Y-2732400D02*
X4210000Y-11542400D01*
X4210000Y-11542400D02*
X-4990000Y-11542400D01*
D16*
%TO.C,D8*%
X17780000Y-74462200D02*
X17130000Y-74462200D01*
X17780000Y-74462200D02*
X18430000Y-74462200D01*
X17780000Y-77582200D02*
X17130000Y-77582200D01*
X17780000Y-77582200D02*
X18430000Y-77582200D01*
X19182500Y-77862200D02*
X18702500Y-77862200D01*
X18942500Y-77532200D01*
X19182500Y-77862200D01*
G36*
X19182500Y-77862200D02*
G01*
X18702500Y-77862200D01*
X18942500Y-77532200D01*
X19182500Y-77862200D01*
G37*
%TO.C,C3*%
X22125000Y-21165462D02*
X22125000Y-21687966D01*
X23595000Y-21165462D02*
X23595000Y-21687966D01*
%TO.C,CON2*%
X31916600Y-89528000D02*
X32966600Y-89528000D01*
X31916600Y-91160600D02*
X31916600Y-89528000D01*
X32966600Y-89528000D02*
X32966600Y-88538000D01*
X33086600Y-93998000D02*
X36966600Y-93998000D01*
X38136600Y-89528000D02*
X37086600Y-89528000D01*
X38136600Y-91160600D02*
X38136600Y-89528000D01*
%TO.C,R11*%
X11834864Y-14911400D02*
X11380736Y-14911400D01*
X11834864Y-16381400D02*
X11380736Y-16381400D01*
D17*
%TO.C,J6*%
X-4990000Y-59809825D02*
X4210000Y-59809825D01*
X-4990000Y-68619825D02*
X-4990000Y-59809825D01*
X4210000Y-59809825D02*
X4210000Y-68619825D01*
X4210000Y-68619825D02*
X-4990000Y-68619825D01*
D16*
%TO.C,D7*%
X17780000Y-65193210D02*
X17130000Y-65193210D01*
X17780000Y-65193210D02*
X18430000Y-65193210D01*
X17780000Y-68313210D02*
X17130000Y-68313210D01*
X17780000Y-68313210D02*
X18430000Y-68313210D01*
X19182500Y-68593210D02*
X18702500Y-68593210D01*
X18942500Y-68263210D01*
X19182500Y-68593210D01*
G36*
X19182500Y-68593210D02*
G01*
X18702500Y-68593210D01*
X18942500Y-68263210D01*
X19182500Y-68593210D01*
G37*
%TO.C,R13*%
X11911064Y-33275600D02*
X11456936Y-33275600D01*
X11911064Y-34745600D02*
X11456936Y-34745600D01*
%TO.C,R18*%
X11885664Y-80037000D02*
X11431536Y-80037000D01*
X11885664Y-81507000D02*
X11431536Y-81507000D01*
%TO.C,R4*%
X11860264Y-38279400D02*
X11406136Y-38279400D01*
X11860264Y-39749400D02*
X11406136Y-39749400D01*
%TO.C,C8*%
X22125000Y-67466032D02*
X22125000Y-67988536D01*
X23595000Y-67466032D02*
X23595000Y-67988536D01*
%TO.C,CON3*%
X40783200Y-90872000D02*
X40783200Y-93532000D01*
X48463200Y-90872000D02*
X40783200Y-90872000D01*
X48463200Y-90872000D02*
X48463200Y-93532000D01*
X48463200Y-93532000D02*
X40783200Y-93532000D01*
X51063200Y-92202000D02*
X51063200Y-93532000D01*
X51063200Y-93532000D02*
X49733200Y-93532000D01*
%TO.C,R7*%
X11860264Y-66016200D02*
X11406136Y-66016200D01*
X11860264Y-67486200D02*
X11406136Y-67486200D01*
%TO.C,R1*%
X11860264Y-10542600D02*
X11406136Y-10542600D01*
X11860264Y-12012600D02*
X11406136Y-12012600D01*
%TO.C,R3*%
X11860264Y-29008400D02*
X11406136Y-29008400D01*
X11860264Y-30478400D02*
X11406136Y-30478400D01*
%TO.C,J12*%
X27880000Y-37659000D02*
X29210000Y-37659000D01*
X27880000Y-38989000D02*
X27880000Y-37659000D01*
X27880000Y-40259000D02*
X27880000Y-40319000D01*
X27880000Y-40259000D02*
X30540000Y-40259000D01*
X27880000Y-40319000D02*
X30540000Y-40319000D01*
X30540000Y-40259000D02*
X30540000Y-40319000D01*
D17*
%TO.C,J7*%
X-4990000Y-71225310D02*
X4210000Y-71225310D01*
X-4990000Y-80035310D02*
X-4990000Y-71225310D01*
X4210000Y-71225310D02*
X4210000Y-80035310D01*
X4210000Y-80035310D02*
X-4990000Y-80035310D01*
D16*
%TO.C,CON1*%
X18685200Y-90897400D02*
X18685200Y-93557400D01*
X26365200Y-90897400D02*
X18685200Y-90897400D01*
X26365200Y-90897400D02*
X26365200Y-93557400D01*
X26365200Y-93557400D02*
X18685200Y-93557400D01*
X28965200Y-92227400D02*
X28965200Y-93557400D01*
X28965200Y-93557400D02*
X27635200Y-93557400D01*
%TO.C,D6*%
X17780000Y-55981200D02*
X17130000Y-55981200D01*
X17780000Y-55981200D02*
X18430000Y-55981200D01*
X17780000Y-59101200D02*
X17130000Y-59101200D01*
X17780000Y-59101200D02*
X18430000Y-59101200D01*
X19182500Y-59381200D02*
X18702500Y-59381200D01*
X18942500Y-59051200D01*
X19182500Y-59381200D01*
G36*
X19182500Y-59381200D02*
G01*
X18702500Y-59381200D01*
X18942500Y-59051200D01*
X19182500Y-59381200D01*
G37*
%TO.C,J19*%
X56455000Y-25238400D02*
X57785000Y-25238400D01*
X56455000Y-26568400D02*
X56455000Y-25238400D01*
X56455000Y-27838400D02*
X56455000Y-27898400D01*
X56455000Y-27838400D02*
X59115000Y-27838400D01*
X56455000Y-27898400D02*
X59115000Y-27898400D01*
X59115000Y-27838400D02*
X59115000Y-27898400D01*
%TO.C,H3*%
X56235601Y-4007600D02*
X56235601Y-4007600D01*
X56235601Y-4007600D01*
X56235601Y-4007600D01*
X56235601Y-4007600D01*
X56235601Y-4007600D01*
X56235601Y-4007601D01*
X56235601Y-4007601D01*
X56235601Y-4007601D01*
X56235601Y-4007601D01*
X56235601Y-4007601D01*
X56235601Y-4007601D01*
X56235601Y-4007601D01*
X56235600Y-4007601D01*
X56235600Y-4007601D01*
X56235600Y-4007601D01*
X56235600Y-4007601D01*
X56235600Y-4007601D01*
X56235600Y-4007601D01*
X56235600Y-4007601D01*
X56235600Y-4007601D01*
X56235600Y-4007601D01*
X56235600Y-4007601D01*
X56235600Y-4007601D01*
X56235600Y-4007601D01*
X56235599Y-4007601D01*
X56235599Y-4007601D01*
X56235599Y-4007601D01*
X56235599Y-4007601D01*
X56235599Y-4007601D01*
X56235599Y-4007601D01*
X56235599Y-4007600D01*
X56235599Y-4007600D01*
X56235599Y-4007600D01*
X56235599Y-4007600D01*
X56235599Y-4007600D01*
X56235599Y-4007600D01*
X56235599Y-4007600D02*
X56235599Y-4007600D01*
X56235599Y-4007600D01*
X56235599Y-4007600D01*
X56235599Y-4007600D01*
X56235599Y-4007600D01*
X56235599Y-4007600D01*
X56235599Y-4007599D01*
X56235599Y-4007599D01*
X56235599Y-4007599D01*
X56235599Y-4007599D01*
X56235599Y-4007599D01*
X56235600Y-4007599D01*
X56235600Y-4007599D01*
X56235600Y-4007599D01*
X56235600Y-4007599D01*
X56235600Y-4007599D01*
X56235600Y-4007599D01*
X56235600Y-4007599D01*
X56235600Y-4007599D01*
X56235600Y-4007599D01*
X56235600Y-4007599D01*
X56235600Y-4007599D01*
X56235600Y-4007599D01*
X56235601Y-4007599D01*
X56235601Y-4007599D01*
X56235601Y-4007599D01*
X56235601Y-4007599D01*
X56235601Y-4007599D01*
X56235601Y-4007599D01*
X56235601Y-4007600D01*
X56235601Y-4007600D01*
X56235601Y-4007600D01*
X56235601Y-4007600D01*
X56235601Y-4007600D01*
X56235601Y-4007600D01*
X56235601Y-4007600D01*
%TO.C,J14*%
X27880000Y-56175600D02*
X29210000Y-56175600D01*
X27880000Y-57505600D02*
X27880000Y-56175600D01*
X27880000Y-58775600D02*
X27880000Y-58835600D01*
X27880000Y-58775600D02*
X30540000Y-58775600D01*
X27880000Y-58835600D02*
X30540000Y-58835600D01*
X30540000Y-58775600D02*
X30540000Y-58835600D01*
%TO.C,J15*%
X27880000Y-65421200D02*
X29210000Y-65421200D01*
X27880000Y-66751200D02*
X27880000Y-65421200D01*
X27880000Y-68021200D02*
X27880000Y-68081200D01*
X27880000Y-68021200D02*
X30540000Y-68021200D01*
X27880000Y-68081200D02*
X30540000Y-68081200D01*
X30540000Y-68021200D02*
X30540000Y-68081200D01*
%TO.C,R8*%
X11860264Y-75287200D02*
X11406136Y-75287200D01*
X11860264Y-76757200D02*
X11406136Y-76757200D01*
%TO.C,R10*%
X56973800Y-21563064D02*
X56973800Y-21108936D01*
X58443800Y-21563064D02*
X58443800Y-21108936D01*
%TO.C,R17*%
X11834864Y-70207200D02*
X11380736Y-70207200D01*
X11834864Y-71677200D02*
X11380736Y-71677200D01*
D17*
%TO.C,J2*%
X-4990000Y-14147885D02*
X4210000Y-14147885D01*
X-4990000Y-22957885D02*
X-4990000Y-14147885D01*
X4210000Y-14147885D02*
X4210000Y-22957885D01*
X4210000Y-22957885D02*
X-4990000Y-22957885D01*
D16*
%TO.C,J18*%
X56404200Y-14706600D02*
X56404200Y-12106600D01*
X59064200Y-12106600D02*
X56404200Y-12106600D01*
X59064200Y-14706600D02*
X56404200Y-14706600D01*
X59064200Y-14706600D02*
X59064200Y-12106600D01*
X59064200Y-15976600D02*
X59064200Y-17306600D01*
X59064200Y-17306600D02*
X57734200Y-17306600D01*
%TO.C,C4*%
X22125000Y-30425576D02*
X22125000Y-30948080D01*
X23595000Y-30425576D02*
X23595000Y-30948080D01*
%TO.C,D4*%
X17780000Y-37418800D02*
X17130000Y-37418800D01*
X17780000Y-37418800D02*
X18430000Y-37418800D01*
X17780000Y-40538800D02*
X17130000Y-40538800D01*
X17780000Y-40538800D02*
X18430000Y-40538800D01*
X19182500Y-40818800D02*
X18702500Y-40818800D01*
X18942500Y-40488800D01*
X19182500Y-40818800D01*
G36*
X19182500Y-40818800D02*
G01*
X18702500Y-40818800D01*
X18942500Y-40488800D01*
X19182500Y-40818800D01*
G37*
%TO.C,R9*%
X51538200Y-14527264D02*
X51538200Y-14073136D01*
X53008200Y-14527264D02*
X53008200Y-14073136D01*
%TO.C,R16*%
X11860264Y-61266400D02*
X11406136Y-61266400D01*
X11860264Y-62736400D02*
X11406136Y-62736400D01*
%TO.C,C2*%
X22125000Y-11905348D02*
X22125000Y-12427852D01*
X23595000Y-11905348D02*
X23595000Y-12427852D01*
%TO.C,H1*%
X12000001Y-4007600D02*
X12000001Y-4007600D01*
X12000001Y-4007600D01*
X12000001Y-4007600D01*
X12000001Y-4007600D01*
X12000001Y-4007600D01*
X12000001Y-4007601D01*
X12000001Y-4007601D01*
X12000001Y-4007601D01*
X12000001Y-4007601D01*
X12000001Y-4007601D01*
X12000001Y-4007601D01*
X12000001Y-4007601D01*
X12000000Y-4007601D01*
X12000000Y-4007601D01*
X12000000Y-4007601D01*
X12000000Y-4007601D01*
X12000000Y-4007601D01*
X12000000Y-4007601D01*
X12000000Y-4007601D01*
X12000000Y-4007601D01*
X12000000Y-4007601D01*
X12000000Y-4007601D01*
X12000000Y-4007601D01*
X12000000Y-4007601D01*
X11999999Y-4007601D01*
X11999999Y-4007601D01*
X11999999Y-4007601D01*
X11999999Y-4007601D01*
X11999999Y-4007601D01*
X11999999Y-4007601D01*
X11999999Y-4007600D01*
X11999999Y-4007600D01*
X11999999Y-4007600D01*
X11999999Y-4007600D01*
X11999999Y-4007600D01*
X11999999Y-4007600D01*
X11999999Y-4007600D02*
X11999999Y-4007600D01*
X11999999Y-4007600D01*
X11999999Y-4007600D01*
X11999999Y-4007600D01*
X11999999Y-4007600D01*
X11999999Y-4007600D01*
X11999999Y-4007599D01*
X11999999Y-4007599D01*
X11999999Y-4007599D01*
X11999999Y-4007599D01*
X11999999Y-4007599D01*
X12000000Y-4007599D01*
X12000000Y-4007599D01*
X12000000Y-4007599D01*
X12000000Y-4007599D01*
X12000000Y-4007599D01*
X12000000Y-4007599D01*
X12000000Y-4007599D01*
X12000000Y-4007599D01*
X12000000Y-4007599D01*
X12000000Y-4007599D01*
X12000000Y-4007599D01*
X12000000Y-4007599D01*
X12000001Y-4007599D01*
X12000001Y-4007599D01*
X12000001Y-4007599D01*
X12000001Y-4007599D01*
X12000001Y-4007599D01*
X12000001Y-4007599D01*
X12000001Y-4007600D01*
X12000001Y-4007600D01*
X12000001Y-4007600D01*
X12000001Y-4007600D01*
X12000001Y-4007600D01*
X12000001Y-4007600D01*
X12000001Y-4007600D01*
%TO.C,H2*%
X12000001Y-91287600D02*
X12000001Y-91287600D01*
X12000001Y-91287600D01*
X12000001Y-91287600D01*
X12000001Y-91287600D01*
X12000001Y-91287600D01*
X12000001Y-91287601D01*
X12000001Y-91287601D01*
X12000001Y-91287601D01*
X12000001Y-91287601D01*
X12000001Y-91287601D01*
X12000001Y-91287601D01*
X12000001Y-91287601D01*
X12000000Y-91287601D01*
X12000000Y-91287601D01*
X12000000Y-91287601D01*
X12000000Y-91287601D01*
X12000000Y-91287601D01*
X12000000Y-91287601D01*
X12000000Y-91287601D01*
X12000000Y-91287601D01*
X12000000Y-91287601D01*
X12000000Y-91287601D01*
X12000000Y-91287601D01*
X12000000Y-91287601D01*
X11999999Y-91287601D01*
X11999999Y-91287601D01*
X11999999Y-91287601D01*
X11999999Y-91287601D01*
X11999999Y-91287601D01*
X11999999Y-91287601D01*
X11999999Y-91287600D01*
X11999999Y-91287600D01*
X11999999Y-91287600D01*
X11999999Y-91287600D01*
X11999999Y-91287600D01*
X11999999Y-91287600D01*
X11999999Y-91287600D02*
X11999999Y-91287600D01*
X11999999Y-91287600D01*
X11999999Y-91287600D01*
X11999999Y-91287600D01*
X11999999Y-91287600D01*
X11999999Y-91287600D01*
X11999999Y-91287599D01*
X11999999Y-91287599D01*
X11999999Y-91287599D01*
X11999999Y-91287599D01*
X11999999Y-91287599D01*
X12000000Y-91287599D01*
X12000000Y-91287599D01*
X12000000Y-91287599D01*
X12000000Y-91287599D01*
X12000000Y-91287599D01*
X12000000Y-91287599D01*
X12000000Y-91287599D01*
X12000000Y-91287599D01*
X12000000Y-91287599D01*
X12000000Y-91287599D01*
X12000000Y-91287599D01*
X12000000Y-91287599D01*
X12000001Y-91287599D01*
X12000001Y-91287599D01*
X12000001Y-91287599D01*
X12000001Y-91287599D01*
X12000001Y-91287599D01*
X12000001Y-91287599D01*
X12000001Y-91287600D01*
X12000001Y-91287600D01*
X12000001Y-91287600D01*
X12000001Y-91287600D01*
X12000001Y-91287600D01*
X12000001Y-91287600D01*
X12000001Y-91287600D01*
%TO.C,C1*%
X23411548Y-3456000D02*
X23934052Y-3456000D01*
X23411548Y-4926000D02*
X23934052Y-4926000D01*
%TO.C,R2*%
X11860264Y-19813600D02*
X11406136Y-19813600D01*
X11860264Y-21283600D02*
X11406136Y-21283600D01*
%TO.C,CON4*%
X54603000Y-78881200D02*
X54603000Y-79931200D01*
X54603000Y-84051200D02*
X53613000Y-84051200D01*
X54603000Y-85101200D02*
X54603000Y-84051200D01*
X56235600Y-78881200D02*
X54603000Y-78881200D01*
X56235600Y-85101200D02*
X54603000Y-85101200D01*
X59073000Y-83931200D02*
X59073000Y-80051200D01*
%TO.C,J13*%
X27880000Y-46930000D02*
X29210000Y-46930000D01*
X27880000Y-48260000D02*
X27880000Y-46930000D01*
X27880000Y-49530000D02*
X27880000Y-49590000D01*
X27880000Y-49530000D02*
X30540000Y-49530000D01*
X27880000Y-49590000D02*
X30540000Y-49590000D01*
X30540000Y-49530000D02*
X30540000Y-49590000D01*
%TO.C,D1*%
X17777700Y-9666800D02*
X17127700Y-9666800D01*
X17777700Y-9666800D02*
X18427700Y-9666800D01*
X17777700Y-12786800D02*
X17127700Y-12786800D01*
X17777700Y-12786800D02*
X18427700Y-12786800D01*
X19180200Y-13066800D02*
X18700200Y-13066800D01*
X18940200Y-12736800D01*
X19180200Y-13066800D01*
G36*
X19180200Y-13066800D02*
G01*
X18700200Y-13066800D01*
X18940200Y-12736800D01*
X19180200Y-13066800D01*
G37*
%TO.C,C6*%
X22125000Y-48945804D02*
X22125000Y-49468308D01*
X23595000Y-48945804D02*
X23595000Y-49468308D01*
D18*
%TO.C,IC1*%
X36353600Y-50067000D02*
X46653600Y-50067000D01*
X36353600Y-56867000D02*
X36353600Y-50067000D01*
X46623600Y-47767000D02*
X46623600Y-49717000D01*
X46653600Y-50067000D02*
X46653600Y-56867000D01*
X46653600Y-56867000D02*
X36353600Y-56867000D01*
D17*
%TO.C,J5*%
X-4990000Y-48394340D02*
X4210000Y-48394340D01*
X-4990000Y-57204340D02*
X-4990000Y-48394340D01*
X4210000Y-48394340D02*
X4210000Y-57204340D01*
X4210000Y-57204340D02*
X-4990000Y-57204340D01*
D16*
%TO.C,C7*%
X22125000Y-58205918D02*
X22125000Y-58728422D01*
X23595000Y-58205918D02*
X23595000Y-58728422D01*
%TD*%
%LPC*%
D19*
%TO.C,R15*%
X12607800Y-52730400D03*
X10607800Y-52730400D03*
%TD*%
D20*
%TO.C,D3*%
X18717500Y-30678200D03*
X18717500Y-28778200D03*
X16842500Y-29728200D03*
%TD*%
D21*
%TO.C,JP3*%
X57810400Y-31100000D03*
D22*
X57810400Y-32400000D03*
%TD*%
D23*
%TO.C,D9*%
X51335700Y-20538400D03*
X51335700Y-22438400D03*
X53210700Y-21488400D03*
%TD*%
D24*
%TO.C,C9*%
X22860000Y-75949900D03*
X22860000Y-78024900D03*
%TD*%
D25*
%TO.C,J16*%
X29210000Y-75996800D03*
%TD*%
%TO.C,J9*%
X29210000Y-11192332D03*
%TD*%
D26*
%TO.C,J3*%
X3000000Y-31873370D03*
X3000000Y-28063370D03*
%TD*%
D27*
%TO.C,C10*%
X22885400Y-84882900D03*
X22885400Y-82807900D03*
%TD*%
D25*
%TO.C,JP2*%
X43408600Y-37846000D03*
D28*
X45948600Y-37846000D03*
X48488600Y-37846000D03*
%TD*%
D25*
%TO.C,J17*%
X54991000Y-37465000D03*
D28*
X57531000Y-37465000D03*
X54991000Y-40005000D03*
X57531000Y-40005000D03*
X54991000Y-42545000D03*
X57531000Y-42545000D03*
X54991000Y-45085000D03*
X57531000Y-45085000D03*
X54991000Y-47625000D03*
X57531000Y-47625000D03*
X54991000Y-50165000D03*
X57531000Y-50165000D03*
X54991000Y-52705000D03*
X57531000Y-52705000D03*
X54991000Y-55245000D03*
X57531000Y-55245000D03*
X54991000Y-57785000D03*
X57531000Y-57785000D03*
X54991000Y-60325000D03*
X57531000Y-60325000D03*
X54991000Y-62865000D03*
X57531000Y-62865000D03*
X54991000Y-65405000D03*
X57531000Y-65405000D03*
X54991000Y-67945000D03*
X57531000Y-67945000D03*
X54991000Y-70485000D03*
X57531000Y-70485000D03*
X54991000Y-73025000D03*
X57531000Y-73025000D03*
%TD*%
D19*
%TO.C,R12*%
X12633200Y-24739600D03*
X10633200Y-24739600D03*
%TD*%
D29*
%TO.C,H4*%
X56184800Y-91287600D03*
%TD*%
D25*
%TO.C,J10*%
X29210000Y-20472400D03*
%TD*%
D20*
%TO.C,D5*%
X18717500Y-49249500D03*
X18717500Y-47349500D03*
X16842500Y-48299500D03*
%TD*%
D25*
%TO.C,J11*%
X29210000Y-29743400D03*
%TD*%
D19*
%TO.C,R5*%
X12633200Y-48285400D03*
X10633200Y-48285400D03*
%TD*%
%TO.C,R6*%
X12633200Y-57556400D03*
X10633200Y-57556400D03*
%TD*%
D26*
%TO.C,J8*%
X3000000Y-88950800D03*
X3000000Y-85140800D03*
%TD*%
D19*
%TO.C,R14*%
X12633200Y-43307000D03*
X10633200Y-43307000D03*
%TD*%
D24*
%TO.C,C5*%
X22860000Y-38909442D03*
X22860000Y-40984442D03*
%TD*%
D20*
%TO.C,D2*%
X18694400Y-21508800D03*
X18694400Y-19608800D03*
X16819400Y-20558800D03*
%TD*%
D27*
%TO.C,C11*%
X49682400Y-54987100D03*
X49682400Y-52912100D03*
%TD*%
D26*
%TO.C,J4*%
X3000000Y-43288855D03*
X3000000Y-39478855D03*
%TD*%
D25*
%TO.C,JP1*%
X43408600Y-31140400D03*
D28*
X45948600Y-31140400D03*
X48488600Y-31140400D03*
%TD*%
D26*
%TO.C,J1*%
X3000000Y-9042400D03*
X3000000Y-5232400D03*
%TD*%
D20*
%TO.C,D8*%
X18717500Y-76972200D03*
X18717500Y-75072200D03*
X16842500Y-76022200D03*
%TD*%
D24*
%TO.C,C3*%
X22860000Y-20389214D03*
X22860000Y-22464214D03*
%TD*%
D30*
%TO.C,CON2*%
X33526600Y-89313000D03*
X34526600Y-89313000D03*
X35526600Y-89313000D03*
X36526600Y-89313000D03*
D31*
X31826200Y-92735400D03*
X38277800Y-92735400D03*
%TD*%
D19*
%TO.C,R11*%
X12607800Y-15646400D03*
X10607800Y-15646400D03*
%TD*%
D26*
%TO.C,J6*%
X3000000Y-66119825D03*
X3000000Y-62309825D03*
%TD*%
D20*
%TO.C,D7*%
X18717500Y-67703210D03*
X18717500Y-65803210D03*
X16842500Y-66753210D03*
%TD*%
D19*
%TO.C,R13*%
X12684000Y-34010600D03*
X10684000Y-34010600D03*
%TD*%
%TO.C,R18*%
X12658600Y-80772000D03*
X10658600Y-80772000D03*
%TD*%
%TO.C,R4*%
X12633200Y-39014400D03*
X10633200Y-39014400D03*
%TD*%
D24*
%TO.C,C8*%
X22860000Y-66689784D03*
X22860000Y-68764784D03*
%TD*%
D25*
%TO.C,CON3*%
X49733200Y-92202000D03*
D28*
X47193200Y-92202000D03*
X44653200Y-92202000D03*
X42113200Y-92202000D03*
%TD*%
D19*
%TO.C,R7*%
X12633200Y-66751200D03*
X10633200Y-66751200D03*
%TD*%
%TO.C,R1*%
X12633200Y-11277600D03*
X10633200Y-11277600D03*
%TD*%
%TO.C,R3*%
X12633200Y-29743400D03*
X10633200Y-29743400D03*
%TD*%
D25*
%TO.C,J12*%
X29210000Y-38989000D03*
%TD*%
D26*
%TO.C,J7*%
X3000000Y-77535310D03*
X3000000Y-73725310D03*
%TD*%
D25*
%TO.C,CON1*%
X27635200Y-92227400D03*
D28*
X25095200Y-92227400D03*
X22555200Y-92227400D03*
X20015200Y-92227400D03*
%TD*%
D20*
%TO.C,D6*%
X18717500Y-58491200D03*
X18717500Y-56591200D03*
X16842500Y-57541200D03*
%TD*%
D25*
%TO.C,J19*%
X57785000Y-26568400D03*
%TD*%
D29*
%TO.C,H3*%
X56235600Y-4007600D03*
%TD*%
D25*
%TO.C,J14*%
X29210000Y-57505600D03*
%TD*%
%TO.C,J15*%
X29210000Y-66751200D03*
%TD*%
D19*
%TO.C,R8*%
X12633200Y-76022200D03*
X10633200Y-76022200D03*
%TD*%
D32*
%TO.C,R10*%
X57708800Y-22336000D03*
X57708800Y-20336000D03*
%TD*%
D19*
%TO.C,R17*%
X12607800Y-70942200D03*
X10607800Y-70942200D03*
%TD*%
D26*
%TO.C,J2*%
X3000000Y-20457885D03*
X3000000Y-16647885D03*
%TD*%
D25*
%TO.C,J18*%
X57734200Y-15976600D03*
D28*
X57734200Y-13436600D03*
%TD*%
D24*
%TO.C,C4*%
X22860000Y-29649328D03*
X22860000Y-31724328D03*
%TD*%
D20*
%TO.C,D4*%
X18717500Y-39928800D03*
X18717500Y-38028800D03*
X16842500Y-38978800D03*
%TD*%
D32*
%TO.C,R9*%
X52273200Y-15300200D03*
X52273200Y-13300200D03*
%TD*%
D19*
%TO.C,R16*%
X12633200Y-62001400D03*
X10633200Y-62001400D03*
%TD*%
D24*
%TO.C,C2*%
X22860000Y-11129100D03*
X22860000Y-13204100D03*
%TD*%
D29*
%TO.C,H1*%
X12000000Y-4007600D03*
%TD*%
%TO.C,H2*%
X12000000Y-91287600D03*
%TD*%
D33*
%TO.C,C1*%
X22635300Y-4191000D03*
X24710300Y-4191000D03*
%TD*%
D19*
%TO.C,R2*%
X12633200Y-20548600D03*
X10633200Y-20548600D03*
%TD*%
D34*
%TO.C,CON4*%
X54388000Y-83491200D03*
X54388000Y-82491200D03*
X54388000Y-81491200D03*
X54388000Y-80491200D03*
D35*
X57810400Y-85191600D03*
X57810400Y-78740000D03*
%TD*%
D25*
%TO.C,J13*%
X29210000Y-48260000D03*
%TD*%
D20*
%TO.C,D1*%
X18715200Y-12176800D03*
X18715200Y-10276800D03*
X16840200Y-11226800D03*
%TD*%
D24*
%TO.C,C6*%
X22860000Y-48169556D03*
X22860000Y-50244556D03*
%TD*%
D36*
%TO.C,IC1*%
X45948600Y-48742000D03*
X44678600Y-48742000D03*
X43408600Y-48742000D03*
X42138600Y-48742000D03*
X40868600Y-48742000D03*
X39598600Y-48742000D03*
X38328600Y-48742000D03*
X37058600Y-48742000D03*
X37058600Y-58192000D03*
X38328600Y-58192000D03*
X39598600Y-58192000D03*
X40868600Y-58192000D03*
X42138600Y-58192000D03*
X43408600Y-58192000D03*
X44678600Y-58192000D03*
X45948600Y-58192000D03*
%TD*%
D26*
%TO.C,J5*%
X3000000Y-54704340D03*
X3000000Y-50894340D03*
%TD*%
D24*
%TO.C,C7*%
X22860000Y-57429670D03*
X22860000Y-59504670D03*
%TD*%
%LPD*%
M02*
