M48
; DRILL file {KiCad 9.0.2} date 2025-07-04T16:23:48+1000
; FORMAT={-:-/ absolute / inch / decimal}
; #@! TF.CreationDate,2025-07-04T16:23:48+10:00
; #@! TF.GenerationSoftware,Kicad,Pcbnew,9.0.2
; #@! TF.FileFunction,Plated,1,2,PTH
FMAT,2
INCH
; #@! TA.AperFunction,Plated,PTH,ViaDrill
T1C0.0150
; #@! TA.AperFunction,Plated,PTH,ComponentDrill
T2C0.0256
; #@! TA.AperFunction,Plated,PTH,ComponentDrill
T3C0.0394
; #@! TA.AperFunction,Plated,PTH,ComponentDrill
T4C0.0433
%
G90
G05
T1
X1.0323Y-2.881
X1.044Y-0.329
X1.049Y-1.892
X1.138Y-1.933
X1.14Y-0.331
X1.14Y-0.735
X1.14Y-1.131
X1.14Y-1.516
X1.14Y-2.343
X1.14Y-2.748
X1.14Y-3.145
X1.142Y-3.465
X1.237Y-0.587
X1.266Y-2.582
X1.269Y-1.372
X1.273Y-0.951
X1.273Y-1.754
X1.273Y-2.942
X1.283Y-2.138
X1.334Y-3.543
X1.335Y-0.231
X1.561Y-1.794
X1.593Y-0.226
X1.615Y-2.129
X1.793Y-2.072
X1.836Y-3.33
X1.837Y-2.625
X1.864Y-1.791
X1.916Y-2.725
X1.916Y-3.341
X1.97Y-2.554
X2.034Y-2.292
X2.094Y-3.382
T2
X0.57Y-2.086
X0.57Y-2.136
X0.57Y-2.894
X0.57Y-2.944
X0.5704Y-0.4672
X0.5704Y-0.5172
X0.5704Y-0.8714
X0.5704Y-0.9214
X0.5704Y-1.2755
X0.5704Y-1.3255
X0.5704Y-1.6797
X0.5704Y-1.7297
X0.5704Y-3.3
X0.5704Y-3.35
X0.571Y-2.49
X0.571Y-2.54
X0.62Y-2.086
X0.62Y-2.136
X0.62Y-2.894
X0.62Y-2.944
X0.6204Y-0.4672
X0.6204Y-0.5172
X0.6204Y-0.8714
X0.6204Y-0.9214
X0.6204Y-1.2755
X0.6204Y-1.3255
X0.6204Y-1.6797
X0.6204Y-1.7297
X0.6204Y-3.3
X0.6204Y-3.35
X0.621Y-2.49
X0.621Y-2.54
X0.855Y-0.669
X0.855Y-1.074
X0.855Y-1.476
X0.855Y-1.871
X0.855Y-2.278
X0.855Y-2.689
X0.855Y-3.076
X0.856Y-3.461
X0.905Y-0.669
X0.905Y-1.074
X0.905Y-1.476
X0.905Y-1.871
X0.905Y-2.278
X0.905Y-2.689
X0.905Y-3.076
X0.906Y-3.461
T3
X1.404Y-1.651
X1.439Y-0.8443
X1.44Y-0.44
X1.443Y-1.2486
X1.444Y-2.8657
X1.445Y-2.4614
X1.447Y-2.0571
X1.447Y-3.27
X1.632Y-3.629
X1.732Y-3.629
X1.832Y-3.629
X1.908Y-0.993
X1.908Y-1.211
X1.932Y-3.629
X2.008Y-0.993
X2.008Y-1.211
X2.108Y-0.993
X2.108Y-1.211
X2.165Y-1.475
X2.165Y-1.575
X2.165Y-1.675
X2.165Y-1.775
X2.165Y-1.875
X2.165Y-1.975
X2.165Y-2.075
X2.165Y-2.175
X2.165Y-2.275
X2.165Y-2.375
X2.165Y-2.475
X2.165Y-2.575
X2.165Y-2.675
X2.165Y-2.775
X2.165Y-2.875
X2.265Y-1.475
X2.265Y-1.575
X2.265Y-1.675
X2.265Y-1.775
X2.265Y-1.875
X2.265Y-1.975
X2.265Y-2.075
X2.265Y-2.175
X2.265Y-2.275
X2.265Y-2.375
X2.265Y-2.475
X2.265Y-2.575
X2.265Y-2.675
X2.265Y-2.775
X2.265Y-2.875
T4
X0.214Y-1.125
X0.214Y-1.225
X0.214Y-1.325
X0.214Y-1.425
X0.214Y-1.525
X0.214Y-1.625
X0.214Y-1.725
X0.214Y-1.825
X0.314Y-1.125
X0.314Y-1.225
X0.314Y-1.325
X0.314Y-1.425
X0.314Y-1.525
X0.314Y-1.625
X0.314Y-1.725
X0.314Y-1.825
X2.203Y-0.446
X2.203Y-0.546
X2.203Y-0.646
X2.203Y-0.746
M30
