%TF.GenerationSoftware,KiCad,Pcbnew,9.0.2*%
%TF.CreationDate,2025-07-04T16:23:48+10:00*%
%TF.ProjectId,v8a_equip_digital_in_iso_IDC,7638615f-6571-4756-9970-5f6469676974,rev?*%
%TF.SameCoordinates,Original*%
%TF.FileFunction,Soldermask,Top*%
%TF.FilePolarity,Negative*%
%FSLAX46Y46*%
G04 Gerber Fmt 4.6, Leading zero omitted, Abs format (unit mm)*
G04 Created by KiCad (PCBNEW 9.0.2) date 2025-07-04 16:23:48*
%MOMM*%
%LPD*%
G01*
G04 APERTURE LIST*
G04 Aperture macros list*
%AMRoundRect*
0 Rectangle with rounded corners*
0 $1 Rounding radius*
0 $2 $3 $4 $5 $6 $7 $8 $9 X,Y pos of 4 corners*
0 Add a 4 corners polygon primitive as box body*
4,1,4,$2,$3,$4,$5,$6,$7,$8,$9,$2,$3,0*
0 Add four circle primitives for the rounded corners*
1,1,$1+$1,$2,$3*
1,1,$1+$1,$4,$5*
1,1,$1+$1,$6,$7*
1,1,$1+$1,$8,$9*
0 Add four rect primitives between the rounded corners*
20,1,$1+$1,$2,$3,$4,$5,0*
20,1,$1+$1,$4,$5,$6,$7,0*
20,1,$1+$1,$6,$7,$8,$9,0*
20,1,$1+$1,$8,$9,$2,$3,0*%
G04 Aperture macros list end*
%ADD10RoundRect,0.317500X-0.482500X-0.317500X0.482500X-0.317500X0.482500X0.317500X-0.482500X0.317500X0*%
%ADD11RoundRect,0.250000X0.337500X0.475000X-0.337500X0.475000X-0.337500X-0.475000X0.337500X-0.475000X0*%
%ADD12RoundRect,0.250000X-0.450000X0.350000X-0.450000X-0.350000X0.450000X-0.350000X0.450000X0.350000X0*%
%ADD13R,1.700000X1.700000*%
%ADD14RoundRect,0.250000X-0.337500X-0.475000X0.337500X-0.475000X0.337500X0.475000X-0.337500X0.475000X0*%
%ADD15C,1.700000*%
%ADD16R,1.000000X1.000000*%
%ADD17C,1.000000*%
%ADD18RoundRect,0.250000X0.350000X0.450000X-0.350000X0.450000X-0.350000X-0.450000X0.350000X-0.450000X0*%
%ADD19R,1.600000X1.600000*%
%ADD20C,1.600000*%
%ADD21RoundRect,0.250000X-0.475000X0.337500X-0.475000X-0.337500X0.475000X-0.337500X0.475000X0.337500X0*%
%ADD22R,1.650000X1.650000*%
%ADD23C,1.650000*%
%ADD24RoundRect,0.150000X0.625000X-0.150000X0.625000X0.150000X-0.625000X0.150000X-0.625000X-0.150000X0*%
%ADD25RoundRect,0.416666X0.970834X-0.583334X0.970834X0.583334X-0.970834X0.583334X-0.970834X-0.583334X0*%
%ADD26R,0.650000X1.950000*%
G04 APERTURE END LIST*
D10*
%TO.C,U3*%
X21972200Y-21413457D03*
X21972200Y-23413457D03*
X28497200Y-23413457D03*
X28472200Y-21413457D03*
%TD*%
D11*
%TO.C,C5*%
X36673700Y-57124600D03*
X34598700Y-57124600D03*
%TD*%
D10*
%TO.C,U1*%
X21972200Y-11141200D03*
X21972200Y-13141200D03*
X28497200Y-13141200D03*
X28472200Y-11141200D03*
%TD*%
D11*
%TO.C,C3*%
X36673700Y-46736000D03*
X34598700Y-46736000D03*
%TD*%
D10*
%TO.C,U6*%
X21972200Y-72774743D03*
X21972200Y-74774743D03*
X28497200Y-74774743D03*
X28472200Y-72774743D03*
%TD*%
D12*
%TO.C,R1*%
X32334200Y-9236200D03*
X32334200Y-11236200D03*
%TD*%
D13*
%TO.C,J18*%
X36753800Y-83058000D03*
%TD*%
%TO.C,J1*%
X36576000Y-11176000D03*
%TD*%
D14*
%TO.C,C9*%
X29010700Y-89916000D03*
X31085700Y-89916000D03*
%TD*%
D13*
%TO.C,JP1*%
X48463200Y-30759400D03*
D15*
X51003200Y-30759400D03*
X53543200Y-30759400D03*
%TD*%
D13*
%TO.C,J5*%
X54991000Y-37465000D03*
D15*
X57531000Y-37465000D03*
X54991000Y-40005000D03*
X57531000Y-40005000D03*
X54991000Y-42545000D03*
X57531000Y-42545000D03*
X54991000Y-45085000D03*
X57531000Y-45085000D03*
X54991000Y-47625000D03*
X57531000Y-47625000D03*
X54991000Y-50165000D03*
X57531000Y-50165000D03*
X54991000Y-52705000D03*
X57531000Y-52705000D03*
X54991000Y-55245000D03*
X57531000Y-55245000D03*
X54991000Y-57785000D03*
X57531000Y-57785000D03*
X54991000Y-60325000D03*
X57531000Y-60325000D03*
X54991000Y-62865000D03*
X57531000Y-62865000D03*
X54991000Y-65405000D03*
X57531000Y-65405000D03*
X54991000Y-67945000D03*
X57531000Y-67945000D03*
X54991000Y-70485000D03*
X57531000Y-70485000D03*
X54991000Y-73025000D03*
X57531000Y-73025000D03*
%TD*%
D13*
%TO.C,J7*%
X36550600Y-21444857D03*
%TD*%
D12*
%TO.C,R14*%
X32334200Y-80945748D03*
X32334200Y-82945748D03*
%TD*%
D16*
%TO.C,J23*%
X21717000Y-47523400D03*
D17*
X22987000Y-47523400D03*
%TD*%
D13*
%TO.C,J12*%
X36652200Y-31713714D03*
%TD*%
D11*
%TO.C,C10*%
X36699100Y-36220400D03*
X34624100Y-36220400D03*
%TD*%
D18*
%TO.C,R4*%
X17749863Y-49104153D03*
X15749863Y-49104153D03*
%TD*%
D16*
%TO.C,J17*%
X15759263Y-83820000D03*
D17*
X15759263Y-85090000D03*
X14489263Y-83820000D03*
X14489263Y-85090000D03*
%TD*%
D18*
%TO.C,R8*%
X17749863Y-59492753D03*
X15749863Y-59492753D03*
%TD*%
D16*
%TO.C,J8*%
X15773400Y-63246000D03*
D17*
X15773400Y-64516000D03*
X14503400Y-63246000D03*
X14503400Y-64516000D03*
%TD*%
D16*
%TO.C,J13*%
X15748000Y-73507600D03*
D17*
X15748000Y-74777600D03*
X14478000Y-73507600D03*
X14478000Y-74777600D03*
%TD*%
D19*
%TO.C,U9*%
X55956200Y-18948400D03*
D20*
X55956200Y-16408400D03*
X55956200Y-13868400D03*
X55956200Y-11328400D03*
%TD*%
D10*
%TO.C,U5*%
X21972200Y-31685714D03*
X21972200Y-33685714D03*
X28497200Y-33685714D03*
X28472200Y-31685714D03*
%TD*%
%TO.C,U7*%
X21972200Y-41957971D03*
X21972200Y-43957971D03*
X28497200Y-43957971D03*
X28472200Y-41957971D03*
%TD*%
D11*
%TO.C,C4*%
X36546700Y-15925800D03*
X34471700Y-15925800D03*
%TD*%
D21*
%TO.C,C8*%
X51670010Y-60963900D03*
X51670010Y-63038900D03*
%TD*%
D16*
%TO.C,J3*%
X15748000Y-52984400D03*
D17*
X15748000Y-54254400D03*
X14478000Y-52984400D03*
X14478000Y-54254400D03*
%TD*%
D13*
%TO.C,JP2*%
X48463200Y-25222200D03*
D15*
X51003200Y-25222200D03*
X53543200Y-25222200D03*
%TD*%
D12*
%TO.C,R9*%
X32334200Y-29670214D03*
X32334200Y-31670214D03*
%TD*%
D14*
%TO.C,C2*%
X36529100Y-5715000D03*
X38604100Y-5715000D03*
%TD*%
D16*
%TO.C,J20*%
X21717000Y-27279600D03*
D17*
X22987000Y-27279600D03*
%TD*%
D16*
%TO.C,J6*%
X15759263Y-22132982D03*
D17*
X15759263Y-23402982D03*
X14489263Y-22132982D03*
X14489263Y-23402982D03*
%TD*%
D12*
%TO.C,R6*%
X32334200Y-60435534D03*
X32334200Y-62435534D03*
%TD*%
D18*
%TO.C,R15*%
X17749863Y-38817153D03*
X15749863Y-38817153D03*
%TD*%
D13*
%TO.C,CON1*%
X49072800Y-92176600D03*
D15*
X46532800Y-92176600D03*
X43992800Y-92176600D03*
X41452800Y-92176600D03*
%TD*%
D12*
%TO.C,R10*%
X32334200Y-70690641D03*
X32334200Y-72690641D03*
%TD*%
D18*
%TO.C,R12*%
X17800663Y-69728953D03*
X15800663Y-69728953D03*
%TD*%
%TO.C,R3*%
X20710400Y-8102600D03*
X18710400Y-8102600D03*
%TD*%
%TO.C,R11*%
X17775263Y-28606353D03*
X15775263Y-28606353D03*
%TD*%
D13*
%TO.C,J16*%
X35661600Y-41935400D03*
%TD*%
D10*
%TO.C,U8*%
X21972200Y-83047000D03*
X21972200Y-85047000D03*
X28497200Y-85047000D03*
X28472200Y-83047000D03*
%TD*%
D16*
%TO.C,J15*%
X15759263Y-42663439D03*
D17*
X15759263Y-43933439D03*
X14489263Y-42663439D03*
X14489263Y-43933439D03*
%TD*%
D13*
%TO.C,J9*%
X36703000Y-62520286D03*
%TD*%
%TO.C,J14*%
X36677600Y-72789143D03*
%TD*%
D16*
%TO.C,J22*%
X21717000Y-57861200D03*
D17*
X22987000Y-57861200D03*
%TD*%
D18*
%TO.C,R16*%
X17749863Y-79863553D03*
X15749863Y-79863553D03*
%TD*%
D11*
%TO.C,C11*%
X36699100Y-77444600D03*
X34624100Y-77444600D03*
%TD*%
D12*
%TO.C,R2*%
X32334200Y-50180427D03*
X32334200Y-52180427D03*
%TD*%
D16*
%TO.C,J2*%
X15759263Y-11867753D03*
D17*
X15759263Y-13137753D03*
X14489263Y-11867753D03*
X14489263Y-13137753D03*
%TD*%
D22*
%TO.C,J10*%
X7975600Y-46355000D03*
D23*
X5435600Y-46355000D03*
X7975600Y-43815000D03*
X5435600Y-43815000D03*
X7975600Y-41275000D03*
X5435600Y-41275000D03*
X7975600Y-38735000D03*
X5435600Y-38735000D03*
X7975600Y-36195000D03*
X5435600Y-36195000D03*
X7975600Y-33655000D03*
X5435600Y-33655000D03*
X7975600Y-31115000D03*
X5435600Y-31115000D03*
X7975600Y-28575000D03*
X5435600Y-28575000D03*
%TD*%
D16*
%TO.C,J24*%
X21742400Y-87909400D03*
D17*
X23012400Y-87909400D03*
%TD*%
D16*
%TO.C,J19*%
X21717000Y-37490400D03*
D17*
X22987000Y-37490400D03*
%TD*%
D16*
%TO.C,J26*%
X21717000Y-16992600D03*
D17*
X22987000Y-16992600D03*
%TD*%
D16*
%TO.C,J25*%
X21717000Y-78130400D03*
D17*
X22987000Y-78130400D03*
%TD*%
D14*
%TO.C,C1*%
X28959900Y-5664200D03*
X31034900Y-5664200D03*
%TD*%
D12*
%TO.C,R13*%
X32334200Y-39925321D03*
X32334200Y-41925321D03*
%TD*%
D18*
%TO.C,R7*%
X17699063Y-18370153D03*
X15699063Y-18370153D03*
%TD*%
D12*
%TO.C,R5*%
X32334200Y-19415107D03*
X32334200Y-21415107D03*
%TD*%
D10*
%TO.C,U4*%
X21972200Y-62502486D03*
X21972200Y-64502486D03*
X28497200Y-64502486D03*
X28472200Y-62502486D03*
%TD*%
D24*
%TO.C,CON2*%
X54388000Y-83491200D03*
X54388000Y-82491200D03*
X54388000Y-81491200D03*
X54388000Y-80491200D03*
D25*
X57810400Y-85191600D03*
X57810400Y-78740000D03*
%TD*%
D10*
%TO.C,U2*%
X21972200Y-52230229D03*
X21972200Y-54230229D03*
X28497200Y-54230229D03*
X28472200Y-52230229D03*
%TD*%
D13*
%TO.C,J4*%
X36753800Y-52251429D03*
%TD*%
D11*
%TO.C,C7*%
X36648300Y-67284600D03*
X34573300Y-67284600D03*
%TD*%
%TO.C,C6*%
X36613507Y-26695400D03*
X34538507Y-26695400D03*
%TD*%
D16*
%TO.C,J21*%
X21717000Y-68300600D03*
D17*
X22987000Y-68300600D03*
%TD*%
D26*
%TO.C,IC1*%
X49892010Y-48767400D03*
X48622010Y-48767400D03*
X47352010Y-48767400D03*
X46082010Y-48767400D03*
X44812010Y-48767400D03*
X43542010Y-48767400D03*
X42272010Y-48767400D03*
X41002010Y-48767400D03*
X41002010Y-58217400D03*
X42272010Y-58217400D03*
X43542010Y-58217400D03*
X44812010Y-58217400D03*
X46082010Y-58217400D03*
X47352010Y-58217400D03*
X48622010Y-58217400D03*
X49892010Y-58217400D03*
%TD*%
D16*
%TO.C,J11*%
X15759263Y-32398210D03*
D17*
X15759263Y-33668210D03*
X14489263Y-32398210D03*
X14489263Y-33668210D03*
%TD*%
M02*
