%TF.GenerationSoftware,KiCad,Pcbnew,9.0.2*%
%TF.CreationDate,2025-07-04T16:23:48+10:00*%
%TF.ProjectId,v8a_equip_digital_in_iso_IDC,7638615f-6571-4756-9970-5f6469676974,rev?*%
%TF.SameCoordinates,Original*%
%TF.FileFunction,Legend,Bot*%
%TF.FilePolarity,Positive*%
%FSLAX46Y46*%
G04 Gerber Fmt 4.6, Leading zero omitted, Abs format (unit mm)*
G04 Created by KiCad (PCBNEW 9.0.2) date 2025-07-04 16:23:48*
%MOMM*%
%LPD*%
G01*
G04 APERTURE LIST*
%ADD10C,0.066145*%
%ADD11C,0.053477*%
%ADD12C,0.203200*%
%ADD13C,0.100000*%
%ADD14R,1.700000X1.700000*%
%ADD15C,1.700000*%
%ADD16C,3.500000*%
%ADD17R,1.000000X1.000000*%
%ADD18C,1.000000*%
%ADD19R,1.600000X1.600000*%
%ADD20C,1.600000*%
%ADD21R,1.650000X1.650000*%
%ADD22C,1.650000*%
G04 APERTURE END LIST*
D10*
X41968407Y-74972571D02*
X42094312Y-74978870D01*
X42226051Y-74990313D01*
X42362657Y-75007048D01*
X42503163Y-75029227D01*
X42646600Y-75057000D01*
X42792002Y-75090515D01*
X42938400Y-75129925D01*
X43084828Y-75175378D01*
X43230318Y-75227025D01*
X43373902Y-75285016D01*
X43514613Y-75349500D01*
X43651483Y-75420629D01*
X43707643Y-75452902D01*
X43760850Y-75485499D01*
X43811289Y-75518378D01*
X43859145Y-75551499D01*
X43947847Y-75618298D01*
X44028431Y-75685562D01*
X44102375Y-75752957D01*
X44171155Y-75820151D01*
X44299132Y-75952603D01*
X44361283Y-76017195D01*
X44424178Y-76080252D01*
X44489293Y-76141443D01*
X44558106Y-76200434D01*
X44632094Y-76256892D01*
X44671490Y-76284067D01*
X44712733Y-76310484D01*
X44756008Y-76336100D01*
X44801500Y-76360876D01*
X44849394Y-76384768D01*
X44899873Y-76407736D01*
X44844352Y-76400595D01*
X44790366Y-76396885D01*
X44737912Y-76396460D01*
X44686987Y-76399179D01*
X44637586Y-76404898D01*
X44589706Y-76413473D01*
X44543343Y-76424762D01*
X44498493Y-76438621D01*
X44455154Y-76454907D01*
X44413321Y-76473477D01*
X44372990Y-76494187D01*
X44334158Y-76516895D01*
X44296821Y-76541457D01*
X44260976Y-76567729D01*
X44226618Y-76595570D01*
X44193745Y-76624835D01*
X44132437Y-76687065D01*
X44077021Y-76753274D01*
X44027469Y-76822317D01*
X43983752Y-76893047D01*
X43945839Y-76964319D01*
X43913701Y-77034987D01*
X43887310Y-77103905D01*
X43866636Y-77169927D01*
X43848292Y-77239498D01*
X43832818Y-77309475D01*
X43820444Y-77379797D01*
X43811401Y-77450400D01*
X43805920Y-77521223D01*
X43804233Y-77592204D01*
X43806569Y-77663279D01*
X43813160Y-77734388D01*
X43824237Y-77805467D01*
X43840030Y-77876455D01*
X43860770Y-77947289D01*
X43886689Y-78017906D01*
X43918018Y-78088246D01*
X43954986Y-78158245D01*
X43997825Y-78227841D01*
X44046766Y-78296972D01*
X44029098Y-78336511D01*
X44010968Y-78373034D01*
X43992619Y-78407097D01*
X43974291Y-78439257D01*
X43938670Y-78500092D01*
X43921860Y-78529880D01*
X43906039Y-78559990D01*
X43891450Y-78590979D01*
X43878334Y-78623403D01*
X43872404Y-78640326D01*
X43866933Y-78657818D01*
X43861951Y-78675946D01*
X43857489Y-78694781D01*
X43853577Y-78714391D01*
X43850244Y-78734848D01*
X43847522Y-78756219D01*
X43845440Y-78778576D01*
X43844028Y-78801986D01*
X43843318Y-78826521D01*
X43843338Y-78852249D01*
X43844120Y-78879239D01*
X43783383Y-78885158D01*
X43728803Y-78889552D01*
X43677624Y-78892072D01*
X43652448Y-78892519D01*
X43627089Y-78892365D01*
X43601203Y-78891566D01*
X43574444Y-78890079D01*
X43546469Y-78887860D01*
X43516932Y-78884864D01*
X43485490Y-78881048D01*
X43451798Y-78876368D01*
X43376285Y-78864240D01*
X43366746Y-78836966D01*
X43356466Y-78810398D01*
X43333950Y-78759154D01*
X43309264Y-78710064D01*
X43282937Y-78662679D01*
X43255495Y-78616554D01*
X43227467Y-78571241D01*
X43171764Y-78481268D01*
X43145143Y-78435714D01*
X43120047Y-78389187D01*
X43097004Y-78341239D01*
X43076540Y-78291424D01*
X43067441Y-78265677D01*
X43059184Y-78239296D01*
X43051836Y-78212225D01*
X43045464Y-78184408D01*
X43040131Y-78155789D01*
X43035906Y-78126313D01*
X43032854Y-78095924D01*
X43031040Y-78064565D01*
X42988426Y-78045788D01*
X42934638Y-78026342D01*
X42870992Y-78006727D01*
X42798803Y-77987445D01*
X42719388Y-77968999D01*
X42634061Y-77951888D01*
X42544139Y-77936615D01*
X42450937Y-77923682D01*
X42355771Y-77913589D01*
X42259956Y-77906838D01*
X42164808Y-77903931D01*
X42071643Y-77905370D01*
X41981776Y-77911655D01*
X41896522Y-77923288D01*
X41817198Y-77940771D01*
X41780171Y-77951863D01*
X41745120Y-77964605D01*
X41745122Y-77964612D01*
X41722551Y-78036741D01*
X41696606Y-78105177D01*
X41668014Y-78170090D01*
X41637506Y-78231654D01*
X41605811Y-78290041D01*
X41573658Y-78345422D01*
X41510893Y-78447856D01*
X41455048Y-78540333D01*
X41431543Y-78583268D01*
X41411956Y-78624230D01*
X41397015Y-78663390D01*
X41391515Y-78682349D01*
X41387451Y-78700922D01*
X41384912Y-78719131D01*
X41383992Y-78736997D01*
X41384779Y-78754542D01*
X41387367Y-78771787D01*
X41285420Y-78799745D01*
X41231690Y-78813255D01*
X41203470Y-78819380D01*
X41174091Y-78824890D01*
X41143363Y-78829639D01*
X41111096Y-78833480D01*
X41077100Y-78836266D01*
X41041183Y-78837852D01*
X41003156Y-78838090D01*
X40962827Y-78836835D01*
X40920006Y-78833940D01*
X40874502Y-78829259D01*
X40873218Y-78817263D01*
X40870825Y-78804716D01*
X40867400Y-78791637D01*
X40863021Y-78778045D01*
X40851713Y-78749405D01*
X40837525Y-78718953D01*
X40821079Y-78686847D01*
X40802998Y-78653243D01*
X40764425Y-78582173D01*
X40745179Y-78545021D01*
X40726790Y-78507002D01*
X40709882Y-78468273D01*
X40695077Y-78428991D01*
X40688659Y-78409192D01*
X40682999Y-78389313D01*
X40678177Y-78369376D01*
X40674271Y-78349398D01*
X40671357Y-78329400D01*
X40669515Y-78309402D01*
X40668821Y-78289423D01*
X40669354Y-78269483D01*
X40631977Y-78274103D01*
X40596554Y-78277629D01*
X40562750Y-78280020D01*
X40530232Y-78281237D01*
X40498668Y-78281238D01*
X40467722Y-78279983D01*
X40437062Y-78277433D01*
X40406355Y-78273546D01*
X40375266Y-78268284D01*
X40343463Y-78261604D01*
X40310612Y-78253467D01*
X40276379Y-78243833D01*
X40240431Y-78232662D01*
X40202435Y-78219913D01*
X40162056Y-78205545D01*
X40118962Y-78189519D01*
X40088639Y-78176457D01*
X40057798Y-78160752D01*
X40026566Y-78142482D01*
X39995070Y-78121730D01*
X39963436Y-78098574D01*
X39931792Y-78073096D01*
X39900264Y-78045374D01*
X39868979Y-78015489D01*
X39838065Y-77983521D01*
X39807647Y-77949550D01*
X39777854Y-77913657D01*
X39748811Y-77875921D01*
X39720646Y-77836422D01*
X39693485Y-77795241D01*
X39667456Y-77752457D01*
X39642685Y-77708151D01*
X39619300Y-77662403D01*
X39597427Y-77615292D01*
X39577192Y-77566900D01*
X39558724Y-77517305D01*
X39542149Y-77466588D01*
X39527593Y-77414830D01*
X39515184Y-77362109D01*
X39505048Y-77308507D01*
X39497313Y-77254103D01*
X39492105Y-77198978D01*
X39489551Y-77143211D01*
X39489779Y-77086883D01*
X39492914Y-77030073D01*
X39499084Y-76972862D01*
X39508416Y-76915330D01*
X39521037Y-76857557D01*
X39557316Y-76723150D01*
X39601123Y-76585068D01*
X39653418Y-76444614D01*
X39715160Y-76303091D01*
X39787310Y-76161802D01*
X39870827Y-76022051D01*
X39966673Y-75885141D01*
X40019519Y-75818158D01*
X40075807Y-75752374D01*
X40135658Y-75687952D01*
X40199190Y-75625055D01*
X40266525Y-75563845D01*
X40337781Y-75504486D01*
X40413080Y-75447140D01*
X40492541Y-75391970D01*
X40576285Y-75339139D01*
X40664430Y-75288810D01*
X40757098Y-75241147D01*
X40854408Y-75196311D01*
X40956481Y-75154466D01*
X41063435Y-75115774D01*
X41175393Y-75080399D01*
X41292472Y-75048503D01*
X41414794Y-75020250D01*
X41542478Y-74995802D01*
X41635371Y-74983030D01*
X41737969Y-74974801D01*
X41849303Y-74971264D01*
X41968407Y-74972571D01*
X41390706Y-78788181D02*
X41399766Y-78801776D01*
X41419909Y-78828127D01*
X41442545Y-78853483D01*
X41467424Y-78877989D01*
X41494296Y-78901793D01*
X41522913Y-78925040D01*
X41553025Y-78947877D01*
X41584383Y-78970451D01*
X41717290Y-79061038D01*
X41784741Y-79108558D01*
X41817844Y-79133387D01*
X41850198Y-79159124D01*
X41865728Y-79172573D01*
X41880880Y-79187090D01*
X41895646Y-79202588D01*
X41910016Y-79218977D01*
X41937524Y-79254079D01*
X41963324Y-79291687D01*
X41987336Y-79331097D01*
X42009479Y-79371602D01*
X42029672Y-79412495D01*
X42047835Y-79453069D01*
X42063888Y-79492618D01*
X42077749Y-79530436D01*
X42089338Y-79565816D01*
X42098574Y-79598051D01*
X42105378Y-79626435D01*
X42109668Y-79650262D01*
X42111363Y-79668825D01*
X42111213Y-79675911D01*
X42110384Y-79681417D01*
X42108211Y-79685685D01*
X42105463Y-79689152D01*
X42102165Y-79691862D01*
X42098344Y-79693863D01*
X42094024Y-79695201D01*
X42089231Y-79695923D01*
X42083991Y-79696076D01*
X42078329Y-79695707D01*
X42065845Y-79693587D01*
X42051982Y-79689936D01*
X42036947Y-79685129D01*
X42020945Y-79679539D01*
X41986858Y-79667502D01*
X41969184Y-79661802D01*
X41951364Y-79656812D01*
X41933602Y-79652906D01*
X41916105Y-79650458D01*
X41907519Y-79649897D01*
X41899076Y-79649840D01*
X41890802Y-79650334D01*
X41882722Y-79651426D01*
X41875101Y-79653503D01*
X41868168Y-79656421D01*
X41861890Y-79660124D01*
X41856238Y-79664560D01*
X41851179Y-79669675D01*
X41846682Y-79675416D01*
X41842717Y-79681728D01*
X41839252Y-79688559D01*
X41836256Y-79695855D01*
X41833698Y-79703563D01*
X41831547Y-79711628D01*
X41829772Y-79719997D01*
X41827223Y-79737434D01*
X41825803Y-79755447D01*
X41825262Y-79773605D01*
X41825352Y-79791482D01*
X41826427Y-79824677D01*
X41827034Y-79851605D01*
X41826539Y-79861649D01*
X41825179Y-79868840D01*
X41822702Y-79870490D01*
X41819966Y-79871258D01*
X41816976Y-79871200D01*
X41813735Y-79870373D01*
X41810249Y-79868832D01*
X41806522Y-79866633D01*
X41798363Y-79860485D01*
X41789295Y-79852374D01*
X41779355Y-79842748D01*
X41757005Y-79820736D01*
X41744669Y-79809243D01*
X41731607Y-79798021D01*
X41717856Y-79787517D01*
X41710733Y-79782673D01*
X41703452Y-79778176D01*
X41696017Y-79774082D01*
X41688433Y-79770447D01*
X41680704Y-79767325D01*
X41672835Y-79764774D01*
X41664830Y-79762849D01*
X41656695Y-79761606D01*
X41648433Y-79761100D01*
X41640049Y-79761388D01*
X41631624Y-79762763D01*
X41623692Y-79764977D01*
X41616232Y-79767975D01*
X41609226Y-79771703D01*
X41602651Y-79776106D01*
X41596489Y-79781130D01*
X41590719Y-79786720D01*
X41585322Y-79792822D01*
X41580276Y-79799382D01*
X41575561Y-79806345D01*
X41571158Y-79813657D01*
X41567047Y-79821263D01*
X41559617Y-79837139D01*
X41553111Y-79853539D01*
X41547367Y-79870026D01*
X41542225Y-79886166D01*
X41533097Y-79915661D01*
X41528790Y-79928145D01*
X41524439Y-79938539D01*
X41522196Y-79942816D01*
X41519882Y-79946407D01*
X41517476Y-79949258D01*
X41514959Y-79951314D01*
X41511345Y-79953132D01*
X41507537Y-79953497D01*
X41503531Y-79952510D01*
X41499323Y-79950270D01*
X41494910Y-79946876D01*
X41490288Y-79942430D01*
X41480403Y-79930775D01*
X41431774Y-79861975D01*
X41417199Y-79843219D01*
X41401597Y-79825437D01*
X41393402Y-79817160D01*
X41384939Y-79809426D01*
X41376206Y-79802335D01*
X41367197Y-79795985D01*
X41357910Y-79790478D01*
X41348341Y-79785912D01*
X41338486Y-79782388D01*
X41328341Y-79780005D01*
X41317904Y-79778863D01*
X41307169Y-79779061D01*
X41296134Y-79780700D01*
X41284795Y-79783879D01*
X41273826Y-79788262D01*
X41263422Y-79793402D01*
X41253560Y-79799239D01*
X41244219Y-79805711D01*
X41235376Y-79812756D01*
X41227010Y-79820311D01*
X41219098Y-79828317D01*
X41211618Y-79836709D01*
X41204549Y-79845428D01*
X41197868Y-79854411D01*
X41185584Y-79872921D01*
X41174589Y-79891746D01*
X41164709Y-79910392D01*
X41147588Y-79945169D01*
X41139994Y-79960311D01*
X41132812Y-79973297D01*
X41129319Y-79978827D01*
X41125863Y-79983633D01*
X41122422Y-79987652D01*
X41118974Y-79990824D01*
X41115496Y-79993085D01*
X41111967Y-79994376D01*
X41108365Y-79994633D01*
X41104667Y-79993795D01*
X41084494Y-79982999D01*
X41065690Y-79968110D01*
X41048200Y-79949369D01*
X41031971Y-79927018D01*
X41016950Y-79901297D01*
X41003083Y-79872448D01*
X40978597Y-79806328D01*
X40958084Y-79730589D01*
X40941114Y-79647159D01*
X40927260Y-79557967D01*
X40916092Y-79464942D01*
X40900100Y-79275112D01*
X40889707Y-79093100D01*
X40881484Y-78934341D01*
X40872000Y-78814267D01*
X40909283Y-78816728D01*
X40946055Y-78818494D01*
X40982270Y-78819571D01*
X41017884Y-78819967D01*
X41052852Y-78819690D01*
X41087132Y-78818747D01*
X41120679Y-78817145D01*
X41153449Y-78814891D01*
X41185399Y-78811993D01*
X41216483Y-78808458D01*
X41246658Y-78804294D01*
X41275881Y-78799507D01*
X41304107Y-78794105D01*
X41331292Y-78788095D01*
X41357392Y-78781485D01*
X41382363Y-78774282D01*
X41390706Y-78788181D01*
D11*
X42266946Y-77904788D02*
X42362754Y-77911541D01*
X42457912Y-77921637D01*
X42551107Y-77934573D01*
X42641022Y-77949849D01*
X42726341Y-77966962D01*
X42805750Y-77985411D01*
X42877934Y-78004695D01*
X42941576Y-78024311D01*
X42995361Y-78043759D01*
X43037974Y-78062536D01*
X43039788Y-78093895D01*
X43042841Y-78124284D01*
X43047068Y-78153759D01*
X43052401Y-78182376D01*
X43058776Y-78210191D01*
X43066126Y-78237260D01*
X43074385Y-78263638D01*
X43083487Y-78289381D01*
X43103957Y-78339188D01*
X43127007Y-78387127D01*
X43152110Y-78433645D01*
X43178738Y-78479188D01*
X43234457Y-78569141D01*
X43262491Y-78614444D01*
X43289938Y-78660561D01*
X43316270Y-78707938D01*
X43340959Y-78757023D01*
X43363477Y-78808263D01*
X43373757Y-78834830D01*
X43383296Y-78862104D01*
X43384102Y-78862268D01*
X43384844Y-78862398D01*
X43385541Y-78862505D01*
X43386216Y-78862601D01*
X43386890Y-78862696D01*
X43387583Y-78862804D01*
X43388318Y-78862936D01*
X43389114Y-78863103D01*
X43396382Y-78907636D01*
X43401338Y-78953311D01*
X43404228Y-78999867D01*
X43405297Y-79047045D01*
X43404793Y-79094584D01*
X43402960Y-79142224D01*
X43396295Y-79236767D01*
X43377857Y-79415616D01*
X43370021Y-79495758D01*
X43367310Y-79532598D01*
X43365732Y-79566938D01*
X43365779Y-79601041D01*
X43366810Y-79637350D01*
X43368751Y-79675256D01*
X43371530Y-79714151D01*
X43375072Y-79753428D01*
X43379303Y-79792478D01*
X43384151Y-79830693D01*
X43389541Y-79867467D01*
X43395401Y-79902191D01*
X43401656Y-79934257D01*
X43408233Y-79963057D01*
X43415058Y-79987984D01*
X43422058Y-80008430D01*
X43429159Y-80023787D01*
X43432724Y-80029367D01*
X43436288Y-80033447D01*
X43439839Y-80035950D01*
X43443370Y-80036802D01*
X43447771Y-80037608D01*
X43452071Y-80037716D01*
X43456287Y-80037173D01*
X43460436Y-80036028D01*
X43464536Y-80034328D01*
X43468603Y-80032122D01*
X43472653Y-80029457D01*
X43476705Y-80026382D01*
X43484881Y-80019194D01*
X43493264Y-80010940D01*
X43511198Y-79992775D01*
X43521021Y-79983632D01*
X43526206Y-79979214D01*
X43531595Y-79974962D01*
X43537207Y-79970924D01*
X43543057Y-79967148D01*
X43549163Y-79963682D01*
X43555541Y-79960574D01*
X43562210Y-79957873D01*
X43569185Y-79955626D01*
X43576483Y-79953881D01*
X43584123Y-79952687D01*
X43592120Y-79952091D01*
X43600491Y-79952141D01*
X43609254Y-79952886D01*
X43618426Y-79954374D01*
X43627919Y-79956514D01*
X43637175Y-79959163D01*
X43646202Y-79962289D01*
X43655012Y-79965860D01*
X43663615Y-79969842D01*
X43672022Y-79974204D01*
X43680243Y-79978912D01*
X43688288Y-79983935D01*
X43696169Y-79989240D01*
X43703896Y-79994794D01*
X43718928Y-80006520D01*
X43733469Y-80018854D01*
X43747604Y-80031535D01*
X43774990Y-80056902D01*
X43788409Y-80069067D01*
X43801758Y-80080540D01*
X43815122Y-80091062D01*
X43821835Y-80095884D01*
X43828583Y-80100372D01*
X43835377Y-80104491D01*
X43842227Y-80108210D01*
X43849144Y-80111496D01*
X43856138Y-80114316D01*
X43862399Y-80113146D01*
X43868080Y-80111080D01*
X43873232Y-80108173D01*
X43877907Y-80104481D01*
X43882155Y-80100060D01*
X43886026Y-80094966D01*
X43889572Y-80089255D01*
X43892844Y-80082983D01*
X43898767Y-80068977D01*
X43904203Y-80053397D01*
X43915239Y-80019300D01*
X43921653Y-80001676D01*
X43929207Y-79984265D01*
X43933538Y-79975779D01*
X43938307Y-79967514D01*
X43943565Y-79959525D01*
X43949361Y-79951869D01*
X43955748Y-79944601D01*
X43962775Y-79937777D01*
X43970494Y-79931453D01*
X43978956Y-79925686D01*
X43988212Y-79920530D01*
X43998311Y-79916042D01*
X44009306Y-79912277D01*
X44021247Y-79909291D01*
X44027903Y-79908492D01*
X44035178Y-79908405D01*
X44043029Y-79908979D01*
X44051416Y-79910165D01*
X44069634Y-79914173D01*
X44089501Y-79920029D01*
X44110687Y-79927336D01*
X44132862Y-79935693D01*
X44178862Y-79953963D01*
X44224861Y-79971646D01*
X44247036Y-79979270D01*
X44268221Y-79985551D01*
X44288087Y-79990089D01*
X44297422Y-79991579D01*
X44306303Y-79992485D01*
X44314690Y-79992755D01*
X44322541Y-79992340D01*
X44329815Y-79991190D01*
X44336470Y-79989255D01*
X44339823Y-79987509D01*
X44342418Y-79985097D01*
X44344318Y-79982040D01*
X44345586Y-79978359D01*
X44346286Y-79974077D01*
X44346481Y-79969214D01*
X44345608Y-79957832D01*
X44334559Y-79893385D01*
X44332438Y-79873403D01*
X44331585Y-79852215D01*
X44332506Y-79829996D01*
X44333790Y-79818552D01*
X44335707Y-79806915D01*
X44338321Y-79795106D01*
X44341694Y-79783146D01*
X44345891Y-79771057D01*
X44350974Y-79758860D01*
X44357006Y-79746577D01*
X44364051Y-79734229D01*
X44372173Y-79721837D01*
X44381433Y-79709424D01*
X44384821Y-79705467D01*
X44388274Y-79701726D01*
X44391789Y-79698196D01*
X44395363Y-79694870D01*
X44398992Y-79691744D01*
X44402674Y-79688810D01*
X44410184Y-79683499D01*
X44417868Y-79678890D01*
X44425702Y-79674936D01*
X44433660Y-79671591D01*
X44441720Y-79668806D01*
X44449855Y-79666536D01*
X44458042Y-79664733D01*
X44466256Y-79663351D01*
X44474473Y-79662343D01*
X44482668Y-79661661D01*
X44490817Y-79661259D01*
X44498896Y-79661090D01*
X44506879Y-79661107D01*
X44410370Y-79861348D01*
X44119560Y-80458471D01*
X40588690Y-80459607D01*
X40485509Y-80263878D01*
X40433636Y-80157194D01*
X40408259Y-80100083D01*
X40383495Y-80039862D01*
X40359524Y-79976085D01*
X40336526Y-79908305D01*
X40314681Y-79836074D01*
X40294169Y-79758947D01*
X40275169Y-79676475D01*
X40257863Y-79588211D01*
X40242429Y-79493709D01*
X40229048Y-79392522D01*
X40223855Y-79340194D01*
X40220500Y-79287958D01*
X40218873Y-79235917D01*
X40218863Y-79184173D01*
X40220361Y-79132830D01*
X40223257Y-79081990D01*
X40227442Y-79031757D01*
X40232807Y-78982233D01*
X40246634Y-78885725D01*
X40263862Y-78793290D01*
X40283613Y-78705750D01*
X40305009Y-78623929D01*
X40327174Y-78548651D01*
X40349231Y-78480738D01*
X40370300Y-78421015D01*
X40389507Y-78370304D01*
X40418819Y-78299213D01*
X40430150Y-78274053D01*
X40459690Y-78277573D01*
X40488408Y-78279689D01*
X40516892Y-78280483D01*
X40545730Y-78280034D01*
X40575508Y-78278424D01*
X40606815Y-78275733D01*
X40640237Y-78272042D01*
X40676363Y-78267430D01*
X40675823Y-78286871D01*
X40676444Y-78306345D01*
X40678154Y-78325836D01*
X40680882Y-78345323D01*
X40684555Y-78364791D01*
X40689102Y-78384220D01*
X40694451Y-78403593D01*
X40700531Y-78422892D01*
X40714596Y-78461195D01*
X40730722Y-78498985D01*
X40748336Y-78536118D01*
X40766865Y-78572451D01*
X40838656Y-78706893D01*
X40853154Y-78737062D01*
X40865125Y-78765567D01*
X40873996Y-78792263D01*
X40877089Y-78804888D01*
X40879192Y-78817006D01*
X40888546Y-78937982D01*
X40896760Y-79096750D01*
X40907219Y-79278110D01*
X40923307Y-79466861D01*
X40934518Y-79559257D01*
X40948405Y-79647800D01*
X40965391Y-79730590D01*
X40985898Y-79805726D01*
X40997605Y-79839831D01*
X41010351Y-79871309D01*
X41024188Y-79899924D01*
X41039170Y-79925438D01*
X41055350Y-79947614D01*
X41072781Y-79966214D01*
X41091514Y-79981000D01*
X41111604Y-79991735D01*
X41115302Y-79992573D01*
X41118905Y-79992316D01*
X41122435Y-79991025D01*
X41125914Y-79988763D01*
X41129365Y-79985591D01*
X41132808Y-79981571D01*
X41139763Y-79971234D01*
X41146952Y-79958246D01*
X41154554Y-79943101D01*
X41171693Y-79908321D01*
X41181582Y-79889673D01*
X41192584Y-79870845D01*
X41204876Y-79852333D01*
X41211561Y-79843350D01*
X41218633Y-79834630D01*
X41226116Y-79826237D01*
X41234031Y-79818231D01*
X41242400Y-79810674D01*
X41251245Y-79803629D01*
X41260588Y-79797157D01*
X41270451Y-79791320D01*
X41280856Y-79786179D01*
X41291824Y-79781797D01*
X41303163Y-79778617D01*
X41314198Y-79776978D01*
X41324931Y-79776780D01*
X41335368Y-79777922D01*
X41345511Y-79780305D01*
X41355364Y-79783829D01*
X41364931Y-79788395D01*
X41374215Y-79793902D01*
X41383221Y-79800252D01*
X41391952Y-79807343D01*
X41400411Y-79815077D01*
X41408603Y-79823354D01*
X41424198Y-79841136D01*
X41438767Y-79859892D01*
X41487371Y-79928693D01*
X41497251Y-79940347D01*
X41501871Y-79944794D01*
X41506283Y-79948187D01*
X41510489Y-79950427D01*
X41514494Y-79951414D01*
X41518302Y-79951049D01*
X41521916Y-79949231D01*
X41524433Y-79947176D01*
X41526838Y-79944326D01*
X41529152Y-79940735D01*
X41531394Y-79936459D01*
X41535743Y-79926067D01*
X41540048Y-79913585D01*
X41549171Y-79884094D01*
X41554311Y-79867956D01*
X41560051Y-79851470D01*
X41566554Y-79835072D01*
X41573981Y-79819197D01*
X41578091Y-79811592D01*
X41582493Y-79804282D01*
X41587206Y-79797319D01*
X41592251Y-79790760D01*
X41597647Y-79784658D01*
X41603416Y-79779068D01*
X41609577Y-79774045D01*
X41616150Y-79769642D01*
X41623156Y-79765915D01*
X41630615Y-79762917D01*
X41638547Y-79760703D01*
X41646971Y-79759328D01*
X41655355Y-79759040D01*
X41663617Y-79759546D01*
X41671753Y-79760790D01*
X41679757Y-79762716D01*
X41687626Y-79765268D01*
X41695355Y-79768390D01*
X41702940Y-79772027D01*
X41710374Y-79776122D01*
X41717655Y-79780620D01*
X41724778Y-79785465D01*
X41731737Y-79790602D01*
X41738529Y-79795973D01*
X41751592Y-79807198D01*
X41763928Y-79818694D01*
X41786278Y-79840713D01*
X41796218Y-79850341D01*
X41805286Y-79858454D01*
X41809481Y-79861802D01*
X41813445Y-79864604D01*
X41817172Y-79866803D01*
X41820658Y-79868345D01*
X41823898Y-79869172D01*
X41826889Y-79869229D01*
X41829624Y-79868461D01*
X41832101Y-79866811D01*
X41832905Y-79863598D01*
X41833462Y-79859619D01*
X41833960Y-79849575D01*
X41833362Y-79822646D01*
X41832300Y-79789450D01*
X41832217Y-79771572D01*
X41832764Y-79753412D01*
X41834191Y-79735399D01*
X41836747Y-79717961D01*
X41838525Y-79709591D01*
X41840680Y-79701525D01*
X41843240Y-79693817D01*
X41846239Y-79686520D01*
X41849706Y-79679689D01*
X41853674Y-79673375D01*
X41858172Y-79667634D01*
X41863233Y-79662518D01*
X41868887Y-79658082D01*
X41875165Y-79654377D01*
X41882099Y-79651459D01*
X41889720Y-79649381D01*
X41897800Y-79648290D01*
X41906074Y-79647796D01*
X41914516Y-79647853D01*
X41923101Y-79648415D01*
X41931804Y-79649433D01*
X41940598Y-79650863D01*
X41949458Y-79652657D01*
X41958358Y-79654768D01*
X41976176Y-79659757D01*
X41993848Y-79665456D01*
X42027931Y-79677489D01*
X42043931Y-79683078D01*
X42058964Y-79687883D01*
X42072824Y-79691532D01*
X42079251Y-79692806D01*
X42085307Y-79693650D01*
X42090968Y-79694019D01*
X42096207Y-79693865D01*
X42100999Y-79693142D01*
X42105319Y-79691804D01*
X42109140Y-79689802D01*
X42112437Y-79687092D01*
X42115185Y-79683626D01*
X42117357Y-79679357D01*
X42118336Y-79666764D01*
X42116641Y-79648201D01*
X42112351Y-79624373D01*
X42105547Y-79595987D01*
X42096310Y-79563750D01*
X42084720Y-79528368D01*
X42070859Y-79490548D01*
X42054806Y-79450997D01*
X42036642Y-79410420D01*
X42016448Y-79369525D01*
X41994304Y-79329017D01*
X41970292Y-79289605D01*
X41944491Y-79251994D01*
X41916982Y-79216890D01*
X41887847Y-79185001D01*
X41872694Y-79170483D01*
X41857164Y-79157033D01*
X41824811Y-79131297D01*
X41791710Y-79106468D01*
X41758111Y-79082400D01*
X41724264Y-79058947D01*
X41591368Y-78968352D01*
X41560013Y-78945777D01*
X41529904Y-78922938D01*
X41501290Y-78899689D01*
X41474420Y-78875884D01*
X41449543Y-78851377D01*
X41426908Y-78826020D01*
X41416509Y-78812978D01*
X41406764Y-78799669D01*
X41397705Y-78786074D01*
X41389361Y-78772176D01*
X41385915Y-78773161D01*
X41382324Y-78774069D01*
X41378630Y-78774923D01*
X41374873Y-78775746D01*
X41367336Y-78777381D01*
X41363638Y-78778237D01*
X41360041Y-78779149D01*
X41377210Y-78774375D01*
X41385830Y-78772006D01*
X41394405Y-78769727D01*
X41391817Y-78752482D01*
X41391029Y-78734938D01*
X41391949Y-78717072D01*
X41394487Y-78698864D01*
X41398550Y-78680291D01*
X41404049Y-78661332D01*
X41418988Y-78622172D01*
X41438573Y-78581210D01*
X41462076Y-78538274D01*
X41517916Y-78445795D01*
X41580676Y-78343359D01*
X41612828Y-78287977D01*
X41644522Y-78229589D01*
X41675029Y-78168024D01*
X41703619Y-78103110D01*
X41729564Y-78034674D01*
X41752135Y-77962545D01*
X41787186Y-77949803D01*
X41824213Y-77938711D01*
X41903534Y-77921229D01*
X41988783Y-77909597D01*
X42078645Y-77903314D01*
X42171805Y-77901878D01*
X42266946Y-77904788D01*
G36*
X42266946Y-77904788D02*
G01*
X42362754Y-77911541D01*
X42457912Y-77921637D01*
X42551107Y-77934573D01*
X42641022Y-77949849D01*
X42726341Y-77966962D01*
X42805750Y-77985411D01*
X42877934Y-78004695D01*
X42941576Y-78024311D01*
X42995361Y-78043759D01*
X43037974Y-78062536D01*
X43039788Y-78093895D01*
X43042841Y-78124284D01*
X43047068Y-78153759D01*
X43052401Y-78182376D01*
X43058776Y-78210191D01*
X43066126Y-78237260D01*
X43074385Y-78263638D01*
X43083487Y-78289381D01*
X43103957Y-78339188D01*
X43127007Y-78387127D01*
X43152110Y-78433645D01*
X43178738Y-78479188D01*
X43234457Y-78569141D01*
X43262491Y-78614444D01*
X43289938Y-78660561D01*
X43316270Y-78707938D01*
X43340959Y-78757023D01*
X43363477Y-78808263D01*
X43373757Y-78834830D01*
X43383296Y-78862104D01*
X43384102Y-78862268D01*
X43384844Y-78862398D01*
X43385541Y-78862505D01*
X43386216Y-78862601D01*
X43386890Y-78862696D01*
X43387583Y-78862804D01*
X43388318Y-78862936D01*
X43389114Y-78863103D01*
X43396382Y-78907636D01*
X43401338Y-78953311D01*
X43404228Y-78999867D01*
X43405297Y-79047045D01*
X43404793Y-79094584D01*
X43402960Y-79142224D01*
X43396295Y-79236767D01*
X43377857Y-79415616D01*
X43370021Y-79495758D01*
X43367310Y-79532598D01*
X43365732Y-79566938D01*
X43365779Y-79601041D01*
X43366810Y-79637350D01*
X43368751Y-79675256D01*
X43371530Y-79714151D01*
X43375072Y-79753428D01*
X43379303Y-79792478D01*
X43384151Y-79830693D01*
X43389541Y-79867467D01*
X43395401Y-79902191D01*
X43401656Y-79934257D01*
X43408233Y-79963057D01*
X43415058Y-79987984D01*
X43422058Y-80008430D01*
X43429159Y-80023787D01*
X43432724Y-80029367D01*
X43436288Y-80033447D01*
X43439839Y-80035950D01*
X43443370Y-80036802D01*
X43447771Y-80037608D01*
X43452071Y-80037716D01*
X43456287Y-80037173D01*
X43460436Y-80036028D01*
X43464536Y-80034328D01*
X43468603Y-80032122D01*
X43472653Y-80029457D01*
X43476705Y-80026382D01*
X43484881Y-80019194D01*
X43493264Y-80010940D01*
X43511198Y-79992775D01*
X43521021Y-79983632D01*
X43526206Y-79979214D01*
X43531595Y-79974962D01*
X43537207Y-79970924D01*
X43543057Y-79967148D01*
X43549163Y-79963682D01*
X43555541Y-79960574D01*
X43562210Y-79957873D01*
X43569185Y-79955626D01*
X43576483Y-79953881D01*
X43584123Y-79952687D01*
X43592120Y-79952091D01*
X43600491Y-79952141D01*
X43609254Y-79952886D01*
X43618426Y-79954374D01*
X43627919Y-79956514D01*
X43637175Y-79959163D01*
X43646202Y-79962289D01*
X43655012Y-79965860D01*
X43663615Y-79969842D01*
X43672022Y-79974204D01*
X43680243Y-79978912D01*
X43688288Y-79983935D01*
X43696169Y-79989240D01*
X43703896Y-79994794D01*
X43718928Y-80006520D01*
X43733469Y-80018854D01*
X43747604Y-80031535D01*
X43774990Y-80056902D01*
X43788409Y-80069067D01*
X43801758Y-80080540D01*
X43815122Y-80091062D01*
X43821835Y-80095884D01*
X43828583Y-80100372D01*
X43835377Y-80104491D01*
X43842227Y-80108210D01*
X43849144Y-80111496D01*
X43856138Y-80114316D01*
X43862399Y-80113146D01*
X43868080Y-80111080D01*
X43873232Y-80108173D01*
X43877907Y-80104481D01*
X43882155Y-80100060D01*
X43886026Y-80094966D01*
X43889572Y-80089255D01*
X43892844Y-80082983D01*
X43898767Y-80068977D01*
X43904203Y-80053397D01*
X43915239Y-80019300D01*
X43921653Y-80001676D01*
X43929207Y-79984265D01*
X43933538Y-79975779D01*
X43938307Y-79967514D01*
X43943565Y-79959525D01*
X43949361Y-79951869D01*
X43955748Y-79944601D01*
X43962775Y-79937777D01*
X43970494Y-79931453D01*
X43978956Y-79925686D01*
X43988212Y-79920530D01*
X43998311Y-79916042D01*
X44009306Y-79912277D01*
X44021247Y-79909291D01*
X44027903Y-79908492D01*
X44035178Y-79908405D01*
X44043029Y-79908979D01*
X44051416Y-79910165D01*
X44069634Y-79914173D01*
X44089501Y-79920029D01*
X44110687Y-79927336D01*
X44132862Y-79935693D01*
X44178862Y-79953963D01*
X44224861Y-79971646D01*
X44247036Y-79979270D01*
X44268221Y-79985551D01*
X44288087Y-79990089D01*
X44297422Y-79991579D01*
X44306303Y-79992485D01*
X44314690Y-79992755D01*
X44322541Y-79992340D01*
X44329815Y-79991190D01*
X44336470Y-79989255D01*
X44339823Y-79987509D01*
X44342418Y-79985097D01*
X44344318Y-79982040D01*
X44345586Y-79978359D01*
X44346286Y-79974077D01*
X44346481Y-79969214D01*
X44345608Y-79957832D01*
X44334559Y-79893385D01*
X44332438Y-79873403D01*
X44331585Y-79852215D01*
X44332506Y-79829996D01*
X44333790Y-79818552D01*
X44335707Y-79806915D01*
X44338321Y-79795106D01*
X44341694Y-79783146D01*
X44345891Y-79771057D01*
X44350974Y-79758860D01*
X44357006Y-79746577D01*
X44364051Y-79734229D01*
X44372173Y-79721837D01*
X44381433Y-79709424D01*
X44384821Y-79705467D01*
X44388274Y-79701726D01*
X44391789Y-79698196D01*
X44395363Y-79694870D01*
X44398992Y-79691744D01*
X44402674Y-79688810D01*
X44410184Y-79683499D01*
X44417868Y-79678890D01*
X44425702Y-79674936D01*
X44433660Y-79671591D01*
X44441720Y-79668806D01*
X44449855Y-79666536D01*
X44458042Y-79664733D01*
X44466256Y-79663351D01*
X44474473Y-79662343D01*
X44482668Y-79661661D01*
X44490817Y-79661259D01*
X44498896Y-79661090D01*
X44506879Y-79661107D01*
X44410370Y-79861348D01*
X44119560Y-80458471D01*
X40588690Y-80459607D01*
X40485509Y-80263878D01*
X40433636Y-80157194D01*
X40408259Y-80100083D01*
X40383495Y-80039862D01*
X40359524Y-79976085D01*
X40336526Y-79908305D01*
X40314681Y-79836074D01*
X40294169Y-79758947D01*
X40275169Y-79676475D01*
X40257863Y-79588211D01*
X40242429Y-79493709D01*
X40229048Y-79392522D01*
X40223855Y-79340194D01*
X40220500Y-79287958D01*
X40218873Y-79235917D01*
X40218863Y-79184173D01*
X40220361Y-79132830D01*
X40223257Y-79081990D01*
X40227442Y-79031757D01*
X40232807Y-78982233D01*
X40246634Y-78885725D01*
X40263862Y-78793290D01*
X40283613Y-78705750D01*
X40305009Y-78623929D01*
X40327174Y-78548651D01*
X40349231Y-78480738D01*
X40370300Y-78421015D01*
X40389507Y-78370304D01*
X40418819Y-78299213D01*
X40430150Y-78274053D01*
X40459690Y-78277573D01*
X40488408Y-78279689D01*
X40516892Y-78280483D01*
X40545730Y-78280034D01*
X40575508Y-78278424D01*
X40606815Y-78275733D01*
X40640237Y-78272042D01*
X40676363Y-78267430D01*
X40675823Y-78286871D01*
X40676444Y-78306345D01*
X40678154Y-78325836D01*
X40680882Y-78345323D01*
X40684555Y-78364791D01*
X40689102Y-78384220D01*
X40694451Y-78403593D01*
X40700531Y-78422892D01*
X40714596Y-78461195D01*
X40730722Y-78498985D01*
X40748336Y-78536118D01*
X40766865Y-78572451D01*
X40838656Y-78706893D01*
X40853154Y-78737062D01*
X40865125Y-78765567D01*
X40873996Y-78792263D01*
X40877089Y-78804888D01*
X40879192Y-78817006D01*
X40888546Y-78937982D01*
X40896760Y-79096750D01*
X40907219Y-79278110D01*
X40923307Y-79466861D01*
X40934518Y-79559257D01*
X40948405Y-79647800D01*
X40965391Y-79730590D01*
X40985898Y-79805726D01*
X40997605Y-79839831D01*
X41010351Y-79871309D01*
X41024188Y-79899924D01*
X41039170Y-79925438D01*
X41055350Y-79947614D01*
X41072781Y-79966214D01*
X41091514Y-79981000D01*
X41111604Y-79991735D01*
X41115302Y-79992573D01*
X41118905Y-79992316D01*
X41122435Y-79991025D01*
X41125914Y-79988763D01*
X41129365Y-79985591D01*
X41132808Y-79981571D01*
X41139763Y-79971234D01*
X41146952Y-79958246D01*
X41154554Y-79943101D01*
X41171693Y-79908321D01*
X41181582Y-79889673D01*
X41192584Y-79870845D01*
X41204876Y-79852333D01*
X41211561Y-79843350D01*
X41218633Y-79834630D01*
X41226116Y-79826237D01*
X41234031Y-79818231D01*
X41242400Y-79810674D01*
X41251245Y-79803629D01*
X41260588Y-79797157D01*
X41270451Y-79791320D01*
X41280856Y-79786179D01*
X41291824Y-79781797D01*
X41303163Y-79778617D01*
X41314198Y-79776978D01*
X41324931Y-79776780D01*
X41335368Y-79777922D01*
X41345511Y-79780305D01*
X41355364Y-79783829D01*
X41364931Y-79788395D01*
X41374215Y-79793902D01*
X41383221Y-79800252D01*
X41391952Y-79807343D01*
X41400411Y-79815077D01*
X41408603Y-79823354D01*
X41424198Y-79841136D01*
X41438767Y-79859892D01*
X41487371Y-79928693D01*
X41497251Y-79940347D01*
X41501871Y-79944794D01*
X41506283Y-79948187D01*
X41510489Y-79950427D01*
X41514494Y-79951414D01*
X41518302Y-79951049D01*
X41521916Y-79949231D01*
X41524433Y-79947176D01*
X41526838Y-79944326D01*
X41529152Y-79940735D01*
X41531394Y-79936459D01*
X41535743Y-79926067D01*
X41540048Y-79913585D01*
X41549171Y-79884094D01*
X41554311Y-79867956D01*
X41560051Y-79851470D01*
X41566554Y-79835072D01*
X41573981Y-79819197D01*
X41578091Y-79811592D01*
X41582493Y-79804282D01*
X41587206Y-79797319D01*
X41592251Y-79790760D01*
X41597647Y-79784658D01*
X41603416Y-79779068D01*
X41609577Y-79774045D01*
X41616150Y-79769642D01*
X41623156Y-79765915D01*
X41630615Y-79762917D01*
X41638547Y-79760703D01*
X41646971Y-79759328D01*
X41655355Y-79759040D01*
X41663617Y-79759546D01*
X41671753Y-79760790D01*
X41679757Y-79762716D01*
X41687626Y-79765268D01*
X41695355Y-79768390D01*
X41702940Y-79772027D01*
X41710374Y-79776122D01*
X41717655Y-79780620D01*
X41724778Y-79785465D01*
X41731737Y-79790602D01*
X41738529Y-79795973D01*
X41751592Y-79807198D01*
X41763928Y-79818694D01*
X41786278Y-79840713D01*
X41796218Y-79850341D01*
X41805286Y-79858454D01*
X41809481Y-79861802D01*
X41813445Y-79864604D01*
X41817172Y-79866803D01*
X41820658Y-79868345D01*
X41823898Y-79869172D01*
X41826889Y-79869229D01*
X41829624Y-79868461D01*
X41832101Y-79866811D01*
X41832905Y-79863598D01*
X41833462Y-79859619D01*
X41833960Y-79849575D01*
X41833362Y-79822646D01*
X41832300Y-79789450D01*
X41832217Y-79771572D01*
X41832764Y-79753412D01*
X41834191Y-79735399D01*
X41836747Y-79717961D01*
X41838525Y-79709591D01*
X41840680Y-79701525D01*
X41843240Y-79693817D01*
X41846239Y-79686520D01*
X41849706Y-79679689D01*
X41853674Y-79673375D01*
X41858172Y-79667634D01*
X41863233Y-79662518D01*
X41868887Y-79658082D01*
X41875165Y-79654377D01*
X41882099Y-79651459D01*
X41889720Y-79649381D01*
X41897800Y-79648290D01*
X41906074Y-79647796D01*
X41914516Y-79647853D01*
X41923101Y-79648415D01*
X41931804Y-79649433D01*
X41940598Y-79650863D01*
X41949458Y-79652657D01*
X41958358Y-79654768D01*
X41976176Y-79659757D01*
X41993848Y-79665456D01*
X42027931Y-79677489D01*
X42043931Y-79683078D01*
X42058964Y-79687883D01*
X42072824Y-79691532D01*
X42079251Y-79692806D01*
X42085307Y-79693650D01*
X42090968Y-79694019D01*
X42096207Y-79693865D01*
X42100999Y-79693142D01*
X42105319Y-79691804D01*
X42109140Y-79689802D01*
X42112437Y-79687092D01*
X42115185Y-79683626D01*
X42117357Y-79679357D01*
X42118336Y-79666764D01*
X42116641Y-79648201D01*
X42112351Y-79624373D01*
X42105547Y-79595987D01*
X42096310Y-79563750D01*
X42084720Y-79528368D01*
X42070859Y-79490548D01*
X42054806Y-79450997D01*
X42036642Y-79410420D01*
X42016448Y-79369525D01*
X41994304Y-79329017D01*
X41970292Y-79289605D01*
X41944491Y-79251994D01*
X41916982Y-79216890D01*
X41887847Y-79185001D01*
X41872694Y-79170483D01*
X41857164Y-79157033D01*
X41824811Y-79131297D01*
X41791710Y-79106468D01*
X41758111Y-79082400D01*
X41724264Y-79058947D01*
X41591368Y-78968352D01*
X41560013Y-78945777D01*
X41529904Y-78922938D01*
X41501290Y-78899689D01*
X41474420Y-78875884D01*
X41449543Y-78851377D01*
X41426908Y-78826020D01*
X41416509Y-78812978D01*
X41406764Y-78799669D01*
X41397705Y-78786074D01*
X41389361Y-78772176D01*
X41385915Y-78773161D01*
X41382324Y-78774069D01*
X41378630Y-78774923D01*
X41374873Y-78775746D01*
X41367336Y-78777381D01*
X41363638Y-78778237D01*
X41360041Y-78779149D01*
X41377210Y-78774375D01*
X41385830Y-78772006D01*
X41394405Y-78769727D01*
X41391817Y-78752482D01*
X41391029Y-78734938D01*
X41391949Y-78717072D01*
X41394487Y-78698864D01*
X41398550Y-78680291D01*
X41404049Y-78661332D01*
X41418988Y-78622172D01*
X41438573Y-78581210D01*
X41462076Y-78538274D01*
X41517916Y-78445795D01*
X41580676Y-78343359D01*
X41612828Y-78287977D01*
X41644522Y-78229589D01*
X41675029Y-78168024D01*
X41703619Y-78103110D01*
X41729564Y-78034674D01*
X41752135Y-77962545D01*
X41787186Y-77949803D01*
X41824213Y-77938711D01*
X41903534Y-77921229D01*
X41988783Y-77909597D01*
X42078645Y-77903314D01*
X42171805Y-77901878D01*
X42266946Y-77904788D01*
G37*
X40240442Y-75573690D02*
X40240434Y-75573690D01*
X40240442Y-75573683D01*
X40240442Y-75573690D01*
G36*
X40240442Y-75573690D02*
G01*
X40240434Y-75573690D01*
X40240442Y-75573683D01*
X40240442Y-75573690D01*
G37*
D10*
X44882986Y-76395439D02*
X44942084Y-76398611D01*
X45001437Y-76404345D01*
X45060919Y-76412639D01*
X45120402Y-76423490D01*
X45179760Y-76436894D01*
X45238868Y-76452848D01*
X45297598Y-76471349D01*
X45355824Y-76492393D01*
X45413420Y-76515978D01*
X45470258Y-76542100D01*
X45526214Y-76570757D01*
X45581160Y-76601944D01*
X45634970Y-76635658D01*
X45687518Y-76671898D01*
X45738677Y-76710658D01*
X45788320Y-76751937D01*
X45836321Y-76795730D01*
X45882555Y-76842035D01*
X45926893Y-76890848D01*
X45969211Y-76942167D01*
X46009381Y-76995987D01*
X46047276Y-77052307D01*
X46082772Y-77111122D01*
X46115741Y-77172430D01*
X46150081Y-77241302D01*
X46181599Y-77308616D01*
X46209995Y-77374860D01*
X46234967Y-77440526D01*
X46256217Y-77506103D01*
X46273442Y-77572084D01*
X46286344Y-77638957D01*
X46294620Y-77707215D01*
X46297971Y-77777346D01*
X46296095Y-77849843D01*
X46288694Y-77925194D01*
X46275465Y-78003892D01*
X46256110Y-78086426D01*
X46230326Y-78173286D01*
X46197814Y-78264965D01*
X46158273Y-78361951D01*
X46152537Y-78347846D01*
X46146133Y-78334568D01*
X46139079Y-78322093D01*
X46131398Y-78310399D01*
X46123108Y-78299463D01*
X46114230Y-78289261D01*
X46104783Y-78279772D01*
X46094789Y-78270971D01*
X46084268Y-78262837D01*
X46073238Y-78255346D01*
X46061722Y-78248476D01*
X46049738Y-78242203D01*
X46024449Y-78231358D01*
X45997532Y-78222630D01*
X45969150Y-78215834D01*
X45939464Y-78210789D01*
X45908633Y-78207310D01*
X45876821Y-78205215D01*
X45844188Y-78204321D01*
X45810895Y-78204444D01*
X45742976Y-78207014D01*
X45646935Y-78214239D01*
X45556666Y-78222877D01*
X45472019Y-78233053D01*
X45392843Y-78244890D01*
X45318988Y-78258514D01*
X45250305Y-78274049D01*
X45217855Y-78282572D01*
X45186642Y-78291619D01*
X45156646Y-78301206D01*
X45127849Y-78311349D01*
X45100232Y-78322063D01*
X45073777Y-78333363D01*
X45048464Y-78345266D01*
X45024274Y-78357786D01*
X45001190Y-78370939D01*
X44979192Y-78384741D01*
X44958261Y-78399208D01*
X44938378Y-78414355D01*
X44919526Y-78430197D01*
X44901684Y-78446750D01*
X44884835Y-78464029D01*
X44868959Y-78482051D01*
X44854037Y-78500831D01*
X44840052Y-78520384D01*
X44826984Y-78540726D01*
X44814814Y-78561872D01*
X44809824Y-78568169D01*
X44805624Y-78574415D01*
X44802180Y-78580616D01*
X44799461Y-78586779D01*
X44797435Y-78592911D01*
X44796069Y-78599018D01*
X44795332Y-78605108D01*
X44795191Y-78611188D01*
X44795614Y-78617264D01*
X44796570Y-78623343D01*
X44798026Y-78629432D01*
X44799950Y-78635538D01*
X44802310Y-78641668D01*
X44805075Y-78647829D01*
X44811687Y-78660269D01*
X44819531Y-78672914D01*
X44828349Y-78685820D01*
X44847885Y-78712630D01*
X44858088Y-78726645D01*
X44868241Y-78741139D01*
X44878086Y-78756168D01*
X44887366Y-78771787D01*
X44810947Y-78749840D01*
X44737857Y-78726210D01*
X44668039Y-78700956D01*
X44601435Y-78674139D01*
X44537988Y-78645817D01*
X44477642Y-78616050D01*
X44420337Y-78584898D01*
X44366019Y-78552420D01*
X44314628Y-78518675D01*
X44266108Y-78483723D01*
X44220402Y-78447623D01*
X44177452Y-78410436D01*
X44137202Y-78372219D01*
X44099593Y-78333034D01*
X44064568Y-78292939D01*
X44032071Y-78251993D01*
X44002044Y-78210258D01*
X43974430Y-78167790D01*
X43949171Y-78124651D01*
X43926210Y-78080900D01*
X43905490Y-78036596D01*
X43886954Y-77991799D01*
X43870544Y-77946568D01*
X43856204Y-77900963D01*
X43833501Y-77808867D01*
X43818388Y-77715988D01*
X43810406Y-77622801D01*
X43809097Y-77529783D01*
X43809096Y-77529783D01*
X43811117Y-77483947D01*
X43814800Y-77438318D01*
X43820092Y-77392955D01*
X43826940Y-77347919D01*
X43835291Y-77303268D01*
X43845090Y-77259064D01*
X43856286Y-77215365D01*
X43868825Y-77172233D01*
X43882655Y-77129727D01*
X43897721Y-77087906D01*
X43913970Y-77046832D01*
X43931351Y-77006563D01*
X43949808Y-76967160D01*
X43969290Y-76928683D01*
X43989744Y-76891191D01*
X44011115Y-76854744D01*
X44033351Y-76819404D01*
X44056399Y-76785228D01*
X44080205Y-76752278D01*
X44104717Y-76720614D01*
X44129881Y-76690294D01*
X44155644Y-76661380D01*
X44181954Y-76633931D01*
X44208756Y-76608007D01*
X44235998Y-76583669D01*
X44263627Y-76560975D01*
X44291589Y-76539986D01*
X44319831Y-76520762D01*
X44348301Y-76503362D01*
X44376944Y-76487848D01*
X44405709Y-76474278D01*
X44434541Y-76462713D01*
X44487050Y-76445266D01*
X44540825Y-76430408D01*
X44595740Y-76418136D01*
X44651669Y-76408445D01*
X44708484Y-76401333D01*
X44766059Y-76396797D01*
X44824269Y-76394833D01*
X44882986Y-76395439D01*
X39501252Y-77228100D02*
X39518958Y-77337012D01*
X39543422Y-77441701D01*
X39574528Y-77541873D01*
X39612159Y-77637232D01*
X39656201Y-77727483D01*
X39706538Y-77812329D01*
X39763053Y-77891476D01*
X39793592Y-77928820D01*
X39825632Y-77964628D01*
X39859160Y-77998863D01*
X39894159Y-78031489D01*
X39930617Y-78062469D01*
X39968519Y-78091765D01*
X40007849Y-78119340D01*
X40048594Y-78145159D01*
X40090740Y-78169183D01*
X40134271Y-78191376D01*
X40179174Y-78211700D01*
X40225434Y-78230120D01*
X40273036Y-78246598D01*
X40321966Y-78261096D01*
X40372209Y-78273579D01*
X40423752Y-78284009D01*
X40423751Y-78284017D01*
X40386822Y-78369191D01*
X40354011Y-78453480D01*
X40300162Y-78619265D01*
X40261038Y-78781100D01*
X40235470Y-78938715D01*
X40222293Y-79091839D01*
X40220337Y-79240200D01*
X40228436Y-79383527D01*
X40245421Y-79521550D01*
X40270127Y-79653998D01*
X40301384Y-79780599D01*
X40338026Y-79901083D01*
X40378886Y-80015179D01*
X40422795Y-80122615D01*
X40468586Y-80223121D01*
X40561145Y-80402257D01*
X40592912Y-80462882D01*
X40625442Y-80531132D01*
X40657274Y-80606044D01*
X40686944Y-80686658D01*
X40712989Y-80772012D01*
X40733948Y-80861143D01*
X40748357Y-80953091D01*
X40752648Y-80999821D01*
X40754753Y-81046894D01*
X40754489Y-81094191D01*
X40751674Y-81141590D01*
X40746124Y-81188973D01*
X40737657Y-81236218D01*
X40726090Y-81283206D01*
X40711240Y-81329816D01*
X40692923Y-81375928D01*
X40670958Y-81421422D01*
X40645162Y-81466178D01*
X40615351Y-81510075D01*
X40581343Y-81552994D01*
X40542955Y-81594814D01*
X40500004Y-81635414D01*
X40452307Y-81674676D01*
X40399681Y-81712478D01*
X40341944Y-81748700D01*
X40307082Y-81767635D01*
X40270950Y-81784265D01*
X40233637Y-81798634D01*
X40195232Y-81810787D01*
X40155825Y-81820767D01*
X40115507Y-81828617D01*
X40074365Y-81834383D01*
X40032490Y-81838106D01*
X39989970Y-81839832D01*
X39946897Y-81839605D01*
X39859445Y-81833463D01*
X39770850Y-81820032D01*
X39681827Y-81799662D01*
X39593093Y-81772705D01*
X39505363Y-81739510D01*
X39419354Y-81700428D01*
X39335782Y-81655810D01*
X39255362Y-81606006D01*
X39178812Y-81551368D01*
X39106846Y-81492246D01*
X39040180Y-81428991D01*
X38990610Y-81375752D01*
X38943629Y-81320479D01*
X38899192Y-81263307D01*
X38857249Y-81204369D01*
X38780662Y-81081737D01*
X38713489Y-80953665D01*
X38655354Y-80821230D01*
X38605879Y-80685513D01*
X38564684Y-80547592D01*
X38531394Y-80408547D01*
X38505629Y-80269456D01*
X38487012Y-80131400D01*
X38475166Y-79995457D01*
X38469712Y-79862706D01*
X38470272Y-79734227D01*
X38476469Y-79611099D01*
X38487925Y-79494401D01*
X38504261Y-79385213D01*
X38551533Y-79156132D01*
X38605560Y-78945224D01*
X38665304Y-78751086D01*
X38729729Y-78572316D01*
X38797798Y-78407511D01*
X38868474Y-78255269D01*
X38940718Y-78114187D01*
X39013495Y-77982864D01*
X39289184Y-77527099D01*
X39349065Y-77423528D01*
X39403256Y-77321300D01*
X39450719Y-77219012D01*
X39490418Y-77115262D01*
X39501252Y-77228100D01*
X44875621Y-77721201D02*
X44880614Y-77721714D01*
X44885757Y-77722493D01*
X44891043Y-77723538D01*
X44896463Y-77724851D01*
X44902008Y-77726431D01*
X44907669Y-77728281D01*
X44913438Y-77730400D01*
X44919306Y-77732791D01*
X44925264Y-77735453D01*
X44931303Y-77738388D01*
X44937415Y-77741596D01*
X44943592Y-77745079D01*
X44949824Y-77748838D01*
X44956102Y-77752872D01*
X44962418Y-77757184D01*
X44962418Y-77757192D01*
X44974812Y-77765934D01*
X44986630Y-77775237D01*
X44997825Y-77785015D01*
X45008350Y-77795185D01*
X45018156Y-77805663D01*
X45027196Y-77816363D01*
X45035423Y-77827203D01*
X45042788Y-77838098D01*
X45049245Y-77848963D01*
X45054745Y-77859715D01*
X45059241Y-77870269D01*
X45062685Y-77880542D01*
X45063998Y-77885546D01*
X45065030Y-77890448D01*
X45065775Y-77895237D01*
X45066227Y-77899903D01*
X45066381Y-77904436D01*
X45066230Y-77908825D01*
X45065769Y-77913058D01*
X45064991Y-77917127D01*
X45063901Y-77921212D01*
X45062512Y-77925034D01*
X45060832Y-77928590D01*
X45058870Y-77931882D01*
X45056636Y-77934909D01*
X45054137Y-77937669D01*
X45051382Y-77940163D01*
X45048381Y-77942391D01*
X45045141Y-77944351D01*
X45041671Y-77946044D01*
X45037981Y-77947468D01*
X45034079Y-77948624D01*
X45029973Y-77949510D01*
X45025673Y-77950128D01*
X45021186Y-77950475D01*
X45016522Y-77950551D01*
X45011690Y-77950357D01*
X45006697Y-77949892D01*
X45001554Y-77949154D01*
X44996268Y-77948145D01*
X44990848Y-77946862D01*
X44985303Y-77945307D01*
X44979642Y-77943478D01*
X44973873Y-77941374D01*
X44968005Y-77938996D01*
X44962047Y-77936343D01*
X44956008Y-77933415D01*
X44949895Y-77930211D01*
X44943719Y-77926730D01*
X44937487Y-77922972D01*
X44931208Y-77918937D01*
X44924891Y-77914625D01*
X44912498Y-77905882D01*
X44900680Y-77896575D01*
X44889485Y-77886785D01*
X44878960Y-77876592D01*
X44869154Y-77866078D01*
X44860114Y-77855321D01*
X44851887Y-77844404D01*
X44844522Y-77833406D01*
X44838065Y-77822408D01*
X44832565Y-77811491D01*
X44828069Y-77800734D01*
X44824625Y-77790219D01*
X44823312Y-77785078D01*
X44822280Y-77780027D01*
X44821535Y-77775077D01*
X44821083Y-77770237D01*
X44820929Y-77765518D01*
X44821080Y-77760930D01*
X44821541Y-77756483D01*
X44822319Y-77752187D01*
X44823409Y-77748329D01*
X44824798Y-77744721D01*
X44826478Y-77741364D01*
X44828440Y-77738258D01*
X44830674Y-77735405D01*
X44833173Y-77732805D01*
X44835928Y-77730460D01*
X44838930Y-77728370D01*
X44842170Y-77726536D01*
X44845639Y-77724960D01*
X44849329Y-77723641D01*
X44853232Y-77722582D01*
X44857338Y-77721782D01*
X44861638Y-77721243D01*
X44866125Y-77720966D01*
X44870789Y-77720951D01*
X44875621Y-77721201D01*
D11*
X45874463Y-76833295D02*
X45822070Y-76782058D01*
X45767510Y-76733982D01*
X45710959Y-76689073D01*
X45652595Y-76647335D01*
X45592596Y-76608774D01*
X45531138Y-76573394D01*
X45468401Y-76541200D01*
X45404560Y-76512196D01*
X45339794Y-76486388D01*
X45274280Y-76463780D01*
X45208195Y-76444376D01*
X45141717Y-76428182D01*
X45075024Y-76415203D01*
X45008293Y-76405442D01*
X44941702Y-76398905D01*
X44875427Y-76395597D01*
X44875427Y-76395605D01*
X44834561Y-76376246D01*
X44795413Y-76356264D01*
X44757879Y-76335683D01*
X44721855Y-76314526D01*
X44653921Y-76270581D01*
X44590778Y-76224616D01*
X44531593Y-76176819D01*
X44475532Y-76127379D01*
X44421763Y-76076485D01*
X44369452Y-76024323D01*
X44158137Y-75806777D01*
X44100625Y-75751107D01*
X44039573Y-75695300D01*
X43974149Y-75639544D01*
X43903520Y-75584028D01*
X46483207Y-75579756D01*
X45874463Y-76833295D01*
G36*
X45874463Y-76833295D02*
G01*
X45822070Y-76782058D01*
X45767510Y-76733982D01*
X45710959Y-76689073D01*
X45652595Y-76647335D01*
X45592596Y-76608774D01*
X45531138Y-76573394D01*
X45468401Y-76541200D01*
X45404560Y-76512196D01*
X45339794Y-76486388D01*
X45274280Y-76463780D01*
X45208195Y-76444376D01*
X45141717Y-76428182D01*
X45075024Y-76415203D01*
X45008293Y-76405442D01*
X44941702Y-76398905D01*
X44875427Y-76395597D01*
X44875427Y-76395605D01*
X44834561Y-76376246D01*
X44795413Y-76356264D01*
X44757879Y-76335683D01*
X44721855Y-76314526D01*
X44653921Y-76270581D01*
X44590778Y-76224616D01*
X44531593Y-76176819D01*
X44475532Y-76127379D01*
X44421763Y-76076485D01*
X44369452Y-76024323D01*
X44158137Y-75806777D01*
X44100625Y-75751107D01*
X44039573Y-75695300D01*
X43974149Y-75639544D01*
X43903520Y-75584028D01*
X46483207Y-75579756D01*
X45874463Y-76833295D01*
G37*
D10*
X43442392Y-78868072D02*
X43499000Y-78876863D01*
X43552500Y-78884423D01*
X43578515Y-78887367D01*
X43604270Y-78889552D01*
X43629937Y-78890830D01*
X43655689Y-78891050D01*
X43681696Y-78890062D01*
X43708133Y-78887716D01*
X43735171Y-78883862D01*
X43762981Y-78878350D01*
X43791738Y-78871031D01*
X43821612Y-78861753D01*
X43862973Y-78905956D01*
X43913621Y-78955445D01*
X44035593Y-79066357D01*
X44311962Y-79308447D01*
X44437628Y-79423928D01*
X44491046Y-79476844D01*
X44535793Y-79525236D01*
X44570074Y-79568122D01*
X44582729Y-79587193D01*
X44592093Y-79604521D01*
X44597943Y-79619982D01*
X44600054Y-79633453D01*
X44598202Y-79644812D01*
X44592162Y-79653936D01*
X44588875Y-79656718D01*
X44585127Y-79659001D01*
X44580943Y-79660830D01*
X44576345Y-79662247D01*
X44571357Y-79663297D01*
X44566001Y-79664022D01*
X44554283Y-79664673D01*
X44497407Y-79662995D01*
X44481621Y-79663243D01*
X44465582Y-79664454D01*
X44457527Y-79665530D01*
X44449478Y-79666976D01*
X44441459Y-79668837D01*
X44433494Y-79671156D01*
X44425606Y-79673977D01*
X44417818Y-79677343D01*
X44410154Y-79681297D01*
X44402637Y-79685883D01*
X44395290Y-79691144D01*
X44388137Y-79697124D01*
X44381202Y-79703867D01*
X44374506Y-79711415D01*
X44365246Y-79723829D01*
X44357125Y-79736220D01*
X44350079Y-79748569D01*
X44344045Y-79760853D01*
X44338961Y-79773052D01*
X44334763Y-79785142D01*
X44331387Y-79797104D01*
X44328771Y-79808915D01*
X44326851Y-79820554D01*
X44325565Y-79831999D01*
X44324638Y-79854224D01*
X44325485Y-79875416D01*
X44327599Y-79895403D01*
X44338623Y-79959868D01*
X44339491Y-79971253D01*
X44339294Y-79976118D01*
X44338593Y-79980402D01*
X44337323Y-79984083D01*
X44335422Y-79987141D01*
X44332827Y-79989554D01*
X44329474Y-79991300D01*
X44322818Y-79993235D01*
X44315544Y-79994385D01*
X44307693Y-79994800D01*
X44299306Y-79994529D01*
X44290424Y-79993624D01*
X44281089Y-79992133D01*
X44261223Y-79987596D01*
X44240037Y-79981315D01*
X44217862Y-79973691D01*
X44171862Y-79956007D01*
X44125863Y-79937738D01*
X44103688Y-79929381D01*
X44082502Y-79922074D01*
X44062635Y-79916217D01*
X44044418Y-79912210D01*
X44036030Y-79911024D01*
X44028179Y-79910449D01*
X44020905Y-79910537D01*
X44014249Y-79911336D01*
X44002308Y-79914321D01*
X43991314Y-79918085D01*
X43981214Y-79922572D01*
X43971958Y-79927726D01*
X43963496Y-79933491D01*
X43955777Y-79939812D01*
X43948749Y-79946632D01*
X43942362Y-79953897D01*
X43936565Y-79961549D01*
X43931307Y-79969534D01*
X43926538Y-79977794D01*
X43922206Y-79986276D01*
X43914651Y-80003677D01*
X43908236Y-80021291D01*
X43897198Y-80055369D01*
X43891761Y-80070940D01*
X43885837Y-80084937D01*
X43882566Y-80091206D01*
X43879019Y-80096914D01*
X43875148Y-80102005D01*
X43870900Y-80106423D01*
X43866226Y-80110113D01*
X43861073Y-80113019D01*
X43855392Y-80115084D01*
X43849132Y-80116254D01*
X43842138Y-80113433D01*
X43835222Y-80110147D01*
X43828372Y-80106429D01*
X43821579Y-80102309D01*
X43814831Y-80097822D01*
X43808119Y-80093000D01*
X43794758Y-80082478D01*
X43781412Y-80071005D01*
X43767996Y-80058840D01*
X43740618Y-80033474D01*
X43726488Y-80020793D01*
X43711950Y-80008460D01*
X43696922Y-79996734D01*
X43689197Y-79991180D01*
X43681318Y-79985876D01*
X43673274Y-79980854D01*
X43665054Y-79976146D01*
X43656649Y-79971785D01*
X43648046Y-79967803D01*
X43639237Y-79964233D01*
X43630211Y-79961107D01*
X43620956Y-79958458D01*
X43611462Y-79956319D01*
X43602290Y-79954832D01*
X43593527Y-79954087D01*
X43585154Y-79954037D01*
X43577156Y-79954634D01*
X43569515Y-79955829D01*
X43562214Y-79957575D01*
X43555237Y-79959823D01*
X43548566Y-79962526D01*
X43542185Y-79965635D01*
X43536076Y-79969102D01*
X43530223Y-79972880D01*
X43524609Y-79976919D01*
X43519216Y-79981173D01*
X43514028Y-79985593D01*
X43504199Y-79994740D01*
X43486251Y-80012912D01*
X43477862Y-80021168D01*
X43469682Y-80028360D01*
X43465627Y-80031436D01*
X43461575Y-80034102D01*
X43457506Y-80036309D01*
X43453405Y-80038010D01*
X43449255Y-80039155D01*
X43445038Y-80039699D01*
X43440738Y-80039591D01*
X43436337Y-80038785D01*
X43436329Y-80038778D01*
X43432798Y-80037926D01*
X43429247Y-80035423D01*
X43425685Y-80031344D01*
X43422120Y-80025765D01*
X43415023Y-80010411D01*
X43408029Y-79989969D01*
X43401210Y-79965046D01*
X43394641Y-79936250D01*
X43388394Y-79904189D01*
X43382542Y-79869470D01*
X43377160Y-79832701D01*
X43372320Y-79794490D01*
X43368096Y-79755445D01*
X43364561Y-79716172D01*
X43361788Y-79677281D01*
X43359850Y-79639377D01*
X43358821Y-79603070D01*
X43358775Y-79568967D01*
X43360374Y-79534338D01*
X43363127Y-79497165D01*
X43371087Y-79416255D01*
X43389734Y-79235664D01*
X43396376Y-79140258D01*
X43398141Y-79092212D01*
X43398533Y-79044295D01*
X43397297Y-78996773D01*
X43394182Y-78949913D01*
X43388933Y-78903983D01*
X43381299Y-78859250D01*
X43442392Y-78868072D01*
D11*
X44095237Y-78330546D02*
X44130179Y-78367769D01*
X44167465Y-78404140D01*
X44207143Y-78439611D01*
X44249260Y-78474130D01*
X44293866Y-78507649D01*
X44341007Y-78540117D01*
X44390733Y-78571483D01*
X44443092Y-78601698D01*
X44498132Y-78630711D01*
X44555901Y-78658473D01*
X44616447Y-78684933D01*
X44679819Y-78710041D01*
X44746065Y-78733747D01*
X44815233Y-78756002D01*
X44887371Y-78776754D01*
X44886921Y-78782112D01*
X44886841Y-78782785D01*
X44886743Y-78783460D01*
X44886623Y-78784138D01*
X44886478Y-78784821D01*
X44886305Y-78785508D01*
X44886098Y-78786200D01*
X44885855Y-78786898D01*
X44885571Y-78787603D01*
X44833720Y-78900309D01*
X44810651Y-78951532D01*
X44790156Y-78999843D01*
X44781032Y-79023025D01*
X44772739Y-79045621D01*
X44765342Y-79067679D01*
X44758902Y-79089246D01*
X44753483Y-79110370D01*
X44749148Y-79131099D01*
X44745959Y-79151479D01*
X44743979Y-79171560D01*
X44583913Y-79501256D01*
X44558069Y-79554998D01*
X44529294Y-79520948D01*
X44494762Y-79483875D01*
X44455251Y-79444204D01*
X44411539Y-79402361D01*
X44314624Y-79313857D01*
X44210240Y-79221764D01*
X44003958Y-79040416D01*
X43914507Y-78957963D01*
X43875927Y-78920280D01*
X43842594Y-78885644D01*
X43843112Y-78885564D01*
X43843713Y-78885485D01*
X43844288Y-78885421D01*
X43844852Y-78885369D01*
X43845997Y-78885274D01*
X43846605Y-78885222D01*
X43847255Y-78885160D01*
X43846510Y-78858141D01*
X43846597Y-78832330D01*
X43847481Y-78807663D01*
X43849127Y-78784072D01*
X43851500Y-78761493D01*
X43854565Y-78739858D01*
X43858287Y-78719102D01*
X43862632Y-78699160D01*
X43867564Y-78679964D01*
X43873048Y-78661450D01*
X43879050Y-78643551D01*
X43885535Y-78626202D01*
X43899811Y-78592887D01*
X43915598Y-78560978D01*
X43932617Y-78529948D01*
X43950587Y-78499269D01*
X43988266Y-78436854D01*
X44007414Y-78404063D01*
X44026397Y-78369514D01*
X44044934Y-78332677D01*
X44062746Y-78293027D01*
X44062589Y-78292524D01*
X44095237Y-78330546D01*
G36*
X44095237Y-78330546D02*
G01*
X44130179Y-78367769D01*
X44167465Y-78404140D01*
X44207143Y-78439611D01*
X44249260Y-78474130D01*
X44293866Y-78507649D01*
X44341007Y-78540117D01*
X44390733Y-78571483D01*
X44443092Y-78601698D01*
X44498132Y-78630711D01*
X44555901Y-78658473D01*
X44616447Y-78684933D01*
X44679819Y-78710041D01*
X44746065Y-78733747D01*
X44815233Y-78756002D01*
X44887371Y-78776754D01*
X44886921Y-78782112D01*
X44886841Y-78782785D01*
X44886743Y-78783460D01*
X44886623Y-78784138D01*
X44886478Y-78784821D01*
X44886305Y-78785508D01*
X44886098Y-78786200D01*
X44885855Y-78786898D01*
X44885571Y-78787603D01*
X44833720Y-78900309D01*
X44810651Y-78951532D01*
X44790156Y-78999843D01*
X44781032Y-79023025D01*
X44772739Y-79045621D01*
X44765342Y-79067679D01*
X44758902Y-79089246D01*
X44753483Y-79110370D01*
X44749148Y-79131099D01*
X44745959Y-79151479D01*
X44743979Y-79171560D01*
X44583913Y-79501256D01*
X44558069Y-79554998D01*
X44529294Y-79520948D01*
X44494762Y-79483875D01*
X44455251Y-79444204D01*
X44411539Y-79402361D01*
X44314624Y-79313857D01*
X44210240Y-79221764D01*
X44003958Y-79040416D01*
X43914507Y-78957963D01*
X43875927Y-78920280D01*
X43842594Y-78885644D01*
X43843112Y-78885564D01*
X43843713Y-78885485D01*
X43844288Y-78885421D01*
X43844852Y-78885369D01*
X43845997Y-78885274D01*
X43846605Y-78885222D01*
X43847255Y-78885160D01*
X43846510Y-78858141D01*
X43846597Y-78832330D01*
X43847481Y-78807663D01*
X43849127Y-78784072D01*
X43851500Y-78761493D01*
X43854565Y-78739858D01*
X43858287Y-78719102D01*
X43862632Y-78699160D01*
X43867564Y-78679964D01*
X43873048Y-78661450D01*
X43879050Y-78643551D01*
X43885535Y-78626202D01*
X43899811Y-78592887D01*
X43915598Y-78560978D01*
X43932617Y-78529948D01*
X43950587Y-78499269D01*
X43988266Y-78436854D01*
X44007414Y-78404063D01*
X44026397Y-78369514D01*
X44044934Y-78332677D01*
X44062746Y-78293027D01*
X44062589Y-78292524D01*
X44095237Y-78330546D01*
G37*
D10*
X45794570Y-78207704D02*
X45879679Y-78213739D01*
X45958129Y-78224508D01*
X45976107Y-78227905D01*
X45993003Y-78231540D01*
X46008851Y-78235415D01*
X46023685Y-78239534D01*
X46037536Y-78243901D01*
X46050437Y-78248518D01*
X46062423Y-78253388D01*
X46073525Y-78258515D01*
X46083777Y-78263902D01*
X46093212Y-78269552D01*
X46101863Y-78275469D01*
X46109762Y-78281655D01*
X46116943Y-78288114D01*
X46123438Y-78294848D01*
X46129282Y-78301862D01*
X46134506Y-78309159D01*
X46139143Y-78316740D01*
X46143227Y-78324611D01*
X46146791Y-78332773D01*
X46149868Y-78341231D01*
X46152490Y-78349987D01*
X46154690Y-78359044D01*
X46157959Y-78378077D01*
X46159938Y-78398354D01*
X46160890Y-78419901D01*
X46161081Y-78442744D01*
X46160773Y-78466909D01*
X46161212Y-78501345D01*
X46165337Y-78539629D01*
X46173142Y-78581214D01*
X46184618Y-78625557D01*
X46199760Y-78672110D01*
X46218559Y-78720328D01*
X46241008Y-78769667D01*
X46267100Y-78819580D01*
X46296827Y-78869523D01*
X46330182Y-78918949D01*
X46367158Y-78967314D01*
X46407747Y-79014072D01*
X46451942Y-79058677D01*
X46475390Y-79080002D01*
X46499736Y-79100584D01*
X46524981Y-79120356D01*
X46551122Y-79139248D01*
X46578159Y-79157193D01*
X46606091Y-79174123D01*
X46606092Y-79174123D01*
X46606093Y-79174124D01*
X46606093Y-79174125D01*
X46606094Y-79174125D01*
X46606095Y-79174127D01*
X46606095Y-79174128D01*
X46606096Y-79174129D01*
X46606097Y-79174129D01*
X46606097Y-79174130D01*
X46606098Y-79174130D01*
X46606098Y-79174131D01*
X46606099Y-79174131D01*
X46641413Y-79196034D01*
X46671925Y-79217665D01*
X46697773Y-79238970D01*
X46719094Y-79259896D01*
X46736027Y-79280390D01*
X46748710Y-79300399D01*
X46757279Y-79319870D01*
X46761874Y-79338750D01*
X46762632Y-79356986D01*
X46759691Y-79374524D01*
X46753188Y-79391312D01*
X46743262Y-79407297D01*
X46730051Y-79422425D01*
X46713692Y-79436643D01*
X46694324Y-79449899D01*
X46672084Y-79462138D01*
X46647110Y-79473309D01*
X46619540Y-79483358D01*
X46557163Y-79499877D01*
X46486057Y-79511272D01*
X46407325Y-79517116D01*
X46322069Y-79516987D01*
X46231393Y-79510459D01*
X46136401Y-79497107D01*
X46038194Y-79476506D01*
X46006783Y-79469310D01*
X45976332Y-79463149D01*
X45946817Y-79457976D01*
X45918216Y-79453745D01*
X45890505Y-79450406D01*
X45863661Y-79447913D01*
X45837663Y-79446218D01*
X45812486Y-79445273D01*
X45788108Y-79445031D01*
X45764506Y-79445445D01*
X45719539Y-79448046D01*
X45677401Y-79452698D01*
X45637909Y-79459019D01*
X45600879Y-79466628D01*
X45566129Y-79475145D01*
X45533475Y-79484189D01*
X45502734Y-79493380D01*
X45446259Y-79510677D01*
X45420157Y-79518023D01*
X45395236Y-79523992D01*
X45361713Y-79530229D01*
X45327824Y-79535704D01*
X45293672Y-79540243D01*
X45259357Y-79543669D01*
X45224985Y-79545807D01*
X45190656Y-79546481D01*
X45156474Y-79545514D01*
X45122541Y-79542732D01*
X45088960Y-79537959D01*
X45055833Y-79531019D01*
X45023264Y-79521736D01*
X44991353Y-79509934D01*
X44975678Y-79503033D01*
X44960206Y-79495438D01*
X44944950Y-79487124D01*
X44929922Y-79478071D01*
X44915137Y-79468257D01*
X44900607Y-79457659D01*
X44886344Y-79446256D01*
X44872361Y-79434026D01*
X44851976Y-79414970D01*
X44833470Y-79396199D01*
X44816791Y-79377676D01*
X44801884Y-79359363D01*
X44788693Y-79341225D01*
X44777165Y-79323224D01*
X44767245Y-79305322D01*
X44758878Y-79287483D01*
X44752010Y-79269670D01*
X44746587Y-79251845D01*
X44742553Y-79233972D01*
X44739855Y-79216013D01*
X44738437Y-79197931D01*
X44738246Y-79179690D01*
X44739227Y-79161252D01*
X44741325Y-79142580D01*
X44744486Y-79123638D01*
X44748655Y-79104387D01*
X44759800Y-79064814D01*
X44774323Y-79023564D01*
X44791790Y-78980341D01*
X44833807Y-78886790D01*
X44882361Y-78781789D01*
X44884120Y-78776919D01*
X44885201Y-78772146D01*
X44885646Y-78767465D01*
X44885494Y-78762870D01*
X44884787Y-78758355D01*
X44883566Y-78753915D01*
X44881871Y-78749545D01*
X44879743Y-78745239D01*
X44877223Y-78740991D01*
X44874352Y-78736797D01*
X44871170Y-78732650D01*
X44867718Y-78728545D01*
X44860168Y-78720440D01*
X44852028Y-78712438D01*
X44835283Y-78696565D01*
X44827330Y-78688607D01*
X44820091Y-78680575D01*
X44816842Y-78676518D01*
X44813893Y-78672427D01*
X44811287Y-78668295D01*
X44809063Y-78664118D01*
X44807262Y-78659889D01*
X44805925Y-78655603D01*
X44805093Y-78651256D01*
X44804807Y-78646840D01*
X44807427Y-78613549D01*
X44814214Y-78581614D01*
X44824967Y-78551028D01*
X44839485Y-78521787D01*
X44857567Y-78493883D01*
X44879012Y-78467312D01*
X44903619Y-78442067D01*
X44931187Y-78418142D01*
X44961513Y-78395531D01*
X44994399Y-78374228D01*
X45067040Y-78335523D01*
X45147502Y-78301980D01*
X45234176Y-78273551D01*
X45325453Y-78250189D01*
X45419723Y-78231845D01*
X45515379Y-78218472D01*
X45610812Y-78210022D01*
X45704412Y-78206449D01*
X45794570Y-78207704D01*
X46364364Y-77817486D02*
X46415409Y-77836523D01*
X46470581Y-77854719D01*
X46528952Y-77872501D01*
X46651584Y-77908537D01*
X46713990Y-77927647D01*
X46775886Y-77948058D01*
X46836346Y-77970196D01*
X46894443Y-77994490D01*
X46949248Y-78021368D01*
X46975127Y-78035910D01*
X46999835Y-78051259D01*
X47023257Y-78067468D01*
X47045277Y-78084591D01*
X47065779Y-78102681D01*
X47084647Y-78121792D01*
X47101764Y-78141978D01*
X47117016Y-78163291D01*
X47130287Y-78185786D01*
X47141459Y-78209516D01*
X47142747Y-78212849D01*
X47143348Y-78215388D01*
X47143294Y-78217191D01*
X47142617Y-78218314D01*
X47141348Y-78218813D01*
X47139518Y-78218744D01*
X47134305Y-78217127D01*
X47097365Y-78199203D01*
X47085372Y-78194109D01*
X47072782Y-78189671D01*
X47066342Y-78187838D01*
X47059847Y-78186338D01*
X47053330Y-78185227D01*
X47046821Y-78184561D01*
X47040352Y-78184396D01*
X47033956Y-78184790D01*
X47027663Y-78185797D01*
X47021505Y-78187475D01*
X47015514Y-78189880D01*
X47009721Y-78193067D01*
X47004158Y-78197094D01*
X46998856Y-78202016D01*
X46993986Y-78207566D01*
X46989675Y-78212973D01*
X46985897Y-78218242D01*
X46982626Y-78223374D01*
X46979835Y-78228375D01*
X46977498Y-78233248D01*
X46975587Y-78237996D01*
X46974077Y-78242623D01*
X46972941Y-78247134D01*
X46972151Y-78251530D01*
X46971683Y-78255817D01*
X46971508Y-78259998D01*
X46971601Y-78264077D01*
X46971935Y-78268056D01*
X46972483Y-78271940D01*
X46973219Y-78275733D01*
X46974116Y-78279438D01*
X46975148Y-78283059D01*
X46977510Y-78290063D01*
X46982680Y-78303221D01*
X46985063Y-78309435D01*
X46987029Y-78315443D01*
X46987788Y-78318380D01*
X46988364Y-78321276D01*
X46988729Y-78324136D01*
X46988856Y-78326963D01*
X46988830Y-78329431D01*
X46988298Y-78331245D01*
X46987280Y-78332453D01*
X46985797Y-78333104D01*
X46983871Y-78333246D01*
X46981523Y-78332927D01*
X46975643Y-78331103D01*
X46939445Y-78315094D01*
X46928068Y-78310854D01*
X46916098Y-78307294D01*
X46909943Y-78305891D01*
X46903703Y-78304804D01*
X46897399Y-78304081D01*
X46891051Y-78303770D01*
X46884682Y-78303921D01*
X46878311Y-78304581D01*
X46871961Y-78305800D01*
X46865652Y-78307626D01*
X46859406Y-78310106D01*
X46853242Y-78313291D01*
X46847184Y-78317228D01*
X46841250Y-78321965D01*
X46835521Y-78327353D01*
X46830502Y-78332736D01*
X46826158Y-78338109D01*
X46822451Y-78343466D01*
X46819345Y-78348804D01*
X46816803Y-78354116D01*
X46814789Y-78359398D01*
X46813266Y-78364645D01*
X46812198Y-78369851D01*
X46811547Y-78375012D01*
X46811277Y-78380123D01*
X46811352Y-78385178D01*
X46811734Y-78390173D01*
X46812388Y-78395103D01*
X46813276Y-78399962D01*
X46814362Y-78404745D01*
X46816981Y-78414066D01*
X46819952Y-78423024D01*
X46825777Y-78439692D01*
X46828045Y-78447321D01*
X46828890Y-78450942D01*
X46829492Y-78454427D01*
X46829816Y-78457772D01*
X46829825Y-78460970D01*
X46829483Y-78464017D01*
X46828751Y-78466909D01*
X46827269Y-78470021D01*
X46825193Y-78472364D01*
X46822557Y-78473988D01*
X46819399Y-78474942D01*
X46815753Y-78475278D01*
X46811655Y-78475046D01*
X46807141Y-78474295D01*
X46802248Y-78473078D01*
X46791462Y-78469440D01*
X46779585Y-78464536D01*
X46753697Y-78452540D01*
X46726872Y-78440309D01*
X46713822Y-78435112D01*
X46701395Y-78431065D01*
X46695504Y-78429598D01*
X46689877Y-78428569D01*
X46684548Y-78428030D01*
X46679553Y-78428029D01*
X46674929Y-78428618D01*
X46670711Y-78429846D01*
X46666934Y-78431764D01*
X46663634Y-78434423D01*
X46660514Y-78437540D01*
X46657710Y-78440791D01*
X46655201Y-78444167D01*
X46652964Y-78447654D01*
X46650978Y-78451242D01*
X46649221Y-78454920D01*
X46647673Y-78458675D01*
X46646311Y-78462496D01*
X46644062Y-78470292D01*
X46642299Y-78478217D01*
X46639549Y-78494084D01*
X46638216Y-78501843D01*
X46636682Y-78509365D01*
X46634774Y-78516558D01*
X46633626Y-78520002D01*
X46632320Y-78523329D01*
X46630834Y-78526529D01*
X46629147Y-78529589D01*
X46627238Y-78532498D01*
X46625084Y-78535244D01*
X46622665Y-78537817D01*
X46619958Y-78540204D01*
X46616943Y-78542395D01*
X46613597Y-78544378D01*
X46608310Y-78545878D01*
X46601878Y-78545752D01*
X46594375Y-78544087D01*
X46585872Y-78540970D01*
X46576442Y-78536487D01*
X46566157Y-78530726D01*
X46543313Y-78515716D01*
X46517917Y-78496635D01*
X46490551Y-78474180D01*
X46461791Y-78449045D01*
X46432218Y-78421926D01*
X46372948Y-78364518D01*
X46317371Y-78307519D01*
X46270121Y-78256495D01*
X46235829Y-78217008D01*
X46235814Y-78217008D01*
X46243640Y-78196096D01*
X46251162Y-78173755D01*
X46258369Y-78150141D01*
X46265250Y-78125406D01*
X46277989Y-78073191D01*
X46289292Y-78018340D01*
X46299069Y-77962082D01*
X46307234Y-77905650D01*
X46313698Y-77850271D01*
X46318372Y-77797178D01*
X46364364Y-77817486D01*
D11*
X43842594Y-78885644D02*
X43842472Y-78885663D01*
X43842480Y-78885526D01*
X43842594Y-78885644D01*
G36*
X43842594Y-78885644D02*
G01*
X43842472Y-78885663D01*
X43842480Y-78885526D01*
X43842594Y-78885644D01*
G37*
X40164471Y-75645753D02*
X40093497Y-75719956D01*
X40027338Y-75796037D01*
X39965810Y-75873745D01*
X39908731Y-75952826D01*
X39855917Y-76033027D01*
X39807186Y-76114096D01*
X39762355Y-76195780D01*
X39721240Y-76277826D01*
X39683660Y-76359982D01*
X39649430Y-76441993D01*
X39618367Y-76523608D01*
X39590290Y-76604574D01*
X39565014Y-76684638D01*
X39542358Y-76763546D01*
X39522137Y-76841047D01*
X39514660Y-76873628D01*
X39508323Y-76906128D01*
X39503078Y-76938539D01*
X39498876Y-76970849D01*
X39495668Y-77003052D01*
X39493405Y-77035136D01*
X39492038Y-77067092D01*
X39491518Y-77098913D01*
X39479047Y-77134159D01*
X39465588Y-77169171D01*
X39451184Y-77203994D01*
X39435880Y-77238680D01*
X39419718Y-77273276D01*
X39402743Y-77307830D01*
X39366527Y-77377009D01*
X39327582Y-77446606D01*
X39286258Y-77517010D01*
X39197869Y-77661794D01*
X38197153Y-75577040D01*
X40240434Y-75573690D01*
X40164471Y-75645753D01*
G36*
X40164471Y-75645753D02*
G01*
X40093497Y-75719956D01*
X40027338Y-75796037D01*
X39965810Y-75873745D01*
X39908731Y-75952826D01*
X39855917Y-76033027D01*
X39807186Y-76114096D01*
X39762355Y-76195780D01*
X39721240Y-76277826D01*
X39683660Y-76359982D01*
X39649430Y-76441993D01*
X39618367Y-76523608D01*
X39590290Y-76604574D01*
X39565014Y-76684638D01*
X39542358Y-76763546D01*
X39522137Y-76841047D01*
X39514660Y-76873628D01*
X39508323Y-76906128D01*
X39503078Y-76938539D01*
X39498876Y-76970849D01*
X39495668Y-77003052D01*
X39493405Y-77035136D01*
X39492038Y-77067092D01*
X39491518Y-77098913D01*
X39479047Y-77134159D01*
X39465588Y-77169171D01*
X39451184Y-77203994D01*
X39435880Y-77238680D01*
X39419718Y-77273276D01*
X39402743Y-77307830D01*
X39366527Y-77377009D01*
X39327582Y-77446606D01*
X39286258Y-77517010D01*
X39197869Y-77661794D01*
X38197153Y-75577040D01*
X40240434Y-75573690D01*
X40164471Y-75645753D01*
G37*
D12*
X49116343Y-13774087D02*
X49497343Y-13229801D01*
X49769486Y-13774087D02*
X49769486Y-12631087D01*
X49769486Y-12631087D02*
X49334057Y-12631087D01*
X49334057Y-12631087D02*
X49225200Y-12685516D01*
X49225200Y-12685516D02*
X49170771Y-12739944D01*
X49170771Y-12739944D02*
X49116343Y-12848801D01*
X49116343Y-12848801D02*
X49116343Y-13012087D01*
X49116343Y-13012087D02*
X49170771Y-13120944D01*
X49170771Y-13120944D02*
X49225200Y-13175373D01*
X49225200Y-13175373D02*
X49334057Y-13229801D01*
X49334057Y-13229801D02*
X49769486Y-13229801D01*
X48191057Y-13719659D02*
X48299914Y-13774087D01*
X48299914Y-13774087D02*
X48517629Y-13774087D01*
X48517629Y-13774087D02*
X48626486Y-13719659D01*
X48626486Y-13719659D02*
X48680914Y-13610801D01*
X48680914Y-13610801D02*
X48680914Y-13175373D01*
X48680914Y-13175373D02*
X48626486Y-13066516D01*
X48626486Y-13066516D02*
X48517629Y-13012087D01*
X48517629Y-13012087D02*
X48299914Y-13012087D01*
X48299914Y-13012087D02*
X48191057Y-13066516D01*
X48191057Y-13066516D02*
X48136629Y-13175373D01*
X48136629Y-13175373D02*
X48136629Y-13284230D01*
X48136629Y-13284230D02*
X48680914Y-13393087D01*
X47646772Y-13774087D02*
X47646772Y-13012087D01*
X47646772Y-13120944D02*
X47592343Y-13066516D01*
X47592343Y-13066516D02*
X47483486Y-13012087D01*
X47483486Y-13012087D02*
X47320200Y-13012087D01*
X47320200Y-13012087D02*
X47211343Y-13066516D01*
X47211343Y-13066516D02*
X47156915Y-13175373D01*
X47156915Y-13175373D02*
X47156915Y-13774087D01*
X47156915Y-13175373D02*
X47102486Y-13066516D01*
X47102486Y-13066516D02*
X46993629Y-13012087D01*
X46993629Y-13012087D02*
X46830343Y-13012087D01*
X46830343Y-13012087D02*
X46721486Y-13066516D01*
X46721486Y-13066516D02*
X46667057Y-13175373D01*
X46667057Y-13175373D02*
X46667057Y-13774087D01*
X45959486Y-13774087D02*
X46068343Y-13719659D01*
X46068343Y-13719659D02*
X46122772Y-13665230D01*
X46122772Y-13665230D02*
X46177200Y-13556373D01*
X46177200Y-13556373D02*
X46177200Y-13229801D01*
X46177200Y-13229801D02*
X46122772Y-13120944D01*
X46122772Y-13120944D02*
X46068343Y-13066516D01*
X46068343Y-13066516D02*
X45959486Y-13012087D01*
X45959486Y-13012087D02*
X45796200Y-13012087D01*
X45796200Y-13012087D02*
X45687343Y-13066516D01*
X45687343Y-13066516D02*
X45632915Y-13120944D01*
X45632915Y-13120944D02*
X45578486Y-13229801D01*
X45578486Y-13229801D02*
X45578486Y-13556373D01*
X45578486Y-13556373D02*
X45632915Y-13665230D01*
X45632915Y-13665230D02*
X45687343Y-13719659D01*
X45687343Y-13719659D02*
X45796200Y-13774087D01*
X45796200Y-13774087D02*
X45959486Y-13774087D01*
X45251914Y-13012087D02*
X44816486Y-13012087D01*
X45088629Y-12631087D02*
X45088629Y-13610801D01*
X45088629Y-13610801D02*
X45034200Y-13719659D01*
X45034200Y-13719659D02*
X44925343Y-13774087D01*
X44925343Y-13774087D02*
X44816486Y-13774087D01*
X44000057Y-13719659D02*
X44108914Y-13774087D01*
X44108914Y-13774087D02*
X44326629Y-13774087D01*
X44326629Y-13774087D02*
X44435486Y-13719659D01*
X44435486Y-13719659D02*
X44489914Y-13610801D01*
X44489914Y-13610801D02*
X44489914Y-13175373D01*
X44489914Y-13175373D02*
X44435486Y-13066516D01*
X44435486Y-13066516D02*
X44326629Y-13012087D01*
X44326629Y-13012087D02*
X44108914Y-13012087D01*
X44108914Y-13012087D02*
X44000057Y-13066516D01*
X44000057Y-13066516D02*
X43945629Y-13175373D01*
X43945629Y-13175373D02*
X43945629Y-13284230D01*
X43945629Y-13284230D02*
X44489914Y-13393087D01*
X42584915Y-13774087D02*
X42584915Y-12631087D01*
X42584915Y-12631087D02*
X42203915Y-13447516D01*
X42203915Y-13447516D02*
X41822915Y-12631087D01*
X41822915Y-12631087D02*
X41822915Y-13774087D01*
X41115343Y-13774087D02*
X41224200Y-13719659D01*
X41224200Y-13719659D02*
X41278629Y-13665230D01*
X41278629Y-13665230D02*
X41333057Y-13556373D01*
X41333057Y-13556373D02*
X41333057Y-13229801D01*
X41333057Y-13229801D02*
X41278629Y-13120944D01*
X41278629Y-13120944D02*
X41224200Y-13066516D01*
X41224200Y-13066516D02*
X41115343Y-13012087D01*
X41115343Y-13012087D02*
X40952057Y-13012087D01*
X40952057Y-13012087D02*
X40843200Y-13066516D01*
X40843200Y-13066516D02*
X40788772Y-13120944D01*
X40788772Y-13120944D02*
X40734343Y-13229801D01*
X40734343Y-13229801D02*
X40734343Y-13556373D01*
X40734343Y-13556373D02*
X40788772Y-13665230D01*
X40788772Y-13665230D02*
X40843200Y-13719659D01*
X40843200Y-13719659D02*
X40952057Y-13774087D01*
X40952057Y-13774087D02*
X41115343Y-13774087D01*
X40244486Y-13012087D02*
X40244486Y-13774087D01*
X40244486Y-13120944D02*
X40190057Y-13066516D01*
X40190057Y-13066516D02*
X40081200Y-13012087D01*
X40081200Y-13012087D02*
X39917914Y-13012087D01*
X39917914Y-13012087D02*
X39809057Y-13066516D01*
X39809057Y-13066516D02*
X39754629Y-13175373D01*
X39754629Y-13175373D02*
X39754629Y-13774087D01*
X39210343Y-13774087D02*
X39210343Y-13012087D01*
X39210343Y-12631087D02*
X39264771Y-12685516D01*
X39264771Y-12685516D02*
X39210343Y-12739944D01*
X39210343Y-12739944D02*
X39155914Y-12685516D01*
X39155914Y-12685516D02*
X39210343Y-12631087D01*
X39210343Y-12631087D02*
X39210343Y-12739944D01*
X38829342Y-13012087D02*
X38393914Y-13012087D01*
X38666057Y-12631087D02*
X38666057Y-13610801D01*
X38666057Y-13610801D02*
X38611628Y-13719659D01*
X38611628Y-13719659D02*
X38502771Y-13774087D01*
X38502771Y-13774087D02*
X38393914Y-13774087D01*
X37849628Y-13774087D02*
X37958485Y-13719659D01*
X37958485Y-13719659D02*
X38012914Y-13665230D01*
X38012914Y-13665230D02*
X38067342Y-13556373D01*
X38067342Y-13556373D02*
X38067342Y-13229801D01*
X38067342Y-13229801D02*
X38012914Y-13120944D01*
X38012914Y-13120944D02*
X37958485Y-13066516D01*
X37958485Y-13066516D02*
X37849628Y-13012087D01*
X37849628Y-13012087D02*
X37686342Y-13012087D01*
X37686342Y-13012087D02*
X37577485Y-13066516D01*
X37577485Y-13066516D02*
X37523057Y-13120944D01*
X37523057Y-13120944D02*
X37468628Y-13229801D01*
X37468628Y-13229801D02*
X37468628Y-13556373D01*
X37468628Y-13556373D02*
X37523057Y-13665230D01*
X37523057Y-13665230D02*
X37577485Y-13719659D01*
X37577485Y-13719659D02*
X37686342Y-13774087D01*
X37686342Y-13774087D02*
X37849628Y-13774087D01*
X36978771Y-13774087D02*
X36978771Y-13012087D01*
X36978771Y-13229801D02*
X36924342Y-13120944D01*
X36924342Y-13120944D02*
X36869914Y-13066516D01*
X36869914Y-13066516D02*
X36761056Y-13012087D01*
X36761056Y-13012087D02*
X36652199Y-13012087D01*
X36271200Y-13774087D02*
X36271200Y-13012087D01*
X36271200Y-12631087D02*
X36325628Y-12685516D01*
X36325628Y-12685516D02*
X36271200Y-12739944D01*
X36271200Y-12739944D02*
X36216771Y-12685516D01*
X36216771Y-12685516D02*
X36271200Y-12631087D01*
X36271200Y-12631087D02*
X36271200Y-12739944D01*
X35726914Y-13012087D02*
X35726914Y-13774087D01*
X35726914Y-13120944D02*
X35672485Y-13066516D01*
X35672485Y-13066516D02*
X35563628Y-13012087D01*
X35563628Y-13012087D02*
X35400342Y-13012087D01*
X35400342Y-13012087D02*
X35291485Y-13066516D01*
X35291485Y-13066516D02*
X35237057Y-13175373D01*
X35237057Y-13175373D02*
X35237057Y-13774087D01*
X34202914Y-13012087D02*
X34202914Y-13937373D01*
X34202914Y-13937373D02*
X34257342Y-14046230D01*
X34257342Y-14046230D02*
X34311771Y-14100659D01*
X34311771Y-14100659D02*
X34420628Y-14155087D01*
X34420628Y-14155087D02*
X34583914Y-14155087D01*
X34583914Y-14155087D02*
X34692771Y-14100659D01*
X34202914Y-13719659D02*
X34311771Y-13774087D01*
X34311771Y-13774087D02*
X34529485Y-13774087D01*
X34529485Y-13774087D02*
X34638342Y-13719659D01*
X34638342Y-13719659D02*
X34692771Y-13665230D01*
X34692771Y-13665230D02*
X34747199Y-13556373D01*
X34747199Y-13556373D02*
X34747199Y-13229801D01*
X34747199Y-13229801D02*
X34692771Y-13120944D01*
X34692771Y-13120944D02*
X34638342Y-13066516D01*
X34638342Y-13066516D02*
X34529485Y-13012087D01*
X34529485Y-13012087D02*
X34311771Y-13012087D01*
X34311771Y-13012087D02*
X34202914Y-13066516D01*
X48327129Y-15614253D02*
X48327129Y-14471253D01*
X47837271Y-15559825D02*
X47728414Y-15614253D01*
X47728414Y-15614253D02*
X47510700Y-15614253D01*
X47510700Y-15614253D02*
X47401843Y-15559825D01*
X47401843Y-15559825D02*
X47347414Y-15450967D01*
X47347414Y-15450967D02*
X47347414Y-15396539D01*
X47347414Y-15396539D02*
X47401843Y-15287682D01*
X47401843Y-15287682D02*
X47510700Y-15233253D01*
X47510700Y-15233253D02*
X47673986Y-15233253D01*
X47673986Y-15233253D02*
X47782843Y-15178825D01*
X47782843Y-15178825D02*
X47837271Y-15069967D01*
X47837271Y-15069967D02*
X47837271Y-15015539D01*
X47837271Y-15015539D02*
X47782843Y-14906682D01*
X47782843Y-14906682D02*
X47673986Y-14852253D01*
X47673986Y-14852253D02*
X47510700Y-14852253D01*
X47510700Y-14852253D02*
X47401843Y-14906682D01*
X46694271Y-15614253D02*
X46803128Y-15559825D01*
X46803128Y-15559825D02*
X46857557Y-15505396D01*
X46857557Y-15505396D02*
X46911985Y-15396539D01*
X46911985Y-15396539D02*
X46911985Y-15069967D01*
X46911985Y-15069967D02*
X46857557Y-14961110D01*
X46857557Y-14961110D02*
X46803128Y-14906682D01*
X46803128Y-14906682D02*
X46694271Y-14852253D01*
X46694271Y-14852253D02*
X46530985Y-14852253D01*
X46530985Y-14852253D02*
X46422128Y-14906682D01*
X46422128Y-14906682D02*
X46367700Y-14961110D01*
X46367700Y-14961110D02*
X46313271Y-15069967D01*
X46313271Y-15069967D02*
X46313271Y-15396539D01*
X46313271Y-15396539D02*
X46367700Y-15505396D01*
X46367700Y-15505396D02*
X46422128Y-15559825D01*
X46422128Y-15559825D02*
X46530985Y-15614253D01*
X46530985Y-15614253D02*
X46694271Y-15614253D01*
X45660128Y-15614253D02*
X45768985Y-15559825D01*
X45768985Y-15559825D02*
X45823414Y-15450967D01*
X45823414Y-15450967D02*
X45823414Y-14471253D01*
X44734843Y-15614253D02*
X44734843Y-15015539D01*
X44734843Y-15015539D02*
X44789271Y-14906682D01*
X44789271Y-14906682D02*
X44898128Y-14852253D01*
X44898128Y-14852253D02*
X45115843Y-14852253D01*
X45115843Y-14852253D02*
X45224700Y-14906682D01*
X44734843Y-15559825D02*
X44843700Y-15614253D01*
X44843700Y-15614253D02*
X45115843Y-15614253D01*
X45115843Y-15614253D02*
X45224700Y-15559825D01*
X45224700Y-15559825D02*
X45279128Y-15450967D01*
X45279128Y-15450967D02*
X45279128Y-15342110D01*
X45279128Y-15342110D02*
X45224700Y-15233253D01*
X45224700Y-15233253D02*
X45115843Y-15178825D01*
X45115843Y-15178825D02*
X44843700Y-15178825D01*
X44843700Y-15178825D02*
X44734843Y-15124396D01*
X44353842Y-14852253D02*
X43918414Y-14852253D01*
X44190557Y-14471253D02*
X44190557Y-15450967D01*
X44190557Y-15450967D02*
X44136128Y-15559825D01*
X44136128Y-15559825D02*
X44027271Y-15614253D01*
X44027271Y-15614253D02*
X43918414Y-15614253D01*
X43101985Y-15559825D02*
X43210842Y-15614253D01*
X43210842Y-15614253D02*
X43428557Y-15614253D01*
X43428557Y-15614253D02*
X43537414Y-15559825D01*
X43537414Y-15559825D02*
X43591842Y-15450967D01*
X43591842Y-15450967D02*
X43591842Y-15015539D01*
X43591842Y-15015539D02*
X43537414Y-14906682D01*
X43537414Y-14906682D02*
X43428557Y-14852253D01*
X43428557Y-14852253D02*
X43210842Y-14852253D01*
X43210842Y-14852253D02*
X43101985Y-14906682D01*
X43101985Y-14906682D02*
X43047557Y-15015539D01*
X43047557Y-15015539D02*
X43047557Y-15124396D01*
X43047557Y-15124396D02*
X43591842Y-15233253D01*
X42067843Y-15614253D02*
X42067843Y-14471253D01*
X42067843Y-15559825D02*
X42176700Y-15614253D01*
X42176700Y-15614253D02*
X42394414Y-15614253D01*
X42394414Y-15614253D02*
X42503271Y-15559825D01*
X42503271Y-15559825D02*
X42557700Y-15505396D01*
X42557700Y-15505396D02*
X42612128Y-15396539D01*
X42612128Y-15396539D02*
X42612128Y-15069967D01*
X42612128Y-15069967D02*
X42557700Y-14961110D01*
X42557700Y-14961110D02*
X42503271Y-14906682D01*
X42503271Y-14906682D02*
X42394414Y-14852253D01*
X42394414Y-14852253D02*
X42176700Y-14852253D01*
X42176700Y-14852253D02*
X42067843Y-14906682D01*
X40652700Y-15614253D02*
X40652700Y-14471253D01*
X40652700Y-14471253D02*
X40380557Y-14471253D01*
X40380557Y-14471253D02*
X40217271Y-14525682D01*
X40217271Y-14525682D02*
X40108414Y-14634539D01*
X40108414Y-14634539D02*
X40053985Y-14743396D01*
X40053985Y-14743396D02*
X39999557Y-14961110D01*
X39999557Y-14961110D02*
X39999557Y-15124396D01*
X39999557Y-15124396D02*
X40053985Y-15342110D01*
X40053985Y-15342110D02*
X40108414Y-15450967D01*
X40108414Y-15450967D02*
X40217271Y-15559825D01*
X40217271Y-15559825D02*
X40380557Y-15614253D01*
X40380557Y-15614253D02*
X40652700Y-15614253D01*
X39509700Y-15614253D02*
X39509700Y-14852253D01*
X39509700Y-14471253D02*
X39564128Y-14525682D01*
X39564128Y-14525682D02*
X39509700Y-14580110D01*
X39509700Y-14580110D02*
X39455271Y-14525682D01*
X39455271Y-14525682D02*
X39509700Y-14471253D01*
X39509700Y-14471253D02*
X39509700Y-14580110D01*
X38475557Y-14852253D02*
X38475557Y-15777539D01*
X38475557Y-15777539D02*
X38529985Y-15886396D01*
X38529985Y-15886396D02*
X38584414Y-15940825D01*
X38584414Y-15940825D02*
X38693271Y-15995253D01*
X38693271Y-15995253D02*
X38856557Y-15995253D01*
X38856557Y-15995253D02*
X38965414Y-15940825D01*
X38475557Y-15559825D02*
X38584414Y-15614253D01*
X38584414Y-15614253D02*
X38802128Y-15614253D01*
X38802128Y-15614253D02*
X38910985Y-15559825D01*
X38910985Y-15559825D02*
X38965414Y-15505396D01*
X38965414Y-15505396D02*
X39019842Y-15396539D01*
X39019842Y-15396539D02*
X39019842Y-15069967D01*
X39019842Y-15069967D02*
X38965414Y-14961110D01*
X38965414Y-14961110D02*
X38910985Y-14906682D01*
X38910985Y-14906682D02*
X38802128Y-14852253D01*
X38802128Y-14852253D02*
X38584414Y-14852253D01*
X38584414Y-14852253D02*
X38475557Y-14906682D01*
X37931271Y-15614253D02*
X37931271Y-14852253D01*
X37931271Y-14471253D02*
X37985699Y-14525682D01*
X37985699Y-14525682D02*
X37931271Y-14580110D01*
X37931271Y-14580110D02*
X37876842Y-14525682D01*
X37876842Y-14525682D02*
X37931271Y-14471253D01*
X37931271Y-14471253D02*
X37931271Y-14580110D01*
X37550270Y-14852253D02*
X37114842Y-14852253D01*
X37386985Y-14471253D02*
X37386985Y-15450967D01*
X37386985Y-15450967D02*
X37332556Y-15559825D01*
X37332556Y-15559825D02*
X37223699Y-15614253D01*
X37223699Y-15614253D02*
X37114842Y-15614253D01*
X36243985Y-15614253D02*
X36243985Y-15015539D01*
X36243985Y-15015539D02*
X36298413Y-14906682D01*
X36298413Y-14906682D02*
X36407270Y-14852253D01*
X36407270Y-14852253D02*
X36624985Y-14852253D01*
X36624985Y-14852253D02*
X36733842Y-14906682D01*
X36243985Y-15559825D02*
X36352842Y-15614253D01*
X36352842Y-15614253D02*
X36624985Y-15614253D01*
X36624985Y-15614253D02*
X36733842Y-15559825D01*
X36733842Y-15559825D02*
X36788270Y-15450967D01*
X36788270Y-15450967D02*
X36788270Y-15342110D01*
X36788270Y-15342110D02*
X36733842Y-15233253D01*
X36733842Y-15233253D02*
X36624985Y-15178825D01*
X36624985Y-15178825D02*
X36352842Y-15178825D01*
X36352842Y-15178825D02*
X36243985Y-15124396D01*
X35536413Y-15614253D02*
X35645270Y-15559825D01*
X35645270Y-15559825D02*
X35699699Y-15450967D01*
X35699699Y-15450967D02*
X35699699Y-14471253D01*
X48327128Y-17127848D02*
X47782843Y-17127848D01*
X48435985Y-17454419D02*
X48054985Y-16311419D01*
X48054985Y-16311419D02*
X47673985Y-17454419D01*
X46639843Y-17345562D02*
X46694271Y-17399991D01*
X46694271Y-17399991D02*
X46857557Y-17454419D01*
X46857557Y-17454419D02*
X46966414Y-17454419D01*
X46966414Y-17454419D02*
X47129700Y-17399991D01*
X47129700Y-17399991D02*
X47238557Y-17291133D01*
X47238557Y-17291133D02*
X47292986Y-17182276D01*
X47292986Y-17182276D02*
X47347414Y-16964562D01*
X47347414Y-16964562D02*
X47347414Y-16801276D01*
X47347414Y-16801276D02*
X47292986Y-16583562D01*
X47292986Y-16583562D02*
X47238557Y-16474705D01*
X47238557Y-16474705D02*
X47129700Y-16365848D01*
X47129700Y-16365848D02*
X46966414Y-16311419D01*
X46966414Y-16311419D02*
X46857557Y-16311419D01*
X46857557Y-16311419D02*
X46694271Y-16365848D01*
X46694271Y-16365848D02*
X46639843Y-16420276D01*
X45279129Y-17454419D02*
X45279129Y-16311419D01*
X44734843Y-16692419D02*
X44734843Y-17454419D01*
X44734843Y-16801276D02*
X44680414Y-16746848D01*
X44680414Y-16746848D02*
X44571557Y-16692419D01*
X44571557Y-16692419D02*
X44408271Y-16692419D01*
X44408271Y-16692419D02*
X44299414Y-16746848D01*
X44299414Y-16746848D02*
X44244986Y-16855705D01*
X44244986Y-16855705D02*
X44244986Y-17454419D01*
X43700700Y-16692419D02*
X43700700Y-17835419D01*
X43700700Y-16746848D02*
X43591843Y-16692419D01*
X43591843Y-16692419D02*
X43374128Y-16692419D01*
X43374128Y-16692419D02*
X43265271Y-16746848D01*
X43265271Y-16746848D02*
X43210843Y-16801276D01*
X43210843Y-16801276D02*
X43156414Y-16910133D01*
X43156414Y-16910133D02*
X43156414Y-17236705D01*
X43156414Y-17236705D02*
X43210843Y-17345562D01*
X43210843Y-17345562D02*
X43265271Y-17399991D01*
X43265271Y-17399991D02*
X43374128Y-17454419D01*
X43374128Y-17454419D02*
X43591843Y-17454419D01*
X43591843Y-17454419D02*
X43700700Y-17399991D01*
X42176700Y-16692419D02*
X42176700Y-17454419D01*
X42666557Y-16692419D02*
X42666557Y-17291133D01*
X42666557Y-17291133D02*
X42612128Y-17399991D01*
X42612128Y-17399991D02*
X42503271Y-17454419D01*
X42503271Y-17454419D02*
X42339985Y-17454419D01*
X42339985Y-17454419D02*
X42231128Y-17399991D01*
X42231128Y-17399991D02*
X42176700Y-17345562D01*
X41795699Y-16692419D02*
X41360271Y-16692419D01*
X41632414Y-16311419D02*
X41632414Y-17291133D01*
X41632414Y-17291133D02*
X41577985Y-17399991D01*
X41577985Y-17399991D02*
X41469128Y-17454419D01*
X41469128Y-17454419D02*
X41360271Y-17454419D01*
X39727414Y-16855705D02*
X39564128Y-16910133D01*
X39564128Y-16910133D02*
X39509699Y-16964562D01*
X39509699Y-16964562D02*
X39455271Y-17073419D01*
X39455271Y-17073419D02*
X39455271Y-17236705D01*
X39455271Y-17236705D02*
X39509699Y-17345562D01*
X39509699Y-17345562D02*
X39564128Y-17399991D01*
X39564128Y-17399991D02*
X39672985Y-17454419D01*
X39672985Y-17454419D02*
X40108414Y-17454419D01*
X40108414Y-17454419D02*
X40108414Y-16311419D01*
X40108414Y-16311419D02*
X39727414Y-16311419D01*
X39727414Y-16311419D02*
X39618557Y-16365848D01*
X39618557Y-16365848D02*
X39564128Y-16420276D01*
X39564128Y-16420276D02*
X39509699Y-16529133D01*
X39509699Y-16529133D02*
X39509699Y-16637991D01*
X39509699Y-16637991D02*
X39564128Y-16746848D01*
X39564128Y-16746848D02*
X39618557Y-16801276D01*
X39618557Y-16801276D02*
X39727414Y-16855705D01*
X39727414Y-16855705D02*
X40108414Y-16855705D01*
X38802128Y-17454419D02*
X38910985Y-17399991D01*
X38910985Y-17399991D02*
X38965414Y-17345562D01*
X38965414Y-17345562D02*
X39019842Y-17236705D01*
X39019842Y-17236705D02*
X39019842Y-16910133D01*
X39019842Y-16910133D02*
X38965414Y-16801276D01*
X38965414Y-16801276D02*
X38910985Y-16746848D01*
X38910985Y-16746848D02*
X38802128Y-16692419D01*
X38802128Y-16692419D02*
X38638842Y-16692419D01*
X38638842Y-16692419D02*
X38529985Y-16746848D01*
X38529985Y-16746848D02*
X38475557Y-16801276D01*
X38475557Y-16801276D02*
X38421128Y-16910133D01*
X38421128Y-16910133D02*
X38421128Y-17236705D01*
X38421128Y-17236705D02*
X38475557Y-17345562D01*
X38475557Y-17345562D02*
X38529985Y-17399991D01*
X38529985Y-17399991D02*
X38638842Y-17454419D01*
X38638842Y-17454419D02*
X38802128Y-17454419D01*
X37441414Y-17454419D02*
X37441414Y-16855705D01*
X37441414Y-16855705D02*
X37495842Y-16746848D01*
X37495842Y-16746848D02*
X37604699Y-16692419D01*
X37604699Y-16692419D02*
X37822414Y-16692419D01*
X37822414Y-16692419D02*
X37931271Y-16746848D01*
X37441414Y-17399991D02*
X37550271Y-17454419D01*
X37550271Y-17454419D02*
X37822414Y-17454419D01*
X37822414Y-17454419D02*
X37931271Y-17399991D01*
X37931271Y-17399991D02*
X37985699Y-17291133D01*
X37985699Y-17291133D02*
X37985699Y-17182276D01*
X37985699Y-17182276D02*
X37931271Y-17073419D01*
X37931271Y-17073419D02*
X37822414Y-17018991D01*
X37822414Y-17018991D02*
X37550271Y-17018991D01*
X37550271Y-17018991D02*
X37441414Y-16964562D01*
X36897128Y-17454419D02*
X36897128Y-16692419D01*
X36897128Y-16910133D02*
X36842699Y-16801276D01*
X36842699Y-16801276D02*
X36788271Y-16746848D01*
X36788271Y-16746848D02*
X36679413Y-16692419D01*
X36679413Y-16692419D02*
X36570556Y-16692419D01*
X35699700Y-17454419D02*
X35699700Y-16311419D01*
X35699700Y-17399991D02*
X35808557Y-17454419D01*
X35808557Y-17454419D02*
X36026271Y-17454419D01*
X36026271Y-17454419D02*
X36135128Y-17399991D01*
X36135128Y-17399991D02*
X36189557Y-17345562D01*
X36189557Y-17345562D02*
X36243985Y-17236705D01*
X36243985Y-17236705D02*
X36243985Y-16910133D01*
X36243985Y-16910133D02*
X36189557Y-16801276D01*
X36189557Y-16801276D02*
X36135128Y-16746848D01*
X36135128Y-16746848D02*
X36026271Y-16692419D01*
X36026271Y-16692419D02*
X35808557Y-16692419D01*
X35808557Y-16692419D02*
X35699700Y-16746848D01*
X49578986Y-19294585D02*
X49578986Y-18151585D01*
X49578986Y-18151585D02*
X49197986Y-18968014D01*
X49197986Y-18968014D02*
X48816986Y-18151585D01*
X48816986Y-18151585D02*
X48816986Y-19294585D01*
X48054985Y-18151585D02*
X47837271Y-18151585D01*
X47837271Y-18151585D02*
X47728414Y-18206014D01*
X47728414Y-18206014D02*
X47619557Y-18314871D01*
X47619557Y-18314871D02*
X47565128Y-18532585D01*
X47565128Y-18532585D02*
X47565128Y-18913585D01*
X47565128Y-18913585D02*
X47619557Y-19131299D01*
X47619557Y-19131299D02*
X47728414Y-19240157D01*
X47728414Y-19240157D02*
X47837271Y-19294585D01*
X47837271Y-19294585D02*
X48054985Y-19294585D01*
X48054985Y-19294585D02*
X48163843Y-19240157D01*
X48163843Y-19240157D02*
X48272700Y-19131299D01*
X48272700Y-19131299D02*
X48327128Y-18913585D01*
X48327128Y-18913585D02*
X48327128Y-18532585D01*
X48327128Y-18532585D02*
X48272700Y-18314871D01*
X48272700Y-18314871D02*
X48163843Y-18206014D01*
X48163843Y-18206014D02*
X48054985Y-18151585D01*
X47075271Y-19294585D02*
X47075271Y-18151585D01*
X47075271Y-18151585D02*
X46422128Y-19294585D01*
X46422128Y-19294585D02*
X46422128Y-18151585D01*
X45877842Y-18859157D02*
X45006985Y-18859157D01*
X44462699Y-19294585D02*
X44462699Y-18151585D01*
X44462699Y-18151585D02*
X44190556Y-18151585D01*
X44190556Y-18151585D02*
X44027270Y-18206014D01*
X44027270Y-18206014D02*
X43918413Y-18314871D01*
X43918413Y-18314871D02*
X43863984Y-18423728D01*
X43863984Y-18423728D02*
X43809556Y-18641442D01*
X43809556Y-18641442D02*
X43809556Y-18804728D01*
X43809556Y-18804728D02*
X43863984Y-19022442D01*
X43863984Y-19022442D02*
X43918413Y-19131299D01*
X43918413Y-19131299D02*
X44027270Y-19240157D01*
X44027270Y-19240157D02*
X44190556Y-19294585D01*
X44190556Y-19294585D02*
X44462699Y-19294585D01*
X43319699Y-19294585D02*
X43319699Y-18151585D01*
X42775413Y-18859157D02*
X41904556Y-18859157D01*
X41360270Y-19294585D02*
X41360270Y-18151585D01*
X40870412Y-19240157D02*
X40707127Y-19294585D01*
X40707127Y-19294585D02*
X40434984Y-19294585D01*
X40434984Y-19294585D02*
X40326127Y-19240157D01*
X40326127Y-19240157D02*
X40271698Y-19185728D01*
X40271698Y-19185728D02*
X40217269Y-19076871D01*
X40217269Y-19076871D02*
X40217269Y-18968014D01*
X40217269Y-18968014D02*
X40271698Y-18859157D01*
X40271698Y-18859157D02*
X40326127Y-18804728D01*
X40326127Y-18804728D02*
X40434984Y-18750299D01*
X40434984Y-18750299D02*
X40652698Y-18695871D01*
X40652698Y-18695871D02*
X40761555Y-18641442D01*
X40761555Y-18641442D02*
X40815984Y-18587014D01*
X40815984Y-18587014D02*
X40870412Y-18478157D01*
X40870412Y-18478157D02*
X40870412Y-18369299D01*
X40870412Y-18369299D02*
X40815984Y-18260442D01*
X40815984Y-18260442D02*
X40761555Y-18206014D01*
X40761555Y-18206014D02*
X40652698Y-18151585D01*
X40652698Y-18151585D02*
X40380555Y-18151585D01*
X40380555Y-18151585D02*
X40217269Y-18206014D01*
X39509698Y-18151585D02*
X39291984Y-18151585D01*
X39291984Y-18151585D02*
X39183127Y-18206014D01*
X39183127Y-18206014D02*
X39074270Y-18314871D01*
X39074270Y-18314871D02*
X39019841Y-18532585D01*
X39019841Y-18532585D02*
X39019841Y-18913585D01*
X39019841Y-18913585D02*
X39074270Y-19131299D01*
X39074270Y-19131299D02*
X39183127Y-19240157D01*
X39183127Y-19240157D02*
X39291984Y-19294585D01*
X39291984Y-19294585D02*
X39509698Y-19294585D01*
X39509698Y-19294585D02*
X39618556Y-19240157D01*
X39618556Y-19240157D02*
X39727413Y-19131299D01*
X39727413Y-19131299D02*
X39781841Y-18913585D01*
X39781841Y-18913585D02*
X39781841Y-18532585D01*
X39781841Y-18532585D02*
X39727413Y-18314871D01*
X39727413Y-18314871D02*
X39618556Y-18206014D01*
X39618556Y-18206014D02*
X39509698Y-18151585D01*
X38638841Y-18151585D02*
X37876841Y-19294585D01*
X37876841Y-18151585D02*
X38638841Y-19294585D01*
X37441413Y-18859157D02*
X36570556Y-18859157D01*
X35808555Y-18151585D02*
X35699698Y-18151585D01*
X35699698Y-18151585D02*
X35590841Y-18206014D01*
X35590841Y-18206014D02*
X35536413Y-18260442D01*
X35536413Y-18260442D02*
X35481984Y-18369299D01*
X35481984Y-18369299D02*
X35427555Y-18587014D01*
X35427555Y-18587014D02*
X35427555Y-18859157D01*
X35427555Y-18859157D02*
X35481984Y-19076871D01*
X35481984Y-19076871D02*
X35536413Y-19185728D01*
X35536413Y-19185728D02*
X35590841Y-19240157D01*
X35590841Y-19240157D02*
X35699698Y-19294585D01*
X35699698Y-19294585D02*
X35808555Y-19294585D01*
X35808555Y-19294585D02*
X35917413Y-19240157D01*
X35917413Y-19240157D02*
X35971841Y-19185728D01*
X35971841Y-19185728D02*
X36026270Y-19076871D01*
X36026270Y-19076871D02*
X36080698Y-18859157D01*
X36080698Y-18859157D02*
X36080698Y-18587014D01*
X36080698Y-18587014D02*
X36026270Y-18369299D01*
X36026270Y-18369299D02*
X35971841Y-18260442D01*
X35971841Y-18260442D02*
X35917413Y-18206014D01*
X35917413Y-18206014D02*
X35808555Y-18151585D01*
X34774413Y-18641442D02*
X34883270Y-18587014D01*
X34883270Y-18587014D02*
X34937699Y-18532585D01*
X34937699Y-18532585D02*
X34992127Y-18423728D01*
X34992127Y-18423728D02*
X34992127Y-18369299D01*
X34992127Y-18369299D02*
X34937699Y-18260442D01*
X34937699Y-18260442D02*
X34883270Y-18206014D01*
X34883270Y-18206014D02*
X34774413Y-18151585D01*
X34774413Y-18151585D02*
X34556699Y-18151585D01*
X34556699Y-18151585D02*
X34447842Y-18206014D01*
X34447842Y-18206014D02*
X34393413Y-18260442D01*
X34393413Y-18260442D02*
X34338984Y-18369299D01*
X34338984Y-18369299D02*
X34338984Y-18423728D01*
X34338984Y-18423728D02*
X34393413Y-18532585D01*
X34393413Y-18532585D02*
X34447842Y-18587014D01*
X34447842Y-18587014D02*
X34556699Y-18641442D01*
X34556699Y-18641442D02*
X34774413Y-18641442D01*
X34774413Y-18641442D02*
X34883270Y-18695871D01*
X34883270Y-18695871D02*
X34937699Y-18750299D01*
X34937699Y-18750299D02*
X34992127Y-18859157D01*
X34992127Y-18859157D02*
X34992127Y-19076871D01*
X34992127Y-19076871D02*
X34937699Y-19185728D01*
X34937699Y-19185728D02*
X34883270Y-19240157D01*
X34883270Y-19240157D02*
X34774413Y-19294585D01*
X34774413Y-19294585D02*
X34556699Y-19294585D01*
X34556699Y-19294585D02*
X34447842Y-19240157D01*
X34447842Y-19240157D02*
X34393413Y-19185728D01*
X34393413Y-19185728D02*
X34338984Y-19076871D01*
X34338984Y-19076871D02*
X34338984Y-18859157D01*
X34338984Y-18859157D02*
X34393413Y-18750299D01*
X34393413Y-18750299D02*
X34447842Y-18695871D01*
X34447842Y-18695871D02*
X34556699Y-18641442D01*
X45932271Y-19991751D02*
X45224699Y-19991751D01*
X45224699Y-19991751D02*
X45605699Y-20427180D01*
X45605699Y-20427180D02*
X45442414Y-20427180D01*
X45442414Y-20427180D02*
X45333557Y-20481608D01*
X45333557Y-20481608D02*
X45279128Y-20536037D01*
X45279128Y-20536037D02*
X45224699Y-20644894D01*
X45224699Y-20644894D02*
X45224699Y-20917037D01*
X45224699Y-20917037D02*
X45279128Y-21025894D01*
X45279128Y-21025894D02*
X45333557Y-21080323D01*
X45333557Y-21080323D02*
X45442414Y-21134751D01*
X45442414Y-21134751D02*
X45768985Y-21134751D01*
X45768985Y-21134751D02*
X45877842Y-21080323D01*
X45877842Y-21080323D02*
X45932271Y-21025894D01*
X44136128Y-20046180D02*
X44244986Y-19991751D01*
X44244986Y-19991751D02*
X44408271Y-19991751D01*
X44408271Y-19991751D02*
X44571557Y-20046180D01*
X44571557Y-20046180D02*
X44680414Y-20155037D01*
X44680414Y-20155037D02*
X44734843Y-20263894D01*
X44734843Y-20263894D02*
X44789271Y-20481608D01*
X44789271Y-20481608D02*
X44789271Y-20644894D01*
X44789271Y-20644894D02*
X44734843Y-20862608D01*
X44734843Y-20862608D02*
X44680414Y-20971465D01*
X44680414Y-20971465D02*
X44571557Y-21080323D01*
X44571557Y-21080323D02*
X44408271Y-21134751D01*
X44408271Y-21134751D02*
X44299414Y-21134751D01*
X44299414Y-21134751D02*
X44136128Y-21080323D01*
X44136128Y-21080323D02*
X44081700Y-21025894D01*
X44081700Y-21025894D02*
X44081700Y-20644894D01*
X44081700Y-20644894D02*
X44299414Y-20644894D01*
X43591843Y-21134751D02*
X43591843Y-19991751D01*
X43591843Y-19991751D02*
X43319700Y-19991751D01*
X43319700Y-19991751D02*
X43156414Y-20046180D01*
X43156414Y-20046180D02*
X43047557Y-20155037D01*
X43047557Y-20155037D02*
X42993128Y-20263894D01*
X42993128Y-20263894D02*
X42938700Y-20481608D01*
X42938700Y-20481608D02*
X42938700Y-20644894D01*
X42938700Y-20644894D02*
X42993128Y-20862608D01*
X42993128Y-20862608D02*
X43047557Y-20971465D01*
X43047557Y-20971465D02*
X43156414Y-21080323D01*
X43156414Y-21080323D02*
X43319700Y-21134751D01*
X43319700Y-21134751D02*
X43591843Y-21134751D01*
X41795700Y-21134751D02*
X42176700Y-20590465D01*
X42448843Y-21134751D02*
X42448843Y-19991751D01*
X42448843Y-19991751D02*
X42013414Y-19991751D01*
X42013414Y-19991751D02*
X41904557Y-20046180D01*
X41904557Y-20046180D02*
X41850128Y-20100608D01*
X41850128Y-20100608D02*
X41795700Y-20209465D01*
X41795700Y-20209465D02*
X41795700Y-20372751D01*
X41795700Y-20372751D02*
X41850128Y-20481608D01*
X41850128Y-20481608D02*
X41904557Y-20536037D01*
X41904557Y-20536037D02*
X42013414Y-20590465D01*
X42013414Y-20590465D02*
X42448843Y-20590465D01*
X41305843Y-20699323D02*
X40434986Y-20699323D01*
X39509700Y-20536037D02*
X39890700Y-20536037D01*
X39890700Y-21134751D02*
X39890700Y-19991751D01*
X39890700Y-19991751D02*
X39346414Y-19991751D01*
X38910986Y-21134751D02*
X38910986Y-19991751D01*
X38910986Y-19991751D02*
X38529986Y-20808180D01*
X38529986Y-20808180D02*
X38148986Y-19991751D01*
X38148986Y-19991751D02*
X38148986Y-21134751D01*
D13*
G36*
X46795027Y-73382773D02*
G01*
X46800378Y-73393047D01*
X46791252Y-73404072D01*
X46743148Y-73418094D01*
X46710168Y-73428264D01*
X46687200Y-73443846D01*
X46671960Y-73464778D01*
X46659746Y-73513822D01*
X46653736Y-73635381D01*
X46656373Y-73886789D01*
X46653736Y-74119818D01*
X46658932Y-74332375D01*
X46670412Y-74415607D01*
X46687159Y-74452340D01*
X46716248Y-74475169D01*
X46768273Y-74493362D01*
X46795289Y-74502466D01*
X46801231Y-74511819D01*
X46794717Y-74522210D01*
X46687547Y-74524847D01*
X46449012Y-74524847D01*
X46357041Y-74522985D01*
X46347752Y-74518829D01*
X46344866Y-74510733D01*
X46351757Y-74501515D01*
X46384803Y-74495068D01*
X46418842Y-74488147D01*
X46451183Y-74470486D01*
X46477541Y-74446001D01*
X46491120Y-74423027D01*
X46497668Y-74389279D01*
X46503217Y-74299495D01*
X46506242Y-74170689D01*
X46503683Y-74092444D01*
X46498487Y-73973797D01*
X46359678Y-73978915D01*
X46231799Y-73973032D01*
X46130366Y-73957065D01*
X46050836Y-73933138D01*
X45989235Y-73902764D01*
X45934963Y-73859609D01*
X45897194Y-73808479D01*
X45874118Y-73747893D01*
X45866013Y-73675163D01*
X45868416Y-73650580D01*
X46036927Y-73650580D01*
X46045679Y-73726505D01*
X46072986Y-73805597D01*
X46102004Y-73852898D01*
X46139653Y-73888607D01*
X46187058Y-73914086D01*
X46267126Y-73936546D01*
X46353629Y-73944174D01*
X46498487Y-73939831D01*
X46499340Y-73884695D01*
X46495850Y-73673767D01*
X46499340Y-73475789D01*
X46498487Y-73437016D01*
X46428636Y-73423143D01*
X46342307Y-73418094D01*
X46253143Y-73423506D01*
X46186704Y-73437861D01*
X46138085Y-73458984D01*
X46103307Y-73485715D01*
X46066401Y-73534102D01*
X46044455Y-73588409D01*
X46036927Y-73650580D01*
X45868416Y-73650580D01*
X45872037Y-73613535D01*
X45889573Y-73558536D01*
X45918604Y-73508750D01*
X45960155Y-73463227D01*
X46008518Y-73430849D01*
X46080358Y-73404221D01*
X46183359Y-73385564D01*
X46326720Y-73378390D01*
X46602555Y-73379321D01*
X46774322Y-73378390D01*
X46795027Y-73382773D01*
G37*
G36*
X44773297Y-74531903D02*
G01*
X44821841Y-74534773D01*
X44938162Y-74529810D01*
X45287744Y-74524847D01*
X45508133Y-74524847D01*
X45596614Y-74529810D01*
X45689438Y-74534773D01*
X45745184Y-74528825D01*
X45755353Y-74518643D01*
X45750229Y-74509605D01*
X45729297Y-74504994D01*
X45673768Y-74497516D01*
X45636363Y-74484929D01*
X45612201Y-74468780D01*
X45585246Y-74432549D01*
X45567146Y-74379756D01*
X45559156Y-74297874D01*
X45554971Y-74066000D01*
X45554041Y-73753485D01*
X45558205Y-73613073D01*
X45567534Y-73541472D01*
X45588740Y-73487395D01*
X45623135Y-73449346D01*
X45667845Y-73424370D01*
X45718053Y-73413131D01*
X45739974Y-73406148D01*
X45745815Y-73393900D01*
X45740383Y-73382221D01*
X45720690Y-73377537D01*
X45698123Y-73378390D01*
X45554272Y-73385652D01*
X45375372Y-73388316D01*
X45222682Y-73383353D01*
X45204662Y-73388320D01*
X45199263Y-73401732D01*
X45204721Y-73413596D01*
X45224388Y-73418327D01*
X45282581Y-73424815D01*
X45327216Y-73442677D01*
X45362622Y-73470004D01*
X45381886Y-73498666D01*
X45391052Y-73537939D01*
X45395302Y-73622508D01*
X45402281Y-74033431D01*
X45400575Y-74262737D01*
X45397618Y-74360409D01*
X45391502Y-74401779D01*
X45377818Y-74431764D01*
X45353737Y-74459552D01*
X45318004Y-74477525D01*
X45249591Y-74485142D01*
X45094264Y-74480024D01*
X45019050Y-74460616D01*
X44948414Y-74423196D01*
X44880932Y-74365642D01*
X44820653Y-74297092D01*
X44780037Y-74239009D01*
X44755073Y-74189688D01*
X44743494Y-74172212D01*
X44731576Y-74167509D01*
X44720948Y-74172125D01*
X44716842Y-74188215D01*
X44742045Y-74361377D01*
X44773297Y-74531903D01*
G37*
G36*
X44245916Y-73636805D02*
G01*
X44353767Y-73920832D01*
X44459755Y-74213341D01*
X44518632Y-74362928D01*
X44550589Y-74422330D01*
X44586437Y-74462960D01*
X44626280Y-74488657D01*
X44671322Y-74501427D01*
X44690532Y-74508394D01*
X44695594Y-74519030D01*
X44689877Y-74530076D01*
X44667833Y-74534773D01*
X44605670Y-74527995D01*
X44471793Y-74524847D01*
X44304292Y-74534773D01*
X44293900Y-74522985D01*
X44300204Y-74511722D01*
X44326005Y-74504994D01*
X44368702Y-74496639D01*
X44414098Y-74475682D01*
X44438910Y-74454740D01*
X44453593Y-74428100D01*
X44458766Y-74393869D01*
X44452697Y-74348337D01*
X44427119Y-74255323D01*
X44368501Y-74088334D01*
X43965101Y-74083138D01*
X43913920Y-74232416D01*
X43870046Y-74369241D01*
X43860955Y-74420080D01*
X43868345Y-74455642D01*
X43889182Y-74479094D01*
X43923579Y-74493576D01*
X43991157Y-74504994D01*
X44006946Y-74510459D01*
X44011086Y-74519030D01*
X44005483Y-74530119D01*
X43984177Y-74534773D01*
X43913844Y-74528118D01*
X43741300Y-74524847D01*
X43623515Y-74527602D01*
X43538281Y-74534773D01*
X43526107Y-74535626D01*
X43514807Y-74532431D01*
X43511373Y-74523683D01*
X43517282Y-74511826D01*
X43539987Y-74504994D01*
X43595947Y-74492100D01*
X43638666Y-74465840D01*
X43671042Y-74425509D01*
X43717283Y-74324307D01*
X43821949Y-74046536D01*
X43826826Y-74033508D01*
X43980688Y-74033508D01*
X44224496Y-74029165D01*
X44352914Y-74033508D01*
X44245229Y-73740208D01*
X44164629Y-73555818D01*
X44070952Y-73794663D01*
X43980688Y-74033508D01*
X43826826Y-74033508D01*
X43987778Y-73603595D01*
X44090029Y-73368464D01*
X44129966Y-73368464D01*
X44245916Y-73636805D01*
G37*
G36*
X43004137Y-73437946D02*
G01*
X43099597Y-73432983D01*
X43195402Y-73438959D01*
X43269964Y-73455129D01*
X43327424Y-73479489D01*
X43371167Y-73510996D01*
X43423910Y-73566422D01*
X43454660Y-73611867D01*
X43469187Y-73649572D01*
X43477475Y-73666037D01*
X43492606Y-73671208D01*
X43509124Y-73664849D01*
X43499590Y-73553664D01*
X43475236Y-73388316D01*
X43422348Y-73388316D01*
X43240966Y-73393279D01*
X42866258Y-73398242D01*
X42529626Y-73393589D01*
X42334440Y-73388316D01*
X42320559Y-73517897D01*
X42310090Y-73625843D01*
X42309237Y-73640577D01*
X42313986Y-73656320D01*
X42327461Y-73661282D01*
X42346150Y-73653915D01*
X42379573Y-73604828D01*
X42427500Y-73540769D01*
X42473249Y-73498355D01*
X42524593Y-73468727D01*
X42581660Y-73451905D01*
X42656696Y-73444130D01*
X42823685Y-73437946D01*
X42831369Y-73573722D01*
X42834154Y-73737588D01*
X42829931Y-74126153D01*
X42820607Y-74318483D01*
X42810347Y-74395188D01*
X42792018Y-74437082D01*
X42760268Y-74467342D01*
X42711748Y-74487378D01*
X42639821Y-74495068D01*
X42610616Y-74499602D01*
X42604227Y-74508717D01*
X42610779Y-74519792D01*
X42638037Y-74524847D01*
X43171639Y-74524847D01*
X43187736Y-74520632D01*
X43192421Y-74509570D01*
X43185146Y-74499339D01*
X43151632Y-74494215D01*
X43107422Y-74489604D01*
X43071128Y-74476598D01*
X43041049Y-74455597D01*
X43017343Y-74427413D01*
X43001099Y-74393015D01*
X42992427Y-74350908D01*
X42988191Y-74255270D01*
X42985913Y-73969532D01*
X42990495Y-73701253D01*
X43004137Y-73437946D01*
G37*
G36*
X41667302Y-73932929D02*
G01*
X41613599Y-73866944D01*
X41519343Y-73737278D01*
X41402246Y-73561246D01*
X41388184Y-73527979D01*
X41384488Y-73506653D01*
X41393117Y-73475053D01*
X41420548Y-73449423D01*
X41457386Y-73433218D01*
X41493830Y-73428020D01*
X41517524Y-73423515D01*
X41523297Y-73413519D01*
X41515053Y-73403592D01*
X41473822Y-73398242D01*
X41146729Y-73398242D01*
X41109645Y-73403910D01*
X41101596Y-73415225D01*
X41105989Y-73425088D01*
X41121526Y-73428951D01*
X41171611Y-73434800D01*
X41220088Y-73452525D01*
X41267163Y-73485959D01*
X41335013Y-73558144D01*
X41485920Y-73763411D01*
X41590336Y-73910210D01*
X41614338Y-73952084D01*
X41623471Y-74009499D01*
X41628219Y-74169603D01*
X41621307Y-74380991D01*
X41608754Y-74447377D01*
X41590392Y-74469607D01*
X41552086Y-74488097D01*
X41482508Y-74500652D01*
X41460331Y-74507106D01*
X41454746Y-74517712D01*
X41460984Y-74529668D01*
X41485144Y-74534773D01*
X41718484Y-74524847D01*
X41856440Y-74529810D01*
X41911964Y-74534773D01*
X41938476Y-74529754D01*
X41944921Y-74518643D01*
X41940027Y-74509521D01*
X41920649Y-74504994D01*
X41868829Y-74495602D01*
X41833200Y-74474591D01*
X41809524Y-74442104D01*
X41795358Y-74401324D01*
X41785516Y-74344299D01*
X41781762Y-74266537D01*
X41786162Y-74145122D01*
X41797426Y-74060417D01*
X41810294Y-74029451D01*
X41872104Y-73917653D01*
X41948462Y-73792557D01*
X42046042Y-73646005D01*
X42144688Y-73513498D01*
X42193072Y-73464778D01*
X42238122Y-73439040D01*
X42278916Y-73428951D01*
X42304249Y-73422624D01*
X42310168Y-73412821D01*
X42301948Y-73401111D01*
X42252938Y-73398242D01*
X41873733Y-73398242D01*
X41826894Y-73400646D01*
X41821165Y-73404836D01*
X41819062Y-73413519D01*
X41823622Y-73422956D01*
X41840775Y-73428020D01*
X41896050Y-73437526D01*
X41928062Y-73452501D01*
X41944696Y-73471164D01*
X41950117Y-73494401D01*
X41942446Y-73527026D01*
X41910258Y-73587922D01*
X41667302Y-73932929D01*
G37*
G36*
X40990781Y-73382773D02*
G01*
X40996132Y-73393047D01*
X40987006Y-73404072D01*
X40938902Y-73418094D01*
X40905923Y-73428264D01*
X40882955Y-73443846D01*
X40867714Y-73464778D01*
X40855501Y-73513822D01*
X40849491Y-73635381D01*
X40852127Y-73886789D01*
X40849491Y-74119818D01*
X40854686Y-74332375D01*
X40866166Y-74415607D01*
X40882913Y-74452340D01*
X40912003Y-74475169D01*
X40964028Y-74493362D01*
X40991043Y-74502466D01*
X40996985Y-74511819D01*
X40990471Y-74522210D01*
X40883301Y-74524847D01*
X40644766Y-74524847D01*
X40552795Y-74522985D01*
X40543506Y-74518829D01*
X40540621Y-74510733D01*
X40547511Y-74501515D01*
X40580557Y-74495068D01*
X40614596Y-74488147D01*
X40646938Y-74470486D01*
X40673295Y-74446001D01*
X40686874Y-74423027D01*
X40693422Y-74389279D01*
X40698972Y-74299495D01*
X40701996Y-74170689D01*
X40699437Y-74092444D01*
X40694241Y-73973797D01*
X40555432Y-73978915D01*
X40427553Y-73973032D01*
X40326120Y-73957065D01*
X40246591Y-73933138D01*
X40184990Y-73902764D01*
X40130717Y-73859609D01*
X40092948Y-73808479D01*
X40069872Y-73747893D01*
X40061767Y-73675163D01*
X40064170Y-73650580D01*
X40232681Y-73650580D01*
X40241433Y-73726505D01*
X40268740Y-73805597D01*
X40297758Y-73852898D01*
X40335408Y-73888607D01*
X40382812Y-73914086D01*
X40462880Y-73936546D01*
X40549383Y-73944174D01*
X40694241Y-73939831D01*
X40695094Y-73884695D01*
X40691605Y-73673767D01*
X40695094Y-73475789D01*
X40694241Y-73437016D01*
X40624391Y-73423143D01*
X40538062Y-73418094D01*
X40448898Y-73423506D01*
X40382458Y-73437861D01*
X40333840Y-73458984D01*
X40299061Y-73485715D01*
X40262156Y-73534102D01*
X40240209Y-73588409D01*
X40232681Y-73650580D01*
X40064170Y-73650580D01*
X40067791Y-73613535D01*
X40085327Y-73558536D01*
X40114358Y-73508750D01*
X40155909Y-73463227D01*
X40204272Y-73430849D01*
X40276113Y-73404221D01*
X40379113Y-73385564D01*
X40522475Y-73378390D01*
X40798310Y-73379321D01*
X40970076Y-73378390D01*
X40990781Y-73382773D01*
G37*
G36*
X39896437Y-73388316D02*
G01*
X39461785Y-73388316D01*
X39431086Y-73392923D01*
X39424485Y-73402042D01*
X39429964Y-73411988D01*
X39452247Y-73418094D01*
X39508379Y-73430617D01*
X39543365Y-73452060D01*
X39567525Y-73486839D01*
X39588032Y-73550390D01*
X39598288Y-73640705D01*
X39603231Y-73852358D01*
X39598253Y-74108680D01*
X39587179Y-74237069D01*
X39568602Y-74304147D01*
X39535367Y-74360175D01*
X39486523Y-74407208D01*
X39426942Y-74440761D01*
X39351535Y-74462385D01*
X39256208Y-74470253D01*
X39155688Y-74462681D01*
X39080035Y-74442387D01*
X39023722Y-74411860D01*
X38977701Y-74367887D01*
X38943129Y-74311018D01*
X38920041Y-74238387D01*
X38903950Y-74090177D01*
X38896157Y-73738907D01*
X38902426Y-73604711D01*
X38917500Y-73524014D01*
X38936946Y-73479589D01*
X38968306Y-73445554D01*
X39007629Y-73425251D01*
X39057532Y-73418094D01*
X39083421Y-73413304D01*
X39089637Y-73402817D01*
X39082310Y-73393275D01*
X39047141Y-73388316D01*
X38700040Y-73388316D01*
X38681558Y-73392468D01*
X38676621Y-73402507D01*
X38680467Y-73409896D01*
X38695697Y-73414605D01*
X38755376Y-73431001D01*
X38792476Y-73456480D01*
X38808850Y-73480183D01*
X38822720Y-73517478D01*
X38832801Y-73573344D01*
X38839558Y-73667973D01*
X38842339Y-73821882D01*
X38846486Y-74019174D01*
X38857538Y-74169991D01*
X38873273Y-74264518D01*
X38895697Y-74333771D01*
X38923066Y-74383245D01*
X38960513Y-74425469D01*
X39010221Y-74463290D01*
X39074437Y-74496619D01*
X39143150Y-74519618D01*
X39225202Y-74534429D01*
X39322976Y-74539736D01*
X39422798Y-74533867D01*
X39507825Y-74517351D01*
X39580277Y-74491424D01*
X39646442Y-74453644D01*
X39693258Y-74411086D01*
X39724282Y-74363549D01*
X39743469Y-74308811D01*
X39756850Y-74231600D01*
X39761970Y-74125556D01*
X39758480Y-73884540D01*
X39763097Y-73662848D01*
X39773611Y-73544859D01*
X39785855Y-73491609D01*
X39803216Y-73460367D01*
X39827538Y-73438188D01*
X39860069Y-73423902D01*
X39903416Y-73418094D01*
X39927278Y-73413854D01*
X39932884Y-73404756D01*
X39925959Y-73393548D01*
X39896437Y-73388316D01*
G37*
G36*
X37947523Y-73451827D02*
G01*
X37927538Y-73427577D01*
X37916271Y-73403903D01*
X37907034Y-73387740D01*
X37896342Y-73383353D01*
X37880677Y-73392038D01*
X37863307Y-73517587D01*
X37842524Y-73680436D01*
X37846983Y-73691864D01*
X37861601Y-73696023D01*
X37870569Y-73692440D01*
X37879824Y-73678885D01*
X37915726Y-73607630D01*
X37961002Y-73545601D01*
X38016075Y-73491842D01*
X38079257Y-73450246D01*
X38144373Y-73426118D01*
X38212967Y-73418094D01*
X38280136Y-73425788D01*
X38331675Y-73447012D01*
X38371318Y-73480907D01*
X38401688Y-73524999D01*
X38418998Y-73569092D01*
X38424670Y-73614288D01*
X38417753Y-73668802D01*
X38398329Y-73711743D01*
X38366510Y-73745886D01*
X38324281Y-73772427D01*
X38249024Y-73806499D01*
X38127122Y-73849644D01*
X38002759Y-73893733D01*
X37927128Y-73930370D01*
X37866638Y-73976662D01*
X37815693Y-74039712D01*
X37790448Y-74088134D01*
X37775549Y-74138177D01*
X37770560Y-74190696D01*
X37777439Y-74256414D01*
X37797980Y-74318461D01*
X37832947Y-74378123D01*
X37884245Y-74436288D01*
X37944237Y-74483712D01*
X38009785Y-74517259D01*
X38082053Y-74537673D01*
X38162639Y-74544699D01*
X38234836Y-74539195D01*
X38308144Y-74522411D01*
X38383335Y-74493580D01*
X38461117Y-74451487D01*
X38485691Y-74477852D01*
X38499271Y-74507553D01*
X38509418Y-74529120D01*
X38521837Y-74534773D01*
X38532290Y-74528278D01*
X38541844Y-74499256D01*
X38566969Y-74163012D01*
X38561058Y-74155448D01*
X38548746Y-74152620D01*
X38537726Y-74156802D01*
X38527885Y-74171852D01*
X38473628Y-74287531D01*
X38416316Y-74373549D01*
X38356442Y-74435355D01*
X38293735Y-74477163D01*
X38227137Y-74501697D01*
X38154884Y-74509957D01*
X38078707Y-74501347D01*
X38017831Y-74477219D01*
X37968771Y-74438226D01*
X37930979Y-74387268D01*
X37908945Y-74332898D01*
X37901538Y-74273516D01*
X37910518Y-74211819D01*
X37937519Y-74155257D01*
X37979091Y-74106836D01*
X38032980Y-74068327D01*
X38101707Y-74036505D01*
X38220799Y-73994502D01*
X38331100Y-73955019D01*
X38402376Y-73921872D01*
X38445065Y-73894311D01*
X38497350Y-73843008D01*
X38532228Y-73787606D01*
X38553337Y-73727914D01*
X38559990Y-73672604D01*
X38553746Y-73617722D01*
X38535049Y-73566036D01*
X38502990Y-73516324D01*
X38455456Y-73467802D01*
X38400871Y-73429052D01*
X38340708Y-73401309D01*
X38273907Y-73384279D01*
X38199086Y-73378390D01*
X38141446Y-73382776D01*
X38078965Y-73396536D01*
X38016143Y-73418810D01*
X37947523Y-73451827D01*
G37*
%LPC*%
D14*
%TO.C,J18*%
X36753800Y-83058000D03*
%TD*%
%TO.C,J1*%
X36576000Y-11176000D03*
%TD*%
%TO.C,JP1*%
X48463200Y-30759400D03*
D15*
X51003200Y-30759400D03*
X53543200Y-30759400D03*
%TD*%
D14*
%TO.C,J5*%
X54991000Y-37465000D03*
D15*
X57531000Y-37465000D03*
X54991000Y-40005000D03*
X57531000Y-40005000D03*
X54991000Y-42545000D03*
X57531000Y-42545000D03*
X54991000Y-45085000D03*
X57531000Y-45085000D03*
X54991000Y-47625000D03*
X57531000Y-47625000D03*
X54991000Y-50165000D03*
X57531000Y-50165000D03*
X54991000Y-52705000D03*
X57531000Y-52705000D03*
X54991000Y-55245000D03*
X57531000Y-55245000D03*
X54991000Y-57785000D03*
X57531000Y-57785000D03*
X54991000Y-60325000D03*
X57531000Y-60325000D03*
X54991000Y-62865000D03*
X57531000Y-62865000D03*
X54991000Y-65405000D03*
X57531000Y-65405000D03*
X54991000Y-67945000D03*
X57531000Y-67945000D03*
X54991000Y-70485000D03*
X57531000Y-70485000D03*
X54991000Y-73025000D03*
X57531000Y-73025000D03*
%TD*%
D16*
%TO.C,H4*%
X56184800Y-91287600D03*
%TD*%
D14*
%TO.C,J7*%
X36550600Y-21444857D03*
%TD*%
D17*
%TO.C,J23*%
X21717000Y-47523400D03*
D18*
X22987000Y-47523400D03*
%TD*%
D14*
%TO.C,J12*%
X36652200Y-31713714D03*
%TD*%
D17*
%TO.C,J17*%
X15759263Y-83820000D03*
D18*
X15759263Y-85090000D03*
X14489263Y-83820000D03*
X14489263Y-85090000D03*
%TD*%
D17*
%TO.C,J8*%
X15773400Y-63246000D03*
D18*
X15773400Y-64516000D03*
X14503400Y-63246000D03*
X14503400Y-64516000D03*
%TD*%
D17*
%TO.C,J13*%
X15748000Y-73507600D03*
D18*
X15748000Y-74777600D03*
X14478000Y-73507600D03*
X14478000Y-74777600D03*
%TD*%
D19*
%TO.C,U9*%
X55956200Y-18948400D03*
D20*
X55956200Y-16408400D03*
X55956200Y-13868400D03*
X55956200Y-11328400D03*
%TD*%
D17*
%TO.C,J3*%
X15748000Y-52984400D03*
D18*
X15748000Y-54254400D03*
X14478000Y-52984400D03*
X14478000Y-54254400D03*
%TD*%
D14*
%TO.C,JP2*%
X48463200Y-25222200D03*
D15*
X51003200Y-25222200D03*
X53543200Y-25222200D03*
%TD*%
D17*
%TO.C,J20*%
X21717000Y-27279600D03*
D18*
X22987000Y-27279600D03*
%TD*%
D17*
%TO.C,J6*%
X15759263Y-22132982D03*
D18*
X15759263Y-23402982D03*
X14489263Y-22132982D03*
X14489263Y-23402982D03*
%TD*%
D14*
%TO.C,CON1*%
X49072800Y-92176600D03*
D15*
X46532800Y-92176600D03*
X43992800Y-92176600D03*
X41452800Y-92176600D03*
%TD*%
D14*
%TO.C,J16*%
X35661600Y-41935400D03*
%TD*%
D17*
%TO.C,J15*%
X15759263Y-42663439D03*
D18*
X15759263Y-43933439D03*
X14489263Y-42663439D03*
X14489263Y-43933439D03*
%TD*%
D16*
%TO.C,H3*%
X56235600Y-4007600D03*
%TD*%
D14*
%TO.C,J9*%
X36703000Y-62520286D03*
%TD*%
%TO.C,J14*%
X36677600Y-72789143D03*
%TD*%
D17*
%TO.C,J22*%
X21717000Y-57861200D03*
D18*
X22987000Y-57861200D03*
%TD*%
D17*
%TO.C,J2*%
X15759263Y-11867753D03*
D18*
X15759263Y-13137753D03*
X14489263Y-11867753D03*
X14489263Y-13137753D03*
%TD*%
D21*
%TO.C,J10*%
X7975600Y-46355000D03*
D22*
X5435600Y-46355000D03*
X7975600Y-43815000D03*
X5435600Y-43815000D03*
X7975600Y-41275000D03*
X5435600Y-41275000D03*
X7975600Y-38735000D03*
X5435600Y-38735000D03*
X7975600Y-36195000D03*
X5435600Y-36195000D03*
X7975600Y-33655000D03*
X5435600Y-33655000D03*
X7975600Y-31115000D03*
X5435600Y-31115000D03*
X7975600Y-28575000D03*
X5435600Y-28575000D03*
%TD*%
D17*
%TO.C,J24*%
X21742400Y-87909400D03*
D18*
X23012400Y-87909400D03*
%TD*%
D17*
%TO.C,J19*%
X21717000Y-37490400D03*
D18*
X22987000Y-37490400D03*
%TD*%
D16*
%TO.C,H1*%
X12000000Y-4007600D03*
%TD*%
D17*
%TO.C,J26*%
X21717000Y-16992600D03*
D18*
X22987000Y-16992600D03*
%TD*%
D16*
%TO.C,H2*%
X12000000Y-91287600D03*
%TD*%
D17*
%TO.C,J25*%
X21717000Y-78130400D03*
D18*
X22987000Y-78130400D03*
%TD*%
D14*
%TO.C,J4*%
X36753800Y-52251429D03*
%TD*%
D17*
%TO.C,J21*%
X21717000Y-68300600D03*
D18*
X22987000Y-68300600D03*
%TD*%
D17*
%TO.C,J11*%
X15759263Y-32398210D03*
D18*
X15759263Y-33668210D03*
X14489263Y-32398210D03*
X14489263Y-33668210D03*
%TD*%
%LPD*%
M02*
